G04 EAGLE Gerber RS-274X export*
G75*
%MOMM*%
%FSLAX34Y34*%
%LPD*%
%IN*%
%IPPOS*%
%AMOC8*
5,1,8,0,0,1.08239X$1,22.5*%
G01*
%ADD10C,0.254000*%


D10*
X6350Y12700D02*
X6495Y9379D01*
X6929Y6084D01*
X7648Y2839D01*
X8648Y-331D01*
X9920Y-3402D01*
X11454Y-6350D01*
X13240Y-9153D01*
X15264Y-11790D01*
X17509Y-14241D01*
X19960Y-16486D01*
X22597Y-18510D01*
X25400Y-20296D01*
X28348Y-21830D01*
X31419Y-23102D01*
X34589Y-24102D01*
X37834Y-24821D01*
X41129Y-25255D01*
X44450Y-25400D01*
X882650Y-25400D01*
X885971Y-25255D01*
X889266Y-24821D01*
X892511Y-24102D01*
X895681Y-23102D01*
X898752Y-21830D01*
X901700Y-20296D01*
X904503Y-18510D01*
X907140Y-16486D01*
X909591Y-14241D01*
X911836Y-11790D01*
X913860Y-9153D01*
X915646Y-6350D01*
X917180Y-3402D01*
X918452Y-331D01*
X919452Y2839D01*
X920171Y6084D01*
X920605Y9379D01*
X920750Y12700D01*
X920750Y298450D01*
X920605Y301771D01*
X920171Y305066D01*
X919452Y308311D01*
X918452Y311481D01*
X917180Y314552D01*
X915646Y317500D01*
X913860Y320303D01*
X911836Y322940D01*
X909591Y325391D01*
X907140Y327636D01*
X904503Y329660D01*
X901700Y331446D01*
X898752Y332980D01*
X895681Y334252D01*
X892511Y335252D01*
X889266Y335971D01*
X885971Y336405D01*
X882650Y336550D01*
X44450Y336550D01*
X41129Y336405D01*
X37834Y335971D01*
X34589Y335252D01*
X31419Y334252D01*
X28348Y332980D01*
X25400Y331446D01*
X22597Y329660D01*
X19960Y327636D01*
X17509Y325391D01*
X15264Y322940D01*
X13240Y320303D01*
X11454Y317500D01*
X9920Y314552D01*
X8648Y311481D01*
X7648Y308311D01*
X6929Y305066D01*
X6495Y301771D01*
X6350Y298450D01*
X6350Y12700D01*
X869306Y15635D02*
X900576Y15635D01*
X901939Y15695D01*
X903291Y15873D01*
X904623Y16168D01*
X905924Y16578D01*
X907184Y17100D01*
X908394Y17730D01*
X909544Y18463D01*
X910626Y19293D01*
X911632Y20214D01*
X912553Y21220D01*
X913383Y22302D01*
X914116Y23453D01*
X914746Y24662D01*
X915268Y25923D01*
X915678Y27223D01*
X915973Y28555D01*
X916152Y29907D01*
X916211Y31270D01*
X916152Y32633D01*
X915973Y33985D01*
X915678Y35317D01*
X915268Y36618D01*
X914746Y37878D01*
X914116Y39088D01*
X913383Y40238D01*
X912553Y41320D01*
X911632Y42326D01*
X910626Y43247D01*
X909544Y44077D01*
X908394Y44810D01*
X907184Y45440D01*
X905924Y45962D01*
X904623Y46372D01*
X903291Y46667D01*
X901939Y46846D01*
X900576Y46905D01*
X869306Y46905D01*
X867943Y46846D01*
X866591Y46667D01*
X865259Y46372D01*
X863959Y45962D01*
X862698Y45440D01*
X861489Y44810D01*
X860338Y44077D01*
X859256Y43247D01*
X858250Y42326D01*
X857329Y41320D01*
X856499Y40238D01*
X855766Y39088D01*
X855136Y37878D01*
X854614Y36618D01*
X854204Y35317D01*
X853909Y33985D01*
X853731Y32633D01*
X853671Y31270D01*
X853731Y29907D01*
X853909Y28555D01*
X854204Y27223D01*
X854614Y25923D01*
X855136Y24662D01*
X855766Y23453D01*
X856499Y22302D01*
X857329Y21220D01*
X858250Y20214D01*
X859256Y19293D01*
X860338Y18463D01*
X861489Y17730D01*
X862698Y17100D01*
X863959Y16578D01*
X865259Y16168D01*
X866591Y15873D01*
X867943Y15695D01*
X869306Y15635D01*
X869306Y262668D02*
X900576Y262668D01*
X901939Y262728D01*
X903291Y262906D01*
X904623Y263201D01*
X905924Y263611D01*
X907184Y264133D01*
X908394Y264763D01*
X909544Y265496D01*
X910626Y266326D01*
X911632Y267247D01*
X912553Y268253D01*
X913383Y269335D01*
X914116Y270486D01*
X914746Y271695D01*
X915268Y272956D01*
X915678Y274256D01*
X915973Y275588D01*
X916152Y276940D01*
X916211Y278303D01*
X916152Y279666D01*
X915973Y281018D01*
X915678Y282350D01*
X915268Y283651D01*
X914746Y284911D01*
X914116Y286121D01*
X913383Y287271D01*
X912553Y288353D01*
X911632Y289359D01*
X910626Y290280D01*
X909544Y291110D01*
X908394Y291843D01*
X907184Y292473D01*
X905924Y292995D01*
X904623Y293405D01*
X903291Y293700D01*
X901939Y293879D01*
X900576Y293938D01*
X869306Y293938D01*
X867943Y293879D01*
X866591Y293700D01*
X865259Y293405D01*
X863959Y292995D01*
X862698Y292473D01*
X861489Y291843D01*
X860338Y291110D01*
X859256Y290280D01*
X858250Y289359D01*
X857329Y288353D01*
X856499Y287271D01*
X855766Y286121D01*
X855136Y284911D01*
X854614Y283651D01*
X854204Y282350D01*
X853909Y281018D01*
X853731Y279666D01*
X853671Y278303D01*
X853731Y276940D01*
X853909Y275588D01*
X854204Y274256D01*
X854614Y272956D01*
X855136Y271695D01*
X855766Y270486D01*
X856499Y269335D01*
X857329Y268253D01*
X858250Y267247D01*
X859256Y266326D01*
X860338Y265496D01*
X861489Y264763D01*
X862698Y264133D01*
X863959Y263611D01*
X865259Y263201D01*
X866591Y262906D01*
X867943Y262728D01*
X869306Y262668D01*
X25016Y15635D02*
X56286Y15635D01*
X57655Y15558D01*
X59025Y15601D01*
X60386Y15763D01*
X61728Y16043D01*
X63040Y16439D01*
X64313Y16948D01*
X65537Y17566D01*
X66702Y18288D01*
X67800Y19109D01*
X68822Y20022D01*
X69760Y21021D01*
X70608Y22098D01*
X71359Y23245D01*
X72007Y24453D01*
X72547Y25713D01*
X72975Y27015D01*
X73289Y28350D01*
X73485Y29707D01*
X73561Y31075D01*
X73518Y32445D01*
X73356Y33806D01*
X73076Y35148D01*
X72680Y36461D01*
X72172Y37733D01*
X71554Y38957D01*
X70832Y40122D01*
X70011Y41220D01*
X69097Y42242D01*
X68098Y43181D01*
X67021Y44029D01*
X65874Y44779D01*
X64666Y45427D01*
X63406Y45968D01*
X62104Y46396D01*
X60770Y46709D01*
X59413Y46905D01*
X28143Y46905D01*
X26774Y46982D01*
X25404Y46939D01*
X24043Y46777D01*
X22701Y46497D01*
X21389Y46101D01*
X20116Y45592D01*
X18892Y44974D01*
X17727Y44252D01*
X16629Y43431D01*
X15607Y42518D01*
X14669Y41519D01*
X13821Y40442D01*
X13070Y39295D01*
X12422Y38087D01*
X11882Y36827D01*
X11454Y35525D01*
X11140Y34190D01*
X10945Y32834D01*
X10868Y31465D01*
X10911Y30095D01*
X11073Y28734D01*
X11353Y27392D01*
X11749Y26079D01*
X12257Y24807D01*
X12875Y23583D01*
X13597Y22418D01*
X14418Y21320D01*
X15332Y20298D01*
X16331Y19359D01*
X17408Y18511D01*
X18555Y17761D01*
X19763Y17113D01*
X21023Y16572D01*
X22325Y16144D01*
X23659Y15831D01*
X25016Y15635D01*
X28143Y262668D02*
X59413Y262668D01*
X60776Y262728D01*
X62128Y262906D01*
X63460Y263201D01*
X64761Y263611D01*
X66021Y264133D01*
X67231Y264763D01*
X68381Y265496D01*
X69463Y266326D01*
X70469Y267247D01*
X71390Y268253D01*
X72220Y269335D01*
X72953Y270486D01*
X73583Y271695D01*
X74105Y272956D01*
X74515Y274256D01*
X74810Y275588D01*
X74989Y276940D01*
X75048Y278303D01*
X74989Y279666D01*
X74810Y281018D01*
X74515Y282350D01*
X74105Y283651D01*
X73583Y284911D01*
X72953Y286121D01*
X72220Y287271D01*
X71390Y288353D01*
X70469Y289359D01*
X69463Y290280D01*
X68381Y291110D01*
X67231Y291843D01*
X66021Y292473D01*
X64761Y292995D01*
X63460Y293405D01*
X62128Y293700D01*
X60776Y293879D01*
X59413Y293938D01*
X28143Y293938D01*
X26780Y293879D01*
X25428Y293700D01*
X24096Y293405D01*
X22796Y292995D01*
X21535Y292473D01*
X20326Y291843D01*
X19175Y291110D01*
X18093Y290280D01*
X17087Y289359D01*
X16166Y288353D01*
X15336Y287271D01*
X14603Y286121D01*
X13973Y284911D01*
X13451Y283651D01*
X13041Y282350D01*
X12746Y281018D01*
X12568Y279666D01*
X12508Y278303D01*
X12568Y276940D01*
X12746Y275588D01*
X13041Y274256D01*
X13451Y272956D01*
X13973Y271695D01*
X14603Y270486D01*
X15336Y269335D01*
X16166Y268253D01*
X17087Y267247D01*
X18093Y266326D01*
X19175Y265496D01*
X20326Y264763D01*
X21535Y264133D01*
X22796Y263611D01*
X24096Y263201D01*
X25428Y262906D01*
X26780Y262728D01*
X28143Y262668D01*
M02*
