G04 EAGLE Gerber RS-274X export*
G75*
%MOMM*%
%FSLAX34Y34*%
%LPD*%
%INSoldermask Bottom*%
%IPPOS*%
%AMOC8*
5,1,8,0,0,1.08239X$1,22.5*%
G01*
%ADD10C,1.879600*%
%ADD11C,1.981200*%
%ADD12P,1.649562X8X22.500000*%
%ADD13C,1.778000*%
%ADD14C,1.609600*%


D10*
X437119Y193402D03*
X437119Y168002D03*
X437119Y142602D03*
X437119Y117202D03*
D11*
X815425Y168888D03*
X815425Y143488D03*
D12*
X757452Y128898D03*
X782852Y128898D03*
D13*
X221093Y28900D03*
X246493Y27900D03*
X271893Y27900D03*
X297293Y27900D03*
X322693Y27900D03*
X348093Y27900D03*
X373493Y27900D03*
X398893Y27900D03*
X424293Y27900D03*
X449693Y27900D03*
X475093Y27900D03*
X500493Y27900D03*
X525893Y27900D03*
X551293Y27900D03*
X576693Y27900D03*
X602093Y27900D03*
X627493Y27900D03*
X652893Y27900D03*
X678293Y27900D03*
X703693Y27900D03*
X221093Y283108D03*
X246493Y283108D03*
X271893Y283108D03*
X297293Y283108D03*
X322693Y283108D03*
X348093Y283108D03*
X373493Y283108D03*
X398893Y283108D03*
X424293Y283108D03*
X449693Y283108D03*
X475093Y283108D03*
X500493Y283108D03*
X525893Y283108D03*
X551293Y283108D03*
X576693Y283108D03*
X602093Y283108D03*
X627493Y283108D03*
X652893Y283108D03*
X678293Y283108D03*
X703693Y283108D03*
D12*
X756073Y186660D03*
X781473Y186660D03*
D14*
X68904Y3223D03*
X94304Y3223D03*
X119704Y3223D03*
X145104Y3223D03*
X170504Y3223D03*
X195904Y3223D03*
X221304Y3223D03*
X246704Y3223D03*
X272104Y3223D03*
X297504Y3223D03*
X322904Y3223D03*
X348304Y3223D03*
X373704Y3223D03*
X373704Y308023D03*
X348304Y308023D03*
X322904Y308023D03*
X297504Y308023D03*
X272104Y308023D03*
X246704Y308023D03*
X221304Y308023D03*
X195904Y308023D03*
X170504Y308023D03*
X145104Y308023D03*
X119704Y308023D03*
X94304Y308023D03*
X68904Y308023D03*
D12*
X757603Y157480D03*
X783003Y157480D03*
M02*
