G04 EAGLE Gerber RS-274X export*
G75*
%MOMM*%
%FSLAX34Y34*%
%LPD*%
%INTop Copper*%
%IPPOS*%
%AMOC8*
5,1,8,0,0,1.08239X$1,22.5*%
G01*
%ADD10R,1.800000X1.500000*%
%ADD11C,1.879600*%
%ADD12R,1.800000X0.780000*%
%ADD13C,0.254000*%
%ADD14C,0.406400*%


D10*
X41910Y334010D03*
X41910Y308610D03*
X41910Y283210D03*
X41910Y207010D03*
X41910Y181610D03*
X41910Y156210D03*
X41910Y130810D03*
X41910Y105410D03*
X41910Y80010D03*
X41910Y54610D03*
X41910Y29210D03*
X285750Y29210D03*
X285750Y54610D03*
X285750Y80010D03*
X285750Y105410D03*
X285750Y130810D03*
X285750Y156210D03*
X285750Y181610D03*
X285750Y207010D03*
X285750Y283210D03*
X285750Y308610D03*
X285750Y334010D03*
D11*
X11430Y29210D03*
X11430Y54610D03*
X11430Y80010D03*
X11430Y105410D03*
X11430Y130810D03*
X11430Y156210D03*
X11430Y181610D03*
X11430Y207010D03*
X11430Y232410D03*
X11430Y257810D03*
X11430Y283210D03*
X11430Y308610D03*
X11430Y334010D03*
X316230Y334010D03*
X316230Y308610D03*
X316230Y283210D03*
X316230Y257810D03*
X316230Y232410D03*
X316230Y207010D03*
X316230Y181610D03*
X316230Y156210D03*
X316230Y130810D03*
X316230Y105410D03*
X316230Y80010D03*
X316230Y54610D03*
X316230Y29210D03*
D12*
X93980Y335280D03*
X93980Y322580D03*
X93980Y309880D03*
X93980Y254000D03*
X93980Y241300D03*
X93980Y228600D03*
X93980Y215900D03*
X93980Y203200D03*
X93980Y190500D03*
X93980Y177800D03*
X93980Y165100D03*
X236220Y165100D03*
X236220Y177800D03*
X236220Y190500D03*
X236220Y203200D03*
X236220Y215900D03*
X236220Y228600D03*
X236220Y241300D03*
X236220Y254000D03*
X236220Y309880D03*
X236220Y322580D03*
X236220Y335280D03*
D11*
X36830Y29210D03*
X36830Y54610D03*
X36830Y80010D03*
X36830Y105410D03*
X36830Y130810D03*
X36830Y156210D03*
X36830Y181610D03*
X36830Y207010D03*
X36830Y232410D03*
X36830Y257810D03*
X36830Y283210D03*
X36830Y308610D03*
X36830Y334010D03*
X290830Y334010D03*
X290830Y308610D03*
X290830Y283210D03*
X290830Y257810D03*
X290830Y232410D03*
X290830Y207010D03*
X290830Y181610D03*
X290830Y156210D03*
X290830Y130810D03*
X290830Y105410D03*
X290830Y80010D03*
X290830Y54610D03*
X290830Y29210D03*
D13*
X41910Y207010D02*
X11430Y207010D01*
X77470Y254000D02*
X93980Y254000D01*
X41910Y218440D02*
X41910Y207010D01*
X41910Y218440D02*
X77470Y254000D01*
X41910Y181610D02*
X11430Y181610D01*
X81280Y241300D02*
X93980Y241300D01*
X81280Y241300D02*
X55880Y215900D01*
X55880Y185420D01*
X52070Y181610D01*
X41910Y181610D01*
X36830Y156210D02*
X11430Y156210D01*
X82804Y228600D02*
X93980Y228600D01*
X82804Y228600D02*
X59944Y205740D01*
X59944Y164084D01*
X52070Y156210D01*
X41910Y156210D01*
X36830Y156210D01*
X83058Y215900D02*
X93980Y215900D01*
X83058Y215900D02*
X64008Y196850D01*
X64008Y137668D01*
X57150Y130810D01*
X41910Y130810D01*
X36830Y130810D02*
X11430Y130810D01*
X36830Y130810D02*
X41910Y130810D01*
X84582Y203200D02*
X93980Y203200D01*
X84582Y203200D02*
X68072Y186690D01*
X68072Y135985D01*
X60960Y128873D02*
X60960Y110490D01*
X60960Y128873D02*
X68072Y135985D01*
X60960Y110490D02*
X55880Y105410D01*
X41910Y105410D02*
X11430Y105410D01*
X41910Y105410D02*
X44450Y105410D01*
X55880Y105410D01*
X41910Y105410D02*
X36830Y105410D01*
D14*
X34290Y80010D02*
X11430Y80010D01*
X41910Y80010D02*
X66040Y104140D01*
X66040Y127128D02*
X72898Y133986D01*
X72898Y178308D01*
X85090Y190500D02*
X93980Y190500D01*
X66040Y127128D02*
X66040Y104140D01*
X72898Y178308D02*
X85090Y190500D01*
D13*
X41910Y80010D02*
X36830Y80010D01*
X34290Y80010D02*
X41910Y80010D01*
D14*
X38100Y54610D02*
X11430Y54610D01*
D13*
X38100Y54610D02*
X41910Y54610D01*
X36830Y54610D01*
X270510Y308610D02*
X285750Y308610D01*
X288290Y308610D01*
D14*
X290830Y308610D02*
X316230Y308610D01*
X290830Y308610D02*
X288290Y308610D01*
X256540Y322580D02*
X236220Y322580D01*
X256540Y322580D02*
X270510Y308610D01*
X290830Y308610D01*
X285750Y308610D02*
X316230Y308610D01*
D13*
X246380Y177800D02*
X236220Y177800D01*
X246380Y177800D02*
X252730Y171450D01*
X252730Y115505D01*
X262890Y105345D01*
X262890Y62230D02*
X271780Y53340D01*
X285750Y53340D01*
X287020Y54610D01*
X262890Y62230D02*
X262890Y105345D01*
X290830Y54610D02*
X316230Y54610D01*
X290830Y54610D02*
X287020Y54610D01*
X285750Y54610D01*
X289560Y54610D01*
X290830Y54610D02*
X285750Y54610D01*
X285750Y80010D02*
X288290Y80010D01*
X290830Y80010D02*
X316230Y80010D01*
X246634Y190500D02*
X236220Y190500D01*
X246634Y190500D02*
X256794Y180340D01*
X270510Y103473D02*
X270510Y85090D01*
X256794Y117189D02*
X256794Y180340D01*
X256794Y117189D02*
X270510Y103473D01*
X270510Y85090D02*
X275590Y80010D01*
X285750Y80010D01*
X288290Y80010D02*
X290830Y80010D01*
X248158Y203200D02*
X236220Y203200D01*
X248158Y203200D02*
X260858Y190500D01*
X260858Y118872D01*
X274320Y105410D01*
X285750Y105410D01*
X290830Y105410D02*
X316230Y105410D01*
X290830Y105410D02*
X285750Y105410D01*
X248412Y215900D02*
X236220Y215900D01*
X248412Y215900D02*
X264922Y199390D01*
X264922Y144018D01*
X278130Y130810D01*
X285750Y130810D01*
X290830Y130810D02*
X316230Y130810D01*
X290830Y130810D02*
X285750Y130810D01*
X247396Y228600D02*
X236220Y228600D01*
X247396Y228600D02*
X268986Y207010D01*
X268986Y164084D01*
X276860Y156210D01*
X285750Y156210D01*
X290830Y156210D02*
X316230Y156210D01*
X290830Y156210D02*
X285750Y156210D01*
X248920Y241300D02*
X236220Y241300D01*
X273050Y217170D02*
X273050Y184150D01*
X275590Y181610D01*
X285750Y181610D01*
X273050Y217170D02*
X248920Y241300D01*
X290830Y181610D02*
X316230Y181610D01*
X290830Y181610D02*
X285750Y181610D01*
X248920Y254000D02*
X236220Y254000D01*
X248920Y254000D02*
X281940Y220980D01*
X281940Y210820D01*
X285750Y207010D01*
X290830Y207010D01*
X285750Y207010D02*
X316230Y207010D01*
X41910Y334010D02*
X11430Y334010D01*
X92710Y334010D02*
X93980Y335280D01*
X92710Y334010D02*
X41910Y334010D01*
X41910Y308610D02*
X11430Y308610D01*
X72390Y322580D02*
X93980Y322580D01*
X72390Y322580D02*
X58420Y308610D01*
X41910Y308610D01*
X41910Y283210D02*
X11430Y283210D01*
X81280Y309880D02*
X93980Y309880D01*
X54610Y283210D02*
X41910Y283210D01*
X54610Y283210D02*
X81280Y309880D01*
X39370Y29210D02*
X11430Y29210D01*
X39370Y29210D02*
X41910Y29210D01*
X92710Y163830D02*
X93980Y165100D01*
X39370Y29210D02*
X40640Y27940D01*
D14*
X93980Y165100D02*
X93980Y177800D01*
D13*
X93980Y165100D02*
X81280Y165100D01*
X77724Y161544D01*
X77724Y131987D02*
X70866Y125129D01*
X70866Y102141D01*
X59690Y90965D01*
X59690Y34290D02*
X53340Y27940D01*
X43180Y27940D01*
X41910Y29210D01*
X77724Y131987D02*
X77724Y161544D01*
X59690Y90965D02*
X59690Y34290D01*
X285750Y334010D02*
X316230Y334010D01*
X284480Y335280D02*
X236220Y335280D01*
X284480Y335280D02*
X285750Y334010D01*
X285750Y283210D02*
X316230Y283210D01*
X247650Y309880D02*
X236220Y309880D01*
X247650Y309880D02*
X274320Y283210D01*
X285750Y283210D01*
X285750Y29210D02*
X287020Y29210D01*
X316230Y29210D01*
X238760Y162560D02*
X236220Y165100D01*
X238760Y162560D02*
X238760Y153670D01*
X248666Y113822D02*
X258826Y103662D01*
X258826Y40894D02*
X273050Y26670D01*
X284480Y26670D01*
X287020Y29210D01*
X248666Y143764D02*
X238760Y153670D01*
X248666Y143764D02*
X248666Y113822D01*
X258826Y103662D02*
X258826Y40894D01*
M02*
