G04 EAGLE Gerber RS-274X export*
G75*
%MOMM*%
%FSLAX34Y34*%
%LPD*%
%INTop Copper*%
%IPPOS*%
%AMOC8*
5,1,8,0,0,1.08239X$1,22.5*%
G01*
%ADD10R,1.800000X1.500000*%
%ADD11C,1.879600*%
%ADD12R,1.800000X0.780000*%
%ADD13C,0.254000*%
%ADD14C,0.406400*%
%ADD15C,0.706400*%

G36*
X326399Y2012D02*
X326399Y2012D01*
X326450Y2014D01*
X326482Y2032D01*
X326518Y2040D01*
X326557Y2073D01*
X326602Y2097D01*
X326623Y2127D01*
X326651Y2150D01*
X326672Y2197D01*
X326702Y2239D01*
X326710Y2281D01*
X326722Y2309D01*
X326721Y2339D01*
X326729Y2381D01*
X326729Y22179D01*
X326717Y22233D01*
X326716Y22239D01*
X326716Y22255D01*
X326715Y22255D01*
X326713Y22288D01*
X326697Y22317D01*
X326690Y22348D01*
X326655Y22391D01*
X326627Y22439D01*
X326600Y22457D01*
X326580Y22482D01*
X326529Y22504D01*
X326483Y22535D01*
X326451Y22539D01*
X326421Y22553D01*
X326366Y22551D01*
X326311Y22558D01*
X326281Y22547D01*
X326248Y22546D01*
X326200Y22520D01*
X326147Y22502D01*
X326120Y22476D01*
X326096Y22463D01*
X326077Y22436D01*
X326041Y22403D01*
X325336Y21432D01*
X324008Y20104D01*
X322487Y18999D01*
X320813Y18146D01*
X319026Y17565D01*
X317170Y17271D01*
X316991Y17271D01*
X316991Y28829D01*
X316980Y28879D01*
X316978Y28930D01*
X316960Y28962D01*
X316952Y28998D01*
X316919Y29037D01*
X316895Y29082D01*
X316865Y29103D01*
X316842Y29131D01*
X316795Y29152D01*
X316753Y29181D01*
X316711Y29190D01*
X316683Y29202D01*
X316653Y29201D01*
X316611Y29209D01*
X316229Y29209D01*
X316229Y29211D01*
X316611Y29211D01*
X316661Y29223D01*
X316712Y29224D01*
X316744Y29242D01*
X316780Y29250D01*
X316819Y29283D01*
X316864Y29307D01*
X316885Y29337D01*
X316913Y29361D01*
X316934Y29407D01*
X316964Y29449D01*
X316972Y29491D01*
X316984Y29519D01*
X316983Y29549D01*
X316991Y29591D01*
X316991Y41149D01*
X317170Y41149D01*
X319026Y40855D01*
X320813Y40274D01*
X322487Y39421D01*
X324008Y38316D01*
X325336Y36988D01*
X326041Y36017D01*
X326083Y35981D01*
X326118Y35938D01*
X326148Y35925D01*
X326172Y35904D01*
X326226Y35890D01*
X326277Y35867D01*
X326309Y35869D01*
X326340Y35860D01*
X326394Y35872D01*
X326450Y35874D01*
X326478Y35889D01*
X326510Y35896D01*
X326553Y35930D01*
X326602Y35957D01*
X326621Y35983D01*
X326646Y36003D01*
X326670Y36053D01*
X326702Y36098D01*
X326709Y36135D01*
X326721Y36160D01*
X326720Y36193D01*
X326729Y36241D01*
X326729Y49503D01*
X326726Y49516D01*
X326728Y49529D01*
X326707Y49600D01*
X326690Y49672D01*
X326682Y49682D01*
X326678Y49695D01*
X326627Y49749D01*
X326580Y49806D01*
X326568Y49811D01*
X326559Y49821D01*
X326489Y49846D01*
X326421Y49877D01*
X326408Y49876D01*
X326396Y49881D01*
X326323Y49873D01*
X326248Y49870D01*
X326237Y49864D01*
X326224Y49863D01*
X326161Y49823D01*
X326096Y49787D01*
X326089Y49777D01*
X326078Y49770D01*
X325998Y49649D01*
X325490Y48423D01*
X322417Y45350D01*
X318403Y43687D01*
X314057Y43687D01*
X310043Y45350D01*
X306970Y48423D01*
X305662Y51581D01*
X305625Y51632D01*
X305595Y51688D01*
X305575Y51702D01*
X305561Y51721D01*
X305505Y51751D01*
X305453Y51788D01*
X305427Y51793D01*
X305408Y51803D01*
X305370Y51804D01*
X305311Y51815D01*
X301749Y51815D01*
X301687Y51801D01*
X301624Y51794D01*
X301604Y51781D01*
X301580Y51776D01*
X301531Y51735D01*
X301478Y51701D01*
X301463Y51679D01*
X301447Y51666D01*
X301431Y51631D01*
X301398Y51581D01*
X300090Y48423D01*
X297017Y45350D01*
X293003Y43687D01*
X288657Y43687D01*
X284643Y45350D01*
X284519Y45474D01*
X284454Y45514D01*
X284392Y45558D01*
X284380Y45560D01*
X284372Y45565D01*
X284335Y45569D01*
X284250Y45585D01*
X276118Y45585D01*
X275225Y46478D01*
X275225Y50165D01*
X275214Y50215D01*
X275212Y50266D01*
X275194Y50298D01*
X275186Y50334D01*
X275153Y50373D01*
X275129Y50418D01*
X275099Y50439D01*
X275076Y50467D01*
X275029Y50488D01*
X274987Y50518D01*
X274945Y50526D01*
X274917Y50538D01*
X274887Y50537D01*
X274845Y50545D01*
X270622Y50545D01*
X260095Y61072D01*
X260095Y104030D01*
X260078Y104104D01*
X260065Y104179D01*
X260058Y104189D01*
X260056Y104199D01*
X260032Y104228D01*
X259984Y104299D01*
X249935Y114348D01*
X249935Y170135D01*
X249918Y170209D01*
X249905Y170284D01*
X249898Y170294D01*
X249896Y170304D01*
X249872Y170332D01*
X249824Y170404D01*
X247121Y173107D01*
X247078Y173134D01*
X247040Y173168D01*
X247005Y173179D01*
X246974Y173198D01*
X246923Y173203D01*
X246874Y173218D01*
X246838Y173211D01*
X246801Y173215D01*
X246753Y173197D01*
X246703Y173188D01*
X246668Y173164D01*
X246639Y173153D01*
X246618Y173131D01*
X246583Y173107D01*
X245852Y172375D01*
X226588Y172375D01*
X225695Y173268D01*
X225695Y182332D01*
X226588Y183225D01*
X245852Y183225D01*
X246745Y182332D01*
X246745Y180975D01*
X246756Y180925D01*
X246758Y180874D01*
X246776Y180842D01*
X246784Y180806D01*
X246817Y180767D01*
X246841Y180722D01*
X246871Y180701D01*
X246894Y180673D01*
X246941Y180652D01*
X246983Y180622D01*
X247025Y180614D01*
X247053Y180602D01*
X247083Y180603D01*
X247125Y180595D01*
X247538Y180595D01*
X253350Y174782D01*
X253372Y174769D01*
X253388Y174749D01*
X253445Y174723D01*
X253497Y174691D01*
X253523Y174688D01*
X253547Y174678D01*
X253608Y174680D01*
X253670Y174674D01*
X253694Y174683D01*
X253720Y174684D01*
X253774Y174714D01*
X253832Y174736D01*
X253849Y174755D01*
X253872Y174767D01*
X253907Y174818D01*
X253949Y174863D01*
X253957Y174888D01*
X253972Y174909D01*
X253988Y174993D01*
X253999Y175029D01*
X253997Y175039D01*
X253999Y175051D01*
X253999Y179025D01*
X253982Y179099D01*
X253969Y179174D01*
X253962Y179184D01*
X253960Y179194D01*
X253936Y179222D01*
X253888Y179294D01*
X247248Y185934D01*
X247205Y185961D01*
X247167Y185995D01*
X247140Y186003D01*
X247125Y186014D01*
X247116Y186016D01*
X247101Y186025D01*
X247050Y186030D01*
X247001Y186045D01*
X246983Y186042D01*
X246982Y186042D01*
X246976Y186042D01*
X246962Y186039D01*
X246928Y186042D01*
X246880Y186024D01*
X246830Y186015D01*
X246814Y186004D01*
X246807Y186002D01*
X246792Y185990D01*
X246766Y185980D01*
X246745Y185958D01*
X246710Y185934D01*
X245852Y185075D01*
X226588Y185075D01*
X225695Y185968D01*
X225695Y195032D01*
X226588Y195925D01*
X245852Y195925D01*
X246745Y195032D01*
X246745Y193675D01*
X246756Y193625D01*
X246758Y193574D01*
X246776Y193542D01*
X246784Y193506D01*
X246817Y193467D01*
X246841Y193422D01*
X246871Y193401D01*
X246894Y193373D01*
X246941Y193352D01*
X246983Y193322D01*
X247025Y193314D01*
X247053Y193302D01*
X247083Y193303D01*
X247125Y193295D01*
X247792Y193295D01*
X257414Y183672D01*
X257436Y183659D01*
X257452Y183639D01*
X257509Y183613D01*
X257561Y183581D01*
X257587Y183578D01*
X257611Y183568D01*
X257672Y183570D01*
X257734Y183564D01*
X257758Y183573D01*
X257784Y183574D01*
X257838Y183604D01*
X257896Y183626D01*
X257913Y183645D01*
X257936Y183657D01*
X257971Y183708D01*
X258013Y183753D01*
X258021Y183778D01*
X258036Y183799D01*
X258052Y183883D01*
X258063Y183919D01*
X258061Y183929D01*
X258063Y183941D01*
X258063Y189185D01*
X258046Y189259D01*
X258033Y189334D01*
X258026Y189344D01*
X258024Y189354D01*
X258000Y189382D01*
X257952Y189454D01*
X247394Y200012D01*
X247372Y200025D01*
X247356Y200045D01*
X247299Y200071D01*
X247285Y200079D01*
X247279Y200083D01*
X247278Y200084D01*
X247247Y200103D01*
X247221Y200106D01*
X247197Y200116D01*
X247136Y200114D01*
X247074Y200120D01*
X247050Y200111D01*
X247024Y200110D01*
X246970Y200080D01*
X246912Y200058D01*
X246895Y200039D01*
X246872Y200027D01*
X246837Y199976D01*
X246795Y199931D01*
X246787Y199906D01*
X246772Y199885D01*
X246760Y199822D01*
X246752Y199803D01*
X246752Y199788D01*
X246745Y199765D01*
X246747Y199755D01*
X246745Y199743D01*
X246745Y198668D01*
X245852Y197775D01*
X226588Y197775D01*
X225695Y198668D01*
X225695Y207732D01*
X226588Y208625D01*
X245852Y208625D01*
X246745Y207732D01*
X246745Y206375D01*
X246756Y206325D01*
X246758Y206274D01*
X246776Y206242D01*
X246784Y206206D01*
X246817Y206167D01*
X246841Y206122D01*
X246871Y206101D01*
X246894Y206073D01*
X246941Y206052D01*
X246983Y206022D01*
X247025Y206014D01*
X247053Y206002D01*
X247083Y206003D01*
X247125Y205995D01*
X249316Y205995D01*
X261478Y193832D01*
X261500Y193819D01*
X261516Y193799D01*
X261573Y193773D01*
X261625Y193741D01*
X261651Y193738D01*
X261675Y193728D01*
X261736Y193730D01*
X261798Y193724D01*
X261822Y193733D01*
X261848Y193734D01*
X261902Y193764D01*
X261960Y193786D01*
X261977Y193805D01*
X262000Y193817D01*
X262035Y193868D01*
X262077Y193913D01*
X262085Y193938D01*
X262100Y193959D01*
X262116Y194043D01*
X262127Y194079D01*
X262125Y194089D01*
X262127Y194101D01*
X262127Y198075D01*
X262110Y198149D01*
X262097Y198224D01*
X262090Y198234D01*
X262088Y198244D01*
X262064Y198272D01*
X262016Y198344D01*
X247394Y212966D01*
X247372Y212979D01*
X247356Y212999D01*
X247299Y213025D01*
X247247Y213057D01*
X247221Y213060D01*
X247197Y213070D01*
X247136Y213068D01*
X247074Y213074D01*
X247050Y213065D01*
X247024Y213064D01*
X246970Y213034D01*
X246912Y213012D01*
X246895Y212993D01*
X246872Y212981D01*
X246837Y212930D01*
X246795Y212885D01*
X246787Y212860D01*
X246772Y212839D01*
X246756Y212755D01*
X246745Y212719D01*
X246747Y212709D01*
X246745Y212697D01*
X246745Y211368D01*
X245852Y210475D01*
X226588Y210475D01*
X225695Y211368D01*
X225695Y220432D01*
X226588Y221325D01*
X245852Y221325D01*
X246745Y220432D01*
X246745Y219075D01*
X246756Y219025D01*
X246758Y218974D01*
X246776Y218942D01*
X246784Y218906D01*
X246817Y218867D01*
X246841Y218822D01*
X246871Y218801D01*
X246894Y218773D01*
X246941Y218752D01*
X246983Y218722D01*
X247025Y218714D01*
X247053Y218702D01*
X247083Y218703D01*
X247125Y218695D01*
X249570Y218695D01*
X265542Y202722D01*
X265564Y202709D01*
X265580Y202689D01*
X265637Y202663D01*
X265689Y202631D01*
X265715Y202628D01*
X265739Y202618D01*
X265800Y202620D01*
X265862Y202614D01*
X265886Y202623D01*
X265912Y202624D01*
X265966Y202654D01*
X266024Y202676D01*
X266041Y202695D01*
X266064Y202707D01*
X266099Y202758D01*
X266141Y202803D01*
X266149Y202828D01*
X266164Y202849D01*
X266180Y202933D01*
X266191Y202969D01*
X266189Y202979D01*
X266191Y202991D01*
X266191Y205695D01*
X266174Y205769D01*
X266161Y205844D01*
X266154Y205854D01*
X266152Y205864D01*
X266128Y205892D01*
X266080Y205964D01*
X247394Y224650D01*
X247372Y224663D01*
X247356Y224683D01*
X247299Y224709D01*
X247247Y224741D01*
X247221Y224744D01*
X247197Y224754D01*
X247136Y224752D01*
X247074Y224758D01*
X247050Y224749D01*
X247024Y224748D01*
X246970Y224718D01*
X246912Y224696D01*
X246895Y224677D01*
X246872Y224665D01*
X246837Y224614D01*
X246795Y224569D01*
X246787Y224544D01*
X246772Y224523D01*
X246756Y224439D01*
X246745Y224403D01*
X246747Y224393D01*
X246745Y224381D01*
X246745Y224068D01*
X245852Y223175D01*
X226588Y223175D01*
X225695Y224068D01*
X225695Y233132D01*
X226588Y234025D01*
X245852Y234025D01*
X246745Y233132D01*
X246745Y231775D01*
X246756Y231725D01*
X246758Y231674D01*
X246776Y231642D01*
X246784Y231606D01*
X246817Y231567D01*
X246841Y231522D01*
X246871Y231501D01*
X246894Y231473D01*
X246941Y231452D01*
X246983Y231422D01*
X247025Y231414D01*
X247053Y231402D01*
X247083Y231403D01*
X247125Y231395D01*
X248554Y231395D01*
X269606Y210342D01*
X269628Y210329D01*
X269644Y210309D01*
X269701Y210283D01*
X269753Y210251D01*
X269779Y210248D01*
X269803Y210238D01*
X269864Y210240D01*
X269926Y210234D01*
X269950Y210243D01*
X269976Y210244D01*
X270030Y210274D01*
X270088Y210296D01*
X270105Y210315D01*
X270128Y210327D01*
X270163Y210378D01*
X270205Y210423D01*
X270213Y210448D01*
X270228Y210469D01*
X270244Y210553D01*
X270255Y210589D01*
X270253Y210599D01*
X270255Y210611D01*
X270255Y215855D01*
X270238Y215929D01*
X270225Y216004D01*
X270218Y216014D01*
X270216Y216024D01*
X270192Y216052D01*
X270144Y216124D01*
X247874Y238394D01*
X247809Y238434D01*
X247747Y238478D01*
X247735Y238480D01*
X247727Y238485D01*
X247690Y238489D01*
X247605Y238505D01*
X247125Y238505D01*
X247075Y238494D01*
X247024Y238492D01*
X246992Y238474D01*
X246956Y238466D01*
X246917Y238433D01*
X246872Y238409D01*
X246851Y238379D01*
X246823Y238356D01*
X246802Y238309D01*
X246772Y238267D01*
X246764Y238225D01*
X246752Y238197D01*
X246753Y238167D01*
X246745Y238125D01*
X246745Y236768D01*
X245852Y235875D01*
X226588Y235875D01*
X225695Y236768D01*
X225695Y245832D01*
X226588Y246725D01*
X245852Y246725D01*
X246745Y245832D01*
X246745Y244475D01*
X246756Y244425D01*
X246758Y244374D01*
X246776Y244342D01*
X246784Y244306D01*
X246817Y244267D01*
X246841Y244222D01*
X246871Y244201D01*
X246894Y244173D01*
X246941Y244152D01*
X246983Y244122D01*
X247025Y244114D01*
X247053Y244102D01*
X247083Y244103D01*
X247125Y244095D01*
X250078Y244095D01*
X275845Y218328D01*
X275845Y216415D01*
X275856Y216365D01*
X275858Y216314D01*
X275876Y216282D01*
X275884Y216246D01*
X275917Y216207D01*
X275941Y216162D01*
X275971Y216141D01*
X275994Y216113D01*
X276041Y216092D01*
X276083Y216062D01*
X276125Y216054D01*
X276153Y216042D01*
X276183Y216043D01*
X276225Y216035D01*
X278765Y216035D01*
X278815Y216046D01*
X278866Y216048D01*
X278898Y216066D01*
X278934Y216074D01*
X278973Y216107D01*
X279018Y216131D01*
X279039Y216161D01*
X279067Y216184D01*
X279088Y216231D01*
X279118Y216273D01*
X279126Y216315D01*
X279138Y216343D01*
X279137Y216373D01*
X279145Y216415D01*
X279145Y219665D01*
X279128Y219739D01*
X279115Y219814D01*
X279108Y219824D01*
X279106Y219834D01*
X279082Y219862D01*
X279034Y219934D01*
X247874Y251094D01*
X247809Y251134D01*
X247747Y251178D01*
X247735Y251180D01*
X247727Y251185D01*
X247690Y251189D01*
X247605Y251205D01*
X247125Y251205D01*
X247075Y251194D01*
X247024Y251192D01*
X246992Y251174D01*
X246956Y251166D01*
X246917Y251133D01*
X246872Y251109D01*
X246851Y251079D01*
X246823Y251056D01*
X246802Y251009D01*
X246772Y250967D01*
X246764Y250925D01*
X246752Y250897D01*
X246753Y250867D01*
X246745Y250825D01*
X246745Y249468D01*
X245852Y248575D01*
X226588Y248575D01*
X225695Y249468D01*
X225695Y258532D01*
X226588Y259425D01*
X245852Y259425D01*
X246745Y258532D01*
X246745Y257175D01*
X246756Y257125D01*
X246758Y257074D01*
X246776Y257042D01*
X246784Y257006D01*
X246817Y256967D01*
X246841Y256922D01*
X246871Y256901D01*
X246894Y256873D01*
X246941Y256852D01*
X246983Y256822D01*
X247025Y256814D01*
X247053Y256802D01*
X247083Y256803D01*
X247125Y256795D01*
X250078Y256795D01*
X280869Y226003D01*
X280880Y225996D01*
X280888Y225986D01*
X280954Y225951D01*
X281017Y225912D01*
X281029Y225910D01*
X281041Y225904D01*
X281115Y225902D01*
X281189Y225895D01*
X281201Y225900D01*
X281214Y225899D01*
X281282Y225930D01*
X281351Y225957D01*
X281360Y225966D01*
X281372Y225972D01*
X281418Y226029D01*
X281469Y226084D01*
X281472Y226096D01*
X281481Y226106D01*
X281497Y226178D01*
X281518Y226250D01*
X281516Y226263D01*
X281518Y226275D01*
X281490Y226417D01*
X279907Y230237D01*
X279907Y234583D01*
X281570Y238597D01*
X284643Y241670D01*
X288657Y243333D01*
X293003Y243333D01*
X297017Y241670D01*
X300090Y238597D01*
X301753Y234583D01*
X301753Y230237D01*
X300090Y226223D01*
X297017Y223150D01*
X293003Y221487D01*
X288657Y221487D01*
X284837Y223070D01*
X284825Y223072D01*
X284814Y223078D01*
X284740Y223086D01*
X284666Y223098D01*
X284654Y223094D01*
X284641Y223095D01*
X284572Y223069D01*
X284501Y223047D01*
X284491Y223038D01*
X284479Y223033D01*
X284429Y222979D01*
X284375Y222928D01*
X284370Y222916D01*
X284361Y222906D01*
X284340Y222835D01*
X284315Y222766D01*
X284316Y222753D01*
X284312Y222740D01*
X284325Y222667D01*
X284333Y222593D01*
X284340Y222582D01*
X284342Y222569D01*
X284423Y222449D01*
X284735Y222138D01*
X284735Y216877D01*
X284744Y216840D01*
X284742Y216801D01*
X284763Y216756D01*
X284774Y216708D01*
X284799Y216679D01*
X284815Y216644D01*
X284853Y216613D01*
X284884Y216575D01*
X284920Y216559D01*
X284949Y216535D01*
X284997Y216524D01*
X285043Y216504D01*
X285081Y216505D01*
X285119Y216497D01*
X285178Y216509D01*
X285216Y216510D01*
X285234Y216520D01*
X285261Y216526D01*
X288657Y217933D01*
X293003Y217933D01*
X297017Y216270D01*
X300090Y213197D01*
X301398Y210039D01*
X301435Y209988D01*
X301465Y209932D01*
X301485Y209918D01*
X301499Y209899D01*
X301555Y209869D01*
X301607Y209832D01*
X301633Y209827D01*
X301652Y209817D01*
X301690Y209816D01*
X301749Y209805D01*
X305311Y209805D01*
X305373Y209819D01*
X305436Y209826D01*
X305456Y209839D01*
X305480Y209844D01*
X305529Y209885D01*
X305582Y209919D01*
X305597Y209941D01*
X305613Y209954D01*
X305629Y209989D01*
X305662Y210039D01*
X306970Y213197D01*
X310043Y216270D01*
X314057Y217933D01*
X318403Y217933D01*
X322417Y216270D01*
X325490Y213197D01*
X325998Y211971D01*
X326005Y211961D01*
X326008Y211948D01*
X326055Y211891D01*
X326099Y211830D01*
X326110Y211824D01*
X326118Y211814D01*
X326186Y211784D01*
X326252Y211749D01*
X326265Y211749D01*
X326277Y211743D01*
X326351Y211746D01*
X326425Y211744D01*
X326437Y211749D01*
X326450Y211750D01*
X326515Y211785D01*
X326582Y211816D01*
X326591Y211826D01*
X326602Y211833D01*
X326644Y211893D01*
X326691Y211951D01*
X326694Y211964D01*
X326702Y211974D01*
X326729Y212117D01*
X326729Y227303D01*
X326726Y227316D01*
X326728Y227329D01*
X326707Y227400D01*
X326690Y227472D01*
X326682Y227482D01*
X326678Y227495D01*
X326627Y227549D01*
X326580Y227606D01*
X326568Y227611D01*
X326559Y227621D01*
X326489Y227646D01*
X326421Y227677D01*
X326408Y227676D01*
X326396Y227681D01*
X326323Y227673D01*
X326248Y227670D01*
X326237Y227664D01*
X326224Y227663D01*
X326161Y227623D01*
X326096Y227587D01*
X326089Y227577D01*
X326078Y227570D01*
X325998Y227449D01*
X325490Y226223D01*
X322417Y223150D01*
X318403Y221487D01*
X314057Y221487D01*
X310043Y223150D01*
X306970Y226223D01*
X305307Y230237D01*
X305307Y234583D01*
X306970Y238597D01*
X310043Y241670D01*
X314057Y243333D01*
X318403Y243333D01*
X322417Y241670D01*
X325490Y238597D01*
X325998Y237371D01*
X326005Y237361D01*
X326008Y237348D01*
X326055Y237291D01*
X326099Y237230D01*
X326110Y237224D01*
X326118Y237214D01*
X326186Y237184D01*
X326252Y237149D01*
X326265Y237149D01*
X326277Y237143D01*
X326351Y237146D01*
X326425Y237144D01*
X326437Y237149D01*
X326450Y237150D01*
X326515Y237185D01*
X326582Y237216D01*
X326591Y237226D01*
X326602Y237233D01*
X326644Y237293D01*
X326691Y237351D01*
X326694Y237364D01*
X326702Y237374D01*
X326729Y237517D01*
X326729Y252703D01*
X326726Y252716D01*
X326728Y252729D01*
X326707Y252800D01*
X326690Y252872D01*
X326682Y252882D01*
X326678Y252895D01*
X326627Y252949D01*
X326580Y253006D01*
X326568Y253011D01*
X326559Y253021D01*
X326489Y253046D01*
X326421Y253077D01*
X326408Y253076D01*
X326396Y253081D01*
X326323Y253073D01*
X326248Y253070D01*
X326237Y253064D01*
X326224Y253063D01*
X326161Y253023D01*
X326096Y252987D01*
X326089Y252977D01*
X326078Y252970D01*
X325998Y252849D01*
X325490Y251623D01*
X322417Y248550D01*
X318403Y246887D01*
X314057Y246887D01*
X310043Y248550D01*
X306970Y251623D01*
X305307Y255637D01*
X305307Y259983D01*
X306970Y263997D01*
X310043Y267070D01*
X314057Y268733D01*
X318403Y268733D01*
X322417Y267070D01*
X325490Y263997D01*
X325998Y262771D01*
X326005Y262761D01*
X326008Y262748D01*
X326055Y262691D01*
X326099Y262630D01*
X326110Y262624D01*
X326118Y262614D01*
X326186Y262584D01*
X326252Y262549D01*
X326265Y262549D01*
X326277Y262543D01*
X326351Y262546D01*
X326425Y262544D01*
X326437Y262549D01*
X326450Y262550D01*
X326515Y262585D01*
X326582Y262616D01*
X326591Y262626D01*
X326602Y262633D01*
X326644Y262693D01*
X326691Y262751D01*
X326694Y262764D01*
X326702Y262774D01*
X326729Y262917D01*
X326729Y276179D01*
X326717Y276233D01*
X326716Y276262D01*
X326715Y276263D01*
X326713Y276288D01*
X326697Y276317D01*
X326690Y276348D01*
X326655Y276391D01*
X326627Y276439D01*
X326600Y276457D01*
X326580Y276482D01*
X326529Y276504D01*
X326483Y276535D01*
X326451Y276539D01*
X326421Y276553D01*
X326366Y276551D01*
X326311Y276558D01*
X326281Y276547D01*
X326248Y276546D01*
X326200Y276520D01*
X326147Y276502D01*
X326120Y276476D01*
X326096Y276463D01*
X326077Y276436D01*
X326041Y276403D01*
X325336Y275432D01*
X324008Y274104D01*
X322487Y272999D01*
X320813Y272146D01*
X319026Y271565D01*
X317170Y271271D01*
X316991Y271271D01*
X316991Y282829D01*
X316980Y282879D01*
X316978Y282930D01*
X316960Y282962D01*
X316952Y282998D01*
X316919Y283037D01*
X316895Y283082D01*
X316865Y283103D01*
X316842Y283131D01*
X316795Y283152D01*
X316753Y283181D01*
X316711Y283190D01*
X316683Y283202D01*
X316653Y283201D01*
X316611Y283209D01*
X316229Y283209D01*
X316229Y283211D01*
X316611Y283211D01*
X316661Y283223D01*
X316712Y283224D01*
X316744Y283242D01*
X316780Y283250D01*
X316819Y283283D01*
X316864Y283307D01*
X316885Y283337D01*
X316913Y283361D01*
X316934Y283407D01*
X316964Y283449D01*
X316972Y283491D01*
X316984Y283519D01*
X316983Y283549D01*
X316991Y283591D01*
X316991Y295149D01*
X317170Y295149D01*
X319026Y294855D01*
X320813Y294274D01*
X322487Y293421D01*
X324008Y292316D01*
X325336Y290988D01*
X326041Y290017D01*
X326083Y289981D01*
X326118Y289938D01*
X326148Y289925D01*
X326172Y289904D01*
X326226Y289890D01*
X326277Y289867D01*
X326309Y289869D01*
X326340Y289860D01*
X326394Y289872D01*
X326450Y289874D01*
X326478Y289889D01*
X326510Y289896D01*
X326553Y289930D01*
X326602Y289957D01*
X326621Y289983D01*
X326646Y290003D01*
X326670Y290053D01*
X326702Y290098D01*
X326709Y290135D01*
X326721Y290160D01*
X326720Y290193D01*
X326729Y290241D01*
X326729Y303503D01*
X326726Y303516D01*
X326728Y303529D01*
X326707Y303600D01*
X326690Y303672D01*
X326682Y303682D01*
X326678Y303695D01*
X326627Y303749D01*
X326580Y303806D01*
X326568Y303811D01*
X326559Y303821D01*
X326489Y303846D01*
X326421Y303877D01*
X326409Y303876D01*
X326396Y303881D01*
X326322Y303873D01*
X326248Y303870D01*
X326237Y303864D01*
X326224Y303863D01*
X326161Y303823D01*
X326096Y303787D01*
X326089Y303777D01*
X326078Y303770D01*
X325998Y303649D01*
X325490Y302423D01*
X322417Y299350D01*
X318403Y297687D01*
X314057Y297687D01*
X310043Y299350D01*
X306970Y302423D01*
X305307Y306437D01*
X305307Y310783D01*
X306970Y314797D01*
X310043Y317870D01*
X314057Y319533D01*
X318403Y319533D01*
X322417Y317870D01*
X325490Y314797D01*
X325998Y313571D01*
X326005Y313561D01*
X326008Y313548D01*
X326055Y313491D01*
X326099Y313430D01*
X326110Y313424D01*
X326118Y313414D01*
X326186Y313384D01*
X326252Y313349D01*
X326265Y313349D01*
X326277Y313343D01*
X326351Y313346D01*
X326425Y313344D01*
X326437Y313349D01*
X326450Y313350D01*
X326515Y313385D01*
X326582Y313416D01*
X326591Y313426D01*
X326602Y313433D01*
X326644Y313493D01*
X326691Y313551D01*
X326694Y313564D01*
X326702Y313574D01*
X326729Y313717D01*
X326729Y326979D01*
X326717Y327033D01*
X326713Y327088D01*
X326697Y327117D01*
X326690Y327148D01*
X326655Y327191D01*
X326627Y327239D01*
X326600Y327257D01*
X326580Y327282D01*
X326529Y327304D01*
X326483Y327335D01*
X326451Y327339D01*
X326421Y327353D01*
X326366Y327351D01*
X326311Y327358D01*
X326281Y327347D01*
X326248Y327346D01*
X326200Y327320D01*
X326147Y327302D01*
X326120Y327276D01*
X326096Y327263D01*
X326077Y327236D01*
X326041Y327203D01*
X325336Y326232D01*
X324008Y324904D01*
X322487Y323799D01*
X320813Y322946D01*
X319026Y322365D01*
X317170Y322071D01*
X316991Y322071D01*
X316991Y333629D01*
X316980Y333679D01*
X316978Y333730D01*
X316960Y333762D01*
X316952Y333798D01*
X316919Y333837D01*
X316895Y333882D01*
X316865Y333903D01*
X316842Y333931D01*
X316795Y333952D01*
X316753Y333981D01*
X316711Y333990D01*
X316683Y334002D01*
X316653Y334001D01*
X316611Y334009D01*
X316229Y334009D01*
X316229Y334011D01*
X316611Y334011D01*
X316661Y334023D01*
X316712Y334024D01*
X316744Y334042D01*
X316780Y334050D01*
X316819Y334083D01*
X316864Y334107D01*
X316885Y334137D01*
X316913Y334161D01*
X316934Y334207D01*
X316964Y334249D01*
X316972Y334291D01*
X316984Y334319D01*
X316983Y334349D01*
X316991Y334391D01*
X316991Y345949D01*
X317170Y345949D01*
X319026Y345655D01*
X320813Y345074D01*
X322487Y344221D01*
X324008Y343116D01*
X325336Y341788D01*
X326041Y340817D01*
X326083Y340781D01*
X326118Y340738D01*
X326148Y340725D01*
X326172Y340704D01*
X326226Y340690D01*
X326277Y340667D01*
X326309Y340669D01*
X326340Y340660D01*
X326394Y340672D01*
X326450Y340674D01*
X326478Y340689D01*
X326510Y340696D01*
X326553Y340730D01*
X326602Y340757D01*
X326621Y340783D01*
X326646Y340803D01*
X326670Y340853D01*
X326702Y340898D01*
X326709Y340935D01*
X326721Y340960D01*
X326720Y340993D01*
X326729Y341041D01*
X326729Y386749D01*
X326718Y386799D01*
X326716Y386850D01*
X326698Y386882D01*
X326690Y386918D01*
X326657Y386957D01*
X326633Y387002D01*
X326603Y387023D01*
X326580Y387051D01*
X326533Y387072D01*
X326491Y387102D01*
X326449Y387110D01*
X326421Y387122D01*
X326391Y387121D01*
X326349Y387129D01*
X2381Y387129D01*
X2331Y387118D01*
X2280Y387116D01*
X2248Y387098D01*
X2212Y387090D01*
X2173Y387057D01*
X2128Y387033D01*
X2107Y387003D01*
X2079Y386980D01*
X2058Y386933D01*
X2028Y386891D01*
X2020Y386849D01*
X2008Y386821D01*
X2009Y386791D01*
X2001Y386749D01*
X2001Y342383D01*
X2007Y342358D01*
X2004Y342332D01*
X2026Y342274D01*
X2040Y342214D01*
X2057Y342194D01*
X2066Y342170D01*
X2111Y342128D01*
X2150Y342080D01*
X2174Y342070D01*
X2193Y342052D01*
X2252Y342035D01*
X2309Y342009D01*
X2334Y342010D01*
X2359Y342003D01*
X2420Y342014D01*
X2482Y342016D01*
X2504Y342028D01*
X2530Y342033D01*
X2601Y342081D01*
X2634Y342099D01*
X2640Y342107D01*
X2650Y342114D01*
X3652Y343116D01*
X5173Y344221D01*
X6847Y345074D01*
X8634Y345655D01*
X10490Y345949D01*
X10669Y345949D01*
X10669Y334391D01*
X10680Y334341D01*
X10682Y334290D01*
X10700Y334258D01*
X10708Y334222D01*
X10741Y334183D01*
X10765Y334138D01*
X10795Y334117D01*
X10818Y334089D01*
X10865Y334068D01*
X10907Y334039D01*
X10949Y334030D01*
X10977Y334018D01*
X11007Y334019D01*
X11049Y334011D01*
X11431Y334011D01*
X11431Y334009D01*
X11049Y334009D01*
X10999Y333997D01*
X10948Y333996D01*
X10916Y333978D01*
X10880Y333970D01*
X10841Y333937D01*
X10796Y333913D01*
X10775Y333883D01*
X10747Y333859D01*
X10726Y333813D01*
X10696Y333771D01*
X10688Y333729D01*
X10676Y333701D01*
X10677Y333671D01*
X10669Y333629D01*
X10669Y322071D01*
X10490Y322071D01*
X8634Y322365D01*
X6847Y322946D01*
X5173Y323799D01*
X3652Y324904D01*
X2650Y325906D01*
X2628Y325920D01*
X2612Y325940D01*
X2555Y325965D01*
X2503Y325998D01*
X2477Y326000D01*
X2453Y326011D01*
X2392Y326008D01*
X2330Y326014D01*
X2306Y326005D01*
X2280Y326004D01*
X2226Y325975D01*
X2168Y325953D01*
X2151Y325934D01*
X2128Y325921D01*
X2093Y325871D01*
X2051Y325825D01*
X2043Y325801D01*
X2028Y325780D01*
X2012Y325695D01*
X2001Y325659D01*
X2003Y325649D01*
X2001Y325637D01*
X2001Y316983D01*
X2007Y316958D01*
X2004Y316932D01*
X2026Y316874D01*
X2040Y316814D01*
X2057Y316794D01*
X2066Y316770D01*
X2111Y316728D01*
X2150Y316680D01*
X2174Y316670D01*
X2193Y316652D01*
X2252Y316635D01*
X2309Y316609D01*
X2334Y316610D01*
X2359Y316603D01*
X2420Y316614D01*
X2482Y316616D01*
X2504Y316628D01*
X2530Y316633D01*
X2601Y316681D01*
X2634Y316699D01*
X2640Y316707D01*
X2650Y316714D01*
X3652Y317716D01*
X5173Y318821D01*
X6847Y319674D01*
X8634Y320255D01*
X10490Y320549D01*
X10669Y320549D01*
X10669Y308991D01*
X10680Y308941D01*
X10682Y308890D01*
X10700Y308858D01*
X10708Y308822D01*
X10741Y308783D01*
X10765Y308738D01*
X10795Y308717D01*
X10818Y308689D01*
X10865Y308668D01*
X10907Y308639D01*
X10949Y308630D01*
X10977Y308618D01*
X11007Y308619D01*
X11049Y308611D01*
X11431Y308611D01*
X11431Y308609D01*
X11049Y308609D01*
X10999Y308597D01*
X10948Y308596D01*
X10916Y308578D01*
X10880Y308570D01*
X10841Y308537D01*
X10796Y308513D01*
X10775Y308483D01*
X10747Y308459D01*
X10726Y308413D01*
X10696Y308371D01*
X10688Y308329D01*
X10676Y308301D01*
X10677Y308271D01*
X10669Y308229D01*
X10669Y296671D01*
X10490Y296671D01*
X8634Y296965D01*
X6847Y297546D01*
X5173Y298399D01*
X3652Y299504D01*
X2650Y300506D01*
X2628Y300520D01*
X2612Y300540D01*
X2555Y300565D01*
X2503Y300598D01*
X2477Y300600D01*
X2453Y300611D01*
X2392Y300608D01*
X2330Y300614D01*
X2306Y300605D01*
X2280Y300604D01*
X2226Y300575D01*
X2168Y300553D01*
X2151Y300534D01*
X2128Y300521D01*
X2093Y300471D01*
X2051Y300425D01*
X2043Y300401D01*
X2028Y300380D01*
X2012Y300295D01*
X2001Y300259D01*
X2003Y300249D01*
X2001Y300237D01*
X2001Y291583D01*
X2007Y291558D01*
X2004Y291532D01*
X2026Y291474D01*
X2040Y291414D01*
X2057Y291394D01*
X2066Y291370D01*
X2111Y291328D01*
X2150Y291280D01*
X2174Y291270D01*
X2193Y291252D01*
X2252Y291235D01*
X2309Y291209D01*
X2334Y291210D01*
X2359Y291203D01*
X2420Y291214D01*
X2482Y291216D01*
X2504Y291228D01*
X2530Y291233D01*
X2601Y291281D01*
X2634Y291299D01*
X2640Y291307D01*
X2650Y291314D01*
X3652Y292316D01*
X5173Y293421D01*
X6847Y294274D01*
X8634Y294855D01*
X10490Y295149D01*
X10669Y295149D01*
X10669Y283591D01*
X10680Y283541D01*
X10682Y283490D01*
X10700Y283458D01*
X10708Y283422D01*
X10741Y283383D01*
X10765Y283338D01*
X10795Y283317D01*
X10818Y283289D01*
X10865Y283268D01*
X10907Y283239D01*
X10949Y283230D01*
X10977Y283218D01*
X11007Y283219D01*
X11049Y283211D01*
X11431Y283211D01*
X11431Y283209D01*
X11049Y283209D01*
X10999Y283197D01*
X10948Y283196D01*
X10916Y283178D01*
X10880Y283170D01*
X10841Y283137D01*
X10796Y283113D01*
X10775Y283083D01*
X10747Y283059D01*
X10726Y283013D01*
X10696Y282971D01*
X10688Y282929D01*
X10676Y282901D01*
X10677Y282871D01*
X10669Y282829D01*
X10669Y271271D01*
X10490Y271271D01*
X8634Y271565D01*
X6847Y272146D01*
X5173Y272999D01*
X3652Y274104D01*
X2650Y275106D01*
X2628Y275120D01*
X2612Y275140D01*
X2555Y275165D01*
X2503Y275198D01*
X2477Y275200D01*
X2453Y275211D01*
X2392Y275208D01*
X2330Y275214D01*
X2306Y275205D01*
X2280Y275204D01*
X2226Y275175D01*
X2168Y275153D01*
X2151Y275134D01*
X2128Y275121D01*
X2093Y275071D01*
X2051Y275025D01*
X2043Y275001D01*
X2028Y274980D01*
X2012Y274895D01*
X2001Y274859D01*
X2003Y274849D01*
X2001Y274837D01*
X2001Y264746D01*
X2007Y264721D01*
X2004Y264695D01*
X2014Y264670D01*
X2014Y264653D01*
X2029Y264626D01*
X2040Y264577D01*
X2057Y264557D01*
X2066Y264533D01*
X2093Y264508D01*
X2097Y264501D01*
X2112Y264490D01*
X2150Y264443D01*
X2174Y264433D01*
X2193Y264415D01*
X2237Y264402D01*
X2239Y264401D01*
X2248Y264399D01*
X2252Y264398D01*
X2309Y264373D01*
X2334Y264373D01*
X2359Y264366D01*
X2420Y264377D01*
X2482Y264379D01*
X2504Y264391D01*
X2530Y264396D01*
X2553Y264412D01*
X2557Y264413D01*
X2570Y264423D01*
X2601Y264444D01*
X2634Y264462D01*
X2640Y264470D01*
X2650Y264477D01*
X5243Y267070D01*
X9257Y268733D01*
X13603Y268733D01*
X17617Y267070D01*
X20690Y263997D01*
X22353Y259983D01*
X22353Y255637D01*
X20690Y251623D01*
X17617Y248550D01*
X13603Y246887D01*
X9257Y246887D01*
X5243Y248550D01*
X2650Y251143D01*
X2628Y251157D01*
X2612Y251177D01*
X2555Y251202D01*
X2503Y251234D01*
X2477Y251237D01*
X2453Y251247D01*
X2392Y251245D01*
X2330Y251251D01*
X2306Y251242D01*
X2280Y251241D01*
X2226Y251211D01*
X2168Y251189D01*
X2151Y251170D01*
X2128Y251158D01*
X2093Y251108D01*
X2051Y251062D01*
X2043Y251038D01*
X2028Y251016D01*
X2012Y250932D01*
X2001Y250896D01*
X2003Y250886D01*
X2001Y250874D01*
X2001Y239346D01*
X2007Y239321D01*
X2004Y239295D01*
X2026Y239237D01*
X2040Y239177D01*
X2057Y239157D01*
X2066Y239133D01*
X2111Y239091D01*
X2150Y239043D01*
X2174Y239033D01*
X2193Y239015D01*
X2252Y238998D01*
X2309Y238973D01*
X2334Y238973D01*
X2359Y238966D01*
X2420Y238977D01*
X2482Y238979D01*
X2504Y238991D01*
X2530Y238996D01*
X2601Y239044D01*
X2634Y239062D01*
X2640Y239070D01*
X2650Y239077D01*
X5243Y241670D01*
X9257Y243333D01*
X13603Y243333D01*
X17617Y241670D01*
X20690Y238597D01*
X22353Y234583D01*
X22353Y230237D01*
X20690Y226223D01*
X17617Y223150D01*
X13603Y221487D01*
X9257Y221487D01*
X5243Y223150D01*
X2650Y225743D01*
X2628Y225757D01*
X2612Y225777D01*
X2555Y225802D01*
X2503Y225834D01*
X2477Y225837D01*
X2453Y225847D01*
X2392Y225845D01*
X2330Y225851D01*
X2306Y225842D01*
X2280Y225841D01*
X2226Y225811D01*
X2168Y225789D01*
X2151Y225770D01*
X2128Y225758D01*
X2093Y225708D01*
X2051Y225662D01*
X2043Y225638D01*
X2028Y225616D01*
X2012Y225532D01*
X2001Y225496D01*
X2003Y225486D01*
X2001Y225474D01*
X2001Y213946D01*
X2007Y213921D01*
X2004Y213895D01*
X2026Y213837D01*
X2040Y213777D01*
X2057Y213757D01*
X2066Y213733D01*
X2111Y213691D01*
X2150Y213643D01*
X2174Y213633D01*
X2193Y213615D01*
X2252Y213598D01*
X2309Y213573D01*
X2334Y213573D01*
X2359Y213566D01*
X2420Y213577D01*
X2482Y213579D01*
X2504Y213591D01*
X2530Y213596D01*
X2601Y213644D01*
X2634Y213662D01*
X2640Y213670D01*
X2650Y213677D01*
X5243Y216270D01*
X9257Y217933D01*
X13603Y217933D01*
X17617Y216270D01*
X20690Y213197D01*
X21998Y210039D01*
X22035Y209988D01*
X22065Y209932D01*
X22085Y209918D01*
X22099Y209899D01*
X22155Y209869D01*
X22207Y209832D01*
X22233Y209827D01*
X22252Y209817D01*
X22290Y209816D01*
X22349Y209805D01*
X24909Y209805D01*
X24985Y209823D01*
X25061Y209837D01*
X25069Y209842D01*
X25077Y209844D01*
X25138Y209894D01*
X25200Y209941D01*
X25205Y209949D01*
X25211Y209954D01*
X25225Y209987D01*
X25270Y210067D01*
X25766Y211593D01*
X26619Y213267D01*
X27724Y214788D01*
X29052Y216116D01*
X30573Y217221D01*
X32247Y218074D01*
X34034Y218655D01*
X35890Y218949D01*
X36069Y218949D01*
X36069Y216415D01*
X36080Y216365D01*
X36082Y216314D01*
X36100Y216282D01*
X36108Y216246D01*
X36141Y216207D01*
X36165Y216162D01*
X36195Y216141D01*
X36218Y216113D01*
X36265Y216092D01*
X36307Y216062D01*
X36349Y216054D01*
X36377Y216042D01*
X36407Y216043D01*
X36449Y216035D01*
X37211Y216035D01*
X37261Y216046D01*
X37312Y216048D01*
X37344Y216066D01*
X37380Y216074D01*
X37419Y216107D01*
X37464Y216131D01*
X37485Y216161D01*
X37513Y216184D01*
X37534Y216231D01*
X37564Y216273D01*
X37572Y216315D01*
X37584Y216343D01*
X37583Y216373D01*
X37591Y216415D01*
X37591Y218949D01*
X37770Y218949D01*
X38676Y218805D01*
X38755Y218811D01*
X38836Y218814D01*
X38842Y218817D01*
X38848Y218818D01*
X38918Y218859D01*
X38988Y218897D01*
X38992Y218902D01*
X38998Y218906D01*
X39042Y218973D01*
X39088Y219039D01*
X39089Y219046D01*
X39092Y219051D01*
X39096Y219082D01*
X39115Y219181D01*
X39115Y219598D01*
X41069Y221551D01*
X41076Y221562D01*
X41086Y221570D01*
X41121Y221636D01*
X41160Y221699D01*
X41162Y221711D01*
X41168Y221723D01*
X41170Y221797D01*
X41177Y221871D01*
X41172Y221883D01*
X41173Y221896D01*
X41142Y221964D01*
X41115Y222033D01*
X41106Y222042D01*
X41100Y222054D01*
X41043Y222100D01*
X40988Y222151D01*
X40976Y222154D01*
X40966Y222163D01*
X40894Y222179D01*
X40822Y222200D01*
X40809Y222198D01*
X40797Y222200D01*
X40655Y222172D01*
X39003Y221487D01*
X34657Y221487D01*
X30643Y223150D01*
X27570Y226223D01*
X25907Y230237D01*
X25907Y234583D01*
X27570Y238597D01*
X30643Y241670D01*
X34657Y243333D01*
X39003Y243333D01*
X43017Y241670D01*
X46090Y238597D01*
X47753Y234583D01*
X47753Y230237D01*
X47068Y228585D01*
X47066Y228573D01*
X47060Y228562D01*
X47052Y228488D01*
X47040Y228414D01*
X47044Y228402D01*
X47043Y228389D01*
X47069Y228320D01*
X47091Y228249D01*
X47100Y228239D01*
X47105Y228227D01*
X47159Y228177D01*
X47210Y228123D01*
X47222Y228118D01*
X47232Y228109D01*
X47303Y228088D01*
X47372Y228063D01*
X47385Y228064D01*
X47398Y228060D01*
X47471Y228073D01*
X47545Y228081D01*
X47556Y228088D01*
X47569Y228090D01*
X47689Y228171D01*
X76312Y256795D01*
X83075Y256795D01*
X83125Y256806D01*
X83176Y256808D01*
X83208Y256826D01*
X83244Y256834D01*
X83283Y256867D01*
X83328Y256891D01*
X83349Y256921D01*
X83377Y256944D01*
X83398Y256991D01*
X83428Y257033D01*
X83436Y257075D01*
X83448Y257103D01*
X83447Y257133D01*
X83455Y257175D01*
X83455Y258532D01*
X84348Y259425D01*
X103612Y259425D01*
X104505Y258532D01*
X104505Y249468D01*
X103612Y248575D01*
X84348Y248575D01*
X83455Y249468D01*
X83455Y250825D01*
X83444Y250875D01*
X83442Y250926D01*
X83424Y250958D01*
X83416Y250994D01*
X83383Y251033D01*
X83359Y251078D01*
X83329Y251099D01*
X83306Y251127D01*
X83259Y251148D01*
X83217Y251178D01*
X83175Y251186D01*
X83147Y251198D01*
X83117Y251197D01*
X83075Y251205D01*
X78785Y251205D01*
X78711Y251188D01*
X78636Y251175D01*
X78626Y251168D01*
X78616Y251166D01*
X78588Y251142D01*
X78516Y251094D01*
X44816Y217394D01*
X44776Y217329D01*
X44732Y217267D01*
X44730Y217255D01*
X44725Y217247D01*
X44721Y217210D01*
X44705Y217125D01*
X44705Y216415D01*
X44716Y216365D01*
X44718Y216314D01*
X44736Y216282D01*
X44744Y216246D01*
X44777Y216207D01*
X44801Y216162D01*
X44831Y216141D01*
X44854Y216113D01*
X44901Y216092D01*
X44943Y216062D01*
X44985Y216054D01*
X45013Y216042D01*
X45043Y216043D01*
X45085Y216035D01*
X51542Y216035D01*
X52436Y215140D01*
X52458Y215127D01*
X52474Y215107D01*
X52531Y215081D01*
X52583Y215049D01*
X52609Y215046D01*
X52633Y215036D01*
X52694Y215038D01*
X52756Y215032D01*
X52780Y215041D01*
X52806Y215042D01*
X52860Y215072D01*
X52918Y215094D01*
X52935Y215113D01*
X52958Y215125D01*
X52993Y215176D01*
X53035Y215221D01*
X53043Y215246D01*
X53058Y215267D01*
X53074Y215351D01*
X53085Y215387D01*
X53083Y215397D01*
X53085Y215409D01*
X53085Y217058D01*
X80122Y244095D01*
X83075Y244095D01*
X83125Y244106D01*
X83176Y244108D01*
X83208Y244126D01*
X83244Y244134D01*
X83283Y244167D01*
X83328Y244191D01*
X83349Y244221D01*
X83377Y244244D01*
X83398Y244291D01*
X83428Y244333D01*
X83436Y244375D01*
X83448Y244403D01*
X83447Y244433D01*
X83455Y244475D01*
X83455Y245832D01*
X84348Y246725D01*
X103612Y246725D01*
X104505Y245832D01*
X104505Y236768D01*
X103612Y235875D01*
X84348Y235875D01*
X83455Y236768D01*
X83455Y238125D01*
X83444Y238175D01*
X83442Y238226D01*
X83424Y238258D01*
X83416Y238294D01*
X83383Y238333D01*
X83359Y238378D01*
X83329Y238399D01*
X83306Y238427D01*
X83259Y238448D01*
X83217Y238478D01*
X83175Y238486D01*
X83147Y238498D01*
X83117Y238497D01*
X83075Y238505D01*
X82595Y238505D01*
X82521Y238488D01*
X82446Y238475D01*
X82436Y238468D01*
X82426Y238466D01*
X82398Y238442D01*
X82326Y238394D01*
X58786Y214854D01*
X58746Y214789D01*
X58702Y214727D01*
X58700Y214715D01*
X58695Y214707D01*
X58691Y214670D01*
X58686Y214642D01*
X58682Y214633D01*
X58682Y214623D01*
X58675Y214585D01*
X58675Y209341D01*
X58681Y209316D01*
X58678Y209290D01*
X58700Y209233D01*
X58714Y209172D01*
X58731Y209152D01*
X58740Y209128D01*
X58785Y209086D01*
X58824Y209039D01*
X58848Y209028D01*
X58867Y209011D01*
X58926Y208993D01*
X58983Y208968D01*
X59008Y208969D01*
X59033Y208961D01*
X59094Y208972D01*
X59156Y208974D01*
X59178Y208987D01*
X59204Y208991D01*
X59275Y209039D01*
X59308Y209057D01*
X59314Y209065D01*
X59324Y209072D01*
X81646Y231395D01*
X83075Y231395D01*
X83125Y231406D01*
X83176Y231408D01*
X83208Y231426D01*
X83244Y231434D01*
X83283Y231467D01*
X83328Y231491D01*
X83349Y231521D01*
X83377Y231544D01*
X83398Y231591D01*
X83428Y231633D01*
X83436Y231675D01*
X83448Y231703D01*
X83447Y231733D01*
X83455Y231775D01*
X83455Y233132D01*
X84348Y234025D01*
X103612Y234025D01*
X104505Y233132D01*
X104505Y224068D01*
X103612Y223175D01*
X84348Y223175D01*
X83455Y224068D01*
X83455Y224381D01*
X83449Y224406D01*
X83452Y224432D01*
X83430Y224489D01*
X83416Y224550D01*
X83399Y224570D01*
X83390Y224594D01*
X83345Y224636D01*
X83306Y224683D01*
X83282Y224694D01*
X83263Y224711D01*
X83204Y224729D01*
X83147Y224754D01*
X83122Y224753D01*
X83097Y224761D01*
X83036Y224750D01*
X82974Y224748D01*
X82952Y224735D01*
X82926Y224731D01*
X82855Y224683D01*
X82822Y224665D01*
X82816Y224657D01*
X82806Y224650D01*
X62850Y204694D01*
X62810Y204629D01*
X62766Y204567D01*
X62764Y204555D01*
X62759Y204547D01*
X62755Y204510D01*
X62739Y204425D01*
X62739Y200451D01*
X62745Y200426D01*
X62742Y200400D01*
X62764Y200343D01*
X62778Y200282D01*
X62795Y200262D01*
X62804Y200238D01*
X62849Y200196D01*
X62888Y200149D01*
X62912Y200138D01*
X62931Y200121D01*
X62990Y200103D01*
X63047Y200078D01*
X63072Y200079D01*
X63097Y200071D01*
X63158Y200082D01*
X63220Y200084D01*
X63242Y200097D01*
X63268Y200101D01*
X63339Y200149D01*
X63372Y200167D01*
X63378Y200175D01*
X63388Y200182D01*
X81900Y218695D01*
X83075Y218695D01*
X83125Y218706D01*
X83176Y218708D01*
X83208Y218726D01*
X83244Y218734D01*
X83283Y218767D01*
X83328Y218791D01*
X83349Y218821D01*
X83377Y218844D01*
X83398Y218891D01*
X83428Y218933D01*
X83436Y218975D01*
X83448Y219003D01*
X83447Y219033D01*
X83455Y219075D01*
X83455Y220432D01*
X84348Y221325D01*
X103612Y221325D01*
X104505Y220432D01*
X104505Y211368D01*
X103612Y210475D01*
X84348Y210475D01*
X83455Y211368D01*
X83455Y211427D01*
X83449Y211452D01*
X83452Y211478D01*
X83430Y211535D01*
X83416Y211596D01*
X83399Y211616D01*
X83390Y211640D01*
X83345Y211682D01*
X83306Y211729D01*
X83282Y211740D01*
X83263Y211757D01*
X83204Y211775D01*
X83147Y211800D01*
X83122Y211799D01*
X83097Y211807D01*
X83036Y211796D01*
X82974Y211794D01*
X82952Y211781D01*
X82926Y211777D01*
X82855Y211729D01*
X82822Y211711D01*
X82816Y211703D01*
X82806Y211696D01*
X66914Y195804D01*
X66903Y195787D01*
X66894Y195779D01*
X66881Y195751D01*
X66874Y195739D01*
X66830Y195677D01*
X66828Y195665D01*
X66823Y195657D01*
X66819Y195620D01*
X66803Y195535D01*
X66803Y190291D01*
X66809Y190266D01*
X66806Y190240D01*
X66828Y190183D01*
X66842Y190122D01*
X66859Y190102D01*
X66868Y190078D01*
X66913Y190036D01*
X66952Y189989D01*
X66976Y189978D01*
X66995Y189961D01*
X67054Y189943D01*
X67111Y189918D01*
X67136Y189919D01*
X67161Y189911D01*
X67222Y189922D01*
X67284Y189924D01*
X67306Y189937D01*
X67332Y189941D01*
X67403Y189989D01*
X67436Y190007D01*
X67442Y190015D01*
X67452Y190022D01*
X83344Y205914D01*
X83373Y205960D01*
X83377Y205964D01*
X83384Y205978D01*
X83384Y205979D01*
X83428Y206041D01*
X83430Y206053D01*
X83435Y206061D01*
X83439Y206098D01*
X83440Y206104D01*
X83448Y206123D01*
X83448Y206143D01*
X83455Y206183D01*
X83455Y207732D01*
X84348Y208625D01*
X103612Y208625D01*
X104505Y207732D01*
X104505Y198668D01*
X103612Y197775D01*
X84348Y197775D01*
X83998Y198126D01*
X83955Y198153D01*
X83917Y198187D01*
X83882Y198198D01*
X83851Y198217D01*
X83800Y198222D01*
X83751Y198237D01*
X83715Y198230D01*
X83678Y198234D01*
X83631Y198216D01*
X83580Y198207D01*
X83545Y198183D01*
X83516Y198172D01*
X83496Y198150D01*
X83460Y198126D01*
X70978Y185644D01*
X70938Y185579D01*
X70894Y185517D01*
X70892Y185505D01*
X70887Y185497D01*
X70883Y185460D01*
X70867Y185375D01*
X70867Y182225D01*
X70873Y182200D01*
X70870Y182174D01*
X70880Y182148D01*
X70880Y182139D01*
X70891Y182118D01*
X70892Y182116D01*
X70906Y182056D01*
X70923Y182036D01*
X70932Y182012D01*
X70977Y181970D01*
X71016Y181922D01*
X71040Y181912D01*
X71059Y181894D01*
X71118Y181877D01*
X71175Y181851D01*
X71200Y181852D01*
X71225Y181845D01*
X71286Y181856D01*
X71348Y181858D01*
X71370Y181870D01*
X71396Y181875D01*
X71467Y181923D01*
X71500Y181941D01*
X71506Y181949D01*
X71516Y181956D01*
X83344Y193784D01*
X83384Y193848D01*
X83428Y193910D01*
X83430Y193923D01*
X83435Y193931D01*
X83439Y193968D01*
X83455Y194053D01*
X83455Y195032D01*
X84348Y195925D01*
X103612Y195925D01*
X104505Y195032D01*
X104505Y185968D01*
X103612Y185075D01*
X84853Y185075D01*
X84779Y185058D01*
X84704Y185045D01*
X84694Y185038D01*
X84684Y185036D01*
X84655Y185012D01*
X84584Y184964D01*
X84510Y184890D01*
X84496Y184868D01*
X84476Y184852D01*
X84451Y184795D01*
X84418Y184743D01*
X84416Y184717D01*
X84405Y184693D01*
X84408Y184632D01*
X84402Y184570D01*
X84411Y184546D01*
X84412Y184520D01*
X84442Y184466D01*
X84464Y184408D01*
X84482Y184391D01*
X84495Y184368D01*
X84545Y184333D01*
X84591Y184291D01*
X84615Y184283D01*
X84636Y184268D01*
X84721Y184252D01*
X84757Y184241D01*
X84767Y184243D01*
X84779Y184241D01*
X93219Y184241D01*
X93219Y178561D01*
X82439Y178561D01*
X82439Y181901D01*
X82433Y181926D01*
X82436Y181952D01*
X82414Y182010D01*
X82400Y182070D01*
X82383Y182090D01*
X82374Y182114D01*
X82329Y182156D01*
X82290Y182204D01*
X82266Y182214D01*
X82247Y182232D01*
X82188Y182249D01*
X82131Y182275D01*
X82106Y182274D01*
X82081Y182281D01*
X82020Y182270D01*
X81958Y182268D01*
X81936Y182256D01*
X81910Y182251D01*
X81839Y182203D01*
X81806Y182185D01*
X81800Y182177D01*
X81790Y182170D01*
X76566Y176946D01*
X76526Y176882D01*
X76482Y176819D01*
X76480Y176807D01*
X76475Y176799D01*
X76471Y176762D01*
X76455Y176677D01*
X76455Y132512D01*
X69708Y125766D01*
X69668Y125701D01*
X69624Y125639D01*
X69622Y125627D01*
X69617Y125619D01*
X69613Y125582D01*
X69597Y125497D01*
X69597Y102667D01*
X67402Y100472D01*
X52546Y85616D01*
X52506Y85552D01*
X52462Y85490D01*
X52460Y85477D01*
X52455Y85469D01*
X52451Y85432D01*
X52435Y85347D01*
X52435Y71878D01*
X51542Y70985D01*
X43410Y70985D01*
X43336Y70968D01*
X43261Y70955D01*
X43251Y70948D01*
X43241Y70946D01*
X43212Y70922D01*
X43141Y70874D01*
X43017Y70750D01*
X39003Y69087D01*
X34657Y69087D01*
X30643Y70750D01*
X27570Y73823D01*
X26578Y76219D01*
X26541Y76270D01*
X26510Y76326D01*
X26491Y76340D01*
X26477Y76359D01*
X26421Y76389D01*
X26369Y76426D01*
X26342Y76431D01*
X26324Y76441D01*
X26286Y76442D01*
X26226Y76453D01*
X22034Y76453D01*
X21972Y76439D01*
X21909Y76432D01*
X21888Y76419D01*
X21865Y76414D01*
X21816Y76373D01*
X21762Y76339D01*
X21747Y76317D01*
X21731Y76304D01*
X21716Y76269D01*
X21682Y76219D01*
X20690Y73823D01*
X17617Y70750D01*
X13603Y69087D01*
X9257Y69087D01*
X5243Y70750D01*
X2650Y73343D01*
X2628Y73357D01*
X2612Y73377D01*
X2555Y73402D01*
X2503Y73434D01*
X2477Y73437D01*
X2453Y73447D01*
X2392Y73445D01*
X2330Y73451D01*
X2306Y73442D01*
X2280Y73441D01*
X2226Y73411D01*
X2168Y73389D01*
X2151Y73370D01*
X2128Y73358D01*
X2093Y73308D01*
X2051Y73262D01*
X2043Y73238D01*
X2028Y73216D01*
X2012Y73132D01*
X2001Y73096D01*
X2003Y73086D01*
X2001Y73074D01*
X2001Y61546D01*
X2007Y61521D01*
X2004Y61495D01*
X2026Y61437D01*
X2040Y61377D01*
X2057Y61357D01*
X2066Y61333D01*
X2111Y61291D01*
X2150Y61243D01*
X2174Y61233D01*
X2193Y61215D01*
X2252Y61198D01*
X2309Y61173D01*
X2334Y61173D01*
X2359Y61166D01*
X2420Y61177D01*
X2482Y61179D01*
X2504Y61191D01*
X2530Y61196D01*
X2601Y61244D01*
X2634Y61262D01*
X2640Y61270D01*
X2650Y61277D01*
X5243Y63870D01*
X9257Y65533D01*
X13603Y65533D01*
X17617Y63870D01*
X20690Y60797D01*
X21682Y58401D01*
X21719Y58350D01*
X21750Y58294D01*
X21769Y58280D01*
X21783Y58261D01*
X21839Y58231D01*
X21891Y58194D01*
X21918Y58189D01*
X21936Y58179D01*
X21974Y58178D01*
X22034Y58167D01*
X26226Y58167D01*
X26288Y58181D01*
X26351Y58188D01*
X26372Y58201D01*
X26395Y58206D01*
X26444Y58247D01*
X26498Y58281D01*
X26513Y58303D01*
X26529Y58316D01*
X26544Y58351D01*
X26578Y58401D01*
X27570Y60797D01*
X30643Y63870D01*
X34657Y65533D01*
X39003Y65533D01*
X43017Y63870D01*
X43141Y63746D01*
X43206Y63706D01*
X43268Y63662D01*
X43280Y63660D01*
X43288Y63655D01*
X43325Y63651D01*
X43410Y63635D01*
X51542Y63635D01*
X52435Y62742D01*
X52435Y46478D01*
X51542Y45585D01*
X43410Y45585D01*
X43336Y45568D01*
X43261Y45555D01*
X43251Y45548D01*
X43241Y45546D01*
X43212Y45522D01*
X43141Y45474D01*
X43017Y45350D01*
X39003Y43687D01*
X34657Y43687D01*
X30643Y45350D01*
X27570Y48423D01*
X26578Y50819D01*
X26541Y50870D01*
X26510Y50926D01*
X26491Y50940D01*
X26477Y50959D01*
X26421Y50989D01*
X26369Y51026D01*
X26342Y51031D01*
X26324Y51041D01*
X26286Y51042D01*
X26226Y51053D01*
X22034Y51053D01*
X21972Y51039D01*
X21909Y51032D01*
X21888Y51019D01*
X21865Y51014D01*
X21816Y50973D01*
X21762Y50939D01*
X21747Y50917D01*
X21731Y50904D01*
X21716Y50869D01*
X21682Y50819D01*
X20690Y48423D01*
X17617Y45350D01*
X13603Y43687D01*
X9257Y43687D01*
X5243Y45350D01*
X2650Y47943D01*
X2628Y47957D01*
X2612Y47977D01*
X2555Y48002D01*
X2503Y48034D01*
X2477Y48037D01*
X2453Y48047D01*
X2392Y48045D01*
X2330Y48051D01*
X2306Y48042D01*
X2280Y48041D01*
X2226Y48011D01*
X2168Y47989D01*
X2151Y47970D01*
X2128Y47958D01*
X2093Y47908D01*
X2051Y47862D01*
X2043Y47838D01*
X2028Y47816D01*
X2012Y47732D01*
X2001Y47696D01*
X2003Y47686D01*
X2001Y47674D01*
X2001Y37583D01*
X2007Y37558D01*
X2004Y37532D01*
X2026Y37474D01*
X2040Y37414D01*
X2057Y37394D01*
X2066Y37370D01*
X2111Y37328D01*
X2150Y37280D01*
X2174Y37270D01*
X2193Y37252D01*
X2252Y37235D01*
X2309Y37209D01*
X2334Y37210D01*
X2359Y37203D01*
X2420Y37214D01*
X2482Y37216D01*
X2504Y37228D01*
X2530Y37233D01*
X2601Y37281D01*
X2634Y37299D01*
X2640Y37307D01*
X2650Y37314D01*
X3652Y38316D01*
X5173Y39421D01*
X6847Y40274D01*
X8634Y40855D01*
X10490Y41149D01*
X10669Y41149D01*
X10669Y29591D01*
X10680Y29541D01*
X10682Y29490D01*
X10700Y29458D01*
X10708Y29422D01*
X10741Y29383D01*
X10765Y29338D01*
X10795Y29317D01*
X10818Y29289D01*
X10865Y29268D01*
X10907Y29239D01*
X10949Y29230D01*
X10977Y29218D01*
X11007Y29219D01*
X11049Y29211D01*
X11431Y29211D01*
X11431Y29209D01*
X11049Y29209D01*
X10999Y29197D01*
X10948Y29196D01*
X10916Y29178D01*
X10880Y29170D01*
X10841Y29137D01*
X10796Y29113D01*
X10775Y29083D01*
X10747Y29059D01*
X10726Y29013D01*
X10696Y28971D01*
X10688Y28929D01*
X10676Y28901D01*
X10677Y28871D01*
X10669Y28829D01*
X10669Y17271D01*
X10490Y17271D01*
X8634Y17565D01*
X6847Y18146D01*
X5173Y18999D01*
X3652Y20104D01*
X2650Y21106D01*
X2628Y21120D01*
X2612Y21140D01*
X2555Y21165D01*
X2503Y21198D01*
X2477Y21200D01*
X2453Y21211D01*
X2392Y21208D01*
X2330Y21214D01*
X2306Y21205D01*
X2280Y21204D01*
X2226Y21175D01*
X2168Y21153D01*
X2151Y21134D01*
X2128Y21121D01*
X2093Y21071D01*
X2051Y21025D01*
X2043Y21001D01*
X2028Y20980D01*
X2012Y20895D01*
X2001Y20859D01*
X2003Y20849D01*
X2001Y20837D01*
X2001Y2381D01*
X2012Y2331D01*
X2014Y2280D01*
X2032Y2248D01*
X2040Y2212D01*
X2073Y2173D01*
X2097Y2128D01*
X2127Y2107D01*
X2150Y2079D01*
X2197Y2058D01*
X2239Y2028D01*
X2281Y2020D01*
X2309Y2008D01*
X2339Y2009D01*
X2381Y2001D01*
X326349Y2001D01*
X326399Y2012D01*
G37*
%LPC*%
G36*
X289890Y17271D02*
X289890Y17271D01*
X288034Y17565D01*
X286247Y18146D01*
X284573Y18999D01*
X284439Y19097D01*
X284395Y19115D01*
X284357Y19142D01*
X284310Y19151D01*
X284279Y19164D01*
X284251Y19162D01*
X284215Y19169D01*
X276415Y19169D01*
X275769Y19342D01*
X275190Y19677D01*
X274717Y20150D01*
X274382Y20729D01*
X274209Y21375D01*
X274209Y28449D01*
X285369Y28449D01*
X285419Y28460D01*
X285470Y28462D01*
X285502Y28480D01*
X285538Y28488D01*
X285577Y28521D01*
X285622Y28545D01*
X285643Y28575D01*
X285671Y28598D01*
X285692Y28645D01*
X285722Y28687D01*
X285730Y28729D01*
X285742Y28757D01*
X285741Y28787D01*
X285749Y28829D01*
X285749Y29591D01*
X285738Y29641D01*
X285736Y29692D01*
X285718Y29724D01*
X285710Y29760D01*
X285677Y29799D01*
X285653Y29844D01*
X285623Y29865D01*
X285599Y29893D01*
X285553Y29914D01*
X285511Y29944D01*
X285469Y29952D01*
X285441Y29964D01*
X285411Y29963D01*
X285369Y29971D01*
X274209Y29971D01*
X274209Y37045D01*
X274382Y37691D01*
X274717Y38270D01*
X275190Y38743D01*
X275769Y39078D01*
X276415Y39251D01*
X284215Y39251D01*
X284260Y39261D01*
X284307Y39262D01*
X284351Y39283D01*
X284384Y39290D01*
X284400Y39304D01*
X284404Y39305D01*
X284410Y39310D01*
X284439Y39323D01*
X284573Y39421D01*
X286247Y40274D01*
X288034Y40855D01*
X289890Y41149D01*
X290069Y41149D01*
X290069Y39631D01*
X290080Y39581D01*
X290082Y39530D01*
X290100Y39498D01*
X290108Y39462D01*
X290141Y39423D01*
X290165Y39378D01*
X290195Y39357D01*
X290218Y39329D01*
X290265Y39308D01*
X290307Y39278D01*
X290349Y39270D01*
X290377Y39258D01*
X290407Y39259D01*
X290449Y39251D01*
X291211Y39251D01*
X291261Y39262D01*
X291312Y39264D01*
X291344Y39282D01*
X291380Y39290D01*
X291419Y39323D01*
X291464Y39347D01*
X291485Y39377D01*
X291513Y39400D01*
X291534Y39447D01*
X291564Y39489D01*
X291572Y39531D01*
X291584Y39559D01*
X291584Y39572D01*
X291584Y39573D01*
X291584Y39591D01*
X291591Y39631D01*
X291591Y41149D01*
X291770Y41149D01*
X293626Y40855D01*
X295413Y40274D01*
X297087Y39421D01*
X298608Y38316D01*
X299936Y36988D01*
X301041Y35467D01*
X301894Y33793D01*
X302475Y32006D01*
X302769Y30150D01*
X302769Y29971D01*
X297671Y29971D01*
X291211Y29971D01*
X291161Y29960D01*
X291110Y29958D01*
X291078Y29940D01*
X291042Y29932D01*
X291003Y29899D01*
X290958Y29875D01*
X290937Y29845D01*
X290909Y29821D01*
X290888Y29775D01*
X290859Y29733D01*
X290850Y29691D01*
X290838Y29663D01*
X290839Y29633D01*
X290831Y29591D01*
X290831Y28829D01*
X290843Y28779D01*
X290844Y28728D01*
X290862Y28696D01*
X290870Y28660D01*
X290903Y28621D01*
X290927Y28576D01*
X290957Y28555D01*
X290981Y28527D01*
X291027Y28506D01*
X291069Y28476D01*
X291111Y28468D01*
X291139Y28456D01*
X291169Y28457D01*
X291211Y28449D01*
X297671Y28449D01*
X302769Y28449D01*
X302769Y28270D01*
X302475Y26414D01*
X301894Y24627D01*
X301041Y22953D01*
X299936Y21432D01*
X298608Y20104D01*
X297087Y18999D01*
X295413Y18146D01*
X293626Y17565D01*
X291770Y17271D01*
X291591Y17271D01*
X291591Y18789D01*
X291580Y18839D01*
X291578Y18890D01*
X291560Y18922D01*
X291552Y18958D01*
X291519Y18997D01*
X291495Y19042D01*
X291465Y19063D01*
X291442Y19091D01*
X291395Y19112D01*
X291353Y19142D01*
X291311Y19150D01*
X291283Y19162D01*
X291253Y19161D01*
X291211Y19169D01*
X290449Y19169D01*
X290399Y19158D01*
X290348Y19156D01*
X290316Y19138D01*
X290280Y19130D01*
X290241Y19097D01*
X290196Y19073D01*
X290175Y19043D01*
X290147Y19020D01*
X290126Y18973D01*
X290096Y18931D01*
X290088Y18889D01*
X290076Y18861D01*
X290077Y18831D01*
X290069Y18789D01*
X290069Y17271D01*
X289890Y17271D01*
G37*
%LPD*%
%LPC*%
G36*
X289890Y322071D02*
X289890Y322071D01*
X288034Y322365D01*
X286247Y322946D01*
X284573Y323799D01*
X284438Y323897D01*
X284395Y323915D01*
X284357Y323942D01*
X284310Y323951D01*
X284279Y323964D01*
X284251Y323962D01*
X284215Y323969D01*
X276415Y323969D01*
X275769Y324142D01*
X275190Y324477D01*
X274717Y324950D01*
X274382Y325529D01*
X274209Y326175D01*
X274209Y333249D01*
X285369Y333249D01*
X285419Y333260D01*
X285470Y333262D01*
X285502Y333280D01*
X285538Y333288D01*
X285577Y333321D01*
X285622Y333345D01*
X285643Y333375D01*
X285671Y333398D01*
X285692Y333445D01*
X285722Y333487D01*
X285730Y333529D01*
X285742Y333557D01*
X285741Y333587D01*
X285749Y333629D01*
X285749Y334391D01*
X285738Y334441D01*
X285736Y334492D01*
X285718Y334524D01*
X285710Y334560D01*
X285677Y334599D01*
X285653Y334644D01*
X285623Y334665D01*
X285599Y334693D01*
X285553Y334714D01*
X285511Y334744D01*
X285469Y334752D01*
X285441Y334764D01*
X285411Y334763D01*
X285369Y334771D01*
X274209Y334771D01*
X274209Y341845D01*
X274382Y342491D01*
X274717Y343070D01*
X275190Y343543D01*
X275769Y343878D01*
X276415Y344051D01*
X284215Y344051D01*
X284260Y344061D01*
X284307Y344062D01*
X284351Y344083D01*
X284384Y344090D01*
X284405Y344108D01*
X284438Y344123D01*
X284573Y344221D01*
X286247Y345074D01*
X288034Y345655D01*
X289890Y345949D01*
X290069Y345949D01*
X290069Y344431D01*
X290080Y344381D01*
X290082Y344330D01*
X290100Y344298D01*
X290108Y344262D01*
X290141Y344223D01*
X290165Y344178D01*
X290195Y344157D01*
X290218Y344129D01*
X290265Y344108D01*
X290307Y344078D01*
X290349Y344070D01*
X290377Y344058D01*
X290407Y344059D01*
X290449Y344051D01*
X291211Y344051D01*
X291261Y344062D01*
X291312Y344064D01*
X291344Y344082D01*
X291380Y344090D01*
X291419Y344123D01*
X291464Y344147D01*
X291485Y344177D01*
X291513Y344200D01*
X291534Y344247D01*
X291564Y344289D01*
X291572Y344331D01*
X291584Y344359D01*
X291583Y344389D01*
X291591Y344431D01*
X291591Y345949D01*
X291770Y345949D01*
X293626Y345655D01*
X295413Y345074D01*
X297087Y344221D01*
X298608Y343116D01*
X299936Y341788D01*
X301041Y340267D01*
X301894Y338593D01*
X302475Y336806D01*
X302769Y334950D01*
X302769Y334771D01*
X297671Y334771D01*
X291211Y334771D01*
X291161Y334760D01*
X291110Y334758D01*
X291078Y334740D01*
X291042Y334732D01*
X291003Y334699D01*
X290958Y334675D01*
X290937Y334645D01*
X290909Y334621D01*
X290888Y334575D01*
X290859Y334533D01*
X290850Y334491D01*
X290838Y334463D01*
X290839Y334433D01*
X290831Y334391D01*
X290831Y333629D01*
X290843Y333579D01*
X290844Y333528D01*
X290862Y333496D01*
X290870Y333460D01*
X290903Y333421D01*
X290927Y333376D01*
X290957Y333355D01*
X290981Y333327D01*
X291027Y333306D01*
X291069Y333276D01*
X291111Y333268D01*
X291139Y333256D01*
X291169Y333257D01*
X291211Y333249D01*
X297671Y333249D01*
X302769Y333249D01*
X302769Y333070D01*
X302475Y331214D01*
X301894Y329427D01*
X301041Y327753D01*
X299936Y326232D01*
X298608Y324904D01*
X297087Y323799D01*
X295413Y322946D01*
X293626Y322365D01*
X291770Y322071D01*
X291591Y322071D01*
X291591Y323589D01*
X291580Y323639D01*
X291578Y323690D01*
X291560Y323722D01*
X291552Y323758D01*
X291519Y323797D01*
X291495Y323842D01*
X291465Y323863D01*
X291442Y323891D01*
X291395Y323912D01*
X291353Y323942D01*
X291311Y323950D01*
X291283Y323962D01*
X291253Y323961D01*
X291211Y323969D01*
X290449Y323969D01*
X290399Y323958D01*
X290348Y323956D01*
X290316Y323938D01*
X290280Y323930D01*
X290241Y323897D01*
X290196Y323873D01*
X290175Y323843D01*
X290147Y323820D01*
X290126Y323773D01*
X290096Y323731D01*
X290088Y323689D01*
X290076Y323661D01*
X290077Y323631D01*
X290069Y323589D01*
X290069Y322071D01*
X289890Y322071D01*
G37*
%LPD*%
%LPC*%
G36*
X289890Y271271D02*
X289890Y271271D01*
X288034Y271565D01*
X286247Y272146D01*
X284573Y272999D01*
X284438Y273097D01*
X284395Y273115D01*
X284357Y273142D01*
X284310Y273151D01*
X284279Y273164D01*
X284251Y273162D01*
X284215Y273169D01*
X276415Y273169D01*
X275769Y273342D01*
X275190Y273677D01*
X274717Y274150D01*
X274382Y274729D01*
X274209Y275375D01*
X274209Y282449D01*
X285369Y282449D01*
X285419Y282460D01*
X285470Y282462D01*
X285502Y282480D01*
X285538Y282488D01*
X285577Y282521D01*
X285622Y282545D01*
X285643Y282575D01*
X285671Y282598D01*
X285692Y282645D01*
X285722Y282687D01*
X285730Y282729D01*
X285742Y282757D01*
X285741Y282787D01*
X285749Y282829D01*
X285749Y283591D01*
X285738Y283641D01*
X285736Y283692D01*
X285718Y283724D01*
X285710Y283760D01*
X285677Y283799D01*
X285653Y283844D01*
X285623Y283865D01*
X285599Y283893D01*
X285553Y283914D01*
X285511Y283944D01*
X285469Y283952D01*
X285441Y283964D01*
X285411Y283963D01*
X285369Y283971D01*
X274209Y283971D01*
X274209Y291045D01*
X274382Y291691D01*
X274717Y292270D01*
X275190Y292743D01*
X275769Y293078D01*
X276415Y293251D01*
X284215Y293251D01*
X284260Y293261D01*
X284307Y293262D01*
X284351Y293283D01*
X284384Y293290D01*
X284405Y293308D01*
X284438Y293323D01*
X284573Y293421D01*
X286247Y294274D01*
X288034Y294855D01*
X289890Y295149D01*
X290069Y295149D01*
X290069Y293631D01*
X290080Y293581D01*
X290082Y293530D01*
X290100Y293498D01*
X290108Y293462D01*
X290141Y293423D01*
X290165Y293378D01*
X290195Y293357D01*
X290218Y293329D01*
X290265Y293308D01*
X290307Y293278D01*
X290349Y293270D01*
X290377Y293258D01*
X290407Y293259D01*
X290449Y293251D01*
X291211Y293251D01*
X291261Y293262D01*
X291312Y293264D01*
X291344Y293282D01*
X291380Y293290D01*
X291419Y293323D01*
X291464Y293347D01*
X291485Y293377D01*
X291513Y293400D01*
X291534Y293447D01*
X291564Y293489D01*
X291572Y293531D01*
X291584Y293559D01*
X291583Y293578D01*
X291584Y293580D01*
X291584Y293593D01*
X291591Y293631D01*
X291591Y295149D01*
X291770Y295149D01*
X293626Y294855D01*
X295413Y294274D01*
X297087Y293421D01*
X298608Y292316D01*
X299936Y290988D01*
X301041Y289467D01*
X301894Y287793D01*
X302475Y286006D01*
X302769Y284150D01*
X302769Y283971D01*
X297671Y283971D01*
X291211Y283971D01*
X291161Y283960D01*
X291110Y283958D01*
X291078Y283940D01*
X291042Y283932D01*
X291003Y283899D01*
X290958Y283875D01*
X290937Y283845D01*
X290909Y283821D01*
X290888Y283775D01*
X290859Y283733D01*
X290850Y283691D01*
X290838Y283663D01*
X290839Y283633D01*
X290831Y283591D01*
X290831Y282829D01*
X290843Y282779D01*
X290844Y282728D01*
X290862Y282696D01*
X290870Y282660D01*
X290903Y282621D01*
X290927Y282576D01*
X290957Y282555D01*
X290981Y282527D01*
X291027Y282506D01*
X291069Y282476D01*
X291111Y282468D01*
X291139Y282456D01*
X291169Y282457D01*
X291211Y282449D01*
X297671Y282449D01*
X302769Y282449D01*
X302769Y282270D01*
X302475Y280414D01*
X301894Y278627D01*
X301041Y276953D01*
X299936Y275432D01*
X298608Y274104D01*
X297087Y272999D01*
X295413Y272146D01*
X293626Y271565D01*
X291770Y271271D01*
X291591Y271271D01*
X291591Y272789D01*
X291580Y272839D01*
X291578Y272890D01*
X291560Y272922D01*
X291552Y272958D01*
X291519Y272997D01*
X291495Y273042D01*
X291465Y273063D01*
X291442Y273091D01*
X291395Y273112D01*
X291353Y273142D01*
X291311Y273150D01*
X291283Y273162D01*
X291253Y273161D01*
X291211Y273169D01*
X290449Y273169D01*
X290399Y273158D01*
X290348Y273156D01*
X290316Y273138D01*
X290280Y273130D01*
X290241Y273097D01*
X290196Y273073D01*
X290175Y273043D01*
X290147Y273020D01*
X290126Y272973D01*
X290096Y272931D01*
X290088Y272889D01*
X290076Y272861D01*
X290077Y272831D01*
X290069Y272789D01*
X290069Y271271D01*
X289890Y271271D01*
G37*
%LPD*%
%LPC*%
G36*
X35890Y271271D02*
X35890Y271271D01*
X34034Y271565D01*
X32247Y272146D01*
X30573Y272999D01*
X29052Y274104D01*
X27724Y275432D01*
X26619Y276953D01*
X25766Y278627D01*
X25185Y280414D01*
X24891Y282270D01*
X24891Y282449D01*
X29989Y282449D01*
X36449Y282449D01*
X36499Y282460D01*
X36550Y282462D01*
X36582Y282480D01*
X36618Y282488D01*
X36657Y282521D01*
X36702Y282545D01*
X36723Y282575D01*
X36751Y282598D01*
X36772Y282645D01*
X36801Y282687D01*
X36810Y282729D01*
X36822Y282757D01*
X36821Y282787D01*
X36829Y282829D01*
X36829Y283591D01*
X36817Y283641D01*
X36816Y283692D01*
X36798Y283724D01*
X36790Y283760D01*
X36757Y283799D01*
X36733Y283844D01*
X36703Y283865D01*
X36679Y283893D01*
X36633Y283914D01*
X36591Y283944D01*
X36549Y283952D01*
X36521Y283964D01*
X36491Y283963D01*
X36449Y283971D01*
X29989Y283971D01*
X24891Y283971D01*
X24891Y284150D01*
X25185Y286006D01*
X25766Y287793D01*
X26619Y289467D01*
X27724Y290988D01*
X29052Y292316D01*
X30573Y293421D01*
X32247Y294274D01*
X34034Y294855D01*
X35890Y295149D01*
X36069Y295149D01*
X36069Y293631D01*
X36080Y293581D01*
X36082Y293530D01*
X36100Y293498D01*
X36108Y293462D01*
X36141Y293423D01*
X36165Y293378D01*
X36195Y293357D01*
X36218Y293329D01*
X36265Y293308D01*
X36307Y293278D01*
X36349Y293270D01*
X36377Y293258D01*
X36407Y293259D01*
X36449Y293251D01*
X37211Y293251D01*
X37261Y293262D01*
X37312Y293264D01*
X37344Y293282D01*
X37380Y293290D01*
X37419Y293323D01*
X37464Y293347D01*
X37485Y293377D01*
X37513Y293400D01*
X37534Y293447D01*
X37564Y293489D01*
X37572Y293531D01*
X37584Y293559D01*
X37583Y293578D01*
X37584Y293580D01*
X37584Y293593D01*
X37591Y293631D01*
X37591Y295149D01*
X37770Y295149D01*
X39626Y294855D01*
X41413Y294274D01*
X43087Y293421D01*
X43221Y293323D01*
X43265Y293305D01*
X43303Y293278D01*
X43350Y293269D01*
X43381Y293256D01*
X43409Y293258D01*
X43445Y293251D01*
X51245Y293251D01*
X51891Y293078D01*
X52470Y292743D01*
X52943Y292270D01*
X53278Y291691D01*
X53451Y291045D01*
X53451Y283971D01*
X42291Y283971D01*
X42241Y283960D01*
X42190Y283958D01*
X42158Y283940D01*
X42122Y283932D01*
X42083Y283899D01*
X42038Y283875D01*
X42017Y283845D01*
X41989Y283821D01*
X41968Y283775D01*
X41938Y283733D01*
X41930Y283691D01*
X41918Y283663D01*
X41919Y283633D01*
X41911Y283591D01*
X41911Y282829D01*
X41922Y282779D01*
X41924Y282728D01*
X41942Y282696D01*
X41950Y282660D01*
X41983Y282621D01*
X42007Y282576D01*
X42037Y282555D01*
X42061Y282527D01*
X42107Y282506D01*
X42149Y282476D01*
X42191Y282468D01*
X42219Y282456D01*
X42249Y282457D01*
X42291Y282449D01*
X53451Y282449D01*
X53451Y275375D01*
X53278Y274729D01*
X52943Y274150D01*
X52470Y273677D01*
X51891Y273342D01*
X51245Y273169D01*
X43445Y273169D01*
X43400Y273159D01*
X43353Y273158D01*
X43309Y273137D01*
X43276Y273130D01*
X43255Y273112D01*
X43221Y273097D01*
X43087Y272999D01*
X41413Y272146D01*
X39626Y271565D01*
X37770Y271271D01*
X37591Y271271D01*
X37591Y272789D01*
X37580Y272839D01*
X37578Y272890D01*
X37560Y272922D01*
X37552Y272958D01*
X37519Y272997D01*
X37495Y273042D01*
X37465Y273063D01*
X37442Y273091D01*
X37395Y273112D01*
X37353Y273142D01*
X37311Y273150D01*
X37283Y273162D01*
X37253Y273161D01*
X37211Y273169D01*
X36449Y273169D01*
X36399Y273158D01*
X36348Y273156D01*
X36316Y273138D01*
X36280Y273130D01*
X36241Y273097D01*
X36196Y273073D01*
X36175Y273043D01*
X36147Y273020D01*
X36126Y272973D01*
X36096Y272931D01*
X36088Y272889D01*
X36076Y272861D01*
X36077Y272831D01*
X36069Y272789D01*
X36069Y271271D01*
X35890Y271271D01*
G37*
%LPD*%
%LPC*%
G36*
X35890Y322071D02*
X35890Y322071D01*
X34034Y322365D01*
X32247Y322946D01*
X30573Y323799D01*
X29052Y324904D01*
X27724Y326232D01*
X26619Y327753D01*
X25766Y329427D01*
X25185Y331214D01*
X24891Y333070D01*
X24891Y333249D01*
X29989Y333249D01*
X36449Y333249D01*
X36499Y333260D01*
X36550Y333262D01*
X36582Y333280D01*
X36618Y333288D01*
X36657Y333321D01*
X36702Y333345D01*
X36723Y333375D01*
X36751Y333398D01*
X36772Y333445D01*
X36801Y333487D01*
X36810Y333529D01*
X36822Y333557D01*
X36821Y333587D01*
X36829Y333629D01*
X36829Y334391D01*
X36817Y334441D01*
X36816Y334492D01*
X36798Y334524D01*
X36790Y334560D01*
X36757Y334599D01*
X36733Y334644D01*
X36703Y334665D01*
X36679Y334693D01*
X36633Y334714D01*
X36591Y334744D01*
X36549Y334752D01*
X36521Y334764D01*
X36491Y334763D01*
X36449Y334771D01*
X29989Y334771D01*
X24891Y334771D01*
X24891Y334950D01*
X25185Y336806D01*
X25766Y338593D01*
X26619Y340267D01*
X27724Y341788D01*
X29052Y343116D01*
X30573Y344221D01*
X32247Y345074D01*
X34034Y345655D01*
X35890Y345949D01*
X36069Y345949D01*
X36069Y344431D01*
X36080Y344381D01*
X36082Y344330D01*
X36100Y344298D01*
X36108Y344262D01*
X36141Y344223D01*
X36165Y344178D01*
X36195Y344157D01*
X36218Y344129D01*
X36265Y344108D01*
X36307Y344078D01*
X36349Y344070D01*
X36377Y344058D01*
X36407Y344059D01*
X36449Y344051D01*
X37211Y344051D01*
X37261Y344062D01*
X37312Y344064D01*
X37344Y344082D01*
X37380Y344090D01*
X37419Y344123D01*
X37464Y344147D01*
X37485Y344177D01*
X37513Y344200D01*
X37534Y344247D01*
X37564Y344289D01*
X37572Y344331D01*
X37584Y344359D01*
X37583Y344389D01*
X37591Y344431D01*
X37591Y345949D01*
X37770Y345949D01*
X39626Y345655D01*
X41413Y345074D01*
X43087Y344221D01*
X43222Y344123D01*
X43265Y344105D01*
X43303Y344078D01*
X43350Y344069D01*
X43381Y344056D01*
X43409Y344058D01*
X43445Y344051D01*
X51245Y344051D01*
X51891Y343878D01*
X52470Y343543D01*
X52943Y343070D01*
X53278Y342491D01*
X53451Y341845D01*
X53451Y334771D01*
X42291Y334771D01*
X42241Y334760D01*
X42190Y334758D01*
X42158Y334740D01*
X42122Y334732D01*
X42083Y334699D01*
X42038Y334675D01*
X42017Y334645D01*
X41989Y334621D01*
X41968Y334575D01*
X41938Y334533D01*
X41930Y334491D01*
X41918Y334463D01*
X41919Y334433D01*
X41911Y334391D01*
X41911Y333629D01*
X41922Y333579D01*
X41924Y333528D01*
X41942Y333496D01*
X41950Y333460D01*
X41983Y333421D01*
X42007Y333376D01*
X42037Y333355D01*
X42061Y333327D01*
X42107Y333306D01*
X42149Y333276D01*
X42191Y333268D01*
X42219Y333256D01*
X42249Y333257D01*
X42291Y333249D01*
X53451Y333249D01*
X53451Y326175D01*
X53278Y325529D01*
X52943Y324950D01*
X52470Y324477D01*
X51891Y324142D01*
X51245Y323969D01*
X43445Y323969D01*
X43400Y323959D01*
X43353Y323958D01*
X43309Y323937D01*
X43276Y323930D01*
X43255Y323912D01*
X43222Y323897D01*
X43087Y323799D01*
X41413Y322946D01*
X39626Y322365D01*
X37770Y322071D01*
X37591Y322071D01*
X37591Y323589D01*
X37580Y323639D01*
X37578Y323690D01*
X37560Y323722D01*
X37552Y323758D01*
X37519Y323797D01*
X37495Y323842D01*
X37465Y323863D01*
X37442Y323891D01*
X37395Y323912D01*
X37353Y323942D01*
X37311Y323950D01*
X37283Y323962D01*
X37253Y323961D01*
X37211Y323969D01*
X36449Y323969D01*
X36399Y323958D01*
X36348Y323956D01*
X36316Y323938D01*
X36280Y323930D01*
X36241Y323897D01*
X36196Y323873D01*
X36175Y323843D01*
X36147Y323820D01*
X36126Y323773D01*
X36096Y323731D01*
X36088Y323689D01*
X36076Y323661D01*
X36077Y323631D01*
X36069Y323589D01*
X36069Y322071D01*
X35890Y322071D01*
G37*
%LPD*%
%LPC*%
G36*
X35890Y296671D02*
X35890Y296671D01*
X34034Y296965D01*
X32247Y297546D01*
X30573Y298399D01*
X29052Y299504D01*
X27724Y300832D01*
X26619Y302353D01*
X25766Y304027D01*
X25185Y305814D01*
X24891Y307670D01*
X24891Y307849D01*
X29989Y307849D01*
X36449Y307849D01*
X36499Y307860D01*
X36550Y307862D01*
X36582Y307880D01*
X36618Y307888D01*
X36657Y307921D01*
X36702Y307945D01*
X36723Y307975D01*
X36751Y307998D01*
X36772Y308045D01*
X36801Y308087D01*
X36810Y308129D01*
X36822Y308157D01*
X36821Y308187D01*
X36829Y308229D01*
X36829Y308991D01*
X36817Y309041D01*
X36816Y309092D01*
X36798Y309124D01*
X36790Y309160D01*
X36757Y309199D01*
X36733Y309244D01*
X36703Y309265D01*
X36679Y309293D01*
X36633Y309314D01*
X36591Y309344D01*
X36549Y309352D01*
X36521Y309364D01*
X36491Y309363D01*
X36449Y309371D01*
X29989Y309371D01*
X24891Y309371D01*
X24891Y309550D01*
X25185Y311406D01*
X25766Y313193D01*
X26619Y314867D01*
X27724Y316388D01*
X29052Y317716D01*
X30573Y318821D01*
X32247Y319674D01*
X34034Y320255D01*
X35890Y320549D01*
X36069Y320549D01*
X36069Y319031D01*
X36080Y318981D01*
X36082Y318930D01*
X36100Y318898D01*
X36108Y318862D01*
X36141Y318823D01*
X36165Y318778D01*
X36195Y318757D01*
X36218Y318729D01*
X36265Y318708D01*
X36307Y318678D01*
X36349Y318670D01*
X36377Y318658D01*
X36407Y318659D01*
X36449Y318651D01*
X37211Y318651D01*
X37261Y318662D01*
X37312Y318664D01*
X37344Y318682D01*
X37380Y318690D01*
X37419Y318723D01*
X37464Y318747D01*
X37485Y318777D01*
X37513Y318800D01*
X37534Y318847D01*
X37564Y318889D01*
X37572Y318931D01*
X37584Y318959D01*
X37583Y318989D01*
X37591Y319031D01*
X37591Y320549D01*
X37770Y320549D01*
X39626Y320255D01*
X41413Y319674D01*
X43087Y318821D01*
X43222Y318723D01*
X43265Y318705D01*
X43303Y318678D01*
X43350Y318669D01*
X43381Y318656D01*
X43409Y318658D01*
X43445Y318651D01*
X51245Y318651D01*
X51891Y318478D01*
X52470Y318143D01*
X52943Y317670D01*
X53278Y317091D01*
X53451Y316445D01*
X53451Y309371D01*
X42291Y309371D01*
X42241Y309360D01*
X42190Y309358D01*
X42158Y309340D01*
X42122Y309332D01*
X42083Y309299D01*
X42038Y309275D01*
X42017Y309245D01*
X41989Y309221D01*
X41968Y309175D01*
X41938Y309133D01*
X41930Y309091D01*
X41918Y309063D01*
X41919Y309033D01*
X41911Y308991D01*
X41911Y308229D01*
X41922Y308179D01*
X41924Y308128D01*
X41942Y308096D01*
X41950Y308060D01*
X41983Y308021D01*
X42007Y307976D01*
X42037Y307955D01*
X42061Y307927D01*
X42107Y307906D01*
X42149Y307876D01*
X42191Y307868D01*
X42219Y307856D01*
X42249Y307857D01*
X42291Y307849D01*
X53451Y307849D01*
X53451Y300775D01*
X53278Y300129D01*
X52943Y299550D01*
X52470Y299077D01*
X51891Y298742D01*
X51245Y298569D01*
X43445Y298569D01*
X43400Y298559D01*
X43353Y298558D01*
X43309Y298537D01*
X43276Y298530D01*
X43255Y298512D01*
X43222Y298497D01*
X43087Y298399D01*
X41413Y297546D01*
X39626Y296965D01*
X37770Y296671D01*
X37591Y296671D01*
X37591Y298189D01*
X37580Y298239D01*
X37578Y298290D01*
X37560Y298322D01*
X37552Y298358D01*
X37519Y298397D01*
X37495Y298442D01*
X37465Y298463D01*
X37442Y298491D01*
X37395Y298512D01*
X37353Y298542D01*
X37311Y298550D01*
X37283Y298562D01*
X37253Y298561D01*
X37211Y298569D01*
X36449Y298569D01*
X36399Y298558D01*
X36348Y298556D01*
X36316Y298538D01*
X36280Y298530D01*
X36241Y298497D01*
X36196Y298473D01*
X36175Y298443D01*
X36147Y298420D01*
X36126Y298373D01*
X36096Y298331D01*
X36088Y298289D01*
X36076Y298261D01*
X36077Y298231D01*
X36069Y298189D01*
X36069Y296671D01*
X35890Y296671D01*
G37*
%LPD*%
%LPC*%
G36*
X35890Y17271D02*
X35890Y17271D01*
X34034Y17565D01*
X32247Y18146D01*
X30573Y18999D01*
X29052Y20104D01*
X27724Y21432D01*
X26619Y22953D01*
X25766Y24627D01*
X25185Y26414D01*
X24891Y28270D01*
X24891Y28449D01*
X29989Y28449D01*
X36449Y28449D01*
X36499Y28460D01*
X36550Y28462D01*
X36582Y28480D01*
X36618Y28488D01*
X36657Y28521D01*
X36702Y28545D01*
X36723Y28575D01*
X36751Y28598D01*
X36772Y28645D01*
X36801Y28687D01*
X36810Y28729D01*
X36822Y28757D01*
X36821Y28787D01*
X36829Y28829D01*
X36829Y29591D01*
X36817Y29641D01*
X36816Y29692D01*
X36798Y29724D01*
X36790Y29760D01*
X36757Y29799D01*
X36733Y29844D01*
X36703Y29865D01*
X36679Y29893D01*
X36633Y29914D01*
X36591Y29944D01*
X36549Y29952D01*
X36521Y29964D01*
X36491Y29963D01*
X36449Y29971D01*
X29989Y29971D01*
X24891Y29971D01*
X24891Y30150D01*
X25185Y32006D01*
X25766Y33793D01*
X26619Y35467D01*
X27724Y36988D01*
X29052Y38316D01*
X30573Y39421D01*
X32247Y40274D01*
X34034Y40855D01*
X35890Y41149D01*
X36069Y41149D01*
X36069Y39631D01*
X36080Y39581D01*
X36082Y39530D01*
X36100Y39498D01*
X36108Y39462D01*
X36141Y39423D01*
X36165Y39378D01*
X36195Y39357D01*
X36218Y39329D01*
X36265Y39308D01*
X36307Y39278D01*
X36349Y39270D01*
X36377Y39258D01*
X36407Y39259D01*
X36449Y39251D01*
X37211Y39251D01*
X37261Y39262D01*
X37312Y39264D01*
X37344Y39282D01*
X37380Y39290D01*
X37419Y39323D01*
X37464Y39347D01*
X37485Y39377D01*
X37513Y39400D01*
X37534Y39447D01*
X37564Y39489D01*
X37572Y39531D01*
X37584Y39559D01*
X37584Y39572D01*
X37584Y39573D01*
X37584Y39591D01*
X37591Y39631D01*
X37591Y41149D01*
X37770Y41149D01*
X39626Y40855D01*
X41413Y40274D01*
X43087Y39421D01*
X43222Y39323D01*
X43265Y39305D01*
X43303Y39278D01*
X43350Y39269D01*
X43381Y39256D01*
X43409Y39258D01*
X43445Y39251D01*
X51245Y39251D01*
X51891Y39078D01*
X52470Y38743D01*
X52943Y38270D01*
X53278Y37691D01*
X53451Y37045D01*
X53451Y29971D01*
X42291Y29971D01*
X42241Y29960D01*
X42190Y29958D01*
X42158Y29940D01*
X42122Y29932D01*
X42083Y29899D01*
X42038Y29875D01*
X42017Y29845D01*
X41989Y29821D01*
X41968Y29775D01*
X41938Y29733D01*
X41930Y29691D01*
X41918Y29663D01*
X41919Y29633D01*
X41911Y29591D01*
X41911Y28829D01*
X41922Y28779D01*
X41924Y28728D01*
X41942Y28696D01*
X41950Y28660D01*
X41983Y28621D01*
X42007Y28576D01*
X42037Y28555D01*
X42061Y28527D01*
X42107Y28506D01*
X42149Y28476D01*
X42191Y28468D01*
X42219Y28456D01*
X42249Y28457D01*
X42291Y28449D01*
X53451Y28449D01*
X53451Y21375D01*
X53278Y20729D01*
X52943Y20150D01*
X52470Y19677D01*
X51891Y19342D01*
X51245Y19169D01*
X43445Y19169D01*
X43400Y19159D01*
X43353Y19158D01*
X43309Y19137D01*
X43276Y19130D01*
X43255Y19112D01*
X43222Y19097D01*
X43087Y18999D01*
X41413Y18146D01*
X39626Y17565D01*
X37770Y17271D01*
X37591Y17271D01*
X37591Y18789D01*
X37580Y18839D01*
X37578Y18890D01*
X37560Y18922D01*
X37552Y18958D01*
X37519Y18997D01*
X37495Y19042D01*
X37465Y19063D01*
X37442Y19091D01*
X37395Y19112D01*
X37353Y19142D01*
X37311Y19150D01*
X37283Y19162D01*
X37253Y19161D01*
X37211Y19169D01*
X36449Y19169D01*
X36399Y19158D01*
X36348Y19156D01*
X36316Y19138D01*
X36280Y19130D01*
X36241Y19097D01*
X36196Y19073D01*
X36175Y19043D01*
X36147Y19020D01*
X36126Y18973D01*
X36096Y18931D01*
X36088Y18889D01*
X36076Y18861D01*
X36077Y18831D01*
X36069Y18789D01*
X36069Y17271D01*
X35890Y17271D01*
G37*
%LPD*%
%LPC*%
G36*
X288657Y297687D02*
X288657Y297687D01*
X284643Y299350D01*
X284519Y299474D01*
X284454Y299514D01*
X284392Y299558D01*
X284380Y299560D01*
X284372Y299565D01*
X284335Y299569D01*
X284250Y299585D01*
X276118Y299585D01*
X275225Y300478D01*
X275225Y316742D01*
X276118Y317635D01*
X284250Y317635D01*
X284324Y317652D01*
X284399Y317665D01*
X284409Y317672D01*
X284419Y317674D01*
X284448Y317698D01*
X284519Y317746D01*
X284643Y317870D01*
X288657Y319533D01*
X293003Y319533D01*
X297017Y317870D01*
X300090Y314797D01*
X301753Y310783D01*
X301753Y306437D01*
X300090Y302423D01*
X297017Y299350D01*
X293003Y297687D01*
X288657Y297687D01*
G37*
%LPD*%
%LPC*%
G36*
X288657Y246887D02*
X288657Y246887D01*
X284643Y248550D01*
X281570Y251623D01*
X279907Y255637D01*
X279907Y259983D01*
X281570Y263997D01*
X284643Y267070D01*
X288657Y268733D01*
X293003Y268733D01*
X297017Y267070D01*
X300090Y263997D01*
X301753Y259983D01*
X301753Y255637D01*
X300090Y251623D01*
X297017Y248550D01*
X293003Y246887D01*
X288657Y246887D01*
G37*
%LPD*%
%LPC*%
G36*
X34657Y246887D02*
X34657Y246887D01*
X30643Y248550D01*
X27570Y251623D01*
X25907Y255637D01*
X25907Y259983D01*
X27570Y263997D01*
X30643Y267070D01*
X34657Y268733D01*
X39003Y268733D01*
X43017Y267070D01*
X46090Y263997D01*
X47753Y259983D01*
X47753Y255637D01*
X46090Y251623D01*
X43017Y248550D01*
X39003Y246887D01*
X34657Y246887D01*
G37*
%LPD*%
%LPC*%
G36*
X226588Y317155D02*
X226588Y317155D01*
X225695Y318048D01*
X225695Y327112D01*
X226588Y328005D01*
X245852Y328005D01*
X246745Y327112D01*
X246745Y318048D01*
X245852Y317155D01*
X226588Y317155D01*
G37*
%LPD*%
%LPC*%
G36*
X94741Y165861D02*
X94741Y165861D01*
X94741Y177039D01*
X105521Y177039D01*
X105521Y173565D01*
X105348Y172919D01*
X105013Y172340D01*
X104540Y171867D01*
X104388Y171779D01*
X104342Y171736D01*
X104291Y171699D01*
X104280Y171678D01*
X104262Y171661D01*
X104240Y171602D01*
X104211Y171546D01*
X104210Y171522D01*
X104201Y171499D01*
X104208Y171436D01*
X104206Y171373D01*
X104216Y171351D01*
X104219Y171326D01*
X104252Y171273D01*
X104279Y171216D01*
X104300Y171198D01*
X104311Y171180D01*
X104343Y171160D01*
X104388Y171121D01*
X104540Y171033D01*
X105013Y170560D01*
X105348Y169981D01*
X105521Y169335D01*
X105521Y165861D01*
X94741Y165861D01*
G37*
%LPD*%
%LPC*%
G36*
X94741Y310641D02*
X94741Y310641D01*
X94741Y321819D01*
X105521Y321819D01*
X105521Y318345D01*
X105348Y317699D01*
X105013Y317120D01*
X104540Y316647D01*
X104388Y316559D01*
X104342Y316516D01*
X104291Y316479D01*
X104280Y316458D01*
X104262Y316441D01*
X104240Y316382D01*
X104211Y316326D01*
X104210Y316302D01*
X104201Y316279D01*
X104208Y316216D01*
X104206Y316153D01*
X104216Y316131D01*
X104219Y316106D01*
X104252Y316053D01*
X104279Y315996D01*
X104300Y315978D01*
X104311Y315960D01*
X104343Y315940D01*
X104388Y315901D01*
X104540Y315813D01*
X105013Y315340D01*
X105348Y314761D01*
X105521Y314115D01*
X105521Y310641D01*
X94741Y310641D01*
G37*
%LPD*%
%LPC*%
G36*
X94741Y323341D02*
X94741Y323341D01*
X94741Y334519D01*
X105521Y334519D01*
X105521Y331045D01*
X105348Y330399D01*
X105013Y329820D01*
X104540Y329347D01*
X104388Y329259D01*
X104342Y329216D01*
X104291Y329179D01*
X104280Y329158D01*
X104262Y329141D01*
X104240Y329082D01*
X104210Y329026D01*
X104210Y329002D01*
X104201Y328979D01*
X104208Y328916D01*
X104206Y328853D01*
X104216Y328831D01*
X104219Y328806D01*
X104252Y328753D01*
X104279Y328696D01*
X104300Y328678D01*
X104311Y328660D01*
X104343Y328640D01*
X104388Y328601D01*
X104540Y328513D01*
X105013Y328040D01*
X105348Y327461D01*
X105521Y326815D01*
X105521Y323341D01*
X94741Y323341D01*
G37*
%LPD*%
%LPC*%
G36*
X82439Y165861D02*
X82439Y165861D01*
X82439Y169335D01*
X82612Y169981D01*
X82947Y170560D01*
X83420Y171033D01*
X83572Y171121D01*
X83618Y171164D01*
X83669Y171201D01*
X83680Y171222D01*
X83698Y171239D01*
X83720Y171298D01*
X83749Y171354D01*
X83750Y171378D01*
X83759Y171402D01*
X83752Y171464D01*
X83754Y171527D01*
X83744Y171549D01*
X83741Y171574D01*
X83708Y171627D01*
X83681Y171684D01*
X83660Y171703D01*
X83649Y171721D01*
X83617Y171740D01*
X83572Y171779D01*
X83420Y171867D01*
X82947Y172340D01*
X82612Y172919D01*
X82439Y173565D01*
X82439Y177039D01*
X93219Y177039D01*
X93219Y165861D01*
X82439Y165861D01*
G37*
%LPD*%
%LPC*%
G36*
X82439Y310641D02*
X82439Y310641D01*
X82439Y314115D01*
X82612Y314761D01*
X82947Y315340D01*
X83420Y315813D01*
X83572Y315901D01*
X83618Y315944D01*
X83669Y315981D01*
X83680Y316002D01*
X83698Y316019D01*
X83720Y316078D01*
X83749Y316134D01*
X83750Y316158D01*
X83759Y316182D01*
X83752Y316244D01*
X83754Y316307D01*
X83744Y316329D01*
X83741Y316354D01*
X83708Y316407D01*
X83681Y316464D01*
X83660Y316483D01*
X83649Y316501D01*
X83617Y316520D01*
X83572Y316559D01*
X83420Y316647D01*
X82947Y317120D01*
X82612Y317699D01*
X82439Y318345D01*
X82439Y321819D01*
X93219Y321819D01*
X93219Y310641D01*
X82439Y310641D01*
G37*
%LPD*%
%LPC*%
G36*
X82439Y323341D02*
X82439Y323341D01*
X82439Y326815D01*
X82612Y327461D01*
X82947Y328040D01*
X83420Y328513D01*
X83572Y328601D01*
X83618Y328644D01*
X83669Y328681D01*
X83680Y328702D01*
X83698Y328719D01*
X83720Y328778D01*
X83749Y328834D01*
X83750Y328858D01*
X83759Y328881D01*
X83752Y328944D01*
X83754Y329007D01*
X83744Y329029D01*
X83741Y329054D01*
X83708Y329107D01*
X83681Y329164D01*
X83660Y329182D01*
X83649Y329200D01*
X83617Y329220D01*
X83572Y329259D01*
X83420Y329347D01*
X82947Y329820D01*
X82612Y330399D01*
X82439Y331045D01*
X82439Y334519D01*
X93219Y334519D01*
X93219Y323341D01*
X82439Y323341D01*
G37*
%LPD*%
%LPC*%
G36*
X12191Y334771D02*
X12191Y334771D01*
X12191Y345949D01*
X12370Y345949D01*
X14226Y345655D01*
X16013Y345074D01*
X17687Y344221D01*
X19208Y343116D01*
X20536Y341788D01*
X21641Y340267D01*
X22494Y338593D01*
X23075Y336806D01*
X23369Y334950D01*
X23369Y334771D01*
X12191Y334771D01*
G37*
%LPD*%
%LPC*%
G36*
X12191Y283971D02*
X12191Y283971D01*
X12191Y295149D01*
X12370Y295149D01*
X14226Y294855D01*
X16013Y294274D01*
X17687Y293421D01*
X19208Y292316D01*
X20536Y290988D01*
X21641Y289467D01*
X22494Y287793D01*
X23075Y286006D01*
X23369Y284150D01*
X23369Y283971D01*
X12191Y283971D01*
G37*
%LPD*%
%LPC*%
G36*
X12191Y29971D02*
X12191Y29971D01*
X12191Y41149D01*
X12370Y41149D01*
X14226Y40855D01*
X16013Y40274D01*
X17687Y39421D01*
X19208Y38316D01*
X20536Y36988D01*
X21641Y35467D01*
X22494Y33793D01*
X23075Y32006D01*
X23369Y30150D01*
X23369Y29971D01*
X12191Y29971D01*
G37*
%LPD*%
%LPC*%
G36*
X12191Y309371D02*
X12191Y309371D01*
X12191Y320549D01*
X12370Y320549D01*
X14226Y320255D01*
X16013Y319674D01*
X17687Y318821D01*
X19208Y317716D01*
X20536Y316388D01*
X21641Y314867D01*
X22494Y313193D01*
X23075Y311406D01*
X23369Y309550D01*
X23369Y309371D01*
X12191Y309371D01*
G37*
%LPD*%
%LPC*%
G36*
X304291Y334771D02*
X304291Y334771D01*
X304291Y334950D01*
X304585Y336806D01*
X305166Y338593D01*
X306019Y340267D01*
X307124Y341788D01*
X308452Y343116D01*
X309973Y344221D01*
X311647Y345074D01*
X313434Y345655D01*
X315290Y345949D01*
X315469Y345949D01*
X315469Y334771D01*
X304291Y334771D01*
G37*
%LPD*%
%LPC*%
G36*
X304291Y29971D02*
X304291Y29971D01*
X304291Y30150D01*
X304585Y32006D01*
X305166Y33793D01*
X306019Y35467D01*
X307124Y36988D01*
X308452Y38316D01*
X309973Y39421D01*
X311647Y40274D01*
X313434Y40855D01*
X315290Y41149D01*
X315469Y41149D01*
X315469Y29971D01*
X304291Y29971D01*
G37*
%LPD*%
%LPC*%
G36*
X12191Y17271D02*
X12191Y17271D01*
X12191Y28449D01*
X23369Y28449D01*
X23369Y28270D01*
X23075Y26414D01*
X22494Y24627D01*
X21641Y22953D01*
X20536Y21432D01*
X19208Y20104D01*
X17687Y18999D01*
X16013Y18146D01*
X14226Y17565D01*
X12370Y17271D01*
X12191Y17271D01*
G37*
%LPD*%
%LPC*%
G36*
X12191Y322071D02*
X12191Y322071D01*
X12191Y333249D01*
X23369Y333249D01*
X23369Y333070D01*
X23075Y331214D01*
X22494Y329427D01*
X21641Y327753D01*
X20536Y326232D01*
X19208Y324904D01*
X17687Y323799D01*
X16013Y322946D01*
X14226Y322365D01*
X12370Y322071D01*
X12191Y322071D01*
G37*
%LPD*%
%LPC*%
G36*
X12191Y271271D02*
X12191Y271271D01*
X12191Y282449D01*
X23369Y282449D01*
X23369Y282270D01*
X23075Y280414D01*
X22494Y278627D01*
X21641Y276953D01*
X20536Y275432D01*
X19208Y274104D01*
X17687Y272999D01*
X16013Y272146D01*
X14226Y271565D01*
X12370Y271271D01*
X12191Y271271D01*
G37*
%LPD*%
%LPC*%
G36*
X12191Y296671D02*
X12191Y296671D01*
X12191Y307849D01*
X23369Y307849D01*
X23369Y307670D01*
X23075Y305814D01*
X22494Y304027D01*
X21641Y302353D01*
X20536Y300832D01*
X19208Y299504D01*
X17687Y298399D01*
X16013Y297546D01*
X14226Y296965D01*
X12370Y296671D01*
X12191Y296671D01*
G37*
%LPD*%
%LPC*%
G36*
X304291Y283971D02*
X304291Y283971D01*
X304291Y284150D01*
X304585Y286006D01*
X305166Y287793D01*
X306019Y289467D01*
X307124Y290988D01*
X308452Y292316D01*
X309973Y293421D01*
X311647Y294274D01*
X313434Y294855D01*
X315290Y295149D01*
X315469Y295149D01*
X315469Y283971D01*
X304291Y283971D01*
G37*
%LPD*%
%LPC*%
G36*
X315290Y322071D02*
X315290Y322071D01*
X313434Y322365D01*
X311647Y322946D01*
X309973Y323799D01*
X308452Y324904D01*
X307124Y326232D01*
X306019Y327753D01*
X305166Y329427D01*
X304585Y331214D01*
X304291Y333070D01*
X304291Y333249D01*
X315469Y333249D01*
X315469Y322071D01*
X315290Y322071D01*
G37*
%LPD*%
%LPC*%
G36*
X315290Y271271D02*
X315290Y271271D01*
X313434Y271565D01*
X311647Y272146D01*
X309973Y272999D01*
X308452Y274104D01*
X307124Y275432D01*
X306019Y276953D01*
X305166Y278627D01*
X304585Y280414D01*
X304291Y282270D01*
X304291Y282449D01*
X315469Y282449D01*
X315469Y271271D01*
X315290Y271271D01*
G37*
%LPD*%
%LPC*%
G36*
X315290Y17271D02*
X315290Y17271D01*
X313434Y17565D01*
X311647Y18146D01*
X309973Y18999D01*
X308452Y20104D01*
X307124Y21432D01*
X306019Y22953D01*
X305166Y24627D01*
X304585Y26414D01*
X304291Y28270D01*
X304291Y28449D01*
X315469Y28449D01*
X315469Y17271D01*
X315290Y17271D01*
G37*
%LPD*%
%LPC*%
G36*
X236981Y310641D02*
X236981Y310641D01*
X236981Y316321D01*
X245555Y316321D01*
X246201Y316148D01*
X246780Y315813D01*
X247253Y315340D01*
X247588Y314761D01*
X247761Y314115D01*
X247761Y310641D01*
X236981Y310641D01*
G37*
%LPD*%
%LPC*%
G36*
X236981Y336041D02*
X236981Y336041D01*
X236981Y341721D01*
X245555Y341721D01*
X246201Y341548D01*
X246780Y341213D01*
X247253Y340740D01*
X247588Y340161D01*
X247761Y339515D01*
X247761Y336041D01*
X236981Y336041D01*
G37*
%LPD*%
%LPC*%
G36*
X94741Y178561D02*
X94741Y178561D01*
X94741Y184241D01*
X103315Y184241D01*
X103961Y184068D01*
X104540Y183733D01*
X105013Y183260D01*
X105348Y182681D01*
X105521Y182035D01*
X105521Y178561D01*
X94741Y178561D01*
G37*
%LPD*%
%LPC*%
G36*
X236981Y165861D02*
X236981Y165861D01*
X236981Y171541D01*
X245555Y171541D01*
X246201Y171368D01*
X246780Y171033D01*
X247253Y170560D01*
X247588Y169981D01*
X247761Y169335D01*
X247761Y165861D01*
X236981Y165861D01*
G37*
%LPD*%
%LPC*%
G36*
X94741Y336041D02*
X94741Y336041D01*
X94741Y341721D01*
X103315Y341721D01*
X103961Y341548D01*
X104540Y341213D01*
X105013Y340740D01*
X105348Y340161D01*
X105521Y339515D01*
X105521Y336041D01*
X94741Y336041D01*
G37*
%LPD*%
%LPC*%
G36*
X224679Y310641D02*
X224679Y310641D01*
X224679Y314115D01*
X224852Y314761D01*
X225187Y315340D01*
X225660Y315813D01*
X226239Y316148D01*
X226885Y316321D01*
X235459Y316321D01*
X235459Y310641D01*
X224679Y310641D01*
G37*
%LPD*%
%LPC*%
G36*
X224679Y165861D02*
X224679Y165861D01*
X224679Y169335D01*
X224852Y169981D01*
X225187Y170560D01*
X225660Y171033D01*
X226239Y171368D01*
X226885Y171541D01*
X235459Y171541D01*
X235459Y165861D01*
X224679Y165861D01*
G37*
%LPD*%
%LPC*%
G36*
X82439Y336041D02*
X82439Y336041D01*
X82439Y339515D01*
X82612Y340161D01*
X82947Y340740D01*
X83420Y341213D01*
X83999Y341548D01*
X84645Y341721D01*
X93219Y341721D01*
X93219Y336041D01*
X82439Y336041D01*
G37*
%LPD*%
%LPC*%
G36*
X224679Y336041D02*
X224679Y336041D01*
X224679Y339515D01*
X224852Y340161D01*
X225187Y340740D01*
X225660Y341213D01*
X226239Y341548D01*
X226885Y341721D01*
X235459Y341721D01*
X235459Y336041D01*
X224679Y336041D01*
G37*
%LPD*%
%LPC*%
G36*
X236981Y328839D02*
X236981Y328839D01*
X236981Y334519D01*
X247761Y334519D01*
X247761Y331045D01*
X247588Y330399D01*
X247253Y329820D01*
X246780Y329347D01*
X246201Y329012D01*
X245555Y328839D01*
X236981Y328839D01*
G37*
%LPD*%
%LPC*%
G36*
X94741Y303439D02*
X94741Y303439D01*
X94741Y309119D01*
X105521Y309119D01*
X105521Y305645D01*
X105348Y304999D01*
X105013Y304420D01*
X104540Y303947D01*
X103961Y303612D01*
X103315Y303439D01*
X94741Y303439D01*
G37*
%LPD*%
%LPC*%
G36*
X94741Y158659D02*
X94741Y158659D01*
X94741Y164339D01*
X105521Y164339D01*
X105521Y160865D01*
X105348Y160219D01*
X105013Y159640D01*
X104540Y159167D01*
X103961Y158832D01*
X103315Y158659D01*
X94741Y158659D01*
G37*
%LPD*%
%LPC*%
G36*
X236981Y303439D02*
X236981Y303439D01*
X236981Y309119D01*
X247761Y309119D01*
X247761Y305645D01*
X247588Y304999D01*
X247253Y304420D01*
X246780Y303947D01*
X246201Y303612D01*
X245555Y303439D01*
X236981Y303439D01*
G37*
%LPD*%
%LPC*%
G36*
X236981Y158659D02*
X236981Y158659D01*
X236981Y164339D01*
X247761Y164339D01*
X247761Y160865D01*
X247588Y160219D01*
X247253Y159640D01*
X246780Y159167D01*
X246201Y158832D01*
X245555Y158659D01*
X236981Y158659D01*
G37*
%LPD*%
%LPC*%
G36*
X84645Y158659D02*
X84645Y158659D01*
X83999Y158832D01*
X83420Y159167D01*
X82947Y159640D01*
X82612Y160219D01*
X82595Y160285D01*
X82439Y160865D01*
X82439Y164339D01*
X93219Y164339D01*
X93219Y158659D01*
X84645Y158659D01*
G37*
%LPD*%
%LPC*%
G36*
X226885Y158659D02*
X226885Y158659D01*
X226239Y158832D01*
X225660Y159167D01*
X225187Y159640D01*
X224852Y160219D01*
X224835Y160285D01*
X224679Y160865D01*
X224679Y164339D01*
X235459Y164339D01*
X235459Y158659D01*
X226885Y158659D01*
G37*
%LPD*%
%LPC*%
G36*
X226885Y328839D02*
X226885Y328839D01*
X226239Y329012D01*
X225660Y329347D01*
X225187Y329820D01*
X224852Y330399D01*
X224679Y331045D01*
X224679Y334519D01*
X235459Y334519D01*
X235459Y328839D01*
X226885Y328839D01*
G37*
%LPD*%
%LPC*%
G36*
X226885Y303439D02*
X226885Y303439D01*
X226239Y303612D01*
X225660Y303947D01*
X225187Y304420D01*
X224852Y304999D01*
X224679Y305645D01*
X224679Y309119D01*
X235459Y309119D01*
X235459Y303439D01*
X226885Y303439D01*
G37*
%LPD*%
%LPC*%
G36*
X84645Y303439D02*
X84645Y303439D01*
X83999Y303612D01*
X83420Y303947D01*
X82947Y304420D01*
X82612Y304999D01*
X82439Y305645D01*
X82439Y309119D01*
X93219Y309119D01*
X93219Y303439D01*
X84645Y303439D01*
G37*
%LPD*%
G36*
X41579Y307860D02*
X41579Y307860D01*
X41630Y307862D01*
X41662Y307880D01*
X41698Y307888D01*
X41737Y307921D01*
X41782Y307945D01*
X41803Y307975D01*
X41831Y307998D01*
X41852Y308045D01*
X41882Y308087D01*
X41890Y308129D01*
X41902Y308157D01*
X41901Y308187D01*
X41909Y308229D01*
X41909Y308991D01*
X41898Y309041D01*
X41896Y309092D01*
X41878Y309124D01*
X41870Y309160D01*
X41837Y309199D01*
X41813Y309244D01*
X41783Y309265D01*
X41759Y309293D01*
X41713Y309314D01*
X41671Y309344D01*
X41629Y309352D01*
X41601Y309364D01*
X41571Y309363D01*
X41529Y309371D01*
X37211Y309371D01*
X37161Y309360D01*
X37110Y309358D01*
X37078Y309340D01*
X37042Y309332D01*
X37003Y309299D01*
X36958Y309275D01*
X36937Y309245D01*
X36909Y309221D01*
X36888Y309175D01*
X36859Y309133D01*
X36850Y309091D01*
X36838Y309063D01*
X36839Y309033D01*
X36831Y308991D01*
X36831Y308229D01*
X36843Y308179D01*
X36844Y308128D01*
X36862Y308096D01*
X36870Y308060D01*
X36903Y308021D01*
X36927Y307976D01*
X36957Y307955D01*
X36981Y307927D01*
X37027Y307906D01*
X37069Y307876D01*
X37111Y307868D01*
X37139Y307856D01*
X37169Y307857D01*
X37211Y307849D01*
X41529Y307849D01*
X41579Y307860D01*
G37*
G36*
X41579Y282460D02*
X41579Y282460D01*
X41630Y282462D01*
X41662Y282480D01*
X41698Y282488D01*
X41737Y282521D01*
X41782Y282545D01*
X41803Y282575D01*
X41831Y282598D01*
X41852Y282645D01*
X41882Y282687D01*
X41890Y282729D01*
X41902Y282757D01*
X41901Y282787D01*
X41909Y282829D01*
X41909Y283591D01*
X41898Y283641D01*
X41896Y283692D01*
X41878Y283724D01*
X41870Y283760D01*
X41837Y283799D01*
X41813Y283844D01*
X41783Y283865D01*
X41759Y283893D01*
X41713Y283914D01*
X41671Y283944D01*
X41629Y283952D01*
X41601Y283964D01*
X41571Y283963D01*
X41529Y283971D01*
X37211Y283971D01*
X37161Y283960D01*
X37110Y283958D01*
X37078Y283940D01*
X37042Y283932D01*
X37003Y283899D01*
X36958Y283875D01*
X36937Y283845D01*
X36909Y283821D01*
X36888Y283775D01*
X36859Y283733D01*
X36850Y283691D01*
X36838Y283663D01*
X36839Y283633D01*
X36831Y283591D01*
X36831Y282829D01*
X36843Y282779D01*
X36844Y282728D01*
X36862Y282696D01*
X36870Y282660D01*
X36903Y282621D01*
X36927Y282576D01*
X36957Y282555D01*
X36981Y282527D01*
X37027Y282506D01*
X37069Y282476D01*
X37111Y282468D01*
X37139Y282456D01*
X37169Y282457D01*
X37211Y282449D01*
X41529Y282449D01*
X41579Y282460D01*
G37*
G36*
X290499Y282460D02*
X290499Y282460D01*
X290550Y282462D01*
X290582Y282480D01*
X290618Y282488D01*
X290657Y282521D01*
X290702Y282545D01*
X290723Y282575D01*
X290751Y282598D01*
X290772Y282645D01*
X290801Y282687D01*
X290810Y282729D01*
X290822Y282757D01*
X290821Y282787D01*
X290829Y282829D01*
X290829Y283591D01*
X290817Y283641D01*
X290816Y283692D01*
X290798Y283724D01*
X290790Y283760D01*
X290757Y283799D01*
X290733Y283844D01*
X290703Y283865D01*
X290679Y283893D01*
X290633Y283914D01*
X290591Y283944D01*
X290549Y283952D01*
X290521Y283964D01*
X290491Y283963D01*
X290449Y283971D01*
X286131Y283971D01*
X286081Y283960D01*
X286030Y283958D01*
X285998Y283940D01*
X285962Y283932D01*
X285923Y283899D01*
X285878Y283875D01*
X285857Y283845D01*
X285829Y283821D01*
X285808Y283775D01*
X285778Y283733D01*
X285770Y283691D01*
X285758Y283663D01*
X285759Y283633D01*
X285751Y283591D01*
X285751Y282829D01*
X285762Y282779D01*
X285764Y282728D01*
X285782Y282696D01*
X285790Y282660D01*
X285823Y282621D01*
X285847Y282576D01*
X285877Y282555D01*
X285901Y282527D01*
X285947Y282506D01*
X285989Y282476D01*
X286031Y282468D01*
X286059Y282456D01*
X286089Y282457D01*
X286131Y282449D01*
X290449Y282449D01*
X290499Y282460D01*
G37*
G36*
X41579Y333260D02*
X41579Y333260D01*
X41630Y333262D01*
X41662Y333280D01*
X41698Y333288D01*
X41737Y333321D01*
X41782Y333345D01*
X41803Y333375D01*
X41831Y333398D01*
X41852Y333445D01*
X41882Y333487D01*
X41890Y333529D01*
X41902Y333557D01*
X41901Y333587D01*
X41909Y333629D01*
X41909Y334391D01*
X41898Y334441D01*
X41896Y334492D01*
X41878Y334524D01*
X41870Y334560D01*
X41837Y334599D01*
X41813Y334644D01*
X41783Y334665D01*
X41759Y334693D01*
X41713Y334714D01*
X41671Y334744D01*
X41629Y334752D01*
X41601Y334764D01*
X41571Y334763D01*
X41529Y334771D01*
X37211Y334771D01*
X37161Y334760D01*
X37110Y334758D01*
X37078Y334740D01*
X37042Y334732D01*
X37003Y334699D01*
X36958Y334675D01*
X36937Y334645D01*
X36909Y334621D01*
X36888Y334575D01*
X36859Y334533D01*
X36850Y334491D01*
X36838Y334463D01*
X36839Y334433D01*
X36831Y334391D01*
X36831Y333629D01*
X36843Y333579D01*
X36844Y333528D01*
X36862Y333496D01*
X36870Y333460D01*
X36903Y333421D01*
X36927Y333376D01*
X36957Y333355D01*
X36981Y333327D01*
X37027Y333306D01*
X37069Y333276D01*
X37111Y333268D01*
X37139Y333256D01*
X37169Y333257D01*
X37211Y333249D01*
X41529Y333249D01*
X41579Y333260D01*
G37*
G36*
X290499Y333260D02*
X290499Y333260D01*
X290550Y333262D01*
X290582Y333280D01*
X290618Y333288D01*
X290657Y333321D01*
X290702Y333345D01*
X290723Y333375D01*
X290751Y333398D01*
X290772Y333445D01*
X290801Y333487D01*
X290810Y333529D01*
X290822Y333557D01*
X290821Y333587D01*
X290829Y333629D01*
X290829Y334391D01*
X290817Y334441D01*
X290816Y334492D01*
X290798Y334524D01*
X290790Y334560D01*
X290757Y334599D01*
X290733Y334644D01*
X290703Y334665D01*
X290679Y334693D01*
X290633Y334714D01*
X290591Y334744D01*
X290549Y334752D01*
X290521Y334764D01*
X290491Y334763D01*
X290449Y334771D01*
X286131Y334771D01*
X286081Y334760D01*
X286030Y334758D01*
X285998Y334740D01*
X285962Y334732D01*
X285923Y334699D01*
X285878Y334675D01*
X285857Y334645D01*
X285829Y334621D01*
X285808Y334575D01*
X285778Y334533D01*
X285770Y334491D01*
X285758Y334463D01*
X285759Y334433D01*
X285751Y334391D01*
X285751Y333629D01*
X285762Y333579D01*
X285764Y333528D01*
X285782Y333496D01*
X285790Y333460D01*
X285823Y333421D01*
X285847Y333376D01*
X285877Y333355D01*
X285901Y333327D01*
X285947Y333306D01*
X285989Y333276D01*
X286031Y333268D01*
X286059Y333256D01*
X286089Y333257D01*
X286131Y333249D01*
X290449Y333249D01*
X290499Y333260D01*
G37*
G36*
X41579Y28460D02*
X41579Y28460D01*
X41630Y28462D01*
X41662Y28480D01*
X41698Y28488D01*
X41737Y28521D01*
X41782Y28545D01*
X41803Y28575D01*
X41831Y28598D01*
X41852Y28645D01*
X41882Y28687D01*
X41890Y28729D01*
X41902Y28757D01*
X41901Y28787D01*
X41909Y28829D01*
X41909Y29591D01*
X41898Y29641D01*
X41896Y29692D01*
X41878Y29724D01*
X41870Y29760D01*
X41837Y29799D01*
X41813Y29844D01*
X41783Y29865D01*
X41759Y29893D01*
X41713Y29914D01*
X41671Y29944D01*
X41629Y29952D01*
X41601Y29964D01*
X41571Y29963D01*
X41529Y29971D01*
X37211Y29971D01*
X37161Y29960D01*
X37110Y29958D01*
X37078Y29940D01*
X37042Y29932D01*
X37003Y29899D01*
X36958Y29875D01*
X36937Y29845D01*
X36909Y29821D01*
X36888Y29775D01*
X36859Y29733D01*
X36850Y29691D01*
X36838Y29663D01*
X36839Y29633D01*
X36831Y29591D01*
X36831Y28829D01*
X36843Y28779D01*
X36844Y28728D01*
X36862Y28696D01*
X36870Y28660D01*
X36903Y28621D01*
X36927Y28576D01*
X36957Y28555D01*
X36981Y28527D01*
X37027Y28506D01*
X37069Y28476D01*
X37111Y28468D01*
X37139Y28456D01*
X37169Y28457D01*
X37211Y28449D01*
X41529Y28449D01*
X41579Y28460D01*
G37*
G36*
X290499Y28460D02*
X290499Y28460D01*
X290550Y28462D01*
X290582Y28480D01*
X290618Y28488D01*
X290657Y28521D01*
X290702Y28545D01*
X290723Y28575D01*
X290751Y28598D01*
X290772Y28645D01*
X290801Y28687D01*
X290810Y28729D01*
X290822Y28757D01*
X290821Y28787D01*
X290829Y28829D01*
X290829Y29591D01*
X290817Y29641D01*
X290816Y29692D01*
X290798Y29724D01*
X290790Y29760D01*
X290757Y29799D01*
X290733Y29844D01*
X290703Y29865D01*
X290679Y29893D01*
X290633Y29914D01*
X290591Y29944D01*
X290549Y29952D01*
X290521Y29964D01*
X290491Y29963D01*
X290449Y29971D01*
X286131Y29971D01*
X286081Y29960D01*
X286030Y29958D01*
X285998Y29940D01*
X285962Y29932D01*
X285923Y29899D01*
X285878Y29875D01*
X285857Y29845D01*
X285829Y29821D01*
X285808Y29775D01*
X285778Y29733D01*
X285770Y29691D01*
X285758Y29663D01*
X285759Y29633D01*
X285751Y29591D01*
X285751Y28829D01*
X285762Y28779D01*
X285764Y28728D01*
X285782Y28696D01*
X285790Y28660D01*
X285823Y28621D01*
X285847Y28576D01*
X285877Y28555D01*
X285901Y28527D01*
X285947Y28506D01*
X285989Y28476D01*
X286031Y28468D01*
X286059Y28456D01*
X286089Y28457D01*
X286131Y28449D01*
X290449Y28449D01*
X290499Y28460D01*
G37*
%LPC*%
G36*
X93979Y309879D02*
X93979Y309879D01*
X93979Y309881D01*
X93981Y309881D01*
X93981Y309879D01*
X93979Y309879D01*
G37*
%LPD*%
%LPC*%
G36*
X236219Y309879D02*
X236219Y309879D01*
X236219Y309881D01*
X236221Y309881D01*
X236221Y309879D01*
X236219Y309879D01*
G37*
%LPD*%
%LPC*%
G36*
X93979Y322579D02*
X93979Y322579D01*
X93979Y322581D01*
X93981Y322581D01*
X93981Y322579D01*
X93979Y322579D01*
G37*
%LPD*%
%LPC*%
G36*
X93979Y177799D02*
X93979Y177799D01*
X93979Y177801D01*
X93981Y177801D01*
X93981Y177799D01*
X93979Y177799D01*
G37*
%LPD*%
%LPC*%
G36*
X236219Y165099D02*
X236219Y165099D01*
X236219Y165101D01*
X236221Y165101D01*
X236221Y165099D01*
X236219Y165099D01*
G37*
%LPD*%
%LPC*%
G36*
X93979Y165099D02*
X93979Y165099D01*
X93979Y165101D01*
X93981Y165101D01*
X93981Y165099D01*
X93979Y165099D01*
G37*
%LPD*%
%LPC*%
G36*
X236219Y335279D02*
X236219Y335279D01*
X236219Y335281D01*
X236221Y335281D01*
X236221Y335279D01*
X236219Y335279D01*
G37*
%LPD*%
%LPC*%
G36*
X93979Y335279D02*
X93979Y335279D01*
X93979Y335281D01*
X93981Y335281D01*
X93981Y335279D01*
X93979Y335279D01*
G37*
%LPD*%
D10*
X41910Y334010D03*
X41910Y308610D03*
X41910Y283210D03*
X41910Y207010D03*
X41910Y181610D03*
X41910Y156210D03*
X41910Y130810D03*
X41910Y105410D03*
X41910Y80010D03*
X41910Y54610D03*
X41910Y29210D03*
X285750Y29210D03*
X285750Y54610D03*
X285750Y80010D03*
X285750Y105410D03*
X285750Y130810D03*
X285750Y156210D03*
X285750Y181610D03*
X285750Y207010D03*
X285750Y283210D03*
X285750Y308610D03*
X285750Y334010D03*
D11*
X11430Y29210D03*
X11430Y54610D03*
X11430Y80010D03*
X11430Y105410D03*
X11430Y130810D03*
X11430Y156210D03*
X11430Y181610D03*
X11430Y207010D03*
X11430Y232410D03*
X11430Y257810D03*
X11430Y283210D03*
X11430Y308610D03*
X11430Y334010D03*
X316230Y334010D03*
X316230Y308610D03*
X316230Y283210D03*
X316230Y257810D03*
X316230Y232410D03*
X316230Y207010D03*
X316230Y181610D03*
X316230Y156210D03*
X316230Y130810D03*
X316230Y105410D03*
X316230Y80010D03*
X316230Y54610D03*
X316230Y29210D03*
D12*
X93980Y335280D03*
X93980Y322580D03*
X93980Y309880D03*
X93980Y254000D03*
X93980Y241300D03*
X93980Y228600D03*
X93980Y215900D03*
X93980Y203200D03*
X93980Y190500D03*
X93980Y177800D03*
X93980Y165100D03*
X236220Y165100D03*
X236220Y177800D03*
X236220Y190500D03*
X236220Y203200D03*
X236220Y215900D03*
X236220Y228600D03*
X236220Y241300D03*
X236220Y254000D03*
X236220Y309880D03*
X236220Y322580D03*
X236220Y335280D03*
D11*
X36830Y29210D03*
X36830Y54610D03*
X36830Y80010D03*
X36830Y105410D03*
X36830Y130810D03*
X36830Y156210D03*
X36830Y181610D03*
X36830Y207010D03*
X36830Y232410D03*
X36830Y257810D03*
X36830Y283210D03*
X36830Y308610D03*
X36830Y334010D03*
X290830Y334010D03*
X290830Y308610D03*
X290830Y283210D03*
X290830Y257810D03*
X290830Y232410D03*
X290830Y207010D03*
X290830Y181610D03*
X290830Y156210D03*
X290830Y130810D03*
X290830Y105410D03*
X290830Y80010D03*
X290830Y54610D03*
X290830Y29210D03*
D13*
X41910Y207010D02*
X11430Y207010D01*
X77470Y254000D02*
X93980Y254000D01*
X41910Y218440D02*
X41910Y207010D01*
X41910Y218440D02*
X77470Y254000D01*
X41910Y181610D02*
X11430Y181610D01*
X81280Y241300D02*
X93980Y241300D01*
X81280Y241300D02*
X55880Y215900D01*
X55880Y185420D01*
X52070Y181610D01*
X41910Y181610D01*
X36830Y156210D02*
X11430Y156210D01*
X82804Y228600D02*
X93980Y228600D01*
X82804Y228600D02*
X59944Y205740D01*
X59944Y164084D01*
X52070Y156210D01*
X41910Y156210D01*
X36830Y156210D01*
X83058Y215900D02*
X93980Y215900D01*
X83058Y215900D02*
X64008Y196850D01*
X64008Y137668D01*
X57150Y130810D01*
X41910Y130810D01*
X36830Y130810D02*
X11430Y130810D01*
X36830Y130810D02*
X41910Y130810D01*
X84582Y203200D02*
X93980Y203200D01*
X84582Y203200D02*
X68072Y186690D01*
X68072Y135985D01*
X60960Y128873D02*
X60960Y110490D01*
X60960Y128873D02*
X68072Y135985D01*
X60960Y110490D02*
X55880Y105410D01*
X41910Y105410D02*
X11430Y105410D01*
X41910Y105410D02*
X44450Y105410D01*
X55880Y105410D01*
X41910Y105410D02*
X36830Y105410D01*
D14*
X34290Y80010D02*
X11430Y80010D01*
X41910Y80010D02*
X66040Y104140D01*
X66040Y127128D02*
X72898Y133986D01*
X72898Y178308D01*
X85090Y190500D02*
X93980Y190500D01*
X66040Y127128D02*
X66040Y104140D01*
X72898Y178308D02*
X85090Y190500D01*
D13*
X41910Y80010D02*
X36830Y80010D01*
X34290Y80010D02*
X41910Y80010D01*
D14*
X38100Y54610D02*
X11430Y54610D01*
D13*
X38100Y54610D02*
X41910Y54610D01*
X36830Y54610D01*
X236220Y177800D02*
X246380Y177800D01*
X252730Y171450D01*
X252730Y115505D01*
X262890Y105345D01*
X262890Y62230D02*
X271780Y53340D01*
X285750Y53340D01*
X287020Y54610D01*
X262890Y62230D02*
X262890Y105345D01*
X290830Y54610D02*
X316230Y54610D01*
X290830Y54610D02*
X287020Y54610D01*
X285750Y54610D01*
X289560Y54610D01*
X290830Y54610D02*
X285750Y54610D01*
X285750Y80010D02*
X288290Y80010D01*
X290830Y80010D02*
X316230Y80010D01*
X246634Y190500D02*
X236220Y190500D01*
X246634Y190500D02*
X256794Y180340D01*
X270510Y103473D02*
X270510Y85090D01*
X256794Y117189D02*
X256794Y180340D01*
X256794Y117189D02*
X270510Y103473D01*
X270510Y85090D02*
X275590Y80010D01*
X285750Y80010D01*
X288290Y80010D02*
X290830Y80010D01*
X248158Y203200D02*
X236220Y203200D01*
X248158Y203200D02*
X260858Y190500D01*
X260858Y118872D01*
X274320Y105410D01*
X285750Y105410D01*
X290830Y105410D02*
X316230Y105410D01*
X290830Y105410D02*
X285750Y105410D01*
X248412Y215900D02*
X236220Y215900D01*
X248412Y215900D02*
X264922Y199390D01*
X264922Y144018D01*
X278130Y130810D01*
X285750Y130810D01*
X290830Y130810D02*
X316230Y130810D01*
X290830Y130810D02*
X285750Y130810D01*
X247396Y228600D02*
X236220Y228600D01*
X247396Y228600D02*
X268986Y207010D01*
X268986Y164084D01*
X276860Y156210D01*
X285750Y156210D01*
X290830Y156210D02*
X316230Y156210D01*
X290830Y156210D02*
X285750Y156210D01*
X248920Y241300D02*
X236220Y241300D01*
X273050Y217170D02*
X273050Y184150D01*
X275590Y181610D01*
X285750Y181610D01*
X273050Y217170D02*
X248920Y241300D01*
X290830Y181610D02*
X316230Y181610D01*
X290830Y181610D02*
X285750Y181610D01*
X248920Y254000D02*
X236220Y254000D01*
X248920Y254000D02*
X281940Y220980D01*
X281940Y210820D01*
X285750Y207010D01*
X290830Y207010D01*
X285750Y207010D02*
X316230Y207010D01*
X41910Y334010D02*
X11430Y334010D01*
X92710Y334010D02*
X93980Y335280D01*
X92710Y334010D02*
X41910Y334010D01*
X41910Y308610D02*
X11430Y308610D01*
X72390Y322580D02*
X93980Y322580D01*
X72390Y322580D02*
X58420Y308610D01*
X41910Y308610D01*
X41910Y283210D02*
X11430Y283210D01*
X81280Y309880D02*
X93980Y309880D01*
X54610Y283210D02*
X41910Y283210D01*
X54610Y283210D02*
X81280Y309880D01*
X39370Y29210D02*
X11430Y29210D01*
X39370Y29210D02*
X41910Y29210D01*
X92710Y163830D02*
X93980Y165100D01*
X39370Y29210D02*
X40640Y27940D01*
D14*
X93980Y165100D02*
X93980Y177800D01*
D13*
X93980Y165100D02*
X81280Y165100D01*
X77724Y161544D01*
X77724Y131987D02*
X70866Y125129D01*
X70866Y102141D01*
X59690Y90965D01*
X59690Y34290D02*
X53340Y27940D01*
X43180Y27940D01*
X41910Y29210D01*
X77724Y131987D02*
X77724Y161544D01*
X59690Y90965D02*
X59690Y34290D01*
X285750Y334010D02*
X316230Y334010D01*
X284480Y335280D02*
X236220Y335280D01*
X284480Y335280D02*
X285750Y334010D01*
X285750Y283210D02*
X316230Y283210D01*
X247650Y309880D02*
X236220Y309880D01*
X247650Y309880D02*
X274320Y283210D01*
X285750Y283210D01*
X285750Y29210D02*
X287020Y29210D01*
X316230Y29210D01*
X238760Y162560D02*
X236220Y165100D01*
X238760Y162560D02*
X238760Y153670D01*
X248666Y113822D02*
X258826Y103662D01*
X258826Y40894D02*
X273050Y26670D01*
X284480Y26670D01*
X287020Y29210D01*
X248666Y143764D02*
X238760Y153670D01*
X248666Y143764D02*
X248666Y113822D01*
X258826Y103662D02*
X258826Y40894D01*
D15*
X6350Y6350D03*
X19050Y6350D03*
X31750Y6350D03*
X44450Y6350D03*
X57150Y6350D03*
X69850Y6350D03*
X82550Y6350D03*
X95250Y6350D03*
X107950Y6350D03*
X120650Y6350D03*
X133350Y6350D03*
X146050Y6350D03*
X158750Y6350D03*
X171450Y6350D03*
X184150Y6350D03*
X196850Y6350D03*
X209550Y6350D03*
X222250Y6350D03*
X234950Y6350D03*
X247650Y6350D03*
X260350Y6350D03*
X273050Y6350D03*
X285750Y6350D03*
X298450Y6350D03*
X311150Y6350D03*
X6350Y381000D03*
X19050Y381000D03*
X31750Y381000D03*
X44450Y381000D03*
X57150Y381000D03*
X69850Y381000D03*
X82550Y381000D03*
X95250Y381000D03*
X107950Y381000D03*
X120650Y381000D03*
X133350Y381000D03*
X146050Y381000D03*
X158750Y381000D03*
X171450Y381000D03*
X184150Y381000D03*
X196850Y381000D03*
X209550Y381000D03*
X222250Y381000D03*
X234950Y381000D03*
X247650Y381000D03*
X260350Y381000D03*
X273050Y381000D03*
X285750Y381000D03*
X298450Y381000D03*
X311150Y381000D03*
X6350Y368300D03*
X6350Y355600D03*
X317500Y368300D03*
X317500Y355600D03*
X69850Y25400D03*
X69850Y50800D03*
X69850Y76200D03*
X101600Y25400D03*
X101600Y50800D03*
X101600Y76200D03*
X101600Y107950D03*
X101600Y139700D03*
X139700Y25400D03*
X139700Y50800D03*
X139700Y76200D03*
X139700Y107950D03*
X139700Y139700D03*
X177800Y25400D03*
X177800Y50800D03*
X177800Y76200D03*
X177800Y107950D03*
X177800Y139700D03*
X215900Y25400D03*
X215900Y50800D03*
X215900Y76200D03*
X215900Y107950D03*
X215900Y139700D03*
X254000Y25400D03*
X254000Y50800D03*
X139700Y177800D03*
X139700Y215900D03*
X139700Y254000D03*
X139700Y298450D03*
X139700Y342900D03*
X177800Y177800D03*
X177800Y215900D03*
X177800Y254000D03*
X177800Y298450D03*
X177800Y342900D03*
X63500Y254000D03*
X63500Y298450D03*
X63500Y342900D03*
X215900Y298450D03*
X215900Y254000D03*
X215900Y215900D03*
X215900Y177800D03*
M02*
