G04 EAGLE Gerber RS-274X export*
G75*
%MOMM*%
%FSLAX34Y34*%
%LPD*%
%INBottom Copper*%
%IPPOS*%
%AMOC8*
5,1,8,0,0,1.08239X$1,22.5*%
G01*
%ADD10C,1.879600*%
%ADD11C,0.706400*%

G36*
X325988Y2004D02*
X325988Y2004D01*
X326007Y2002D01*
X326109Y2024D01*
X326211Y2040D01*
X326228Y2050D01*
X326248Y2054D01*
X326337Y2107D01*
X326428Y2156D01*
X326442Y2170D01*
X326459Y2180D01*
X326526Y2259D01*
X326598Y2334D01*
X326606Y2352D01*
X326619Y2367D01*
X326658Y2463D01*
X326701Y2557D01*
X326703Y2577D01*
X326711Y2595D01*
X326729Y2762D01*
X326729Y21007D01*
X326728Y21015D01*
X326729Y21023D01*
X326708Y21136D01*
X326690Y21250D01*
X326686Y21257D01*
X326684Y21265D01*
X326628Y21365D01*
X326574Y21467D01*
X326569Y21472D01*
X326565Y21480D01*
X326479Y21557D01*
X326396Y21636D01*
X326389Y21640D01*
X326383Y21645D01*
X326278Y21691D01*
X326173Y21740D01*
X326165Y21741D01*
X326157Y21744D01*
X326043Y21754D01*
X325929Y21767D01*
X325921Y21765D01*
X325913Y21766D01*
X325801Y21739D01*
X325688Y21715D01*
X325681Y21711D01*
X325673Y21709D01*
X325576Y21648D01*
X325477Y21589D01*
X325472Y21582D01*
X325465Y21578D01*
X325352Y21454D01*
X325336Y21432D01*
X324008Y20104D01*
X322487Y18999D01*
X320813Y18146D01*
X319026Y17565D01*
X317753Y17364D01*
X317753Y28448D01*
X317750Y28468D01*
X317752Y28487D01*
X317730Y28589D01*
X317713Y28691D01*
X317704Y28708D01*
X317700Y28728D01*
X317647Y28817D01*
X317598Y28908D01*
X317584Y28922D01*
X317574Y28939D01*
X317495Y29006D01*
X317420Y29077D01*
X317402Y29086D01*
X317387Y29099D01*
X317291Y29137D01*
X317197Y29181D01*
X317177Y29183D01*
X317159Y29191D01*
X316992Y29209D01*
X316229Y29209D01*
X316229Y29211D01*
X316992Y29211D01*
X317012Y29214D01*
X317031Y29212D01*
X317133Y29234D01*
X317235Y29251D01*
X317252Y29260D01*
X317272Y29264D01*
X317361Y29317D01*
X317452Y29366D01*
X317466Y29380D01*
X317483Y29390D01*
X317550Y29469D01*
X317621Y29544D01*
X317630Y29562D01*
X317643Y29577D01*
X317682Y29673D01*
X317725Y29767D01*
X317727Y29787D01*
X317735Y29805D01*
X317753Y29972D01*
X317753Y41056D01*
X319026Y40855D01*
X320813Y40274D01*
X322487Y39421D01*
X324008Y38316D01*
X325336Y36988D01*
X325352Y36966D01*
X325358Y36960D01*
X325362Y36953D01*
X325445Y36874D01*
X325527Y36793D01*
X325534Y36789D01*
X325540Y36784D01*
X325644Y36735D01*
X325748Y36685D01*
X325756Y36684D01*
X325763Y36680D01*
X325878Y36667D01*
X325991Y36652D01*
X325999Y36654D01*
X326007Y36653D01*
X326120Y36677D01*
X326233Y36700D01*
X326240Y36704D01*
X326248Y36705D01*
X326346Y36764D01*
X326447Y36821D01*
X326452Y36827D01*
X326459Y36831D01*
X326534Y36919D01*
X326610Y37005D01*
X326614Y37012D01*
X326619Y37018D01*
X326662Y37125D01*
X326707Y37231D01*
X326708Y37239D01*
X326711Y37247D01*
X326729Y37413D01*
X326729Y47824D01*
X326718Y47895D01*
X326716Y47967D01*
X326698Y48016D01*
X326690Y48067D01*
X326656Y48130D01*
X326631Y48198D01*
X326599Y48238D01*
X326574Y48285D01*
X326522Y48334D01*
X326478Y48390D01*
X326434Y48418D01*
X326396Y48454D01*
X326331Y48484D01*
X326271Y48523D01*
X326220Y48536D01*
X326173Y48558D01*
X326102Y48565D01*
X326032Y48583D01*
X325980Y48579D01*
X325929Y48585D01*
X325858Y48569D01*
X325787Y48564D01*
X325739Y48543D01*
X325688Y48532D01*
X325627Y48496D01*
X325561Y48467D01*
X325505Y48423D01*
X325477Y48406D01*
X325462Y48388D01*
X325430Y48363D01*
X322417Y45350D01*
X318403Y43687D01*
X314057Y43687D01*
X310043Y45350D01*
X306970Y48423D01*
X305307Y52437D01*
X305307Y56783D01*
X306970Y60797D01*
X310043Y63870D01*
X314057Y65533D01*
X318403Y65533D01*
X322417Y63870D01*
X325430Y60857D01*
X325488Y60815D01*
X325540Y60766D01*
X325587Y60744D01*
X325629Y60714D01*
X325698Y60693D01*
X325763Y60662D01*
X325815Y60657D01*
X325865Y60641D01*
X325936Y60643D01*
X326007Y60635D01*
X326058Y60646D01*
X326110Y60648D01*
X326178Y60672D01*
X326248Y60688D01*
X326293Y60714D01*
X326341Y60732D01*
X326397Y60777D01*
X326459Y60814D01*
X326493Y60853D01*
X326533Y60886D01*
X326572Y60946D01*
X326619Y61001D01*
X326638Y61049D01*
X326666Y61093D01*
X326684Y61162D01*
X326711Y61229D01*
X326719Y61300D01*
X326727Y61331D01*
X326725Y61355D01*
X326729Y61396D01*
X326729Y73224D01*
X326718Y73295D01*
X326716Y73367D01*
X326698Y73416D01*
X326690Y73467D01*
X326656Y73530D01*
X326631Y73598D01*
X326599Y73638D01*
X326574Y73685D01*
X326522Y73734D01*
X326478Y73790D01*
X326434Y73818D01*
X326396Y73854D01*
X326331Y73884D01*
X326271Y73923D01*
X326220Y73936D01*
X326173Y73958D01*
X326102Y73965D01*
X326032Y73983D01*
X325980Y73979D01*
X325929Y73985D01*
X325858Y73969D01*
X325787Y73964D01*
X325739Y73943D01*
X325688Y73932D01*
X325627Y73896D01*
X325561Y73867D01*
X325505Y73823D01*
X325477Y73806D01*
X325462Y73788D01*
X325430Y73763D01*
X322417Y70750D01*
X318403Y69087D01*
X314057Y69087D01*
X310043Y70750D01*
X306970Y73823D01*
X305307Y77837D01*
X305307Y82183D01*
X306970Y86197D01*
X310043Y89270D01*
X314057Y90933D01*
X318403Y90933D01*
X322417Y89270D01*
X325430Y86257D01*
X325488Y86215D01*
X325540Y86166D01*
X325587Y86144D01*
X325629Y86114D01*
X325698Y86093D01*
X325763Y86062D01*
X325815Y86057D01*
X325865Y86041D01*
X325936Y86043D01*
X326007Y86035D01*
X326058Y86046D01*
X326110Y86048D01*
X326178Y86072D01*
X326248Y86088D01*
X326293Y86114D01*
X326341Y86132D01*
X326397Y86177D01*
X326459Y86214D01*
X326493Y86253D01*
X326533Y86286D01*
X326572Y86346D01*
X326619Y86401D01*
X326638Y86449D01*
X326666Y86493D01*
X326684Y86562D01*
X326711Y86629D01*
X326719Y86700D01*
X326727Y86731D01*
X326725Y86755D01*
X326729Y86796D01*
X326729Y98624D01*
X326718Y98695D01*
X326716Y98767D01*
X326698Y98816D01*
X326690Y98867D01*
X326656Y98930D01*
X326631Y98998D01*
X326599Y99038D01*
X326574Y99085D01*
X326522Y99134D01*
X326478Y99190D01*
X326434Y99218D01*
X326396Y99254D01*
X326331Y99284D01*
X326271Y99323D01*
X326220Y99336D01*
X326173Y99358D01*
X326102Y99365D01*
X326032Y99383D01*
X325980Y99379D01*
X325929Y99385D01*
X325858Y99369D01*
X325787Y99364D01*
X325739Y99343D01*
X325688Y99332D01*
X325627Y99296D01*
X325561Y99267D01*
X325505Y99223D01*
X325477Y99206D01*
X325462Y99188D01*
X325430Y99163D01*
X322417Y96150D01*
X318403Y94487D01*
X314057Y94487D01*
X310043Y96150D01*
X306970Y99223D01*
X305307Y103237D01*
X305307Y107583D01*
X306970Y111597D01*
X310043Y114670D01*
X314057Y116333D01*
X318403Y116333D01*
X322417Y114670D01*
X325430Y111657D01*
X325488Y111615D01*
X325540Y111566D01*
X325587Y111544D01*
X325629Y111514D01*
X325698Y111493D01*
X325763Y111462D01*
X325815Y111457D01*
X325865Y111441D01*
X325936Y111443D01*
X326007Y111435D01*
X326058Y111446D01*
X326110Y111448D01*
X326178Y111472D01*
X326248Y111488D01*
X326293Y111514D01*
X326341Y111532D01*
X326397Y111577D01*
X326459Y111614D01*
X326493Y111653D01*
X326533Y111686D01*
X326572Y111746D01*
X326619Y111801D01*
X326638Y111849D01*
X326666Y111893D01*
X326684Y111962D01*
X326711Y112029D01*
X326719Y112100D01*
X326727Y112131D01*
X326725Y112155D01*
X326729Y112196D01*
X326729Y124024D01*
X326718Y124095D01*
X326716Y124167D01*
X326698Y124216D01*
X326690Y124267D01*
X326656Y124330D01*
X326631Y124398D01*
X326599Y124438D01*
X326574Y124485D01*
X326522Y124534D01*
X326478Y124590D01*
X326434Y124618D01*
X326396Y124654D01*
X326331Y124684D01*
X326271Y124723D01*
X326220Y124736D01*
X326173Y124758D01*
X326102Y124765D01*
X326032Y124783D01*
X325980Y124779D01*
X325929Y124785D01*
X325858Y124769D01*
X325787Y124764D01*
X325739Y124743D01*
X325688Y124732D01*
X325627Y124696D01*
X325561Y124667D01*
X325505Y124623D01*
X325477Y124606D01*
X325462Y124588D01*
X325430Y124563D01*
X322417Y121550D01*
X318403Y119887D01*
X314057Y119887D01*
X310043Y121550D01*
X306970Y124623D01*
X305307Y128637D01*
X305307Y132983D01*
X306970Y136997D01*
X310043Y140070D01*
X314057Y141733D01*
X318403Y141733D01*
X322417Y140070D01*
X325430Y137057D01*
X325488Y137015D01*
X325540Y136966D01*
X325587Y136944D01*
X325629Y136914D01*
X325698Y136893D01*
X325763Y136862D01*
X325815Y136857D01*
X325865Y136841D01*
X325936Y136843D01*
X326007Y136835D01*
X326058Y136846D01*
X326110Y136848D01*
X326178Y136872D01*
X326248Y136888D01*
X326293Y136914D01*
X326341Y136932D01*
X326397Y136977D01*
X326459Y137014D01*
X326493Y137053D01*
X326533Y137086D01*
X326572Y137146D01*
X326619Y137201D01*
X326638Y137249D01*
X326666Y137293D01*
X326684Y137362D01*
X326711Y137429D01*
X326719Y137500D01*
X326727Y137531D01*
X326725Y137555D01*
X326729Y137596D01*
X326729Y149424D01*
X326718Y149495D01*
X326716Y149567D01*
X326698Y149616D01*
X326690Y149667D01*
X326656Y149730D01*
X326631Y149798D01*
X326599Y149838D01*
X326574Y149885D01*
X326522Y149934D01*
X326478Y149990D01*
X326434Y150018D01*
X326396Y150054D01*
X326331Y150084D01*
X326271Y150123D01*
X326220Y150136D01*
X326173Y150158D01*
X326102Y150165D01*
X326032Y150183D01*
X325980Y150179D01*
X325929Y150185D01*
X325858Y150169D01*
X325787Y150164D01*
X325739Y150143D01*
X325688Y150132D01*
X325627Y150096D01*
X325561Y150067D01*
X325505Y150023D01*
X325477Y150006D01*
X325462Y149988D01*
X325430Y149963D01*
X322417Y146950D01*
X318403Y145287D01*
X314057Y145287D01*
X310043Y146950D01*
X306970Y150023D01*
X305307Y154037D01*
X305307Y158383D01*
X306970Y162397D01*
X310043Y165470D01*
X314057Y167133D01*
X318403Y167133D01*
X322417Y165470D01*
X325430Y162457D01*
X325488Y162415D01*
X325540Y162366D01*
X325587Y162344D01*
X325629Y162314D01*
X325698Y162293D01*
X325763Y162262D01*
X325815Y162257D01*
X325865Y162241D01*
X325936Y162243D01*
X326007Y162235D01*
X326058Y162246D01*
X326110Y162248D01*
X326178Y162272D01*
X326248Y162288D01*
X326293Y162314D01*
X326341Y162332D01*
X326397Y162377D01*
X326459Y162414D01*
X326493Y162453D01*
X326533Y162486D01*
X326572Y162546D01*
X326619Y162601D01*
X326638Y162649D01*
X326666Y162693D01*
X326684Y162762D01*
X326711Y162829D01*
X326719Y162900D01*
X326727Y162931D01*
X326725Y162955D01*
X326729Y162996D01*
X326729Y174824D01*
X326727Y174836D01*
X326728Y174844D01*
X326719Y174884D01*
X326718Y174895D01*
X326716Y174967D01*
X326698Y175016D01*
X326690Y175067D01*
X326656Y175130D01*
X326631Y175198D01*
X326599Y175238D01*
X326574Y175285D01*
X326522Y175334D01*
X326478Y175390D01*
X326434Y175418D01*
X326396Y175454D01*
X326331Y175484D01*
X326271Y175523D01*
X326220Y175536D01*
X326173Y175558D01*
X326102Y175565D01*
X326032Y175583D01*
X325980Y175579D01*
X325929Y175585D01*
X325858Y175569D01*
X325787Y175564D01*
X325739Y175543D01*
X325688Y175532D01*
X325627Y175496D01*
X325561Y175467D01*
X325505Y175423D01*
X325477Y175406D01*
X325462Y175388D01*
X325430Y175363D01*
X322417Y172350D01*
X318403Y170687D01*
X314057Y170687D01*
X310043Y172350D01*
X306970Y175423D01*
X305307Y179437D01*
X305307Y183783D01*
X306970Y187797D01*
X310043Y190870D01*
X314057Y192533D01*
X318403Y192533D01*
X322417Y190870D01*
X325430Y187857D01*
X325488Y187815D01*
X325540Y187766D01*
X325587Y187744D01*
X325629Y187714D01*
X325698Y187693D01*
X325763Y187662D01*
X325815Y187657D01*
X325865Y187641D01*
X325936Y187643D01*
X326007Y187635D01*
X326058Y187646D01*
X326110Y187648D01*
X326178Y187672D01*
X326248Y187688D01*
X326293Y187714D01*
X326341Y187732D01*
X326397Y187777D01*
X326459Y187814D01*
X326493Y187853D01*
X326533Y187886D01*
X326572Y187946D01*
X326619Y188001D01*
X326638Y188049D01*
X326666Y188093D01*
X326684Y188162D01*
X326711Y188229D01*
X326719Y188300D01*
X326727Y188331D01*
X326725Y188355D01*
X326729Y188396D01*
X326729Y200224D01*
X326718Y200295D01*
X326716Y200367D01*
X326698Y200416D01*
X326690Y200467D01*
X326656Y200530D01*
X326631Y200598D01*
X326599Y200638D01*
X326574Y200685D01*
X326522Y200734D01*
X326478Y200790D01*
X326434Y200818D01*
X326396Y200854D01*
X326331Y200884D01*
X326271Y200923D01*
X326220Y200936D01*
X326173Y200958D01*
X326102Y200965D01*
X326032Y200983D01*
X325980Y200979D01*
X325929Y200985D01*
X325858Y200969D01*
X325787Y200964D01*
X325739Y200943D01*
X325688Y200932D01*
X325627Y200896D01*
X325561Y200867D01*
X325505Y200823D01*
X325477Y200806D01*
X325462Y200788D01*
X325430Y200763D01*
X322417Y197750D01*
X318403Y196087D01*
X314057Y196087D01*
X310043Y197750D01*
X306970Y200823D01*
X305307Y204837D01*
X305307Y209183D01*
X306970Y213197D01*
X310043Y216270D01*
X314057Y217933D01*
X318403Y217933D01*
X322417Y216270D01*
X325430Y213257D01*
X325488Y213215D01*
X325540Y213166D01*
X325587Y213144D01*
X325629Y213114D01*
X325698Y213093D01*
X325763Y213062D01*
X325815Y213057D01*
X325865Y213041D01*
X325936Y213043D01*
X326007Y213035D01*
X326058Y213046D01*
X326110Y213048D01*
X326178Y213072D01*
X326248Y213088D01*
X326293Y213114D01*
X326341Y213132D01*
X326397Y213177D01*
X326459Y213214D01*
X326493Y213253D01*
X326533Y213286D01*
X326572Y213346D01*
X326619Y213401D01*
X326638Y213449D01*
X326666Y213493D01*
X326684Y213562D01*
X326711Y213629D01*
X326719Y213700D01*
X326727Y213731D01*
X326725Y213755D01*
X326729Y213796D01*
X326729Y225624D01*
X326718Y225695D01*
X326716Y225767D01*
X326698Y225816D01*
X326690Y225867D01*
X326656Y225930D01*
X326631Y225998D01*
X326599Y226038D01*
X326574Y226085D01*
X326522Y226134D01*
X326478Y226190D01*
X326434Y226218D01*
X326396Y226254D01*
X326331Y226284D01*
X326271Y226323D01*
X326220Y226336D01*
X326173Y226358D01*
X326102Y226365D01*
X326032Y226383D01*
X325980Y226379D01*
X325929Y226385D01*
X325858Y226369D01*
X325787Y226364D01*
X325739Y226343D01*
X325688Y226332D01*
X325627Y226296D01*
X325561Y226267D01*
X325505Y226223D01*
X325477Y226206D01*
X325462Y226188D01*
X325430Y226163D01*
X322417Y223150D01*
X318403Y221487D01*
X314057Y221487D01*
X310043Y223150D01*
X306970Y226223D01*
X305307Y230237D01*
X305307Y234583D01*
X306970Y238597D01*
X310043Y241670D01*
X314057Y243333D01*
X318403Y243333D01*
X322417Y241670D01*
X325430Y238657D01*
X325488Y238615D01*
X325540Y238566D01*
X325587Y238544D01*
X325629Y238514D01*
X325698Y238493D01*
X325763Y238462D01*
X325815Y238457D01*
X325865Y238441D01*
X325936Y238443D01*
X326007Y238435D01*
X326058Y238446D01*
X326110Y238448D01*
X326178Y238472D01*
X326248Y238488D01*
X326293Y238514D01*
X326341Y238532D01*
X326397Y238577D01*
X326459Y238614D01*
X326493Y238653D01*
X326533Y238686D01*
X326572Y238746D01*
X326619Y238801D01*
X326638Y238849D01*
X326666Y238893D01*
X326684Y238962D01*
X326711Y239029D01*
X326719Y239100D01*
X326727Y239131D01*
X326725Y239155D01*
X326729Y239196D01*
X326729Y251024D01*
X326718Y251095D01*
X326716Y251167D01*
X326698Y251216D01*
X326690Y251267D01*
X326656Y251330D01*
X326631Y251398D01*
X326599Y251438D01*
X326574Y251485D01*
X326522Y251534D01*
X326478Y251590D01*
X326434Y251618D01*
X326396Y251654D01*
X326331Y251684D01*
X326271Y251723D01*
X326220Y251736D01*
X326173Y251758D01*
X326102Y251765D01*
X326032Y251783D01*
X325980Y251779D01*
X325929Y251785D01*
X325858Y251769D01*
X325787Y251764D01*
X325739Y251743D01*
X325688Y251732D01*
X325627Y251696D01*
X325561Y251667D01*
X325505Y251623D01*
X325477Y251606D01*
X325462Y251588D01*
X325430Y251563D01*
X322417Y248550D01*
X318403Y246887D01*
X314057Y246887D01*
X310043Y248550D01*
X306970Y251623D01*
X305307Y255637D01*
X305307Y259983D01*
X306970Y263997D01*
X310043Y267070D01*
X314057Y268733D01*
X318403Y268733D01*
X322417Y267070D01*
X325430Y264057D01*
X325488Y264015D01*
X325540Y263966D01*
X325587Y263944D01*
X325629Y263914D01*
X325698Y263893D01*
X325763Y263862D01*
X325815Y263857D01*
X325865Y263841D01*
X325936Y263843D01*
X326007Y263835D01*
X326058Y263846D01*
X326110Y263848D01*
X326178Y263872D01*
X326248Y263888D01*
X326293Y263914D01*
X326341Y263932D01*
X326397Y263977D01*
X326459Y264014D01*
X326493Y264053D01*
X326533Y264086D01*
X326572Y264146D01*
X326619Y264201D01*
X326638Y264249D01*
X326666Y264293D01*
X326684Y264362D01*
X326711Y264429D01*
X326719Y264500D01*
X326727Y264531D01*
X326725Y264555D01*
X326729Y264596D01*
X326729Y275007D01*
X326728Y275015D01*
X326729Y275023D01*
X326708Y275136D01*
X326690Y275250D01*
X326686Y275257D01*
X326684Y275265D01*
X326628Y275365D01*
X326574Y275467D01*
X326569Y275472D01*
X326565Y275480D01*
X326479Y275557D01*
X326396Y275636D01*
X326389Y275640D01*
X326383Y275645D01*
X326278Y275691D01*
X326173Y275740D01*
X326165Y275741D01*
X326157Y275744D01*
X326043Y275754D01*
X325929Y275767D01*
X325921Y275765D01*
X325913Y275766D01*
X325801Y275739D01*
X325688Y275715D01*
X325681Y275711D01*
X325673Y275709D01*
X325576Y275648D01*
X325477Y275589D01*
X325472Y275582D01*
X325465Y275578D01*
X325352Y275454D01*
X325336Y275432D01*
X324008Y274104D01*
X322487Y272999D01*
X320813Y272146D01*
X319026Y271565D01*
X317753Y271364D01*
X317753Y282448D01*
X317750Y282468D01*
X317752Y282487D01*
X317730Y282589D01*
X317713Y282691D01*
X317704Y282708D01*
X317700Y282728D01*
X317647Y282817D01*
X317598Y282908D01*
X317584Y282922D01*
X317574Y282939D01*
X317495Y283006D01*
X317420Y283077D01*
X317402Y283086D01*
X317387Y283099D01*
X317291Y283137D01*
X317197Y283181D01*
X317177Y283183D01*
X317159Y283191D01*
X316992Y283209D01*
X316229Y283209D01*
X316229Y283211D01*
X316992Y283211D01*
X317012Y283214D01*
X317031Y283212D01*
X317133Y283234D01*
X317235Y283251D01*
X317252Y283260D01*
X317272Y283264D01*
X317361Y283317D01*
X317452Y283366D01*
X317466Y283380D01*
X317483Y283390D01*
X317550Y283469D01*
X317621Y283544D01*
X317630Y283562D01*
X317643Y283577D01*
X317682Y283673D01*
X317725Y283767D01*
X317727Y283787D01*
X317735Y283805D01*
X317753Y283972D01*
X317753Y295056D01*
X319026Y294855D01*
X320813Y294274D01*
X322487Y293421D01*
X324008Y292316D01*
X325336Y290988D01*
X325352Y290966D01*
X325358Y290960D01*
X325362Y290953D01*
X325445Y290874D01*
X325527Y290793D01*
X325534Y290789D01*
X325540Y290784D01*
X325644Y290735D01*
X325748Y290685D01*
X325756Y290684D01*
X325763Y290680D01*
X325878Y290667D01*
X325991Y290652D01*
X325999Y290654D01*
X326007Y290653D01*
X326120Y290677D01*
X326233Y290700D01*
X326240Y290704D01*
X326248Y290705D01*
X326346Y290764D01*
X326447Y290821D01*
X326452Y290827D01*
X326459Y290831D01*
X326534Y290919D01*
X326610Y291005D01*
X326614Y291012D01*
X326619Y291018D01*
X326662Y291125D01*
X326707Y291231D01*
X326708Y291239D01*
X326711Y291247D01*
X326729Y291413D01*
X326729Y301824D01*
X326718Y301895D01*
X326716Y301967D01*
X326698Y302016D01*
X326690Y302067D01*
X326656Y302130D01*
X326631Y302198D01*
X326599Y302238D01*
X326574Y302285D01*
X326522Y302334D01*
X326478Y302390D01*
X326434Y302418D01*
X326396Y302454D01*
X326331Y302484D01*
X326271Y302523D01*
X326220Y302536D01*
X326173Y302558D01*
X326102Y302565D01*
X326032Y302583D01*
X325980Y302579D01*
X325929Y302585D01*
X325858Y302569D01*
X325787Y302564D01*
X325739Y302543D01*
X325688Y302532D01*
X325627Y302496D01*
X325561Y302467D01*
X325505Y302423D01*
X325477Y302406D01*
X325462Y302388D01*
X325430Y302363D01*
X322417Y299350D01*
X318403Y297687D01*
X314057Y297687D01*
X310043Y299350D01*
X306970Y302423D01*
X305307Y306437D01*
X305307Y310783D01*
X306970Y314797D01*
X310043Y317870D01*
X314057Y319533D01*
X318403Y319533D01*
X322417Y317870D01*
X325430Y314857D01*
X325488Y314815D01*
X325540Y314766D01*
X325587Y314744D01*
X325629Y314714D01*
X325698Y314693D01*
X325763Y314662D01*
X325815Y314657D01*
X325865Y314641D01*
X325936Y314643D01*
X326007Y314635D01*
X326058Y314646D01*
X326110Y314648D01*
X326178Y314672D01*
X326248Y314688D01*
X326293Y314714D01*
X326341Y314732D01*
X326397Y314777D01*
X326459Y314814D01*
X326493Y314853D01*
X326533Y314886D01*
X326572Y314946D01*
X326619Y315001D01*
X326638Y315049D01*
X326666Y315093D01*
X326684Y315162D01*
X326711Y315229D01*
X326719Y315300D01*
X326727Y315331D01*
X326725Y315355D01*
X326729Y315396D01*
X326729Y325807D01*
X326728Y325815D01*
X326729Y325823D01*
X326708Y325936D01*
X326690Y326049D01*
X326686Y326057D01*
X326684Y326064D01*
X326628Y326165D01*
X326574Y326267D01*
X326569Y326272D01*
X326565Y326279D01*
X326479Y326357D01*
X326396Y326436D01*
X326389Y326440D01*
X326383Y326445D01*
X326277Y326491D01*
X326173Y326540D01*
X326165Y326541D01*
X326158Y326544D01*
X326042Y326554D01*
X325929Y326567D01*
X325921Y326565D01*
X325913Y326566D01*
X325800Y326539D01*
X325688Y326515D01*
X325681Y326511D01*
X325673Y326509D01*
X325575Y326447D01*
X325477Y326389D01*
X325472Y326382D01*
X325465Y326378D01*
X325352Y326254D01*
X325336Y326232D01*
X324008Y324904D01*
X322487Y323799D01*
X320813Y322946D01*
X319026Y322365D01*
X317753Y322164D01*
X317753Y333248D01*
X317750Y333268D01*
X317752Y333287D01*
X317730Y333389D01*
X317713Y333491D01*
X317704Y333508D01*
X317700Y333528D01*
X317647Y333617D01*
X317598Y333708D01*
X317584Y333722D01*
X317574Y333739D01*
X317495Y333806D01*
X317420Y333877D01*
X317402Y333886D01*
X317387Y333899D01*
X317291Y333937D01*
X317197Y333981D01*
X317177Y333983D01*
X317159Y333991D01*
X316992Y334009D01*
X316229Y334009D01*
X316229Y334011D01*
X316992Y334011D01*
X317012Y334014D01*
X317031Y334012D01*
X317133Y334034D01*
X317235Y334051D01*
X317252Y334060D01*
X317272Y334064D01*
X317361Y334117D01*
X317452Y334166D01*
X317466Y334180D01*
X317483Y334190D01*
X317550Y334269D01*
X317621Y334344D01*
X317630Y334362D01*
X317643Y334377D01*
X317682Y334473D01*
X317725Y334567D01*
X317727Y334587D01*
X317735Y334605D01*
X317753Y334772D01*
X317753Y345856D01*
X319026Y345655D01*
X320813Y345074D01*
X322487Y344221D01*
X324008Y343116D01*
X325336Y341788D01*
X325352Y341766D01*
X325358Y341760D01*
X325362Y341753D01*
X325445Y341674D01*
X325527Y341593D01*
X325534Y341589D01*
X325540Y341584D01*
X325644Y341535D01*
X325748Y341485D01*
X325756Y341484D01*
X325763Y341480D01*
X325877Y341467D01*
X325992Y341452D01*
X325999Y341454D01*
X326007Y341453D01*
X326120Y341478D01*
X326233Y341500D01*
X326240Y341504D01*
X326248Y341505D01*
X326347Y341564D01*
X326447Y341621D01*
X326452Y341627D01*
X326459Y341631D01*
X326534Y341719D01*
X326610Y341805D01*
X326614Y341812D01*
X326619Y341818D01*
X326662Y341926D01*
X326707Y342031D01*
X326708Y342039D01*
X326711Y342047D01*
X326729Y342213D01*
X326729Y386368D01*
X326726Y386388D01*
X326728Y386407D01*
X326706Y386509D01*
X326690Y386611D01*
X326680Y386628D01*
X326676Y386648D01*
X326623Y386737D01*
X326574Y386828D01*
X326560Y386842D01*
X326550Y386859D01*
X326471Y386926D01*
X326396Y386998D01*
X326378Y387006D01*
X326363Y387019D01*
X326267Y387058D01*
X326173Y387101D01*
X326153Y387103D01*
X326135Y387111D01*
X325968Y387129D01*
X2762Y387129D01*
X2742Y387126D01*
X2723Y387128D01*
X2621Y387106D01*
X2519Y387090D01*
X2502Y387080D01*
X2482Y387076D01*
X2393Y387023D01*
X2302Y386974D01*
X2288Y386960D01*
X2271Y386950D01*
X2204Y386871D01*
X2132Y386796D01*
X2124Y386778D01*
X2111Y386763D01*
X2072Y386667D01*
X2029Y386573D01*
X2027Y386553D01*
X2019Y386535D01*
X2001Y386368D01*
X2001Y343302D01*
X2012Y343232D01*
X2014Y343160D01*
X2032Y343111D01*
X2040Y343060D01*
X2074Y342996D01*
X2099Y342929D01*
X2131Y342888D01*
X2156Y342842D01*
X2207Y342793D01*
X2252Y342737D01*
X2296Y342709D01*
X2334Y342673D01*
X2399Y342643D01*
X2459Y342604D01*
X2510Y342591D01*
X2557Y342569D01*
X2628Y342561D01*
X2698Y342544D01*
X2750Y342548D01*
X2801Y342542D01*
X2872Y342557D01*
X2943Y342563D01*
X2991Y342583D01*
X3042Y342594D01*
X3103Y342631D01*
X3169Y342659D01*
X3225Y342704D01*
X3253Y342721D01*
X3268Y342738D01*
X3300Y342764D01*
X3652Y343116D01*
X5173Y344221D01*
X6847Y345074D01*
X8634Y345655D01*
X9907Y345856D01*
X9907Y334772D01*
X9910Y334752D01*
X9908Y334733D01*
X9930Y334631D01*
X9947Y334529D01*
X9956Y334512D01*
X9960Y334492D01*
X10013Y334403D01*
X10062Y334312D01*
X10076Y334298D01*
X10086Y334281D01*
X10165Y334214D01*
X10240Y334143D01*
X10258Y334134D01*
X10273Y334121D01*
X10369Y334083D01*
X10463Y334039D01*
X10483Y334037D01*
X10501Y334029D01*
X10668Y334011D01*
X11431Y334011D01*
X11431Y334009D01*
X10668Y334009D01*
X10648Y334006D01*
X10629Y334008D01*
X10527Y333986D01*
X10425Y333969D01*
X10408Y333960D01*
X10388Y333956D01*
X10299Y333903D01*
X10208Y333854D01*
X10194Y333840D01*
X10177Y333830D01*
X10110Y333751D01*
X10039Y333676D01*
X10030Y333658D01*
X10017Y333643D01*
X9978Y333547D01*
X9935Y333453D01*
X9933Y333433D01*
X9925Y333415D01*
X9907Y333248D01*
X9907Y322164D01*
X8634Y322365D01*
X6847Y322946D01*
X5173Y323799D01*
X3652Y324904D01*
X3300Y325256D01*
X3242Y325298D01*
X3190Y325347D01*
X3143Y325369D01*
X3101Y325399D01*
X3032Y325420D01*
X2967Y325451D01*
X2915Y325456D01*
X2865Y325472D01*
X2794Y325470D01*
X2723Y325478D01*
X2672Y325467D01*
X2620Y325465D01*
X2552Y325441D01*
X2482Y325426D01*
X2437Y325399D01*
X2389Y325381D01*
X2333Y325336D01*
X2271Y325299D01*
X2237Y325260D01*
X2197Y325227D01*
X2158Y325167D01*
X2111Y325112D01*
X2092Y325064D01*
X2064Y325020D01*
X2046Y324951D01*
X2019Y324884D01*
X2011Y324813D01*
X2003Y324782D01*
X2005Y324758D01*
X2001Y324718D01*
X2001Y317902D01*
X2003Y317890D01*
X2002Y317880D01*
X2012Y317831D01*
X2014Y317760D01*
X2032Y317711D01*
X2040Y317660D01*
X2074Y317596D01*
X2099Y317529D01*
X2131Y317488D01*
X2156Y317442D01*
X2207Y317393D01*
X2252Y317337D01*
X2296Y317309D01*
X2334Y317273D01*
X2399Y317243D01*
X2459Y317204D01*
X2510Y317191D01*
X2557Y317169D01*
X2628Y317161D01*
X2698Y317144D01*
X2750Y317148D01*
X2801Y317142D01*
X2872Y317157D01*
X2943Y317163D01*
X2991Y317183D01*
X3042Y317194D01*
X3103Y317231D01*
X3169Y317259D01*
X3225Y317304D01*
X3253Y317321D01*
X3268Y317338D01*
X3300Y317364D01*
X3652Y317716D01*
X5173Y318821D01*
X6847Y319674D01*
X8634Y320255D01*
X9907Y320456D01*
X9907Y309372D01*
X9910Y309352D01*
X9908Y309333D01*
X9930Y309231D01*
X9947Y309129D01*
X9956Y309112D01*
X9960Y309092D01*
X10013Y309003D01*
X10062Y308912D01*
X10076Y308898D01*
X10086Y308881D01*
X10165Y308814D01*
X10240Y308743D01*
X10258Y308734D01*
X10273Y308721D01*
X10369Y308683D01*
X10463Y308639D01*
X10483Y308637D01*
X10501Y308629D01*
X10668Y308611D01*
X11431Y308611D01*
X11431Y308609D01*
X10668Y308609D01*
X10648Y308606D01*
X10629Y308608D01*
X10527Y308586D01*
X10425Y308569D01*
X10408Y308560D01*
X10388Y308556D01*
X10299Y308503D01*
X10208Y308454D01*
X10194Y308440D01*
X10177Y308430D01*
X10110Y308351D01*
X10039Y308276D01*
X10030Y308258D01*
X10017Y308243D01*
X9978Y308147D01*
X9935Y308053D01*
X9933Y308033D01*
X9925Y308015D01*
X9907Y307848D01*
X9907Y296764D01*
X8634Y296965D01*
X6847Y297546D01*
X5173Y298399D01*
X3652Y299504D01*
X3300Y299856D01*
X3242Y299898D01*
X3190Y299947D01*
X3143Y299969D01*
X3101Y299999D01*
X3032Y300020D01*
X2967Y300051D01*
X2915Y300056D01*
X2865Y300072D01*
X2794Y300070D01*
X2723Y300078D01*
X2672Y300067D01*
X2620Y300065D01*
X2552Y300041D01*
X2482Y300026D01*
X2437Y299999D01*
X2389Y299981D01*
X2333Y299936D01*
X2271Y299899D01*
X2237Y299860D01*
X2197Y299827D01*
X2158Y299767D01*
X2111Y299712D01*
X2092Y299664D01*
X2064Y299620D01*
X2046Y299551D01*
X2019Y299484D01*
X2011Y299413D01*
X2003Y299382D01*
X2005Y299358D01*
X2001Y299318D01*
X2001Y292502D01*
X2012Y292432D01*
X2014Y292360D01*
X2032Y292311D01*
X2040Y292260D01*
X2074Y292196D01*
X2099Y292129D01*
X2131Y292088D01*
X2156Y292042D01*
X2207Y291993D01*
X2252Y291937D01*
X2296Y291909D01*
X2334Y291873D01*
X2399Y291843D01*
X2459Y291804D01*
X2510Y291791D01*
X2557Y291769D01*
X2628Y291761D01*
X2698Y291744D01*
X2750Y291748D01*
X2801Y291742D01*
X2872Y291757D01*
X2943Y291763D01*
X2991Y291783D01*
X3042Y291794D01*
X3103Y291831D01*
X3169Y291859D01*
X3225Y291904D01*
X3253Y291921D01*
X3268Y291938D01*
X3300Y291964D01*
X3652Y292316D01*
X5173Y293421D01*
X6847Y294274D01*
X8634Y294855D01*
X9907Y295056D01*
X9907Y283972D01*
X9910Y283952D01*
X9908Y283933D01*
X9930Y283831D01*
X9947Y283729D01*
X9956Y283712D01*
X9960Y283692D01*
X10013Y283603D01*
X10062Y283512D01*
X10076Y283498D01*
X10086Y283481D01*
X10165Y283414D01*
X10240Y283343D01*
X10258Y283334D01*
X10273Y283321D01*
X10369Y283283D01*
X10463Y283239D01*
X10483Y283237D01*
X10501Y283229D01*
X10668Y283211D01*
X11431Y283211D01*
X11431Y283209D01*
X10668Y283209D01*
X10648Y283206D01*
X10629Y283208D01*
X10527Y283186D01*
X10425Y283169D01*
X10408Y283160D01*
X10388Y283156D01*
X10299Y283103D01*
X10208Y283054D01*
X10194Y283040D01*
X10177Y283030D01*
X10110Y282951D01*
X10039Y282876D01*
X10030Y282858D01*
X10017Y282843D01*
X9978Y282747D01*
X9935Y282653D01*
X9933Y282633D01*
X9925Y282615D01*
X9907Y282448D01*
X9907Y271364D01*
X8634Y271565D01*
X6847Y272146D01*
X5173Y272999D01*
X3652Y274104D01*
X3300Y274456D01*
X3242Y274498D01*
X3190Y274547D01*
X3143Y274569D01*
X3101Y274599D01*
X3032Y274620D01*
X2967Y274651D01*
X2915Y274656D01*
X2865Y274672D01*
X2794Y274670D01*
X2723Y274678D01*
X2672Y274667D01*
X2620Y274665D01*
X2552Y274641D01*
X2482Y274626D01*
X2437Y274599D01*
X2389Y274581D01*
X2333Y274536D01*
X2271Y274499D01*
X2237Y274460D01*
X2197Y274427D01*
X2158Y274367D01*
X2111Y274312D01*
X2092Y274264D01*
X2064Y274220D01*
X2046Y274151D01*
X2019Y274084D01*
X2011Y274013D01*
X2003Y273982D01*
X2005Y273958D01*
X2001Y273918D01*
X2001Y265666D01*
X2012Y265595D01*
X2014Y265523D01*
X2032Y265474D01*
X2040Y265423D01*
X2074Y265360D01*
X2099Y265292D01*
X2131Y265252D01*
X2156Y265205D01*
X2208Y265156D01*
X2252Y265100D01*
X2296Y265072D01*
X2334Y265036D01*
X2399Y265006D01*
X2459Y264967D01*
X2510Y264954D01*
X2557Y264932D01*
X2628Y264925D01*
X2698Y264907D01*
X2750Y264911D01*
X2801Y264905D01*
X2872Y264921D01*
X2943Y264926D01*
X2991Y264947D01*
X3042Y264958D01*
X3103Y264994D01*
X3169Y265023D01*
X3225Y265067D01*
X3253Y265084D01*
X3268Y265102D01*
X3300Y265127D01*
X5243Y267070D01*
X9257Y268733D01*
X13603Y268733D01*
X17617Y267070D01*
X20690Y263997D01*
X22353Y259983D01*
X22353Y255637D01*
X20690Y251623D01*
X17617Y248550D01*
X13603Y246887D01*
X9257Y246887D01*
X5243Y248550D01*
X3300Y250493D01*
X3242Y250535D01*
X3190Y250584D01*
X3143Y250606D01*
X3101Y250636D01*
X3032Y250657D01*
X2967Y250688D01*
X2915Y250693D01*
X2865Y250709D01*
X2794Y250707D01*
X2723Y250715D01*
X2672Y250704D01*
X2620Y250702D01*
X2552Y250678D01*
X2482Y250662D01*
X2437Y250636D01*
X2389Y250618D01*
X2333Y250573D01*
X2271Y250536D01*
X2237Y250497D01*
X2197Y250464D01*
X2158Y250404D01*
X2111Y250349D01*
X2092Y250301D01*
X2064Y250257D01*
X2046Y250188D01*
X2019Y250121D01*
X2011Y250050D01*
X2003Y250019D01*
X2005Y249995D01*
X2001Y249954D01*
X2001Y240266D01*
X2004Y240248D01*
X2002Y240233D01*
X2013Y240183D01*
X2014Y240123D01*
X2032Y240074D01*
X2040Y240023D01*
X2052Y240001D01*
X2054Y239992D01*
X2075Y239957D01*
X2099Y239892D01*
X2131Y239852D01*
X2156Y239805D01*
X2179Y239783D01*
X2180Y239781D01*
X2191Y239772D01*
X2208Y239756D01*
X2252Y239700D01*
X2296Y239672D01*
X2334Y239636D01*
X2399Y239606D01*
X2459Y239567D01*
X2510Y239554D01*
X2557Y239532D01*
X2628Y239525D01*
X2698Y239507D01*
X2750Y239511D01*
X2801Y239505D01*
X2872Y239521D01*
X2943Y239526D01*
X2991Y239547D01*
X3002Y239549D01*
X3011Y239550D01*
X3013Y239551D01*
X3042Y239558D01*
X3103Y239594D01*
X3169Y239623D01*
X3213Y239657D01*
X3228Y239666D01*
X3237Y239674D01*
X3253Y239684D01*
X3268Y239702D01*
X3300Y239727D01*
X5243Y241670D01*
X9257Y243333D01*
X13603Y243333D01*
X17617Y241670D01*
X20690Y238597D01*
X22353Y234583D01*
X22353Y230237D01*
X20690Y226223D01*
X17617Y223150D01*
X13603Y221487D01*
X9257Y221487D01*
X5243Y223150D01*
X3300Y225093D01*
X3242Y225135D01*
X3190Y225184D01*
X3143Y225206D01*
X3101Y225236D01*
X3032Y225257D01*
X2967Y225288D01*
X2915Y225293D01*
X2865Y225309D01*
X2794Y225307D01*
X2723Y225315D01*
X2672Y225304D01*
X2620Y225302D01*
X2552Y225278D01*
X2482Y225262D01*
X2437Y225236D01*
X2389Y225218D01*
X2333Y225173D01*
X2271Y225136D01*
X2237Y225097D01*
X2197Y225064D01*
X2158Y225004D01*
X2111Y224949D01*
X2092Y224901D01*
X2064Y224857D01*
X2046Y224788D01*
X2019Y224721D01*
X2011Y224650D01*
X2003Y224619D01*
X2005Y224595D01*
X2001Y224554D01*
X2001Y214866D01*
X2012Y214795D01*
X2014Y214723D01*
X2032Y214674D01*
X2040Y214623D01*
X2074Y214560D01*
X2099Y214492D01*
X2131Y214452D01*
X2156Y214405D01*
X2208Y214356D01*
X2252Y214300D01*
X2296Y214272D01*
X2334Y214236D01*
X2399Y214206D01*
X2459Y214167D01*
X2510Y214154D01*
X2557Y214132D01*
X2628Y214125D01*
X2698Y214107D01*
X2750Y214111D01*
X2801Y214105D01*
X2872Y214121D01*
X2943Y214126D01*
X2991Y214147D01*
X3042Y214158D01*
X3103Y214194D01*
X3169Y214223D01*
X3225Y214267D01*
X3253Y214284D01*
X3268Y214302D01*
X3300Y214327D01*
X5243Y216270D01*
X9257Y217933D01*
X13603Y217933D01*
X17617Y216270D01*
X20690Y213197D01*
X22353Y209183D01*
X22353Y204837D01*
X20690Y200823D01*
X17617Y197750D01*
X13603Y196087D01*
X9257Y196087D01*
X5243Y197750D01*
X3300Y199693D01*
X3242Y199735D01*
X3190Y199784D01*
X3143Y199806D01*
X3101Y199836D01*
X3032Y199857D01*
X2967Y199888D01*
X2915Y199893D01*
X2865Y199909D01*
X2794Y199907D01*
X2723Y199915D01*
X2672Y199904D01*
X2620Y199902D01*
X2552Y199878D01*
X2482Y199862D01*
X2437Y199836D01*
X2389Y199818D01*
X2333Y199773D01*
X2271Y199736D01*
X2237Y199697D01*
X2197Y199664D01*
X2158Y199604D01*
X2111Y199549D01*
X2092Y199501D01*
X2064Y199457D01*
X2046Y199388D01*
X2019Y199321D01*
X2011Y199250D01*
X2003Y199219D01*
X2005Y199195D01*
X2001Y199154D01*
X2001Y189466D01*
X2012Y189395D01*
X2014Y189323D01*
X2032Y189274D01*
X2040Y189223D01*
X2074Y189160D01*
X2099Y189092D01*
X2131Y189052D01*
X2156Y189005D01*
X2208Y188956D01*
X2252Y188900D01*
X2296Y188872D01*
X2334Y188836D01*
X2399Y188806D01*
X2459Y188767D01*
X2510Y188754D01*
X2557Y188732D01*
X2628Y188725D01*
X2698Y188707D01*
X2750Y188711D01*
X2801Y188705D01*
X2872Y188721D01*
X2943Y188726D01*
X2991Y188747D01*
X3042Y188758D01*
X3103Y188794D01*
X3169Y188823D01*
X3225Y188867D01*
X3253Y188884D01*
X3268Y188902D01*
X3300Y188927D01*
X5243Y190870D01*
X9257Y192533D01*
X13603Y192533D01*
X17617Y190870D01*
X20690Y187797D01*
X22353Y183783D01*
X22353Y179437D01*
X20690Y175423D01*
X17617Y172350D01*
X13603Y170687D01*
X9257Y170687D01*
X5243Y172350D01*
X3300Y174293D01*
X3242Y174335D01*
X3190Y174384D01*
X3143Y174406D01*
X3101Y174436D01*
X3032Y174457D01*
X2967Y174488D01*
X2915Y174493D01*
X2865Y174509D01*
X2794Y174507D01*
X2723Y174515D01*
X2672Y174504D01*
X2620Y174502D01*
X2552Y174478D01*
X2482Y174462D01*
X2437Y174436D01*
X2389Y174418D01*
X2333Y174373D01*
X2271Y174336D01*
X2237Y174297D01*
X2197Y174264D01*
X2158Y174204D01*
X2111Y174149D01*
X2092Y174101D01*
X2064Y174057D01*
X2046Y173988D01*
X2019Y173921D01*
X2011Y173850D01*
X2003Y173819D01*
X2005Y173795D01*
X2001Y173754D01*
X2001Y164066D01*
X2012Y163995D01*
X2014Y163923D01*
X2032Y163874D01*
X2040Y163823D01*
X2074Y163760D01*
X2099Y163692D01*
X2131Y163652D01*
X2156Y163605D01*
X2208Y163556D01*
X2252Y163500D01*
X2296Y163472D01*
X2334Y163436D01*
X2399Y163406D01*
X2459Y163367D01*
X2510Y163354D01*
X2557Y163332D01*
X2628Y163325D01*
X2698Y163307D01*
X2750Y163311D01*
X2801Y163305D01*
X2872Y163321D01*
X2943Y163326D01*
X2991Y163347D01*
X3042Y163358D01*
X3103Y163394D01*
X3169Y163423D01*
X3225Y163467D01*
X3253Y163484D01*
X3268Y163502D01*
X3300Y163527D01*
X5243Y165470D01*
X9257Y167133D01*
X13603Y167133D01*
X17617Y165470D01*
X20690Y162397D01*
X22353Y158383D01*
X22353Y154037D01*
X20690Y150023D01*
X17617Y146950D01*
X13603Y145287D01*
X9257Y145287D01*
X5243Y146950D01*
X3300Y148893D01*
X3242Y148935D01*
X3190Y148984D01*
X3143Y149006D01*
X3101Y149036D01*
X3032Y149057D01*
X2967Y149088D01*
X2915Y149093D01*
X2865Y149109D01*
X2794Y149107D01*
X2723Y149115D01*
X2672Y149104D01*
X2620Y149102D01*
X2552Y149078D01*
X2482Y149062D01*
X2437Y149036D01*
X2389Y149018D01*
X2333Y148973D01*
X2271Y148936D01*
X2237Y148897D01*
X2197Y148864D01*
X2158Y148804D01*
X2111Y148749D01*
X2092Y148701D01*
X2064Y148657D01*
X2046Y148588D01*
X2019Y148521D01*
X2011Y148450D01*
X2003Y148419D01*
X2005Y148395D01*
X2001Y148354D01*
X2001Y138666D01*
X2012Y138595D01*
X2014Y138523D01*
X2032Y138474D01*
X2040Y138423D01*
X2074Y138360D01*
X2099Y138292D01*
X2131Y138252D01*
X2156Y138205D01*
X2208Y138156D01*
X2252Y138100D01*
X2296Y138072D01*
X2334Y138036D01*
X2399Y138006D01*
X2459Y137967D01*
X2510Y137954D01*
X2557Y137932D01*
X2628Y137925D01*
X2698Y137907D01*
X2750Y137911D01*
X2801Y137905D01*
X2872Y137921D01*
X2943Y137926D01*
X2991Y137947D01*
X3042Y137958D01*
X3103Y137994D01*
X3169Y138023D01*
X3225Y138067D01*
X3253Y138084D01*
X3268Y138102D01*
X3300Y138127D01*
X5243Y140070D01*
X9257Y141733D01*
X13603Y141733D01*
X17617Y140070D01*
X20690Y136997D01*
X22353Y132983D01*
X22353Y128637D01*
X20690Y124623D01*
X17617Y121550D01*
X13603Y119887D01*
X9257Y119887D01*
X5243Y121550D01*
X3300Y123493D01*
X3242Y123535D01*
X3190Y123584D01*
X3143Y123606D01*
X3101Y123636D01*
X3032Y123657D01*
X2967Y123688D01*
X2915Y123693D01*
X2865Y123709D01*
X2794Y123707D01*
X2723Y123715D01*
X2672Y123704D01*
X2620Y123702D01*
X2552Y123678D01*
X2482Y123662D01*
X2437Y123636D01*
X2389Y123618D01*
X2333Y123573D01*
X2271Y123536D01*
X2237Y123497D01*
X2197Y123464D01*
X2158Y123404D01*
X2111Y123349D01*
X2092Y123301D01*
X2064Y123257D01*
X2046Y123188D01*
X2019Y123121D01*
X2011Y123050D01*
X2003Y123019D01*
X2005Y122995D01*
X2001Y122954D01*
X2001Y113266D01*
X2012Y113195D01*
X2014Y113123D01*
X2032Y113074D01*
X2040Y113023D01*
X2074Y112960D01*
X2099Y112892D01*
X2131Y112852D01*
X2156Y112805D01*
X2208Y112756D01*
X2252Y112700D01*
X2296Y112672D01*
X2334Y112636D01*
X2399Y112606D01*
X2459Y112567D01*
X2510Y112554D01*
X2557Y112532D01*
X2628Y112525D01*
X2698Y112507D01*
X2750Y112511D01*
X2801Y112505D01*
X2872Y112521D01*
X2943Y112526D01*
X2991Y112547D01*
X3042Y112558D01*
X3103Y112594D01*
X3169Y112623D01*
X3225Y112667D01*
X3253Y112684D01*
X3268Y112702D01*
X3300Y112727D01*
X5243Y114670D01*
X9257Y116333D01*
X13603Y116333D01*
X17617Y114670D01*
X20690Y111597D01*
X22353Y107583D01*
X22353Y103237D01*
X20690Y99223D01*
X17617Y96150D01*
X13603Y94487D01*
X9257Y94487D01*
X5243Y96150D01*
X3300Y98093D01*
X3242Y98135D01*
X3190Y98184D01*
X3143Y98206D01*
X3101Y98236D01*
X3032Y98257D01*
X2967Y98288D01*
X2915Y98293D01*
X2865Y98309D01*
X2794Y98307D01*
X2723Y98315D01*
X2672Y98304D01*
X2620Y98302D01*
X2552Y98278D01*
X2482Y98262D01*
X2437Y98236D01*
X2389Y98218D01*
X2333Y98173D01*
X2271Y98136D01*
X2237Y98097D01*
X2197Y98064D01*
X2158Y98004D01*
X2111Y97949D01*
X2092Y97901D01*
X2064Y97857D01*
X2046Y97788D01*
X2019Y97721D01*
X2011Y97650D01*
X2003Y97619D01*
X2005Y97595D01*
X2001Y97554D01*
X2001Y87866D01*
X2012Y87795D01*
X2014Y87723D01*
X2032Y87674D01*
X2040Y87623D01*
X2074Y87560D01*
X2099Y87492D01*
X2131Y87452D01*
X2156Y87405D01*
X2208Y87356D01*
X2252Y87300D01*
X2296Y87272D01*
X2334Y87236D01*
X2399Y87206D01*
X2459Y87167D01*
X2510Y87154D01*
X2557Y87132D01*
X2628Y87125D01*
X2698Y87107D01*
X2750Y87111D01*
X2801Y87105D01*
X2872Y87121D01*
X2943Y87126D01*
X2991Y87147D01*
X3042Y87158D01*
X3103Y87194D01*
X3169Y87223D01*
X3225Y87267D01*
X3253Y87284D01*
X3268Y87302D01*
X3300Y87327D01*
X5243Y89270D01*
X9257Y90933D01*
X13603Y90933D01*
X17617Y89270D01*
X20690Y86197D01*
X22353Y82183D01*
X22353Y77837D01*
X20690Y73823D01*
X17617Y70750D01*
X13603Y69087D01*
X9257Y69087D01*
X5243Y70750D01*
X3300Y72693D01*
X3242Y72735D01*
X3190Y72784D01*
X3143Y72806D01*
X3101Y72836D01*
X3032Y72857D01*
X2967Y72888D01*
X2915Y72893D01*
X2865Y72909D01*
X2794Y72907D01*
X2723Y72915D01*
X2672Y72904D01*
X2620Y72902D01*
X2552Y72878D01*
X2482Y72862D01*
X2437Y72836D01*
X2389Y72818D01*
X2333Y72773D01*
X2271Y72736D01*
X2237Y72697D01*
X2197Y72664D01*
X2158Y72604D01*
X2111Y72549D01*
X2092Y72501D01*
X2064Y72457D01*
X2046Y72388D01*
X2019Y72321D01*
X2011Y72250D01*
X2003Y72219D01*
X2005Y72195D01*
X2001Y72154D01*
X2001Y62466D01*
X2012Y62395D01*
X2014Y62323D01*
X2032Y62274D01*
X2040Y62223D01*
X2074Y62160D01*
X2099Y62092D01*
X2131Y62052D01*
X2156Y62005D01*
X2208Y61956D01*
X2252Y61900D01*
X2296Y61872D01*
X2334Y61836D01*
X2399Y61806D01*
X2459Y61767D01*
X2510Y61754D01*
X2557Y61732D01*
X2628Y61725D01*
X2698Y61707D01*
X2750Y61711D01*
X2801Y61705D01*
X2872Y61721D01*
X2943Y61726D01*
X2991Y61747D01*
X3042Y61758D01*
X3103Y61794D01*
X3169Y61823D01*
X3225Y61867D01*
X3253Y61884D01*
X3268Y61902D01*
X3300Y61927D01*
X5243Y63870D01*
X9257Y65533D01*
X13603Y65533D01*
X17617Y63870D01*
X20690Y60797D01*
X22353Y56783D01*
X22353Y52437D01*
X20690Y48423D01*
X17617Y45350D01*
X13603Y43687D01*
X9257Y43687D01*
X5243Y45350D01*
X3300Y47293D01*
X3242Y47335D01*
X3190Y47384D01*
X3143Y47406D01*
X3101Y47436D01*
X3032Y47457D01*
X2967Y47488D01*
X2915Y47493D01*
X2865Y47509D01*
X2794Y47507D01*
X2723Y47515D01*
X2672Y47504D01*
X2620Y47502D01*
X2552Y47478D01*
X2482Y47462D01*
X2437Y47436D01*
X2389Y47418D01*
X2333Y47373D01*
X2271Y47336D01*
X2237Y47297D01*
X2197Y47264D01*
X2158Y47204D01*
X2111Y47149D01*
X2092Y47101D01*
X2064Y47057D01*
X2046Y46988D01*
X2019Y46921D01*
X2011Y46850D01*
X2003Y46819D01*
X2005Y46795D01*
X2001Y46754D01*
X2001Y38502D01*
X2012Y38432D01*
X2014Y38360D01*
X2032Y38311D01*
X2040Y38260D01*
X2074Y38196D01*
X2099Y38129D01*
X2131Y38088D01*
X2156Y38042D01*
X2207Y37993D01*
X2252Y37937D01*
X2296Y37909D01*
X2334Y37873D01*
X2399Y37843D01*
X2459Y37804D01*
X2510Y37791D01*
X2557Y37769D01*
X2628Y37761D01*
X2698Y37744D01*
X2750Y37748D01*
X2801Y37742D01*
X2872Y37757D01*
X2943Y37763D01*
X2991Y37783D01*
X3042Y37794D01*
X3103Y37831D01*
X3169Y37859D01*
X3225Y37904D01*
X3253Y37921D01*
X3268Y37938D01*
X3300Y37964D01*
X3652Y38316D01*
X5173Y39421D01*
X6847Y40274D01*
X8634Y40855D01*
X9907Y41056D01*
X9907Y29972D01*
X9910Y29952D01*
X9908Y29933D01*
X9930Y29831D01*
X9947Y29729D01*
X9956Y29712D01*
X9960Y29692D01*
X10013Y29603D01*
X10062Y29512D01*
X10076Y29498D01*
X10086Y29481D01*
X10165Y29414D01*
X10240Y29343D01*
X10258Y29334D01*
X10273Y29321D01*
X10369Y29283D01*
X10463Y29239D01*
X10483Y29237D01*
X10501Y29229D01*
X10668Y29211D01*
X11431Y29211D01*
X11431Y29209D01*
X10668Y29209D01*
X10648Y29206D01*
X10629Y29208D01*
X10527Y29186D01*
X10425Y29169D01*
X10408Y29160D01*
X10388Y29156D01*
X10299Y29103D01*
X10208Y29054D01*
X10194Y29040D01*
X10177Y29030D01*
X10110Y28951D01*
X10039Y28876D01*
X10030Y28858D01*
X10017Y28843D01*
X9978Y28747D01*
X9935Y28653D01*
X9933Y28633D01*
X9925Y28615D01*
X9907Y28448D01*
X9907Y17364D01*
X8634Y17565D01*
X6847Y18146D01*
X5173Y18999D01*
X3652Y20104D01*
X3300Y20456D01*
X3242Y20498D01*
X3190Y20547D01*
X3143Y20569D01*
X3101Y20599D01*
X3032Y20620D01*
X2967Y20651D01*
X2915Y20656D01*
X2865Y20672D01*
X2794Y20670D01*
X2723Y20678D01*
X2672Y20667D01*
X2620Y20665D01*
X2552Y20641D01*
X2482Y20626D01*
X2437Y20599D01*
X2389Y20581D01*
X2333Y20536D01*
X2271Y20499D01*
X2237Y20460D01*
X2197Y20427D01*
X2158Y20367D01*
X2111Y20312D01*
X2092Y20264D01*
X2064Y20220D01*
X2046Y20151D01*
X2019Y20084D01*
X2011Y20013D01*
X2003Y19982D01*
X2005Y19958D01*
X2001Y19918D01*
X2001Y2762D01*
X2004Y2742D01*
X2002Y2723D01*
X2024Y2621D01*
X2040Y2519D01*
X2050Y2502D01*
X2054Y2482D01*
X2107Y2393D01*
X2156Y2302D01*
X2170Y2288D01*
X2180Y2271D01*
X2259Y2204D01*
X2334Y2132D01*
X2352Y2124D01*
X2367Y2111D01*
X2463Y2072D01*
X2557Y2029D01*
X2577Y2027D01*
X2595Y2019D01*
X2762Y2001D01*
X325968Y2001D01*
X325988Y2004D01*
G37*
%LPC*%
G36*
X288657Y196087D02*
X288657Y196087D01*
X284643Y197750D01*
X281570Y200823D01*
X279907Y204837D01*
X279907Y209183D01*
X281570Y213197D01*
X284643Y216270D01*
X288657Y217933D01*
X293003Y217933D01*
X297017Y216270D01*
X300090Y213197D01*
X301753Y209183D01*
X301753Y204837D01*
X300090Y200823D01*
X297017Y197750D01*
X293003Y196087D01*
X288657Y196087D01*
G37*
%LPD*%
%LPC*%
G36*
X34657Y43687D02*
X34657Y43687D01*
X30643Y45350D01*
X27570Y48423D01*
X25907Y52437D01*
X25907Y56783D01*
X27570Y60797D01*
X30643Y63870D01*
X34657Y65533D01*
X39003Y65533D01*
X43017Y63870D01*
X46090Y60797D01*
X47753Y56783D01*
X47753Y52437D01*
X46090Y48423D01*
X43017Y45350D01*
X39003Y43687D01*
X34657Y43687D01*
G37*
%LPD*%
%LPC*%
G36*
X288657Y43687D02*
X288657Y43687D01*
X284643Y45350D01*
X281570Y48423D01*
X279907Y52437D01*
X279907Y56783D01*
X281570Y60797D01*
X284643Y63870D01*
X288657Y65533D01*
X293003Y65533D01*
X297017Y63870D01*
X300090Y60797D01*
X301753Y56783D01*
X301753Y52437D01*
X300090Y48423D01*
X297017Y45350D01*
X293003Y43687D01*
X288657Y43687D01*
G37*
%LPD*%
%LPC*%
G36*
X34657Y69087D02*
X34657Y69087D01*
X30643Y70750D01*
X27570Y73823D01*
X25907Y77837D01*
X25907Y82183D01*
X27570Y86197D01*
X30643Y89270D01*
X34657Y90933D01*
X39003Y90933D01*
X43017Y89270D01*
X46090Y86197D01*
X47753Y82183D01*
X47753Y77837D01*
X46090Y73823D01*
X43017Y70750D01*
X39003Y69087D01*
X34657Y69087D01*
G37*
%LPD*%
%LPC*%
G36*
X288657Y69087D02*
X288657Y69087D01*
X284643Y70750D01*
X281570Y73823D01*
X279907Y77837D01*
X279907Y82183D01*
X281570Y86197D01*
X284643Y89270D01*
X288657Y90933D01*
X293003Y90933D01*
X297017Y89270D01*
X300090Y86197D01*
X301753Y82183D01*
X301753Y77837D01*
X300090Y73823D01*
X297017Y70750D01*
X293003Y69087D01*
X288657Y69087D01*
G37*
%LPD*%
%LPC*%
G36*
X34657Y94487D02*
X34657Y94487D01*
X30643Y96150D01*
X27570Y99223D01*
X25907Y103237D01*
X25907Y107583D01*
X27570Y111597D01*
X30643Y114670D01*
X34657Y116333D01*
X39003Y116333D01*
X43017Y114670D01*
X46090Y111597D01*
X47753Y107583D01*
X47753Y103237D01*
X46090Y99223D01*
X43017Y96150D01*
X39003Y94487D01*
X34657Y94487D01*
G37*
%LPD*%
%LPC*%
G36*
X34657Y221487D02*
X34657Y221487D01*
X30643Y223150D01*
X27570Y226223D01*
X25907Y230237D01*
X25907Y234583D01*
X27570Y238597D01*
X30643Y241670D01*
X34657Y243333D01*
X39003Y243333D01*
X43017Y241670D01*
X46090Y238597D01*
X47753Y234583D01*
X47753Y230237D01*
X46090Y226223D01*
X43017Y223150D01*
X39003Y221487D01*
X34657Y221487D01*
G37*
%LPD*%
%LPC*%
G36*
X288657Y94487D02*
X288657Y94487D01*
X284643Y96150D01*
X281570Y99223D01*
X279907Y103237D01*
X279907Y107583D01*
X281570Y111597D01*
X284643Y114670D01*
X288657Y116333D01*
X293003Y116333D01*
X297017Y114670D01*
X300090Y111597D01*
X301753Y107583D01*
X301753Y103237D01*
X300090Y99223D01*
X297017Y96150D01*
X293003Y94487D01*
X288657Y94487D01*
G37*
%LPD*%
%LPC*%
G36*
X288657Y297687D02*
X288657Y297687D01*
X284643Y299350D01*
X281570Y302423D01*
X279907Y306437D01*
X279907Y310783D01*
X281570Y314797D01*
X284643Y317870D01*
X288657Y319533D01*
X293003Y319533D01*
X297017Y317870D01*
X300090Y314797D01*
X301753Y310783D01*
X301753Y306437D01*
X300090Y302423D01*
X297017Y299350D01*
X293003Y297687D01*
X288657Y297687D01*
G37*
%LPD*%
%LPC*%
G36*
X34657Y119887D02*
X34657Y119887D01*
X30643Y121550D01*
X27570Y124623D01*
X25907Y128637D01*
X25907Y132983D01*
X27570Y136997D01*
X30643Y140070D01*
X34657Y141733D01*
X39003Y141733D01*
X43017Y140070D01*
X46090Y136997D01*
X47753Y132983D01*
X47753Y128637D01*
X46090Y124623D01*
X43017Y121550D01*
X39003Y119887D01*
X34657Y119887D01*
G37*
%LPD*%
%LPC*%
G36*
X288657Y221487D02*
X288657Y221487D01*
X284643Y223150D01*
X281570Y226223D01*
X279907Y230237D01*
X279907Y234583D01*
X281570Y238597D01*
X284643Y241670D01*
X288657Y243333D01*
X293003Y243333D01*
X297017Y241670D01*
X300090Y238597D01*
X301753Y234583D01*
X301753Y230237D01*
X300090Y226223D01*
X297017Y223150D01*
X293003Y221487D01*
X288657Y221487D01*
G37*
%LPD*%
%LPC*%
G36*
X288657Y246887D02*
X288657Y246887D01*
X284643Y248550D01*
X281570Y251623D01*
X279907Y255637D01*
X279907Y259983D01*
X281570Y263997D01*
X284643Y267070D01*
X288657Y268733D01*
X293003Y268733D01*
X297017Y267070D01*
X300090Y263997D01*
X301753Y259983D01*
X301753Y255637D01*
X300090Y251623D01*
X297017Y248550D01*
X293003Y246887D01*
X288657Y246887D01*
G37*
%LPD*%
%LPC*%
G36*
X34657Y246887D02*
X34657Y246887D01*
X30643Y248550D01*
X27570Y251623D01*
X25907Y255637D01*
X25907Y259983D01*
X27570Y263997D01*
X30643Y267070D01*
X34657Y268733D01*
X39003Y268733D01*
X43017Y267070D01*
X46090Y263997D01*
X47753Y259983D01*
X47753Y255637D01*
X46090Y251623D01*
X43017Y248550D01*
X39003Y246887D01*
X34657Y246887D01*
G37*
%LPD*%
%LPC*%
G36*
X288657Y119887D02*
X288657Y119887D01*
X284643Y121550D01*
X281570Y124623D01*
X279907Y128637D01*
X279907Y132983D01*
X281570Y136997D01*
X284643Y140070D01*
X288657Y141733D01*
X293003Y141733D01*
X297017Y140070D01*
X300090Y136997D01*
X301753Y132983D01*
X301753Y128637D01*
X300090Y124623D01*
X297017Y121550D01*
X293003Y119887D01*
X288657Y119887D01*
G37*
%LPD*%
%LPC*%
G36*
X34657Y145287D02*
X34657Y145287D01*
X30643Y146950D01*
X27570Y150023D01*
X25907Y154037D01*
X25907Y158383D01*
X27570Y162397D01*
X30643Y165470D01*
X34657Y167133D01*
X39003Y167133D01*
X43017Y165470D01*
X46090Y162397D01*
X47753Y158383D01*
X47753Y154037D01*
X46090Y150023D01*
X43017Y146950D01*
X39003Y145287D01*
X34657Y145287D01*
G37*
%LPD*%
%LPC*%
G36*
X288657Y145287D02*
X288657Y145287D01*
X284643Y146950D01*
X281570Y150023D01*
X279907Y154037D01*
X279907Y158383D01*
X281570Y162397D01*
X284643Y165470D01*
X288657Y167133D01*
X293003Y167133D01*
X297017Y165470D01*
X300090Y162397D01*
X301753Y158383D01*
X301753Y154037D01*
X300090Y150023D01*
X297017Y146950D01*
X293003Y145287D01*
X288657Y145287D01*
G37*
%LPD*%
%LPC*%
G36*
X288657Y170687D02*
X288657Y170687D01*
X284643Y172350D01*
X281570Y175423D01*
X279907Y179437D01*
X279907Y183783D01*
X281570Y187797D01*
X284643Y190870D01*
X288657Y192533D01*
X293003Y192533D01*
X297017Y190870D01*
X300090Y187797D01*
X301753Y183783D01*
X301753Y179437D01*
X300090Y175423D01*
X297017Y172350D01*
X293003Y170687D01*
X288657Y170687D01*
G37*
%LPD*%
%LPC*%
G36*
X38353Y335533D02*
X38353Y335533D01*
X38353Y345856D01*
X39626Y345655D01*
X41413Y345074D01*
X43087Y344221D01*
X44608Y343116D01*
X45936Y341788D01*
X47041Y340267D01*
X47894Y338593D01*
X48475Y336806D01*
X48676Y335533D01*
X38353Y335533D01*
G37*
%LPD*%
%LPC*%
G36*
X292353Y335533D02*
X292353Y335533D01*
X292353Y345856D01*
X293626Y345655D01*
X295413Y345074D01*
X297087Y344221D01*
X298608Y343116D01*
X299936Y341788D01*
X301041Y340267D01*
X301894Y338593D01*
X302475Y336806D01*
X302676Y335533D01*
X292353Y335533D01*
G37*
%LPD*%
%LPC*%
G36*
X12953Y310133D02*
X12953Y310133D01*
X12953Y320456D01*
X14226Y320255D01*
X16013Y319674D01*
X17687Y318821D01*
X19208Y317716D01*
X20536Y316388D01*
X21641Y314867D01*
X22494Y313193D01*
X23075Y311406D01*
X23276Y310133D01*
X12953Y310133D01*
G37*
%LPD*%
%LPC*%
G36*
X38353Y310133D02*
X38353Y310133D01*
X38353Y320456D01*
X39626Y320255D01*
X41413Y319674D01*
X43087Y318821D01*
X44608Y317716D01*
X45936Y316388D01*
X47041Y314867D01*
X47894Y313193D01*
X48475Y311406D01*
X48676Y310133D01*
X38353Y310133D01*
G37*
%LPD*%
%LPC*%
G36*
X12953Y335533D02*
X12953Y335533D01*
X12953Y345856D01*
X14226Y345655D01*
X16013Y345074D01*
X17687Y344221D01*
X19208Y343116D01*
X20536Y341788D01*
X21641Y340267D01*
X22494Y338593D01*
X23075Y336806D01*
X23276Y335533D01*
X12953Y335533D01*
G37*
%LPD*%
%LPC*%
G36*
X12953Y30733D02*
X12953Y30733D01*
X12953Y41056D01*
X14226Y40855D01*
X16013Y40274D01*
X17687Y39421D01*
X19208Y38316D01*
X20536Y36988D01*
X21641Y35467D01*
X22494Y33793D01*
X23075Y32006D01*
X23276Y30733D01*
X12953Y30733D01*
G37*
%LPD*%
%LPC*%
G36*
X292353Y30733D02*
X292353Y30733D01*
X292353Y41056D01*
X293626Y40855D01*
X295413Y40274D01*
X297087Y39421D01*
X298608Y38316D01*
X299936Y36988D01*
X301041Y35467D01*
X301894Y33793D01*
X302475Y32006D01*
X302676Y30733D01*
X292353Y30733D01*
G37*
%LPD*%
%LPC*%
G36*
X292353Y284733D02*
X292353Y284733D01*
X292353Y295056D01*
X293626Y294855D01*
X295413Y294274D01*
X297087Y293421D01*
X298608Y292316D01*
X299936Y290988D01*
X301041Y289467D01*
X301894Y287793D01*
X302475Y286006D01*
X302676Y284733D01*
X292353Y284733D01*
G37*
%LPD*%
%LPC*%
G36*
X38353Y284733D02*
X38353Y284733D01*
X38353Y295056D01*
X39626Y294855D01*
X41413Y294274D01*
X43087Y293421D01*
X44608Y292316D01*
X45936Y290988D01*
X47041Y289467D01*
X47894Y287793D01*
X48475Y286006D01*
X48676Y284733D01*
X38353Y284733D01*
G37*
%LPD*%
%LPC*%
G36*
X12953Y284733D02*
X12953Y284733D01*
X12953Y295056D01*
X14226Y294855D01*
X16013Y294274D01*
X17687Y293421D01*
X19208Y292316D01*
X20536Y290988D01*
X21641Y289467D01*
X22494Y287793D01*
X23075Y286006D01*
X23276Y284733D01*
X12953Y284733D01*
G37*
%LPD*%
%LPC*%
G36*
X38353Y183133D02*
X38353Y183133D01*
X38353Y193456D01*
X39626Y193255D01*
X41413Y192674D01*
X43087Y191821D01*
X44608Y190716D01*
X45936Y189388D01*
X47041Y187867D01*
X47894Y186193D01*
X48475Y184406D01*
X48676Y183133D01*
X38353Y183133D01*
G37*
%LPD*%
%LPC*%
G36*
X38353Y208533D02*
X38353Y208533D01*
X38353Y218856D01*
X39626Y218655D01*
X41413Y218074D01*
X43087Y217221D01*
X44608Y216116D01*
X45936Y214788D01*
X47041Y213267D01*
X47894Y211593D01*
X48475Y209806D01*
X48676Y208533D01*
X38353Y208533D01*
G37*
%LPD*%
%LPC*%
G36*
X38353Y30733D02*
X38353Y30733D01*
X38353Y41056D01*
X39626Y40855D01*
X41413Y40274D01*
X43087Y39421D01*
X44608Y38316D01*
X45936Y36988D01*
X47041Y35467D01*
X47894Y33793D01*
X48475Y32006D01*
X48676Y30733D01*
X38353Y30733D01*
G37*
%LPD*%
%LPC*%
G36*
X24984Y335533D02*
X24984Y335533D01*
X25185Y336806D01*
X25766Y338593D01*
X26619Y340267D01*
X27724Y341788D01*
X29052Y343116D01*
X30573Y344221D01*
X32247Y345074D01*
X34034Y345655D01*
X35307Y345856D01*
X35307Y335533D01*
X24984Y335533D01*
G37*
%LPD*%
%LPC*%
G36*
X278984Y335533D02*
X278984Y335533D01*
X279185Y336806D01*
X279766Y338593D01*
X280619Y340267D01*
X281724Y341788D01*
X283052Y343116D01*
X284573Y344221D01*
X286247Y345074D01*
X288034Y345655D01*
X289307Y345856D01*
X289307Y335533D01*
X278984Y335533D01*
G37*
%LPD*%
%LPC*%
G36*
X304384Y335533D02*
X304384Y335533D01*
X304585Y336806D01*
X305166Y338593D01*
X306019Y340267D01*
X307124Y341788D01*
X308452Y343116D01*
X309973Y344221D01*
X311647Y345074D01*
X313434Y345655D01*
X314707Y345856D01*
X314707Y335533D01*
X304384Y335533D01*
G37*
%LPD*%
%LPC*%
G36*
X304384Y284733D02*
X304384Y284733D01*
X304585Y286006D01*
X305166Y287793D01*
X306019Y289467D01*
X307124Y290988D01*
X308452Y292316D01*
X309973Y293421D01*
X311647Y294274D01*
X313434Y294855D01*
X314707Y295056D01*
X314707Y284733D01*
X304384Y284733D01*
G37*
%LPD*%
%LPC*%
G36*
X24984Y284733D02*
X24984Y284733D01*
X25185Y286006D01*
X25766Y287793D01*
X26619Y289467D01*
X27724Y290988D01*
X29052Y292316D01*
X30573Y293421D01*
X32247Y294274D01*
X34034Y294855D01*
X35307Y295056D01*
X35307Y284733D01*
X24984Y284733D01*
G37*
%LPD*%
%LPC*%
G36*
X292353Y332487D02*
X292353Y332487D01*
X302676Y332487D01*
X302475Y331214D01*
X301894Y329427D01*
X301041Y327753D01*
X299936Y326232D01*
X298608Y324904D01*
X297087Y323799D01*
X295413Y322946D01*
X293626Y322365D01*
X292353Y322164D01*
X292353Y332487D01*
G37*
%LPD*%
%LPC*%
G36*
X38353Y307087D02*
X38353Y307087D01*
X48676Y307087D01*
X48475Y305814D01*
X47894Y304027D01*
X47041Y302353D01*
X45936Y300832D01*
X44608Y299504D01*
X43087Y298399D01*
X41413Y297546D01*
X39626Y296965D01*
X38353Y296764D01*
X38353Y307087D01*
G37*
%LPD*%
%LPC*%
G36*
X38353Y332487D02*
X38353Y332487D01*
X48676Y332487D01*
X48475Y331214D01*
X47894Y329427D01*
X47041Y327753D01*
X45936Y326232D01*
X44608Y324904D01*
X43087Y323799D01*
X41413Y322946D01*
X39626Y322365D01*
X38353Y322164D01*
X38353Y332487D01*
G37*
%LPD*%
%LPC*%
G36*
X12953Y281687D02*
X12953Y281687D01*
X23276Y281687D01*
X23075Y280414D01*
X22494Y278627D01*
X21641Y276953D01*
X20536Y275432D01*
X19208Y274104D01*
X17687Y272999D01*
X16013Y272146D01*
X14226Y271565D01*
X12953Y271364D01*
X12953Y281687D01*
G37*
%LPD*%
%LPC*%
G36*
X12953Y332487D02*
X12953Y332487D01*
X23276Y332487D01*
X23075Y331214D01*
X22494Y329427D01*
X21641Y327753D01*
X20536Y326232D01*
X19208Y324904D01*
X17687Y323799D01*
X16013Y322946D01*
X14226Y322365D01*
X12953Y322164D01*
X12953Y332487D01*
G37*
%LPD*%
%LPC*%
G36*
X24984Y310133D02*
X24984Y310133D01*
X25185Y311406D01*
X25766Y313193D01*
X26619Y314867D01*
X27724Y316388D01*
X29052Y317716D01*
X30573Y318821D01*
X32247Y319674D01*
X34034Y320255D01*
X35307Y320456D01*
X35307Y310133D01*
X24984Y310133D01*
G37*
%LPD*%
%LPC*%
G36*
X24984Y208533D02*
X24984Y208533D01*
X25185Y209806D01*
X25766Y211593D01*
X26619Y213267D01*
X27724Y214788D01*
X29052Y216116D01*
X30573Y217221D01*
X32247Y218074D01*
X34034Y218655D01*
X35307Y218856D01*
X35307Y208533D01*
X24984Y208533D01*
G37*
%LPD*%
%LPC*%
G36*
X38353Y281687D02*
X38353Y281687D01*
X48676Y281687D01*
X48475Y280414D01*
X47894Y278627D01*
X47041Y276953D01*
X45936Y275432D01*
X44608Y274104D01*
X43087Y272999D01*
X41413Y272146D01*
X39626Y271565D01*
X38353Y271364D01*
X38353Y281687D01*
G37*
%LPD*%
%LPC*%
G36*
X24984Y30733D02*
X24984Y30733D01*
X25185Y32006D01*
X25766Y33793D01*
X26619Y35467D01*
X27724Y36988D01*
X29052Y38316D01*
X30573Y39421D01*
X32247Y40274D01*
X34034Y40855D01*
X35307Y41056D01*
X35307Y30733D01*
X24984Y30733D01*
G37*
%LPD*%
%LPC*%
G36*
X38353Y205487D02*
X38353Y205487D01*
X48676Y205487D01*
X48475Y204214D01*
X47894Y202427D01*
X47041Y200753D01*
X45936Y199232D01*
X44608Y197904D01*
X43087Y196799D01*
X41413Y195946D01*
X39626Y195365D01*
X38353Y195164D01*
X38353Y205487D01*
G37*
%LPD*%
%LPC*%
G36*
X278984Y30733D02*
X278984Y30733D01*
X279185Y32006D01*
X279766Y33793D01*
X280619Y35467D01*
X281724Y36988D01*
X283052Y38316D01*
X284573Y39421D01*
X286247Y40274D01*
X288034Y40855D01*
X289307Y41056D01*
X289307Y30733D01*
X278984Y30733D01*
G37*
%LPD*%
%LPC*%
G36*
X304384Y30733D02*
X304384Y30733D01*
X304585Y32006D01*
X305166Y33793D01*
X306019Y35467D01*
X307124Y36988D01*
X308452Y38316D01*
X309973Y39421D01*
X311647Y40274D01*
X313434Y40855D01*
X314707Y41056D01*
X314707Y30733D01*
X304384Y30733D01*
G37*
%LPD*%
%LPC*%
G36*
X24984Y183133D02*
X24984Y183133D01*
X25185Y184406D01*
X25766Y186193D01*
X26619Y187867D01*
X27724Y189388D01*
X29052Y190716D01*
X30573Y191821D01*
X32247Y192674D01*
X34034Y193255D01*
X35307Y193456D01*
X35307Y183133D01*
X24984Y183133D01*
G37*
%LPD*%
%LPC*%
G36*
X12953Y307087D02*
X12953Y307087D01*
X23276Y307087D01*
X23075Y305814D01*
X22494Y304027D01*
X21641Y302353D01*
X20536Y300832D01*
X19208Y299504D01*
X17687Y298399D01*
X16013Y297546D01*
X14226Y296965D01*
X12953Y296764D01*
X12953Y307087D01*
G37*
%LPD*%
%LPC*%
G36*
X292353Y27687D02*
X292353Y27687D01*
X302676Y27687D01*
X302475Y26414D01*
X301894Y24627D01*
X301041Y22953D01*
X299936Y21432D01*
X298608Y20104D01*
X297087Y18999D01*
X295413Y18146D01*
X293626Y17565D01*
X292353Y17364D01*
X292353Y27687D01*
G37*
%LPD*%
%LPC*%
G36*
X38353Y180087D02*
X38353Y180087D01*
X48676Y180087D01*
X48475Y178814D01*
X47894Y177027D01*
X47041Y175353D01*
X45936Y173832D01*
X44608Y172504D01*
X43087Y171399D01*
X41413Y170546D01*
X39626Y169965D01*
X38353Y169764D01*
X38353Y180087D01*
G37*
%LPD*%
%LPC*%
G36*
X38353Y27687D02*
X38353Y27687D01*
X48676Y27687D01*
X48475Y26414D01*
X47894Y24627D01*
X47041Y22953D01*
X45936Y21432D01*
X44608Y20104D01*
X43087Y18999D01*
X41413Y18146D01*
X39626Y17565D01*
X38353Y17364D01*
X38353Y27687D01*
G37*
%LPD*%
%LPC*%
G36*
X292353Y281687D02*
X292353Y281687D01*
X302676Y281687D01*
X302475Y280414D01*
X301894Y278627D01*
X301041Y276953D01*
X299936Y275432D01*
X298608Y274104D01*
X297087Y272999D01*
X295413Y272146D01*
X293626Y271565D01*
X292353Y271364D01*
X292353Y281687D01*
G37*
%LPD*%
%LPC*%
G36*
X12953Y27687D02*
X12953Y27687D01*
X23276Y27687D01*
X23075Y26414D01*
X22494Y24627D01*
X21641Y22953D01*
X20536Y21432D01*
X19208Y20104D01*
X17687Y18999D01*
X16013Y18146D01*
X14226Y17565D01*
X12953Y17364D01*
X12953Y27687D01*
G37*
%LPD*%
%LPC*%
G36*
X278984Y284733D02*
X278984Y284733D01*
X279185Y286006D01*
X279766Y287793D01*
X280619Y289467D01*
X281724Y290988D01*
X283052Y292316D01*
X284573Y293421D01*
X286247Y294274D01*
X288034Y294855D01*
X289307Y295056D01*
X289307Y284733D01*
X278984Y284733D01*
G37*
%LPD*%
%LPC*%
G36*
X288034Y322365D02*
X288034Y322365D01*
X286247Y322946D01*
X284573Y323799D01*
X283052Y324904D01*
X281724Y326232D01*
X280619Y327753D01*
X279766Y329427D01*
X279185Y331214D01*
X278984Y332487D01*
X289307Y332487D01*
X289307Y322164D01*
X288034Y322365D01*
G37*
%LPD*%
%LPC*%
G36*
X34034Y322365D02*
X34034Y322365D01*
X32247Y322946D01*
X30573Y323799D01*
X29052Y324904D01*
X27724Y326232D01*
X26619Y327753D01*
X25766Y329427D01*
X25185Y331214D01*
X24984Y332487D01*
X35307Y332487D01*
X35307Y322164D01*
X34034Y322365D01*
G37*
%LPD*%
%LPC*%
G36*
X313434Y322365D02*
X313434Y322365D01*
X311647Y322946D01*
X309973Y323799D01*
X308452Y324904D01*
X307124Y326232D01*
X306019Y327753D01*
X305166Y329427D01*
X304585Y331214D01*
X304384Y332487D01*
X314707Y332487D01*
X314707Y322164D01*
X313434Y322365D01*
G37*
%LPD*%
%LPC*%
G36*
X34034Y195365D02*
X34034Y195365D01*
X32247Y195946D01*
X30573Y196799D01*
X29052Y197904D01*
X27724Y199232D01*
X26619Y200753D01*
X25766Y202427D01*
X25185Y204214D01*
X24984Y205487D01*
X35307Y205487D01*
X35307Y195164D01*
X34034Y195365D01*
G37*
%LPD*%
%LPC*%
G36*
X34034Y169965D02*
X34034Y169965D01*
X32247Y170546D01*
X30573Y171399D01*
X29052Y172504D01*
X27724Y173832D01*
X26619Y175353D01*
X25766Y177027D01*
X25185Y178814D01*
X24984Y180087D01*
X35307Y180087D01*
X35307Y169764D01*
X34034Y169965D01*
G37*
%LPD*%
%LPC*%
G36*
X34034Y271565D02*
X34034Y271565D01*
X32247Y272146D01*
X30573Y272999D01*
X29052Y274104D01*
X27724Y275432D01*
X26619Y276953D01*
X25766Y278627D01*
X25185Y280414D01*
X24984Y281687D01*
X35307Y281687D01*
X35307Y271364D01*
X34034Y271565D01*
G37*
%LPD*%
%LPC*%
G36*
X288034Y271565D02*
X288034Y271565D01*
X286247Y272146D01*
X284573Y272999D01*
X283052Y274104D01*
X281724Y275432D01*
X280619Y276953D01*
X279766Y278627D01*
X279185Y280414D01*
X278984Y281687D01*
X289307Y281687D01*
X289307Y271364D01*
X288034Y271565D01*
G37*
%LPD*%
%LPC*%
G36*
X313434Y271565D02*
X313434Y271565D01*
X311647Y272146D01*
X309973Y272999D01*
X308452Y274104D01*
X307124Y275432D01*
X306019Y276953D01*
X305166Y278627D01*
X304585Y280414D01*
X304384Y281687D01*
X314707Y281687D01*
X314707Y271364D01*
X313434Y271565D01*
G37*
%LPD*%
%LPC*%
G36*
X288034Y17565D02*
X288034Y17565D01*
X286247Y18146D01*
X284573Y18999D01*
X283052Y20104D01*
X281724Y21432D01*
X280619Y22953D01*
X279766Y24627D01*
X279185Y26414D01*
X278984Y27687D01*
X289307Y27687D01*
X289307Y17364D01*
X288034Y17565D01*
G37*
%LPD*%
%LPC*%
G36*
X34034Y296965D02*
X34034Y296965D01*
X32247Y297546D01*
X30573Y298399D01*
X29052Y299504D01*
X27724Y300832D01*
X26619Y302353D01*
X25766Y304027D01*
X25185Y305814D01*
X24984Y307087D01*
X35307Y307087D01*
X35307Y296764D01*
X34034Y296965D01*
G37*
%LPD*%
%LPC*%
G36*
X34034Y17565D02*
X34034Y17565D01*
X32247Y18146D01*
X30573Y18999D01*
X29052Y20104D01*
X27724Y21432D01*
X26619Y22953D01*
X25766Y24627D01*
X25185Y26414D01*
X24984Y27687D01*
X35307Y27687D01*
X35307Y17364D01*
X34034Y17565D01*
G37*
%LPD*%
%LPC*%
G36*
X313434Y17565D02*
X313434Y17565D01*
X311647Y18146D01*
X309973Y18999D01*
X308452Y20104D01*
X307124Y21432D01*
X306019Y22953D01*
X305166Y24627D01*
X304585Y26414D01*
X304384Y27687D01*
X314707Y27687D01*
X314707Y17364D01*
X313434Y17565D01*
G37*
%LPD*%
%LPC*%
G36*
X290829Y334009D02*
X290829Y334009D01*
X290829Y334011D01*
X290831Y334011D01*
X290831Y334009D01*
X290829Y334009D01*
G37*
%LPD*%
%LPC*%
G36*
X36829Y334009D02*
X36829Y334009D01*
X36829Y334011D01*
X36831Y334011D01*
X36831Y334009D01*
X36829Y334009D01*
G37*
%LPD*%
%LPC*%
G36*
X36829Y207009D02*
X36829Y207009D01*
X36829Y207011D01*
X36831Y207011D01*
X36831Y207009D01*
X36829Y207009D01*
G37*
%LPD*%
%LPC*%
G36*
X290829Y283209D02*
X290829Y283209D01*
X290829Y283211D01*
X290831Y283211D01*
X290831Y283209D01*
X290829Y283209D01*
G37*
%LPD*%
%LPC*%
G36*
X36829Y181609D02*
X36829Y181609D01*
X36829Y181611D01*
X36831Y181611D01*
X36831Y181609D01*
X36829Y181609D01*
G37*
%LPD*%
%LPC*%
G36*
X36829Y283209D02*
X36829Y283209D01*
X36829Y283211D01*
X36831Y283211D01*
X36831Y283209D01*
X36829Y283209D01*
G37*
%LPD*%
%LPC*%
G36*
X36829Y308609D02*
X36829Y308609D01*
X36829Y308611D01*
X36831Y308611D01*
X36831Y308609D01*
X36829Y308609D01*
G37*
%LPD*%
%LPC*%
G36*
X290829Y29209D02*
X290829Y29209D01*
X290829Y29211D01*
X290831Y29211D01*
X290831Y29209D01*
X290829Y29209D01*
G37*
%LPD*%
%LPC*%
G36*
X36829Y29209D02*
X36829Y29209D01*
X36829Y29211D01*
X36831Y29211D01*
X36831Y29209D01*
X36829Y29209D01*
G37*
%LPD*%
D10*
X11430Y29210D03*
X11430Y54610D03*
X11430Y80010D03*
X11430Y105410D03*
X11430Y130810D03*
X11430Y156210D03*
X11430Y181610D03*
X11430Y207010D03*
X11430Y232410D03*
X11430Y257810D03*
X11430Y283210D03*
X11430Y308610D03*
X11430Y334010D03*
X316230Y334010D03*
X316230Y308610D03*
X316230Y283210D03*
X316230Y257810D03*
X316230Y232410D03*
X316230Y207010D03*
X316230Y181610D03*
X316230Y156210D03*
X316230Y130810D03*
X316230Y105410D03*
X316230Y80010D03*
X316230Y54610D03*
X316230Y29210D03*
X36830Y29210D03*
X36830Y54610D03*
X36830Y80010D03*
X36830Y105410D03*
X36830Y130810D03*
X36830Y156210D03*
X36830Y181610D03*
X36830Y207010D03*
X36830Y232410D03*
X36830Y257810D03*
X36830Y283210D03*
X36830Y308610D03*
X36830Y334010D03*
X290830Y334010D03*
X290830Y308610D03*
X290830Y283210D03*
X290830Y257810D03*
X290830Y232410D03*
X290830Y207010D03*
X290830Y181610D03*
X290830Y156210D03*
X290830Y130810D03*
X290830Y105410D03*
X290830Y80010D03*
X290830Y54610D03*
X290830Y29210D03*
D11*
X6350Y6350D03*
X19050Y6350D03*
X31750Y6350D03*
X44450Y6350D03*
X57150Y6350D03*
X69850Y6350D03*
X82550Y6350D03*
X95250Y6350D03*
X107950Y6350D03*
X120650Y6350D03*
X133350Y6350D03*
X146050Y6350D03*
X158750Y6350D03*
X171450Y6350D03*
X184150Y6350D03*
X196850Y6350D03*
X209550Y6350D03*
X222250Y6350D03*
X234950Y6350D03*
X247650Y6350D03*
X260350Y6350D03*
X273050Y6350D03*
X285750Y6350D03*
X298450Y6350D03*
X311150Y6350D03*
X6350Y381000D03*
X19050Y381000D03*
X31750Y381000D03*
X44450Y381000D03*
X57150Y381000D03*
X69850Y381000D03*
X82550Y381000D03*
X95250Y381000D03*
X107950Y381000D03*
X120650Y381000D03*
X133350Y381000D03*
X146050Y381000D03*
X158750Y381000D03*
X171450Y381000D03*
X184150Y381000D03*
X196850Y381000D03*
X209550Y381000D03*
X222250Y381000D03*
X234950Y381000D03*
X247650Y381000D03*
X260350Y381000D03*
X273050Y381000D03*
X285750Y381000D03*
X298450Y381000D03*
X311150Y381000D03*
X6350Y368300D03*
X6350Y355600D03*
X317500Y368300D03*
X317500Y355600D03*
X69850Y25400D03*
X69850Y50800D03*
X69850Y76200D03*
X101600Y25400D03*
X101600Y50800D03*
X101600Y76200D03*
X101600Y107950D03*
X101600Y139700D03*
X139700Y25400D03*
X139700Y50800D03*
X139700Y76200D03*
X139700Y107950D03*
X139700Y139700D03*
X177800Y25400D03*
X177800Y50800D03*
X177800Y76200D03*
X177800Y107950D03*
X177800Y139700D03*
X215900Y25400D03*
X215900Y50800D03*
X215900Y76200D03*
X215900Y107950D03*
X215900Y139700D03*
X254000Y25400D03*
X254000Y50800D03*
X139700Y177800D03*
X139700Y215900D03*
X139700Y254000D03*
X139700Y298450D03*
X139700Y342900D03*
X177800Y177800D03*
X177800Y215900D03*
X177800Y254000D03*
X177800Y298450D03*
X177800Y342900D03*
X63500Y254000D03*
X63500Y298450D03*
X63500Y342900D03*
X215900Y298450D03*
X215900Y254000D03*
X215900Y215900D03*
X215900Y177800D03*
M02*
