G04 EAGLE Gerber RS-274X export*
G75*
%MOMM*%
%FSLAX34Y34*%
%LPD*%
%INSilkscreen Bottom*%
%IPPOS*%
%AMOC8*
5,1,8,0,0,1.08239X$1,22.5*%
G01*
%ADD10C,0.152400*%


D10*
X77101Y334165D02*
X75855Y334165D01*
X75855Y330012D01*
X78347Y330012D01*
X78426Y330014D01*
X78505Y330020D01*
X78583Y330029D01*
X78661Y330042D01*
X78739Y330059D01*
X78815Y330079D01*
X78890Y330103D01*
X78964Y330131D01*
X79037Y330162D01*
X79108Y330197D01*
X79178Y330235D01*
X79245Y330276D01*
X79310Y330320D01*
X79374Y330367D01*
X79435Y330418D01*
X79493Y330471D01*
X79549Y330527D01*
X79602Y330585D01*
X79653Y330646D01*
X79700Y330710D01*
X79744Y330775D01*
X79785Y330843D01*
X79823Y330912D01*
X79858Y330983D01*
X79889Y331056D01*
X79917Y331130D01*
X79941Y331205D01*
X79961Y331281D01*
X79978Y331359D01*
X79991Y331437D01*
X80000Y331515D01*
X80006Y331594D01*
X80008Y331673D01*
X80008Y335827D01*
X80006Y335906D01*
X80000Y335985D01*
X79991Y336063D01*
X79978Y336141D01*
X79961Y336219D01*
X79941Y336295D01*
X79917Y336370D01*
X79889Y336444D01*
X79858Y336517D01*
X79823Y336588D01*
X79785Y336658D01*
X79744Y336725D01*
X79700Y336790D01*
X79653Y336854D01*
X79602Y336915D01*
X79549Y336973D01*
X79493Y337029D01*
X79435Y337082D01*
X79374Y337133D01*
X79310Y337180D01*
X79245Y337224D01*
X79178Y337265D01*
X79108Y337303D01*
X79037Y337338D01*
X78964Y337369D01*
X78890Y337397D01*
X78815Y337421D01*
X78739Y337441D01*
X78661Y337458D01*
X78583Y337471D01*
X78505Y337480D01*
X78426Y337486D01*
X78347Y337488D01*
X75855Y337488D01*
X71368Y337488D02*
X71368Y330012D01*
X67215Y330012D02*
X71368Y337488D01*
X67215Y337488D02*
X67215Y330012D01*
X62728Y330012D02*
X62728Y337488D01*
X60651Y337488D01*
X60563Y337486D01*
X60475Y337481D01*
X60387Y337471D01*
X60300Y337458D01*
X60213Y337441D01*
X60128Y337421D01*
X60043Y337397D01*
X59959Y337369D01*
X59877Y337338D01*
X59795Y337304D01*
X59716Y337266D01*
X59638Y337224D01*
X59562Y337180D01*
X59488Y337132D01*
X59416Y337081D01*
X59346Y337027D01*
X59279Y336970D01*
X59214Y336911D01*
X59151Y336848D01*
X59092Y336783D01*
X59035Y336716D01*
X58981Y336646D01*
X58930Y336574D01*
X58882Y336500D01*
X58838Y336424D01*
X58796Y336346D01*
X58758Y336267D01*
X58724Y336185D01*
X58693Y336103D01*
X58665Y336019D01*
X58641Y335934D01*
X58621Y335849D01*
X58604Y335762D01*
X58591Y335675D01*
X58581Y335587D01*
X58576Y335499D01*
X58574Y335411D01*
X58575Y335411D02*
X58575Y332089D01*
X58574Y332089D02*
X58576Y332001D01*
X58581Y331913D01*
X58591Y331825D01*
X58604Y331738D01*
X58621Y331651D01*
X58641Y331566D01*
X58665Y331481D01*
X58693Y331397D01*
X58724Y331315D01*
X58758Y331233D01*
X58796Y331154D01*
X58838Y331076D01*
X58882Y331000D01*
X58930Y330926D01*
X58981Y330854D01*
X59035Y330784D01*
X59092Y330717D01*
X59151Y330652D01*
X59214Y330589D01*
X59279Y330530D01*
X59346Y330473D01*
X59416Y330419D01*
X59488Y330368D01*
X59562Y330320D01*
X59638Y330276D01*
X59716Y330234D01*
X59795Y330196D01*
X59877Y330162D01*
X59959Y330131D01*
X60043Y330103D01*
X60128Y330079D01*
X60213Y330059D01*
X60300Y330042D01*
X60387Y330029D01*
X60475Y330019D01*
X60563Y330014D01*
X60651Y330012D01*
X62728Y330012D01*
X75855Y310035D02*
X77101Y310035D01*
X75855Y310035D02*
X75855Y305882D01*
X78347Y305882D01*
X78426Y305884D01*
X78505Y305890D01*
X78583Y305899D01*
X78661Y305912D01*
X78739Y305929D01*
X78815Y305949D01*
X78890Y305973D01*
X78964Y306001D01*
X79037Y306032D01*
X79108Y306067D01*
X79178Y306105D01*
X79245Y306146D01*
X79310Y306190D01*
X79374Y306237D01*
X79435Y306288D01*
X79493Y306341D01*
X79549Y306397D01*
X79602Y306455D01*
X79653Y306516D01*
X79700Y306580D01*
X79744Y306645D01*
X79785Y306713D01*
X79823Y306782D01*
X79858Y306853D01*
X79889Y306926D01*
X79917Y307000D01*
X79941Y307075D01*
X79961Y307151D01*
X79978Y307229D01*
X79991Y307307D01*
X80000Y307385D01*
X80006Y307464D01*
X80008Y307543D01*
X80008Y311697D01*
X80006Y311776D01*
X80000Y311855D01*
X79991Y311933D01*
X79978Y312011D01*
X79961Y312089D01*
X79941Y312165D01*
X79917Y312240D01*
X79889Y312314D01*
X79858Y312387D01*
X79823Y312458D01*
X79785Y312528D01*
X79744Y312595D01*
X79700Y312660D01*
X79653Y312724D01*
X79602Y312785D01*
X79549Y312843D01*
X79493Y312899D01*
X79435Y312952D01*
X79374Y313003D01*
X79310Y313050D01*
X79245Y313094D01*
X79178Y313135D01*
X79108Y313173D01*
X79037Y313208D01*
X78964Y313239D01*
X78890Y313267D01*
X78815Y313291D01*
X78739Y313311D01*
X78661Y313328D01*
X78583Y313341D01*
X78505Y313350D01*
X78426Y313356D01*
X78347Y313358D01*
X75855Y313358D01*
X71368Y313358D02*
X71368Y305882D01*
X67215Y305882D02*
X71368Y313358D01*
X67215Y313358D02*
X67215Y305882D01*
X62728Y305882D02*
X62728Y313358D01*
X60651Y313358D01*
X60563Y313356D01*
X60475Y313351D01*
X60387Y313341D01*
X60300Y313328D01*
X60213Y313311D01*
X60128Y313291D01*
X60043Y313267D01*
X59959Y313239D01*
X59877Y313208D01*
X59795Y313174D01*
X59716Y313136D01*
X59638Y313094D01*
X59562Y313050D01*
X59488Y313002D01*
X59416Y312951D01*
X59346Y312897D01*
X59279Y312840D01*
X59214Y312781D01*
X59151Y312718D01*
X59092Y312653D01*
X59035Y312586D01*
X58981Y312516D01*
X58930Y312444D01*
X58882Y312370D01*
X58838Y312294D01*
X58796Y312216D01*
X58758Y312137D01*
X58724Y312055D01*
X58693Y311973D01*
X58665Y311889D01*
X58641Y311804D01*
X58621Y311719D01*
X58604Y311632D01*
X58591Y311545D01*
X58581Y311457D01*
X58576Y311369D01*
X58574Y311281D01*
X58575Y311281D02*
X58575Y307959D01*
X58574Y307959D02*
X58576Y307871D01*
X58581Y307783D01*
X58591Y307695D01*
X58604Y307608D01*
X58621Y307521D01*
X58641Y307436D01*
X58665Y307351D01*
X58693Y307267D01*
X58724Y307185D01*
X58758Y307103D01*
X58796Y307024D01*
X58838Y306946D01*
X58882Y306870D01*
X58930Y306796D01*
X58981Y306724D01*
X59035Y306654D01*
X59092Y306587D01*
X59151Y306522D01*
X59214Y306459D01*
X59279Y306400D01*
X59346Y306343D01*
X59416Y306289D01*
X59488Y306238D01*
X59562Y306190D01*
X59638Y306146D01*
X59716Y306104D01*
X59795Y306066D01*
X59877Y306032D01*
X59959Y306001D01*
X60043Y305973D01*
X60128Y305949D01*
X60213Y305929D01*
X60300Y305912D01*
X60387Y305899D01*
X60475Y305889D01*
X60563Y305884D01*
X60651Y305882D01*
X62728Y305882D01*
X75855Y284635D02*
X77101Y284635D01*
X75855Y284635D02*
X75855Y280482D01*
X78347Y280482D01*
X78426Y280484D01*
X78505Y280490D01*
X78583Y280499D01*
X78661Y280512D01*
X78739Y280529D01*
X78815Y280549D01*
X78890Y280573D01*
X78964Y280601D01*
X79037Y280632D01*
X79108Y280667D01*
X79178Y280705D01*
X79245Y280746D01*
X79310Y280790D01*
X79374Y280837D01*
X79435Y280888D01*
X79493Y280941D01*
X79549Y280997D01*
X79602Y281055D01*
X79653Y281116D01*
X79700Y281180D01*
X79744Y281245D01*
X79785Y281313D01*
X79823Y281382D01*
X79858Y281453D01*
X79889Y281526D01*
X79917Y281600D01*
X79941Y281675D01*
X79961Y281751D01*
X79978Y281829D01*
X79991Y281907D01*
X80000Y281985D01*
X80006Y282064D01*
X80008Y282143D01*
X80008Y286297D01*
X80006Y286376D01*
X80000Y286455D01*
X79991Y286533D01*
X79978Y286611D01*
X79961Y286689D01*
X79941Y286765D01*
X79917Y286840D01*
X79889Y286914D01*
X79858Y286987D01*
X79823Y287058D01*
X79785Y287128D01*
X79744Y287195D01*
X79700Y287260D01*
X79653Y287324D01*
X79602Y287385D01*
X79549Y287443D01*
X79493Y287499D01*
X79435Y287552D01*
X79374Y287603D01*
X79310Y287650D01*
X79245Y287694D01*
X79178Y287735D01*
X79108Y287773D01*
X79037Y287808D01*
X78964Y287839D01*
X78890Y287867D01*
X78815Y287891D01*
X78739Y287911D01*
X78661Y287928D01*
X78583Y287941D01*
X78505Y287950D01*
X78426Y287956D01*
X78347Y287958D01*
X75855Y287958D01*
X71368Y287958D02*
X71368Y280482D01*
X67215Y280482D02*
X71368Y287958D01*
X67215Y287958D02*
X67215Y280482D01*
X62728Y280482D02*
X62728Y287958D01*
X60651Y287958D01*
X60563Y287956D01*
X60475Y287951D01*
X60387Y287941D01*
X60300Y287928D01*
X60213Y287911D01*
X60128Y287891D01*
X60043Y287867D01*
X59959Y287839D01*
X59877Y287808D01*
X59795Y287774D01*
X59716Y287736D01*
X59638Y287694D01*
X59562Y287650D01*
X59488Y287602D01*
X59416Y287551D01*
X59346Y287497D01*
X59279Y287440D01*
X59214Y287381D01*
X59151Y287318D01*
X59092Y287253D01*
X59035Y287186D01*
X58981Y287116D01*
X58930Y287044D01*
X58882Y286970D01*
X58838Y286894D01*
X58796Y286816D01*
X58758Y286737D01*
X58724Y286655D01*
X58693Y286573D01*
X58665Y286489D01*
X58641Y286404D01*
X58621Y286319D01*
X58604Y286232D01*
X58591Y286145D01*
X58581Y286057D01*
X58576Y285969D01*
X58574Y285881D01*
X58575Y285881D02*
X58575Y282559D01*
X58574Y282559D02*
X58576Y282471D01*
X58581Y282383D01*
X58591Y282295D01*
X58604Y282208D01*
X58621Y282121D01*
X58641Y282036D01*
X58665Y281951D01*
X58693Y281867D01*
X58724Y281785D01*
X58758Y281703D01*
X58796Y281624D01*
X58838Y281546D01*
X58882Y281470D01*
X58930Y281396D01*
X58981Y281324D01*
X59035Y281254D01*
X59092Y281187D01*
X59151Y281122D01*
X59214Y281059D01*
X59279Y281000D01*
X59346Y280943D01*
X59416Y280889D01*
X59488Y280838D01*
X59562Y280790D01*
X59638Y280746D01*
X59716Y280704D01*
X59795Y280666D01*
X59877Y280632D01*
X59959Y280601D01*
X60043Y280573D01*
X60128Y280549D01*
X60213Y280529D01*
X60300Y280512D01*
X60387Y280499D01*
X60475Y280489D01*
X60563Y280484D01*
X60651Y280482D01*
X62728Y280482D01*
X75855Y207165D02*
X77101Y207165D01*
X75855Y207165D02*
X75855Y203012D01*
X78347Y203012D01*
X78426Y203014D01*
X78505Y203020D01*
X78583Y203029D01*
X78661Y203042D01*
X78739Y203059D01*
X78815Y203079D01*
X78890Y203103D01*
X78964Y203131D01*
X79037Y203162D01*
X79108Y203197D01*
X79178Y203235D01*
X79245Y203276D01*
X79310Y203320D01*
X79374Y203367D01*
X79435Y203418D01*
X79493Y203471D01*
X79549Y203527D01*
X79602Y203585D01*
X79653Y203646D01*
X79700Y203710D01*
X79744Y203775D01*
X79785Y203843D01*
X79823Y203912D01*
X79858Y203983D01*
X79889Y204056D01*
X79917Y204130D01*
X79941Y204205D01*
X79961Y204281D01*
X79978Y204359D01*
X79991Y204437D01*
X80000Y204515D01*
X80006Y204594D01*
X80008Y204673D01*
X80008Y208827D01*
X80006Y208906D01*
X80000Y208985D01*
X79991Y209063D01*
X79978Y209141D01*
X79961Y209219D01*
X79941Y209295D01*
X79917Y209370D01*
X79889Y209444D01*
X79858Y209517D01*
X79823Y209588D01*
X79785Y209658D01*
X79744Y209725D01*
X79700Y209790D01*
X79653Y209854D01*
X79602Y209915D01*
X79549Y209973D01*
X79493Y210029D01*
X79435Y210082D01*
X79374Y210133D01*
X79310Y210180D01*
X79245Y210224D01*
X79178Y210265D01*
X79108Y210303D01*
X79037Y210338D01*
X78964Y210369D01*
X78890Y210397D01*
X78815Y210421D01*
X78739Y210441D01*
X78661Y210458D01*
X78583Y210471D01*
X78505Y210480D01*
X78426Y210486D01*
X78347Y210488D01*
X75855Y210488D01*
X71368Y210488D02*
X71368Y203012D01*
X67215Y203012D02*
X71368Y210488D01*
X67215Y210488D02*
X67215Y203012D01*
X62728Y203012D02*
X62728Y210488D01*
X60651Y210488D01*
X60563Y210486D01*
X60475Y210481D01*
X60387Y210471D01*
X60300Y210458D01*
X60213Y210441D01*
X60128Y210421D01*
X60043Y210397D01*
X59959Y210369D01*
X59877Y210338D01*
X59795Y210304D01*
X59716Y210266D01*
X59638Y210224D01*
X59562Y210180D01*
X59488Y210132D01*
X59416Y210081D01*
X59346Y210027D01*
X59279Y209970D01*
X59214Y209911D01*
X59151Y209848D01*
X59092Y209783D01*
X59035Y209716D01*
X58981Y209646D01*
X58930Y209574D01*
X58882Y209500D01*
X58838Y209424D01*
X58796Y209346D01*
X58758Y209267D01*
X58724Y209185D01*
X58693Y209103D01*
X58665Y209019D01*
X58641Y208934D01*
X58621Y208849D01*
X58604Y208762D01*
X58591Y208675D01*
X58581Y208587D01*
X58576Y208499D01*
X58574Y208411D01*
X58575Y208411D02*
X58575Y205089D01*
X58574Y205089D02*
X58576Y205001D01*
X58581Y204913D01*
X58591Y204825D01*
X58604Y204738D01*
X58621Y204651D01*
X58641Y204566D01*
X58665Y204481D01*
X58693Y204397D01*
X58724Y204315D01*
X58758Y204233D01*
X58796Y204154D01*
X58838Y204076D01*
X58882Y204000D01*
X58930Y203926D01*
X58981Y203854D01*
X59035Y203784D01*
X59092Y203717D01*
X59151Y203652D01*
X59214Y203589D01*
X59279Y203530D01*
X59346Y203473D01*
X59416Y203419D01*
X59488Y203368D01*
X59562Y203320D01*
X59638Y203276D01*
X59716Y203234D01*
X59795Y203196D01*
X59877Y203162D01*
X59959Y203131D01*
X60043Y203103D01*
X60128Y203079D01*
X60213Y203059D01*
X60300Y203042D01*
X60387Y203029D01*
X60475Y203019D01*
X60563Y203014D01*
X60651Y203012D01*
X62728Y203012D01*
X75855Y183035D02*
X77101Y183035D01*
X75855Y183035D02*
X75855Y178882D01*
X78347Y178882D01*
X78426Y178884D01*
X78505Y178890D01*
X78583Y178899D01*
X78661Y178912D01*
X78739Y178929D01*
X78815Y178949D01*
X78890Y178973D01*
X78964Y179001D01*
X79037Y179032D01*
X79108Y179067D01*
X79178Y179105D01*
X79245Y179146D01*
X79310Y179190D01*
X79374Y179237D01*
X79435Y179288D01*
X79493Y179341D01*
X79549Y179397D01*
X79602Y179455D01*
X79653Y179516D01*
X79700Y179580D01*
X79744Y179645D01*
X79785Y179713D01*
X79823Y179782D01*
X79858Y179853D01*
X79889Y179926D01*
X79917Y180000D01*
X79941Y180075D01*
X79961Y180151D01*
X79978Y180229D01*
X79991Y180307D01*
X80000Y180385D01*
X80006Y180464D01*
X80008Y180543D01*
X80008Y184697D01*
X80006Y184776D01*
X80000Y184855D01*
X79991Y184933D01*
X79978Y185011D01*
X79961Y185089D01*
X79941Y185165D01*
X79917Y185240D01*
X79889Y185314D01*
X79858Y185387D01*
X79823Y185458D01*
X79785Y185528D01*
X79744Y185595D01*
X79700Y185660D01*
X79653Y185724D01*
X79602Y185785D01*
X79549Y185843D01*
X79493Y185899D01*
X79435Y185952D01*
X79374Y186003D01*
X79310Y186050D01*
X79245Y186094D01*
X79178Y186135D01*
X79108Y186173D01*
X79037Y186208D01*
X78964Y186239D01*
X78890Y186267D01*
X78815Y186291D01*
X78739Y186311D01*
X78661Y186328D01*
X78583Y186341D01*
X78505Y186350D01*
X78426Y186356D01*
X78347Y186358D01*
X75855Y186358D01*
X71368Y186358D02*
X71368Y178882D01*
X67215Y178882D02*
X71368Y186358D01*
X67215Y186358D02*
X67215Y178882D01*
X62728Y178882D02*
X62728Y186358D01*
X60651Y186358D01*
X60563Y186356D01*
X60475Y186351D01*
X60387Y186341D01*
X60300Y186328D01*
X60213Y186311D01*
X60128Y186291D01*
X60043Y186267D01*
X59959Y186239D01*
X59877Y186208D01*
X59795Y186174D01*
X59716Y186136D01*
X59638Y186094D01*
X59562Y186050D01*
X59488Y186002D01*
X59416Y185951D01*
X59346Y185897D01*
X59279Y185840D01*
X59214Y185781D01*
X59151Y185718D01*
X59092Y185653D01*
X59035Y185586D01*
X58981Y185516D01*
X58930Y185444D01*
X58882Y185370D01*
X58838Y185294D01*
X58796Y185216D01*
X58758Y185137D01*
X58724Y185055D01*
X58693Y184973D01*
X58665Y184889D01*
X58641Y184804D01*
X58621Y184719D01*
X58604Y184632D01*
X58591Y184545D01*
X58581Y184457D01*
X58576Y184369D01*
X58574Y184281D01*
X58575Y184281D02*
X58575Y180959D01*
X58574Y180959D02*
X58576Y180871D01*
X58581Y180783D01*
X58591Y180695D01*
X58604Y180608D01*
X58621Y180521D01*
X58641Y180436D01*
X58665Y180351D01*
X58693Y180267D01*
X58724Y180185D01*
X58758Y180103D01*
X58796Y180024D01*
X58838Y179946D01*
X58882Y179870D01*
X58930Y179796D01*
X58981Y179724D01*
X59035Y179654D01*
X59092Y179587D01*
X59151Y179522D01*
X59214Y179459D01*
X59279Y179400D01*
X59346Y179343D01*
X59416Y179289D01*
X59488Y179238D01*
X59562Y179190D01*
X59638Y179146D01*
X59716Y179104D01*
X59795Y179066D01*
X59877Y179032D01*
X59959Y179001D01*
X60043Y178973D01*
X60128Y178949D01*
X60213Y178929D01*
X60300Y178912D01*
X60387Y178899D01*
X60475Y178889D01*
X60563Y178884D01*
X60651Y178882D01*
X62728Y178882D01*
X86358Y160958D02*
X86358Y153482D01*
X86358Y160958D02*
X84281Y160958D01*
X84192Y160956D01*
X84102Y160950D01*
X84014Y160941D01*
X83925Y160927D01*
X83838Y160910D01*
X83751Y160889D01*
X83665Y160864D01*
X83580Y160836D01*
X83497Y160804D01*
X83414Y160769D01*
X83334Y160730D01*
X83255Y160687D01*
X83179Y160641D01*
X83104Y160592D01*
X83031Y160540D01*
X82961Y160485D01*
X82893Y160427D01*
X82828Y160365D01*
X82766Y160302D01*
X82706Y160235D01*
X82649Y160166D01*
X82595Y160095D01*
X82545Y160021D01*
X82497Y159945D01*
X82453Y159867D01*
X82412Y159788D01*
X82375Y159707D01*
X82341Y159624D01*
X82311Y159540D01*
X82285Y159454D01*
X82262Y159368D01*
X82243Y159281D01*
X82228Y159193D01*
X82216Y159104D01*
X82208Y159015D01*
X82204Y158926D01*
X82204Y158836D01*
X82208Y158747D01*
X82216Y158658D01*
X82228Y158569D01*
X82243Y158481D01*
X82262Y158394D01*
X82285Y158308D01*
X82311Y158222D01*
X82341Y158138D01*
X82375Y158055D01*
X82412Y157974D01*
X82453Y157895D01*
X82497Y157817D01*
X82545Y157741D01*
X82595Y157667D01*
X82649Y157596D01*
X82706Y157527D01*
X82766Y157460D01*
X82828Y157397D01*
X82893Y157335D01*
X82961Y157277D01*
X83031Y157222D01*
X83104Y157170D01*
X83179Y157121D01*
X83255Y157075D01*
X83334Y157032D01*
X83414Y156993D01*
X83497Y156958D01*
X83580Y156926D01*
X83665Y156898D01*
X83751Y156873D01*
X83838Y156852D01*
X83925Y156835D01*
X84014Y156821D01*
X84102Y156812D01*
X84192Y156806D01*
X84281Y156804D01*
X84281Y156805D02*
X86358Y156805D01*
X83866Y156805D02*
X82205Y153482D01*
X78755Y153482D02*
X73771Y160958D01*
X78755Y160958D02*
X73771Y153482D01*
X69944Y153482D02*
X66622Y153482D01*
X69944Y153482D02*
X69944Y160958D01*
X66622Y160958D01*
X67452Y157635D02*
X69944Y157635D01*
X62949Y160958D02*
X62949Y153482D01*
X58796Y153482D02*
X62949Y160958D01*
X58796Y160958D02*
X58796Y153482D01*
X84281Y134288D02*
X84281Y126812D01*
X82205Y134288D02*
X86358Y134288D01*
X79213Y126812D02*
X74229Y134288D01*
X79213Y134288D02*
X74229Y126812D01*
X70403Y126812D02*
X67080Y126812D01*
X70403Y126812D02*
X70403Y134288D01*
X67080Y134288D01*
X67911Y130965D02*
X70403Y130965D01*
X63408Y134288D02*
X63408Y126812D01*
X59255Y126812D02*
X63408Y134288D01*
X59255Y134288D02*
X59255Y126812D01*
X82548Y108888D02*
X82548Y101412D01*
X82548Y108888D02*
X80471Y108888D01*
X80383Y108886D01*
X80295Y108881D01*
X80207Y108871D01*
X80120Y108858D01*
X80033Y108841D01*
X79948Y108821D01*
X79863Y108797D01*
X79779Y108769D01*
X79697Y108738D01*
X79615Y108704D01*
X79536Y108666D01*
X79458Y108624D01*
X79382Y108580D01*
X79308Y108532D01*
X79236Y108481D01*
X79166Y108427D01*
X79099Y108370D01*
X79034Y108311D01*
X78971Y108248D01*
X78912Y108183D01*
X78855Y108116D01*
X78801Y108046D01*
X78750Y107974D01*
X78702Y107900D01*
X78658Y107824D01*
X78616Y107746D01*
X78578Y107667D01*
X78544Y107585D01*
X78513Y107503D01*
X78485Y107419D01*
X78461Y107334D01*
X78441Y107249D01*
X78424Y107162D01*
X78411Y107075D01*
X78401Y106987D01*
X78396Y106899D01*
X78394Y106811D01*
X78395Y106811D02*
X78395Y103489D01*
X78394Y103489D02*
X78396Y103401D01*
X78401Y103313D01*
X78411Y103225D01*
X78424Y103138D01*
X78441Y103051D01*
X78461Y102966D01*
X78485Y102881D01*
X78513Y102797D01*
X78544Y102715D01*
X78578Y102633D01*
X78616Y102554D01*
X78658Y102476D01*
X78702Y102400D01*
X78750Y102326D01*
X78801Y102254D01*
X78855Y102184D01*
X78912Y102117D01*
X78971Y102052D01*
X79034Y101989D01*
X79099Y101930D01*
X79166Y101873D01*
X79236Y101819D01*
X79308Y101768D01*
X79382Y101720D01*
X79458Y101676D01*
X79536Y101634D01*
X79615Y101596D01*
X79697Y101562D01*
X79779Y101531D01*
X79863Y101503D01*
X79948Y101479D01*
X80033Y101459D01*
X80120Y101442D01*
X80207Y101429D01*
X80295Y101419D01*
X80383Y101414D01*
X80471Y101412D01*
X82548Y101412D01*
X73721Y101412D02*
X73721Y108888D01*
X72891Y101412D02*
X74552Y101412D01*
X74552Y108888D02*
X72891Y108888D01*
X69318Y106811D02*
X69318Y103489D01*
X69318Y106811D02*
X69316Y106900D01*
X69310Y106990D01*
X69301Y107078D01*
X69287Y107167D01*
X69270Y107254D01*
X69249Y107341D01*
X69224Y107427D01*
X69196Y107512D01*
X69164Y107595D01*
X69129Y107678D01*
X69090Y107758D01*
X69047Y107837D01*
X69001Y107913D01*
X68952Y107988D01*
X68900Y108061D01*
X68845Y108131D01*
X68787Y108199D01*
X68725Y108264D01*
X68662Y108326D01*
X68595Y108386D01*
X68526Y108443D01*
X68455Y108497D01*
X68381Y108547D01*
X68305Y108595D01*
X68227Y108639D01*
X68148Y108680D01*
X68067Y108717D01*
X67984Y108751D01*
X67900Y108781D01*
X67814Y108807D01*
X67728Y108830D01*
X67641Y108849D01*
X67553Y108864D01*
X67464Y108876D01*
X67375Y108884D01*
X67286Y108888D01*
X67196Y108888D01*
X67107Y108884D01*
X67018Y108876D01*
X66929Y108864D01*
X66841Y108849D01*
X66754Y108830D01*
X66668Y108807D01*
X66582Y108781D01*
X66498Y108751D01*
X66415Y108717D01*
X66334Y108680D01*
X66255Y108639D01*
X66177Y108595D01*
X66101Y108547D01*
X66027Y108497D01*
X65956Y108443D01*
X65887Y108386D01*
X65820Y108326D01*
X65757Y108264D01*
X65695Y108199D01*
X65637Y108131D01*
X65582Y108061D01*
X65530Y107988D01*
X65481Y107913D01*
X65435Y107837D01*
X65392Y107758D01*
X65353Y107678D01*
X65318Y107595D01*
X65286Y107512D01*
X65258Y107427D01*
X65233Y107341D01*
X65212Y107254D01*
X65195Y107167D01*
X65181Y107078D01*
X65172Y106990D01*
X65166Y106900D01*
X65164Y106811D01*
X65165Y106811D02*
X65165Y103489D01*
X65164Y103489D02*
X65166Y103400D01*
X65172Y103310D01*
X65181Y103222D01*
X65195Y103133D01*
X65212Y103046D01*
X65233Y102959D01*
X65258Y102873D01*
X65286Y102788D01*
X65318Y102705D01*
X65353Y102622D01*
X65392Y102542D01*
X65435Y102463D01*
X65481Y102387D01*
X65530Y102312D01*
X65582Y102239D01*
X65637Y102169D01*
X65695Y102101D01*
X65757Y102036D01*
X65820Y101974D01*
X65887Y101914D01*
X65956Y101857D01*
X66027Y101803D01*
X66101Y101753D01*
X66177Y101705D01*
X66255Y101661D01*
X66334Y101620D01*
X66415Y101583D01*
X66498Y101549D01*
X66582Y101519D01*
X66668Y101493D01*
X66754Y101470D01*
X66841Y101451D01*
X66929Y101436D01*
X67018Y101424D01*
X67107Y101416D01*
X67196Y101412D01*
X67286Y101412D01*
X67375Y101416D01*
X67464Y101424D01*
X67553Y101436D01*
X67641Y101451D01*
X67728Y101470D01*
X67814Y101493D01*
X67900Y101519D01*
X67984Y101549D01*
X68067Y101583D01*
X68148Y101620D01*
X68227Y101661D01*
X68305Y101705D01*
X68381Y101753D01*
X68455Y101803D01*
X68526Y101857D01*
X68595Y101914D01*
X68662Y101974D01*
X68725Y102036D01*
X68787Y102101D01*
X68845Y102169D01*
X68900Y102239D01*
X68952Y102312D01*
X69001Y102387D01*
X69047Y102463D01*
X69090Y102542D01*
X69129Y102622D01*
X69164Y102705D01*
X69196Y102788D01*
X69224Y102873D01*
X69249Y102959D01*
X69270Y103046D01*
X69287Y103133D01*
X69301Y103222D01*
X69310Y103310D01*
X69316Y103400D01*
X69318Y103489D01*
X58934Y108888D02*
X58850Y108886D01*
X58766Y108880D01*
X58683Y108871D01*
X58600Y108858D01*
X58518Y108841D01*
X58437Y108821D01*
X58356Y108797D01*
X58277Y108769D01*
X58199Y108738D01*
X58123Y108703D01*
X58048Y108665D01*
X57975Y108623D01*
X57904Y108579D01*
X57835Y108531D01*
X57769Y108480D01*
X57704Y108426D01*
X57642Y108370D01*
X57583Y108311D01*
X57527Y108249D01*
X57473Y108184D01*
X57422Y108118D01*
X57374Y108049D01*
X57330Y107978D01*
X57288Y107905D01*
X57250Y107830D01*
X57215Y107754D01*
X57184Y107676D01*
X57156Y107597D01*
X57132Y107516D01*
X57112Y107435D01*
X57095Y107353D01*
X57082Y107270D01*
X57073Y107187D01*
X57067Y107103D01*
X57065Y107019D01*
X58934Y108888D02*
X59031Y108886D01*
X59129Y108880D01*
X59225Y108870D01*
X59322Y108856D01*
X59418Y108839D01*
X59513Y108817D01*
X59607Y108792D01*
X59700Y108763D01*
X59791Y108730D01*
X59882Y108693D01*
X59970Y108653D01*
X60057Y108609D01*
X60142Y108562D01*
X60226Y108511D01*
X60307Y108457D01*
X60385Y108400D01*
X60462Y108339D01*
X60536Y108276D01*
X60607Y108209D01*
X60675Y108140D01*
X60741Y108068D01*
X60804Y107994D01*
X60863Y107917D01*
X60919Y107837D01*
X60973Y107755D01*
X61022Y107672D01*
X61069Y107586D01*
X61111Y107499D01*
X61151Y107409D01*
X61186Y107319D01*
X61218Y107227D01*
X57687Y105565D02*
X57626Y105625D01*
X57568Y105688D01*
X57513Y105753D01*
X57461Y105821D01*
X57411Y105891D01*
X57364Y105963D01*
X57321Y106036D01*
X57281Y106112D01*
X57244Y106189D01*
X57210Y106268D01*
X57180Y106348D01*
X57153Y106429D01*
X57129Y106511D01*
X57109Y106594D01*
X57093Y106678D01*
X57080Y106763D01*
X57071Y106848D01*
X57066Y106933D01*
X57064Y107019D01*
X57688Y105565D02*
X61218Y101412D01*
X57065Y101412D01*
X82548Y84758D02*
X80056Y77282D01*
X77564Y84758D01*
X72408Y77282D02*
X70747Y77282D01*
X72408Y77282D02*
X72487Y77284D01*
X72566Y77290D01*
X72644Y77299D01*
X72722Y77312D01*
X72800Y77329D01*
X72876Y77349D01*
X72951Y77373D01*
X73025Y77401D01*
X73098Y77432D01*
X73169Y77467D01*
X73239Y77505D01*
X73306Y77546D01*
X73371Y77590D01*
X73435Y77637D01*
X73496Y77688D01*
X73554Y77741D01*
X73610Y77797D01*
X73663Y77855D01*
X73714Y77916D01*
X73761Y77980D01*
X73805Y78045D01*
X73846Y78113D01*
X73884Y78182D01*
X73919Y78253D01*
X73950Y78326D01*
X73978Y78400D01*
X74002Y78475D01*
X74022Y78551D01*
X74039Y78629D01*
X74052Y78707D01*
X74061Y78785D01*
X74067Y78864D01*
X74069Y78943D01*
X74069Y83097D01*
X74067Y83176D01*
X74061Y83255D01*
X74052Y83333D01*
X74039Y83411D01*
X74022Y83489D01*
X74002Y83565D01*
X73978Y83640D01*
X73950Y83714D01*
X73919Y83787D01*
X73884Y83858D01*
X73846Y83928D01*
X73805Y83995D01*
X73761Y84060D01*
X73714Y84124D01*
X73663Y84185D01*
X73610Y84243D01*
X73554Y84299D01*
X73496Y84352D01*
X73435Y84403D01*
X73371Y84450D01*
X73306Y84494D01*
X73239Y84535D01*
X73169Y84573D01*
X73098Y84608D01*
X73025Y84639D01*
X72951Y84667D01*
X72876Y84691D01*
X72800Y84711D01*
X72722Y84728D01*
X72644Y84741D01*
X72566Y84750D01*
X72487Y84756D01*
X72408Y84758D01*
X70747Y84758D01*
X65658Y77282D02*
X63997Y77282D01*
X65658Y77282D02*
X65737Y77284D01*
X65816Y77290D01*
X65894Y77299D01*
X65972Y77312D01*
X66050Y77329D01*
X66126Y77349D01*
X66201Y77373D01*
X66275Y77401D01*
X66348Y77432D01*
X66419Y77467D01*
X66489Y77505D01*
X66556Y77546D01*
X66621Y77590D01*
X66685Y77637D01*
X66746Y77688D01*
X66804Y77741D01*
X66860Y77797D01*
X66913Y77855D01*
X66964Y77916D01*
X67011Y77980D01*
X67055Y78045D01*
X67096Y78113D01*
X67134Y78182D01*
X67169Y78253D01*
X67200Y78326D01*
X67228Y78400D01*
X67252Y78475D01*
X67272Y78551D01*
X67289Y78629D01*
X67302Y78707D01*
X67311Y78785D01*
X67317Y78864D01*
X67319Y78943D01*
X67319Y83097D01*
X67317Y83176D01*
X67311Y83255D01*
X67302Y83333D01*
X67289Y83411D01*
X67272Y83489D01*
X67252Y83565D01*
X67228Y83640D01*
X67200Y83714D01*
X67169Y83787D01*
X67134Y83858D01*
X67096Y83928D01*
X67055Y83995D01*
X67011Y84060D01*
X66964Y84124D01*
X66913Y84185D01*
X66860Y84243D01*
X66804Y84299D01*
X66746Y84352D01*
X66685Y84403D01*
X66621Y84450D01*
X66556Y84494D01*
X66489Y84535D01*
X66419Y84573D01*
X66348Y84608D01*
X66275Y84639D01*
X66201Y84667D01*
X66126Y84691D01*
X66050Y84711D01*
X65972Y84728D01*
X65894Y84741D01*
X65816Y84750D01*
X65737Y84756D01*
X65658Y84758D01*
X63997Y84758D01*
X60533Y83097D02*
X58456Y84758D01*
X58456Y77282D01*
X60533Y77282D02*
X56379Y77282D01*
X82548Y59358D02*
X80056Y51882D01*
X77564Y59358D01*
X72408Y51882D02*
X70747Y51882D01*
X72408Y51882D02*
X72487Y51884D01*
X72566Y51890D01*
X72644Y51899D01*
X72722Y51912D01*
X72800Y51929D01*
X72876Y51949D01*
X72951Y51973D01*
X73025Y52001D01*
X73098Y52032D01*
X73169Y52067D01*
X73239Y52105D01*
X73306Y52146D01*
X73371Y52190D01*
X73435Y52237D01*
X73496Y52288D01*
X73554Y52341D01*
X73610Y52397D01*
X73663Y52455D01*
X73714Y52516D01*
X73761Y52580D01*
X73805Y52645D01*
X73846Y52713D01*
X73884Y52782D01*
X73919Y52853D01*
X73950Y52926D01*
X73978Y53000D01*
X74002Y53075D01*
X74022Y53151D01*
X74039Y53229D01*
X74052Y53307D01*
X74061Y53385D01*
X74067Y53464D01*
X74069Y53543D01*
X74069Y57697D01*
X74067Y57776D01*
X74061Y57855D01*
X74052Y57933D01*
X74039Y58011D01*
X74022Y58089D01*
X74002Y58165D01*
X73978Y58240D01*
X73950Y58314D01*
X73919Y58387D01*
X73884Y58458D01*
X73846Y58528D01*
X73805Y58595D01*
X73761Y58660D01*
X73714Y58724D01*
X73663Y58785D01*
X73610Y58843D01*
X73554Y58899D01*
X73496Y58952D01*
X73435Y59003D01*
X73371Y59050D01*
X73306Y59094D01*
X73239Y59135D01*
X73169Y59173D01*
X73098Y59208D01*
X73025Y59239D01*
X72951Y59267D01*
X72876Y59291D01*
X72800Y59311D01*
X72722Y59328D01*
X72644Y59341D01*
X72566Y59350D01*
X72487Y59356D01*
X72408Y59358D01*
X70747Y59358D01*
X65658Y51882D02*
X63997Y51882D01*
X65658Y51882D02*
X65737Y51884D01*
X65816Y51890D01*
X65894Y51899D01*
X65972Y51912D01*
X66050Y51929D01*
X66126Y51949D01*
X66201Y51973D01*
X66275Y52001D01*
X66348Y52032D01*
X66419Y52067D01*
X66489Y52105D01*
X66556Y52146D01*
X66621Y52190D01*
X66685Y52237D01*
X66746Y52288D01*
X66804Y52341D01*
X66860Y52397D01*
X66913Y52455D01*
X66964Y52516D01*
X67011Y52580D01*
X67055Y52645D01*
X67096Y52713D01*
X67134Y52782D01*
X67169Y52853D01*
X67200Y52926D01*
X67228Y53000D01*
X67252Y53075D01*
X67272Y53151D01*
X67289Y53229D01*
X67302Y53307D01*
X67311Y53385D01*
X67317Y53464D01*
X67319Y53543D01*
X67319Y57697D01*
X67317Y57776D01*
X67311Y57855D01*
X67302Y57933D01*
X67289Y58011D01*
X67272Y58089D01*
X67252Y58165D01*
X67228Y58240D01*
X67200Y58314D01*
X67169Y58387D01*
X67134Y58458D01*
X67096Y58528D01*
X67055Y58595D01*
X67011Y58660D01*
X66964Y58724D01*
X66913Y58785D01*
X66860Y58843D01*
X66804Y58899D01*
X66746Y58952D01*
X66685Y59003D01*
X66621Y59050D01*
X66556Y59094D01*
X66489Y59135D01*
X66419Y59173D01*
X66348Y59208D01*
X66275Y59239D01*
X66201Y59267D01*
X66126Y59291D01*
X66050Y59311D01*
X65972Y59328D01*
X65894Y59341D01*
X65816Y59350D01*
X65737Y59356D01*
X65658Y59358D01*
X63997Y59358D01*
X58248Y59358D02*
X58164Y59356D01*
X58080Y59350D01*
X57997Y59341D01*
X57914Y59328D01*
X57832Y59311D01*
X57751Y59291D01*
X57670Y59267D01*
X57591Y59239D01*
X57513Y59208D01*
X57437Y59173D01*
X57362Y59135D01*
X57289Y59093D01*
X57218Y59049D01*
X57149Y59001D01*
X57083Y58950D01*
X57018Y58896D01*
X56956Y58840D01*
X56897Y58781D01*
X56841Y58719D01*
X56787Y58654D01*
X56736Y58588D01*
X56688Y58519D01*
X56644Y58448D01*
X56602Y58375D01*
X56564Y58300D01*
X56529Y58224D01*
X56498Y58146D01*
X56470Y58067D01*
X56446Y57986D01*
X56426Y57905D01*
X56409Y57823D01*
X56396Y57740D01*
X56387Y57657D01*
X56381Y57573D01*
X56379Y57489D01*
X58248Y59358D02*
X58345Y59356D01*
X58443Y59350D01*
X58539Y59340D01*
X58636Y59326D01*
X58732Y59309D01*
X58827Y59287D01*
X58921Y59262D01*
X59014Y59233D01*
X59105Y59200D01*
X59196Y59163D01*
X59284Y59123D01*
X59371Y59079D01*
X59456Y59032D01*
X59540Y58981D01*
X59621Y58927D01*
X59699Y58870D01*
X59776Y58809D01*
X59850Y58746D01*
X59921Y58679D01*
X59989Y58610D01*
X60055Y58538D01*
X60118Y58464D01*
X60177Y58387D01*
X60233Y58307D01*
X60287Y58225D01*
X60336Y58142D01*
X60383Y58056D01*
X60425Y57969D01*
X60465Y57879D01*
X60500Y57789D01*
X60532Y57697D01*
X57002Y56035D02*
X56941Y56095D01*
X56883Y56158D01*
X56828Y56223D01*
X56776Y56291D01*
X56726Y56361D01*
X56679Y56433D01*
X56636Y56506D01*
X56596Y56582D01*
X56559Y56659D01*
X56525Y56738D01*
X56495Y56818D01*
X56468Y56899D01*
X56444Y56981D01*
X56424Y57064D01*
X56408Y57148D01*
X56395Y57233D01*
X56386Y57318D01*
X56381Y57403D01*
X56379Y57489D01*
X57002Y56035D02*
X60533Y51882D01*
X56379Y51882D01*
X75855Y30635D02*
X77101Y30635D01*
X75855Y30635D02*
X75855Y26482D01*
X78347Y26482D01*
X78426Y26484D01*
X78505Y26490D01*
X78583Y26499D01*
X78661Y26512D01*
X78739Y26529D01*
X78815Y26549D01*
X78890Y26573D01*
X78964Y26601D01*
X79037Y26632D01*
X79108Y26667D01*
X79178Y26705D01*
X79245Y26746D01*
X79310Y26790D01*
X79374Y26837D01*
X79435Y26888D01*
X79493Y26941D01*
X79549Y26997D01*
X79602Y27055D01*
X79653Y27116D01*
X79700Y27180D01*
X79744Y27245D01*
X79785Y27313D01*
X79823Y27382D01*
X79858Y27453D01*
X79889Y27526D01*
X79917Y27600D01*
X79941Y27675D01*
X79961Y27751D01*
X79978Y27829D01*
X79991Y27907D01*
X80000Y27985D01*
X80006Y28064D01*
X80008Y28143D01*
X80008Y32297D01*
X80006Y32376D01*
X80000Y32455D01*
X79991Y32533D01*
X79978Y32611D01*
X79961Y32689D01*
X79941Y32765D01*
X79917Y32840D01*
X79889Y32914D01*
X79858Y32987D01*
X79823Y33058D01*
X79785Y33128D01*
X79744Y33195D01*
X79700Y33260D01*
X79653Y33324D01*
X79602Y33385D01*
X79549Y33443D01*
X79493Y33499D01*
X79435Y33552D01*
X79374Y33603D01*
X79310Y33650D01*
X79245Y33694D01*
X79178Y33735D01*
X79108Y33773D01*
X79037Y33808D01*
X78964Y33839D01*
X78890Y33867D01*
X78815Y33891D01*
X78739Y33911D01*
X78661Y33928D01*
X78583Y33941D01*
X78505Y33950D01*
X78426Y33956D01*
X78347Y33958D01*
X75855Y33958D01*
X71368Y33958D02*
X71368Y26482D01*
X67215Y26482D02*
X71368Y33958D01*
X67215Y33958D02*
X67215Y26482D01*
X62728Y26482D02*
X62728Y33958D01*
X60651Y33958D01*
X60563Y33956D01*
X60475Y33951D01*
X60387Y33941D01*
X60300Y33928D01*
X60213Y33911D01*
X60128Y33891D01*
X60043Y33867D01*
X59959Y33839D01*
X59877Y33808D01*
X59795Y33774D01*
X59716Y33736D01*
X59638Y33694D01*
X59562Y33650D01*
X59488Y33602D01*
X59416Y33551D01*
X59346Y33497D01*
X59279Y33440D01*
X59214Y33381D01*
X59151Y33318D01*
X59092Y33253D01*
X59035Y33186D01*
X58981Y33116D01*
X58930Y33044D01*
X58882Y32970D01*
X58838Y32894D01*
X58796Y32816D01*
X58758Y32737D01*
X58724Y32655D01*
X58693Y32573D01*
X58665Y32489D01*
X58641Y32404D01*
X58621Y32319D01*
X58604Y32232D01*
X58591Y32145D01*
X58581Y32057D01*
X58576Y31969D01*
X58574Y31881D01*
X58575Y31881D02*
X58575Y28559D01*
X58574Y28559D02*
X58576Y28471D01*
X58581Y28383D01*
X58591Y28295D01*
X58604Y28208D01*
X58621Y28121D01*
X58641Y28036D01*
X58665Y27951D01*
X58693Y27867D01*
X58724Y27785D01*
X58758Y27703D01*
X58796Y27624D01*
X58838Y27546D01*
X58882Y27470D01*
X58930Y27396D01*
X58981Y27324D01*
X59035Y27254D01*
X59092Y27187D01*
X59151Y27122D01*
X59214Y27059D01*
X59279Y27000D01*
X59346Y26943D01*
X59416Y26889D01*
X59488Y26838D01*
X59562Y26790D01*
X59638Y26746D01*
X59716Y26704D01*
X59795Y26666D01*
X59877Y26632D01*
X59959Y26601D01*
X60043Y26573D01*
X60128Y26549D01*
X60213Y26529D01*
X60300Y26512D01*
X60387Y26499D01*
X60475Y26489D01*
X60563Y26484D01*
X60651Y26482D01*
X62728Y26482D01*
X265085Y335435D02*
X266331Y335435D01*
X265085Y335435D02*
X265085Y331282D01*
X267577Y331282D01*
X267656Y331284D01*
X267735Y331290D01*
X267813Y331299D01*
X267891Y331312D01*
X267969Y331329D01*
X268045Y331349D01*
X268120Y331373D01*
X268194Y331401D01*
X268267Y331432D01*
X268338Y331467D01*
X268408Y331505D01*
X268475Y331546D01*
X268540Y331590D01*
X268604Y331637D01*
X268665Y331688D01*
X268723Y331741D01*
X268779Y331797D01*
X268832Y331855D01*
X268883Y331916D01*
X268930Y331980D01*
X268974Y332045D01*
X269015Y332113D01*
X269053Y332182D01*
X269088Y332253D01*
X269119Y332326D01*
X269147Y332400D01*
X269171Y332475D01*
X269191Y332551D01*
X269208Y332629D01*
X269221Y332707D01*
X269230Y332785D01*
X269236Y332864D01*
X269238Y332943D01*
X269238Y337097D01*
X269236Y337176D01*
X269230Y337255D01*
X269221Y337333D01*
X269208Y337411D01*
X269191Y337489D01*
X269171Y337565D01*
X269147Y337640D01*
X269119Y337714D01*
X269088Y337787D01*
X269053Y337858D01*
X269015Y337928D01*
X268974Y337995D01*
X268930Y338060D01*
X268883Y338124D01*
X268832Y338185D01*
X268779Y338243D01*
X268723Y338299D01*
X268665Y338352D01*
X268604Y338403D01*
X268540Y338450D01*
X268475Y338494D01*
X268408Y338535D01*
X268338Y338573D01*
X268267Y338608D01*
X268194Y338639D01*
X268120Y338667D01*
X268045Y338691D01*
X267969Y338711D01*
X267891Y338728D01*
X267813Y338741D01*
X267735Y338750D01*
X267656Y338756D01*
X267577Y338758D01*
X265085Y338758D01*
X260598Y338758D02*
X260598Y331282D01*
X256445Y331282D02*
X260598Y338758D01*
X256445Y338758D02*
X256445Y331282D01*
X251958Y331282D02*
X251958Y338758D01*
X249881Y338758D01*
X249793Y338756D01*
X249705Y338751D01*
X249617Y338741D01*
X249530Y338728D01*
X249443Y338711D01*
X249358Y338691D01*
X249273Y338667D01*
X249189Y338639D01*
X249107Y338608D01*
X249025Y338574D01*
X248946Y338536D01*
X248868Y338494D01*
X248792Y338450D01*
X248718Y338402D01*
X248646Y338351D01*
X248576Y338297D01*
X248509Y338240D01*
X248444Y338181D01*
X248381Y338118D01*
X248322Y338053D01*
X248265Y337986D01*
X248211Y337916D01*
X248160Y337844D01*
X248112Y337770D01*
X248068Y337694D01*
X248026Y337616D01*
X247988Y337537D01*
X247954Y337455D01*
X247923Y337373D01*
X247895Y337289D01*
X247871Y337204D01*
X247851Y337119D01*
X247834Y337032D01*
X247821Y336945D01*
X247811Y336857D01*
X247806Y336769D01*
X247804Y336681D01*
X247805Y336681D02*
X247805Y333359D01*
X247804Y333359D02*
X247806Y333271D01*
X247811Y333183D01*
X247821Y333095D01*
X247834Y333008D01*
X247851Y332921D01*
X247871Y332836D01*
X247895Y332751D01*
X247923Y332667D01*
X247954Y332585D01*
X247988Y332503D01*
X248026Y332424D01*
X248068Y332346D01*
X248112Y332270D01*
X248160Y332196D01*
X248211Y332124D01*
X248265Y332054D01*
X248322Y331987D01*
X248381Y331922D01*
X248444Y331859D01*
X248509Y331800D01*
X248576Y331743D01*
X248646Y331689D01*
X248718Y331638D01*
X248792Y331590D01*
X248868Y331546D01*
X248946Y331504D01*
X249025Y331466D01*
X249107Y331432D01*
X249189Y331401D01*
X249273Y331373D01*
X249358Y331349D01*
X249443Y331329D01*
X249530Y331312D01*
X249617Y331299D01*
X249705Y331289D01*
X249793Y331284D01*
X249881Y331282D01*
X251958Y331282D01*
X266746Y313358D02*
X269238Y305882D01*
X264254Y305882D02*
X266746Y313358D01*
X264877Y307751D02*
X268615Y307751D01*
X260453Y305882D02*
X260453Y313358D01*
X256299Y305882D01*
X256299Y313358D01*
X250546Y313358D02*
X250546Y305882D01*
X252623Y313358D02*
X248469Y313358D01*
X265085Y285905D02*
X266331Y285905D01*
X265085Y285905D02*
X265085Y281752D01*
X267577Y281752D01*
X267656Y281754D01*
X267735Y281760D01*
X267813Y281769D01*
X267891Y281782D01*
X267969Y281799D01*
X268045Y281819D01*
X268120Y281843D01*
X268194Y281871D01*
X268267Y281902D01*
X268338Y281937D01*
X268408Y281975D01*
X268475Y282016D01*
X268540Y282060D01*
X268604Y282107D01*
X268665Y282158D01*
X268723Y282211D01*
X268779Y282267D01*
X268832Y282325D01*
X268883Y282386D01*
X268930Y282450D01*
X268974Y282515D01*
X269015Y282583D01*
X269053Y282652D01*
X269088Y282723D01*
X269119Y282796D01*
X269147Y282870D01*
X269171Y282945D01*
X269191Y283021D01*
X269208Y283099D01*
X269221Y283177D01*
X269230Y283255D01*
X269236Y283334D01*
X269238Y283413D01*
X269238Y287567D01*
X269236Y287646D01*
X269230Y287725D01*
X269221Y287803D01*
X269208Y287881D01*
X269191Y287959D01*
X269171Y288035D01*
X269147Y288110D01*
X269119Y288184D01*
X269088Y288257D01*
X269053Y288328D01*
X269015Y288398D01*
X268974Y288465D01*
X268930Y288530D01*
X268883Y288594D01*
X268832Y288655D01*
X268779Y288713D01*
X268723Y288769D01*
X268665Y288822D01*
X268604Y288873D01*
X268540Y288920D01*
X268475Y288964D01*
X268408Y289005D01*
X268338Y289043D01*
X268267Y289078D01*
X268194Y289109D01*
X268120Y289137D01*
X268045Y289161D01*
X267969Y289181D01*
X267891Y289198D01*
X267813Y289211D01*
X267735Y289220D01*
X267656Y289226D01*
X267577Y289228D01*
X265085Y289228D01*
X260598Y289228D02*
X260598Y281752D01*
X256445Y281752D02*
X260598Y289228D01*
X256445Y289228D02*
X256445Y281752D01*
X251958Y281752D02*
X251958Y289228D01*
X249881Y289228D01*
X249793Y289226D01*
X249705Y289221D01*
X249617Y289211D01*
X249530Y289198D01*
X249443Y289181D01*
X249358Y289161D01*
X249273Y289137D01*
X249189Y289109D01*
X249107Y289078D01*
X249025Y289044D01*
X248946Y289006D01*
X248868Y288964D01*
X248792Y288920D01*
X248718Y288872D01*
X248646Y288821D01*
X248576Y288767D01*
X248509Y288710D01*
X248444Y288651D01*
X248381Y288588D01*
X248322Y288523D01*
X248265Y288456D01*
X248211Y288386D01*
X248160Y288314D01*
X248112Y288240D01*
X248068Y288164D01*
X248026Y288086D01*
X247988Y288007D01*
X247954Y287925D01*
X247923Y287843D01*
X247895Y287759D01*
X247871Y287674D01*
X247851Y287589D01*
X247834Y287502D01*
X247821Y287415D01*
X247811Y287327D01*
X247806Y287239D01*
X247804Y287151D01*
X247805Y287151D02*
X247805Y283829D01*
X247804Y283829D02*
X247806Y283741D01*
X247811Y283653D01*
X247821Y283565D01*
X247834Y283478D01*
X247851Y283391D01*
X247871Y283306D01*
X247895Y283221D01*
X247923Y283137D01*
X247954Y283055D01*
X247988Y282973D01*
X248026Y282894D01*
X248068Y282816D01*
X248112Y282740D01*
X248160Y282666D01*
X248211Y282594D01*
X248265Y282524D01*
X248322Y282457D01*
X248381Y282392D01*
X248444Y282329D01*
X248509Y282270D01*
X248576Y282213D01*
X248646Y282159D01*
X248718Y282108D01*
X248792Y282060D01*
X248868Y282016D01*
X248946Y281974D01*
X249025Y281936D01*
X249107Y281902D01*
X249189Y281871D01*
X249273Y281843D01*
X249358Y281819D01*
X249443Y281799D01*
X249530Y281782D01*
X249617Y281769D01*
X249705Y281759D01*
X249793Y281754D01*
X249881Y281752D01*
X251958Y281752D01*
X269238Y211758D02*
X269238Y204282D01*
X265085Y204282D02*
X269238Y211758D01*
X265085Y211758D02*
X265085Y204282D01*
X258646Y204282D02*
X258567Y204284D01*
X258488Y204290D01*
X258410Y204299D01*
X258332Y204312D01*
X258254Y204329D01*
X258178Y204349D01*
X258103Y204373D01*
X258029Y204401D01*
X257956Y204432D01*
X257885Y204467D01*
X257816Y204505D01*
X257748Y204546D01*
X257683Y204590D01*
X257619Y204637D01*
X257558Y204688D01*
X257500Y204741D01*
X257444Y204797D01*
X257391Y204855D01*
X257340Y204916D01*
X257293Y204980D01*
X257249Y205045D01*
X257208Y205113D01*
X257170Y205182D01*
X257135Y205253D01*
X257104Y205326D01*
X257076Y205400D01*
X257052Y205475D01*
X257032Y205551D01*
X257015Y205629D01*
X257002Y205707D01*
X256993Y205785D01*
X256987Y205864D01*
X256985Y205943D01*
X258646Y204282D02*
X258761Y204284D01*
X258877Y204290D01*
X258992Y204299D01*
X259107Y204312D01*
X259221Y204329D01*
X259334Y204350D01*
X259447Y204375D01*
X259559Y204403D01*
X259670Y204435D01*
X259780Y204470D01*
X259889Y204509D01*
X259996Y204552D01*
X260102Y204598D01*
X260206Y204648D01*
X260309Y204701D01*
X260409Y204757D01*
X260508Y204817D01*
X260605Y204880D01*
X260700Y204946D01*
X260792Y205015D01*
X260883Y205087D01*
X260970Y205162D01*
X261056Y205240D01*
X261138Y205320D01*
X260930Y210097D02*
X260928Y210176D01*
X260922Y210255D01*
X260913Y210333D01*
X260900Y210411D01*
X260883Y210489D01*
X260863Y210565D01*
X260839Y210640D01*
X260811Y210714D01*
X260780Y210787D01*
X260745Y210858D01*
X260707Y210928D01*
X260666Y210995D01*
X260622Y211060D01*
X260575Y211124D01*
X260524Y211185D01*
X260471Y211243D01*
X260415Y211299D01*
X260357Y211352D01*
X260296Y211403D01*
X260232Y211450D01*
X260167Y211494D01*
X260100Y211535D01*
X260030Y211573D01*
X259959Y211608D01*
X259886Y211639D01*
X259812Y211667D01*
X259737Y211691D01*
X259661Y211711D01*
X259583Y211728D01*
X259505Y211741D01*
X259427Y211750D01*
X259348Y211756D01*
X259269Y211758D01*
X259164Y211756D01*
X259058Y211751D01*
X258953Y211742D01*
X258848Y211729D01*
X258744Y211713D01*
X258640Y211694D01*
X258537Y211671D01*
X258435Y211644D01*
X258334Y211614D01*
X258234Y211581D01*
X258135Y211544D01*
X258038Y211504D01*
X257941Y211461D01*
X257847Y211414D01*
X257754Y211365D01*
X257662Y211312D01*
X257573Y211256D01*
X257485Y211197D01*
X257400Y211135D01*
X260100Y208644D02*
X260167Y208686D01*
X260233Y208731D01*
X260296Y208779D01*
X260357Y208830D01*
X260416Y208884D01*
X260471Y208941D01*
X260525Y209000D01*
X260575Y209062D01*
X260622Y209126D01*
X260667Y209192D01*
X260708Y209260D01*
X260746Y209330D01*
X260780Y209402D01*
X260811Y209475D01*
X260839Y209550D01*
X260863Y209626D01*
X260883Y209703D01*
X260900Y209780D01*
X260913Y209859D01*
X260922Y209938D01*
X260928Y210017D01*
X260930Y210097D01*
X257816Y207396D02*
X257748Y207354D01*
X257682Y207309D01*
X257619Y207261D01*
X257558Y207210D01*
X257499Y207156D01*
X257444Y207099D01*
X257390Y207040D01*
X257340Y206978D01*
X257293Y206914D01*
X257248Y206848D01*
X257207Y206780D01*
X257169Y206710D01*
X257135Y206638D01*
X257104Y206565D01*
X257076Y206490D01*
X257052Y206414D01*
X257032Y206337D01*
X257015Y206260D01*
X257002Y206181D01*
X256993Y206102D01*
X256987Y206023D01*
X256985Y205943D01*
X257815Y207397D02*
X260100Y208643D01*
X251086Y204282D02*
X251007Y204284D01*
X250928Y204290D01*
X250850Y204299D01*
X250772Y204312D01*
X250694Y204329D01*
X250618Y204349D01*
X250543Y204373D01*
X250469Y204401D01*
X250396Y204432D01*
X250325Y204467D01*
X250256Y204505D01*
X250188Y204546D01*
X250123Y204590D01*
X250059Y204637D01*
X249998Y204688D01*
X249940Y204741D01*
X249884Y204797D01*
X249831Y204855D01*
X249780Y204916D01*
X249733Y204980D01*
X249689Y205045D01*
X249648Y205113D01*
X249610Y205182D01*
X249575Y205253D01*
X249544Y205326D01*
X249516Y205400D01*
X249492Y205475D01*
X249472Y205551D01*
X249455Y205629D01*
X249442Y205707D01*
X249433Y205785D01*
X249427Y205864D01*
X249425Y205943D01*
X251086Y204282D02*
X251201Y204284D01*
X251317Y204290D01*
X251432Y204299D01*
X251547Y204312D01*
X251661Y204329D01*
X251774Y204350D01*
X251887Y204375D01*
X251999Y204403D01*
X252110Y204435D01*
X252220Y204470D01*
X252329Y204509D01*
X252436Y204552D01*
X252542Y204598D01*
X252646Y204648D01*
X252749Y204701D01*
X252849Y204757D01*
X252948Y204817D01*
X253045Y204880D01*
X253140Y204946D01*
X253232Y205015D01*
X253323Y205087D01*
X253410Y205162D01*
X253496Y205240D01*
X253578Y205320D01*
X253370Y210097D02*
X253368Y210176D01*
X253362Y210255D01*
X253353Y210333D01*
X253340Y210411D01*
X253323Y210489D01*
X253303Y210565D01*
X253279Y210640D01*
X253251Y210714D01*
X253220Y210787D01*
X253185Y210858D01*
X253147Y210928D01*
X253106Y210995D01*
X253062Y211060D01*
X253015Y211124D01*
X252964Y211185D01*
X252911Y211243D01*
X252855Y211299D01*
X252797Y211352D01*
X252736Y211403D01*
X252672Y211450D01*
X252607Y211494D01*
X252540Y211535D01*
X252470Y211573D01*
X252399Y211608D01*
X252326Y211639D01*
X252252Y211667D01*
X252177Y211691D01*
X252101Y211711D01*
X252023Y211728D01*
X251945Y211741D01*
X251867Y211750D01*
X251788Y211756D01*
X251709Y211758D01*
X251604Y211756D01*
X251498Y211751D01*
X251393Y211742D01*
X251288Y211729D01*
X251184Y211713D01*
X251080Y211694D01*
X250977Y211671D01*
X250875Y211644D01*
X250774Y211614D01*
X250674Y211581D01*
X250575Y211544D01*
X250478Y211504D01*
X250381Y211461D01*
X250287Y211414D01*
X250194Y211365D01*
X250102Y211312D01*
X250013Y211256D01*
X249925Y211197D01*
X249840Y211135D01*
X252540Y208644D02*
X252607Y208686D01*
X252673Y208731D01*
X252736Y208779D01*
X252797Y208830D01*
X252856Y208884D01*
X252911Y208941D01*
X252965Y209000D01*
X253015Y209062D01*
X253062Y209126D01*
X253107Y209192D01*
X253148Y209260D01*
X253186Y209330D01*
X253220Y209402D01*
X253251Y209475D01*
X253279Y209550D01*
X253303Y209626D01*
X253323Y209703D01*
X253340Y209780D01*
X253353Y209859D01*
X253362Y209938D01*
X253368Y210017D01*
X253370Y210097D01*
X250256Y207396D02*
X250188Y207354D01*
X250122Y207309D01*
X250059Y207261D01*
X249998Y207210D01*
X249939Y207156D01*
X249884Y207099D01*
X249830Y207040D01*
X249780Y206978D01*
X249733Y206914D01*
X249688Y206848D01*
X249647Y206780D01*
X249609Y206710D01*
X249575Y206638D01*
X249544Y206565D01*
X249516Y206490D01*
X249492Y206414D01*
X249472Y206337D01*
X249455Y206260D01*
X249442Y206181D01*
X249433Y206102D01*
X249427Y206023D01*
X249425Y205943D01*
X250255Y207397D02*
X252540Y208643D01*
X265085Y180543D02*
X265087Y180464D01*
X265093Y180385D01*
X265102Y180307D01*
X265115Y180229D01*
X265132Y180151D01*
X265152Y180075D01*
X265176Y180000D01*
X265204Y179926D01*
X265235Y179853D01*
X265270Y179782D01*
X265308Y179713D01*
X265349Y179645D01*
X265393Y179580D01*
X265440Y179516D01*
X265491Y179455D01*
X265544Y179397D01*
X265600Y179341D01*
X265658Y179288D01*
X265719Y179237D01*
X265783Y179190D01*
X265848Y179146D01*
X265916Y179105D01*
X265985Y179067D01*
X266056Y179032D01*
X266129Y179001D01*
X266203Y178973D01*
X266278Y178949D01*
X266354Y178929D01*
X266432Y178912D01*
X266510Y178899D01*
X266588Y178890D01*
X266667Y178884D01*
X266746Y178882D01*
X266861Y178884D01*
X266977Y178890D01*
X267092Y178899D01*
X267207Y178912D01*
X267321Y178929D01*
X267434Y178950D01*
X267547Y178975D01*
X267659Y179003D01*
X267770Y179035D01*
X267880Y179070D01*
X267989Y179109D01*
X268096Y179152D01*
X268202Y179198D01*
X268306Y179248D01*
X268409Y179301D01*
X268509Y179357D01*
X268608Y179417D01*
X268705Y179480D01*
X268800Y179546D01*
X268892Y179615D01*
X268983Y179687D01*
X269070Y179762D01*
X269156Y179840D01*
X269238Y179920D01*
X269030Y184697D02*
X269028Y184776D01*
X269022Y184855D01*
X269013Y184933D01*
X269000Y185011D01*
X268983Y185089D01*
X268963Y185165D01*
X268939Y185240D01*
X268911Y185314D01*
X268880Y185387D01*
X268845Y185458D01*
X268807Y185528D01*
X268766Y185595D01*
X268722Y185660D01*
X268675Y185724D01*
X268624Y185785D01*
X268571Y185843D01*
X268515Y185899D01*
X268457Y185952D01*
X268396Y186003D01*
X268332Y186050D01*
X268267Y186094D01*
X268200Y186135D01*
X268130Y186173D01*
X268059Y186208D01*
X267986Y186239D01*
X267912Y186267D01*
X267837Y186291D01*
X267761Y186311D01*
X267683Y186328D01*
X267605Y186341D01*
X267527Y186350D01*
X267448Y186356D01*
X267369Y186358D01*
X267264Y186356D01*
X267158Y186351D01*
X267053Y186342D01*
X266948Y186329D01*
X266844Y186313D01*
X266740Y186294D01*
X266637Y186271D01*
X266535Y186244D01*
X266434Y186214D01*
X266334Y186181D01*
X266235Y186144D01*
X266138Y186104D01*
X266041Y186061D01*
X265947Y186014D01*
X265854Y185965D01*
X265762Y185912D01*
X265673Y185856D01*
X265585Y185797D01*
X265500Y185735D01*
X268200Y183244D02*
X268267Y183286D01*
X268333Y183331D01*
X268396Y183379D01*
X268457Y183430D01*
X268516Y183484D01*
X268571Y183541D01*
X268625Y183600D01*
X268675Y183662D01*
X268722Y183726D01*
X268767Y183792D01*
X268808Y183860D01*
X268846Y183930D01*
X268880Y184002D01*
X268911Y184075D01*
X268939Y184150D01*
X268963Y184226D01*
X268983Y184303D01*
X269000Y184380D01*
X269013Y184459D01*
X269022Y184538D01*
X269028Y184617D01*
X269030Y184697D01*
X265916Y181996D02*
X265848Y181954D01*
X265782Y181909D01*
X265719Y181861D01*
X265658Y181810D01*
X265599Y181756D01*
X265544Y181699D01*
X265490Y181640D01*
X265440Y181578D01*
X265393Y181514D01*
X265348Y181448D01*
X265307Y181380D01*
X265269Y181310D01*
X265235Y181238D01*
X265204Y181165D01*
X265176Y181090D01*
X265152Y181014D01*
X265132Y180937D01*
X265115Y180860D01*
X265102Y180781D01*
X265093Y180702D01*
X265087Y180623D01*
X265085Y180543D01*
X265915Y181997D02*
X268200Y183243D01*
X259783Y178882D02*
X258122Y178882D01*
X259783Y178882D02*
X259862Y178884D01*
X259941Y178890D01*
X260019Y178899D01*
X260097Y178912D01*
X260175Y178929D01*
X260251Y178949D01*
X260326Y178973D01*
X260400Y179001D01*
X260473Y179032D01*
X260544Y179067D01*
X260614Y179105D01*
X260681Y179146D01*
X260746Y179190D01*
X260810Y179237D01*
X260871Y179288D01*
X260929Y179341D01*
X260985Y179397D01*
X261038Y179455D01*
X261089Y179516D01*
X261136Y179580D01*
X261180Y179645D01*
X261221Y179713D01*
X261259Y179782D01*
X261294Y179853D01*
X261325Y179926D01*
X261353Y180000D01*
X261377Y180075D01*
X261397Y180151D01*
X261414Y180229D01*
X261427Y180307D01*
X261436Y180385D01*
X261442Y180464D01*
X261444Y180543D01*
X261445Y180543D02*
X261445Y184697D01*
X261444Y184697D02*
X261442Y184776D01*
X261436Y184855D01*
X261427Y184933D01*
X261414Y185011D01*
X261397Y185089D01*
X261377Y185165D01*
X261353Y185240D01*
X261325Y185314D01*
X261294Y185387D01*
X261259Y185458D01*
X261221Y185528D01*
X261180Y185595D01*
X261136Y185660D01*
X261089Y185724D01*
X261038Y185785D01*
X260985Y185843D01*
X260929Y185899D01*
X260871Y185952D01*
X260810Y186003D01*
X260746Y186050D01*
X260681Y186094D01*
X260614Y186135D01*
X260544Y186173D01*
X260473Y186208D01*
X260400Y186239D01*
X260326Y186267D01*
X260251Y186291D01*
X260175Y186311D01*
X260097Y186328D01*
X260019Y186341D01*
X259941Y186350D01*
X259862Y186356D01*
X259783Y186358D01*
X258122Y186358D01*
X254201Y186358D02*
X254201Y178882D01*
X254201Y181789D02*
X250048Y186358D01*
X252540Y183451D02*
X250048Y178882D01*
X269238Y160958D02*
X269238Y153482D01*
X266746Y156805D02*
X269238Y160958D01*
X266746Y156805D02*
X264254Y160958D01*
X264254Y153482D01*
X259913Y155559D02*
X259913Y158881D01*
X259911Y158970D01*
X259905Y159060D01*
X259896Y159148D01*
X259882Y159237D01*
X259865Y159324D01*
X259844Y159411D01*
X259819Y159497D01*
X259791Y159582D01*
X259759Y159665D01*
X259724Y159748D01*
X259685Y159828D01*
X259642Y159907D01*
X259596Y159983D01*
X259547Y160058D01*
X259495Y160131D01*
X259440Y160201D01*
X259382Y160269D01*
X259320Y160334D01*
X259257Y160396D01*
X259190Y160456D01*
X259121Y160513D01*
X259050Y160567D01*
X258976Y160617D01*
X258900Y160665D01*
X258822Y160709D01*
X258743Y160750D01*
X258662Y160787D01*
X258579Y160821D01*
X258495Y160851D01*
X258409Y160877D01*
X258323Y160900D01*
X258236Y160919D01*
X258148Y160934D01*
X258059Y160946D01*
X257970Y160954D01*
X257881Y160958D01*
X257791Y160958D01*
X257702Y160954D01*
X257613Y160946D01*
X257524Y160934D01*
X257436Y160919D01*
X257349Y160900D01*
X257263Y160877D01*
X257177Y160851D01*
X257093Y160821D01*
X257010Y160787D01*
X256929Y160750D01*
X256850Y160709D01*
X256772Y160665D01*
X256696Y160617D01*
X256622Y160567D01*
X256551Y160513D01*
X256482Y160456D01*
X256415Y160396D01*
X256352Y160334D01*
X256290Y160269D01*
X256232Y160201D01*
X256177Y160131D01*
X256125Y160058D01*
X256076Y159983D01*
X256030Y159907D01*
X255987Y159828D01*
X255948Y159748D01*
X255913Y159665D01*
X255881Y159582D01*
X255853Y159497D01*
X255828Y159411D01*
X255807Y159324D01*
X255790Y159237D01*
X255776Y159148D01*
X255767Y159060D01*
X255761Y158970D01*
X255759Y158881D01*
X255759Y155559D01*
X255761Y155470D01*
X255767Y155380D01*
X255776Y155292D01*
X255790Y155203D01*
X255807Y155116D01*
X255828Y155029D01*
X255853Y154943D01*
X255881Y154858D01*
X255913Y154775D01*
X255948Y154692D01*
X255987Y154612D01*
X256030Y154533D01*
X256076Y154457D01*
X256125Y154382D01*
X256177Y154309D01*
X256232Y154239D01*
X256290Y154171D01*
X256352Y154106D01*
X256415Y154044D01*
X256482Y153984D01*
X256551Y153927D01*
X256622Y153873D01*
X256696Y153823D01*
X256772Y153775D01*
X256850Y153731D01*
X256929Y153690D01*
X257010Y153653D01*
X257093Y153619D01*
X257177Y153589D01*
X257263Y153563D01*
X257349Y153540D01*
X257436Y153521D01*
X257524Y153506D01*
X257613Y153494D01*
X257702Y153486D01*
X257791Y153482D01*
X257881Y153482D01*
X257970Y153486D01*
X258059Y153494D01*
X258148Y153506D01*
X258236Y153521D01*
X258323Y153540D01*
X258409Y153563D01*
X258495Y153589D01*
X258579Y153619D01*
X258662Y153653D01*
X258743Y153690D01*
X258822Y153731D01*
X258900Y153775D01*
X258976Y153823D01*
X259050Y153873D01*
X259121Y153927D01*
X259190Y153984D01*
X259257Y154044D01*
X259320Y154106D01*
X259382Y154171D01*
X259440Y154239D01*
X259495Y154309D01*
X259547Y154382D01*
X259596Y154457D01*
X259642Y154533D01*
X259685Y154612D01*
X259724Y154692D01*
X259759Y154775D01*
X259791Y154858D01*
X259819Y154943D01*
X259844Y155029D01*
X259865Y155116D01*
X259882Y155203D01*
X259896Y155292D01*
X259905Y155380D01*
X259911Y155470D01*
X259913Y155559D01*
X249591Y153482D02*
X249512Y153484D01*
X249433Y153490D01*
X249355Y153499D01*
X249277Y153512D01*
X249199Y153529D01*
X249123Y153549D01*
X249048Y153573D01*
X248974Y153601D01*
X248901Y153632D01*
X248830Y153667D01*
X248761Y153705D01*
X248693Y153746D01*
X248628Y153790D01*
X248564Y153837D01*
X248503Y153888D01*
X248445Y153941D01*
X248389Y153997D01*
X248336Y154055D01*
X248285Y154116D01*
X248238Y154180D01*
X248194Y154245D01*
X248153Y154313D01*
X248115Y154382D01*
X248080Y154453D01*
X248049Y154526D01*
X248021Y154600D01*
X247997Y154675D01*
X247977Y154751D01*
X247960Y154829D01*
X247947Y154907D01*
X247938Y154985D01*
X247932Y155064D01*
X247930Y155143D01*
X249591Y153482D02*
X249706Y153484D01*
X249822Y153490D01*
X249937Y153499D01*
X250052Y153512D01*
X250166Y153529D01*
X250279Y153550D01*
X250392Y153575D01*
X250504Y153603D01*
X250615Y153635D01*
X250725Y153670D01*
X250834Y153709D01*
X250941Y153752D01*
X251047Y153798D01*
X251151Y153848D01*
X251254Y153901D01*
X251354Y153957D01*
X251453Y154017D01*
X251550Y154080D01*
X251645Y154146D01*
X251737Y154215D01*
X251828Y154287D01*
X251915Y154362D01*
X252001Y154440D01*
X252083Y154520D01*
X251875Y159297D02*
X251873Y159376D01*
X251867Y159455D01*
X251858Y159533D01*
X251845Y159611D01*
X251828Y159689D01*
X251808Y159765D01*
X251784Y159840D01*
X251756Y159914D01*
X251725Y159987D01*
X251690Y160058D01*
X251652Y160128D01*
X251611Y160195D01*
X251567Y160260D01*
X251520Y160324D01*
X251469Y160385D01*
X251416Y160443D01*
X251360Y160499D01*
X251302Y160552D01*
X251241Y160603D01*
X251177Y160650D01*
X251112Y160694D01*
X251045Y160735D01*
X250975Y160773D01*
X250904Y160808D01*
X250831Y160839D01*
X250757Y160867D01*
X250682Y160891D01*
X250606Y160911D01*
X250528Y160928D01*
X250450Y160941D01*
X250372Y160950D01*
X250293Y160956D01*
X250214Y160958D01*
X250109Y160956D01*
X250003Y160951D01*
X249898Y160942D01*
X249793Y160929D01*
X249689Y160913D01*
X249585Y160894D01*
X249482Y160871D01*
X249380Y160844D01*
X249279Y160814D01*
X249179Y160781D01*
X249080Y160744D01*
X248983Y160704D01*
X248886Y160661D01*
X248792Y160614D01*
X248699Y160565D01*
X248607Y160512D01*
X248518Y160456D01*
X248430Y160397D01*
X248345Y160335D01*
X251045Y157844D02*
X251112Y157886D01*
X251178Y157931D01*
X251241Y157979D01*
X251302Y158030D01*
X251361Y158084D01*
X251416Y158141D01*
X251470Y158200D01*
X251520Y158262D01*
X251567Y158326D01*
X251612Y158392D01*
X251653Y158460D01*
X251691Y158530D01*
X251725Y158602D01*
X251756Y158675D01*
X251784Y158750D01*
X251808Y158826D01*
X251828Y158903D01*
X251845Y158980D01*
X251858Y159059D01*
X251867Y159138D01*
X251873Y159217D01*
X251875Y159297D01*
X248761Y156596D02*
X248693Y156554D01*
X248627Y156509D01*
X248564Y156461D01*
X248503Y156410D01*
X248444Y156356D01*
X248389Y156299D01*
X248335Y156240D01*
X248285Y156178D01*
X248238Y156114D01*
X248193Y156048D01*
X248152Y155980D01*
X248114Y155910D01*
X248080Y155838D01*
X248049Y155765D01*
X248021Y155690D01*
X247997Y155614D01*
X247977Y155537D01*
X247960Y155460D01*
X247947Y155381D01*
X247938Y155302D01*
X247932Y155223D01*
X247930Y155143D01*
X248760Y156597D02*
X251044Y157843D01*
X243796Y160958D02*
X243796Y153482D01*
X244627Y153482D02*
X242965Y153482D01*
X242965Y160958D02*
X244627Y160958D01*
X269238Y135558D02*
X269238Y128082D01*
X266746Y131405D02*
X269238Y135558D01*
X266746Y131405D02*
X264254Y135558D01*
X264254Y128082D01*
X259456Y128082D02*
X259456Y135558D01*
X260287Y128082D02*
X258625Y128082D01*
X258625Y135558D02*
X260287Y135558D01*
X252831Y128082D02*
X252752Y128084D01*
X252673Y128090D01*
X252595Y128099D01*
X252517Y128112D01*
X252439Y128129D01*
X252363Y128149D01*
X252288Y128173D01*
X252214Y128201D01*
X252141Y128232D01*
X252070Y128267D01*
X252001Y128305D01*
X251933Y128346D01*
X251868Y128390D01*
X251804Y128437D01*
X251743Y128488D01*
X251685Y128541D01*
X251629Y128597D01*
X251576Y128655D01*
X251525Y128716D01*
X251478Y128780D01*
X251434Y128845D01*
X251393Y128913D01*
X251355Y128982D01*
X251320Y129053D01*
X251289Y129126D01*
X251261Y129200D01*
X251237Y129275D01*
X251217Y129351D01*
X251200Y129429D01*
X251187Y129507D01*
X251178Y129585D01*
X251172Y129664D01*
X251170Y129743D01*
X252831Y128082D02*
X252946Y128084D01*
X253062Y128090D01*
X253177Y128099D01*
X253292Y128112D01*
X253406Y128129D01*
X253519Y128150D01*
X253632Y128175D01*
X253744Y128203D01*
X253855Y128235D01*
X253965Y128270D01*
X254074Y128309D01*
X254181Y128352D01*
X254287Y128398D01*
X254391Y128448D01*
X254494Y128501D01*
X254594Y128557D01*
X254693Y128617D01*
X254790Y128680D01*
X254885Y128746D01*
X254977Y128815D01*
X255068Y128887D01*
X255155Y128962D01*
X255241Y129040D01*
X255323Y129120D01*
X255115Y133897D02*
X255113Y133976D01*
X255107Y134055D01*
X255098Y134133D01*
X255085Y134211D01*
X255068Y134289D01*
X255048Y134365D01*
X255024Y134440D01*
X254996Y134514D01*
X254965Y134587D01*
X254930Y134658D01*
X254892Y134728D01*
X254851Y134795D01*
X254807Y134860D01*
X254760Y134924D01*
X254709Y134985D01*
X254656Y135043D01*
X254600Y135099D01*
X254542Y135152D01*
X254481Y135203D01*
X254417Y135250D01*
X254352Y135294D01*
X254285Y135335D01*
X254215Y135373D01*
X254144Y135408D01*
X254071Y135439D01*
X253997Y135467D01*
X253922Y135491D01*
X253846Y135511D01*
X253768Y135528D01*
X253690Y135541D01*
X253612Y135550D01*
X253533Y135556D01*
X253454Y135558D01*
X253349Y135556D01*
X253243Y135551D01*
X253138Y135542D01*
X253033Y135529D01*
X252929Y135513D01*
X252825Y135494D01*
X252722Y135471D01*
X252620Y135444D01*
X252519Y135414D01*
X252419Y135381D01*
X252320Y135344D01*
X252223Y135304D01*
X252126Y135261D01*
X252032Y135214D01*
X251939Y135165D01*
X251847Y135112D01*
X251758Y135056D01*
X251670Y134997D01*
X251585Y134935D01*
X254285Y132444D02*
X254352Y132486D01*
X254418Y132531D01*
X254481Y132579D01*
X254542Y132630D01*
X254601Y132684D01*
X254656Y132741D01*
X254710Y132800D01*
X254760Y132862D01*
X254807Y132926D01*
X254852Y132992D01*
X254893Y133060D01*
X254931Y133130D01*
X254965Y133202D01*
X254996Y133275D01*
X255024Y133350D01*
X255048Y133426D01*
X255068Y133503D01*
X255085Y133580D01*
X255098Y133659D01*
X255107Y133738D01*
X255113Y133817D01*
X255115Y133897D01*
X252001Y131196D02*
X251933Y131154D01*
X251867Y131109D01*
X251804Y131061D01*
X251743Y131010D01*
X251684Y130956D01*
X251629Y130899D01*
X251575Y130840D01*
X251525Y130778D01*
X251478Y130714D01*
X251433Y130648D01*
X251392Y130580D01*
X251354Y130510D01*
X251320Y130438D01*
X251289Y130365D01*
X251261Y130290D01*
X251237Y130214D01*
X251217Y130137D01*
X251200Y130060D01*
X251187Y129981D01*
X251178Y129902D01*
X251172Y129823D01*
X251170Y129743D01*
X252000Y131197D02*
X254284Y132443D01*
X247493Y133481D02*
X247493Y130159D01*
X247493Y133481D02*
X247491Y133570D01*
X247485Y133660D01*
X247476Y133748D01*
X247462Y133837D01*
X247445Y133924D01*
X247424Y134011D01*
X247399Y134097D01*
X247371Y134182D01*
X247339Y134265D01*
X247304Y134348D01*
X247265Y134428D01*
X247222Y134507D01*
X247176Y134583D01*
X247127Y134658D01*
X247075Y134731D01*
X247020Y134801D01*
X246962Y134869D01*
X246900Y134934D01*
X246837Y134996D01*
X246770Y135056D01*
X246701Y135113D01*
X246630Y135167D01*
X246556Y135217D01*
X246480Y135265D01*
X246402Y135309D01*
X246323Y135350D01*
X246242Y135387D01*
X246159Y135421D01*
X246075Y135451D01*
X245989Y135477D01*
X245903Y135500D01*
X245816Y135519D01*
X245728Y135534D01*
X245639Y135546D01*
X245550Y135554D01*
X245461Y135558D01*
X245371Y135558D01*
X245282Y135554D01*
X245193Y135546D01*
X245104Y135534D01*
X245016Y135519D01*
X244929Y135500D01*
X244843Y135477D01*
X244757Y135451D01*
X244673Y135421D01*
X244590Y135387D01*
X244509Y135350D01*
X244430Y135309D01*
X244352Y135265D01*
X244276Y135217D01*
X244202Y135167D01*
X244131Y135113D01*
X244062Y135056D01*
X243995Y134996D01*
X243932Y134934D01*
X243870Y134869D01*
X243812Y134801D01*
X243757Y134731D01*
X243705Y134658D01*
X243656Y134583D01*
X243610Y134507D01*
X243567Y134428D01*
X243528Y134348D01*
X243493Y134265D01*
X243461Y134182D01*
X243433Y134097D01*
X243408Y134011D01*
X243387Y133924D01*
X243370Y133837D01*
X243356Y133748D01*
X243347Y133660D01*
X243341Y133570D01*
X243339Y133481D01*
X243339Y130159D01*
X243341Y130070D01*
X243347Y129980D01*
X243356Y129892D01*
X243370Y129803D01*
X243387Y129716D01*
X243408Y129629D01*
X243433Y129543D01*
X243461Y129458D01*
X243493Y129375D01*
X243528Y129292D01*
X243567Y129212D01*
X243610Y129133D01*
X243656Y129057D01*
X243705Y128982D01*
X243757Y128909D01*
X243812Y128839D01*
X243870Y128771D01*
X243932Y128706D01*
X243995Y128644D01*
X244062Y128584D01*
X244131Y128527D01*
X244202Y128473D01*
X244276Y128423D01*
X244352Y128375D01*
X244430Y128331D01*
X244509Y128290D01*
X244590Y128253D01*
X244673Y128219D01*
X244757Y128189D01*
X244843Y128163D01*
X244929Y128140D01*
X245016Y128121D01*
X245104Y128106D01*
X245193Y128094D01*
X245282Y128086D01*
X245371Y128082D01*
X245461Y128082D01*
X245550Y128086D01*
X245639Y128094D01*
X245728Y128106D01*
X245816Y128121D01*
X245903Y128140D01*
X245989Y128163D01*
X246075Y128189D01*
X246159Y128219D01*
X246242Y128253D01*
X246323Y128290D01*
X246402Y128331D01*
X246480Y128375D01*
X246556Y128423D01*
X246630Y128473D01*
X246701Y128527D01*
X246770Y128584D01*
X246837Y128644D01*
X246900Y128706D01*
X246962Y128771D01*
X247020Y128839D01*
X247075Y128909D01*
X247127Y128982D01*
X247176Y129057D01*
X247222Y129133D01*
X247265Y129212D01*
X247304Y129292D01*
X247339Y129375D01*
X247371Y129458D01*
X247399Y129543D01*
X247424Y129629D01*
X247445Y129716D01*
X247462Y129803D01*
X247476Y129892D01*
X247485Y129980D01*
X247491Y130070D01*
X247493Y130159D01*
X269238Y110158D02*
X269238Y102682D01*
X265085Y102682D02*
X269238Y110158D01*
X265085Y110158D02*
X265085Y102682D01*
X260517Y102682D02*
X260517Y110158D01*
X258440Y110158D01*
X258351Y110156D01*
X258261Y110150D01*
X258173Y110141D01*
X258084Y110127D01*
X257997Y110110D01*
X257910Y110089D01*
X257824Y110064D01*
X257739Y110036D01*
X257656Y110004D01*
X257573Y109969D01*
X257493Y109930D01*
X257414Y109887D01*
X257338Y109841D01*
X257263Y109792D01*
X257190Y109740D01*
X257120Y109685D01*
X257052Y109627D01*
X256987Y109565D01*
X256925Y109502D01*
X256865Y109435D01*
X256808Y109366D01*
X256754Y109295D01*
X256704Y109221D01*
X256656Y109145D01*
X256612Y109067D01*
X256571Y108988D01*
X256534Y108907D01*
X256500Y108824D01*
X256470Y108740D01*
X256444Y108654D01*
X256421Y108568D01*
X256402Y108481D01*
X256387Y108393D01*
X256375Y108304D01*
X256367Y108215D01*
X256363Y108126D01*
X256363Y108036D01*
X256367Y107947D01*
X256375Y107858D01*
X256387Y107769D01*
X256402Y107681D01*
X256421Y107594D01*
X256444Y107508D01*
X256470Y107422D01*
X256500Y107338D01*
X256534Y107255D01*
X256571Y107174D01*
X256612Y107095D01*
X256656Y107017D01*
X256704Y106941D01*
X256754Y106867D01*
X256808Y106796D01*
X256865Y106727D01*
X256925Y106660D01*
X256987Y106597D01*
X257052Y106535D01*
X257120Y106477D01*
X257190Y106422D01*
X257263Y106370D01*
X257338Y106321D01*
X257414Y106275D01*
X257493Y106232D01*
X257573Y106193D01*
X257656Y106158D01*
X257739Y106126D01*
X257824Y106098D01*
X257910Y106073D01*
X257997Y106052D01*
X258084Y106035D01*
X258173Y106021D01*
X258261Y106012D01*
X258351Y106006D01*
X258440Y106004D01*
X258440Y106005D02*
X260517Y106005D01*
X258025Y106005D02*
X256363Y102682D01*
X250276Y102682D02*
X250197Y102684D01*
X250118Y102690D01*
X250040Y102699D01*
X249962Y102712D01*
X249884Y102729D01*
X249808Y102749D01*
X249733Y102773D01*
X249659Y102801D01*
X249586Y102832D01*
X249515Y102867D01*
X249446Y102905D01*
X249378Y102946D01*
X249313Y102990D01*
X249249Y103037D01*
X249188Y103088D01*
X249130Y103141D01*
X249074Y103197D01*
X249021Y103255D01*
X248970Y103316D01*
X248923Y103380D01*
X248879Y103445D01*
X248838Y103513D01*
X248800Y103582D01*
X248765Y103653D01*
X248734Y103726D01*
X248706Y103800D01*
X248682Y103875D01*
X248662Y103951D01*
X248645Y104029D01*
X248632Y104107D01*
X248623Y104185D01*
X248617Y104264D01*
X248615Y104343D01*
X250276Y102682D02*
X250391Y102684D01*
X250507Y102690D01*
X250622Y102699D01*
X250737Y102712D01*
X250851Y102729D01*
X250964Y102750D01*
X251077Y102775D01*
X251189Y102803D01*
X251300Y102835D01*
X251410Y102870D01*
X251519Y102909D01*
X251626Y102952D01*
X251732Y102998D01*
X251836Y103048D01*
X251939Y103101D01*
X252039Y103157D01*
X252138Y103217D01*
X252235Y103280D01*
X252330Y103346D01*
X252422Y103415D01*
X252513Y103487D01*
X252600Y103562D01*
X252686Y103640D01*
X252768Y103720D01*
X252560Y108497D02*
X252558Y108576D01*
X252552Y108655D01*
X252543Y108733D01*
X252530Y108811D01*
X252513Y108889D01*
X252493Y108965D01*
X252469Y109040D01*
X252441Y109114D01*
X252410Y109187D01*
X252375Y109258D01*
X252337Y109328D01*
X252296Y109395D01*
X252252Y109460D01*
X252205Y109524D01*
X252154Y109585D01*
X252101Y109643D01*
X252045Y109699D01*
X251987Y109752D01*
X251926Y109803D01*
X251862Y109850D01*
X251797Y109894D01*
X251730Y109935D01*
X251660Y109973D01*
X251589Y110008D01*
X251516Y110039D01*
X251442Y110067D01*
X251367Y110091D01*
X251291Y110111D01*
X251213Y110128D01*
X251135Y110141D01*
X251057Y110150D01*
X250978Y110156D01*
X250899Y110158D01*
X250794Y110156D01*
X250688Y110151D01*
X250583Y110142D01*
X250478Y110129D01*
X250374Y110113D01*
X250270Y110094D01*
X250167Y110071D01*
X250065Y110044D01*
X249964Y110014D01*
X249864Y109981D01*
X249765Y109944D01*
X249668Y109904D01*
X249571Y109861D01*
X249477Y109814D01*
X249384Y109765D01*
X249292Y109712D01*
X249203Y109656D01*
X249115Y109597D01*
X249030Y109535D01*
X251730Y107044D02*
X251797Y107086D01*
X251863Y107131D01*
X251926Y107179D01*
X251987Y107230D01*
X252046Y107284D01*
X252101Y107341D01*
X252155Y107400D01*
X252205Y107462D01*
X252252Y107526D01*
X252297Y107592D01*
X252338Y107660D01*
X252376Y107730D01*
X252410Y107802D01*
X252441Y107875D01*
X252469Y107950D01*
X252493Y108026D01*
X252513Y108103D01*
X252530Y108180D01*
X252543Y108259D01*
X252552Y108338D01*
X252558Y108417D01*
X252560Y108497D01*
X249446Y105796D02*
X249378Y105754D01*
X249312Y105709D01*
X249249Y105661D01*
X249188Y105610D01*
X249129Y105556D01*
X249074Y105499D01*
X249020Y105440D01*
X248970Y105378D01*
X248923Y105314D01*
X248878Y105248D01*
X248837Y105180D01*
X248799Y105110D01*
X248765Y105038D01*
X248734Y104965D01*
X248706Y104890D01*
X248682Y104814D01*
X248662Y104737D01*
X248645Y104660D01*
X248632Y104581D01*
X248623Y104502D01*
X248617Y104423D01*
X248615Y104343D01*
X249445Y105797D02*
X251730Y107043D01*
X243401Y110158D02*
X243401Y102682D01*
X241325Y110158D02*
X245478Y110158D01*
X267161Y81435D02*
X269238Y81435D01*
X267161Y81436D02*
X267072Y81434D01*
X266982Y81428D01*
X266894Y81419D01*
X266805Y81405D01*
X266718Y81388D01*
X266631Y81367D01*
X266545Y81342D01*
X266460Y81314D01*
X266377Y81282D01*
X266294Y81247D01*
X266214Y81208D01*
X266135Y81165D01*
X266059Y81119D01*
X265984Y81070D01*
X265911Y81018D01*
X265841Y80963D01*
X265773Y80905D01*
X265708Y80843D01*
X265646Y80780D01*
X265586Y80713D01*
X265529Y80644D01*
X265475Y80573D01*
X265425Y80499D01*
X265377Y80423D01*
X265333Y80345D01*
X265292Y80266D01*
X265255Y80185D01*
X265221Y80102D01*
X265191Y80018D01*
X265165Y79932D01*
X265142Y79846D01*
X265123Y79759D01*
X265108Y79671D01*
X265096Y79582D01*
X265088Y79493D01*
X265084Y79404D01*
X265084Y79314D01*
X265088Y79225D01*
X265096Y79136D01*
X265108Y79047D01*
X265123Y78959D01*
X265142Y78872D01*
X265165Y78786D01*
X265191Y78700D01*
X265221Y78616D01*
X265255Y78533D01*
X265292Y78452D01*
X265333Y78373D01*
X265377Y78295D01*
X265425Y78219D01*
X265475Y78145D01*
X265529Y78074D01*
X265586Y78005D01*
X265646Y77938D01*
X265708Y77875D01*
X265773Y77813D01*
X265841Y77755D01*
X265911Y77700D01*
X265984Y77648D01*
X266059Y77599D01*
X266135Y77553D01*
X266214Y77510D01*
X266294Y77471D01*
X266377Y77436D01*
X266460Y77404D01*
X266545Y77376D01*
X266631Y77351D01*
X266718Y77330D01*
X266805Y77313D01*
X266894Y77299D01*
X266982Y77290D01*
X267072Y77284D01*
X267161Y77282D01*
X269238Y77282D01*
X269238Y84758D01*
X267161Y84758D01*
X267081Y84756D01*
X267001Y84750D01*
X266921Y84741D01*
X266842Y84727D01*
X266763Y84710D01*
X266686Y84689D01*
X266610Y84664D01*
X266535Y84635D01*
X266461Y84603D01*
X266389Y84568D01*
X266319Y84529D01*
X266251Y84486D01*
X266185Y84441D01*
X266121Y84392D01*
X266060Y84340D01*
X266001Y84286D01*
X265945Y84228D01*
X265891Y84168D01*
X265841Y84105D01*
X265794Y84041D01*
X265750Y83973D01*
X265709Y83904D01*
X265672Y83833D01*
X265638Y83760D01*
X265608Y83686D01*
X265581Y83610D01*
X265558Y83533D01*
X265539Y83455D01*
X265524Y83377D01*
X265512Y83297D01*
X265504Y83217D01*
X265500Y83137D01*
X265500Y83057D01*
X265504Y82977D01*
X265512Y82897D01*
X265524Y82817D01*
X265539Y82739D01*
X265558Y82661D01*
X265581Y82584D01*
X265608Y82508D01*
X265638Y82434D01*
X265672Y82361D01*
X265709Y82290D01*
X265750Y82221D01*
X265794Y82153D01*
X265841Y82089D01*
X265891Y82026D01*
X265945Y81966D01*
X266001Y81908D01*
X266060Y81854D01*
X266121Y81802D01*
X266185Y81753D01*
X266251Y81708D01*
X266319Y81665D01*
X266389Y81626D01*
X266461Y81591D01*
X266535Y81559D01*
X266610Y81530D01*
X266686Y81505D01*
X266763Y81484D01*
X266842Y81467D01*
X266921Y81453D01*
X267001Y81444D01*
X267081Y81438D01*
X267161Y81436D01*
X261325Y79359D02*
X261325Y84758D01*
X261325Y79359D02*
X261323Y79270D01*
X261317Y79180D01*
X261308Y79092D01*
X261294Y79003D01*
X261277Y78916D01*
X261256Y78829D01*
X261231Y78743D01*
X261203Y78658D01*
X261171Y78575D01*
X261136Y78492D01*
X261097Y78412D01*
X261054Y78333D01*
X261008Y78257D01*
X260959Y78182D01*
X260907Y78109D01*
X260852Y78039D01*
X260794Y77971D01*
X260732Y77906D01*
X260669Y77844D01*
X260602Y77784D01*
X260533Y77727D01*
X260462Y77673D01*
X260388Y77623D01*
X260312Y77575D01*
X260234Y77531D01*
X260155Y77490D01*
X260074Y77453D01*
X259991Y77419D01*
X259907Y77389D01*
X259821Y77363D01*
X259735Y77340D01*
X259648Y77321D01*
X259560Y77306D01*
X259471Y77294D01*
X259382Y77286D01*
X259293Y77282D01*
X259203Y77282D01*
X259114Y77286D01*
X259025Y77294D01*
X258936Y77306D01*
X258848Y77321D01*
X258761Y77340D01*
X258675Y77363D01*
X258589Y77389D01*
X258505Y77419D01*
X258422Y77453D01*
X258341Y77490D01*
X258262Y77531D01*
X258184Y77575D01*
X258108Y77623D01*
X258034Y77673D01*
X257963Y77727D01*
X257894Y77784D01*
X257827Y77844D01*
X257764Y77906D01*
X257702Y77971D01*
X257644Y78039D01*
X257589Y78109D01*
X257537Y78182D01*
X257488Y78257D01*
X257442Y78333D01*
X257399Y78412D01*
X257360Y78492D01*
X257325Y78575D01*
X257293Y78658D01*
X257265Y78743D01*
X257240Y78829D01*
X257219Y78916D01*
X257202Y79003D01*
X257188Y79092D01*
X257179Y79180D01*
X257173Y79270D01*
X257171Y79359D01*
X257172Y79359D02*
X257172Y84758D01*
X250733Y77282D02*
X250654Y77284D01*
X250575Y77290D01*
X250497Y77299D01*
X250419Y77312D01*
X250341Y77329D01*
X250265Y77349D01*
X250190Y77373D01*
X250116Y77401D01*
X250043Y77432D01*
X249972Y77467D01*
X249903Y77505D01*
X249835Y77546D01*
X249770Y77590D01*
X249706Y77637D01*
X249645Y77688D01*
X249587Y77741D01*
X249531Y77797D01*
X249478Y77855D01*
X249427Y77916D01*
X249380Y77980D01*
X249336Y78045D01*
X249295Y78113D01*
X249257Y78182D01*
X249222Y78253D01*
X249191Y78326D01*
X249163Y78400D01*
X249139Y78475D01*
X249119Y78551D01*
X249102Y78629D01*
X249089Y78707D01*
X249080Y78785D01*
X249074Y78864D01*
X249072Y78943D01*
X250733Y77282D02*
X250848Y77284D01*
X250964Y77290D01*
X251079Y77299D01*
X251194Y77312D01*
X251308Y77329D01*
X251421Y77350D01*
X251534Y77375D01*
X251646Y77403D01*
X251757Y77435D01*
X251867Y77470D01*
X251976Y77509D01*
X252083Y77552D01*
X252189Y77598D01*
X252293Y77648D01*
X252396Y77701D01*
X252496Y77757D01*
X252595Y77817D01*
X252692Y77880D01*
X252787Y77946D01*
X252879Y78015D01*
X252970Y78087D01*
X253057Y78162D01*
X253143Y78240D01*
X253225Y78320D01*
X253017Y83097D02*
X253015Y83176D01*
X253009Y83255D01*
X253000Y83333D01*
X252987Y83411D01*
X252970Y83489D01*
X252950Y83565D01*
X252926Y83640D01*
X252898Y83714D01*
X252867Y83787D01*
X252832Y83858D01*
X252794Y83928D01*
X252753Y83995D01*
X252709Y84060D01*
X252662Y84124D01*
X252611Y84185D01*
X252558Y84243D01*
X252502Y84299D01*
X252444Y84352D01*
X252383Y84403D01*
X252319Y84450D01*
X252254Y84494D01*
X252187Y84535D01*
X252117Y84573D01*
X252046Y84608D01*
X251973Y84639D01*
X251899Y84667D01*
X251824Y84691D01*
X251748Y84711D01*
X251670Y84728D01*
X251592Y84741D01*
X251514Y84750D01*
X251435Y84756D01*
X251356Y84758D01*
X251251Y84756D01*
X251145Y84751D01*
X251040Y84742D01*
X250935Y84729D01*
X250831Y84713D01*
X250727Y84694D01*
X250624Y84671D01*
X250522Y84644D01*
X250421Y84614D01*
X250321Y84581D01*
X250222Y84544D01*
X250125Y84504D01*
X250028Y84461D01*
X249934Y84414D01*
X249841Y84365D01*
X249749Y84312D01*
X249660Y84256D01*
X249572Y84197D01*
X249487Y84135D01*
X252187Y81644D02*
X252254Y81686D01*
X252320Y81731D01*
X252383Y81779D01*
X252444Y81830D01*
X252503Y81884D01*
X252558Y81941D01*
X252612Y82000D01*
X252662Y82062D01*
X252709Y82126D01*
X252754Y82192D01*
X252795Y82260D01*
X252833Y82330D01*
X252867Y82402D01*
X252898Y82475D01*
X252926Y82550D01*
X252950Y82626D01*
X252970Y82703D01*
X252987Y82780D01*
X253000Y82859D01*
X253009Y82938D01*
X253015Y83017D01*
X253017Y83097D01*
X249903Y80396D02*
X249835Y80354D01*
X249769Y80309D01*
X249706Y80261D01*
X249645Y80210D01*
X249586Y80156D01*
X249531Y80099D01*
X249477Y80040D01*
X249427Y79978D01*
X249380Y79914D01*
X249335Y79848D01*
X249294Y79780D01*
X249256Y79710D01*
X249222Y79638D01*
X249191Y79565D01*
X249163Y79490D01*
X249139Y79414D01*
X249119Y79337D01*
X249102Y79260D01*
X249089Y79181D01*
X249080Y79102D01*
X249074Y79023D01*
X249072Y78943D01*
X249902Y80397D02*
X252187Y81643D01*
X245810Y84758D02*
X243318Y81228D01*
X240826Y84758D01*
X243318Y81228D02*
X243318Y77282D01*
X269238Y59358D02*
X269238Y51882D01*
X269238Y59358D02*
X267161Y59358D01*
X267073Y59356D01*
X266985Y59351D01*
X266897Y59341D01*
X266810Y59328D01*
X266723Y59311D01*
X266638Y59291D01*
X266553Y59267D01*
X266469Y59239D01*
X266387Y59208D01*
X266305Y59174D01*
X266226Y59136D01*
X266148Y59094D01*
X266072Y59050D01*
X265998Y59002D01*
X265926Y58951D01*
X265856Y58897D01*
X265789Y58840D01*
X265724Y58781D01*
X265661Y58718D01*
X265602Y58653D01*
X265545Y58586D01*
X265491Y58516D01*
X265440Y58444D01*
X265392Y58370D01*
X265348Y58294D01*
X265306Y58216D01*
X265268Y58137D01*
X265234Y58055D01*
X265203Y57973D01*
X265175Y57889D01*
X265151Y57804D01*
X265131Y57719D01*
X265114Y57632D01*
X265101Y57545D01*
X265091Y57457D01*
X265086Y57369D01*
X265084Y57281D01*
X265085Y57281D02*
X265085Y53959D01*
X265084Y53959D02*
X265086Y53871D01*
X265091Y53783D01*
X265101Y53695D01*
X265114Y53608D01*
X265131Y53521D01*
X265151Y53436D01*
X265175Y53351D01*
X265203Y53267D01*
X265234Y53185D01*
X265268Y53103D01*
X265306Y53024D01*
X265348Y52946D01*
X265392Y52870D01*
X265440Y52796D01*
X265491Y52724D01*
X265545Y52654D01*
X265602Y52587D01*
X265661Y52522D01*
X265724Y52459D01*
X265789Y52400D01*
X265856Y52343D01*
X265926Y52289D01*
X265998Y52238D01*
X266072Y52190D01*
X266148Y52146D01*
X266226Y52104D01*
X266305Y52066D01*
X266387Y52032D01*
X266469Y52001D01*
X266553Y51973D01*
X266638Y51949D01*
X266723Y51929D01*
X266810Y51912D01*
X266897Y51899D01*
X266985Y51889D01*
X267073Y51884D01*
X267161Y51882D01*
X269238Y51882D01*
X260411Y51882D02*
X260411Y59358D01*
X259581Y51882D02*
X261242Y51882D01*
X261242Y59358D02*
X259581Y59358D01*
X256008Y57281D02*
X256008Y53959D01*
X256008Y57281D02*
X256006Y57370D01*
X256000Y57460D01*
X255991Y57548D01*
X255977Y57637D01*
X255960Y57724D01*
X255939Y57811D01*
X255914Y57897D01*
X255886Y57982D01*
X255854Y58065D01*
X255819Y58148D01*
X255780Y58228D01*
X255737Y58307D01*
X255691Y58383D01*
X255642Y58458D01*
X255590Y58531D01*
X255535Y58601D01*
X255477Y58669D01*
X255415Y58734D01*
X255352Y58796D01*
X255285Y58856D01*
X255216Y58913D01*
X255145Y58967D01*
X255071Y59017D01*
X254995Y59065D01*
X254917Y59109D01*
X254838Y59150D01*
X254757Y59187D01*
X254674Y59221D01*
X254590Y59251D01*
X254504Y59277D01*
X254418Y59300D01*
X254331Y59319D01*
X254243Y59334D01*
X254154Y59346D01*
X254065Y59354D01*
X253976Y59358D01*
X253886Y59358D01*
X253797Y59354D01*
X253708Y59346D01*
X253619Y59334D01*
X253531Y59319D01*
X253444Y59300D01*
X253358Y59277D01*
X253272Y59251D01*
X253188Y59221D01*
X253105Y59187D01*
X253024Y59150D01*
X252945Y59109D01*
X252867Y59065D01*
X252791Y59017D01*
X252717Y58967D01*
X252646Y58913D01*
X252577Y58856D01*
X252510Y58796D01*
X252447Y58734D01*
X252385Y58669D01*
X252327Y58601D01*
X252272Y58531D01*
X252220Y58458D01*
X252171Y58383D01*
X252125Y58307D01*
X252082Y58228D01*
X252043Y58148D01*
X252008Y58065D01*
X251976Y57982D01*
X251948Y57897D01*
X251923Y57811D01*
X251902Y57724D01*
X251885Y57637D01*
X251871Y57548D01*
X251862Y57460D01*
X251856Y57370D01*
X251854Y57281D01*
X251855Y57281D02*
X251855Y53959D01*
X251854Y53959D02*
X251856Y53870D01*
X251862Y53780D01*
X251871Y53692D01*
X251885Y53603D01*
X251902Y53516D01*
X251923Y53429D01*
X251948Y53343D01*
X251976Y53258D01*
X252008Y53175D01*
X252043Y53092D01*
X252082Y53012D01*
X252125Y52933D01*
X252171Y52857D01*
X252220Y52782D01*
X252272Y52709D01*
X252327Y52639D01*
X252385Y52571D01*
X252447Y52506D01*
X252510Y52444D01*
X252577Y52384D01*
X252646Y52327D01*
X252717Y52273D01*
X252791Y52223D01*
X252867Y52175D01*
X252945Y52131D01*
X253024Y52090D01*
X253105Y52053D01*
X253188Y52019D01*
X253272Y51989D01*
X253358Y51963D01*
X253444Y51940D01*
X253531Y51921D01*
X253619Y51906D01*
X253708Y51894D01*
X253797Y51886D01*
X253886Y51882D01*
X253976Y51882D01*
X254065Y51886D01*
X254154Y51894D01*
X254243Y51906D01*
X254331Y51921D01*
X254418Y51940D01*
X254504Y51963D01*
X254590Y51989D01*
X254674Y52019D01*
X254757Y52053D01*
X254838Y52090D01*
X254917Y52131D01*
X254995Y52175D01*
X255071Y52223D01*
X255145Y52273D01*
X255216Y52327D01*
X255285Y52384D01*
X255352Y52444D01*
X255415Y52506D01*
X255477Y52571D01*
X255535Y52639D01*
X255590Y52709D01*
X255642Y52782D01*
X255691Y52857D01*
X255737Y52933D01*
X255780Y53012D01*
X255819Y53092D01*
X255854Y53175D01*
X255886Y53258D01*
X255914Y53343D01*
X255939Y53429D01*
X255960Y53516D01*
X255977Y53603D01*
X255991Y53692D01*
X256000Y53780D01*
X256006Y53870D01*
X256008Y53959D01*
X247908Y57697D02*
X245831Y59358D01*
X245831Y51882D01*
X243755Y51882D02*
X247908Y51882D01*
X265085Y31905D02*
X266331Y31905D01*
X265085Y31905D02*
X265085Y27752D01*
X267577Y27752D01*
X267656Y27754D01*
X267735Y27760D01*
X267813Y27769D01*
X267891Y27782D01*
X267969Y27799D01*
X268045Y27819D01*
X268120Y27843D01*
X268194Y27871D01*
X268267Y27902D01*
X268338Y27937D01*
X268408Y27975D01*
X268475Y28016D01*
X268540Y28060D01*
X268604Y28107D01*
X268665Y28158D01*
X268723Y28211D01*
X268779Y28267D01*
X268832Y28325D01*
X268883Y28386D01*
X268930Y28450D01*
X268974Y28515D01*
X269015Y28583D01*
X269053Y28652D01*
X269088Y28723D01*
X269119Y28796D01*
X269147Y28870D01*
X269171Y28945D01*
X269191Y29021D01*
X269208Y29099D01*
X269221Y29177D01*
X269230Y29255D01*
X269236Y29334D01*
X269238Y29413D01*
X269238Y33567D01*
X269236Y33646D01*
X269230Y33725D01*
X269221Y33803D01*
X269208Y33881D01*
X269191Y33959D01*
X269171Y34035D01*
X269147Y34110D01*
X269119Y34184D01*
X269088Y34257D01*
X269053Y34328D01*
X269015Y34398D01*
X268974Y34465D01*
X268930Y34530D01*
X268883Y34594D01*
X268832Y34655D01*
X268779Y34713D01*
X268723Y34769D01*
X268665Y34822D01*
X268604Y34873D01*
X268540Y34920D01*
X268475Y34964D01*
X268408Y35005D01*
X268338Y35043D01*
X268267Y35078D01*
X268194Y35109D01*
X268120Y35137D01*
X268045Y35161D01*
X267969Y35181D01*
X267891Y35198D01*
X267813Y35211D01*
X267735Y35220D01*
X267656Y35226D01*
X267577Y35228D01*
X265085Y35228D01*
X260598Y35228D02*
X260598Y27752D01*
X256445Y27752D02*
X260598Y35228D01*
X256445Y35228D02*
X256445Y27752D01*
X251958Y27752D02*
X251958Y35228D01*
X249881Y35228D01*
X249793Y35226D01*
X249705Y35221D01*
X249617Y35211D01*
X249530Y35198D01*
X249443Y35181D01*
X249358Y35161D01*
X249273Y35137D01*
X249189Y35109D01*
X249107Y35078D01*
X249025Y35044D01*
X248946Y35006D01*
X248868Y34964D01*
X248792Y34920D01*
X248718Y34872D01*
X248646Y34821D01*
X248576Y34767D01*
X248509Y34710D01*
X248444Y34651D01*
X248381Y34588D01*
X248322Y34523D01*
X248265Y34456D01*
X248211Y34386D01*
X248160Y34314D01*
X248112Y34240D01*
X248068Y34164D01*
X248026Y34086D01*
X247988Y34007D01*
X247954Y33925D01*
X247923Y33843D01*
X247895Y33759D01*
X247871Y33674D01*
X247851Y33589D01*
X247834Y33502D01*
X247821Y33415D01*
X247811Y33327D01*
X247806Y33239D01*
X247804Y33151D01*
X247805Y33151D02*
X247805Y29829D01*
X247804Y29829D02*
X247806Y29741D01*
X247811Y29653D01*
X247821Y29565D01*
X247834Y29478D01*
X247851Y29391D01*
X247871Y29306D01*
X247895Y29221D01*
X247923Y29137D01*
X247954Y29055D01*
X247988Y28973D01*
X248026Y28894D01*
X248068Y28816D01*
X248112Y28740D01*
X248160Y28666D01*
X248211Y28594D01*
X248265Y28524D01*
X248322Y28457D01*
X248381Y28392D01*
X248444Y28329D01*
X248509Y28270D01*
X248576Y28213D01*
X248646Y28159D01*
X248718Y28108D01*
X248792Y28060D01*
X248868Y28016D01*
X248946Y27974D01*
X249025Y27936D01*
X249107Y27902D01*
X249189Y27871D01*
X249273Y27843D01*
X249358Y27819D01*
X249443Y27799D01*
X249530Y27782D01*
X249617Y27769D01*
X249705Y27759D01*
X249793Y27754D01*
X249881Y27752D01*
X251958Y27752D01*
M02*
