G04 EAGLE Gerber RS-274X export*
G75*
%MOMM*%
%FSLAX34Y34*%
%LPD*%
%INSilkscreen Top*%
%IPPOS*%
%AMOC8*
5,1,8,0,0,1.08239X$1,22.5*%
G01*
%ADD10C,0.152400*%
%ADD11C,0.254000*%


D10*
X59039Y183035D02*
X60285Y183035D01*
X60285Y178882D01*
X57793Y178882D01*
X57714Y178884D01*
X57635Y178890D01*
X57557Y178899D01*
X57479Y178912D01*
X57401Y178929D01*
X57325Y178949D01*
X57250Y178973D01*
X57176Y179001D01*
X57103Y179032D01*
X57032Y179067D01*
X56963Y179105D01*
X56895Y179146D01*
X56830Y179190D01*
X56766Y179237D01*
X56705Y179288D01*
X56647Y179341D01*
X56591Y179397D01*
X56538Y179455D01*
X56487Y179516D01*
X56440Y179580D01*
X56396Y179645D01*
X56355Y179713D01*
X56317Y179782D01*
X56282Y179853D01*
X56251Y179926D01*
X56223Y180000D01*
X56199Y180075D01*
X56179Y180151D01*
X56162Y180229D01*
X56149Y180307D01*
X56140Y180385D01*
X56134Y180464D01*
X56132Y180543D01*
X56132Y184697D01*
X56134Y184776D01*
X56140Y184855D01*
X56149Y184933D01*
X56162Y185011D01*
X56179Y185089D01*
X56199Y185165D01*
X56223Y185240D01*
X56251Y185314D01*
X56282Y185387D01*
X56317Y185458D01*
X56355Y185527D01*
X56396Y185595D01*
X56440Y185660D01*
X56487Y185724D01*
X56538Y185785D01*
X56591Y185843D01*
X56647Y185899D01*
X56705Y185952D01*
X56766Y186003D01*
X56830Y186050D01*
X56895Y186094D01*
X56962Y186135D01*
X57032Y186173D01*
X57103Y186208D01*
X57176Y186239D01*
X57250Y186267D01*
X57325Y186291D01*
X57401Y186311D01*
X57479Y186328D01*
X57557Y186341D01*
X57635Y186350D01*
X57714Y186356D01*
X57793Y186358D01*
X60285Y186358D01*
X64772Y186358D02*
X64772Y178882D01*
X68925Y178882D02*
X64772Y186358D01*
X68925Y186358D02*
X68925Y178882D01*
X73412Y178882D02*
X73412Y186358D01*
X75489Y186358D01*
X75577Y186356D01*
X75665Y186351D01*
X75753Y186341D01*
X75840Y186328D01*
X75927Y186311D01*
X76012Y186291D01*
X76097Y186267D01*
X76181Y186239D01*
X76263Y186208D01*
X76345Y186174D01*
X76424Y186136D01*
X76502Y186094D01*
X76578Y186050D01*
X76652Y186002D01*
X76724Y185951D01*
X76794Y185897D01*
X76861Y185840D01*
X76926Y185780D01*
X76989Y185718D01*
X77048Y185653D01*
X77105Y185586D01*
X77159Y185516D01*
X77210Y185444D01*
X77258Y185370D01*
X77302Y185294D01*
X77344Y185216D01*
X77382Y185136D01*
X77416Y185055D01*
X77447Y184973D01*
X77475Y184889D01*
X77499Y184804D01*
X77519Y184719D01*
X77536Y184632D01*
X77549Y184545D01*
X77559Y184457D01*
X77564Y184369D01*
X77566Y184281D01*
X77565Y184281D02*
X77565Y180959D01*
X77566Y180959D02*
X77564Y180868D01*
X77558Y180778D01*
X77548Y180688D01*
X77534Y180598D01*
X77517Y180509D01*
X77495Y180421D01*
X77470Y180334D01*
X77441Y180249D01*
X77408Y180164D01*
X77371Y180081D01*
X77331Y180000D01*
X77288Y179921D01*
X77241Y179843D01*
X77190Y179768D01*
X77137Y179695D01*
X77080Y179624D01*
X77020Y179556D01*
X76958Y179490D01*
X76892Y179428D01*
X76824Y179368D01*
X76753Y179311D01*
X76680Y179258D01*
X76605Y179207D01*
X76528Y179160D01*
X76448Y179117D01*
X76367Y179077D01*
X76284Y179040D01*
X76199Y179007D01*
X76114Y178978D01*
X76027Y178953D01*
X75939Y178931D01*
X75850Y178914D01*
X75760Y178900D01*
X75670Y178890D01*
X75580Y178884D01*
X75489Y178882D01*
X73412Y178882D01*
X60285Y207165D02*
X59039Y207165D01*
X60285Y207165D02*
X60285Y203012D01*
X57793Y203012D01*
X57714Y203014D01*
X57635Y203020D01*
X57557Y203029D01*
X57479Y203042D01*
X57401Y203059D01*
X57325Y203079D01*
X57250Y203103D01*
X57176Y203131D01*
X57103Y203162D01*
X57032Y203197D01*
X56963Y203235D01*
X56895Y203276D01*
X56830Y203320D01*
X56766Y203367D01*
X56705Y203418D01*
X56647Y203471D01*
X56591Y203527D01*
X56538Y203585D01*
X56487Y203646D01*
X56440Y203710D01*
X56396Y203775D01*
X56355Y203843D01*
X56317Y203912D01*
X56282Y203983D01*
X56251Y204056D01*
X56223Y204130D01*
X56199Y204205D01*
X56179Y204281D01*
X56162Y204359D01*
X56149Y204437D01*
X56140Y204515D01*
X56134Y204594D01*
X56132Y204673D01*
X56132Y208827D01*
X56134Y208906D01*
X56140Y208985D01*
X56149Y209063D01*
X56162Y209141D01*
X56179Y209219D01*
X56199Y209295D01*
X56223Y209370D01*
X56251Y209444D01*
X56282Y209517D01*
X56317Y209588D01*
X56355Y209657D01*
X56396Y209725D01*
X56440Y209790D01*
X56487Y209854D01*
X56538Y209915D01*
X56591Y209973D01*
X56647Y210029D01*
X56705Y210082D01*
X56766Y210133D01*
X56830Y210180D01*
X56895Y210224D01*
X56962Y210265D01*
X57032Y210303D01*
X57103Y210338D01*
X57176Y210369D01*
X57250Y210397D01*
X57325Y210421D01*
X57401Y210441D01*
X57479Y210458D01*
X57557Y210471D01*
X57635Y210480D01*
X57714Y210486D01*
X57793Y210488D01*
X60285Y210488D01*
X64772Y210488D02*
X64772Y203012D01*
X68925Y203012D02*
X64772Y210488D01*
X68925Y210488D02*
X68925Y203012D01*
X73412Y203012D02*
X73412Y210488D01*
X75489Y210488D01*
X75577Y210486D01*
X75665Y210481D01*
X75753Y210471D01*
X75840Y210458D01*
X75927Y210441D01*
X76012Y210421D01*
X76097Y210397D01*
X76181Y210369D01*
X76263Y210338D01*
X76345Y210304D01*
X76424Y210266D01*
X76502Y210224D01*
X76578Y210180D01*
X76652Y210132D01*
X76724Y210081D01*
X76794Y210027D01*
X76861Y209970D01*
X76926Y209910D01*
X76989Y209848D01*
X77048Y209783D01*
X77105Y209716D01*
X77159Y209646D01*
X77210Y209574D01*
X77258Y209500D01*
X77302Y209424D01*
X77344Y209346D01*
X77382Y209266D01*
X77416Y209185D01*
X77447Y209103D01*
X77475Y209019D01*
X77499Y208934D01*
X77519Y208849D01*
X77536Y208762D01*
X77549Y208675D01*
X77559Y208587D01*
X77564Y208499D01*
X77566Y208411D01*
X77565Y208411D02*
X77565Y205089D01*
X77566Y205089D02*
X77564Y204998D01*
X77558Y204908D01*
X77548Y204818D01*
X77534Y204728D01*
X77517Y204639D01*
X77495Y204551D01*
X77470Y204464D01*
X77441Y204379D01*
X77408Y204294D01*
X77371Y204211D01*
X77331Y204130D01*
X77288Y204051D01*
X77241Y203973D01*
X77190Y203898D01*
X77137Y203825D01*
X77080Y203754D01*
X77020Y203686D01*
X76958Y203620D01*
X76892Y203558D01*
X76824Y203498D01*
X76753Y203441D01*
X76680Y203388D01*
X76605Y203337D01*
X76528Y203290D01*
X76448Y203247D01*
X76367Y203207D01*
X76284Y203170D01*
X76199Y203137D01*
X76114Y203108D01*
X76027Y203083D01*
X75939Y203061D01*
X75850Y203044D01*
X75760Y203030D01*
X75670Y203020D01*
X75580Y203014D01*
X75489Y203012D01*
X73412Y203012D01*
X56132Y160958D02*
X56132Y153482D01*
X56132Y160958D02*
X58209Y160958D01*
X58298Y160956D01*
X58388Y160950D01*
X58476Y160941D01*
X58565Y160927D01*
X58652Y160910D01*
X58739Y160889D01*
X58825Y160864D01*
X58910Y160836D01*
X58993Y160804D01*
X59076Y160769D01*
X59156Y160730D01*
X59235Y160687D01*
X59311Y160641D01*
X59386Y160592D01*
X59459Y160540D01*
X59529Y160485D01*
X59597Y160427D01*
X59662Y160365D01*
X59724Y160302D01*
X59784Y160235D01*
X59841Y160166D01*
X59895Y160095D01*
X59945Y160021D01*
X59993Y159945D01*
X60037Y159867D01*
X60078Y159788D01*
X60115Y159707D01*
X60149Y159624D01*
X60179Y159540D01*
X60205Y159454D01*
X60228Y159368D01*
X60247Y159281D01*
X60262Y159193D01*
X60274Y159104D01*
X60282Y159015D01*
X60286Y158926D01*
X60286Y158836D01*
X60282Y158747D01*
X60274Y158658D01*
X60262Y158569D01*
X60247Y158481D01*
X60228Y158394D01*
X60205Y158308D01*
X60179Y158222D01*
X60149Y158138D01*
X60115Y158055D01*
X60078Y157974D01*
X60037Y157895D01*
X59993Y157817D01*
X59945Y157741D01*
X59895Y157667D01*
X59841Y157596D01*
X59784Y157527D01*
X59724Y157460D01*
X59662Y157397D01*
X59597Y157335D01*
X59529Y157277D01*
X59459Y157222D01*
X59386Y157170D01*
X59311Y157121D01*
X59235Y157075D01*
X59156Y157032D01*
X59076Y156993D01*
X58993Y156958D01*
X58910Y156926D01*
X58825Y156898D01*
X58739Y156873D01*
X58652Y156852D01*
X58565Y156835D01*
X58476Y156821D01*
X58388Y156812D01*
X58298Y156806D01*
X58209Y156804D01*
X58209Y156805D02*
X56132Y156805D01*
X58624Y156805D02*
X60285Y153482D01*
X63735Y153482D02*
X68719Y160958D01*
X63735Y160958D02*
X68719Y153482D01*
X58209Y135558D02*
X58209Y128082D01*
X60285Y135558D02*
X56132Y135558D01*
X63277Y128082D02*
X68261Y135558D01*
X63277Y135558D02*
X68261Y128082D01*
X56132Y110158D02*
X56132Y102682D01*
X56132Y110158D02*
X58209Y110158D01*
X58297Y110156D01*
X58385Y110151D01*
X58473Y110141D01*
X58560Y110128D01*
X58647Y110111D01*
X58732Y110091D01*
X58817Y110067D01*
X58901Y110039D01*
X58983Y110008D01*
X59065Y109974D01*
X59144Y109936D01*
X59222Y109894D01*
X59298Y109850D01*
X59372Y109802D01*
X59444Y109751D01*
X59514Y109697D01*
X59581Y109640D01*
X59646Y109580D01*
X59709Y109518D01*
X59768Y109453D01*
X59825Y109386D01*
X59879Y109316D01*
X59930Y109244D01*
X59978Y109170D01*
X60022Y109094D01*
X60064Y109016D01*
X60102Y108936D01*
X60136Y108855D01*
X60167Y108773D01*
X60195Y108689D01*
X60219Y108604D01*
X60239Y108519D01*
X60256Y108432D01*
X60269Y108345D01*
X60279Y108257D01*
X60284Y108169D01*
X60286Y108081D01*
X60285Y108081D02*
X60285Y104759D01*
X60286Y104759D02*
X60284Y104668D01*
X60278Y104578D01*
X60268Y104488D01*
X60254Y104398D01*
X60237Y104309D01*
X60215Y104221D01*
X60190Y104134D01*
X60161Y104049D01*
X60128Y103964D01*
X60091Y103881D01*
X60051Y103800D01*
X60008Y103721D01*
X59961Y103643D01*
X59910Y103568D01*
X59857Y103495D01*
X59800Y103424D01*
X59740Y103356D01*
X59678Y103290D01*
X59612Y103228D01*
X59544Y103168D01*
X59473Y103111D01*
X59400Y103058D01*
X59325Y103007D01*
X59248Y102960D01*
X59168Y102917D01*
X59087Y102877D01*
X59004Y102840D01*
X58919Y102807D01*
X58834Y102778D01*
X58747Y102753D01*
X58659Y102731D01*
X58570Y102714D01*
X58480Y102700D01*
X58390Y102690D01*
X58300Y102684D01*
X58209Y102682D01*
X56132Y102682D01*
X64959Y102682D02*
X64959Y110158D01*
X65789Y102682D02*
X64128Y102682D01*
X64128Y110158D02*
X65789Y110158D01*
X69362Y108081D02*
X69362Y104759D01*
X69362Y108081D02*
X69364Y108170D01*
X69370Y108260D01*
X69379Y108348D01*
X69393Y108437D01*
X69410Y108524D01*
X69431Y108611D01*
X69456Y108697D01*
X69484Y108782D01*
X69516Y108865D01*
X69551Y108948D01*
X69590Y109028D01*
X69633Y109107D01*
X69679Y109183D01*
X69728Y109258D01*
X69780Y109331D01*
X69835Y109401D01*
X69893Y109469D01*
X69955Y109534D01*
X70018Y109596D01*
X70085Y109656D01*
X70154Y109713D01*
X70225Y109767D01*
X70299Y109817D01*
X70375Y109865D01*
X70453Y109909D01*
X70532Y109950D01*
X70613Y109987D01*
X70696Y110021D01*
X70780Y110051D01*
X70866Y110077D01*
X70952Y110100D01*
X71039Y110119D01*
X71127Y110134D01*
X71216Y110146D01*
X71305Y110154D01*
X71394Y110158D01*
X71484Y110158D01*
X71573Y110154D01*
X71662Y110146D01*
X71751Y110134D01*
X71839Y110119D01*
X71926Y110100D01*
X72012Y110077D01*
X72098Y110051D01*
X72182Y110021D01*
X72265Y109987D01*
X72346Y109950D01*
X72425Y109909D01*
X72503Y109865D01*
X72579Y109817D01*
X72653Y109767D01*
X72724Y109713D01*
X72793Y109656D01*
X72860Y109596D01*
X72923Y109534D01*
X72985Y109469D01*
X73043Y109401D01*
X73098Y109331D01*
X73150Y109258D01*
X73199Y109183D01*
X73245Y109107D01*
X73288Y109028D01*
X73327Y108948D01*
X73362Y108865D01*
X73394Y108782D01*
X73422Y108697D01*
X73447Y108611D01*
X73468Y108524D01*
X73485Y108437D01*
X73499Y108348D01*
X73508Y108260D01*
X73514Y108170D01*
X73516Y108081D01*
X73515Y108081D02*
X73515Y104759D01*
X73516Y104759D02*
X73514Y104670D01*
X73508Y104580D01*
X73499Y104492D01*
X73485Y104403D01*
X73468Y104316D01*
X73447Y104229D01*
X73422Y104143D01*
X73394Y104058D01*
X73362Y103975D01*
X73327Y103892D01*
X73288Y103812D01*
X73245Y103733D01*
X73199Y103657D01*
X73150Y103582D01*
X73098Y103509D01*
X73043Y103439D01*
X72985Y103371D01*
X72923Y103306D01*
X72860Y103244D01*
X72793Y103184D01*
X72724Y103127D01*
X72653Y103073D01*
X72579Y103023D01*
X72503Y102975D01*
X72425Y102931D01*
X72346Y102890D01*
X72265Y102853D01*
X72182Y102819D01*
X72098Y102789D01*
X72012Y102763D01*
X71926Y102740D01*
X71839Y102721D01*
X71751Y102706D01*
X71662Y102694D01*
X71573Y102686D01*
X71484Y102682D01*
X71394Y102682D01*
X71305Y102686D01*
X71216Y102694D01*
X71127Y102706D01*
X71039Y102721D01*
X70952Y102740D01*
X70866Y102763D01*
X70780Y102789D01*
X70696Y102819D01*
X70613Y102853D01*
X70532Y102890D01*
X70453Y102931D01*
X70375Y102975D01*
X70299Y103023D01*
X70225Y103073D01*
X70154Y103127D01*
X70085Y103184D01*
X70018Y103244D01*
X69955Y103306D01*
X69893Y103371D01*
X69835Y103439D01*
X69780Y103509D01*
X69728Y103582D01*
X69679Y103657D01*
X69633Y103733D01*
X69590Y103812D01*
X69551Y103892D01*
X69516Y103975D01*
X69484Y104058D01*
X69456Y104143D01*
X69431Y104229D01*
X69410Y104316D01*
X69393Y104403D01*
X69379Y104492D01*
X69370Y104580D01*
X69364Y104670D01*
X69362Y104759D01*
X79746Y110158D02*
X79830Y110156D01*
X79914Y110150D01*
X79997Y110141D01*
X80080Y110128D01*
X80162Y110111D01*
X80243Y110091D01*
X80324Y110067D01*
X80403Y110039D01*
X80481Y110008D01*
X80557Y109973D01*
X80632Y109935D01*
X80705Y109893D01*
X80776Y109849D01*
X80845Y109801D01*
X80911Y109750D01*
X80976Y109696D01*
X81038Y109640D01*
X81097Y109581D01*
X81153Y109519D01*
X81207Y109454D01*
X81258Y109388D01*
X81306Y109319D01*
X81350Y109248D01*
X81392Y109175D01*
X81430Y109100D01*
X81465Y109024D01*
X81496Y108946D01*
X81524Y108867D01*
X81548Y108786D01*
X81568Y108705D01*
X81585Y108623D01*
X81598Y108540D01*
X81607Y108457D01*
X81613Y108373D01*
X81615Y108289D01*
X79746Y110158D02*
X79649Y110156D01*
X79551Y110150D01*
X79455Y110140D01*
X79358Y110126D01*
X79262Y110109D01*
X79167Y110087D01*
X79073Y110062D01*
X78980Y110033D01*
X78889Y110000D01*
X78798Y109963D01*
X78710Y109923D01*
X78623Y109879D01*
X78538Y109832D01*
X78454Y109781D01*
X78373Y109727D01*
X78295Y109670D01*
X78218Y109609D01*
X78144Y109546D01*
X78073Y109479D01*
X78005Y109410D01*
X77939Y109338D01*
X77876Y109264D01*
X77817Y109187D01*
X77761Y109107D01*
X77707Y109025D01*
X77658Y108942D01*
X77611Y108856D01*
X77569Y108769D01*
X77529Y108679D01*
X77494Y108589D01*
X77462Y108497D01*
X80993Y106835D02*
X81054Y106895D01*
X81112Y106958D01*
X81167Y107023D01*
X81219Y107091D01*
X81269Y107161D01*
X81316Y107233D01*
X81359Y107306D01*
X81399Y107382D01*
X81436Y107459D01*
X81470Y107538D01*
X81500Y107618D01*
X81527Y107699D01*
X81551Y107781D01*
X81571Y107864D01*
X81587Y107948D01*
X81600Y108033D01*
X81609Y108118D01*
X81614Y108203D01*
X81616Y108289D01*
X80992Y106835D02*
X77462Y102682D01*
X81615Y102682D01*
X56132Y84758D02*
X58624Y77282D01*
X61116Y84758D01*
X66272Y77282D02*
X67933Y77282D01*
X66272Y77282D02*
X66193Y77284D01*
X66114Y77290D01*
X66036Y77299D01*
X65958Y77312D01*
X65880Y77329D01*
X65804Y77349D01*
X65729Y77373D01*
X65655Y77401D01*
X65582Y77432D01*
X65511Y77467D01*
X65442Y77505D01*
X65374Y77546D01*
X65309Y77590D01*
X65245Y77637D01*
X65184Y77688D01*
X65126Y77741D01*
X65070Y77797D01*
X65017Y77855D01*
X64966Y77916D01*
X64919Y77980D01*
X64875Y78045D01*
X64834Y78113D01*
X64796Y78182D01*
X64761Y78253D01*
X64730Y78326D01*
X64702Y78400D01*
X64678Y78475D01*
X64658Y78551D01*
X64641Y78629D01*
X64628Y78707D01*
X64619Y78785D01*
X64613Y78864D01*
X64611Y78943D01*
X64611Y83097D01*
X64613Y83176D01*
X64619Y83255D01*
X64628Y83333D01*
X64641Y83411D01*
X64658Y83489D01*
X64678Y83565D01*
X64702Y83640D01*
X64730Y83714D01*
X64761Y83787D01*
X64796Y83858D01*
X64834Y83927D01*
X64875Y83995D01*
X64919Y84060D01*
X64966Y84124D01*
X65017Y84185D01*
X65070Y84243D01*
X65126Y84299D01*
X65184Y84352D01*
X65245Y84403D01*
X65309Y84450D01*
X65374Y84494D01*
X65441Y84535D01*
X65511Y84573D01*
X65582Y84608D01*
X65655Y84639D01*
X65729Y84667D01*
X65804Y84691D01*
X65880Y84711D01*
X65958Y84728D01*
X66036Y84741D01*
X66114Y84750D01*
X66193Y84756D01*
X66272Y84758D01*
X67933Y84758D01*
X73022Y77282D02*
X74683Y77282D01*
X73022Y77282D02*
X72943Y77284D01*
X72864Y77290D01*
X72786Y77299D01*
X72708Y77312D01*
X72630Y77329D01*
X72554Y77349D01*
X72479Y77373D01*
X72405Y77401D01*
X72332Y77432D01*
X72261Y77467D01*
X72192Y77505D01*
X72124Y77546D01*
X72059Y77590D01*
X71995Y77637D01*
X71934Y77688D01*
X71876Y77741D01*
X71820Y77797D01*
X71767Y77855D01*
X71716Y77916D01*
X71669Y77980D01*
X71625Y78045D01*
X71584Y78113D01*
X71546Y78182D01*
X71511Y78253D01*
X71480Y78326D01*
X71452Y78400D01*
X71428Y78475D01*
X71408Y78551D01*
X71391Y78629D01*
X71378Y78707D01*
X71369Y78785D01*
X71363Y78864D01*
X71361Y78943D01*
X71361Y83097D01*
X71363Y83176D01*
X71369Y83255D01*
X71378Y83333D01*
X71391Y83411D01*
X71408Y83489D01*
X71428Y83565D01*
X71452Y83640D01*
X71480Y83714D01*
X71511Y83787D01*
X71546Y83858D01*
X71584Y83927D01*
X71625Y83995D01*
X71669Y84060D01*
X71716Y84124D01*
X71767Y84185D01*
X71820Y84243D01*
X71876Y84299D01*
X71934Y84352D01*
X71995Y84403D01*
X72059Y84450D01*
X72124Y84494D01*
X72191Y84535D01*
X72261Y84573D01*
X72332Y84608D01*
X72405Y84639D01*
X72479Y84667D01*
X72554Y84691D01*
X72630Y84711D01*
X72708Y84728D01*
X72786Y84741D01*
X72864Y84750D01*
X72943Y84756D01*
X73022Y84758D01*
X74683Y84758D01*
X56132Y59358D02*
X58624Y51882D01*
X61116Y59358D01*
X66272Y51882D02*
X67933Y51882D01*
X66272Y51882D02*
X66193Y51884D01*
X66114Y51890D01*
X66036Y51899D01*
X65958Y51912D01*
X65880Y51929D01*
X65804Y51949D01*
X65729Y51973D01*
X65655Y52001D01*
X65582Y52032D01*
X65511Y52067D01*
X65442Y52105D01*
X65374Y52146D01*
X65309Y52190D01*
X65245Y52237D01*
X65184Y52288D01*
X65126Y52341D01*
X65070Y52397D01*
X65017Y52455D01*
X64966Y52516D01*
X64919Y52580D01*
X64875Y52645D01*
X64834Y52713D01*
X64796Y52782D01*
X64761Y52853D01*
X64730Y52926D01*
X64702Y53000D01*
X64678Y53075D01*
X64658Y53151D01*
X64641Y53229D01*
X64628Y53307D01*
X64619Y53385D01*
X64613Y53464D01*
X64611Y53543D01*
X64611Y57697D01*
X64613Y57776D01*
X64619Y57855D01*
X64628Y57933D01*
X64641Y58011D01*
X64658Y58089D01*
X64678Y58165D01*
X64702Y58240D01*
X64730Y58314D01*
X64761Y58387D01*
X64796Y58458D01*
X64834Y58527D01*
X64875Y58595D01*
X64919Y58660D01*
X64966Y58724D01*
X65017Y58785D01*
X65070Y58843D01*
X65126Y58899D01*
X65184Y58952D01*
X65245Y59003D01*
X65309Y59050D01*
X65374Y59094D01*
X65441Y59135D01*
X65511Y59173D01*
X65582Y59208D01*
X65655Y59239D01*
X65729Y59267D01*
X65804Y59291D01*
X65880Y59311D01*
X65958Y59328D01*
X66036Y59341D01*
X66114Y59350D01*
X66193Y59356D01*
X66272Y59358D01*
X67933Y59358D01*
X73022Y51882D02*
X74683Y51882D01*
X73022Y51882D02*
X72943Y51884D01*
X72864Y51890D01*
X72786Y51899D01*
X72708Y51912D01*
X72630Y51929D01*
X72554Y51949D01*
X72479Y51973D01*
X72405Y52001D01*
X72332Y52032D01*
X72261Y52067D01*
X72192Y52105D01*
X72124Y52146D01*
X72059Y52190D01*
X71995Y52237D01*
X71934Y52288D01*
X71876Y52341D01*
X71820Y52397D01*
X71767Y52455D01*
X71716Y52516D01*
X71669Y52580D01*
X71625Y52645D01*
X71584Y52713D01*
X71546Y52782D01*
X71511Y52853D01*
X71480Y52926D01*
X71452Y53000D01*
X71428Y53075D01*
X71408Y53151D01*
X71391Y53229D01*
X71378Y53307D01*
X71369Y53385D01*
X71363Y53464D01*
X71361Y53543D01*
X71361Y57697D01*
X71363Y57776D01*
X71369Y57855D01*
X71378Y57933D01*
X71391Y58011D01*
X71408Y58089D01*
X71428Y58165D01*
X71452Y58240D01*
X71480Y58314D01*
X71511Y58387D01*
X71546Y58458D01*
X71584Y58527D01*
X71625Y58595D01*
X71669Y58660D01*
X71716Y58724D01*
X71767Y58785D01*
X71820Y58843D01*
X71876Y58899D01*
X71934Y58952D01*
X71995Y59003D01*
X72059Y59050D01*
X72124Y59094D01*
X72191Y59135D01*
X72261Y59173D01*
X72332Y59208D01*
X72405Y59239D01*
X72479Y59267D01*
X72554Y59291D01*
X72630Y59311D01*
X72708Y59328D01*
X72786Y59341D01*
X72864Y59350D01*
X72943Y59356D01*
X73022Y59358D01*
X74683Y59358D01*
X60285Y30635D02*
X59039Y30635D01*
X60285Y30635D02*
X60285Y26482D01*
X57793Y26482D01*
X57714Y26484D01*
X57635Y26490D01*
X57557Y26499D01*
X57479Y26512D01*
X57401Y26529D01*
X57325Y26549D01*
X57250Y26573D01*
X57176Y26601D01*
X57103Y26632D01*
X57032Y26667D01*
X56963Y26705D01*
X56895Y26746D01*
X56830Y26790D01*
X56766Y26837D01*
X56705Y26888D01*
X56647Y26941D01*
X56591Y26997D01*
X56538Y27055D01*
X56487Y27116D01*
X56440Y27180D01*
X56396Y27245D01*
X56355Y27313D01*
X56317Y27382D01*
X56282Y27453D01*
X56251Y27526D01*
X56223Y27600D01*
X56199Y27675D01*
X56179Y27751D01*
X56162Y27829D01*
X56149Y27907D01*
X56140Y27985D01*
X56134Y28064D01*
X56132Y28143D01*
X56132Y32297D01*
X56134Y32376D01*
X56140Y32455D01*
X56149Y32533D01*
X56162Y32611D01*
X56179Y32689D01*
X56199Y32765D01*
X56223Y32840D01*
X56251Y32914D01*
X56282Y32987D01*
X56317Y33058D01*
X56355Y33127D01*
X56396Y33195D01*
X56440Y33260D01*
X56487Y33324D01*
X56538Y33385D01*
X56591Y33443D01*
X56647Y33499D01*
X56705Y33552D01*
X56766Y33603D01*
X56830Y33650D01*
X56895Y33694D01*
X56962Y33735D01*
X57032Y33773D01*
X57103Y33808D01*
X57176Y33839D01*
X57250Y33867D01*
X57325Y33891D01*
X57401Y33911D01*
X57479Y33928D01*
X57557Y33941D01*
X57635Y33950D01*
X57714Y33956D01*
X57793Y33958D01*
X60285Y33958D01*
X64772Y33958D02*
X64772Y26482D01*
X68925Y26482D02*
X64772Y33958D01*
X68925Y33958D02*
X68925Y26482D01*
X73412Y26482D02*
X73412Y33958D01*
X75489Y33958D01*
X75577Y33956D01*
X75665Y33951D01*
X75753Y33941D01*
X75840Y33928D01*
X75927Y33911D01*
X76012Y33891D01*
X76097Y33867D01*
X76181Y33839D01*
X76263Y33808D01*
X76345Y33774D01*
X76424Y33736D01*
X76502Y33694D01*
X76578Y33650D01*
X76652Y33602D01*
X76724Y33551D01*
X76794Y33497D01*
X76861Y33440D01*
X76926Y33380D01*
X76989Y33318D01*
X77048Y33253D01*
X77105Y33186D01*
X77159Y33116D01*
X77210Y33044D01*
X77258Y32970D01*
X77302Y32894D01*
X77344Y32816D01*
X77382Y32736D01*
X77416Y32655D01*
X77447Y32573D01*
X77475Y32489D01*
X77499Y32404D01*
X77519Y32319D01*
X77536Y32232D01*
X77549Y32145D01*
X77559Y32057D01*
X77564Y31969D01*
X77566Y31881D01*
X77565Y31881D02*
X77565Y28559D01*
X77566Y28559D02*
X77564Y28468D01*
X77558Y28378D01*
X77548Y28288D01*
X77534Y28198D01*
X77517Y28109D01*
X77495Y28021D01*
X77470Y27934D01*
X77441Y27849D01*
X77408Y27764D01*
X77371Y27681D01*
X77331Y27600D01*
X77288Y27521D01*
X77241Y27443D01*
X77190Y27368D01*
X77137Y27295D01*
X77080Y27224D01*
X77020Y27156D01*
X76958Y27090D01*
X76892Y27028D01*
X76824Y26968D01*
X76753Y26911D01*
X76680Y26858D01*
X76605Y26807D01*
X76528Y26760D01*
X76448Y26717D01*
X76367Y26677D01*
X76284Y26640D01*
X76199Y26607D01*
X76114Y26578D01*
X76027Y26553D01*
X75939Y26531D01*
X75850Y26514D01*
X75760Y26500D01*
X75670Y26490D01*
X75580Y26484D01*
X75489Y26482D01*
X73412Y26482D01*
X60285Y283365D02*
X59039Y283365D01*
X60285Y283365D02*
X60285Y279212D01*
X57793Y279212D01*
X57714Y279214D01*
X57635Y279220D01*
X57557Y279229D01*
X57479Y279242D01*
X57401Y279259D01*
X57325Y279279D01*
X57250Y279303D01*
X57176Y279331D01*
X57103Y279362D01*
X57032Y279397D01*
X56963Y279435D01*
X56895Y279476D01*
X56830Y279520D01*
X56766Y279567D01*
X56705Y279618D01*
X56647Y279671D01*
X56591Y279727D01*
X56538Y279785D01*
X56487Y279846D01*
X56440Y279910D01*
X56396Y279975D01*
X56355Y280043D01*
X56317Y280112D01*
X56282Y280183D01*
X56251Y280256D01*
X56223Y280330D01*
X56199Y280405D01*
X56179Y280481D01*
X56162Y280559D01*
X56149Y280637D01*
X56140Y280715D01*
X56134Y280794D01*
X56132Y280873D01*
X56132Y285027D01*
X56134Y285106D01*
X56140Y285185D01*
X56149Y285263D01*
X56162Y285341D01*
X56179Y285419D01*
X56199Y285495D01*
X56223Y285570D01*
X56251Y285644D01*
X56282Y285717D01*
X56317Y285788D01*
X56355Y285857D01*
X56396Y285925D01*
X56440Y285990D01*
X56487Y286054D01*
X56538Y286115D01*
X56591Y286173D01*
X56647Y286229D01*
X56705Y286282D01*
X56766Y286333D01*
X56830Y286380D01*
X56895Y286424D01*
X56962Y286465D01*
X57032Y286503D01*
X57103Y286538D01*
X57176Y286569D01*
X57250Y286597D01*
X57325Y286621D01*
X57401Y286641D01*
X57479Y286658D01*
X57557Y286671D01*
X57635Y286680D01*
X57714Y286686D01*
X57793Y286688D01*
X60285Y286688D01*
X64772Y286688D02*
X64772Y279212D01*
X68925Y279212D02*
X64772Y286688D01*
X68925Y286688D02*
X68925Y279212D01*
X73412Y279212D02*
X73412Y286688D01*
X75489Y286688D01*
X75577Y286686D01*
X75665Y286681D01*
X75753Y286671D01*
X75840Y286658D01*
X75927Y286641D01*
X76012Y286621D01*
X76097Y286597D01*
X76181Y286569D01*
X76263Y286538D01*
X76345Y286504D01*
X76424Y286466D01*
X76502Y286424D01*
X76578Y286380D01*
X76652Y286332D01*
X76724Y286281D01*
X76794Y286227D01*
X76861Y286170D01*
X76926Y286110D01*
X76989Y286048D01*
X77048Y285983D01*
X77105Y285916D01*
X77159Y285846D01*
X77210Y285774D01*
X77258Y285700D01*
X77302Y285624D01*
X77344Y285546D01*
X77382Y285466D01*
X77416Y285385D01*
X77447Y285303D01*
X77475Y285219D01*
X77499Y285134D01*
X77519Y285049D01*
X77536Y284962D01*
X77549Y284875D01*
X77559Y284787D01*
X77564Y284699D01*
X77566Y284611D01*
X77565Y284611D02*
X77565Y281289D01*
X77566Y281289D02*
X77564Y281198D01*
X77558Y281108D01*
X77548Y281018D01*
X77534Y280928D01*
X77517Y280839D01*
X77495Y280751D01*
X77470Y280664D01*
X77441Y280579D01*
X77408Y280494D01*
X77371Y280411D01*
X77331Y280330D01*
X77288Y280251D01*
X77241Y280173D01*
X77190Y280098D01*
X77137Y280025D01*
X77080Y279954D01*
X77020Y279886D01*
X76958Y279820D01*
X76892Y279758D01*
X76824Y279698D01*
X76753Y279641D01*
X76680Y279588D01*
X76605Y279537D01*
X76528Y279490D01*
X76448Y279447D01*
X76367Y279407D01*
X76284Y279370D01*
X76199Y279337D01*
X76114Y279308D01*
X76027Y279283D01*
X75939Y279261D01*
X75850Y279244D01*
X75760Y279230D01*
X75670Y279220D01*
X75580Y279214D01*
X75489Y279212D01*
X73412Y279212D01*
X60285Y308765D02*
X59039Y308765D01*
X60285Y308765D02*
X60285Y304612D01*
X57793Y304612D01*
X57714Y304614D01*
X57635Y304620D01*
X57557Y304629D01*
X57479Y304642D01*
X57401Y304659D01*
X57325Y304679D01*
X57250Y304703D01*
X57176Y304731D01*
X57103Y304762D01*
X57032Y304797D01*
X56963Y304835D01*
X56895Y304876D01*
X56830Y304920D01*
X56766Y304967D01*
X56705Y305018D01*
X56647Y305071D01*
X56591Y305127D01*
X56538Y305185D01*
X56487Y305246D01*
X56440Y305310D01*
X56396Y305375D01*
X56355Y305443D01*
X56317Y305512D01*
X56282Y305583D01*
X56251Y305656D01*
X56223Y305730D01*
X56199Y305805D01*
X56179Y305881D01*
X56162Y305959D01*
X56149Y306037D01*
X56140Y306115D01*
X56134Y306194D01*
X56132Y306273D01*
X56132Y310427D01*
X56134Y310506D01*
X56140Y310585D01*
X56149Y310663D01*
X56162Y310741D01*
X56179Y310819D01*
X56199Y310895D01*
X56223Y310970D01*
X56251Y311044D01*
X56282Y311117D01*
X56317Y311188D01*
X56355Y311257D01*
X56396Y311325D01*
X56440Y311390D01*
X56487Y311454D01*
X56538Y311515D01*
X56591Y311573D01*
X56647Y311629D01*
X56705Y311682D01*
X56766Y311733D01*
X56830Y311780D01*
X56895Y311824D01*
X56962Y311865D01*
X57032Y311903D01*
X57103Y311938D01*
X57176Y311969D01*
X57250Y311997D01*
X57325Y312021D01*
X57401Y312041D01*
X57479Y312058D01*
X57557Y312071D01*
X57635Y312080D01*
X57714Y312086D01*
X57793Y312088D01*
X60285Y312088D01*
X64772Y312088D02*
X64772Y304612D01*
X68925Y304612D02*
X64772Y312088D01*
X68925Y312088D02*
X68925Y304612D01*
X73412Y304612D02*
X73412Y312088D01*
X75489Y312088D01*
X75577Y312086D01*
X75665Y312081D01*
X75753Y312071D01*
X75840Y312058D01*
X75927Y312041D01*
X76012Y312021D01*
X76097Y311997D01*
X76181Y311969D01*
X76263Y311938D01*
X76345Y311904D01*
X76424Y311866D01*
X76502Y311824D01*
X76578Y311780D01*
X76652Y311732D01*
X76724Y311681D01*
X76794Y311627D01*
X76861Y311570D01*
X76926Y311510D01*
X76989Y311448D01*
X77048Y311383D01*
X77105Y311316D01*
X77159Y311246D01*
X77210Y311174D01*
X77258Y311100D01*
X77302Y311024D01*
X77344Y310946D01*
X77382Y310866D01*
X77416Y310785D01*
X77447Y310703D01*
X77475Y310619D01*
X77499Y310534D01*
X77519Y310449D01*
X77536Y310362D01*
X77549Y310275D01*
X77559Y310187D01*
X77564Y310099D01*
X77566Y310011D01*
X77565Y310011D02*
X77565Y306689D01*
X77566Y306689D02*
X77564Y306598D01*
X77558Y306508D01*
X77548Y306418D01*
X77534Y306328D01*
X77517Y306239D01*
X77495Y306151D01*
X77470Y306064D01*
X77441Y305979D01*
X77408Y305894D01*
X77371Y305811D01*
X77331Y305730D01*
X77288Y305651D01*
X77241Y305573D01*
X77190Y305498D01*
X77137Y305425D01*
X77080Y305354D01*
X77020Y305286D01*
X76958Y305220D01*
X76892Y305158D01*
X76824Y305098D01*
X76753Y305041D01*
X76680Y304988D01*
X76605Y304937D01*
X76528Y304890D01*
X76448Y304847D01*
X76367Y304807D01*
X76284Y304770D01*
X76199Y304737D01*
X76114Y304708D01*
X76027Y304683D01*
X75939Y304661D01*
X75850Y304644D01*
X75760Y304630D01*
X75670Y304620D01*
X75580Y304614D01*
X75489Y304612D01*
X73412Y304612D01*
X60285Y334165D02*
X59039Y334165D01*
X60285Y334165D02*
X60285Y330012D01*
X57793Y330012D01*
X57714Y330014D01*
X57635Y330020D01*
X57557Y330029D01*
X57479Y330042D01*
X57401Y330059D01*
X57325Y330079D01*
X57250Y330103D01*
X57176Y330131D01*
X57103Y330162D01*
X57032Y330197D01*
X56963Y330235D01*
X56895Y330276D01*
X56830Y330320D01*
X56766Y330367D01*
X56705Y330418D01*
X56647Y330471D01*
X56591Y330527D01*
X56538Y330585D01*
X56487Y330646D01*
X56440Y330710D01*
X56396Y330775D01*
X56355Y330843D01*
X56317Y330912D01*
X56282Y330983D01*
X56251Y331056D01*
X56223Y331130D01*
X56199Y331205D01*
X56179Y331281D01*
X56162Y331359D01*
X56149Y331437D01*
X56140Y331515D01*
X56134Y331594D01*
X56132Y331673D01*
X56132Y335827D01*
X56134Y335906D01*
X56140Y335985D01*
X56149Y336063D01*
X56162Y336141D01*
X56179Y336219D01*
X56199Y336295D01*
X56223Y336370D01*
X56251Y336444D01*
X56282Y336517D01*
X56317Y336588D01*
X56355Y336657D01*
X56396Y336725D01*
X56440Y336790D01*
X56487Y336854D01*
X56538Y336915D01*
X56591Y336973D01*
X56647Y337029D01*
X56705Y337082D01*
X56766Y337133D01*
X56830Y337180D01*
X56895Y337224D01*
X56962Y337265D01*
X57032Y337303D01*
X57103Y337338D01*
X57176Y337369D01*
X57250Y337397D01*
X57325Y337421D01*
X57401Y337441D01*
X57479Y337458D01*
X57557Y337471D01*
X57635Y337480D01*
X57714Y337486D01*
X57793Y337488D01*
X60285Y337488D01*
X64772Y337488D02*
X64772Y330012D01*
X68925Y330012D02*
X64772Y337488D01*
X68925Y337488D02*
X68925Y330012D01*
X73412Y330012D02*
X73412Y337488D01*
X75489Y337488D01*
X75577Y337486D01*
X75665Y337481D01*
X75753Y337471D01*
X75840Y337458D01*
X75927Y337441D01*
X76012Y337421D01*
X76097Y337397D01*
X76181Y337369D01*
X76263Y337338D01*
X76345Y337304D01*
X76424Y337266D01*
X76502Y337224D01*
X76578Y337180D01*
X76652Y337132D01*
X76724Y337081D01*
X76794Y337027D01*
X76861Y336970D01*
X76926Y336910D01*
X76989Y336848D01*
X77048Y336783D01*
X77105Y336716D01*
X77159Y336646D01*
X77210Y336574D01*
X77258Y336500D01*
X77302Y336424D01*
X77344Y336346D01*
X77382Y336266D01*
X77416Y336185D01*
X77447Y336103D01*
X77475Y336019D01*
X77499Y335934D01*
X77519Y335849D01*
X77536Y335762D01*
X77549Y335675D01*
X77559Y335587D01*
X77564Y335499D01*
X77566Y335411D01*
X77565Y335411D02*
X77565Y332089D01*
X77566Y332089D02*
X77564Y331998D01*
X77558Y331908D01*
X77548Y331818D01*
X77534Y331728D01*
X77517Y331639D01*
X77495Y331551D01*
X77470Y331464D01*
X77441Y331379D01*
X77408Y331294D01*
X77371Y331211D01*
X77331Y331130D01*
X77288Y331051D01*
X77241Y330973D01*
X77190Y330898D01*
X77137Y330825D01*
X77080Y330754D01*
X77020Y330686D01*
X76958Y330620D01*
X76892Y330558D01*
X76824Y330498D01*
X76753Y330441D01*
X76680Y330388D01*
X76605Y330337D01*
X76528Y330290D01*
X76448Y330247D01*
X76367Y330207D01*
X76284Y330170D01*
X76199Y330137D01*
X76114Y330108D01*
X76027Y330083D01*
X75939Y330061D01*
X75850Y330044D01*
X75760Y330030D01*
X75670Y330020D01*
X75580Y330014D01*
X75489Y330012D01*
X73412Y330012D01*
X254619Y335435D02*
X255865Y335435D01*
X255865Y331282D01*
X253373Y331282D01*
X253294Y331284D01*
X253215Y331290D01*
X253137Y331299D01*
X253059Y331312D01*
X252981Y331329D01*
X252905Y331349D01*
X252830Y331373D01*
X252756Y331401D01*
X252683Y331432D01*
X252612Y331467D01*
X252543Y331505D01*
X252475Y331546D01*
X252410Y331590D01*
X252346Y331637D01*
X252285Y331688D01*
X252227Y331741D01*
X252171Y331797D01*
X252118Y331855D01*
X252067Y331916D01*
X252020Y331980D01*
X251976Y332045D01*
X251935Y332113D01*
X251897Y332182D01*
X251862Y332253D01*
X251831Y332326D01*
X251803Y332400D01*
X251779Y332475D01*
X251759Y332551D01*
X251742Y332629D01*
X251729Y332707D01*
X251720Y332785D01*
X251714Y332864D01*
X251712Y332943D01*
X251712Y337097D01*
X251714Y337176D01*
X251720Y337255D01*
X251729Y337333D01*
X251742Y337411D01*
X251759Y337489D01*
X251779Y337565D01*
X251803Y337640D01*
X251831Y337714D01*
X251862Y337787D01*
X251897Y337858D01*
X251935Y337927D01*
X251976Y337995D01*
X252020Y338060D01*
X252067Y338124D01*
X252118Y338185D01*
X252171Y338243D01*
X252227Y338299D01*
X252285Y338352D01*
X252346Y338403D01*
X252410Y338450D01*
X252475Y338494D01*
X252542Y338535D01*
X252612Y338573D01*
X252683Y338608D01*
X252756Y338639D01*
X252830Y338667D01*
X252905Y338691D01*
X252981Y338711D01*
X253059Y338728D01*
X253137Y338741D01*
X253215Y338750D01*
X253294Y338756D01*
X253373Y338758D01*
X255865Y338758D01*
X260352Y338758D02*
X260352Y331282D01*
X264505Y331282D02*
X260352Y338758D01*
X264505Y338758D02*
X264505Y331282D01*
X268992Y331282D02*
X268992Y338758D01*
X271069Y338758D01*
X271157Y338756D01*
X271245Y338751D01*
X271333Y338741D01*
X271420Y338728D01*
X271507Y338711D01*
X271592Y338691D01*
X271677Y338667D01*
X271761Y338639D01*
X271843Y338608D01*
X271925Y338574D01*
X272004Y338536D01*
X272082Y338494D01*
X272158Y338450D01*
X272232Y338402D01*
X272304Y338351D01*
X272374Y338297D01*
X272441Y338240D01*
X272506Y338180D01*
X272569Y338118D01*
X272628Y338053D01*
X272685Y337986D01*
X272739Y337916D01*
X272790Y337844D01*
X272838Y337770D01*
X272882Y337694D01*
X272924Y337616D01*
X272962Y337536D01*
X272996Y337455D01*
X273027Y337373D01*
X273055Y337289D01*
X273079Y337204D01*
X273099Y337119D01*
X273116Y337032D01*
X273129Y336945D01*
X273139Y336857D01*
X273144Y336769D01*
X273146Y336681D01*
X273145Y336681D02*
X273145Y333359D01*
X273146Y333359D02*
X273144Y333268D01*
X273138Y333178D01*
X273128Y333088D01*
X273114Y332998D01*
X273097Y332909D01*
X273075Y332821D01*
X273050Y332734D01*
X273021Y332649D01*
X272988Y332564D01*
X272951Y332481D01*
X272911Y332400D01*
X272868Y332321D01*
X272821Y332243D01*
X272770Y332168D01*
X272717Y332095D01*
X272660Y332024D01*
X272600Y331956D01*
X272538Y331890D01*
X272472Y331828D01*
X272404Y331768D01*
X272333Y331711D01*
X272260Y331658D01*
X272185Y331607D01*
X272108Y331560D01*
X272028Y331517D01*
X271947Y331477D01*
X271864Y331440D01*
X271779Y331407D01*
X271694Y331378D01*
X271607Y331353D01*
X271519Y331331D01*
X271430Y331314D01*
X271340Y331300D01*
X271250Y331290D01*
X271160Y331284D01*
X271069Y331282D01*
X268992Y331282D01*
X255865Y284635D02*
X254619Y284635D01*
X255865Y284635D02*
X255865Y280482D01*
X253373Y280482D01*
X253294Y280484D01*
X253215Y280490D01*
X253137Y280499D01*
X253059Y280512D01*
X252981Y280529D01*
X252905Y280549D01*
X252830Y280573D01*
X252756Y280601D01*
X252683Y280632D01*
X252612Y280667D01*
X252543Y280705D01*
X252475Y280746D01*
X252410Y280790D01*
X252346Y280837D01*
X252285Y280888D01*
X252227Y280941D01*
X252171Y280997D01*
X252118Y281055D01*
X252067Y281116D01*
X252020Y281180D01*
X251976Y281245D01*
X251935Y281313D01*
X251897Y281382D01*
X251862Y281453D01*
X251831Y281526D01*
X251803Y281600D01*
X251779Y281675D01*
X251759Y281751D01*
X251742Y281829D01*
X251729Y281907D01*
X251720Y281985D01*
X251714Y282064D01*
X251712Y282143D01*
X251712Y286297D01*
X251714Y286376D01*
X251720Y286455D01*
X251729Y286533D01*
X251742Y286611D01*
X251759Y286689D01*
X251779Y286765D01*
X251803Y286840D01*
X251831Y286914D01*
X251862Y286987D01*
X251897Y287058D01*
X251935Y287127D01*
X251976Y287195D01*
X252020Y287260D01*
X252067Y287324D01*
X252118Y287385D01*
X252171Y287443D01*
X252227Y287499D01*
X252285Y287552D01*
X252346Y287603D01*
X252410Y287650D01*
X252475Y287694D01*
X252542Y287735D01*
X252612Y287773D01*
X252683Y287808D01*
X252756Y287839D01*
X252830Y287867D01*
X252905Y287891D01*
X252981Y287911D01*
X253059Y287928D01*
X253137Y287941D01*
X253215Y287950D01*
X253294Y287956D01*
X253373Y287958D01*
X255865Y287958D01*
X260352Y287958D02*
X260352Y280482D01*
X264505Y280482D02*
X260352Y287958D01*
X264505Y287958D02*
X264505Y280482D01*
X268992Y280482D02*
X268992Y287958D01*
X271069Y287958D01*
X271157Y287956D01*
X271245Y287951D01*
X271333Y287941D01*
X271420Y287928D01*
X271507Y287911D01*
X271592Y287891D01*
X271677Y287867D01*
X271761Y287839D01*
X271843Y287808D01*
X271925Y287774D01*
X272004Y287736D01*
X272082Y287694D01*
X272158Y287650D01*
X272232Y287602D01*
X272304Y287551D01*
X272374Y287497D01*
X272441Y287440D01*
X272506Y287380D01*
X272569Y287318D01*
X272628Y287253D01*
X272685Y287186D01*
X272739Y287116D01*
X272790Y287044D01*
X272838Y286970D01*
X272882Y286894D01*
X272924Y286816D01*
X272962Y286736D01*
X272996Y286655D01*
X273027Y286573D01*
X273055Y286489D01*
X273079Y286404D01*
X273099Y286319D01*
X273116Y286232D01*
X273129Y286145D01*
X273139Y286057D01*
X273144Y285969D01*
X273146Y285881D01*
X273145Y285881D02*
X273145Y282559D01*
X273146Y282559D02*
X273144Y282468D01*
X273138Y282378D01*
X273128Y282288D01*
X273114Y282198D01*
X273097Y282109D01*
X273075Y282021D01*
X273050Y281934D01*
X273021Y281849D01*
X272988Y281764D01*
X272951Y281681D01*
X272911Y281600D01*
X272868Y281521D01*
X272821Y281443D01*
X272770Y281368D01*
X272717Y281295D01*
X272660Y281224D01*
X272600Y281156D01*
X272538Y281090D01*
X272472Y281028D01*
X272404Y280968D01*
X272333Y280911D01*
X272260Y280858D01*
X272185Y280807D01*
X272108Y280760D01*
X272028Y280717D01*
X271947Y280677D01*
X271864Y280640D01*
X271779Y280607D01*
X271694Y280578D01*
X271607Y280553D01*
X271519Y280531D01*
X271430Y280514D01*
X271340Y280500D01*
X271250Y280490D01*
X271160Y280484D01*
X271069Y280482D01*
X268992Y280482D01*
X251712Y211758D02*
X251712Y204282D01*
X255865Y204282D02*
X251712Y211758D01*
X255865Y211758D02*
X255865Y204282D01*
X262304Y204282D02*
X262383Y204284D01*
X262462Y204290D01*
X262540Y204299D01*
X262618Y204312D01*
X262696Y204329D01*
X262772Y204349D01*
X262847Y204373D01*
X262921Y204401D01*
X262994Y204432D01*
X263065Y204467D01*
X263135Y204505D01*
X263202Y204546D01*
X263267Y204590D01*
X263331Y204637D01*
X263392Y204688D01*
X263450Y204741D01*
X263506Y204797D01*
X263559Y204855D01*
X263610Y204916D01*
X263657Y204980D01*
X263701Y205045D01*
X263742Y205113D01*
X263780Y205182D01*
X263815Y205253D01*
X263846Y205326D01*
X263874Y205400D01*
X263898Y205475D01*
X263918Y205551D01*
X263935Y205629D01*
X263948Y205707D01*
X263957Y205785D01*
X263963Y205864D01*
X263965Y205943D01*
X262304Y204282D02*
X262189Y204284D01*
X262073Y204290D01*
X261958Y204299D01*
X261843Y204312D01*
X261729Y204329D01*
X261616Y204350D01*
X261503Y204375D01*
X261391Y204403D01*
X261280Y204435D01*
X261170Y204470D01*
X261061Y204509D01*
X260954Y204552D01*
X260848Y204598D01*
X260744Y204648D01*
X260641Y204701D01*
X260541Y204757D01*
X260442Y204817D01*
X260345Y204880D01*
X260250Y204946D01*
X260158Y205015D01*
X260067Y205087D01*
X259980Y205162D01*
X259894Y205240D01*
X259812Y205320D01*
X260020Y210097D02*
X260022Y210176D01*
X260028Y210255D01*
X260037Y210333D01*
X260050Y210411D01*
X260067Y210489D01*
X260087Y210565D01*
X260111Y210640D01*
X260139Y210714D01*
X260170Y210787D01*
X260205Y210858D01*
X260243Y210928D01*
X260284Y210995D01*
X260328Y211060D01*
X260375Y211124D01*
X260426Y211185D01*
X260479Y211243D01*
X260535Y211299D01*
X260593Y211352D01*
X260654Y211403D01*
X260718Y211450D01*
X260783Y211494D01*
X260851Y211535D01*
X260920Y211573D01*
X260991Y211608D01*
X261064Y211639D01*
X261138Y211667D01*
X261213Y211691D01*
X261289Y211711D01*
X261367Y211728D01*
X261445Y211741D01*
X261523Y211750D01*
X261602Y211756D01*
X261681Y211758D01*
X261787Y211756D01*
X261892Y211751D01*
X261997Y211742D01*
X262102Y211729D01*
X262206Y211713D01*
X262310Y211694D01*
X262413Y211671D01*
X262515Y211644D01*
X262616Y211614D01*
X262716Y211581D01*
X262815Y211544D01*
X262912Y211504D01*
X263009Y211461D01*
X263103Y211414D01*
X263196Y211365D01*
X263288Y211312D01*
X263377Y211256D01*
X263464Y211197D01*
X263550Y211135D01*
X260851Y208644D02*
X260783Y208686D01*
X260717Y208731D01*
X260654Y208779D01*
X260593Y208830D01*
X260534Y208884D01*
X260479Y208941D01*
X260425Y209000D01*
X260375Y209062D01*
X260328Y209126D01*
X260283Y209192D01*
X260242Y209260D01*
X260204Y209330D01*
X260170Y209402D01*
X260139Y209475D01*
X260111Y209550D01*
X260087Y209626D01*
X260067Y209703D01*
X260050Y209780D01*
X260037Y209859D01*
X260028Y209938D01*
X260022Y210017D01*
X260020Y210097D01*
X263135Y207396D02*
X263202Y207354D01*
X263268Y207309D01*
X263331Y207261D01*
X263392Y207210D01*
X263451Y207156D01*
X263506Y207099D01*
X263560Y207040D01*
X263610Y206978D01*
X263657Y206914D01*
X263702Y206848D01*
X263743Y206780D01*
X263781Y206710D01*
X263815Y206638D01*
X263846Y206565D01*
X263874Y206490D01*
X263898Y206414D01*
X263918Y206337D01*
X263935Y206260D01*
X263948Y206181D01*
X263957Y206102D01*
X263963Y206023D01*
X263965Y205943D01*
X263135Y207397D02*
X260850Y208643D01*
X269864Y204282D02*
X269943Y204284D01*
X270022Y204290D01*
X270100Y204299D01*
X270178Y204312D01*
X270256Y204329D01*
X270332Y204349D01*
X270407Y204373D01*
X270481Y204401D01*
X270554Y204432D01*
X270625Y204467D01*
X270695Y204505D01*
X270762Y204546D01*
X270827Y204590D01*
X270891Y204637D01*
X270952Y204688D01*
X271010Y204741D01*
X271066Y204797D01*
X271119Y204855D01*
X271170Y204916D01*
X271217Y204980D01*
X271261Y205045D01*
X271302Y205113D01*
X271340Y205182D01*
X271375Y205253D01*
X271406Y205326D01*
X271434Y205400D01*
X271458Y205475D01*
X271478Y205551D01*
X271495Y205629D01*
X271508Y205707D01*
X271517Y205785D01*
X271523Y205864D01*
X271525Y205943D01*
X269864Y204282D02*
X269749Y204284D01*
X269633Y204290D01*
X269518Y204299D01*
X269403Y204312D01*
X269289Y204329D01*
X269176Y204350D01*
X269063Y204375D01*
X268951Y204403D01*
X268840Y204435D01*
X268730Y204470D01*
X268621Y204509D01*
X268514Y204552D01*
X268408Y204598D01*
X268304Y204648D01*
X268201Y204701D01*
X268101Y204757D01*
X268002Y204817D01*
X267905Y204880D01*
X267810Y204946D01*
X267718Y205015D01*
X267627Y205087D01*
X267540Y205162D01*
X267454Y205240D01*
X267372Y205320D01*
X267580Y210097D02*
X267582Y210176D01*
X267588Y210255D01*
X267597Y210333D01*
X267610Y210411D01*
X267627Y210489D01*
X267647Y210565D01*
X267671Y210640D01*
X267699Y210714D01*
X267730Y210787D01*
X267765Y210858D01*
X267803Y210928D01*
X267844Y210995D01*
X267888Y211060D01*
X267935Y211124D01*
X267986Y211185D01*
X268039Y211243D01*
X268095Y211299D01*
X268153Y211352D01*
X268214Y211403D01*
X268278Y211450D01*
X268343Y211494D01*
X268411Y211535D01*
X268480Y211573D01*
X268551Y211608D01*
X268624Y211639D01*
X268698Y211667D01*
X268773Y211691D01*
X268849Y211711D01*
X268927Y211728D01*
X269005Y211741D01*
X269083Y211750D01*
X269162Y211756D01*
X269241Y211758D01*
X269347Y211756D01*
X269452Y211751D01*
X269557Y211742D01*
X269662Y211729D01*
X269766Y211713D01*
X269870Y211694D01*
X269973Y211671D01*
X270075Y211644D01*
X270176Y211614D01*
X270276Y211581D01*
X270375Y211544D01*
X270472Y211504D01*
X270569Y211461D01*
X270663Y211414D01*
X270756Y211365D01*
X270848Y211312D01*
X270937Y211256D01*
X271024Y211197D01*
X271110Y211135D01*
X268411Y208644D02*
X268343Y208686D01*
X268277Y208731D01*
X268214Y208779D01*
X268153Y208830D01*
X268094Y208884D01*
X268039Y208941D01*
X267985Y209000D01*
X267935Y209062D01*
X267888Y209126D01*
X267843Y209192D01*
X267802Y209260D01*
X267764Y209330D01*
X267730Y209402D01*
X267699Y209475D01*
X267671Y209550D01*
X267647Y209626D01*
X267627Y209703D01*
X267610Y209780D01*
X267597Y209859D01*
X267588Y209938D01*
X267582Y210017D01*
X267580Y210097D01*
X270695Y207396D02*
X270762Y207354D01*
X270828Y207309D01*
X270891Y207261D01*
X270952Y207210D01*
X271011Y207156D01*
X271066Y207099D01*
X271120Y207040D01*
X271170Y206978D01*
X271217Y206914D01*
X271262Y206848D01*
X271303Y206780D01*
X271341Y206710D01*
X271375Y206638D01*
X271406Y206565D01*
X271434Y206490D01*
X271458Y206414D01*
X271478Y206337D01*
X271495Y206260D01*
X271508Y206181D01*
X271517Y206102D01*
X271523Y206023D01*
X271525Y205943D01*
X270695Y207397D02*
X268410Y208643D01*
X255865Y180543D02*
X255863Y180464D01*
X255857Y180385D01*
X255848Y180307D01*
X255835Y180229D01*
X255818Y180151D01*
X255798Y180075D01*
X255774Y180000D01*
X255746Y179926D01*
X255715Y179853D01*
X255680Y179782D01*
X255642Y179713D01*
X255601Y179645D01*
X255557Y179580D01*
X255510Y179516D01*
X255459Y179455D01*
X255406Y179397D01*
X255350Y179341D01*
X255292Y179288D01*
X255231Y179237D01*
X255167Y179190D01*
X255102Y179146D01*
X255035Y179105D01*
X254965Y179067D01*
X254894Y179032D01*
X254821Y179001D01*
X254747Y178973D01*
X254672Y178949D01*
X254596Y178929D01*
X254518Y178912D01*
X254440Y178899D01*
X254362Y178890D01*
X254283Y178884D01*
X254204Y178882D01*
X254089Y178884D01*
X253973Y178890D01*
X253858Y178899D01*
X253743Y178912D01*
X253629Y178929D01*
X253516Y178950D01*
X253403Y178975D01*
X253291Y179003D01*
X253180Y179035D01*
X253070Y179070D01*
X252961Y179109D01*
X252854Y179152D01*
X252748Y179198D01*
X252644Y179248D01*
X252541Y179301D01*
X252441Y179357D01*
X252342Y179417D01*
X252245Y179480D01*
X252150Y179546D01*
X252058Y179615D01*
X251967Y179687D01*
X251880Y179762D01*
X251794Y179840D01*
X251712Y179920D01*
X251920Y184697D02*
X251922Y184776D01*
X251928Y184855D01*
X251937Y184933D01*
X251950Y185011D01*
X251967Y185089D01*
X251987Y185165D01*
X252011Y185240D01*
X252039Y185314D01*
X252070Y185387D01*
X252105Y185458D01*
X252143Y185528D01*
X252184Y185595D01*
X252228Y185660D01*
X252275Y185724D01*
X252326Y185785D01*
X252379Y185843D01*
X252435Y185899D01*
X252493Y185952D01*
X252554Y186003D01*
X252618Y186050D01*
X252683Y186094D01*
X252751Y186135D01*
X252820Y186173D01*
X252891Y186208D01*
X252964Y186239D01*
X253038Y186267D01*
X253113Y186291D01*
X253189Y186311D01*
X253267Y186328D01*
X253345Y186341D01*
X253423Y186350D01*
X253502Y186356D01*
X253581Y186358D01*
X253687Y186356D01*
X253792Y186351D01*
X253897Y186342D01*
X254002Y186329D01*
X254106Y186313D01*
X254210Y186294D01*
X254313Y186271D01*
X254415Y186244D01*
X254516Y186214D01*
X254616Y186181D01*
X254715Y186144D01*
X254812Y186104D01*
X254909Y186061D01*
X255003Y186014D01*
X255096Y185965D01*
X255188Y185912D01*
X255277Y185856D01*
X255364Y185797D01*
X255450Y185735D01*
X252751Y183244D02*
X252683Y183286D01*
X252617Y183331D01*
X252554Y183379D01*
X252493Y183430D01*
X252434Y183484D01*
X252379Y183541D01*
X252325Y183600D01*
X252275Y183662D01*
X252228Y183726D01*
X252183Y183792D01*
X252142Y183860D01*
X252104Y183930D01*
X252070Y184002D01*
X252039Y184075D01*
X252011Y184150D01*
X251987Y184226D01*
X251967Y184303D01*
X251950Y184380D01*
X251937Y184459D01*
X251928Y184538D01*
X251922Y184617D01*
X251920Y184697D01*
X255035Y181996D02*
X255102Y181954D01*
X255168Y181909D01*
X255231Y181861D01*
X255292Y181810D01*
X255351Y181756D01*
X255406Y181699D01*
X255460Y181640D01*
X255510Y181578D01*
X255557Y181514D01*
X255602Y181448D01*
X255643Y181380D01*
X255681Y181310D01*
X255715Y181238D01*
X255746Y181165D01*
X255774Y181090D01*
X255798Y181014D01*
X255818Y180937D01*
X255835Y180860D01*
X255848Y180781D01*
X255857Y180702D01*
X255863Y180623D01*
X255865Y180543D01*
X255035Y181997D02*
X252750Y183243D01*
X261167Y178882D02*
X262828Y178882D01*
X261167Y178882D02*
X261088Y178884D01*
X261009Y178890D01*
X260931Y178899D01*
X260853Y178912D01*
X260775Y178929D01*
X260699Y178949D01*
X260624Y178973D01*
X260550Y179001D01*
X260477Y179032D01*
X260406Y179067D01*
X260337Y179105D01*
X260269Y179146D01*
X260204Y179190D01*
X260140Y179237D01*
X260079Y179288D01*
X260021Y179341D01*
X259965Y179397D01*
X259912Y179455D01*
X259861Y179516D01*
X259814Y179580D01*
X259770Y179645D01*
X259729Y179713D01*
X259691Y179782D01*
X259656Y179853D01*
X259625Y179926D01*
X259597Y180000D01*
X259573Y180075D01*
X259553Y180151D01*
X259536Y180229D01*
X259523Y180307D01*
X259514Y180385D01*
X259508Y180464D01*
X259506Y180543D01*
X259505Y180543D02*
X259505Y184697D01*
X259506Y184697D02*
X259508Y184776D01*
X259514Y184855D01*
X259523Y184933D01*
X259536Y185011D01*
X259553Y185089D01*
X259573Y185165D01*
X259597Y185240D01*
X259625Y185314D01*
X259656Y185387D01*
X259691Y185458D01*
X259729Y185527D01*
X259770Y185595D01*
X259814Y185660D01*
X259861Y185724D01*
X259912Y185785D01*
X259965Y185843D01*
X260021Y185899D01*
X260079Y185952D01*
X260140Y186003D01*
X260204Y186050D01*
X260269Y186094D01*
X260336Y186135D01*
X260406Y186173D01*
X260477Y186208D01*
X260550Y186239D01*
X260624Y186267D01*
X260699Y186291D01*
X260775Y186311D01*
X260853Y186328D01*
X260931Y186341D01*
X261009Y186350D01*
X261088Y186356D01*
X261167Y186358D01*
X262828Y186358D01*
X266749Y186358D02*
X266749Y178882D01*
X266749Y181789D02*
X270902Y186358D01*
X268410Y183451D02*
X270902Y178882D01*
X245362Y154608D02*
X245362Y147132D01*
X247854Y150455D02*
X245362Y154608D01*
X247854Y150455D02*
X250346Y154608D01*
X250346Y147132D01*
X254687Y149209D02*
X254687Y152531D01*
X254689Y152620D01*
X254695Y152710D01*
X254704Y152798D01*
X254718Y152887D01*
X254735Y152974D01*
X254756Y153061D01*
X254781Y153147D01*
X254809Y153232D01*
X254841Y153315D01*
X254876Y153398D01*
X254915Y153478D01*
X254958Y153557D01*
X255004Y153633D01*
X255053Y153708D01*
X255105Y153781D01*
X255160Y153851D01*
X255218Y153919D01*
X255280Y153984D01*
X255343Y154046D01*
X255410Y154106D01*
X255479Y154163D01*
X255550Y154217D01*
X255624Y154267D01*
X255700Y154315D01*
X255778Y154359D01*
X255857Y154400D01*
X255938Y154437D01*
X256021Y154471D01*
X256105Y154501D01*
X256191Y154527D01*
X256277Y154550D01*
X256364Y154569D01*
X256452Y154584D01*
X256541Y154596D01*
X256630Y154604D01*
X256719Y154608D01*
X256809Y154608D01*
X256898Y154604D01*
X256987Y154596D01*
X257076Y154584D01*
X257164Y154569D01*
X257251Y154550D01*
X257337Y154527D01*
X257423Y154501D01*
X257507Y154471D01*
X257590Y154437D01*
X257671Y154400D01*
X257750Y154359D01*
X257828Y154315D01*
X257904Y154267D01*
X257978Y154217D01*
X258049Y154163D01*
X258118Y154106D01*
X258185Y154046D01*
X258248Y153984D01*
X258310Y153919D01*
X258368Y153851D01*
X258423Y153781D01*
X258475Y153708D01*
X258524Y153633D01*
X258570Y153557D01*
X258613Y153478D01*
X258652Y153398D01*
X258687Y153315D01*
X258719Y153232D01*
X258747Y153147D01*
X258772Y153061D01*
X258793Y152974D01*
X258810Y152887D01*
X258824Y152798D01*
X258833Y152710D01*
X258839Y152620D01*
X258841Y152531D01*
X258841Y149209D01*
X258839Y149120D01*
X258833Y149030D01*
X258824Y148942D01*
X258810Y148853D01*
X258793Y148766D01*
X258772Y148679D01*
X258747Y148593D01*
X258719Y148508D01*
X258687Y148425D01*
X258652Y148342D01*
X258613Y148262D01*
X258570Y148183D01*
X258524Y148107D01*
X258475Y148032D01*
X258423Y147959D01*
X258368Y147889D01*
X258310Y147821D01*
X258248Y147756D01*
X258185Y147694D01*
X258118Y147634D01*
X258049Y147577D01*
X257978Y147523D01*
X257904Y147473D01*
X257828Y147425D01*
X257750Y147381D01*
X257671Y147340D01*
X257590Y147303D01*
X257507Y147269D01*
X257423Y147239D01*
X257337Y147213D01*
X257251Y147190D01*
X257164Y147171D01*
X257076Y147156D01*
X256987Y147144D01*
X256898Y147136D01*
X256809Y147132D01*
X256719Y147132D01*
X256630Y147136D01*
X256541Y147144D01*
X256452Y147156D01*
X256364Y147171D01*
X256277Y147190D01*
X256191Y147213D01*
X256105Y147239D01*
X256021Y147269D01*
X255938Y147303D01*
X255857Y147340D01*
X255778Y147381D01*
X255700Y147425D01*
X255624Y147473D01*
X255550Y147523D01*
X255479Y147577D01*
X255410Y147634D01*
X255343Y147694D01*
X255280Y147756D01*
X255218Y147821D01*
X255160Y147889D01*
X255105Y147959D01*
X255053Y148032D01*
X255004Y148107D01*
X254958Y148183D01*
X254915Y148262D01*
X254876Y148342D01*
X254841Y148425D01*
X254809Y148508D01*
X254781Y148593D01*
X254756Y148679D01*
X254735Y148766D01*
X254718Y148853D01*
X254704Y148942D01*
X254695Y149030D01*
X254689Y149120D01*
X254687Y149209D01*
X265009Y147132D02*
X265088Y147134D01*
X265167Y147140D01*
X265245Y147149D01*
X265323Y147162D01*
X265401Y147179D01*
X265477Y147199D01*
X265552Y147223D01*
X265626Y147251D01*
X265699Y147282D01*
X265770Y147317D01*
X265840Y147355D01*
X265907Y147396D01*
X265972Y147440D01*
X266036Y147487D01*
X266097Y147538D01*
X266155Y147591D01*
X266211Y147647D01*
X266264Y147705D01*
X266315Y147766D01*
X266362Y147830D01*
X266406Y147895D01*
X266447Y147963D01*
X266485Y148032D01*
X266520Y148103D01*
X266551Y148176D01*
X266579Y148250D01*
X266603Y148325D01*
X266623Y148401D01*
X266640Y148479D01*
X266653Y148557D01*
X266662Y148635D01*
X266668Y148714D01*
X266670Y148793D01*
X265009Y147132D02*
X264894Y147134D01*
X264778Y147140D01*
X264663Y147149D01*
X264548Y147162D01*
X264434Y147179D01*
X264321Y147200D01*
X264208Y147225D01*
X264096Y147253D01*
X263985Y147285D01*
X263875Y147320D01*
X263766Y147359D01*
X263659Y147402D01*
X263553Y147448D01*
X263449Y147498D01*
X263346Y147551D01*
X263246Y147607D01*
X263147Y147667D01*
X263050Y147730D01*
X262955Y147796D01*
X262863Y147865D01*
X262772Y147937D01*
X262685Y148012D01*
X262599Y148090D01*
X262517Y148170D01*
X262725Y152947D02*
X262727Y153026D01*
X262733Y153105D01*
X262742Y153183D01*
X262755Y153261D01*
X262772Y153339D01*
X262792Y153415D01*
X262816Y153490D01*
X262844Y153564D01*
X262875Y153637D01*
X262910Y153708D01*
X262948Y153778D01*
X262989Y153845D01*
X263033Y153910D01*
X263080Y153974D01*
X263131Y154035D01*
X263184Y154093D01*
X263240Y154149D01*
X263298Y154202D01*
X263359Y154253D01*
X263423Y154300D01*
X263488Y154344D01*
X263556Y154385D01*
X263625Y154423D01*
X263696Y154458D01*
X263769Y154489D01*
X263843Y154517D01*
X263918Y154541D01*
X263994Y154561D01*
X264072Y154578D01*
X264150Y154591D01*
X264228Y154600D01*
X264307Y154606D01*
X264386Y154608D01*
X264492Y154606D01*
X264597Y154601D01*
X264702Y154592D01*
X264807Y154579D01*
X264911Y154563D01*
X265015Y154544D01*
X265118Y154521D01*
X265220Y154494D01*
X265321Y154464D01*
X265421Y154431D01*
X265520Y154394D01*
X265617Y154354D01*
X265714Y154311D01*
X265808Y154264D01*
X265901Y154215D01*
X265993Y154162D01*
X266082Y154106D01*
X266169Y154047D01*
X266255Y153985D01*
X263556Y151494D02*
X263488Y151536D01*
X263422Y151581D01*
X263359Y151629D01*
X263298Y151680D01*
X263239Y151734D01*
X263184Y151791D01*
X263130Y151850D01*
X263080Y151912D01*
X263033Y151976D01*
X262988Y152042D01*
X262947Y152110D01*
X262909Y152180D01*
X262875Y152252D01*
X262844Y152325D01*
X262816Y152400D01*
X262792Y152476D01*
X262772Y152553D01*
X262755Y152630D01*
X262742Y152709D01*
X262733Y152788D01*
X262727Y152867D01*
X262725Y152947D01*
X265840Y150246D02*
X265907Y150204D01*
X265973Y150159D01*
X266036Y150111D01*
X266097Y150060D01*
X266156Y150006D01*
X266211Y149949D01*
X266265Y149890D01*
X266315Y149828D01*
X266362Y149764D01*
X266407Y149698D01*
X266448Y149630D01*
X266486Y149560D01*
X266520Y149488D01*
X266551Y149415D01*
X266579Y149340D01*
X266603Y149264D01*
X266623Y149187D01*
X266640Y149110D01*
X266653Y149031D01*
X266662Y148952D01*
X266668Y148873D01*
X266670Y148793D01*
X265840Y150247D02*
X263556Y151493D01*
X270804Y154608D02*
X270804Y147132D01*
X269973Y147132D02*
X271635Y147132D01*
X271635Y154608D02*
X269973Y154608D01*
X245362Y135558D02*
X245362Y128082D01*
X247854Y131405D02*
X245362Y135558D01*
X247854Y131405D02*
X250346Y135558D01*
X250346Y128082D01*
X255144Y128082D02*
X255144Y135558D01*
X254313Y128082D02*
X255975Y128082D01*
X255975Y135558D02*
X254313Y135558D01*
X261769Y128082D02*
X261848Y128084D01*
X261927Y128090D01*
X262005Y128099D01*
X262083Y128112D01*
X262161Y128129D01*
X262237Y128149D01*
X262312Y128173D01*
X262386Y128201D01*
X262459Y128232D01*
X262530Y128267D01*
X262600Y128305D01*
X262667Y128346D01*
X262732Y128390D01*
X262796Y128437D01*
X262857Y128488D01*
X262915Y128541D01*
X262971Y128597D01*
X263024Y128655D01*
X263075Y128716D01*
X263122Y128780D01*
X263166Y128845D01*
X263207Y128913D01*
X263245Y128982D01*
X263280Y129053D01*
X263311Y129126D01*
X263339Y129200D01*
X263363Y129275D01*
X263383Y129351D01*
X263400Y129429D01*
X263413Y129507D01*
X263422Y129585D01*
X263428Y129664D01*
X263430Y129743D01*
X261769Y128082D02*
X261654Y128084D01*
X261538Y128090D01*
X261423Y128099D01*
X261308Y128112D01*
X261194Y128129D01*
X261081Y128150D01*
X260968Y128175D01*
X260856Y128203D01*
X260745Y128235D01*
X260635Y128270D01*
X260526Y128309D01*
X260419Y128352D01*
X260313Y128398D01*
X260209Y128448D01*
X260106Y128501D01*
X260006Y128557D01*
X259907Y128617D01*
X259810Y128680D01*
X259715Y128746D01*
X259623Y128815D01*
X259532Y128887D01*
X259445Y128962D01*
X259359Y129040D01*
X259277Y129120D01*
X259485Y133897D02*
X259487Y133976D01*
X259493Y134055D01*
X259502Y134133D01*
X259515Y134211D01*
X259532Y134289D01*
X259552Y134365D01*
X259576Y134440D01*
X259604Y134514D01*
X259635Y134587D01*
X259670Y134658D01*
X259708Y134728D01*
X259749Y134795D01*
X259793Y134860D01*
X259840Y134924D01*
X259891Y134985D01*
X259944Y135043D01*
X260000Y135099D01*
X260058Y135152D01*
X260119Y135203D01*
X260183Y135250D01*
X260248Y135294D01*
X260316Y135335D01*
X260385Y135373D01*
X260456Y135408D01*
X260529Y135439D01*
X260603Y135467D01*
X260678Y135491D01*
X260754Y135511D01*
X260832Y135528D01*
X260910Y135541D01*
X260988Y135550D01*
X261067Y135556D01*
X261146Y135558D01*
X261252Y135556D01*
X261357Y135551D01*
X261462Y135542D01*
X261567Y135529D01*
X261671Y135513D01*
X261775Y135494D01*
X261878Y135471D01*
X261980Y135444D01*
X262081Y135414D01*
X262181Y135381D01*
X262280Y135344D01*
X262377Y135304D01*
X262474Y135261D01*
X262568Y135214D01*
X262661Y135165D01*
X262753Y135112D01*
X262842Y135056D01*
X262929Y134997D01*
X263015Y134935D01*
X260316Y132444D02*
X260248Y132486D01*
X260182Y132531D01*
X260119Y132579D01*
X260058Y132630D01*
X259999Y132684D01*
X259944Y132741D01*
X259890Y132800D01*
X259840Y132862D01*
X259793Y132926D01*
X259748Y132992D01*
X259707Y133060D01*
X259669Y133130D01*
X259635Y133202D01*
X259604Y133275D01*
X259576Y133350D01*
X259552Y133426D01*
X259532Y133503D01*
X259515Y133580D01*
X259502Y133659D01*
X259493Y133738D01*
X259487Y133817D01*
X259485Y133897D01*
X262600Y131196D02*
X262667Y131154D01*
X262733Y131109D01*
X262796Y131061D01*
X262857Y131010D01*
X262916Y130956D01*
X262971Y130899D01*
X263025Y130840D01*
X263075Y130778D01*
X263122Y130714D01*
X263167Y130648D01*
X263208Y130580D01*
X263246Y130510D01*
X263280Y130438D01*
X263311Y130365D01*
X263339Y130290D01*
X263363Y130214D01*
X263383Y130137D01*
X263400Y130060D01*
X263413Y129981D01*
X263422Y129902D01*
X263428Y129823D01*
X263430Y129743D01*
X262600Y131197D02*
X260316Y132443D01*
X267107Y133481D02*
X267107Y130159D01*
X267107Y133481D02*
X267109Y133570D01*
X267115Y133660D01*
X267124Y133748D01*
X267138Y133837D01*
X267155Y133924D01*
X267176Y134011D01*
X267201Y134097D01*
X267229Y134182D01*
X267261Y134265D01*
X267296Y134348D01*
X267335Y134428D01*
X267378Y134507D01*
X267424Y134583D01*
X267473Y134658D01*
X267525Y134731D01*
X267580Y134801D01*
X267638Y134869D01*
X267700Y134934D01*
X267763Y134996D01*
X267830Y135056D01*
X267899Y135113D01*
X267970Y135167D01*
X268044Y135217D01*
X268120Y135265D01*
X268198Y135309D01*
X268277Y135350D01*
X268358Y135387D01*
X268441Y135421D01*
X268525Y135451D01*
X268611Y135477D01*
X268697Y135500D01*
X268784Y135519D01*
X268872Y135534D01*
X268961Y135546D01*
X269050Y135554D01*
X269139Y135558D01*
X269229Y135558D01*
X269318Y135554D01*
X269407Y135546D01*
X269496Y135534D01*
X269584Y135519D01*
X269671Y135500D01*
X269757Y135477D01*
X269843Y135451D01*
X269927Y135421D01*
X270010Y135387D01*
X270091Y135350D01*
X270170Y135309D01*
X270248Y135265D01*
X270324Y135217D01*
X270398Y135167D01*
X270469Y135113D01*
X270538Y135056D01*
X270605Y134996D01*
X270668Y134934D01*
X270730Y134869D01*
X270788Y134801D01*
X270843Y134731D01*
X270895Y134658D01*
X270944Y134583D01*
X270990Y134507D01*
X271033Y134428D01*
X271072Y134348D01*
X271107Y134265D01*
X271139Y134182D01*
X271167Y134097D01*
X271192Y134011D01*
X271213Y133924D01*
X271230Y133837D01*
X271244Y133748D01*
X271253Y133660D01*
X271259Y133570D01*
X271261Y133481D01*
X271261Y130159D01*
X271259Y130070D01*
X271253Y129980D01*
X271244Y129892D01*
X271230Y129803D01*
X271213Y129716D01*
X271192Y129629D01*
X271167Y129543D01*
X271139Y129458D01*
X271107Y129375D01*
X271072Y129292D01*
X271033Y129212D01*
X270990Y129133D01*
X270944Y129057D01*
X270895Y128982D01*
X270843Y128909D01*
X270788Y128839D01*
X270730Y128771D01*
X270668Y128706D01*
X270605Y128644D01*
X270538Y128584D01*
X270469Y128527D01*
X270398Y128473D01*
X270324Y128423D01*
X270248Y128375D01*
X270170Y128331D01*
X270091Y128290D01*
X270010Y128253D01*
X269927Y128219D01*
X269843Y128189D01*
X269757Y128163D01*
X269671Y128140D01*
X269584Y128121D01*
X269496Y128106D01*
X269407Y128094D01*
X269318Y128086D01*
X269229Y128082D01*
X269139Y128082D01*
X269050Y128086D01*
X268961Y128094D01*
X268872Y128106D01*
X268784Y128121D01*
X268697Y128140D01*
X268611Y128163D01*
X268525Y128189D01*
X268441Y128219D01*
X268358Y128253D01*
X268277Y128290D01*
X268198Y128331D01*
X268120Y128375D01*
X268044Y128423D01*
X267970Y128473D01*
X267899Y128527D01*
X267830Y128584D01*
X267763Y128644D01*
X267700Y128706D01*
X267638Y128771D01*
X267580Y128839D01*
X267525Y128909D01*
X267473Y128982D01*
X267424Y129057D01*
X267378Y129133D01*
X267335Y129212D01*
X267296Y129292D01*
X267261Y129375D01*
X267229Y129458D01*
X267201Y129543D01*
X267176Y129629D01*
X267155Y129716D01*
X267138Y129803D01*
X267124Y129892D01*
X267115Y129980D01*
X267109Y130070D01*
X267107Y130159D01*
X245362Y110158D02*
X245362Y102682D01*
X249515Y102682D02*
X245362Y110158D01*
X249515Y110158D02*
X249515Y102682D01*
X254083Y102682D02*
X254083Y110158D01*
X256160Y110158D01*
X256249Y110156D01*
X256339Y110150D01*
X256427Y110141D01*
X256516Y110127D01*
X256603Y110110D01*
X256690Y110089D01*
X256776Y110064D01*
X256861Y110036D01*
X256944Y110004D01*
X257027Y109969D01*
X257107Y109930D01*
X257186Y109887D01*
X257262Y109841D01*
X257337Y109792D01*
X257410Y109740D01*
X257480Y109685D01*
X257548Y109627D01*
X257613Y109565D01*
X257675Y109502D01*
X257735Y109435D01*
X257792Y109366D01*
X257846Y109295D01*
X257896Y109221D01*
X257944Y109145D01*
X257988Y109067D01*
X258029Y108988D01*
X258066Y108907D01*
X258100Y108824D01*
X258130Y108740D01*
X258156Y108654D01*
X258179Y108568D01*
X258198Y108481D01*
X258213Y108393D01*
X258225Y108304D01*
X258233Y108215D01*
X258237Y108126D01*
X258237Y108036D01*
X258233Y107947D01*
X258225Y107858D01*
X258213Y107769D01*
X258198Y107681D01*
X258179Y107594D01*
X258156Y107508D01*
X258130Y107422D01*
X258100Y107338D01*
X258066Y107255D01*
X258029Y107174D01*
X257988Y107095D01*
X257944Y107017D01*
X257896Y106941D01*
X257846Y106867D01*
X257792Y106796D01*
X257735Y106727D01*
X257675Y106660D01*
X257613Y106597D01*
X257548Y106535D01*
X257480Y106477D01*
X257410Y106422D01*
X257337Y106370D01*
X257262Y106321D01*
X257186Y106275D01*
X257107Y106232D01*
X257027Y106193D01*
X256944Y106158D01*
X256861Y106126D01*
X256776Y106098D01*
X256690Y106073D01*
X256603Y106052D01*
X256516Y106035D01*
X256427Y106021D01*
X256339Y106012D01*
X256249Y106006D01*
X256160Y106004D01*
X256160Y106005D02*
X254083Y106005D01*
X256575Y106005D02*
X258237Y102682D01*
X264324Y102682D02*
X264403Y102684D01*
X264482Y102690D01*
X264560Y102699D01*
X264638Y102712D01*
X264716Y102729D01*
X264792Y102749D01*
X264867Y102773D01*
X264941Y102801D01*
X265014Y102832D01*
X265085Y102867D01*
X265155Y102905D01*
X265222Y102946D01*
X265287Y102990D01*
X265351Y103037D01*
X265412Y103088D01*
X265470Y103141D01*
X265526Y103197D01*
X265579Y103255D01*
X265630Y103316D01*
X265677Y103380D01*
X265721Y103445D01*
X265762Y103513D01*
X265800Y103582D01*
X265835Y103653D01*
X265866Y103726D01*
X265894Y103800D01*
X265918Y103875D01*
X265938Y103951D01*
X265955Y104029D01*
X265968Y104107D01*
X265977Y104185D01*
X265983Y104264D01*
X265985Y104343D01*
X264324Y102682D02*
X264209Y102684D01*
X264093Y102690D01*
X263978Y102699D01*
X263863Y102712D01*
X263749Y102729D01*
X263636Y102750D01*
X263523Y102775D01*
X263411Y102803D01*
X263300Y102835D01*
X263190Y102870D01*
X263081Y102909D01*
X262974Y102952D01*
X262868Y102998D01*
X262764Y103048D01*
X262661Y103101D01*
X262561Y103157D01*
X262462Y103217D01*
X262365Y103280D01*
X262270Y103346D01*
X262178Y103415D01*
X262087Y103487D01*
X262000Y103562D01*
X261914Y103640D01*
X261832Y103720D01*
X262040Y108497D02*
X262042Y108576D01*
X262048Y108655D01*
X262057Y108733D01*
X262070Y108811D01*
X262087Y108889D01*
X262107Y108965D01*
X262131Y109040D01*
X262159Y109114D01*
X262190Y109187D01*
X262225Y109258D01*
X262263Y109328D01*
X262304Y109395D01*
X262348Y109460D01*
X262395Y109524D01*
X262446Y109585D01*
X262499Y109643D01*
X262555Y109699D01*
X262613Y109752D01*
X262674Y109803D01*
X262738Y109850D01*
X262803Y109894D01*
X262871Y109935D01*
X262940Y109973D01*
X263011Y110008D01*
X263084Y110039D01*
X263158Y110067D01*
X263233Y110091D01*
X263309Y110111D01*
X263387Y110128D01*
X263465Y110141D01*
X263543Y110150D01*
X263622Y110156D01*
X263701Y110158D01*
X263807Y110156D01*
X263912Y110151D01*
X264017Y110142D01*
X264122Y110129D01*
X264226Y110113D01*
X264330Y110094D01*
X264433Y110071D01*
X264535Y110044D01*
X264636Y110014D01*
X264736Y109981D01*
X264835Y109944D01*
X264932Y109904D01*
X265029Y109861D01*
X265123Y109814D01*
X265216Y109765D01*
X265308Y109712D01*
X265397Y109656D01*
X265484Y109597D01*
X265570Y109535D01*
X262871Y107044D02*
X262803Y107086D01*
X262737Y107131D01*
X262674Y107179D01*
X262613Y107230D01*
X262554Y107284D01*
X262499Y107341D01*
X262445Y107400D01*
X262395Y107462D01*
X262348Y107526D01*
X262303Y107592D01*
X262262Y107660D01*
X262224Y107730D01*
X262190Y107802D01*
X262159Y107875D01*
X262131Y107950D01*
X262107Y108026D01*
X262087Y108103D01*
X262070Y108180D01*
X262057Y108259D01*
X262048Y108338D01*
X262042Y108417D01*
X262040Y108497D01*
X265155Y105796D02*
X265222Y105754D01*
X265288Y105709D01*
X265351Y105661D01*
X265412Y105610D01*
X265471Y105556D01*
X265526Y105499D01*
X265580Y105440D01*
X265630Y105378D01*
X265677Y105314D01*
X265722Y105248D01*
X265763Y105180D01*
X265801Y105110D01*
X265835Y105038D01*
X265866Y104965D01*
X265894Y104890D01*
X265918Y104814D01*
X265938Y104737D01*
X265955Y104660D01*
X265968Y104581D01*
X265977Y104502D01*
X265983Y104423D01*
X265985Y104343D01*
X265155Y105797D02*
X262870Y107043D01*
X271199Y110158D02*
X271199Y102682D01*
X273275Y110158D02*
X269122Y110158D01*
X247439Y81435D02*
X245362Y81435D01*
X247439Y81436D02*
X247528Y81434D01*
X247618Y81428D01*
X247706Y81419D01*
X247795Y81405D01*
X247882Y81388D01*
X247969Y81367D01*
X248055Y81342D01*
X248140Y81314D01*
X248223Y81282D01*
X248306Y81247D01*
X248386Y81208D01*
X248465Y81165D01*
X248541Y81119D01*
X248616Y81070D01*
X248689Y81018D01*
X248759Y80963D01*
X248827Y80905D01*
X248892Y80843D01*
X248954Y80780D01*
X249014Y80713D01*
X249071Y80644D01*
X249125Y80573D01*
X249175Y80499D01*
X249223Y80423D01*
X249267Y80345D01*
X249308Y80266D01*
X249345Y80185D01*
X249379Y80102D01*
X249409Y80018D01*
X249435Y79932D01*
X249458Y79846D01*
X249477Y79759D01*
X249492Y79671D01*
X249504Y79582D01*
X249512Y79493D01*
X249516Y79404D01*
X249516Y79314D01*
X249512Y79225D01*
X249504Y79136D01*
X249492Y79047D01*
X249477Y78959D01*
X249458Y78872D01*
X249435Y78786D01*
X249409Y78700D01*
X249379Y78616D01*
X249345Y78533D01*
X249308Y78452D01*
X249267Y78373D01*
X249223Y78295D01*
X249175Y78219D01*
X249125Y78145D01*
X249071Y78074D01*
X249014Y78005D01*
X248954Y77938D01*
X248892Y77875D01*
X248827Y77813D01*
X248759Y77755D01*
X248689Y77700D01*
X248616Y77648D01*
X248541Y77599D01*
X248465Y77553D01*
X248386Y77510D01*
X248306Y77471D01*
X248223Y77436D01*
X248140Y77404D01*
X248055Y77376D01*
X247969Y77351D01*
X247882Y77330D01*
X247795Y77313D01*
X247706Y77299D01*
X247618Y77290D01*
X247528Y77284D01*
X247439Y77282D01*
X245362Y77282D01*
X245362Y84758D01*
X247439Y84758D01*
X247519Y84756D01*
X247599Y84750D01*
X247679Y84741D01*
X247758Y84727D01*
X247837Y84710D01*
X247914Y84689D01*
X247990Y84664D01*
X248065Y84635D01*
X248139Y84603D01*
X248211Y84568D01*
X248281Y84529D01*
X248349Y84486D01*
X248415Y84441D01*
X248479Y84392D01*
X248540Y84340D01*
X248599Y84286D01*
X248655Y84228D01*
X248709Y84168D01*
X248759Y84105D01*
X248806Y84041D01*
X248850Y83973D01*
X248891Y83904D01*
X248928Y83833D01*
X248962Y83760D01*
X248992Y83686D01*
X249019Y83610D01*
X249042Y83533D01*
X249061Y83455D01*
X249076Y83377D01*
X249088Y83297D01*
X249096Y83217D01*
X249100Y83137D01*
X249100Y83057D01*
X249096Y82977D01*
X249088Y82897D01*
X249076Y82817D01*
X249061Y82739D01*
X249042Y82661D01*
X249019Y82584D01*
X248992Y82508D01*
X248962Y82434D01*
X248928Y82361D01*
X248891Y82290D01*
X248850Y82221D01*
X248806Y82153D01*
X248759Y82089D01*
X248709Y82026D01*
X248655Y81966D01*
X248599Y81908D01*
X248540Y81854D01*
X248479Y81802D01*
X248415Y81753D01*
X248349Y81708D01*
X248281Y81665D01*
X248211Y81626D01*
X248139Y81591D01*
X248065Y81559D01*
X247990Y81530D01*
X247914Y81505D01*
X247837Y81484D01*
X247758Y81467D01*
X247679Y81453D01*
X247599Y81444D01*
X247519Y81438D01*
X247439Y81436D01*
X253275Y79359D02*
X253275Y84758D01*
X253275Y79359D02*
X253277Y79270D01*
X253283Y79180D01*
X253292Y79092D01*
X253306Y79003D01*
X253323Y78916D01*
X253344Y78829D01*
X253369Y78743D01*
X253397Y78658D01*
X253429Y78575D01*
X253464Y78492D01*
X253503Y78412D01*
X253546Y78333D01*
X253592Y78257D01*
X253641Y78182D01*
X253693Y78109D01*
X253748Y78039D01*
X253806Y77971D01*
X253868Y77906D01*
X253931Y77844D01*
X253998Y77784D01*
X254067Y77727D01*
X254138Y77673D01*
X254212Y77623D01*
X254288Y77575D01*
X254366Y77531D01*
X254445Y77490D01*
X254526Y77453D01*
X254609Y77419D01*
X254693Y77389D01*
X254779Y77363D01*
X254865Y77340D01*
X254952Y77321D01*
X255040Y77306D01*
X255129Y77294D01*
X255218Y77286D01*
X255307Y77282D01*
X255397Y77282D01*
X255486Y77286D01*
X255575Y77294D01*
X255664Y77306D01*
X255752Y77321D01*
X255839Y77340D01*
X255925Y77363D01*
X256011Y77389D01*
X256095Y77419D01*
X256178Y77453D01*
X256259Y77490D01*
X256338Y77531D01*
X256416Y77575D01*
X256492Y77623D01*
X256566Y77673D01*
X256637Y77727D01*
X256706Y77784D01*
X256773Y77844D01*
X256836Y77906D01*
X256898Y77971D01*
X256956Y78039D01*
X257011Y78109D01*
X257063Y78182D01*
X257112Y78257D01*
X257158Y78333D01*
X257201Y78412D01*
X257240Y78492D01*
X257275Y78575D01*
X257307Y78658D01*
X257335Y78743D01*
X257360Y78829D01*
X257381Y78916D01*
X257398Y79003D01*
X257412Y79092D01*
X257421Y79180D01*
X257427Y79270D01*
X257429Y79359D01*
X257428Y79359D02*
X257428Y84758D01*
X263867Y77282D02*
X263946Y77284D01*
X264025Y77290D01*
X264103Y77299D01*
X264181Y77312D01*
X264259Y77329D01*
X264335Y77349D01*
X264410Y77373D01*
X264484Y77401D01*
X264557Y77432D01*
X264628Y77467D01*
X264698Y77505D01*
X264765Y77546D01*
X264830Y77590D01*
X264894Y77637D01*
X264955Y77688D01*
X265013Y77741D01*
X265069Y77797D01*
X265122Y77855D01*
X265173Y77916D01*
X265220Y77980D01*
X265264Y78045D01*
X265305Y78113D01*
X265343Y78182D01*
X265378Y78253D01*
X265409Y78326D01*
X265437Y78400D01*
X265461Y78475D01*
X265481Y78551D01*
X265498Y78629D01*
X265511Y78707D01*
X265520Y78785D01*
X265526Y78864D01*
X265528Y78943D01*
X263867Y77282D02*
X263752Y77284D01*
X263636Y77290D01*
X263521Y77299D01*
X263406Y77312D01*
X263292Y77329D01*
X263179Y77350D01*
X263066Y77375D01*
X262954Y77403D01*
X262843Y77435D01*
X262733Y77470D01*
X262624Y77509D01*
X262517Y77552D01*
X262411Y77598D01*
X262307Y77648D01*
X262204Y77701D01*
X262104Y77757D01*
X262005Y77817D01*
X261908Y77880D01*
X261813Y77946D01*
X261721Y78015D01*
X261630Y78087D01*
X261543Y78162D01*
X261457Y78240D01*
X261375Y78320D01*
X261583Y83097D02*
X261585Y83176D01*
X261591Y83255D01*
X261600Y83333D01*
X261613Y83411D01*
X261630Y83489D01*
X261650Y83565D01*
X261674Y83640D01*
X261702Y83714D01*
X261733Y83787D01*
X261768Y83858D01*
X261806Y83928D01*
X261847Y83995D01*
X261891Y84060D01*
X261938Y84124D01*
X261989Y84185D01*
X262042Y84243D01*
X262098Y84299D01*
X262156Y84352D01*
X262217Y84403D01*
X262281Y84450D01*
X262346Y84494D01*
X262414Y84535D01*
X262483Y84573D01*
X262554Y84608D01*
X262627Y84639D01*
X262701Y84667D01*
X262776Y84691D01*
X262852Y84711D01*
X262930Y84728D01*
X263008Y84741D01*
X263086Y84750D01*
X263165Y84756D01*
X263244Y84758D01*
X263350Y84756D01*
X263455Y84751D01*
X263560Y84742D01*
X263665Y84729D01*
X263769Y84713D01*
X263873Y84694D01*
X263976Y84671D01*
X264078Y84644D01*
X264179Y84614D01*
X264279Y84581D01*
X264378Y84544D01*
X264475Y84504D01*
X264572Y84461D01*
X264666Y84414D01*
X264759Y84365D01*
X264851Y84312D01*
X264940Y84256D01*
X265027Y84197D01*
X265113Y84135D01*
X262414Y81644D02*
X262346Y81686D01*
X262280Y81731D01*
X262217Y81779D01*
X262156Y81830D01*
X262097Y81884D01*
X262042Y81941D01*
X261988Y82000D01*
X261938Y82062D01*
X261891Y82126D01*
X261846Y82192D01*
X261805Y82260D01*
X261767Y82330D01*
X261733Y82402D01*
X261702Y82475D01*
X261674Y82550D01*
X261650Y82626D01*
X261630Y82703D01*
X261613Y82780D01*
X261600Y82859D01*
X261591Y82938D01*
X261585Y83017D01*
X261583Y83097D01*
X264698Y80396D02*
X264765Y80354D01*
X264831Y80309D01*
X264894Y80261D01*
X264955Y80210D01*
X265014Y80156D01*
X265069Y80099D01*
X265123Y80040D01*
X265173Y79978D01*
X265220Y79914D01*
X265265Y79848D01*
X265306Y79780D01*
X265344Y79710D01*
X265378Y79638D01*
X265409Y79565D01*
X265437Y79490D01*
X265461Y79414D01*
X265481Y79337D01*
X265498Y79260D01*
X265511Y79181D01*
X265520Y79102D01*
X265526Y79023D01*
X265528Y78943D01*
X264698Y80397D02*
X262413Y81643D01*
X268790Y84758D02*
X271282Y81228D01*
X273774Y84758D01*
X271282Y81228D02*
X271282Y77282D01*
X245362Y59358D02*
X245362Y51882D01*
X245362Y59358D02*
X247439Y59358D01*
X247527Y59356D01*
X247615Y59351D01*
X247703Y59341D01*
X247790Y59328D01*
X247877Y59311D01*
X247962Y59291D01*
X248047Y59267D01*
X248131Y59239D01*
X248213Y59208D01*
X248295Y59174D01*
X248374Y59136D01*
X248452Y59094D01*
X248528Y59050D01*
X248602Y59002D01*
X248674Y58951D01*
X248744Y58897D01*
X248811Y58840D01*
X248876Y58780D01*
X248939Y58718D01*
X248998Y58653D01*
X249055Y58586D01*
X249109Y58516D01*
X249160Y58444D01*
X249208Y58370D01*
X249252Y58294D01*
X249294Y58216D01*
X249332Y58136D01*
X249366Y58055D01*
X249397Y57973D01*
X249425Y57889D01*
X249449Y57804D01*
X249469Y57719D01*
X249486Y57632D01*
X249499Y57545D01*
X249509Y57457D01*
X249514Y57369D01*
X249516Y57281D01*
X249515Y57281D02*
X249515Y53959D01*
X249516Y53959D02*
X249514Y53868D01*
X249508Y53778D01*
X249498Y53688D01*
X249484Y53598D01*
X249467Y53509D01*
X249445Y53421D01*
X249420Y53334D01*
X249391Y53249D01*
X249358Y53164D01*
X249321Y53081D01*
X249281Y53000D01*
X249238Y52921D01*
X249191Y52843D01*
X249140Y52768D01*
X249087Y52695D01*
X249030Y52624D01*
X248970Y52556D01*
X248908Y52490D01*
X248842Y52428D01*
X248774Y52368D01*
X248703Y52311D01*
X248630Y52258D01*
X248555Y52207D01*
X248478Y52160D01*
X248398Y52117D01*
X248317Y52077D01*
X248234Y52040D01*
X248149Y52007D01*
X248064Y51978D01*
X247977Y51953D01*
X247889Y51931D01*
X247800Y51914D01*
X247710Y51900D01*
X247620Y51890D01*
X247530Y51884D01*
X247439Y51882D01*
X245362Y51882D01*
X254189Y51882D02*
X254189Y59358D01*
X255019Y51882D02*
X253358Y51882D01*
X253358Y59358D02*
X255019Y59358D01*
X258592Y57281D02*
X258592Y53959D01*
X258592Y57281D02*
X258594Y57370D01*
X258600Y57460D01*
X258609Y57548D01*
X258623Y57637D01*
X258640Y57724D01*
X258661Y57811D01*
X258686Y57897D01*
X258714Y57982D01*
X258746Y58065D01*
X258781Y58148D01*
X258820Y58228D01*
X258863Y58307D01*
X258909Y58383D01*
X258958Y58458D01*
X259010Y58531D01*
X259065Y58601D01*
X259123Y58669D01*
X259185Y58734D01*
X259248Y58796D01*
X259315Y58856D01*
X259384Y58913D01*
X259455Y58967D01*
X259529Y59017D01*
X259605Y59065D01*
X259683Y59109D01*
X259762Y59150D01*
X259843Y59187D01*
X259926Y59221D01*
X260010Y59251D01*
X260096Y59277D01*
X260182Y59300D01*
X260269Y59319D01*
X260357Y59334D01*
X260446Y59346D01*
X260535Y59354D01*
X260624Y59358D01*
X260714Y59358D01*
X260803Y59354D01*
X260892Y59346D01*
X260981Y59334D01*
X261069Y59319D01*
X261156Y59300D01*
X261242Y59277D01*
X261328Y59251D01*
X261412Y59221D01*
X261495Y59187D01*
X261576Y59150D01*
X261655Y59109D01*
X261733Y59065D01*
X261809Y59017D01*
X261883Y58967D01*
X261954Y58913D01*
X262023Y58856D01*
X262090Y58796D01*
X262153Y58734D01*
X262215Y58669D01*
X262273Y58601D01*
X262328Y58531D01*
X262380Y58458D01*
X262429Y58383D01*
X262475Y58307D01*
X262518Y58228D01*
X262557Y58148D01*
X262592Y58065D01*
X262624Y57982D01*
X262652Y57897D01*
X262677Y57811D01*
X262698Y57724D01*
X262715Y57637D01*
X262729Y57548D01*
X262738Y57460D01*
X262744Y57370D01*
X262746Y57281D01*
X262745Y57281D02*
X262745Y53959D01*
X262746Y53959D02*
X262744Y53870D01*
X262738Y53780D01*
X262729Y53692D01*
X262715Y53603D01*
X262698Y53516D01*
X262677Y53429D01*
X262652Y53343D01*
X262624Y53258D01*
X262592Y53175D01*
X262557Y53092D01*
X262518Y53012D01*
X262475Y52933D01*
X262429Y52857D01*
X262380Y52782D01*
X262328Y52709D01*
X262273Y52639D01*
X262215Y52571D01*
X262153Y52506D01*
X262090Y52444D01*
X262023Y52384D01*
X261954Y52327D01*
X261883Y52273D01*
X261809Y52223D01*
X261733Y52175D01*
X261655Y52131D01*
X261576Y52090D01*
X261495Y52053D01*
X261412Y52019D01*
X261328Y51989D01*
X261242Y51963D01*
X261156Y51940D01*
X261069Y51921D01*
X260981Y51906D01*
X260892Y51894D01*
X260803Y51886D01*
X260714Y51882D01*
X260624Y51882D01*
X260535Y51886D01*
X260446Y51894D01*
X260357Y51906D01*
X260269Y51921D01*
X260182Y51940D01*
X260096Y51963D01*
X260010Y51989D01*
X259926Y52019D01*
X259843Y52053D01*
X259762Y52090D01*
X259683Y52131D01*
X259605Y52175D01*
X259529Y52223D01*
X259455Y52273D01*
X259384Y52327D01*
X259315Y52384D01*
X259248Y52444D01*
X259185Y52506D01*
X259123Y52571D01*
X259065Y52639D01*
X259010Y52709D01*
X258958Y52782D01*
X258909Y52857D01*
X258863Y52933D01*
X258820Y53012D01*
X258781Y53092D01*
X258746Y53175D01*
X258714Y53258D01*
X258686Y53343D01*
X258661Y53429D01*
X258640Y53516D01*
X258623Y53603D01*
X258609Y53692D01*
X258600Y53780D01*
X258594Y53870D01*
X258592Y53959D01*
X266692Y57697D02*
X268769Y59358D01*
X268769Y51882D01*
X270845Y51882D02*
X266692Y51882D01*
X249515Y31905D02*
X248269Y31905D01*
X249515Y31905D02*
X249515Y27752D01*
X247023Y27752D01*
X246944Y27754D01*
X246865Y27760D01*
X246787Y27769D01*
X246709Y27782D01*
X246631Y27799D01*
X246555Y27819D01*
X246480Y27843D01*
X246406Y27871D01*
X246333Y27902D01*
X246262Y27937D01*
X246193Y27975D01*
X246125Y28016D01*
X246060Y28060D01*
X245996Y28107D01*
X245935Y28158D01*
X245877Y28211D01*
X245821Y28267D01*
X245768Y28325D01*
X245717Y28386D01*
X245670Y28450D01*
X245626Y28515D01*
X245585Y28583D01*
X245547Y28652D01*
X245512Y28723D01*
X245481Y28796D01*
X245453Y28870D01*
X245429Y28945D01*
X245409Y29021D01*
X245392Y29099D01*
X245379Y29177D01*
X245370Y29255D01*
X245364Y29334D01*
X245362Y29413D01*
X245362Y33567D01*
X245364Y33646D01*
X245370Y33725D01*
X245379Y33803D01*
X245392Y33881D01*
X245409Y33959D01*
X245429Y34035D01*
X245453Y34110D01*
X245481Y34184D01*
X245512Y34257D01*
X245547Y34328D01*
X245585Y34397D01*
X245626Y34465D01*
X245670Y34530D01*
X245717Y34594D01*
X245768Y34655D01*
X245821Y34713D01*
X245877Y34769D01*
X245935Y34822D01*
X245996Y34873D01*
X246060Y34920D01*
X246125Y34964D01*
X246192Y35005D01*
X246262Y35043D01*
X246333Y35078D01*
X246406Y35109D01*
X246480Y35137D01*
X246555Y35161D01*
X246631Y35181D01*
X246709Y35198D01*
X246787Y35211D01*
X246865Y35220D01*
X246944Y35226D01*
X247023Y35228D01*
X249515Y35228D01*
X254002Y35228D02*
X254002Y27752D01*
X258155Y27752D02*
X254002Y35228D01*
X258155Y35228D02*
X258155Y27752D01*
X262642Y27752D02*
X262642Y35228D01*
X264719Y35228D01*
X264807Y35226D01*
X264895Y35221D01*
X264983Y35211D01*
X265070Y35198D01*
X265157Y35181D01*
X265242Y35161D01*
X265327Y35137D01*
X265411Y35109D01*
X265493Y35078D01*
X265575Y35044D01*
X265654Y35006D01*
X265732Y34964D01*
X265808Y34920D01*
X265882Y34872D01*
X265954Y34821D01*
X266024Y34767D01*
X266091Y34710D01*
X266156Y34650D01*
X266219Y34588D01*
X266278Y34523D01*
X266335Y34456D01*
X266389Y34386D01*
X266440Y34314D01*
X266488Y34240D01*
X266532Y34164D01*
X266574Y34086D01*
X266612Y34006D01*
X266646Y33925D01*
X266677Y33843D01*
X266705Y33759D01*
X266729Y33674D01*
X266749Y33589D01*
X266766Y33502D01*
X266779Y33415D01*
X266789Y33327D01*
X266794Y33239D01*
X266796Y33151D01*
X266795Y33151D02*
X266795Y29829D01*
X266796Y29829D02*
X266794Y29738D01*
X266788Y29648D01*
X266778Y29558D01*
X266764Y29468D01*
X266747Y29379D01*
X266725Y29291D01*
X266700Y29204D01*
X266671Y29119D01*
X266638Y29034D01*
X266601Y28951D01*
X266561Y28870D01*
X266518Y28791D01*
X266471Y28713D01*
X266420Y28638D01*
X266367Y28565D01*
X266310Y28494D01*
X266250Y28426D01*
X266188Y28360D01*
X266122Y28298D01*
X266054Y28238D01*
X265983Y28181D01*
X265910Y28128D01*
X265835Y28077D01*
X265758Y28030D01*
X265678Y27987D01*
X265597Y27947D01*
X265514Y27910D01*
X265429Y27877D01*
X265344Y27848D01*
X265257Y27823D01*
X265169Y27801D01*
X265080Y27784D01*
X264990Y27770D01*
X264900Y27760D01*
X264810Y27754D01*
X264719Y27752D01*
X262642Y27752D01*
D11*
X284480Y1270D02*
X44450Y1270D01*
X44450Y387350D01*
X284480Y387350D02*
X284480Y1270D01*
X284480Y387350D02*
X44450Y387350D01*
X93980Y148590D02*
X234950Y148590D01*
X93980Y148590D02*
X93980Y344170D01*
X234950Y344170D02*
X234950Y148590D01*
X234950Y344170D02*
X93980Y344170D01*
M02*
