G04 EAGLE Gerber RS-274X export*
G75*
%MOMM*%
%FSLAX34Y34*%
%LPD*%
%INSolderpaste Top*%
%IPPOS*%
%AMOC8*
5,1,8,0,0,1.08239X$1,22.5*%
G01*
%ADD10R,1.800000X1.500000*%
%ADD11R,1.800000X0.780000*%


D10*
X41910Y334010D03*
X41910Y308610D03*
X41910Y283210D03*
X41910Y207010D03*
X41910Y181610D03*
X41910Y156210D03*
X41910Y130810D03*
X41910Y105410D03*
X41910Y80010D03*
X41910Y54610D03*
X41910Y29210D03*
X285750Y29210D03*
X285750Y54610D03*
X285750Y80010D03*
X285750Y105410D03*
X285750Y130810D03*
X285750Y156210D03*
X285750Y181610D03*
X285750Y207010D03*
X285750Y283210D03*
X285750Y308610D03*
X285750Y334010D03*
D11*
X93980Y335280D03*
X93980Y322580D03*
X93980Y309880D03*
X93980Y254000D03*
X93980Y241300D03*
X93980Y228600D03*
X93980Y215900D03*
X93980Y203200D03*
X93980Y190500D03*
X93980Y177800D03*
X93980Y165100D03*
X236220Y165100D03*
X236220Y177800D03*
X236220Y190500D03*
X236220Y203200D03*
X236220Y215900D03*
X236220Y228600D03*
X236220Y241300D03*
X236220Y254000D03*
X236220Y309880D03*
X236220Y322580D03*
X236220Y335280D03*
M02*
