G04 EAGLE Gerber RS-274X export*
G75*
%MOMM*%
%FSLAX34Y34*%
%LPD*%
%INSoldermask Bottom*%
%IPPOS*%
%AMOC8*
5,1,8,0,0,1.08239X$1,22.5*%
G01*
%ADD10C,2.082800*%


D10*
X11430Y29210D03*
X11430Y54610D03*
X11430Y80010D03*
X11430Y105410D03*
X11430Y130810D03*
X11430Y156210D03*
X11430Y181610D03*
X11430Y207010D03*
X11430Y232410D03*
X11430Y257810D03*
X11430Y283210D03*
X11430Y308610D03*
X11430Y334010D03*
X316230Y334010D03*
X316230Y308610D03*
X316230Y283210D03*
X316230Y257810D03*
X316230Y232410D03*
X316230Y207010D03*
X316230Y181610D03*
X316230Y156210D03*
X316230Y130810D03*
X316230Y105410D03*
X316230Y80010D03*
X316230Y54610D03*
X316230Y29210D03*
X36830Y29210D03*
X36830Y54610D03*
X36830Y80010D03*
X36830Y105410D03*
X36830Y130810D03*
X36830Y156210D03*
X36830Y181610D03*
X36830Y207010D03*
X36830Y232410D03*
X36830Y257810D03*
X36830Y283210D03*
X36830Y308610D03*
X36830Y334010D03*
X290830Y334010D03*
X290830Y308610D03*
X290830Y283210D03*
X290830Y257810D03*
X290830Y232410D03*
X290830Y207010D03*
X290830Y181610D03*
X290830Y156210D03*
X290830Y130810D03*
X290830Y105410D03*
X290830Y80010D03*
X290830Y54610D03*
X290830Y29210D03*
M02*
