G04 EAGLE Gerber RS-274X export*
G75*
%MOMM*%
%FSLAX34Y34*%
%LPD*%
%INTop Copper*%
%IPPOS*%
%AMOC8*
5,1,8,0,0,1.08239X$1,22.5*%
G01*
%ADD10C,1.778000*%
%ADD11C,1.651000*%
%ADD12R,1.651000X1.651000*%
%ADD13C,1.879600*%
%ADD14R,1.651000X1.651000*%
%ADD15R,1.800000X1.500000*%
%ADD16R,1.800000X0.780000*%
%ADD17R,3.200000X2.000000*%
%ADD18R,1.270000X2.060000*%
%ADD19C,0.706400*%
%ADD20C,1.056400*%
%ADD21C,0.406400*%
%ADD22C,0.812800*%
%ADD23C,0.200000*%
%ADD24C,0.254000*%
%ADD25C,0.609600*%
%ADD26C,1.500000*%

G36*
X296730Y2778D02*
X296730Y2778D01*
X296827Y2788D01*
X296851Y2798D01*
X296876Y2802D01*
X296962Y2848D01*
X297051Y2888D01*
X297071Y2905D01*
X297094Y2918D01*
X297161Y2988D01*
X297233Y3054D01*
X297245Y3077D01*
X297263Y3096D01*
X297304Y3184D01*
X297351Y3270D01*
X297356Y3295D01*
X297367Y3319D01*
X297378Y3416D01*
X297395Y3512D01*
X297391Y3538D01*
X297394Y3563D01*
X297373Y3659D01*
X297359Y3755D01*
X297347Y3778D01*
X297342Y3804D01*
X297292Y3887D01*
X297248Y3974D01*
X297229Y3993D01*
X297215Y4015D01*
X297142Y4078D01*
X297072Y4146D01*
X297043Y4162D01*
X297029Y4175D01*
X296998Y4187D01*
X296925Y4227D01*
X293769Y5535D01*
X290393Y8911D01*
X288566Y13321D01*
X288566Y18095D01*
X290393Y22506D01*
X293769Y25882D01*
X298179Y27709D01*
X302954Y27709D01*
X307364Y25882D01*
X310740Y22506D01*
X312567Y18095D01*
X312567Y13321D01*
X310740Y8911D01*
X307364Y5535D01*
X304208Y4227D01*
X304125Y4176D01*
X304039Y4130D01*
X304021Y4111D01*
X303999Y4098D01*
X303937Y4023D01*
X303870Y3952D01*
X303859Y3928D01*
X303842Y3908D01*
X303807Y3817D01*
X303766Y3729D01*
X303763Y3703D01*
X303754Y3679D01*
X303750Y3581D01*
X303739Y3485D01*
X303745Y3459D01*
X303744Y3433D01*
X303771Y3339D01*
X303791Y3244D01*
X303805Y3222D01*
X303812Y3197D01*
X303868Y3117D01*
X303918Y3033D01*
X303937Y3016D01*
X303952Y2995D01*
X304030Y2936D01*
X304104Y2873D01*
X304129Y2863D01*
X304150Y2848D01*
X304242Y2818D01*
X304333Y2781D01*
X304365Y2778D01*
X304384Y2772D01*
X304417Y2772D01*
X304499Y2763D01*
X549873Y2763D01*
X549969Y2778D01*
X550066Y2788D01*
X550090Y2798D01*
X550115Y2802D01*
X550201Y2848D01*
X550290Y2888D01*
X550310Y2905D01*
X550333Y2918D01*
X550400Y2988D01*
X550472Y3054D01*
X550484Y3077D01*
X550502Y3096D01*
X550543Y3184D01*
X550590Y3270D01*
X550595Y3295D01*
X550606Y3319D01*
X550617Y3416D01*
X550634Y3512D01*
X550630Y3538D01*
X550633Y3563D01*
X550612Y3659D01*
X550598Y3755D01*
X550586Y3778D01*
X550581Y3804D01*
X550531Y3887D01*
X550487Y3974D01*
X550468Y3993D01*
X550455Y4015D01*
X550381Y4078D01*
X550311Y4146D01*
X550282Y4162D01*
X550268Y4175D01*
X550237Y4187D01*
X550164Y4227D01*
X548005Y5121D01*
X544630Y8497D01*
X542803Y12908D01*
X542803Y17682D01*
X544630Y22093D01*
X548005Y25469D01*
X552416Y27296D01*
X557190Y27296D01*
X561601Y25469D01*
X564977Y22093D01*
X566804Y17682D01*
X566804Y12908D01*
X564977Y8497D01*
X561601Y5121D01*
X559442Y4227D01*
X559359Y4176D01*
X559274Y4130D01*
X559256Y4112D01*
X559233Y4098D01*
X559171Y4022D01*
X559104Y3952D01*
X559093Y3928D01*
X559077Y3908D01*
X559042Y3817D01*
X559001Y3729D01*
X558998Y3703D01*
X558988Y3679D01*
X558984Y3581D01*
X558974Y3485D01*
X558979Y3459D01*
X558978Y3433D01*
X559005Y3339D01*
X559026Y3244D01*
X559039Y3222D01*
X559047Y3197D01*
X559102Y3117D01*
X559152Y3033D01*
X559172Y3016D01*
X559187Y2995D01*
X559265Y2936D01*
X559339Y2873D01*
X559363Y2863D01*
X559384Y2848D01*
X559477Y2818D01*
X559567Y2781D01*
X559600Y2778D01*
X559618Y2772D01*
X559651Y2772D01*
X559734Y2763D01*
X567976Y2763D01*
X567996Y2766D01*
X568015Y2764D01*
X568117Y2786D01*
X568219Y2802D01*
X568236Y2812D01*
X568256Y2816D01*
X568345Y2869D01*
X568436Y2918D01*
X568450Y2932D01*
X568467Y2942D01*
X568534Y3021D01*
X568606Y3096D01*
X568614Y3114D01*
X568627Y3129D01*
X568666Y3225D01*
X568709Y3319D01*
X568711Y3339D01*
X568719Y3357D01*
X568737Y3524D01*
X568737Y590876D01*
X568734Y590896D01*
X568736Y590915D01*
X568714Y591017D01*
X568698Y591119D01*
X568688Y591136D01*
X568684Y591156D01*
X568631Y591245D01*
X568582Y591336D01*
X568568Y591350D01*
X568558Y591367D01*
X568479Y591434D01*
X568404Y591506D01*
X568386Y591514D01*
X568371Y591527D01*
X568275Y591566D01*
X568181Y591609D01*
X568161Y591611D01*
X568143Y591619D01*
X567976Y591637D01*
X3524Y591637D01*
X3504Y591634D01*
X3485Y591636D01*
X3383Y591614D01*
X3281Y591598D01*
X3264Y591588D01*
X3244Y591584D01*
X3155Y591531D01*
X3064Y591482D01*
X3050Y591468D01*
X3033Y591458D01*
X2966Y591379D01*
X2894Y591304D01*
X2886Y591286D01*
X2873Y591271D01*
X2834Y591175D01*
X2791Y591081D01*
X2789Y591061D01*
X2781Y591043D01*
X2763Y590876D01*
X2763Y69693D01*
X2778Y69597D01*
X2788Y69500D01*
X2798Y69476D01*
X2802Y69450D01*
X2848Y69364D01*
X2888Y69275D01*
X2905Y69256D01*
X2918Y69233D01*
X2988Y69166D01*
X3054Y69094D01*
X3077Y69082D01*
X3096Y69064D01*
X3184Y69023D01*
X3270Y68976D01*
X3295Y68971D01*
X3319Y68960D01*
X3416Y68949D01*
X3512Y68932D01*
X3538Y68936D01*
X3563Y68933D01*
X3659Y68953D01*
X3755Y68968D01*
X3778Y68979D01*
X3804Y68985D01*
X3887Y69035D01*
X3974Y69079D01*
X3993Y69098D01*
X4015Y69111D01*
X4078Y69185D01*
X4146Y69255D01*
X4162Y69283D01*
X4175Y69298D01*
X4187Y69329D01*
X4227Y69402D01*
X4895Y71013D01*
X8101Y74219D01*
X12291Y75955D01*
X16825Y75955D01*
X21015Y74219D01*
X24221Y71013D01*
X25957Y66823D01*
X25957Y62289D01*
X24221Y58099D01*
X21015Y54893D01*
X16825Y53157D01*
X12291Y53157D01*
X8101Y54893D01*
X4895Y58099D01*
X4227Y59710D01*
X4176Y59793D01*
X4130Y59879D01*
X4112Y59897D01*
X4098Y59919D01*
X4022Y59982D01*
X3952Y60048D01*
X3928Y60059D01*
X3908Y60076D01*
X3817Y60111D01*
X3729Y60152D01*
X3703Y60155D01*
X3679Y60164D01*
X3581Y60168D01*
X3485Y60179D01*
X3459Y60174D01*
X3433Y60175D01*
X3339Y60148D01*
X3244Y60127D01*
X3222Y60114D01*
X3197Y60106D01*
X3117Y60051D01*
X3033Y60001D01*
X3016Y59981D01*
X2995Y59966D01*
X2936Y59888D01*
X2873Y59814D01*
X2863Y59790D01*
X2848Y59769D01*
X2818Y59676D01*
X2781Y59586D01*
X2778Y59553D01*
X2772Y59535D01*
X2772Y59502D01*
X2763Y59419D01*
X2763Y24481D01*
X2778Y24385D01*
X2788Y24288D01*
X2798Y24264D01*
X2802Y24238D01*
X2848Y24152D01*
X2888Y24063D01*
X2905Y24044D01*
X2918Y24021D01*
X2988Y23954D01*
X3054Y23882D01*
X3077Y23870D01*
X3096Y23852D01*
X3184Y23811D01*
X3270Y23764D01*
X3295Y23759D01*
X3319Y23748D01*
X3416Y23737D01*
X3512Y23720D01*
X3538Y23724D01*
X3563Y23721D01*
X3659Y23742D01*
X3755Y23756D01*
X3778Y23768D01*
X3804Y23773D01*
X3887Y23823D01*
X3974Y23867D01*
X3993Y23886D01*
X4015Y23899D01*
X4078Y23973D01*
X4146Y24043D01*
X4162Y24071D01*
X4175Y24086D01*
X4187Y24117D01*
X4227Y24190D01*
X4895Y25801D01*
X8101Y29007D01*
X12291Y30743D01*
X16825Y30743D01*
X21015Y29007D01*
X24221Y25801D01*
X25957Y21611D01*
X25957Y17077D01*
X24221Y12887D01*
X21015Y9681D01*
X16825Y7945D01*
X12291Y7945D01*
X8101Y9681D01*
X4895Y12887D01*
X4227Y14498D01*
X4176Y14581D01*
X4130Y14667D01*
X4112Y14685D01*
X4098Y14707D01*
X4022Y14770D01*
X3952Y14836D01*
X3928Y14847D01*
X3908Y14864D01*
X3817Y14899D01*
X3729Y14940D01*
X3703Y14943D01*
X3679Y14952D01*
X3581Y14956D01*
X3485Y14967D01*
X3459Y14962D01*
X3433Y14963D01*
X3339Y14936D01*
X3244Y14915D01*
X3222Y14901D01*
X3197Y14894D01*
X3117Y14839D01*
X3033Y14789D01*
X3016Y14769D01*
X2995Y14754D01*
X2936Y14676D01*
X2873Y14602D01*
X2863Y14578D01*
X2848Y14557D01*
X2818Y14464D01*
X2781Y14374D01*
X2778Y14341D01*
X2772Y14323D01*
X2772Y14290D01*
X2763Y14207D01*
X2763Y3524D01*
X2766Y3504D01*
X2764Y3485D01*
X2786Y3383D01*
X2802Y3281D01*
X2812Y3264D01*
X2816Y3244D01*
X2869Y3155D01*
X2918Y3064D01*
X2932Y3050D01*
X2942Y3033D01*
X3021Y2966D01*
X3096Y2894D01*
X3114Y2886D01*
X3129Y2873D01*
X3225Y2834D01*
X3319Y2791D01*
X3339Y2789D01*
X3357Y2781D01*
X3524Y2763D01*
X296634Y2763D01*
X296730Y2778D01*
G37*
%LPC*%
G36*
X77315Y53157D02*
X77315Y53157D01*
X73125Y54893D01*
X69919Y58099D01*
X68183Y62289D01*
X68183Y66823D01*
X69919Y71013D01*
X73125Y74219D01*
X75841Y75344D01*
X75941Y75406D01*
X76041Y75466D01*
X76045Y75471D01*
X76050Y75474D01*
X76124Y75563D01*
X76201Y75653D01*
X76203Y75659D01*
X76207Y75664D01*
X76249Y75772D01*
X76293Y75881D01*
X76294Y75889D01*
X76295Y75893D01*
X76296Y75911D01*
X76311Y76048D01*
X76311Y126657D01*
X100532Y150878D01*
X100574Y150936D01*
X100623Y150988D01*
X100645Y151035D01*
X100676Y151077D01*
X100697Y151146D01*
X100727Y151211D01*
X100733Y151263D01*
X100748Y151313D01*
X100746Y151384D01*
X100754Y151455D01*
X100743Y151506D01*
X100742Y151558D01*
X100717Y151626D01*
X100702Y151696D01*
X100675Y151741D01*
X100657Y151789D01*
X100612Y151845D01*
X100576Y151907D01*
X100536Y151941D01*
X100504Y151981D01*
X100443Y152020D01*
X100389Y152067D01*
X100340Y152086D01*
X100297Y152114D01*
X100227Y152132D01*
X100161Y152159D01*
X100089Y152167D01*
X100058Y152175D01*
X100035Y152173D01*
X99994Y152177D01*
X34587Y152177D01*
X34497Y152163D01*
X34406Y152155D01*
X34376Y152143D01*
X34344Y152138D01*
X34264Y152095D01*
X34180Y152059D01*
X34148Y152033D01*
X34127Y152022D01*
X34105Y151999D01*
X34049Y151954D01*
X33614Y151520D01*
X31581Y150677D01*
X29379Y150677D01*
X27346Y151520D01*
X25790Y153076D01*
X24947Y155109D01*
X24947Y157311D01*
X25790Y159344D01*
X27346Y160900D01*
X29379Y161743D01*
X31581Y161743D01*
X33614Y160900D01*
X34049Y160466D01*
X34123Y160413D01*
X34192Y160353D01*
X34222Y160341D01*
X34249Y160322D01*
X34335Y160295D01*
X34420Y160261D01*
X34461Y160257D01*
X34484Y160250D01*
X34516Y160251D01*
X34587Y160243D01*
X130094Y160243D01*
X130184Y160257D01*
X130275Y160265D01*
X130305Y160277D01*
X130337Y160282D01*
X130418Y160325D01*
X130502Y160361D01*
X130534Y160387D01*
X130554Y160398D01*
X130577Y160421D01*
X130633Y160466D01*
X171004Y200837D01*
X171057Y200911D01*
X171117Y200981D01*
X171129Y201011D01*
X171148Y201037D01*
X171175Y201124D01*
X171209Y201209D01*
X171213Y201250D01*
X171220Y201272D01*
X171219Y201304D01*
X171227Y201376D01*
X171227Y342568D01*
X183704Y355045D01*
X183757Y355118D01*
X183817Y355188D01*
X183829Y355218D01*
X183848Y355244D01*
X183875Y355331D01*
X183909Y355416D01*
X183913Y355457D01*
X183920Y355479D01*
X183919Y355512D01*
X183927Y355583D01*
X183927Y477388D01*
X232542Y526003D01*
X281604Y526003D01*
X281675Y526014D01*
X281746Y526016D01*
X281795Y526034D01*
X281847Y526042D01*
X281910Y526076D01*
X281977Y526101D01*
X282018Y526133D01*
X282064Y526158D01*
X282113Y526210D01*
X282169Y526254D01*
X282198Y526298D01*
X282233Y526336D01*
X282264Y526401D01*
X282302Y526461D01*
X282315Y526512D01*
X282337Y526559D01*
X282345Y526630D01*
X282362Y526700D01*
X282358Y526752D01*
X282364Y526803D01*
X282349Y526874D01*
X282343Y526945D01*
X282323Y526993D01*
X282312Y527044D01*
X282275Y527105D01*
X282247Y527171D01*
X282202Y527227D01*
X282186Y527255D01*
X282168Y527270D01*
X282142Y527302D01*
X242768Y566676D01*
X242694Y566729D01*
X242625Y566789D01*
X242595Y566801D01*
X242568Y566820D01*
X242481Y566847D01*
X242397Y566881D01*
X242356Y566885D01*
X242333Y566892D01*
X242301Y566891D01*
X242230Y566899D01*
X238494Y566899D01*
X234491Y568557D01*
X231427Y571621D01*
X229769Y575624D01*
X229769Y579956D01*
X231427Y583959D01*
X234491Y587023D01*
X238494Y588681D01*
X242826Y588681D01*
X246829Y587023D01*
X249893Y583959D01*
X251551Y579956D01*
X251551Y575624D01*
X249893Y571621D01*
X249022Y570750D01*
X249010Y570734D01*
X248995Y570722D01*
X248939Y570634D01*
X248878Y570550D01*
X248873Y570531D01*
X248862Y570515D01*
X248836Y570414D01*
X248806Y570315D01*
X248807Y570295D01*
X248802Y570276D01*
X248810Y570173D01*
X248812Y570069D01*
X248819Y570051D01*
X248821Y570031D01*
X248861Y569936D01*
X248897Y569838D01*
X248909Y569823D01*
X248917Y569805D01*
X249022Y569674D01*
X261490Y557206D01*
X261548Y557164D01*
X261600Y557115D01*
X261647Y557093D01*
X261689Y557062D01*
X261758Y557041D01*
X261823Y557011D01*
X261875Y557005D01*
X261925Y556990D01*
X261996Y556992D01*
X262067Y556984D01*
X262118Y556995D01*
X262170Y556996D01*
X262238Y557021D01*
X262308Y557036D01*
X262353Y557063D01*
X262401Y557081D01*
X262457Y557126D01*
X262519Y557162D01*
X262553Y557202D01*
X262593Y557234D01*
X262632Y557295D01*
X262679Y557349D01*
X262698Y557398D01*
X262726Y557441D01*
X262744Y557511D01*
X262771Y557577D01*
X262779Y557649D01*
X262787Y557680D01*
X262785Y557703D01*
X262789Y557744D01*
X262789Y566848D01*
X262785Y566876D01*
X262786Y566888D01*
X262772Y566954D01*
X262770Y566963D01*
X262753Y567079D01*
X262751Y567085D01*
X262750Y567091D01*
X262737Y567114D01*
X262734Y567129D01*
X262695Y567194D01*
X262642Y567298D01*
X262637Y567303D01*
X262634Y567308D01*
X262616Y567325D01*
X262608Y567340D01*
X262543Y567395D01*
X262466Y567471D01*
X262460Y567474D01*
X262456Y567478D01*
X262439Y567485D01*
X262435Y567488D01*
X262421Y567500D01*
X262392Y567511D01*
X262319Y567551D01*
X259891Y568557D01*
X256827Y571621D01*
X255169Y575624D01*
X255169Y579956D01*
X256827Y583959D01*
X259891Y587023D01*
X263894Y588681D01*
X268226Y588681D01*
X272229Y587023D01*
X275293Y583959D01*
X276951Y579956D01*
X276951Y575624D01*
X275293Y571621D01*
X272229Y568557D01*
X269801Y567551D01*
X269715Y567498D01*
X269634Y567455D01*
X269621Y567442D01*
X269601Y567430D01*
X269597Y567425D01*
X269592Y567422D01*
X269521Y567337D01*
X269465Y567277D01*
X269458Y567262D01*
X269441Y567243D01*
X269439Y567237D01*
X269435Y567232D01*
X269393Y567124D01*
X269392Y567120D01*
X269361Y567054D01*
X269359Y567040D01*
X269349Y567015D01*
X269348Y567007D01*
X269347Y567003D01*
X269346Y566984D01*
X269331Y566848D01*
X269331Y557300D01*
X269345Y557210D01*
X269353Y557119D01*
X269365Y557089D01*
X269370Y557057D01*
X269413Y556977D01*
X269449Y556893D01*
X269475Y556861D01*
X269486Y556840D01*
X269509Y556818D01*
X269554Y556762D01*
X302122Y524194D01*
X302196Y524141D01*
X302265Y524081D01*
X302295Y524069D01*
X302322Y524050D01*
X302409Y524023D01*
X302493Y523989D01*
X302534Y523985D01*
X302557Y523978D01*
X302589Y523979D01*
X302660Y523971D01*
X492845Y523971D01*
X540481Y476335D01*
X540481Y460140D01*
X540495Y460050D01*
X540503Y459959D01*
X540515Y459929D01*
X540520Y459897D01*
X540563Y459817D01*
X540599Y459733D01*
X540625Y459701D01*
X540636Y459680D01*
X540659Y459658D01*
X540704Y459602D01*
X545569Y454737D01*
X545585Y454725D01*
X545597Y454710D01*
X545685Y454654D01*
X545768Y454593D01*
X545787Y454588D01*
X545804Y454577D01*
X545905Y454551D01*
X546003Y454521D01*
X546023Y454522D01*
X546043Y454517D01*
X546146Y454525D01*
X546249Y454527D01*
X546268Y454534D01*
X546288Y454536D01*
X546383Y454576D01*
X546480Y454612D01*
X546496Y454624D01*
X546514Y454632D01*
X546645Y454737D01*
X548501Y456593D01*
X552504Y458251D01*
X556836Y458251D01*
X560839Y456593D01*
X563903Y453529D01*
X565561Y449526D01*
X565561Y445194D01*
X563903Y441191D01*
X560839Y438127D01*
X556836Y436469D01*
X552504Y436469D01*
X548501Y438127D01*
X545437Y441191D01*
X543779Y445194D01*
X543779Y446960D01*
X543765Y447050D01*
X543757Y447141D01*
X543745Y447171D01*
X543740Y447203D01*
X543697Y447283D01*
X543661Y447367D01*
X543635Y447399D01*
X543624Y447420D01*
X543601Y447442D01*
X543556Y447498D01*
X541780Y449274D01*
X541722Y449316D01*
X541670Y449365D01*
X541623Y449387D01*
X541581Y449418D01*
X541512Y449439D01*
X541447Y449469D01*
X541395Y449475D01*
X541345Y449490D01*
X541274Y449488D01*
X541203Y449496D01*
X541152Y449485D01*
X541100Y449484D01*
X541032Y449459D01*
X540962Y449444D01*
X540917Y449417D01*
X540869Y449399D01*
X540813Y449354D01*
X540751Y449318D01*
X540717Y449278D01*
X540677Y449246D01*
X540638Y449185D01*
X540591Y449131D01*
X540572Y449082D01*
X540544Y449039D01*
X540526Y448969D01*
X540499Y448903D01*
X540491Y448831D01*
X540483Y448800D01*
X540485Y448777D01*
X540481Y448736D01*
X540481Y387750D01*
X540495Y387660D01*
X540503Y387569D01*
X540515Y387539D01*
X540520Y387507D01*
X540563Y387427D01*
X540599Y387343D01*
X540625Y387311D01*
X540636Y387290D01*
X540659Y387268D01*
X540704Y387212D01*
X547474Y380442D01*
X547490Y380430D01*
X547502Y380415D01*
X547589Y380359D01*
X547673Y380298D01*
X547692Y380293D01*
X547709Y380282D01*
X547810Y380256D01*
X547908Y380226D01*
X547928Y380227D01*
X547948Y380222D01*
X548051Y380230D01*
X548154Y380232D01*
X548173Y380239D01*
X548193Y380241D01*
X548288Y380281D01*
X548385Y380317D01*
X548401Y380329D01*
X548419Y380337D01*
X548475Y380382D01*
X552504Y382051D01*
X556836Y382051D01*
X560839Y380393D01*
X563903Y377329D01*
X565561Y373326D01*
X565561Y368994D01*
X563903Y364991D01*
X560839Y361927D01*
X556836Y360269D01*
X552504Y360269D01*
X548501Y361927D01*
X545437Y364991D01*
X543779Y368994D01*
X543779Y373326D01*
X544041Y373959D01*
X544056Y374021D01*
X544068Y374048D01*
X544074Y374095D01*
X544096Y374186D01*
X544096Y374192D01*
X544097Y374198D01*
X544092Y374259D01*
X544095Y374292D01*
X544084Y374344D01*
X544077Y374431D01*
X544075Y374437D01*
X544074Y374443D01*
X544051Y374494D01*
X544043Y374533D01*
X544012Y374585D01*
X543981Y374657D01*
X543976Y374663D01*
X543974Y374668D01*
X543962Y374682D01*
X543932Y374719D01*
X543917Y374744D01*
X543901Y374757D01*
X543876Y374788D01*
X533939Y384725D01*
X533939Y450379D01*
X533936Y450398D01*
X533938Y450417D01*
X533923Y450486D01*
X533917Y450560D01*
X533905Y450590D01*
X533900Y450622D01*
X533890Y450641D01*
X533886Y450658D01*
X533852Y450715D01*
X533821Y450787D01*
X533795Y450819D01*
X533784Y450839D01*
X533768Y450855D01*
X533760Y450869D01*
X533746Y450880D01*
X533716Y450918D01*
X529399Y455235D01*
X529399Y471429D01*
X529385Y471519D01*
X529377Y471610D01*
X529365Y471640D01*
X529360Y471672D01*
X529317Y471753D01*
X529281Y471837D01*
X529255Y471869D01*
X529244Y471889D01*
X529221Y471912D01*
X529176Y471968D01*
X489748Y511396D01*
X489674Y511449D01*
X489604Y511509D01*
X489574Y511521D01*
X489548Y511540D01*
X489461Y511567D01*
X489376Y511601D01*
X489335Y511605D01*
X489313Y511612D01*
X489281Y511611D01*
X489209Y511619D01*
X301102Y511619D01*
X301031Y511608D01*
X300959Y511606D01*
X300910Y511588D01*
X300859Y511580D01*
X300796Y511546D01*
X300728Y511521D01*
X300688Y511489D01*
X300642Y511464D01*
X300592Y511412D01*
X300536Y511368D01*
X300508Y511324D01*
X300472Y511286D01*
X300442Y511221D01*
X300403Y511161D01*
X300390Y511110D01*
X300369Y511063D01*
X300361Y510992D01*
X300343Y510922D01*
X300347Y510870D01*
X300341Y510819D01*
X300357Y510748D01*
X300362Y510677D01*
X300383Y510629D01*
X300394Y510578D01*
X300431Y510517D01*
X300459Y510451D01*
X300503Y510395D01*
X300520Y510367D01*
X300538Y510352D01*
X300563Y510320D01*
X301609Y509274D01*
X301683Y509221D01*
X301753Y509161D01*
X301783Y509149D01*
X301809Y509130D01*
X301896Y509103D01*
X301981Y509069D01*
X302022Y509065D01*
X302044Y509058D01*
X302076Y509059D01*
X302148Y509051D01*
X302836Y509051D01*
X306839Y507393D01*
X309903Y504329D01*
X311561Y500326D01*
X311561Y498701D01*
X311575Y498611D01*
X311583Y498520D01*
X311595Y498491D01*
X311600Y498459D01*
X311643Y498378D01*
X311679Y498294D01*
X311705Y498262D01*
X311716Y498241D01*
X311739Y498219D01*
X311784Y498163D01*
X337881Y472065D01*
X338805Y469836D01*
X338805Y401607D01*
X338819Y401517D01*
X338827Y401426D01*
X338839Y401397D01*
X338844Y401365D01*
X338887Y401284D01*
X338923Y401200D01*
X338949Y401168D01*
X338960Y401147D01*
X338983Y401125D01*
X339028Y401069D01*
X351539Y388558D01*
X351613Y388505D01*
X351683Y388445D01*
X351713Y388433D01*
X351739Y388414D01*
X351826Y388387D01*
X351911Y388353D01*
X351952Y388349D01*
X351974Y388342D01*
X352006Y388343D01*
X352077Y388335D01*
X365696Y388335D01*
X367925Y387411D01*
X369631Y385705D01*
X370555Y383476D01*
X370555Y381064D01*
X369631Y378835D01*
X367925Y377129D01*
X365696Y376205D01*
X348044Y376205D01*
X345815Y377129D01*
X327599Y395345D01*
X326675Y397574D01*
X326675Y465803D01*
X326661Y465893D01*
X326653Y465984D01*
X326641Y466013D01*
X326636Y466045D01*
X326593Y466126D01*
X326557Y466210D01*
X326531Y466242D01*
X326520Y466263D01*
X326497Y466285D01*
X326452Y466341D01*
X305096Y487697D01*
X305002Y487764D01*
X304908Y487835D01*
X304902Y487837D01*
X304897Y487840D01*
X304786Y487874D01*
X304674Y487911D01*
X304668Y487911D01*
X304662Y487913D01*
X304545Y487910D01*
X304428Y487909D01*
X304421Y487906D01*
X304416Y487906D01*
X304398Y487900D01*
X304267Y487862D01*
X302836Y487269D01*
X298504Y487269D01*
X294501Y488927D01*
X291437Y491991D01*
X289779Y495994D01*
X289779Y500326D01*
X291437Y504329D01*
X292754Y505646D01*
X292766Y505662D01*
X292781Y505675D01*
X292838Y505762D01*
X292898Y505846D01*
X292904Y505865D01*
X292914Y505882D01*
X292940Y505982D01*
X292970Y506081D01*
X292970Y506101D01*
X292974Y506120D01*
X292966Y506223D01*
X292964Y506327D01*
X292957Y506346D01*
X292955Y506365D01*
X292915Y506460D01*
X292879Y506558D01*
X292867Y506573D01*
X292859Y506592D01*
X292754Y506723D01*
X281763Y517714D01*
X281689Y517767D01*
X281619Y517827D01*
X281589Y517839D01*
X281563Y517858D01*
X281476Y517885D01*
X281391Y517919D01*
X281350Y517923D01*
X281328Y517930D01*
X281296Y517929D01*
X281224Y517937D01*
X273680Y517937D01*
X273586Y517922D01*
X273491Y517913D01*
X273465Y517902D01*
X273437Y517898D01*
X273353Y517853D01*
X273266Y517815D01*
X273245Y517796D01*
X273220Y517782D01*
X273154Y517713D01*
X273084Y517649D01*
X273070Y517625D01*
X273050Y517604D01*
X273010Y517518D01*
X272964Y517434D01*
X272959Y517407D01*
X272947Y517381D01*
X272936Y517286D01*
X272919Y517193D01*
X272923Y517165D01*
X272920Y517137D01*
X272940Y517043D01*
X272953Y516949D01*
X272967Y516917D01*
X272972Y516896D01*
X272989Y516868D01*
X273016Y516805D01*
X273191Y516154D01*
X273191Y509843D01*
X262412Y509843D01*
X262392Y509840D01*
X262373Y509842D01*
X262271Y509820D01*
X262169Y509803D01*
X262152Y509794D01*
X262132Y509790D01*
X262043Y509737D01*
X261952Y509688D01*
X261938Y509674D01*
X261921Y509664D01*
X261854Y509585D01*
X261783Y509510D01*
X261774Y509492D01*
X261761Y509477D01*
X261722Y509381D01*
X261679Y509287D01*
X261677Y509267D01*
X261669Y509249D01*
X261651Y509082D01*
X261651Y508319D01*
X261649Y508319D01*
X261649Y509082D01*
X261646Y509102D01*
X261648Y509121D01*
X261626Y509223D01*
X261609Y509325D01*
X261600Y509342D01*
X261596Y509362D01*
X261543Y509451D01*
X261494Y509542D01*
X261480Y509556D01*
X261470Y509573D01*
X261391Y509640D01*
X261316Y509711D01*
X261298Y509720D01*
X261283Y509733D01*
X261187Y509772D01*
X261093Y509815D01*
X261073Y509817D01*
X261055Y509825D01*
X260888Y509843D01*
X250109Y509843D01*
X250109Y516154D01*
X250285Y516810D01*
X250313Y516885D01*
X250353Y516971D01*
X250356Y516999D01*
X250366Y517025D01*
X250370Y517121D01*
X250380Y517215D01*
X250374Y517243D01*
X250375Y517271D01*
X250348Y517363D01*
X250328Y517456D01*
X250314Y517480D01*
X250306Y517507D01*
X250251Y517585D01*
X250202Y517667D01*
X250181Y517685D01*
X250164Y517708D01*
X250087Y517765D01*
X250015Y517827D01*
X249989Y517837D01*
X249966Y517854D01*
X249875Y517883D01*
X249787Y517919D01*
X249752Y517923D01*
X249732Y517929D01*
X249699Y517929D01*
X249620Y517937D01*
X236198Y517937D01*
X236108Y517923D01*
X236017Y517915D01*
X235987Y517903D01*
X235955Y517898D01*
X235874Y517855D01*
X235791Y517819D01*
X235758Y517793D01*
X235738Y517782D01*
X235716Y517759D01*
X235660Y517714D01*
X192216Y474270D01*
X192163Y474196D01*
X192103Y474127D01*
X192091Y474097D01*
X192072Y474071D01*
X192045Y473984D01*
X192011Y473899D01*
X192007Y473858D01*
X192000Y473836D01*
X192001Y473803D01*
X191993Y473732D01*
X191993Y423905D01*
X192004Y423834D01*
X192006Y423763D01*
X192024Y423714D01*
X192032Y423662D01*
X192066Y423599D01*
X192091Y423532D01*
X192123Y423491D01*
X192148Y423445D01*
X192200Y423395D01*
X192244Y423340D01*
X192288Y423311D01*
X192326Y423276D01*
X192391Y423245D01*
X192451Y423207D01*
X192502Y423194D01*
X192549Y423172D01*
X192620Y423164D01*
X192690Y423146D01*
X192742Y423151D01*
X192793Y423145D01*
X192864Y423160D01*
X192935Y423166D01*
X192983Y423186D01*
X193034Y423197D01*
X193095Y423234D01*
X193161Y423262D01*
X193217Y423307D01*
X193245Y423323D01*
X193260Y423341D01*
X193292Y423367D01*
X193716Y423790D01*
X195749Y424633D01*
X197951Y424633D01*
X200067Y423756D01*
X200111Y423746D01*
X200153Y423726D01*
X200230Y423718D01*
X200306Y423700D01*
X200352Y423704D01*
X200397Y423699D01*
X200474Y423716D01*
X200551Y423723D01*
X200593Y423742D01*
X200638Y423752D01*
X200705Y423791D01*
X200776Y423823D01*
X200810Y423854D01*
X200849Y423878D01*
X200877Y423910D01*
X200896Y423926D01*
X202202Y425232D01*
X202214Y425248D01*
X202229Y425260D01*
X202286Y425348D01*
X202346Y425431D01*
X202352Y425450D01*
X202362Y425467D01*
X202388Y425568D01*
X202418Y425667D01*
X202418Y425686D01*
X202423Y425706D01*
X202414Y425809D01*
X202412Y425912D01*
X202405Y425931D01*
X202403Y425951D01*
X202363Y426046D01*
X202327Y426143D01*
X202315Y426159D01*
X202307Y426177D01*
X202202Y426308D01*
X201119Y427391D01*
X201119Y436849D01*
X202202Y437932D01*
X202214Y437948D01*
X202229Y437960D01*
X202286Y438048D01*
X202346Y438131D01*
X202352Y438150D01*
X202362Y438167D01*
X202388Y438268D01*
X202418Y438367D01*
X202418Y438386D01*
X202423Y438406D01*
X202414Y438509D01*
X202412Y438612D01*
X202405Y438631D01*
X202403Y438651D01*
X202363Y438746D01*
X202327Y438843D01*
X202315Y438859D01*
X202307Y438877D01*
X202202Y439008D01*
X201119Y440091D01*
X201119Y449549D01*
X202202Y450632D01*
X202214Y450648D01*
X202229Y450660D01*
X202261Y450709D01*
X202262Y450711D01*
X202264Y450714D01*
X202286Y450748D01*
X202346Y450831D01*
X202352Y450850D01*
X202362Y450867D01*
X202388Y450968D01*
X202418Y451067D01*
X202418Y451086D01*
X202423Y451106D01*
X202414Y451209D01*
X202412Y451312D01*
X202405Y451331D01*
X202403Y451351D01*
X202363Y451446D01*
X202327Y451543D01*
X202315Y451559D01*
X202307Y451577D01*
X202202Y451708D01*
X201119Y452791D01*
X201119Y462249D01*
X202202Y463332D01*
X202214Y463348D01*
X202229Y463360D01*
X202286Y463448D01*
X202346Y463531D01*
X202352Y463550D01*
X202362Y463567D01*
X202388Y463668D01*
X202418Y463767D01*
X202418Y463786D01*
X202423Y463806D01*
X202414Y463909D01*
X202412Y464012D01*
X202405Y464031D01*
X202403Y464051D01*
X202363Y464146D01*
X202327Y464243D01*
X202315Y464259D01*
X202307Y464277D01*
X202202Y464408D01*
X201119Y465491D01*
X201119Y474949D01*
X202291Y476121D01*
X221949Y476121D01*
X223121Y474949D01*
X223121Y474252D01*
X223124Y474232D01*
X223122Y474213D01*
X223144Y474111D01*
X223160Y474009D01*
X223170Y473992D01*
X223174Y473972D01*
X223227Y473883D01*
X223276Y473792D01*
X223290Y473778D01*
X223300Y473761D01*
X223379Y473694D01*
X223454Y473622D01*
X223472Y473614D01*
X223487Y473601D01*
X223583Y473562D01*
X223677Y473519D01*
X223697Y473517D01*
X223715Y473509D01*
X223882Y473491D01*
X226435Y473491D01*
X248810Y451116D01*
X248868Y451075D01*
X248920Y451025D01*
X248967Y451003D01*
X249009Y450973D01*
X249078Y450952D01*
X249143Y450921D01*
X249195Y450916D01*
X249245Y450900D01*
X249316Y450902D01*
X249387Y450894D01*
X249438Y450905D01*
X249490Y450907D01*
X249558Y450931D01*
X249628Y450947D01*
X249673Y450973D01*
X249721Y450991D01*
X249777Y451036D01*
X249839Y451073D01*
X249873Y451112D01*
X249913Y451145D01*
X249952Y451205D01*
X249999Y451260D01*
X250018Y451308D01*
X250046Y451352D01*
X250064Y451421D01*
X250091Y451488D01*
X250099Y451559D01*
X250107Y451590D01*
X250105Y451614D01*
X250109Y451655D01*
X250109Y455997D01*
X260127Y455997D01*
X260127Y447479D01*
X254285Y447479D01*
X254214Y447468D01*
X254142Y447466D01*
X254093Y447448D01*
X254042Y447440D01*
X253979Y447406D01*
X253911Y447381D01*
X253871Y447349D01*
X253824Y447324D01*
X253775Y447272D01*
X253719Y447228D01*
X253691Y447184D01*
X253655Y447146D01*
X253625Y447081D01*
X253586Y447021D01*
X253573Y446970D01*
X253551Y446923D01*
X253544Y446852D01*
X253526Y446782D01*
X253530Y446730D01*
X253524Y446679D01*
X253540Y446608D01*
X253545Y446537D01*
X253566Y446489D01*
X253577Y446438D01*
X253613Y446377D01*
X253642Y446311D01*
X253686Y446255D01*
X253703Y446227D01*
X253721Y446212D01*
X253746Y446180D01*
X255461Y444465D01*
X255461Y404800D01*
X255475Y404710D01*
X255483Y404619D01*
X255495Y404589D01*
X255500Y404557D01*
X255543Y404477D01*
X255579Y404393D01*
X255605Y404361D01*
X255616Y404340D01*
X255639Y404318D01*
X255684Y404262D01*
X264891Y395055D01*
X264891Y391582D01*
X264894Y391562D01*
X264892Y391543D01*
X264914Y391441D01*
X264930Y391339D01*
X264940Y391322D01*
X264944Y391302D01*
X264997Y391213D01*
X265046Y391122D01*
X265060Y391108D01*
X265070Y391091D01*
X265149Y391024D01*
X265224Y390952D01*
X265242Y390944D01*
X265257Y390931D01*
X265353Y390892D01*
X265447Y390849D01*
X265467Y390847D01*
X265485Y390839D01*
X265652Y390821D01*
X271479Y390821D01*
X272651Y389649D01*
X272651Y386032D01*
X272654Y386012D01*
X272652Y385993D01*
X272674Y385891D01*
X272690Y385789D01*
X272700Y385772D01*
X272704Y385752D01*
X272757Y385663D01*
X272806Y385572D01*
X272820Y385558D01*
X272830Y385541D01*
X272909Y385474D01*
X272984Y385402D01*
X273002Y385394D01*
X273017Y385381D01*
X273113Y385342D01*
X273207Y385299D01*
X273227Y385297D01*
X273245Y385289D01*
X273412Y385271D01*
X274293Y385271D01*
X283671Y375893D01*
X283671Y363508D01*
X283685Y363418D01*
X283693Y363327D01*
X283705Y363297D01*
X283710Y363266D01*
X283753Y363185D01*
X283789Y363101D01*
X283815Y363069D01*
X283826Y363048D01*
X283849Y363026D01*
X283894Y362970D01*
X285500Y361364D01*
X285574Y361311D01*
X285643Y361251D01*
X285674Y361239D01*
X285700Y361220D01*
X285787Y361193D01*
X285872Y361159D01*
X285912Y361155D01*
X285935Y361148D01*
X285967Y361149D01*
X286038Y361141D01*
X293450Y361141D01*
X293520Y361152D01*
X293592Y361154D01*
X293641Y361172D01*
X293692Y361180D01*
X293756Y361214D01*
X293823Y361239D01*
X293864Y361271D01*
X293910Y361296D01*
X293959Y361348D01*
X294015Y361392D01*
X294043Y361436D01*
X294079Y361474D01*
X294109Y361539D01*
X294148Y361599D01*
X294161Y361650D01*
X294183Y361697D01*
X294191Y361768D01*
X294208Y361838D01*
X294204Y361890D01*
X294210Y361941D01*
X294195Y362012D01*
X294189Y362083D01*
X294169Y362131D01*
X294158Y362182D01*
X294121Y362243D01*
X294093Y362309D01*
X294048Y362365D01*
X294031Y362393D01*
X294014Y362408D01*
X293988Y362440D01*
X291437Y364991D01*
X289779Y368994D01*
X289779Y373326D01*
X291437Y377329D01*
X294501Y380393D01*
X298504Y382051D01*
X302836Y382051D01*
X306839Y380393D01*
X309903Y377329D01*
X311561Y373326D01*
X311561Y368994D01*
X309903Y364991D01*
X307352Y362440D01*
X307310Y362382D01*
X307261Y362330D01*
X307239Y362283D01*
X307209Y362241D01*
X307187Y362172D01*
X307157Y362107D01*
X307152Y362055D01*
X307136Y362005D01*
X307138Y361934D01*
X307130Y361863D01*
X307141Y361812D01*
X307143Y361760D01*
X307167Y361692D01*
X307182Y361622D01*
X307209Y361577D01*
X307227Y361529D01*
X307272Y361473D01*
X307309Y361411D01*
X307348Y361377D01*
X307381Y361337D01*
X307441Y361298D01*
X307495Y361251D01*
X307544Y361232D01*
X307588Y361204D01*
X307657Y361186D01*
X307724Y361159D01*
X307795Y361151D01*
X307826Y361143D01*
X307849Y361145D01*
X307890Y361141D01*
X316267Y361141D01*
X316338Y361152D01*
X316409Y361154D01*
X316458Y361172D01*
X316510Y361180D01*
X316573Y361214D01*
X316640Y361239D01*
X316681Y361271D01*
X316727Y361296D01*
X316776Y361347D01*
X316832Y361392D01*
X316861Y361436D01*
X316896Y361474D01*
X316927Y361539D01*
X316965Y361599D01*
X316978Y361650D01*
X317000Y361697D01*
X317008Y361768D01*
X317026Y361838D01*
X317021Y361890D01*
X317027Y361941D01*
X317012Y362012D01*
X317006Y362083D01*
X316986Y362131D01*
X316975Y362182D01*
X316938Y362243D01*
X316910Y362309D01*
X316865Y362365D01*
X316849Y362393D01*
X316831Y362408D01*
X316805Y362440D01*
X316620Y362626D01*
X315777Y364659D01*
X315777Y366861D01*
X316620Y368894D01*
X318176Y370450D01*
X320209Y371293D01*
X322411Y371293D01*
X324444Y370450D01*
X326000Y368894D01*
X326843Y366861D01*
X326843Y365363D01*
X326857Y365273D01*
X326865Y365182D01*
X326877Y365152D01*
X326882Y365120D01*
X326925Y365040D01*
X326961Y364956D01*
X326987Y364924D01*
X326998Y364903D01*
X327021Y364881D01*
X327066Y364825D01*
X347927Y343964D01*
X348001Y343911D01*
X348070Y343851D01*
X348100Y343839D01*
X348127Y343820D01*
X348214Y343793D01*
X348298Y343759D01*
X348339Y343755D01*
X348362Y343748D01*
X348394Y343749D01*
X348465Y343741D01*
X520870Y343741D01*
X541027Y323584D01*
X541101Y323531D01*
X541170Y323471D01*
X541200Y323459D01*
X541227Y323440D01*
X541314Y323413D01*
X541398Y323379D01*
X541439Y323375D01*
X541462Y323368D01*
X541494Y323369D01*
X541565Y323361D01*
X543616Y323361D01*
X543731Y323380D01*
X543847Y323397D01*
X543853Y323399D01*
X543859Y323400D01*
X543962Y323455D01*
X544066Y323508D01*
X544071Y323513D01*
X544076Y323516D01*
X544156Y323600D01*
X544239Y323684D01*
X544242Y323690D01*
X544246Y323694D01*
X544254Y323711D01*
X544320Y323831D01*
X545437Y326529D01*
X548501Y329593D01*
X552504Y331251D01*
X556836Y331251D01*
X560839Y329593D01*
X563903Y326529D01*
X565561Y322526D01*
X565561Y318194D01*
X563903Y314191D01*
X560839Y311127D01*
X556836Y309469D01*
X552504Y309469D01*
X548501Y311127D01*
X545437Y314191D01*
X544320Y316889D01*
X544258Y316989D01*
X544198Y317089D01*
X544193Y317093D01*
X544190Y317098D01*
X544099Y317173D01*
X544011Y317249D01*
X544005Y317251D01*
X544000Y317255D01*
X543892Y317297D01*
X543783Y317341D01*
X543775Y317342D01*
X543771Y317343D01*
X543753Y317344D01*
X543616Y317359D01*
X538764Y317359D01*
X532620Y323503D01*
X532562Y323545D01*
X532510Y323594D01*
X532463Y323616D01*
X532421Y323646D01*
X532352Y323668D01*
X532287Y323698D01*
X532235Y323704D01*
X532185Y323719D01*
X532114Y323717D01*
X532043Y323725D01*
X531992Y323714D01*
X531940Y323712D01*
X531872Y323688D01*
X531802Y323673D01*
X531757Y323646D01*
X531709Y323628D01*
X531653Y323583D01*
X531591Y323546D01*
X531557Y323507D01*
X531517Y323474D01*
X531478Y323414D01*
X531431Y323360D01*
X531412Y323311D01*
X531384Y323267D01*
X531366Y323198D01*
X531339Y323131D01*
X531331Y323060D01*
X531323Y323029D01*
X531325Y323006D01*
X531321Y322965D01*
X531321Y306358D01*
X531335Y306268D01*
X531343Y306177D01*
X531355Y306147D01*
X531360Y306116D01*
X531403Y306035D01*
X531439Y305951D01*
X531465Y305919D01*
X531476Y305898D01*
X531499Y305876D01*
X531544Y305820D01*
X539180Y298184D01*
X539254Y298131D01*
X539323Y298071D01*
X539354Y298059D01*
X539380Y298040D01*
X539467Y298013D01*
X539552Y297979D01*
X539592Y297975D01*
X539615Y297968D01*
X539647Y297969D01*
X539718Y297961D01*
X543616Y297961D01*
X543731Y297980D01*
X543847Y297997D01*
X543853Y297999D01*
X543859Y298000D01*
X543962Y298055D01*
X544066Y298108D01*
X544071Y298113D01*
X544076Y298116D01*
X544156Y298200D01*
X544239Y298284D01*
X544242Y298290D01*
X544246Y298294D01*
X544254Y298311D01*
X544320Y298431D01*
X545437Y301129D01*
X548501Y304193D01*
X552504Y305851D01*
X556836Y305851D01*
X560839Y304193D01*
X563903Y301129D01*
X565561Y297126D01*
X565561Y292794D01*
X563903Y288791D01*
X560839Y285727D01*
X556836Y284069D01*
X552504Y284069D01*
X548501Y285727D01*
X545437Y288791D01*
X544320Y291489D01*
X544258Y291589D01*
X544198Y291689D01*
X544193Y291693D01*
X544190Y291698D01*
X544099Y291773D01*
X544011Y291849D01*
X544005Y291851D01*
X544000Y291855D01*
X543892Y291897D01*
X543783Y291941D01*
X543775Y291942D01*
X543771Y291943D01*
X543753Y291944D01*
X543616Y291959D01*
X541585Y291959D01*
X541515Y291948D01*
X541443Y291946D01*
X541394Y291928D01*
X541343Y291920D01*
X541279Y291886D01*
X541212Y291861D01*
X541171Y291829D01*
X541125Y291804D01*
X541076Y291753D01*
X541020Y291708D01*
X540992Y291664D01*
X540956Y291626D01*
X540926Y291561D01*
X540887Y291501D01*
X540874Y291450D01*
X540852Y291403D01*
X540844Y291332D01*
X540827Y291262D01*
X540831Y291210D01*
X540825Y291159D01*
X540840Y291088D01*
X540846Y291017D01*
X540866Y290969D01*
X540877Y290918D01*
X540914Y290857D01*
X540942Y290791D01*
X540987Y290735D01*
X541004Y290707D01*
X541021Y290692D01*
X541047Y290660D01*
X541481Y290226D01*
X541481Y279688D01*
X541495Y279598D01*
X541503Y279507D01*
X541515Y279477D01*
X541520Y279446D01*
X541563Y279365D01*
X541599Y279281D01*
X541625Y279249D01*
X541636Y279228D01*
X541659Y279206D01*
X541704Y279150D01*
X544743Y276111D01*
X544759Y276099D01*
X544771Y276084D01*
X544858Y276028D01*
X544942Y275967D01*
X544961Y275962D01*
X544978Y275951D01*
X545079Y275926D01*
X545177Y275895D01*
X545197Y275896D01*
X545217Y275891D01*
X545320Y275899D01*
X545423Y275901D01*
X545442Y275908D01*
X545462Y275910D01*
X545557Y275950D01*
X545654Y275986D01*
X545670Y275998D01*
X545688Y276006D01*
X545819Y276111D01*
X548501Y278793D01*
X552504Y280451D01*
X556836Y280451D01*
X560839Y278793D01*
X563903Y275729D01*
X565561Y271726D01*
X565561Y267394D01*
X563903Y263391D01*
X560839Y260327D01*
X556836Y258669D01*
X552504Y258669D01*
X548501Y260327D01*
X545437Y263391D01*
X543779Y267394D01*
X543779Y268272D01*
X543765Y268362D01*
X543757Y268453D01*
X543745Y268483D01*
X543740Y268514D01*
X543697Y268595D01*
X543661Y268679D01*
X543635Y268711D01*
X543624Y268732D01*
X543601Y268754D01*
X543556Y268810D01*
X535479Y276887D01*
X535479Y287425D01*
X535465Y287515D01*
X535457Y287606D01*
X535445Y287636D01*
X535440Y287668D01*
X535397Y287748D01*
X535361Y287832D01*
X535335Y287864D01*
X535324Y287885D01*
X535301Y287907D01*
X535256Y287963D01*
X521319Y301900D01*
X521319Y322292D01*
X521305Y322382D01*
X521297Y322473D01*
X521285Y322503D01*
X521280Y322534D01*
X521237Y322615D01*
X521201Y322699D01*
X521175Y322731D01*
X521164Y322752D01*
X521141Y322774D01*
X521096Y322830D01*
X514410Y329516D01*
X514336Y329569D01*
X514267Y329629D01*
X514237Y329641D01*
X514210Y329660D01*
X514123Y329687D01*
X514038Y329721D01*
X513998Y329725D01*
X513975Y329732D01*
X513943Y329731D01*
X513872Y329739D01*
X308530Y329739D01*
X308460Y329728D01*
X308388Y329726D01*
X308339Y329708D01*
X308288Y329700D01*
X308224Y329666D01*
X308157Y329641D01*
X308116Y329609D01*
X308070Y329584D01*
X308021Y329532D01*
X307965Y329488D01*
X307937Y329444D01*
X307901Y329406D01*
X307871Y329341D01*
X307832Y329281D01*
X307819Y329230D01*
X307797Y329183D01*
X307789Y329112D01*
X307772Y329042D01*
X307776Y328990D01*
X307770Y328939D01*
X307785Y328868D01*
X307791Y328797D01*
X307811Y328749D01*
X307822Y328698D01*
X307859Y328637D01*
X307887Y328571D01*
X307932Y328515D01*
X307949Y328487D01*
X307966Y328472D01*
X307992Y328440D01*
X309903Y326529D01*
X311561Y322526D01*
X311561Y318194D01*
X309903Y314191D01*
X306839Y311127D01*
X302836Y309469D01*
X298504Y309469D01*
X294501Y311127D01*
X291393Y314235D01*
X291388Y314244D01*
X291370Y314262D01*
X291356Y314284D01*
X291281Y314346D01*
X291210Y314413D01*
X291187Y314424D01*
X291167Y314441D01*
X291075Y314476D01*
X290987Y314517D01*
X290961Y314520D01*
X290937Y314529D01*
X290840Y314533D01*
X290743Y314544D01*
X290717Y314538D01*
X290691Y314540D01*
X290598Y314512D01*
X290502Y314492D01*
X290480Y314478D01*
X290455Y314471D01*
X290375Y314416D01*
X290291Y314365D01*
X290274Y314346D01*
X290253Y314331D01*
X290195Y314253D01*
X290131Y314179D01*
X290121Y314154D01*
X290106Y314134D01*
X290076Y314041D01*
X290039Y313950D01*
X290036Y313918D01*
X290030Y313900D01*
X290030Y313867D01*
X290021Y313784D01*
X290021Y301536D01*
X290037Y301440D01*
X290046Y301343D01*
X290056Y301319D01*
X290060Y301294D01*
X290106Y301207D01*
X290146Y301118D01*
X290163Y301099D01*
X290176Y301076D01*
X290246Y301009D01*
X290312Y300937D01*
X290335Y300925D01*
X290354Y300907D01*
X290442Y300866D01*
X290528Y300819D01*
X290554Y300814D01*
X290577Y300803D01*
X290674Y300792D01*
X290770Y300775D01*
X290796Y300779D01*
X290821Y300776D01*
X290917Y300797D01*
X291013Y300811D01*
X291036Y300823D01*
X291062Y300828D01*
X291146Y300878D01*
X291233Y300923D01*
X291251Y300941D01*
X291273Y300955D01*
X291334Y301025D01*
X294501Y304193D01*
X298504Y305851D01*
X302836Y305851D01*
X306839Y304193D01*
X309903Y301129D01*
X311561Y297126D01*
X311561Y292794D01*
X309903Y288791D01*
X306839Y285727D01*
X302836Y284069D01*
X298504Y284069D01*
X294501Y285727D01*
X291393Y288835D01*
X291388Y288844D01*
X291370Y288862D01*
X291356Y288884D01*
X291281Y288946D01*
X291210Y289013D01*
X291187Y289024D01*
X291167Y289041D01*
X291075Y289076D01*
X290987Y289117D01*
X290961Y289120D01*
X290937Y289129D01*
X290840Y289133D01*
X290743Y289144D01*
X290717Y289138D01*
X290691Y289140D01*
X290598Y289112D01*
X290502Y289092D01*
X290480Y289078D01*
X290455Y289071D01*
X290375Y289016D01*
X290291Y288965D01*
X290274Y288946D01*
X290253Y288931D01*
X290195Y288853D01*
X290131Y288779D01*
X290121Y288754D01*
X290106Y288734D01*
X290076Y288641D01*
X290039Y288550D01*
X290036Y288518D01*
X290030Y288500D01*
X290030Y288467D01*
X290021Y288384D01*
X290021Y276136D01*
X290037Y276040D01*
X290046Y275943D01*
X290056Y275919D01*
X290060Y275894D01*
X290106Y275807D01*
X290146Y275718D01*
X290163Y275699D01*
X290176Y275676D01*
X290246Y275609D01*
X290312Y275537D01*
X290335Y275525D01*
X290354Y275507D01*
X290442Y275466D01*
X290528Y275419D01*
X290554Y275414D01*
X290577Y275403D01*
X290674Y275392D01*
X290770Y275375D01*
X290796Y275379D01*
X290821Y275376D01*
X290917Y275397D01*
X291013Y275411D01*
X291036Y275423D01*
X291062Y275428D01*
X291146Y275478D01*
X291233Y275523D01*
X291251Y275541D01*
X291273Y275555D01*
X291334Y275625D01*
X294501Y278793D01*
X298504Y280451D01*
X302836Y280451D01*
X306839Y278793D01*
X309903Y275729D01*
X311561Y271726D01*
X311561Y267394D01*
X309903Y263391D01*
X306839Y260327D01*
X302836Y258669D01*
X298504Y258669D01*
X294501Y260327D01*
X291393Y263435D01*
X291388Y263444D01*
X291370Y263462D01*
X291356Y263484D01*
X291281Y263546D01*
X291210Y263613D01*
X291187Y263624D01*
X291167Y263641D01*
X291075Y263676D01*
X290987Y263717D01*
X290961Y263720D01*
X290937Y263729D01*
X290840Y263733D01*
X290743Y263744D01*
X290717Y263738D01*
X290691Y263740D01*
X290598Y263712D01*
X290502Y263692D01*
X290480Y263678D01*
X290455Y263671D01*
X290375Y263616D01*
X290291Y263565D01*
X290274Y263546D01*
X290253Y263531D01*
X290195Y263453D01*
X290131Y263379D01*
X290121Y263354D01*
X290106Y263334D01*
X290076Y263241D01*
X290039Y263150D01*
X290036Y263118D01*
X290030Y263100D01*
X290030Y263067D01*
X290021Y262984D01*
X290021Y258098D01*
X290035Y258008D01*
X290043Y257917D01*
X290055Y257887D01*
X290060Y257856D01*
X290103Y257775D01*
X290139Y257691D01*
X290165Y257659D01*
X290176Y257638D01*
X290199Y257616D01*
X290244Y257560D01*
X294078Y253726D01*
X294172Y253659D01*
X294266Y253588D01*
X294272Y253586D01*
X294277Y253583D01*
X294388Y253548D01*
X294500Y253512D01*
X294506Y253512D01*
X294512Y253510D01*
X294629Y253513D01*
X294746Y253514D01*
X294753Y253516D01*
X294758Y253517D01*
X294776Y253523D01*
X294907Y253561D01*
X298504Y255051D01*
X302836Y255051D01*
X306839Y253393D01*
X309903Y250329D01*
X311561Y246326D01*
X311561Y241994D01*
X309903Y237991D01*
X306839Y234927D01*
X302836Y233269D01*
X298504Y233269D01*
X294501Y234927D01*
X291437Y237991D01*
X289779Y241994D01*
X289779Y246326D01*
X290525Y248127D01*
X290552Y248240D01*
X290580Y248354D01*
X290580Y248360D01*
X290581Y248366D01*
X290570Y248483D01*
X290561Y248599D01*
X290559Y248605D01*
X290558Y248611D01*
X290510Y248719D01*
X290465Y248825D01*
X290460Y248831D01*
X290458Y248836D01*
X290445Y248850D01*
X290360Y248956D01*
X284019Y255297D01*
X284019Y319752D01*
X284005Y319842D01*
X283997Y319933D01*
X283985Y319963D01*
X283980Y319994D01*
X283937Y320075D01*
X283901Y320159D01*
X283875Y320191D01*
X283864Y320212D01*
X283841Y320234D01*
X283796Y320290D01*
X276790Y327296D01*
X276716Y327349D01*
X276647Y327409D01*
X276616Y327421D01*
X276590Y327440D01*
X276503Y327467D01*
X276418Y327501D01*
X276378Y327505D01*
X276355Y327512D01*
X276323Y327511D01*
X276252Y327519D01*
X273412Y327519D01*
X273392Y327516D01*
X273373Y327518D01*
X273271Y327496D01*
X273169Y327480D01*
X273152Y327470D01*
X273132Y327466D01*
X273043Y327413D01*
X272952Y327364D01*
X272938Y327350D01*
X272921Y327340D01*
X272854Y327261D01*
X272782Y327186D01*
X272774Y327168D01*
X272761Y327153D01*
X272722Y327057D01*
X272679Y326963D01*
X272677Y326943D01*
X272669Y326925D01*
X272651Y326758D01*
X272651Y322191D01*
X271479Y321019D01*
X251821Y321019D01*
X250649Y322191D01*
X250649Y326488D01*
X250646Y326508D01*
X250648Y326527D01*
X250626Y326629D01*
X250610Y326731D01*
X250600Y326748D01*
X250596Y326768D01*
X250543Y326857D01*
X250494Y326948D01*
X250480Y326962D01*
X250470Y326979D01*
X250391Y327046D01*
X250316Y327118D01*
X250298Y327126D01*
X250283Y327139D01*
X250187Y327178D01*
X250093Y327221D01*
X250073Y327223D01*
X250055Y327231D01*
X249888Y327249D01*
X249785Y327249D01*
X247680Y329354D01*
X247622Y329396D01*
X247570Y329445D01*
X247523Y329467D01*
X247481Y329498D01*
X247412Y329519D01*
X247347Y329549D01*
X247295Y329555D01*
X247245Y329570D01*
X247174Y329568D01*
X247103Y329576D01*
X247052Y329565D01*
X247000Y329564D01*
X246932Y329539D01*
X246862Y329524D01*
X246817Y329497D01*
X246769Y329479D01*
X246713Y329434D01*
X246651Y329398D01*
X246617Y329358D01*
X246577Y329326D01*
X246538Y329265D01*
X246491Y329211D01*
X246472Y329162D01*
X246444Y329119D01*
X246426Y329049D01*
X246399Y328983D01*
X246391Y328911D01*
X246383Y328880D01*
X246385Y328857D01*
X246381Y328816D01*
X246381Y321170D01*
X246395Y321080D01*
X246403Y320989D01*
X246415Y320959D01*
X246420Y320927D01*
X246463Y320847D01*
X246499Y320763D01*
X246525Y320731D01*
X246536Y320710D01*
X246559Y320688D01*
X246604Y320632D01*
X248782Y318454D01*
X250921Y316315D01*
X250921Y315382D01*
X250924Y315362D01*
X250922Y315343D01*
X250944Y315241D01*
X250960Y315139D01*
X250970Y315122D01*
X250974Y315102D01*
X251027Y315013D01*
X251076Y314922D01*
X251090Y314908D01*
X251100Y314891D01*
X251179Y314824D01*
X251254Y314752D01*
X251272Y314744D01*
X251287Y314731D01*
X251383Y314692D01*
X251477Y314649D01*
X251497Y314647D01*
X251515Y314639D01*
X251682Y314621D01*
X271479Y314621D01*
X272651Y313449D01*
X272651Y310184D01*
X272658Y310139D01*
X272656Y310093D01*
X272678Y310018D01*
X272690Y309942D01*
X272712Y309901D01*
X272725Y309857D01*
X272769Y309793D01*
X272806Y309724D01*
X272839Y309693D01*
X272865Y309655D01*
X272928Y309608D01*
X272984Y309555D01*
X273026Y309535D01*
X273062Y309508D01*
X273136Y309484D01*
X273207Y309451D01*
X273253Y309446D01*
X273296Y309432D01*
X273374Y309433D01*
X273451Y309424D01*
X273496Y309434D01*
X273542Y309434D01*
X273674Y309472D01*
X273692Y309476D01*
X273696Y309479D01*
X273703Y309481D01*
X275759Y310333D01*
X277961Y310333D01*
X279994Y309490D01*
X281550Y307934D01*
X282393Y305901D01*
X282393Y303699D01*
X281550Y301666D01*
X279994Y300110D01*
X277961Y299267D01*
X275759Y299267D01*
X273703Y300119D01*
X273659Y300129D01*
X273617Y300149D01*
X273540Y300157D01*
X273464Y300175D01*
X273418Y300171D01*
X273373Y300176D01*
X273296Y300159D01*
X273219Y300152D01*
X273177Y300133D01*
X273132Y300124D01*
X273065Y300084D01*
X272994Y300052D01*
X272960Y300021D01*
X272921Y299997D01*
X272870Y299938D01*
X272813Y299886D01*
X272791Y299845D01*
X272761Y299811D01*
X272732Y299738D01*
X272695Y299670D01*
X272686Y299625D01*
X272669Y299582D01*
X272654Y299446D01*
X272651Y299428D01*
X272652Y299423D01*
X272651Y299416D01*
X272651Y296791D01*
X271479Y295619D01*
X251821Y295619D01*
X250950Y296490D01*
X250892Y296532D01*
X250840Y296582D01*
X250793Y296603D01*
X250751Y296634D01*
X250682Y296655D01*
X250617Y296685D01*
X250565Y296691D01*
X250515Y296706D01*
X250444Y296704D01*
X250373Y296712D01*
X250322Y296701D01*
X250270Y296700D01*
X250202Y296675D01*
X250132Y296660D01*
X250087Y296633D01*
X250039Y296615D01*
X249983Y296571D01*
X249921Y296534D01*
X249887Y296494D01*
X249847Y296462D01*
X249808Y296401D01*
X249761Y296347D01*
X249742Y296299D01*
X249714Y296255D01*
X249696Y296185D01*
X249669Y296119D01*
X249661Y296047D01*
X249653Y296016D01*
X249655Y295993D01*
X249651Y295952D01*
X249651Y288888D01*
X249662Y288817D01*
X249664Y288746D01*
X249682Y288697D01*
X249690Y288645D01*
X249724Y288582D01*
X249749Y288515D01*
X249781Y288474D01*
X249806Y288428D01*
X249858Y288379D01*
X249902Y288323D01*
X249946Y288294D01*
X249984Y288258D01*
X250049Y288228D01*
X250109Y288190D01*
X250160Y288177D01*
X250207Y288155D01*
X250278Y288147D01*
X250348Y288129D01*
X250400Y288134D01*
X250451Y288128D01*
X250522Y288143D01*
X250593Y288149D01*
X250641Y288169D01*
X250692Y288180D01*
X250753Y288217D01*
X250819Y288245D01*
X250875Y288290D01*
X250903Y288306D01*
X250918Y288324D01*
X250950Y288350D01*
X251821Y289221D01*
X271479Y289221D01*
X272651Y288049D01*
X272651Y271391D01*
X271479Y270219D01*
X251682Y270219D01*
X251662Y270216D01*
X251643Y270218D01*
X251541Y270196D01*
X251439Y270180D01*
X251422Y270170D01*
X251402Y270166D01*
X251313Y270113D01*
X251222Y270064D01*
X251208Y270050D01*
X251191Y270040D01*
X251124Y269961D01*
X251052Y269886D01*
X251044Y269868D01*
X251031Y269853D01*
X250992Y269756D01*
X250949Y269663D01*
X250947Y269643D01*
X250939Y269625D01*
X250921Y269458D01*
X250921Y264582D01*
X250924Y264562D01*
X250922Y264543D01*
X250944Y264441D01*
X250960Y264339D01*
X250970Y264322D01*
X250974Y264302D01*
X251027Y264213D01*
X251076Y264122D01*
X251090Y264108D01*
X251100Y264091D01*
X251179Y264024D01*
X251254Y263952D01*
X251272Y263944D01*
X251287Y263931D01*
X251383Y263892D01*
X251477Y263849D01*
X251497Y263847D01*
X251515Y263839D01*
X251682Y263821D01*
X271479Y263821D01*
X272651Y262649D01*
X272651Y259384D01*
X272658Y259339D01*
X272656Y259293D01*
X272678Y259218D01*
X272690Y259142D01*
X272712Y259101D01*
X272725Y259057D01*
X272769Y258993D01*
X272806Y258924D01*
X272839Y258893D01*
X272865Y258855D01*
X272928Y258808D01*
X272984Y258755D01*
X273026Y258735D01*
X273062Y258708D01*
X273136Y258684D01*
X273207Y258651D01*
X273253Y258646D01*
X273296Y258632D01*
X273374Y258633D01*
X273451Y258624D01*
X273496Y258634D01*
X273542Y258634D01*
X273674Y258672D01*
X273692Y258676D01*
X273696Y258679D01*
X273703Y258681D01*
X275759Y259533D01*
X277961Y259533D01*
X279994Y258690D01*
X281550Y257134D01*
X282393Y255101D01*
X282393Y252899D01*
X281550Y250866D01*
X279994Y249310D01*
X277961Y248467D01*
X275759Y248467D01*
X273703Y249319D01*
X273659Y249329D01*
X273617Y249349D01*
X273540Y249357D01*
X273464Y249375D01*
X273418Y249371D01*
X273373Y249376D01*
X273296Y249359D01*
X273219Y249352D01*
X273177Y249333D01*
X273132Y249324D01*
X273065Y249284D01*
X272994Y249252D01*
X272960Y249221D01*
X272921Y249197D01*
X272870Y249138D01*
X272813Y249086D01*
X272791Y249045D01*
X272761Y249011D01*
X272732Y248938D01*
X272695Y248870D01*
X272686Y248825D01*
X272669Y248782D01*
X272654Y248646D01*
X272651Y248628D01*
X272652Y248623D01*
X272651Y248616D01*
X272651Y245991D01*
X271479Y244819D01*
X251682Y244819D01*
X251662Y244816D01*
X251643Y244818D01*
X251541Y244796D01*
X251439Y244780D01*
X251422Y244770D01*
X251402Y244766D01*
X251313Y244713D01*
X251222Y244664D01*
X251208Y244650D01*
X251191Y244640D01*
X251124Y244561D01*
X251052Y244486D01*
X251044Y244468D01*
X251031Y244453D01*
X250992Y244357D01*
X250949Y244263D01*
X250947Y244243D01*
X250939Y244225D01*
X250921Y244058D01*
X250921Y239182D01*
X250924Y239162D01*
X250922Y239143D01*
X250944Y239041D01*
X250960Y238939D01*
X250970Y238922D01*
X250974Y238902D01*
X251027Y238813D01*
X251076Y238722D01*
X251090Y238708D01*
X251100Y238691D01*
X251179Y238624D01*
X251254Y238552D01*
X251272Y238544D01*
X251287Y238531D01*
X251383Y238492D01*
X251477Y238449D01*
X251497Y238447D01*
X251515Y238439D01*
X251682Y238421D01*
X271479Y238421D01*
X272651Y237249D01*
X272651Y233984D01*
X272658Y233939D01*
X272656Y233893D01*
X272678Y233818D01*
X272690Y233742D01*
X272712Y233701D01*
X272725Y233657D01*
X272769Y233593D01*
X272806Y233524D01*
X272839Y233493D01*
X272865Y233455D01*
X272928Y233408D01*
X272984Y233355D01*
X273026Y233335D01*
X273062Y233308D01*
X273136Y233284D01*
X273207Y233251D01*
X273253Y233246D01*
X273296Y233232D01*
X273374Y233233D01*
X273451Y233224D01*
X273496Y233234D01*
X273542Y233234D01*
X273674Y233272D01*
X273692Y233276D01*
X273696Y233279D01*
X273703Y233281D01*
X275759Y234133D01*
X277961Y234133D01*
X279994Y233290D01*
X281550Y231734D01*
X282393Y229701D01*
X282393Y227499D01*
X281550Y225466D01*
X279994Y223910D01*
X277961Y223067D01*
X275759Y223067D01*
X273703Y223919D01*
X273659Y223929D01*
X273617Y223949D01*
X273540Y223957D01*
X273464Y223975D01*
X273418Y223971D01*
X273373Y223976D01*
X273296Y223959D01*
X273219Y223952D01*
X273177Y223933D01*
X273132Y223924D01*
X273065Y223884D01*
X272994Y223852D01*
X272960Y223821D01*
X272921Y223797D01*
X272870Y223738D01*
X272813Y223686D01*
X272791Y223645D01*
X272761Y223611D01*
X272732Y223538D01*
X272695Y223470D01*
X272686Y223425D01*
X272669Y223382D01*
X272654Y223246D01*
X272651Y223228D01*
X272652Y223223D01*
X272651Y223216D01*
X272651Y220591D01*
X271479Y219419D01*
X251821Y219419D01*
X250649Y220591D01*
X250649Y224888D01*
X250646Y224908D01*
X250648Y224927D01*
X250626Y225029D01*
X250610Y225131D01*
X250600Y225148D01*
X250596Y225168D01*
X250543Y225257D01*
X250494Y225348D01*
X250480Y225362D01*
X250470Y225379D01*
X250391Y225446D01*
X250316Y225518D01*
X250298Y225526D01*
X250283Y225539D01*
X250187Y225578D01*
X250093Y225621D01*
X250073Y225623D01*
X250055Y225631D01*
X249888Y225649D01*
X248515Y225649D01*
X244379Y229785D01*
X244379Y249719D01*
X244365Y249809D01*
X244357Y249900D01*
X244345Y249930D01*
X244340Y249962D01*
X244297Y250043D01*
X244261Y250127D01*
X244235Y250159D01*
X244224Y250179D01*
X244201Y250202D01*
X244156Y250258D01*
X239839Y254575D01*
X239839Y273239D01*
X239825Y273329D01*
X239817Y273420D01*
X239805Y273450D01*
X239800Y273482D01*
X239757Y273562D01*
X239721Y273646D01*
X239695Y273678D01*
X239684Y273699D01*
X239661Y273721D01*
X239616Y273777D01*
X236168Y277225D01*
X234029Y279364D01*
X234029Y296758D01*
X234015Y296848D01*
X234007Y296939D01*
X233995Y296969D01*
X233990Y297001D01*
X233947Y297082D01*
X233911Y297166D01*
X233885Y297198D01*
X233874Y297218D01*
X233851Y297241D01*
X233806Y297297D01*
X232898Y298205D01*
X230759Y300344D01*
X230759Y307648D01*
X230745Y307738D01*
X230737Y307829D01*
X230725Y307859D01*
X230720Y307891D01*
X230677Y307972D01*
X230641Y308056D01*
X230615Y308088D01*
X230604Y308108D01*
X230581Y308131D01*
X230536Y308187D01*
X228358Y310365D01*
X226219Y312504D01*
X226219Y334978D01*
X226205Y335068D01*
X226197Y335159D01*
X226185Y335188D01*
X226180Y335220D01*
X226137Y335301D01*
X226101Y335385D01*
X226075Y335417D01*
X226064Y335438D01*
X226041Y335460D01*
X225996Y335516D01*
X221679Y339833D01*
X221679Y374118D01*
X221676Y374138D01*
X221678Y374157D01*
X221656Y374259D01*
X221640Y374361D01*
X221630Y374378D01*
X221626Y374398D01*
X221573Y374487D01*
X221524Y374578D01*
X221510Y374592D01*
X221500Y374609D01*
X221421Y374676D01*
X221346Y374748D01*
X221328Y374756D01*
X221313Y374769D01*
X221217Y374808D01*
X221123Y374851D01*
X221103Y374853D01*
X221085Y374861D01*
X220918Y374879D01*
X213643Y374879D01*
X213643Y380558D01*
X213640Y380578D01*
X213642Y380597D01*
X213620Y380699D01*
X213603Y380801D01*
X213594Y380818D01*
X213590Y380838D01*
X213537Y380927D01*
X213488Y381018D01*
X213474Y381032D01*
X213464Y381049D01*
X213385Y381116D01*
X213310Y381187D01*
X213292Y381196D01*
X213277Y381209D01*
X213181Y381248D01*
X213087Y381291D01*
X213067Y381293D01*
X213049Y381301D01*
X212882Y381319D01*
X212119Y381319D01*
X212119Y382082D01*
X212116Y382102D01*
X212118Y382121D01*
X212096Y382223D01*
X212079Y382325D01*
X212070Y382342D01*
X212066Y382362D01*
X212013Y382451D01*
X211964Y382542D01*
X211950Y382556D01*
X211940Y382573D01*
X211861Y382640D01*
X211786Y382711D01*
X211768Y382720D01*
X211753Y382733D01*
X211657Y382772D01*
X211563Y382815D01*
X211543Y382817D01*
X211525Y382825D01*
X211358Y382843D01*
X200579Y382843D01*
X200579Y385554D01*
X200752Y386201D01*
X201087Y386780D01*
X201560Y387253D01*
X201714Y387342D01*
X201807Y387418D01*
X201898Y387491D01*
X201901Y387495D01*
X201904Y387498D01*
X201968Y387600D01*
X202031Y387698D01*
X202032Y387702D01*
X202035Y387706D01*
X202063Y387823D01*
X202091Y387937D01*
X202091Y387941D01*
X202092Y387945D01*
X202082Y388064D01*
X202072Y388182D01*
X202071Y388186D01*
X202070Y388190D01*
X202022Y388300D01*
X201976Y388408D01*
X201973Y388412D01*
X201972Y388415D01*
X201962Y388426D01*
X201871Y388539D01*
X201119Y389291D01*
X201119Y398749D01*
X202202Y399832D01*
X202214Y399848D01*
X202229Y399860D01*
X202286Y399948D01*
X202346Y400031D01*
X202352Y400050D01*
X202362Y400067D01*
X202388Y400168D01*
X202418Y400267D01*
X202418Y400286D01*
X202423Y400306D01*
X202414Y400409D01*
X202412Y400512D01*
X202405Y400531D01*
X202403Y400551D01*
X202363Y400646D01*
X202327Y400743D01*
X202315Y400759D01*
X202307Y400777D01*
X202202Y400908D01*
X201119Y401991D01*
X201119Y411449D01*
X202202Y412532D01*
X202214Y412548D01*
X202229Y412560D01*
X202284Y412645D01*
X202287Y412648D01*
X202289Y412652D01*
X202346Y412731D01*
X202352Y412750D01*
X202362Y412767D01*
X202386Y412862D01*
X202391Y412871D01*
X202392Y412880D01*
X202418Y412967D01*
X202418Y412986D01*
X202423Y413006D01*
X202416Y413096D01*
X202418Y413116D01*
X202414Y413134D01*
X202412Y413212D01*
X202405Y413231D01*
X202403Y413251D01*
X202373Y413323D01*
X202365Y413356D01*
X202349Y413383D01*
X202327Y413443D01*
X202315Y413459D01*
X202307Y413477D01*
X202252Y413546D01*
X202239Y413567D01*
X202226Y413579D01*
X202202Y413608D01*
X201231Y414580D01*
X201215Y414591D01*
X201202Y414607D01*
X201115Y414663D01*
X201031Y414723D01*
X201012Y414729D01*
X200995Y414740D01*
X200895Y414765D01*
X200796Y414796D01*
X200776Y414795D01*
X200757Y414800D01*
X200654Y414792D01*
X200550Y414789D01*
X200531Y414782D01*
X200511Y414781D01*
X200416Y414740D01*
X200319Y414705D01*
X200304Y414692D01*
X200285Y414685D01*
X200154Y414580D01*
X199984Y414410D01*
X197951Y413567D01*
X195749Y413567D01*
X193716Y414410D01*
X193292Y414833D01*
X193234Y414875D01*
X193182Y414924D01*
X193135Y414946D01*
X193093Y414977D01*
X193024Y414998D01*
X192959Y415028D01*
X192907Y415034D01*
X192857Y415049D01*
X192786Y415047D01*
X192715Y415055D01*
X192664Y415044D01*
X192612Y415043D01*
X192544Y415018D01*
X192474Y415003D01*
X192429Y414976D01*
X192381Y414958D01*
X192325Y414914D01*
X192263Y414877D01*
X192229Y414837D01*
X192189Y414805D01*
X192150Y414744D01*
X192103Y414690D01*
X192084Y414641D01*
X192056Y414598D01*
X192038Y414528D01*
X192011Y414462D01*
X192003Y414390D01*
X191995Y414359D01*
X191997Y414336D01*
X191993Y414295D01*
X191993Y351927D01*
X186929Y346863D01*
X186902Y346826D01*
X186868Y346795D01*
X186831Y346726D01*
X186785Y346663D01*
X186772Y346619D01*
X186750Y346579D01*
X186736Y346502D01*
X186713Y346428D01*
X186714Y346382D01*
X186706Y346337D01*
X186717Y346260D01*
X186719Y346182D01*
X186735Y346139D01*
X186742Y346094D01*
X186777Y346024D01*
X186804Y345951D01*
X186832Y345915D01*
X186853Y345874D01*
X186909Y345820D01*
X186958Y345759D01*
X186996Y345734D01*
X187029Y345702D01*
X187149Y345636D01*
X187164Y345626D01*
X187169Y345625D01*
X187176Y345621D01*
X188554Y345050D01*
X190110Y343494D01*
X190953Y341461D01*
X190953Y339259D01*
X190110Y337226D01*
X188554Y335670D01*
X186521Y334827D01*
X184594Y334827D01*
X184574Y334824D01*
X184555Y334826D01*
X184453Y334804D01*
X184351Y334788D01*
X184334Y334778D01*
X184314Y334774D01*
X184225Y334721D01*
X184134Y334672D01*
X184120Y334658D01*
X184103Y334648D01*
X184036Y334569D01*
X183964Y334494D01*
X183956Y334476D01*
X183943Y334461D01*
X183904Y334365D01*
X183861Y334271D01*
X183859Y334251D01*
X183851Y334233D01*
X183833Y334066D01*
X183833Y195839D01*
X140064Y152070D01*
X140022Y152012D01*
X139973Y151960D01*
X139951Y151913D01*
X139920Y151871D01*
X139899Y151802D01*
X139869Y151737D01*
X139863Y151685D01*
X139848Y151635D01*
X139850Y151564D01*
X139842Y151493D01*
X139853Y151442D01*
X139854Y151390D01*
X139879Y151322D01*
X139894Y151252D01*
X139921Y151207D01*
X139939Y151159D01*
X139984Y151103D01*
X140020Y151041D01*
X140060Y151007D01*
X140093Y150967D01*
X140153Y150928D01*
X140207Y150881D01*
X140256Y150862D01*
X140299Y150834D01*
X140369Y150816D01*
X140436Y150789D01*
X140507Y150781D01*
X140538Y150773D01*
X140561Y150775D01*
X140602Y150771D01*
X164488Y150771D01*
X164603Y150790D01*
X164719Y150807D01*
X164724Y150809D01*
X164731Y150810D01*
X164833Y150865D01*
X164938Y150918D01*
X164943Y150923D01*
X164948Y150926D01*
X165028Y151010D01*
X165110Y151094D01*
X165114Y151100D01*
X165117Y151104D01*
X165125Y151121D01*
X165191Y151241D01*
X165276Y151445D01*
X166376Y152546D01*
X166429Y152620D01*
X166489Y152689D01*
X166501Y152719D01*
X166520Y152745D01*
X166547Y152832D01*
X166581Y152917D01*
X166585Y152958D01*
X166592Y152980D01*
X166591Y153013D01*
X166599Y153084D01*
X166599Y158629D01*
X167771Y159801D01*
X182129Y159801D01*
X183301Y158629D01*
X183301Y136371D01*
X182129Y135199D01*
X167771Y135199D01*
X166599Y136371D01*
X166599Y141556D01*
X166585Y141646D01*
X166577Y141737D01*
X166565Y141767D01*
X166560Y141799D01*
X166517Y141880D01*
X166481Y141963D01*
X166455Y141996D01*
X166444Y142016D01*
X166421Y142038D01*
X166376Y142094D01*
X165276Y143195D01*
X165042Y143759D01*
X164981Y143859D01*
X164921Y143959D01*
X164916Y143963D01*
X164912Y143968D01*
X164823Y144043D01*
X164734Y144119D01*
X164728Y144121D01*
X164723Y144125D01*
X164615Y144167D01*
X164506Y144211D01*
X164498Y144212D01*
X164493Y144213D01*
X164475Y144214D01*
X164339Y144229D01*
X138959Y144229D01*
X138869Y144215D01*
X138778Y144207D01*
X138748Y144195D01*
X138716Y144190D01*
X138635Y144147D01*
X138552Y144111D01*
X138519Y144085D01*
X138499Y144074D01*
X138477Y144051D01*
X138421Y144006D01*
X135012Y140597D01*
X129301Y140597D01*
X129256Y140590D01*
X129210Y140592D01*
X129135Y140570D01*
X129058Y140558D01*
X129017Y140536D01*
X128973Y140523D01*
X128909Y140479D01*
X128841Y140442D01*
X128809Y140409D01*
X128771Y140383D01*
X128725Y140320D01*
X128671Y140264D01*
X128652Y140222D01*
X128625Y140186D01*
X128600Y140112D01*
X128568Y140041D01*
X128563Y139995D01*
X128548Y139952D01*
X128549Y139874D01*
X128541Y139797D01*
X128550Y139752D01*
X128551Y139706D01*
X128589Y139574D01*
X128593Y139556D01*
X128595Y139552D01*
X128597Y139545D01*
X128899Y138817D01*
X128899Y134283D01*
X127105Y129953D01*
X127096Y129913D01*
X127074Y129865D01*
X127068Y129816D01*
X127053Y129769D01*
X127054Y129734D01*
X127049Y129714D01*
X127053Y129677D01*
X127047Y129621D01*
X127057Y129573D01*
X127058Y129524D01*
X127071Y129488D01*
X127072Y129469D01*
X127086Y129437D01*
X127099Y129380D01*
X127124Y129338D01*
X127140Y129292D01*
X127165Y129261D01*
X127172Y129244D01*
X127194Y129220D01*
X127225Y129169D01*
X127262Y129137D01*
X127293Y129099D01*
X127326Y129077D01*
X127339Y129063D01*
X127367Y129047D01*
X127412Y129009D01*
X127457Y128991D01*
X127498Y128964D01*
X127537Y128954D01*
X127554Y128944D01*
X127587Y128939D01*
X127640Y128917D01*
X127706Y128910D01*
X127736Y128902D01*
X127762Y128904D01*
X127807Y128899D01*
X132467Y128899D01*
X136657Y127163D01*
X139863Y123957D01*
X140988Y121241D01*
X141050Y121141D01*
X141110Y121041D01*
X141115Y121037D01*
X141118Y121032D01*
X141208Y120957D01*
X141297Y120881D01*
X141303Y120879D01*
X141308Y120875D01*
X141416Y120833D01*
X141525Y120789D01*
X141533Y120788D01*
X141537Y120787D01*
X141555Y120786D01*
X141692Y120771D01*
X148855Y120771D01*
X155771Y113855D01*
X155771Y92762D01*
X155774Y92742D01*
X155772Y92723D01*
X155794Y92621D01*
X155810Y92519D01*
X155820Y92502D01*
X155824Y92482D01*
X155877Y92393D01*
X155926Y92302D01*
X155940Y92288D01*
X155950Y92271D01*
X156029Y92204D01*
X156104Y92132D01*
X156122Y92124D01*
X156137Y92111D01*
X156233Y92072D01*
X156327Y92029D01*
X156347Y92027D01*
X156365Y92019D01*
X156532Y92001D01*
X168329Y92001D01*
X169501Y90829D01*
X169501Y86751D01*
X169515Y86661D01*
X169523Y86570D01*
X169535Y86540D01*
X169540Y86508D01*
X169583Y86427D01*
X169619Y86343D01*
X169645Y86311D01*
X169656Y86291D01*
X169679Y86268D01*
X169724Y86212D01*
X170554Y85382D01*
X172001Y81890D01*
X172001Y78110D01*
X170554Y74618D01*
X169724Y73788D01*
X169671Y73714D01*
X169611Y73644D01*
X169599Y73614D01*
X169580Y73588D01*
X169553Y73501D01*
X169519Y73416D01*
X169515Y73375D01*
X169508Y73353D01*
X169509Y73321D01*
X169501Y73249D01*
X169501Y69171D01*
X168329Y67999D01*
X134671Y67999D01*
X133499Y69171D01*
X133499Y90829D01*
X134671Y92001D01*
X148468Y92001D01*
X148488Y92004D01*
X148507Y92002D01*
X148609Y92024D01*
X148711Y92040D01*
X148728Y92050D01*
X148748Y92054D01*
X148837Y92107D01*
X148928Y92156D01*
X148942Y92170D01*
X148959Y92180D01*
X149026Y92259D01*
X149098Y92334D01*
X149106Y92352D01*
X149119Y92367D01*
X149158Y92463D01*
X149201Y92557D01*
X149203Y92577D01*
X149211Y92595D01*
X149229Y92762D01*
X149229Y110830D01*
X149215Y110920D01*
X149207Y111011D01*
X149195Y111041D01*
X149190Y111073D01*
X149147Y111153D01*
X149111Y111237D01*
X149085Y111269D01*
X149074Y111290D01*
X149051Y111312D01*
X149006Y111368D01*
X146368Y114006D01*
X146294Y114059D01*
X146225Y114119D01*
X146195Y114131D01*
X146168Y114150D01*
X146081Y114177D01*
X145997Y114211D01*
X145956Y114215D01*
X145933Y114222D01*
X145901Y114221D01*
X145830Y114229D01*
X141692Y114229D01*
X141577Y114210D01*
X141461Y114193D01*
X141455Y114191D01*
X141449Y114190D01*
X141346Y114135D01*
X141242Y114082D01*
X141237Y114077D01*
X141232Y114074D01*
X141152Y113990D01*
X141069Y113906D01*
X141066Y113900D01*
X141062Y113896D01*
X141054Y113879D01*
X140988Y113759D01*
X139863Y111043D01*
X136657Y107837D01*
X132467Y106101D01*
X127933Y106101D01*
X123743Y107837D01*
X120537Y111043D01*
X118801Y115233D01*
X118801Y119767D01*
X120595Y124097D01*
X120604Y124137D01*
X120626Y124185D01*
X120632Y124234D01*
X120647Y124281D01*
X120646Y124316D01*
X120651Y124336D01*
X120647Y124373D01*
X120653Y124429D01*
X120643Y124477D01*
X120642Y124526D01*
X120629Y124562D01*
X120628Y124581D01*
X120614Y124613D01*
X120601Y124670D01*
X120576Y124712D01*
X120560Y124758D01*
X120535Y124789D01*
X120528Y124806D01*
X120506Y124830D01*
X120475Y124881D01*
X120438Y124913D01*
X120407Y124951D01*
X120374Y124973D01*
X120361Y124987D01*
X120333Y125003D01*
X120288Y125041D01*
X120243Y125059D01*
X120202Y125086D01*
X120163Y125096D01*
X120146Y125106D01*
X120113Y125111D01*
X120060Y125133D01*
X119994Y125140D01*
X119964Y125148D01*
X119938Y125146D01*
X119893Y125151D01*
X115492Y125151D01*
X115480Y125149D01*
X115468Y125151D01*
X115359Y125130D01*
X115249Y125112D01*
X115239Y125106D01*
X115227Y125104D01*
X115130Y125048D01*
X115032Y124996D01*
X115024Y124988D01*
X115013Y124982D01*
X114939Y124899D01*
X114863Y124818D01*
X114858Y124807D01*
X114850Y124798D01*
X114806Y124696D01*
X114759Y124595D01*
X114758Y124583D01*
X114753Y124572D01*
X114744Y124461D01*
X114732Y124351D01*
X114734Y124339D01*
X114734Y124327D01*
X114761Y124219D01*
X114784Y124110D01*
X114790Y124100D01*
X114793Y124088D01*
X114876Y123942D01*
X115011Y123757D01*
X115864Y122083D01*
X116445Y120296D01*
X116646Y119023D01*
X106323Y119023D01*
X106323Y129346D01*
X106931Y129250D01*
X107036Y129251D01*
X107142Y129246D01*
X107159Y129251D01*
X107177Y129251D01*
X107277Y129285D01*
X107378Y129315D01*
X107393Y129325D01*
X107410Y129331D01*
X107493Y129395D01*
X107580Y129455D01*
X107591Y129470D01*
X107605Y129481D01*
X107664Y129568D01*
X107727Y129652D01*
X107732Y129670D01*
X107743Y129685D01*
X107770Y129786D01*
X107803Y129886D01*
X107803Y129904D01*
X107808Y129922D01*
X107802Y130027D01*
X107801Y130132D01*
X107794Y130153D01*
X107794Y130167D01*
X107782Y130197D01*
X107754Y130293D01*
X106101Y134283D01*
X106101Y138817D01*
X107837Y143007D01*
X111083Y146253D01*
X111114Y146270D01*
X111132Y146288D01*
X111154Y146302D01*
X111216Y146377D01*
X111283Y146448D01*
X111294Y146471D01*
X111311Y146491D01*
X111346Y146583D01*
X111387Y146671D01*
X111390Y146697D01*
X111399Y146721D01*
X111403Y146819D01*
X111414Y146915D01*
X111408Y146941D01*
X111410Y146967D01*
X111382Y147061D01*
X111362Y147156D01*
X111348Y147178D01*
X111341Y147203D01*
X111286Y147283D01*
X111235Y147367D01*
X111216Y147384D01*
X111201Y147405D01*
X111123Y147463D01*
X111049Y147527D01*
X111024Y147537D01*
X111004Y147552D01*
X110911Y147582D01*
X110820Y147619D01*
X110788Y147622D01*
X110770Y147628D01*
X110737Y147628D01*
X110654Y147637D01*
X106858Y147637D01*
X106768Y147623D01*
X106677Y147615D01*
X106647Y147603D01*
X106615Y147598D01*
X106535Y147555D01*
X106451Y147519D01*
X106419Y147493D01*
X106398Y147482D01*
X106376Y147459D01*
X106320Y147414D01*
X83076Y124170D01*
X83023Y124096D01*
X82963Y124027D01*
X82951Y123997D01*
X82932Y123970D01*
X82905Y123883D01*
X82871Y123799D01*
X82867Y123758D01*
X82860Y123735D01*
X82861Y123703D01*
X82853Y123632D01*
X82853Y76048D01*
X82872Y75933D01*
X82889Y75817D01*
X82891Y75811D01*
X82892Y75805D01*
X82947Y75702D01*
X83000Y75598D01*
X83005Y75593D01*
X83008Y75588D01*
X83092Y75508D01*
X83176Y75425D01*
X83182Y75422D01*
X83186Y75418D01*
X83203Y75410D01*
X83323Y75344D01*
X86039Y74219D01*
X89245Y71013D01*
X90981Y66823D01*
X90981Y62289D01*
X89245Y58099D01*
X86039Y54893D01*
X81849Y53157D01*
X77315Y53157D01*
G37*
%LPD*%
%LPC*%
G36*
X54779Y240847D02*
X54779Y240847D01*
X53751Y241273D01*
X53687Y241288D01*
X53626Y241313D01*
X53543Y241322D01*
X53511Y241329D01*
X53492Y241328D01*
X53460Y241331D01*
X41089Y241331D01*
X33372Y249048D01*
X33298Y249101D01*
X33228Y249161D01*
X33198Y249173D01*
X33172Y249192D01*
X33085Y249219D01*
X33000Y249253D01*
X32959Y249257D01*
X32937Y249264D01*
X32905Y249263D01*
X32833Y249271D01*
X29572Y249271D01*
X29552Y249268D01*
X29533Y249270D01*
X29431Y249248D01*
X29329Y249232D01*
X29312Y249222D01*
X29292Y249218D01*
X29203Y249165D01*
X29112Y249116D01*
X29098Y249102D01*
X29081Y249092D01*
X29014Y249013D01*
X28942Y248938D01*
X28934Y248920D01*
X28921Y248905D01*
X28882Y248809D01*
X28839Y248715D01*
X28837Y248695D01*
X28829Y248677D01*
X28811Y248510D01*
X28811Y245991D01*
X27639Y244819D01*
X7981Y244819D01*
X6809Y245991D01*
X6809Y262649D01*
X7981Y263821D01*
X27639Y263821D01*
X28660Y262799D01*
X28718Y262757D01*
X28770Y262708D01*
X28818Y262686D01*
X28860Y262656D01*
X28928Y262635D01*
X28993Y262604D01*
X29045Y262599D01*
X29095Y262583D01*
X29167Y262585D01*
X29238Y262577D01*
X29289Y262588D01*
X29341Y262590D01*
X29408Y262614D01*
X29478Y262630D01*
X29523Y262656D01*
X29572Y262674D01*
X29628Y262719D01*
X29689Y262756D01*
X29723Y262795D01*
X29764Y262828D01*
X29803Y262888D01*
X29849Y262943D01*
X29869Y262991D01*
X29897Y263035D01*
X29914Y263104D01*
X29941Y263171D01*
X29949Y263242D01*
X29957Y263273D01*
X29955Y263297D01*
X29960Y263338D01*
X29960Y270702D01*
X29948Y270773D01*
X29946Y270845D01*
X29928Y270894D01*
X29920Y270945D01*
X29886Y271009D01*
X29862Y271076D01*
X29829Y271117D01*
X29805Y271163D01*
X29753Y271212D01*
X29708Y271268D01*
X29664Y271296D01*
X29627Y271332D01*
X29562Y271362D01*
X29501Y271401D01*
X29451Y271414D01*
X29403Y271436D01*
X29332Y271443D01*
X29263Y271461D01*
X29211Y271457D01*
X29159Y271463D01*
X29089Y271447D01*
X29017Y271442D01*
X28970Y271422D01*
X28919Y271410D01*
X28857Y271374D01*
X28791Y271346D01*
X28735Y271301D01*
X28708Y271284D01*
X28692Y271266D01*
X28660Y271241D01*
X27639Y270219D01*
X7981Y270219D01*
X6809Y271391D01*
X6809Y288049D01*
X7981Y289221D01*
X18006Y289221D01*
X18077Y289232D01*
X18148Y289234D01*
X18197Y289252D01*
X18249Y289260D01*
X18312Y289294D01*
X18379Y289319D01*
X18420Y289351D01*
X18466Y289376D01*
X18515Y289428D01*
X18571Y289472D01*
X18600Y289516D01*
X18635Y289554D01*
X18666Y289619D01*
X18704Y289679D01*
X18717Y289730D01*
X18739Y289777D01*
X18747Y289848D01*
X18764Y289918D01*
X18760Y289970D01*
X18766Y290021D01*
X18751Y290092D01*
X18745Y290163D01*
X18725Y290211D01*
X18714Y290262D01*
X18677Y290323D01*
X18649Y290389D01*
X18604Y290445D01*
X18588Y290473D01*
X18570Y290488D01*
X18544Y290520D01*
X14539Y294525D01*
X14539Y294858D01*
X14536Y294878D01*
X14538Y294897D01*
X14516Y294999D01*
X14500Y295101D01*
X14490Y295118D01*
X14486Y295138D01*
X14433Y295227D01*
X14384Y295318D01*
X14370Y295332D01*
X14360Y295349D01*
X14281Y295416D01*
X14206Y295488D01*
X14188Y295496D01*
X14173Y295509D01*
X14077Y295548D01*
X13983Y295591D01*
X13963Y295593D01*
X13945Y295601D01*
X13778Y295619D01*
X7981Y295619D01*
X6809Y296791D01*
X6809Y313449D01*
X7981Y314621D01*
X18006Y314621D01*
X18077Y314632D01*
X18148Y314634D01*
X18197Y314652D01*
X18249Y314660D01*
X18312Y314694D01*
X18379Y314719D01*
X18420Y314751D01*
X18466Y314776D01*
X18515Y314828D01*
X18571Y314872D01*
X18600Y314916D01*
X18635Y314954D01*
X18666Y315019D01*
X18704Y315079D01*
X18717Y315130D01*
X18739Y315177D01*
X18747Y315248D01*
X18764Y315318D01*
X18760Y315370D01*
X18766Y315421D01*
X18751Y315492D01*
X18745Y315563D01*
X18725Y315611D01*
X18714Y315662D01*
X18677Y315723D01*
X18649Y315789D01*
X18604Y315845D01*
X18588Y315873D01*
X18570Y315888D01*
X18544Y315920D01*
X16826Y317638D01*
X14539Y319925D01*
X14539Y320258D01*
X14536Y320278D01*
X14538Y320297D01*
X14516Y320399D01*
X14500Y320501D01*
X14490Y320518D01*
X14486Y320538D01*
X14433Y320627D01*
X14384Y320718D01*
X14370Y320732D01*
X14360Y320749D01*
X14281Y320816D01*
X14206Y320888D01*
X14188Y320896D01*
X14173Y320909D01*
X14077Y320948D01*
X13983Y320991D01*
X13963Y320993D01*
X13945Y321001D01*
X13778Y321019D01*
X7981Y321019D01*
X6809Y322191D01*
X6809Y338849D01*
X7981Y340021D01*
X27639Y340021D01*
X28450Y339210D01*
X28508Y339168D01*
X28560Y339118D01*
X28607Y339097D01*
X28649Y339066D01*
X28718Y339045D01*
X28783Y339015D01*
X28835Y339009D01*
X28885Y338994D01*
X28956Y338996D01*
X29027Y338988D01*
X29078Y338999D01*
X29130Y339000D01*
X29198Y339025D01*
X29268Y339040D01*
X29313Y339067D01*
X29361Y339085D01*
X29417Y339129D01*
X29479Y339166D01*
X29513Y339206D01*
X29553Y339238D01*
X29592Y339299D01*
X29639Y339353D01*
X29658Y339401D01*
X29686Y339445D01*
X29704Y339515D01*
X29731Y339581D01*
X29739Y339653D01*
X29747Y339684D01*
X29745Y339707D01*
X29749Y339748D01*
X29749Y345928D01*
X29738Y345999D01*
X29736Y346071D01*
X29718Y346120D01*
X29710Y346171D01*
X29676Y346234D01*
X29651Y346302D01*
X29619Y346342D01*
X29594Y346388D01*
X29542Y346438D01*
X29498Y346494D01*
X29454Y346522D01*
X29416Y346558D01*
X29351Y346588D01*
X29291Y346627D01*
X29240Y346640D01*
X29193Y346661D01*
X29122Y346669D01*
X29052Y346687D01*
X29000Y346683D01*
X28949Y346689D01*
X28878Y346673D01*
X28807Y346668D01*
X28759Y346647D01*
X28708Y346636D01*
X28647Y346599D01*
X28581Y346571D01*
X28525Y346527D01*
X28497Y346510D01*
X28482Y346492D01*
X28450Y346467D01*
X28370Y346387D01*
X27791Y346052D01*
X27144Y345879D01*
X19333Y345879D01*
X19333Y355158D01*
X19330Y355178D01*
X19332Y355197D01*
X19310Y355299D01*
X19293Y355401D01*
X19284Y355418D01*
X19280Y355438D01*
X19227Y355527D01*
X19178Y355618D01*
X19164Y355632D01*
X19154Y355649D01*
X19075Y355716D01*
X19000Y355787D01*
X18982Y355796D01*
X18967Y355809D01*
X18871Y355848D01*
X18777Y355891D01*
X18757Y355893D01*
X18739Y355901D01*
X18572Y355919D01*
X17809Y355919D01*
X17809Y355921D01*
X18572Y355921D01*
X18592Y355924D01*
X18611Y355922D01*
X18713Y355944D01*
X18815Y355961D01*
X18832Y355970D01*
X18852Y355974D01*
X18941Y356027D01*
X19032Y356076D01*
X19046Y356090D01*
X19063Y356100D01*
X19130Y356179D01*
X19201Y356254D01*
X19210Y356272D01*
X19223Y356287D01*
X19262Y356383D01*
X19305Y356477D01*
X19307Y356497D01*
X19315Y356515D01*
X19333Y356682D01*
X19333Y365961D01*
X27144Y365961D01*
X27791Y365788D01*
X28370Y365453D01*
X28450Y365373D01*
X28508Y365332D01*
X28560Y365282D01*
X28607Y365260D01*
X28649Y365230D01*
X28718Y365209D01*
X28783Y365179D01*
X28835Y365173D01*
X28884Y365157D01*
X28956Y365159D01*
X29027Y365151D01*
X29078Y365163D01*
X29130Y365164D01*
X29198Y365188D01*
X29268Y365204D01*
X29313Y365230D01*
X29361Y365248D01*
X29417Y365293D01*
X29479Y365330D01*
X29513Y365369D01*
X29553Y365402D01*
X29592Y365462D01*
X29639Y365517D01*
X29658Y365565D01*
X29686Y365609D01*
X29704Y365678D01*
X29731Y365745D01*
X29739Y365816D01*
X29747Y365847D01*
X29745Y365871D01*
X29749Y365912D01*
X29749Y371328D01*
X29738Y371399D01*
X29736Y371471D01*
X29718Y371520D01*
X29710Y371571D01*
X29676Y371634D01*
X29651Y371702D01*
X29619Y371742D01*
X29594Y371788D01*
X29542Y371838D01*
X29498Y371894D01*
X29454Y371922D01*
X29416Y371958D01*
X29351Y371988D01*
X29291Y372027D01*
X29240Y372040D01*
X29193Y372061D01*
X29122Y372069D01*
X29052Y372087D01*
X29000Y372083D01*
X28949Y372089D01*
X28878Y372073D01*
X28807Y372068D01*
X28759Y372047D01*
X28708Y372036D01*
X28647Y371999D01*
X28581Y371971D01*
X28525Y371927D01*
X28497Y371910D01*
X28482Y371892D01*
X28450Y371867D01*
X28370Y371787D01*
X27791Y371452D01*
X27144Y371279D01*
X19333Y371279D01*
X19333Y380558D01*
X19330Y380578D01*
X19332Y380597D01*
X19310Y380699D01*
X19293Y380801D01*
X19284Y380818D01*
X19280Y380838D01*
X19227Y380927D01*
X19178Y381018D01*
X19164Y381032D01*
X19154Y381049D01*
X19075Y381116D01*
X19000Y381187D01*
X18982Y381196D01*
X18967Y381209D01*
X18871Y381248D01*
X18777Y381291D01*
X18757Y381293D01*
X18739Y381301D01*
X18572Y381319D01*
X17809Y381319D01*
X17809Y381321D01*
X18572Y381321D01*
X18592Y381324D01*
X18611Y381322D01*
X18713Y381344D01*
X18815Y381361D01*
X18832Y381370D01*
X18852Y381374D01*
X18941Y381427D01*
X19032Y381476D01*
X19046Y381490D01*
X19063Y381500D01*
X19130Y381579D01*
X19201Y381654D01*
X19210Y381672D01*
X19223Y381687D01*
X19262Y381783D01*
X19305Y381877D01*
X19307Y381897D01*
X19315Y381915D01*
X19333Y382082D01*
X19333Y391361D01*
X27144Y391361D01*
X27791Y391188D01*
X28370Y390853D01*
X28450Y390773D01*
X28508Y390732D01*
X28560Y390682D01*
X28607Y390660D01*
X28649Y390630D01*
X28718Y390609D01*
X28783Y390579D01*
X28835Y390573D01*
X28884Y390557D01*
X28956Y390559D01*
X29027Y390551D01*
X29078Y390563D01*
X29130Y390564D01*
X29198Y390588D01*
X29268Y390604D01*
X29313Y390630D01*
X29361Y390648D01*
X29417Y390693D01*
X29479Y390730D01*
X29513Y390769D01*
X29553Y390802D01*
X29592Y390862D01*
X29639Y390917D01*
X29658Y390965D01*
X29686Y391009D01*
X29704Y391078D01*
X29731Y391145D01*
X29739Y391216D01*
X29747Y391247D01*
X29745Y391271D01*
X29749Y391312D01*
X29749Y425535D01*
X52305Y448091D01*
X58118Y448091D01*
X58138Y448094D01*
X58157Y448092D01*
X58259Y448114D01*
X58361Y448130D01*
X58378Y448140D01*
X58398Y448144D01*
X58487Y448197D01*
X58578Y448246D01*
X58592Y448260D01*
X58609Y448270D01*
X58676Y448349D01*
X58748Y448424D01*
X58756Y448442D01*
X58769Y448457D01*
X58808Y448553D01*
X58851Y448647D01*
X58853Y448667D01*
X58861Y448685D01*
X58879Y448852D01*
X58879Y449549D01*
X59631Y450301D01*
X59700Y450396D01*
X59771Y450493D01*
X59772Y450497D01*
X59775Y450500D01*
X59809Y450612D01*
X59846Y450727D01*
X59846Y450732D01*
X59847Y450735D01*
X59844Y450854D01*
X59842Y450973D01*
X59841Y450977D01*
X59841Y450981D01*
X59800Y451094D01*
X59760Y451205D01*
X59758Y451208D01*
X59756Y451212D01*
X59681Y451306D01*
X59609Y451399D01*
X59605Y451402D01*
X59603Y451404D01*
X59591Y451412D01*
X59474Y451498D01*
X59320Y451587D01*
X58847Y452060D01*
X58512Y452639D01*
X58339Y453286D01*
X58339Y455997D01*
X69118Y455997D01*
X69138Y456000D01*
X69157Y455998D01*
X69259Y456020D01*
X69361Y456037D01*
X69378Y456046D01*
X69398Y456050D01*
X69487Y456103D01*
X69578Y456152D01*
X69592Y456166D01*
X69609Y456176D01*
X69676Y456255D01*
X69747Y456330D01*
X69756Y456348D01*
X69769Y456363D01*
X69808Y456459D01*
X69851Y456553D01*
X69853Y456573D01*
X69861Y456591D01*
X69879Y456758D01*
X69879Y457521D01*
X69881Y457521D01*
X69881Y456758D01*
X69884Y456738D01*
X69882Y456719D01*
X69904Y456617D01*
X69921Y456515D01*
X69930Y456498D01*
X69934Y456478D01*
X69987Y456389D01*
X70036Y456298D01*
X70050Y456284D01*
X70060Y456267D01*
X70139Y456200D01*
X70214Y456129D01*
X70232Y456120D01*
X70247Y456107D01*
X70343Y456068D01*
X70437Y456025D01*
X70457Y456023D01*
X70475Y456015D01*
X70642Y455997D01*
X81421Y455997D01*
X81421Y453286D01*
X81248Y452639D01*
X80913Y452060D01*
X80440Y451587D01*
X80286Y451498D01*
X80193Y451422D01*
X80102Y451349D01*
X80099Y451345D01*
X80096Y451342D01*
X80032Y451240D01*
X79969Y451142D01*
X79968Y451138D01*
X79965Y451134D01*
X79937Y451017D01*
X79909Y450903D01*
X79909Y450899D01*
X79908Y450895D01*
X79918Y450776D01*
X79928Y450658D01*
X79929Y450654D01*
X79930Y450650D01*
X79978Y450540D01*
X80024Y450432D01*
X80027Y450428D01*
X80028Y450425D01*
X80038Y450414D01*
X80129Y450301D01*
X80881Y449549D01*
X80881Y440091D01*
X79798Y439008D01*
X79786Y438992D01*
X79771Y438980D01*
X79714Y438892D01*
X79654Y438809D01*
X79648Y438790D01*
X79638Y438773D01*
X79612Y438672D01*
X79582Y438573D01*
X79582Y438554D01*
X79577Y438534D01*
X79586Y438431D01*
X79588Y438328D01*
X79595Y438309D01*
X79597Y438289D01*
X79637Y438194D01*
X79673Y438097D01*
X79685Y438081D01*
X79693Y438063D01*
X79798Y437932D01*
X80881Y436849D01*
X80881Y427391D01*
X79798Y426308D01*
X79786Y426292D01*
X79771Y426280D01*
X79714Y426192D01*
X79654Y426109D01*
X79648Y426090D01*
X79638Y426073D01*
X79612Y425972D01*
X79582Y425873D01*
X79582Y425854D01*
X79577Y425834D01*
X79586Y425731D01*
X79588Y425628D01*
X79595Y425609D01*
X79597Y425589D01*
X79637Y425494D01*
X79673Y425397D01*
X79685Y425381D01*
X79693Y425363D01*
X79798Y425232D01*
X80881Y424149D01*
X80881Y414691D01*
X79798Y413608D01*
X79786Y413592D01*
X79771Y413580D01*
X79742Y413535D01*
X79713Y413505D01*
X79694Y413464D01*
X79654Y413409D01*
X79648Y413390D01*
X79638Y413373D01*
X79621Y413306D01*
X79609Y413281D01*
X79606Y413252D01*
X79582Y413173D01*
X79582Y413154D01*
X79577Y413134D01*
X79584Y413052D01*
X79582Y413037D01*
X79586Y413021D01*
X79588Y412928D01*
X79595Y412909D01*
X79597Y412889D01*
X79633Y412804D01*
X79634Y412797D01*
X79639Y412790D01*
X79673Y412697D01*
X79685Y412681D01*
X79693Y412663D01*
X79798Y412532D01*
X80881Y411449D01*
X80881Y401991D01*
X80129Y401239D01*
X80060Y401144D01*
X79989Y401047D01*
X79988Y401043D01*
X79985Y401040D01*
X79951Y400928D01*
X79914Y400813D01*
X79914Y400808D01*
X79913Y400805D01*
X79916Y400685D01*
X79918Y400567D01*
X79919Y400563D01*
X79919Y400559D01*
X79960Y400446D01*
X80000Y400335D01*
X80002Y400332D01*
X80004Y400328D01*
X80079Y400234D01*
X80151Y400141D01*
X80155Y400138D01*
X80157Y400136D01*
X80169Y400128D01*
X80286Y400042D01*
X80440Y399953D01*
X80913Y399480D01*
X81248Y398901D01*
X81421Y398255D01*
X81421Y395543D01*
X70642Y395543D01*
X70622Y395540D01*
X70603Y395542D01*
X70501Y395520D01*
X70399Y395503D01*
X70382Y395494D01*
X70362Y395490D01*
X70273Y395437D01*
X70182Y395388D01*
X70168Y395374D01*
X70151Y395364D01*
X70084Y395285D01*
X70013Y395210D01*
X70004Y395192D01*
X69991Y395177D01*
X69952Y395081D01*
X69909Y394987D01*
X69907Y394967D01*
X69899Y394949D01*
X69881Y394782D01*
X69881Y394019D01*
X69879Y394019D01*
X69879Y394782D01*
X69876Y394802D01*
X69878Y394821D01*
X69856Y394923D01*
X69839Y395025D01*
X69830Y395042D01*
X69826Y395062D01*
X69773Y395151D01*
X69724Y395242D01*
X69710Y395256D01*
X69700Y395273D01*
X69621Y395340D01*
X69546Y395411D01*
X69528Y395420D01*
X69513Y395433D01*
X69417Y395472D01*
X69323Y395515D01*
X69303Y395517D01*
X69285Y395525D01*
X69118Y395543D01*
X58339Y395543D01*
X58339Y398254D01*
X58512Y398901D01*
X58847Y399480D01*
X59320Y399953D01*
X59474Y400042D01*
X59565Y400117D01*
X59658Y400191D01*
X59661Y400195D01*
X59664Y400198D01*
X59727Y400299D01*
X59791Y400398D01*
X59792Y400402D01*
X59795Y400406D01*
X59823Y400522D01*
X59851Y400637D01*
X59851Y400641D01*
X59852Y400645D01*
X59842Y400764D01*
X59832Y400882D01*
X59831Y400886D01*
X59830Y400890D01*
X59782Y401000D01*
X59736Y401108D01*
X59733Y401112D01*
X59732Y401115D01*
X59722Y401126D01*
X59631Y401239D01*
X59422Y401448D01*
X59348Y401501D01*
X59279Y401561D01*
X59249Y401573D01*
X59223Y401592D01*
X59136Y401619D01*
X59051Y401653D01*
X59010Y401657D01*
X58987Y401664D01*
X58955Y401663D01*
X58884Y401671D01*
X56067Y401671D01*
X55976Y401657D01*
X55886Y401649D01*
X55856Y401637D01*
X55824Y401632D01*
X55743Y401589D01*
X55659Y401553D01*
X55627Y401527D01*
X55606Y401516D01*
X55594Y401504D01*
X55593Y401503D01*
X55581Y401491D01*
X55528Y401448D01*
X53690Y399610D01*
X53637Y399536D01*
X53577Y399466D01*
X53565Y399436D01*
X53546Y399410D01*
X53519Y399323D01*
X53485Y399238D01*
X53481Y399197D01*
X53474Y399175D01*
X53475Y399143D01*
X53467Y399071D01*
X53467Y287582D01*
X40280Y274395D01*
X40227Y274321D01*
X40168Y274252D01*
X40155Y274222D01*
X40137Y274195D01*
X40110Y274108D01*
X40076Y274024D01*
X40071Y273983D01*
X40064Y273960D01*
X40065Y273928D01*
X40057Y273857D01*
X40057Y256958D01*
X40072Y256868D01*
X40079Y256777D01*
X40092Y256747D01*
X40097Y256715D01*
X40140Y256635D01*
X40175Y256551D01*
X40201Y256519D01*
X40212Y256498D01*
X40235Y256476D01*
X40280Y256420D01*
X45048Y251652D01*
X45122Y251599D01*
X45192Y251539D01*
X45222Y251527D01*
X45248Y251508D01*
X45335Y251481D01*
X45420Y251447D01*
X45461Y251443D01*
X45483Y251436D01*
X45515Y251437D01*
X45587Y251429D01*
X53460Y251429D01*
X53524Y251439D01*
X53590Y251440D01*
X53670Y251463D01*
X53702Y251468D01*
X53719Y251478D01*
X53751Y251487D01*
X54779Y251913D01*
X56981Y251913D01*
X58009Y251487D01*
X58073Y251472D01*
X58134Y251447D01*
X58217Y251438D01*
X58249Y251431D01*
X58268Y251432D01*
X58300Y251429D01*
X61080Y251429D01*
X61144Y251439D01*
X61210Y251440D01*
X61290Y251463D01*
X61322Y251468D01*
X61339Y251478D01*
X61371Y251487D01*
X62399Y251913D01*
X64601Y251913D01*
X66634Y251070D01*
X68190Y249514D01*
X69033Y247481D01*
X69033Y245279D01*
X68190Y243246D01*
X66634Y241690D01*
X64601Y240847D01*
X62399Y240847D01*
X61371Y241273D01*
X61307Y241288D01*
X61246Y241313D01*
X61163Y241322D01*
X61131Y241329D01*
X61112Y241328D01*
X61080Y241331D01*
X58300Y241331D01*
X58236Y241321D01*
X58170Y241320D01*
X58090Y241297D01*
X58058Y241292D01*
X58041Y241282D01*
X58009Y241273D01*
X56981Y240847D01*
X54779Y240847D01*
G37*
%LPD*%
%LPC*%
G36*
X298504Y30069D02*
X298504Y30069D01*
X294501Y31727D01*
X291556Y34672D01*
X291482Y34725D01*
X291412Y34785D01*
X291382Y34797D01*
X291356Y34816D01*
X291269Y34843D01*
X291184Y34877D01*
X291143Y34881D01*
X291121Y34888D01*
X291089Y34887D01*
X291018Y34895D01*
X250334Y34895D01*
X248105Y35819D01*
X246292Y37632D01*
X246291Y37632D01*
X232736Y51187D01*
X232736Y51188D01*
X230923Y53001D01*
X229999Y55230D01*
X229999Y67238D01*
X229996Y67258D01*
X229998Y67277D01*
X229976Y67379D01*
X229960Y67481D01*
X229950Y67498D01*
X229946Y67518D01*
X229893Y67607D01*
X229844Y67698D01*
X229830Y67712D01*
X229820Y67729D01*
X229741Y67796D01*
X229666Y67868D01*
X229648Y67876D01*
X229633Y67889D01*
X229537Y67928D01*
X229443Y67971D01*
X229423Y67973D01*
X229405Y67981D01*
X229238Y67999D01*
X216671Y67999D01*
X215499Y69171D01*
X215499Y73249D01*
X215485Y73339D01*
X215477Y73430D01*
X215465Y73460D01*
X215460Y73492D01*
X215417Y73573D01*
X215381Y73657D01*
X215355Y73689D01*
X215344Y73709D01*
X215321Y73732D01*
X215276Y73788D01*
X214446Y74618D01*
X212999Y78110D01*
X212999Y81890D01*
X214446Y85382D01*
X215276Y86212D01*
X215329Y86286D01*
X215389Y86356D01*
X215401Y86386D01*
X215420Y86412D01*
X215447Y86499D01*
X215481Y86584D01*
X215485Y86625D01*
X215492Y86647D01*
X215491Y86679D01*
X215499Y86751D01*
X215499Y90829D01*
X216671Y92001D01*
X250329Y92001D01*
X251501Y90829D01*
X251501Y69171D01*
X250329Y67999D01*
X242890Y67999D01*
X242870Y67996D01*
X242851Y67998D01*
X242749Y67976D01*
X242647Y67960D01*
X242630Y67950D01*
X242610Y67946D01*
X242521Y67893D01*
X242430Y67844D01*
X242416Y67830D01*
X242399Y67820D01*
X242332Y67741D01*
X242260Y67666D01*
X242252Y67648D01*
X242239Y67633D01*
X242200Y67537D01*
X242157Y67443D01*
X242155Y67423D01*
X242147Y67405D01*
X242129Y67238D01*
X242129Y59263D01*
X242143Y59173D01*
X242151Y59082D01*
X242163Y59053D01*
X242168Y59021D01*
X242211Y58940D01*
X242247Y58856D01*
X242273Y58824D01*
X242284Y58803D01*
X242307Y58781D01*
X242352Y58725D01*
X253829Y47248D01*
X253903Y47195D01*
X253973Y47135D01*
X254003Y47123D01*
X254029Y47104D01*
X254116Y47077D01*
X254201Y47043D01*
X254242Y47039D01*
X254264Y47032D01*
X254296Y47033D01*
X254367Y47025D01*
X291018Y47025D01*
X291108Y47039D01*
X291199Y47047D01*
X291228Y47059D01*
X291260Y47064D01*
X291341Y47107D01*
X291425Y47143D01*
X291457Y47169D01*
X291478Y47180D01*
X291500Y47203D01*
X291556Y47248D01*
X294501Y50193D01*
X298504Y51851D01*
X302836Y51851D01*
X306839Y50193D01*
X309784Y47248D01*
X309858Y47195D01*
X309928Y47135D01*
X309958Y47123D01*
X309984Y47104D01*
X310071Y47077D01*
X310156Y47043D01*
X310197Y47039D01*
X310219Y47032D01*
X310251Y47033D01*
X310322Y47025D01*
X358133Y47025D01*
X358223Y47039D01*
X358314Y47047D01*
X358343Y47059D01*
X358375Y47064D01*
X358456Y47107D01*
X358540Y47143D01*
X358572Y47169D01*
X358593Y47180D01*
X358615Y47203D01*
X358671Y47248D01*
X411675Y100251D01*
X413904Y101175D01*
X440358Y101175D01*
X440448Y101189D01*
X440539Y101197D01*
X440568Y101209D01*
X440600Y101214D01*
X440681Y101257D01*
X440765Y101293D01*
X440797Y101319D01*
X440818Y101330D01*
X440840Y101353D01*
X440896Y101398D01*
X443841Y104343D01*
X447844Y106001D01*
X452176Y106001D01*
X456179Y104343D01*
X459124Y101398D01*
X459198Y101345D01*
X459268Y101285D01*
X459298Y101273D01*
X459324Y101254D01*
X459411Y101227D01*
X459496Y101193D01*
X459537Y101189D01*
X459559Y101182D01*
X459591Y101183D01*
X459662Y101175D01*
X491563Y101175D01*
X491583Y101178D01*
X491602Y101176D01*
X491704Y101198D01*
X491806Y101214D01*
X491823Y101224D01*
X491843Y101228D01*
X491932Y101281D01*
X492023Y101330D01*
X492037Y101344D01*
X492054Y101354D01*
X492121Y101433D01*
X492193Y101508D01*
X492201Y101526D01*
X492214Y101541D01*
X492253Y101637D01*
X492296Y101731D01*
X492298Y101751D01*
X492306Y101769D01*
X492324Y101936D01*
X492324Y103714D01*
X493496Y104886D01*
X511664Y104886D01*
X512836Y103714D01*
X512836Y85546D01*
X511664Y84374D01*
X493496Y84374D01*
X492324Y85546D01*
X492324Y88284D01*
X492321Y88304D01*
X492323Y88323D01*
X492301Y88425D01*
X492285Y88527D01*
X492275Y88544D01*
X492271Y88564D01*
X492218Y88653D01*
X492169Y88744D01*
X492155Y88758D01*
X492145Y88775D01*
X492066Y88842D01*
X491991Y88914D01*
X491973Y88922D01*
X491958Y88935D01*
X491862Y88974D01*
X491768Y89017D01*
X491748Y89019D01*
X491730Y89027D01*
X491563Y89045D01*
X459662Y89045D01*
X459572Y89031D01*
X459481Y89023D01*
X459452Y89011D01*
X459420Y89006D01*
X459339Y88963D01*
X459255Y88927D01*
X459223Y88901D01*
X459202Y88890D01*
X459180Y88867D01*
X459124Y88822D01*
X456179Y85877D01*
X452176Y84219D01*
X447844Y84219D01*
X443841Y85877D01*
X440896Y88822D01*
X440822Y88875D01*
X440752Y88935D01*
X440722Y88947D01*
X440696Y88966D01*
X440609Y88993D01*
X440524Y89027D01*
X440483Y89031D01*
X440461Y89038D01*
X440429Y89037D01*
X440358Y89045D01*
X417937Y89045D01*
X417847Y89031D01*
X417756Y89023D01*
X417727Y89011D01*
X417695Y89006D01*
X417614Y88963D01*
X417530Y88927D01*
X417498Y88901D01*
X417477Y88890D01*
X417455Y88867D01*
X417399Y88822D01*
X364395Y35819D01*
X362166Y34895D01*
X310322Y34895D01*
X310232Y34881D01*
X310141Y34873D01*
X310112Y34861D01*
X310080Y34856D01*
X309999Y34813D01*
X309915Y34777D01*
X309883Y34751D01*
X309862Y34740D01*
X309840Y34717D01*
X309784Y34672D01*
X306839Y31727D01*
X302836Y30069D01*
X298504Y30069D01*
G37*
%LPD*%
%LPC*%
G36*
X202871Y135199D02*
X202871Y135199D01*
X201699Y136371D01*
X201699Y158629D01*
X202871Y159801D01*
X217229Y159801D01*
X218401Y158629D01*
X218401Y154150D01*
X218420Y154034D01*
X218437Y153918D01*
X218440Y153913D01*
X218440Y153907D01*
X218495Y153804D01*
X218548Y153699D01*
X218553Y153695D01*
X218556Y153689D01*
X218641Y153609D01*
X218648Y153601D01*
X220804Y151445D01*
X220889Y151241D01*
X220951Y151141D01*
X221010Y151041D01*
X221015Y151037D01*
X221018Y151032D01*
X221109Y150957D01*
X221197Y150881D01*
X221203Y150879D01*
X221208Y150875D01*
X221316Y150833D01*
X221425Y150789D01*
X221433Y150788D01*
X221437Y150787D01*
X221456Y150786D01*
X221592Y150771D01*
X223330Y150771D01*
X223420Y150785D01*
X223511Y150793D01*
X223541Y150805D01*
X223573Y150810D01*
X223653Y150853D01*
X223737Y150889D01*
X223769Y150915D01*
X223790Y150926D01*
X223812Y150949D01*
X223868Y150994D01*
X231506Y158632D01*
X231559Y158706D01*
X231619Y158775D01*
X231631Y158805D01*
X231650Y158832D01*
X231677Y158919D01*
X231711Y159003D01*
X231715Y159044D01*
X231722Y159067D01*
X231721Y159099D01*
X231729Y159170D01*
X231729Y173855D01*
X243645Y185771D01*
X288140Y185771D01*
X288230Y185785D01*
X288321Y185793D01*
X288351Y185805D01*
X288383Y185810D01*
X288463Y185853D01*
X288547Y185889D01*
X288579Y185915D01*
X288600Y185926D01*
X288622Y185949D01*
X288678Y185994D01*
X290620Y187936D01*
X290688Y188030D01*
X290758Y188124D01*
X290760Y188130D01*
X290764Y188135D01*
X290798Y188246D01*
X290834Y188358D01*
X290834Y188364D01*
X290836Y188370D01*
X290833Y188487D01*
X290832Y188604D01*
X290830Y188611D01*
X290830Y188616D01*
X290823Y188634D01*
X290785Y188765D01*
X289779Y191194D01*
X289779Y195526D01*
X291437Y199529D01*
X294501Y202593D01*
X298504Y204251D01*
X302836Y204251D01*
X306839Y202593D01*
X309903Y199529D01*
X311561Y195526D01*
X311561Y191194D01*
X309903Y187191D01*
X306839Y184127D01*
X302836Y182469D01*
X298504Y182469D01*
X296075Y183475D01*
X295962Y183502D01*
X295848Y183530D01*
X295842Y183530D01*
X295836Y183531D01*
X295719Y183520D01*
X295603Y183511D01*
X295597Y183509D01*
X295591Y183508D01*
X295484Y183461D01*
X295377Y183415D01*
X295371Y183410D01*
X295366Y183408D01*
X295353Y183396D01*
X295246Y183310D01*
X293304Y181368D01*
X291165Y179229D01*
X246670Y179229D01*
X246580Y179215D01*
X246489Y179207D01*
X246459Y179195D01*
X246427Y179190D01*
X246347Y179147D01*
X246263Y179111D01*
X246231Y179085D01*
X246210Y179074D01*
X246188Y179051D01*
X246132Y179006D01*
X238494Y171368D01*
X238441Y171294D01*
X238381Y171225D01*
X238369Y171195D01*
X238350Y171168D01*
X238323Y171081D01*
X238289Y170997D01*
X238285Y170956D01*
X238278Y170933D01*
X238279Y170901D01*
X238271Y170830D01*
X238271Y156145D01*
X226355Y144229D01*
X221741Y144229D01*
X221627Y144211D01*
X221510Y144193D01*
X221505Y144191D01*
X221498Y144190D01*
X221396Y144135D01*
X221291Y144082D01*
X221287Y144077D01*
X221281Y144074D01*
X221201Y143990D01*
X221119Y143906D01*
X221115Y143900D01*
X221112Y143896D01*
X221104Y143879D01*
X221038Y143759D01*
X220804Y143195D01*
X218697Y141088D01*
X218671Y141072D01*
X218667Y141068D01*
X218662Y141064D01*
X218588Y140975D01*
X218511Y140885D01*
X218509Y140880D01*
X218505Y140875D01*
X218463Y140767D01*
X218419Y140657D01*
X218418Y140650D01*
X218417Y140646D01*
X218416Y140628D01*
X218401Y140490D01*
X218401Y136371D01*
X217229Y135199D01*
X202871Y135199D01*
G37*
%LPD*%
%LPC*%
G36*
X552504Y106269D02*
X552504Y106269D01*
X548501Y107927D01*
X545437Y110991D01*
X543779Y114994D01*
X543779Y119326D01*
X544785Y121755D01*
X544812Y121868D01*
X544840Y121982D01*
X544840Y121988D01*
X544841Y121994D01*
X544830Y122110D01*
X544821Y122227D01*
X544819Y122233D01*
X544818Y122239D01*
X544770Y122347D01*
X544725Y122453D01*
X544720Y122459D01*
X544718Y122464D01*
X544706Y122478D01*
X544620Y122584D01*
X524648Y142556D01*
X524574Y142609D01*
X524505Y142669D01*
X524475Y142681D01*
X524448Y142700D01*
X524361Y142727D01*
X524277Y142761D01*
X524236Y142765D01*
X524213Y142772D01*
X524181Y142771D01*
X524110Y142779D01*
X461010Y142779D01*
X460895Y142760D01*
X460779Y142743D01*
X460773Y142741D01*
X460767Y142740D01*
X460665Y142685D01*
X460560Y142632D01*
X460555Y142627D01*
X460550Y142624D01*
X460470Y142540D01*
X460387Y142456D01*
X460384Y142450D01*
X460380Y142446D01*
X460373Y142429D01*
X460307Y142309D01*
X459243Y139741D01*
X456179Y136677D01*
X452176Y135019D01*
X447844Y135019D01*
X443841Y136677D01*
X440777Y139741D01*
X439119Y143744D01*
X439119Y148076D01*
X440777Y152079D01*
X443841Y155143D01*
X447844Y156801D01*
X452176Y156801D01*
X456179Y155143D01*
X459243Y152079D01*
X460191Y149791D01*
X460252Y149691D01*
X460312Y149591D01*
X460317Y149587D01*
X460320Y149582D01*
X460410Y149507D01*
X460499Y149431D01*
X460505Y149429D01*
X460510Y149425D01*
X460618Y149383D01*
X460727Y149339D01*
X460735Y149338D01*
X460739Y149337D01*
X460758Y149336D01*
X460894Y149321D01*
X527135Y149321D01*
X529274Y147182D01*
X549246Y127210D01*
X549340Y127142D01*
X549434Y127072D01*
X549440Y127070D01*
X549445Y127066D01*
X549556Y127032D01*
X549668Y126996D01*
X549674Y126996D01*
X549680Y126994D01*
X549797Y126997D01*
X549914Y126998D01*
X549921Y127000D01*
X549926Y127000D01*
X549944Y127007D01*
X550075Y127045D01*
X552504Y128051D01*
X556836Y128051D01*
X560839Y126393D01*
X563903Y123329D01*
X565561Y119326D01*
X565561Y114994D01*
X563903Y110991D01*
X560839Y107927D01*
X556836Y106269D01*
X552504Y106269D01*
G37*
%LPD*%
%LPC*%
G36*
X431969Y529137D02*
X431969Y529137D01*
X429936Y529980D01*
X428380Y531536D01*
X427954Y532565D01*
X427919Y532620D01*
X427893Y532681D01*
X427841Y532745D01*
X427824Y532774D01*
X427809Y532786D01*
X427788Y532812D01*
X417232Y543368D01*
X417158Y543421D01*
X417088Y543481D01*
X417058Y543493D01*
X417032Y543512D01*
X416945Y543539D01*
X416860Y543573D01*
X416819Y543577D01*
X416797Y543584D01*
X416765Y543583D01*
X416693Y543591D01*
X371990Y543591D01*
X371926Y543581D01*
X371860Y543580D01*
X371780Y543557D01*
X371748Y543552D01*
X371731Y543542D01*
X371699Y543533D01*
X370671Y543107D01*
X368469Y543107D01*
X366436Y543950D01*
X364880Y545506D01*
X364037Y547539D01*
X364037Y549741D01*
X364880Y551774D01*
X366436Y553330D01*
X368469Y554173D01*
X370671Y554173D01*
X371699Y553747D01*
X371763Y553732D01*
X371824Y553707D01*
X371907Y553698D01*
X371939Y553691D01*
X371958Y553692D01*
X371990Y553689D01*
X421191Y553689D01*
X434928Y539952D01*
X434982Y539913D01*
X435028Y539867D01*
X435102Y539827D01*
X435128Y539808D01*
X435147Y539802D01*
X435175Y539786D01*
X436204Y539360D01*
X437760Y537804D01*
X438603Y535771D01*
X438603Y533569D01*
X437760Y531536D01*
X436204Y529980D01*
X434171Y529137D01*
X431969Y529137D01*
G37*
%LPD*%
%LPC*%
G36*
X7981Y219419D02*
X7981Y219419D01*
X6809Y220591D01*
X6809Y237249D01*
X7981Y238421D01*
X27639Y238421D01*
X28811Y237249D01*
X28811Y234730D01*
X28814Y234710D01*
X28812Y234691D01*
X28834Y234589D01*
X28850Y234487D01*
X28860Y234470D01*
X28864Y234450D01*
X28917Y234361D01*
X28966Y234270D01*
X28980Y234256D01*
X28990Y234239D01*
X29069Y234172D01*
X29144Y234100D01*
X29162Y234092D01*
X29177Y234079D01*
X29273Y234040D01*
X29367Y233997D01*
X29387Y233995D01*
X29405Y233987D01*
X29572Y233969D01*
X54232Y233969D01*
X54297Y233979D01*
X54362Y233980D01*
X54442Y234003D01*
X54475Y234008D01*
X54492Y234018D01*
X54523Y234027D01*
X54779Y234133D01*
X56981Y234133D01*
X57237Y234027D01*
X57300Y234012D01*
X57361Y233987D01*
X57444Y233978D01*
X57476Y233971D01*
X57495Y233972D01*
X57528Y233969D01*
X57651Y233969D01*
X57738Y233882D01*
X57792Y233843D01*
X57838Y233797D01*
X57912Y233757D01*
X57938Y233738D01*
X57957Y233732D01*
X57985Y233716D01*
X59014Y233290D01*
X60570Y231734D01*
X61413Y229701D01*
X61413Y227499D01*
X60570Y225466D01*
X59014Y223910D01*
X56981Y223067D01*
X54779Y223067D01*
X52978Y223813D01*
X52915Y223828D01*
X52854Y223853D01*
X52771Y223862D01*
X52739Y223869D01*
X52720Y223868D01*
X52687Y223871D01*
X29572Y223871D01*
X29552Y223868D01*
X29533Y223870D01*
X29431Y223848D01*
X29329Y223832D01*
X29312Y223822D01*
X29292Y223818D01*
X29203Y223765D01*
X29112Y223716D01*
X29098Y223702D01*
X29081Y223692D01*
X29014Y223613D01*
X28942Y223538D01*
X28934Y223520D01*
X28921Y223505D01*
X28882Y223409D01*
X28839Y223315D01*
X28837Y223295D01*
X28829Y223277D01*
X28811Y223110D01*
X28811Y220591D01*
X27639Y219419D01*
X7981Y219419D01*
G37*
%LPD*%
%LPC*%
G36*
X444914Y231999D02*
X444914Y231999D01*
X440136Y233979D01*
X436479Y237636D01*
X434499Y242414D01*
X434499Y247586D01*
X436479Y252364D01*
X440136Y256021D01*
X444914Y258001D01*
X450086Y258001D01*
X454864Y256021D01*
X458521Y252364D01*
X460501Y247586D01*
X460501Y242414D01*
X458521Y237636D01*
X454864Y233979D01*
X450086Y231999D01*
X444914Y231999D01*
G37*
%LPD*%
%LPC*%
G36*
X107414Y9499D02*
X107414Y9499D01*
X102636Y11479D01*
X98979Y15136D01*
X96999Y19914D01*
X96999Y25086D01*
X98979Y29864D01*
X102636Y33521D01*
X107414Y35501D01*
X112586Y35501D01*
X117364Y33521D01*
X121021Y29864D01*
X123001Y25086D01*
X123001Y19914D01*
X121021Y15136D01*
X117364Y11479D01*
X112586Y9499D01*
X107414Y9499D01*
G37*
%LPD*%
%LPC*%
G36*
X443644Y9499D02*
X443644Y9499D01*
X438866Y11479D01*
X435209Y15136D01*
X433229Y19914D01*
X433229Y25086D01*
X435209Y29864D01*
X438866Y33521D01*
X443644Y35501D01*
X448816Y35501D01*
X453594Y33521D01*
X457251Y29864D01*
X459231Y25086D01*
X459231Y19914D01*
X457251Y15136D01*
X453594Y11479D01*
X448816Y9499D01*
X443644Y9499D01*
G37*
%LPD*%
%LPC*%
G36*
X439914Y286999D02*
X439914Y286999D01*
X435136Y288979D01*
X431479Y292636D01*
X429499Y297414D01*
X429499Y302586D01*
X431479Y307364D01*
X435136Y311021D01*
X439914Y313001D01*
X445086Y313001D01*
X449864Y311021D01*
X453521Y307364D01*
X455501Y302586D01*
X455501Y297414D01*
X453521Y292636D01*
X449864Y288979D01*
X445086Y286999D01*
X439914Y286999D01*
G37*
%LPD*%
%LPC*%
G36*
X212119Y526099D02*
X212119Y526099D01*
X212119Y526862D01*
X212116Y526882D01*
X212118Y526901D01*
X212096Y527003D01*
X212079Y527105D01*
X212070Y527122D01*
X212066Y527142D01*
X212013Y527231D01*
X211964Y527322D01*
X211950Y527336D01*
X211940Y527353D01*
X211861Y527420D01*
X211786Y527491D01*
X211768Y527500D01*
X211753Y527513D01*
X211657Y527552D01*
X211563Y527595D01*
X211543Y527597D01*
X211525Y527605D01*
X211358Y527623D01*
X200579Y527623D01*
X200579Y530334D01*
X200752Y530981D01*
X201087Y531560D01*
X201560Y532033D01*
X201714Y532122D01*
X201807Y532198D01*
X201898Y532271D01*
X201901Y532275D01*
X201904Y532278D01*
X201968Y532380D01*
X202031Y532478D01*
X202032Y532482D01*
X202035Y532486D01*
X202063Y532603D01*
X202091Y532717D01*
X202091Y532721D01*
X202092Y532725D01*
X202082Y532844D01*
X202072Y532962D01*
X202071Y532966D01*
X202070Y532970D01*
X202022Y533080D01*
X201976Y533188D01*
X201973Y533192D01*
X201972Y533195D01*
X201962Y533206D01*
X201871Y533319D01*
X201119Y534071D01*
X201119Y543529D01*
X201871Y544281D01*
X201940Y544376D01*
X202011Y544473D01*
X202012Y544477D01*
X202015Y544480D01*
X202049Y544592D01*
X202086Y544707D01*
X202086Y544712D01*
X202087Y544715D01*
X202084Y544834D01*
X202082Y544953D01*
X202081Y544957D01*
X202081Y544961D01*
X202040Y545074D01*
X202000Y545185D01*
X201998Y545188D01*
X201996Y545192D01*
X201921Y545286D01*
X201849Y545379D01*
X201845Y545382D01*
X201843Y545384D01*
X201831Y545392D01*
X201714Y545478D01*
X201560Y545567D01*
X201087Y546040D01*
X200752Y546619D01*
X200579Y547266D01*
X200579Y549977D01*
X211358Y549977D01*
X211378Y549980D01*
X211397Y549978D01*
X211499Y550000D01*
X211601Y550017D01*
X211618Y550026D01*
X211638Y550030D01*
X211727Y550083D01*
X211818Y550132D01*
X211832Y550146D01*
X211849Y550156D01*
X211916Y550235D01*
X211987Y550310D01*
X211996Y550328D01*
X212009Y550343D01*
X212048Y550439D01*
X212091Y550533D01*
X212093Y550553D01*
X212101Y550571D01*
X212119Y550738D01*
X212119Y551501D01*
X212121Y551501D01*
X212121Y550738D01*
X212124Y550718D01*
X212122Y550699D01*
X212144Y550597D01*
X212161Y550495D01*
X212170Y550478D01*
X212174Y550458D01*
X212227Y550369D01*
X212276Y550278D01*
X212290Y550264D01*
X212300Y550247D01*
X212379Y550180D01*
X212454Y550109D01*
X212472Y550100D01*
X212487Y550087D01*
X212583Y550048D01*
X212677Y550005D01*
X212697Y550003D01*
X212715Y549995D01*
X212882Y549977D01*
X223661Y549977D01*
X223661Y547266D01*
X223488Y546619D01*
X223153Y546040D01*
X222680Y545567D01*
X222526Y545478D01*
X222433Y545402D01*
X222342Y545329D01*
X222339Y545325D01*
X222336Y545322D01*
X222272Y545220D01*
X222209Y545122D01*
X222208Y545118D01*
X222205Y545114D01*
X222177Y544997D01*
X222149Y544883D01*
X222149Y544879D01*
X222148Y544875D01*
X222159Y544754D01*
X222168Y544638D01*
X222169Y544634D01*
X222170Y544630D01*
X222218Y544520D01*
X222264Y544412D01*
X222267Y544408D01*
X222268Y544405D01*
X222278Y544394D01*
X222369Y544281D01*
X223121Y543529D01*
X223121Y534071D01*
X222369Y533319D01*
X222300Y533224D01*
X222229Y533127D01*
X222228Y533123D01*
X222225Y533120D01*
X222191Y533008D01*
X222154Y532893D01*
X222154Y532888D01*
X222153Y532885D01*
X222156Y532765D01*
X222158Y532647D01*
X222159Y532643D01*
X222159Y532639D01*
X222200Y532526D01*
X222240Y532415D01*
X222242Y532412D01*
X222244Y532408D01*
X222319Y532313D01*
X222391Y532221D01*
X222395Y532218D01*
X222397Y532216D01*
X222409Y532208D01*
X222526Y532122D01*
X222680Y532033D01*
X223153Y531560D01*
X223488Y530981D01*
X223661Y530335D01*
X223661Y527623D01*
X212882Y527623D01*
X212862Y527620D01*
X212843Y527622D01*
X212741Y527600D01*
X212639Y527583D01*
X212622Y527574D01*
X212602Y527570D01*
X212513Y527517D01*
X212422Y527468D01*
X212408Y527454D01*
X212391Y527444D01*
X212324Y527365D01*
X212253Y527290D01*
X212244Y527272D01*
X212231Y527257D01*
X212192Y527161D01*
X212149Y527067D01*
X212147Y527047D01*
X212139Y527029D01*
X212121Y526862D01*
X212121Y526099D01*
X212119Y526099D01*
G37*
%LPD*%
%LPC*%
G36*
X552419Y536892D02*
X552419Y536892D01*
X548009Y538719D01*
X544633Y542095D01*
X542806Y546506D01*
X542806Y551280D01*
X544633Y555691D01*
X548009Y559067D01*
X552419Y560894D01*
X557194Y560894D01*
X561604Y559067D01*
X564980Y555691D01*
X566807Y551280D01*
X566807Y546506D01*
X564980Y542095D01*
X561604Y538719D01*
X557194Y536892D01*
X552419Y536892D01*
G37*
%LPD*%
%LPC*%
G36*
X298384Y536827D02*
X298384Y536827D01*
X293973Y538654D01*
X290597Y542030D01*
X288770Y546440D01*
X288770Y551214D01*
X290597Y555625D01*
X293973Y559001D01*
X298384Y560828D01*
X303158Y560828D01*
X307569Y559001D01*
X310945Y555625D01*
X312772Y551214D01*
X312772Y546440D01*
X310945Y542030D01*
X307569Y538654D01*
X303158Y536827D01*
X298384Y536827D01*
G37*
%LPD*%
%LPC*%
G36*
X483633Y244720D02*
X483633Y244720D01*
X482484Y245915D01*
X482833Y264079D01*
X484027Y265228D01*
X502191Y264879D01*
X503341Y263685D01*
X502992Y245521D01*
X501798Y244372D01*
X483633Y244720D01*
G37*
%LPD*%
%LPC*%
G36*
X251821Y473419D02*
X251821Y473419D01*
X250649Y474591D01*
X250649Y491249D01*
X251821Y492421D01*
X271479Y492421D01*
X272651Y491249D01*
X272651Y474591D01*
X271479Y473419D01*
X251821Y473419D01*
G37*
%LPD*%
%LPC*%
G36*
X314694Y566899D02*
X314694Y566899D01*
X310691Y568557D01*
X307627Y571621D01*
X305969Y575624D01*
X305969Y579956D01*
X307627Y583959D01*
X310691Y587023D01*
X314694Y588681D01*
X319026Y588681D01*
X323029Y587023D01*
X326093Y583959D01*
X327751Y579956D01*
X327751Y575624D01*
X326093Y571621D01*
X323029Y568557D01*
X319026Y566899D01*
X314694Y566899D01*
G37*
%LPD*%
%LPC*%
G36*
X289294Y566899D02*
X289294Y566899D01*
X285291Y568557D01*
X282227Y571621D01*
X280569Y575624D01*
X280569Y579956D01*
X282227Y583959D01*
X285291Y587023D01*
X289294Y588681D01*
X293626Y588681D01*
X297629Y587023D01*
X300693Y583959D01*
X302351Y579956D01*
X302351Y575624D01*
X300693Y571621D01*
X297629Y568557D01*
X293626Y566899D01*
X289294Y566899D01*
G37*
%LPD*%
%LPC*%
G36*
X552504Y30069D02*
X552504Y30069D01*
X548501Y31727D01*
X545437Y34791D01*
X543779Y38794D01*
X543779Y43126D01*
X545437Y47129D01*
X548501Y50193D01*
X552504Y51851D01*
X556836Y51851D01*
X560839Y50193D01*
X563903Y47129D01*
X565561Y43126D01*
X565561Y38794D01*
X563903Y34791D01*
X560839Y31727D01*
X556836Y30069D01*
X552504Y30069D01*
G37*
%LPD*%
%LPC*%
G36*
X552504Y157069D02*
X552504Y157069D01*
X548501Y158727D01*
X545437Y161791D01*
X543779Y165794D01*
X543779Y170126D01*
X545437Y174129D01*
X548501Y177193D01*
X552504Y178851D01*
X556836Y178851D01*
X560839Y177193D01*
X563903Y174129D01*
X565561Y170126D01*
X565561Y165794D01*
X563903Y161791D01*
X560839Y158727D01*
X556836Y157069D01*
X552504Y157069D01*
G37*
%LPD*%
%LPC*%
G36*
X298504Y461869D02*
X298504Y461869D01*
X294501Y463527D01*
X291437Y466591D01*
X289779Y470594D01*
X289779Y474926D01*
X291437Y478929D01*
X294501Y481993D01*
X298504Y483651D01*
X302836Y483651D01*
X306839Y481993D01*
X309903Y478929D01*
X311561Y474926D01*
X311561Y470594D01*
X309903Y466591D01*
X306839Y463527D01*
X302836Y461869D01*
X298504Y461869D01*
G37*
%LPD*%
%LPC*%
G36*
X552504Y461869D02*
X552504Y461869D01*
X548501Y463527D01*
X545437Y466591D01*
X543779Y470594D01*
X543779Y474926D01*
X545437Y478929D01*
X548501Y481993D01*
X552504Y483651D01*
X556836Y483651D01*
X560839Y481993D01*
X563903Y478929D01*
X565561Y474926D01*
X565561Y470594D01*
X563903Y466591D01*
X560839Y463527D01*
X556836Y461869D01*
X552504Y461869D01*
G37*
%LPD*%
%LPC*%
G36*
X298504Y207869D02*
X298504Y207869D01*
X294501Y209527D01*
X291437Y212591D01*
X289779Y216594D01*
X289779Y220926D01*
X291437Y224929D01*
X294501Y227993D01*
X298504Y229651D01*
X302836Y229651D01*
X306839Y227993D01*
X309903Y224929D01*
X311561Y220926D01*
X311561Y216594D01*
X309903Y212591D01*
X306839Y209527D01*
X302836Y207869D01*
X298504Y207869D01*
G37*
%LPD*%
%LPC*%
G36*
X552504Y207869D02*
X552504Y207869D01*
X548501Y209527D01*
X545437Y212591D01*
X543779Y216594D01*
X543779Y220926D01*
X545437Y224929D01*
X548501Y227993D01*
X552504Y229651D01*
X556836Y229651D01*
X560839Y227993D01*
X563903Y224929D01*
X565561Y220926D01*
X565561Y216594D01*
X563903Y212591D01*
X560839Y209527D01*
X556836Y207869D01*
X552504Y207869D01*
G37*
%LPD*%
%LPC*%
G36*
X552504Y233269D02*
X552504Y233269D01*
X548501Y234927D01*
X545437Y237991D01*
X543779Y241994D01*
X543779Y246326D01*
X545437Y250329D01*
X548501Y253393D01*
X552504Y255051D01*
X556836Y255051D01*
X560839Y253393D01*
X563903Y250329D01*
X565561Y246326D01*
X565561Y241994D01*
X563903Y237991D01*
X560839Y234927D01*
X556836Y233269D01*
X552504Y233269D01*
G37*
%LPD*%
%LPC*%
G36*
X298504Y80869D02*
X298504Y80869D01*
X294501Y82527D01*
X291437Y85591D01*
X289779Y89594D01*
X289779Y93926D01*
X291437Y97929D01*
X294501Y100993D01*
X298504Y102651D01*
X302836Y102651D01*
X306839Y100993D01*
X309903Y97929D01*
X311561Y93926D01*
X311561Y89594D01*
X309903Y85591D01*
X306839Y82527D01*
X302836Y80869D01*
X298504Y80869D01*
G37*
%LPD*%
%LPC*%
G36*
X298504Y436469D02*
X298504Y436469D01*
X294501Y438127D01*
X291437Y441191D01*
X289779Y445194D01*
X289779Y449526D01*
X291437Y453529D01*
X294501Y456593D01*
X298504Y458251D01*
X302836Y458251D01*
X306839Y456593D01*
X309903Y453529D01*
X311561Y449526D01*
X311561Y445194D01*
X309903Y441191D01*
X306839Y438127D01*
X302836Y436469D01*
X298504Y436469D01*
G37*
%LPD*%
%LPC*%
G36*
X298504Y411069D02*
X298504Y411069D01*
X294501Y412727D01*
X291437Y415791D01*
X289779Y419794D01*
X289779Y424126D01*
X291437Y428129D01*
X294501Y431193D01*
X298504Y432851D01*
X302836Y432851D01*
X306839Y431193D01*
X309903Y428129D01*
X311561Y424126D01*
X311561Y419794D01*
X309903Y415791D01*
X306839Y412727D01*
X302836Y411069D01*
X298504Y411069D01*
G37*
%LPD*%
%LPC*%
G36*
X552504Y411069D02*
X552504Y411069D01*
X548501Y412727D01*
X545437Y415791D01*
X543779Y419794D01*
X543779Y424126D01*
X545437Y428129D01*
X548501Y431193D01*
X552504Y432851D01*
X556836Y432851D01*
X560839Y431193D01*
X563903Y428129D01*
X565561Y424126D01*
X565561Y419794D01*
X563903Y415791D01*
X560839Y412727D01*
X556836Y411069D01*
X552504Y411069D01*
G37*
%LPD*%
%LPC*%
G36*
X298504Y385669D02*
X298504Y385669D01*
X294501Y387327D01*
X291437Y390391D01*
X289779Y394394D01*
X289779Y398726D01*
X291437Y402729D01*
X294501Y405793D01*
X298504Y407451D01*
X302836Y407451D01*
X306839Y405793D01*
X309903Y402729D01*
X311561Y398726D01*
X311561Y394394D01*
X309903Y390391D01*
X306839Y387327D01*
X302836Y385669D01*
X298504Y385669D01*
G37*
%LPD*%
%LPC*%
G36*
X552504Y182469D02*
X552504Y182469D01*
X548501Y184127D01*
X545437Y187191D01*
X543779Y191194D01*
X543779Y195526D01*
X545437Y199529D01*
X548501Y202593D01*
X552504Y204251D01*
X556836Y204251D01*
X560839Y202593D01*
X563903Y199529D01*
X565561Y195526D01*
X565561Y191194D01*
X563903Y187191D01*
X560839Y184127D01*
X556836Y182469D01*
X552504Y182469D01*
G37*
%LPD*%
%LPC*%
G36*
X552504Y385669D02*
X552504Y385669D01*
X548501Y387327D01*
X545437Y390391D01*
X543779Y394394D01*
X543779Y398726D01*
X545437Y402729D01*
X548501Y405793D01*
X552504Y407451D01*
X556836Y407451D01*
X560839Y405793D01*
X563903Y402729D01*
X565561Y398726D01*
X565561Y394394D01*
X563903Y390391D01*
X560839Y387327D01*
X556836Y385669D01*
X552504Y385669D01*
G37*
%LPD*%
%LPC*%
G36*
X552504Y131669D02*
X552504Y131669D01*
X548501Y133327D01*
X545437Y136391D01*
X543779Y140394D01*
X543779Y144726D01*
X545437Y148729D01*
X548501Y151793D01*
X552504Y153451D01*
X556836Y153451D01*
X560839Y151793D01*
X563903Y148729D01*
X565561Y144726D01*
X565561Y140394D01*
X563903Y136391D01*
X560839Y133327D01*
X556836Y131669D01*
X552504Y131669D01*
G37*
%LPD*%
%LPC*%
G36*
X298504Y131669D02*
X298504Y131669D01*
X294501Y133327D01*
X291437Y136391D01*
X289779Y140394D01*
X289779Y144726D01*
X291437Y148729D01*
X294501Y151793D01*
X298504Y153451D01*
X302836Y153451D01*
X306839Y151793D01*
X309903Y148729D01*
X311561Y144726D01*
X311561Y140394D01*
X309903Y136391D01*
X306839Y133327D01*
X302836Y131669D01*
X298504Y131669D01*
G37*
%LPD*%
%LPC*%
G36*
X447844Y109619D02*
X447844Y109619D01*
X443841Y111277D01*
X440777Y114341D01*
X439119Y118344D01*
X439119Y122676D01*
X440777Y126679D01*
X443841Y129743D01*
X447844Y131401D01*
X452176Y131401D01*
X456179Y129743D01*
X459243Y126679D01*
X460901Y122676D01*
X460901Y118344D01*
X459243Y114341D01*
X456179Y111277D01*
X452176Y109619D01*
X447844Y109619D01*
G37*
%LPD*%
%LPC*%
G36*
X298504Y106269D02*
X298504Y106269D01*
X294501Y107927D01*
X291437Y110991D01*
X289779Y114994D01*
X289779Y119326D01*
X291437Y123329D01*
X294501Y126393D01*
X298504Y128051D01*
X302836Y128051D01*
X306839Y126393D01*
X309903Y123329D01*
X311561Y119326D01*
X311561Y114994D01*
X309903Y110991D01*
X306839Y107927D01*
X302836Y106269D01*
X298504Y106269D01*
G37*
%LPD*%
%LPC*%
G36*
X552504Y80869D02*
X552504Y80869D01*
X548501Y82527D01*
X545437Y85591D01*
X543779Y89594D01*
X543779Y93926D01*
X545437Y97929D01*
X548501Y100993D01*
X552504Y102651D01*
X556836Y102651D01*
X560839Y100993D01*
X563903Y97929D01*
X565561Y93926D01*
X565561Y89594D01*
X563903Y85591D01*
X560839Y82527D01*
X556836Y80869D01*
X552504Y80869D01*
G37*
%LPD*%
%LPC*%
G36*
X552504Y55469D02*
X552504Y55469D01*
X548501Y57127D01*
X545437Y60191D01*
X543779Y64194D01*
X543779Y68526D01*
X545437Y72529D01*
X548501Y75593D01*
X552504Y77251D01*
X556836Y77251D01*
X560839Y75593D01*
X563903Y72529D01*
X565561Y68526D01*
X565561Y64194D01*
X563903Y60191D01*
X560839Y57127D01*
X556836Y55469D01*
X552504Y55469D01*
G37*
%LPD*%
%LPC*%
G36*
X298504Y55469D02*
X298504Y55469D01*
X294501Y57127D01*
X291437Y60191D01*
X289779Y64194D01*
X289779Y68526D01*
X291437Y72529D01*
X294501Y75593D01*
X298504Y77251D01*
X302836Y77251D01*
X306839Y75593D01*
X309903Y72529D01*
X311561Y68526D01*
X311561Y64194D01*
X309903Y60191D01*
X306839Y57127D01*
X302836Y55469D01*
X298504Y55469D01*
G37*
%LPD*%
%LPC*%
G36*
X502241Y38947D02*
X502241Y38947D01*
X499565Y40056D01*
X497516Y42105D01*
X496407Y44781D01*
X496407Y47679D01*
X497516Y50355D01*
X499565Y52404D01*
X502241Y53513D01*
X505139Y53513D01*
X507815Y52404D01*
X509864Y50355D01*
X510973Y47679D01*
X510973Y44781D01*
X509864Y42105D01*
X507815Y40056D01*
X505139Y38947D01*
X502241Y38947D01*
G37*
%LPD*%
%LPC*%
G36*
X481011Y38947D02*
X481011Y38947D01*
X478335Y40056D01*
X476286Y42105D01*
X475177Y44781D01*
X475177Y47679D01*
X476286Y50355D01*
X478335Y52404D01*
X481011Y53513D01*
X483909Y53513D01*
X486585Y52404D01*
X488634Y50355D01*
X489743Y47679D01*
X489743Y44781D01*
X488634Y42105D01*
X486585Y40056D01*
X483909Y38947D01*
X481011Y38947D01*
G37*
%LPD*%
%LPC*%
G36*
X491311Y200997D02*
X491311Y200997D01*
X488635Y202106D01*
X486586Y204155D01*
X485477Y206831D01*
X485477Y209729D01*
X486586Y212405D01*
X488635Y214454D01*
X491311Y215563D01*
X494209Y215563D01*
X496885Y214454D01*
X498934Y212405D01*
X500043Y209729D01*
X500043Y206831D01*
X498934Y204155D01*
X496885Y202106D01*
X494209Y200997D01*
X491311Y200997D01*
G37*
%LPD*%
%LPC*%
G36*
X22681Y124797D02*
X22681Y124797D01*
X20005Y125906D01*
X17956Y127955D01*
X16847Y130631D01*
X16847Y133529D01*
X17956Y136205D01*
X20005Y138254D01*
X22681Y139363D01*
X25579Y139363D01*
X28255Y138254D01*
X30304Y136205D01*
X31413Y133529D01*
X31413Y130631D01*
X30304Y127955D01*
X28255Y125906D01*
X25579Y124797D01*
X22681Y124797D01*
G37*
%LPD*%
%LPC*%
G36*
X67131Y124797D02*
X67131Y124797D01*
X64455Y125906D01*
X62406Y127955D01*
X61297Y130631D01*
X61297Y133529D01*
X62406Y136205D01*
X64455Y138254D01*
X67131Y139363D01*
X70029Y139363D01*
X72705Y138254D01*
X74754Y136205D01*
X75863Y133529D01*
X75863Y130631D01*
X74754Y127955D01*
X72705Y125906D01*
X70029Y124797D01*
X67131Y124797D01*
G37*
%LPD*%
%LPC*%
G36*
X71403Y527623D02*
X71403Y527623D01*
X71403Y537277D01*
X81421Y537277D01*
X81421Y534566D01*
X81248Y533919D01*
X80913Y533340D01*
X80561Y532988D01*
X80550Y532972D01*
X80534Y532960D01*
X80478Y532872D01*
X80418Y532789D01*
X80412Y532770D01*
X80401Y532753D01*
X80376Y532652D01*
X80346Y532554D01*
X80346Y532534D01*
X80341Y532514D01*
X80349Y532411D01*
X80352Y532308D01*
X80359Y532289D01*
X80360Y532269D01*
X80401Y532174D01*
X80436Y532077D01*
X80449Y532061D01*
X80457Y532043D01*
X80561Y531912D01*
X80913Y531560D01*
X81248Y530981D01*
X81421Y530335D01*
X81421Y527623D01*
X71403Y527623D01*
G37*
%LPD*%
%LPC*%
G36*
X71403Y459043D02*
X71403Y459043D01*
X71403Y468697D01*
X81421Y468697D01*
X81421Y465986D01*
X81248Y465339D01*
X80913Y464760D01*
X80561Y464408D01*
X80550Y464392D01*
X80534Y464380D01*
X80478Y464292D01*
X80418Y464209D01*
X80412Y464190D01*
X80401Y464173D01*
X80376Y464072D01*
X80346Y463974D01*
X80346Y463954D01*
X80341Y463934D01*
X80349Y463831D01*
X80352Y463728D01*
X80359Y463709D01*
X80360Y463689D01*
X80401Y463594D01*
X80436Y463497D01*
X80449Y463481D01*
X80457Y463463D01*
X80561Y463332D01*
X80913Y462980D01*
X81248Y462401D01*
X81421Y461755D01*
X81421Y459043D01*
X71403Y459043D01*
G37*
%LPD*%
%LPC*%
G36*
X71403Y540323D02*
X71403Y540323D01*
X71403Y549977D01*
X81421Y549977D01*
X81421Y547266D01*
X81248Y546619D01*
X80913Y546040D01*
X80561Y545688D01*
X80550Y545672D01*
X80534Y545660D01*
X80478Y545572D01*
X80418Y545489D01*
X80412Y545470D01*
X80401Y545453D01*
X80376Y545352D01*
X80346Y545254D01*
X80346Y545234D01*
X80341Y545214D01*
X80349Y545111D01*
X80352Y545008D01*
X80359Y544989D01*
X80360Y544969D01*
X80401Y544874D01*
X80436Y544777D01*
X80449Y544761D01*
X80457Y544743D01*
X80561Y544612D01*
X80913Y544260D01*
X81248Y543681D01*
X81421Y543035D01*
X81421Y540323D01*
X71403Y540323D01*
G37*
%LPD*%
%LPC*%
G36*
X71403Y382843D02*
X71403Y382843D01*
X71403Y392497D01*
X81421Y392497D01*
X81421Y389786D01*
X81248Y389139D01*
X80913Y388560D01*
X80561Y388208D01*
X80550Y388192D01*
X80534Y388180D01*
X80478Y388092D01*
X80418Y388009D01*
X80412Y387990D01*
X80401Y387973D01*
X80376Y387872D01*
X80346Y387774D01*
X80346Y387754D01*
X80341Y387734D01*
X80349Y387631D01*
X80352Y387528D01*
X80359Y387509D01*
X80360Y387489D01*
X80401Y387394D01*
X80436Y387297D01*
X80449Y387281D01*
X80457Y387263D01*
X80561Y387132D01*
X80913Y386780D01*
X81248Y386201D01*
X81421Y385555D01*
X81421Y382843D01*
X71403Y382843D01*
G37*
%LPD*%
%LPC*%
G36*
X58339Y459043D02*
X58339Y459043D01*
X58339Y461754D01*
X58512Y462401D01*
X58847Y462980D01*
X59199Y463332D01*
X59210Y463348D01*
X59226Y463360D01*
X59282Y463448D01*
X59342Y463531D01*
X59348Y463550D01*
X59359Y463567D01*
X59384Y463668D01*
X59414Y463766D01*
X59414Y463786D01*
X59419Y463806D01*
X59411Y463909D01*
X59408Y464012D01*
X59401Y464031D01*
X59400Y464051D01*
X59359Y464146D01*
X59324Y464243D01*
X59311Y464259D01*
X59303Y464277D01*
X59199Y464408D01*
X58847Y464760D01*
X58512Y465339D01*
X58339Y465986D01*
X58339Y468697D01*
X68357Y468697D01*
X68357Y459043D01*
X58339Y459043D01*
G37*
%LPD*%
%LPC*%
G36*
X58339Y540323D02*
X58339Y540323D01*
X58339Y543034D01*
X58512Y543681D01*
X58847Y544260D01*
X59199Y544612D01*
X59210Y544628D01*
X59226Y544640D01*
X59282Y544728D01*
X59342Y544811D01*
X59348Y544830D01*
X59359Y544847D01*
X59384Y544948D01*
X59414Y545047D01*
X59414Y545067D01*
X59419Y545086D01*
X59411Y545189D01*
X59408Y545292D01*
X59401Y545311D01*
X59400Y545331D01*
X59359Y545426D01*
X59324Y545523D01*
X59311Y545539D01*
X59303Y545557D01*
X59199Y545688D01*
X58847Y546040D01*
X58512Y546619D01*
X58339Y547266D01*
X58339Y549977D01*
X68357Y549977D01*
X68357Y540323D01*
X58339Y540323D01*
G37*
%LPD*%
%LPC*%
G36*
X58339Y382843D02*
X58339Y382843D01*
X58339Y385554D01*
X58512Y386201D01*
X58847Y386780D01*
X59199Y387132D01*
X59210Y387148D01*
X59226Y387160D01*
X59282Y387248D01*
X59342Y387331D01*
X59348Y387350D01*
X59359Y387367D01*
X59384Y387468D01*
X59414Y387567D01*
X59414Y387587D01*
X59419Y387606D01*
X59411Y387709D01*
X59408Y387812D01*
X59401Y387831D01*
X59400Y387851D01*
X59359Y387946D01*
X59324Y388043D01*
X59311Y388059D01*
X59303Y388077D01*
X59199Y388208D01*
X58847Y388560D01*
X58512Y389139D01*
X58339Y389786D01*
X58339Y392497D01*
X68357Y392497D01*
X68357Y382843D01*
X58339Y382843D01*
G37*
%LPD*%
%LPC*%
G36*
X58339Y527623D02*
X58339Y527623D01*
X58339Y530334D01*
X58512Y530981D01*
X58847Y531560D01*
X59199Y531912D01*
X59210Y531928D01*
X59226Y531940D01*
X59282Y532028D01*
X59342Y532111D01*
X59348Y532130D01*
X59359Y532147D01*
X59384Y532248D01*
X59414Y532347D01*
X59414Y532367D01*
X59419Y532386D01*
X59411Y532489D01*
X59408Y532592D01*
X59401Y532611D01*
X59400Y532631D01*
X59359Y532726D01*
X59324Y532823D01*
X59311Y532839D01*
X59303Y532857D01*
X59199Y532988D01*
X58847Y533340D01*
X58512Y533919D01*
X58339Y534566D01*
X58339Y537277D01*
X68357Y537277D01*
X68357Y527623D01*
X58339Y527623D01*
G37*
%LPD*%
%LPC*%
G36*
X19333Y459043D02*
X19333Y459043D01*
X19333Y467561D01*
X27144Y467561D01*
X27791Y467388D01*
X28370Y467053D01*
X28843Y466580D01*
X29178Y466001D01*
X29351Y465354D01*
X29351Y459043D01*
X19333Y459043D01*
G37*
%LPD*%
%LPC*%
G36*
X19333Y509843D02*
X19333Y509843D01*
X19333Y518361D01*
X27144Y518361D01*
X27791Y518188D01*
X28370Y517853D01*
X28843Y517380D01*
X29178Y516801D01*
X29351Y516154D01*
X29351Y509843D01*
X19333Y509843D01*
G37*
%LPD*%
%LPC*%
G36*
X19333Y484443D02*
X19333Y484443D01*
X19333Y492961D01*
X27144Y492961D01*
X27791Y492788D01*
X28370Y492453D01*
X28843Y491980D01*
X29178Y491401D01*
X29351Y490754D01*
X29351Y484443D01*
X19333Y484443D01*
G37*
%LPD*%
%LPC*%
G36*
X263173Y459043D02*
X263173Y459043D01*
X263173Y467561D01*
X270984Y467561D01*
X271631Y467388D01*
X272210Y467053D01*
X272683Y466580D01*
X273018Y466001D01*
X273191Y465354D01*
X273191Y459043D01*
X263173Y459043D01*
G37*
%LPD*%
%LPC*%
G36*
X263173Y205043D02*
X263173Y205043D01*
X263173Y213561D01*
X270984Y213561D01*
X271631Y213388D01*
X272210Y213053D01*
X272683Y212580D01*
X273018Y212001D01*
X273191Y211354D01*
X273191Y205043D01*
X263173Y205043D01*
G37*
%LPD*%
%LPC*%
G36*
X19333Y205043D02*
X19333Y205043D01*
X19333Y213561D01*
X27144Y213561D01*
X27791Y213388D01*
X28370Y213053D01*
X28843Y212580D01*
X29178Y212001D01*
X29351Y211354D01*
X29351Y205043D01*
X19333Y205043D01*
G37*
%LPD*%
%LPC*%
G36*
X6269Y484443D02*
X6269Y484443D01*
X6269Y490754D01*
X6442Y491401D01*
X6777Y491980D01*
X7250Y492453D01*
X7829Y492788D01*
X8476Y492961D01*
X16287Y492961D01*
X16287Y484443D01*
X6269Y484443D01*
G37*
%LPD*%
%LPC*%
G36*
X6269Y357443D02*
X6269Y357443D01*
X6269Y363754D01*
X6442Y364401D01*
X6777Y364980D01*
X7250Y365453D01*
X7829Y365788D01*
X8476Y365961D01*
X16287Y365961D01*
X16287Y357443D01*
X6269Y357443D01*
G37*
%LPD*%
%LPC*%
G36*
X250109Y459043D02*
X250109Y459043D01*
X250109Y465354D01*
X250282Y466001D01*
X250617Y466580D01*
X251090Y467053D01*
X251669Y467388D01*
X252316Y467561D01*
X260127Y467561D01*
X260127Y459043D01*
X250109Y459043D01*
G37*
%LPD*%
%LPC*%
G36*
X250109Y205043D02*
X250109Y205043D01*
X250109Y211354D01*
X250282Y212001D01*
X250617Y212580D01*
X251090Y213053D01*
X251669Y213388D01*
X252316Y213561D01*
X260127Y213561D01*
X260127Y205043D01*
X250109Y205043D01*
G37*
%LPD*%
%LPC*%
G36*
X6269Y509843D02*
X6269Y509843D01*
X6269Y516154D01*
X6442Y516801D01*
X6777Y517380D01*
X7250Y517853D01*
X7829Y518188D01*
X8476Y518361D01*
X16287Y518361D01*
X16287Y509843D01*
X6269Y509843D01*
G37*
%LPD*%
%LPC*%
G36*
X6269Y459043D02*
X6269Y459043D01*
X6269Y465354D01*
X6442Y466001D01*
X6777Y466580D01*
X7250Y467053D01*
X7829Y467388D01*
X8476Y467561D01*
X16287Y467561D01*
X16287Y459043D01*
X6269Y459043D01*
G37*
%LPD*%
%LPC*%
G36*
X6269Y382843D02*
X6269Y382843D01*
X6269Y389154D01*
X6442Y389801D01*
X6777Y390380D01*
X7250Y390853D01*
X7829Y391188D01*
X8476Y391361D01*
X16287Y391361D01*
X16287Y382843D01*
X6269Y382843D01*
G37*
%LPD*%
%LPC*%
G36*
X6269Y205043D02*
X6269Y205043D01*
X6269Y211354D01*
X6442Y212001D01*
X6777Y212580D01*
X7250Y213053D01*
X7829Y213388D01*
X8476Y213561D01*
X16287Y213561D01*
X16287Y205043D01*
X6269Y205043D01*
G37*
%LPD*%
%LPC*%
G36*
X19333Y193479D02*
X19333Y193479D01*
X19333Y201997D01*
X29351Y201997D01*
X29351Y195686D01*
X29178Y195039D01*
X28843Y194460D01*
X28370Y193987D01*
X27791Y193652D01*
X27144Y193479D01*
X19333Y193479D01*
G37*
%LPD*%
%LPC*%
G36*
X19333Y498279D02*
X19333Y498279D01*
X19333Y506797D01*
X29351Y506797D01*
X29351Y500486D01*
X29178Y499839D01*
X28843Y499260D01*
X28370Y498787D01*
X27791Y498452D01*
X27144Y498279D01*
X19333Y498279D01*
G37*
%LPD*%
%LPC*%
G36*
X19333Y472879D02*
X19333Y472879D01*
X19333Y481397D01*
X29351Y481397D01*
X29351Y475086D01*
X29178Y474439D01*
X28843Y473860D01*
X28370Y473387D01*
X27791Y473052D01*
X27144Y472879D01*
X19333Y472879D01*
G37*
%LPD*%
%LPC*%
G36*
X19333Y447479D02*
X19333Y447479D01*
X19333Y455997D01*
X29351Y455997D01*
X29351Y449686D01*
X29178Y449039D01*
X28843Y448460D01*
X28370Y447987D01*
X27791Y447652D01*
X27144Y447479D01*
X19333Y447479D01*
G37*
%LPD*%
%LPC*%
G36*
X263173Y193479D02*
X263173Y193479D01*
X263173Y201997D01*
X273191Y201997D01*
X273191Y195686D01*
X273018Y195039D01*
X272683Y194460D01*
X272210Y193987D01*
X271631Y193652D01*
X270984Y193479D01*
X263173Y193479D01*
G37*
%LPD*%
%LPC*%
G36*
X263173Y498279D02*
X263173Y498279D01*
X263173Y506797D01*
X273191Y506797D01*
X273191Y500486D01*
X273018Y499839D01*
X272683Y499260D01*
X272210Y498787D01*
X271631Y498452D01*
X270984Y498279D01*
X263173Y498279D01*
G37*
%LPD*%
%LPC*%
G36*
X263173Y447479D02*
X263173Y447479D01*
X263173Y455997D01*
X273191Y455997D01*
X273191Y449686D01*
X273018Y449039D01*
X272683Y448460D01*
X272210Y447987D01*
X271631Y447652D01*
X270984Y447479D01*
X263173Y447479D01*
G37*
%LPD*%
%LPC*%
G36*
X252316Y193479D02*
X252316Y193479D01*
X251669Y193652D01*
X251090Y193987D01*
X250617Y194460D01*
X250282Y195039D01*
X250109Y195686D01*
X250109Y201997D01*
X260127Y201997D01*
X260127Y193479D01*
X252316Y193479D01*
G37*
%LPD*%
%LPC*%
G36*
X8476Y472879D02*
X8476Y472879D01*
X7829Y473052D01*
X7250Y473387D01*
X6777Y473860D01*
X6442Y474439D01*
X6269Y475086D01*
X6269Y481397D01*
X16287Y481397D01*
X16287Y472879D01*
X8476Y472879D01*
G37*
%LPD*%
%LPC*%
G36*
X8476Y447479D02*
X8476Y447479D01*
X7829Y447652D01*
X7250Y447987D01*
X6777Y448460D01*
X6442Y449039D01*
X6269Y449686D01*
X6269Y455997D01*
X16287Y455997D01*
X16287Y447479D01*
X8476Y447479D01*
G37*
%LPD*%
%LPC*%
G36*
X8476Y193479D02*
X8476Y193479D01*
X7829Y193652D01*
X7250Y193987D01*
X6777Y194460D01*
X6442Y195039D01*
X6269Y195686D01*
X6269Y201997D01*
X16287Y201997D01*
X16287Y193479D01*
X8476Y193479D01*
G37*
%LPD*%
%LPC*%
G36*
X8476Y345879D02*
X8476Y345879D01*
X7829Y346052D01*
X7250Y346387D01*
X6777Y346860D01*
X6442Y347439D01*
X6269Y348086D01*
X6269Y354397D01*
X16287Y354397D01*
X16287Y345879D01*
X8476Y345879D01*
G37*
%LPD*%
%LPC*%
G36*
X8476Y371279D02*
X8476Y371279D01*
X7829Y371452D01*
X7250Y371787D01*
X6777Y372260D01*
X6442Y372839D01*
X6269Y373486D01*
X6269Y379797D01*
X16287Y379797D01*
X16287Y371279D01*
X8476Y371279D01*
G37*
%LPD*%
%LPC*%
G36*
X252316Y498279D02*
X252316Y498279D01*
X251669Y498452D01*
X251090Y498787D01*
X250617Y499260D01*
X250282Y499839D01*
X250109Y500486D01*
X250109Y506797D01*
X260127Y506797D01*
X260127Y498279D01*
X252316Y498279D01*
G37*
%LPD*%
%LPC*%
G36*
X8476Y498279D02*
X8476Y498279D01*
X7829Y498452D01*
X7250Y498787D01*
X6777Y499260D01*
X6442Y499839D01*
X6269Y500486D01*
X6269Y506797D01*
X16287Y506797D01*
X16287Y498279D01*
X8476Y498279D01*
G37*
%LPD*%
%LPC*%
G36*
X81105Y20867D02*
X81105Y20867D01*
X81105Y31190D01*
X82378Y30989D01*
X84165Y30408D01*
X85839Y29555D01*
X87360Y28450D01*
X88688Y27122D01*
X89793Y25601D01*
X90646Y23927D01*
X91227Y22140D01*
X91428Y20867D01*
X81105Y20867D01*
G37*
%LPD*%
%LPC*%
G36*
X92954Y119023D02*
X92954Y119023D01*
X93155Y120296D01*
X93736Y122083D01*
X94589Y123757D01*
X95694Y125278D01*
X97022Y126606D01*
X98543Y127711D01*
X100217Y128564D01*
X102004Y129145D01*
X103277Y129346D01*
X103277Y119023D01*
X92954Y119023D01*
G37*
%LPD*%
%LPC*%
G36*
X106323Y115977D02*
X106323Y115977D01*
X116646Y115977D01*
X116445Y114704D01*
X115864Y112917D01*
X115011Y111243D01*
X113906Y109722D01*
X112578Y108394D01*
X111057Y107289D01*
X109383Y106436D01*
X107596Y105855D01*
X106323Y105654D01*
X106323Y115977D01*
G37*
%LPD*%
%LPC*%
G36*
X67736Y20867D02*
X67736Y20867D01*
X67937Y22140D01*
X68518Y23927D01*
X69371Y25601D01*
X70476Y27122D01*
X71804Y28450D01*
X73325Y29555D01*
X74999Y30408D01*
X76786Y30989D01*
X78059Y31190D01*
X78059Y20867D01*
X67736Y20867D01*
G37*
%LPD*%
%LPC*%
G36*
X81105Y17821D02*
X81105Y17821D01*
X91428Y17821D01*
X91227Y16548D01*
X90646Y14761D01*
X89793Y13087D01*
X88688Y11566D01*
X87360Y10238D01*
X85839Y9133D01*
X84165Y8280D01*
X82378Y7699D01*
X81105Y7498D01*
X81105Y17821D01*
G37*
%LPD*%
%LPC*%
G36*
X76786Y7699D02*
X76786Y7699D01*
X74999Y8280D01*
X73325Y9133D01*
X71804Y10238D01*
X70476Y11566D01*
X69371Y13087D01*
X68518Y14761D01*
X67937Y16548D01*
X67736Y17821D01*
X78059Y17821D01*
X78059Y7498D01*
X76786Y7699D01*
G37*
%LPD*%
%LPC*%
G36*
X102004Y105855D02*
X102004Y105855D01*
X100217Y106436D01*
X98543Y107289D01*
X97022Y108394D01*
X95694Y109722D01*
X94589Y111243D01*
X93736Y112917D01*
X93155Y114704D01*
X92954Y115977D01*
X103277Y115977D01*
X103277Y105654D01*
X102004Y105855D01*
G37*
%LPD*%
%LPC*%
G36*
X302193Y169483D02*
X302193Y169483D01*
X302193Y179292D01*
X303347Y179109D01*
X305058Y178553D01*
X306661Y177736D01*
X308117Y176679D01*
X309389Y175407D01*
X310446Y173951D01*
X311263Y172348D01*
X311819Y170637D01*
X312002Y169483D01*
X302193Y169483D01*
G37*
%LPD*%
%LPC*%
G36*
X451533Y172833D02*
X451533Y172833D01*
X451533Y182642D01*
X452687Y182459D01*
X454398Y181903D01*
X456001Y181086D01*
X457457Y180029D01*
X458729Y178757D01*
X459786Y177301D01*
X460603Y175698D01*
X461159Y173987D01*
X461342Y172833D01*
X451533Y172833D01*
G37*
%LPD*%
%LPC*%
G36*
X556193Y499683D02*
X556193Y499683D01*
X556193Y509492D01*
X557347Y509309D01*
X559058Y508753D01*
X560661Y507936D01*
X562117Y506879D01*
X563389Y505607D01*
X564446Y504151D01*
X565263Y502548D01*
X565819Y500837D01*
X566002Y499683D01*
X556193Y499683D01*
G37*
%LPD*%
%LPC*%
G36*
X556193Y347283D02*
X556193Y347283D01*
X556193Y357092D01*
X557347Y356909D01*
X559058Y356353D01*
X560661Y355536D01*
X562117Y354479D01*
X563389Y353207D01*
X564446Y351751D01*
X565263Y350148D01*
X565819Y348437D01*
X566002Y347283D01*
X556193Y347283D01*
G37*
%LPD*%
%LPC*%
G36*
X302193Y166437D02*
X302193Y166437D01*
X312002Y166437D01*
X311819Y165283D01*
X311263Y163572D01*
X310446Y161969D01*
X309389Y160513D01*
X308117Y159241D01*
X306661Y158184D01*
X305058Y157367D01*
X303347Y156811D01*
X302193Y156628D01*
X302193Y166437D01*
G37*
%LPD*%
%LPC*%
G36*
X543338Y499683D02*
X543338Y499683D01*
X543521Y500837D01*
X544077Y502548D01*
X544894Y504151D01*
X545951Y505607D01*
X547223Y506879D01*
X548679Y507936D01*
X550282Y508753D01*
X551993Y509309D01*
X553147Y509492D01*
X553147Y499683D01*
X543338Y499683D01*
G37*
%LPD*%
%LPC*%
G36*
X556193Y496637D02*
X556193Y496637D01*
X566002Y496637D01*
X565819Y495483D01*
X565263Y493772D01*
X564446Y492169D01*
X563389Y490713D01*
X562117Y489441D01*
X560661Y488384D01*
X559058Y487567D01*
X557347Y487011D01*
X556193Y486828D01*
X556193Y496637D01*
G37*
%LPD*%
%LPC*%
G36*
X543338Y347283D02*
X543338Y347283D01*
X543521Y348437D01*
X544077Y350148D01*
X544894Y351751D01*
X545951Y353207D01*
X547223Y354479D01*
X548679Y355536D01*
X550282Y356353D01*
X551993Y356909D01*
X553147Y357092D01*
X553147Y347283D01*
X543338Y347283D01*
G37*
%LPD*%
%LPC*%
G36*
X556193Y344237D02*
X556193Y344237D01*
X566002Y344237D01*
X565819Y343083D01*
X565263Y341372D01*
X564446Y339769D01*
X563389Y338313D01*
X562117Y337041D01*
X560661Y335984D01*
X559058Y335167D01*
X557347Y334611D01*
X556193Y334428D01*
X556193Y344237D01*
G37*
%LPD*%
%LPC*%
G36*
X438678Y172833D02*
X438678Y172833D01*
X438861Y173987D01*
X439417Y175698D01*
X440234Y177301D01*
X441291Y178757D01*
X442563Y180029D01*
X444019Y181086D01*
X445622Y181903D01*
X447333Y182459D01*
X448487Y182642D01*
X448487Y172833D01*
X438678Y172833D01*
G37*
%LPD*%
%LPC*%
G36*
X289338Y169483D02*
X289338Y169483D01*
X289521Y170637D01*
X290077Y172348D01*
X290894Y173951D01*
X291951Y175407D01*
X293223Y176679D01*
X294679Y177736D01*
X296282Y178553D01*
X297993Y179109D01*
X299147Y179292D01*
X299147Y169483D01*
X289338Y169483D01*
G37*
%LPD*%
%LPC*%
G36*
X451533Y169787D02*
X451533Y169787D01*
X461342Y169787D01*
X461159Y168633D01*
X460603Y166922D01*
X459786Y165319D01*
X458729Y163863D01*
X457457Y162591D01*
X456001Y161534D01*
X454398Y160717D01*
X452687Y160161D01*
X451533Y159978D01*
X451533Y169787D01*
G37*
%LPD*%
%LPC*%
G36*
X551993Y487011D02*
X551993Y487011D01*
X550282Y487567D01*
X548679Y488384D01*
X547223Y489441D01*
X545951Y490713D01*
X544894Y492169D01*
X544077Y493772D01*
X543521Y495483D01*
X543338Y496637D01*
X553147Y496637D01*
X553147Y486828D01*
X551993Y487011D01*
G37*
%LPD*%
%LPC*%
G36*
X447333Y160161D02*
X447333Y160161D01*
X445622Y160717D01*
X444019Y161534D01*
X442563Y162591D01*
X441291Y163863D01*
X440234Y165319D01*
X439417Y166922D01*
X438861Y168633D01*
X438678Y169787D01*
X448487Y169787D01*
X448487Y159978D01*
X447333Y160161D01*
G37*
%LPD*%
%LPC*%
G36*
X551993Y334611D02*
X551993Y334611D01*
X550282Y335167D01*
X548679Y335984D01*
X547223Y337041D01*
X545951Y338313D01*
X544894Y339769D01*
X544077Y341372D01*
X543521Y343083D01*
X543338Y344237D01*
X553147Y344237D01*
X553147Y334428D01*
X551993Y334611D01*
G37*
%LPD*%
%LPC*%
G36*
X297993Y156811D02*
X297993Y156811D01*
X296282Y157367D01*
X294679Y158184D01*
X293223Y159241D01*
X291951Y160513D01*
X290894Y161969D01*
X290077Y163572D01*
X289521Y165283D01*
X289338Y166437D01*
X299147Y166437D01*
X299147Y156628D01*
X297993Y156811D01*
G37*
%LPD*%
%LPC*%
G36*
X519460Y255814D02*
X519460Y255814D01*
X519636Y264977D01*
X520436Y264850D01*
X522052Y264325D01*
X523566Y263553D01*
X524941Y262555D01*
X526142Y261353D01*
X527141Y259978D01*
X527912Y258464D01*
X528438Y256848D01*
X528629Y255638D01*
X519460Y255814D01*
G37*
%LPD*%
%LPC*%
G36*
X519401Y252768D02*
X519401Y252768D01*
X528564Y252592D01*
X528438Y251792D01*
X527912Y250176D01*
X527141Y248662D01*
X526142Y247287D01*
X524941Y246086D01*
X523566Y245087D01*
X522052Y244315D01*
X520436Y243790D01*
X519225Y243598D01*
X519401Y252768D01*
G37*
%LPD*%
%LPC*%
G36*
X507251Y256048D02*
X507251Y256048D01*
X507378Y256848D01*
X507903Y258464D01*
X508674Y259978D01*
X509673Y261353D01*
X510875Y262555D01*
X512250Y263553D01*
X513764Y264325D01*
X515380Y264850D01*
X516590Y265042D01*
X516414Y255872D01*
X507251Y256048D01*
G37*
%LPD*%
%LPC*%
G36*
X504103Y121153D02*
X504103Y121153D01*
X504103Y130319D01*
X505108Y130160D01*
X506724Y129635D01*
X508238Y128863D01*
X509613Y127864D01*
X510814Y126663D01*
X511813Y125288D01*
X512585Y123774D01*
X513110Y122158D01*
X513269Y121153D01*
X504103Y121153D01*
G37*
%LPD*%
%LPC*%
G36*
X515380Y243790D02*
X515380Y243790D01*
X513764Y244315D01*
X512250Y245087D01*
X510875Y246086D01*
X509673Y247287D01*
X508674Y248662D01*
X507903Y250176D01*
X507378Y251792D01*
X507186Y253002D01*
X516355Y252826D01*
X516180Y243663D01*
X515380Y243790D01*
G37*
%LPD*%
%LPC*%
G36*
X504103Y118107D02*
X504103Y118107D01*
X513269Y118107D01*
X513110Y117102D01*
X512585Y115486D01*
X511813Y113972D01*
X510814Y112597D01*
X509613Y111396D01*
X508238Y110397D01*
X506724Y109625D01*
X505108Y109100D01*
X504103Y108941D01*
X504103Y118107D01*
G37*
%LPD*%
%LPC*%
G36*
X491891Y121153D02*
X491891Y121153D01*
X492050Y122158D01*
X492575Y123774D01*
X493347Y125288D01*
X494346Y126663D01*
X495547Y127864D01*
X496922Y128863D01*
X498436Y129635D01*
X500052Y130160D01*
X501057Y130319D01*
X501057Y121153D01*
X491891Y121153D01*
G37*
%LPD*%
%LPC*%
G36*
X500052Y109100D02*
X500052Y109100D01*
X498436Y109625D01*
X496922Y110397D01*
X495547Y111396D01*
X494346Y112597D01*
X493347Y113972D01*
X492575Y115486D01*
X492050Y117102D01*
X491891Y118107D01*
X501057Y118107D01*
X501057Y108941D01*
X500052Y109100D01*
G37*
%LPD*%
%LPC*%
G36*
X213643Y553023D02*
X213643Y553023D01*
X213643Y557941D01*
X221454Y557941D01*
X222101Y557768D01*
X222680Y557433D01*
X223153Y556960D01*
X223488Y556381D01*
X223661Y555735D01*
X223661Y553023D01*
X213643Y553023D01*
G37*
%LPD*%
%LPC*%
G36*
X71403Y553023D02*
X71403Y553023D01*
X71403Y557941D01*
X79214Y557941D01*
X79861Y557768D01*
X80440Y557433D01*
X80913Y556960D01*
X81248Y556381D01*
X81421Y555735D01*
X81421Y553023D01*
X71403Y553023D01*
G37*
%LPD*%
%LPC*%
G36*
X71403Y471743D02*
X71403Y471743D01*
X71403Y476661D01*
X79214Y476661D01*
X79861Y476488D01*
X80440Y476153D01*
X80913Y475680D01*
X81248Y475101D01*
X81421Y474455D01*
X81421Y471743D01*
X71403Y471743D01*
G37*
%LPD*%
%LPC*%
G36*
X58339Y553023D02*
X58339Y553023D01*
X58339Y555734D01*
X58512Y556381D01*
X58847Y556960D01*
X59320Y557433D01*
X59899Y557768D01*
X60546Y557941D01*
X68357Y557941D01*
X68357Y553023D01*
X58339Y553023D01*
G37*
%LPD*%
%LPC*%
G36*
X200579Y553023D02*
X200579Y553023D01*
X200579Y555734D01*
X200752Y556381D01*
X201087Y556960D01*
X201560Y557433D01*
X202139Y557768D01*
X202786Y557941D01*
X210597Y557941D01*
X210597Y553023D01*
X200579Y553023D01*
G37*
%LPD*%
%LPC*%
G36*
X58339Y471743D02*
X58339Y471743D01*
X58339Y474454D01*
X58512Y475101D01*
X58847Y475680D01*
X59320Y476153D01*
X59899Y476488D01*
X60546Y476661D01*
X68357Y476661D01*
X68357Y471743D01*
X58339Y471743D01*
G37*
%LPD*%
%LPC*%
G36*
X71403Y374879D02*
X71403Y374879D01*
X71403Y379797D01*
X81421Y379797D01*
X81421Y377086D01*
X81248Y376439D01*
X80913Y375860D01*
X80440Y375387D01*
X79861Y375052D01*
X79214Y374879D01*
X71403Y374879D01*
G37*
%LPD*%
%LPC*%
G36*
X213643Y519659D02*
X213643Y519659D01*
X213643Y524577D01*
X223661Y524577D01*
X223661Y521866D01*
X223488Y521219D01*
X223153Y520640D01*
X222680Y520167D01*
X222101Y519832D01*
X221454Y519659D01*
X213643Y519659D01*
G37*
%LPD*%
%LPC*%
G36*
X71403Y519659D02*
X71403Y519659D01*
X71403Y524577D01*
X81421Y524577D01*
X81421Y521866D01*
X81248Y521219D01*
X80913Y520640D01*
X80440Y520167D01*
X79861Y519832D01*
X79214Y519659D01*
X71403Y519659D01*
G37*
%LPD*%
%LPC*%
G36*
X60546Y374879D02*
X60546Y374879D01*
X59899Y375052D01*
X59320Y375387D01*
X58847Y375860D01*
X58512Y376439D01*
X58339Y377086D01*
X58339Y379797D01*
X68357Y379797D01*
X68357Y374879D01*
X60546Y374879D01*
G37*
%LPD*%
%LPC*%
G36*
X202786Y374879D02*
X202786Y374879D01*
X202139Y375052D01*
X201560Y375387D01*
X201087Y375860D01*
X200752Y376439D01*
X200579Y377086D01*
X200579Y379797D01*
X210597Y379797D01*
X210597Y374879D01*
X202786Y374879D01*
G37*
%LPD*%
%LPC*%
G36*
X202786Y519659D02*
X202786Y519659D01*
X202139Y519832D01*
X201560Y520167D01*
X201087Y520640D01*
X200752Y521219D01*
X200579Y521866D01*
X200579Y524577D01*
X210597Y524577D01*
X210597Y519659D01*
X202786Y519659D01*
G37*
%LPD*%
%LPC*%
G36*
X60546Y519659D02*
X60546Y519659D01*
X59899Y519832D01*
X59320Y520167D01*
X58847Y520640D01*
X58512Y521219D01*
X58339Y521866D01*
X58339Y524577D01*
X68357Y524577D01*
X68357Y519659D01*
X60546Y519659D01*
G37*
%LPD*%
%LPC*%
G36*
X554669Y498159D02*
X554669Y498159D01*
X554669Y498161D01*
X554671Y498161D01*
X554671Y498159D01*
X554669Y498159D01*
G37*
%LPD*%
%LPC*%
G36*
X554669Y345759D02*
X554669Y345759D01*
X554669Y345761D01*
X554671Y345761D01*
X554671Y345759D01*
X554669Y345759D01*
G37*
%LPD*%
%LPC*%
G36*
X300669Y167959D02*
X300669Y167959D01*
X300669Y167961D01*
X300671Y167961D01*
X300671Y167959D01*
X300669Y167959D01*
G37*
%LPD*%
%LPC*%
G36*
X450009Y171309D02*
X450009Y171309D01*
X450009Y171311D01*
X450011Y171311D01*
X450011Y171309D01*
X450009Y171309D01*
G37*
%LPD*%
%LPC*%
G36*
X502579Y119629D02*
X502579Y119629D01*
X502579Y119631D01*
X502581Y119631D01*
X502581Y119629D01*
X502579Y119629D01*
G37*
%LPD*%
%LPC*%
G36*
X79581Y19343D02*
X79581Y19343D01*
X79581Y19345D01*
X79583Y19345D01*
X79583Y19343D01*
X79581Y19343D01*
G37*
%LPD*%
%LPC*%
G36*
X104799Y117499D02*
X104799Y117499D01*
X104799Y117501D01*
X104801Y117501D01*
X104801Y117499D01*
X104799Y117499D01*
G37*
%LPD*%
%LPC*%
G36*
X69879Y526099D02*
X69879Y526099D01*
X69879Y526101D01*
X69881Y526101D01*
X69881Y526099D01*
X69879Y526099D01*
G37*
%LPD*%
%LPC*%
G36*
X69879Y551499D02*
X69879Y551499D01*
X69879Y551501D01*
X69881Y551501D01*
X69881Y551499D01*
X69879Y551499D01*
G37*
%LPD*%
%LPC*%
G36*
X69879Y470219D02*
X69879Y470219D01*
X69879Y470221D01*
X69881Y470221D01*
X69881Y470219D01*
X69879Y470219D01*
G37*
%LPD*%
%LPC*%
G36*
X17809Y508319D02*
X17809Y508319D01*
X17809Y508321D01*
X17811Y508321D01*
X17811Y508319D01*
X17809Y508319D01*
G37*
%LPD*%
%LPC*%
G36*
X261649Y457519D02*
X261649Y457519D01*
X261649Y457521D01*
X261651Y457521D01*
X261651Y457519D01*
X261649Y457519D01*
G37*
%LPD*%
%LPC*%
G36*
X69879Y381319D02*
X69879Y381319D01*
X69879Y381321D01*
X69881Y381321D01*
X69881Y381319D01*
X69879Y381319D01*
G37*
%LPD*%
%LPC*%
G36*
X17809Y203519D02*
X17809Y203519D01*
X17809Y203521D01*
X17811Y203521D01*
X17811Y203519D01*
X17809Y203519D01*
G37*
%LPD*%
%LPC*%
G36*
X69879Y538799D02*
X69879Y538799D01*
X69879Y538801D01*
X69881Y538801D01*
X69881Y538799D01*
X69879Y538799D01*
G37*
%LPD*%
%LPC*%
G36*
X17809Y482919D02*
X17809Y482919D01*
X17809Y482921D01*
X17811Y482921D01*
X17811Y482919D01*
X17809Y482919D01*
G37*
%LPD*%
%LPC*%
G36*
X17809Y457519D02*
X17809Y457519D01*
X17809Y457521D01*
X17811Y457521D01*
X17811Y457519D01*
X17809Y457519D01*
G37*
%LPD*%
%LPC*%
G36*
X261649Y203519D02*
X261649Y203519D01*
X261649Y203521D01*
X261651Y203521D01*
X261651Y203519D01*
X261649Y203519D01*
G37*
%LPD*%
%LPC*%
G36*
X517907Y254319D02*
X517907Y254319D01*
X517907Y254321D01*
X517909Y254321D01*
X517909Y254319D01*
X517907Y254319D01*
G37*
%LPD*%
D10*
X300670Y40960D03*
X300670Y66360D03*
X300670Y91760D03*
X300670Y117160D03*
X300670Y142560D03*
X300670Y167960D03*
X300670Y193360D03*
X300670Y218760D03*
X300670Y244160D03*
X300670Y269560D03*
X300670Y294960D03*
X300670Y320360D03*
X300670Y345760D03*
X300670Y371160D03*
X300670Y396560D03*
X300670Y421960D03*
X300670Y447360D03*
X300670Y472760D03*
X300670Y498160D03*
X554670Y498160D03*
X554670Y472760D03*
X554670Y447360D03*
X554670Y421960D03*
X554670Y396560D03*
X554670Y371160D03*
X554670Y345760D03*
X554670Y320360D03*
X554670Y294960D03*
X554670Y269560D03*
X554670Y244160D03*
X554670Y218760D03*
X554670Y193360D03*
X554670Y167960D03*
X554670Y142560D03*
X554670Y117160D03*
X554670Y91760D03*
X554670Y66360D03*
X554670Y40960D03*
X316860Y577790D03*
X291460Y577790D03*
X266060Y577790D03*
X240660Y577790D03*
D11*
X517908Y254320D03*
D12*
G36*
X484817Y263211D02*
X501323Y262895D01*
X501007Y246389D01*
X484501Y246705D01*
X484817Y263211D01*
G37*
D13*
X79582Y64556D03*
X14558Y64556D03*
X79582Y19344D03*
X14558Y19344D03*
D11*
X502580Y119630D03*
D14*
X502580Y94630D03*
D10*
X450010Y95110D03*
X450010Y120510D03*
X450010Y145910D03*
X450010Y171310D03*
D15*
X17810Y508320D03*
X17810Y482920D03*
X17810Y457520D03*
X17810Y381320D03*
X17810Y355920D03*
X17810Y330520D03*
X17810Y305120D03*
X17810Y279720D03*
X17810Y254320D03*
X17810Y228920D03*
X17810Y203520D03*
X261650Y203520D03*
X261650Y228920D03*
X261650Y254320D03*
X261650Y279720D03*
X261650Y305120D03*
X261650Y330520D03*
X261650Y355920D03*
X261650Y381320D03*
X261650Y457520D03*
X261650Y482920D03*
X261650Y508320D03*
D16*
X69880Y551500D03*
X69880Y538800D03*
X69880Y526100D03*
X69880Y470220D03*
X69880Y457520D03*
X69880Y444820D03*
X69880Y432120D03*
X69880Y419420D03*
X69880Y406720D03*
X69880Y394020D03*
X69880Y381320D03*
X212120Y381320D03*
X212120Y394020D03*
X212120Y406720D03*
X212120Y419420D03*
X212120Y432120D03*
X212120Y444820D03*
X212120Y457520D03*
X212120Y470220D03*
X212120Y526100D03*
X212120Y538800D03*
X212120Y551500D03*
D17*
X151500Y80000D03*
X233500Y80000D03*
D13*
X104800Y117500D03*
X117500Y136550D03*
X130200Y117500D03*
D18*
X174950Y147500D03*
X210050Y147500D03*
D19*
X12700Y584200D03*
X38100Y584200D03*
X63500Y584200D03*
X88900Y584200D03*
X114300Y584200D03*
X139700Y584200D03*
X165100Y584200D03*
X190500Y584200D03*
X215900Y584200D03*
X342900Y584200D03*
X368300Y584200D03*
X393700Y584200D03*
X419100Y584200D03*
X444500Y584200D03*
X469900Y584200D03*
X495300Y584200D03*
X520700Y584200D03*
X546100Y584200D03*
X12700Y558800D03*
X12700Y533400D03*
X12700Y444500D03*
X12700Y419100D03*
X12700Y177800D03*
X12700Y152400D03*
X12700Y114300D03*
X139700Y12700D03*
X165100Y12700D03*
X190500Y12700D03*
X215900Y12700D03*
X241300Y12700D03*
X266700Y12700D03*
X330200Y12700D03*
X355600Y12700D03*
X381000Y12700D03*
X406400Y12700D03*
X533400Y12700D03*
X368300Y355600D03*
X406400Y355600D03*
X444500Y355600D03*
X495300Y355600D03*
X368300Y304800D03*
X406400Y304800D03*
X472000Y304800D03*
X495300Y304800D03*
X342900Y495300D03*
X381000Y495300D03*
X419100Y495300D03*
X457200Y495300D03*
X495300Y495300D03*
X101600Y330200D03*
X152400Y330200D03*
X101600Y508000D03*
X101600Y457200D03*
X101600Y406400D03*
X165100Y508000D03*
X165100Y457200D03*
D20*
X482460Y19960D03*
X503690Y19960D03*
X519430Y208280D03*
D19*
X30480Y156210D03*
D21*
X132080Y156210D02*
X175260Y199390D01*
X132080Y156210D02*
X30480Y156210D01*
X187960Y353597D02*
X187960Y475718D01*
X175260Y340897D02*
X175260Y199390D01*
X175260Y340897D02*
X187960Y353597D01*
X187960Y475718D02*
X234212Y521970D01*
X283210Y521970D01*
X300670Y504510D01*
X300670Y498160D01*
D22*
X303210Y498160D01*
X332740Y468630D02*
X332740Y398780D01*
X349250Y382270D01*
X332740Y468630D02*
X303210Y498160D01*
D19*
X349250Y382270D03*
X356870Y382270D03*
X364490Y382270D03*
D22*
X349250Y382270D01*
D20*
X492760Y208280D03*
X24130Y132080D03*
D23*
X356870Y382270D02*
X364490Y382270D01*
D24*
X226630Y419420D02*
X212120Y419420D01*
X226630Y419420D02*
X234030Y412020D01*
X234030Y344949D01*
X238570Y340409D01*
X238570Y317619D02*
X243110Y313079D01*
X243110Y305459D01*
X246380Y302189D01*
X246380Y284480D02*
X251460Y279400D01*
X261330Y279400D01*
X261650Y279720D01*
X238570Y317619D02*
X238570Y340409D01*
X246380Y302189D02*
X246380Y284480D01*
D19*
X196850Y419100D03*
D23*
X197170Y419420D02*
X212120Y419420D01*
X197170Y419420D02*
X196850Y419100D01*
D24*
X537210Y458470D02*
X537210Y474980D01*
X537210Y458470D02*
X548320Y447360D01*
X554670Y447360D01*
X300990Y520700D02*
X266060Y555630D01*
X300990Y520700D02*
X491490Y520700D01*
X537210Y474980D01*
X266060Y555630D02*
X266060Y577790D01*
X532670Y473099D02*
X532670Y456589D01*
X537210Y452049D01*
X552130Y371160D02*
X554670Y371160D01*
X240665Y573405D02*
X240660Y573410D01*
X240665Y573405D02*
X299180Y514890D01*
X490879Y514890D01*
X532670Y473099D01*
X537210Y452049D02*
X537210Y386080D01*
X552130Y371160D01*
X240665Y577785D02*
X240660Y577790D01*
X240665Y577785D02*
X240665Y573405D01*
X229900Y432120D02*
X212120Y432120D01*
X229900Y432120D02*
X238570Y423450D01*
X238570Y346829D01*
X243110Y342289D01*
X243110Y319500D02*
X247650Y314960D01*
X247650Y307340D01*
X249870Y305120D01*
X261650Y305120D01*
X243110Y319500D02*
X243110Y342289D01*
D23*
X540007Y320360D02*
X554670Y320360D01*
X321887Y365760D02*
X321310Y365760D01*
X519627Y340740D02*
X540007Y320360D01*
X519627Y340740D02*
X346907Y340740D01*
X321887Y365760D01*
D19*
X321310Y365760D03*
D23*
X276540Y305120D02*
X261650Y305120D01*
X276540Y305120D02*
X276860Y304800D01*
D19*
X276860Y304800D03*
D24*
X225081Y470220D02*
X212120Y470220D01*
X261620Y381350D02*
X261650Y381320D01*
X261620Y381350D02*
X261620Y382270D01*
X261620Y393700D01*
X252190Y403130D01*
X252190Y443111D02*
X225081Y470220D01*
X252190Y443111D02*
X252190Y403130D01*
D23*
X528320Y326390D02*
X528320Y304800D01*
X538160Y294960D01*
X554670Y294960D01*
X345250Y336740D02*
X323850Y358140D01*
X284480Y358140D01*
X280670Y361950D02*
X280670Y374650D01*
X273050Y382270D01*
X261620Y382270D01*
X280670Y361950D02*
X284480Y358140D01*
X517970Y336740D02*
X528320Y326390D01*
X517970Y336740D02*
X345250Y336740D01*
D24*
X231360Y457520D02*
X212120Y457520D01*
X231360Y457520D02*
X247650Y441230D01*
X247650Y359410D01*
X251140Y355920D02*
X261650Y355920D01*
X251140Y355920D02*
X247650Y359410D01*
D23*
X261650Y355920D02*
X275270Y355920D01*
X287020Y344170D02*
X287020Y336550D01*
X290830Y332740D01*
X515430Y332740D02*
X524320Y323850D01*
X524320Y303143D01*
X538480Y288983D02*
X538480Y278130D01*
X538480Y288983D02*
X524320Y303143D01*
X538480Y278130D02*
X547050Y269560D01*
X554670Y269560D01*
X287020Y344170D02*
X275270Y355920D01*
X290830Y332740D02*
X515430Y332740D01*
D24*
X525780Y146050D02*
X554670Y117160D01*
X525780Y146050D02*
X450150Y146050D01*
X450010Y145910D01*
D21*
X69880Y406720D02*
X69560Y406400D01*
X17810Y254320D02*
X18130Y254000D01*
D19*
X55880Y246380D03*
D25*
X43180Y246380D01*
X35008Y254552D02*
X35008Y276263D01*
X35008Y254552D02*
X43180Y246380D01*
X34777Y254320D02*
X17810Y254320D01*
X34777Y254320D02*
X35008Y254552D01*
X35008Y276263D02*
X48418Y289673D01*
X48418Y401478D01*
X53660Y406720D02*
X69880Y406720D01*
X53660Y406720D02*
X48418Y401478D01*
D22*
X300670Y40960D02*
X360960Y40960D01*
X415110Y95110D02*
X450010Y95110D01*
X415110Y95110D02*
X360960Y40960D01*
X251540Y40960D02*
X236064Y56436D01*
D26*
X222500Y80000D03*
D22*
X233500Y80000D02*
X236064Y77436D01*
X236064Y56436D01*
D24*
X233500Y80000D02*
X222500Y80000D01*
D22*
X251540Y40960D02*
X300670Y40960D01*
X450010Y95110D02*
X502100Y95110D01*
X502580Y94630D01*
D20*
X482460Y46230D03*
X503690Y46230D03*
D25*
X63500Y246380D02*
X55880Y246380D01*
D19*
X63500Y246380D03*
D24*
X79582Y125302D02*
X79582Y64556D01*
X105188Y150908D02*
X134276Y150908D01*
X180562Y197194D02*
X180562Y336550D01*
X184372Y340360D01*
X185420Y340360D01*
X105188Y150908D02*
X79582Y125302D01*
X134276Y150908D02*
X180562Y197194D01*
D19*
X185420Y340360D03*
D20*
X68580Y132080D03*
D24*
X212120Y406720D02*
X225900Y406720D01*
X229490Y403130D01*
X229490Y343068D01*
X234030Y338528D01*
X234030Y315739D02*
X238570Y311199D01*
X238570Y303579D02*
X241840Y300309D01*
X241840Y282599D01*
X247650Y276789D02*
X247650Y257810D01*
X251140Y254320D01*
X261650Y254320D01*
X234030Y315739D02*
X234030Y338528D01*
X238570Y311199D02*
X238570Y303579D01*
X241840Y282599D02*
X247650Y276789D01*
D23*
X261650Y254320D02*
X276540Y254320D01*
X276860Y254000D01*
D19*
X276860Y254000D03*
D24*
X222090Y394020D02*
X212120Y394020D01*
X222090Y394020D02*
X224950Y391160D01*
X224950Y341188D01*
X229490Y336648D01*
X229490Y313858D02*
X234030Y309318D01*
X234030Y301698D02*
X237300Y298428D01*
X237300Y280719D02*
X243110Y274909D01*
X247650Y251389D02*
X247650Y231140D01*
X249870Y228920D01*
X261650Y228920D01*
X229490Y313858D02*
X229490Y336648D01*
X234030Y309318D02*
X234030Y301698D01*
X237300Y298428D02*
X237300Y280719D01*
X243110Y274909D02*
X243110Y255929D01*
X247650Y251389D01*
D23*
X261650Y228920D02*
X276540Y228920D01*
X276860Y228600D01*
D19*
X276860Y228600D03*
D24*
X226820Y444820D02*
X212120Y444820D01*
X226820Y444820D02*
X243110Y428530D01*
X243110Y348710D01*
X247650Y344170D02*
X247650Y334010D01*
X251140Y330520D01*
X261650Y330520D01*
X247650Y344170D02*
X243110Y348710D01*
D23*
X261650Y330520D02*
X277810Y330520D01*
X287020Y321310D02*
X287020Y256540D01*
X299400Y244160D01*
X300670Y244160D01*
X287020Y321310D02*
X277810Y330520D01*
D24*
X69880Y444820D02*
X53660Y444820D01*
X33020Y334010D02*
X29210Y330200D01*
X18130Y330200D01*
X17810Y330520D01*
X33020Y424180D02*
X53660Y444820D01*
X33020Y424180D02*
X33020Y334010D01*
X17810Y330520D02*
X17810Y321280D01*
X20320Y318770D01*
X30480Y318770D01*
D19*
X30480Y318770D03*
D24*
X69560Y431800D02*
X69880Y432120D01*
X52800Y431800D02*
X37560Y416560D01*
X32070Y305120D02*
X17810Y305120D01*
X52800Y431800D02*
X69560Y431800D01*
X37560Y416560D02*
X37560Y310610D01*
X32070Y305120D01*
D19*
X30480Y292100D03*
D24*
X21590Y292100D01*
X17810Y295880D02*
X17810Y305120D01*
X17810Y295880D02*
X21590Y292100D01*
D19*
X55880Y228600D03*
D25*
X55560Y228920D02*
X17810Y228920D01*
X55560Y228920D02*
X55880Y228600D01*
D24*
X52580Y419420D02*
X69880Y419420D01*
X52580Y419420D02*
X42100Y408940D01*
X42100Y292290D01*
X29210Y279400D01*
X18130Y279400D01*
X17810Y279720D01*
X130200Y117500D02*
X147500Y117500D01*
X152500Y112500D01*
X152500Y85231D01*
X151730Y84461D01*
X151730Y80230D01*
X151500Y80000D01*
D26*
X162500Y80000D03*
D24*
X151500Y80000D01*
X117500Y136550D02*
X124818Y143868D01*
X133657Y143868D01*
X137289Y147500D01*
D20*
X171450Y147320D03*
D24*
X170180Y147500D02*
X137289Y147500D01*
D23*
X170180Y147500D02*
X174950Y147500D01*
X174770Y147320D01*
X171450Y147320D01*
D24*
X289810Y182500D02*
X300670Y193360D01*
X289810Y182500D02*
X245000Y182500D01*
X235000Y172500D01*
X235000Y157500D01*
X225000Y147500D01*
D20*
X214630Y147320D03*
D24*
X218440Y147500D02*
X219710Y147500D01*
X225000Y147500D01*
D23*
X218440Y147500D02*
X214450Y147500D01*
X214630Y147320D01*
X214450Y147500D02*
X210820Y147500D01*
X210050Y147500D01*
D24*
X210230Y147320D02*
X214630Y147320D01*
X210230Y147320D02*
X210050Y147500D01*
X211000Y147320D02*
X214630Y147320D01*
X211000Y147320D02*
X210820Y147500D01*
X210050Y147500D02*
X218440Y147500D01*
D19*
X369570Y548640D03*
X433070Y534670D03*
D25*
X419100Y548640D01*
X369570Y548640D01*
M02*
