G04 EAGLE Gerber RS-274X export*
G75*
%MOMM*%
%FSLAX34Y34*%
%LPD*%
%IN*%
%IPPOS*%
%AMOC8*
5,1,8,0,0,1.08239X$1,22.5*%
G01*
%ADD10C,0.254000*%


D10*
X0Y0D02*
X571500Y0D01*
X571500Y594400D01*
X0Y594400D01*
X0Y0D01*
X458500Y244568D02*
X458432Y243706D01*
X458297Y242852D01*
X458095Y242012D01*
X457828Y241190D01*
X457497Y240391D01*
X457105Y239621D01*
X456653Y238884D01*
X456145Y238185D01*
X455584Y237527D01*
X454973Y236916D01*
X454315Y236355D01*
X453616Y235847D01*
X452879Y235395D01*
X452109Y235003D01*
X451310Y234672D01*
X450488Y234405D01*
X449648Y234203D01*
X448794Y234068D01*
X447932Y234000D01*
X447068Y234000D01*
X446206Y234068D01*
X445352Y234203D01*
X444512Y234405D01*
X443690Y234672D01*
X442891Y235003D01*
X442121Y235395D01*
X441384Y235847D01*
X440685Y236355D01*
X440027Y236916D01*
X439416Y237527D01*
X438855Y238185D01*
X438347Y238884D01*
X437895Y239621D01*
X437503Y240391D01*
X437172Y241190D01*
X436905Y242012D01*
X436703Y242852D01*
X436568Y243706D01*
X436500Y244568D01*
X436500Y245432D01*
X436568Y246294D01*
X436703Y247148D01*
X436905Y247988D01*
X437172Y248810D01*
X437503Y249609D01*
X437895Y250379D01*
X438347Y251116D01*
X438855Y251815D01*
X439416Y252473D01*
X440027Y253084D01*
X440685Y253645D01*
X441384Y254153D01*
X442121Y254605D01*
X442891Y254997D01*
X443690Y255328D01*
X444512Y255595D01*
X445352Y255797D01*
X446206Y255932D01*
X447068Y256000D01*
X447932Y256000D01*
X448794Y255932D01*
X449648Y255797D01*
X450488Y255595D01*
X451310Y255328D01*
X452109Y254997D01*
X452879Y254605D01*
X453616Y254153D01*
X454315Y253645D01*
X454973Y253084D01*
X455584Y252473D01*
X456145Y251815D01*
X456653Y251116D01*
X457105Y250379D01*
X457497Y249609D01*
X457828Y248810D01*
X458095Y247988D01*
X458297Y247148D01*
X458432Y246294D01*
X458500Y245432D01*
X458500Y244568D01*
X458500Y22068D02*
X458432Y21206D01*
X458297Y20352D01*
X458095Y19512D01*
X457828Y18690D01*
X457497Y17891D01*
X457105Y17121D01*
X456653Y16384D01*
X456145Y15685D01*
X455584Y15027D01*
X454973Y14416D01*
X454315Y13855D01*
X453616Y13347D01*
X452879Y12895D01*
X452109Y12503D01*
X451310Y12172D01*
X450488Y11905D01*
X449648Y11703D01*
X448794Y11568D01*
X447932Y11500D01*
X447068Y11500D01*
X446206Y11568D01*
X445352Y11703D01*
X444512Y11905D01*
X443690Y12172D01*
X442891Y12503D01*
X442121Y12895D01*
X441384Y13347D01*
X440685Y13855D01*
X440027Y14416D01*
X439416Y15027D01*
X438855Y15685D01*
X438347Y16384D01*
X437895Y17121D01*
X437503Y17891D01*
X437172Y18690D01*
X436905Y19512D01*
X436703Y20352D01*
X436568Y21206D01*
X436500Y22068D01*
X436500Y22932D01*
X436568Y23794D01*
X436703Y24648D01*
X436905Y25488D01*
X437172Y26310D01*
X437503Y27109D01*
X437895Y27879D01*
X438347Y28616D01*
X438855Y29315D01*
X439416Y29973D01*
X440027Y30584D01*
X440685Y31145D01*
X441384Y31653D01*
X442121Y32105D01*
X442891Y32497D01*
X443690Y32828D01*
X444512Y33095D01*
X445352Y33297D01*
X446206Y33432D01*
X447068Y33500D01*
X447932Y33500D01*
X448794Y33432D01*
X449648Y33297D01*
X450488Y33095D01*
X451310Y32828D01*
X452109Y32497D01*
X452879Y32105D01*
X453616Y31653D01*
X454315Y31145D01*
X454973Y30584D01*
X455584Y29973D01*
X456145Y29315D01*
X456653Y28616D01*
X457105Y27879D01*
X457497Y27109D01*
X457828Y26310D01*
X458095Y25488D01*
X458297Y24648D01*
X458432Y23794D01*
X458500Y22932D01*
X458500Y22068D01*
X121000Y22068D02*
X120932Y21206D01*
X120797Y20352D01*
X120595Y19512D01*
X120328Y18690D01*
X119997Y17891D01*
X119605Y17121D01*
X119153Y16384D01*
X118645Y15685D01*
X118084Y15027D01*
X117473Y14416D01*
X116815Y13855D01*
X116116Y13347D01*
X115379Y12895D01*
X114609Y12503D01*
X113810Y12172D01*
X112988Y11905D01*
X112148Y11703D01*
X111294Y11568D01*
X110432Y11500D01*
X109568Y11500D01*
X108706Y11568D01*
X107852Y11703D01*
X107012Y11905D01*
X106190Y12172D01*
X105391Y12503D01*
X104621Y12895D01*
X103884Y13347D01*
X103185Y13855D01*
X102527Y14416D01*
X101916Y15027D01*
X101355Y15685D01*
X100847Y16384D01*
X100395Y17121D01*
X100003Y17891D01*
X99672Y18690D01*
X99405Y19512D01*
X99203Y20352D01*
X99068Y21206D01*
X99000Y22068D01*
X99000Y22932D01*
X99068Y23794D01*
X99203Y24648D01*
X99405Y25488D01*
X99672Y26310D01*
X100003Y27109D01*
X100395Y27879D01*
X100847Y28616D01*
X101355Y29315D01*
X101916Y29973D01*
X102527Y30584D01*
X103185Y31145D01*
X103884Y31653D01*
X104621Y32105D01*
X105391Y32497D01*
X106190Y32828D01*
X107012Y33095D01*
X107852Y33297D01*
X108706Y33432D01*
X109568Y33500D01*
X110432Y33500D01*
X111294Y33432D01*
X112148Y33297D01*
X112988Y33095D01*
X113810Y32828D01*
X114609Y32497D01*
X115379Y32105D01*
X116116Y31653D01*
X116815Y31145D01*
X117473Y30584D01*
X118084Y29973D01*
X118645Y29315D01*
X119153Y28616D01*
X119605Y27879D01*
X119997Y27109D01*
X120328Y26310D01*
X120595Y25488D01*
X120797Y24648D01*
X120932Y23794D01*
X121000Y22932D01*
X121000Y22068D01*
X453500Y299568D02*
X453432Y298706D01*
X453297Y297852D01*
X453095Y297012D01*
X452828Y296190D01*
X452497Y295391D01*
X452105Y294621D01*
X451653Y293884D01*
X451145Y293185D01*
X450584Y292527D01*
X449973Y291916D01*
X449315Y291355D01*
X448616Y290847D01*
X447879Y290395D01*
X447109Y290003D01*
X446310Y289672D01*
X445488Y289405D01*
X444648Y289203D01*
X443794Y289068D01*
X442932Y289000D01*
X442068Y289000D01*
X441206Y289068D01*
X440352Y289203D01*
X439512Y289405D01*
X438690Y289672D01*
X437891Y290003D01*
X437121Y290395D01*
X436384Y290847D01*
X435685Y291355D01*
X435027Y291916D01*
X434416Y292527D01*
X433855Y293185D01*
X433347Y293884D01*
X432895Y294621D01*
X432503Y295391D01*
X432172Y296190D01*
X431905Y297012D01*
X431703Y297852D01*
X431568Y298706D01*
X431500Y299568D01*
X431500Y300432D01*
X431568Y301294D01*
X431703Y302148D01*
X431905Y302988D01*
X432172Y303810D01*
X432503Y304609D01*
X432895Y305379D01*
X433347Y306116D01*
X433855Y306815D01*
X434416Y307473D01*
X435027Y308084D01*
X435685Y308645D01*
X436384Y309153D01*
X437121Y309605D01*
X437891Y309997D01*
X438690Y310328D01*
X439512Y310595D01*
X440352Y310797D01*
X441206Y310932D01*
X442068Y311000D01*
X442932Y311000D01*
X443794Y310932D01*
X444648Y310797D01*
X445488Y310595D01*
X446310Y310328D01*
X447109Y309997D01*
X447879Y309605D01*
X448616Y309153D01*
X449315Y308645D01*
X449973Y308084D01*
X450584Y307473D01*
X451145Y306815D01*
X451653Y306116D01*
X452105Y305379D01*
X452497Y304609D01*
X452828Y303810D01*
X453095Y302988D01*
X453297Y302148D01*
X453432Y301294D01*
X453500Y300432D01*
X453500Y299568D01*
M02*
