G04 EAGLE Gerber RS-274X export*
G75*
%MOMM*%
%FSLAX34Y34*%
%LPD*%
%IN*%
%IPPOS*%
%AMOC8*
5,1,8,0,0,1.08239X$1,22.5*%
G01*
%ADD10C,0.254000*%


D10*
X0Y0D02*
X571500Y0D01*
X571500Y594400D01*
X0Y594400D01*
X0Y0D01*
X458500Y244568D02*
X458432Y243706D01*
X458297Y242852D01*
X458095Y242012D01*
X457828Y241190D01*
X457497Y240391D01*
X457105Y239621D01*
X456653Y238884D01*
X456145Y238185D01*
X455584Y237527D01*
X454973Y236916D01*
X454315Y236355D01*
X453616Y235847D01*
X452879Y235395D01*
X452109Y235003D01*
X451310Y234672D01*
X450488Y234405D01*
X449648Y234203D01*
X448794Y234068D01*
X447932Y234000D01*
X447068Y234000D01*
X446206Y234068D01*
X445352Y234203D01*
X444512Y234405D01*
X443690Y234672D01*
X442891Y235003D01*
X442121Y235395D01*
X441384Y235847D01*
X440685Y236355D01*
X440027Y236916D01*
X439416Y237527D01*
X438855Y238185D01*
X438347Y238884D01*
X437895Y239621D01*
X437503Y240391D01*
X437172Y241190D01*
X436905Y242012D01*
X436703Y242852D01*
X436568Y243706D01*
X436500Y244568D01*
X436500Y245432D01*
X436568Y246294D01*
X436703Y247148D01*
X436905Y247988D01*
X437172Y248810D01*
X437503Y249609D01*
X437895Y250379D01*
X438347Y251116D01*
X438855Y251815D01*
X439416Y252473D01*
X440027Y253084D01*
X440685Y253645D01*
X441384Y254153D01*
X442121Y254605D01*
X442891Y254997D01*
X443690Y255328D01*
X444512Y255595D01*
X445352Y255797D01*
X446206Y255932D01*
X447068Y256000D01*
X447932Y256000D01*
X448794Y255932D01*
X449648Y255797D01*
X450488Y255595D01*
X451310Y255328D01*
X452109Y254997D01*
X452879Y254605D01*
X453616Y254153D01*
X454315Y253645D01*
X454973Y253084D01*
X455584Y252473D01*
X456145Y251815D01*
X456653Y251116D01*
X457105Y250379D01*
X457497Y249609D01*
X457828Y248810D01*
X458095Y247988D01*
X458297Y247148D01*
X458432Y246294D01*
X458500Y245432D01*
X458500Y244568D01*
X457230Y22068D02*
X457162Y21206D01*
X457027Y20352D01*
X456825Y19512D01*
X456558Y18690D01*
X456227Y17891D01*
X455835Y17121D01*
X455383Y16384D01*
X454875Y15685D01*
X454314Y15027D01*
X453703Y14416D01*
X453045Y13855D01*
X452346Y13347D01*
X451609Y12895D01*
X450839Y12503D01*
X450040Y12172D01*
X449218Y11905D01*
X448378Y11703D01*
X447524Y11568D01*
X446662Y11500D01*
X445798Y11500D01*
X444936Y11568D01*
X444082Y11703D01*
X443242Y11905D01*
X442420Y12172D01*
X441621Y12503D01*
X440851Y12895D01*
X440114Y13347D01*
X439415Y13855D01*
X438757Y14416D01*
X438146Y15027D01*
X437585Y15685D01*
X437077Y16384D01*
X436625Y17121D01*
X436233Y17891D01*
X435902Y18690D01*
X435635Y19512D01*
X435433Y20352D01*
X435298Y21206D01*
X435230Y22068D01*
X435230Y22932D01*
X435298Y23794D01*
X435433Y24648D01*
X435635Y25488D01*
X435902Y26310D01*
X436233Y27109D01*
X436625Y27879D01*
X437077Y28616D01*
X437585Y29315D01*
X438146Y29973D01*
X438757Y30584D01*
X439415Y31145D01*
X440114Y31653D01*
X440851Y32105D01*
X441621Y32497D01*
X442420Y32828D01*
X443242Y33095D01*
X444082Y33297D01*
X444936Y33432D01*
X445798Y33500D01*
X446662Y33500D01*
X447524Y33432D01*
X448378Y33297D01*
X449218Y33095D01*
X450040Y32828D01*
X450839Y32497D01*
X451609Y32105D01*
X452346Y31653D01*
X453045Y31145D01*
X453703Y30584D01*
X454314Y29973D01*
X454875Y29315D01*
X455383Y28616D01*
X455835Y27879D01*
X456227Y27109D01*
X456558Y26310D01*
X456825Y25488D01*
X457027Y24648D01*
X457162Y23794D01*
X457230Y22932D01*
X457230Y22068D01*
X121000Y22068D02*
X120932Y21206D01*
X120797Y20352D01*
X120595Y19512D01*
X120328Y18690D01*
X119997Y17891D01*
X119605Y17121D01*
X119153Y16384D01*
X118645Y15685D01*
X118084Y15027D01*
X117473Y14416D01*
X116815Y13855D01*
X116116Y13347D01*
X115379Y12895D01*
X114609Y12503D01*
X113810Y12172D01*
X112988Y11905D01*
X112148Y11703D01*
X111294Y11568D01*
X110432Y11500D01*
X109568Y11500D01*
X108706Y11568D01*
X107852Y11703D01*
X107012Y11905D01*
X106190Y12172D01*
X105391Y12503D01*
X104621Y12895D01*
X103884Y13347D01*
X103185Y13855D01*
X102527Y14416D01*
X101916Y15027D01*
X101355Y15685D01*
X100847Y16384D01*
X100395Y17121D01*
X100003Y17891D01*
X99672Y18690D01*
X99405Y19512D01*
X99203Y20352D01*
X99068Y21206D01*
X99000Y22068D01*
X99000Y22932D01*
X99068Y23794D01*
X99203Y24648D01*
X99405Y25488D01*
X99672Y26310D01*
X100003Y27109D01*
X100395Y27879D01*
X100847Y28616D01*
X101355Y29315D01*
X101916Y29973D01*
X102527Y30584D01*
X103185Y31145D01*
X103884Y31653D01*
X104621Y32105D01*
X105391Y32497D01*
X106190Y32828D01*
X107012Y33095D01*
X107852Y33297D01*
X108706Y33432D01*
X109568Y33500D01*
X110432Y33500D01*
X111294Y33432D01*
X112148Y33297D01*
X112988Y33095D01*
X113810Y32828D01*
X114609Y32497D01*
X115379Y32105D01*
X116116Y31653D01*
X116815Y31145D01*
X117473Y30584D01*
X118084Y29973D01*
X118645Y29315D01*
X119153Y28616D01*
X119605Y27879D01*
X119997Y27109D01*
X120328Y26310D01*
X120595Y25488D01*
X120797Y24648D01*
X120932Y23794D01*
X121000Y22932D01*
X121000Y22068D01*
X453500Y299568D02*
X453432Y298706D01*
X453297Y297852D01*
X453095Y297012D01*
X452828Y296190D01*
X452497Y295391D01*
X452105Y294621D01*
X451653Y293884D01*
X451145Y293185D01*
X450584Y292527D01*
X449973Y291916D01*
X449315Y291355D01*
X448616Y290847D01*
X447879Y290395D01*
X447109Y290003D01*
X446310Y289672D01*
X445488Y289405D01*
X444648Y289203D01*
X443794Y289068D01*
X442932Y289000D01*
X442068Y289000D01*
X441206Y289068D01*
X440352Y289203D01*
X439512Y289405D01*
X438690Y289672D01*
X437891Y290003D01*
X437121Y290395D01*
X436384Y290847D01*
X435685Y291355D01*
X435027Y291916D01*
X434416Y292527D01*
X433855Y293185D01*
X433347Y293884D01*
X432895Y294621D01*
X432503Y295391D01*
X432172Y296190D01*
X431905Y297012D01*
X431703Y297852D01*
X431568Y298706D01*
X431500Y299568D01*
X431500Y300432D01*
X431568Y301294D01*
X431703Y302148D01*
X431905Y302988D01*
X432172Y303810D01*
X432503Y304609D01*
X432895Y305379D01*
X433347Y306116D01*
X433855Y306815D01*
X434416Y307473D01*
X435027Y308084D01*
X435685Y308645D01*
X436384Y309153D01*
X437121Y309605D01*
X437891Y309997D01*
X438690Y310328D01*
X439512Y310595D01*
X440352Y310797D01*
X441206Y310932D01*
X442068Y311000D01*
X442932Y311000D01*
X443794Y310932D01*
X444648Y310797D01*
X445488Y310595D01*
X446310Y310328D01*
X447109Y309997D01*
X447879Y309605D01*
X448616Y309153D01*
X449315Y308645D01*
X449973Y308084D01*
X450584Y307473D01*
X451145Y306815D01*
X451653Y306116D01*
X452105Y305379D01*
X452497Y304609D01*
X452828Y303810D01*
X453095Y302988D01*
X453297Y302148D01*
X453432Y301294D01*
X453500Y300432D01*
X453500Y299568D01*
X310771Y548391D02*
X310695Y547521D01*
X310543Y546661D01*
X310317Y545817D01*
X310018Y544997D01*
X309649Y544206D01*
X309213Y543449D01*
X308712Y542734D01*
X308151Y542065D01*
X307533Y541448D01*
X306864Y540886D01*
X306149Y540385D01*
X305393Y539949D01*
X304601Y539580D01*
X303781Y539281D01*
X302937Y539055D01*
X302077Y538904D01*
X301207Y538827D01*
X300334Y538827D01*
X299464Y538904D01*
X298604Y539055D01*
X297761Y539281D01*
X296940Y539580D01*
X296149Y539949D01*
X295393Y540385D01*
X294677Y540886D01*
X294009Y541448D01*
X293391Y542065D01*
X292830Y542734D01*
X292329Y543449D01*
X291892Y544206D01*
X291523Y544997D01*
X291225Y545817D01*
X290999Y546661D01*
X290847Y547521D01*
X290771Y548391D01*
X290771Y549264D01*
X290847Y550134D01*
X290999Y550994D01*
X291225Y551837D01*
X291523Y552658D01*
X291892Y553449D01*
X292329Y554206D01*
X292830Y554921D01*
X293391Y555590D01*
X294009Y556207D01*
X294677Y556769D01*
X295393Y557269D01*
X296149Y557706D01*
X296940Y558075D01*
X297761Y558374D01*
X298604Y558600D01*
X299464Y558751D01*
X300334Y558827D01*
X301207Y558827D01*
X302077Y558751D01*
X302937Y558600D01*
X303781Y558374D01*
X304601Y558075D01*
X305393Y557706D01*
X306149Y557269D01*
X306864Y556769D01*
X307533Y556207D01*
X308151Y555590D01*
X308712Y554921D01*
X309213Y554206D01*
X309649Y553449D01*
X310018Y552658D01*
X310317Y551837D01*
X310543Y550994D01*
X310695Y550134D01*
X310771Y549264D01*
X310771Y548391D01*
X564806Y548456D02*
X564730Y547587D01*
X564579Y546727D01*
X564353Y545883D01*
X564054Y545063D01*
X563685Y544271D01*
X563248Y543515D01*
X562748Y542800D01*
X562186Y542131D01*
X561569Y541513D01*
X560900Y540952D01*
X560185Y540451D01*
X559428Y540014D01*
X558637Y539645D01*
X557816Y539347D01*
X556973Y539121D01*
X556113Y538969D01*
X555243Y538893D01*
X554370Y538893D01*
X553500Y538969D01*
X552640Y539121D01*
X551797Y539347D01*
X550976Y539645D01*
X550185Y540014D01*
X549428Y540451D01*
X548713Y540952D01*
X548044Y541513D01*
X547427Y542131D01*
X546865Y542800D01*
X546365Y543515D01*
X545928Y544271D01*
X545559Y545063D01*
X545260Y545883D01*
X545034Y546727D01*
X544883Y547587D01*
X544806Y548456D01*
X544806Y549330D01*
X544883Y550200D01*
X545034Y551060D01*
X545260Y551903D01*
X545559Y552724D01*
X545928Y553515D01*
X546365Y554271D01*
X546865Y554986D01*
X547427Y555655D01*
X548044Y556273D01*
X548713Y556834D01*
X549428Y557335D01*
X550185Y557772D01*
X550976Y558141D01*
X551797Y558439D01*
X552640Y558665D01*
X553500Y558817D01*
X554370Y558893D01*
X555243Y558893D01*
X556113Y558817D01*
X556973Y558665D01*
X557816Y558439D01*
X558637Y558141D01*
X559428Y557772D01*
X560185Y557335D01*
X560900Y556834D01*
X561569Y556273D01*
X562186Y555655D01*
X562748Y554986D01*
X563248Y554271D01*
X563685Y553515D01*
X564054Y552724D01*
X564353Y551903D01*
X564579Y551060D01*
X564730Y550200D01*
X564806Y549330D01*
X564806Y548456D01*
X310567Y15272D02*
X310490Y14402D01*
X310339Y13542D01*
X310113Y12698D01*
X309814Y11878D01*
X309445Y11087D01*
X309008Y10330D01*
X308508Y9615D01*
X307946Y8946D01*
X307329Y8329D01*
X306660Y7767D01*
X305945Y7266D01*
X305188Y6830D01*
X304397Y6461D01*
X303576Y6162D01*
X302733Y5936D01*
X301873Y5785D01*
X301003Y5708D01*
X300130Y5708D01*
X299260Y5785D01*
X298400Y5936D01*
X297557Y6162D01*
X296736Y6461D01*
X295945Y6830D01*
X295188Y7266D01*
X294473Y7767D01*
X293804Y8329D01*
X293187Y8946D01*
X292625Y9615D01*
X292125Y10330D01*
X291688Y11087D01*
X291319Y11878D01*
X291020Y12698D01*
X290794Y13542D01*
X290643Y14402D01*
X290567Y15272D01*
X290567Y16145D01*
X290643Y17015D01*
X290794Y17875D01*
X291020Y18718D01*
X291319Y19539D01*
X291688Y20330D01*
X292125Y21087D01*
X292625Y21802D01*
X293187Y22471D01*
X293804Y23088D01*
X294473Y23650D01*
X295188Y24150D01*
X295945Y24587D01*
X296736Y24956D01*
X297557Y25255D01*
X298400Y25481D01*
X299260Y25632D01*
X300130Y25708D01*
X301003Y25708D01*
X301873Y25632D01*
X302733Y25481D01*
X303576Y25255D01*
X304397Y24956D01*
X305188Y24587D01*
X305945Y24150D01*
X306660Y23650D01*
X307329Y23088D01*
X307946Y22471D01*
X308508Y21802D01*
X309008Y21087D01*
X309445Y20330D01*
X309814Y19539D01*
X310113Y18718D01*
X310339Y17875D01*
X310490Y17015D01*
X310567Y16145D01*
X310567Y15272D01*
X564803Y14859D02*
X564727Y13989D01*
X564576Y13129D01*
X564350Y12285D01*
X564051Y11465D01*
X563682Y10673D01*
X563245Y9917D01*
X562744Y9202D01*
X562183Y8533D01*
X561566Y7915D01*
X560897Y7354D01*
X560181Y6853D01*
X559425Y6417D01*
X558634Y6048D01*
X557813Y5749D01*
X556970Y5523D01*
X556110Y5371D01*
X555240Y5295D01*
X554367Y5295D01*
X553497Y5371D01*
X552637Y5523D01*
X551793Y5749D01*
X550973Y6048D01*
X550181Y6417D01*
X549425Y6853D01*
X548710Y7354D01*
X548041Y7915D01*
X547423Y8533D01*
X546862Y9202D01*
X546361Y9917D01*
X545925Y10673D01*
X545556Y11465D01*
X545257Y12285D01*
X545031Y13129D01*
X544879Y13989D01*
X544803Y14859D01*
X544803Y15732D01*
X544879Y16602D01*
X545031Y17462D01*
X545257Y18305D01*
X545556Y19126D01*
X545925Y19917D01*
X546361Y20673D01*
X546862Y21389D01*
X547423Y22057D01*
X548041Y22675D01*
X548710Y23236D01*
X549425Y23737D01*
X550181Y24174D01*
X550973Y24543D01*
X551793Y24841D01*
X552637Y25067D01*
X553497Y25219D01*
X554367Y25295D01*
X555240Y25295D01*
X556110Y25219D01*
X556970Y25067D01*
X557813Y24841D01*
X558634Y24543D01*
X559425Y24174D01*
X560181Y23737D01*
X560897Y23236D01*
X561566Y22675D01*
X562183Y22057D01*
X562744Y21389D01*
X563245Y20673D01*
X563682Y19917D01*
X564051Y19126D01*
X564350Y18305D01*
X564576Y17462D01*
X564727Y16602D01*
X564803Y15732D01*
X564803Y14859D01*
M02*
