G04 EAGLE Gerber RS-274X export*
G75*
%MOMM*%
%FSLAX34Y34*%
%LPD*%
%INSilkscreen Bottom*%
%IPPOS*%
%AMOC8*
5,1,8,0,0,1.08239X$1,22.5*%
G01*
%ADD10C,0.177800*%
%ADD11C,0.254000*%
%ADD12C,0.127000*%
%ADD13C,0.203200*%
%ADD14C,0.152400*%


D10*
X82161Y206759D02*
X82161Y215141D01*
X79367Y210484D01*
X76573Y215141D01*
X76573Y206759D01*
X69076Y215142D02*
X68987Y215140D01*
X68898Y215134D01*
X68810Y215125D01*
X68722Y215112D01*
X68634Y215095D01*
X68548Y215074D01*
X68462Y215050D01*
X68378Y215022D01*
X68294Y214991D01*
X68213Y214956D01*
X68132Y214918D01*
X68054Y214876D01*
X67977Y214831D01*
X67902Y214783D01*
X67830Y214731D01*
X67759Y214677D01*
X67691Y214619D01*
X67626Y214559D01*
X67563Y214496D01*
X67503Y214431D01*
X67445Y214363D01*
X67391Y214292D01*
X67339Y214220D01*
X67291Y214145D01*
X67246Y214068D01*
X67204Y213990D01*
X67166Y213909D01*
X67131Y213828D01*
X67100Y213744D01*
X67072Y213660D01*
X67048Y213574D01*
X67027Y213488D01*
X67010Y213400D01*
X66997Y213312D01*
X66988Y213224D01*
X66982Y213135D01*
X66980Y213046D01*
X69076Y215141D02*
X69179Y215139D01*
X69281Y215133D01*
X69383Y215123D01*
X69485Y215110D01*
X69586Y215092D01*
X69686Y215071D01*
X69786Y215046D01*
X69884Y215017D01*
X69981Y214984D01*
X70077Y214948D01*
X70172Y214908D01*
X70265Y214864D01*
X70356Y214817D01*
X70445Y214767D01*
X70532Y214713D01*
X70618Y214656D01*
X70701Y214596D01*
X70781Y214532D01*
X70859Y214466D01*
X70935Y214396D01*
X71008Y214324D01*
X71078Y214249D01*
X71145Y214171D01*
X71209Y214091D01*
X71270Y214009D01*
X71328Y213924D01*
X71382Y213837D01*
X71434Y213748D01*
X71481Y213658D01*
X71526Y213565D01*
X71566Y213471D01*
X71604Y213375D01*
X71637Y213278D01*
X67679Y211416D02*
X67614Y211480D01*
X67552Y211547D01*
X67492Y211616D01*
X67436Y211688D01*
X67383Y211761D01*
X67332Y211837D01*
X67285Y211915D01*
X67241Y211995D01*
X67200Y212076D01*
X67162Y212159D01*
X67128Y212244D01*
X67097Y212330D01*
X67070Y212417D01*
X67046Y212505D01*
X67026Y212593D01*
X67009Y212683D01*
X66997Y212773D01*
X66987Y212864D01*
X66982Y212955D01*
X66980Y213046D01*
X67679Y211416D02*
X71637Y206759D01*
X66980Y206759D01*
X59932Y215142D02*
X59843Y215140D01*
X59754Y215134D01*
X59666Y215125D01*
X59578Y215112D01*
X59490Y215095D01*
X59404Y215074D01*
X59318Y215050D01*
X59234Y215022D01*
X59150Y214991D01*
X59069Y214956D01*
X58988Y214918D01*
X58910Y214876D01*
X58833Y214831D01*
X58758Y214783D01*
X58686Y214731D01*
X58615Y214677D01*
X58547Y214619D01*
X58482Y214559D01*
X58419Y214496D01*
X58359Y214431D01*
X58301Y214363D01*
X58247Y214292D01*
X58195Y214220D01*
X58147Y214145D01*
X58102Y214068D01*
X58060Y213990D01*
X58022Y213909D01*
X57987Y213828D01*
X57956Y213744D01*
X57928Y213660D01*
X57904Y213574D01*
X57883Y213488D01*
X57866Y213400D01*
X57853Y213312D01*
X57844Y213224D01*
X57838Y213135D01*
X57836Y213046D01*
X59932Y215141D02*
X60035Y215139D01*
X60137Y215133D01*
X60239Y215123D01*
X60341Y215110D01*
X60442Y215092D01*
X60542Y215071D01*
X60642Y215046D01*
X60740Y215017D01*
X60837Y214984D01*
X60933Y214948D01*
X61028Y214908D01*
X61121Y214864D01*
X61212Y214817D01*
X61301Y214767D01*
X61388Y214713D01*
X61474Y214656D01*
X61557Y214596D01*
X61637Y214532D01*
X61715Y214466D01*
X61791Y214396D01*
X61864Y214324D01*
X61934Y214249D01*
X62001Y214171D01*
X62065Y214091D01*
X62126Y214009D01*
X62184Y213924D01*
X62238Y213837D01*
X62290Y213748D01*
X62337Y213658D01*
X62382Y213565D01*
X62422Y213471D01*
X62460Y213375D01*
X62493Y213278D01*
X58535Y211416D02*
X58470Y211480D01*
X58408Y211547D01*
X58348Y211616D01*
X58292Y211688D01*
X58239Y211761D01*
X58188Y211837D01*
X58141Y211915D01*
X58097Y211995D01*
X58056Y212076D01*
X58018Y212159D01*
X57984Y212244D01*
X57953Y212330D01*
X57926Y212417D01*
X57902Y212505D01*
X57882Y212593D01*
X57865Y212683D01*
X57853Y212773D01*
X57843Y212864D01*
X57838Y212955D01*
X57836Y213046D01*
X58535Y211416D02*
X62493Y206759D01*
X57836Y206759D01*
X26921Y210186D02*
X25524Y210186D01*
X25524Y205529D01*
X28318Y205529D01*
X28402Y205531D01*
X28485Y205537D01*
X28568Y205546D01*
X28651Y205559D01*
X28733Y205576D01*
X28814Y205596D01*
X28894Y205620D01*
X28973Y205648D01*
X29050Y205679D01*
X29126Y205713D01*
X29201Y205751D01*
X29274Y205793D01*
X29344Y205837D01*
X29413Y205885D01*
X29480Y205935D01*
X29544Y205989D01*
X29605Y206045D01*
X29665Y206105D01*
X29721Y206166D01*
X29775Y206230D01*
X29825Y206297D01*
X29873Y206366D01*
X29917Y206436D01*
X29959Y206509D01*
X29997Y206584D01*
X30031Y206660D01*
X30062Y206737D01*
X30090Y206816D01*
X30114Y206896D01*
X30134Y206977D01*
X30151Y207059D01*
X30164Y207142D01*
X30174Y207225D01*
X30179Y207308D01*
X30181Y207392D01*
X30181Y212048D01*
X30179Y212134D01*
X30173Y212220D01*
X30163Y212305D01*
X30149Y212390D01*
X30132Y212475D01*
X30110Y212558D01*
X30084Y212640D01*
X30055Y212721D01*
X30022Y212800D01*
X29986Y212878D01*
X29946Y212955D01*
X29902Y213029D01*
X29855Y213101D01*
X29805Y213171D01*
X29751Y213238D01*
X29695Y213303D01*
X29635Y213365D01*
X29573Y213425D01*
X29508Y213481D01*
X29441Y213535D01*
X29371Y213585D01*
X29299Y213632D01*
X29225Y213676D01*
X29148Y213716D01*
X29071Y213752D01*
X28991Y213785D01*
X28910Y213814D01*
X28828Y213840D01*
X28745Y213862D01*
X28660Y213879D01*
X28575Y213893D01*
X28490Y213903D01*
X28404Y213909D01*
X28318Y213911D01*
X25524Y213911D01*
X20427Y213911D02*
X20427Y205529D01*
X15771Y205529D02*
X20427Y213911D01*
X15771Y213911D02*
X15771Y205529D01*
X10674Y205529D02*
X10674Y213911D01*
X8346Y213911D01*
X8250Y213909D01*
X8154Y213903D01*
X8058Y213893D01*
X7963Y213879D01*
X7868Y213861D01*
X7775Y213840D01*
X7682Y213814D01*
X7590Y213785D01*
X7500Y213752D01*
X7411Y213715D01*
X7324Y213674D01*
X7238Y213630D01*
X7154Y213583D01*
X7073Y213532D01*
X6993Y213478D01*
X6916Y213420D01*
X6841Y213359D01*
X6769Y213296D01*
X6700Y213229D01*
X6633Y213160D01*
X6570Y213088D01*
X6509Y213013D01*
X6451Y212936D01*
X6397Y212856D01*
X6346Y212775D01*
X6299Y212691D01*
X6255Y212605D01*
X6214Y212518D01*
X6177Y212429D01*
X6144Y212339D01*
X6115Y212247D01*
X6089Y212155D01*
X6068Y212061D01*
X6050Y211966D01*
X6036Y211871D01*
X6026Y211775D01*
X6020Y211679D01*
X6018Y211583D01*
X6017Y211583D02*
X6017Y207857D01*
X6019Y207763D01*
X6025Y207670D01*
X6034Y207576D01*
X6047Y207484D01*
X6064Y207391D01*
X6085Y207300D01*
X6109Y207209D01*
X6137Y207120D01*
X6168Y207031D01*
X6203Y206944D01*
X6242Y206859D01*
X6284Y206775D01*
X6329Y206693D01*
X6377Y206613D01*
X6429Y206535D01*
X6484Y206458D01*
X6542Y206385D01*
X6602Y206313D01*
X6666Y206244D01*
X6732Y206178D01*
X6801Y206114D01*
X6873Y206054D01*
X6946Y205996D01*
X7023Y205941D01*
X7101Y205889D01*
X7181Y205841D01*
X7263Y205796D01*
X7347Y205754D01*
X7433Y205715D01*
X7520Y205680D01*
X7608Y205649D01*
X7697Y205621D01*
X7788Y205597D01*
X7879Y205576D01*
X7972Y205559D01*
X8064Y205546D01*
X8158Y205537D01*
X8251Y205531D01*
X8345Y205529D01*
X8346Y205529D02*
X10674Y205529D01*
X82161Y241759D02*
X82161Y250141D01*
X79367Y245484D01*
X76573Y250141D01*
X76573Y241759D01*
X71637Y241759D02*
X69309Y241759D01*
X69214Y241761D01*
X69119Y241767D01*
X69025Y241776D01*
X68931Y241790D01*
X68837Y241807D01*
X68745Y241828D01*
X68653Y241853D01*
X68563Y241882D01*
X68473Y241914D01*
X68385Y241950D01*
X68299Y241990D01*
X68214Y242032D01*
X68131Y242079D01*
X68050Y242129D01*
X67972Y242182D01*
X67895Y242238D01*
X67821Y242297D01*
X67749Y242359D01*
X67680Y242424D01*
X67613Y242492D01*
X67550Y242562D01*
X67489Y242636D01*
X67431Y242711D01*
X67377Y242789D01*
X67325Y242869D01*
X67277Y242951D01*
X67233Y243034D01*
X67191Y243120D01*
X67154Y243207D01*
X67120Y243296D01*
X67089Y243386D01*
X67062Y243477D01*
X67039Y243569D01*
X67020Y243662D01*
X67005Y243756D01*
X66993Y243850D01*
X66985Y243945D01*
X66981Y244040D01*
X66981Y244134D01*
X66985Y244229D01*
X66993Y244324D01*
X67005Y244418D01*
X67020Y244512D01*
X67039Y244605D01*
X67062Y244697D01*
X67089Y244788D01*
X67120Y244878D01*
X67154Y244967D01*
X67191Y245054D01*
X67233Y245140D01*
X67277Y245223D01*
X67325Y245305D01*
X67377Y245385D01*
X67431Y245463D01*
X67489Y245538D01*
X67550Y245612D01*
X67613Y245682D01*
X67680Y245750D01*
X67749Y245815D01*
X67821Y245877D01*
X67895Y245936D01*
X67972Y245992D01*
X68050Y246045D01*
X68131Y246095D01*
X68214Y246142D01*
X68299Y246184D01*
X68385Y246224D01*
X68473Y246260D01*
X68563Y246292D01*
X68653Y246321D01*
X68745Y246346D01*
X68837Y246367D01*
X68931Y246384D01*
X69025Y246398D01*
X69119Y246407D01*
X69214Y246413D01*
X69309Y246415D01*
X68843Y250141D02*
X71637Y250141D01*
X68843Y250141D02*
X68758Y250139D01*
X68674Y250133D01*
X68589Y250124D01*
X68506Y250110D01*
X68423Y250093D01*
X68340Y250072D01*
X68259Y250047D01*
X68179Y250019D01*
X68101Y249987D01*
X68024Y249951D01*
X67948Y249912D01*
X67875Y249870D01*
X67804Y249824D01*
X67734Y249775D01*
X67667Y249723D01*
X67603Y249668D01*
X67541Y249610D01*
X67481Y249550D01*
X67425Y249486D01*
X67371Y249421D01*
X67321Y249352D01*
X67274Y249282D01*
X67230Y249210D01*
X67189Y249135D01*
X67152Y249059D01*
X67118Y248981D01*
X67088Y248902D01*
X67061Y248821D01*
X67038Y248740D01*
X67019Y248657D01*
X67004Y248574D01*
X66992Y248490D01*
X66984Y248405D01*
X66980Y248320D01*
X66980Y248236D01*
X66984Y248151D01*
X66992Y248066D01*
X67004Y247982D01*
X67019Y247899D01*
X67038Y247816D01*
X67061Y247735D01*
X67088Y247654D01*
X67118Y247575D01*
X67152Y247497D01*
X67189Y247421D01*
X67230Y247347D01*
X67274Y247274D01*
X67321Y247204D01*
X67371Y247135D01*
X67425Y247070D01*
X67481Y247006D01*
X67541Y246946D01*
X67603Y246888D01*
X67667Y246833D01*
X67734Y246781D01*
X67804Y246732D01*
X67875Y246686D01*
X67948Y246644D01*
X68024Y246605D01*
X68101Y246569D01*
X68179Y246537D01*
X68259Y246509D01*
X68340Y246484D01*
X68423Y246463D01*
X68506Y246446D01*
X68589Y246432D01*
X68674Y246423D01*
X68758Y246417D01*
X68843Y246415D01*
X68843Y246416D02*
X70706Y246416D01*
X62493Y245950D02*
X62491Y246115D01*
X62485Y246280D01*
X62475Y246444D01*
X62462Y246609D01*
X62444Y246773D01*
X62422Y246936D01*
X62397Y247099D01*
X62367Y247261D01*
X62334Y247423D01*
X62297Y247583D01*
X62256Y247743D01*
X62211Y247902D01*
X62163Y248059D01*
X62111Y248216D01*
X62055Y248371D01*
X61995Y248525D01*
X61932Y248677D01*
X61865Y248828D01*
X61795Y248977D01*
X61766Y249054D01*
X61734Y249130D01*
X61699Y249204D01*
X61659Y249276D01*
X61617Y249346D01*
X61571Y249414D01*
X61522Y249480D01*
X61469Y249544D01*
X61414Y249605D01*
X61356Y249663D01*
X61296Y249718D01*
X61232Y249771D01*
X61166Y249820D01*
X61098Y249866D01*
X61028Y249909D01*
X60956Y249949D01*
X60882Y249985D01*
X60807Y250017D01*
X60730Y250046D01*
X60652Y250071D01*
X60572Y250092D01*
X60492Y250110D01*
X60411Y250123D01*
X60329Y250133D01*
X60247Y250139D01*
X60165Y250141D01*
X60083Y250139D01*
X60001Y250133D01*
X59919Y250123D01*
X59838Y250110D01*
X59758Y250092D01*
X59678Y250071D01*
X59600Y250046D01*
X59523Y250017D01*
X59448Y249985D01*
X59374Y249949D01*
X59302Y249909D01*
X59232Y249866D01*
X59164Y249820D01*
X59098Y249771D01*
X59035Y249718D01*
X58974Y249663D01*
X58916Y249605D01*
X58861Y249544D01*
X58808Y249480D01*
X58759Y249414D01*
X58713Y249346D01*
X58671Y249276D01*
X58632Y249204D01*
X58596Y249130D01*
X58564Y249054D01*
X58535Y248977D01*
X58465Y248828D01*
X58398Y248677D01*
X58335Y248525D01*
X58275Y248371D01*
X58219Y248216D01*
X58167Y248059D01*
X58119Y247902D01*
X58074Y247743D01*
X58033Y247583D01*
X57996Y247423D01*
X57963Y247261D01*
X57933Y247099D01*
X57908Y246936D01*
X57886Y246773D01*
X57868Y246609D01*
X57855Y246444D01*
X57845Y246280D01*
X57839Y246115D01*
X57837Y245950D01*
X62494Y245950D02*
X62492Y245785D01*
X62486Y245620D01*
X62476Y245456D01*
X62463Y245291D01*
X62445Y245127D01*
X62423Y244964D01*
X62398Y244801D01*
X62368Y244639D01*
X62335Y244477D01*
X62298Y244316D01*
X62257Y244157D01*
X62212Y243998D01*
X62164Y243840D01*
X62112Y243684D01*
X62056Y243529D01*
X61996Y243375D01*
X61933Y243223D01*
X61866Y243072D01*
X61795Y242923D01*
X61766Y242846D01*
X61734Y242770D01*
X61698Y242696D01*
X61659Y242624D01*
X61617Y242554D01*
X61571Y242486D01*
X61522Y242420D01*
X61469Y242356D01*
X61414Y242295D01*
X61356Y242237D01*
X61296Y242182D01*
X61232Y242129D01*
X61166Y242080D01*
X61098Y242034D01*
X61028Y241991D01*
X60956Y241951D01*
X60882Y241915D01*
X60807Y241883D01*
X60730Y241854D01*
X60652Y241829D01*
X60572Y241808D01*
X60492Y241790D01*
X60411Y241777D01*
X60329Y241767D01*
X60247Y241761D01*
X60165Y241759D01*
X58535Y242923D02*
X58464Y243072D01*
X58397Y243223D01*
X58334Y243375D01*
X58274Y243529D01*
X58218Y243684D01*
X58166Y243840D01*
X58118Y243998D01*
X58073Y244157D01*
X58032Y244316D01*
X57995Y244477D01*
X57962Y244639D01*
X57932Y244801D01*
X57907Y244964D01*
X57885Y245127D01*
X57867Y245291D01*
X57854Y245456D01*
X57844Y245620D01*
X57838Y245785D01*
X57836Y245950D01*
X58535Y242923D02*
X58564Y242846D01*
X58596Y242770D01*
X58632Y242696D01*
X58671Y242624D01*
X58713Y242554D01*
X58759Y242486D01*
X58808Y242420D01*
X58861Y242356D01*
X58916Y242295D01*
X58974Y242237D01*
X59035Y242182D01*
X59098Y242129D01*
X59164Y242080D01*
X59232Y242034D01*
X59302Y241991D01*
X59374Y241951D01*
X59448Y241915D01*
X59523Y241883D01*
X59600Y241854D01*
X59678Y241829D01*
X59758Y241808D01*
X59838Y241790D01*
X59919Y241777D01*
X60001Y241767D01*
X60083Y241761D01*
X60165Y241759D01*
X62027Y243622D02*
X58302Y248278D01*
X30181Y243029D02*
X27387Y243029D01*
X27303Y243031D01*
X27220Y243036D01*
X27137Y243046D01*
X27054Y243059D01*
X26972Y243076D01*
X26891Y243096D01*
X26811Y243120D01*
X26732Y243148D01*
X26655Y243179D01*
X26579Y243213D01*
X26504Y243251D01*
X26431Y243293D01*
X26361Y243337D01*
X26292Y243385D01*
X26225Y243435D01*
X26161Y243489D01*
X26100Y243545D01*
X26040Y243605D01*
X25984Y243666D01*
X25930Y243730D01*
X25880Y243797D01*
X25832Y243866D01*
X25788Y243936D01*
X25746Y244009D01*
X25708Y244084D01*
X25674Y244160D01*
X25643Y244237D01*
X25615Y244316D01*
X25591Y244396D01*
X25571Y244477D01*
X25554Y244559D01*
X25541Y244642D01*
X25531Y244725D01*
X25526Y244808D01*
X25524Y244892D01*
X25524Y245823D01*
X25526Y245907D01*
X25532Y245990D01*
X25541Y246073D01*
X25554Y246156D01*
X25571Y246238D01*
X25591Y246319D01*
X25615Y246399D01*
X25643Y246478D01*
X25674Y246555D01*
X25708Y246631D01*
X25746Y246706D01*
X25788Y246779D01*
X25832Y246849D01*
X25880Y246918D01*
X25930Y246985D01*
X25984Y247049D01*
X26040Y247110D01*
X26100Y247170D01*
X26161Y247226D01*
X26225Y247280D01*
X26292Y247330D01*
X26361Y247378D01*
X26431Y247422D01*
X26504Y247464D01*
X26579Y247502D01*
X26655Y247536D01*
X26732Y247567D01*
X26811Y247595D01*
X26891Y247619D01*
X26972Y247639D01*
X27054Y247656D01*
X27137Y247669D01*
X27220Y247679D01*
X27303Y247684D01*
X27387Y247686D01*
X30181Y247686D01*
X30181Y251411D01*
X25524Y251411D01*
X21503Y251411D02*
X18709Y243029D01*
X15915Y251411D01*
X236279Y541560D02*
X236281Y541646D01*
X236287Y541732D01*
X236297Y541817D01*
X236311Y541902D01*
X236328Y541987D01*
X236350Y542070D01*
X236376Y542152D01*
X236405Y542233D01*
X236438Y542313D01*
X236474Y542390D01*
X236514Y542467D01*
X236558Y542541D01*
X236605Y542613D01*
X236655Y542683D01*
X236709Y542750D01*
X236765Y542815D01*
X236825Y542877D01*
X236887Y542937D01*
X236952Y542993D01*
X237019Y543047D01*
X237089Y543097D01*
X237161Y543144D01*
X237235Y543188D01*
X237312Y543228D01*
X237390Y543264D01*
X237469Y543297D01*
X237550Y543326D01*
X237632Y543352D01*
X237715Y543374D01*
X237800Y543391D01*
X237885Y543405D01*
X237970Y543415D01*
X238056Y543421D01*
X238142Y543423D01*
X236279Y541560D02*
X236281Y541436D01*
X236287Y541312D01*
X236297Y541188D01*
X236310Y541064D01*
X236328Y540941D01*
X236349Y540819D01*
X236375Y540697D01*
X236404Y540576D01*
X236437Y540456D01*
X236474Y540338D01*
X236514Y540220D01*
X236558Y540104D01*
X236606Y539989D01*
X236657Y539876D01*
X236712Y539765D01*
X236771Y539655D01*
X236833Y539547D01*
X236898Y539441D01*
X236967Y539338D01*
X237038Y539236D01*
X237113Y539137D01*
X237191Y539041D01*
X237272Y538946D01*
X237356Y538855D01*
X237443Y538766D01*
X242798Y538998D02*
X242882Y539000D01*
X242965Y539005D01*
X243048Y539015D01*
X243131Y539028D01*
X243213Y539045D01*
X243294Y539065D01*
X243374Y539089D01*
X243453Y539117D01*
X243530Y539148D01*
X243606Y539182D01*
X243681Y539220D01*
X243754Y539262D01*
X243824Y539306D01*
X243893Y539354D01*
X243960Y539404D01*
X244024Y539458D01*
X244085Y539514D01*
X244145Y539574D01*
X244201Y539635D01*
X244255Y539699D01*
X244305Y539766D01*
X244353Y539835D01*
X244397Y539905D01*
X244439Y539978D01*
X244477Y540053D01*
X244511Y540129D01*
X244542Y540206D01*
X244570Y540285D01*
X244594Y540365D01*
X244614Y540446D01*
X244631Y540528D01*
X244644Y540611D01*
X244654Y540694D01*
X244659Y540777D01*
X244661Y540861D01*
X244662Y540861D02*
X244660Y540973D01*
X244655Y541086D01*
X244646Y541198D01*
X244633Y541309D01*
X244617Y541421D01*
X244597Y541531D01*
X244574Y541641D01*
X244547Y541750D01*
X244517Y541858D01*
X244483Y541966D01*
X244446Y542072D01*
X244405Y542176D01*
X244361Y542280D01*
X244314Y542382D01*
X244263Y542482D01*
X244209Y542581D01*
X244152Y542678D01*
X244092Y542773D01*
X244029Y542866D01*
X243963Y542957D01*
X241168Y539929D02*
X241213Y539857D01*
X241261Y539786D01*
X241313Y539718D01*
X241367Y539652D01*
X241424Y539589D01*
X241484Y539528D01*
X241547Y539470D01*
X241613Y539415D01*
X241680Y539363D01*
X241750Y539315D01*
X241822Y539269D01*
X241897Y539227D01*
X241973Y539188D01*
X242050Y539152D01*
X242129Y539120D01*
X242210Y539092D01*
X242292Y539067D01*
X242375Y539046D01*
X242458Y539029D01*
X242543Y539015D01*
X242627Y539006D01*
X242713Y539000D01*
X242798Y538998D01*
X239772Y542492D02*
X239727Y542564D01*
X239679Y542635D01*
X239627Y542703D01*
X239573Y542769D01*
X239516Y542832D01*
X239456Y542893D01*
X239393Y542951D01*
X239327Y543006D01*
X239260Y543058D01*
X239190Y543106D01*
X239118Y543152D01*
X239043Y543194D01*
X238967Y543233D01*
X238890Y543269D01*
X238811Y543301D01*
X238730Y543329D01*
X238648Y543354D01*
X238565Y543375D01*
X238482Y543392D01*
X238397Y543406D01*
X238313Y543415D01*
X238227Y543421D01*
X238142Y543423D01*
X239772Y542491D02*
X241169Y539930D01*
X244661Y547910D02*
X236279Y547910D01*
X244661Y547910D02*
X244661Y550238D01*
X244659Y550332D01*
X244653Y550425D01*
X244644Y550519D01*
X244631Y550611D01*
X244614Y550704D01*
X244593Y550795D01*
X244569Y550886D01*
X244541Y550975D01*
X244510Y551064D01*
X244475Y551150D01*
X244436Y551236D01*
X244394Y551320D01*
X244349Y551402D01*
X244301Y551482D01*
X244249Y551560D01*
X244194Y551637D01*
X244136Y551710D01*
X244076Y551782D01*
X244012Y551851D01*
X243946Y551917D01*
X243877Y551981D01*
X243805Y552041D01*
X243732Y552099D01*
X243655Y552154D01*
X243577Y552206D01*
X243497Y552254D01*
X243415Y552299D01*
X243331Y552341D01*
X243245Y552380D01*
X243159Y552415D01*
X243070Y552446D01*
X242981Y552474D01*
X242890Y552498D01*
X242799Y552519D01*
X242706Y552536D01*
X242614Y552549D01*
X242520Y552558D01*
X242427Y552564D01*
X242333Y552566D01*
X242333Y552567D02*
X238607Y552567D01*
X238607Y552566D02*
X238513Y552564D01*
X238420Y552558D01*
X238326Y552549D01*
X238234Y552536D01*
X238141Y552519D01*
X238050Y552498D01*
X237959Y552474D01*
X237870Y552446D01*
X237781Y552415D01*
X237695Y552380D01*
X237609Y552341D01*
X237525Y552299D01*
X237443Y552254D01*
X237363Y552206D01*
X237285Y552154D01*
X237208Y552099D01*
X237135Y552041D01*
X237063Y551981D01*
X236994Y551917D01*
X236928Y551851D01*
X236864Y551782D01*
X236804Y551710D01*
X236746Y551637D01*
X236691Y551560D01*
X236639Y551482D01*
X236591Y551402D01*
X236546Y551320D01*
X236504Y551236D01*
X236465Y551150D01*
X236430Y551064D01*
X236399Y550975D01*
X236371Y550886D01*
X236347Y550795D01*
X236326Y550704D01*
X236309Y550611D01*
X236296Y550519D01*
X236287Y550425D01*
X236281Y550332D01*
X236279Y550238D01*
X236279Y547910D01*
X236279Y556893D02*
X244661Y559687D01*
X236279Y562481D01*
X238375Y561783D02*
X238375Y557592D01*
X261279Y543639D02*
X261281Y543725D01*
X261287Y543811D01*
X261297Y543896D01*
X261311Y543981D01*
X261328Y544066D01*
X261350Y544149D01*
X261376Y544231D01*
X261405Y544312D01*
X261438Y544392D01*
X261474Y544469D01*
X261514Y544546D01*
X261558Y544620D01*
X261605Y544692D01*
X261655Y544762D01*
X261709Y544829D01*
X261765Y544894D01*
X261825Y544956D01*
X261887Y545016D01*
X261952Y545072D01*
X262019Y545126D01*
X262089Y545176D01*
X262161Y545223D01*
X262235Y545267D01*
X262312Y545307D01*
X262390Y545343D01*
X262469Y545376D01*
X262550Y545405D01*
X262632Y545431D01*
X262715Y545453D01*
X262800Y545470D01*
X262885Y545484D01*
X262970Y545494D01*
X263056Y545500D01*
X263142Y545502D01*
X261279Y543639D02*
X261281Y543515D01*
X261287Y543391D01*
X261297Y543267D01*
X261310Y543143D01*
X261328Y543020D01*
X261349Y542898D01*
X261375Y542776D01*
X261404Y542655D01*
X261437Y542535D01*
X261474Y542417D01*
X261514Y542299D01*
X261558Y542183D01*
X261606Y542068D01*
X261657Y541955D01*
X261712Y541844D01*
X261771Y541734D01*
X261833Y541626D01*
X261898Y541520D01*
X261967Y541417D01*
X262038Y541315D01*
X262113Y541216D01*
X262191Y541120D01*
X262272Y541025D01*
X262356Y540934D01*
X262443Y540845D01*
X267798Y541077D02*
X267882Y541079D01*
X267965Y541084D01*
X268048Y541094D01*
X268131Y541107D01*
X268213Y541124D01*
X268294Y541144D01*
X268374Y541168D01*
X268453Y541196D01*
X268530Y541227D01*
X268606Y541261D01*
X268681Y541299D01*
X268754Y541341D01*
X268824Y541385D01*
X268893Y541433D01*
X268960Y541483D01*
X269024Y541537D01*
X269085Y541593D01*
X269145Y541653D01*
X269201Y541714D01*
X269255Y541778D01*
X269305Y541845D01*
X269353Y541914D01*
X269397Y541984D01*
X269439Y542057D01*
X269477Y542132D01*
X269511Y542208D01*
X269542Y542285D01*
X269570Y542364D01*
X269594Y542444D01*
X269614Y542525D01*
X269631Y542607D01*
X269644Y542690D01*
X269654Y542773D01*
X269659Y542856D01*
X269661Y542940D01*
X269662Y542940D02*
X269660Y543052D01*
X269655Y543165D01*
X269646Y543277D01*
X269633Y543388D01*
X269617Y543500D01*
X269597Y543610D01*
X269574Y543720D01*
X269547Y543829D01*
X269517Y543937D01*
X269483Y544045D01*
X269446Y544151D01*
X269405Y544255D01*
X269361Y544359D01*
X269314Y544461D01*
X269263Y544561D01*
X269209Y544660D01*
X269152Y544757D01*
X269092Y544852D01*
X269029Y544945D01*
X268963Y545036D01*
X266168Y542008D02*
X266213Y541936D01*
X266261Y541865D01*
X266313Y541797D01*
X266367Y541731D01*
X266424Y541668D01*
X266484Y541607D01*
X266547Y541549D01*
X266613Y541494D01*
X266680Y541442D01*
X266750Y541394D01*
X266822Y541348D01*
X266897Y541306D01*
X266973Y541267D01*
X267050Y541231D01*
X267129Y541199D01*
X267210Y541171D01*
X267292Y541146D01*
X267375Y541125D01*
X267458Y541108D01*
X267543Y541094D01*
X267627Y541085D01*
X267713Y541079D01*
X267798Y541077D01*
X264772Y544570D02*
X264727Y544642D01*
X264679Y544713D01*
X264627Y544781D01*
X264573Y544847D01*
X264516Y544910D01*
X264456Y544971D01*
X264393Y545029D01*
X264327Y545084D01*
X264260Y545136D01*
X264190Y545184D01*
X264118Y545230D01*
X264043Y545272D01*
X263967Y545311D01*
X263890Y545347D01*
X263811Y545379D01*
X263730Y545407D01*
X263648Y545432D01*
X263565Y545453D01*
X263482Y545470D01*
X263397Y545484D01*
X263313Y545493D01*
X263227Y545499D01*
X263142Y545501D01*
X264772Y544570D02*
X266169Y542009D01*
X261279Y551504D02*
X261279Y553367D01*
X261279Y551504D02*
X261281Y551420D01*
X261286Y551337D01*
X261296Y551254D01*
X261309Y551171D01*
X261326Y551089D01*
X261346Y551008D01*
X261370Y550928D01*
X261398Y550849D01*
X261429Y550772D01*
X261463Y550696D01*
X261501Y550621D01*
X261543Y550548D01*
X261587Y550478D01*
X261635Y550409D01*
X261685Y550342D01*
X261739Y550278D01*
X261795Y550217D01*
X261855Y550157D01*
X261916Y550101D01*
X261980Y550047D01*
X262047Y549997D01*
X262116Y549949D01*
X262186Y549905D01*
X262259Y549863D01*
X262334Y549825D01*
X262410Y549791D01*
X262487Y549760D01*
X262566Y549732D01*
X262646Y549708D01*
X262727Y549688D01*
X262809Y549671D01*
X262892Y549658D01*
X262975Y549648D01*
X263058Y549643D01*
X263142Y549641D01*
X267798Y549641D01*
X267884Y549643D01*
X267970Y549649D01*
X268055Y549659D01*
X268140Y549673D01*
X268225Y549690D01*
X268308Y549712D01*
X268390Y549738D01*
X268471Y549767D01*
X268550Y549800D01*
X268628Y549836D01*
X268705Y549876D01*
X268779Y549920D01*
X268851Y549967D01*
X268921Y550017D01*
X268988Y550071D01*
X269053Y550127D01*
X269115Y550187D01*
X269175Y550249D01*
X269231Y550314D01*
X269285Y550381D01*
X269335Y550451D01*
X269382Y550523D01*
X269426Y550597D01*
X269466Y550674D01*
X269502Y550751D01*
X269535Y550831D01*
X269564Y550912D01*
X269590Y550994D01*
X269612Y551077D01*
X269629Y551162D01*
X269643Y551247D01*
X269653Y551332D01*
X269659Y551418D01*
X269661Y551504D01*
X269661Y553367D01*
X269661Y557824D02*
X261279Y557824D01*
X264539Y557824D02*
X269661Y562481D01*
X266401Y559687D02*
X261279Y562481D01*
X357778Y543471D02*
X357778Y535089D01*
X357778Y543471D02*
X355450Y543471D01*
X355365Y543469D01*
X355281Y543463D01*
X355196Y543454D01*
X355113Y543440D01*
X355030Y543423D01*
X354947Y543402D01*
X354866Y543377D01*
X354786Y543349D01*
X354708Y543317D01*
X354631Y543281D01*
X354555Y543242D01*
X354482Y543200D01*
X354411Y543154D01*
X354341Y543105D01*
X354274Y543053D01*
X354210Y542998D01*
X354148Y542940D01*
X354088Y542880D01*
X354032Y542816D01*
X353978Y542751D01*
X353928Y542682D01*
X353881Y542612D01*
X353837Y542540D01*
X353796Y542465D01*
X353759Y542389D01*
X353725Y542311D01*
X353695Y542232D01*
X353668Y542151D01*
X353645Y542070D01*
X353626Y541987D01*
X353611Y541904D01*
X353599Y541820D01*
X353591Y541735D01*
X353587Y541650D01*
X353587Y541566D01*
X353591Y541481D01*
X353599Y541396D01*
X353611Y541312D01*
X353626Y541229D01*
X353645Y541146D01*
X353668Y541065D01*
X353695Y540984D01*
X353725Y540905D01*
X353759Y540827D01*
X353796Y540751D01*
X353837Y540677D01*
X353881Y540604D01*
X353928Y540534D01*
X353978Y540465D01*
X354032Y540400D01*
X354088Y540336D01*
X354148Y540276D01*
X354210Y540218D01*
X354274Y540163D01*
X354341Y540111D01*
X354411Y540062D01*
X354482Y540016D01*
X354555Y539974D01*
X354631Y539935D01*
X354708Y539899D01*
X354786Y539867D01*
X354866Y539839D01*
X354947Y539814D01*
X355030Y539793D01*
X355113Y539776D01*
X355196Y539762D01*
X355281Y539753D01*
X355365Y539747D01*
X355450Y539745D01*
X355450Y539746D02*
X357778Y539746D01*
X357778Y535089D02*
X355450Y535089D01*
X355355Y535091D01*
X355260Y535097D01*
X355166Y535106D01*
X355072Y535120D01*
X354978Y535137D01*
X354886Y535158D01*
X354794Y535183D01*
X354704Y535212D01*
X354614Y535244D01*
X354526Y535280D01*
X354440Y535320D01*
X354355Y535362D01*
X354272Y535409D01*
X354191Y535459D01*
X354113Y535512D01*
X354036Y535568D01*
X353962Y535627D01*
X353890Y535689D01*
X353821Y535754D01*
X353754Y535822D01*
X353691Y535892D01*
X353630Y535966D01*
X353572Y536041D01*
X353518Y536119D01*
X353466Y536199D01*
X353418Y536281D01*
X353374Y536364D01*
X353332Y536450D01*
X353295Y536537D01*
X353261Y536626D01*
X353230Y536716D01*
X353203Y536807D01*
X353180Y536899D01*
X353161Y536992D01*
X353146Y537086D01*
X353134Y537180D01*
X353126Y537275D01*
X353122Y537370D01*
X353122Y537464D01*
X353126Y537559D01*
X353134Y537654D01*
X353146Y537748D01*
X353161Y537842D01*
X353180Y537935D01*
X353203Y538027D01*
X353230Y538118D01*
X353261Y538208D01*
X353295Y538297D01*
X353332Y538384D01*
X353374Y538470D01*
X353418Y538553D01*
X353466Y538635D01*
X353518Y538715D01*
X353572Y538793D01*
X353630Y538868D01*
X353691Y538942D01*
X353754Y539012D01*
X353821Y539080D01*
X353890Y539145D01*
X353962Y539207D01*
X354036Y539266D01*
X354113Y539322D01*
X354191Y539375D01*
X354272Y539425D01*
X354355Y539472D01*
X354440Y539514D01*
X354526Y539554D01*
X354614Y539590D01*
X354704Y539622D01*
X354794Y539651D01*
X354886Y539676D01*
X354978Y539697D01*
X355072Y539714D01*
X355166Y539728D01*
X355260Y539737D01*
X355355Y539743D01*
X355450Y539745D01*
X343767Y540677D02*
X343767Y535089D01*
X348423Y535089D02*
X348423Y540677D01*
X348423Y535089D02*
X347026Y535089D01*
X346953Y535091D01*
X346880Y535097D01*
X346807Y535106D01*
X346736Y535120D01*
X346664Y535137D01*
X346594Y535157D01*
X346525Y535182D01*
X346458Y535210D01*
X346392Y535241D01*
X346328Y535276D01*
X346265Y535314D01*
X346205Y535356D01*
X346147Y535400D01*
X346091Y535448D01*
X346038Y535498D01*
X345988Y535551D01*
X345940Y535607D01*
X345896Y535665D01*
X345854Y535725D01*
X345816Y535788D01*
X345781Y535852D01*
X345750Y535918D01*
X345722Y535985D01*
X345697Y536054D01*
X345677Y536124D01*
X345660Y536196D01*
X345646Y536267D01*
X345637Y536340D01*
X345631Y536413D01*
X345629Y536486D01*
X345631Y536559D01*
X345637Y536632D01*
X345646Y536705D01*
X345660Y536776D01*
X345677Y536848D01*
X345697Y536918D01*
X345722Y536987D01*
X345750Y537054D01*
X345781Y537120D01*
X345816Y537185D01*
X345854Y537247D01*
X345896Y537307D01*
X345940Y537365D01*
X345988Y537421D01*
X346038Y537474D01*
X346091Y537524D01*
X346147Y537572D01*
X346205Y537616D01*
X346265Y537658D01*
X346328Y537696D01*
X346392Y537731D01*
X346458Y537762D01*
X346525Y537790D01*
X346594Y537815D01*
X346664Y537835D01*
X346736Y537852D01*
X346807Y537866D01*
X346880Y537875D01*
X346953Y537881D01*
X347026Y537883D01*
X348423Y537883D01*
X337342Y543471D02*
X335479Y543471D01*
X337342Y543471D02*
X337415Y543469D01*
X337488Y543463D01*
X337561Y543454D01*
X337632Y543440D01*
X337704Y543423D01*
X337774Y543403D01*
X337843Y543378D01*
X337910Y543350D01*
X337976Y543319D01*
X338041Y543284D01*
X338103Y543246D01*
X338163Y543204D01*
X338221Y543160D01*
X338277Y543112D01*
X338330Y543062D01*
X338380Y543009D01*
X338428Y542953D01*
X338472Y542895D01*
X338514Y542835D01*
X338552Y542773D01*
X338587Y542708D01*
X338618Y542642D01*
X338646Y542575D01*
X338671Y542506D01*
X338691Y542436D01*
X338708Y542364D01*
X338722Y542293D01*
X338731Y542220D01*
X338737Y542147D01*
X338739Y542074D01*
X338739Y536952D01*
X338737Y536867D01*
X338731Y536783D01*
X338722Y536698D01*
X338708Y536615D01*
X338691Y536532D01*
X338670Y536449D01*
X338645Y536368D01*
X338617Y536288D01*
X338585Y536210D01*
X338549Y536133D01*
X338510Y536057D01*
X338468Y535984D01*
X338422Y535913D01*
X338373Y535843D01*
X338321Y535776D01*
X338266Y535712D01*
X338208Y535650D01*
X338148Y535590D01*
X338084Y535534D01*
X338019Y535480D01*
X337950Y535430D01*
X337880Y535383D01*
X337808Y535339D01*
X337733Y535298D01*
X337657Y535261D01*
X337579Y535227D01*
X337500Y535197D01*
X337419Y535170D01*
X337338Y535147D01*
X337255Y535128D01*
X337172Y535113D01*
X337088Y535101D01*
X337003Y535093D01*
X336918Y535089D01*
X336834Y535089D01*
X336749Y535093D01*
X336664Y535101D01*
X336580Y535113D01*
X336497Y535128D01*
X336414Y535147D01*
X336333Y535170D01*
X336252Y535197D01*
X336173Y535227D01*
X336095Y535261D01*
X336019Y535298D01*
X335945Y535339D01*
X335872Y535383D01*
X335802Y535430D01*
X335733Y535480D01*
X335668Y535534D01*
X335604Y535590D01*
X335544Y535650D01*
X335486Y535712D01*
X335431Y535776D01*
X335379Y535843D01*
X335330Y535913D01*
X335284Y535984D01*
X335242Y536057D01*
X335203Y536133D01*
X335167Y536210D01*
X335135Y536288D01*
X335107Y536368D01*
X335082Y536449D01*
X335061Y536532D01*
X335044Y536615D01*
X335030Y536698D01*
X335021Y536783D01*
X335015Y536867D01*
X335013Y536952D01*
X335013Y538814D01*
X335015Y538899D01*
X335021Y538983D01*
X335030Y539068D01*
X335044Y539151D01*
X335061Y539234D01*
X335082Y539317D01*
X335107Y539398D01*
X335135Y539478D01*
X335167Y539556D01*
X335203Y539633D01*
X335242Y539709D01*
X335284Y539782D01*
X335330Y539853D01*
X335379Y539923D01*
X335431Y539990D01*
X335486Y540054D01*
X335544Y540116D01*
X335604Y540176D01*
X335668Y540232D01*
X335733Y540286D01*
X335802Y540336D01*
X335872Y540383D01*
X335945Y540427D01*
X336019Y540468D01*
X336095Y540505D01*
X336173Y540539D01*
X336252Y540569D01*
X336333Y540596D01*
X336414Y540619D01*
X336497Y540638D01*
X336580Y540653D01*
X336664Y540665D01*
X336749Y540673D01*
X336834Y540677D01*
X336918Y540677D01*
X337003Y540673D01*
X337088Y540665D01*
X337172Y540653D01*
X337255Y540638D01*
X337338Y540619D01*
X337419Y540596D01*
X337500Y540569D01*
X337579Y540539D01*
X337657Y540505D01*
X337733Y540468D01*
X337808Y540427D01*
X337880Y540383D01*
X337950Y540336D01*
X338019Y540286D01*
X338084Y540232D01*
X338148Y540176D01*
X338208Y540116D01*
X338266Y540054D01*
X338321Y539990D01*
X338373Y539923D01*
X338422Y539853D01*
X338468Y539782D01*
X338510Y539709D01*
X338549Y539633D01*
X338585Y539556D01*
X338617Y539478D01*
X338645Y539398D01*
X338670Y539317D01*
X338691Y539234D01*
X338708Y539151D01*
X338722Y539068D01*
X338731Y538983D01*
X338737Y538899D01*
X338739Y538814D01*
X330889Y538814D02*
X330889Y536952D01*
X330889Y538814D02*
X330887Y538899D01*
X330881Y538983D01*
X330872Y539068D01*
X330858Y539151D01*
X330841Y539234D01*
X330820Y539317D01*
X330795Y539398D01*
X330767Y539478D01*
X330735Y539556D01*
X330699Y539633D01*
X330660Y539709D01*
X330618Y539782D01*
X330572Y539853D01*
X330523Y539923D01*
X330471Y539990D01*
X330416Y540054D01*
X330358Y540116D01*
X330298Y540176D01*
X330234Y540232D01*
X330169Y540286D01*
X330100Y540336D01*
X330030Y540383D01*
X329958Y540427D01*
X329883Y540468D01*
X329807Y540505D01*
X329729Y540539D01*
X329650Y540569D01*
X329569Y540596D01*
X329488Y540619D01*
X329405Y540638D01*
X329322Y540653D01*
X329238Y540665D01*
X329153Y540673D01*
X329068Y540677D01*
X328984Y540677D01*
X328899Y540673D01*
X328814Y540665D01*
X328730Y540653D01*
X328647Y540638D01*
X328564Y540619D01*
X328483Y540596D01*
X328402Y540569D01*
X328323Y540539D01*
X328245Y540505D01*
X328169Y540468D01*
X328095Y540427D01*
X328022Y540383D01*
X327952Y540336D01*
X327883Y540286D01*
X327818Y540232D01*
X327754Y540176D01*
X327694Y540116D01*
X327636Y540054D01*
X327581Y539990D01*
X327529Y539923D01*
X327480Y539853D01*
X327434Y539782D01*
X327392Y539709D01*
X327353Y539633D01*
X327317Y539556D01*
X327285Y539478D01*
X327257Y539398D01*
X327232Y539317D01*
X327211Y539234D01*
X327194Y539151D01*
X327180Y539068D01*
X327171Y538983D01*
X327165Y538899D01*
X327163Y538814D01*
X327164Y538814D02*
X327164Y536952D01*
X327163Y536952D02*
X327165Y536867D01*
X327171Y536783D01*
X327180Y536698D01*
X327194Y536615D01*
X327211Y536532D01*
X327232Y536449D01*
X327257Y536368D01*
X327285Y536288D01*
X327317Y536210D01*
X327353Y536133D01*
X327392Y536057D01*
X327434Y535984D01*
X327480Y535913D01*
X327529Y535843D01*
X327581Y535776D01*
X327636Y535712D01*
X327694Y535650D01*
X327754Y535590D01*
X327818Y535534D01*
X327883Y535480D01*
X327952Y535430D01*
X328022Y535383D01*
X328095Y535339D01*
X328169Y535298D01*
X328245Y535261D01*
X328323Y535227D01*
X328402Y535197D01*
X328483Y535170D01*
X328564Y535147D01*
X328647Y535128D01*
X328730Y535113D01*
X328814Y535101D01*
X328899Y535093D01*
X328984Y535089D01*
X329068Y535089D01*
X329153Y535093D01*
X329238Y535101D01*
X329322Y535113D01*
X329405Y535128D01*
X329488Y535147D01*
X329569Y535170D01*
X329650Y535197D01*
X329729Y535227D01*
X329807Y535261D01*
X329883Y535298D01*
X329958Y535339D01*
X330030Y535383D01*
X330100Y535430D01*
X330169Y535480D01*
X330234Y535534D01*
X330298Y535590D01*
X330358Y535650D01*
X330416Y535712D01*
X330471Y535776D01*
X330523Y535843D01*
X330572Y535913D01*
X330618Y535984D01*
X330660Y536057D01*
X330699Y536133D01*
X330735Y536210D01*
X330767Y536288D01*
X330795Y536368D01*
X330820Y536449D01*
X330841Y536532D01*
X330858Y536615D01*
X330872Y536698D01*
X330881Y536783D01*
X330887Y536867D01*
X330889Y536952D01*
X322584Y540677D02*
X322584Y532295D01*
X322584Y540677D02*
X320256Y540677D01*
X320183Y540675D01*
X320110Y540669D01*
X320037Y540660D01*
X319966Y540646D01*
X319894Y540629D01*
X319824Y540609D01*
X319755Y540584D01*
X319688Y540556D01*
X319622Y540525D01*
X319558Y540490D01*
X319495Y540452D01*
X319435Y540410D01*
X319377Y540366D01*
X319321Y540318D01*
X319268Y540268D01*
X319218Y540215D01*
X319170Y540159D01*
X319126Y540101D01*
X319084Y540041D01*
X319046Y539979D01*
X319011Y539914D01*
X318980Y539848D01*
X318952Y539781D01*
X318927Y539712D01*
X318907Y539642D01*
X318890Y539570D01*
X318876Y539499D01*
X318867Y539426D01*
X318861Y539353D01*
X318859Y539280D01*
X318859Y536486D01*
X318861Y536413D01*
X318867Y536340D01*
X318876Y536267D01*
X318890Y536196D01*
X318907Y536124D01*
X318927Y536054D01*
X318952Y535985D01*
X318980Y535918D01*
X319011Y535852D01*
X319046Y535788D01*
X319084Y535725D01*
X319126Y535665D01*
X319170Y535607D01*
X319218Y535551D01*
X319268Y535498D01*
X319321Y535448D01*
X319377Y535400D01*
X319435Y535356D01*
X319495Y535314D01*
X319558Y535276D01*
X319622Y535241D01*
X319688Y535210D01*
X319755Y535182D01*
X319824Y535157D01*
X319894Y535137D01*
X319966Y535120D01*
X320037Y535106D01*
X320110Y535097D01*
X320183Y535091D01*
X320256Y535089D01*
X322584Y535089D01*
X430004Y173916D02*
X431401Y173916D01*
X430004Y173916D02*
X430004Y169259D01*
X432798Y169259D01*
X432882Y169261D01*
X432965Y169267D01*
X433048Y169276D01*
X433131Y169289D01*
X433213Y169306D01*
X433294Y169326D01*
X433374Y169350D01*
X433453Y169378D01*
X433530Y169409D01*
X433606Y169443D01*
X433681Y169481D01*
X433754Y169523D01*
X433824Y169567D01*
X433893Y169615D01*
X433960Y169665D01*
X434024Y169719D01*
X434085Y169775D01*
X434145Y169835D01*
X434201Y169896D01*
X434255Y169960D01*
X434305Y170027D01*
X434353Y170096D01*
X434397Y170166D01*
X434439Y170239D01*
X434477Y170314D01*
X434511Y170390D01*
X434542Y170467D01*
X434570Y170546D01*
X434594Y170626D01*
X434614Y170707D01*
X434631Y170789D01*
X434644Y170872D01*
X434654Y170955D01*
X434659Y171038D01*
X434661Y171122D01*
X434661Y175778D01*
X434659Y175864D01*
X434653Y175950D01*
X434643Y176035D01*
X434629Y176120D01*
X434612Y176205D01*
X434590Y176288D01*
X434564Y176370D01*
X434535Y176451D01*
X434502Y176530D01*
X434466Y176608D01*
X434426Y176685D01*
X434382Y176759D01*
X434335Y176831D01*
X434285Y176901D01*
X434231Y176968D01*
X434175Y177033D01*
X434115Y177095D01*
X434053Y177155D01*
X433988Y177211D01*
X433921Y177265D01*
X433851Y177315D01*
X433779Y177362D01*
X433705Y177406D01*
X433628Y177446D01*
X433551Y177482D01*
X433471Y177515D01*
X433390Y177544D01*
X433308Y177570D01*
X433225Y177592D01*
X433140Y177609D01*
X433055Y177623D01*
X432970Y177633D01*
X432884Y177639D01*
X432798Y177641D01*
X430004Y177641D01*
X424907Y177641D02*
X424907Y169259D01*
X420251Y169259D02*
X424907Y177641D01*
X420251Y177641D02*
X420251Y169259D01*
X415154Y169259D02*
X415154Y177641D01*
X412826Y177641D01*
X412730Y177639D01*
X412634Y177633D01*
X412538Y177623D01*
X412443Y177609D01*
X412348Y177591D01*
X412255Y177570D01*
X412162Y177544D01*
X412070Y177515D01*
X411980Y177482D01*
X411891Y177445D01*
X411804Y177404D01*
X411718Y177360D01*
X411634Y177313D01*
X411553Y177262D01*
X411473Y177208D01*
X411396Y177150D01*
X411321Y177089D01*
X411249Y177026D01*
X411180Y176959D01*
X411113Y176890D01*
X411050Y176818D01*
X410989Y176743D01*
X410931Y176666D01*
X410877Y176586D01*
X410826Y176505D01*
X410779Y176421D01*
X410735Y176335D01*
X410694Y176248D01*
X410657Y176159D01*
X410624Y176069D01*
X410595Y175977D01*
X410569Y175885D01*
X410548Y175791D01*
X410530Y175696D01*
X410516Y175601D01*
X410506Y175505D01*
X410500Y175409D01*
X410498Y175313D01*
X410497Y175313D02*
X410497Y171587D01*
X410499Y171493D01*
X410505Y171400D01*
X410514Y171306D01*
X410527Y171214D01*
X410544Y171121D01*
X410565Y171030D01*
X410589Y170939D01*
X410617Y170850D01*
X410648Y170761D01*
X410683Y170674D01*
X410722Y170589D01*
X410764Y170505D01*
X410809Y170423D01*
X410857Y170343D01*
X410909Y170265D01*
X410964Y170188D01*
X411022Y170115D01*
X411082Y170043D01*
X411146Y169974D01*
X411212Y169908D01*
X411281Y169844D01*
X411353Y169784D01*
X411426Y169726D01*
X411503Y169671D01*
X411581Y169619D01*
X411661Y169571D01*
X411743Y169526D01*
X411827Y169484D01*
X411913Y169445D01*
X412000Y169410D01*
X412088Y169379D01*
X412177Y169351D01*
X412268Y169327D01*
X412359Y169306D01*
X412452Y169289D01*
X412544Y169276D01*
X412638Y169267D01*
X412731Y169261D01*
X412825Y169259D01*
X412826Y169259D02*
X415154Y169259D01*
X432333Y150141D02*
X432333Y141759D01*
X434661Y150141D02*
X430004Y150141D01*
X421004Y150141D02*
X426592Y141759D01*
X421004Y141759D02*
X426592Y150141D01*
X431867Y91759D02*
X434661Y91759D01*
X431867Y91759D02*
X431783Y91761D01*
X431700Y91766D01*
X431617Y91776D01*
X431534Y91789D01*
X431452Y91806D01*
X431371Y91826D01*
X431291Y91850D01*
X431212Y91878D01*
X431135Y91909D01*
X431059Y91943D01*
X430984Y91981D01*
X430911Y92023D01*
X430841Y92067D01*
X430772Y92115D01*
X430705Y92165D01*
X430641Y92219D01*
X430580Y92275D01*
X430520Y92335D01*
X430464Y92396D01*
X430410Y92460D01*
X430360Y92527D01*
X430312Y92596D01*
X430268Y92666D01*
X430226Y92739D01*
X430188Y92814D01*
X430154Y92890D01*
X430123Y92967D01*
X430095Y93046D01*
X430071Y93126D01*
X430051Y93207D01*
X430034Y93289D01*
X430021Y93372D01*
X430011Y93455D01*
X430006Y93538D01*
X430004Y93622D01*
X430004Y94553D01*
X430006Y94637D01*
X430012Y94720D01*
X430021Y94803D01*
X430034Y94886D01*
X430051Y94968D01*
X430071Y95049D01*
X430095Y95129D01*
X430123Y95208D01*
X430154Y95285D01*
X430188Y95361D01*
X430226Y95436D01*
X430268Y95509D01*
X430312Y95579D01*
X430360Y95648D01*
X430410Y95715D01*
X430464Y95779D01*
X430520Y95840D01*
X430580Y95900D01*
X430641Y95956D01*
X430705Y96010D01*
X430772Y96060D01*
X430841Y96108D01*
X430911Y96152D01*
X430984Y96194D01*
X431059Y96232D01*
X431135Y96266D01*
X431212Y96297D01*
X431291Y96325D01*
X431371Y96349D01*
X431452Y96369D01*
X431534Y96386D01*
X431617Y96399D01*
X431700Y96409D01*
X431783Y96414D01*
X431867Y96416D01*
X434661Y96416D01*
X434661Y100141D01*
X430004Y100141D01*
X425983Y100141D02*
X423189Y91759D01*
X420395Y100141D01*
D11*
X391160Y561340D02*
X391160Y571500D01*
X393700Y574040D01*
X424180Y574040D01*
X426720Y571500D01*
X426720Y561340D01*
X391160Y509270D02*
X391160Y501650D01*
X393700Y499110D01*
X424180Y499110D01*
X426720Y501650D01*
X426720Y509270D01*
D12*
X456560Y590490D02*
X456560Y285690D01*
X100960Y285690D01*
X100960Y590490D01*
X456560Y590490D01*
D13*
X512100Y272215D02*
X524798Y271971D01*
X499403Y272459D02*
X486705Y272702D01*
X492932Y266232D02*
X493176Y278929D01*
X472910Y254560D02*
X472920Y255358D01*
X472949Y256155D01*
X472998Y256951D01*
X473066Y257746D01*
X473154Y258538D01*
X473262Y259329D01*
X473388Y260116D01*
X473534Y260900D01*
X473700Y261681D01*
X473884Y262457D01*
X474087Y263228D01*
X474309Y263994D01*
X474550Y264755D01*
X474810Y265509D01*
X475088Y266257D01*
X475384Y266997D01*
X475698Y267730D01*
X476030Y268456D01*
X476380Y269172D01*
X476748Y269880D01*
X477132Y270579D01*
X477534Y271268D01*
X477952Y271947D01*
X478387Y272616D01*
X478838Y273274D01*
X479306Y273920D01*
X479789Y274555D01*
X480287Y275178D01*
X480801Y275788D01*
X481329Y276386D01*
X481872Y276970D01*
X482429Y277541D01*
X483000Y278098D01*
X483584Y278641D01*
X484182Y279169D01*
X484792Y279683D01*
X485415Y280181D01*
X486050Y280664D01*
X486696Y281132D01*
X487354Y281583D01*
X488023Y282018D01*
X488702Y282436D01*
X489391Y282838D01*
X490090Y283222D01*
X490798Y283590D01*
X491514Y283940D01*
X492240Y284272D01*
X492973Y284586D01*
X493713Y284882D01*
X494461Y285160D01*
X495215Y285420D01*
X495976Y285661D01*
X496742Y285883D01*
X497513Y286086D01*
X498289Y286270D01*
X499070Y286436D01*
X499854Y286582D01*
X500641Y286708D01*
X501432Y286816D01*
X502224Y286904D01*
X503019Y286972D01*
X503815Y287021D01*
X504612Y287050D01*
X505410Y287060D01*
X506208Y287050D01*
X507005Y287021D01*
X507801Y286972D01*
X508596Y286904D01*
X509388Y286816D01*
X510179Y286708D01*
X510966Y286582D01*
X511750Y286436D01*
X512531Y286270D01*
X513307Y286086D01*
X514078Y285883D01*
X514844Y285661D01*
X515605Y285420D01*
X516359Y285160D01*
X517107Y284882D01*
X517847Y284586D01*
X518580Y284272D01*
X519306Y283940D01*
X520022Y283590D01*
X520730Y283222D01*
X521429Y282838D01*
X522118Y282436D01*
X522797Y282018D01*
X523466Y281583D01*
X524124Y281132D01*
X524770Y280664D01*
X525405Y280181D01*
X526028Y279683D01*
X526638Y279169D01*
X527236Y278641D01*
X527820Y278098D01*
X528391Y277541D01*
X528948Y276970D01*
X529491Y276386D01*
X530019Y275788D01*
X530533Y275178D01*
X531031Y274555D01*
X531514Y273920D01*
X531982Y273274D01*
X532433Y272616D01*
X532868Y271947D01*
X533286Y271268D01*
X533688Y270579D01*
X534072Y269880D01*
X534440Y269172D01*
X534790Y268456D01*
X535122Y267730D01*
X535436Y266997D01*
X535732Y266257D01*
X536010Y265509D01*
X536270Y264755D01*
X536511Y263994D01*
X536733Y263228D01*
X536936Y262457D01*
X537120Y261681D01*
X537286Y260900D01*
X537432Y260116D01*
X537558Y259329D01*
X537666Y258538D01*
X537754Y257746D01*
X537822Y256951D01*
X537871Y256155D01*
X537900Y255358D01*
X537910Y254560D01*
X537900Y253762D01*
X537871Y252965D01*
X537822Y252169D01*
X537754Y251374D01*
X537666Y250582D01*
X537558Y249791D01*
X537432Y249004D01*
X537286Y248220D01*
X537120Y247439D01*
X536936Y246663D01*
X536733Y245892D01*
X536511Y245126D01*
X536270Y244365D01*
X536010Y243611D01*
X535732Y242863D01*
X535436Y242123D01*
X535122Y241390D01*
X534790Y240664D01*
X534440Y239948D01*
X534072Y239240D01*
X533688Y238541D01*
X533286Y237852D01*
X532868Y237173D01*
X532433Y236504D01*
X531982Y235846D01*
X531514Y235200D01*
X531031Y234565D01*
X530533Y233942D01*
X530019Y233332D01*
X529491Y232734D01*
X528948Y232150D01*
X528391Y231579D01*
X527820Y231022D01*
X527236Y230479D01*
X526638Y229951D01*
X526028Y229437D01*
X525405Y228939D01*
X524770Y228456D01*
X524124Y227988D01*
X523466Y227537D01*
X522797Y227102D01*
X522118Y226684D01*
X521429Y226282D01*
X520730Y225898D01*
X520022Y225530D01*
X519306Y225180D01*
X518580Y224848D01*
X517847Y224534D01*
X517107Y224238D01*
X516359Y223960D01*
X515605Y223700D01*
X514844Y223459D01*
X514078Y223237D01*
X513307Y223034D01*
X512531Y222850D01*
X511750Y222684D01*
X510966Y222538D01*
X510179Y222412D01*
X509388Y222304D01*
X508596Y222216D01*
X507801Y222148D01*
X507005Y222099D01*
X506208Y222070D01*
X505410Y222060D01*
X504612Y222070D01*
X503815Y222099D01*
X503019Y222148D01*
X502224Y222216D01*
X501432Y222304D01*
X500641Y222412D01*
X499854Y222538D01*
X499070Y222684D01*
X498289Y222850D01*
X497513Y223034D01*
X496742Y223237D01*
X495976Y223459D01*
X495215Y223700D01*
X494461Y223960D01*
X493713Y224238D01*
X492973Y224534D01*
X492240Y224848D01*
X491514Y225180D01*
X490798Y225530D01*
X490090Y225898D01*
X489391Y226282D01*
X488702Y226684D01*
X488023Y227102D01*
X487354Y227537D01*
X486696Y227988D01*
X486050Y228456D01*
X485415Y228939D01*
X484792Y229437D01*
X484182Y229951D01*
X483584Y230479D01*
X483000Y231022D01*
X482429Y231579D01*
X481872Y232150D01*
X481329Y232734D01*
X480801Y233332D01*
X480287Y233942D01*
X479789Y234565D01*
X479306Y235200D01*
X478838Y235846D01*
X478387Y236504D01*
X477952Y237173D01*
X477534Y237852D01*
X477132Y238541D01*
X476748Y239240D01*
X476380Y239948D01*
X476030Y240664D01*
X475698Y241390D01*
X475384Y242123D01*
X475088Y242863D01*
X474810Y243611D01*
X474550Y244365D01*
X474309Y245126D01*
X474087Y245892D01*
X473884Y246663D01*
X473700Y247439D01*
X473534Y248220D01*
X473388Y249004D01*
X473262Y249791D01*
X473154Y250582D01*
X473066Y251374D01*
X472998Y252169D01*
X472949Y252965D01*
X472920Y253762D01*
X472910Y254560D01*
D11*
X507759Y293710D02*
X510016Y293667D01*
X510017Y293666D02*
X510110Y293667D01*
X510203Y293671D01*
X510296Y293678D01*
X510389Y293690D01*
X510481Y293706D01*
X510572Y293725D01*
X510663Y293748D01*
X510752Y293775D01*
X510840Y293805D01*
X510927Y293839D01*
X511013Y293877D01*
X511096Y293918D01*
X511178Y293962D01*
X511259Y294010D01*
X511337Y294061D01*
X511412Y294116D01*
X511486Y294173D01*
X511557Y294234D01*
X511626Y294297D01*
X511692Y294363D01*
X511755Y294432D01*
X511815Y294503D01*
X511872Y294577D01*
X511926Y294653D01*
X511977Y294731D01*
X512025Y294811D01*
X512069Y294894D01*
X512110Y294977D01*
X512147Y295063D01*
X512181Y295150D01*
X512211Y295238D01*
X512238Y295328D01*
X512261Y295418D01*
X512280Y295510D01*
X512295Y295602D01*
X512306Y295694D01*
X512314Y295787D01*
X512318Y295881D01*
X512317Y295881D02*
X512425Y301524D01*
X512426Y301524D02*
X512425Y301617D01*
X512421Y301710D01*
X512414Y301803D01*
X512402Y301896D01*
X512386Y301988D01*
X512367Y302079D01*
X512344Y302170D01*
X512317Y302259D01*
X512287Y302347D01*
X512253Y302434D01*
X512215Y302520D01*
X512174Y302603D01*
X512130Y302685D01*
X512082Y302765D01*
X512031Y302844D01*
X511976Y302919D01*
X511919Y302993D01*
X511858Y303064D01*
X511795Y303133D01*
X511729Y303199D01*
X511660Y303262D01*
X511589Y303322D01*
X511515Y303379D01*
X511439Y303433D01*
X511361Y303484D01*
X511281Y303532D01*
X511198Y303576D01*
X511115Y303617D01*
X511029Y303654D01*
X510942Y303688D01*
X510854Y303718D01*
X510764Y303745D01*
X510674Y303768D01*
X510582Y303787D01*
X510490Y303802D01*
X510398Y303813D01*
X510305Y303821D01*
X510211Y303825D01*
X507954Y303868D01*
X502844Y301708D02*
X500066Y304020D01*
X499871Y293861D01*
X502692Y293807D02*
X497049Y293916D01*
X508988Y187060D02*
X511246Y187060D01*
X511339Y187062D01*
X511432Y187068D01*
X511525Y187077D01*
X511618Y187091D01*
X511709Y187108D01*
X511800Y187129D01*
X511890Y187154D01*
X511979Y187182D01*
X512067Y187214D01*
X512153Y187250D01*
X512238Y187289D01*
X512321Y187332D01*
X512402Y187378D01*
X512481Y187428D01*
X512558Y187480D01*
X512633Y187536D01*
X512705Y187595D01*
X512775Y187657D01*
X512843Y187721D01*
X512907Y187789D01*
X512969Y187859D01*
X513028Y187931D01*
X513084Y188006D01*
X513136Y188083D01*
X513186Y188162D01*
X513232Y188243D01*
X513275Y188326D01*
X513314Y188411D01*
X513350Y188497D01*
X513382Y188585D01*
X513410Y188674D01*
X513435Y188764D01*
X513456Y188855D01*
X513473Y188946D01*
X513487Y189039D01*
X513496Y189132D01*
X513502Y189225D01*
X513504Y189318D01*
X513504Y194962D01*
X513502Y195055D01*
X513496Y195148D01*
X513487Y195241D01*
X513473Y195334D01*
X513456Y195425D01*
X513435Y195516D01*
X513410Y195606D01*
X513382Y195695D01*
X513350Y195783D01*
X513314Y195869D01*
X513275Y195954D01*
X513232Y196037D01*
X513186Y196118D01*
X513136Y196197D01*
X513084Y196274D01*
X513028Y196349D01*
X512969Y196421D01*
X512907Y196491D01*
X512843Y196559D01*
X512775Y196623D01*
X512705Y196685D01*
X512633Y196744D01*
X512558Y196800D01*
X512481Y196852D01*
X512402Y196902D01*
X512321Y196948D01*
X512238Y196991D01*
X512153Y197030D01*
X512067Y197066D01*
X511979Y197098D01*
X511890Y197126D01*
X511800Y197151D01*
X511709Y197172D01*
X511618Y197189D01*
X511525Y197203D01*
X511432Y197212D01*
X511339Y197218D01*
X511246Y197220D01*
X508988Y197220D01*
X500816Y197220D02*
X500716Y197218D01*
X500617Y197212D01*
X500517Y197202D01*
X500419Y197189D01*
X500320Y197171D01*
X500223Y197150D01*
X500127Y197125D01*
X500031Y197096D01*
X499937Y197063D01*
X499844Y197027D01*
X499753Y196987D01*
X499663Y196943D01*
X499575Y196896D01*
X499489Y196846D01*
X499405Y196792D01*
X499323Y196735D01*
X499244Y196675D01*
X499166Y196611D01*
X499092Y196545D01*
X499020Y196476D01*
X498951Y196404D01*
X498885Y196330D01*
X498821Y196252D01*
X498761Y196173D01*
X498704Y196091D01*
X498650Y196007D01*
X498600Y195921D01*
X498553Y195833D01*
X498509Y195743D01*
X498469Y195652D01*
X498433Y195559D01*
X498400Y195465D01*
X498371Y195369D01*
X498346Y195273D01*
X498325Y195176D01*
X498307Y195077D01*
X498294Y194979D01*
X498284Y194879D01*
X498278Y194780D01*
X498276Y194680D01*
X500816Y197220D02*
X500927Y197218D01*
X501038Y197212D01*
X501148Y197203D01*
X501258Y197190D01*
X501368Y197173D01*
X501477Y197152D01*
X501585Y197128D01*
X501692Y197100D01*
X501799Y197069D01*
X501904Y197033D01*
X502008Y196995D01*
X502110Y196952D01*
X502211Y196907D01*
X502311Y196857D01*
X502408Y196805D01*
X502504Y196749D01*
X502598Y196690D01*
X502690Y196628D01*
X502780Y196563D01*
X502867Y196495D01*
X502952Y196423D01*
X503035Y196349D01*
X503115Y196273D01*
X503192Y196193D01*
X503267Y196111D01*
X503339Y196027D01*
X503408Y195940D01*
X503473Y195851D01*
X503536Y195759D01*
X503596Y195666D01*
X503652Y195570D01*
X503706Y195473D01*
X503755Y195374D01*
X503802Y195273D01*
X503845Y195171D01*
X503884Y195067D01*
X503920Y194962D01*
X499123Y192705D02*
X499051Y192775D01*
X498982Y192848D01*
X498916Y192924D01*
X498853Y193002D01*
X498793Y193082D01*
X498736Y193165D01*
X498681Y193249D01*
X498630Y193336D01*
X498582Y193424D01*
X498538Y193514D01*
X498497Y193605D01*
X498459Y193698D01*
X498424Y193793D01*
X498393Y193888D01*
X498366Y193985D01*
X498342Y194082D01*
X498322Y194181D01*
X498306Y194280D01*
X498293Y194379D01*
X498283Y194479D01*
X498278Y194580D01*
X498276Y194680D01*
X499123Y192704D02*
X503921Y187060D01*
X498276Y187060D01*
D13*
X68660Y72430D02*
X25480Y72430D01*
X25480Y11470D02*
X68660Y11470D01*
X16590Y31790D02*
X16590Y51930D01*
X77550Y52230D02*
X77550Y31790D01*
X29290Y41950D02*
X29295Y42386D01*
X29311Y42822D01*
X29338Y43258D01*
X29376Y43693D01*
X29424Y44126D01*
X29482Y44559D01*
X29552Y44990D01*
X29632Y45419D01*
X29722Y45846D01*
X29823Y46270D01*
X29934Y46692D01*
X30056Y47111D01*
X30187Y47527D01*
X30329Y47940D01*
X30481Y48349D01*
X30643Y48754D01*
X30815Y49155D01*
X30997Y49552D01*
X31188Y49944D01*
X31389Y50331D01*
X31600Y50714D01*
X31820Y51091D01*
X32049Y51462D01*
X32286Y51828D01*
X32533Y52188D01*
X32789Y52542D01*
X33053Y52889D01*
X33326Y53230D01*
X33607Y53563D01*
X33896Y53890D01*
X34193Y54210D01*
X34498Y54522D01*
X34810Y54827D01*
X35130Y55124D01*
X35457Y55413D01*
X35790Y55694D01*
X36131Y55967D01*
X36478Y56231D01*
X36832Y56487D01*
X37192Y56734D01*
X37558Y56971D01*
X37929Y57200D01*
X38306Y57420D01*
X38689Y57631D01*
X39076Y57832D01*
X39468Y58023D01*
X39865Y58205D01*
X40266Y58377D01*
X40671Y58539D01*
X41080Y58691D01*
X41493Y58833D01*
X41909Y58964D01*
X42328Y59086D01*
X42750Y59197D01*
X43174Y59298D01*
X43601Y59388D01*
X44030Y59468D01*
X44461Y59538D01*
X44894Y59596D01*
X45327Y59644D01*
X45762Y59682D01*
X46198Y59709D01*
X46634Y59725D01*
X47070Y59730D01*
X47506Y59725D01*
X47942Y59709D01*
X48378Y59682D01*
X48813Y59644D01*
X49246Y59596D01*
X49679Y59538D01*
X50110Y59468D01*
X50539Y59388D01*
X50966Y59298D01*
X51390Y59197D01*
X51812Y59086D01*
X52231Y58964D01*
X52647Y58833D01*
X53060Y58691D01*
X53469Y58539D01*
X53874Y58377D01*
X54275Y58205D01*
X54672Y58023D01*
X55064Y57832D01*
X55451Y57631D01*
X55834Y57420D01*
X56211Y57200D01*
X56582Y56971D01*
X56948Y56734D01*
X57308Y56487D01*
X57662Y56231D01*
X58009Y55967D01*
X58350Y55694D01*
X58683Y55413D01*
X59010Y55124D01*
X59330Y54827D01*
X59642Y54522D01*
X59947Y54210D01*
X60244Y53890D01*
X60533Y53563D01*
X60814Y53230D01*
X61087Y52889D01*
X61351Y52542D01*
X61607Y52188D01*
X61854Y51828D01*
X62091Y51462D01*
X62320Y51091D01*
X62540Y50714D01*
X62751Y50331D01*
X62952Y49944D01*
X63143Y49552D01*
X63325Y49155D01*
X63497Y48754D01*
X63659Y48349D01*
X63811Y47940D01*
X63953Y47527D01*
X64084Y47111D01*
X64206Y46692D01*
X64317Y46270D01*
X64418Y45846D01*
X64508Y45419D01*
X64588Y44990D01*
X64658Y44559D01*
X64716Y44126D01*
X64764Y43693D01*
X64802Y43258D01*
X64829Y42822D01*
X64845Y42386D01*
X64850Y41950D01*
X64845Y41514D01*
X64829Y41078D01*
X64802Y40642D01*
X64764Y40207D01*
X64716Y39774D01*
X64658Y39341D01*
X64588Y38910D01*
X64508Y38481D01*
X64418Y38054D01*
X64317Y37630D01*
X64206Y37208D01*
X64084Y36789D01*
X63953Y36373D01*
X63811Y35960D01*
X63659Y35551D01*
X63497Y35146D01*
X63325Y34745D01*
X63143Y34348D01*
X62952Y33956D01*
X62751Y33569D01*
X62540Y33186D01*
X62320Y32809D01*
X62091Y32438D01*
X61854Y32072D01*
X61607Y31712D01*
X61351Y31358D01*
X61087Y31011D01*
X60814Y30670D01*
X60533Y30337D01*
X60244Y30010D01*
X59947Y29690D01*
X59642Y29378D01*
X59330Y29073D01*
X59010Y28776D01*
X58683Y28487D01*
X58350Y28206D01*
X58009Y27933D01*
X57662Y27669D01*
X57308Y27413D01*
X56948Y27166D01*
X56582Y26929D01*
X56211Y26700D01*
X55834Y26480D01*
X55451Y26269D01*
X55064Y26068D01*
X54672Y25877D01*
X54275Y25695D01*
X53874Y25523D01*
X53469Y25361D01*
X53060Y25209D01*
X52647Y25067D01*
X52231Y24936D01*
X51812Y24814D01*
X51390Y24703D01*
X50966Y24602D01*
X50539Y24512D01*
X50110Y24432D01*
X49679Y24362D01*
X49246Y24304D01*
X48813Y24256D01*
X48378Y24218D01*
X47942Y24191D01*
X47506Y24175D01*
X47070Y24170D01*
X46634Y24175D01*
X46198Y24191D01*
X45762Y24218D01*
X45327Y24256D01*
X44894Y24304D01*
X44461Y24362D01*
X44030Y24432D01*
X43601Y24512D01*
X43174Y24602D01*
X42750Y24703D01*
X42328Y24814D01*
X41909Y24936D01*
X41493Y25067D01*
X41080Y25209D01*
X40671Y25361D01*
X40266Y25523D01*
X39865Y25695D01*
X39468Y25877D01*
X39076Y26068D01*
X38689Y26269D01*
X38306Y26480D01*
X37929Y26700D01*
X37558Y26929D01*
X37192Y27166D01*
X36832Y27413D01*
X36478Y27669D01*
X36131Y27933D01*
X35790Y28206D01*
X35457Y28487D01*
X35130Y28776D01*
X34810Y29073D01*
X34498Y29378D01*
X34193Y29690D01*
X33896Y30010D01*
X33607Y30337D01*
X33326Y30670D01*
X33053Y31011D01*
X32789Y31358D01*
X32533Y31712D01*
X32286Y32072D01*
X32049Y32438D01*
X31820Y32809D01*
X31600Y33186D01*
X31389Y33569D01*
X31188Y33956D01*
X30997Y34348D01*
X30815Y34745D01*
X30643Y35146D01*
X30481Y35551D01*
X30329Y35960D01*
X30187Y36373D01*
X30056Y36789D01*
X29934Y37208D01*
X29823Y37630D01*
X29722Y38054D01*
X29632Y38481D01*
X29552Y38910D01*
X29482Y39341D01*
X29424Y39774D01*
X29376Y40207D01*
X29338Y40642D01*
X29311Y41078D01*
X29295Y41514D01*
X29290Y41950D01*
D11*
X57590Y84424D02*
X60412Y84424D01*
X57590Y84424D02*
X57484Y84422D01*
X57379Y84416D01*
X57274Y84406D01*
X57169Y84392D01*
X57065Y84375D01*
X56962Y84353D01*
X56860Y84328D01*
X56758Y84299D01*
X56658Y84266D01*
X56559Y84229D01*
X56462Y84189D01*
X56366Y84145D01*
X56271Y84097D01*
X56179Y84046D01*
X56089Y83991D01*
X56000Y83934D01*
X55914Y83873D01*
X55831Y83808D01*
X55749Y83741D01*
X55671Y83671D01*
X55595Y83597D01*
X55521Y83521D01*
X55451Y83443D01*
X55384Y83361D01*
X55319Y83278D01*
X55258Y83192D01*
X55201Y83103D01*
X55146Y83013D01*
X55095Y82921D01*
X55047Y82826D01*
X55003Y82730D01*
X54963Y82633D01*
X54926Y82534D01*
X54893Y82434D01*
X54864Y82332D01*
X54839Y82230D01*
X54817Y82127D01*
X54800Y82023D01*
X54786Y81918D01*
X54776Y81813D01*
X54770Y81708D01*
X54768Y81602D01*
X54770Y81496D01*
X54776Y81391D01*
X54786Y81286D01*
X54800Y81181D01*
X54817Y81077D01*
X54839Y80974D01*
X54864Y80872D01*
X54893Y80770D01*
X54926Y80670D01*
X54963Y80571D01*
X55003Y80474D01*
X55047Y80378D01*
X55095Y80283D01*
X55146Y80191D01*
X55201Y80101D01*
X55258Y80012D01*
X55319Y79926D01*
X55384Y79843D01*
X55451Y79761D01*
X55521Y79683D01*
X55595Y79607D01*
X55671Y79533D01*
X55749Y79463D01*
X55831Y79396D01*
X55914Y79331D01*
X56000Y79270D01*
X56089Y79213D01*
X56179Y79158D01*
X56271Y79107D01*
X56366Y79059D01*
X56462Y79015D01*
X56559Y78975D01*
X56658Y78938D01*
X56758Y78905D01*
X56860Y78876D01*
X56962Y78851D01*
X57065Y78829D01*
X57169Y78812D01*
X57274Y78798D01*
X57379Y78788D01*
X57484Y78782D01*
X57590Y78780D01*
X60412Y78780D01*
X60412Y88940D01*
X57590Y88940D01*
X57497Y88938D01*
X57404Y88932D01*
X57311Y88923D01*
X57218Y88909D01*
X57127Y88892D01*
X57036Y88871D01*
X56946Y88846D01*
X56857Y88818D01*
X56769Y88786D01*
X56683Y88750D01*
X56598Y88711D01*
X56515Y88668D01*
X56434Y88622D01*
X56355Y88572D01*
X56278Y88520D01*
X56203Y88464D01*
X56131Y88405D01*
X56061Y88343D01*
X55993Y88279D01*
X55929Y88211D01*
X55867Y88141D01*
X55808Y88069D01*
X55752Y87994D01*
X55700Y87917D01*
X55650Y87838D01*
X55604Y87757D01*
X55561Y87674D01*
X55522Y87589D01*
X55486Y87503D01*
X55454Y87415D01*
X55426Y87326D01*
X55401Y87236D01*
X55380Y87145D01*
X55363Y87054D01*
X55349Y86961D01*
X55340Y86868D01*
X55334Y86775D01*
X55332Y86682D01*
X55334Y86589D01*
X55340Y86496D01*
X55349Y86403D01*
X55363Y86310D01*
X55380Y86219D01*
X55401Y86128D01*
X55426Y86038D01*
X55454Y85949D01*
X55486Y85861D01*
X55522Y85775D01*
X55561Y85690D01*
X55604Y85607D01*
X55650Y85526D01*
X55700Y85447D01*
X55752Y85370D01*
X55808Y85295D01*
X55867Y85223D01*
X55929Y85153D01*
X55993Y85085D01*
X56061Y85021D01*
X56131Y84959D01*
X56203Y84900D01*
X56278Y84844D01*
X56355Y84792D01*
X56434Y84742D01*
X56515Y84696D01*
X56598Y84653D01*
X56683Y84614D01*
X56769Y84578D01*
X56857Y84546D01*
X56946Y84518D01*
X57036Y84493D01*
X57127Y84472D01*
X57218Y84455D01*
X57311Y84441D01*
X57404Y84432D01*
X57497Y84426D01*
X57590Y84424D01*
X47599Y88940D02*
X47599Y78780D01*
X50421Y88940D02*
X44777Y88940D01*
X39372Y88940D02*
X39372Y78780D01*
X33728Y78780D02*
X39372Y88940D01*
X33728Y88940D02*
X33728Y78780D01*
X53813Y148020D02*
X53813Y158180D01*
X50991Y158180D01*
X50885Y158178D01*
X50780Y158172D01*
X50675Y158162D01*
X50570Y158148D01*
X50466Y158131D01*
X50363Y158109D01*
X50261Y158084D01*
X50159Y158055D01*
X50059Y158022D01*
X49960Y157985D01*
X49863Y157945D01*
X49767Y157901D01*
X49672Y157853D01*
X49580Y157802D01*
X49490Y157747D01*
X49401Y157690D01*
X49315Y157629D01*
X49232Y157564D01*
X49150Y157497D01*
X49072Y157427D01*
X48996Y157353D01*
X48922Y157277D01*
X48852Y157199D01*
X48785Y157117D01*
X48720Y157034D01*
X48659Y156948D01*
X48602Y156859D01*
X48547Y156769D01*
X48496Y156677D01*
X48448Y156582D01*
X48404Y156486D01*
X48364Y156389D01*
X48327Y156290D01*
X48294Y156190D01*
X48265Y156088D01*
X48240Y155986D01*
X48218Y155883D01*
X48201Y155779D01*
X48187Y155674D01*
X48177Y155569D01*
X48171Y155464D01*
X48169Y155358D01*
X48171Y155252D01*
X48177Y155147D01*
X48187Y155042D01*
X48201Y154937D01*
X48218Y154833D01*
X48240Y154730D01*
X48265Y154628D01*
X48294Y154526D01*
X48327Y154426D01*
X48364Y154327D01*
X48404Y154230D01*
X48448Y154134D01*
X48496Y154039D01*
X48547Y153947D01*
X48602Y153857D01*
X48659Y153768D01*
X48720Y153682D01*
X48785Y153599D01*
X48852Y153517D01*
X48922Y153439D01*
X48996Y153363D01*
X49072Y153289D01*
X49150Y153219D01*
X49232Y153152D01*
X49315Y153087D01*
X49401Y153026D01*
X49490Y152969D01*
X49580Y152914D01*
X49672Y152863D01*
X49767Y152815D01*
X49863Y152771D01*
X49960Y152731D01*
X50059Y152694D01*
X50159Y152661D01*
X50261Y152632D01*
X50363Y152607D01*
X50466Y152585D01*
X50570Y152568D01*
X50675Y152554D01*
X50780Y152544D01*
X50885Y152538D01*
X50991Y152536D01*
X53813Y152536D01*
X50426Y152536D02*
X48168Y148020D01*
X42512Y155922D02*
X39689Y158180D01*
X39689Y148020D01*
X36867Y148020D02*
X42512Y148020D01*
D13*
X484800Y126180D02*
X484800Y113480D01*
X484800Y100780D02*
X484800Y88080D01*
X478450Y94430D02*
X491150Y94430D01*
X470080Y107130D02*
X470090Y107928D01*
X470119Y108725D01*
X470168Y109521D01*
X470236Y110316D01*
X470324Y111108D01*
X470432Y111899D01*
X470558Y112686D01*
X470704Y113470D01*
X470870Y114251D01*
X471054Y115027D01*
X471257Y115798D01*
X471479Y116564D01*
X471720Y117325D01*
X471980Y118079D01*
X472258Y118827D01*
X472554Y119567D01*
X472868Y120300D01*
X473200Y121026D01*
X473550Y121742D01*
X473918Y122450D01*
X474302Y123149D01*
X474704Y123838D01*
X475122Y124517D01*
X475557Y125186D01*
X476008Y125844D01*
X476476Y126490D01*
X476959Y127125D01*
X477457Y127748D01*
X477971Y128358D01*
X478499Y128956D01*
X479042Y129540D01*
X479599Y130111D01*
X480170Y130668D01*
X480754Y131211D01*
X481352Y131739D01*
X481962Y132253D01*
X482585Y132751D01*
X483220Y133234D01*
X483866Y133702D01*
X484524Y134153D01*
X485193Y134588D01*
X485872Y135006D01*
X486561Y135408D01*
X487260Y135792D01*
X487968Y136160D01*
X488684Y136510D01*
X489410Y136842D01*
X490143Y137156D01*
X490883Y137452D01*
X491631Y137730D01*
X492385Y137990D01*
X493146Y138231D01*
X493912Y138453D01*
X494683Y138656D01*
X495459Y138840D01*
X496240Y139006D01*
X497024Y139152D01*
X497811Y139278D01*
X498602Y139386D01*
X499394Y139474D01*
X500189Y139542D01*
X500985Y139591D01*
X501782Y139620D01*
X502580Y139630D01*
X503378Y139620D01*
X504175Y139591D01*
X504971Y139542D01*
X505766Y139474D01*
X506558Y139386D01*
X507349Y139278D01*
X508136Y139152D01*
X508920Y139006D01*
X509701Y138840D01*
X510477Y138656D01*
X511248Y138453D01*
X512014Y138231D01*
X512775Y137990D01*
X513529Y137730D01*
X514277Y137452D01*
X515017Y137156D01*
X515750Y136842D01*
X516476Y136510D01*
X517192Y136160D01*
X517900Y135792D01*
X518599Y135408D01*
X519288Y135006D01*
X519967Y134588D01*
X520636Y134153D01*
X521294Y133702D01*
X521940Y133234D01*
X522575Y132751D01*
X523198Y132253D01*
X523808Y131739D01*
X524406Y131211D01*
X524990Y130668D01*
X525561Y130111D01*
X526118Y129540D01*
X526661Y128956D01*
X527189Y128358D01*
X527703Y127748D01*
X528201Y127125D01*
X528684Y126490D01*
X529152Y125844D01*
X529603Y125186D01*
X530038Y124517D01*
X530456Y123838D01*
X530858Y123149D01*
X531242Y122450D01*
X531610Y121742D01*
X531960Y121026D01*
X532292Y120300D01*
X532606Y119567D01*
X532902Y118827D01*
X533180Y118079D01*
X533440Y117325D01*
X533681Y116564D01*
X533903Y115798D01*
X534106Y115027D01*
X534290Y114251D01*
X534456Y113470D01*
X534602Y112686D01*
X534728Y111899D01*
X534836Y111108D01*
X534924Y110316D01*
X534992Y109521D01*
X535041Y108725D01*
X535070Y107928D01*
X535080Y107130D01*
X535070Y106332D01*
X535041Y105535D01*
X534992Y104739D01*
X534924Y103944D01*
X534836Y103152D01*
X534728Y102361D01*
X534602Y101574D01*
X534456Y100790D01*
X534290Y100009D01*
X534106Y99233D01*
X533903Y98462D01*
X533681Y97696D01*
X533440Y96935D01*
X533180Y96181D01*
X532902Y95433D01*
X532606Y94693D01*
X532292Y93960D01*
X531960Y93234D01*
X531610Y92518D01*
X531242Y91810D01*
X530858Y91111D01*
X530456Y90422D01*
X530038Y89743D01*
X529603Y89074D01*
X529152Y88416D01*
X528684Y87770D01*
X528201Y87135D01*
X527703Y86512D01*
X527189Y85902D01*
X526661Y85304D01*
X526118Y84720D01*
X525561Y84149D01*
X524990Y83592D01*
X524406Y83049D01*
X523808Y82521D01*
X523198Y82007D01*
X522575Y81509D01*
X521940Y81026D01*
X521294Y80558D01*
X520636Y80107D01*
X519967Y79672D01*
X519288Y79254D01*
X518599Y78852D01*
X517900Y78468D01*
X517192Y78100D01*
X516476Y77750D01*
X515750Y77418D01*
X515017Y77104D01*
X514277Y76808D01*
X513529Y76530D01*
X512775Y76270D01*
X512014Y76029D01*
X511248Y75807D01*
X510477Y75604D01*
X509701Y75420D01*
X508920Y75254D01*
X508136Y75108D01*
X507349Y74982D01*
X506558Y74874D01*
X505766Y74786D01*
X504971Y74718D01*
X504175Y74669D01*
X503378Y74640D01*
X502580Y74630D01*
X501782Y74640D01*
X500985Y74669D01*
X500189Y74718D01*
X499394Y74786D01*
X498602Y74874D01*
X497811Y74982D01*
X497024Y75108D01*
X496240Y75254D01*
X495459Y75420D01*
X494683Y75604D01*
X493912Y75807D01*
X493146Y76029D01*
X492385Y76270D01*
X491631Y76530D01*
X490883Y76808D01*
X490143Y77104D01*
X489410Y77418D01*
X488684Y77750D01*
X487968Y78100D01*
X487260Y78468D01*
X486561Y78852D01*
X485872Y79254D01*
X485193Y79672D01*
X484524Y80107D01*
X483866Y80558D01*
X483220Y81026D01*
X482585Y81509D01*
X481962Y82007D01*
X481352Y82521D01*
X480754Y83049D01*
X480170Y83592D01*
X479599Y84149D01*
X479042Y84720D01*
X478499Y85304D01*
X477971Y85902D01*
X477457Y86512D01*
X476959Y87135D01*
X476476Y87770D01*
X476008Y88416D01*
X475557Y89074D01*
X475122Y89743D01*
X474704Y90422D01*
X474302Y91111D01*
X473918Y91810D01*
X473550Y92518D01*
X473200Y93234D01*
X472868Y93960D01*
X472554Y94693D01*
X472258Y95433D01*
X471980Y96181D01*
X471720Y96935D01*
X471479Y97696D01*
X471257Y98462D01*
X471054Y99233D01*
X470870Y100009D01*
X470704Y100790D01*
X470558Y101574D01*
X470432Y102361D01*
X470324Y103152D01*
X470236Y103944D01*
X470168Y104739D01*
X470119Y105535D01*
X470090Y106332D01*
X470080Y107130D01*
D11*
X506908Y145550D02*
X509166Y145550D01*
X509259Y145552D01*
X509352Y145558D01*
X509445Y145567D01*
X509538Y145581D01*
X509629Y145598D01*
X509720Y145619D01*
X509810Y145644D01*
X509899Y145672D01*
X509987Y145704D01*
X510073Y145740D01*
X510158Y145779D01*
X510241Y145822D01*
X510322Y145868D01*
X510401Y145918D01*
X510478Y145970D01*
X510553Y146026D01*
X510625Y146085D01*
X510695Y146147D01*
X510763Y146211D01*
X510827Y146279D01*
X510889Y146349D01*
X510948Y146421D01*
X511004Y146496D01*
X511056Y146573D01*
X511106Y146652D01*
X511152Y146733D01*
X511195Y146816D01*
X511234Y146901D01*
X511270Y146987D01*
X511302Y147075D01*
X511330Y147164D01*
X511355Y147254D01*
X511376Y147345D01*
X511393Y147436D01*
X511407Y147529D01*
X511416Y147622D01*
X511422Y147715D01*
X511424Y147808D01*
X511424Y153452D01*
X511422Y153545D01*
X511416Y153638D01*
X511407Y153731D01*
X511393Y153824D01*
X511376Y153915D01*
X511355Y154006D01*
X511330Y154096D01*
X511302Y154185D01*
X511270Y154273D01*
X511234Y154359D01*
X511195Y154444D01*
X511152Y154527D01*
X511106Y154608D01*
X511056Y154687D01*
X511004Y154764D01*
X510948Y154839D01*
X510889Y154911D01*
X510827Y154981D01*
X510763Y155049D01*
X510695Y155113D01*
X510625Y155175D01*
X510553Y155234D01*
X510478Y155290D01*
X510401Y155342D01*
X510322Y155392D01*
X510241Y155438D01*
X510158Y155481D01*
X510073Y155520D01*
X509987Y155556D01*
X509899Y155588D01*
X509810Y155616D01*
X509720Y155641D01*
X509629Y155662D01*
X509538Y155679D01*
X509445Y155693D01*
X509352Y155702D01*
X509259Y155708D01*
X509166Y155710D01*
X506908Y155710D01*
X501841Y145550D02*
X499018Y145550D01*
X498912Y145552D01*
X498807Y145558D01*
X498702Y145568D01*
X498597Y145582D01*
X498493Y145599D01*
X498390Y145621D01*
X498288Y145646D01*
X498186Y145675D01*
X498086Y145708D01*
X497987Y145745D01*
X497890Y145785D01*
X497794Y145829D01*
X497699Y145877D01*
X497607Y145928D01*
X497517Y145983D01*
X497428Y146040D01*
X497342Y146101D01*
X497259Y146166D01*
X497177Y146233D01*
X497099Y146303D01*
X497023Y146377D01*
X496949Y146453D01*
X496879Y146531D01*
X496812Y146613D01*
X496747Y146696D01*
X496686Y146782D01*
X496629Y146871D01*
X496574Y146961D01*
X496523Y147053D01*
X496475Y147148D01*
X496431Y147244D01*
X496391Y147341D01*
X496354Y147440D01*
X496321Y147540D01*
X496292Y147642D01*
X496267Y147744D01*
X496245Y147847D01*
X496228Y147951D01*
X496214Y148056D01*
X496204Y148161D01*
X496198Y148266D01*
X496196Y148372D01*
X496198Y148478D01*
X496204Y148583D01*
X496214Y148688D01*
X496228Y148793D01*
X496245Y148897D01*
X496267Y149000D01*
X496292Y149102D01*
X496321Y149204D01*
X496354Y149304D01*
X496391Y149403D01*
X496431Y149500D01*
X496475Y149596D01*
X496523Y149691D01*
X496574Y149783D01*
X496629Y149873D01*
X496686Y149962D01*
X496747Y150048D01*
X496812Y150131D01*
X496879Y150213D01*
X496949Y150291D01*
X497023Y150367D01*
X497099Y150441D01*
X497177Y150511D01*
X497259Y150578D01*
X497342Y150643D01*
X497428Y150704D01*
X497517Y150761D01*
X497607Y150816D01*
X497699Y150867D01*
X497794Y150915D01*
X497890Y150959D01*
X497987Y150999D01*
X498086Y151036D01*
X498186Y151069D01*
X498288Y151098D01*
X498390Y151123D01*
X498493Y151145D01*
X498597Y151162D01*
X498702Y151176D01*
X498807Y151186D01*
X498912Y151192D01*
X499018Y151194D01*
X498454Y155710D02*
X501841Y155710D01*
X498454Y155710D02*
X498361Y155708D01*
X498268Y155702D01*
X498175Y155693D01*
X498082Y155679D01*
X497991Y155662D01*
X497900Y155641D01*
X497810Y155616D01*
X497721Y155588D01*
X497633Y155556D01*
X497547Y155520D01*
X497462Y155481D01*
X497379Y155438D01*
X497298Y155392D01*
X497219Y155342D01*
X497142Y155290D01*
X497067Y155234D01*
X496995Y155175D01*
X496925Y155113D01*
X496857Y155049D01*
X496793Y154981D01*
X496731Y154911D01*
X496672Y154839D01*
X496616Y154764D01*
X496564Y154687D01*
X496514Y154608D01*
X496468Y154527D01*
X496425Y154444D01*
X496386Y154359D01*
X496350Y154273D01*
X496318Y154185D01*
X496290Y154096D01*
X496265Y154006D01*
X496244Y153915D01*
X496227Y153824D01*
X496213Y153731D01*
X496204Y153638D01*
X496198Y153545D01*
X496196Y153452D01*
X496198Y153359D01*
X496204Y153266D01*
X496213Y153173D01*
X496227Y153080D01*
X496244Y152989D01*
X496265Y152898D01*
X496290Y152808D01*
X496318Y152719D01*
X496350Y152631D01*
X496386Y152545D01*
X496425Y152460D01*
X496468Y152377D01*
X496514Y152296D01*
X496564Y152217D01*
X496616Y152140D01*
X496672Y152065D01*
X496731Y151993D01*
X496793Y151923D01*
X496857Y151855D01*
X496925Y151791D01*
X496995Y151729D01*
X497067Y151670D01*
X497142Y151614D01*
X497219Y151562D01*
X497298Y151512D01*
X497379Y151466D01*
X497462Y151423D01*
X497547Y151384D01*
X497633Y151348D01*
X497721Y151316D01*
X497810Y151288D01*
X497900Y151263D01*
X497991Y151242D01*
X498082Y151225D01*
X498175Y151211D01*
X498268Y151202D01*
X498361Y151196D01*
X498454Y151194D01*
X500712Y151194D01*
X508418Y57750D02*
X510676Y57750D01*
X510769Y57752D01*
X510862Y57758D01*
X510955Y57767D01*
X511048Y57781D01*
X511139Y57798D01*
X511230Y57819D01*
X511320Y57844D01*
X511409Y57872D01*
X511497Y57904D01*
X511583Y57940D01*
X511668Y57979D01*
X511751Y58022D01*
X511832Y58068D01*
X511911Y58118D01*
X511988Y58170D01*
X512063Y58226D01*
X512135Y58285D01*
X512205Y58347D01*
X512273Y58411D01*
X512337Y58479D01*
X512399Y58549D01*
X512458Y58621D01*
X512514Y58696D01*
X512566Y58773D01*
X512616Y58852D01*
X512662Y58933D01*
X512705Y59016D01*
X512744Y59101D01*
X512780Y59187D01*
X512812Y59275D01*
X512840Y59364D01*
X512865Y59454D01*
X512886Y59545D01*
X512903Y59636D01*
X512917Y59729D01*
X512926Y59822D01*
X512932Y59915D01*
X512934Y60008D01*
X512934Y65652D01*
X512932Y65745D01*
X512926Y65838D01*
X512917Y65931D01*
X512903Y66024D01*
X512886Y66115D01*
X512865Y66206D01*
X512840Y66296D01*
X512812Y66385D01*
X512780Y66473D01*
X512744Y66559D01*
X512705Y66644D01*
X512662Y66727D01*
X512616Y66808D01*
X512566Y66887D01*
X512514Y66964D01*
X512458Y67039D01*
X512399Y67111D01*
X512337Y67181D01*
X512273Y67249D01*
X512205Y67313D01*
X512135Y67375D01*
X512063Y67434D01*
X511988Y67490D01*
X511911Y67542D01*
X511832Y67592D01*
X511751Y67638D01*
X511668Y67681D01*
X511583Y67720D01*
X511497Y67756D01*
X511409Y67788D01*
X511320Y67816D01*
X511230Y67841D01*
X511139Y67862D01*
X511048Y67879D01*
X510955Y67893D01*
X510862Y67902D01*
X510769Y67908D01*
X510676Y67910D01*
X508418Y67910D01*
X501093Y67910D02*
X503351Y60008D01*
X497706Y60008D01*
X499400Y62266D02*
X499400Y57750D01*
D12*
X462710Y6210D02*
X462710Y260210D01*
X462710Y6210D02*
X94410Y6210D01*
X94410Y260210D01*
X462710Y260210D01*
X433500Y22720D02*
X433504Y23032D01*
X433515Y23343D01*
X433534Y23654D01*
X433561Y23965D01*
X433596Y24275D01*
X433637Y24583D01*
X433687Y24891D01*
X433744Y25198D01*
X433809Y25503D01*
X433881Y25806D01*
X433960Y26107D01*
X434047Y26407D01*
X434141Y26704D01*
X434242Y26999D01*
X434351Y27291D01*
X434467Y27580D01*
X434590Y27867D01*
X434719Y28150D01*
X434856Y28430D01*
X435000Y28707D01*
X435150Y28980D01*
X435307Y29249D01*
X435470Y29514D01*
X435640Y29776D01*
X435817Y30033D01*
X435999Y30285D01*
X436188Y30533D01*
X436383Y30777D01*
X436583Y31015D01*
X436790Y31249D01*
X437002Y31477D01*
X437220Y31700D01*
X437443Y31918D01*
X437671Y32130D01*
X437905Y32337D01*
X438143Y32537D01*
X438387Y32732D01*
X438635Y32921D01*
X438887Y33103D01*
X439144Y33280D01*
X439406Y33450D01*
X439671Y33613D01*
X439940Y33770D01*
X440213Y33920D01*
X440490Y34064D01*
X440770Y34201D01*
X441053Y34330D01*
X441340Y34453D01*
X441629Y34569D01*
X441921Y34678D01*
X442216Y34779D01*
X442513Y34873D01*
X442813Y34960D01*
X443114Y35039D01*
X443417Y35111D01*
X443722Y35176D01*
X444029Y35233D01*
X444337Y35283D01*
X444645Y35324D01*
X444955Y35359D01*
X445266Y35386D01*
X445577Y35405D01*
X445888Y35416D01*
X446200Y35420D01*
X446512Y35416D01*
X446823Y35405D01*
X447134Y35386D01*
X447445Y35359D01*
X447755Y35324D01*
X448063Y35283D01*
X448371Y35233D01*
X448678Y35176D01*
X448983Y35111D01*
X449286Y35039D01*
X449587Y34960D01*
X449887Y34873D01*
X450184Y34779D01*
X450479Y34678D01*
X450771Y34569D01*
X451060Y34453D01*
X451347Y34330D01*
X451630Y34201D01*
X451910Y34064D01*
X452187Y33920D01*
X452460Y33770D01*
X452729Y33613D01*
X452994Y33450D01*
X453256Y33280D01*
X453513Y33103D01*
X453765Y32921D01*
X454013Y32732D01*
X454257Y32537D01*
X454495Y32337D01*
X454729Y32130D01*
X454957Y31918D01*
X455180Y31700D01*
X455398Y31477D01*
X455610Y31249D01*
X455817Y31015D01*
X456017Y30777D01*
X456212Y30533D01*
X456401Y30285D01*
X456583Y30033D01*
X456760Y29776D01*
X456930Y29514D01*
X457093Y29249D01*
X457250Y28980D01*
X457400Y28707D01*
X457544Y28430D01*
X457681Y28150D01*
X457810Y27867D01*
X457933Y27580D01*
X458049Y27291D01*
X458158Y26999D01*
X458259Y26704D01*
X458353Y26407D01*
X458440Y26107D01*
X458519Y25806D01*
X458591Y25503D01*
X458656Y25198D01*
X458713Y24891D01*
X458763Y24583D01*
X458804Y24275D01*
X458839Y23965D01*
X458866Y23654D01*
X458885Y23343D01*
X458896Y23032D01*
X458900Y22720D01*
X458896Y22408D01*
X458885Y22097D01*
X458866Y21786D01*
X458839Y21475D01*
X458804Y21165D01*
X458763Y20857D01*
X458713Y20549D01*
X458656Y20242D01*
X458591Y19937D01*
X458519Y19634D01*
X458440Y19333D01*
X458353Y19033D01*
X458259Y18736D01*
X458158Y18441D01*
X458049Y18149D01*
X457933Y17860D01*
X457810Y17573D01*
X457681Y17290D01*
X457544Y17010D01*
X457400Y16733D01*
X457250Y16460D01*
X457093Y16191D01*
X456930Y15926D01*
X456760Y15664D01*
X456583Y15407D01*
X456401Y15155D01*
X456212Y14907D01*
X456017Y14663D01*
X455817Y14425D01*
X455610Y14191D01*
X455398Y13963D01*
X455180Y13740D01*
X454957Y13522D01*
X454729Y13310D01*
X454495Y13103D01*
X454257Y12903D01*
X454013Y12708D01*
X453765Y12519D01*
X453513Y12337D01*
X453256Y12160D01*
X452994Y11990D01*
X452729Y11827D01*
X452460Y11670D01*
X452187Y11520D01*
X451910Y11376D01*
X451630Y11239D01*
X451347Y11110D01*
X451060Y10987D01*
X450771Y10871D01*
X450479Y10762D01*
X450184Y10661D01*
X449887Y10567D01*
X449587Y10480D01*
X449286Y10401D01*
X448983Y10329D01*
X448678Y10264D01*
X448371Y10207D01*
X448063Y10157D01*
X447755Y10116D01*
X447445Y10081D01*
X447134Y10054D01*
X446823Y10035D01*
X446512Y10024D01*
X446200Y10020D01*
X445888Y10024D01*
X445577Y10035D01*
X445266Y10054D01*
X444955Y10081D01*
X444645Y10116D01*
X444337Y10157D01*
X444029Y10207D01*
X443722Y10264D01*
X443417Y10329D01*
X443114Y10401D01*
X442813Y10480D01*
X442513Y10567D01*
X442216Y10661D01*
X441921Y10762D01*
X441629Y10871D01*
X441340Y10987D01*
X441053Y11110D01*
X440770Y11239D01*
X440490Y11376D01*
X440213Y11520D01*
X439940Y11670D01*
X439671Y11827D01*
X439406Y11990D01*
X439144Y12160D01*
X438887Y12337D01*
X438635Y12519D01*
X438387Y12708D01*
X438143Y12903D01*
X437905Y13103D01*
X437671Y13310D01*
X437443Y13522D01*
X437220Y13740D01*
X437002Y13963D01*
X436790Y14191D01*
X436583Y14425D01*
X436383Y14663D01*
X436188Y14907D01*
X435999Y15155D01*
X435817Y15407D01*
X435640Y15664D01*
X435470Y15926D01*
X435307Y16191D01*
X435150Y16460D01*
X435000Y16733D01*
X434856Y17010D01*
X434719Y17290D01*
X434590Y17573D01*
X434467Y17860D01*
X434351Y18149D01*
X434242Y18441D01*
X434141Y18736D01*
X434047Y19033D01*
X433960Y19333D01*
X433881Y19634D01*
X433809Y19937D01*
X433744Y20242D01*
X433687Y20549D01*
X433637Y20857D01*
X433596Y21165D01*
X433561Y21475D01*
X433534Y21786D01*
X433515Y22097D01*
X433504Y22408D01*
X433500Y22720D01*
X434770Y244970D02*
X434774Y245282D01*
X434785Y245593D01*
X434804Y245904D01*
X434831Y246215D01*
X434866Y246525D01*
X434907Y246833D01*
X434957Y247141D01*
X435014Y247448D01*
X435079Y247753D01*
X435151Y248056D01*
X435230Y248357D01*
X435317Y248657D01*
X435411Y248954D01*
X435512Y249249D01*
X435621Y249541D01*
X435737Y249830D01*
X435860Y250117D01*
X435989Y250400D01*
X436126Y250680D01*
X436270Y250957D01*
X436420Y251230D01*
X436577Y251499D01*
X436740Y251764D01*
X436910Y252026D01*
X437087Y252283D01*
X437269Y252535D01*
X437458Y252783D01*
X437653Y253027D01*
X437853Y253265D01*
X438060Y253499D01*
X438272Y253727D01*
X438490Y253950D01*
X438713Y254168D01*
X438941Y254380D01*
X439175Y254587D01*
X439413Y254787D01*
X439657Y254982D01*
X439905Y255171D01*
X440157Y255353D01*
X440414Y255530D01*
X440676Y255700D01*
X440941Y255863D01*
X441210Y256020D01*
X441483Y256170D01*
X441760Y256314D01*
X442040Y256451D01*
X442323Y256580D01*
X442610Y256703D01*
X442899Y256819D01*
X443191Y256928D01*
X443486Y257029D01*
X443783Y257123D01*
X444083Y257210D01*
X444384Y257289D01*
X444687Y257361D01*
X444992Y257426D01*
X445299Y257483D01*
X445607Y257533D01*
X445915Y257574D01*
X446225Y257609D01*
X446536Y257636D01*
X446847Y257655D01*
X447158Y257666D01*
X447470Y257670D01*
X447782Y257666D01*
X448093Y257655D01*
X448404Y257636D01*
X448715Y257609D01*
X449025Y257574D01*
X449333Y257533D01*
X449641Y257483D01*
X449948Y257426D01*
X450253Y257361D01*
X450556Y257289D01*
X450857Y257210D01*
X451157Y257123D01*
X451454Y257029D01*
X451749Y256928D01*
X452041Y256819D01*
X452330Y256703D01*
X452617Y256580D01*
X452900Y256451D01*
X453180Y256314D01*
X453457Y256170D01*
X453730Y256020D01*
X453999Y255863D01*
X454264Y255700D01*
X454526Y255530D01*
X454783Y255353D01*
X455035Y255171D01*
X455283Y254982D01*
X455527Y254787D01*
X455765Y254587D01*
X455999Y254380D01*
X456227Y254168D01*
X456450Y253950D01*
X456668Y253727D01*
X456880Y253499D01*
X457087Y253265D01*
X457287Y253027D01*
X457482Y252783D01*
X457671Y252535D01*
X457853Y252283D01*
X458030Y252026D01*
X458200Y251764D01*
X458363Y251499D01*
X458520Y251230D01*
X458670Y250957D01*
X458814Y250680D01*
X458951Y250400D01*
X459080Y250117D01*
X459203Y249830D01*
X459319Y249541D01*
X459428Y249249D01*
X459529Y248954D01*
X459623Y248657D01*
X459710Y248357D01*
X459789Y248056D01*
X459861Y247753D01*
X459926Y247448D01*
X459983Y247141D01*
X460033Y246833D01*
X460074Y246525D01*
X460109Y246215D01*
X460136Y245904D01*
X460155Y245593D01*
X460166Y245282D01*
X460170Y244970D01*
X460166Y244658D01*
X460155Y244347D01*
X460136Y244036D01*
X460109Y243725D01*
X460074Y243415D01*
X460033Y243107D01*
X459983Y242799D01*
X459926Y242492D01*
X459861Y242187D01*
X459789Y241884D01*
X459710Y241583D01*
X459623Y241283D01*
X459529Y240986D01*
X459428Y240691D01*
X459319Y240399D01*
X459203Y240110D01*
X459080Y239823D01*
X458951Y239540D01*
X458814Y239260D01*
X458670Y238983D01*
X458520Y238710D01*
X458363Y238441D01*
X458200Y238176D01*
X458030Y237914D01*
X457853Y237657D01*
X457671Y237405D01*
X457482Y237157D01*
X457287Y236913D01*
X457087Y236675D01*
X456880Y236441D01*
X456668Y236213D01*
X456450Y235990D01*
X456227Y235772D01*
X455999Y235560D01*
X455765Y235353D01*
X455527Y235153D01*
X455283Y234958D01*
X455035Y234769D01*
X454783Y234587D01*
X454526Y234410D01*
X454264Y234240D01*
X453999Y234077D01*
X453730Y233920D01*
X453457Y233770D01*
X453180Y233626D01*
X452900Y233489D01*
X452617Y233360D01*
X452330Y233237D01*
X452041Y233121D01*
X451749Y233012D01*
X451454Y232911D01*
X451157Y232817D01*
X450857Y232730D01*
X450556Y232651D01*
X450253Y232579D01*
X449948Y232514D01*
X449641Y232457D01*
X449333Y232407D01*
X449025Y232366D01*
X448715Y232331D01*
X448404Y232304D01*
X448093Y232285D01*
X447782Y232274D01*
X447470Y232270D01*
X447158Y232274D01*
X446847Y232285D01*
X446536Y232304D01*
X446225Y232331D01*
X445915Y232366D01*
X445607Y232407D01*
X445299Y232457D01*
X444992Y232514D01*
X444687Y232579D01*
X444384Y232651D01*
X444083Y232730D01*
X443783Y232817D01*
X443486Y232911D01*
X443191Y233012D01*
X442899Y233121D01*
X442610Y233237D01*
X442323Y233360D01*
X442040Y233489D01*
X441760Y233626D01*
X441483Y233770D01*
X441210Y233920D01*
X440941Y234077D01*
X440676Y234240D01*
X440414Y234410D01*
X440157Y234587D01*
X439905Y234769D01*
X439657Y234958D01*
X439413Y235153D01*
X439175Y235353D01*
X438941Y235560D01*
X438713Y235772D01*
X438490Y235990D01*
X438272Y236213D01*
X438060Y236441D01*
X437853Y236675D01*
X437653Y236913D01*
X437458Y237157D01*
X437269Y237405D01*
X437087Y237657D01*
X436910Y237914D01*
X436740Y238176D01*
X436577Y238441D01*
X436420Y238710D01*
X436270Y238983D01*
X436126Y239260D01*
X435989Y239540D01*
X435860Y239823D01*
X435737Y240110D01*
X435621Y240399D01*
X435512Y240691D01*
X435411Y240986D01*
X435317Y241283D01*
X435230Y241583D01*
X435151Y241884D01*
X435079Y242187D01*
X435014Y242492D01*
X434957Y242799D01*
X434907Y243107D01*
X434866Y243415D01*
X434831Y243725D01*
X434804Y244036D01*
X434785Y244347D01*
X434774Y244658D01*
X434770Y244970D01*
X96950Y22720D02*
X96954Y23032D01*
X96965Y23343D01*
X96984Y23654D01*
X97011Y23965D01*
X97046Y24275D01*
X97087Y24583D01*
X97137Y24891D01*
X97194Y25198D01*
X97259Y25503D01*
X97331Y25806D01*
X97410Y26107D01*
X97497Y26407D01*
X97591Y26704D01*
X97692Y26999D01*
X97801Y27291D01*
X97917Y27580D01*
X98040Y27867D01*
X98169Y28150D01*
X98306Y28430D01*
X98450Y28707D01*
X98600Y28980D01*
X98757Y29249D01*
X98920Y29514D01*
X99090Y29776D01*
X99267Y30033D01*
X99449Y30285D01*
X99638Y30533D01*
X99833Y30777D01*
X100033Y31015D01*
X100240Y31249D01*
X100452Y31477D01*
X100670Y31700D01*
X100893Y31918D01*
X101121Y32130D01*
X101355Y32337D01*
X101593Y32537D01*
X101837Y32732D01*
X102085Y32921D01*
X102337Y33103D01*
X102594Y33280D01*
X102856Y33450D01*
X103121Y33613D01*
X103390Y33770D01*
X103663Y33920D01*
X103940Y34064D01*
X104220Y34201D01*
X104503Y34330D01*
X104790Y34453D01*
X105079Y34569D01*
X105371Y34678D01*
X105666Y34779D01*
X105963Y34873D01*
X106263Y34960D01*
X106564Y35039D01*
X106867Y35111D01*
X107172Y35176D01*
X107479Y35233D01*
X107787Y35283D01*
X108095Y35324D01*
X108405Y35359D01*
X108716Y35386D01*
X109027Y35405D01*
X109338Y35416D01*
X109650Y35420D01*
X109962Y35416D01*
X110273Y35405D01*
X110584Y35386D01*
X110895Y35359D01*
X111205Y35324D01*
X111513Y35283D01*
X111821Y35233D01*
X112128Y35176D01*
X112433Y35111D01*
X112736Y35039D01*
X113037Y34960D01*
X113337Y34873D01*
X113634Y34779D01*
X113929Y34678D01*
X114221Y34569D01*
X114510Y34453D01*
X114797Y34330D01*
X115080Y34201D01*
X115360Y34064D01*
X115637Y33920D01*
X115910Y33770D01*
X116179Y33613D01*
X116444Y33450D01*
X116706Y33280D01*
X116963Y33103D01*
X117215Y32921D01*
X117463Y32732D01*
X117707Y32537D01*
X117945Y32337D01*
X118179Y32130D01*
X118407Y31918D01*
X118630Y31700D01*
X118848Y31477D01*
X119060Y31249D01*
X119267Y31015D01*
X119467Y30777D01*
X119662Y30533D01*
X119851Y30285D01*
X120033Y30033D01*
X120210Y29776D01*
X120380Y29514D01*
X120543Y29249D01*
X120700Y28980D01*
X120850Y28707D01*
X120994Y28430D01*
X121131Y28150D01*
X121260Y27867D01*
X121383Y27580D01*
X121499Y27291D01*
X121608Y26999D01*
X121709Y26704D01*
X121803Y26407D01*
X121890Y26107D01*
X121969Y25806D01*
X122041Y25503D01*
X122106Y25198D01*
X122163Y24891D01*
X122213Y24583D01*
X122254Y24275D01*
X122289Y23965D01*
X122316Y23654D01*
X122335Y23343D01*
X122346Y23032D01*
X122350Y22720D01*
X122346Y22408D01*
X122335Y22097D01*
X122316Y21786D01*
X122289Y21475D01*
X122254Y21165D01*
X122213Y20857D01*
X122163Y20549D01*
X122106Y20242D01*
X122041Y19937D01*
X121969Y19634D01*
X121890Y19333D01*
X121803Y19033D01*
X121709Y18736D01*
X121608Y18441D01*
X121499Y18149D01*
X121383Y17860D01*
X121260Y17573D01*
X121131Y17290D01*
X120994Y17010D01*
X120850Y16733D01*
X120700Y16460D01*
X120543Y16191D01*
X120380Y15926D01*
X120210Y15664D01*
X120033Y15407D01*
X119851Y15155D01*
X119662Y14907D01*
X119467Y14663D01*
X119267Y14425D01*
X119060Y14191D01*
X118848Y13963D01*
X118630Y13740D01*
X118407Y13522D01*
X118179Y13310D01*
X117945Y13103D01*
X117707Y12903D01*
X117463Y12708D01*
X117215Y12519D01*
X116963Y12337D01*
X116706Y12160D01*
X116444Y11990D01*
X116179Y11827D01*
X115910Y11670D01*
X115637Y11520D01*
X115360Y11376D01*
X115080Y11239D01*
X114797Y11110D01*
X114510Y10987D01*
X114221Y10871D01*
X113929Y10762D01*
X113634Y10661D01*
X113337Y10567D01*
X113037Y10480D01*
X112736Y10401D01*
X112433Y10329D01*
X112128Y10264D01*
X111821Y10207D01*
X111513Y10157D01*
X111205Y10116D01*
X110895Y10081D01*
X110584Y10054D01*
X110273Y10035D01*
X109962Y10024D01*
X109650Y10020D01*
X109338Y10024D01*
X109027Y10035D01*
X108716Y10054D01*
X108405Y10081D01*
X108095Y10116D01*
X107787Y10157D01*
X107479Y10207D01*
X107172Y10264D01*
X106867Y10329D01*
X106564Y10401D01*
X106263Y10480D01*
X105963Y10567D01*
X105666Y10661D01*
X105371Y10762D01*
X105079Y10871D01*
X104790Y10987D01*
X104503Y11110D01*
X104220Y11239D01*
X103940Y11376D01*
X103663Y11520D01*
X103390Y11670D01*
X103121Y11827D01*
X102856Y11990D01*
X102594Y12160D01*
X102337Y12337D01*
X102085Y12519D01*
X101837Y12708D01*
X101593Y12903D01*
X101355Y13103D01*
X101121Y13310D01*
X100893Y13522D01*
X100670Y13740D01*
X100452Y13963D01*
X100240Y14191D01*
X100033Y14425D01*
X99833Y14663D01*
X99638Y14907D01*
X99449Y15155D01*
X99267Y15407D01*
X99090Y15664D01*
X98920Y15926D01*
X98757Y16191D01*
X98600Y16460D01*
X98450Y16733D01*
X98306Y17010D01*
X98169Y17290D01*
X98040Y17573D01*
X97917Y17860D01*
X97801Y18149D01*
X97692Y18441D01*
X97591Y18736D01*
X97497Y19033D01*
X97410Y19333D01*
X97331Y19634D01*
X97259Y19937D01*
X97194Y20242D01*
X97137Y20549D01*
X97087Y20857D01*
X97046Y21165D01*
X97011Y21475D01*
X96984Y21786D01*
X96965Y22097D01*
X96954Y22408D01*
X96950Y22720D01*
X96950Y243700D02*
X96954Y244012D01*
X96965Y244323D01*
X96984Y244634D01*
X97011Y244945D01*
X97046Y245255D01*
X97087Y245563D01*
X97137Y245871D01*
X97194Y246178D01*
X97259Y246483D01*
X97331Y246786D01*
X97410Y247087D01*
X97497Y247387D01*
X97591Y247684D01*
X97692Y247979D01*
X97801Y248271D01*
X97917Y248560D01*
X98040Y248847D01*
X98169Y249130D01*
X98306Y249410D01*
X98450Y249687D01*
X98600Y249960D01*
X98757Y250229D01*
X98920Y250494D01*
X99090Y250756D01*
X99267Y251013D01*
X99449Y251265D01*
X99638Y251513D01*
X99833Y251757D01*
X100033Y251995D01*
X100240Y252229D01*
X100452Y252457D01*
X100670Y252680D01*
X100893Y252898D01*
X101121Y253110D01*
X101355Y253317D01*
X101593Y253517D01*
X101837Y253712D01*
X102085Y253901D01*
X102337Y254083D01*
X102594Y254260D01*
X102856Y254430D01*
X103121Y254593D01*
X103390Y254750D01*
X103663Y254900D01*
X103940Y255044D01*
X104220Y255181D01*
X104503Y255310D01*
X104790Y255433D01*
X105079Y255549D01*
X105371Y255658D01*
X105666Y255759D01*
X105963Y255853D01*
X106263Y255940D01*
X106564Y256019D01*
X106867Y256091D01*
X107172Y256156D01*
X107479Y256213D01*
X107787Y256263D01*
X108095Y256304D01*
X108405Y256339D01*
X108716Y256366D01*
X109027Y256385D01*
X109338Y256396D01*
X109650Y256400D01*
X109962Y256396D01*
X110273Y256385D01*
X110584Y256366D01*
X110895Y256339D01*
X111205Y256304D01*
X111513Y256263D01*
X111821Y256213D01*
X112128Y256156D01*
X112433Y256091D01*
X112736Y256019D01*
X113037Y255940D01*
X113337Y255853D01*
X113634Y255759D01*
X113929Y255658D01*
X114221Y255549D01*
X114510Y255433D01*
X114797Y255310D01*
X115080Y255181D01*
X115360Y255044D01*
X115637Y254900D01*
X115910Y254750D01*
X116179Y254593D01*
X116444Y254430D01*
X116706Y254260D01*
X116963Y254083D01*
X117215Y253901D01*
X117463Y253712D01*
X117707Y253517D01*
X117945Y253317D01*
X118179Y253110D01*
X118407Y252898D01*
X118630Y252680D01*
X118848Y252457D01*
X119060Y252229D01*
X119267Y251995D01*
X119467Y251757D01*
X119662Y251513D01*
X119851Y251265D01*
X120033Y251013D01*
X120210Y250756D01*
X120380Y250494D01*
X120543Y250229D01*
X120700Y249960D01*
X120850Y249687D01*
X120994Y249410D01*
X121131Y249130D01*
X121260Y248847D01*
X121383Y248560D01*
X121499Y248271D01*
X121608Y247979D01*
X121709Y247684D01*
X121803Y247387D01*
X121890Y247087D01*
X121969Y246786D01*
X122041Y246483D01*
X122106Y246178D01*
X122163Y245871D01*
X122213Y245563D01*
X122254Y245255D01*
X122289Y244945D01*
X122316Y244634D01*
X122335Y244323D01*
X122346Y244012D01*
X122350Y243700D01*
X122346Y243388D01*
X122335Y243077D01*
X122316Y242766D01*
X122289Y242455D01*
X122254Y242145D01*
X122213Y241837D01*
X122163Y241529D01*
X122106Y241222D01*
X122041Y240917D01*
X121969Y240614D01*
X121890Y240313D01*
X121803Y240013D01*
X121709Y239716D01*
X121608Y239421D01*
X121499Y239129D01*
X121383Y238840D01*
X121260Y238553D01*
X121131Y238270D01*
X120994Y237990D01*
X120850Y237713D01*
X120700Y237440D01*
X120543Y237171D01*
X120380Y236906D01*
X120210Y236644D01*
X120033Y236387D01*
X119851Y236135D01*
X119662Y235887D01*
X119467Y235643D01*
X119267Y235405D01*
X119060Y235171D01*
X118848Y234943D01*
X118630Y234720D01*
X118407Y234502D01*
X118179Y234290D01*
X117945Y234083D01*
X117707Y233883D01*
X117463Y233688D01*
X117215Y233499D01*
X116963Y233317D01*
X116706Y233140D01*
X116444Y232970D01*
X116179Y232807D01*
X115910Y232650D01*
X115637Y232500D01*
X115360Y232356D01*
X115080Y232219D01*
X114797Y232090D01*
X114510Y231967D01*
X114221Y231851D01*
X113929Y231742D01*
X113634Y231641D01*
X113337Y231547D01*
X113037Y231460D01*
X112736Y231381D01*
X112433Y231309D01*
X112128Y231244D01*
X111821Y231187D01*
X111513Y231137D01*
X111205Y231096D01*
X110895Y231061D01*
X110584Y231034D01*
X110273Y231015D01*
X109962Y231004D01*
X109650Y231000D01*
X109338Y231004D01*
X109027Y231015D01*
X108716Y231034D01*
X108405Y231061D01*
X108095Y231096D01*
X107787Y231137D01*
X107479Y231187D01*
X107172Y231244D01*
X106867Y231309D01*
X106564Y231381D01*
X106263Y231460D01*
X105963Y231547D01*
X105666Y231641D01*
X105371Y231742D01*
X105079Y231851D01*
X104790Y231967D01*
X104503Y232090D01*
X104220Y232219D01*
X103940Y232356D01*
X103663Y232500D01*
X103390Y232650D01*
X103121Y232807D01*
X102856Y232970D01*
X102594Y233140D01*
X102337Y233317D01*
X102085Y233499D01*
X101837Y233688D01*
X101593Y233883D01*
X101355Y234083D01*
X101121Y234290D01*
X100893Y234502D01*
X100670Y234720D01*
X100452Y234943D01*
X100240Y235171D01*
X100033Y235405D01*
X99833Y235643D01*
X99638Y235887D01*
X99449Y236135D01*
X99267Y236387D01*
X99090Y236644D01*
X98920Y236906D01*
X98757Y237171D01*
X98600Y237440D01*
X98450Y237713D01*
X98306Y237990D01*
X98169Y238270D01*
X98040Y238553D01*
X97917Y238840D01*
X97801Y239129D01*
X97692Y239421D01*
X97591Y239716D01*
X97497Y240013D01*
X97410Y240313D01*
X97331Y240614D01*
X97259Y240917D01*
X97194Y241222D01*
X97137Y241529D01*
X97087Y241837D01*
X97046Y242145D01*
X97011Y242455D01*
X96984Y242766D01*
X96965Y243077D01*
X96954Y243388D01*
X96950Y243700D01*
D11*
X481538Y57380D02*
X483796Y57380D01*
X483889Y57382D01*
X483982Y57388D01*
X484075Y57397D01*
X484168Y57411D01*
X484259Y57428D01*
X484350Y57449D01*
X484440Y57474D01*
X484529Y57502D01*
X484617Y57534D01*
X484703Y57570D01*
X484788Y57609D01*
X484871Y57652D01*
X484952Y57698D01*
X485031Y57748D01*
X485108Y57800D01*
X485183Y57856D01*
X485255Y57915D01*
X485325Y57977D01*
X485393Y58041D01*
X485457Y58109D01*
X485519Y58179D01*
X485578Y58251D01*
X485634Y58326D01*
X485686Y58403D01*
X485736Y58482D01*
X485782Y58563D01*
X485825Y58646D01*
X485864Y58731D01*
X485900Y58817D01*
X485932Y58905D01*
X485960Y58994D01*
X485985Y59084D01*
X486006Y59175D01*
X486023Y59266D01*
X486037Y59359D01*
X486046Y59452D01*
X486052Y59545D01*
X486054Y59638D01*
X486054Y65282D01*
X486052Y65375D01*
X486046Y65468D01*
X486037Y65561D01*
X486023Y65654D01*
X486006Y65745D01*
X485985Y65836D01*
X485960Y65926D01*
X485932Y66015D01*
X485900Y66103D01*
X485864Y66189D01*
X485825Y66274D01*
X485782Y66357D01*
X485736Y66438D01*
X485686Y66517D01*
X485634Y66594D01*
X485578Y66669D01*
X485519Y66741D01*
X485457Y66811D01*
X485393Y66879D01*
X485325Y66943D01*
X485255Y67005D01*
X485183Y67064D01*
X485108Y67120D01*
X485031Y67172D01*
X484952Y67222D01*
X484871Y67268D01*
X484788Y67311D01*
X484703Y67350D01*
X484617Y67386D01*
X484529Y67418D01*
X484440Y67446D01*
X484350Y67471D01*
X484259Y67492D01*
X484168Y67509D01*
X484075Y67523D01*
X483982Y67532D01*
X483889Y67538D01*
X483796Y67540D01*
X481538Y67540D01*
X476471Y57380D02*
X473084Y57380D01*
X472991Y57382D01*
X472898Y57388D01*
X472805Y57397D01*
X472712Y57411D01*
X472621Y57428D01*
X472530Y57449D01*
X472440Y57474D01*
X472351Y57502D01*
X472263Y57534D01*
X472177Y57570D01*
X472092Y57609D01*
X472009Y57652D01*
X471928Y57698D01*
X471849Y57748D01*
X471772Y57800D01*
X471697Y57856D01*
X471625Y57915D01*
X471555Y57977D01*
X471487Y58041D01*
X471423Y58109D01*
X471361Y58179D01*
X471302Y58251D01*
X471246Y58326D01*
X471194Y58403D01*
X471144Y58482D01*
X471098Y58563D01*
X471055Y58646D01*
X471016Y58731D01*
X470980Y58817D01*
X470948Y58905D01*
X470920Y58994D01*
X470895Y59084D01*
X470874Y59175D01*
X470857Y59266D01*
X470843Y59359D01*
X470834Y59451D01*
X470828Y59545D01*
X470826Y59638D01*
X470826Y60767D01*
X470828Y60860D01*
X470834Y60953D01*
X470843Y61046D01*
X470857Y61139D01*
X470874Y61230D01*
X470895Y61321D01*
X470920Y61411D01*
X470948Y61500D01*
X470980Y61588D01*
X471016Y61674D01*
X471055Y61759D01*
X471098Y61842D01*
X471144Y61923D01*
X471194Y62002D01*
X471246Y62079D01*
X471302Y62154D01*
X471361Y62226D01*
X471423Y62296D01*
X471487Y62364D01*
X471555Y62428D01*
X471625Y62490D01*
X471697Y62549D01*
X471772Y62605D01*
X471849Y62657D01*
X471928Y62707D01*
X472009Y62753D01*
X472092Y62796D01*
X472177Y62835D01*
X472263Y62871D01*
X472351Y62903D01*
X472440Y62931D01*
X472530Y62956D01*
X472621Y62977D01*
X472712Y62994D01*
X472805Y63008D01*
X472898Y63017D01*
X472991Y63023D01*
X473084Y63025D01*
X473084Y63024D02*
X476471Y63024D01*
X476471Y67540D01*
X470826Y67540D01*
D14*
X440690Y539750D02*
X412750Y539750D01*
X410210Y557530D02*
X410212Y557630D01*
X410218Y557729D01*
X410228Y557829D01*
X410241Y557927D01*
X410259Y558026D01*
X410280Y558123D01*
X410305Y558219D01*
X410334Y558315D01*
X410367Y558409D01*
X410403Y558502D01*
X410443Y558593D01*
X410487Y558683D01*
X410534Y558771D01*
X410584Y558857D01*
X410638Y558941D01*
X410695Y559023D01*
X410755Y559102D01*
X410819Y559180D01*
X410885Y559254D01*
X410954Y559326D01*
X411026Y559395D01*
X411100Y559461D01*
X411178Y559525D01*
X411257Y559585D01*
X411339Y559642D01*
X411423Y559696D01*
X411509Y559746D01*
X411597Y559793D01*
X411687Y559837D01*
X411778Y559877D01*
X411871Y559913D01*
X411965Y559946D01*
X412061Y559975D01*
X412157Y560000D01*
X412254Y560021D01*
X412353Y560039D01*
X412451Y560052D01*
X412551Y560062D01*
X412650Y560068D01*
X412750Y560070D01*
X440690Y560070D02*
X440790Y560068D01*
X440889Y560062D01*
X440989Y560052D01*
X441087Y560039D01*
X441186Y560021D01*
X441283Y560000D01*
X441379Y559975D01*
X441475Y559946D01*
X441569Y559913D01*
X441662Y559877D01*
X441753Y559837D01*
X441843Y559793D01*
X441931Y559746D01*
X442017Y559696D01*
X442101Y559642D01*
X442183Y559585D01*
X442262Y559525D01*
X442340Y559461D01*
X442414Y559395D01*
X442486Y559326D01*
X442555Y559254D01*
X442621Y559180D01*
X442685Y559102D01*
X442745Y559023D01*
X442802Y558941D01*
X442856Y558857D01*
X442906Y558771D01*
X442953Y558683D01*
X442997Y558593D01*
X443037Y558502D01*
X443073Y558409D01*
X443106Y558315D01*
X443135Y558219D01*
X443160Y558123D01*
X443181Y558026D01*
X443199Y557927D01*
X443212Y557829D01*
X443222Y557729D01*
X443228Y557630D01*
X443230Y557530D01*
X443230Y542290D02*
X443228Y542190D01*
X443222Y542091D01*
X443212Y541991D01*
X443199Y541893D01*
X443181Y541794D01*
X443160Y541697D01*
X443135Y541601D01*
X443106Y541505D01*
X443073Y541411D01*
X443037Y541318D01*
X442997Y541227D01*
X442953Y541137D01*
X442906Y541049D01*
X442856Y540963D01*
X442802Y540879D01*
X442745Y540797D01*
X442685Y540718D01*
X442621Y540640D01*
X442555Y540566D01*
X442486Y540494D01*
X442414Y540425D01*
X442340Y540359D01*
X442262Y540295D01*
X442183Y540235D01*
X442101Y540178D01*
X442017Y540124D01*
X441931Y540074D01*
X441843Y540027D01*
X441753Y539983D01*
X441662Y539943D01*
X441569Y539907D01*
X441475Y539874D01*
X441379Y539845D01*
X441283Y539820D01*
X441186Y539799D01*
X441087Y539781D01*
X440989Y539768D01*
X440889Y539758D01*
X440790Y539752D01*
X440690Y539750D01*
X412750Y539750D02*
X412650Y539752D01*
X412551Y539758D01*
X412451Y539768D01*
X412353Y539781D01*
X412254Y539799D01*
X412157Y539820D01*
X412061Y539845D01*
X411965Y539874D01*
X411871Y539907D01*
X411778Y539943D01*
X411687Y539983D01*
X411597Y540027D01*
X411509Y540074D01*
X411423Y540124D01*
X411339Y540178D01*
X411257Y540235D01*
X411178Y540295D01*
X411100Y540359D01*
X411026Y540425D01*
X410954Y540494D01*
X410885Y540566D01*
X410819Y540640D01*
X410755Y540718D01*
X410695Y540797D01*
X410638Y540879D01*
X410584Y540963D01*
X410534Y541049D01*
X410487Y541137D01*
X410443Y541227D01*
X410403Y541318D01*
X410367Y541411D01*
X410334Y541505D01*
X410305Y541601D01*
X410280Y541697D01*
X410259Y541794D01*
X410241Y541893D01*
X410228Y541991D01*
X410218Y542091D01*
X410212Y542190D01*
X410210Y542290D01*
X410210Y557530D01*
X443230Y557530D02*
X443230Y542290D01*
X440690Y560070D02*
X412750Y560070D01*
D12*
X449580Y556895D02*
X452755Y554355D01*
X449580Y556895D02*
X449580Y545465D01*
X452755Y545465D02*
X446405Y545465D01*
D14*
X405130Y530860D02*
X377190Y530860D01*
X405130Y510540D02*
X405230Y510542D01*
X405329Y510548D01*
X405429Y510558D01*
X405527Y510571D01*
X405626Y510589D01*
X405723Y510610D01*
X405819Y510635D01*
X405915Y510664D01*
X406009Y510697D01*
X406102Y510733D01*
X406193Y510773D01*
X406283Y510817D01*
X406371Y510864D01*
X406457Y510914D01*
X406541Y510968D01*
X406623Y511025D01*
X406702Y511085D01*
X406780Y511149D01*
X406854Y511215D01*
X406926Y511284D01*
X406995Y511356D01*
X407061Y511430D01*
X407125Y511508D01*
X407185Y511587D01*
X407242Y511669D01*
X407296Y511753D01*
X407346Y511839D01*
X407393Y511927D01*
X407437Y512017D01*
X407477Y512108D01*
X407513Y512201D01*
X407546Y512295D01*
X407575Y512391D01*
X407600Y512487D01*
X407621Y512584D01*
X407639Y512683D01*
X407652Y512781D01*
X407662Y512881D01*
X407668Y512980D01*
X407670Y513080D01*
X377190Y510540D02*
X377090Y510542D01*
X376991Y510548D01*
X376891Y510558D01*
X376793Y510571D01*
X376694Y510589D01*
X376597Y510610D01*
X376501Y510635D01*
X376405Y510664D01*
X376311Y510697D01*
X376218Y510733D01*
X376127Y510773D01*
X376037Y510817D01*
X375949Y510864D01*
X375863Y510914D01*
X375779Y510968D01*
X375697Y511025D01*
X375618Y511085D01*
X375540Y511149D01*
X375466Y511215D01*
X375394Y511284D01*
X375325Y511356D01*
X375259Y511430D01*
X375195Y511508D01*
X375135Y511587D01*
X375078Y511669D01*
X375024Y511753D01*
X374974Y511839D01*
X374927Y511927D01*
X374883Y512017D01*
X374843Y512108D01*
X374807Y512201D01*
X374774Y512295D01*
X374745Y512391D01*
X374720Y512487D01*
X374699Y512584D01*
X374681Y512683D01*
X374668Y512781D01*
X374658Y512881D01*
X374652Y512980D01*
X374650Y513080D01*
X374650Y528320D02*
X374652Y528420D01*
X374658Y528519D01*
X374668Y528619D01*
X374681Y528717D01*
X374699Y528816D01*
X374720Y528913D01*
X374745Y529009D01*
X374774Y529105D01*
X374807Y529199D01*
X374843Y529292D01*
X374883Y529383D01*
X374927Y529473D01*
X374974Y529561D01*
X375024Y529647D01*
X375078Y529731D01*
X375135Y529813D01*
X375195Y529892D01*
X375259Y529970D01*
X375325Y530044D01*
X375394Y530116D01*
X375466Y530185D01*
X375540Y530251D01*
X375618Y530315D01*
X375697Y530375D01*
X375779Y530432D01*
X375863Y530486D01*
X375949Y530536D01*
X376037Y530583D01*
X376127Y530627D01*
X376218Y530667D01*
X376311Y530703D01*
X376405Y530736D01*
X376501Y530765D01*
X376597Y530790D01*
X376694Y530811D01*
X376793Y530829D01*
X376891Y530842D01*
X376991Y530852D01*
X377090Y530858D01*
X377190Y530860D01*
X405130Y530860D02*
X405230Y530858D01*
X405329Y530852D01*
X405429Y530842D01*
X405527Y530829D01*
X405626Y530811D01*
X405723Y530790D01*
X405819Y530765D01*
X405915Y530736D01*
X406009Y530703D01*
X406102Y530667D01*
X406193Y530627D01*
X406283Y530583D01*
X406371Y530536D01*
X406457Y530486D01*
X406541Y530432D01*
X406623Y530375D01*
X406702Y530315D01*
X406780Y530251D01*
X406854Y530185D01*
X406926Y530116D01*
X406995Y530044D01*
X407061Y529970D01*
X407125Y529892D01*
X407185Y529813D01*
X407242Y529731D01*
X407296Y529647D01*
X407346Y529561D01*
X407393Y529473D01*
X407437Y529383D01*
X407477Y529292D01*
X407513Y529199D01*
X407546Y529105D01*
X407575Y529009D01*
X407600Y528913D01*
X407621Y528816D01*
X407639Y528717D01*
X407652Y528619D01*
X407662Y528519D01*
X407668Y528420D01*
X407670Y528320D01*
X407670Y513080D01*
X374650Y513080D02*
X374650Y528320D01*
X377190Y510540D02*
X405130Y510540D01*
D12*
X367983Y527686D02*
X367879Y527684D01*
X367774Y527678D01*
X367670Y527669D01*
X367567Y527656D01*
X367464Y527638D01*
X367362Y527618D01*
X367260Y527593D01*
X367160Y527565D01*
X367060Y527533D01*
X366962Y527497D01*
X366865Y527458D01*
X366770Y527416D01*
X366676Y527370D01*
X366584Y527320D01*
X366494Y527268D01*
X366406Y527212D01*
X366320Y527152D01*
X366236Y527090D01*
X366155Y527025D01*
X366076Y526957D01*
X365999Y526885D01*
X365926Y526812D01*
X365854Y526735D01*
X365786Y526656D01*
X365721Y526575D01*
X365659Y526491D01*
X365599Y526405D01*
X365543Y526317D01*
X365491Y526227D01*
X365441Y526135D01*
X365395Y526041D01*
X365353Y525946D01*
X365314Y525849D01*
X365278Y525751D01*
X365246Y525651D01*
X365218Y525551D01*
X365193Y525449D01*
X365173Y525347D01*
X365155Y525244D01*
X365142Y525141D01*
X365133Y525037D01*
X365127Y524932D01*
X365125Y524828D01*
X367983Y527685D02*
X368101Y527683D01*
X368220Y527677D01*
X368338Y527668D01*
X368455Y527655D01*
X368572Y527637D01*
X368689Y527617D01*
X368805Y527592D01*
X368920Y527564D01*
X369033Y527531D01*
X369146Y527496D01*
X369258Y527456D01*
X369368Y527414D01*
X369477Y527367D01*
X369585Y527317D01*
X369690Y527264D01*
X369794Y527207D01*
X369896Y527147D01*
X369996Y527084D01*
X370094Y527017D01*
X370190Y526948D01*
X370283Y526875D01*
X370374Y526799D01*
X370463Y526721D01*
X370549Y526639D01*
X370632Y526555D01*
X370713Y526469D01*
X370790Y526379D01*
X370865Y526288D01*
X370937Y526194D01*
X371006Y526097D01*
X371071Y525999D01*
X371134Y525898D01*
X371193Y525795D01*
X371249Y525691D01*
X371301Y525585D01*
X371350Y525477D01*
X371395Y525368D01*
X371437Y525257D01*
X371475Y525145D01*
X366077Y522606D02*
X366001Y522681D01*
X365926Y522760D01*
X365855Y522841D01*
X365786Y522925D01*
X365721Y523011D01*
X365659Y523099D01*
X365599Y523189D01*
X365543Y523281D01*
X365490Y523376D01*
X365441Y523472D01*
X365395Y523570D01*
X365352Y523669D01*
X365313Y523770D01*
X365278Y523872D01*
X365246Y523975D01*
X365218Y524079D01*
X365193Y524184D01*
X365172Y524291D01*
X365155Y524397D01*
X365142Y524504D01*
X365133Y524612D01*
X365127Y524720D01*
X365125Y524828D01*
X366078Y522605D02*
X371475Y516255D01*
X365125Y516255D01*
D14*
X412750Y510540D02*
X440690Y510540D01*
X412750Y530860D02*
X412650Y530858D01*
X412551Y530852D01*
X412451Y530842D01*
X412353Y530829D01*
X412254Y530811D01*
X412157Y530790D01*
X412061Y530765D01*
X411965Y530736D01*
X411871Y530703D01*
X411778Y530667D01*
X411687Y530627D01*
X411597Y530583D01*
X411509Y530536D01*
X411423Y530486D01*
X411339Y530432D01*
X411257Y530375D01*
X411178Y530315D01*
X411100Y530251D01*
X411026Y530185D01*
X410954Y530116D01*
X410885Y530044D01*
X410819Y529970D01*
X410755Y529892D01*
X410695Y529813D01*
X410638Y529731D01*
X410584Y529647D01*
X410534Y529561D01*
X410487Y529473D01*
X410443Y529383D01*
X410403Y529292D01*
X410367Y529199D01*
X410334Y529105D01*
X410305Y529009D01*
X410280Y528913D01*
X410259Y528816D01*
X410241Y528717D01*
X410228Y528619D01*
X410218Y528519D01*
X410212Y528420D01*
X410210Y528320D01*
X440690Y530860D02*
X440790Y530858D01*
X440889Y530852D01*
X440989Y530842D01*
X441087Y530829D01*
X441186Y530811D01*
X441283Y530790D01*
X441379Y530765D01*
X441475Y530736D01*
X441569Y530703D01*
X441662Y530667D01*
X441753Y530627D01*
X441843Y530583D01*
X441931Y530536D01*
X442017Y530486D01*
X442101Y530432D01*
X442183Y530375D01*
X442262Y530315D01*
X442340Y530251D01*
X442414Y530185D01*
X442486Y530116D01*
X442555Y530044D01*
X442621Y529970D01*
X442685Y529892D01*
X442745Y529813D01*
X442802Y529731D01*
X442856Y529647D01*
X442906Y529561D01*
X442953Y529473D01*
X442997Y529383D01*
X443037Y529292D01*
X443073Y529199D01*
X443106Y529105D01*
X443135Y529009D01*
X443160Y528913D01*
X443181Y528816D01*
X443199Y528717D01*
X443212Y528619D01*
X443222Y528519D01*
X443228Y528420D01*
X443230Y528320D01*
X443230Y513080D02*
X443228Y512980D01*
X443222Y512881D01*
X443212Y512781D01*
X443199Y512683D01*
X443181Y512584D01*
X443160Y512487D01*
X443135Y512391D01*
X443106Y512295D01*
X443073Y512201D01*
X443037Y512108D01*
X442997Y512017D01*
X442953Y511927D01*
X442906Y511839D01*
X442856Y511753D01*
X442802Y511669D01*
X442745Y511587D01*
X442685Y511508D01*
X442621Y511430D01*
X442555Y511356D01*
X442486Y511284D01*
X442414Y511215D01*
X442340Y511149D01*
X442262Y511085D01*
X442183Y511025D01*
X442101Y510968D01*
X442017Y510914D01*
X441931Y510864D01*
X441843Y510817D01*
X441753Y510773D01*
X441662Y510733D01*
X441569Y510697D01*
X441475Y510664D01*
X441379Y510635D01*
X441283Y510610D01*
X441186Y510589D01*
X441087Y510571D01*
X440989Y510558D01*
X440889Y510548D01*
X440790Y510542D01*
X440690Y510540D01*
X412750Y510540D02*
X412650Y510542D01*
X412551Y510548D01*
X412451Y510558D01*
X412353Y510571D01*
X412254Y510589D01*
X412157Y510610D01*
X412061Y510635D01*
X411965Y510664D01*
X411871Y510697D01*
X411778Y510733D01*
X411687Y510773D01*
X411597Y510817D01*
X411509Y510864D01*
X411423Y510914D01*
X411339Y510968D01*
X411257Y511025D01*
X411178Y511085D01*
X411100Y511149D01*
X411026Y511215D01*
X410954Y511284D01*
X410885Y511356D01*
X410819Y511430D01*
X410755Y511508D01*
X410695Y511587D01*
X410638Y511669D01*
X410584Y511753D01*
X410534Y511839D01*
X410487Y511927D01*
X410443Y512017D01*
X410403Y512108D01*
X410367Y512201D01*
X410334Y512295D01*
X410305Y512391D01*
X410280Y512487D01*
X410259Y512584D01*
X410241Y512683D01*
X410228Y512781D01*
X410218Y512881D01*
X410212Y512980D01*
X410210Y513080D01*
X410210Y528320D01*
X443230Y528320D02*
X443230Y513080D01*
X440690Y530860D02*
X412750Y530860D01*
D12*
X449580Y514985D02*
X452755Y514985D01*
X449580Y514985D02*
X449469Y514987D01*
X449359Y514993D01*
X449248Y515002D01*
X449138Y515016D01*
X449029Y515033D01*
X448920Y515054D01*
X448812Y515079D01*
X448705Y515108D01*
X448599Y515140D01*
X448494Y515176D01*
X448391Y515216D01*
X448289Y515259D01*
X448188Y515306D01*
X448089Y515357D01*
X447993Y515410D01*
X447898Y515467D01*
X447805Y515528D01*
X447714Y515591D01*
X447625Y515658D01*
X447539Y515728D01*
X447456Y515801D01*
X447374Y515876D01*
X447296Y515954D01*
X447221Y516036D01*
X447148Y516119D01*
X447078Y516205D01*
X447011Y516294D01*
X446948Y516385D01*
X446887Y516478D01*
X446830Y516573D01*
X446777Y516669D01*
X446726Y516768D01*
X446679Y516869D01*
X446636Y516971D01*
X446596Y517074D01*
X446560Y517179D01*
X446528Y517285D01*
X446499Y517392D01*
X446474Y517500D01*
X446453Y517609D01*
X446436Y517718D01*
X446422Y517828D01*
X446413Y517939D01*
X446407Y518049D01*
X446405Y518160D01*
X446407Y518271D01*
X446413Y518381D01*
X446422Y518492D01*
X446436Y518602D01*
X446453Y518711D01*
X446474Y518820D01*
X446499Y518928D01*
X446528Y519035D01*
X446560Y519141D01*
X446596Y519246D01*
X446636Y519349D01*
X446679Y519451D01*
X446726Y519552D01*
X446777Y519651D01*
X446830Y519748D01*
X446887Y519842D01*
X446948Y519935D01*
X447011Y520026D01*
X447078Y520115D01*
X447148Y520201D01*
X447221Y520284D01*
X447296Y520366D01*
X447374Y520444D01*
X447456Y520519D01*
X447539Y520592D01*
X447625Y520662D01*
X447714Y520729D01*
X447805Y520792D01*
X447898Y520853D01*
X447993Y520910D01*
X448089Y520963D01*
X448188Y521014D01*
X448289Y521061D01*
X448391Y521104D01*
X448494Y521144D01*
X448599Y521180D01*
X448705Y521212D01*
X448812Y521241D01*
X448920Y521266D01*
X449029Y521287D01*
X449138Y521304D01*
X449248Y521318D01*
X449359Y521327D01*
X449469Y521333D01*
X449580Y521335D01*
X448945Y526415D02*
X452755Y526415D01*
X448945Y526415D02*
X448845Y526413D01*
X448746Y526407D01*
X448646Y526397D01*
X448548Y526384D01*
X448449Y526366D01*
X448352Y526345D01*
X448256Y526320D01*
X448160Y526291D01*
X448066Y526258D01*
X447973Y526222D01*
X447882Y526182D01*
X447792Y526138D01*
X447704Y526091D01*
X447618Y526041D01*
X447534Y525987D01*
X447452Y525930D01*
X447373Y525870D01*
X447295Y525806D01*
X447221Y525740D01*
X447149Y525671D01*
X447080Y525599D01*
X447014Y525525D01*
X446950Y525447D01*
X446890Y525368D01*
X446833Y525286D01*
X446779Y525202D01*
X446729Y525116D01*
X446682Y525028D01*
X446638Y524938D01*
X446598Y524847D01*
X446562Y524754D01*
X446529Y524660D01*
X446500Y524564D01*
X446475Y524468D01*
X446454Y524371D01*
X446436Y524272D01*
X446423Y524174D01*
X446413Y524074D01*
X446407Y523975D01*
X446405Y523875D01*
X446407Y523775D01*
X446413Y523676D01*
X446423Y523576D01*
X446436Y523478D01*
X446454Y523379D01*
X446475Y523282D01*
X446500Y523186D01*
X446529Y523090D01*
X446562Y522996D01*
X446598Y522903D01*
X446638Y522812D01*
X446682Y522722D01*
X446729Y522634D01*
X446779Y522548D01*
X446833Y522464D01*
X446890Y522382D01*
X446950Y522303D01*
X447014Y522225D01*
X447080Y522151D01*
X447149Y522079D01*
X447221Y522010D01*
X447295Y521944D01*
X447373Y521880D01*
X447452Y521820D01*
X447534Y521763D01*
X447618Y521709D01*
X447704Y521659D01*
X447792Y521612D01*
X447882Y521568D01*
X447973Y521528D01*
X448066Y521492D01*
X448160Y521459D01*
X448256Y521430D01*
X448352Y521405D01*
X448449Y521384D01*
X448548Y521366D01*
X448646Y521353D01*
X448746Y521343D01*
X448845Y521337D01*
X448945Y521335D01*
X451485Y521335D01*
D14*
X405130Y539750D02*
X377190Y539750D01*
X374650Y557530D02*
X374652Y557630D01*
X374658Y557729D01*
X374668Y557829D01*
X374681Y557927D01*
X374699Y558026D01*
X374720Y558123D01*
X374745Y558219D01*
X374774Y558315D01*
X374807Y558409D01*
X374843Y558502D01*
X374883Y558593D01*
X374927Y558683D01*
X374974Y558771D01*
X375024Y558857D01*
X375078Y558941D01*
X375135Y559023D01*
X375195Y559102D01*
X375259Y559180D01*
X375325Y559254D01*
X375394Y559326D01*
X375466Y559395D01*
X375540Y559461D01*
X375618Y559525D01*
X375697Y559585D01*
X375779Y559642D01*
X375863Y559696D01*
X375949Y559746D01*
X376037Y559793D01*
X376127Y559837D01*
X376218Y559877D01*
X376311Y559913D01*
X376405Y559946D01*
X376501Y559975D01*
X376597Y560000D01*
X376694Y560021D01*
X376793Y560039D01*
X376891Y560052D01*
X376991Y560062D01*
X377090Y560068D01*
X377190Y560070D01*
X405130Y560070D02*
X405230Y560068D01*
X405329Y560062D01*
X405429Y560052D01*
X405527Y560039D01*
X405626Y560021D01*
X405723Y560000D01*
X405819Y559975D01*
X405915Y559946D01*
X406009Y559913D01*
X406102Y559877D01*
X406193Y559837D01*
X406283Y559793D01*
X406371Y559746D01*
X406457Y559696D01*
X406541Y559642D01*
X406623Y559585D01*
X406702Y559525D01*
X406780Y559461D01*
X406854Y559395D01*
X406926Y559326D01*
X406995Y559254D01*
X407061Y559180D01*
X407125Y559102D01*
X407185Y559023D01*
X407242Y558941D01*
X407296Y558857D01*
X407346Y558771D01*
X407393Y558683D01*
X407437Y558593D01*
X407477Y558502D01*
X407513Y558409D01*
X407546Y558315D01*
X407575Y558219D01*
X407600Y558123D01*
X407621Y558026D01*
X407639Y557927D01*
X407652Y557829D01*
X407662Y557729D01*
X407668Y557630D01*
X407670Y557530D01*
X407670Y542290D02*
X407668Y542190D01*
X407662Y542091D01*
X407652Y541991D01*
X407639Y541893D01*
X407621Y541794D01*
X407600Y541697D01*
X407575Y541601D01*
X407546Y541505D01*
X407513Y541411D01*
X407477Y541318D01*
X407437Y541227D01*
X407393Y541137D01*
X407346Y541049D01*
X407296Y540963D01*
X407242Y540879D01*
X407185Y540797D01*
X407125Y540718D01*
X407061Y540640D01*
X406995Y540566D01*
X406926Y540494D01*
X406854Y540425D01*
X406780Y540359D01*
X406702Y540295D01*
X406623Y540235D01*
X406541Y540178D01*
X406457Y540124D01*
X406371Y540074D01*
X406283Y540027D01*
X406193Y539983D01*
X406102Y539943D01*
X406009Y539907D01*
X405915Y539874D01*
X405819Y539845D01*
X405723Y539820D01*
X405626Y539799D01*
X405527Y539781D01*
X405429Y539768D01*
X405329Y539758D01*
X405230Y539752D01*
X405130Y539750D01*
X377190Y539750D02*
X377090Y539752D01*
X376991Y539758D01*
X376891Y539768D01*
X376793Y539781D01*
X376694Y539799D01*
X376597Y539820D01*
X376501Y539845D01*
X376405Y539874D01*
X376311Y539907D01*
X376218Y539943D01*
X376127Y539983D01*
X376037Y540027D01*
X375949Y540074D01*
X375863Y540124D01*
X375779Y540178D01*
X375697Y540235D01*
X375618Y540295D01*
X375540Y540359D01*
X375466Y540425D01*
X375394Y540494D01*
X375325Y540566D01*
X375259Y540640D01*
X375195Y540718D01*
X375135Y540797D01*
X375078Y540879D01*
X375024Y540963D01*
X374974Y541049D01*
X374927Y541137D01*
X374883Y541227D01*
X374843Y541318D01*
X374807Y541411D01*
X374774Y541505D01*
X374745Y541601D01*
X374720Y541697D01*
X374699Y541794D01*
X374681Y541893D01*
X374668Y541991D01*
X374658Y542091D01*
X374652Y542190D01*
X374650Y542290D01*
X374650Y557530D01*
X407670Y557530D02*
X407670Y542290D01*
X405130Y560070D02*
X377190Y560070D01*
D12*
X368935Y556895D02*
X371475Y548005D01*
X365125Y548005D01*
X367030Y550545D02*
X367030Y545465D01*
M02*
