G04 EAGLE Gerber RS-274X export*
G75*
%MOMM*%
%FSLAX34Y34*%
%LPD*%
%INSilkscreen Top*%
%IPPOS*%
%AMOC8*
5,1,8,0,0,1.08239X$1,22.5*%
G01*
%ADD10C,0.203200*%
%ADD11C,0.076200*%
%ADD12C,0.127000*%
%ADD13C,0.254000*%
%ADD14C,0.101600*%
%ADD15C,0.152400*%


D10*
X287970Y2860D02*
X287970Y561660D01*
X287970Y2860D02*
X567370Y2860D01*
X338770Y561660D02*
X287970Y561660D01*
X338770Y561660D02*
X516570Y561660D01*
X567370Y561660D01*
X567370Y2860D01*
X338770Y498160D02*
X338770Y561660D01*
X338770Y498160D02*
X338770Y294960D01*
X516570Y294960D01*
X516570Y498160D01*
X516570Y561660D01*
D11*
X317405Y494477D02*
X315359Y494477D01*
X317405Y494477D02*
X317494Y494479D01*
X317583Y494485D01*
X317672Y494495D01*
X317760Y494508D01*
X317848Y494525D01*
X317935Y494547D01*
X318020Y494572D01*
X318105Y494600D01*
X318188Y494633D01*
X318270Y494669D01*
X318350Y494708D01*
X318428Y494751D01*
X318504Y494797D01*
X318579Y494847D01*
X318651Y494900D01*
X318720Y494956D01*
X318787Y495015D01*
X318852Y495076D01*
X318913Y495141D01*
X318972Y495208D01*
X319028Y495277D01*
X319081Y495349D01*
X319131Y495424D01*
X319177Y495500D01*
X319220Y495578D01*
X319259Y495658D01*
X319295Y495740D01*
X319328Y495823D01*
X319356Y495908D01*
X319381Y495993D01*
X319403Y496080D01*
X319420Y496168D01*
X319433Y496256D01*
X319443Y496345D01*
X319449Y496434D01*
X319451Y496523D01*
X319449Y496612D01*
X319443Y496701D01*
X319433Y496790D01*
X319420Y496878D01*
X319403Y496966D01*
X319381Y497053D01*
X319356Y497138D01*
X319328Y497223D01*
X319295Y497306D01*
X319259Y497388D01*
X319220Y497468D01*
X319177Y497546D01*
X319131Y497622D01*
X319081Y497697D01*
X319028Y497769D01*
X318972Y497838D01*
X318913Y497905D01*
X318852Y497970D01*
X318787Y498031D01*
X318720Y498090D01*
X318651Y498146D01*
X318579Y498199D01*
X318504Y498249D01*
X318428Y498295D01*
X318350Y498338D01*
X318270Y498377D01*
X318188Y498413D01*
X318105Y498446D01*
X318020Y498474D01*
X317935Y498499D01*
X317848Y498521D01*
X317760Y498538D01*
X317672Y498551D01*
X317583Y498561D01*
X317494Y498567D01*
X317405Y498569D01*
X317814Y501843D02*
X315359Y501843D01*
X317814Y501843D02*
X317893Y501841D01*
X317972Y501835D01*
X318051Y501826D01*
X318129Y501813D01*
X318206Y501795D01*
X318282Y501775D01*
X318357Y501750D01*
X318431Y501722D01*
X318504Y501691D01*
X318575Y501655D01*
X318644Y501617D01*
X318711Y501575D01*
X318776Y501530D01*
X318839Y501482D01*
X318900Y501431D01*
X318957Y501377D01*
X319013Y501321D01*
X319065Y501262D01*
X319115Y501200D01*
X319161Y501136D01*
X319205Y501070D01*
X319245Y501002D01*
X319281Y500932D01*
X319315Y500860D01*
X319345Y500786D01*
X319371Y500712D01*
X319394Y500636D01*
X319412Y500559D01*
X319428Y500482D01*
X319439Y500403D01*
X319447Y500325D01*
X319451Y500246D01*
X319451Y500166D01*
X319447Y500087D01*
X319439Y500009D01*
X319428Y499930D01*
X319412Y499853D01*
X319394Y499776D01*
X319371Y499700D01*
X319345Y499626D01*
X319315Y499552D01*
X319281Y499480D01*
X319245Y499410D01*
X319205Y499342D01*
X319161Y499276D01*
X319115Y499212D01*
X319065Y499150D01*
X319013Y499091D01*
X318957Y499035D01*
X318900Y498981D01*
X318839Y498930D01*
X318776Y498882D01*
X318711Y498837D01*
X318644Y498795D01*
X318575Y498757D01*
X318504Y498721D01*
X318431Y498690D01*
X318357Y498662D01*
X318282Y498637D01*
X318206Y498617D01*
X318129Y498599D01*
X318051Y498586D01*
X317972Y498577D01*
X317893Y498571D01*
X317814Y498569D01*
X316177Y498569D01*
X322265Y501843D02*
X324720Y494477D01*
X327175Y501843D01*
X329989Y494477D02*
X332035Y494477D01*
X332124Y494479D01*
X332213Y494485D01*
X332302Y494495D01*
X332390Y494508D01*
X332478Y494525D01*
X332565Y494547D01*
X332650Y494572D01*
X332735Y494600D01*
X332818Y494633D01*
X332900Y494669D01*
X332980Y494708D01*
X333058Y494751D01*
X333134Y494797D01*
X333209Y494847D01*
X333281Y494900D01*
X333350Y494956D01*
X333417Y495015D01*
X333482Y495076D01*
X333543Y495141D01*
X333602Y495208D01*
X333658Y495277D01*
X333711Y495349D01*
X333761Y495424D01*
X333807Y495500D01*
X333850Y495578D01*
X333889Y495658D01*
X333925Y495740D01*
X333958Y495823D01*
X333986Y495908D01*
X334011Y495993D01*
X334033Y496080D01*
X334050Y496168D01*
X334063Y496256D01*
X334073Y496345D01*
X334079Y496434D01*
X334081Y496523D01*
X334079Y496612D01*
X334073Y496701D01*
X334063Y496790D01*
X334050Y496878D01*
X334033Y496966D01*
X334011Y497053D01*
X333986Y497138D01*
X333958Y497223D01*
X333925Y497306D01*
X333889Y497388D01*
X333850Y497468D01*
X333807Y497546D01*
X333761Y497622D01*
X333711Y497697D01*
X333658Y497769D01*
X333602Y497838D01*
X333543Y497905D01*
X333482Y497970D01*
X333417Y498031D01*
X333350Y498090D01*
X333281Y498146D01*
X333209Y498199D01*
X333134Y498249D01*
X333058Y498295D01*
X332980Y498338D01*
X332900Y498377D01*
X332818Y498413D01*
X332735Y498446D01*
X332650Y498474D01*
X332565Y498499D01*
X332478Y498521D01*
X332390Y498538D01*
X332302Y498551D01*
X332213Y498561D01*
X332124Y498567D01*
X332035Y498569D01*
X332444Y501843D02*
X329989Y501843D01*
X332444Y501843D02*
X332523Y501841D01*
X332602Y501835D01*
X332681Y501826D01*
X332759Y501813D01*
X332836Y501795D01*
X332912Y501775D01*
X332987Y501750D01*
X333061Y501722D01*
X333134Y501691D01*
X333205Y501655D01*
X333274Y501617D01*
X333341Y501575D01*
X333406Y501530D01*
X333469Y501482D01*
X333530Y501431D01*
X333587Y501377D01*
X333643Y501321D01*
X333695Y501262D01*
X333745Y501200D01*
X333791Y501136D01*
X333835Y501070D01*
X333875Y501002D01*
X333911Y500932D01*
X333945Y500860D01*
X333975Y500786D01*
X334001Y500712D01*
X334024Y500636D01*
X334042Y500559D01*
X334058Y500482D01*
X334069Y500403D01*
X334077Y500325D01*
X334081Y500246D01*
X334081Y500166D01*
X334077Y500087D01*
X334069Y500009D01*
X334058Y499930D01*
X334042Y499853D01*
X334024Y499776D01*
X334001Y499700D01*
X333975Y499626D01*
X333945Y499552D01*
X333911Y499480D01*
X333875Y499410D01*
X333835Y499342D01*
X333791Y499276D01*
X333745Y499212D01*
X333695Y499150D01*
X333643Y499091D01*
X333587Y499035D01*
X333530Y498981D01*
X333469Y498930D01*
X333406Y498882D01*
X333341Y498837D01*
X333274Y498795D01*
X333205Y498757D01*
X333134Y498721D01*
X333061Y498690D01*
X332987Y498662D01*
X332912Y498637D01*
X332836Y498617D01*
X332759Y498599D01*
X332681Y498586D01*
X332602Y498577D01*
X332523Y498571D01*
X332444Y498569D01*
X330808Y498569D01*
X322786Y469077D02*
X319512Y469077D01*
X319512Y476443D01*
X322786Y476443D01*
X321967Y473169D02*
X319512Y473169D01*
X325836Y476443D02*
X325836Y469077D01*
X329928Y469077D02*
X325836Y476443D01*
X329928Y476443D02*
X329928Y469077D01*
X323050Y445314D02*
X323048Y445236D01*
X323043Y445158D01*
X323033Y445081D01*
X323020Y445004D01*
X323004Y444928D01*
X322984Y444853D01*
X322960Y444779D01*
X322933Y444706D01*
X322902Y444634D01*
X322868Y444564D01*
X322831Y444496D01*
X322790Y444429D01*
X322746Y444364D01*
X322700Y444302D01*
X322650Y444242D01*
X322598Y444184D01*
X322543Y444129D01*
X322485Y444077D01*
X322425Y444027D01*
X322363Y443981D01*
X322298Y443937D01*
X322232Y443896D01*
X322163Y443859D01*
X322093Y443825D01*
X322021Y443794D01*
X321948Y443767D01*
X321874Y443743D01*
X321799Y443723D01*
X321723Y443707D01*
X321646Y443694D01*
X321569Y443684D01*
X321491Y443679D01*
X321413Y443677D01*
X321299Y443679D01*
X321186Y443684D01*
X321072Y443694D01*
X320959Y443707D01*
X320847Y443724D01*
X320735Y443744D01*
X320624Y443768D01*
X320513Y443796D01*
X320404Y443827D01*
X320296Y443862D01*
X320189Y443901D01*
X320083Y443943D01*
X319979Y443988D01*
X319876Y444037D01*
X319775Y444090D01*
X319676Y444145D01*
X319578Y444204D01*
X319483Y444266D01*
X319390Y444331D01*
X319298Y444399D01*
X319210Y444470D01*
X319123Y444544D01*
X319039Y444621D01*
X318958Y444700D01*
X319162Y449406D02*
X319164Y449484D01*
X319169Y449562D01*
X319179Y449639D01*
X319192Y449716D01*
X319208Y449792D01*
X319228Y449867D01*
X319252Y449941D01*
X319279Y450014D01*
X319310Y450086D01*
X319344Y450156D01*
X319381Y450225D01*
X319422Y450291D01*
X319466Y450356D01*
X319512Y450418D01*
X319562Y450478D01*
X319614Y450536D01*
X319669Y450591D01*
X319727Y450643D01*
X319787Y450693D01*
X319849Y450739D01*
X319914Y450783D01*
X319981Y450824D01*
X320049Y450861D01*
X320119Y450895D01*
X320191Y450926D01*
X320264Y450953D01*
X320338Y450977D01*
X320413Y450997D01*
X320489Y451013D01*
X320566Y451026D01*
X320643Y451036D01*
X320721Y451041D01*
X320799Y451043D01*
X320909Y451041D01*
X321018Y451035D01*
X321128Y451025D01*
X321236Y451012D01*
X321345Y450994D01*
X321452Y450973D01*
X321559Y450947D01*
X321665Y450918D01*
X321770Y450886D01*
X321873Y450849D01*
X321975Y450809D01*
X322076Y450765D01*
X322175Y450717D01*
X322272Y450667D01*
X322367Y450612D01*
X322460Y450554D01*
X322551Y450493D01*
X322640Y450429D01*
X319981Y447973D02*
X319914Y448015D01*
X319849Y448059D01*
X319787Y448107D01*
X319727Y448157D01*
X319669Y448210D01*
X319614Y448266D01*
X319562Y448325D01*
X319512Y448385D01*
X319465Y448449D01*
X319422Y448514D01*
X319381Y448581D01*
X319344Y448650D01*
X319310Y448721D01*
X319279Y448793D01*
X319252Y448867D01*
X319228Y448941D01*
X319208Y449017D01*
X319192Y449094D01*
X319179Y449171D01*
X319169Y449249D01*
X319164Y449328D01*
X319162Y449406D01*
X322231Y446746D02*
X322297Y446704D01*
X322362Y446660D01*
X322424Y446613D01*
X322484Y446562D01*
X322542Y446509D01*
X322597Y446453D01*
X322650Y446395D01*
X322699Y446334D01*
X322746Y446271D01*
X322789Y446206D01*
X322830Y446139D01*
X322867Y446070D01*
X322901Y445999D01*
X322932Y445927D01*
X322959Y445853D01*
X322983Y445778D01*
X323003Y445703D01*
X323019Y445626D01*
X323032Y445549D01*
X323042Y445471D01*
X323047Y445392D01*
X323049Y445314D01*
X322231Y446746D02*
X319981Y447974D01*
X326390Y451043D02*
X326390Y443677D01*
X326390Y451043D02*
X328436Y451043D01*
X328525Y451041D01*
X328614Y451035D01*
X328703Y451025D01*
X328791Y451012D01*
X328879Y450995D01*
X328966Y450973D01*
X329051Y450948D01*
X329136Y450920D01*
X329219Y450887D01*
X329301Y450851D01*
X329381Y450812D01*
X329459Y450769D01*
X329535Y450723D01*
X329610Y450673D01*
X329682Y450620D01*
X329751Y450564D01*
X329818Y450505D01*
X329883Y450444D01*
X329944Y450379D01*
X330003Y450312D01*
X330059Y450243D01*
X330112Y450171D01*
X330162Y450096D01*
X330208Y450020D01*
X330251Y449942D01*
X330290Y449862D01*
X330326Y449780D01*
X330359Y449697D01*
X330387Y449612D01*
X330412Y449527D01*
X330434Y449440D01*
X330451Y449352D01*
X330464Y449264D01*
X330474Y449175D01*
X330480Y449086D01*
X330482Y448997D01*
X330480Y448908D01*
X330474Y448819D01*
X330464Y448730D01*
X330451Y448642D01*
X330434Y448554D01*
X330412Y448467D01*
X330387Y448382D01*
X330359Y448297D01*
X330326Y448214D01*
X330290Y448132D01*
X330251Y448052D01*
X330208Y447974D01*
X330162Y447898D01*
X330112Y447823D01*
X330059Y447751D01*
X330003Y447682D01*
X329944Y447615D01*
X329883Y447550D01*
X329818Y447489D01*
X329751Y447430D01*
X329682Y447374D01*
X329610Y447321D01*
X329535Y447271D01*
X329459Y447225D01*
X329381Y447182D01*
X329301Y447143D01*
X329219Y447107D01*
X329136Y447074D01*
X329051Y447046D01*
X328966Y447021D01*
X328879Y446999D01*
X328791Y446982D01*
X328703Y446969D01*
X328614Y446959D01*
X328525Y446953D01*
X328436Y446951D01*
X326390Y446951D01*
X323109Y419914D02*
X323107Y419836D01*
X323102Y419758D01*
X323092Y419681D01*
X323079Y419604D01*
X323063Y419528D01*
X323043Y419453D01*
X323019Y419379D01*
X322992Y419306D01*
X322961Y419234D01*
X322927Y419164D01*
X322890Y419096D01*
X322849Y419029D01*
X322805Y418964D01*
X322759Y418902D01*
X322709Y418842D01*
X322657Y418784D01*
X322602Y418729D01*
X322544Y418677D01*
X322484Y418627D01*
X322422Y418581D01*
X322357Y418537D01*
X322291Y418496D01*
X322222Y418459D01*
X322152Y418425D01*
X322080Y418394D01*
X322007Y418367D01*
X321933Y418343D01*
X321858Y418323D01*
X321782Y418307D01*
X321705Y418294D01*
X321628Y418284D01*
X321550Y418279D01*
X321472Y418277D01*
X321358Y418279D01*
X321245Y418284D01*
X321131Y418294D01*
X321018Y418307D01*
X320906Y418324D01*
X320794Y418344D01*
X320683Y418368D01*
X320572Y418396D01*
X320463Y418427D01*
X320355Y418462D01*
X320248Y418501D01*
X320142Y418543D01*
X320038Y418588D01*
X319935Y418637D01*
X319834Y418690D01*
X319735Y418745D01*
X319637Y418804D01*
X319542Y418866D01*
X319449Y418931D01*
X319357Y418999D01*
X319269Y419070D01*
X319182Y419144D01*
X319098Y419221D01*
X319017Y419300D01*
X319221Y424006D02*
X319223Y424084D01*
X319228Y424162D01*
X319238Y424239D01*
X319251Y424316D01*
X319267Y424392D01*
X319287Y424467D01*
X319311Y424541D01*
X319338Y424614D01*
X319369Y424686D01*
X319403Y424756D01*
X319440Y424825D01*
X319481Y424891D01*
X319525Y424956D01*
X319571Y425018D01*
X319621Y425078D01*
X319673Y425136D01*
X319728Y425191D01*
X319786Y425243D01*
X319846Y425293D01*
X319908Y425339D01*
X319973Y425383D01*
X320040Y425424D01*
X320108Y425461D01*
X320178Y425495D01*
X320250Y425526D01*
X320323Y425553D01*
X320397Y425577D01*
X320472Y425597D01*
X320548Y425613D01*
X320625Y425626D01*
X320702Y425636D01*
X320780Y425641D01*
X320858Y425643D01*
X320968Y425641D01*
X321077Y425635D01*
X321187Y425625D01*
X321295Y425612D01*
X321404Y425594D01*
X321511Y425573D01*
X321618Y425547D01*
X321724Y425518D01*
X321829Y425486D01*
X321932Y425449D01*
X322034Y425409D01*
X322135Y425365D01*
X322234Y425317D01*
X322331Y425267D01*
X322426Y425212D01*
X322519Y425154D01*
X322610Y425093D01*
X322699Y425029D01*
X320039Y422573D02*
X319972Y422615D01*
X319907Y422659D01*
X319845Y422707D01*
X319785Y422757D01*
X319727Y422810D01*
X319672Y422866D01*
X319620Y422925D01*
X319570Y422985D01*
X319523Y423049D01*
X319480Y423114D01*
X319439Y423181D01*
X319402Y423250D01*
X319368Y423321D01*
X319337Y423393D01*
X319310Y423467D01*
X319286Y423541D01*
X319266Y423617D01*
X319250Y423694D01*
X319237Y423771D01*
X319227Y423849D01*
X319222Y423928D01*
X319220Y424006D01*
X322290Y421346D02*
X322356Y421304D01*
X322421Y421260D01*
X322483Y421213D01*
X322543Y421162D01*
X322601Y421109D01*
X322656Y421053D01*
X322709Y420995D01*
X322758Y420934D01*
X322805Y420871D01*
X322848Y420806D01*
X322889Y420739D01*
X322926Y420670D01*
X322960Y420599D01*
X322991Y420527D01*
X323018Y420453D01*
X323042Y420378D01*
X323062Y420303D01*
X323078Y420226D01*
X323091Y420149D01*
X323101Y420071D01*
X323106Y419992D01*
X323108Y419914D01*
X322290Y421346D02*
X320039Y422574D01*
X326332Y425643D02*
X326332Y418277D01*
X330424Y418277D02*
X326332Y425643D01*
X330424Y425643D02*
X330424Y418277D01*
X319329Y396969D02*
X318101Y396969D01*
X319329Y396969D02*
X319329Y392877D01*
X316874Y392877D01*
X316796Y392879D01*
X316718Y392884D01*
X316641Y392894D01*
X316564Y392907D01*
X316488Y392923D01*
X316413Y392943D01*
X316339Y392967D01*
X316266Y392994D01*
X316194Y393025D01*
X316124Y393059D01*
X316056Y393096D01*
X315989Y393137D01*
X315924Y393181D01*
X315862Y393227D01*
X315802Y393277D01*
X315744Y393329D01*
X315689Y393384D01*
X315637Y393442D01*
X315587Y393502D01*
X315541Y393564D01*
X315497Y393629D01*
X315456Y393696D01*
X315419Y393764D01*
X315385Y393834D01*
X315354Y393906D01*
X315327Y393979D01*
X315303Y394053D01*
X315283Y394128D01*
X315267Y394204D01*
X315254Y394281D01*
X315244Y394358D01*
X315239Y394436D01*
X315237Y394514D01*
X315237Y398606D01*
X315239Y398686D01*
X315245Y398766D01*
X315255Y398846D01*
X315268Y398925D01*
X315286Y399004D01*
X315307Y399081D01*
X315333Y399157D01*
X315362Y399232D01*
X315394Y399306D01*
X315430Y399378D01*
X315470Y399448D01*
X315513Y399515D01*
X315559Y399581D01*
X315609Y399644D01*
X315661Y399705D01*
X315716Y399764D01*
X315775Y399819D01*
X315835Y399871D01*
X315899Y399921D01*
X315965Y399967D01*
X316032Y400010D01*
X316102Y400050D01*
X316174Y400086D01*
X316248Y400118D01*
X316322Y400147D01*
X316399Y400173D01*
X316476Y400194D01*
X316555Y400212D01*
X316634Y400225D01*
X316714Y400235D01*
X316794Y400241D01*
X316874Y400243D01*
X319329Y400243D01*
X322796Y392877D02*
X324842Y392877D01*
X324931Y392879D01*
X325020Y392885D01*
X325109Y392895D01*
X325197Y392908D01*
X325285Y392925D01*
X325372Y392947D01*
X325457Y392972D01*
X325542Y393000D01*
X325625Y393033D01*
X325707Y393069D01*
X325787Y393108D01*
X325865Y393151D01*
X325941Y393197D01*
X326016Y393247D01*
X326088Y393300D01*
X326157Y393356D01*
X326224Y393415D01*
X326289Y393476D01*
X326350Y393541D01*
X326409Y393608D01*
X326465Y393677D01*
X326518Y393749D01*
X326568Y393824D01*
X326614Y393900D01*
X326657Y393978D01*
X326696Y394058D01*
X326732Y394140D01*
X326765Y394223D01*
X326793Y394308D01*
X326818Y394393D01*
X326840Y394480D01*
X326857Y394568D01*
X326870Y394656D01*
X326880Y394745D01*
X326886Y394834D01*
X326888Y394923D01*
X326886Y395012D01*
X326880Y395101D01*
X326870Y395190D01*
X326857Y395278D01*
X326840Y395366D01*
X326818Y395453D01*
X326793Y395538D01*
X326765Y395623D01*
X326732Y395706D01*
X326696Y395788D01*
X326657Y395868D01*
X326614Y395946D01*
X326568Y396022D01*
X326518Y396097D01*
X326465Y396169D01*
X326409Y396238D01*
X326350Y396305D01*
X326289Y396370D01*
X326224Y396431D01*
X326157Y396490D01*
X326088Y396546D01*
X326016Y396599D01*
X325941Y396649D01*
X325865Y396695D01*
X325787Y396738D01*
X325707Y396777D01*
X325625Y396813D01*
X325542Y396846D01*
X325457Y396874D01*
X325372Y396899D01*
X325285Y396921D01*
X325197Y396938D01*
X325109Y396951D01*
X325020Y396961D01*
X324931Y396967D01*
X324842Y396969D01*
X325251Y400243D02*
X322796Y400243D01*
X325251Y400243D02*
X325330Y400241D01*
X325409Y400235D01*
X325488Y400226D01*
X325566Y400213D01*
X325643Y400195D01*
X325719Y400175D01*
X325794Y400150D01*
X325868Y400122D01*
X325941Y400091D01*
X326012Y400055D01*
X326081Y400017D01*
X326148Y399975D01*
X326213Y399930D01*
X326276Y399882D01*
X326337Y399831D01*
X326394Y399777D01*
X326450Y399721D01*
X326502Y399662D01*
X326552Y399600D01*
X326598Y399536D01*
X326642Y399470D01*
X326682Y399402D01*
X326718Y399332D01*
X326752Y399260D01*
X326782Y399186D01*
X326808Y399112D01*
X326831Y399036D01*
X326849Y398959D01*
X326865Y398882D01*
X326876Y398803D01*
X326884Y398725D01*
X326888Y398646D01*
X326888Y398566D01*
X326884Y398487D01*
X326876Y398409D01*
X326865Y398330D01*
X326849Y398253D01*
X326831Y398176D01*
X326808Y398100D01*
X326782Y398026D01*
X326752Y397952D01*
X326718Y397880D01*
X326682Y397810D01*
X326642Y397742D01*
X326598Y397676D01*
X326552Y397612D01*
X326502Y397550D01*
X326450Y397491D01*
X326394Y397435D01*
X326337Y397381D01*
X326276Y397330D01*
X326213Y397282D01*
X326148Y397237D01*
X326081Y397195D01*
X326012Y397157D01*
X325941Y397121D01*
X325868Y397090D01*
X325794Y397062D01*
X325719Y397037D01*
X325643Y397017D01*
X325566Y396999D01*
X325488Y396986D01*
X325409Y396977D01*
X325330Y396971D01*
X325251Y396969D01*
X323614Y396969D01*
X330111Y394514D02*
X331748Y400243D01*
X330111Y394514D02*
X334203Y394514D01*
X332976Y396151D02*
X332976Y392877D01*
X319329Y371569D02*
X318101Y371569D01*
X319329Y371569D02*
X319329Y367477D01*
X316874Y367477D01*
X316796Y367479D01*
X316718Y367484D01*
X316641Y367494D01*
X316564Y367507D01*
X316488Y367523D01*
X316413Y367543D01*
X316339Y367567D01*
X316266Y367594D01*
X316194Y367625D01*
X316124Y367659D01*
X316056Y367696D01*
X315989Y367737D01*
X315924Y367781D01*
X315862Y367827D01*
X315802Y367877D01*
X315744Y367929D01*
X315689Y367984D01*
X315637Y368042D01*
X315587Y368102D01*
X315541Y368164D01*
X315497Y368229D01*
X315456Y368296D01*
X315419Y368364D01*
X315385Y368434D01*
X315354Y368506D01*
X315327Y368579D01*
X315303Y368653D01*
X315283Y368728D01*
X315267Y368804D01*
X315254Y368881D01*
X315244Y368958D01*
X315239Y369036D01*
X315237Y369114D01*
X315237Y373206D01*
X315239Y373286D01*
X315245Y373366D01*
X315255Y373446D01*
X315268Y373525D01*
X315286Y373604D01*
X315307Y373681D01*
X315333Y373757D01*
X315362Y373832D01*
X315394Y373906D01*
X315430Y373978D01*
X315470Y374048D01*
X315513Y374115D01*
X315559Y374181D01*
X315609Y374244D01*
X315661Y374305D01*
X315716Y374364D01*
X315775Y374419D01*
X315835Y374471D01*
X315899Y374521D01*
X315965Y374567D01*
X316032Y374610D01*
X316102Y374650D01*
X316174Y374686D01*
X316248Y374718D01*
X316322Y374747D01*
X316399Y374773D01*
X316476Y374794D01*
X316555Y374812D01*
X316634Y374825D01*
X316714Y374835D01*
X316794Y374841D01*
X316874Y374843D01*
X319329Y374843D01*
X322796Y367477D02*
X324842Y367477D01*
X324931Y367479D01*
X325020Y367485D01*
X325109Y367495D01*
X325197Y367508D01*
X325285Y367525D01*
X325372Y367547D01*
X325457Y367572D01*
X325542Y367600D01*
X325625Y367633D01*
X325707Y367669D01*
X325787Y367708D01*
X325865Y367751D01*
X325941Y367797D01*
X326016Y367847D01*
X326088Y367900D01*
X326157Y367956D01*
X326224Y368015D01*
X326289Y368076D01*
X326350Y368141D01*
X326409Y368208D01*
X326465Y368277D01*
X326518Y368349D01*
X326568Y368424D01*
X326614Y368500D01*
X326657Y368578D01*
X326696Y368658D01*
X326732Y368740D01*
X326765Y368823D01*
X326793Y368908D01*
X326818Y368993D01*
X326840Y369080D01*
X326857Y369168D01*
X326870Y369256D01*
X326880Y369345D01*
X326886Y369434D01*
X326888Y369523D01*
X326886Y369612D01*
X326880Y369701D01*
X326870Y369790D01*
X326857Y369878D01*
X326840Y369966D01*
X326818Y370053D01*
X326793Y370138D01*
X326765Y370223D01*
X326732Y370306D01*
X326696Y370388D01*
X326657Y370468D01*
X326614Y370546D01*
X326568Y370622D01*
X326518Y370697D01*
X326465Y370769D01*
X326409Y370838D01*
X326350Y370905D01*
X326289Y370970D01*
X326224Y371031D01*
X326157Y371090D01*
X326088Y371146D01*
X326016Y371199D01*
X325941Y371249D01*
X325865Y371295D01*
X325787Y371338D01*
X325707Y371377D01*
X325625Y371413D01*
X325542Y371446D01*
X325457Y371474D01*
X325372Y371499D01*
X325285Y371521D01*
X325197Y371538D01*
X325109Y371551D01*
X325020Y371561D01*
X324931Y371567D01*
X324842Y371569D01*
X325251Y374843D02*
X322796Y374843D01*
X325251Y374843D02*
X325330Y374841D01*
X325409Y374835D01*
X325488Y374826D01*
X325566Y374813D01*
X325643Y374795D01*
X325719Y374775D01*
X325794Y374750D01*
X325868Y374722D01*
X325941Y374691D01*
X326012Y374655D01*
X326081Y374617D01*
X326148Y374575D01*
X326213Y374530D01*
X326276Y374482D01*
X326337Y374431D01*
X326394Y374377D01*
X326450Y374321D01*
X326502Y374262D01*
X326552Y374200D01*
X326598Y374136D01*
X326642Y374070D01*
X326682Y374002D01*
X326718Y373932D01*
X326752Y373860D01*
X326782Y373786D01*
X326808Y373712D01*
X326831Y373636D01*
X326849Y373559D01*
X326865Y373482D01*
X326876Y373403D01*
X326884Y373325D01*
X326888Y373246D01*
X326888Y373166D01*
X326884Y373087D01*
X326876Y373009D01*
X326865Y372930D01*
X326849Y372853D01*
X326831Y372776D01*
X326808Y372700D01*
X326782Y372626D01*
X326752Y372552D01*
X326718Y372480D01*
X326682Y372410D01*
X326642Y372342D01*
X326598Y372276D01*
X326552Y372212D01*
X326502Y372150D01*
X326450Y372091D01*
X326394Y372035D01*
X326337Y371981D01*
X326276Y371930D01*
X326213Y371882D01*
X326148Y371837D01*
X326081Y371795D01*
X326012Y371757D01*
X325941Y371721D01*
X325868Y371690D01*
X325794Y371662D01*
X325719Y371637D01*
X325643Y371617D01*
X325566Y371599D01*
X325488Y371586D01*
X325409Y371577D01*
X325330Y371571D01*
X325251Y371569D01*
X323614Y371569D01*
X330111Y367477D02*
X332566Y367477D01*
X332644Y367479D01*
X332722Y367484D01*
X332799Y367494D01*
X332876Y367507D01*
X332952Y367523D01*
X333027Y367543D01*
X333101Y367567D01*
X333174Y367594D01*
X333246Y367625D01*
X333316Y367659D01*
X333385Y367696D01*
X333451Y367737D01*
X333516Y367781D01*
X333578Y367827D01*
X333638Y367877D01*
X333696Y367929D01*
X333751Y367984D01*
X333803Y368042D01*
X333853Y368102D01*
X333899Y368164D01*
X333943Y368229D01*
X333984Y368296D01*
X334021Y368364D01*
X334055Y368434D01*
X334086Y368506D01*
X334113Y368579D01*
X334137Y368653D01*
X334157Y368728D01*
X334173Y368804D01*
X334186Y368881D01*
X334196Y368958D01*
X334201Y369036D01*
X334203Y369114D01*
X334203Y369932D01*
X334201Y370010D01*
X334196Y370088D01*
X334186Y370165D01*
X334173Y370242D01*
X334157Y370318D01*
X334137Y370393D01*
X334113Y370467D01*
X334086Y370540D01*
X334055Y370612D01*
X334021Y370682D01*
X333984Y370751D01*
X333943Y370817D01*
X333899Y370882D01*
X333853Y370944D01*
X333803Y371004D01*
X333751Y371062D01*
X333696Y371117D01*
X333638Y371169D01*
X333578Y371219D01*
X333516Y371265D01*
X333451Y371309D01*
X333385Y371350D01*
X333316Y371387D01*
X333246Y371421D01*
X333174Y371452D01*
X333101Y371479D01*
X333027Y371503D01*
X332952Y371523D01*
X332876Y371539D01*
X332799Y371552D01*
X332722Y371562D01*
X332644Y371567D01*
X332566Y371569D01*
X330111Y371569D01*
X330111Y374843D01*
X334203Y374843D01*
X319329Y346169D02*
X318101Y346169D01*
X319329Y346169D02*
X319329Y342077D01*
X316874Y342077D01*
X316796Y342079D01*
X316718Y342084D01*
X316641Y342094D01*
X316564Y342107D01*
X316488Y342123D01*
X316413Y342143D01*
X316339Y342167D01*
X316266Y342194D01*
X316194Y342225D01*
X316124Y342259D01*
X316056Y342296D01*
X315989Y342337D01*
X315924Y342381D01*
X315862Y342427D01*
X315802Y342477D01*
X315744Y342529D01*
X315689Y342584D01*
X315637Y342642D01*
X315587Y342702D01*
X315541Y342764D01*
X315497Y342829D01*
X315456Y342896D01*
X315419Y342964D01*
X315385Y343034D01*
X315354Y343106D01*
X315327Y343179D01*
X315303Y343253D01*
X315283Y343328D01*
X315267Y343404D01*
X315254Y343481D01*
X315244Y343558D01*
X315239Y343636D01*
X315237Y343714D01*
X315237Y347806D01*
X315239Y347886D01*
X315245Y347966D01*
X315255Y348046D01*
X315268Y348125D01*
X315286Y348204D01*
X315307Y348281D01*
X315333Y348357D01*
X315362Y348432D01*
X315394Y348506D01*
X315430Y348578D01*
X315470Y348648D01*
X315513Y348715D01*
X315559Y348781D01*
X315609Y348844D01*
X315661Y348905D01*
X315716Y348964D01*
X315775Y349019D01*
X315835Y349071D01*
X315899Y349121D01*
X315965Y349167D01*
X316032Y349210D01*
X316102Y349250D01*
X316174Y349286D01*
X316248Y349318D01*
X316322Y349347D01*
X316399Y349373D01*
X316476Y349394D01*
X316555Y349412D01*
X316634Y349425D01*
X316714Y349435D01*
X316794Y349441D01*
X316874Y349443D01*
X319329Y349443D01*
X322796Y342077D02*
X324842Y342077D01*
X324931Y342079D01*
X325020Y342085D01*
X325109Y342095D01*
X325197Y342108D01*
X325285Y342125D01*
X325372Y342147D01*
X325457Y342172D01*
X325542Y342200D01*
X325625Y342233D01*
X325707Y342269D01*
X325787Y342308D01*
X325865Y342351D01*
X325941Y342397D01*
X326016Y342447D01*
X326088Y342500D01*
X326157Y342556D01*
X326224Y342615D01*
X326289Y342676D01*
X326350Y342741D01*
X326409Y342808D01*
X326465Y342877D01*
X326518Y342949D01*
X326568Y343024D01*
X326614Y343100D01*
X326657Y343178D01*
X326696Y343258D01*
X326732Y343340D01*
X326765Y343423D01*
X326793Y343508D01*
X326818Y343593D01*
X326840Y343680D01*
X326857Y343768D01*
X326870Y343856D01*
X326880Y343945D01*
X326886Y344034D01*
X326888Y344123D01*
X326886Y344212D01*
X326880Y344301D01*
X326870Y344390D01*
X326857Y344478D01*
X326840Y344566D01*
X326818Y344653D01*
X326793Y344738D01*
X326765Y344823D01*
X326732Y344906D01*
X326696Y344988D01*
X326657Y345068D01*
X326614Y345146D01*
X326568Y345222D01*
X326518Y345297D01*
X326465Y345369D01*
X326409Y345438D01*
X326350Y345505D01*
X326289Y345570D01*
X326224Y345631D01*
X326157Y345690D01*
X326088Y345746D01*
X326016Y345799D01*
X325941Y345849D01*
X325865Y345895D01*
X325787Y345938D01*
X325707Y345977D01*
X325625Y346013D01*
X325542Y346046D01*
X325457Y346074D01*
X325372Y346099D01*
X325285Y346121D01*
X325197Y346138D01*
X325109Y346151D01*
X325020Y346161D01*
X324931Y346167D01*
X324842Y346169D01*
X325251Y349443D02*
X322796Y349443D01*
X325251Y349443D02*
X325330Y349441D01*
X325409Y349435D01*
X325488Y349426D01*
X325566Y349413D01*
X325643Y349395D01*
X325719Y349375D01*
X325794Y349350D01*
X325868Y349322D01*
X325941Y349291D01*
X326012Y349255D01*
X326081Y349217D01*
X326148Y349175D01*
X326213Y349130D01*
X326276Y349082D01*
X326337Y349031D01*
X326394Y348977D01*
X326450Y348921D01*
X326502Y348862D01*
X326552Y348800D01*
X326598Y348736D01*
X326642Y348670D01*
X326682Y348602D01*
X326718Y348532D01*
X326752Y348460D01*
X326782Y348386D01*
X326808Y348312D01*
X326831Y348236D01*
X326849Y348159D01*
X326865Y348082D01*
X326876Y348003D01*
X326884Y347925D01*
X326888Y347846D01*
X326888Y347766D01*
X326884Y347687D01*
X326876Y347609D01*
X326865Y347530D01*
X326849Y347453D01*
X326831Y347376D01*
X326808Y347300D01*
X326782Y347226D01*
X326752Y347152D01*
X326718Y347080D01*
X326682Y347010D01*
X326642Y346942D01*
X326598Y346876D01*
X326552Y346812D01*
X326502Y346750D01*
X326450Y346691D01*
X326394Y346635D01*
X326337Y346581D01*
X326276Y346530D01*
X326213Y346482D01*
X326148Y346437D01*
X326081Y346395D01*
X326012Y346357D01*
X325941Y346321D01*
X325868Y346290D01*
X325794Y346262D01*
X325719Y346237D01*
X325643Y346217D01*
X325566Y346199D01*
X325488Y346186D01*
X325409Y346177D01*
X325330Y346171D01*
X325251Y346169D01*
X323614Y346169D01*
X332362Y349444D02*
X332447Y349442D01*
X332532Y349436D01*
X332616Y349426D01*
X332700Y349413D01*
X332784Y349395D01*
X332866Y349374D01*
X332947Y349349D01*
X333027Y349320D01*
X333106Y349287D01*
X333183Y349251D01*
X333258Y349211D01*
X333332Y349168D01*
X333403Y349122D01*
X333472Y349072D01*
X333539Y349019D01*
X333603Y348963D01*
X333664Y348904D01*
X333723Y348843D01*
X333779Y348779D01*
X333832Y348712D01*
X333882Y348643D01*
X333928Y348572D01*
X333971Y348498D01*
X334011Y348423D01*
X334047Y348346D01*
X334080Y348267D01*
X334109Y348187D01*
X334134Y348106D01*
X334155Y348024D01*
X334173Y347940D01*
X334186Y347856D01*
X334196Y347772D01*
X334202Y347687D01*
X334204Y347602D01*
X332362Y349443D02*
X332266Y349441D01*
X332170Y349435D01*
X332075Y349425D01*
X331980Y349412D01*
X331885Y349394D01*
X331792Y349373D01*
X331699Y349348D01*
X331608Y349319D01*
X331517Y349287D01*
X331428Y349251D01*
X331341Y349211D01*
X331255Y349168D01*
X331171Y349122D01*
X331089Y349072D01*
X331009Y349018D01*
X330932Y348962D01*
X330857Y348902D01*
X330784Y348840D01*
X330714Y348774D01*
X330646Y348706D01*
X330581Y348635D01*
X330520Y348562D01*
X330461Y348486D01*
X330405Y348407D01*
X330353Y348327D01*
X330304Y348244D01*
X330258Y348160D01*
X330216Y348074D01*
X330178Y347986D01*
X330143Y347897D01*
X330111Y347806D01*
X333589Y346170D02*
X333649Y346229D01*
X333706Y346291D01*
X333761Y346355D01*
X333812Y346422D01*
X333861Y346491D01*
X333907Y346561D01*
X333950Y346634D01*
X333990Y346708D01*
X334026Y346784D01*
X334059Y346862D01*
X334089Y346941D01*
X334116Y347021D01*
X334139Y347102D01*
X334158Y347184D01*
X334174Y347266D01*
X334187Y347350D01*
X334196Y347434D01*
X334201Y347518D01*
X334203Y347602D01*
X333589Y346169D02*
X330111Y342077D01*
X334203Y342077D01*
X319329Y320769D02*
X318101Y320769D01*
X319329Y320769D02*
X319329Y316677D01*
X316874Y316677D01*
X316796Y316679D01*
X316718Y316684D01*
X316641Y316694D01*
X316564Y316707D01*
X316488Y316723D01*
X316413Y316743D01*
X316339Y316767D01*
X316266Y316794D01*
X316194Y316825D01*
X316124Y316859D01*
X316056Y316896D01*
X315989Y316937D01*
X315924Y316981D01*
X315862Y317027D01*
X315802Y317077D01*
X315744Y317129D01*
X315689Y317184D01*
X315637Y317242D01*
X315587Y317302D01*
X315541Y317364D01*
X315497Y317429D01*
X315456Y317496D01*
X315419Y317564D01*
X315385Y317634D01*
X315354Y317706D01*
X315327Y317779D01*
X315303Y317853D01*
X315283Y317928D01*
X315267Y318004D01*
X315254Y318081D01*
X315244Y318158D01*
X315239Y318236D01*
X315237Y318314D01*
X315237Y322406D01*
X315239Y322486D01*
X315245Y322566D01*
X315255Y322646D01*
X315268Y322725D01*
X315286Y322804D01*
X315307Y322881D01*
X315333Y322957D01*
X315362Y323032D01*
X315394Y323106D01*
X315430Y323178D01*
X315470Y323248D01*
X315513Y323315D01*
X315559Y323381D01*
X315609Y323444D01*
X315661Y323505D01*
X315716Y323564D01*
X315775Y323619D01*
X315835Y323671D01*
X315899Y323721D01*
X315965Y323767D01*
X316032Y323810D01*
X316102Y323850D01*
X316174Y323886D01*
X316248Y323918D01*
X316322Y323947D01*
X316399Y323973D01*
X316476Y323994D01*
X316555Y324012D01*
X316634Y324025D01*
X316714Y324035D01*
X316794Y324041D01*
X316874Y324043D01*
X319329Y324043D01*
X322796Y316677D02*
X324842Y316677D01*
X324931Y316679D01*
X325020Y316685D01*
X325109Y316695D01*
X325197Y316708D01*
X325285Y316725D01*
X325372Y316747D01*
X325457Y316772D01*
X325542Y316800D01*
X325625Y316833D01*
X325707Y316869D01*
X325787Y316908D01*
X325865Y316951D01*
X325941Y316997D01*
X326016Y317047D01*
X326088Y317100D01*
X326157Y317156D01*
X326224Y317215D01*
X326289Y317276D01*
X326350Y317341D01*
X326409Y317408D01*
X326465Y317477D01*
X326518Y317549D01*
X326568Y317624D01*
X326614Y317700D01*
X326657Y317778D01*
X326696Y317858D01*
X326732Y317940D01*
X326765Y318023D01*
X326793Y318108D01*
X326818Y318193D01*
X326840Y318280D01*
X326857Y318368D01*
X326870Y318456D01*
X326880Y318545D01*
X326886Y318634D01*
X326888Y318723D01*
X326886Y318812D01*
X326880Y318901D01*
X326870Y318990D01*
X326857Y319078D01*
X326840Y319166D01*
X326818Y319253D01*
X326793Y319338D01*
X326765Y319423D01*
X326732Y319506D01*
X326696Y319588D01*
X326657Y319668D01*
X326614Y319746D01*
X326568Y319822D01*
X326518Y319897D01*
X326465Y319969D01*
X326409Y320038D01*
X326350Y320105D01*
X326289Y320170D01*
X326224Y320231D01*
X326157Y320290D01*
X326088Y320346D01*
X326016Y320399D01*
X325941Y320449D01*
X325865Y320495D01*
X325787Y320538D01*
X325707Y320577D01*
X325625Y320613D01*
X325542Y320646D01*
X325457Y320674D01*
X325372Y320699D01*
X325285Y320721D01*
X325197Y320738D01*
X325109Y320751D01*
X325020Y320761D01*
X324931Y320767D01*
X324842Y320769D01*
X325251Y324043D02*
X322796Y324043D01*
X325251Y324043D02*
X325330Y324041D01*
X325409Y324035D01*
X325488Y324026D01*
X325566Y324013D01*
X325643Y323995D01*
X325719Y323975D01*
X325794Y323950D01*
X325868Y323922D01*
X325941Y323891D01*
X326012Y323855D01*
X326081Y323817D01*
X326148Y323775D01*
X326213Y323730D01*
X326276Y323682D01*
X326337Y323631D01*
X326394Y323577D01*
X326450Y323521D01*
X326502Y323462D01*
X326552Y323400D01*
X326598Y323336D01*
X326642Y323270D01*
X326682Y323202D01*
X326718Y323132D01*
X326752Y323060D01*
X326782Y322986D01*
X326808Y322912D01*
X326831Y322836D01*
X326849Y322759D01*
X326865Y322682D01*
X326876Y322603D01*
X326884Y322525D01*
X326888Y322446D01*
X326888Y322366D01*
X326884Y322287D01*
X326876Y322209D01*
X326865Y322130D01*
X326849Y322053D01*
X326831Y321976D01*
X326808Y321900D01*
X326782Y321826D01*
X326752Y321752D01*
X326718Y321680D01*
X326682Y321610D01*
X326642Y321542D01*
X326598Y321476D01*
X326552Y321412D01*
X326502Y321350D01*
X326450Y321291D01*
X326394Y321235D01*
X326337Y321181D01*
X326276Y321130D01*
X326213Y321082D01*
X326148Y321037D01*
X326081Y320995D01*
X326012Y320957D01*
X325941Y320921D01*
X325868Y320890D01*
X325794Y320862D01*
X325719Y320837D01*
X325643Y320817D01*
X325566Y320799D01*
X325488Y320786D01*
X325409Y320777D01*
X325330Y320771D01*
X325251Y320769D01*
X323614Y320769D01*
X330111Y316677D02*
X332157Y316677D01*
X332246Y316679D01*
X332335Y316685D01*
X332424Y316695D01*
X332512Y316708D01*
X332600Y316725D01*
X332687Y316747D01*
X332772Y316772D01*
X332857Y316800D01*
X332940Y316833D01*
X333022Y316869D01*
X333102Y316908D01*
X333180Y316951D01*
X333256Y316997D01*
X333331Y317047D01*
X333403Y317100D01*
X333472Y317156D01*
X333539Y317215D01*
X333604Y317276D01*
X333665Y317341D01*
X333724Y317408D01*
X333780Y317477D01*
X333833Y317549D01*
X333883Y317624D01*
X333929Y317700D01*
X333972Y317778D01*
X334011Y317858D01*
X334047Y317940D01*
X334080Y318023D01*
X334108Y318108D01*
X334133Y318193D01*
X334155Y318280D01*
X334172Y318368D01*
X334185Y318456D01*
X334195Y318545D01*
X334201Y318634D01*
X334203Y318723D01*
X334201Y318812D01*
X334195Y318901D01*
X334185Y318990D01*
X334172Y319078D01*
X334155Y319166D01*
X334133Y319253D01*
X334108Y319338D01*
X334080Y319423D01*
X334047Y319506D01*
X334011Y319588D01*
X333972Y319668D01*
X333929Y319746D01*
X333883Y319822D01*
X333833Y319897D01*
X333780Y319969D01*
X333724Y320038D01*
X333665Y320105D01*
X333604Y320170D01*
X333539Y320231D01*
X333472Y320290D01*
X333403Y320346D01*
X333331Y320399D01*
X333256Y320449D01*
X333180Y320495D01*
X333102Y320538D01*
X333022Y320577D01*
X332940Y320613D01*
X332857Y320646D01*
X332772Y320674D01*
X332687Y320699D01*
X332600Y320721D01*
X332512Y320738D01*
X332424Y320751D01*
X332335Y320761D01*
X332246Y320767D01*
X332157Y320769D01*
X332566Y324043D02*
X330111Y324043D01*
X332566Y324043D02*
X332645Y324041D01*
X332724Y324035D01*
X332803Y324026D01*
X332881Y324013D01*
X332958Y323995D01*
X333034Y323975D01*
X333109Y323950D01*
X333183Y323922D01*
X333256Y323891D01*
X333327Y323855D01*
X333396Y323817D01*
X333463Y323775D01*
X333528Y323730D01*
X333591Y323682D01*
X333652Y323631D01*
X333709Y323577D01*
X333765Y323521D01*
X333817Y323462D01*
X333867Y323400D01*
X333913Y323336D01*
X333957Y323270D01*
X333997Y323202D01*
X334033Y323132D01*
X334067Y323060D01*
X334097Y322986D01*
X334123Y322912D01*
X334146Y322836D01*
X334164Y322759D01*
X334180Y322682D01*
X334191Y322603D01*
X334199Y322525D01*
X334203Y322446D01*
X334203Y322366D01*
X334199Y322287D01*
X334191Y322209D01*
X334180Y322130D01*
X334164Y322053D01*
X334146Y321976D01*
X334123Y321900D01*
X334097Y321826D01*
X334067Y321752D01*
X334033Y321680D01*
X333997Y321610D01*
X333957Y321542D01*
X333913Y321476D01*
X333867Y321412D01*
X333817Y321350D01*
X333765Y321291D01*
X333709Y321235D01*
X333652Y321181D01*
X333591Y321130D01*
X333528Y321082D01*
X333463Y321037D01*
X333396Y320995D01*
X333327Y320957D01*
X333256Y320921D01*
X333183Y320890D01*
X333109Y320862D01*
X333034Y320837D01*
X332958Y320817D01*
X332881Y320799D01*
X332803Y320786D01*
X332724Y320777D01*
X332645Y320771D01*
X332566Y320769D01*
X330929Y320769D01*
X319329Y295369D02*
X318101Y295369D01*
X319329Y295369D02*
X319329Y291277D01*
X316874Y291277D01*
X316796Y291279D01*
X316718Y291284D01*
X316641Y291294D01*
X316564Y291307D01*
X316488Y291323D01*
X316413Y291343D01*
X316339Y291367D01*
X316266Y291394D01*
X316194Y291425D01*
X316124Y291459D01*
X316056Y291496D01*
X315989Y291537D01*
X315924Y291581D01*
X315862Y291627D01*
X315802Y291677D01*
X315744Y291729D01*
X315689Y291784D01*
X315637Y291842D01*
X315587Y291902D01*
X315541Y291964D01*
X315497Y292029D01*
X315456Y292096D01*
X315419Y292164D01*
X315385Y292234D01*
X315354Y292306D01*
X315327Y292379D01*
X315303Y292453D01*
X315283Y292528D01*
X315267Y292604D01*
X315254Y292681D01*
X315244Y292758D01*
X315239Y292836D01*
X315237Y292914D01*
X315237Y297006D01*
X315239Y297086D01*
X315245Y297166D01*
X315255Y297246D01*
X315268Y297325D01*
X315286Y297404D01*
X315307Y297481D01*
X315333Y297557D01*
X315362Y297632D01*
X315394Y297706D01*
X315430Y297778D01*
X315470Y297848D01*
X315513Y297915D01*
X315559Y297981D01*
X315609Y298044D01*
X315661Y298105D01*
X315716Y298164D01*
X315775Y298219D01*
X315835Y298271D01*
X315899Y298321D01*
X315965Y298367D01*
X316032Y298410D01*
X316102Y298450D01*
X316174Y298486D01*
X316248Y298518D01*
X316322Y298547D01*
X316399Y298573D01*
X316476Y298594D01*
X316555Y298612D01*
X316634Y298625D01*
X316714Y298635D01*
X316794Y298641D01*
X316874Y298643D01*
X319329Y298643D01*
X325047Y298644D02*
X325132Y298642D01*
X325217Y298636D01*
X325301Y298626D01*
X325385Y298613D01*
X325469Y298595D01*
X325551Y298574D01*
X325632Y298549D01*
X325712Y298520D01*
X325791Y298487D01*
X325868Y298451D01*
X325943Y298411D01*
X326017Y298368D01*
X326088Y298322D01*
X326157Y298272D01*
X326224Y298219D01*
X326288Y298163D01*
X326349Y298104D01*
X326408Y298043D01*
X326464Y297979D01*
X326517Y297912D01*
X326567Y297843D01*
X326613Y297772D01*
X326656Y297698D01*
X326696Y297623D01*
X326732Y297546D01*
X326765Y297467D01*
X326794Y297387D01*
X326819Y297306D01*
X326840Y297224D01*
X326858Y297140D01*
X326871Y297056D01*
X326881Y296972D01*
X326887Y296887D01*
X326889Y296802D01*
X325047Y298643D02*
X324951Y298641D01*
X324855Y298635D01*
X324760Y298625D01*
X324665Y298612D01*
X324570Y298594D01*
X324477Y298573D01*
X324384Y298548D01*
X324293Y298519D01*
X324202Y298487D01*
X324113Y298451D01*
X324026Y298411D01*
X323940Y298368D01*
X323856Y298322D01*
X323774Y298272D01*
X323694Y298218D01*
X323617Y298162D01*
X323542Y298102D01*
X323469Y298040D01*
X323399Y297974D01*
X323331Y297906D01*
X323266Y297835D01*
X323205Y297762D01*
X323146Y297686D01*
X323090Y297607D01*
X323038Y297527D01*
X322989Y297444D01*
X322943Y297360D01*
X322901Y297274D01*
X322863Y297186D01*
X322828Y297097D01*
X322796Y297006D01*
X326274Y295370D02*
X326334Y295429D01*
X326391Y295491D01*
X326446Y295555D01*
X326497Y295622D01*
X326546Y295691D01*
X326592Y295761D01*
X326635Y295834D01*
X326675Y295908D01*
X326711Y295984D01*
X326744Y296062D01*
X326774Y296141D01*
X326801Y296221D01*
X326824Y296302D01*
X326843Y296384D01*
X326859Y296466D01*
X326872Y296550D01*
X326881Y296634D01*
X326886Y296718D01*
X326888Y296802D01*
X326274Y295369D02*
X322796Y291277D01*
X326888Y291277D01*
X330111Y291277D02*
X332566Y291277D01*
X332644Y291279D01*
X332722Y291284D01*
X332799Y291294D01*
X332876Y291307D01*
X332952Y291323D01*
X333027Y291343D01*
X333101Y291367D01*
X333174Y291394D01*
X333246Y291425D01*
X333316Y291459D01*
X333385Y291496D01*
X333451Y291537D01*
X333516Y291581D01*
X333578Y291627D01*
X333638Y291677D01*
X333696Y291729D01*
X333751Y291784D01*
X333803Y291842D01*
X333853Y291902D01*
X333899Y291964D01*
X333943Y292029D01*
X333984Y292096D01*
X334021Y292164D01*
X334055Y292234D01*
X334086Y292306D01*
X334113Y292379D01*
X334137Y292453D01*
X334157Y292528D01*
X334173Y292604D01*
X334186Y292681D01*
X334196Y292758D01*
X334201Y292836D01*
X334203Y292914D01*
X334203Y293732D01*
X334201Y293810D01*
X334196Y293888D01*
X334186Y293965D01*
X334173Y294042D01*
X334157Y294118D01*
X334137Y294193D01*
X334113Y294267D01*
X334086Y294340D01*
X334055Y294412D01*
X334021Y294482D01*
X333984Y294551D01*
X333943Y294617D01*
X333899Y294682D01*
X333853Y294744D01*
X333803Y294804D01*
X333751Y294862D01*
X333696Y294917D01*
X333638Y294969D01*
X333578Y295019D01*
X333516Y295065D01*
X333451Y295109D01*
X333385Y295150D01*
X333316Y295187D01*
X333246Y295221D01*
X333174Y295252D01*
X333101Y295279D01*
X333027Y295303D01*
X332952Y295323D01*
X332876Y295339D01*
X332799Y295352D01*
X332722Y295362D01*
X332644Y295367D01*
X332566Y295369D01*
X330111Y295369D01*
X330111Y298643D01*
X334203Y298643D01*
X319329Y269969D02*
X318101Y269969D01*
X319329Y269969D02*
X319329Y265877D01*
X316874Y265877D01*
X316796Y265879D01*
X316718Y265884D01*
X316641Y265894D01*
X316564Y265907D01*
X316488Y265923D01*
X316413Y265943D01*
X316339Y265967D01*
X316266Y265994D01*
X316194Y266025D01*
X316124Y266059D01*
X316056Y266096D01*
X315989Y266137D01*
X315924Y266181D01*
X315862Y266227D01*
X315802Y266277D01*
X315744Y266329D01*
X315689Y266384D01*
X315637Y266442D01*
X315587Y266502D01*
X315541Y266564D01*
X315497Y266629D01*
X315456Y266696D01*
X315419Y266764D01*
X315385Y266834D01*
X315354Y266906D01*
X315327Y266979D01*
X315303Y267053D01*
X315283Y267128D01*
X315267Y267204D01*
X315254Y267281D01*
X315244Y267358D01*
X315239Y267436D01*
X315237Y267514D01*
X315237Y271606D01*
X315239Y271686D01*
X315245Y271766D01*
X315255Y271846D01*
X315268Y271925D01*
X315286Y272004D01*
X315307Y272081D01*
X315333Y272157D01*
X315362Y272232D01*
X315394Y272306D01*
X315430Y272378D01*
X315470Y272448D01*
X315513Y272515D01*
X315559Y272581D01*
X315609Y272644D01*
X315661Y272705D01*
X315716Y272764D01*
X315775Y272819D01*
X315835Y272871D01*
X315899Y272921D01*
X315965Y272967D01*
X316032Y273010D01*
X316102Y273050D01*
X316174Y273086D01*
X316248Y273118D01*
X316322Y273147D01*
X316399Y273173D01*
X316476Y273194D01*
X316555Y273212D01*
X316634Y273225D01*
X316714Y273235D01*
X316794Y273241D01*
X316874Y273243D01*
X319329Y273243D01*
X325047Y273244D02*
X325132Y273242D01*
X325217Y273236D01*
X325301Y273226D01*
X325385Y273213D01*
X325469Y273195D01*
X325551Y273174D01*
X325632Y273149D01*
X325712Y273120D01*
X325791Y273087D01*
X325868Y273051D01*
X325943Y273011D01*
X326017Y272968D01*
X326088Y272922D01*
X326157Y272872D01*
X326224Y272819D01*
X326288Y272763D01*
X326349Y272704D01*
X326408Y272643D01*
X326464Y272579D01*
X326517Y272512D01*
X326567Y272443D01*
X326613Y272372D01*
X326656Y272298D01*
X326696Y272223D01*
X326732Y272146D01*
X326765Y272067D01*
X326794Y271987D01*
X326819Y271906D01*
X326840Y271824D01*
X326858Y271740D01*
X326871Y271656D01*
X326881Y271572D01*
X326887Y271487D01*
X326889Y271402D01*
X325047Y273243D02*
X324951Y273241D01*
X324855Y273235D01*
X324760Y273225D01*
X324665Y273212D01*
X324570Y273194D01*
X324477Y273173D01*
X324384Y273148D01*
X324293Y273119D01*
X324202Y273087D01*
X324113Y273051D01*
X324026Y273011D01*
X323940Y272968D01*
X323856Y272922D01*
X323774Y272872D01*
X323694Y272818D01*
X323617Y272762D01*
X323542Y272702D01*
X323469Y272640D01*
X323399Y272574D01*
X323331Y272506D01*
X323266Y272435D01*
X323205Y272362D01*
X323146Y272286D01*
X323090Y272207D01*
X323038Y272127D01*
X322989Y272044D01*
X322943Y271960D01*
X322901Y271874D01*
X322863Y271786D01*
X322828Y271697D01*
X322796Y271606D01*
X326274Y269970D02*
X326334Y270029D01*
X326391Y270091D01*
X326446Y270155D01*
X326497Y270222D01*
X326546Y270291D01*
X326592Y270361D01*
X326635Y270434D01*
X326675Y270508D01*
X326711Y270584D01*
X326744Y270662D01*
X326774Y270741D01*
X326801Y270821D01*
X326824Y270902D01*
X326843Y270984D01*
X326859Y271066D01*
X326872Y271150D01*
X326881Y271234D01*
X326886Y271318D01*
X326888Y271402D01*
X326274Y269969D02*
X322796Y265877D01*
X326888Y265877D01*
X330111Y269969D02*
X332566Y269969D01*
X332644Y269967D01*
X332722Y269962D01*
X332799Y269952D01*
X332876Y269939D01*
X332952Y269923D01*
X333027Y269903D01*
X333101Y269879D01*
X333174Y269852D01*
X333246Y269821D01*
X333316Y269787D01*
X333385Y269750D01*
X333451Y269709D01*
X333516Y269665D01*
X333578Y269619D01*
X333638Y269569D01*
X333696Y269517D01*
X333751Y269462D01*
X333803Y269404D01*
X333853Y269344D01*
X333899Y269282D01*
X333943Y269217D01*
X333984Y269151D01*
X334021Y269082D01*
X334055Y269012D01*
X334086Y268940D01*
X334113Y268867D01*
X334137Y268793D01*
X334157Y268718D01*
X334173Y268642D01*
X334186Y268565D01*
X334196Y268488D01*
X334201Y268410D01*
X334203Y268332D01*
X334203Y267923D01*
X334201Y267834D01*
X334195Y267745D01*
X334185Y267656D01*
X334172Y267568D01*
X334155Y267480D01*
X334133Y267393D01*
X334108Y267308D01*
X334080Y267223D01*
X334047Y267140D01*
X334011Y267058D01*
X333972Y266978D01*
X333929Y266900D01*
X333883Y266824D01*
X333833Y266749D01*
X333780Y266677D01*
X333724Y266608D01*
X333665Y266541D01*
X333604Y266476D01*
X333539Y266415D01*
X333472Y266356D01*
X333403Y266300D01*
X333331Y266247D01*
X333256Y266197D01*
X333180Y266151D01*
X333102Y266108D01*
X333022Y266069D01*
X332940Y266033D01*
X332857Y266000D01*
X332772Y265972D01*
X332687Y265947D01*
X332600Y265925D01*
X332512Y265908D01*
X332424Y265895D01*
X332335Y265885D01*
X332246Y265879D01*
X332157Y265877D01*
X332068Y265879D01*
X331979Y265885D01*
X331890Y265895D01*
X331802Y265908D01*
X331714Y265925D01*
X331627Y265947D01*
X331542Y265972D01*
X331457Y266000D01*
X331374Y266033D01*
X331292Y266069D01*
X331212Y266108D01*
X331134Y266151D01*
X331058Y266197D01*
X330983Y266247D01*
X330911Y266300D01*
X330842Y266356D01*
X330775Y266415D01*
X330710Y266476D01*
X330649Y266541D01*
X330590Y266608D01*
X330534Y266677D01*
X330481Y266749D01*
X330431Y266824D01*
X330385Y266900D01*
X330342Y266978D01*
X330303Y267058D01*
X330267Y267140D01*
X330234Y267223D01*
X330206Y267308D01*
X330181Y267393D01*
X330159Y267480D01*
X330142Y267568D01*
X330129Y267656D01*
X330119Y267745D01*
X330113Y267834D01*
X330111Y267923D01*
X330111Y269969D01*
X330113Y270083D01*
X330119Y270197D01*
X330129Y270311D01*
X330143Y270425D01*
X330161Y270538D01*
X330183Y270650D01*
X330208Y270761D01*
X330238Y270871D01*
X330271Y270981D01*
X330308Y271089D01*
X330349Y271195D01*
X330394Y271301D01*
X330442Y271404D01*
X330494Y271506D01*
X330550Y271606D01*
X330608Y271704D01*
X330671Y271800D01*
X330736Y271893D01*
X330805Y271985D01*
X330877Y272073D01*
X330952Y272160D01*
X331030Y272243D01*
X331111Y272324D01*
X331194Y272402D01*
X331281Y272477D01*
X331369Y272549D01*
X331461Y272618D01*
X331554Y272683D01*
X331650Y272745D01*
X331748Y272804D01*
X331848Y272860D01*
X331950Y272912D01*
X332053Y272960D01*
X332159Y273005D01*
X332265Y273046D01*
X332373Y273083D01*
X332483Y273116D01*
X332593Y273146D01*
X332704Y273171D01*
X332816Y273193D01*
X332929Y273211D01*
X333043Y273225D01*
X333157Y273235D01*
X333271Y273241D01*
X333385Y273243D01*
X319329Y244569D02*
X318101Y244569D01*
X319329Y244569D02*
X319329Y240477D01*
X316874Y240477D01*
X316796Y240479D01*
X316718Y240484D01*
X316641Y240494D01*
X316564Y240507D01*
X316488Y240523D01*
X316413Y240543D01*
X316339Y240567D01*
X316266Y240594D01*
X316194Y240625D01*
X316124Y240659D01*
X316056Y240696D01*
X315989Y240737D01*
X315924Y240781D01*
X315862Y240827D01*
X315802Y240877D01*
X315744Y240929D01*
X315689Y240984D01*
X315637Y241042D01*
X315587Y241102D01*
X315541Y241164D01*
X315497Y241229D01*
X315456Y241296D01*
X315419Y241364D01*
X315385Y241434D01*
X315354Y241506D01*
X315327Y241579D01*
X315303Y241653D01*
X315283Y241728D01*
X315267Y241804D01*
X315254Y241881D01*
X315244Y241958D01*
X315239Y242036D01*
X315237Y242114D01*
X315237Y246206D01*
X315239Y246286D01*
X315245Y246366D01*
X315255Y246446D01*
X315268Y246525D01*
X315286Y246604D01*
X315307Y246681D01*
X315333Y246757D01*
X315362Y246832D01*
X315394Y246906D01*
X315430Y246978D01*
X315470Y247048D01*
X315513Y247115D01*
X315559Y247181D01*
X315609Y247244D01*
X315661Y247305D01*
X315716Y247364D01*
X315775Y247419D01*
X315835Y247471D01*
X315899Y247521D01*
X315965Y247567D01*
X316032Y247610D01*
X316102Y247650D01*
X316174Y247686D01*
X316248Y247718D01*
X316322Y247747D01*
X316399Y247773D01*
X316476Y247794D01*
X316555Y247812D01*
X316634Y247825D01*
X316714Y247835D01*
X316794Y247841D01*
X316874Y247843D01*
X319329Y247843D01*
X325047Y247844D02*
X325132Y247842D01*
X325217Y247836D01*
X325301Y247826D01*
X325385Y247813D01*
X325469Y247795D01*
X325551Y247774D01*
X325632Y247749D01*
X325712Y247720D01*
X325791Y247687D01*
X325868Y247651D01*
X325943Y247611D01*
X326017Y247568D01*
X326088Y247522D01*
X326157Y247472D01*
X326224Y247419D01*
X326288Y247363D01*
X326349Y247304D01*
X326408Y247243D01*
X326464Y247179D01*
X326517Y247112D01*
X326567Y247043D01*
X326613Y246972D01*
X326656Y246898D01*
X326696Y246823D01*
X326732Y246746D01*
X326765Y246667D01*
X326794Y246587D01*
X326819Y246506D01*
X326840Y246424D01*
X326858Y246340D01*
X326871Y246256D01*
X326881Y246172D01*
X326887Y246087D01*
X326889Y246002D01*
X325047Y247843D02*
X324951Y247841D01*
X324855Y247835D01*
X324760Y247825D01*
X324665Y247812D01*
X324570Y247794D01*
X324477Y247773D01*
X324384Y247748D01*
X324293Y247719D01*
X324202Y247687D01*
X324113Y247651D01*
X324026Y247611D01*
X323940Y247568D01*
X323856Y247522D01*
X323774Y247472D01*
X323694Y247418D01*
X323617Y247362D01*
X323542Y247302D01*
X323469Y247240D01*
X323399Y247174D01*
X323331Y247106D01*
X323266Y247035D01*
X323205Y246962D01*
X323146Y246886D01*
X323090Y246807D01*
X323038Y246727D01*
X322989Y246644D01*
X322943Y246560D01*
X322901Y246474D01*
X322863Y246386D01*
X322828Y246297D01*
X322796Y246206D01*
X326274Y244570D02*
X326334Y244629D01*
X326391Y244691D01*
X326446Y244755D01*
X326497Y244822D01*
X326546Y244891D01*
X326592Y244961D01*
X326635Y245034D01*
X326675Y245108D01*
X326711Y245184D01*
X326744Y245262D01*
X326774Y245341D01*
X326801Y245421D01*
X326824Y245502D01*
X326843Y245584D01*
X326859Y245666D01*
X326872Y245750D01*
X326881Y245834D01*
X326886Y245918D01*
X326888Y246002D01*
X326274Y244569D02*
X322796Y240477D01*
X326888Y240477D01*
X330111Y247025D02*
X330111Y247843D01*
X334203Y247843D01*
X332157Y240477D01*
X319329Y219169D02*
X318101Y219169D01*
X319329Y219169D02*
X319329Y215077D01*
X316874Y215077D01*
X316796Y215079D01*
X316718Y215084D01*
X316641Y215094D01*
X316564Y215107D01*
X316488Y215123D01*
X316413Y215143D01*
X316339Y215167D01*
X316266Y215194D01*
X316194Y215225D01*
X316124Y215259D01*
X316056Y215296D01*
X315989Y215337D01*
X315924Y215381D01*
X315862Y215427D01*
X315802Y215477D01*
X315744Y215529D01*
X315689Y215584D01*
X315637Y215642D01*
X315587Y215702D01*
X315541Y215764D01*
X315497Y215829D01*
X315456Y215896D01*
X315419Y215964D01*
X315385Y216034D01*
X315354Y216106D01*
X315327Y216179D01*
X315303Y216253D01*
X315283Y216328D01*
X315267Y216404D01*
X315254Y216481D01*
X315244Y216558D01*
X315239Y216636D01*
X315237Y216714D01*
X315237Y220806D01*
X315239Y220886D01*
X315245Y220966D01*
X315255Y221046D01*
X315268Y221125D01*
X315286Y221204D01*
X315307Y221281D01*
X315333Y221357D01*
X315362Y221432D01*
X315394Y221506D01*
X315430Y221578D01*
X315470Y221648D01*
X315513Y221715D01*
X315559Y221781D01*
X315609Y221844D01*
X315661Y221905D01*
X315716Y221964D01*
X315775Y222019D01*
X315835Y222071D01*
X315899Y222121D01*
X315965Y222167D01*
X316032Y222210D01*
X316102Y222250D01*
X316174Y222286D01*
X316248Y222318D01*
X316322Y222347D01*
X316399Y222373D01*
X316476Y222394D01*
X316555Y222412D01*
X316634Y222425D01*
X316714Y222435D01*
X316794Y222441D01*
X316874Y222443D01*
X319329Y222443D01*
X322796Y220806D02*
X324842Y222443D01*
X324842Y215077D01*
X322796Y215077D02*
X326888Y215077D01*
X330111Y216714D02*
X331748Y222443D01*
X330111Y216714D02*
X334203Y216714D01*
X332976Y218351D02*
X332976Y215077D01*
X319329Y193769D02*
X318101Y193769D01*
X319329Y193769D02*
X319329Y189677D01*
X316874Y189677D01*
X316796Y189679D01*
X316718Y189684D01*
X316641Y189694D01*
X316564Y189707D01*
X316488Y189723D01*
X316413Y189743D01*
X316339Y189767D01*
X316266Y189794D01*
X316194Y189825D01*
X316124Y189859D01*
X316056Y189896D01*
X315989Y189937D01*
X315924Y189981D01*
X315862Y190027D01*
X315802Y190077D01*
X315744Y190129D01*
X315689Y190184D01*
X315637Y190242D01*
X315587Y190302D01*
X315541Y190364D01*
X315497Y190429D01*
X315456Y190496D01*
X315419Y190564D01*
X315385Y190634D01*
X315354Y190706D01*
X315327Y190779D01*
X315303Y190853D01*
X315283Y190928D01*
X315267Y191004D01*
X315254Y191081D01*
X315244Y191158D01*
X315239Y191236D01*
X315237Y191314D01*
X315237Y195406D01*
X315239Y195486D01*
X315245Y195566D01*
X315255Y195646D01*
X315268Y195725D01*
X315286Y195804D01*
X315307Y195881D01*
X315333Y195957D01*
X315362Y196032D01*
X315394Y196106D01*
X315430Y196178D01*
X315470Y196248D01*
X315513Y196315D01*
X315559Y196381D01*
X315609Y196444D01*
X315661Y196505D01*
X315716Y196564D01*
X315775Y196619D01*
X315835Y196671D01*
X315899Y196721D01*
X315965Y196767D01*
X316032Y196810D01*
X316102Y196850D01*
X316174Y196886D01*
X316248Y196918D01*
X316322Y196947D01*
X316399Y196973D01*
X316476Y196994D01*
X316555Y197012D01*
X316634Y197025D01*
X316714Y197035D01*
X316794Y197041D01*
X316874Y197043D01*
X319329Y197043D01*
X322796Y195406D02*
X324842Y197043D01*
X324842Y189677D01*
X322796Y189677D02*
X326888Y189677D01*
X334204Y195202D02*
X334202Y195287D01*
X334196Y195372D01*
X334186Y195456D01*
X334173Y195540D01*
X334155Y195624D01*
X334134Y195706D01*
X334109Y195787D01*
X334080Y195867D01*
X334047Y195946D01*
X334011Y196023D01*
X333971Y196098D01*
X333928Y196172D01*
X333882Y196243D01*
X333832Y196312D01*
X333779Y196379D01*
X333723Y196443D01*
X333664Y196504D01*
X333603Y196563D01*
X333539Y196619D01*
X333472Y196672D01*
X333403Y196722D01*
X333332Y196768D01*
X333258Y196811D01*
X333183Y196851D01*
X333106Y196887D01*
X333027Y196920D01*
X332947Y196949D01*
X332866Y196974D01*
X332784Y196995D01*
X332700Y197013D01*
X332616Y197026D01*
X332532Y197036D01*
X332447Y197042D01*
X332362Y197044D01*
X332362Y197043D02*
X332266Y197041D01*
X332170Y197035D01*
X332075Y197025D01*
X331980Y197012D01*
X331885Y196994D01*
X331792Y196973D01*
X331699Y196948D01*
X331608Y196919D01*
X331517Y196887D01*
X331428Y196851D01*
X331341Y196811D01*
X331255Y196768D01*
X331171Y196722D01*
X331089Y196672D01*
X331009Y196618D01*
X330932Y196562D01*
X330857Y196502D01*
X330784Y196440D01*
X330714Y196374D01*
X330646Y196306D01*
X330581Y196235D01*
X330520Y196162D01*
X330461Y196086D01*
X330405Y196007D01*
X330353Y195927D01*
X330304Y195844D01*
X330258Y195760D01*
X330216Y195674D01*
X330178Y195586D01*
X330143Y195497D01*
X330111Y195406D01*
X333589Y193770D02*
X333649Y193829D01*
X333706Y193891D01*
X333761Y193955D01*
X333812Y194022D01*
X333861Y194091D01*
X333907Y194161D01*
X333950Y194234D01*
X333990Y194308D01*
X334026Y194384D01*
X334059Y194462D01*
X334089Y194541D01*
X334116Y194621D01*
X334139Y194702D01*
X334158Y194784D01*
X334174Y194866D01*
X334187Y194950D01*
X334196Y195034D01*
X334201Y195118D01*
X334203Y195202D01*
X333589Y193769D02*
X330111Y189677D01*
X334203Y189677D01*
X318963Y168369D02*
X317736Y168369D01*
X318963Y168369D02*
X318963Y164277D01*
X316508Y164277D01*
X316430Y164279D01*
X316352Y164284D01*
X316275Y164294D01*
X316198Y164307D01*
X316122Y164323D01*
X316047Y164343D01*
X315973Y164367D01*
X315900Y164394D01*
X315828Y164425D01*
X315758Y164459D01*
X315690Y164496D01*
X315623Y164537D01*
X315558Y164581D01*
X315496Y164627D01*
X315436Y164677D01*
X315378Y164729D01*
X315323Y164784D01*
X315271Y164842D01*
X315221Y164902D01*
X315175Y164964D01*
X315131Y165029D01*
X315090Y165096D01*
X315053Y165164D01*
X315019Y165234D01*
X314988Y165306D01*
X314961Y165379D01*
X314937Y165453D01*
X314917Y165528D01*
X314901Y165604D01*
X314888Y165681D01*
X314878Y165758D01*
X314873Y165836D01*
X314871Y165914D01*
X314871Y170006D01*
X314873Y170086D01*
X314879Y170166D01*
X314889Y170246D01*
X314902Y170325D01*
X314920Y170404D01*
X314941Y170481D01*
X314967Y170557D01*
X314996Y170632D01*
X315028Y170706D01*
X315064Y170778D01*
X315104Y170848D01*
X315147Y170915D01*
X315193Y170981D01*
X315243Y171044D01*
X315295Y171105D01*
X315350Y171164D01*
X315409Y171219D01*
X315469Y171271D01*
X315533Y171321D01*
X315599Y171367D01*
X315666Y171410D01*
X315736Y171450D01*
X315808Y171486D01*
X315882Y171518D01*
X315956Y171547D01*
X316033Y171573D01*
X316110Y171594D01*
X316189Y171612D01*
X316268Y171625D01*
X316348Y171635D01*
X316428Y171641D01*
X316508Y171643D01*
X318963Y171643D01*
X322674Y171643D02*
X322674Y164277D01*
X326766Y164277D02*
X322674Y171643D01*
X326766Y171643D02*
X326766Y164277D01*
X330477Y164277D02*
X330477Y171643D01*
X332523Y171643D01*
X332612Y171641D01*
X332701Y171635D01*
X332790Y171625D01*
X332878Y171612D01*
X332966Y171595D01*
X333053Y171573D01*
X333138Y171548D01*
X333223Y171520D01*
X333306Y171487D01*
X333388Y171451D01*
X333468Y171412D01*
X333546Y171369D01*
X333622Y171323D01*
X333697Y171273D01*
X333769Y171220D01*
X333838Y171164D01*
X333905Y171105D01*
X333970Y171044D01*
X334031Y170979D01*
X334090Y170912D01*
X334146Y170843D01*
X334199Y170771D01*
X334249Y170696D01*
X334295Y170620D01*
X334338Y170542D01*
X334377Y170462D01*
X334413Y170380D01*
X334446Y170297D01*
X334474Y170212D01*
X334499Y170127D01*
X334521Y170040D01*
X334538Y169952D01*
X334551Y169864D01*
X334561Y169775D01*
X334567Y169686D01*
X334569Y169597D01*
X334569Y166323D01*
X334567Y166234D01*
X334561Y166145D01*
X334551Y166056D01*
X334538Y165968D01*
X334521Y165880D01*
X334499Y165793D01*
X334474Y165708D01*
X334446Y165623D01*
X334413Y165540D01*
X334377Y165458D01*
X334338Y165378D01*
X334295Y165300D01*
X334249Y165224D01*
X334199Y165149D01*
X334146Y165077D01*
X334090Y165008D01*
X334031Y164941D01*
X333970Y164876D01*
X333905Y164815D01*
X333838Y164756D01*
X333769Y164700D01*
X333697Y164647D01*
X333622Y164597D01*
X333546Y164551D01*
X333468Y164508D01*
X333388Y164469D01*
X333306Y164433D01*
X333223Y164400D01*
X333138Y164372D01*
X333053Y164347D01*
X332966Y164325D01*
X332878Y164308D01*
X332790Y164295D01*
X332701Y164285D01*
X332612Y164279D01*
X332523Y164277D01*
X330477Y164277D01*
X319329Y142969D02*
X318101Y142969D01*
X319329Y142969D02*
X319329Y138877D01*
X316874Y138877D01*
X316796Y138879D01*
X316718Y138884D01*
X316641Y138894D01*
X316564Y138907D01*
X316488Y138923D01*
X316413Y138943D01*
X316339Y138967D01*
X316266Y138994D01*
X316194Y139025D01*
X316124Y139059D01*
X316056Y139096D01*
X315989Y139137D01*
X315924Y139181D01*
X315862Y139227D01*
X315802Y139277D01*
X315744Y139329D01*
X315689Y139384D01*
X315637Y139442D01*
X315587Y139502D01*
X315541Y139564D01*
X315497Y139629D01*
X315456Y139696D01*
X315419Y139764D01*
X315385Y139834D01*
X315354Y139906D01*
X315327Y139979D01*
X315303Y140053D01*
X315283Y140128D01*
X315267Y140204D01*
X315254Y140281D01*
X315244Y140358D01*
X315239Y140436D01*
X315237Y140514D01*
X315237Y144606D01*
X315239Y144686D01*
X315245Y144766D01*
X315255Y144846D01*
X315268Y144925D01*
X315286Y145004D01*
X315307Y145081D01*
X315333Y145157D01*
X315362Y145232D01*
X315394Y145306D01*
X315430Y145378D01*
X315470Y145448D01*
X315513Y145515D01*
X315559Y145581D01*
X315609Y145644D01*
X315661Y145705D01*
X315716Y145764D01*
X315775Y145819D01*
X315835Y145871D01*
X315899Y145921D01*
X315965Y145967D01*
X316032Y146010D01*
X316102Y146050D01*
X316174Y146086D01*
X316248Y146118D01*
X316322Y146147D01*
X316399Y146173D01*
X316476Y146194D01*
X316555Y146212D01*
X316634Y146225D01*
X316714Y146235D01*
X316794Y146241D01*
X316874Y146243D01*
X319329Y146243D01*
X322796Y144606D02*
X324842Y146243D01*
X324842Y138877D01*
X322796Y138877D02*
X326888Y138877D01*
X330111Y138877D02*
X332157Y138877D01*
X332246Y138879D01*
X332335Y138885D01*
X332424Y138895D01*
X332512Y138908D01*
X332600Y138925D01*
X332687Y138947D01*
X332772Y138972D01*
X332857Y139000D01*
X332940Y139033D01*
X333022Y139069D01*
X333102Y139108D01*
X333180Y139151D01*
X333256Y139197D01*
X333331Y139247D01*
X333403Y139300D01*
X333472Y139356D01*
X333539Y139415D01*
X333604Y139476D01*
X333665Y139541D01*
X333724Y139608D01*
X333780Y139677D01*
X333833Y139749D01*
X333883Y139824D01*
X333929Y139900D01*
X333972Y139978D01*
X334011Y140058D01*
X334047Y140140D01*
X334080Y140223D01*
X334108Y140308D01*
X334133Y140393D01*
X334155Y140480D01*
X334172Y140568D01*
X334185Y140656D01*
X334195Y140745D01*
X334201Y140834D01*
X334203Y140923D01*
X334201Y141012D01*
X334195Y141101D01*
X334185Y141190D01*
X334172Y141278D01*
X334155Y141366D01*
X334133Y141453D01*
X334108Y141538D01*
X334080Y141623D01*
X334047Y141706D01*
X334011Y141788D01*
X333972Y141868D01*
X333929Y141946D01*
X333883Y142022D01*
X333833Y142097D01*
X333780Y142169D01*
X333724Y142238D01*
X333665Y142305D01*
X333604Y142370D01*
X333539Y142431D01*
X333472Y142490D01*
X333403Y142546D01*
X333331Y142599D01*
X333256Y142649D01*
X333180Y142695D01*
X333102Y142738D01*
X333022Y142777D01*
X332940Y142813D01*
X332857Y142846D01*
X332772Y142874D01*
X332687Y142899D01*
X332600Y142921D01*
X332512Y142938D01*
X332424Y142951D01*
X332335Y142961D01*
X332246Y142967D01*
X332157Y142969D01*
X332566Y146243D02*
X330111Y146243D01*
X332566Y146243D02*
X332645Y146241D01*
X332724Y146235D01*
X332803Y146226D01*
X332881Y146213D01*
X332958Y146195D01*
X333034Y146175D01*
X333109Y146150D01*
X333183Y146122D01*
X333256Y146091D01*
X333327Y146055D01*
X333396Y146017D01*
X333463Y145975D01*
X333528Y145930D01*
X333591Y145882D01*
X333652Y145831D01*
X333709Y145777D01*
X333765Y145721D01*
X333817Y145662D01*
X333867Y145600D01*
X333913Y145536D01*
X333957Y145470D01*
X333997Y145402D01*
X334033Y145332D01*
X334067Y145260D01*
X334097Y145186D01*
X334123Y145112D01*
X334146Y145036D01*
X334164Y144959D01*
X334180Y144882D01*
X334191Y144803D01*
X334199Y144725D01*
X334203Y144646D01*
X334203Y144566D01*
X334199Y144487D01*
X334191Y144409D01*
X334180Y144330D01*
X334164Y144253D01*
X334146Y144176D01*
X334123Y144100D01*
X334097Y144026D01*
X334067Y143952D01*
X334033Y143880D01*
X333997Y143810D01*
X333957Y143742D01*
X333913Y143676D01*
X333867Y143612D01*
X333817Y143550D01*
X333765Y143491D01*
X333709Y143435D01*
X333652Y143381D01*
X333591Y143330D01*
X333528Y143282D01*
X333463Y143237D01*
X333396Y143195D01*
X333327Y143157D01*
X333256Y143121D01*
X333183Y143090D01*
X333109Y143062D01*
X333034Y143037D01*
X332958Y143017D01*
X332881Y142999D01*
X332803Y142986D01*
X332724Y142977D01*
X332645Y142971D01*
X332566Y142969D01*
X330929Y142969D01*
X527659Y142969D02*
X528887Y142969D01*
X528887Y138877D01*
X526431Y138877D01*
X526353Y138879D01*
X526275Y138884D01*
X526198Y138894D01*
X526121Y138907D01*
X526045Y138923D01*
X525970Y138943D01*
X525896Y138967D01*
X525823Y138994D01*
X525751Y139025D01*
X525681Y139059D01*
X525613Y139096D01*
X525546Y139137D01*
X525481Y139181D01*
X525419Y139227D01*
X525359Y139277D01*
X525301Y139329D01*
X525246Y139384D01*
X525194Y139442D01*
X525144Y139502D01*
X525098Y139564D01*
X525054Y139629D01*
X525013Y139696D01*
X524976Y139764D01*
X524942Y139834D01*
X524911Y139906D01*
X524884Y139979D01*
X524860Y140053D01*
X524840Y140128D01*
X524824Y140204D01*
X524811Y140281D01*
X524801Y140358D01*
X524796Y140436D01*
X524794Y140514D01*
X524794Y144606D01*
X524796Y144686D01*
X524802Y144766D01*
X524812Y144846D01*
X524825Y144925D01*
X524843Y145004D01*
X524864Y145081D01*
X524890Y145157D01*
X524919Y145232D01*
X524951Y145306D01*
X524987Y145378D01*
X525027Y145448D01*
X525070Y145515D01*
X525116Y145581D01*
X525166Y145644D01*
X525218Y145705D01*
X525273Y145764D01*
X525332Y145819D01*
X525392Y145871D01*
X525456Y145921D01*
X525522Y145967D01*
X525589Y146010D01*
X525659Y146050D01*
X525731Y146086D01*
X525805Y146118D01*
X525879Y146147D01*
X525956Y146173D01*
X526033Y146194D01*
X526112Y146212D01*
X526191Y146225D01*
X526271Y146235D01*
X526351Y146241D01*
X526431Y146243D01*
X528887Y146243D01*
X534604Y146244D02*
X534689Y146242D01*
X534774Y146236D01*
X534858Y146226D01*
X534942Y146213D01*
X535026Y146195D01*
X535108Y146174D01*
X535189Y146149D01*
X535269Y146120D01*
X535348Y146087D01*
X535425Y146051D01*
X535500Y146011D01*
X535574Y145968D01*
X535645Y145922D01*
X535714Y145872D01*
X535781Y145819D01*
X535845Y145763D01*
X535906Y145704D01*
X535965Y145643D01*
X536021Y145579D01*
X536074Y145512D01*
X536124Y145443D01*
X536170Y145372D01*
X536213Y145298D01*
X536253Y145223D01*
X536289Y145146D01*
X536322Y145067D01*
X536351Y144987D01*
X536376Y144906D01*
X536397Y144824D01*
X536415Y144740D01*
X536428Y144656D01*
X536438Y144572D01*
X536444Y144487D01*
X536446Y144402D01*
X534604Y146243D02*
X534508Y146241D01*
X534412Y146235D01*
X534317Y146225D01*
X534222Y146212D01*
X534127Y146194D01*
X534034Y146173D01*
X533941Y146148D01*
X533850Y146119D01*
X533759Y146087D01*
X533670Y146051D01*
X533583Y146011D01*
X533497Y145968D01*
X533413Y145922D01*
X533331Y145872D01*
X533251Y145818D01*
X533174Y145762D01*
X533099Y145702D01*
X533026Y145640D01*
X532956Y145574D01*
X532888Y145506D01*
X532823Y145435D01*
X532762Y145362D01*
X532703Y145286D01*
X532647Y145207D01*
X532595Y145127D01*
X532546Y145044D01*
X532500Y144960D01*
X532458Y144874D01*
X532420Y144786D01*
X532385Y144697D01*
X532353Y144606D01*
X535832Y142970D02*
X535892Y143029D01*
X535949Y143091D01*
X536004Y143155D01*
X536055Y143222D01*
X536104Y143291D01*
X536150Y143361D01*
X536193Y143434D01*
X536233Y143508D01*
X536269Y143584D01*
X536302Y143662D01*
X536332Y143741D01*
X536359Y143821D01*
X536382Y143902D01*
X536401Y143984D01*
X536417Y144066D01*
X536430Y144150D01*
X536439Y144234D01*
X536444Y144318D01*
X536446Y144402D01*
X535832Y142969D02*
X532353Y138877D01*
X536446Y138877D01*
X528887Y168369D02*
X527659Y168369D01*
X528887Y168369D02*
X528887Y164277D01*
X526431Y164277D01*
X526353Y164279D01*
X526275Y164284D01*
X526198Y164294D01*
X526121Y164307D01*
X526045Y164323D01*
X525970Y164343D01*
X525896Y164367D01*
X525823Y164394D01*
X525751Y164425D01*
X525681Y164459D01*
X525613Y164496D01*
X525546Y164537D01*
X525481Y164581D01*
X525419Y164627D01*
X525359Y164677D01*
X525301Y164729D01*
X525246Y164784D01*
X525194Y164842D01*
X525144Y164902D01*
X525098Y164964D01*
X525054Y165029D01*
X525013Y165096D01*
X524976Y165164D01*
X524942Y165234D01*
X524911Y165306D01*
X524884Y165379D01*
X524860Y165453D01*
X524840Y165528D01*
X524824Y165604D01*
X524811Y165681D01*
X524801Y165758D01*
X524796Y165836D01*
X524794Y165914D01*
X524794Y170006D01*
X524796Y170086D01*
X524802Y170166D01*
X524812Y170246D01*
X524825Y170325D01*
X524843Y170404D01*
X524864Y170481D01*
X524890Y170557D01*
X524919Y170632D01*
X524951Y170706D01*
X524987Y170778D01*
X525027Y170848D01*
X525070Y170915D01*
X525116Y170981D01*
X525166Y171044D01*
X525218Y171105D01*
X525273Y171164D01*
X525332Y171219D01*
X525392Y171271D01*
X525456Y171321D01*
X525522Y171367D01*
X525589Y171410D01*
X525659Y171450D01*
X525731Y171486D01*
X525805Y171518D01*
X525879Y171547D01*
X525956Y171573D01*
X526033Y171594D01*
X526112Y171612D01*
X526191Y171625D01*
X526271Y171635D01*
X526351Y171641D01*
X526431Y171643D01*
X528887Y171643D01*
X532968Y170620D02*
X532902Y170481D01*
X532841Y170342D01*
X532782Y170200D01*
X532728Y170057D01*
X532677Y169913D01*
X532629Y169768D01*
X532586Y169621D01*
X532546Y169473D01*
X532509Y169325D01*
X532477Y169175D01*
X532448Y169025D01*
X532423Y168874D01*
X532402Y168723D01*
X532385Y168571D01*
X532371Y168418D01*
X532362Y168266D01*
X532356Y168113D01*
X532354Y167960D01*
X532968Y170620D02*
X532994Y170690D01*
X533024Y170760D01*
X533057Y170827D01*
X533093Y170893D01*
X533132Y170957D01*
X533175Y171019D01*
X533221Y171078D01*
X533269Y171136D01*
X533320Y171190D01*
X533374Y171243D01*
X533431Y171292D01*
X533490Y171339D01*
X533551Y171382D01*
X533614Y171423D01*
X533679Y171460D01*
X533746Y171495D01*
X533815Y171525D01*
X533885Y171553D01*
X533956Y171576D01*
X534028Y171597D01*
X534101Y171613D01*
X534175Y171626D01*
X534250Y171636D01*
X534325Y171641D01*
X534400Y171643D01*
X534475Y171641D01*
X534550Y171636D01*
X534625Y171626D01*
X534699Y171613D01*
X534772Y171597D01*
X534844Y171576D01*
X534915Y171553D01*
X534985Y171525D01*
X535054Y171495D01*
X535121Y171460D01*
X535186Y171423D01*
X535249Y171382D01*
X535310Y171339D01*
X535369Y171292D01*
X535426Y171243D01*
X535480Y171190D01*
X535531Y171136D01*
X535580Y171078D01*
X535625Y171019D01*
X535668Y170957D01*
X535707Y170893D01*
X535744Y170827D01*
X535776Y170759D01*
X535806Y170690D01*
X535832Y170620D01*
X535897Y170482D01*
X535959Y170342D01*
X536017Y170200D01*
X536072Y170057D01*
X536123Y169913D01*
X536171Y169768D01*
X536214Y169621D01*
X536254Y169474D01*
X536291Y169325D01*
X536323Y169175D01*
X536352Y169025D01*
X536377Y168874D01*
X536398Y168723D01*
X536415Y168571D01*
X536429Y168418D01*
X536438Y168266D01*
X536444Y168113D01*
X536446Y167960D01*
X532353Y167960D02*
X532355Y167807D01*
X532361Y167654D01*
X532370Y167501D01*
X532384Y167349D01*
X532401Y167197D01*
X532422Y167046D01*
X532447Y166895D01*
X532476Y166744D01*
X532508Y166595D01*
X532545Y166446D01*
X532585Y166299D01*
X532628Y166152D01*
X532676Y166007D01*
X532727Y165862D01*
X532782Y165720D01*
X532840Y165578D01*
X532902Y165438D01*
X532967Y165300D01*
X532968Y165300D02*
X532994Y165229D01*
X533024Y165160D01*
X533057Y165093D01*
X533093Y165027D01*
X533132Y164963D01*
X533175Y164901D01*
X533221Y164842D01*
X533269Y164784D01*
X533320Y164730D01*
X533374Y164677D01*
X533431Y164628D01*
X533490Y164581D01*
X533551Y164538D01*
X533614Y164497D01*
X533679Y164460D01*
X533746Y164425D01*
X533815Y164395D01*
X533885Y164367D01*
X533956Y164344D01*
X534028Y164323D01*
X534101Y164307D01*
X534175Y164294D01*
X534250Y164284D01*
X534325Y164279D01*
X534400Y164277D01*
X535831Y165300D02*
X535896Y165438D01*
X535958Y165578D01*
X536016Y165720D01*
X536071Y165863D01*
X536122Y166007D01*
X536170Y166152D01*
X536213Y166299D01*
X536253Y166447D01*
X536290Y166595D01*
X536322Y166745D01*
X536351Y166895D01*
X536376Y167046D01*
X536397Y167197D01*
X536414Y167349D01*
X536428Y167502D01*
X536437Y167654D01*
X536443Y167807D01*
X536445Y167960D01*
X535832Y165300D02*
X535806Y165230D01*
X535776Y165160D01*
X535744Y165093D01*
X535707Y165027D01*
X535668Y164963D01*
X535625Y164901D01*
X535579Y164842D01*
X535531Y164784D01*
X535480Y164730D01*
X535426Y164677D01*
X535369Y164628D01*
X535310Y164581D01*
X535249Y164538D01*
X535186Y164497D01*
X535121Y164460D01*
X535054Y164425D01*
X534985Y164395D01*
X534915Y164367D01*
X534844Y164344D01*
X534772Y164323D01*
X534699Y164307D01*
X534625Y164294D01*
X534550Y164284D01*
X534475Y164279D01*
X534400Y164277D01*
X532763Y165914D02*
X536036Y170006D01*
X528887Y193769D02*
X527659Y193769D01*
X528887Y193769D02*
X528887Y189677D01*
X526431Y189677D01*
X526353Y189679D01*
X526275Y189684D01*
X526198Y189694D01*
X526121Y189707D01*
X526045Y189723D01*
X525970Y189743D01*
X525896Y189767D01*
X525823Y189794D01*
X525751Y189825D01*
X525681Y189859D01*
X525613Y189896D01*
X525546Y189937D01*
X525481Y189981D01*
X525419Y190027D01*
X525359Y190077D01*
X525301Y190129D01*
X525246Y190184D01*
X525194Y190242D01*
X525144Y190302D01*
X525098Y190364D01*
X525054Y190429D01*
X525013Y190496D01*
X524976Y190564D01*
X524942Y190634D01*
X524911Y190706D01*
X524884Y190779D01*
X524860Y190853D01*
X524840Y190928D01*
X524824Y191004D01*
X524811Y191081D01*
X524801Y191158D01*
X524796Y191236D01*
X524794Y191314D01*
X524794Y195406D01*
X524796Y195486D01*
X524802Y195566D01*
X524812Y195646D01*
X524825Y195725D01*
X524843Y195804D01*
X524864Y195881D01*
X524890Y195957D01*
X524919Y196032D01*
X524951Y196106D01*
X524987Y196178D01*
X525027Y196248D01*
X525070Y196315D01*
X525116Y196381D01*
X525166Y196444D01*
X525218Y196505D01*
X525273Y196564D01*
X525332Y196619D01*
X525392Y196671D01*
X525456Y196721D01*
X525522Y196767D01*
X525589Y196810D01*
X525659Y196850D01*
X525731Y196886D01*
X525805Y196918D01*
X525879Y196947D01*
X525956Y196973D01*
X526033Y196994D01*
X526112Y197012D01*
X526191Y197025D01*
X526271Y197035D01*
X526351Y197041D01*
X526431Y197043D01*
X528887Y197043D01*
X533990Y197043D02*
X532353Y191314D01*
X536446Y191314D01*
X535218Y192951D02*
X535218Y189677D01*
X525229Y219169D02*
X524001Y219169D01*
X525229Y219169D02*
X525229Y215077D01*
X522774Y215077D01*
X522696Y215079D01*
X522618Y215084D01*
X522541Y215094D01*
X522464Y215107D01*
X522388Y215123D01*
X522313Y215143D01*
X522239Y215167D01*
X522166Y215194D01*
X522094Y215225D01*
X522024Y215259D01*
X521956Y215296D01*
X521889Y215337D01*
X521824Y215381D01*
X521762Y215427D01*
X521702Y215477D01*
X521644Y215529D01*
X521589Y215584D01*
X521537Y215642D01*
X521487Y215702D01*
X521441Y215764D01*
X521397Y215829D01*
X521356Y215896D01*
X521319Y215964D01*
X521285Y216034D01*
X521254Y216106D01*
X521227Y216179D01*
X521203Y216253D01*
X521183Y216328D01*
X521167Y216404D01*
X521154Y216481D01*
X521144Y216558D01*
X521139Y216636D01*
X521137Y216714D01*
X521137Y220806D01*
X521139Y220886D01*
X521145Y220966D01*
X521155Y221046D01*
X521168Y221125D01*
X521186Y221204D01*
X521207Y221281D01*
X521233Y221357D01*
X521262Y221432D01*
X521294Y221506D01*
X521330Y221578D01*
X521370Y221648D01*
X521413Y221715D01*
X521459Y221781D01*
X521509Y221844D01*
X521561Y221905D01*
X521616Y221964D01*
X521675Y222019D01*
X521735Y222071D01*
X521799Y222121D01*
X521865Y222167D01*
X521932Y222210D01*
X522002Y222250D01*
X522074Y222286D01*
X522148Y222318D01*
X522222Y222347D01*
X522299Y222373D01*
X522376Y222394D01*
X522455Y222412D01*
X522534Y222425D01*
X522614Y222435D01*
X522694Y222441D01*
X522774Y222443D01*
X525229Y222443D01*
X528696Y220806D02*
X530742Y222443D01*
X530742Y215077D01*
X528696Y215077D02*
X532788Y215077D01*
X536011Y219169D02*
X538466Y219169D01*
X538544Y219167D01*
X538622Y219162D01*
X538699Y219152D01*
X538776Y219139D01*
X538852Y219123D01*
X538927Y219103D01*
X539001Y219079D01*
X539074Y219052D01*
X539146Y219021D01*
X539216Y218987D01*
X539285Y218950D01*
X539351Y218909D01*
X539416Y218865D01*
X539478Y218819D01*
X539538Y218769D01*
X539596Y218717D01*
X539651Y218662D01*
X539703Y218604D01*
X539753Y218544D01*
X539799Y218482D01*
X539843Y218417D01*
X539884Y218351D01*
X539921Y218282D01*
X539955Y218212D01*
X539986Y218140D01*
X540013Y218067D01*
X540037Y217993D01*
X540057Y217918D01*
X540073Y217842D01*
X540086Y217765D01*
X540096Y217688D01*
X540101Y217610D01*
X540103Y217532D01*
X540103Y217123D01*
X540101Y217034D01*
X540095Y216945D01*
X540085Y216856D01*
X540072Y216768D01*
X540055Y216680D01*
X540033Y216593D01*
X540008Y216508D01*
X539980Y216423D01*
X539947Y216340D01*
X539911Y216258D01*
X539872Y216178D01*
X539829Y216100D01*
X539783Y216024D01*
X539733Y215949D01*
X539680Y215877D01*
X539624Y215808D01*
X539565Y215741D01*
X539504Y215676D01*
X539439Y215615D01*
X539372Y215556D01*
X539303Y215500D01*
X539231Y215447D01*
X539156Y215397D01*
X539080Y215351D01*
X539002Y215308D01*
X538922Y215269D01*
X538840Y215233D01*
X538757Y215200D01*
X538672Y215172D01*
X538587Y215147D01*
X538500Y215125D01*
X538412Y215108D01*
X538324Y215095D01*
X538235Y215085D01*
X538146Y215079D01*
X538057Y215077D01*
X537968Y215079D01*
X537879Y215085D01*
X537790Y215095D01*
X537702Y215108D01*
X537614Y215125D01*
X537527Y215147D01*
X537442Y215172D01*
X537357Y215200D01*
X537274Y215233D01*
X537192Y215269D01*
X537112Y215308D01*
X537034Y215351D01*
X536958Y215397D01*
X536883Y215447D01*
X536811Y215500D01*
X536742Y215556D01*
X536675Y215615D01*
X536610Y215676D01*
X536549Y215741D01*
X536490Y215808D01*
X536434Y215877D01*
X536381Y215949D01*
X536331Y216024D01*
X536285Y216100D01*
X536242Y216178D01*
X536203Y216258D01*
X536167Y216340D01*
X536134Y216423D01*
X536106Y216508D01*
X536081Y216593D01*
X536059Y216680D01*
X536042Y216768D01*
X536029Y216856D01*
X536019Y216945D01*
X536013Y217034D01*
X536011Y217123D01*
X536011Y219169D01*
X536013Y219283D01*
X536019Y219397D01*
X536029Y219511D01*
X536043Y219625D01*
X536061Y219738D01*
X536083Y219850D01*
X536108Y219961D01*
X536138Y220071D01*
X536171Y220181D01*
X536208Y220289D01*
X536249Y220395D01*
X536294Y220501D01*
X536342Y220604D01*
X536394Y220706D01*
X536450Y220806D01*
X536508Y220904D01*
X536571Y221000D01*
X536636Y221093D01*
X536705Y221185D01*
X536777Y221273D01*
X536852Y221360D01*
X536930Y221443D01*
X537011Y221524D01*
X537094Y221602D01*
X537181Y221677D01*
X537269Y221749D01*
X537361Y221818D01*
X537454Y221883D01*
X537550Y221945D01*
X537648Y222004D01*
X537748Y222060D01*
X537850Y222112D01*
X537953Y222160D01*
X538059Y222205D01*
X538165Y222246D01*
X538273Y222283D01*
X538383Y222316D01*
X538493Y222346D01*
X538604Y222371D01*
X538716Y222393D01*
X538829Y222411D01*
X538943Y222425D01*
X539057Y222435D01*
X539171Y222441D01*
X539285Y222443D01*
X525229Y244569D02*
X524001Y244569D01*
X525229Y244569D02*
X525229Y240477D01*
X522774Y240477D01*
X522696Y240479D01*
X522618Y240484D01*
X522541Y240494D01*
X522464Y240507D01*
X522388Y240523D01*
X522313Y240543D01*
X522239Y240567D01*
X522166Y240594D01*
X522094Y240625D01*
X522024Y240659D01*
X521956Y240696D01*
X521889Y240737D01*
X521824Y240781D01*
X521762Y240827D01*
X521702Y240877D01*
X521644Y240929D01*
X521589Y240984D01*
X521537Y241042D01*
X521487Y241102D01*
X521441Y241164D01*
X521397Y241229D01*
X521356Y241296D01*
X521319Y241364D01*
X521285Y241434D01*
X521254Y241506D01*
X521227Y241579D01*
X521203Y241653D01*
X521183Y241728D01*
X521167Y241804D01*
X521154Y241881D01*
X521144Y241958D01*
X521139Y242036D01*
X521137Y242114D01*
X521137Y246206D01*
X521139Y246286D01*
X521145Y246366D01*
X521155Y246446D01*
X521168Y246525D01*
X521186Y246604D01*
X521207Y246681D01*
X521233Y246757D01*
X521262Y246832D01*
X521294Y246906D01*
X521330Y246978D01*
X521370Y247048D01*
X521413Y247115D01*
X521459Y247181D01*
X521509Y247244D01*
X521561Y247305D01*
X521616Y247364D01*
X521675Y247419D01*
X521735Y247471D01*
X521799Y247521D01*
X521865Y247567D01*
X521932Y247610D01*
X522002Y247650D01*
X522074Y247686D01*
X522148Y247718D01*
X522222Y247747D01*
X522299Y247773D01*
X522376Y247794D01*
X522455Y247812D01*
X522534Y247825D01*
X522614Y247835D01*
X522694Y247841D01*
X522774Y247843D01*
X525229Y247843D01*
X528696Y246206D02*
X530742Y247843D01*
X530742Y240477D01*
X528696Y240477D02*
X532788Y240477D01*
X536011Y247025D02*
X536011Y247843D01*
X540103Y247843D01*
X538057Y240477D01*
X528887Y269969D02*
X527659Y269969D01*
X528887Y269969D02*
X528887Y265877D01*
X526431Y265877D01*
X526353Y265879D01*
X526275Y265884D01*
X526198Y265894D01*
X526121Y265907D01*
X526045Y265923D01*
X525970Y265943D01*
X525896Y265967D01*
X525823Y265994D01*
X525751Y266025D01*
X525681Y266059D01*
X525613Y266096D01*
X525546Y266137D01*
X525481Y266181D01*
X525419Y266227D01*
X525359Y266277D01*
X525301Y266329D01*
X525246Y266384D01*
X525194Y266442D01*
X525144Y266502D01*
X525098Y266564D01*
X525054Y266629D01*
X525013Y266696D01*
X524976Y266764D01*
X524942Y266834D01*
X524911Y266906D01*
X524884Y266979D01*
X524860Y267053D01*
X524840Y267128D01*
X524824Y267204D01*
X524811Y267281D01*
X524801Y267358D01*
X524796Y267436D01*
X524794Y267514D01*
X524794Y271606D01*
X524796Y271686D01*
X524802Y271766D01*
X524812Y271846D01*
X524825Y271925D01*
X524843Y272004D01*
X524864Y272081D01*
X524890Y272157D01*
X524919Y272232D01*
X524951Y272306D01*
X524987Y272378D01*
X525027Y272448D01*
X525070Y272515D01*
X525116Y272581D01*
X525166Y272644D01*
X525218Y272705D01*
X525273Y272764D01*
X525332Y272819D01*
X525392Y272871D01*
X525456Y272921D01*
X525522Y272967D01*
X525589Y273010D01*
X525659Y273050D01*
X525731Y273086D01*
X525805Y273118D01*
X525879Y273147D01*
X525956Y273173D01*
X526033Y273194D01*
X526112Y273212D01*
X526191Y273225D01*
X526271Y273235D01*
X526351Y273241D01*
X526431Y273243D01*
X528887Y273243D01*
X532353Y265877D02*
X534809Y265877D01*
X534887Y265879D01*
X534965Y265884D01*
X535042Y265894D01*
X535119Y265907D01*
X535195Y265923D01*
X535270Y265943D01*
X535344Y265967D01*
X535417Y265994D01*
X535489Y266025D01*
X535559Y266059D01*
X535628Y266096D01*
X535694Y266137D01*
X535759Y266181D01*
X535821Y266227D01*
X535881Y266277D01*
X535939Y266329D01*
X535994Y266384D01*
X536046Y266442D01*
X536096Y266502D01*
X536142Y266564D01*
X536186Y266629D01*
X536227Y266696D01*
X536264Y266764D01*
X536298Y266834D01*
X536329Y266906D01*
X536356Y266979D01*
X536380Y267053D01*
X536400Y267128D01*
X536416Y267204D01*
X536429Y267281D01*
X536439Y267358D01*
X536444Y267436D01*
X536446Y267514D01*
X536446Y268332D01*
X536444Y268410D01*
X536439Y268488D01*
X536429Y268565D01*
X536416Y268642D01*
X536400Y268718D01*
X536380Y268793D01*
X536356Y268867D01*
X536329Y268940D01*
X536298Y269012D01*
X536264Y269082D01*
X536227Y269151D01*
X536186Y269217D01*
X536142Y269282D01*
X536096Y269344D01*
X536046Y269404D01*
X535994Y269462D01*
X535939Y269517D01*
X535881Y269569D01*
X535821Y269619D01*
X535759Y269665D01*
X535694Y269709D01*
X535628Y269750D01*
X535559Y269787D01*
X535489Y269821D01*
X535417Y269852D01*
X535344Y269879D01*
X535270Y269903D01*
X535195Y269923D01*
X535119Y269939D01*
X535042Y269952D01*
X534965Y269962D01*
X534887Y269967D01*
X534809Y269969D01*
X532353Y269969D01*
X532353Y273243D01*
X536446Y273243D01*
X525229Y295369D02*
X524001Y295369D01*
X525229Y295369D02*
X525229Y291277D01*
X522774Y291277D01*
X522696Y291279D01*
X522618Y291284D01*
X522541Y291294D01*
X522464Y291307D01*
X522388Y291323D01*
X522313Y291343D01*
X522239Y291367D01*
X522166Y291394D01*
X522094Y291425D01*
X522024Y291459D01*
X521956Y291496D01*
X521889Y291537D01*
X521824Y291581D01*
X521762Y291627D01*
X521702Y291677D01*
X521644Y291729D01*
X521589Y291784D01*
X521537Y291842D01*
X521487Y291902D01*
X521441Y291964D01*
X521397Y292029D01*
X521356Y292096D01*
X521319Y292164D01*
X521285Y292234D01*
X521254Y292306D01*
X521227Y292379D01*
X521203Y292453D01*
X521183Y292528D01*
X521167Y292604D01*
X521154Y292681D01*
X521144Y292758D01*
X521139Y292836D01*
X521137Y292914D01*
X521137Y297006D01*
X521139Y297086D01*
X521145Y297166D01*
X521155Y297246D01*
X521168Y297325D01*
X521186Y297404D01*
X521207Y297481D01*
X521233Y297557D01*
X521262Y297632D01*
X521294Y297706D01*
X521330Y297778D01*
X521370Y297848D01*
X521413Y297915D01*
X521459Y297981D01*
X521509Y298044D01*
X521561Y298105D01*
X521616Y298164D01*
X521675Y298219D01*
X521735Y298271D01*
X521799Y298321D01*
X521865Y298367D01*
X521932Y298410D01*
X522002Y298450D01*
X522074Y298486D01*
X522148Y298518D01*
X522222Y298547D01*
X522299Y298573D01*
X522376Y298594D01*
X522455Y298612D01*
X522534Y298625D01*
X522614Y298635D01*
X522694Y298641D01*
X522774Y298643D01*
X525229Y298643D01*
X528696Y297006D02*
X530742Y298643D01*
X530742Y291277D01*
X528696Y291277D02*
X532788Y291277D01*
X536011Y293323D02*
X536013Y293412D01*
X536019Y293501D01*
X536029Y293590D01*
X536042Y293678D01*
X536059Y293766D01*
X536081Y293853D01*
X536106Y293938D01*
X536134Y294023D01*
X536167Y294106D01*
X536203Y294188D01*
X536242Y294268D01*
X536285Y294346D01*
X536331Y294422D01*
X536381Y294497D01*
X536434Y294569D01*
X536490Y294638D01*
X536549Y294705D01*
X536610Y294770D01*
X536675Y294831D01*
X536742Y294890D01*
X536811Y294946D01*
X536883Y294999D01*
X536958Y295049D01*
X537034Y295095D01*
X537112Y295138D01*
X537192Y295177D01*
X537274Y295213D01*
X537357Y295246D01*
X537442Y295274D01*
X537527Y295299D01*
X537614Y295321D01*
X537702Y295338D01*
X537790Y295351D01*
X537879Y295361D01*
X537968Y295367D01*
X538057Y295369D01*
X538146Y295367D01*
X538235Y295361D01*
X538324Y295351D01*
X538412Y295338D01*
X538500Y295321D01*
X538587Y295299D01*
X538672Y295274D01*
X538757Y295246D01*
X538840Y295213D01*
X538922Y295177D01*
X539002Y295138D01*
X539080Y295095D01*
X539156Y295049D01*
X539231Y294999D01*
X539303Y294946D01*
X539372Y294890D01*
X539439Y294831D01*
X539504Y294770D01*
X539565Y294705D01*
X539624Y294638D01*
X539680Y294569D01*
X539733Y294497D01*
X539783Y294422D01*
X539829Y294346D01*
X539872Y294268D01*
X539911Y294188D01*
X539947Y294106D01*
X539980Y294023D01*
X540008Y293938D01*
X540033Y293853D01*
X540055Y293766D01*
X540072Y293678D01*
X540085Y293590D01*
X540095Y293501D01*
X540101Y293412D01*
X540103Y293323D01*
X540101Y293234D01*
X540095Y293145D01*
X540085Y293056D01*
X540072Y292968D01*
X540055Y292880D01*
X540033Y292793D01*
X540008Y292708D01*
X539980Y292623D01*
X539947Y292540D01*
X539911Y292458D01*
X539872Y292378D01*
X539829Y292300D01*
X539783Y292224D01*
X539733Y292149D01*
X539680Y292077D01*
X539624Y292008D01*
X539565Y291941D01*
X539504Y291876D01*
X539439Y291815D01*
X539372Y291756D01*
X539303Y291700D01*
X539231Y291647D01*
X539156Y291597D01*
X539080Y291551D01*
X539002Y291508D01*
X538922Y291469D01*
X538840Y291433D01*
X538757Y291400D01*
X538672Y291372D01*
X538587Y291347D01*
X538500Y291325D01*
X538412Y291308D01*
X538324Y291295D01*
X538235Y291285D01*
X538146Y291279D01*
X538057Y291277D01*
X537968Y291279D01*
X537879Y291285D01*
X537790Y291295D01*
X537702Y291308D01*
X537614Y291325D01*
X537527Y291347D01*
X537442Y291372D01*
X537357Y291400D01*
X537274Y291433D01*
X537192Y291469D01*
X537112Y291508D01*
X537034Y291551D01*
X536958Y291597D01*
X536883Y291647D01*
X536811Y291700D01*
X536742Y291756D01*
X536675Y291815D01*
X536610Y291876D01*
X536549Y291941D01*
X536490Y292008D01*
X536434Y292077D01*
X536381Y292149D01*
X536331Y292224D01*
X536285Y292300D01*
X536242Y292378D01*
X536203Y292458D01*
X536167Y292540D01*
X536134Y292623D01*
X536106Y292708D01*
X536081Y292793D01*
X536059Y292880D01*
X536042Y292968D01*
X536029Y293056D01*
X536019Y293145D01*
X536013Y293234D01*
X536011Y293323D01*
X536420Y297006D02*
X536422Y297085D01*
X536428Y297164D01*
X536437Y297243D01*
X536450Y297321D01*
X536468Y297398D01*
X536488Y297474D01*
X536513Y297549D01*
X536541Y297623D01*
X536572Y297696D01*
X536608Y297767D01*
X536646Y297836D01*
X536688Y297903D01*
X536733Y297968D01*
X536781Y298031D01*
X536832Y298092D01*
X536886Y298149D01*
X536942Y298205D01*
X537001Y298257D01*
X537063Y298307D01*
X537127Y298353D01*
X537193Y298397D01*
X537261Y298437D01*
X537331Y298473D01*
X537403Y298507D01*
X537477Y298537D01*
X537551Y298563D01*
X537627Y298586D01*
X537704Y298604D01*
X537781Y298620D01*
X537860Y298631D01*
X537938Y298639D01*
X538017Y298643D01*
X538097Y298643D01*
X538176Y298639D01*
X538254Y298631D01*
X538333Y298620D01*
X538410Y298604D01*
X538487Y298586D01*
X538563Y298563D01*
X538637Y298537D01*
X538711Y298507D01*
X538783Y298473D01*
X538853Y298437D01*
X538921Y298397D01*
X538987Y298353D01*
X539051Y298307D01*
X539113Y298257D01*
X539172Y298205D01*
X539228Y298149D01*
X539282Y298092D01*
X539333Y298031D01*
X539381Y297968D01*
X539426Y297903D01*
X539468Y297836D01*
X539506Y297767D01*
X539542Y297696D01*
X539573Y297623D01*
X539601Y297549D01*
X539626Y297474D01*
X539646Y297398D01*
X539664Y297321D01*
X539677Y297243D01*
X539686Y297164D01*
X539692Y297085D01*
X539694Y297006D01*
X539692Y296927D01*
X539686Y296848D01*
X539677Y296769D01*
X539664Y296691D01*
X539646Y296614D01*
X539626Y296538D01*
X539601Y296463D01*
X539573Y296389D01*
X539542Y296316D01*
X539506Y296245D01*
X539468Y296176D01*
X539426Y296109D01*
X539381Y296044D01*
X539333Y295981D01*
X539282Y295920D01*
X539228Y295863D01*
X539172Y295807D01*
X539113Y295755D01*
X539051Y295705D01*
X538987Y295659D01*
X538921Y295615D01*
X538853Y295575D01*
X538783Y295539D01*
X538711Y295505D01*
X538637Y295475D01*
X538563Y295449D01*
X538487Y295426D01*
X538410Y295408D01*
X538333Y295392D01*
X538254Y295381D01*
X538176Y295373D01*
X538097Y295369D01*
X538017Y295369D01*
X537938Y295373D01*
X537860Y295381D01*
X537781Y295392D01*
X537704Y295408D01*
X537627Y295426D01*
X537551Y295449D01*
X537477Y295475D01*
X537403Y295505D01*
X537331Y295539D01*
X537261Y295575D01*
X537193Y295615D01*
X537127Y295659D01*
X537063Y295705D01*
X537001Y295755D01*
X536942Y295807D01*
X536886Y295863D01*
X536832Y295920D01*
X536781Y295981D01*
X536733Y296044D01*
X536688Y296109D01*
X536646Y296176D01*
X536608Y296245D01*
X536572Y296316D01*
X536541Y296389D01*
X536513Y296463D01*
X536488Y296538D01*
X536468Y296614D01*
X536450Y296691D01*
X536437Y296769D01*
X536428Y296848D01*
X536422Y296927D01*
X536420Y297006D01*
X525229Y320769D02*
X524001Y320769D01*
X525229Y320769D02*
X525229Y316677D01*
X522774Y316677D01*
X522696Y316679D01*
X522618Y316684D01*
X522541Y316694D01*
X522464Y316707D01*
X522388Y316723D01*
X522313Y316743D01*
X522239Y316767D01*
X522166Y316794D01*
X522094Y316825D01*
X522024Y316859D01*
X521956Y316896D01*
X521889Y316937D01*
X521824Y316981D01*
X521762Y317027D01*
X521702Y317077D01*
X521644Y317129D01*
X521589Y317184D01*
X521537Y317242D01*
X521487Y317302D01*
X521441Y317364D01*
X521397Y317429D01*
X521356Y317496D01*
X521319Y317564D01*
X521285Y317634D01*
X521254Y317706D01*
X521227Y317779D01*
X521203Y317853D01*
X521183Y317928D01*
X521167Y318004D01*
X521154Y318081D01*
X521144Y318158D01*
X521139Y318236D01*
X521137Y318314D01*
X521137Y322406D01*
X521139Y322486D01*
X521145Y322566D01*
X521155Y322646D01*
X521168Y322725D01*
X521186Y322804D01*
X521207Y322881D01*
X521233Y322957D01*
X521262Y323032D01*
X521294Y323106D01*
X521330Y323178D01*
X521370Y323248D01*
X521413Y323315D01*
X521459Y323381D01*
X521509Y323444D01*
X521561Y323505D01*
X521616Y323564D01*
X521675Y323619D01*
X521735Y323671D01*
X521799Y323721D01*
X521865Y323767D01*
X521932Y323810D01*
X522002Y323850D01*
X522074Y323886D01*
X522148Y323918D01*
X522222Y323947D01*
X522299Y323973D01*
X522376Y323994D01*
X522455Y324012D01*
X522534Y324025D01*
X522614Y324035D01*
X522694Y324041D01*
X522774Y324043D01*
X525229Y324043D01*
X528696Y322406D02*
X530742Y324043D01*
X530742Y316677D01*
X528696Y316677D02*
X532788Y316677D01*
X537648Y319951D02*
X540103Y319951D01*
X537648Y319951D02*
X537570Y319953D01*
X537492Y319958D01*
X537415Y319968D01*
X537338Y319981D01*
X537262Y319997D01*
X537187Y320017D01*
X537113Y320041D01*
X537040Y320068D01*
X536968Y320099D01*
X536898Y320133D01*
X536829Y320170D01*
X536763Y320211D01*
X536698Y320255D01*
X536636Y320301D01*
X536576Y320351D01*
X536518Y320403D01*
X536463Y320458D01*
X536411Y320516D01*
X536361Y320576D01*
X536315Y320638D01*
X536271Y320703D01*
X536230Y320770D01*
X536193Y320838D01*
X536159Y320908D01*
X536128Y320980D01*
X536101Y321053D01*
X536077Y321127D01*
X536057Y321202D01*
X536041Y321278D01*
X536028Y321355D01*
X536018Y321432D01*
X536013Y321510D01*
X536011Y321588D01*
X536011Y321997D01*
X536013Y322086D01*
X536019Y322175D01*
X536029Y322264D01*
X536042Y322352D01*
X536059Y322440D01*
X536081Y322527D01*
X536106Y322612D01*
X536134Y322697D01*
X536167Y322780D01*
X536203Y322862D01*
X536242Y322942D01*
X536285Y323020D01*
X536331Y323096D01*
X536381Y323171D01*
X536434Y323243D01*
X536490Y323312D01*
X536549Y323379D01*
X536610Y323444D01*
X536675Y323505D01*
X536742Y323564D01*
X536811Y323620D01*
X536883Y323673D01*
X536958Y323723D01*
X537034Y323769D01*
X537112Y323812D01*
X537192Y323851D01*
X537274Y323887D01*
X537357Y323920D01*
X537442Y323948D01*
X537527Y323973D01*
X537614Y323995D01*
X537702Y324012D01*
X537790Y324025D01*
X537879Y324035D01*
X537968Y324041D01*
X538057Y324043D01*
X538146Y324041D01*
X538235Y324035D01*
X538324Y324025D01*
X538412Y324012D01*
X538500Y323995D01*
X538587Y323973D01*
X538672Y323948D01*
X538757Y323920D01*
X538840Y323887D01*
X538922Y323851D01*
X539002Y323812D01*
X539080Y323769D01*
X539156Y323723D01*
X539231Y323673D01*
X539303Y323620D01*
X539372Y323564D01*
X539439Y323505D01*
X539504Y323444D01*
X539565Y323379D01*
X539624Y323312D01*
X539680Y323243D01*
X539733Y323171D01*
X539783Y323096D01*
X539829Y323020D01*
X539872Y322942D01*
X539911Y322862D01*
X539947Y322780D01*
X539980Y322697D01*
X540008Y322612D01*
X540033Y322527D01*
X540055Y322440D01*
X540072Y322352D01*
X540085Y322264D01*
X540095Y322175D01*
X540101Y322086D01*
X540103Y321997D01*
X540103Y319951D01*
X540101Y319839D01*
X540095Y319728D01*
X540086Y319616D01*
X540073Y319505D01*
X540055Y319395D01*
X540035Y319285D01*
X540010Y319176D01*
X539982Y319068D01*
X539950Y318961D01*
X539914Y318855D01*
X539875Y318750D01*
X539832Y318647D01*
X539786Y318545D01*
X539736Y318445D01*
X539683Y318346D01*
X539626Y318250D01*
X539567Y318155D01*
X539504Y318063D01*
X539438Y317973D01*
X539369Y317885D01*
X539297Y317799D01*
X539222Y317716D01*
X539144Y317636D01*
X539064Y317558D01*
X538981Y317483D01*
X538895Y317411D01*
X538807Y317342D01*
X538717Y317276D01*
X538625Y317213D01*
X538530Y317154D01*
X538434Y317097D01*
X538335Y317044D01*
X538235Y316994D01*
X538133Y316948D01*
X538030Y316905D01*
X537925Y316866D01*
X537819Y316830D01*
X537712Y316798D01*
X537604Y316770D01*
X537495Y316745D01*
X537385Y316725D01*
X537275Y316707D01*
X537164Y316694D01*
X537052Y316685D01*
X536941Y316679D01*
X536829Y316677D01*
X524863Y346169D02*
X523636Y346169D01*
X524863Y346169D02*
X524863Y342077D01*
X522408Y342077D01*
X522330Y342079D01*
X522252Y342084D01*
X522175Y342094D01*
X522098Y342107D01*
X522022Y342123D01*
X521947Y342143D01*
X521873Y342167D01*
X521800Y342194D01*
X521728Y342225D01*
X521658Y342259D01*
X521590Y342296D01*
X521523Y342337D01*
X521458Y342381D01*
X521396Y342427D01*
X521336Y342477D01*
X521278Y342529D01*
X521223Y342584D01*
X521171Y342642D01*
X521121Y342702D01*
X521075Y342764D01*
X521031Y342829D01*
X520990Y342896D01*
X520953Y342964D01*
X520919Y343034D01*
X520888Y343106D01*
X520861Y343179D01*
X520837Y343253D01*
X520817Y343328D01*
X520801Y343404D01*
X520788Y343481D01*
X520778Y343558D01*
X520773Y343636D01*
X520771Y343714D01*
X520771Y347806D01*
X520773Y347886D01*
X520779Y347966D01*
X520789Y348046D01*
X520802Y348125D01*
X520820Y348204D01*
X520841Y348281D01*
X520867Y348357D01*
X520896Y348432D01*
X520928Y348506D01*
X520964Y348578D01*
X521004Y348648D01*
X521047Y348715D01*
X521093Y348781D01*
X521143Y348844D01*
X521195Y348905D01*
X521250Y348964D01*
X521309Y349019D01*
X521369Y349071D01*
X521433Y349121D01*
X521499Y349167D01*
X521566Y349210D01*
X521636Y349250D01*
X521708Y349286D01*
X521782Y349318D01*
X521856Y349347D01*
X521933Y349373D01*
X522010Y349394D01*
X522089Y349412D01*
X522168Y349425D01*
X522248Y349435D01*
X522328Y349441D01*
X522408Y349443D01*
X524863Y349443D01*
X528574Y349443D02*
X528574Y342077D01*
X532666Y342077D02*
X528574Y349443D01*
X532666Y349443D02*
X532666Y342077D01*
X536377Y342077D02*
X536377Y349443D01*
X538423Y349443D01*
X538512Y349441D01*
X538601Y349435D01*
X538690Y349425D01*
X538778Y349412D01*
X538866Y349395D01*
X538953Y349373D01*
X539038Y349348D01*
X539123Y349320D01*
X539206Y349287D01*
X539288Y349251D01*
X539368Y349212D01*
X539446Y349169D01*
X539522Y349123D01*
X539597Y349073D01*
X539669Y349020D01*
X539738Y348964D01*
X539805Y348905D01*
X539870Y348844D01*
X539931Y348779D01*
X539990Y348712D01*
X540046Y348643D01*
X540099Y348571D01*
X540149Y348496D01*
X540195Y348420D01*
X540238Y348342D01*
X540277Y348262D01*
X540313Y348180D01*
X540346Y348097D01*
X540374Y348012D01*
X540399Y347927D01*
X540421Y347840D01*
X540438Y347752D01*
X540451Y347664D01*
X540461Y347575D01*
X540467Y347486D01*
X540469Y347397D01*
X540469Y344123D01*
X540467Y344034D01*
X540461Y343945D01*
X540451Y343856D01*
X540438Y343768D01*
X540421Y343680D01*
X540399Y343593D01*
X540374Y343508D01*
X540346Y343423D01*
X540313Y343340D01*
X540277Y343258D01*
X540238Y343178D01*
X540195Y343100D01*
X540149Y343024D01*
X540099Y342949D01*
X540046Y342877D01*
X539990Y342808D01*
X539931Y342741D01*
X539870Y342676D01*
X539805Y342615D01*
X539738Y342556D01*
X539669Y342500D01*
X539597Y342447D01*
X539522Y342397D01*
X539446Y342351D01*
X539368Y342308D01*
X539288Y342269D01*
X539206Y342233D01*
X539123Y342200D01*
X539038Y342172D01*
X538953Y342147D01*
X538866Y342125D01*
X538778Y342108D01*
X538690Y342095D01*
X538601Y342085D01*
X538512Y342079D01*
X538423Y342077D01*
X536377Y342077D01*
X525229Y371569D02*
X524001Y371569D01*
X525229Y371569D02*
X525229Y367477D01*
X522774Y367477D01*
X522696Y367479D01*
X522618Y367484D01*
X522541Y367494D01*
X522464Y367507D01*
X522388Y367523D01*
X522313Y367543D01*
X522239Y367567D01*
X522166Y367594D01*
X522094Y367625D01*
X522024Y367659D01*
X521956Y367696D01*
X521889Y367737D01*
X521824Y367781D01*
X521762Y367827D01*
X521702Y367877D01*
X521644Y367929D01*
X521589Y367984D01*
X521537Y368042D01*
X521487Y368102D01*
X521441Y368164D01*
X521397Y368229D01*
X521356Y368296D01*
X521319Y368364D01*
X521285Y368434D01*
X521254Y368506D01*
X521227Y368579D01*
X521203Y368653D01*
X521183Y368728D01*
X521167Y368804D01*
X521154Y368881D01*
X521144Y368958D01*
X521139Y369036D01*
X521137Y369114D01*
X521137Y373206D01*
X521139Y373286D01*
X521145Y373366D01*
X521155Y373446D01*
X521168Y373525D01*
X521186Y373604D01*
X521207Y373681D01*
X521233Y373757D01*
X521262Y373832D01*
X521294Y373906D01*
X521330Y373978D01*
X521370Y374048D01*
X521413Y374115D01*
X521459Y374181D01*
X521509Y374244D01*
X521561Y374305D01*
X521616Y374364D01*
X521675Y374419D01*
X521735Y374471D01*
X521799Y374521D01*
X521865Y374567D01*
X521932Y374610D01*
X522002Y374650D01*
X522074Y374686D01*
X522148Y374718D01*
X522222Y374747D01*
X522299Y374773D01*
X522376Y374794D01*
X522455Y374812D01*
X522534Y374825D01*
X522614Y374835D01*
X522694Y374841D01*
X522774Y374843D01*
X525229Y374843D01*
X530947Y374844D02*
X531032Y374842D01*
X531117Y374836D01*
X531201Y374826D01*
X531285Y374813D01*
X531369Y374795D01*
X531451Y374774D01*
X531532Y374749D01*
X531612Y374720D01*
X531691Y374687D01*
X531768Y374651D01*
X531843Y374611D01*
X531917Y374568D01*
X531988Y374522D01*
X532057Y374472D01*
X532124Y374419D01*
X532188Y374363D01*
X532249Y374304D01*
X532308Y374243D01*
X532364Y374179D01*
X532417Y374112D01*
X532467Y374043D01*
X532513Y373972D01*
X532556Y373898D01*
X532596Y373823D01*
X532632Y373746D01*
X532665Y373667D01*
X532694Y373587D01*
X532719Y373506D01*
X532740Y373424D01*
X532758Y373340D01*
X532771Y373256D01*
X532781Y373172D01*
X532787Y373087D01*
X532789Y373002D01*
X530947Y374843D02*
X530851Y374841D01*
X530755Y374835D01*
X530660Y374825D01*
X530565Y374812D01*
X530470Y374794D01*
X530377Y374773D01*
X530284Y374748D01*
X530193Y374719D01*
X530102Y374687D01*
X530013Y374651D01*
X529926Y374611D01*
X529840Y374568D01*
X529756Y374522D01*
X529674Y374472D01*
X529594Y374418D01*
X529517Y374362D01*
X529442Y374302D01*
X529369Y374240D01*
X529299Y374174D01*
X529231Y374106D01*
X529166Y374035D01*
X529105Y373962D01*
X529046Y373886D01*
X528990Y373807D01*
X528938Y373727D01*
X528889Y373644D01*
X528843Y373560D01*
X528801Y373474D01*
X528763Y373386D01*
X528728Y373297D01*
X528696Y373206D01*
X532174Y371570D02*
X532234Y371629D01*
X532291Y371691D01*
X532346Y371755D01*
X532397Y371822D01*
X532446Y371891D01*
X532492Y371961D01*
X532535Y372034D01*
X532575Y372108D01*
X532611Y372184D01*
X532644Y372262D01*
X532674Y372341D01*
X532701Y372421D01*
X532724Y372502D01*
X532743Y372584D01*
X532759Y372666D01*
X532772Y372750D01*
X532781Y372834D01*
X532786Y372918D01*
X532788Y373002D01*
X532174Y371569D02*
X528696Y367477D01*
X532788Y367477D01*
X536011Y373206D02*
X538057Y374843D01*
X538057Y367477D01*
X536011Y367477D02*
X540103Y367477D01*
X521162Y392877D02*
X521162Y400243D01*
X523209Y400243D01*
X523298Y400241D01*
X523387Y400235D01*
X523476Y400225D01*
X523564Y400212D01*
X523652Y400195D01*
X523739Y400173D01*
X523824Y400148D01*
X523909Y400120D01*
X523992Y400087D01*
X524074Y400051D01*
X524154Y400012D01*
X524232Y399969D01*
X524308Y399923D01*
X524383Y399873D01*
X524455Y399820D01*
X524524Y399764D01*
X524591Y399705D01*
X524656Y399644D01*
X524717Y399579D01*
X524776Y399512D01*
X524832Y399443D01*
X524885Y399371D01*
X524935Y399296D01*
X524981Y399220D01*
X525024Y399142D01*
X525063Y399062D01*
X525099Y398980D01*
X525132Y398897D01*
X525160Y398812D01*
X525185Y398727D01*
X525207Y398640D01*
X525224Y398552D01*
X525237Y398464D01*
X525247Y398375D01*
X525253Y398286D01*
X525255Y398197D01*
X525253Y398108D01*
X525247Y398019D01*
X525237Y397930D01*
X525224Y397842D01*
X525207Y397754D01*
X525185Y397667D01*
X525160Y397582D01*
X525132Y397497D01*
X525099Y397414D01*
X525063Y397332D01*
X525024Y397252D01*
X524981Y397174D01*
X524935Y397098D01*
X524885Y397023D01*
X524832Y396951D01*
X524776Y396882D01*
X524717Y396815D01*
X524656Y396750D01*
X524591Y396689D01*
X524524Y396630D01*
X524455Y396574D01*
X524383Y396521D01*
X524308Y396471D01*
X524232Y396425D01*
X524154Y396382D01*
X524074Y396343D01*
X523992Y396307D01*
X523909Y396274D01*
X523824Y396246D01*
X523739Y396221D01*
X523652Y396199D01*
X523564Y396182D01*
X523476Y396169D01*
X523387Y396159D01*
X523298Y396153D01*
X523209Y396151D01*
X521162Y396151D01*
X523618Y396151D02*
X525255Y392877D01*
X528017Y392877D02*
X532928Y400243D01*
X528017Y400243D02*
X532928Y392877D01*
X535985Y392877D02*
X535985Y400243D01*
X538032Y400243D01*
X538121Y400241D01*
X538210Y400235D01*
X538299Y400225D01*
X538387Y400212D01*
X538475Y400195D01*
X538562Y400173D01*
X538647Y400148D01*
X538732Y400120D01*
X538815Y400087D01*
X538897Y400051D01*
X538977Y400012D01*
X539055Y399969D01*
X539131Y399923D01*
X539206Y399873D01*
X539278Y399820D01*
X539347Y399764D01*
X539414Y399705D01*
X539479Y399644D01*
X539540Y399579D01*
X539599Y399512D01*
X539655Y399443D01*
X539708Y399371D01*
X539758Y399296D01*
X539804Y399220D01*
X539847Y399142D01*
X539886Y399062D01*
X539922Y398980D01*
X539955Y398897D01*
X539983Y398812D01*
X540008Y398727D01*
X540030Y398640D01*
X540047Y398552D01*
X540060Y398464D01*
X540070Y398375D01*
X540076Y398286D01*
X540078Y398197D01*
X540078Y394923D01*
X540076Y394834D01*
X540070Y394745D01*
X540060Y394656D01*
X540047Y394568D01*
X540030Y394480D01*
X540008Y394393D01*
X539983Y394308D01*
X539955Y394223D01*
X539922Y394140D01*
X539886Y394058D01*
X539847Y393978D01*
X539804Y393900D01*
X539758Y393824D01*
X539708Y393749D01*
X539655Y393677D01*
X539599Y393608D01*
X539540Y393541D01*
X539479Y393476D01*
X539414Y393415D01*
X539347Y393356D01*
X539278Y393300D01*
X539206Y393247D01*
X539131Y393197D01*
X539055Y393151D01*
X538977Y393108D01*
X538897Y393069D01*
X538815Y393033D01*
X538732Y393000D01*
X538647Y392972D01*
X538562Y392947D01*
X538475Y392925D01*
X538387Y392908D01*
X538299Y392895D01*
X538210Y392885D01*
X538121Y392879D01*
X538032Y392877D01*
X535985Y392877D01*
X523427Y418277D02*
X523427Y425643D01*
X521381Y425643D02*
X525473Y425643D01*
X532710Y425643D02*
X527799Y418277D01*
X532710Y418277D02*
X527799Y425643D01*
X535767Y425643D02*
X535767Y418277D01*
X535767Y425643D02*
X537813Y425643D01*
X537902Y425641D01*
X537991Y425635D01*
X538080Y425625D01*
X538168Y425612D01*
X538256Y425595D01*
X538343Y425573D01*
X538428Y425548D01*
X538513Y425520D01*
X538596Y425487D01*
X538678Y425451D01*
X538758Y425412D01*
X538836Y425369D01*
X538912Y425323D01*
X538987Y425273D01*
X539059Y425220D01*
X539128Y425164D01*
X539195Y425105D01*
X539260Y425044D01*
X539321Y424979D01*
X539380Y424912D01*
X539436Y424843D01*
X539489Y424771D01*
X539539Y424696D01*
X539585Y424620D01*
X539628Y424542D01*
X539667Y424462D01*
X539703Y424380D01*
X539736Y424297D01*
X539764Y424212D01*
X539789Y424127D01*
X539811Y424040D01*
X539828Y423952D01*
X539841Y423864D01*
X539851Y423775D01*
X539857Y423686D01*
X539859Y423597D01*
X539859Y420323D01*
X539857Y420234D01*
X539851Y420145D01*
X539841Y420056D01*
X539828Y419968D01*
X539811Y419880D01*
X539789Y419793D01*
X539764Y419708D01*
X539736Y419623D01*
X539703Y419540D01*
X539667Y419458D01*
X539628Y419378D01*
X539585Y419300D01*
X539539Y419224D01*
X539489Y419149D01*
X539436Y419077D01*
X539380Y419008D01*
X539321Y418941D01*
X539260Y418876D01*
X539195Y418815D01*
X539128Y418756D01*
X539059Y418700D01*
X538987Y418647D01*
X538912Y418597D01*
X538836Y418551D01*
X538758Y418508D01*
X538678Y418469D01*
X538596Y418433D01*
X538513Y418400D01*
X538428Y418372D01*
X538343Y418347D01*
X538256Y418325D01*
X538168Y418308D01*
X538080Y418295D01*
X537991Y418285D01*
X537902Y418279D01*
X537813Y418277D01*
X535767Y418277D01*
X525229Y447769D02*
X524001Y447769D01*
X525229Y447769D02*
X525229Y443677D01*
X522774Y443677D01*
X522696Y443679D01*
X522618Y443684D01*
X522541Y443694D01*
X522464Y443707D01*
X522388Y443723D01*
X522313Y443743D01*
X522239Y443767D01*
X522166Y443794D01*
X522094Y443825D01*
X522024Y443859D01*
X521956Y443896D01*
X521889Y443937D01*
X521824Y443981D01*
X521762Y444027D01*
X521702Y444077D01*
X521644Y444129D01*
X521589Y444184D01*
X521537Y444242D01*
X521487Y444302D01*
X521441Y444364D01*
X521397Y444429D01*
X521356Y444496D01*
X521319Y444564D01*
X521285Y444634D01*
X521254Y444706D01*
X521227Y444779D01*
X521203Y444853D01*
X521183Y444928D01*
X521167Y445004D01*
X521154Y445081D01*
X521144Y445158D01*
X521139Y445236D01*
X521137Y445314D01*
X521137Y449406D01*
X521139Y449486D01*
X521145Y449566D01*
X521155Y449646D01*
X521168Y449725D01*
X521186Y449804D01*
X521207Y449881D01*
X521233Y449957D01*
X521262Y450032D01*
X521294Y450106D01*
X521330Y450178D01*
X521370Y450248D01*
X521413Y450315D01*
X521459Y450381D01*
X521509Y450444D01*
X521561Y450505D01*
X521616Y450564D01*
X521675Y450619D01*
X521735Y450671D01*
X521799Y450721D01*
X521865Y450767D01*
X521932Y450810D01*
X522002Y450850D01*
X522074Y450886D01*
X522148Y450918D01*
X522222Y450947D01*
X522299Y450973D01*
X522376Y450994D01*
X522455Y451012D01*
X522534Y451025D01*
X522614Y451035D01*
X522694Y451041D01*
X522774Y451043D01*
X525229Y451043D01*
X530947Y451044D02*
X531032Y451042D01*
X531117Y451036D01*
X531201Y451026D01*
X531285Y451013D01*
X531369Y450995D01*
X531451Y450974D01*
X531532Y450949D01*
X531612Y450920D01*
X531691Y450887D01*
X531768Y450851D01*
X531843Y450811D01*
X531917Y450768D01*
X531988Y450722D01*
X532057Y450672D01*
X532124Y450619D01*
X532188Y450563D01*
X532249Y450504D01*
X532308Y450443D01*
X532364Y450379D01*
X532417Y450312D01*
X532467Y450243D01*
X532513Y450172D01*
X532556Y450098D01*
X532596Y450023D01*
X532632Y449946D01*
X532665Y449867D01*
X532694Y449787D01*
X532719Y449706D01*
X532740Y449624D01*
X532758Y449540D01*
X532771Y449456D01*
X532781Y449372D01*
X532787Y449287D01*
X532789Y449202D01*
X530947Y451043D02*
X530851Y451041D01*
X530755Y451035D01*
X530660Y451025D01*
X530565Y451012D01*
X530470Y450994D01*
X530377Y450973D01*
X530284Y450948D01*
X530193Y450919D01*
X530102Y450887D01*
X530013Y450851D01*
X529926Y450811D01*
X529840Y450768D01*
X529756Y450722D01*
X529674Y450672D01*
X529594Y450618D01*
X529517Y450562D01*
X529442Y450502D01*
X529369Y450440D01*
X529299Y450374D01*
X529231Y450306D01*
X529166Y450235D01*
X529105Y450162D01*
X529046Y450086D01*
X528990Y450007D01*
X528938Y449927D01*
X528889Y449844D01*
X528843Y449760D01*
X528801Y449674D01*
X528763Y449586D01*
X528728Y449497D01*
X528696Y449406D01*
X532174Y447770D02*
X532234Y447829D01*
X532291Y447891D01*
X532346Y447955D01*
X532397Y448022D01*
X532446Y448091D01*
X532492Y448161D01*
X532535Y448234D01*
X532575Y448308D01*
X532611Y448384D01*
X532644Y448462D01*
X532674Y448541D01*
X532701Y448621D01*
X532724Y448702D01*
X532743Y448784D01*
X532759Y448866D01*
X532772Y448950D01*
X532781Y449034D01*
X532786Y449118D01*
X532788Y449202D01*
X532174Y447769D02*
X528696Y443677D01*
X532788Y443677D01*
X540104Y449202D02*
X540102Y449287D01*
X540096Y449372D01*
X540086Y449456D01*
X540073Y449540D01*
X540055Y449624D01*
X540034Y449706D01*
X540009Y449787D01*
X539980Y449867D01*
X539947Y449946D01*
X539911Y450023D01*
X539871Y450098D01*
X539828Y450172D01*
X539782Y450243D01*
X539732Y450312D01*
X539679Y450379D01*
X539623Y450443D01*
X539564Y450504D01*
X539503Y450563D01*
X539439Y450619D01*
X539372Y450672D01*
X539303Y450722D01*
X539232Y450768D01*
X539158Y450811D01*
X539083Y450851D01*
X539006Y450887D01*
X538927Y450920D01*
X538847Y450949D01*
X538766Y450974D01*
X538684Y450995D01*
X538600Y451013D01*
X538516Y451026D01*
X538432Y451036D01*
X538347Y451042D01*
X538262Y451044D01*
X538262Y451043D02*
X538166Y451041D01*
X538070Y451035D01*
X537975Y451025D01*
X537880Y451012D01*
X537785Y450994D01*
X537692Y450973D01*
X537599Y450948D01*
X537508Y450919D01*
X537417Y450887D01*
X537328Y450851D01*
X537241Y450811D01*
X537155Y450768D01*
X537071Y450722D01*
X536989Y450672D01*
X536909Y450618D01*
X536832Y450562D01*
X536757Y450502D01*
X536684Y450440D01*
X536614Y450374D01*
X536546Y450306D01*
X536481Y450235D01*
X536420Y450162D01*
X536361Y450086D01*
X536305Y450007D01*
X536253Y449927D01*
X536204Y449844D01*
X536158Y449760D01*
X536116Y449674D01*
X536078Y449586D01*
X536043Y449497D01*
X536011Y449406D01*
X539489Y447770D02*
X539549Y447829D01*
X539606Y447891D01*
X539661Y447955D01*
X539712Y448022D01*
X539761Y448091D01*
X539807Y448161D01*
X539850Y448234D01*
X539890Y448308D01*
X539926Y448384D01*
X539959Y448462D01*
X539989Y448541D01*
X540016Y448621D01*
X540039Y448702D01*
X540058Y448784D01*
X540074Y448866D01*
X540087Y448950D01*
X540096Y449034D01*
X540101Y449118D01*
X540103Y449202D01*
X539489Y447769D02*
X536011Y443677D01*
X540103Y443677D01*
X525229Y473169D02*
X524001Y473169D01*
X525229Y473169D02*
X525229Y469077D01*
X522774Y469077D01*
X522696Y469079D01*
X522618Y469084D01*
X522541Y469094D01*
X522464Y469107D01*
X522388Y469123D01*
X522313Y469143D01*
X522239Y469167D01*
X522166Y469194D01*
X522094Y469225D01*
X522024Y469259D01*
X521956Y469296D01*
X521889Y469337D01*
X521824Y469381D01*
X521762Y469427D01*
X521702Y469477D01*
X521644Y469529D01*
X521589Y469584D01*
X521537Y469642D01*
X521487Y469702D01*
X521441Y469764D01*
X521397Y469829D01*
X521356Y469896D01*
X521319Y469964D01*
X521285Y470034D01*
X521254Y470106D01*
X521227Y470179D01*
X521203Y470253D01*
X521183Y470328D01*
X521167Y470404D01*
X521154Y470481D01*
X521144Y470558D01*
X521139Y470636D01*
X521137Y470714D01*
X521137Y474806D01*
X521139Y474886D01*
X521145Y474966D01*
X521155Y475046D01*
X521168Y475125D01*
X521186Y475204D01*
X521207Y475281D01*
X521233Y475357D01*
X521262Y475432D01*
X521294Y475506D01*
X521330Y475578D01*
X521370Y475648D01*
X521413Y475715D01*
X521459Y475781D01*
X521509Y475844D01*
X521561Y475905D01*
X521616Y475964D01*
X521675Y476019D01*
X521735Y476071D01*
X521799Y476121D01*
X521865Y476167D01*
X521932Y476210D01*
X522002Y476250D01*
X522074Y476286D01*
X522148Y476318D01*
X522222Y476347D01*
X522299Y476373D01*
X522376Y476394D01*
X522455Y476412D01*
X522534Y476425D01*
X522614Y476435D01*
X522694Y476441D01*
X522774Y476443D01*
X525229Y476443D01*
X530947Y476444D02*
X531032Y476442D01*
X531117Y476436D01*
X531201Y476426D01*
X531285Y476413D01*
X531369Y476395D01*
X531451Y476374D01*
X531532Y476349D01*
X531612Y476320D01*
X531691Y476287D01*
X531768Y476251D01*
X531843Y476211D01*
X531917Y476168D01*
X531988Y476122D01*
X532057Y476072D01*
X532124Y476019D01*
X532188Y475963D01*
X532249Y475904D01*
X532308Y475843D01*
X532364Y475779D01*
X532417Y475712D01*
X532467Y475643D01*
X532513Y475572D01*
X532556Y475498D01*
X532596Y475423D01*
X532632Y475346D01*
X532665Y475267D01*
X532694Y475187D01*
X532719Y475106D01*
X532740Y475024D01*
X532758Y474940D01*
X532771Y474856D01*
X532781Y474772D01*
X532787Y474687D01*
X532789Y474602D01*
X530947Y476443D02*
X530851Y476441D01*
X530755Y476435D01*
X530660Y476425D01*
X530565Y476412D01*
X530470Y476394D01*
X530377Y476373D01*
X530284Y476348D01*
X530193Y476319D01*
X530102Y476287D01*
X530013Y476251D01*
X529926Y476211D01*
X529840Y476168D01*
X529756Y476122D01*
X529674Y476072D01*
X529594Y476018D01*
X529517Y475962D01*
X529442Y475902D01*
X529369Y475840D01*
X529299Y475774D01*
X529231Y475706D01*
X529166Y475635D01*
X529105Y475562D01*
X529046Y475486D01*
X528990Y475407D01*
X528938Y475327D01*
X528889Y475244D01*
X528843Y475160D01*
X528801Y475074D01*
X528763Y474986D01*
X528728Y474897D01*
X528696Y474806D01*
X532174Y473170D02*
X532234Y473229D01*
X532291Y473291D01*
X532346Y473355D01*
X532397Y473422D01*
X532446Y473491D01*
X532492Y473561D01*
X532535Y473634D01*
X532575Y473708D01*
X532611Y473784D01*
X532644Y473862D01*
X532674Y473941D01*
X532701Y474021D01*
X532724Y474102D01*
X532743Y474184D01*
X532759Y474266D01*
X532772Y474350D01*
X532781Y474434D01*
X532786Y474518D01*
X532788Y474602D01*
X532174Y473169D02*
X528696Y469077D01*
X532788Y469077D01*
X536011Y469077D02*
X538057Y469077D01*
X538146Y469079D01*
X538235Y469085D01*
X538324Y469095D01*
X538412Y469108D01*
X538500Y469125D01*
X538587Y469147D01*
X538672Y469172D01*
X538757Y469200D01*
X538840Y469233D01*
X538922Y469269D01*
X539002Y469308D01*
X539080Y469351D01*
X539156Y469397D01*
X539231Y469447D01*
X539303Y469500D01*
X539372Y469556D01*
X539439Y469615D01*
X539504Y469676D01*
X539565Y469741D01*
X539624Y469808D01*
X539680Y469877D01*
X539733Y469949D01*
X539783Y470024D01*
X539829Y470100D01*
X539872Y470178D01*
X539911Y470258D01*
X539947Y470340D01*
X539980Y470423D01*
X540008Y470508D01*
X540033Y470593D01*
X540055Y470680D01*
X540072Y470768D01*
X540085Y470856D01*
X540095Y470945D01*
X540101Y471034D01*
X540103Y471123D01*
X540101Y471212D01*
X540095Y471301D01*
X540085Y471390D01*
X540072Y471478D01*
X540055Y471566D01*
X540033Y471653D01*
X540008Y471738D01*
X539980Y471823D01*
X539947Y471906D01*
X539911Y471988D01*
X539872Y472068D01*
X539829Y472146D01*
X539783Y472222D01*
X539733Y472297D01*
X539680Y472369D01*
X539624Y472438D01*
X539565Y472505D01*
X539504Y472570D01*
X539439Y472631D01*
X539372Y472690D01*
X539303Y472746D01*
X539231Y472799D01*
X539156Y472849D01*
X539080Y472895D01*
X539002Y472938D01*
X538922Y472977D01*
X538840Y473013D01*
X538757Y473046D01*
X538672Y473074D01*
X538587Y473099D01*
X538500Y473121D01*
X538412Y473138D01*
X538324Y473151D01*
X538235Y473161D01*
X538146Y473167D01*
X538057Y473169D01*
X538466Y476443D02*
X536011Y476443D01*
X538466Y476443D02*
X538545Y476441D01*
X538624Y476435D01*
X538703Y476426D01*
X538781Y476413D01*
X538858Y476395D01*
X538934Y476375D01*
X539009Y476350D01*
X539083Y476322D01*
X539156Y476291D01*
X539227Y476255D01*
X539296Y476217D01*
X539363Y476175D01*
X539428Y476130D01*
X539491Y476082D01*
X539552Y476031D01*
X539609Y475977D01*
X539665Y475921D01*
X539717Y475862D01*
X539767Y475800D01*
X539813Y475736D01*
X539857Y475670D01*
X539897Y475602D01*
X539933Y475532D01*
X539967Y475460D01*
X539997Y475386D01*
X540023Y475312D01*
X540046Y475236D01*
X540064Y475159D01*
X540080Y475082D01*
X540091Y475003D01*
X540099Y474925D01*
X540103Y474846D01*
X540103Y474766D01*
X540099Y474687D01*
X540091Y474609D01*
X540080Y474530D01*
X540064Y474453D01*
X540046Y474376D01*
X540023Y474300D01*
X539997Y474226D01*
X539967Y474152D01*
X539933Y474080D01*
X539897Y474010D01*
X539857Y473942D01*
X539813Y473876D01*
X539767Y473812D01*
X539717Y473750D01*
X539665Y473691D01*
X539609Y473635D01*
X539552Y473581D01*
X539491Y473530D01*
X539428Y473482D01*
X539363Y473437D01*
X539296Y473395D01*
X539227Y473357D01*
X539156Y473321D01*
X539083Y473290D01*
X539009Y473262D01*
X538934Y473237D01*
X538858Y473217D01*
X538781Y473199D01*
X538703Y473186D01*
X538624Y473177D01*
X538545Y473171D01*
X538466Y473169D01*
X536829Y473169D01*
X524863Y498569D02*
X523636Y498569D01*
X524863Y498569D02*
X524863Y494477D01*
X522408Y494477D01*
X522330Y494479D01*
X522252Y494484D01*
X522175Y494494D01*
X522098Y494507D01*
X522022Y494523D01*
X521947Y494543D01*
X521873Y494567D01*
X521800Y494594D01*
X521728Y494625D01*
X521658Y494659D01*
X521590Y494696D01*
X521523Y494737D01*
X521458Y494781D01*
X521396Y494827D01*
X521336Y494877D01*
X521278Y494929D01*
X521223Y494984D01*
X521171Y495042D01*
X521121Y495102D01*
X521075Y495164D01*
X521031Y495229D01*
X520990Y495296D01*
X520953Y495364D01*
X520919Y495434D01*
X520888Y495506D01*
X520861Y495579D01*
X520837Y495653D01*
X520817Y495728D01*
X520801Y495804D01*
X520788Y495881D01*
X520778Y495958D01*
X520773Y496036D01*
X520771Y496114D01*
X520771Y500206D01*
X520773Y500286D01*
X520779Y500366D01*
X520789Y500446D01*
X520802Y500525D01*
X520820Y500604D01*
X520841Y500681D01*
X520867Y500757D01*
X520896Y500832D01*
X520928Y500906D01*
X520964Y500978D01*
X521004Y501048D01*
X521047Y501115D01*
X521093Y501181D01*
X521143Y501244D01*
X521195Y501305D01*
X521250Y501364D01*
X521309Y501419D01*
X521369Y501471D01*
X521433Y501521D01*
X521499Y501567D01*
X521566Y501610D01*
X521636Y501650D01*
X521708Y501686D01*
X521782Y501718D01*
X521856Y501747D01*
X521933Y501773D01*
X522010Y501794D01*
X522089Y501812D01*
X522168Y501825D01*
X522248Y501835D01*
X522328Y501841D01*
X522408Y501843D01*
X524863Y501843D01*
X528574Y501843D02*
X528574Y494477D01*
X532666Y494477D02*
X528574Y501843D01*
X532666Y501843D02*
X532666Y494477D01*
X536377Y494477D02*
X536377Y501843D01*
X538423Y501843D01*
X538512Y501841D01*
X538601Y501835D01*
X538690Y501825D01*
X538778Y501812D01*
X538866Y501795D01*
X538953Y501773D01*
X539038Y501748D01*
X539123Y501720D01*
X539206Y501687D01*
X539288Y501651D01*
X539368Y501612D01*
X539446Y501569D01*
X539522Y501523D01*
X539597Y501473D01*
X539669Y501420D01*
X539738Y501364D01*
X539805Y501305D01*
X539870Y501244D01*
X539931Y501179D01*
X539990Y501112D01*
X540046Y501043D01*
X540099Y500971D01*
X540149Y500896D01*
X540195Y500820D01*
X540238Y500742D01*
X540277Y500662D01*
X540313Y500580D01*
X540346Y500497D01*
X540374Y500412D01*
X540399Y500327D01*
X540421Y500240D01*
X540438Y500152D01*
X540451Y500064D01*
X540461Y499975D01*
X540467Y499886D01*
X540469Y499797D01*
X540469Y496523D01*
X540467Y496434D01*
X540461Y496345D01*
X540451Y496256D01*
X540438Y496168D01*
X540421Y496080D01*
X540399Y495993D01*
X540374Y495908D01*
X540346Y495823D01*
X540313Y495740D01*
X540277Y495658D01*
X540238Y495578D01*
X540195Y495500D01*
X540149Y495424D01*
X540099Y495349D01*
X540046Y495277D01*
X539990Y495208D01*
X539931Y495141D01*
X539870Y495076D01*
X539805Y495015D01*
X539738Y494956D01*
X539669Y494900D01*
X539597Y494847D01*
X539522Y494797D01*
X539446Y494751D01*
X539368Y494708D01*
X539288Y494669D01*
X539206Y494633D01*
X539123Y494600D01*
X539038Y494572D01*
X538953Y494547D01*
X538866Y494525D01*
X538778Y494508D01*
X538690Y494495D01*
X538601Y494485D01*
X538512Y494479D01*
X538423Y494477D01*
X536377Y494477D01*
D12*
X516570Y498160D02*
X338770Y498160D01*
X351470Y548960D02*
X376870Y548960D01*
X376870Y523560D01*
X402270Y523560D01*
X402270Y548960D01*
X427670Y548960D01*
X427670Y523560D01*
X453070Y523560D01*
X453070Y548960D01*
X478470Y548960D01*
X503870Y548960D01*
X503870Y504510D01*
X478470Y504510D02*
X478470Y548960D01*
X351470Y548960D02*
X351470Y510860D01*
D11*
X524001Y117569D02*
X525229Y117569D01*
X525229Y113477D01*
X522774Y113477D01*
X522696Y113479D01*
X522618Y113484D01*
X522541Y113494D01*
X522464Y113507D01*
X522388Y113523D01*
X522313Y113543D01*
X522239Y113567D01*
X522166Y113594D01*
X522094Y113625D01*
X522024Y113659D01*
X521956Y113696D01*
X521889Y113737D01*
X521824Y113781D01*
X521762Y113827D01*
X521702Y113877D01*
X521644Y113929D01*
X521589Y113984D01*
X521537Y114042D01*
X521487Y114102D01*
X521441Y114164D01*
X521397Y114229D01*
X521356Y114296D01*
X521319Y114364D01*
X521285Y114434D01*
X521254Y114506D01*
X521227Y114579D01*
X521203Y114653D01*
X521183Y114728D01*
X521167Y114804D01*
X521154Y114881D01*
X521144Y114958D01*
X521139Y115036D01*
X521137Y115114D01*
X521137Y119206D01*
X521139Y119286D01*
X521145Y119366D01*
X521155Y119446D01*
X521168Y119525D01*
X521186Y119604D01*
X521207Y119681D01*
X521233Y119757D01*
X521262Y119832D01*
X521294Y119906D01*
X521330Y119978D01*
X521370Y120048D01*
X521413Y120115D01*
X521459Y120181D01*
X521509Y120244D01*
X521561Y120305D01*
X521616Y120364D01*
X521675Y120419D01*
X521735Y120471D01*
X521799Y120521D01*
X521865Y120567D01*
X521932Y120610D01*
X522002Y120650D01*
X522074Y120686D01*
X522148Y120718D01*
X522222Y120747D01*
X522299Y120773D01*
X522376Y120794D01*
X522455Y120812D01*
X522534Y120825D01*
X522614Y120835D01*
X522694Y120841D01*
X522774Y120843D01*
X525229Y120843D01*
X528696Y119206D02*
X530742Y120843D01*
X530742Y113477D01*
X528696Y113477D02*
X532788Y113477D01*
X536011Y113477D02*
X538466Y113477D01*
X538544Y113479D01*
X538622Y113484D01*
X538699Y113494D01*
X538776Y113507D01*
X538852Y113523D01*
X538927Y113543D01*
X539001Y113567D01*
X539074Y113594D01*
X539146Y113625D01*
X539216Y113659D01*
X539285Y113696D01*
X539351Y113737D01*
X539416Y113781D01*
X539478Y113827D01*
X539538Y113877D01*
X539596Y113929D01*
X539651Y113984D01*
X539703Y114042D01*
X539753Y114102D01*
X539799Y114164D01*
X539843Y114229D01*
X539884Y114296D01*
X539921Y114364D01*
X539955Y114434D01*
X539986Y114506D01*
X540013Y114579D01*
X540037Y114653D01*
X540057Y114728D01*
X540073Y114804D01*
X540086Y114881D01*
X540096Y114958D01*
X540101Y115036D01*
X540103Y115114D01*
X540103Y115932D01*
X540101Y116010D01*
X540096Y116088D01*
X540086Y116165D01*
X540073Y116242D01*
X540057Y116318D01*
X540037Y116393D01*
X540013Y116467D01*
X539986Y116540D01*
X539955Y116612D01*
X539921Y116682D01*
X539884Y116751D01*
X539843Y116817D01*
X539799Y116882D01*
X539753Y116944D01*
X539703Y117004D01*
X539651Y117062D01*
X539596Y117117D01*
X539538Y117169D01*
X539478Y117219D01*
X539416Y117265D01*
X539351Y117309D01*
X539285Y117350D01*
X539216Y117387D01*
X539146Y117421D01*
X539074Y117452D01*
X539001Y117479D01*
X538927Y117503D01*
X538852Y117523D01*
X538776Y117539D01*
X538699Y117552D01*
X538622Y117562D01*
X538544Y117567D01*
X538466Y117569D01*
X536011Y117569D01*
X536011Y120843D01*
X540103Y120843D01*
X525229Y89714D02*
X525227Y89636D01*
X525222Y89558D01*
X525212Y89481D01*
X525199Y89404D01*
X525183Y89328D01*
X525163Y89253D01*
X525139Y89179D01*
X525112Y89106D01*
X525081Y89034D01*
X525047Y88964D01*
X525010Y88896D01*
X524969Y88829D01*
X524925Y88764D01*
X524879Y88702D01*
X524829Y88642D01*
X524777Y88584D01*
X524722Y88529D01*
X524664Y88477D01*
X524604Y88427D01*
X524542Y88381D01*
X524477Y88337D01*
X524411Y88296D01*
X524342Y88259D01*
X524272Y88225D01*
X524200Y88194D01*
X524127Y88167D01*
X524053Y88143D01*
X523978Y88123D01*
X523902Y88107D01*
X523825Y88094D01*
X523748Y88084D01*
X523670Y88079D01*
X523592Y88077D01*
X523478Y88079D01*
X523365Y88084D01*
X523251Y88094D01*
X523138Y88107D01*
X523026Y88124D01*
X522914Y88144D01*
X522803Y88168D01*
X522692Y88196D01*
X522583Y88227D01*
X522475Y88262D01*
X522368Y88301D01*
X522262Y88343D01*
X522158Y88388D01*
X522055Y88437D01*
X521954Y88490D01*
X521855Y88545D01*
X521757Y88604D01*
X521662Y88666D01*
X521569Y88731D01*
X521477Y88799D01*
X521389Y88870D01*
X521302Y88944D01*
X521218Y89021D01*
X521137Y89100D01*
X521341Y93806D02*
X521343Y93884D01*
X521348Y93962D01*
X521358Y94039D01*
X521371Y94116D01*
X521387Y94192D01*
X521407Y94267D01*
X521431Y94341D01*
X521458Y94414D01*
X521489Y94486D01*
X521523Y94556D01*
X521560Y94625D01*
X521601Y94691D01*
X521645Y94756D01*
X521691Y94818D01*
X521741Y94878D01*
X521793Y94936D01*
X521848Y94991D01*
X521906Y95043D01*
X521966Y95093D01*
X522028Y95139D01*
X522093Y95183D01*
X522160Y95224D01*
X522228Y95261D01*
X522298Y95295D01*
X522370Y95326D01*
X522443Y95353D01*
X522517Y95377D01*
X522592Y95397D01*
X522668Y95413D01*
X522745Y95426D01*
X522822Y95436D01*
X522900Y95441D01*
X522978Y95443D01*
X523088Y95441D01*
X523197Y95435D01*
X523307Y95425D01*
X523415Y95412D01*
X523524Y95394D01*
X523631Y95373D01*
X523738Y95347D01*
X523844Y95318D01*
X523949Y95286D01*
X524052Y95249D01*
X524154Y95209D01*
X524255Y95165D01*
X524354Y95117D01*
X524451Y95067D01*
X524546Y95012D01*
X524639Y94954D01*
X524730Y94893D01*
X524819Y94829D01*
X522160Y92373D02*
X522093Y92415D01*
X522028Y92459D01*
X521966Y92507D01*
X521906Y92557D01*
X521848Y92610D01*
X521793Y92666D01*
X521741Y92725D01*
X521691Y92785D01*
X521644Y92849D01*
X521601Y92914D01*
X521560Y92981D01*
X521523Y93050D01*
X521489Y93121D01*
X521458Y93193D01*
X521431Y93267D01*
X521407Y93341D01*
X521387Y93417D01*
X521371Y93494D01*
X521358Y93571D01*
X521348Y93649D01*
X521343Y93728D01*
X521341Y93806D01*
X524411Y91146D02*
X524477Y91104D01*
X524542Y91060D01*
X524604Y91013D01*
X524664Y90962D01*
X524722Y90909D01*
X524777Y90853D01*
X524830Y90795D01*
X524879Y90734D01*
X524926Y90671D01*
X524969Y90606D01*
X525010Y90539D01*
X525047Y90470D01*
X525081Y90399D01*
X525112Y90327D01*
X525139Y90253D01*
X525163Y90178D01*
X525183Y90103D01*
X525199Y90026D01*
X525212Y89949D01*
X525222Y89871D01*
X525227Y89792D01*
X525229Y89714D01*
X524411Y91146D02*
X522160Y92374D01*
X528452Y95443D02*
X528452Y88077D01*
X528452Y95443D02*
X530498Y95443D01*
X530587Y95441D01*
X530676Y95435D01*
X530765Y95425D01*
X530853Y95412D01*
X530941Y95395D01*
X531028Y95373D01*
X531113Y95348D01*
X531198Y95320D01*
X531281Y95287D01*
X531363Y95251D01*
X531443Y95212D01*
X531521Y95169D01*
X531597Y95123D01*
X531672Y95073D01*
X531744Y95020D01*
X531813Y94964D01*
X531880Y94905D01*
X531945Y94844D01*
X532006Y94779D01*
X532065Y94712D01*
X532121Y94643D01*
X532174Y94571D01*
X532224Y94496D01*
X532270Y94420D01*
X532313Y94342D01*
X532352Y94262D01*
X532388Y94180D01*
X532421Y94097D01*
X532449Y94012D01*
X532474Y93927D01*
X532496Y93840D01*
X532513Y93752D01*
X532526Y93664D01*
X532536Y93575D01*
X532542Y93486D01*
X532544Y93397D01*
X532544Y90123D01*
X532542Y90034D01*
X532536Y89945D01*
X532526Y89856D01*
X532513Y89768D01*
X532496Y89680D01*
X532474Y89593D01*
X532449Y89508D01*
X532421Y89423D01*
X532388Y89340D01*
X532352Y89258D01*
X532313Y89178D01*
X532270Y89100D01*
X532224Y89024D01*
X532174Y88949D01*
X532121Y88877D01*
X532065Y88808D01*
X532006Y88741D01*
X531945Y88676D01*
X531880Y88615D01*
X531813Y88556D01*
X531744Y88500D01*
X531672Y88447D01*
X531597Y88397D01*
X531521Y88351D01*
X531443Y88308D01*
X531363Y88269D01*
X531281Y88233D01*
X531198Y88200D01*
X531113Y88172D01*
X531028Y88147D01*
X530941Y88125D01*
X530853Y88108D01*
X530765Y88095D01*
X530676Y88085D01*
X530587Y88079D01*
X530498Y88077D01*
X528452Y88077D01*
X536011Y93806D02*
X538057Y95443D01*
X538057Y88077D01*
X536011Y88077D02*
X540103Y88077D01*
X525229Y64314D02*
X525227Y64236D01*
X525222Y64158D01*
X525212Y64081D01*
X525199Y64004D01*
X525183Y63928D01*
X525163Y63853D01*
X525139Y63779D01*
X525112Y63706D01*
X525081Y63634D01*
X525047Y63564D01*
X525010Y63496D01*
X524969Y63429D01*
X524925Y63364D01*
X524879Y63302D01*
X524829Y63242D01*
X524777Y63184D01*
X524722Y63129D01*
X524664Y63077D01*
X524604Y63027D01*
X524542Y62981D01*
X524477Y62937D01*
X524411Y62896D01*
X524342Y62859D01*
X524272Y62825D01*
X524200Y62794D01*
X524127Y62767D01*
X524053Y62743D01*
X523978Y62723D01*
X523902Y62707D01*
X523825Y62694D01*
X523748Y62684D01*
X523670Y62679D01*
X523592Y62677D01*
X523478Y62679D01*
X523365Y62684D01*
X523251Y62694D01*
X523138Y62707D01*
X523026Y62724D01*
X522914Y62744D01*
X522803Y62768D01*
X522692Y62796D01*
X522583Y62827D01*
X522475Y62862D01*
X522368Y62901D01*
X522262Y62943D01*
X522158Y62988D01*
X522055Y63037D01*
X521954Y63090D01*
X521855Y63145D01*
X521757Y63204D01*
X521662Y63266D01*
X521569Y63331D01*
X521477Y63399D01*
X521389Y63470D01*
X521302Y63544D01*
X521218Y63621D01*
X521137Y63700D01*
X521341Y68406D02*
X521343Y68484D01*
X521348Y68562D01*
X521358Y68639D01*
X521371Y68716D01*
X521387Y68792D01*
X521407Y68867D01*
X521431Y68941D01*
X521458Y69014D01*
X521489Y69086D01*
X521523Y69156D01*
X521560Y69225D01*
X521601Y69291D01*
X521645Y69356D01*
X521691Y69418D01*
X521741Y69478D01*
X521793Y69536D01*
X521848Y69591D01*
X521906Y69643D01*
X521966Y69693D01*
X522028Y69739D01*
X522093Y69783D01*
X522160Y69824D01*
X522228Y69861D01*
X522298Y69895D01*
X522370Y69926D01*
X522443Y69953D01*
X522517Y69977D01*
X522592Y69997D01*
X522668Y70013D01*
X522745Y70026D01*
X522822Y70036D01*
X522900Y70041D01*
X522978Y70043D01*
X523088Y70041D01*
X523197Y70035D01*
X523307Y70025D01*
X523415Y70012D01*
X523524Y69994D01*
X523631Y69973D01*
X523738Y69947D01*
X523844Y69918D01*
X523949Y69886D01*
X524052Y69849D01*
X524154Y69809D01*
X524255Y69765D01*
X524354Y69717D01*
X524451Y69667D01*
X524546Y69612D01*
X524639Y69554D01*
X524730Y69493D01*
X524819Y69429D01*
X522160Y66973D02*
X522093Y67015D01*
X522028Y67059D01*
X521966Y67107D01*
X521906Y67157D01*
X521848Y67210D01*
X521793Y67266D01*
X521741Y67325D01*
X521691Y67385D01*
X521644Y67449D01*
X521601Y67514D01*
X521560Y67581D01*
X521523Y67650D01*
X521489Y67721D01*
X521458Y67793D01*
X521431Y67867D01*
X521407Y67941D01*
X521387Y68017D01*
X521371Y68094D01*
X521358Y68171D01*
X521348Y68249D01*
X521343Y68328D01*
X521341Y68406D01*
X524411Y65746D02*
X524477Y65704D01*
X524542Y65660D01*
X524604Y65613D01*
X524664Y65562D01*
X524722Y65509D01*
X524777Y65453D01*
X524830Y65395D01*
X524879Y65334D01*
X524926Y65271D01*
X524969Y65206D01*
X525010Y65139D01*
X525047Y65070D01*
X525081Y64999D01*
X525112Y64927D01*
X525139Y64853D01*
X525163Y64778D01*
X525183Y64703D01*
X525199Y64626D01*
X525212Y64549D01*
X525222Y64471D01*
X525227Y64392D01*
X525229Y64314D01*
X524411Y65746D02*
X522160Y66974D01*
X528452Y70043D02*
X528452Y62677D01*
X528452Y70043D02*
X530498Y70043D01*
X530587Y70041D01*
X530676Y70035D01*
X530765Y70025D01*
X530853Y70012D01*
X530941Y69995D01*
X531028Y69973D01*
X531113Y69948D01*
X531198Y69920D01*
X531281Y69887D01*
X531363Y69851D01*
X531443Y69812D01*
X531521Y69769D01*
X531597Y69723D01*
X531672Y69673D01*
X531744Y69620D01*
X531813Y69564D01*
X531880Y69505D01*
X531945Y69444D01*
X532006Y69379D01*
X532065Y69312D01*
X532121Y69243D01*
X532174Y69171D01*
X532224Y69096D01*
X532270Y69020D01*
X532313Y68942D01*
X532352Y68862D01*
X532388Y68780D01*
X532421Y68697D01*
X532449Y68612D01*
X532474Y68527D01*
X532496Y68440D01*
X532513Y68352D01*
X532526Y68264D01*
X532536Y68175D01*
X532542Y68086D01*
X532544Y67997D01*
X532544Y64723D01*
X532542Y64634D01*
X532536Y64545D01*
X532526Y64456D01*
X532513Y64368D01*
X532496Y64280D01*
X532474Y64193D01*
X532449Y64108D01*
X532421Y64023D01*
X532388Y63940D01*
X532352Y63858D01*
X532313Y63778D01*
X532270Y63700D01*
X532224Y63624D01*
X532174Y63549D01*
X532121Y63477D01*
X532065Y63408D01*
X532006Y63341D01*
X531945Y63276D01*
X531880Y63215D01*
X531813Y63156D01*
X531744Y63100D01*
X531672Y63047D01*
X531597Y62997D01*
X531521Y62951D01*
X531443Y62908D01*
X531363Y62869D01*
X531281Y62833D01*
X531198Y62800D01*
X531113Y62772D01*
X531028Y62747D01*
X530941Y62725D01*
X530853Y62708D01*
X530765Y62695D01*
X530676Y62685D01*
X530587Y62679D01*
X530498Y62677D01*
X528452Y62677D01*
X536011Y66360D02*
X536013Y66513D01*
X536019Y66666D01*
X536028Y66818D01*
X536042Y66971D01*
X536059Y67123D01*
X536080Y67274D01*
X536105Y67425D01*
X536134Y67575D01*
X536166Y67725D01*
X536203Y67873D01*
X536243Y68021D01*
X536286Y68168D01*
X536334Y68313D01*
X536385Y68457D01*
X536439Y68600D01*
X536498Y68742D01*
X536559Y68881D01*
X536625Y69020D01*
X536651Y69090D01*
X536681Y69160D01*
X536714Y69227D01*
X536750Y69293D01*
X536789Y69357D01*
X536832Y69419D01*
X536878Y69478D01*
X536926Y69536D01*
X536977Y69590D01*
X537031Y69643D01*
X537088Y69692D01*
X537147Y69739D01*
X537208Y69782D01*
X537271Y69823D01*
X537336Y69860D01*
X537403Y69895D01*
X537472Y69925D01*
X537542Y69953D01*
X537613Y69976D01*
X537685Y69997D01*
X537758Y70013D01*
X537832Y70026D01*
X537907Y70036D01*
X537982Y70041D01*
X538057Y70043D01*
X538132Y70041D01*
X538207Y70036D01*
X538282Y70026D01*
X538356Y70013D01*
X538429Y69997D01*
X538501Y69976D01*
X538572Y69953D01*
X538642Y69925D01*
X538711Y69895D01*
X538778Y69860D01*
X538843Y69823D01*
X538906Y69782D01*
X538967Y69739D01*
X539026Y69692D01*
X539083Y69643D01*
X539137Y69590D01*
X539188Y69536D01*
X539237Y69478D01*
X539282Y69419D01*
X539325Y69357D01*
X539364Y69293D01*
X539401Y69227D01*
X539433Y69159D01*
X539463Y69090D01*
X539489Y69020D01*
X539554Y68882D01*
X539616Y68742D01*
X539674Y68600D01*
X539729Y68457D01*
X539780Y68313D01*
X539828Y68168D01*
X539871Y68021D01*
X539911Y67874D01*
X539948Y67725D01*
X539980Y67575D01*
X540009Y67425D01*
X540034Y67274D01*
X540055Y67123D01*
X540072Y66971D01*
X540086Y66818D01*
X540095Y66666D01*
X540101Y66513D01*
X540103Y66360D01*
X536011Y66360D02*
X536013Y66207D01*
X536019Y66054D01*
X536028Y65901D01*
X536042Y65749D01*
X536059Y65597D01*
X536080Y65446D01*
X536105Y65295D01*
X536134Y65144D01*
X536166Y64995D01*
X536203Y64846D01*
X536243Y64699D01*
X536286Y64552D01*
X536334Y64407D01*
X536385Y64262D01*
X536440Y64120D01*
X536498Y63978D01*
X536560Y63838D01*
X536625Y63700D01*
X536651Y63629D01*
X536681Y63560D01*
X536714Y63493D01*
X536750Y63427D01*
X536789Y63363D01*
X536832Y63301D01*
X536878Y63242D01*
X536926Y63184D01*
X536977Y63130D01*
X537031Y63077D01*
X537088Y63028D01*
X537147Y62981D01*
X537208Y62938D01*
X537271Y62897D01*
X537336Y62860D01*
X537403Y62825D01*
X537472Y62795D01*
X537542Y62767D01*
X537613Y62744D01*
X537685Y62723D01*
X537758Y62707D01*
X537832Y62694D01*
X537907Y62684D01*
X537982Y62679D01*
X538057Y62677D01*
X539489Y63700D02*
X539554Y63838D01*
X539616Y63978D01*
X539674Y64120D01*
X539729Y64263D01*
X539780Y64407D01*
X539828Y64552D01*
X539871Y64699D01*
X539911Y64847D01*
X539948Y64995D01*
X539980Y65145D01*
X540009Y65295D01*
X540034Y65446D01*
X540055Y65597D01*
X540072Y65749D01*
X540086Y65902D01*
X540095Y66054D01*
X540101Y66207D01*
X540103Y66360D01*
X539489Y63700D02*
X539463Y63630D01*
X539433Y63560D01*
X539401Y63493D01*
X539364Y63427D01*
X539325Y63363D01*
X539282Y63301D01*
X539236Y63242D01*
X539188Y63184D01*
X539137Y63130D01*
X539083Y63077D01*
X539026Y63028D01*
X538967Y62981D01*
X538906Y62938D01*
X538843Y62897D01*
X538778Y62860D01*
X538711Y62825D01*
X538642Y62795D01*
X538572Y62767D01*
X538501Y62744D01*
X538429Y62723D01*
X538356Y62707D01*
X538282Y62694D01*
X538207Y62684D01*
X538132Y62679D01*
X538057Y62677D01*
X536420Y64314D02*
X539694Y68406D01*
X525437Y37277D02*
X523801Y37277D01*
X523723Y37279D01*
X523645Y37284D01*
X523568Y37294D01*
X523491Y37307D01*
X523415Y37323D01*
X523340Y37343D01*
X523266Y37367D01*
X523193Y37394D01*
X523121Y37425D01*
X523051Y37459D01*
X522983Y37496D01*
X522916Y37537D01*
X522851Y37581D01*
X522789Y37627D01*
X522729Y37677D01*
X522671Y37729D01*
X522616Y37784D01*
X522564Y37842D01*
X522514Y37902D01*
X522468Y37964D01*
X522424Y38029D01*
X522383Y38096D01*
X522346Y38164D01*
X522312Y38234D01*
X522281Y38306D01*
X522254Y38379D01*
X522230Y38453D01*
X522210Y38528D01*
X522194Y38604D01*
X522181Y38681D01*
X522171Y38758D01*
X522166Y38836D01*
X522164Y38914D01*
X522164Y43006D01*
X522166Y43086D01*
X522172Y43166D01*
X522182Y43246D01*
X522195Y43325D01*
X522213Y43404D01*
X522234Y43481D01*
X522260Y43557D01*
X522289Y43632D01*
X522321Y43706D01*
X522357Y43778D01*
X522397Y43848D01*
X522440Y43915D01*
X522486Y43981D01*
X522536Y44044D01*
X522588Y44105D01*
X522643Y44164D01*
X522702Y44219D01*
X522762Y44271D01*
X522826Y44321D01*
X522892Y44367D01*
X522959Y44410D01*
X523029Y44450D01*
X523101Y44486D01*
X523175Y44518D01*
X523249Y44547D01*
X523326Y44573D01*
X523403Y44594D01*
X523482Y44612D01*
X523561Y44625D01*
X523641Y44635D01*
X523721Y44641D01*
X523801Y44643D01*
X525437Y44643D01*
X528542Y44643D02*
X528542Y37277D01*
X531816Y37277D01*
X534984Y37277D02*
X534984Y44643D01*
X539076Y44643D02*
X534984Y40142D01*
X536621Y41778D02*
X539076Y37277D01*
X319329Y115114D02*
X319327Y115036D01*
X319322Y114958D01*
X319312Y114881D01*
X319299Y114804D01*
X319283Y114728D01*
X319263Y114653D01*
X319239Y114579D01*
X319212Y114506D01*
X319181Y114434D01*
X319147Y114364D01*
X319110Y114296D01*
X319069Y114229D01*
X319025Y114164D01*
X318979Y114102D01*
X318929Y114042D01*
X318877Y113984D01*
X318822Y113929D01*
X318764Y113877D01*
X318704Y113827D01*
X318642Y113781D01*
X318577Y113737D01*
X318511Y113696D01*
X318442Y113659D01*
X318372Y113625D01*
X318300Y113594D01*
X318227Y113567D01*
X318153Y113543D01*
X318078Y113523D01*
X318002Y113507D01*
X317925Y113494D01*
X317848Y113484D01*
X317770Y113479D01*
X317692Y113477D01*
X317578Y113479D01*
X317465Y113484D01*
X317351Y113494D01*
X317238Y113507D01*
X317126Y113524D01*
X317014Y113544D01*
X316903Y113568D01*
X316792Y113596D01*
X316683Y113627D01*
X316575Y113662D01*
X316468Y113701D01*
X316362Y113743D01*
X316258Y113788D01*
X316155Y113837D01*
X316054Y113890D01*
X315955Y113945D01*
X315857Y114004D01*
X315762Y114066D01*
X315669Y114131D01*
X315577Y114199D01*
X315489Y114270D01*
X315402Y114344D01*
X315318Y114421D01*
X315237Y114500D01*
X315441Y119206D02*
X315443Y119284D01*
X315448Y119362D01*
X315458Y119439D01*
X315471Y119516D01*
X315487Y119592D01*
X315507Y119667D01*
X315531Y119741D01*
X315558Y119814D01*
X315589Y119886D01*
X315623Y119956D01*
X315660Y120025D01*
X315701Y120091D01*
X315745Y120156D01*
X315791Y120218D01*
X315841Y120278D01*
X315893Y120336D01*
X315948Y120391D01*
X316006Y120443D01*
X316066Y120493D01*
X316128Y120539D01*
X316193Y120583D01*
X316260Y120624D01*
X316328Y120661D01*
X316398Y120695D01*
X316470Y120726D01*
X316543Y120753D01*
X316617Y120777D01*
X316692Y120797D01*
X316768Y120813D01*
X316845Y120826D01*
X316922Y120836D01*
X317000Y120841D01*
X317078Y120843D01*
X317188Y120841D01*
X317297Y120835D01*
X317407Y120825D01*
X317515Y120812D01*
X317624Y120794D01*
X317731Y120773D01*
X317838Y120747D01*
X317944Y120718D01*
X318049Y120686D01*
X318152Y120649D01*
X318254Y120609D01*
X318355Y120565D01*
X318454Y120517D01*
X318551Y120467D01*
X318646Y120412D01*
X318739Y120354D01*
X318830Y120293D01*
X318919Y120229D01*
X316260Y117773D02*
X316193Y117815D01*
X316128Y117859D01*
X316066Y117907D01*
X316006Y117957D01*
X315948Y118010D01*
X315893Y118066D01*
X315841Y118125D01*
X315791Y118185D01*
X315744Y118249D01*
X315701Y118314D01*
X315660Y118381D01*
X315623Y118450D01*
X315589Y118521D01*
X315558Y118593D01*
X315531Y118667D01*
X315507Y118741D01*
X315487Y118817D01*
X315471Y118894D01*
X315458Y118971D01*
X315448Y119049D01*
X315443Y119128D01*
X315441Y119206D01*
X318511Y116546D02*
X318577Y116504D01*
X318642Y116460D01*
X318704Y116413D01*
X318764Y116362D01*
X318822Y116309D01*
X318877Y116253D01*
X318930Y116195D01*
X318979Y116134D01*
X319026Y116071D01*
X319069Y116006D01*
X319110Y115939D01*
X319147Y115870D01*
X319181Y115799D01*
X319212Y115727D01*
X319239Y115653D01*
X319263Y115578D01*
X319283Y115503D01*
X319299Y115426D01*
X319312Y115349D01*
X319322Y115271D01*
X319327Y115192D01*
X319329Y115114D01*
X318511Y116546D02*
X316260Y117774D01*
X322552Y120843D02*
X322552Y113477D01*
X322552Y120843D02*
X324598Y120843D01*
X324687Y120841D01*
X324776Y120835D01*
X324865Y120825D01*
X324953Y120812D01*
X325041Y120795D01*
X325128Y120773D01*
X325213Y120748D01*
X325298Y120720D01*
X325381Y120687D01*
X325463Y120651D01*
X325543Y120612D01*
X325621Y120569D01*
X325697Y120523D01*
X325772Y120473D01*
X325844Y120420D01*
X325913Y120364D01*
X325980Y120305D01*
X326045Y120244D01*
X326106Y120179D01*
X326165Y120112D01*
X326221Y120043D01*
X326274Y119971D01*
X326324Y119896D01*
X326370Y119820D01*
X326413Y119742D01*
X326452Y119662D01*
X326488Y119580D01*
X326521Y119497D01*
X326549Y119412D01*
X326574Y119327D01*
X326596Y119240D01*
X326613Y119152D01*
X326626Y119064D01*
X326636Y118975D01*
X326642Y118886D01*
X326644Y118797D01*
X326644Y115523D01*
X326642Y115434D01*
X326636Y115345D01*
X326626Y115256D01*
X326613Y115168D01*
X326596Y115080D01*
X326574Y114993D01*
X326549Y114908D01*
X326521Y114823D01*
X326488Y114740D01*
X326452Y114658D01*
X326413Y114578D01*
X326370Y114500D01*
X326324Y114424D01*
X326274Y114349D01*
X326221Y114277D01*
X326165Y114208D01*
X326106Y114141D01*
X326045Y114076D01*
X325980Y114015D01*
X325913Y113956D01*
X325844Y113900D01*
X325772Y113847D01*
X325697Y113797D01*
X325621Y113751D01*
X325543Y113708D01*
X325463Y113669D01*
X325381Y113633D01*
X325298Y113600D01*
X325213Y113572D01*
X325128Y113547D01*
X325041Y113525D01*
X324953Y113508D01*
X324865Y113495D01*
X324776Y113485D01*
X324687Y113479D01*
X324598Y113477D01*
X322552Y113477D01*
X332362Y120844D02*
X332447Y120842D01*
X332532Y120836D01*
X332616Y120826D01*
X332700Y120813D01*
X332784Y120795D01*
X332866Y120774D01*
X332947Y120749D01*
X333027Y120720D01*
X333106Y120687D01*
X333183Y120651D01*
X333258Y120611D01*
X333332Y120568D01*
X333403Y120522D01*
X333472Y120472D01*
X333539Y120419D01*
X333603Y120363D01*
X333664Y120304D01*
X333723Y120243D01*
X333779Y120179D01*
X333832Y120112D01*
X333882Y120043D01*
X333928Y119972D01*
X333971Y119898D01*
X334011Y119823D01*
X334047Y119746D01*
X334080Y119667D01*
X334109Y119587D01*
X334134Y119506D01*
X334155Y119424D01*
X334173Y119340D01*
X334186Y119256D01*
X334196Y119172D01*
X334202Y119087D01*
X334204Y119002D01*
X332362Y120843D02*
X332266Y120841D01*
X332170Y120835D01*
X332075Y120825D01*
X331980Y120812D01*
X331885Y120794D01*
X331792Y120773D01*
X331699Y120748D01*
X331608Y120719D01*
X331517Y120687D01*
X331428Y120651D01*
X331341Y120611D01*
X331255Y120568D01*
X331171Y120522D01*
X331089Y120472D01*
X331009Y120418D01*
X330932Y120362D01*
X330857Y120302D01*
X330784Y120240D01*
X330714Y120174D01*
X330646Y120106D01*
X330581Y120035D01*
X330520Y119962D01*
X330461Y119886D01*
X330405Y119807D01*
X330353Y119727D01*
X330304Y119644D01*
X330258Y119560D01*
X330216Y119474D01*
X330178Y119386D01*
X330143Y119297D01*
X330111Y119206D01*
X333589Y117570D02*
X333649Y117629D01*
X333706Y117691D01*
X333761Y117755D01*
X333812Y117822D01*
X333861Y117891D01*
X333907Y117961D01*
X333950Y118034D01*
X333990Y118108D01*
X334026Y118184D01*
X334059Y118262D01*
X334089Y118341D01*
X334116Y118421D01*
X334139Y118502D01*
X334158Y118584D01*
X334174Y118666D01*
X334187Y118750D01*
X334196Y118834D01*
X334201Y118918D01*
X334203Y119002D01*
X333589Y117569D02*
X330111Y113477D01*
X334203Y113477D01*
X319329Y89714D02*
X319327Y89636D01*
X319322Y89558D01*
X319312Y89481D01*
X319299Y89404D01*
X319283Y89328D01*
X319263Y89253D01*
X319239Y89179D01*
X319212Y89106D01*
X319181Y89034D01*
X319147Y88964D01*
X319110Y88896D01*
X319069Y88829D01*
X319025Y88764D01*
X318979Y88702D01*
X318929Y88642D01*
X318877Y88584D01*
X318822Y88529D01*
X318764Y88477D01*
X318704Y88427D01*
X318642Y88381D01*
X318577Y88337D01*
X318511Y88296D01*
X318442Y88259D01*
X318372Y88225D01*
X318300Y88194D01*
X318227Y88167D01*
X318153Y88143D01*
X318078Y88123D01*
X318002Y88107D01*
X317925Y88094D01*
X317848Y88084D01*
X317770Y88079D01*
X317692Y88077D01*
X317578Y88079D01*
X317465Y88084D01*
X317351Y88094D01*
X317238Y88107D01*
X317126Y88124D01*
X317014Y88144D01*
X316903Y88168D01*
X316792Y88196D01*
X316683Y88227D01*
X316575Y88262D01*
X316468Y88301D01*
X316362Y88343D01*
X316258Y88388D01*
X316155Y88437D01*
X316054Y88490D01*
X315955Y88545D01*
X315857Y88604D01*
X315762Y88666D01*
X315669Y88731D01*
X315577Y88799D01*
X315489Y88870D01*
X315402Y88944D01*
X315318Y89021D01*
X315237Y89100D01*
X315441Y93806D02*
X315443Y93884D01*
X315448Y93962D01*
X315458Y94039D01*
X315471Y94116D01*
X315487Y94192D01*
X315507Y94267D01*
X315531Y94341D01*
X315558Y94414D01*
X315589Y94486D01*
X315623Y94556D01*
X315660Y94625D01*
X315701Y94691D01*
X315745Y94756D01*
X315791Y94818D01*
X315841Y94878D01*
X315893Y94936D01*
X315948Y94991D01*
X316006Y95043D01*
X316066Y95093D01*
X316128Y95139D01*
X316193Y95183D01*
X316260Y95224D01*
X316328Y95261D01*
X316398Y95295D01*
X316470Y95326D01*
X316543Y95353D01*
X316617Y95377D01*
X316692Y95397D01*
X316768Y95413D01*
X316845Y95426D01*
X316922Y95436D01*
X317000Y95441D01*
X317078Y95443D01*
X317188Y95441D01*
X317297Y95435D01*
X317407Y95425D01*
X317515Y95412D01*
X317624Y95394D01*
X317731Y95373D01*
X317838Y95347D01*
X317944Y95318D01*
X318049Y95286D01*
X318152Y95249D01*
X318254Y95209D01*
X318355Y95165D01*
X318454Y95117D01*
X318551Y95067D01*
X318646Y95012D01*
X318739Y94954D01*
X318830Y94893D01*
X318919Y94829D01*
X316260Y92373D02*
X316193Y92415D01*
X316128Y92459D01*
X316066Y92507D01*
X316006Y92557D01*
X315948Y92610D01*
X315893Y92666D01*
X315841Y92725D01*
X315791Y92785D01*
X315744Y92849D01*
X315701Y92914D01*
X315660Y92981D01*
X315623Y93050D01*
X315589Y93121D01*
X315558Y93193D01*
X315531Y93267D01*
X315507Y93341D01*
X315487Y93417D01*
X315471Y93494D01*
X315458Y93571D01*
X315448Y93649D01*
X315443Y93728D01*
X315441Y93806D01*
X318511Y91146D02*
X318577Y91104D01*
X318642Y91060D01*
X318704Y91013D01*
X318764Y90962D01*
X318822Y90909D01*
X318877Y90853D01*
X318930Y90795D01*
X318979Y90734D01*
X319026Y90671D01*
X319069Y90606D01*
X319110Y90539D01*
X319147Y90470D01*
X319181Y90399D01*
X319212Y90327D01*
X319239Y90253D01*
X319263Y90178D01*
X319283Y90103D01*
X319299Y90026D01*
X319312Y89949D01*
X319322Y89871D01*
X319327Y89792D01*
X319329Y89714D01*
X318511Y91146D02*
X316260Y92374D01*
X322552Y95443D02*
X322552Y88077D01*
X322552Y95443D02*
X324598Y95443D01*
X324687Y95441D01*
X324776Y95435D01*
X324865Y95425D01*
X324953Y95412D01*
X325041Y95395D01*
X325128Y95373D01*
X325213Y95348D01*
X325298Y95320D01*
X325381Y95287D01*
X325463Y95251D01*
X325543Y95212D01*
X325621Y95169D01*
X325697Y95123D01*
X325772Y95073D01*
X325844Y95020D01*
X325913Y94964D01*
X325980Y94905D01*
X326045Y94844D01*
X326106Y94779D01*
X326165Y94712D01*
X326221Y94643D01*
X326274Y94571D01*
X326324Y94496D01*
X326370Y94420D01*
X326413Y94342D01*
X326452Y94262D01*
X326488Y94180D01*
X326521Y94097D01*
X326549Y94012D01*
X326574Y93927D01*
X326596Y93840D01*
X326613Y93752D01*
X326626Y93664D01*
X326636Y93575D01*
X326642Y93486D01*
X326644Y93397D01*
X326644Y90123D01*
X326642Y90034D01*
X326636Y89945D01*
X326626Y89856D01*
X326613Y89768D01*
X326596Y89680D01*
X326574Y89593D01*
X326549Y89508D01*
X326521Y89423D01*
X326488Y89340D01*
X326452Y89258D01*
X326413Y89178D01*
X326370Y89100D01*
X326324Y89024D01*
X326274Y88949D01*
X326221Y88877D01*
X326165Y88808D01*
X326106Y88741D01*
X326045Y88676D01*
X325980Y88615D01*
X325913Y88556D01*
X325844Y88500D01*
X325772Y88447D01*
X325697Y88397D01*
X325621Y88351D01*
X325543Y88308D01*
X325463Y88269D01*
X325381Y88233D01*
X325298Y88200D01*
X325213Y88172D01*
X325128Y88147D01*
X325041Y88125D01*
X324953Y88108D01*
X324865Y88095D01*
X324776Y88085D01*
X324687Y88079D01*
X324598Y88077D01*
X322552Y88077D01*
X330111Y88077D02*
X332157Y88077D01*
X332246Y88079D01*
X332335Y88085D01*
X332424Y88095D01*
X332512Y88108D01*
X332600Y88125D01*
X332687Y88147D01*
X332772Y88172D01*
X332857Y88200D01*
X332940Y88233D01*
X333022Y88269D01*
X333102Y88308D01*
X333180Y88351D01*
X333256Y88397D01*
X333331Y88447D01*
X333403Y88500D01*
X333472Y88556D01*
X333539Y88615D01*
X333604Y88676D01*
X333665Y88741D01*
X333724Y88808D01*
X333780Y88877D01*
X333833Y88949D01*
X333883Y89024D01*
X333929Y89100D01*
X333972Y89178D01*
X334011Y89258D01*
X334047Y89340D01*
X334080Y89423D01*
X334108Y89508D01*
X334133Y89593D01*
X334155Y89680D01*
X334172Y89768D01*
X334185Y89856D01*
X334195Y89945D01*
X334201Y90034D01*
X334203Y90123D01*
X334201Y90212D01*
X334195Y90301D01*
X334185Y90390D01*
X334172Y90478D01*
X334155Y90566D01*
X334133Y90653D01*
X334108Y90738D01*
X334080Y90823D01*
X334047Y90906D01*
X334011Y90988D01*
X333972Y91068D01*
X333929Y91146D01*
X333883Y91222D01*
X333833Y91297D01*
X333780Y91369D01*
X333724Y91438D01*
X333665Y91505D01*
X333604Y91570D01*
X333539Y91631D01*
X333472Y91690D01*
X333403Y91746D01*
X333331Y91799D01*
X333256Y91849D01*
X333180Y91895D01*
X333102Y91938D01*
X333022Y91977D01*
X332940Y92013D01*
X332857Y92046D01*
X332772Y92074D01*
X332687Y92099D01*
X332600Y92121D01*
X332512Y92138D01*
X332424Y92151D01*
X332335Y92161D01*
X332246Y92167D01*
X332157Y92169D01*
X332566Y95443D02*
X330111Y95443D01*
X332566Y95443D02*
X332645Y95441D01*
X332724Y95435D01*
X332803Y95426D01*
X332881Y95413D01*
X332958Y95395D01*
X333034Y95375D01*
X333109Y95350D01*
X333183Y95322D01*
X333256Y95291D01*
X333327Y95255D01*
X333396Y95217D01*
X333463Y95175D01*
X333528Y95130D01*
X333591Y95082D01*
X333652Y95031D01*
X333709Y94977D01*
X333765Y94921D01*
X333817Y94862D01*
X333867Y94800D01*
X333913Y94736D01*
X333957Y94670D01*
X333997Y94602D01*
X334033Y94532D01*
X334067Y94460D01*
X334097Y94386D01*
X334123Y94312D01*
X334146Y94236D01*
X334164Y94159D01*
X334180Y94082D01*
X334191Y94003D01*
X334199Y93925D01*
X334203Y93846D01*
X334203Y93766D01*
X334199Y93687D01*
X334191Y93609D01*
X334180Y93530D01*
X334164Y93453D01*
X334146Y93376D01*
X334123Y93300D01*
X334097Y93226D01*
X334067Y93152D01*
X334033Y93080D01*
X333997Y93010D01*
X333957Y92942D01*
X333913Y92876D01*
X333867Y92812D01*
X333817Y92750D01*
X333765Y92691D01*
X333709Y92635D01*
X333652Y92581D01*
X333591Y92530D01*
X333528Y92482D01*
X333463Y92437D01*
X333396Y92395D01*
X333327Y92357D01*
X333256Y92321D01*
X333183Y92290D01*
X333109Y92262D01*
X333034Y92237D01*
X332958Y92217D01*
X332881Y92199D01*
X332803Y92186D01*
X332724Y92177D01*
X332645Y92171D01*
X332566Y92169D01*
X330929Y92169D01*
X318377Y62677D02*
X316740Y62677D01*
X316662Y62679D01*
X316584Y62684D01*
X316507Y62694D01*
X316430Y62707D01*
X316354Y62723D01*
X316279Y62743D01*
X316205Y62767D01*
X316132Y62794D01*
X316060Y62825D01*
X315990Y62859D01*
X315922Y62896D01*
X315855Y62937D01*
X315790Y62981D01*
X315728Y63027D01*
X315668Y63077D01*
X315610Y63129D01*
X315555Y63184D01*
X315503Y63242D01*
X315453Y63302D01*
X315407Y63364D01*
X315363Y63429D01*
X315322Y63496D01*
X315285Y63564D01*
X315251Y63634D01*
X315220Y63706D01*
X315193Y63779D01*
X315169Y63853D01*
X315149Y63928D01*
X315133Y64004D01*
X315120Y64081D01*
X315110Y64158D01*
X315105Y64236D01*
X315103Y64314D01*
X315103Y68406D01*
X315105Y68486D01*
X315111Y68566D01*
X315121Y68646D01*
X315134Y68725D01*
X315152Y68804D01*
X315173Y68881D01*
X315199Y68957D01*
X315228Y69032D01*
X315260Y69106D01*
X315296Y69178D01*
X315336Y69248D01*
X315379Y69315D01*
X315425Y69381D01*
X315475Y69444D01*
X315527Y69505D01*
X315582Y69564D01*
X315641Y69619D01*
X315701Y69671D01*
X315765Y69721D01*
X315831Y69767D01*
X315898Y69810D01*
X315968Y69850D01*
X316040Y69886D01*
X316114Y69918D01*
X316188Y69947D01*
X316265Y69973D01*
X316342Y69994D01*
X316421Y70012D01*
X316500Y70025D01*
X316580Y70035D01*
X316660Y70041D01*
X316740Y70043D01*
X318377Y70043D01*
X321545Y70043D02*
X321545Y62677D01*
X324000Y65951D02*
X321545Y70043D01*
X324000Y65951D02*
X326455Y70043D01*
X326455Y62677D01*
X330244Y62677D02*
X330244Y70043D01*
X332291Y70043D01*
X332380Y70041D01*
X332469Y70035D01*
X332558Y70025D01*
X332646Y70012D01*
X332734Y69995D01*
X332821Y69973D01*
X332906Y69948D01*
X332991Y69920D01*
X333074Y69887D01*
X333156Y69851D01*
X333236Y69812D01*
X333314Y69769D01*
X333390Y69723D01*
X333465Y69673D01*
X333537Y69620D01*
X333606Y69564D01*
X333673Y69505D01*
X333738Y69444D01*
X333799Y69379D01*
X333858Y69312D01*
X333914Y69243D01*
X333967Y69171D01*
X334017Y69096D01*
X334063Y69020D01*
X334106Y68942D01*
X334145Y68862D01*
X334181Y68780D01*
X334214Y68697D01*
X334242Y68612D01*
X334267Y68527D01*
X334289Y68440D01*
X334306Y68352D01*
X334319Y68264D01*
X334329Y68175D01*
X334335Y68086D01*
X334337Y67997D01*
X334337Y64723D01*
X334335Y64634D01*
X334329Y64545D01*
X334319Y64456D01*
X334306Y64368D01*
X334289Y64280D01*
X334267Y64193D01*
X334242Y64108D01*
X334214Y64023D01*
X334181Y63940D01*
X334145Y63858D01*
X334106Y63778D01*
X334063Y63700D01*
X334017Y63624D01*
X333967Y63549D01*
X333914Y63477D01*
X333858Y63408D01*
X333799Y63341D01*
X333738Y63276D01*
X333673Y63215D01*
X333606Y63156D01*
X333537Y63100D01*
X333465Y63047D01*
X333390Y62997D01*
X333314Y62951D01*
X333236Y62908D01*
X333156Y62869D01*
X333074Y62833D01*
X332991Y62800D01*
X332906Y62772D01*
X332821Y62747D01*
X332734Y62725D01*
X332646Y62708D01*
X332558Y62695D01*
X332469Y62685D01*
X332380Y62679D01*
X332291Y62677D01*
X330244Y62677D01*
X318812Y44643D02*
X321267Y37277D01*
X323722Y44643D01*
X326536Y37277D02*
X328991Y37277D01*
X329069Y37279D01*
X329147Y37284D01*
X329224Y37294D01*
X329301Y37307D01*
X329377Y37323D01*
X329452Y37343D01*
X329526Y37367D01*
X329599Y37394D01*
X329671Y37425D01*
X329741Y37459D01*
X329810Y37496D01*
X329876Y37537D01*
X329941Y37581D01*
X330003Y37627D01*
X330063Y37677D01*
X330121Y37729D01*
X330176Y37784D01*
X330228Y37842D01*
X330278Y37902D01*
X330324Y37964D01*
X330368Y38029D01*
X330409Y38096D01*
X330446Y38164D01*
X330480Y38234D01*
X330511Y38306D01*
X330538Y38379D01*
X330562Y38453D01*
X330582Y38528D01*
X330598Y38604D01*
X330611Y38681D01*
X330621Y38758D01*
X330626Y38836D01*
X330628Y38914D01*
X330628Y39732D01*
X330626Y39810D01*
X330621Y39888D01*
X330611Y39965D01*
X330598Y40042D01*
X330582Y40118D01*
X330562Y40193D01*
X330538Y40267D01*
X330511Y40340D01*
X330480Y40412D01*
X330446Y40482D01*
X330409Y40551D01*
X330368Y40617D01*
X330324Y40682D01*
X330278Y40744D01*
X330228Y40804D01*
X330176Y40862D01*
X330121Y40917D01*
X330063Y40969D01*
X330003Y41019D01*
X329941Y41065D01*
X329876Y41109D01*
X329810Y41150D01*
X329741Y41187D01*
X329671Y41221D01*
X329599Y41252D01*
X329526Y41279D01*
X329452Y41303D01*
X329377Y41323D01*
X329301Y41339D01*
X329224Y41352D01*
X329147Y41362D01*
X329069Y41367D01*
X328991Y41369D01*
X326536Y41369D01*
X326536Y44643D01*
X330628Y44643D01*
D12*
X357820Y320360D02*
X357822Y320519D01*
X357828Y320678D01*
X357838Y320836D01*
X357852Y320995D01*
X357870Y321153D01*
X357891Y321310D01*
X357917Y321467D01*
X357947Y321623D01*
X357980Y321779D01*
X358018Y321933D01*
X358059Y322087D01*
X358104Y322239D01*
X358153Y322390D01*
X358206Y322540D01*
X358262Y322689D01*
X358323Y322836D01*
X358386Y322981D01*
X358454Y323125D01*
X358525Y323268D01*
X358599Y323408D01*
X358677Y323546D01*
X358759Y323683D01*
X358844Y323817D01*
X358932Y323950D01*
X359023Y324080D01*
X359118Y324207D01*
X359216Y324332D01*
X359317Y324455D01*
X359421Y324575D01*
X359528Y324693D01*
X359638Y324808D01*
X359751Y324920D01*
X359866Y325029D01*
X359984Y325135D01*
X360105Y325239D01*
X360229Y325339D01*
X360354Y325436D01*
X360483Y325530D01*
X360613Y325620D01*
X360746Y325708D01*
X360881Y325792D01*
X361018Y325872D01*
X361157Y325950D01*
X361298Y326023D01*
X361440Y326093D01*
X361585Y326160D01*
X361731Y326223D01*
X361878Y326282D01*
X362027Y326338D01*
X362178Y326389D01*
X362329Y326437D01*
X362482Y326481D01*
X362636Y326522D01*
X362790Y326558D01*
X362946Y326591D01*
X363102Y326620D01*
X363259Y326644D01*
X363417Y326665D01*
X363575Y326682D01*
X363733Y326695D01*
X363892Y326704D01*
X364051Y326709D01*
X364210Y326710D01*
X364369Y326707D01*
X364527Y326700D01*
X364686Y326689D01*
X364844Y326674D01*
X365002Y326655D01*
X365159Y326632D01*
X365316Y326606D01*
X365472Y326575D01*
X365627Y326541D01*
X365781Y326502D01*
X365935Y326460D01*
X366087Y326414D01*
X366238Y326364D01*
X366387Y326310D01*
X366536Y326253D01*
X366682Y326192D01*
X366828Y326127D01*
X366971Y326059D01*
X367113Y325987D01*
X367253Y325911D01*
X367391Y325833D01*
X367527Y325750D01*
X367661Y325665D01*
X367792Y325576D01*
X367922Y325483D01*
X368049Y325388D01*
X368173Y325289D01*
X368296Y325187D01*
X368415Y325083D01*
X368532Y324975D01*
X368646Y324864D01*
X368757Y324751D01*
X368866Y324635D01*
X368971Y324516D01*
X369074Y324394D01*
X369173Y324270D01*
X369270Y324144D01*
X369363Y324015D01*
X369453Y323884D01*
X369539Y323750D01*
X369622Y323615D01*
X369702Y323477D01*
X369778Y323338D01*
X369851Y323197D01*
X369920Y323054D01*
X369986Y322909D01*
X370048Y322762D01*
X370106Y322615D01*
X370161Y322465D01*
X370212Y322315D01*
X370259Y322163D01*
X370302Y322010D01*
X370341Y321856D01*
X370377Y321701D01*
X370408Y321545D01*
X370436Y321389D01*
X370460Y321232D01*
X370480Y321074D01*
X370496Y320916D01*
X370508Y320757D01*
X370516Y320598D01*
X370520Y320439D01*
X370520Y320281D01*
X370516Y320122D01*
X370508Y319963D01*
X370496Y319804D01*
X370480Y319646D01*
X370460Y319488D01*
X370436Y319331D01*
X370408Y319175D01*
X370377Y319019D01*
X370341Y318864D01*
X370302Y318710D01*
X370259Y318557D01*
X370212Y318405D01*
X370161Y318255D01*
X370106Y318105D01*
X370048Y317958D01*
X369986Y317811D01*
X369920Y317666D01*
X369851Y317523D01*
X369778Y317382D01*
X369702Y317243D01*
X369622Y317105D01*
X369539Y316970D01*
X369453Y316836D01*
X369363Y316705D01*
X369270Y316576D01*
X369173Y316450D01*
X369074Y316326D01*
X368971Y316204D01*
X368866Y316085D01*
X368757Y315969D01*
X368646Y315856D01*
X368532Y315745D01*
X368415Y315637D01*
X368296Y315533D01*
X368173Y315431D01*
X368049Y315332D01*
X367922Y315237D01*
X367792Y315144D01*
X367661Y315055D01*
X367527Y314970D01*
X367391Y314887D01*
X367253Y314809D01*
X367113Y314733D01*
X366971Y314661D01*
X366828Y314593D01*
X366682Y314528D01*
X366536Y314467D01*
X366387Y314410D01*
X366238Y314356D01*
X366087Y314306D01*
X365935Y314260D01*
X365781Y314218D01*
X365627Y314179D01*
X365472Y314145D01*
X365316Y314114D01*
X365159Y314088D01*
X365002Y314065D01*
X364844Y314046D01*
X364686Y314031D01*
X364527Y314020D01*
X364369Y314013D01*
X364210Y314010D01*
X364051Y314011D01*
X363892Y314016D01*
X363733Y314025D01*
X363575Y314038D01*
X363417Y314055D01*
X363259Y314076D01*
X363102Y314100D01*
X362946Y314129D01*
X362790Y314162D01*
X362636Y314198D01*
X362482Y314239D01*
X362329Y314283D01*
X362178Y314331D01*
X362027Y314382D01*
X361878Y314438D01*
X361731Y314497D01*
X361585Y314560D01*
X361440Y314627D01*
X361298Y314697D01*
X361157Y314770D01*
X361018Y314848D01*
X360881Y314928D01*
X360746Y315012D01*
X360613Y315100D01*
X360483Y315190D01*
X360354Y315284D01*
X360229Y315381D01*
X360105Y315481D01*
X359984Y315585D01*
X359866Y315691D01*
X359751Y315800D01*
X359638Y315912D01*
X359528Y316027D01*
X359421Y316145D01*
X359317Y316265D01*
X359216Y316388D01*
X359118Y316513D01*
X359023Y316640D01*
X358932Y316770D01*
X358844Y316903D01*
X358759Y317037D01*
X358677Y317174D01*
X358599Y317312D01*
X358525Y317452D01*
X358454Y317595D01*
X358386Y317739D01*
X358323Y317884D01*
X358262Y318031D01*
X358206Y318180D01*
X358153Y318330D01*
X358104Y318481D01*
X358059Y318633D01*
X358018Y318787D01*
X357980Y318941D01*
X357947Y319097D01*
X357917Y319253D01*
X357891Y319410D01*
X357870Y319567D01*
X357852Y319725D01*
X357838Y319884D01*
X357828Y320042D01*
X357822Y320201D01*
X357820Y320360D01*
D11*
X294234Y516281D02*
X294234Y525679D01*
X296845Y525679D01*
X296946Y525677D01*
X297047Y525671D01*
X297148Y525661D01*
X297248Y525648D01*
X297348Y525630D01*
X297447Y525609D01*
X297545Y525583D01*
X297642Y525554D01*
X297738Y525522D01*
X297832Y525485D01*
X297925Y525445D01*
X298017Y525401D01*
X298106Y525354D01*
X298194Y525303D01*
X298280Y525249D01*
X298363Y525192D01*
X298445Y525132D01*
X298523Y525068D01*
X298600Y525002D01*
X298673Y524932D01*
X298744Y524860D01*
X298812Y524785D01*
X298877Y524707D01*
X298939Y524627D01*
X298998Y524545D01*
X299054Y524460D01*
X299106Y524374D01*
X299155Y524285D01*
X299201Y524194D01*
X299242Y524102D01*
X299281Y524008D01*
X299315Y523913D01*
X299346Y523817D01*
X299373Y523719D01*
X299397Y523621D01*
X299416Y523521D01*
X299432Y523421D01*
X299444Y523321D01*
X299452Y523220D01*
X299456Y523119D01*
X299456Y523017D01*
X299452Y522916D01*
X299444Y522815D01*
X299432Y522715D01*
X299416Y522615D01*
X299397Y522515D01*
X299373Y522417D01*
X299346Y522319D01*
X299315Y522223D01*
X299281Y522128D01*
X299242Y522034D01*
X299201Y521942D01*
X299155Y521851D01*
X299106Y521763D01*
X299054Y521676D01*
X298998Y521591D01*
X298939Y521509D01*
X298877Y521429D01*
X298812Y521351D01*
X298744Y521276D01*
X298673Y521204D01*
X298600Y521134D01*
X298523Y521068D01*
X298445Y521004D01*
X298363Y520944D01*
X298280Y520887D01*
X298194Y520833D01*
X298106Y520782D01*
X298017Y520735D01*
X297925Y520691D01*
X297832Y520651D01*
X297738Y520614D01*
X297642Y520582D01*
X297545Y520553D01*
X297447Y520527D01*
X297348Y520506D01*
X297248Y520488D01*
X297148Y520475D01*
X297047Y520465D01*
X296946Y520459D01*
X296845Y520457D01*
X296845Y520458D02*
X294234Y520458D01*
X302809Y522546D02*
X302809Y516281D01*
X302548Y525157D02*
X302548Y525679D01*
X303070Y525679D01*
X303070Y525157D01*
X302548Y525157D01*
X306817Y522546D02*
X306817Y516281D01*
X306817Y522546D02*
X309427Y522546D01*
X309504Y522544D01*
X309580Y522538D01*
X309657Y522529D01*
X309733Y522516D01*
X309808Y522499D01*
X309882Y522479D01*
X309955Y522454D01*
X310026Y522427D01*
X310097Y522396D01*
X310165Y522361D01*
X310232Y522323D01*
X310297Y522282D01*
X310360Y522238D01*
X310420Y522191D01*
X310479Y522140D01*
X310534Y522087D01*
X310587Y522032D01*
X310638Y521973D01*
X310685Y521913D01*
X310729Y521850D01*
X310770Y521785D01*
X310808Y521718D01*
X310843Y521650D01*
X310874Y521579D01*
X310901Y521508D01*
X310926Y521435D01*
X310946Y521361D01*
X310963Y521286D01*
X310976Y521210D01*
X310985Y521134D01*
X310991Y521057D01*
X310993Y520980D01*
X310994Y520980D02*
X310994Y516281D01*
X315134Y523591D02*
X317744Y525679D01*
X317744Y516281D01*
X315134Y516281D02*
X320355Y516281D01*
X326366Y520458D02*
X329499Y520458D01*
X326366Y520458D02*
X326277Y520460D01*
X326189Y520466D01*
X326101Y520475D01*
X326013Y520488D01*
X325926Y520505D01*
X325840Y520525D01*
X325755Y520550D01*
X325670Y520577D01*
X325587Y520609D01*
X325506Y520643D01*
X325426Y520682D01*
X325348Y520723D01*
X325271Y520768D01*
X325197Y520816D01*
X325124Y520867D01*
X325054Y520921D01*
X324987Y520979D01*
X324921Y521039D01*
X324859Y521101D01*
X324799Y521167D01*
X324741Y521234D01*
X324687Y521304D01*
X324636Y521377D01*
X324588Y521451D01*
X324543Y521528D01*
X324502Y521606D01*
X324463Y521686D01*
X324429Y521767D01*
X324397Y521850D01*
X324370Y521935D01*
X324345Y522020D01*
X324325Y522106D01*
X324308Y522193D01*
X324295Y522281D01*
X324286Y522369D01*
X324280Y522457D01*
X324278Y522546D01*
X324278Y523068D01*
X324277Y523068D02*
X324279Y523169D01*
X324285Y523270D01*
X324295Y523371D01*
X324308Y523471D01*
X324326Y523571D01*
X324347Y523670D01*
X324373Y523768D01*
X324402Y523865D01*
X324434Y523961D01*
X324471Y524055D01*
X324511Y524148D01*
X324555Y524240D01*
X324602Y524329D01*
X324653Y524417D01*
X324707Y524503D01*
X324764Y524586D01*
X324824Y524668D01*
X324888Y524746D01*
X324954Y524823D01*
X325024Y524896D01*
X325096Y524967D01*
X325171Y525035D01*
X325249Y525100D01*
X325329Y525162D01*
X325411Y525221D01*
X325496Y525277D01*
X325583Y525329D01*
X325671Y525378D01*
X325762Y525424D01*
X325854Y525465D01*
X325948Y525504D01*
X326043Y525538D01*
X326139Y525569D01*
X326237Y525596D01*
X326335Y525620D01*
X326435Y525639D01*
X326535Y525655D01*
X326635Y525667D01*
X326736Y525675D01*
X326837Y525679D01*
X326939Y525679D01*
X327040Y525675D01*
X327141Y525667D01*
X327241Y525655D01*
X327341Y525639D01*
X327441Y525620D01*
X327539Y525596D01*
X327637Y525569D01*
X327733Y525538D01*
X327828Y525504D01*
X327922Y525465D01*
X328014Y525424D01*
X328105Y525378D01*
X328194Y525329D01*
X328280Y525277D01*
X328365Y525221D01*
X328447Y525162D01*
X328527Y525100D01*
X328605Y525035D01*
X328680Y524967D01*
X328752Y524896D01*
X328822Y524823D01*
X328888Y524746D01*
X328952Y524668D01*
X329012Y524586D01*
X329069Y524503D01*
X329123Y524417D01*
X329174Y524329D01*
X329221Y524240D01*
X329265Y524148D01*
X329305Y524055D01*
X329342Y523961D01*
X329374Y523865D01*
X329403Y523768D01*
X329429Y523670D01*
X329450Y523571D01*
X329468Y523471D01*
X329481Y523371D01*
X329491Y523270D01*
X329497Y523169D01*
X329499Y523068D01*
X329499Y520458D01*
X329497Y520332D01*
X329491Y520206D01*
X329482Y520080D01*
X329469Y519955D01*
X329451Y519830D01*
X329431Y519705D01*
X329406Y519581D01*
X329378Y519458D01*
X329346Y519336D01*
X329310Y519215D01*
X329271Y519095D01*
X329228Y518977D01*
X329181Y518860D01*
X329131Y518744D01*
X329077Y518629D01*
X329021Y518517D01*
X328960Y518406D01*
X328897Y518297D01*
X328830Y518190D01*
X328760Y518085D01*
X328686Y517982D01*
X328610Y517882D01*
X328531Y517784D01*
X328449Y517688D01*
X328363Y517595D01*
X328276Y517504D01*
X328185Y517417D01*
X328092Y517331D01*
X327996Y517249D01*
X327898Y517170D01*
X327798Y517094D01*
X327695Y517020D01*
X327590Y516950D01*
X327483Y516883D01*
X327374Y516820D01*
X327263Y516759D01*
X327151Y516703D01*
X327036Y516649D01*
X326920Y516599D01*
X326803Y516552D01*
X326685Y516509D01*
X326565Y516470D01*
X326444Y516434D01*
X326322Y516402D01*
X326199Y516374D01*
X326075Y516349D01*
X325950Y516329D01*
X325825Y516311D01*
X325700Y516298D01*
X325574Y516289D01*
X325448Y516283D01*
X325322Y516281D01*
X525414Y513781D02*
X525414Y523179D01*
X528025Y523179D01*
X528126Y523177D01*
X528227Y523171D01*
X528328Y523161D01*
X528428Y523148D01*
X528528Y523130D01*
X528627Y523109D01*
X528725Y523083D01*
X528822Y523054D01*
X528918Y523022D01*
X529012Y522985D01*
X529105Y522945D01*
X529197Y522901D01*
X529286Y522854D01*
X529374Y522803D01*
X529460Y522749D01*
X529543Y522692D01*
X529625Y522632D01*
X529703Y522568D01*
X529780Y522502D01*
X529853Y522432D01*
X529924Y522360D01*
X529992Y522285D01*
X530057Y522207D01*
X530119Y522127D01*
X530178Y522045D01*
X530234Y521960D01*
X530286Y521873D01*
X530335Y521785D01*
X530381Y521694D01*
X530422Y521602D01*
X530461Y521508D01*
X530495Y521413D01*
X530526Y521317D01*
X530553Y521219D01*
X530577Y521121D01*
X530596Y521021D01*
X530612Y520921D01*
X530624Y520821D01*
X530632Y520720D01*
X530636Y520619D01*
X530636Y520517D01*
X530632Y520416D01*
X530624Y520315D01*
X530612Y520215D01*
X530596Y520115D01*
X530577Y520015D01*
X530553Y519917D01*
X530526Y519819D01*
X530495Y519723D01*
X530461Y519628D01*
X530422Y519534D01*
X530381Y519442D01*
X530335Y519351D01*
X530286Y519263D01*
X530234Y519176D01*
X530178Y519091D01*
X530119Y519009D01*
X530057Y518929D01*
X529992Y518851D01*
X529924Y518776D01*
X529853Y518704D01*
X529780Y518634D01*
X529703Y518568D01*
X529625Y518504D01*
X529543Y518444D01*
X529460Y518387D01*
X529374Y518333D01*
X529286Y518282D01*
X529197Y518235D01*
X529105Y518191D01*
X529012Y518151D01*
X528918Y518114D01*
X528822Y518082D01*
X528725Y518053D01*
X528627Y518027D01*
X528528Y518006D01*
X528428Y517988D01*
X528328Y517975D01*
X528227Y517965D01*
X528126Y517959D01*
X528025Y517957D01*
X528025Y517958D02*
X525414Y517958D01*
X533989Y520046D02*
X533989Y513781D01*
X533728Y522657D02*
X533728Y523179D01*
X534250Y523179D01*
X534250Y522657D01*
X533728Y522657D01*
X537997Y520046D02*
X537997Y513781D01*
X537997Y520046D02*
X540607Y520046D01*
X540684Y520044D01*
X540760Y520038D01*
X540837Y520029D01*
X540913Y520016D01*
X540988Y519999D01*
X541062Y519979D01*
X541135Y519954D01*
X541206Y519927D01*
X541277Y519896D01*
X541345Y519861D01*
X541412Y519823D01*
X541477Y519782D01*
X541540Y519738D01*
X541600Y519691D01*
X541659Y519640D01*
X541714Y519587D01*
X541767Y519532D01*
X541818Y519473D01*
X541865Y519413D01*
X541909Y519350D01*
X541950Y519285D01*
X541988Y519218D01*
X542023Y519150D01*
X542054Y519079D01*
X542081Y519008D01*
X542106Y518935D01*
X542126Y518861D01*
X542143Y518786D01*
X542156Y518710D01*
X542165Y518634D01*
X542171Y518557D01*
X542173Y518480D01*
X542174Y518480D02*
X542174Y513781D01*
X551536Y520830D02*
X551534Y520925D01*
X551528Y521019D01*
X551519Y521113D01*
X551506Y521207D01*
X551489Y521300D01*
X551468Y521392D01*
X551443Y521484D01*
X551415Y521574D01*
X551383Y521663D01*
X551348Y521751D01*
X551309Y521837D01*
X551267Y521922D01*
X551221Y522005D01*
X551172Y522086D01*
X551120Y522165D01*
X551065Y522242D01*
X551006Y522316D01*
X550945Y522388D01*
X550881Y522458D01*
X550814Y522525D01*
X550744Y522589D01*
X550672Y522650D01*
X550598Y522709D01*
X550521Y522764D01*
X550442Y522816D01*
X550361Y522865D01*
X550278Y522911D01*
X550193Y522953D01*
X550107Y522992D01*
X550019Y523027D01*
X549930Y523059D01*
X549840Y523087D01*
X549748Y523112D01*
X549656Y523133D01*
X549563Y523150D01*
X549469Y523163D01*
X549375Y523172D01*
X549281Y523178D01*
X549186Y523180D01*
X549186Y523179D02*
X549078Y523177D01*
X548969Y523171D01*
X548861Y523161D01*
X548754Y523148D01*
X548647Y523130D01*
X548540Y523109D01*
X548435Y523084D01*
X548330Y523055D01*
X548227Y523023D01*
X548125Y522986D01*
X548024Y522946D01*
X547925Y522903D01*
X547827Y522856D01*
X547731Y522805D01*
X547637Y522751D01*
X547545Y522694D01*
X547455Y522633D01*
X547367Y522569D01*
X547282Y522503D01*
X547199Y522433D01*
X547119Y522360D01*
X547041Y522284D01*
X546966Y522206D01*
X546894Y522125D01*
X546825Y522041D01*
X546759Y521955D01*
X546696Y521867D01*
X546637Y521776D01*
X546580Y521684D01*
X546527Y521589D01*
X546478Y521493D01*
X546432Y521394D01*
X546389Y521295D01*
X546350Y521193D01*
X546315Y521091D01*
X550752Y519002D02*
X550821Y519071D01*
X550887Y519142D01*
X550951Y519215D01*
X551012Y519291D01*
X551070Y519370D01*
X551124Y519450D01*
X551176Y519533D01*
X551224Y519617D01*
X551270Y519703D01*
X551311Y519791D01*
X551350Y519881D01*
X551385Y519972D01*
X551416Y520064D01*
X551444Y520157D01*
X551468Y520251D01*
X551488Y520346D01*
X551505Y520442D01*
X551518Y520539D01*
X551527Y520636D01*
X551533Y520733D01*
X551535Y520830D01*
X550752Y519002D02*
X546314Y513781D01*
X551535Y513781D01*
X555458Y518480D02*
X555460Y518665D01*
X555467Y518850D01*
X555478Y519034D01*
X555493Y519218D01*
X555513Y519402D01*
X555537Y519586D01*
X555566Y519768D01*
X555599Y519950D01*
X555636Y520131D01*
X555678Y520311D01*
X555724Y520491D01*
X555774Y520669D01*
X555828Y520845D01*
X555887Y521021D01*
X555949Y521195D01*
X556016Y521367D01*
X556087Y521538D01*
X556162Y521707D01*
X556241Y521874D01*
X556240Y521874D02*
X556270Y521954D01*
X556303Y522033D01*
X556340Y522110D01*
X556380Y522186D01*
X556423Y522260D01*
X556469Y522332D01*
X556519Y522401D01*
X556571Y522469D01*
X556627Y522534D01*
X556685Y522597D01*
X556747Y522656D01*
X556810Y522714D01*
X556877Y522768D01*
X556945Y522819D01*
X557016Y522867D01*
X557089Y522912D01*
X557163Y522954D01*
X557240Y522992D01*
X557318Y523027D01*
X557397Y523059D01*
X557478Y523087D01*
X557560Y523111D01*
X557644Y523132D01*
X557727Y523149D01*
X557812Y523162D01*
X557897Y523171D01*
X557982Y523177D01*
X558068Y523179D01*
X558154Y523177D01*
X558239Y523171D01*
X558324Y523162D01*
X558409Y523149D01*
X558492Y523132D01*
X558576Y523111D01*
X558658Y523087D01*
X558739Y523059D01*
X558818Y523027D01*
X558896Y522992D01*
X558973Y522954D01*
X559047Y522912D01*
X559120Y522867D01*
X559191Y522819D01*
X559259Y522768D01*
X559326Y522714D01*
X559389Y522656D01*
X559451Y522597D01*
X559509Y522534D01*
X559565Y522469D01*
X559617Y522401D01*
X559667Y522332D01*
X559713Y522260D01*
X559756Y522186D01*
X559796Y522110D01*
X559833Y522033D01*
X559866Y521954D01*
X559896Y521874D01*
X559975Y521707D01*
X560050Y521538D01*
X560121Y521367D01*
X560188Y521195D01*
X560250Y521021D01*
X560309Y520845D01*
X560363Y520669D01*
X560413Y520491D01*
X560459Y520311D01*
X560501Y520131D01*
X560538Y519950D01*
X560571Y519768D01*
X560600Y519586D01*
X560624Y519402D01*
X560644Y519218D01*
X560659Y519034D01*
X560670Y518850D01*
X560677Y518665D01*
X560679Y518480D01*
X555458Y518480D02*
X555460Y518295D01*
X555467Y518110D01*
X555478Y517926D01*
X555493Y517742D01*
X555513Y517558D01*
X555537Y517374D01*
X555566Y517192D01*
X555599Y517010D01*
X555636Y516829D01*
X555678Y516649D01*
X555724Y516469D01*
X555774Y516291D01*
X555828Y516115D01*
X555887Y515939D01*
X555949Y515765D01*
X556016Y515593D01*
X556087Y515422D01*
X556162Y515253D01*
X556241Y515086D01*
X556240Y515086D02*
X556270Y515006D01*
X556303Y514927D01*
X556340Y514850D01*
X556380Y514774D01*
X556423Y514700D01*
X556469Y514628D01*
X556519Y514559D01*
X556572Y514491D01*
X556627Y514426D01*
X556686Y514363D01*
X556747Y514304D01*
X556810Y514246D01*
X556877Y514192D01*
X556945Y514141D01*
X557016Y514093D01*
X557089Y514048D01*
X557163Y514006D01*
X557240Y513968D01*
X557318Y513933D01*
X557397Y513901D01*
X557478Y513873D01*
X557560Y513849D01*
X557644Y513828D01*
X557727Y513811D01*
X557812Y513798D01*
X557897Y513789D01*
X557982Y513783D01*
X558068Y513781D01*
X559896Y515086D02*
X559975Y515253D01*
X560050Y515422D01*
X560121Y515593D01*
X560188Y515765D01*
X560250Y515939D01*
X560309Y516115D01*
X560363Y516291D01*
X560413Y516469D01*
X560459Y516649D01*
X560501Y516829D01*
X560538Y517010D01*
X560571Y517192D01*
X560600Y517374D01*
X560624Y517558D01*
X560644Y517742D01*
X560659Y517926D01*
X560670Y518110D01*
X560677Y518295D01*
X560679Y518480D01*
X559896Y515086D02*
X559866Y515006D01*
X559833Y514927D01*
X559796Y514850D01*
X559756Y514774D01*
X559713Y514700D01*
X559667Y514628D01*
X559617Y514559D01*
X559565Y514491D01*
X559509Y514426D01*
X559451Y514363D01*
X559389Y514304D01*
X559326Y514246D01*
X559259Y514192D01*
X559191Y514141D01*
X559120Y514093D01*
X559047Y514048D01*
X558973Y514006D01*
X558896Y513968D01*
X558818Y513933D01*
X558739Y513901D01*
X558658Y513873D01*
X558576Y513849D01*
X558492Y513828D01*
X558409Y513811D01*
X558324Y513798D01*
X558239Y513789D01*
X558154Y513783D01*
X558068Y513781D01*
X555980Y515869D02*
X560157Y521091D01*
D13*
X260380Y175580D02*
X20350Y175580D01*
X20350Y561660D01*
X260380Y561660D02*
X260380Y175580D01*
X260380Y561660D02*
X20350Y561660D01*
X69880Y364810D02*
X210850Y364810D01*
X69880Y364810D02*
X69880Y560390D01*
X210850Y560390D02*
X210850Y364810D01*
X210850Y560390D02*
X69880Y560390D01*
D11*
X123708Y76896D02*
X128619Y76896D01*
X257058Y75118D02*
X261969Y75118D01*
X259514Y77573D02*
X259514Y72662D01*
D12*
X217500Y42580D02*
X217500Y20000D01*
X167500Y20000D01*
X167500Y42580D01*
X217500Y42580D02*
X218379Y43182D01*
X219244Y43805D01*
X220094Y44449D01*
X220928Y45112D01*
X221746Y45795D01*
X222548Y46497D01*
X223333Y47218D01*
X224101Y47957D01*
X224851Y48715D01*
X225583Y49490D01*
X226296Y50281D01*
X226991Y51090D01*
X227666Y51915D01*
X228321Y52756D01*
X228956Y53611D01*
X229571Y54482D01*
X230165Y55367D01*
X230738Y56266D01*
X231289Y57178D01*
X231819Y58103D01*
X232327Y59040D01*
X232812Y59989D01*
X233274Y60949D01*
X233714Y61920D01*
X234131Y62901D01*
X234524Y63892D01*
X234894Y64892D01*
X235240Y65900D01*
X235240Y94100D02*
X234885Y95135D01*
X234505Y96162D01*
X234100Y97178D01*
X233671Y98185D01*
X233217Y99181D01*
X232739Y100166D01*
X232237Y101139D01*
X231712Y102099D01*
X231163Y103046D01*
X230592Y103980D01*
X229998Y104899D01*
X229382Y105804D01*
X228744Y106693D01*
X228085Y107567D01*
X227405Y108424D01*
X226704Y109265D01*
X225982Y110088D01*
X225241Y110893D01*
X224481Y111680D01*
X223702Y112449D01*
X222904Y113198D01*
X222088Y113928D01*
X221255Y114638D01*
X220404Y115327D01*
X219538Y115995D01*
X218655Y116642D01*
X217757Y117267D01*
X216843Y117871D01*
X215916Y118451D01*
X214974Y119010D01*
X214019Y119545D01*
X213052Y120056D01*
X212072Y120544D01*
X211081Y121008D01*
X210079Y121448D01*
X209066Y121864D01*
X208044Y122254D01*
X207012Y122620D01*
X205972Y122960D01*
X204924Y123275D01*
X203868Y123564D01*
X202806Y123828D01*
X201737Y124066D01*
X200664Y124277D01*
X199585Y124463D01*
X198502Y124622D01*
X197416Y124755D01*
X196326Y124861D01*
X195235Y124941D01*
X194141Y124994D01*
X193047Y125021D01*
X191953Y125021D01*
X190859Y124994D01*
X189765Y124941D01*
X188674Y124861D01*
X187584Y124755D01*
X186498Y124622D01*
X185415Y124463D01*
X184336Y124277D01*
X183263Y124066D01*
X182194Y123828D01*
X181132Y123564D01*
X180076Y123275D01*
X179028Y122960D01*
X177988Y122620D01*
X176956Y122254D01*
X175934Y121864D01*
X174921Y121448D01*
X173919Y121008D01*
X172928Y120544D01*
X171948Y120056D01*
X170981Y119545D01*
X170026Y119010D01*
X169084Y118451D01*
X168157Y117871D01*
X167243Y117267D01*
X166345Y116642D01*
X165462Y115995D01*
X164596Y115327D01*
X163745Y114638D01*
X162912Y113928D01*
X162096Y113198D01*
X161298Y112449D01*
X160519Y111680D01*
X159759Y110893D01*
X159018Y110088D01*
X158296Y109265D01*
X157595Y108424D01*
X156915Y107567D01*
X156256Y106693D01*
X155618Y105804D01*
X155002Y104899D01*
X154408Y103980D01*
X153837Y103046D01*
X153288Y102099D01*
X152763Y101139D01*
X152261Y100166D01*
X151783Y99181D01*
X151329Y98185D01*
X150900Y97178D01*
X150495Y96162D01*
X150115Y95135D01*
X149760Y94100D01*
X149760Y65900D02*
X150106Y64892D01*
X150476Y63892D01*
X150869Y62901D01*
X151286Y61920D01*
X151726Y60949D01*
X152188Y59989D01*
X152673Y59040D01*
X153181Y58103D01*
X153711Y57178D01*
X154262Y56266D01*
X154835Y55367D01*
X155429Y54482D01*
X156044Y53611D01*
X156679Y52756D01*
X157334Y51915D01*
X158009Y51090D01*
X158704Y50281D01*
X159417Y49490D01*
X160149Y48715D01*
X160899Y47957D01*
X161667Y47218D01*
X162452Y46497D01*
X163254Y45795D01*
X164072Y45112D01*
X164906Y44449D01*
X165756Y43805D01*
X166621Y43182D01*
X167500Y42580D01*
D14*
X182081Y72958D02*
X182081Y84642D01*
X182081Y72958D02*
X187273Y72958D01*
X195097Y72958D02*
X195196Y72960D01*
X195296Y72966D01*
X195395Y72975D01*
X195493Y72988D01*
X195591Y73005D01*
X195689Y73026D01*
X195785Y73051D01*
X195880Y73079D01*
X195974Y73111D01*
X196067Y73146D01*
X196159Y73185D01*
X196249Y73228D01*
X196337Y73273D01*
X196424Y73323D01*
X196508Y73375D01*
X196591Y73431D01*
X196671Y73489D01*
X196749Y73551D01*
X196824Y73616D01*
X196897Y73684D01*
X196967Y73754D01*
X197035Y73827D01*
X197100Y73902D01*
X197162Y73980D01*
X197220Y74060D01*
X197276Y74143D01*
X197328Y74227D01*
X197378Y74314D01*
X197423Y74402D01*
X197466Y74492D01*
X197505Y74584D01*
X197540Y74677D01*
X197572Y74771D01*
X197600Y74866D01*
X197625Y74962D01*
X197646Y75060D01*
X197663Y75158D01*
X197676Y75256D01*
X197685Y75355D01*
X197691Y75455D01*
X197693Y75554D01*
X195097Y72958D02*
X194953Y72960D01*
X194808Y72966D01*
X194664Y72975D01*
X194521Y72988D01*
X194377Y73005D01*
X194234Y73026D01*
X194092Y73051D01*
X193951Y73079D01*
X193810Y73111D01*
X193670Y73147D01*
X193531Y73186D01*
X193393Y73229D01*
X193257Y73276D01*
X193121Y73326D01*
X192987Y73380D01*
X192855Y73437D01*
X192724Y73498D01*
X192595Y73562D01*
X192467Y73630D01*
X192341Y73700D01*
X192217Y73775D01*
X192096Y73852D01*
X191976Y73933D01*
X191858Y74016D01*
X191743Y74103D01*
X191630Y74193D01*
X191519Y74286D01*
X191411Y74381D01*
X191305Y74480D01*
X191202Y74581D01*
X191527Y82046D02*
X191529Y82145D01*
X191535Y82245D01*
X191544Y82344D01*
X191557Y82442D01*
X191574Y82540D01*
X191595Y82638D01*
X191620Y82734D01*
X191648Y82829D01*
X191680Y82923D01*
X191715Y83016D01*
X191754Y83108D01*
X191797Y83198D01*
X191842Y83286D01*
X191892Y83373D01*
X191944Y83457D01*
X192000Y83540D01*
X192058Y83620D01*
X192120Y83698D01*
X192185Y83773D01*
X192253Y83846D01*
X192323Y83916D01*
X192396Y83984D01*
X192471Y84049D01*
X192549Y84111D01*
X192629Y84169D01*
X192712Y84225D01*
X192796Y84277D01*
X192883Y84327D01*
X192971Y84372D01*
X193061Y84415D01*
X193153Y84454D01*
X193246Y84489D01*
X193340Y84521D01*
X193435Y84549D01*
X193532Y84574D01*
X193629Y84595D01*
X193727Y84612D01*
X193825Y84625D01*
X193924Y84634D01*
X194024Y84640D01*
X194123Y84642D01*
X194259Y84640D01*
X194395Y84634D01*
X194531Y84625D01*
X194667Y84612D01*
X194802Y84594D01*
X194936Y84574D01*
X195070Y84549D01*
X195204Y84521D01*
X195336Y84488D01*
X195467Y84453D01*
X195598Y84413D01*
X195727Y84370D01*
X195855Y84324D01*
X195981Y84273D01*
X196107Y84220D01*
X196230Y84162D01*
X196352Y84102D01*
X196472Y84038D01*
X196591Y83970D01*
X196707Y83900D01*
X196821Y83826D01*
X196934Y83749D01*
X197044Y83668D01*
X192824Y79774D02*
X192738Y79827D01*
X192654Y79884D01*
X192572Y79943D01*
X192492Y80006D01*
X192415Y80072D01*
X192340Y80140D01*
X192268Y80212D01*
X192199Y80286D01*
X192133Y80363D01*
X192070Y80442D01*
X192010Y80524D01*
X191953Y80608D01*
X191899Y80694D01*
X191849Y80782D01*
X191802Y80872D01*
X191758Y80963D01*
X191719Y81057D01*
X191682Y81151D01*
X191650Y81247D01*
X191621Y81345D01*
X191596Y81443D01*
X191575Y81542D01*
X191557Y81642D01*
X191544Y81742D01*
X191534Y81843D01*
X191528Y81945D01*
X191526Y82046D01*
X196395Y77826D02*
X196481Y77773D01*
X196565Y77716D01*
X196647Y77657D01*
X196727Y77594D01*
X196804Y77528D01*
X196879Y77460D01*
X196951Y77388D01*
X197020Y77314D01*
X197086Y77237D01*
X197149Y77158D01*
X197209Y77076D01*
X197266Y76992D01*
X197320Y76906D01*
X197370Y76818D01*
X197417Y76728D01*
X197461Y76637D01*
X197500Y76543D01*
X197537Y76449D01*
X197569Y76353D01*
X197598Y76255D01*
X197623Y76157D01*
X197644Y76058D01*
X197662Y75958D01*
X197675Y75858D01*
X197685Y75757D01*
X197691Y75655D01*
X197693Y75554D01*
X196395Y77826D02*
X192825Y79774D01*
X202251Y82046D02*
X205496Y84642D01*
X205496Y72958D01*
X202251Y72958D02*
X208742Y72958D01*
D10*
X96554Y100990D02*
X96160Y101503D01*
X95779Y102025D01*
X95410Y102556D01*
X95055Y103095D01*
X94712Y103644D01*
X94383Y104200D01*
X94067Y104764D01*
X93766Y105336D01*
X93478Y105915D01*
X93204Y106500D01*
X92945Y107092D01*
X92700Y107690D01*
X92469Y108294D01*
X92253Y108904D01*
X92052Y109518D01*
X91866Y110137D01*
X91696Y110761D01*
X91540Y111388D01*
X91399Y112019D01*
X91274Y112653D01*
X91164Y113290D01*
X91070Y113930D01*
X90991Y114571D01*
X90928Y115214D01*
X90881Y115859D01*
X90849Y116505D01*
X90832Y117151D01*
X90832Y117797D01*
X90847Y118444D01*
X90877Y119089D01*
X90924Y119734D01*
X90986Y120377D01*
X91063Y121019D01*
X91156Y121659D01*
X91265Y122296D01*
X91389Y122931D01*
X91528Y123562D01*
X91683Y124189D01*
X91852Y124813D01*
X92037Y125433D01*
X92237Y126047D01*
X92451Y126657D01*
X92681Y127262D01*
X92925Y127860D01*
X93183Y128453D01*
X93455Y129039D01*
X93742Y129618D01*
X94043Y130190D01*
X94357Y130755D01*
X94685Y131312D01*
X95027Y131861D01*
X95381Y132402D01*
X95749Y132933D01*
X96129Y133456D01*
X96522Y133969D01*
X96928Y134473D01*
X97345Y134966D01*
X97774Y135450D01*
X98215Y135922D01*
X98667Y136384D01*
X99131Y136835D01*
X99605Y137275D01*
X100089Y137703D01*
X100584Y138119D01*
X101088Y138523D01*
X101603Y138914D01*
X102126Y139293D01*
X102659Y139659D01*
X103201Y140013D01*
X103750Y140352D01*
X104308Y140679D01*
X104874Y140992D01*
X105447Y141291D01*
X106027Y141576D01*
X106614Y141847D01*
X107207Y142104D01*
X107806Y142346D01*
X108411Y142574D01*
X109022Y142787D01*
X109637Y142985D01*
X125363Y142985D02*
X125978Y142786D01*
X126589Y142574D01*
X127194Y142346D01*
X127793Y142104D01*
X128386Y141847D01*
X128973Y141576D01*
X129553Y141291D01*
X130126Y140992D01*
X130692Y140679D01*
X131250Y140352D01*
X131800Y140012D01*
X132341Y139659D01*
X132874Y139293D01*
X133397Y138914D01*
X133912Y138522D01*
X134416Y138118D01*
X134911Y137702D01*
X135396Y137275D01*
X135870Y136835D01*
X136333Y136384D01*
X136785Y135922D01*
X137226Y135449D01*
X137655Y134966D01*
X138072Y134472D01*
X138478Y133969D01*
X138871Y133456D01*
X139251Y132933D01*
X139619Y132401D01*
X139973Y131861D01*
X140315Y131312D01*
X140643Y130755D01*
X140957Y130190D01*
X141258Y129618D01*
X141545Y129039D01*
X141817Y128452D01*
X142076Y127860D01*
X142319Y127261D01*
X142549Y126657D01*
X142763Y126047D01*
X142963Y125432D01*
X143148Y124813D01*
X143318Y124189D01*
X143472Y123561D01*
X143611Y122930D01*
X143735Y122296D01*
X143844Y121659D01*
X143937Y121019D01*
X144014Y120377D01*
X144076Y119734D01*
X144123Y119089D01*
X144153Y118443D01*
X144168Y117797D01*
X144168Y117151D01*
X144151Y116504D01*
X144119Y115859D01*
X144072Y115214D01*
X144009Y114571D01*
X143930Y113929D01*
X143836Y113290D01*
X143726Y112653D01*
X143601Y112018D01*
X143460Y111387D01*
X143304Y110760D01*
X143133Y110137D01*
X142947Y109518D01*
X142746Y108903D01*
X142531Y108294D01*
X142300Y107690D01*
X142055Y107092D01*
X141796Y106500D01*
X141522Y105914D01*
X141234Y105335D01*
X140932Y104764D01*
X140617Y104200D01*
X140288Y103643D01*
X139945Y103095D01*
X139589Y102555D01*
X139221Y102024D01*
X138839Y101502D01*
X138445Y100990D01*
X96555Y100990D01*
X94963Y114960D02*
X90951Y114960D01*
X114637Y114960D02*
X120363Y114960D01*
X140037Y114960D02*
X144049Y114960D01*
D15*
X112243Y155576D02*
X112243Y158512D01*
X112245Y158597D01*
X112251Y158681D01*
X112261Y158765D01*
X112274Y158849D01*
X112292Y158932D01*
X112313Y159014D01*
X112338Y159095D01*
X112367Y159175D01*
X112399Y159253D01*
X112435Y159329D01*
X112475Y159404D01*
X112518Y159477D01*
X112564Y159548D01*
X112613Y159617D01*
X112666Y159684D01*
X112722Y159748D01*
X112780Y159809D01*
X112841Y159867D01*
X112905Y159923D01*
X112972Y159976D01*
X113041Y160025D01*
X113112Y160071D01*
X113185Y160114D01*
X113260Y160154D01*
X113336Y160190D01*
X113414Y160222D01*
X113494Y160251D01*
X113575Y160276D01*
X113657Y160297D01*
X113740Y160315D01*
X113824Y160328D01*
X113908Y160338D01*
X113992Y160344D01*
X114077Y160346D01*
X114162Y160344D01*
X114246Y160338D01*
X114330Y160328D01*
X114414Y160315D01*
X114497Y160297D01*
X114579Y160276D01*
X114660Y160251D01*
X114740Y160222D01*
X114818Y160190D01*
X114894Y160154D01*
X114969Y160114D01*
X115042Y160071D01*
X115113Y160025D01*
X115182Y159976D01*
X115249Y159923D01*
X115313Y159867D01*
X115374Y159809D01*
X115432Y159748D01*
X115488Y159684D01*
X115541Y159617D01*
X115590Y159548D01*
X115636Y159477D01*
X115679Y159404D01*
X115719Y159329D01*
X115755Y159253D01*
X115787Y159175D01*
X115816Y159095D01*
X115841Y159014D01*
X115862Y158932D01*
X115880Y158849D01*
X115893Y158765D01*
X115903Y158681D01*
X115909Y158597D01*
X115911Y158512D01*
X115912Y158512D02*
X115912Y155576D01*
X115911Y155576D02*
X115909Y155491D01*
X115903Y155407D01*
X115893Y155323D01*
X115880Y155239D01*
X115862Y155156D01*
X115841Y155074D01*
X115816Y154993D01*
X115787Y154913D01*
X115755Y154835D01*
X115719Y154759D01*
X115679Y154684D01*
X115636Y154611D01*
X115590Y154540D01*
X115541Y154471D01*
X115488Y154404D01*
X115432Y154340D01*
X115374Y154279D01*
X115313Y154221D01*
X115249Y154165D01*
X115182Y154112D01*
X115113Y154063D01*
X115042Y154017D01*
X114969Y153974D01*
X114894Y153934D01*
X114818Y153898D01*
X114740Y153866D01*
X114660Y153837D01*
X114579Y153812D01*
X114497Y153791D01*
X114414Y153773D01*
X114330Y153760D01*
X114246Y153750D01*
X114162Y153744D01*
X114077Y153742D01*
X113992Y153744D01*
X113908Y153750D01*
X113824Y153760D01*
X113740Y153773D01*
X113657Y153791D01*
X113575Y153812D01*
X113494Y153837D01*
X113414Y153866D01*
X113336Y153898D01*
X113260Y153934D01*
X113185Y153974D01*
X113112Y154017D01*
X113041Y154063D01*
X112972Y154112D01*
X112905Y154165D01*
X112841Y154221D01*
X112780Y154279D01*
X112722Y154340D01*
X112666Y154404D01*
X112613Y154471D01*
X112564Y154540D01*
X112518Y154611D01*
X112475Y154684D01*
X112435Y154759D01*
X112399Y154835D01*
X112367Y154913D01*
X112338Y154993D01*
X112313Y155074D01*
X112292Y155156D01*
X112274Y155239D01*
X112261Y155323D01*
X112251Y155407D01*
X112245Y155491D01*
X112243Y155576D01*
X115178Y155210D02*
X116646Y153742D01*
X119088Y158878D02*
X120923Y160346D01*
X120923Y153742D01*
X122757Y153742D02*
X119088Y153742D01*
X187047Y162232D02*
X187047Y168836D01*
X188882Y168836D01*
X188967Y168834D01*
X189051Y168828D01*
X189135Y168818D01*
X189219Y168805D01*
X189302Y168787D01*
X189384Y168766D01*
X189465Y168741D01*
X189545Y168712D01*
X189623Y168680D01*
X189699Y168644D01*
X189774Y168604D01*
X189847Y168561D01*
X189918Y168515D01*
X189987Y168466D01*
X190054Y168413D01*
X190118Y168357D01*
X190179Y168299D01*
X190237Y168238D01*
X190293Y168174D01*
X190346Y168107D01*
X190395Y168038D01*
X190441Y167967D01*
X190484Y167894D01*
X190524Y167819D01*
X190560Y167743D01*
X190592Y167665D01*
X190621Y167585D01*
X190646Y167504D01*
X190667Y167422D01*
X190685Y167339D01*
X190698Y167255D01*
X190708Y167171D01*
X190714Y167087D01*
X190716Y167002D01*
X190714Y166917D01*
X190708Y166833D01*
X190698Y166749D01*
X190685Y166665D01*
X190667Y166582D01*
X190646Y166500D01*
X190621Y166419D01*
X190592Y166339D01*
X190560Y166261D01*
X190524Y166185D01*
X190484Y166110D01*
X190441Y166037D01*
X190395Y165966D01*
X190346Y165897D01*
X190293Y165830D01*
X190237Y165766D01*
X190179Y165705D01*
X190118Y165647D01*
X190054Y165591D01*
X189987Y165538D01*
X189918Y165489D01*
X189847Y165443D01*
X189774Y165400D01*
X189699Y165360D01*
X189623Y165324D01*
X189545Y165292D01*
X189465Y165263D01*
X189384Y165238D01*
X189302Y165217D01*
X189219Y165199D01*
X189135Y165186D01*
X189051Y165176D01*
X188967Y165170D01*
X188882Y165168D01*
X188882Y165167D02*
X187047Y165167D01*
X189249Y165167D02*
X190716Y162232D01*
X196302Y168836D02*
X196381Y168834D01*
X196459Y168829D01*
X196537Y168819D01*
X196614Y168806D01*
X196691Y168789D01*
X196767Y168769D01*
X196842Y168745D01*
X196916Y168718D01*
X196988Y168687D01*
X197059Y168652D01*
X197128Y168615D01*
X197195Y168574D01*
X197260Y168530D01*
X197323Y168483D01*
X197383Y168433D01*
X197441Y168380D01*
X197497Y168324D01*
X197550Y168266D01*
X197600Y168206D01*
X197647Y168143D01*
X197691Y168078D01*
X197732Y168011D01*
X197769Y167942D01*
X197804Y167871D01*
X197835Y167799D01*
X197862Y167725D01*
X197886Y167650D01*
X197906Y167574D01*
X197923Y167497D01*
X197936Y167420D01*
X197946Y167342D01*
X197951Y167264D01*
X197953Y167185D01*
X196302Y168836D02*
X196213Y168834D01*
X196124Y168829D01*
X196036Y168819D01*
X195948Y168806D01*
X195861Y168790D01*
X195774Y168769D01*
X195689Y168745D01*
X195604Y168718D01*
X195521Y168687D01*
X195439Y168652D01*
X195358Y168614D01*
X195279Y168573D01*
X195203Y168529D01*
X195127Y168481D01*
X195054Y168430D01*
X194984Y168377D01*
X194915Y168320D01*
X194849Y168260D01*
X194786Y168198D01*
X194725Y168133D01*
X194667Y168066D01*
X194612Y167996D01*
X194559Y167924D01*
X194510Y167850D01*
X194464Y167774D01*
X194422Y167696D01*
X194382Y167616D01*
X194346Y167535D01*
X194313Y167452D01*
X194284Y167368D01*
X197402Y165901D02*
X197458Y165957D01*
X197512Y166016D01*
X197563Y166077D01*
X197612Y166141D01*
X197657Y166206D01*
X197700Y166274D01*
X197739Y166343D01*
X197776Y166414D01*
X197809Y166487D01*
X197838Y166561D01*
X197865Y166636D01*
X197888Y166712D01*
X197907Y166790D01*
X197923Y166868D01*
X197936Y166946D01*
X197945Y167026D01*
X197950Y167105D01*
X197952Y167185D01*
X197402Y165901D02*
X194284Y162232D01*
X197953Y162232D01*
M02*
