M48
;GenerationSoftware,Autodesk,EAGLE,9.6.2*%
;CreationDate,2022-07-22T17:35:30Z*%
FMAT,2
ICI,OFF
METRIC,TZ,000.000
T8C0.300
T7C0.350
T6C0.650
T5C0.800
T4C1.000
T3C1.016
T2C2.200
T1C2.800
%
G90
M71
T1
X70104Y2667
X69596Y8255
X70104Y35687
X69596Y30353
X2921Y35687
T2
X56769Y6731
X56769Y32131
X3429Y32131
X3429Y6731
T3
X5969Y1651
X28829Y1651
X26289Y4191
X26289Y1651
X23749Y1651
X21209Y4191
X21209Y1651
X23749Y4191
X18669Y4191
X18669Y1651
X16129Y4191
X16129Y1651
X13589Y4191
X13589Y1651
X11049Y4191
X11049Y1651
X28829Y4191
X8509Y4191
X8509Y1651
X5969Y4191
T4
X54229Y4191
X51689Y4191
X49149Y4191
X46609Y4191
X44069Y4191
X41529Y4191
X38989Y4191
X33909Y4191
X33909Y34671
X36449Y34671
X38989Y34671
X41529Y34671
X44069Y34671
X46609Y34671
X49149Y34671
X54229Y34671
X56769Y34671
X59309Y34671
X35560Y20574
X51689Y34671
X64389Y34671
X61849Y34671
X36449Y4191
X35560Y15494
X35560Y18034
X35560Y23114
X64389Y4191
X61849Y4191
X59309Y4191
X56769Y4191
T5
X31369Y32131
X33909Y32131
X36449Y32131
X38989Y32131
X41529Y32131
X44069Y32131
X46609Y32131
X49149Y32131
X51689Y32131
X51689Y6731
X49149Y6731
X46609Y6731
X41529Y6731
X38989Y6731
X36449Y6731
X33909Y6731
X31369Y6731
X28829Y6731
X26289Y6731
X23749Y6731
X21209Y6731
X18669Y6731
X16129Y6731
X13589Y6731
X11049Y6731
X8509Y6731
X5969Y6731
X29845Y15367
X29845Y17907
X29845Y20447
X29845Y22987
X5969Y32131
X44069Y6731
X8509Y32131
X11049Y32131
X13589Y32131
X16129Y32131
X18669Y32131
X21209Y32131
X23749Y32131
X26289Y32131
X28829Y32131
T6
X12192Y35052
X24384Y24511
X16764Y26543
X20447Y17780
X17018Y20828
X14224Y16637
X9144Y16637
X14224Y20828
X24003Y17780
X9525Y35052
X13970Y26543
X20574Y24511
T7
X25273Y33528
T8
X25273Y34798
X21336Y12446
X61214Y1651
X63754Y1651
X66294Y1651
X68834Y21971
X61214Y21971
X61214Y24511
X65024Y24511
X61214Y27051
X65024Y27051
X68834Y27051
X61214Y11811
X68834Y19431
X65024Y14351
X68834Y5461
X68834Y24511
X58674Y1651
X56134Y1651
X53594Y1651
X51054Y1651
X61214Y9271
X68834Y16891
X61214Y29591
X61214Y32131
X65024Y32131
X37465Y24765
X31877Y29972
X34798Y27305
X13081Y27178
X14732Y8636
X24384Y11049
X28448Y36068
X26416Y13843
X61214Y14351
X61214Y16891
X65024Y16891
X65024Y19431
X65024Y21971
X61214Y19431
X45974Y16891
X45974Y19431
X45974Y21971
X42164Y16891
X42164Y19431
X42164Y21971
X32004Y34671
X61214Y6731
X65024Y6731
X65024Y9271
X65024Y11811
X68834Y11811
X68834Y14351
X45974Y27051
X45974Y24511
X45974Y14351
X45974Y11811
X42164Y11811
X42164Y14351
X42164Y24511
X42164Y27051
X35814Y13081
X32004Y11811
X32004Y18161
X29464Y25781
X32004Y20447
X39497Y28575
X42926Y30988
X65024Y29591
M30