G04 EAGLE Gerber RS-274X export*
G75*
%MOMM*%
%FSLAX34Y34*%
%LPD*%
%INBottom Copper*%
%IPPOS*%
%AMOC8*
5,1,8,0,0,1.08239X$1,22.5*%
G01*
%ADD10C,1.778000*%
%ADD11C,1.900000*%
%ADD12C,1.508000*%
%ADD13R,1.270000X2.060000*%
%ADD14R,0.800000X1.200000*%
%ADD15R,0.762000X1.524000*%
%ADD16C,1.676400*%
%ADD17C,1.879600*%
%ADD18C,1.056400*%
%ADD19C,0.254000*%
%ADD20C,0.706400*%
%ADD21C,0.812800*%
%ADD22C,0.200000*%
%ADD23C,1.016000*%
%ADD24C,0.508000*%

G36*
X702351Y3007D02*
X702351Y3007D01*
X702388Y3004D01*
X705736Y3267D01*
X705876Y3299D01*
X705966Y3313D01*
X712334Y5382D01*
X712336Y5383D01*
X712338Y5383D01*
X712370Y5399D01*
X712587Y5506D01*
X712600Y5517D01*
X712613Y5524D01*
X718029Y9460D01*
X718031Y9461D01*
X718033Y9462D01*
X718058Y9487D01*
X718232Y9656D01*
X718240Y9670D01*
X718250Y9681D01*
X722186Y15097D01*
X722187Y15099D01*
X722189Y15101D01*
X722205Y15132D01*
X722318Y15347D01*
X722321Y15363D01*
X722328Y15376D01*
X724397Y21744D01*
X724412Y21832D01*
X724412Y21833D01*
X724422Y21885D01*
X724443Y21974D01*
X724706Y25322D01*
X724704Y25363D01*
X724709Y25400D01*
X724709Y355600D01*
X724703Y355642D01*
X724706Y355678D01*
X724443Y359026D01*
X724411Y359166D01*
X724397Y359256D01*
X722328Y365624D01*
X722327Y365626D01*
X722327Y365628D01*
X722311Y365660D01*
X722204Y365877D01*
X722193Y365890D01*
X722186Y365903D01*
X718250Y371319D01*
X718249Y371321D01*
X718248Y371323D01*
X718229Y371342D01*
X718215Y371364D01*
X718149Y371424D01*
X718054Y371522D01*
X718040Y371530D01*
X718029Y371540D01*
X712613Y375476D01*
X712611Y375477D01*
X712609Y375479D01*
X712578Y375495D01*
X712363Y375608D01*
X712347Y375611D01*
X712334Y375618D01*
X705966Y377687D01*
X705825Y377712D01*
X705736Y377733D01*
X702388Y377996D01*
X702347Y377994D01*
X702310Y377999D01*
X29210Y377999D01*
X29168Y377993D01*
X29132Y377996D01*
X25784Y377733D01*
X25644Y377701D01*
X25554Y377687D01*
X19186Y375618D01*
X19184Y375617D01*
X19182Y375617D01*
X19150Y375601D01*
X18933Y375494D01*
X18920Y375483D01*
X18907Y375476D01*
X13491Y371540D01*
X13489Y371539D01*
X13487Y371538D01*
X13462Y371513D01*
X13387Y371440D01*
X13322Y371385D01*
X13309Y371364D01*
X13288Y371344D01*
X13280Y371330D01*
X13270Y371319D01*
X9334Y365903D01*
X9333Y365901D01*
X9331Y365899D01*
X9315Y365868D01*
X9202Y365653D01*
X9199Y365637D01*
X9192Y365624D01*
X7123Y359256D01*
X7098Y359115D01*
X7077Y359026D01*
X6814Y355678D01*
X6816Y355637D01*
X6811Y355600D01*
X6811Y25400D01*
X6817Y25358D01*
X6814Y25322D01*
X7077Y21974D01*
X7109Y21834D01*
X7123Y21744D01*
X9192Y15376D01*
X9193Y15374D01*
X9193Y15372D01*
X9209Y15340D01*
X9316Y15123D01*
X9327Y15110D01*
X9334Y15097D01*
X13270Y9681D01*
X13271Y9679D01*
X13272Y9677D01*
X13297Y9652D01*
X13466Y9478D01*
X13480Y9470D01*
X13491Y9460D01*
X18907Y5524D01*
X18909Y5523D01*
X18911Y5521D01*
X18942Y5505D01*
X19157Y5392D01*
X19173Y5389D01*
X19186Y5382D01*
X25554Y3313D01*
X25695Y3288D01*
X25784Y3267D01*
X29132Y3004D01*
X29173Y3006D01*
X29210Y3001D01*
X702310Y3001D01*
X702351Y3007D01*
G37*
%LPC*%
G36*
X273457Y14399D02*
X273457Y14399D01*
X267816Y20041D01*
X267808Y20046D01*
X267802Y20054D01*
X267695Y20131D01*
X267590Y20210D01*
X267581Y20213D01*
X267573Y20219D01*
X267450Y20263D01*
X267326Y20310D01*
X267317Y20310D01*
X267308Y20313D01*
X267176Y20321D01*
X267045Y20331D01*
X267036Y20329D01*
X267026Y20330D01*
X266951Y20312D01*
X266769Y20274D01*
X266748Y20262D01*
X266727Y20257D01*
X263887Y19081D01*
X259353Y19081D01*
X255163Y20817D01*
X251957Y24023D01*
X250221Y28213D01*
X250221Y32747D01*
X251957Y36937D01*
X255163Y40143D01*
X259353Y41879D01*
X263887Y41879D01*
X268077Y40143D01*
X271283Y36937D01*
X273019Y32747D01*
X273019Y28213D01*
X271843Y25373D01*
X271840Y25364D01*
X271836Y25356D01*
X271805Y25227D01*
X271773Y25100D01*
X271773Y25091D01*
X271771Y25082D01*
X271777Y24949D01*
X271782Y24818D01*
X271785Y24809D01*
X271785Y24800D01*
X271828Y24675D01*
X271851Y24606D01*
X271857Y24585D01*
X271859Y24581D01*
X271869Y24550D01*
X271874Y24542D01*
X271878Y24533D01*
X271923Y24471D01*
X271963Y24412D01*
X272005Y24345D01*
X272016Y24334D01*
X272028Y24317D01*
X272047Y24302D01*
X272059Y24284D01*
X275650Y20693D01*
X275727Y20636D01*
X275798Y20571D01*
X275839Y20551D01*
X275876Y20524D01*
X275966Y20490D01*
X276052Y20448D01*
X276094Y20442D01*
X276140Y20425D01*
X276267Y20415D01*
X276357Y20401D01*
X278567Y20401D01*
X278599Y20405D01*
X278631Y20403D01*
X278738Y20425D01*
X278846Y20441D01*
X278875Y20454D01*
X278907Y20460D01*
X279003Y20512D01*
X279103Y20557D01*
X279127Y20578D01*
X279156Y20593D01*
X279234Y20669D01*
X279317Y20740D01*
X279335Y20767D01*
X279358Y20790D01*
X279412Y20885D01*
X279472Y20976D01*
X279481Y21007D01*
X279497Y21035D01*
X279522Y21141D01*
X279554Y21246D01*
X279554Y21278D01*
X279562Y21309D01*
X279556Y21419D01*
X279558Y21528D01*
X279549Y21559D01*
X279547Y21591D01*
X279512Y21694D01*
X279482Y21800D01*
X279466Y21827D01*
X279455Y21858D01*
X279402Y21931D01*
X279334Y22040D01*
X279298Y22072D01*
X279273Y22107D01*
X277357Y24023D01*
X275621Y28213D01*
X275621Y32747D01*
X277357Y36937D01*
X280563Y40143D01*
X284753Y41879D01*
X289287Y41879D01*
X293477Y40143D01*
X296683Y36937D01*
X298419Y32747D01*
X298419Y28213D01*
X297412Y25782D01*
X297383Y25668D01*
X297348Y25554D01*
X297348Y25531D01*
X297342Y25509D01*
X297346Y25391D01*
X297344Y25272D01*
X297350Y25250D01*
X297351Y25227D01*
X297388Y25115D01*
X297419Y25000D01*
X297431Y24981D01*
X297438Y24959D01*
X297505Y24861D01*
X297568Y24760D01*
X297585Y24745D01*
X297597Y24726D01*
X297689Y24651D01*
X297777Y24571D01*
X297797Y24561D01*
X297815Y24547D01*
X297924Y24500D01*
X298031Y24448D01*
X298052Y24445D01*
X298074Y24435D01*
X298259Y24413D01*
X298335Y24401D01*
X353753Y24401D01*
X353785Y24405D01*
X353817Y24403D01*
X353924Y24425D01*
X354032Y24441D01*
X354062Y24454D01*
X354093Y24460D01*
X354190Y24512D01*
X354289Y24557D01*
X354314Y24578D01*
X354342Y24593D01*
X354421Y24669D01*
X354504Y24740D01*
X354521Y24767D01*
X354544Y24790D01*
X354598Y24885D01*
X354658Y24976D01*
X354668Y25007D01*
X354683Y25035D01*
X354709Y25141D01*
X354740Y25246D01*
X354741Y25278D01*
X354748Y25309D01*
X354743Y25419D01*
X354744Y25528D01*
X354736Y25559D01*
X354734Y25591D01*
X354698Y25694D01*
X354669Y25800D01*
X354652Y25827D01*
X354642Y25858D01*
X354588Y25931D01*
X354521Y26040D01*
X354485Y26072D01*
X354460Y26107D01*
X350840Y29727D01*
X348789Y31777D01*
X348789Y35034D01*
X348781Y35093D01*
X348781Y35105D01*
X348777Y35118D01*
X348774Y35143D01*
X348765Y35254D01*
X348754Y35283D01*
X348749Y35313D01*
X348704Y35414D01*
X348665Y35517D01*
X348646Y35542D01*
X348633Y35570D01*
X348561Y35654D01*
X348495Y35742D01*
X348470Y35761D01*
X348450Y35785D01*
X348357Y35845D01*
X348269Y35911D01*
X348240Y35922D01*
X348214Y35939D01*
X348108Y35971D01*
X348005Y36010D01*
X347974Y36012D01*
X347944Y36021D01*
X347834Y36023D01*
X347724Y36031D01*
X347693Y36025D01*
X347662Y36025D01*
X347555Y35996D01*
X347448Y35973D01*
X347420Y35958D01*
X347390Y35950D01*
X347296Y35892D01*
X347199Y35840D01*
X347178Y35819D01*
X347150Y35802D01*
X347045Y35685D01*
X346982Y35621D01*
X346779Y35343D01*
X345657Y34221D01*
X344374Y33288D01*
X342960Y32568D01*
X341451Y32077D01*
X341089Y32020D01*
X341089Y40910D01*
X341080Y40973D01*
X341081Y41038D01*
X341060Y41112D01*
X341049Y41189D01*
X341023Y41248D01*
X341006Y41310D01*
X340965Y41376D01*
X340933Y41446D01*
X340891Y41495D01*
X340858Y41550D01*
X340800Y41601D01*
X340750Y41660D01*
X340696Y41696D01*
X340648Y41739D01*
X340579Y41772D01*
X340514Y41815D01*
X340452Y41834D01*
X340395Y41862D01*
X340325Y41872D01*
X340244Y41897D01*
X340159Y41898D01*
X340090Y41909D01*
X339089Y41909D01*
X339089Y41911D01*
X340090Y41911D01*
X340154Y41920D01*
X340218Y41919D01*
X340293Y41940D01*
X340369Y41951D01*
X340428Y41977D01*
X340490Y41994D01*
X340556Y42035D01*
X340626Y42067D01*
X340675Y42109D01*
X340730Y42142D01*
X340782Y42200D01*
X340840Y42250D01*
X340876Y42304D01*
X340919Y42352D01*
X340952Y42421D01*
X340995Y42486D01*
X341014Y42548D01*
X341042Y42606D01*
X341052Y42675D01*
X341077Y42756D01*
X341078Y42841D01*
X341089Y42910D01*
X341089Y51800D01*
X341451Y51743D01*
X342960Y51252D01*
X344374Y50532D01*
X345657Y49599D01*
X346779Y48477D01*
X346982Y48199D01*
X347058Y48119D01*
X347130Y48035D01*
X347156Y48018D01*
X347178Y47996D01*
X347274Y47941D01*
X347366Y47881D01*
X347396Y47872D01*
X347423Y47856D01*
X347530Y47831D01*
X347636Y47799D01*
X347667Y47798D01*
X347697Y47791D01*
X347808Y47796D01*
X347918Y47795D01*
X347948Y47803D01*
X347979Y47805D01*
X348083Y47840D01*
X348190Y47870D01*
X348216Y47886D01*
X348246Y47896D01*
X348336Y47960D01*
X348430Y48018D01*
X348451Y48041D01*
X348476Y48059D01*
X348545Y48145D01*
X348619Y48227D01*
X348632Y48255D01*
X348652Y48280D01*
X348694Y48382D01*
X348742Y48481D01*
X348746Y48510D01*
X348759Y48541D01*
X348775Y48697D01*
X348789Y48786D01*
X348789Y72613D01*
X348785Y72645D01*
X348787Y72678D01*
X348765Y72784D01*
X348749Y72893D01*
X348736Y72922D01*
X348730Y72954D01*
X348678Y73050D01*
X348633Y73150D01*
X348612Y73174D01*
X348597Y73203D01*
X348521Y73281D01*
X348450Y73364D01*
X348423Y73382D01*
X348400Y73405D01*
X348305Y73458D01*
X348214Y73518D01*
X348183Y73528D01*
X348155Y73544D01*
X348049Y73569D01*
X347944Y73601D01*
X347912Y73601D01*
X347881Y73609D01*
X347771Y73603D01*
X347662Y73605D01*
X347631Y73596D01*
X347599Y73594D01*
X347496Y73559D01*
X347390Y73529D01*
X347363Y73512D01*
X347332Y73502D01*
X347259Y73448D01*
X347150Y73381D01*
X347118Y73345D01*
X347083Y73320D01*
X344971Y71208D01*
X341155Y69627D01*
X337025Y69627D01*
X333209Y71208D01*
X331145Y73272D01*
X331119Y73291D01*
X331098Y73316D01*
X331006Y73376D01*
X330919Y73441D01*
X330889Y73453D01*
X330862Y73470D01*
X330757Y73502D01*
X330655Y73541D01*
X330623Y73543D01*
X330592Y73553D01*
X330483Y73554D01*
X330374Y73563D01*
X330342Y73556D01*
X330310Y73557D01*
X330205Y73527D01*
X330098Y73505D01*
X330069Y73490D01*
X330038Y73481D01*
X329945Y73424D01*
X329849Y73373D01*
X329826Y73350D01*
X329798Y73333D01*
X329725Y73252D01*
X329647Y73176D01*
X329631Y73148D01*
X329609Y73124D01*
X329562Y73026D01*
X329508Y72930D01*
X329500Y72899D01*
X329486Y72870D01*
X329472Y72781D01*
X329443Y72656D01*
X329445Y72608D01*
X329439Y72565D01*
X329439Y64845D01*
X321283Y56689D01*
X270537Y56689D01*
X259889Y67337D01*
X259889Y69347D01*
X259888Y69356D01*
X259889Y69366D01*
X259868Y69496D01*
X259849Y69626D01*
X259846Y69635D01*
X259844Y69644D01*
X259787Y69764D01*
X259733Y69883D01*
X259727Y69890D01*
X259723Y69899D01*
X259635Y69998D01*
X259550Y70098D01*
X259542Y70103D01*
X259536Y70110D01*
X259470Y70150D01*
X259314Y70252D01*
X259291Y70259D01*
X259272Y70270D01*
X257009Y71208D01*
X254088Y74129D01*
X252507Y77945D01*
X252507Y82075D01*
X254088Y85891D01*
X257009Y88812D01*
X260014Y90057D01*
X260089Y90101D01*
X260168Y90137D01*
X260209Y90172D01*
X260257Y90200D01*
X260316Y90264D01*
X260382Y90320D01*
X260412Y90366D01*
X260449Y90406D01*
X260489Y90483D01*
X260536Y90556D01*
X260552Y90609D01*
X260577Y90658D01*
X260593Y90743D01*
X260619Y90826D01*
X260619Y90881D01*
X260630Y90935D01*
X260621Y91021D01*
X260622Y91108D01*
X260608Y91161D01*
X260603Y91215D01*
X260570Y91296D01*
X260547Y91380D01*
X260518Y91427D01*
X260498Y91477D01*
X260445Y91546D01*
X260399Y91620D01*
X260358Y91657D01*
X260325Y91700D01*
X260254Y91750D01*
X260190Y91809D01*
X260140Y91833D01*
X260096Y91865D01*
X260014Y91894D01*
X259936Y91932D01*
X259886Y91940D01*
X259830Y91959D01*
X259717Y91966D01*
X259631Y91979D01*
X242221Y91979D01*
X242173Y91973D01*
X242126Y91975D01*
X242034Y91953D01*
X241941Y91939D01*
X241898Y91920D01*
X241851Y91909D01*
X241770Y91862D01*
X241684Y91823D01*
X241648Y91792D01*
X241607Y91768D01*
X241541Y91701D01*
X241470Y91640D01*
X241444Y91600D01*
X241411Y91566D01*
X241367Y91483D01*
X241316Y91404D01*
X241302Y91358D01*
X241279Y91316D01*
X241261Y91224D01*
X241233Y91134D01*
X241233Y91086D01*
X241223Y91040D01*
X241231Y90946D01*
X241229Y90852D01*
X241242Y90806D01*
X241246Y90759D01*
X241280Y90671D01*
X241305Y90580D01*
X241330Y90540D01*
X241347Y90495D01*
X241403Y90420D01*
X241453Y90340D01*
X241488Y90308D01*
X241517Y90270D01*
X241584Y90222D01*
X241662Y90151D01*
X241721Y90123D01*
X241767Y90090D01*
X243215Y89352D01*
X244606Y88341D01*
X245821Y87126D01*
X246832Y85735D01*
X247613Y84203D01*
X248144Y82568D01*
X248232Y82009D01*
X238490Y82009D01*
X238427Y82000D01*
X238362Y82001D01*
X238288Y81980D01*
X238211Y81969D01*
X238152Y81943D01*
X238090Y81926D01*
X238024Y81885D01*
X237954Y81853D01*
X237905Y81811D01*
X237850Y81778D01*
X237799Y81720D01*
X237740Y81670D01*
X237704Y81616D01*
X237661Y81568D01*
X237628Y81499D01*
X237585Y81434D01*
X237566Y81372D01*
X237538Y81315D01*
X237528Y81245D01*
X237503Y81164D01*
X237502Y81079D01*
X237491Y81010D01*
X237491Y80009D01*
X237489Y80009D01*
X237489Y81010D01*
X237481Y81068D01*
X237481Y81070D01*
X237480Y81073D01*
X237480Y81074D01*
X237481Y81138D01*
X237460Y81213D01*
X237449Y81289D01*
X237423Y81348D01*
X237406Y81410D01*
X237365Y81476D01*
X237333Y81546D01*
X237291Y81595D01*
X237258Y81650D01*
X237200Y81702D01*
X237150Y81760D01*
X237096Y81796D01*
X237048Y81839D01*
X236979Y81872D01*
X236914Y81915D01*
X236852Y81934D01*
X236794Y81962D01*
X236725Y81972D01*
X236644Y81997D01*
X236559Y81998D01*
X236490Y82009D01*
X226748Y82009D01*
X226836Y82568D01*
X227367Y84203D01*
X228148Y85735D01*
X229159Y87126D01*
X230374Y88341D01*
X231765Y89352D01*
X233213Y90090D01*
X233252Y90117D01*
X233296Y90137D01*
X233367Y90198D01*
X233444Y90252D01*
X233474Y90289D01*
X233510Y90320D01*
X233561Y90399D01*
X233620Y90472D01*
X233638Y90516D01*
X233664Y90556D01*
X233692Y90646D01*
X233728Y90733D01*
X233733Y90780D01*
X233747Y90826D01*
X233748Y90920D01*
X233758Y91013D01*
X233750Y91060D01*
X233751Y91108D01*
X233725Y91199D01*
X233709Y91291D01*
X233688Y91334D01*
X233675Y91380D01*
X233626Y91460D01*
X233584Y91544D01*
X233552Y91579D01*
X233527Y91620D01*
X233457Y91683D01*
X233394Y91752D01*
X233353Y91777D01*
X233318Y91809D01*
X233233Y91850D01*
X233153Y91898D01*
X233107Y91911D01*
X233064Y91932D01*
X232983Y91944D01*
X232881Y91972D01*
X232815Y91971D01*
X232759Y91979D01*
X224327Y91979D01*
X224232Y91966D01*
X224136Y91961D01*
X224093Y91946D01*
X224048Y91939D01*
X223960Y91900D01*
X223869Y91868D01*
X223835Y91843D01*
X223791Y91823D01*
X223693Y91740D01*
X223620Y91687D01*
X220065Y88131D01*
X220027Y88080D01*
X219980Y88035D01*
X219942Y87968D01*
X219896Y87906D01*
X219873Y87846D01*
X219841Y87790D01*
X219824Y87714D01*
X219796Y87642D01*
X219791Y87578D01*
X219777Y87515D01*
X219780Y87438D01*
X219774Y87361D01*
X219788Y87298D01*
X219791Y87234D01*
X219816Y87161D01*
X219832Y87085D01*
X219862Y87028D01*
X219883Y86967D01*
X219925Y86911D01*
X219965Y86836D01*
X220024Y86775D01*
X220065Y86718D01*
X220892Y85891D01*
X222473Y82075D01*
X222473Y77945D01*
X220892Y74129D01*
X219463Y72700D01*
X219406Y72623D01*
X219341Y72552D01*
X219321Y72511D01*
X219294Y72474D01*
X219260Y72384D01*
X219218Y72298D01*
X219212Y72256D01*
X219195Y72211D01*
X219187Y72119D01*
X219183Y72103D01*
X219182Y72067D01*
X219171Y71993D01*
X219171Y65902D01*
X218093Y63299D01*
X207211Y52417D01*
X204608Y51339D01*
X177337Y51339D01*
X177242Y51326D01*
X177146Y51321D01*
X177103Y51306D01*
X177058Y51299D01*
X176970Y51260D01*
X176879Y51228D01*
X176845Y51203D01*
X176801Y51183D01*
X176703Y51100D01*
X176630Y51047D01*
X167393Y41810D01*
X167336Y41733D01*
X167271Y41662D01*
X167251Y41621D01*
X167224Y41584D01*
X167190Y41494D01*
X167148Y41408D01*
X167142Y41366D01*
X167125Y41320D01*
X167115Y41193D01*
X167101Y41103D01*
X167101Y39933D01*
X167109Y39873D01*
X167109Y39845D01*
X167115Y39823D01*
X167119Y39742D01*
X167134Y39699D01*
X167141Y39654D01*
X167180Y39567D01*
X167212Y39476D01*
X167237Y39441D01*
X167257Y39397D01*
X167340Y39300D01*
X167393Y39227D01*
X169683Y36937D01*
X171419Y32747D01*
X171419Y28213D01*
X169683Y24023D01*
X166477Y20817D01*
X162287Y19081D01*
X157753Y19081D01*
X153563Y20817D01*
X150357Y24023D01*
X148621Y28213D01*
X148621Y32747D01*
X150357Y36937D01*
X152647Y39227D01*
X152704Y39304D01*
X152769Y39375D01*
X152789Y39416D01*
X152816Y39452D01*
X152850Y39542D01*
X152892Y39629D01*
X152898Y39671D01*
X152915Y39716D01*
X152922Y39801D01*
X152927Y39819D01*
X152928Y39860D01*
X152939Y39933D01*
X152939Y45858D01*
X154017Y48461D01*
X169979Y64423D01*
X172582Y65501D01*
X199853Y65501D01*
X199948Y65514D01*
X200044Y65519D01*
X200087Y65534D01*
X200132Y65541D01*
X200220Y65580D01*
X200311Y65612D01*
X200345Y65637D01*
X200389Y65657D01*
X200487Y65740D01*
X200560Y65793D01*
X204717Y69950D01*
X204774Y70027D01*
X204839Y70098D01*
X204859Y70139D01*
X204886Y70176D01*
X204920Y70266D01*
X204962Y70352D01*
X204968Y70394D01*
X204985Y70440D01*
X204995Y70567D01*
X205009Y70657D01*
X205009Y71993D01*
X205001Y72053D01*
X205001Y72077D01*
X204995Y72098D01*
X204991Y72185D01*
X204976Y72228D01*
X204969Y72273D01*
X204930Y72360D01*
X204898Y72451D01*
X204873Y72485D01*
X204853Y72530D01*
X204770Y72627D01*
X204717Y72700D01*
X203288Y74129D01*
X201707Y77945D01*
X201707Y82075D01*
X203288Y85891D01*
X204717Y87320D01*
X204774Y87397D01*
X204839Y87468D01*
X204859Y87509D01*
X204886Y87546D01*
X204920Y87636D01*
X204962Y87722D01*
X204968Y87764D01*
X204985Y87809D01*
X204995Y87937D01*
X205009Y88027D01*
X205009Y91578D01*
X206087Y94181D01*
X216969Y105063D01*
X219572Y106141D01*
X311613Y106141D01*
X311708Y106154D01*
X311804Y106159D01*
X311847Y106174D01*
X311892Y106181D01*
X311980Y106220D01*
X312071Y106252D01*
X312105Y106277D01*
X312149Y106297D01*
X312247Y106380D01*
X312320Y106433D01*
X317747Y111860D01*
X317804Y111937D01*
X317869Y112008D01*
X317889Y112049D01*
X317916Y112086D01*
X317950Y112176D01*
X317992Y112262D01*
X317998Y112304D01*
X318015Y112350D01*
X318025Y112477D01*
X318039Y112567D01*
X318039Y223658D01*
X319117Y226261D01*
X329999Y237143D01*
X332602Y238221D01*
X348774Y238221D01*
X348869Y238234D01*
X348965Y238239D01*
X349008Y238254D01*
X349053Y238261D01*
X349141Y238300D01*
X349232Y238332D01*
X349266Y238357D01*
X349310Y238377D01*
X349408Y238460D01*
X349481Y238513D01*
X350196Y239228D01*
X353702Y240681D01*
X357498Y240681D01*
X361004Y239228D01*
X363688Y236544D01*
X365141Y233038D01*
X365141Y229242D01*
X363688Y225736D01*
X361004Y223052D01*
X357498Y221599D01*
X353702Y221599D01*
X350196Y223052D01*
X349481Y223767D01*
X349404Y223824D01*
X349333Y223889D01*
X349292Y223909D01*
X349255Y223936D01*
X349165Y223970D01*
X349079Y224012D01*
X349037Y224018D01*
X348991Y224035D01*
X348864Y224045D01*
X348774Y224059D01*
X337357Y224059D01*
X337262Y224046D01*
X337166Y224041D01*
X337123Y224026D01*
X337078Y224019D01*
X336990Y223980D01*
X336899Y223948D01*
X336865Y223923D01*
X336821Y223903D01*
X336723Y223820D01*
X336650Y223767D01*
X332493Y219610D01*
X332436Y219533D01*
X332371Y219462D01*
X332351Y219421D01*
X332324Y219384D01*
X332290Y219294D01*
X332248Y219208D01*
X332242Y219166D01*
X332225Y219120D01*
X332215Y219002D01*
X332213Y218993D01*
X332213Y218979D01*
X332201Y218903D01*
X332201Y175027D01*
X332205Y174995D01*
X332203Y174963D01*
X332225Y174856D01*
X332241Y174748D01*
X332254Y174718D01*
X332260Y174687D01*
X332312Y174590D01*
X332357Y174491D01*
X332378Y174466D01*
X332393Y174438D01*
X332469Y174359D01*
X332540Y174276D01*
X332567Y174259D01*
X332590Y174236D01*
X332685Y174182D01*
X332776Y174122D01*
X332807Y174112D01*
X332835Y174097D01*
X332942Y174071D01*
X333046Y174040D01*
X333078Y174039D01*
X333109Y174032D01*
X333219Y174037D01*
X333328Y174036D01*
X333359Y174044D01*
X333391Y174046D01*
X333494Y174082D01*
X333600Y174111D01*
X333627Y174128D01*
X333658Y174138D01*
X333731Y174192D01*
X333840Y174259D01*
X333872Y174295D01*
X333907Y174320D01*
X342927Y183341D01*
X345848Y183341D01*
X345858Y183342D01*
X345867Y183341D01*
X345997Y183362D01*
X346128Y183381D01*
X346136Y183384D01*
X346146Y183386D01*
X346265Y183443D01*
X346385Y183497D01*
X346392Y183503D01*
X346400Y183507D01*
X346499Y183595D01*
X346599Y183680D01*
X346604Y183688D01*
X346611Y183694D01*
X346651Y183760D01*
X346753Y183916D01*
X346760Y183939D01*
X346772Y183958D01*
X347512Y185744D01*
X350196Y188428D01*
X353702Y189881D01*
X357498Y189881D01*
X361004Y188428D01*
X363688Y185744D01*
X365141Y182238D01*
X365141Y178442D01*
X363688Y174936D01*
X361004Y172252D01*
X357498Y170799D01*
X353702Y170799D01*
X350196Y172252D01*
X347512Y174936D01*
X346772Y176722D01*
X346767Y176731D01*
X346764Y176740D01*
X346695Y176852D01*
X346628Y176965D01*
X346621Y176972D01*
X346616Y176980D01*
X346518Y177068D01*
X346422Y177158D01*
X346414Y177162D01*
X346407Y177169D01*
X346288Y177226D01*
X346171Y177286D01*
X346162Y177288D01*
X346153Y177292D01*
X346077Y177304D01*
X345947Y177328D01*
X345917Y177335D01*
X345912Y177335D01*
X345894Y177338D01*
X345870Y177336D01*
X345848Y177339D01*
X345827Y177339D01*
X345732Y177326D01*
X345636Y177321D01*
X345593Y177306D01*
X345548Y177299D01*
X345460Y177260D01*
X345369Y177228D01*
X345335Y177203D01*
X345291Y177183D01*
X345193Y177100D01*
X345120Y177047D01*
X337303Y169230D01*
X337246Y169153D01*
X337181Y169082D01*
X337161Y169041D01*
X337134Y169004D01*
X337100Y168914D01*
X337058Y168828D01*
X337052Y168786D01*
X337035Y168740D01*
X337025Y168613D01*
X337011Y168523D01*
X337011Y96134D01*
X334960Y94083D01*
X329731Y88854D01*
X329674Y88777D01*
X329609Y88706D01*
X329589Y88665D01*
X329562Y88629D01*
X329528Y88539D01*
X329486Y88452D01*
X329480Y88410D01*
X329463Y88365D01*
X329453Y88237D01*
X329439Y88148D01*
X329439Y87455D01*
X329443Y87423D01*
X329441Y87390D01*
X329463Y87284D01*
X329479Y87175D01*
X329492Y87146D01*
X329498Y87114D01*
X329550Y87018D01*
X329595Y86918D01*
X329616Y86894D01*
X329631Y86865D01*
X329707Y86787D01*
X329778Y86704D01*
X329805Y86686D01*
X329828Y86663D01*
X329923Y86610D01*
X330014Y86550D01*
X330045Y86540D01*
X330073Y86524D01*
X330179Y86499D01*
X330284Y86467D01*
X330316Y86467D01*
X330347Y86459D01*
X330457Y86465D01*
X330566Y86463D01*
X330597Y86472D01*
X330629Y86474D01*
X330732Y86509D01*
X330838Y86539D01*
X330865Y86556D01*
X330896Y86566D01*
X330969Y86620D01*
X331078Y86687D01*
X331110Y86723D01*
X331145Y86748D01*
X333209Y88812D01*
X337025Y90393D01*
X341155Y90393D01*
X344971Y88812D01*
X347083Y86700D01*
X347109Y86681D01*
X347130Y86656D01*
X347222Y86596D01*
X347309Y86531D01*
X347339Y86519D01*
X347366Y86502D01*
X347471Y86470D01*
X347573Y86431D01*
X347605Y86429D01*
X347636Y86419D01*
X347745Y86418D01*
X347854Y86409D01*
X347886Y86416D01*
X347918Y86415D01*
X348023Y86445D01*
X348130Y86467D01*
X348159Y86482D01*
X348190Y86491D01*
X348283Y86548D01*
X348379Y86599D01*
X348402Y86622D01*
X348430Y86639D01*
X348503Y86720D01*
X348581Y86796D01*
X348597Y86824D01*
X348619Y86848D01*
X348666Y86946D01*
X348720Y87042D01*
X348728Y87073D01*
X348742Y87102D01*
X348756Y87191D01*
X348785Y87316D01*
X348783Y87364D01*
X348789Y87407D01*
X348789Y90143D01*
X359437Y100791D01*
X374956Y100791D01*
X375051Y100804D01*
X375147Y100809D01*
X375191Y100824D01*
X375235Y100831D01*
X375323Y100870D01*
X375414Y100902D01*
X375448Y100927D01*
X375492Y100947D01*
X375590Y101030D01*
X375663Y101083D01*
X397837Y123257D01*
X397894Y123334D01*
X397959Y123405D01*
X397979Y123446D01*
X398006Y123483D01*
X398040Y123573D01*
X398082Y123659D01*
X398088Y123701D01*
X398105Y123747D01*
X398115Y123874D01*
X398129Y123964D01*
X398129Y265233D01*
X398116Y265328D01*
X398111Y265424D01*
X398096Y265467D01*
X398089Y265512D01*
X398050Y265600D01*
X398018Y265691D01*
X397993Y265725D01*
X397973Y265769D01*
X397890Y265867D01*
X397837Y265940D01*
X381320Y282457D01*
X381243Y282514D01*
X381172Y282579D01*
X381131Y282599D01*
X381094Y282626D01*
X381004Y282660D01*
X380918Y282702D01*
X380876Y282708D01*
X380830Y282725D01*
X380703Y282735D01*
X380613Y282749D01*
X318797Y282749D01*
X310689Y290857D01*
X310689Y297947D01*
X310688Y297957D01*
X310689Y297966D01*
X310668Y298096D01*
X310649Y298226D01*
X310646Y298235D01*
X310644Y298244D01*
X310587Y298364D01*
X310533Y298483D01*
X310527Y298490D01*
X310523Y298499D01*
X310435Y298598D01*
X310350Y298698D01*
X310342Y298703D01*
X310336Y298710D01*
X310270Y298750D01*
X310114Y298852D01*
X310091Y298859D01*
X310072Y298870D01*
X307809Y299808D01*
X304888Y302729D01*
X303307Y306545D01*
X303307Y310675D01*
X304888Y314491D01*
X307000Y316603D01*
X307019Y316629D01*
X307044Y316650D01*
X307104Y316742D01*
X307169Y316829D01*
X307181Y316859D01*
X307198Y316886D01*
X307230Y316991D01*
X307269Y317093D01*
X307271Y317125D01*
X307281Y317156D01*
X307282Y317265D01*
X307291Y317374D01*
X307284Y317406D01*
X307285Y317438D01*
X307255Y317543D01*
X307233Y317650D01*
X307218Y317679D01*
X307209Y317710D01*
X307152Y317803D01*
X307101Y317899D01*
X307078Y317922D01*
X307061Y317950D01*
X306980Y318023D01*
X306904Y318101D01*
X306876Y318117D01*
X306852Y318139D01*
X306754Y318186D01*
X306658Y318240D01*
X306627Y318248D01*
X306598Y318262D01*
X306509Y318276D01*
X306384Y318305D01*
X306336Y318303D01*
X306293Y318309D01*
X295687Y318309D01*
X295655Y318305D01*
X295622Y318307D01*
X295516Y318285D01*
X295407Y318269D01*
X295378Y318256D01*
X295346Y318250D01*
X295250Y318198D01*
X295150Y318153D01*
X295126Y318132D01*
X295097Y318117D01*
X295019Y318041D01*
X294936Y317970D01*
X294918Y317943D01*
X294895Y317920D01*
X294842Y317825D01*
X294782Y317734D01*
X294772Y317703D01*
X294756Y317675D01*
X294731Y317569D01*
X294699Y317464D01*
X294699Y317432D01*
X294691Y317401D01*
X294697Y317291D01*
X294695Y317182D01*
X294704Y317151D01*
X294706Y317119D01*
X294741Y317016D01*
X294771Y316910D01*
X294788Y316883D01*
X294798Y316852D01*
X294852Y316779D01*
X294919Y316670D01*
X294955Y316638D01*
X294980Y316603D01*
X297092Y314491D01*
X298673Y310675D01*
X298673Y306545D01*
X297092Y302729D01*
X294171Y299808D01*
X290355Y298227D01*
X286225Y298227D01*
X282409Y299808D01*
X279488Y302729D01*
X277907Y306545D01*
X277907Y310675D01*
X279488Y314491D01*
X281600Y316603D01*
X281619Y316629D01*
X281644Y316650D01*
X281704Y316742D01*
X281769Y316829D01*
X281781Y316859D01*
X281798Y316886D01*
X281830Y316991D01*
X281869Y317093D01*
X281871Y317125D01*
X281881Y317156D01*
X281882Y317265D01*
X281891Y317374D01*
X281884Y317406D01*
X281885Y317438D01*
X281855Y317543D01*
X281833Y317650D01*
X281818Y317679D01*
X281809Y317710D01*
X281752Y317803D01*
X281701Y317899D01*
X281678Y317922D01*
X281661Y317950D01*
X281580Y318023D01*
X281504Y318101D01*
X281476Y318117D01*
X281452Y318139D01*
X281354Y318186D01*
X281258Y318240D01*
X281227Y318248D01*
X281198Y318262D01*
X281109Y318276D01*
X280984Y318305D01*
X280936Y318303D01*
X280893Y318309D01*
X277247Y318309D01*
X277152Y318296D01*
X277056Y318291D01*
X277013Y318276D01*
X276968Y318269D01*
X276880Y318230D01*
X276789Y318198D01*
X276755Y318173D01*
X276711Y318153D01*
X276613Y318070D01*
X276540Y318017D01*
X272552Y314028D01*
X272546Y314020D01*
X272538Y314015D01*
X272461Y313908D01*
X272382Y313802D01*
X272379Y313793D01*
X272373Y313786D01*
X272330Y313662D01*
X272283Y313539D01*
X272282Y313529D01*
X272279Y313520D01*
X272271Y313389D01*
X272261Y313257D01*
X272263Y313248D01*
X272262Y313239D01*
X272281Y313163D01*
X272319Y312981D01*
X272330Y312960D01*
X272335Y312939D01*
X273273Y310675D01*
X273273Y306545D01*
X271692Y302729D01*
X268771Y299808D01*
X264955Y298227D01*
X260825Y298227D01*
X257009Y299808D01*
X254088Y302729D01*
X252507Y306545D01*
X252507Y310675D01*
X254088Y314491D01*
X257009Y317412D01*
X260825Y318993D01*
X264955Y318993D01*
X267219Y318055D01*
X267228Y318053D01*
X267236Y318048D01*
X267365Y318017D01*
X267492Y317985D01*
X267502Y317985D01*
X267511Y317983D01*
X267643Y317990D01*
X267774Y317994D01*
X267783Y317997D01*
X267793Y317997D01*
X267917Y318041D01*
X268042Y318081D01*
X268050Y318087D01*
X268059Y318090D01*
X268121Y318135D01*
X268275Y318240D01*
X268290Y318259D01*
X268308Y318272D01*
X270640Y320603D01*
X270659Y320629D01*
X270684Y320650D01*
X270744Y320742D01*
X270809Y320829D01*
X270820Y320859D01*
X270838Y320886D01*
X270870Y320991D01*
X270909Y321093D01*
X270911Y321125D01*
X270920Y321156D01*
X270922Y321265D01*
X270930Y321374D01*
X270924Y321406D01*
X270924Y321438D01*
X270895Y321543D01*
X270873Y321650D01*
X270858Y321679D01*
X270849Y321710D01*
X270792Y321803D01*
X270740Y321899D01*
X270718Y321922D01*
X270701Y321950D01*
X270620Y322023D01*
X270544Y322101D01*
X270516Y322117D01*
X270492Y322139D01*
X270393Y322186D01*
X270298Y322240D01*
X270267Y322248D01*
X270238Y322262D01*
X270149Y322276D01*
X270024Y322305D01*
X269975Y322303D01*
X269933Y322309D01*
X250767Y322309D01*
X250672Y322296D01*
X250576Y322291D01*
X250533Y322276D01*
X250488Y322269D01*
X250400Y322230D01*
X250309Y322198D01*
X250275Y322173D01*
X250231Y322153D01*
X250133Y322070D01*
X250060Y322017D01*
X245120Y317076D01*
X245081Y317025D01*
X245035Y316980D01*
X244997Y316913D01*
X244951Y316851D01*
X244928Y316791D01*
X244896Y316735D01*
X244879Y316659D01*
X244851Y316587D01*
X244846Y316523D01*
X244832Y316460D01*
X244835Y316383D01*
X244829Y316306D01*
X244843Y316243D01*
X244846Y316179D01*
X244871Y316106D01*
X244887Y316030D01*
X244917Y315973D01*
X244938Y315912D01*
X244980Y315856D01*
X245020Y315781D01*
X245079Y315720D01*
X245120Y315663D01*
X246292Y314491D01*
X247873Y310675D01*
X247873Y306545D01*
X246292Y302729D01*
X243371Y299808D01*
X239555Y298227D01*
X235425Y298227D01*
X231609Y299808D01*
X228688Y302729D01*
X227107Y306545D01*
X227107Y310675D01*
X228688Y314491D01*
X231609Y317412D01*
X235425Y318993D01*
X238135Y318993D01*
X238230Y319006D01*
X238326Y319011D01*
X238369Y319026D01*
X238414Y319033D01*
X238502Y319072D01*
X238593Y319104D01*
X238627Y319129D01*
X238671Y319149D01*
X238769Y319232D01*
X238842Y319285D01*
X247867Y328311D01*
X291505Y328311D01*
X291537Y328315D01*
X291569Y328313D01*
X291676Y328335D01*
X291785Y328351D01*
X291814Y328364D01*
X291845Y328370D01*
X291942Y328422D01*
X292041Y328467D01*
X292066Y328488D01*
X292094Y328503D01*
X292173Y328579D01*
X292256Y328650D01*
X292273Y328677D01*
X292297Y328700D01*
X292350Y328795D01*
X292410Y328886D01*
X292420Y328917D01*
X292436Y328945D01*
X292461Y329052D01*
X292493Y329156D01*
X292493Y329188D01*
X292500Y329219D01*
X292495Y329329D01*
X292496Y329438D01*
X292488Y329469D01*
X292486Y329501D01*
X292450Y329604D01*
X292421Y329710D01*
X292404Y329737D01*
X292394Y329768D01*
X292340Y329841D01*
X292273Y329950D01*
X292237Y329982D01*
X292212Y330017D01*
X285432Y336797D01*
X282479Y339749D01*
X282479Y348285D01*
X282478Y348295D01*
X282479Y348304D01*
X282458Y348434D01*
X282439Y348564D01*
X282436Y348573D01*
X282434Y348582D01*
X282377Y348702D01*
X282323Y348821D01*
X282317Y348829D01*
X282313Y348837D01*
X282225Y348936D01*
X282140Y349036D01*
X282132Y349041D01*
X282126Y349048D01*
X282060Y349088D01*
X281904Y349190D01*
X281881Y349197D01*
X281862Y349208D01*
X280563Y349747D01*
X277357Y352953D01*
X275621Y357143D01*
X275621Y361677D01*
X277357Y365867D01*
X280563Y369073D01*
X284753Y370809D01*
X289287Y370809D01*
X293477Y369073D01*
X296683Y365867D01*
X298419Y361677D01*
X298419Y357143D01*
X296683Y352953D01*
X293477Y349747D01*
X292178Y349208D01*
X292170Y349204D01*
X292160Y349201D01*
X292047Y349131D01*
X291935Y349065D01*
X291928Y349058D01*
X291920Y349053D01*
X291832Y348955D01*
X291742Y348859D01*
X291738Y348851D01*
X291731Y348844D01*
X291674Y348726D01*
X291614Y348608D01*
X291612Y348598D01*
X291608Y348590D01*
X291596Y348514D01*
X291562Y348331D01*
X291564Y348307D01*
X291561Y348285D01*
X291561Y343925D01*
X291574Y343830D01*
X291579Y343734D01*
X291594Y343690D01*
X291601Y343646D01*
X291640Y343558D01*
X291672Y343467D01*
X291697Y343433D01*
X291717Y343389D01*
X291800Y343291D01*
X291853Y343218D01*
X298768Y336303D01*
X298845Y336246D01*
X298916Y336181D01*
X298957Y336161D01*
X298994Y336134D01*
X299084Y336100D01*
X299170Y336058D01*
X299212Y336052D01*
X299258Y336035D01*
X299385Y336025D01*
X299475Y336011D01*
X333722Y336011D01*
X333769Y336017D01*
X333817Y336015D01*
X333908Y336037D01*
X334001Y336051D01*
X334044Y336070D01*
X334091Y336081D01*
X334172Y336128D01*
X334258Y336167D01*
X334294Y336198D01*
X334336Y336222D01*
X334401Y336289D01*
X334472Y336350D01*
X334498Y336390D01*
X334531Y336424D01*
X334575Y336507D01*
X334627Y336586D01*
X334641Y336632D01*
X334663Y336674D01*
X334681Y336766D01*
X334709Y336856D01*
X334710Y336904D01*
X334719Y336950D01*
X334711Y337044D01*
X334713Y337138D01*
X334700Y337184D01*
X334696Y337231D01*
X334663Y337319D01*
X334637Y337410D01*
X334612Y337450D01*
X334595Y337495D01*
X334539Y337570D01*
X334489Y337650D01*
X334454Y337682D01*
X334425Y337720D01*
X334358Y337768D01*
X334280Y337839D01*
X334221Y337867D01*
X334175Y337900D01*
X333807Y338088D01*
X332523Y339021D01*
X331401Y340143D01*
X330468Y341426D01*
X329748Y342840D01*
X329257Y344349D01*
X329200Y344711D01*
X338090Y344711D01*
X338153Y344720D01*
X338218Y344719D01*
X338292Y344740D01*
X338369Y344751D01*
X338428Y344777D01*
X338490Y344794D01*
X338556Y344835D01*
X338626Y344867D01*
X338675Y344909D01*
X338730Y344942D01*
X338781Y345000D01*
X338840Y345050D01*
X338876Y345104D01*
X338919Y345152D01*
X338952Y345221D01*
X338995Y345286D01*
X339014Y345348D01*
X339042Y345405D01*
X339052Y345475D01*
X339077Y345556D01*
X339078Y345641D01*
X339089Y345710D01*
X339089Y346711D01*
X339091Y346711D01*
X339091Y345710D01*
X339100Y345649D01*
X339099Y345616D01*
X339100Y345614D01*
X339099Y345582D01*
X339120Y345507D01*
X339131Y345431D01*
X339157Y345372D01*
X339174Y345310D01*
X339215Y345244D01*
X339247Y345174D01*
X339289Y345125D01*
X339322Y345070D01*
X339380Y345018D01*
X339430Y344960D01*
X339484Y344924D01*
X339532Y344881D01*
X339601Y344848D01*
X339666Y344805D01*
X339728Y344786D01*
X339786Y344758D01*
X339855Y344747D01*
X339936Y344723D01*
X340021Y344722D01*
X340090Y344711D01*
X348980Y344711D01*
X348923Y344349D01*
X348432Y342840D01*
X347712Y341426D01*
X346779Y340143D01*
X345657Y339021D01*
X344373Y338088D01*
X344005Y337900D01*
X343966Y337873D01*
X343922Y337853D01*
X343851Y337792D01*
X343774Y337738D01*
X343744Y337701D01*
X343708Y337670D01*
X343656Y337591D01*
X343598Y337518D01*
X343580Y337474D01*
X343553Y337434D01*
X343526Y337344D01*
X343490Y337257D01*
X343485Y337210D01*
X343471Y337164D01*
X343470Y337070D01*
X343460Y336977D01*
X343468Y336930D01*
X343467Y336882D01*
X343492Y336791D01*
X343509Y336699D01*
X343530Y336656D01*
X343543Y336610D01*
X343592Y336530D01*
X343633Y336446D01*
X343666Y336411D01*
X343691Y336370D01*
X343760Y336307D01*
X343824Y336238D01*
X343865Y336213D01*
X343900Y336181D01*
X343984Y336140D01*
X344065Y336092D01*
X344111Y336079D01*
X344154Y336058D01*
X344235Y336046D01*
X344337Y336018D01*
X344403Y336019D01*
X344458Y336011D01*
X360366Y336011D01*
X360452Y336023D01*
X360538Y336026D01*
X360591Y336043D01*
X360645Y336051D01*
X360724Y336086D01*
X360806Y336113D01*
X360852Y336144D01*
X360902Y336167D01*
X360968Y336223D01*
X361039Y336272D01*
X361074Y336314D01*
X361116Y336350D01*
X361164Y336423D01*
X361219Y336490D01*
X361240Y336540D01*
X361271Y336586D01*
X361296Y336669D01*
X361330Y336749D01*
X361337Y336803D01*
X361353Y336856D01*
X361354Y336943D01*
X361365Y337029D01*
X361356Y337083D01*
X361357Y337138D01*
X361334Y337222D01*
X361320Y337307D01*
X361296Y337357D01*
X361282Y337410D01*
X361236Y337483D01*
X361199Y337562D01*
X361162Y337603D01*
X361133Y337650D01*
X361069Y337708D01*
X361011Y337773D01*
X360968Y337799D01*
X360924Y337839D01*
X360822Y337888D01*
X360748Y337933D01*
X359086Y338622D01*
X356402Y341306D01*
X354949Y344812D01*
X354949Y348608D01*
X356402Y352114D01*
X359086Y354798D01*
X362592Y356251D01*
X366388Y356251D01*
X369894Y354798D01*
X372578Y352114D01*
X374031Y348608D01*
X374031Y344812D01*
X372578Y341306D01*
X369894Y338622D01*
X368232Y337933D01*
X368157Y337889D01*
X368078Y337853D01*
X368036Y337818D01*
X367989Y337790D01*
X367930Y337726D01*
X367864Y337670D01*
X367834Y337624D01*
X367796Y337584D01*
X367757Y337507D01*
X367709Y337434D01*
X367693Y337381D01*
X367669Y337332D01*
X367652Y337247D01*
X367627Y337164D01*
X367626Y337109D01*
X367616Y337055D01*
X367624Y336969D01*
X367623Y336882D01*
X367638Y336829D01*
X367643Y336775D01*
X367675Y336694D01*
X367698Y336610D01*
X367727Y336563D01*
X367748Y336513D01*
X367801Y336444D01*
X367847Y336370D01*
X367887Y336334D01*
X367921Y336290D01*
X367992Y336239D01*
X368056Y336181D01*
X368105Y336157D01*
X368150Y336125D01*
X368232Y336096D01*
X368310Y336058D01*
X368360Y336050D01*
X368416Y336031D01*
X368529Y336024D01*
X368614Y336011D01*
X385766Y336011D01*
X385852Y336023D01*
X385938Y336026D01*
X385991Y336043D01*
X386045Y336051D01*
X386124Y336086D01*
X386206Y336113D01*
X386252Y336144D01*
X386302Y336167D01*
X386368Y336223D01*
X386439Y336272D01*
X386474Y336314D01*
X386516Y336350D01*
X386564Y336423D01*
X386619Y336490D01*
X386640Y336540D01*
X386671Y336586D01*
X386696Y336669D01*
X386730Y336749D01*
X386737Y336803D01*
X386753Y336856D01*
X386754Y336943D01*
X386765Y337029D01*
X386756Y337083D01*
X386757Y337138D01*
X386734Y337222D01*
X386720Y337307D01*
X386696Y337357D01*
X386682Y337410D01*
X386636Y337483D01*
X386599Y337562D01*
X386562Y337603D01*
X386533Y337650D01*
X386469Y337708D01*
X386411Y337773D01*
X386368Y337799D01*
X386324Y337839D01*
X386222Y337888D01*
X386148Y337933D01*
X384486Y338622D01*
X381802Y341306D01*
X380349Y344812D01*
X380349Y348608D01*
X381802Y352114D01*
X384486Y354798D01*
X387992Y356251D01*
X391788Y356251D01*
X395294Y354798D01*
X397978Y352114D01*
X399431Y348608D01*
X399431Y344812D01*
X397978Y341306D01*
X395294Y338622D01*
X393632Y337933D01*
X393557Y337889D01*
X393478Y337853D01*
X393436Y337818D01*
X393389Y337790D01*
X393330Y337726D01*
X393264Y337670D01*
X393234Y337624D01*
X393196Y337584D01*
X393157Y337507D01*
X393109Y337434D01*
X393093Y337381D01*
X393069Y337332D01*
X393052Y337247D01*
X393027Y337164D01*
X393026Y337109D01*
X393016Y337055D01*
X393024Y336969D01*
X393023Y336882D01*
X393038Y336829D01*
X393043Y336775D01*
X393075Y336694D01*
X393098Y336610D01*
X393127Y336563D01*
X393148Y336513D01*
X393201Y336444D01*
X393247Y336370D01*
X393287Y336334D01*
X393321Y336290D01*
X393392Y336239D01*
X393456Y336181D01*
X393505Y336157D01*
X393550Y336125D01*
X393632Y336096D01*
X393710Y336058D01*
X393760Y336050D01*
X393816Y336031D01*
X393929Y336024D01*
X394014Y336011D01*
X411166Y336011D01*
X411252Y336023D01*
X411338Y336026D01*
X411391Y336043D01*
X411445Y336051D01*
X411524Y336086D01*
X411606Y336113D01*
X411652Y336144D01*
X411702Y336167D01*
X411768Y336223D01*
X411839Y336272D01*
X411874Y336314D01*
X411916Y336350D01*
X411964Y336423D01*
X412019Y336490D01*
X412040Y336540D01*
X412071Y336586D01*
X412096Y336669D01*
X412130Y336749D01*
X412137Y336803D01*
X412153Y336856D01*
X412154Y336943D01*
X412165Y337029D01*
X412156Y337083D01*
X412157Y337138D01*
X412134Y337222D01*
X412120Y337307D01*
X412096Y337357D01*
X412082Y337410D01*
X412036Y337483D01*
X411999Y337562D01*
X411962Y337603D01*
X411933Y337650D01*
X411869Y337708D01*
X411811Y337773D01*
X411768Y337799D01*
X411724Y337839D01*
X411622Y337888D01*
X411548Y337933D01*
X409886Y338622D01*
X407202Y341306D01*
X405749Y344812D01*
X405749Y348608D01*
X407202Y352114D01*
X409886Y354798D01*
X413392Y356251D01*
X417188Y356251D01*
X420694Y354798D01*
X423378Y352114D01*
X424831Y348608D01*
X424831Y344812D01*
X423312Y341145D01*
X423290Y341061D01*
X423259Y340979D01*
X423255Y340925D01*
X423242Y340872D01*
X423244Y340785D01*
X423238Y340698D01*
X423249Y340644D01*
X423251Y340590D01*
X423278Y340507D01*
X423295Y340422D01*
X423321Y340374D01*
X423338Y340322D01*
X423387Y340250D01*
X423428Y340173D01*
X423466Y340134D01*
X423497Y340089D01*
X423564Y340033D01*
X423625Y339971D01*
X423672Y339944D01*
X423715Y339909D01*
X423794Y339875D01*
X423870Y339832D01*
X423923Y339819D01*
X423974Y339798D01*
X424060Y339787D01*
X424145Y339767D01*
X424199Y339770D01*
X424254Y339763D01*
X424339Y339777D01*
X424426Y339782D01*
X424478Y339800D01*
X424532Y339808D01*
X424611Y339846D01*
X424693Y339874D01*
X424734Y339904D01*
X424787Y339929D01*
X424813Y339953D01*
X426889Y340813D01*
X429091Y340813D01*
X431159Y339956D01*
X431171Y339944D01*
X431220Y339919D01*
X431264Y339887D01*
X431345Y339856D01*
X431423Y339817D01*
X431477Y339806D01*
X431528Y339787D01*
X431614Y339780D01*
X431700Y339764D01*
X431754Y339769D01*
X431809Y339765D01*
X431894Y339783D01*
X431981Y339791D01*
X432032Y339812D01*
X432085Y339823D01*
X432162Y339863D01*
X432243Y339896D01*
X432286Y339929D01*
X432334Y339955D01*
X432396Y340016D01*
X432465Y340069D01*
X432497Y340114D01*
X432536Y340152D01*
X432579Y340227D01*
X432630Y340298D01*
X432648Y340350D01*
X432675Y340397D01*
X432695Y340482D01*
X432724Y340564D01*
X432728Y340618D01*
X432740Y340672D01*
X432736Y340758D01*
X432741Y340845D01*
X432729Y340895D01*
X432726Y340953D01*
X432689Y341061D01*
X432668Y341145D01*
X431149Y344812D01*
X431149Y348608D01*
X432602Y352114D01*
X435286Y354798D01*
X438792Y356251D01*
X442588Y356251D01*
X446094Y354798D01*
X448778Y352114D01*
X450231Y348608D01*
X450231Y344812D01*
X448778Y341306D01*
X446094Y338622D01*
X444308Y337882D01*
X444299Y337877D01*
X444290Y337874D01*
X444178Y337805D01*
X444065Y337738D01*
X444058Y337731D01*
X444050Y337726D01*
X443962Y337628D01*
X443872Y337532D01*
X443868Y337524D01*
X443861Y337517D01*
X443803Y337397D01*
X443744Y337281D01*
X443742Y337272D01*
X443738Y337263D01*
X443726Y337187D01*
X443692Y337004D01*
X443694Y336980D01*
X443691Y336958D01*
X443691Y330417D01*
X439290Y326017D01*
X439271Y325991D01*
X439246Y325970D01*
X439186Y325878D01*
X439121Y325791D01*
X439110Y325761D01*
X439092Y325734D01*
X439060Y325629D01*
X439021Y325527D01*
X439019Y325495D01*
X439010Y325464D01*
X439008Y325355D01*
X439000Y325246D01*
X439006Y325214D01*
X439006Y325182D01*
X439035Y325077D01*
X439057Y324970D01*
X439072Y324941D01*
X439081Y324910D01*
X439138Y324817D01*
X439190Y324721D01*
X439212Y324698D01*
X439229Y324670D01*
X439310Y324597D01*
X439386Y324519D01*
X439414Y324503D01*
X439438Y324481D01*
X439537Y324434D01*
X439632Y324380D01*
X439663Y324372D01*
X439692Y324358D01*
X439781Y324344D01*
X439906Y324315D01*
X439955Y324317D01*
X439997Y324311D01*
X446653Y324311D01*
X446748Y324324D01*
X446844Y324329D01*
X446887Y324344D01*
X446932Y324351D01*
X447020Y324390D01*
X447111Y324422D01*
X447145Y324447D01*
X447189Y324467D01*
X447287Y324550D01*
X447360Y324603D01*
X460325Y337569D01*
X460364Y337620D01*
X460410Y337665D01*
X460448Y337733D01*
X460495Y337795D01*
X460517Y337855D01*
X460549Y337911D01*
X460567Y337986D01*
X460594Y338058D01*
X460599Y338122D01*
X460614Y338185D01*
X460610Y338262D01*
X460616Y338340D01*
X460603Y338403D01*
X460599Y338467D01*
X460574Y338540D01*
X460558Y338616D01*
X460528Y338672D01*
X460507Y338733D01*
X460466Y338790D01*
X460426Y338865D01*
X460367Y338925D01*
X460325Y338982D01*
X458002Y341306D01*
X456549Y344812D01*
X456549Y348608D01*
X458002Y352114D01*
X460686Y354798D01*
X464192Y356251D01*
X467988Y356251D01*
X471494Y354798D01*
X474178Y352114D01*
X475631Y348608D01*
X475631Y344812D01*
X474178Y341306D01*
X471494Y338622D01*
X468897Y337546D01*
X468861Y337525D01*
X468822Y337511D01*
X468753Y337460D01*
X468655Y337402D01*
X468614Y337359D01*
X468573Y337329D01*
X449553Y318309D01*
X448087Y318309D01*
X448055Y318305D01*
X448022Y318307D01*
X447916Y318285D01*
X447807Y318269D01*
X447778Y318256D01*
X447746Y318250D01*
X447650Y318198D01*
X447550Y318153D01*
X447526Y318132D01*
X447497Y318117D01*
X447419Y318041D01*
X447336Y317970D01*
X447318Y317943D01*
X447295Y317920D01*
X447242Y317825D01*
X447182Y317734D01*
X447172Y317703D01*
X447156Y317675D01*
X447131Y317569D01*
X447099Y317464D01*
X447099Y317432D01*
X447091Y317401D01*
X447097Y317291D01*
X447095Y317182D01*
X447104Y317151D01*
X447106Y317119D01*
X447141Y317016D01*
X447171Y316910D01*
X447188Y316883D01*
X447198Y316852D01*
X447252Y316779D01*
X447319Y316670D01*
X447355Y316638D01*
X447380Y316603D01*
X449492Y314491D01*
X451073Y310675D01*
X451073Y306545D01*
X449492Y302729D01*
X446571Y299808D01*
X442755Y298227D01*
X438625Y298227D01*
X434809Y299808D01*
X431888Y302729D01*
X430307Y306545D01*
X430307Y310675D01*
X431888Y314491D01*
X434000Y316603D01*
X434019Y316629D01*
X434044Y316650D01*
X434104Y316742D01*
X434169Y316829D01*
X434181Y316859D01*
X434198Y316886D01*
X434230Y316991D01*
X434269Y317093D01*
X434271Y317125D01*
X434281Y317156D01*
X434282Y317265D01*
X434291Y317374D01*
X434284Y317406D01*
X434285Y317438D01*
X434255Y317543D01*
X434233Y317650D01*
X434218Y317679D01*
X434209Y317710D01*
X434152Y317803D01*
X434101Y317899D01*
X434078Y317922D01*
X434061Y317950D01*
X433980Y318023D01*
X433904Y318101D01*
X433876Y318117D01*
X433852Y318139D01*
X433754Y318186D01*
X433658Y318240D01*
X433627Y318248D01*
X433598Y318262D01*
X433509Y318276D01*
X433384Y318305D01*
X433336Y318303D01*
X433293Y318309D01*
X422687Y318309D01*
X422655Y318305D01*
X422622Y318307D01*
X422516Y318285D01*
X422407Y318269D01*
X422378Y318256D01*
X422346Y318250D01*
X422250Y318198D01*
X422150Y318153D01*
X422126Y318132D01*
X422097Y318117D01*
X422019Y318041D01*
X421936Y317970D01*
X421918Y317943D01*
X421895Y317920D01*
X421842Y317825D01*
X421782Y317734D01*
X421772Y317703D01*
X421756Y317675D01*
X421731Y317569D01*
X421699Y317464D01*
X421699Y317432D01*
X421691Y317401D01*
X421697Y317291D01*
X421695Y317182D01*
X421704Y317151D01*
X421706Y317119D01*
X421741Y317016D01*
X421771Y316910D01*
X421788Y316883D01*
X421798Y316852D01*
X421852Y316779D01*
X421919Y316670D01*
X421955Y316638D01*
X421980Y316603D01*
X424092Y314491D01*
X425673Y310675D01*
X425673Y306545D01*
X424092Y302729D01*
X421171Y299808D01*
X418709Y298788D01*
X418674Y298767D01*
X418634Y298753D01*
X418565Y298703D01*
X418467Y298645D01*
X418426Y298602D01*
X418385Y298572D01*
X416240Y296427D01*
X416240Y296426D01*
X412423Y292610D01*
X412366Y292533D01*
X412301Y292462D01*
X412281Y292421D01*
X412254Y292384D01*
X412220Y292294D01*
X412178Y292208D01*
X412172Y292166D01*
X412155Y292120D01*
X412145Y291993D01*
X412131Y291903D01*
X412131Y117750D01*
X404613Y110233D01*
X404556Y110156D01*
X404491Y110085D01*
X404471Y110044D01*
X404444Y110007D01*
X404410Y109917D01*
X404368Y109831D01*
X404362Y109789D01*
X404345Y109743D01*
X404335Y109616D01*
X404321Y109526D01*
X404321Y85683D01*
X404333Y85597D01*
X404336Y85510D01*
X404353Y85458D01*
X404361Y85404D01*
X404396Y85324D01*
X404423Y85242D01*
X404454Y85197D01*
X404477Y85147D01*
X404533Y85081D01*
X404582Y85009D01*
X404624Y84974D01*
X404660Y84932D01*
X404733Y84885D01*
X404800Y84830D01*
X404850Y84808D01*
X404896Y84778D01*
X404979Y84752D01*
X405059Y84718D01*
X405113Y84712D01*
X405166Y84695D01*
X405253Y84694D01*
X405339Y84684D01*
X405393Y84692D01*
X405448Y84692D01*
X405532Y84715D01*
X405617Y84729D01*
X405667Y84752D01*
X405720Y84767D01*
X405794Y84813D01*
X405872Y84850D01*
X405913Y84886D01*
X405960Y84915D01*
X406018Y84979D01*
X406083Y85037D01*
X406109Y85081D01*
X406149Y85124D01*
X406198Y85227D01*
X406243Y85300D01*
X406488Y85891D01*
X409409Y88812D01*
X413225Y90393D01*
X417355Y90393D01*
X421171Y88812D01*
X424092Y85891D01*
X425673Y82075D01*
X425673Y77945D01*
X424092Y74129D01*
X421171Y71208D01*
X418908Y70270D01*
X418899Y70265D01*
X418890Y70263D01*
X418778Y70194D01*
X418665Y70127D01*
X418658Y70120D01*
X418650Y70115D01*
X418562Y70017D01*
X418472Y69921D01*
X418468Y69913D01*
X418461Y69905D01*
X418404Y69787D01*
X418344Y69669D01*
X418342Y69660D01*
X418338Y69652D01*
X418326Y69576D01*
X418292Y69392D01*
X418294Y69368D01*
X418291Y69347D01*
X418291Y68967D01*
X418304Y68872D01*
X418309Y68776D01*
X418324Y68733D01*
X418331Y68688D01*
X418370Y68600D01*
X418402Y68509D01*
X418427Y68475D01*
X418447Y68431D01*
X418510Y68357D01*
X418538Y68312D01*
X418562Y68290D01*
X418583Y68260D01*
X435916Y50927D01*
X435924Y50922D01*
X435930Y50914D01*
X436037Y50837D01*
X436142Y50758D01*
X436151Y50755D01*
X436159Y50749D01*
X436282Y50705D01*
X436406Y50658D01*
X436415Y50658D01*
X436424Y50655D01*
X436556Y50647D01*
X436687Y50637D01*
X436696Y50639D01*
X436706Y50638D01*
X436781Y50656D01*
X436963Y50694D01*
X436984Y50706D01*
X437005Y50711D01*
X438792Y51451D01*
X442588Y51451D01*
X446094Y49998D01*
X448683Y47409D01*
X448709Y47390D01*
X448730Y47365D01*
X448822Y47305D01*
X448909Y47240D01*
X448939Y47228D01*
X448966Y47211D01*
X449071Y47179D01*
X449173Y47140D01*
X449205Y47138D01*
X449236Y47128D01*
X449345Y47127D01*
X449454Y47119D01*
X449486Y47125D01*
X449518Y47125D01*
X449623Y47154D01*
X449730Y47176D01*
X449759Y47191D01*
X449790Y47200D01*
X449883Y47257D01*
X449979Y47309D01*
X450002Y47331D01*
X450030Y47348D01*
X450103Y47429D01*
X450181Y47505D01*
X450197Y47533D01*
X450219Y47557D01*
X450266Y47656D01*
X450320Y47751D01*
X450328Y47782D01*
X450342Y47811D01*
X450356Y47900D01*
X450385Y48025D01*
X450383Y48074D01*
X450389Y48116D01*
X450389Y72613D01*
X450385Y72645D01*
X450387Y72678D01*
X450365Y72784D01*
X450349Y72893D01*
X450336Y72922D01*
X450330Y72954D01*
X450278Y73050D01*
X450233Y73150D01*
X450212Y73174D01*
X450197Y73203D01*
X450121Y73281D01*
X450050Y73364D01*
X450023Y73382D01*
X450000Y73405D01*
X449905Y73458D01*
X449814Y73518D01*
X449783Y73528D01*
X449755Y73544D01*
X449649Y73569D01*
X449544Y73601D01*
X449512Y73601D01*
X449481Y73609D01*
X449371Y73603D01*
X449262Y73605D01*
X449231Y73596D01*
X449199Y73594D01*
X449096Y73559D01*
X448990Y73529D01*
X448963Y73512D01*
X448932Y73502D01*
X448859Y73448D01*
X448750Y73381D01*
X448718Y73345D01*
X448683Y73320D01*
X446571Y71208D01*
X442755Y69627D01*
X438625Y69627D01*
X434809Y71208D01*
X431888Y74129D01*
X430307Y77945D01*
X430307Y82075D01*
X431888Y85891D01*
X434809Y88812D01*
X438625Y90393D01*
X442755Y90393D01*
X446571Y88812D01*
X448683Y86700D01*
X448709Y86681D01*
X448730Y86656D01*
X448822Y86596D01*
X448909Y86531D01*
X448939Y86519D01*
X448966Y86502D01*
X449071Y86470D01*
X449173Y86431D01*
X449205Y86429D01*
X449236Y86419D01*
X449345Y86418D01*
X449454Y86409D01*
X449486Y86416D01*
X449518Y86415D01*
X449623Y86445D01*
X449730Y86467D01*
X449759Y86482D01*
X449790Y86491D01*
X449883Y86548D01*
X449979Y86599D01*
X450002Y86622D01*
X450030Y86639D01*
X450103Y86720D01*
X450181Y86796D01*
X450197Y86824D01*
X450219Y86848D01*
X450266Y86946D01*
X450320Y87042D01*
X450328Y87073D01*
X450342Y87102D01*
X450356Y87191D01*
X450385Y87316D01*
X450383Y87364D01*
X450389Y87407D01*
X450389Y87603D01*
X458497Y95711D01*
X538453Y95711D01*
X543478Y90685D01*
X543555Y90628D01*
X543626Y90563D01*
X543667Y90543D01*
X543704Y90516D01*
X543794Y90482D01*
X543880Y90440D01*
X543922Y90434D01*
X543968Y90417D01*
X544095Y90407D01*
X544185Y90393D01*
X544355Y90393D01*
X548171Y88812D01*
X551092Y85891D01*
X552673Y82075D01*
X552673Y77945D01*
X551092Y74129D01*
X548171Y71208D01*
X544355Y69627D01*
X540225Y69627D01*
X536409Y71208D01*
X533488Y74129D01*
X531907Y77945D01*
X531907Y82075D01*
X533488Y85891D01*
X535600Y88003D01*
X535619Y88029D01*
X535644Y88050D01*
X535704Y88142D01*
X535769Y88229D01*
X535781Y88259D01*
X535798Y88286D01*
X535830Y88391D01*
X535869Y88493D01*
X535871Y88525D01*
X535881Y88556D01*
X535882Y88665D01*
X535891Y88774D01*
X535884Y88806D01*
X535885Y88838D01*
X535855Y88943D01*
X535833Y89050D01*
X535818Y89079D01*
X535809Y89110D01*
X535752Y89203D01*
X535701Y89299D01*
X535678Y89322D01*
X535661Y89350D01*
X535580Y89423D01*
X535504Y89501D01*
X535476Y89517D01*
X535452Y89539D01*
X535354Y89586D01*
X535258Y89640D01*
X535227Y89648D01*
X535198Y89662D01*
X535109Y89676D01*
X534984Y89705D01*
X534936Y89703D01*
X534893Y89709D01*
X524287Y89709D01*
X524255Y89705D01*
X524222Y89707D01*
X524116Y89685D01*
X524007Y89669D01*
X523978Y89656D01*
X523946Y89650D01*
X523850Y89598D01*
X523750Y89553D01*
X523726Y89532D01*
X523697Y89517D01*
X523619Y89441D01*
X523536Y89370D01*
X523518Y89343D01*
X523495Y89320D01*
X523442Y89225D01*
X523382Y89134D01*
X523372Y89103D01*
X523356Y89075D01*
X523331Y88969D01*
X523299Y88864D01*
X523299Y88832D01*
X523291Y88801D01*
X523297Y88691D01*
X523295Y88582D01*
X523304Y88551D01*
X523306Y88519D01*
X523341Y88416D01*
X523371Y88310D01*
X523388Y88283D01*
X523398Y88252D01*
X523452Y88179D01*
X523519Y88070D01*
X523555Y88038D01*
X523580Y88003D01*
X525692Y85891D01*
X527273Y82075D01*
X527273Y77945D01*
X525692Y74129D01*
X522771Y71208D01*
X518955Y69627D01*
X514825Y69627D01*
X511009Y71208D01*
X508088Y74129D01*
X506507Y77945D01*
X506507Y82075D01*
X508088Y85891D01*
X510200Y88003D01*
X510219Y88029D01*
X510244Y88050D01*
X510304Y88142D01*
X510369Y88229D01*
X510381Y88259D01*
X510398Y88286D01*
X510430Y88391D01*
X510469Y88493D01*
X510471Y88525D01*
X510481Y88556D01*
X510482Y88665D01*
X510491Y88774D01*
X510484Y88806D01*
X510485Y88838D01*
X510455Y88943D01*
X510433Y89050D01*
X510418Y89079D01*
X510409Y89110D01*
X510352Y89203D01*
X510301Y89299D01*
X510278Y89322D01*
X510261Y89350D01*
X510180Y89423D01*
X510104Y89501D01*
X510076Y89517D01*
X510052Y89539D01*
X509954Y89586D01*
X509858Y89640D01*
X509827Y89648D01*
X509798Y89662D01*
X509709Y89676D01*
X509584Y89705D01*
X509536Y89703D01*
X509493Y89709D01*
X498887Y89709D01*
X498855Y89705D01*
X498822Y89707D01*
X498716Y89685D01*
X498607Y89669D01*
X498578Y89656D01*
X498546Y89650D01*
X498450Y89598D01*
X498350Y89553D01*
X498326Y89532D01*
X498297Y89517D01*
X498219Y89441D01*
X498136Y89370D01*
X498118Y89343D01*
X498095Y89320D01*
X498042Y89225D01*
X497982Y89134D01*
X497972Y89103D01*
X497956Y89075D01*
X497931Y88969D01*
X497899Y88864D01*
X497899Y88832D01*
X497891Y88801D01*
X497897Y88691D01*
X497895Y88582D01*
X497904Y88551D01*
X497906Y88519D01*
X497941Y88416D01*
X497971Y88310D01*
X497988Y88283D01*
X497998Y88252D01*
X498052Y88179D01*
X498119Y88070D01*
X498155Y88038D01*
X498180Y88003D01*
X500292Y85891D01*
X501873Y82075D01*
X501873Y77945D01*
X500935Y75681D01*
X500933Y75672D01*
X500928Y75664D01*
X500897Y75535D01*
X500865Y75408D01*
X500865Y75398D01*
X500863Y75389D01*
X500870Y75256D01*
X500874Y75126D01*
X500877Y75117D01*
X500877Y75107D01*
X500921Y74983D01*
X500961Y74858D01*
X500967Y74850D01*
X500970Y74841D01*
X501015Y74779D01*
X501120Y74625D01*
X501139Y74609D01*
X501152Y74592D01*
X505921Y69823D01*
X505921Y45383D01*
X505933Y45297D01*
X505936Y45210D01*
X505953Y45158D01*
X505961Y45103D01*
X505996Y45024D01*
X506023Y44942D01*
X506054Y44896D01*
X506077Y44846D01*
X506133Y44780D01*
X506182Y44709D01*
X506224Y44674D01*
X506260Y44632D01*
X506333Y44584D01*
X506400Y44529D01*
X506450Y44508D01*
X506496Y44478D01*
X506579Y44452D01*
X506659Y44418D01*
X506713Y44411D01*
X506766Y44395D01*
X506853Y44394D01*
X506939Y44383D01*
X506993Y44392D01*
X507048Y44391D01*
X507132Y44415D01*
X507217Y44428D01*
X507267Y44452D01*
X507320Y44467D01*
X507394Y44512D01*
X507472Y44550D01*
X507513Y44586D01*
X507560Y44615D01*
X507618Y44679D01*
X507683Y44737D01*
X507709Y44780D01*
X507749Y44824D01*
X507798Y44926D01*
X507843Y45000D01*
X508802Y47314D01*
X511486Y49998D01*
X514992Y51451D01*
X518788Y51451D01*
X522294Y49998D01*
X524978Y47314D01*
X526431Y43808D01*
X526431Y40012D01*
X524978Y36506D01*
X522294Y33822D01*
X518788Y32369D01*
X514992Y32369D01*
X511486Y33822D01*
X508802Y36506D01*
X507843Y38820D01*
X507799Y38895D01*
X507763Y38974D01*
X507728Y39015D01*
X507700Y39063D01*
X507636Y39122D01*
X507580Y39188D01*
X507534Y39218D01*
X507494Y39256D01*
X507417Y39295D01*
X507344Y39342D01*
X507291Y39358D01*
X507242Y39383D01*
X507157Y39399D01*
X507074Y39425D01*
X507019Y39425D01*
X506965Y39436D01*
X506879Y39427D01*
X506792Y39429D01*
X506739Y39414D01*
X506685Y39409D01*
X506604Y39376D01*
X506520Y39353D01*
X506473Y39324D01*
X506423Y39304D01*
X506354Y39251D01*
X506280Y39205D01*
X506243Y39164D01*
X506200Y39131D01*
X506150Y39060D01*
X506091Y38996D01*
X506067Y38946D01*
X506035Y38902D01*
X506006Y38820D01*
X505968Y38742D01*
X505960Y38692D01*
X505941Y38636D01*
X505934Y38523D01*
X505921Y38437D01*
X505921Y30507D01*
X489813Y14399D01*
X273457Y14399D01*
G37*
%LPD*%
%LPC*%
G36*
X558484Y100837D02*
X558484Y100837D01*
X558037Y101284D01*
X558037Y279716D01*
X558484Y280163D01*
X673416Y280163D01*
X673863Y279716D01*
X673863Y101284D01*
X673416Y100837D01*
X558484Y100837D01*
G37*
%LPD*%
%LPC*%
G36*
X132353Y19081D02*
X132353Y19081D01*
X128163Y20817D01*
X124957Y24023D01*
X123221Y28213D01*
X123221Y32747D01*
X124957Y36937D01*
X127247Y39227D01*
X127304Y39304D01*
X127369Y39375D01*
X127389Y39416D01*
X127416Y39452D01*
X127450Y39542D01*
X127492Y39629D01*
X127498Y39671D01*
X127515Y39716D01*
X127522Y39801D01*
X127527Y39819D01*
X127528Y39860D01*
X127539Y39933D01*
X127539Y45858D01*
X128617Y48461D01*
X152680Y72524D01*
X152718Y72575D01*
X152765Y72620D01*
X152803Y72687D01*
X152849Y72749D01*
X152872Y72809D01*
X152904Y72865D01*
X152921Y72941D01*
X152949Y73013D01*
X152954Y73077D01*
X152968Y73140D01*
X152965Y73217D01*
X152971Y73294D01*
X152957Y73357D01*
X152954Y73421D01*
X152929Y73495D01*
X152913Y73570D01*
X152883Y73627D01*
X152862Y73688D01*
X152820Y73744D01*
X152780Y73819D01*
X152721Y73880D01*
X152680Y73937D01*
X152488Y74129D01*
X150907Y77945D01*
X150907Y82075D01*
X152488Y85891D01*
X155409Y88812D01*
X159225Y90393D01*
X162682Y90393D01*
X162777Y90406D01*
X162873Y90411D01*
X162916Y90426D01*
X162961Y90433D01*
X163049Y90472D01*
X163140Y90504D01*
X163174Y90529D01*
X163218Y90549D01*
X163316Y90632D01*
X163389Y90685D01*
X175253Y102549D01*
X175310Y102626D01*
X175375Y102698D01*
X175395Y102739D01*
X175422Y102775D01*
X175456Y102865D01*
X175498Y102951D01*
X175504Y102993D01*
X175521Y103039D01*
X175531Y103166D01*
X175545Y103256D01*
X175545Y135700D01*
X175536Y135764D01*
X175537Y135828D01*
X175516Y135903D01*
X175505Y135979D01*
X175479Y136038D01*
X175462Y136100D01*
X175421Y136166D01*
X175389Y136236D01*
X175347Y136285D01*
X175314Y136340D01*
X175256Y136392D01*
X175206Y136450D01*
X175152Y136486D01*
X175104Y136529D01*
X175035Y136562D01*
X174970Y136605D01*
X174908Y136624D01*
X174851Y136652D01*
X174781Y136663D01*
X174700Y136687D01*
X174615Y136688D01*
X174546Y136699D01*
X108908Y136699D01*
X108898Y136698D01*
X108889Y136699D01*
X108759Y136678D01*
X108628Y136659D01*
X108620Y136656D01*
X108610Y136654D01*
X108491Y136597D01*
X108371Y136543D01*
X108364Y136537D01*
X108356Y136533D01*
X108257Y136445D01*
X108157Y136360D01*
X108152Y136352D01*
X108145Y136346D01*
X108105Y136280D01*
X108003Y136124D01*
X107996Y136101D01*
X107984Y136082D01*
X107774Y135575D01*
X105725Y133526D01*
X103988Y132806D01*
X103979Y132801D01*
X103970Y132799D01*
X103893Y132751D01*
X103884Y132747D01*
X103879Y132742D01*
X103858Y132729D01*
X103745Y132663D01*
X103738Y132656D01*
X103730Y132651D01*
X103642Y132553D01*
X103552Y132457D01*
X103548Y132448D01*
X103541Y132441D01*
X103484Y132323D01*
X103424Y132205D01*
X103422Y132196D01*
X103418Y132188D01*
X103406Y132112D01*
X103372Y131928D01*
X103374Y131904D01*
X103371Y131883D01*
X103371Y128571D01*
X102199Y127399D01*
X87841Y127399D01*
X86669Y128571D01*
X86669Y150829D01*
X87841Y152001D01*
X102199Y152001D01*
X103371Y150829D01*
X103371Y147517D01*
X103372Y147508D01*
X103371Y147498D01*
X103392Y147368D01*
X103411Y147238D01*
X103414Y147229D01*
X103416Y147220D01*
X103473Y147100D01*
X103527Y146981D01*
X103533Y146974D01*
X103537Y146965D01*
X103625Y146866D01*
X103710Y146767D01*
X103718Y146761D01*
X103724Y146754D01*
X103790Y146714D01*
X103946Y146612D01*
X103969Y146605D01*
X103988Y146594D01*
X105725Y145874D01*
X107774Y143825D01*
X107984Y143318D01*
X107989Y143309D01*
X107992Y143300D01*
X108061Y143188D01*
X108128Y143075D01*
X108135Y143068D01*
X108140Y143060D01*
X108238Y142972D01*
X108334Y142882D01*
X108342Y142878D01*
X108349Y142871D01*
X108468Y142814D01*
X108585Y142754D01*
X108594Y142752D01*
X108603Y142748D01*
X108679Y142736D01*
X108862Y142702D01*
X108886Y142704D01*
X108908Y142701D01*
X174546Y142701D01*
X174610Y142710D01*
X174674Y142709D01*
X174749Y142730D01*
X174825Y142741D01*
X174884Y142767D01*
X174946Y142784D01*
X175012Y142825D01*
X175082Y142857D01*
X175131Y142899D01*
X175186Y142932D01*
X175238Y142990D01*
X175296Y143040D01*
X175332Y143094D01*
X175375Y143142D01*
X175408Y143211D01*
X175451Y143276D01*
X175470Y143338D01*
X175498Y143395D01*
X175509Y143465D01*
X175533Y143546D01*
X175534Y143631D01*
X175545Y143700D01*
X175545Y147256D01*
X176469Y149485D01*
X178175Y151191D01*
X180404Y152115D01*
X182816Y152115D01*
X185045Y151191D01*
X186751Y149485D01*
X187675Y147256D01*
X187675Y132794D01*
X187684Y132730D01*
X187683Y132666D01*
X187704Y132591D01*
X187715Y132515D01*
X187741Y132456D01*
X187758Y132394D01*
X187799Y132328D01*
X187831Y132258D01*
X187873Y132209D01*
X187906Y132154D01*
X187964Y132102D01*
X188014Y132044D01*
X188068Y132008D01*
X188116Y131965D01*
X188185Y131932D01*
X188250Y131889D01*
X188312Y131870D01*
X188369Y131842D01*
X188439Y131831D01*
X188520Y131807D01*
X188605Y131806D01*
X188674Y131795D01*
X239486Y131795D01*
X239518Y131799D01*
X239550Y131797D01*
X239657Y131819D01*
X239765Y131835D01*
X239795Y131848D01*
X239826Y131854D01*
X239922Y131906D01*
X240022Y131951D01*
X240047Y131972D01*
X240075Y131987D01*
X240153Y132063D01*
X240237Y132134D01*
X240254Y132161D01*
X240277Y132184D01*
X240331Y132279D01*
X240391Y132370D01*
X240400Y132401D01*
X240416Y132429D01*
X240441Y132535D01*
X240473Y132640D01*
X240474Y132672D01*
X240481Y132703D01*
X240476Y132813D01*
X240477Y132922D01*
X240469Y132953D01*
X240467Y132985D01*
X240431Y133088D01*
X240402Y133194D01*
X240385Y133221D01*
X240374Y133252D01*
X240321Y133325D01*
X240254Y133434D01*
X240218Y133466D01*
X240193Y133501D01*
X238699Y134995D01*
X237775Y137224D01*
X237775Y154876D01*
X238699Y157105D01*
X249295Y167701D01*
X251524Y168625D01*
X279014Y168625D01*
X279109Y168638D01*
X279205Y168643D01*
X279248Y168658D01*
X279293Y168665D01*
X279381Y168704D01*
X279472Y168736D01*
X279506Y168761D01*
X279550Y168781D01*
X279648Y168864D01*
X279721Y168917D01*
X287267Y176463D01*
X287324Y176540D01*
X287389Y176612D01*
X287409Y176653D01*
X287436Y176689D01*
X287470Y176779D01*
X287512Y176865D01*
X287518Y176907D01*
X287535Y176953D01*
X287545Y177080D01*
X287559Y177170D01*
X287559Y181236D01*
X289217Y185239D01*
X292281Y188303D01*
X296284Y189961D01*
X300616Y189961D01*
X304619Y188303D01*
X307683Y185239D01*
X309341Y181236D01*
X309341Y176904D01*
X307683Y172901D01*
X304619Y169837D01*
X300616Y168179D01*
X296550Y168179D01*
X296455Y168166D01*
X296359Y168161D01*
X296316Y168146D01*
X296271Y168139D01*
X296183Y168100D01*
X296092Y168068D01*
X296058Y168043D01*
X296014Y168023D01*
X295917Y167940D01*
X295843Y167887D01*
X293407Y165450D01*
X293355Y165380D01*
X293295Y165317D01*
X293270Y165268D01*
X293237Y165224D01*
X293207Y165143D01*
X293167Y165066D01*
X293157Y165012D01*
X293138Y164960D01*
X293131Y164874D01*
X293115Y164789D01*
X293120Y164734D01*
X293116Y164679D01*
X293134Y164594D01*
X293142Y164508D01*
X293162Y164457D01*
X293174Y164403D01*
X293214Y164327D01*
X293247Y164246D01*
X293280Y164203D01*
X293306Y164154D01*
X293367Y164092D01*
X293420Y164024D01*
X293465Y163991D01*
X293503Y163952D01*
X293578Y163909D01*
X293649Y163859D01*
X293700Y163840D01*
X293748Y163813D01*
X293833Y163793D01*
X293914Y163764D01*
X293969Y163761D01*
X294023Y163748D01*
X294110Y163753D01*
X294196Y163747D01*
X294246Y163759D01*
X294304Y163762D01*
X294412Y163800D01*
X294496Y163820D01*
X296284Y164561D01*
X300616Y164561D01*
X304619Y162903D01*
X307683Y159839D01*
X309341Y155836D01*
X309341Y151504D01*
X307683Y147501D01*
X304619Y144437D01*
X300616Y142779D01*
X296284Y142779D01*
X292281Y144437D01*
X289217Y147501D01*
X287559Y151504D01*
X287559Y155836D01*
X288300Y157624D01*
X288321Y157708D01*
X288352Y157790D01*
X288356Y157844D01*
X288370Y157898D01*
X288367Y157984D01*
X288374Y158071D01*
X288363Y158125D01*
X288361Y158179D01*
X288334Y158262D01*
X288316Y158347D01*
X288291Y158395D01*
X288274Y158448D01*
X288225Y158519D01*
X288184Y158596D01*
X288146Y158635D01*
X288115Y158681D01*
X288048Y158736D01*
X287987Y158798D01*
X287939Y158825D01*
X287897Y158860D01*
X287817Y158894D01*
X287742Y158937D01*
X287688Y158950D01*
X287638Y158971D01*
X287552Y158982D01*
X287467Y159002D01*
X287412Y158999D01*
X287358Y159006D01*
X287272Y158992D01*
X287186Y158988D01*
X287134Y158970D01*
X287080Y158961D01*
X287001Y158924D01*
X286919Y158895D01*
X286878Y158865D01*
X286825Y158840D01*
X286740Y158764D01*
X286670Y158713D01*
X285375Y157419D01*
X283146Y156495D01*
X255656Y156495D01*
X255561Y156482D01*
X255465Y156477D01*
X255422Y156462D01*
X255377Y156455D01*
X255289Y156416D01*
X255198Y156384D01*
X255164Y156359D01*
X255120Y156339D01*
X255022Y156256D01*
X254949Y156203D01*
X250197Y151451D01*
X250140Y151374D01*
X250075Y151302D01*
X250055Y151261D01*
X250028Y151225D01*
X249994Y151135D01*
X249952Y151049D01*
X249946Y151007D01*
X249929Y150961D01*
X249919Y150834D01*
X249905Y150744D01*
X249905Y137224D01*
X248981Y134995D01*
X247487Y133501D01*
X247468Y133475D01*
X247443Y133454D01*
X247383Y133362D01*
X247318Y133275D01*
X247307Y133245D01*
X247289Y133218D01*
X247257Y133113D01*
X247219Y133011D01*
X247216Y132979D01*
X247207Y132948D01*
X247205Y132839D01*
X247197Y132730D01*
X247203Y132698D01*
X247203Y132666D01*
X247232Y132561D01*
X247254Y132454D01*
X247269Y132425D01*
X247278Y132394D01*
X247335Y132301D01*
X247387Y132205D01*
X247409Y132182D01*
X247426Y132154D01*
X247507Y132081D01*
X247584Y132003D01*
X247612Y131987D01*
X247636Y131965D01*
X247734Y131918D01*
X247829Y131864D01*
X247860Y131856D01*
X247889Y131842D01*
X247979Y131828D01*
X248103Y131799D01*
X248152Y131801D01*
X248194Y131795D01*
X256154Y131795D01*
X256249Y131808D01*
X256345Y131813D01*
X256388Y131828D01*
X256433Y131835D01*
X256521Y131874D01*
X256612Y131906D01*
X256646Y131931D01*
X256690Y131951D01*
X256788Y132034D01*
X256861Y132087D01*
X257803Y133029D01*
X257860Y133106D01*
X257925Y133178D01*
X257945Y133219D01*
X257972Y133255D01*
X258006Y133345D01*
X258048Y133431D01*
X258054Y133473D01*
X258071Y133519D01*
X258081Y133646D01*
X258095Y133736D01*
X258095Y147256D01*
X259019Y149485D01*
X260725Y151191D01*
X262954Y152115D01*
X265366Y152115D01*
X267595Y151191D01*
X269301Y149485D01*
X270225Y147256D01*
X270225Y129604D01*
X269301Y127375D01*
X262515Y120589D01*
X260286Y119665D01*
X188674Y119665D01*
X188610Y119656D01*
X188546Y119657D01*
X188471Y119636D01*
X188395Y119625D01*
X188336Y119599D01*
X188274Y119582D01*
X188208Y119541D01*
X188138Y119509D01*
X188089Y119467D01*
X188034Y119434D01*
X187982Y119376D01*
X187924Y119326D01*
X187888Y119272D01*
X187845Y119224D01*
X187812Y119155D01*
X187769Y119090D01*
X187750Y119028D01*
X187722Y118971D01*
X187711Y118901D01*
X187687Y118820D01*
X187686Y118735D01*
X187675Y118666D01*
X187675Y99124D01*
X186751Y96895D01*
X184905Y95048D01*
X180708Y90851D01*
X180656Y90782D01*
X180596Y90718D01*
X180572Y90670D01*
X180539Y90626D01*
X180508Y90544D01*
X180469Y90467D01*
X180459Y90413D01*
X180439Y90362D01*
X180432Y90275D01*
X180416Y90190D01*
X180422Y90135D01*
X180417Y90081D01*
X180435Y89996D01*
X180443Y89909D01*
X180464Y89858D01*
X180475Y89804D01*
X180516Y89728D01*
X180548Y89647D01*
X180582Y89604D01*
X180607Y89555D01*
X180668Y89493D01*
X180721Y89425D01*
X180766Y89393D01*
X180804Y89353D01*
X180880Y89311D01*
X180950Y89260D01*
X181002Y89241D01*
X181050Y89214D01*
X181134Y89194D01*
X181216Y89165D01*
X181270Y89162D01*
X181324Y89149D01*
X181411Y89154D01*
X181497Y89149D01*
X181547Y89161D01*
X181606Y89164D01*
X181713Y89201D01*
X181797Y89221D01*
X184625Y90393D01*
X188755Y90393D01*
X192571Y88812D01*
X195492Y85891D01*
X197073Y82075D01*
X197073Y77945D01*
X195492Y74129D01*
X192571Y71208D01*
X188755Y69627D01*
X184625Y69627D01*
X180809Y71208D01*
X177888Y74129D01*
X176307Y77945D01*
X176307Y82075D01*
X177479Y84903D01*
X177500Y84987D01*
X177531Y85068D01*
X177535Y85123D01*
X177549Y85176D01*
X177546Y85263D01*
X177553Y85350D01*
X177541Y85403D01*
X177540Y85458D01*
X177513Y85541D01*
X177495Y85626D01*
X177469Y85674D01*
X177452Y85726D01*
X177403Y85798D01*
X177363Y85875D01*
X177324Y85914D01*
X177293Y85959D01*
X177226Y86014D01*
X177166Y86077D01*
X177118Y86104D01*
X177076Y86139D01*
X176996Y86173D01*
X176920Y86216D01*
X176867Y86228D01*
X176817Y86250D01*
X176731Y86261D01*
X176646Y86281D01*
X176591Y86278D01*
X176537Y86285D01*
X176451Y86271D01*
X176364Y86266D01*
X176312Y86248D01*
X176258Y86240D01*
X176180Y86202D01*
X176098Y86174D01*
X176057Y86144D01*
X176003Y86118D01*
X175918Y86043D01*
X175849Y85992D01*
X171965Y82109D01*
X171908Y82032D01*
X171843Y81960D01*
X171823Y81919D01*
X171796Y81883D01*
X171762Y81793D01*
X171720Y81707D01*
X171714Y81665D01*
X171697Y81619D01*
X171687Y81492D01*
X171673Y81402D01*
X171673Y77945D01*
X170092Y74129D01*
X168663Y72700D01*
X168606Y72623D01*
X168541Y72552D01*
X168521Y72511D01*
X168494Y72474D01*
X168460Y72384D01*
X168418Y72298D01*
X168412Y72256D01*
X168395Y72211D01*
X168387Y72119D01*
X168383Y72103D01*
X168382Y72067D01*
X168371Y71993D01*
X168371Y69712D01*
X167293Y67109D01*
X141993Y41810D01*
X141936Y41733D01*
X141871Y41662D01*
X141851Y41621D01*
X141824Y41584D01*
X141790Y41494D01*
X141748Y41408D01*
X141742Y41366D01*
X141725Y41320D01*
X141715Y41193D01*
X141701Y41103D01*
X141701Y39933D01*
X141709Y39873D01*
X141709Y39845D01*
X141715Y39823D01*
X141719Y39742D01*
X141734Y39699D01*
X141741Y39654D01*
X141780Y39567D01*
X141812Y39476D01*
X141837Y39441D01*
X141857Y39397D01*
X141940Y39300D01*
X141993Y39227D01*
X144283Y36937D01*
X146019Y32747D01*
X146019Y28213D01*
X144283Y24023D01*
X141077Y20817D01*
X136887Y19081D01*
X132353Y19081D01*
G37*
%LPD*%
%LPC*%
G36*
X184625Y298227D02*
X184625Y298227D01*
X180809Y299808D01*
X177888Y302729D01*
X176307Y306545D01*
X176307Y310675D01*
X177415Y313349D01*
X177417Y313358D01*
X177422Y313367D01*
X177452Y313495D01*
X177485Y313622D01*
X177485Y313632D01*
X177487Y313641D01*
X177480Y313774D01*
X177476Y313904D01*
X177473Y313913D01*
X177472Y313923D01*
X177429Y314047D01*
X177388Y314172D01*
X177383Y314180D01*
X177380Y314189D01*
X177334Y314251D01*
X177230Y314405D01*
X177211Y314421D01*
X177198Y314438D01*
X170080Y321557D01*
X170003Y321614D01*
X169932Y321679D01*
X169891Y321699D01*
X169854Y321726D01*
X169764Y321760D01*
X169678Y321802D01*
X169636Y321808D01*
X169590Y321825D01*
X169463Y321835D01*
X169373Y321849D01*
X95112Y321849D01*
X92509Y322927D01*
X77817Y337619D01*
X76739Y340222D01*
X76739Y349957D01*
X76726Y350052D01*
X76721Y350148D01*
X76706Y350191D01*
X76699Y350236D01*
X76660Y350323D01*
X76628Y350414D01*
X76603Y350449D01*
X76583Y350493D01*
X76500Y350590D01*
X76447Y350663D01*
X74157Y352953D01*
X72421Y357143D01*
X72421Y361677D01*
X74157Y365867D01*
X77363Y369073D01*
X81553Y370809D01*
X86087Y370809D01*
X90277Y369073D01*
X93483Y365867D01*
X95219Y361677D01*
X95219Y357143D01*
X93483Y352953D01*
X91193Y350663D01*
X91136Y350586D01*
X91071Y350515D01*
X91051Y350474D01*
X91024Y350438D01*
X90990Y350348D01*
X90948Y350261D01*
X90942Y350219D01*
X90925Y350174D01*
X90915Y350046D01*
X90901Y349957D01*
X90901Y344977D01*
X90914Y344882D01*
X90919Y344786D01*
X90934Y344743D01*
X90941Y344698D01*
X90980Y344610D01*
X91012Y344519D01*
X91037Y344485D01*
X91057Y344441D01*
X91140Y344343D01*
X91193Y344270D01*
X99160Y336303D01*
X99237Y336246D01*
X99308Y336181D01*
X99349Y336161D01*
X99386Y336134D01*
X99476Y336100D01*
X99562Y336058D01*
X99604Y336052D01*
X99650Y336035D01*
X99777Y336025D01*
X99867Y336011D01*
X174128Y336011D01*
X176731Y334933D01*
X191423Y320241D01*
X192535Y317556D01*
X192556Y317520D01*
X192570Y317481D01*
X192620Y317411D01*
X192678Y317313D01*
X192721Y317273D01*
X192751Y317232D01*
X195492Y314491D01*
X197073Y310675D01*
X197073Y306545D01*
X195492Y302729D01*
X192571Y299808D01*
X188755Y298227D01*
X184625Y298227D01*
G37*
%LPD*%
G36*
X412205Y28405D02*
X412205Y28405D01*
X412237Y28403D01*
X412344Y28425D01*
X412452Y28441D01*
X412482Y28454D01*
X412513Y28460D01*
X412610Y28512D01*
X412709Y28557D01*
X412734Y28578D01*
X412762Y28593D01*
X412841Y28669D01*
X412924Y28740D01*
X412941Y28767D01*
X412964Y28790D01*
X413018Y28885D01*
X413078Y28976D01*
X413088Y29007D01*
X413103Y29035D01*
X413129Y29141D01*
X413160Y29246D01*
X413161Y29278D01*
X413168Y29309D01*
X413163Y29419D01*
X413164Y29528D01*
X413156Y29559D01*
X413154Y29591D01*
X413118Y29694D01*
X413089Y29800D01*
X413072Y29827D01*
X413062Y29858D01*
X413008Y29931D01*
X412941Y30040D01*
X412905Y30072D01*
X412880Y30107D01*
X412289Y30697D01*
X412289Y32158D01*
X412288Y32168D01*
X412289Y32177D01*
X412268Y32307D01*
X412249Y32438D01*
X412246Y32446D01*
X412244Y32456D01*
X412187Y32575D01*
X412133Y32695D01*
X412127Y32702D01*
X412123Y32710D01*
X412035Y32809D01*
X411950Y32909D01*
X411942Y32914D01*
X411936Y32921D01*
X411870Y32961D01*
X411714Y33063D01*
X411691Y33070D01*
X411672Y33082D01*
X409886Y33822D01*
X407202Y36506D01*
X405749Y40012D01*
X405749Y43808D01*
X407202Y47314D01*
X409886Y49998D01*
X413392Y51451D01*
X417188Y51451D01*
X420694Y49998D01*
X423378Y47314D01*
X424831Y43808D01*
X424831Y40012D01*
X423378Y36506D01*
X420979Y34107D01*
X420960Y34081D01*
X420935Y34060D01*
X420875Y33968D01*
X420810Y33881D01*
X420799Y33851D01*
X420781Y33824D01*
X420749Y33719D01*
X420710Y33617D01*
X420708Y33585D01*
X420698Y33554D01*
X420697Y33445D01*
X420689Y33336D01*
X420695Y33304D01*
X420695Y33272D01*
X420724Y33167D01*
X420746Y33060D01*
X420761Y33031D01*
X420770Y33000D01*
X420827Y32907D01*
X420879Y32811D01*
X420901Y32788D01*
X420918Y32760D01*
X420999Y32687D01*
X421075Y32609D01*
X421103Y32593D01*
X421127Y32571D01*
X421226Y32524D01*
X421321Y32470D01*
X421352Y32462D01*
X421381Y32448D01*
X421470Y32434D01*
X421595Y32405D01*
X421644Y32407D01*
X421686Y32401D01*
X434294Y32401D01*
X434326Y32405D01*
X434358Y32403D01*
X434465Y32425D01*
X434573Y32441D01*
X434603Y32454D01*
X434634Y32460D01*
X434731Y32512D01*
X434830Y32557D01*
X434855Y32578D01*
X434883Y32593D01*
X434962Y32669D01*
X435045Y32740D01*
X435062Y32767D01*
X435085Y32790D01*
X435139Y32885D01*
X435199Y32976D01*
X435209Y33007D01*
X435224Y33035D01*
X435250Y33141D01*
X435282Y33246D01*
X435282Y33278D01*
X435289Y33309D01*
X435284Y33419D01*
X435285Y33528D01*
X435277Y33559D01*
X435275Y33591D01*
X435239Y33694D01*
X435210Y33800D01*
X435193Y33827D01*
X435183Y33858D01*
X435129Y33931D01*
X435062Y34040D01*
X435026Y34072D01*
X435001Y34107D01*
X432602Y36506D01*
X431149Y40012D01*
X431149Y43808D01*
X431889Y45595D01*
X431892Y45604D01*
X431896Y45612D01*
X431925Y45732D01*
X431950Y45814D01*
X431950Y45832D01*
X431959Y45868D01*
X431959Y45877D01*
X431961Y45886D01*
X431955Y46019D01*
X431953Y46061D01*
X431954Y46096D01*
X431952Y46103D01*
X431950Y46150D01*
X431948Y46159D01*
X431947Y46168D01*
X431904Y46293D01*
X431863Y46418D01*
X431858Y46426D01*
X431855Y46435D01*
X431809Y46497D01*
X431704Y46651D01*
X431685Y46666D01*
X431673Y46684D01*
X412289Y66067D01*
X412289Y69347D01*
X412288Y69356D01*
X412289Y69366D01*
X412268Y69496D01*
X412249Y69626D01*
X412246Y69635D01*
X412244Y69644D01*
X412187Y69764D01*
X412133Y69883D01*
X412127Y69890D01*
X412123Y69899D01*
X412035Y69998D01*
X411950Y70098D01*
X411942Y70103D01*
X411936Y70110D01*
X411870Y70150D01*
X411714Y70252D01*
X411691Y70259D01*
X411672Y70270D01*
X409409Y71208D01*
X406488Y74129D01*
X406243Y74720D01*
X406199Y74794D01*
X406163Y74873D01*
X406128Y74915D01*
X406100Y74962D01*
X406036Y75022D01*
X405980Y75088D01*
X405934Y75118D01*
X405894Y75155D01*
X405817Y75195D01*
X405744Y75242D01*
X405691Y75258D01*
X405642Y75283D01*
X405557Y75299D01*
X405474Y75325D01*
X405419Y75325D01*
X405365Y75335D01*
X405279Y75327D01*
X405192Y75328D01*
X405139Y75314D01*
X405085Y75308D01*
X405004Y75276D01*
X404920Y75253D01*
X404874Y75224D01*
X404823Y75204D01*
X404754Y75150D01*
X404680Y75105D01*
X404644Y75064D01*
X404600Y75030D01*
X404549Y74960D01*
X404491Y74896D01*
X404467Y74846D01*
X404435Y74802D01*
X404406Y74720D01*
X404368Y74642D01*
X404360Y74591D01*
X404341Y74536D01*
X404334Y74422D01*
X404321Y74337D01*
X404321Y58447D01*
X396290Y50416D01*
X396251Y50365D01*
X396205Y50320D01*
X396167Y50252D01*
X396120Y50190D01*
X396098Y50130D01*
X396066Y50074D01*
X396048Y49999D01*
X396021Y49927D01*
X396016Y49863D01*
X396001Y49800D01*
X396005Y49723D01*
X395999Y49645D01*
X396012Y49582D01*
X396016Y49518D01*
X396041Y49445D01*
X396057Y49369D01*
X396087Y49313D01*
X396108Y49252D01*
X396149Y49195D01*
X396189Y49120D01*
X396248Y49060D01*
X396290Y49003D01*
X397978Y47314D01*
X399431Y43808D01*
X399431Y40012D01*
X397978Y36506D01*
X395294Y33822D01*
X391788Y32369D01*
X387992Y32369D01*
X384486Y33822D01*
X381802Y36506D01*
X380349Y40012D01*
X380349Y43808D01*
X381802Y47314D01*
X384486Y49998D01*
X387992Y51451D01*
X388423Y51451D01*
X388518Y51464D01*
X388614Y51469D01*
X388657Y51484D01*
X388702Y51491D01*
X388790Y51530D01*
X388881Y51562D01*
X388915Y51587D01*
X388959Y51607D01*
X389057Y51690D01*
X389130Y51743D01*
X398027Y60640D01*
X398084Y60717D01*
X398149Y60788D01*
X398168Y60829D01*
X398196Y60866D01*
X398230Y60956D01*
X398272Y61042D01*
X398278Y61084D01*
X398295Y61130D01*
X398305Y61257D01*
X398319Y61347D01*
X398319Y71343D01*
X398315Y71375D01*
X398317Y71408D01*
X398295Y71515D01*
X398279Y71623D01*
X398266Y71652D01*
X398260Y71684D01*
X398208Y71780D01*
X398163Y71880D01*
X398142Y71904D01*
X398127Y71933D01*
X398051Y72011D01*
X397980Y72094D01*
X397953Y72112D01*
X397930Y72135D01*
X397835Y72188D01*
X397744Y72248D01*
X397713Y72258D01*
X397685Y72274D01*
X397579Y72299D01*
X397474Y72331D01*
X397442Y72331D01*
X397411Y72339D01*
X397301Y72333D01*
X397192Y72335D01*
X397161Y72326D01*
X397129Y72324D01*
X397026Y72289D01*
X396920Y72259D01*
X396893Y72242D01*
X396862Y72232D01*
X396789Y72178D01*
X396680Y72111D01*
X396648Y72075D01*
X396613Y72050D01*
X395771Y71208D01*
X391955Y69627D01*
X387825Y69627D01*
X384009Y71208D01*
X381088Y74129D01*
X380843Y74720D01*
X380799Y74794D01*
X380763Y74873D01*
X380728Y74915D01*
X380700Y74962D01*
X380636Y75022D01*
X380580Y75088D01*
X380534Y75118D01*
X380494Y75155D01*
X380417Y75195D01*
X380344Y75242D01*
X380291Y75258D01*
X380242Y75283D01*
X380157Y75299D01*
X380074Y75325D01*
X380019Y75325D01*
X379965Y75335D01*
X379879Y75327D01*
X379792Y75328D01*
X379739Y75314D01*
X379685Y75308D01*
X379604Y75276D01*
X379520Y75253D01*
X379474Y75224D01*
X379423Y75204D01*
X379354Y75151D01*
X379280Y75105D01*
X379244Y75064D01*
X379200Y75030D01*
X379149Y74960D01*
X379091Y74896D01*
X379067Y74846D01*
X379035Y74802D01*
X379006Y74720D01*
X378968Y74642D01*
X378960Y74591D01*
X378941Y74536D01*
X378934Y74422D01*
X378921Y74337D01*
X378921Y52097D01*
X373507Y46684D01*
X373502Y46676D01*
X373494Y46670D01*
X373417Y46563D01*
X373338Y46458D01*
X373335Y46449D01*
X373329Y46441D01*
X373285Y46318D01*
X373238Y46194D01*
X373238Y46185D01*
X373235Y46176D01*
X373232Y46128D01*
X373230Y46123D01*
X373230Y46093D01*
X373227Y46044D01*
X373217Y45913D01*
X373219Y45904D01*
X373218Y45894D01*
X373227Y45859D01*
X373226Y45841D01*
X373248Y45761D01*
X373274Y45637D01*
X373286Y45616D01*
X373291Y45595D01*
X374031Y43808D01*
X374031Y40012D01*
X372578Y36506D01*
X369894Y33822D01*
X366388Y32369D01*
X362592Y32369D01*
X359086Y33822D01*
X356497Y36411D01*
X356471Y36430D01*
X356450Y36455D01*
X356358Y36515D01*
X356271Y36580D01*
X356241Y36592D01*
X356214Y36609D01*
X356109Y36641D01*
X356007Y36680D01*
X355975Y36682D01*
X355944Y36692D01*
X355835Y36693D01*
X355726Y36701D01*
X355694Y36695D01*
X355662Y36695D01*
X355557Y36666D01*
X355450Y36644D01*
X355421Y36629D01*
X355390Y36620D01*
X355297Y36563D01*
X355201Y36511D01*
X355178Y36489D01*
X355150Y36472D01*
X355077Y36391D01*
X354999Y36315D01*
X354983Y36287D01*
X354961Y36263D01*
X354914Y36164D01*
X354860Y36069D01*
X354852Y36038D01*
X354838Y36009D01*
X354824Y35920D01*
X354795Y35795D01*
X354797Y35746D01*
X354791Y35704D01*
X354791Y34677D01*
X354804Y34582D01*
X354809Y34486D01*
X354824Y34443D01*
X354831Y34398D01*
X354870Y34310D01*
X354902Y34219D01*
X354927Y34185D01*
X354947Y34141D01*
X355030Y34043D01*
X355083Y33970D01*
X360360Y28693D01*
X360437Y28636D01*
X360508Y28571D01*
X360549Y28551D01*
X360586Y28524D01*
X360676Y28490D01*
X360762Y28448D01*
X360804Y28442D01*
X360850Y28425D01*
X360977Y28415D01*
X361067Y28401D01*
X412173Y28401D01*
X412205Y28405D01*
G37*
%LPC*%
G36*
X692777Y287529D02*
X692777Y287529D01*
X686896Y289965D01*
X682395Y294466D01*
X679959Y300347D01*
X679959Y306713D01*
X682395Y312594D01*
X686896Y317095D01*
X691512Y319007D01*
X691587Y319051D01*
X691666Y319087D01*
X691708Y319122D01*
X691755Y319150D01*
X691815Y319214D01*
X691881Y319270D01*
X691911Y319316D01*
X691948Y319356D01*
X691987Y319433D01*
X692035Y319506D01*
X692051Y319559D01*
X692076Y319608D01*
X692092Y319693D01*
X692117Y319776D01*
X692118Y319831D01*
X692128Y319885D01*
X692120Y319971D01*
X692121Y320058D01*
X692107Y320111D01*
X692101Y320165D01*
X692069Y320246D01*
X692046Y320330D01*
X692017Y320377D01*
X691997Y320427D01*
X691943Y320496D01*
X691898Y320570D01*
X691857Y320607D01*
X691823Y320650D01*
X691753Y320700D01*
X691688Y320759D01*
X691639Y320783D01*
X691595Y320815D01*
X691513Y320844D01*
X691435Y320882D01*
X691384Y320890D01*
X691329Y320909D01*
X691215Y320916D01*
X691130Y320929D01*
X685941Y320929D01*
X685516Y321355D01*
X685439Y321412D01*
X685368Y321477D01*
X685327Y321497D01*
X685290Y321524D01*
X685200Y321558D01*
X685114Y321600D01*
X685072Y321606D01*
X685026Y321623D01*
X684899Y321633D01*
X684809Y321647D01*
X684351Y321647D01*
X681675Y322756D01*
X679626Y324805D01*
X678517Y327481D01*
X678517Y330379D01*
X679626Y333055D01*
X681675Y335104D01*
X684351Y336213D01*
X684809Y336213D01*
X684904Y336226D01*
X685001Y336231D01*
X685044Y336246D01*
X685089Y336253D01*
X685176Y336292D01*
X685267Y336324D01*
X685301Y336349D01*
X685346Y336369D01*
X685443Y336452D01*
X685516Y336505D01*
X685941Y336931D01*
X695599Y336931D01*
X696771Y335759D01*
X696771Y322101D01*
X695906Y321237D01*
X695887Y321211D01*
X695862Y321190D01*
X695802Y321098D01*
X695737Y321011D01*
X695725Y320981D01*
X695708Y320954D01*
X695676Y320849D01*
X695637Y320747D01*
X695635Y320715D01*
X695625Y320684D01*
X695624Y320575D01*
X695615Y320466D01*
X695622Y320434D01*
X695622Y320402D01*
X695651Y320297D01*
X695673Y320190D01*
X695688Y320161D01*
X695697Y320130D01*
X695754Y320037D01*
X695805Y319941D01*
X695828Y319918D01*
X695845Y319890D01*
X695926Y319817D01*
X696002Y319739D01*
X696030Y319723D01*
X696054Y319701D01*
X696152Y319654D01*
X696248Y319600D01*
X696279Y319592D01*
X696308Y319578D01*
X696397Y319564D01*
X696522Y319535D01*
X696570Y319537D01*
X696613Y319531D01*
X699143Y319531D01*
X705024Y317095D01*
X709525Y312594D01*
X711961Y306713D01*
X711961Y300347D01*
X709525Y294466D01*
X705024Y289965D01*
X699143Y287529D01*
X692777Y287529D01*
G37*
%LPD*%
%LPC*%
G36*
X52741Y127399D02*
X52741Y127399D01*
X51569Y128571D01*
X51569Y130613D01*
X51568Y130622D01*
X51569Y130632D01*
X51548Y130762D01*
X51529Y130892D01*
X51526Y130901D01*
X51524Y130910D01*
X51467Y131030D01*
X51413Y131149D01*
X51407Y131156D01*
X51403Y131165D01*
X51315Y131264D01*
X51230Y131363D01*
X51222Y131369D01*
X51216Y131376D01*
X51150Y131416D01*
X50994Y131518D01*
X50971Y131525D01*
X50952Y131536D01*
X49215Y132256D01*
X47166Y134305D01*
X46057Y136981D01*
X46057Y139879D01*
X47166Y142555D01*
X49215Y144604D01*
X50952Y145324D01*
X50961Y145329D01*
X50970Y145331D01*
X51082Y145401D01*
X51195Y145467D01*
X51202Y145474D01*
X51210Y145479D01*
X51298Y145577D01*
X51388Y145673D01*
X51392Y145682D01*
X51399Y145689D01*
X51456Y145807D01*
X51516Y145925D01*
X51518Y145934D01*
X51522Y145942D01*
X51534Y146018D01*
X51568Y146202D01*
X51566Y146226D01*
X51569Y146247D01*
X51569Y150829D01*
X52741Y152001D01*
X54420Y152001D01*
X54484Y152010D01*
X54548Y152009D01*
X54623Y152030D01*
X54699Y152041D01*
X54758Y152067D01*
X54820Y152084D01*
X54886Y152125D01*
X54956Y152157D01*
X55005Y152199D01*
X55060Y152232D01*
X55112Y152290D01*
X55170Y152340D01*
X55206Y152394D01*
X55249Y152442D01*
X55282Y152511D01*
X55325Y152576D01*
X55344Y152638D01*
X55372Y152695D01*
X55383Y152765D01*
X55407Y152846D01*
X55408Y152931D01*
X55419Y153000D01*
X55419Y155750D01*
X55410Y155814D01*
X55411Y155878D01*
X55390Y155953D01*
X55379Y156029D01*
X55353Y156088D01*
X55336Y156150D01*
X55295Y156216D01*
X55263Y156286D01*
X55221Y156335D01*
X55188Y156390D01*
X55130Y156442D01*
X55080Y156500D01*
X55026Y156536D01*
X54978Y156579D01*
X54909Y156612D01*
X54844Y156655D01*
X54782Y156674D01*
X54725Y156702D01*
X54655Y156713D01*
X54574Y156737D01*
X54489Y156738D01*
X54420Y156749D01*
X53781Y156749D01*
X52609Y157921D01*
X52609Y174819D01*
X53781Y175991D01*
X53802Y175991D01*
X53834Y175995D01*
X53867Y175993D01*
X53973Y176015D01*
X54082Y176031D01*
X54111Y176044D01*
X54143Y176050D01*
X54239Y176102D01*
X54339Y176147D01*
X54363Y176168D01*
X54392Y176183D01*
X54470Y176259D01*
X54553Y176330D01*
X54571Y176357D01*
X54594Y176380D01*
X54647Y176475D01*
X54707Y176566D01*
X54717Y176597D01*
X54733Y176625D01*
X54758Y176731D01*
X54790Y176836D01*
X54790Y176868D01*
X54798Y176899D01*
X54792Y177009D01*
X54793Y177118D01*
X54785Y177149D01*
X54783Y177181D01*
X54747Y177284D01*
X54718Y177390D01*
X54701Y177417D01*
X54691Y177448D01*
X54637Y177521D01*
X54570Y177630D01*
X54534Y177662D01*
X54509Y177697D01*
X53730Y178476D01*
X52887Y180509D01*
X52887Y182711D01*
X53730Y184744D01*
X55286Y186300D01*
X57319Y187143D01*
X59521Y187143D01*
X61554Y186300D01*
X63110Y184744D01*
X63953Y182711D01*
X63953Y180509D01*
X63110Y178476D01*
X62331Y177697D01*
X62312Y177671D01*
X62287Y177650D01*
X62227Y177558D01*
X62162Y177471D01*
X62150Y177441D01*
X62133Y177414D01*
X62101Y177309D01*
X62062Y177207D01*
X62060Y177175D01*
X62050Y177144D01*
X62049Y177035D01*
X62040Y176926D01*
X62047Y176894D01*
X62047Y176862D01*
X62076Y176757D01*
X62098Y176650D01*
X62113Y176621D01*
X62122Y176590D01*
X62179Y176497D01*
X62230Y176401D01*
X62253Y176378D01*
X62270Y176350D01*
X62351Y176277D01*
X62427Y176199D01*
X62455Y176183D01*
X62479Y176161D01*
X62577Y176114D01*
X62673Y176060D01*
X62704Y176052D01*
X62733Y176038D01*
X62822Y176024D01*
X62947Y175995D01*
X62995Y175997D01*
X63038Y175991D01*
X63059Y175991D01*
X64231Y174819D01*
X64231Y157921D01*
X63059Y156749D01*
X62420Y156749D01*
X62356Y156740D01*
X62292Y156741D01*
X62217Y156720D01*
X62141Y156709D01*
X62082Y156683D01*
X62020Y156666D01*
X61954Y156625D01*
X61884Y156593D01*
X61835Y156551D01*
X61780Y156518D01*
X61728Y156460D01*
X61670Y156410D01*
X61634Y156356D01*
X61591Y156308D01*
X61558Y156239D01*
X61515Y156174D01*
X61496Y156112D01*
X61468Y156055D01*
X61457Y155985D01*
X61433Y155904D01*
X61432Y155819D01*
X61421Y155750D01*
X61421Y153000D01*
X61430Y152936D01*
X61429Y152872D01*
X61450Y152797D01*
X61461Y152721D01*
X61487Y152662D01*
X61504Y152600D01*
X61545Y152534D01*
X61577Y152464D01*
X61619Y152415D01*
X61652Y152360D01*
X61710Y152308D01*
X61760Y152250D01*
X61814Y152214D01*
X61862Y152171D01*
X61931Y152138D01*
X61996Y152095D01*
X62058Y152076D01*
X62115Y152048D01*
X62185Y152037D01*
X62266Y152013D01*
X62351Y152012D01*
X62420Y152001D01*
X67099Y152001D01*
X68271Y150829D01*
X68271Y128571D01*
X67099Y127399D01*
X52741Y127399D01*
G37*
%LPD*%
%LPC*%
G36*
X697857Y340869D02*
X697857Y340869D01*
X691976Y343305D01*
X687475Y347806D01*
X685039Y353687D01*
X685039Y360053D01*
X687475Y365934D01*
X691976Y370435D01*
X697857Y372871D01*
X704223Y372871D01*
X710104Y370435D01*
X714605Y365934D01*
X717041Y360053D01*
X717041Y353687D01*
X714605Y347806D01*
X710104Y343305D01*
X704223Y340869D01*
X697857Y340869D01*
G37*
%LPD*%
%LPC*%
G36*
X24757Y340869D02*
X24757Y340869D01*
X18876Y343305D01*
X14375Y347806D01*
X11939Y353687D01*
X11939Y360053D01*
X14375Y365934D01*
X18876Y370435D01*
X24757Y372871D01*
X31123Y372871D01*
X37004Y370435D01*
X41505Y365934D01*
X43941Y360053D01*
X43941Y353687D01*
X41505Y347806D01*
X37004Y343305D01*
X31123Y340869D01*
X24757Y340869D01*
G37*
%LPD*%
%LPC*%
G36*
X697857Y10669D02*
X697857Y10669D01*
X691976Y13105D01*
X687475Y17606D01*
X685039Y23487D01*
X685039Y29853D01*
X687475Y35734D01*
X691976Y40235D01*
X697857Y42671D01*
X704223Y42671D01*
X710104Y40235D01*
X714605Y35734D01*
X717041Y29853D01*
X717041Y23487D01*
X714605Y17606D01*
X710104Y13105D01*
X704223Y10669D01*
X697857Y10669D01*
G37*
%LPD*%
%LPC*%
G36*
X24757Y10669D02*
X24757Y10669D01*
X18876Y13105D01*
X14375Y17606D01*
X11939Y23487D01*
X11939Y29853D01*
X14375Y35734D01*
X18876Y40235D01*
X24757Y42671D01*
X31123Y42671D01*
X37004Y40235D01*
X41505Y35734D01*
X43941Y29853D01*
X43941Y23487D01*
X41505Y17606D01*
X37004Y13105D01*
X31123Y10669D01*
X24757Y10669D01*
G37*
%LPD*%
%LPC*%
G36*
X692777Y66549D02*
X692777Y66549D01*
X686896Y68985D01*
X682395Y73486D01*
X679959Y79367D01*
X679959Y85733D01*
X682395Y91614D01*
X686896Y96115D01*
X692777Y98551D01*
X699143Y98551D01*
X705024Y96115D01*
X709525Y91614D01*
X711961Y85733D01*
X711961Y79367D01*
X709525Y73486D01*
X705024Y68985D01*
X699143Y66549D01*
X692777Y66549D01*
G37*
%LPD*%
G36*
X318478Y62704D02*
X318478Y62704D01*
X318574Y62709D01*
X318617Y62724D01*
X318662Y62731D01*
X318750Y62770D01*
X318841Y62802D01*
X318875Y62827D01*
X318919Y62847D01*
X319017Y62930D01*
X319090Y62983D01*
X323145Y67038D01*
X323202Y67115D01*
X323267Y67186D01*
X323287Y67227D01*
X323314Y67264D01*
X323348Y67354D01*
X323390Y67440D01*
X323396Y67482D01*
X323413Y67528D01*
X323423Y67655D01*
X323437Y67745D01*
X323437Y72661D01*
X323433Y72693D01*
X323435Y72726D01*
X323413Y72832D01*
X323397Y72941D01*
X323384Y72970D01*
X323378Y73002D01*
X323326Y73098D01*
X323281Y73198D01*
X323260Y73222D01*
X323245Y73251D01*
X323169Y73329D01*
X323098Y73412D01*
X323071Y73430D01*
X323048Y73453D01*
X322953Y73506D01*
X322862Y73566D01*
X322831Y73576D01*
X322803Y73592D01*
X322697Y73617D01*
X322592Y73649D01*
X322560Y73649D01*
X322529Y73657D01*
X322419Y73651D01*
X322310Y73653D01*
X322279Y73644D01*
X322247Y73642D01*
X322144Y73607D01*
X322038Y73577D01*
X322011Y73560D01*
X321980Y73550D01*
X321907Y73496D01*
X321798Y73429D01*
X321766Y73393D01*
X321731Y73368D01*
X319571Y71208D01*
X315755Y69627D01*
X311625Y69627D01*
X307809Y71208D01*
X304888Y74129D01*
X303307Y77945D01*
X303307Y82075D01*
X304888Y85891D01*
X307809Y88812D01*
X310814Y90057D01*
X310889Y90101D01*
X310968Y90137D01*
X311009Y90172D01*
X311057Y90200D01*
X311116Y90264D01*
X311182Y90320D01*
X311212Y90366D01*
X311249Y90406D01*
X311289Y90483D01*
X311336Y90556D01*
X311352Y90609D01*
X311377Y90658D01*
X311393Y90743D01*
X311419Y90826D01*
X311419Y90881D01*
X311430Y90935D01*
X311421Y91021D01*
X311422Y91108D01*
X311408Y91161D01*
X311403Y91215D01*
X311370Y91296D01*
X311347Y91380D01*
X311318Y91427D01*
X311298Y91477D01*
X311245Y91546D01*
X311199Y91620D01*
X311158Y91657D01*
X311125Y91700D01*
X311054Y91750D01*
X310990Y91809D01*
X310940Y91833D01*
X310896Y91865D01*
X310814Y91894D01*
X310736Y91932D01*
X310686Y91940D01*
X310630Y91959D01*
X310517Y91966D01*
X310431Y91979D01*
X291549Y91979D01*
X291463Y91967D01*
X291376Y91964D01*
X291324Y91947D01*
X291269Y91939D01*
X291190Y91904D01*
X291108Y91877D01*
X291062Y91846D01*
X291012Y91823D01*
X290946Y91767D01*
X290875Y91718D01*
X290840Y91676D01*
X290798Y91640D01*
X290751Y91567D01*
X290695Y91500D01*
X290674Y91450D01*
X290644Y91404D01*
X290618Y91321D01*
X290584Y91241D01*
X290577Y91187D01*
X290561Y91134D01*
X290560Y91047D01*
X290549Y90961D01*
X290558Y90907D01*
X290558Y90852D01*
X290581Y90768D01*
X290595Y90683D01*
X290618Y90633D01*
X290633Y90580D01*
X290678Y90506D01*
X290716Y90428D01*
X290752Y90387D01*
X290781Y90340D01*
X290845Y90282D01*
X290903Y90217D01*
X290946Y90191D01*
X290990Y90151D01*
X291093Y90102D01*
X291166Y90057D01*
X294171Y88812D01*
X297092Y85891D01*
X298673Y82075D01*
X298673Y77945D01*
X297092Y74129D01*
X294171Y71208D01*
X290355Y69627D01*
X286225Y69627D01*
X282409Y71208D01*
X279488Y74129D01*
X277907Y77945D01*
X277907Y82075D01*
X279488Y85891D01*
X282409Y88812D01*
X285414Y90057D01*
X285489Y90101D01*
X285568Y90137D01*
X285609Y90172D01*
X285657Y90200D01*
X285716Y90264D01*
X285782Y90320D01*
X285812Y90366D01*
X285849Y90406D01*
X285889Y90483D01*
X285936Y90556D01*
X285952Y90609D01*
X285977Y90658D01*
X285993Y90743D01*
X286019Y90826D01*
X286019Y90881D01*
X286030Y90935D01*
X286021Y91021D01*
X286022Y91108D01*
X286008Y91161D01*
X286003Y91215D01*
X285970Y91296D01*
X285947Y91380D01*
X285918Y91427D01*
X285898Y91477D01*
X285845Y91546D01*
X285799Y91620D01*
X285758Y91657D01*
X285725Y91700D01*
X285654Y91750D01*
X285590Y91809D01*
X285540Y91833D01*
X285496Y91865D01*
X285414Y91894D01*
X285336Y91932D01*
X285286Y91940D01*
X285230Y91959D01*
X285117Y91966D01*
X285031Y91979D01*
X266149Y91979D01*
X266063Y91967D01*
X265976Y91964D01*
X265924Y91947D01*
X265869Y91939D01*
X265790Y91904D01*
X265708Y91877D01*
X265662Y91846D01*
X265612Y91823D01*
X265546Y91767D01*
X265475Y91718D01*
X265440Y91676D01*
X265398Y91640D01*
X265351Y91567D01*
X265295Y91500D01*
X265274Y91450D01*
X265244Y91404D01*
X265218Y91321D01*
X265184Y91241D01*
X265177Y91187D01*
X265161Y91134D01*
X265160Y91047D01*
X265149Y90961D01*
X265158Y90907D01*
X265158Y90852D01*
X265181Y90768D01*
X265195Y90683D01*
X265218Y90633D01*
X265233Y90580D01*
X265278Y90506D01*
X265316Y90428D01*
X265352Y90387D01*
X265381Y90340D01*
X265445Y90282D01*
X265503Y90217D01*
X265546Y90191D01*
X265590Y90151D01*
X265693Y90102D01*
X265766Y90057D01*
X268771Y88812D01*
X271692Y85891D01*
X273273Y82075D01*
X273273Y77945D01*
X271692Y74129D01*
X268771Y71208D01*
X267137Y70531D01*
X267035Y70471D01*
X266930Y70415D01*
X266914Y70399D01*
X266894Y70387D01*
X266813Y70301D01*
X266728Y70218D01*
X266717Y70198D01*
X266701Y70182D01*
X266647Y70076D01*
X266589Y69973D01*
X266584Y69950D01*
X266573Y69930D01*
X266551Y69814D01*
X266524Y69698D01*
X266525Y69675D01*
X266521Y69653D01*
X266532Y69535D01*
X266538Y69417D01*
X266546Y69395D01*
X266548Y69372D01*
X266592Y69262D01*
X266631Y69150D01*
X266644Y69133D01*
X266652Y69110D01*
X266767Y68963D01*
X266813Y68901D01*
X272730Y62983D01*
X272807Y62926D01*
X272878Y62861D01*
X272919Y62841D01*
X272956Y62814D01*
X273046Y62780D01*
X273132Y62738D01*
X273174Y62732D01*
X273220Y62715D01*
X273347Y62705D01*
X273437Y62691D01*
X318383Y62691D01*
X318478Y62704D01*
G37*
%LPC*%
G36*
X296162Y218369D02*
X296162Y218369D01*
X291935Y220120D01*
X288700Y223355D01*
X286949Y227582D01*
X286949Y232158D01*
X288700Y236385D01*
X291935Y239620D01*
X296162Y241371D01*
X300738Y241371D01*
X304965Y239620D01*
X308200Y236385D01*
X309951Y232158D01*
X309951Y227582D01*
X308200Y223355D01*
X304965Y220120D01*
X300738Y218369D01*
X296162Y218369D01*
G37*
%LPD*%
%LPC*%
G36*
X183153Y19081D02*
X183153Y19081D01*
X178963Y20817D01*
X175757Y24023D01*
X174021Y28213D01*
X174021Y32747D01*
X175757Y36937D01*
X178963Y40143D01*
X183153Y41879D01*
X187687Y41879D01*
X191877Y40143D01*
X195083Y36937D01*
X196819Y32747D01*
X196819Y28213D01*
X195083Y24023D01*
X191877Y20817D01*
X187687Y19081D01*
X183153Y19081D01*
G37*
%LPD*%
%LPC*%
G36*
X208553Y19081D02*
X208553Y19081D01*
X204363Y20817D01*
X201157Y24023D01*
X199421Y28213D01*
X199421Y32747D01*
X201157Y36937D01*
X204363Y40143D01*
X208553Y41879D01*
X213087Y41879D01*
X217277Y40143D01*
X220483Y36937D01*
X222219Y32747D01*
X222219Y28213D01*
X220483Y24023D01*
X217277Y20817D01*
X213087Y19081D01*
X208553Y19081D01*
G37*
%LPD*%
%LPC*%
G36*
X132353Y348011D02*
X132353Y348011D01*
X128163Y349747D01*
X124957Y352953D01*
X123221Y357143D01*
X123221Y361677D01*
X124957Y365867D01*
X128163Y369073D01*
X132353Y370809D01*
X136887Y370809D01*
X141077Y369073D01*
X144283Y365867D01*
X146019Y361677D01*
X146019Y357143D01*
X144283Y352953D01*
X141077Y349747D01*
X136887Y348011D01*
X132353Y348011D01*
G37*
%LPD*%
%LPC*%
G36*
X259353Y348011D02*
X259353Y348011D01*
X255163Y349747D01*
X251957Y352953D01*
X250221Y357143D01*
X250221Y361677D01*
X251957Y365867D01*
X255163Y369073D01*
X259353Y370809D01*
X263887Y370809D01*
X268077Y369073D01*
X271283Y365867D01*
X273019Y361677D01*
X273019Y357143D01*
X271283Y352953D01*
X268077Y349747D01*
X263887Y348011D01*
X259353Y348011D01*
G37*
%LPD*%
%LPC*%
G36*
X233953Y348011D02*
X233953Y348011D01*
X229763Y349747D01*
X226557Y352953D01*
X224821Y357143D01*
X224821Y361677D01*
X226557Y365867D01*
X229763Y369073D01*
X233953Y370809D01*
X238487Y370809D01*
X242677Y369073D01*
X245883Y365867D01*
X247619Y361677D01*
X247619Y357143D01*
X245883Y352953D01*
X242677Y349747D01*
X238487Y348011D01*
X233953Y348011D01*
G37*
%LPD*%
%LPC*%
G36*
X183153Y348011D02*
X183153Y348011D01*
X178963Y349747D01*
X175757Y352953D01*
X174021Y357143D01*
X174021Y361677D01*
X175757Y365867D01*
X178963Y369073D01*
X183153Y370809D01*
X187687Y370809D01*
X191877Y369073D01*
X195083Y365867D01*
X196819Y361677D01*
X196819Y357143D01*
X195083Y352953D01*
X191877Y349747D01*
X187687Y348011D01*
X183153Y348011D01*
G37*
%LPD*%
%LPC*%
G36*
X157753Y348011D02*
X157753Y348011D01*
X153563Y349747D01*
X150357Y352953D01*
X148621Y357143D01*
X148621Y361677D01*
X150357Y365867D01*
X153563Y369073D01*
X157753Y370809D01*
X162287Y370809D01*
X166477Y369073D01*
X169683Y365867D01*
X171419Y361677D01*
X171419Y357143D01*
X169683Y352953D01*
X166477Y349747D01*
X162287Y348011D01*
X157753Y348011D01*
G37*
%LPD*%
%LPC*%
G36*
X208553Y348011D02*
X208553Y348011D01*
X204363Y349747D01*
X201157Y352953D01*
X199421Y357143D01*
X199421Y361677D01*
X201157Y365867D01*
X204363Y369073D01*
X208553Y370809D01*
X213087Y370809D01*
X217277Y369073D01*
X220483Y365867D01*
X222219Y361677D01*
X222219Y357143D01*
X220483Y352953D01*
X217277Y349747D01*
X213087Y348011D01*
X208553Y348011D01*
G37*
%LPD*%
%LPC*%
G36*
X233953Y19081D02*
X233953Y19081D01*
X229763Y20817D01*
X226557Y24023D01*
X224821Y28213D01*
X224821Y32747D01*
X226557Y36937D01*
X229763Y40143D01*
X233953Y41879D01*
X238487Y41879D01*
X242677Y40143D01*
X245883Y36937D01*
X247619Y32747D01*
X247619Y28213D01*
X245883Y24023D01*
X242677Y20817D01*
X238487Y19081D01*
X233953Y19081D01*
G37*
%LPD*%
%LPC*%
G36*
X296284Y193579D02*
X296284Y193579D01*
X292281Y195237D01*
X289217Y198301D01*
X287559Y202304D01*
X287559Y206636D01*
X289217Y210639D01*
X292281Y213703D01*
X296284Y215361D01*
X300616Y215361D01*
X304619Y213703D01*
X307683Y210639D01*
X309341Y206636D01*
X309341Y202304D01*
X307683Y198301D01*
X304619Y195237D01*
X300616Y193579D01*
X296284Y193579D01*
G37*
%LPD*%
G36*
X355809Y47126D02*
X355809Y47126D01*
X355918Y47125D01*
X355949Y47133D01*
X355981Y47135D01*
X356084Y47171D01*
X356190Y47200D01*
X356217Y47217D01*
X356248Y47227D01*
X356321Y47281D01*
X356430Y47348D01*
X356462Y47384D01*
X356497Y47409D01*
X359086Y49998D01*
X362592Y51451D01*
X366388Y51451D01*
X368175Y50711D01*
X368184Y50708D01*
X368192Y50704D01*
X368321Y50673D01*
X368448Y50641D01*
X368457Y50641D01*
X368466Y50639D01*
X368599Y50645D01*
X368730Y50650D01*
X368739Y50652D01*
X368748Y50653D01*
X368873Y50696D01*
X368998Y50737D01*
X369006Y50742D01*
X369015Y50745D01*
X369076Y50791D01*
X369231Y50896D01*
X369246Y50915D01*
X369264Y50927D01*
X372627Y54290D01*
X372635Y54302D01*
X372684Y54367D01*
X372749Y54438D01*
X372769Y54479D01*
X372796Y54516D01*
X372830Y54606D01*
X372872Y54692D01*
X372878Y54734D01*
X372895Y54780D01*
X372905Y54907D01*
X372919Y54997D01*
X372919Y71343D01*
X372915Y71375D01*
X372917Y71408D01*
X372895Y71515D01*
X372879Y71623D01*
X372866Y71652D01*
X372860Y71684D01*
X372808Y71780D01*
X372763Y71880D01*
X372742Y71904D01*
X372727Y71933D01*
X372651Y72011D01*
X372580Y72094D01*
X372553Y72112D01*
X372530Y72135D01*
X372435Y72188D01*
X372344Y72248D01*
X372313Y72258D01*
X372285Y72274D01*
X372179Y72299D01*
X372074Y72331D01*
X372042Y72331D01*
X372011Y72339D01*
X371901Y72333D01*
X371792Y72335D01*
X371761Y72326D01*
X371729Y72324D01*
X371626Y72289D01*
X371520Y72259D01*
X371493Y72242D01*
X371462Y72232D01*
X371389Y72178D01*
X371280Y72111D01*
X371248Y72075D01*
X371213Y72050D01*
X370371Y71208D01*
X366555Y69627D01*
X362425Y69627D01*
X358609Y71208D01*
X356497Y73320D01*
X356471Y73339D01*
X356450Y73364D01*
X356358Y73424D01*
X356271Y73489D01*
X356241Y73501D01*
X356214Y73518D01*
X356109Y73550D01*
X356007Y73589D01*
X355975Y73591D01*
X355944Y73601D01*
X355835Y73602D01*
X355726Y73611D01*
X355694Y73604D01*
X355662Y73605D01*
X355557Y73575D01*
X355450Y73553D01*
X355421Y73538D01*
X355390Y73529D01*
X355297Y73472D01*
X355201Y73421D01*
X355178Y73398D01*
X355150Y73381D01*
X355077Y73300D01*
X354999Y73224D01*
X354983Y73196D01*
X354961Y73172D01*
X354914Y73074D01*
X354860Y72978D01*
X354852Y72947D01*
X354838Y72918D01*
X354824Y72829D01*
X354795Y72704D01*
X354797Y72656D01*
X354791Y72613D01*
X354791Y48116D01*
X354795Y48084D01*
X354793Y48052D01*
X354815Y47945D01*
X354831Y47837D01*
X354844Y47807D01*
X354850Y47776D01*
X354902Y47679D01*
X354947Y47580D01*
X354968Y47555D01*
X354983Y47527D01*
X355059Y47448D01*
X355130Y47365D01*
X355157Y47348D01*
X355180Y47325D01*
X355275Y47271D01*
X355366Y47211D01*
X355397Y47201D01*
X355425Y47186D01*
X355531Y47160D01*
X355636Y47128D01*
X355668Y47128D01*
X355699Y47121D01*
X355809Y47126D01*
G37*
%LPC*%
G36*
X540225Y298227D02*
X540225Y298227D01*
X536409Y299808D01*
X533488Y302729D01*
X531907Y306545D01*
X531907Y310675D01*
X533488Y314491D01*
X536409Y317412D01*
X540225Y318993D01*
X544355Y318993D01*
X548171Y317412D01*
X551092Y314491D01*
X552673Y310675D01*
X552673Y306545D01*
X551092Y302729D01*
X548171Y299808D01*
X544355Y298227D01*
X540225Y298227D01*
G37*
%LPD*%
%LPC*%
G36*
X565625Y298227D02*
X565625Y298227D01*
X561809Y299808D01*
X558888Y302729D01*
X557307Y306545D01*
X557307Y310675D01*
X558888Y314491D01*
X561809Y317412D01*
X565625Y318993D01*
X569755Y318993D01*
X573571Y317412D01*
X576492Y314491D01*
X578073Y310675D01*
X578073Y306545D01*
X576492Y302729D01*
X573571Y299808D01*
X569755Y298227D01*
X565625Y298227D01*
G37*
%LPD*%
%LPC*%
G36*
X514825Y298227D02*
X514825Y298227D01*
X511009Y299808D01*
X508088Y302729D01*
X506507Y306545D01*
X506507Y310675D01*
X508088Y314491D01*
X511009Y317412D01*
X514825Y318993D01*
X518955Y318993D01*
X522771Y317412D01*
X525692Y314491D01*
X527273Y310675D01*
X527273Y306545D01*
X525692Y302729D01*
X522771Y299808D01*
X518955Y298227D01*
X514825Y298227D01*
G37*
%LPD*%
%LPC*%
G36*
X464025Y298227D02*
X464025Y298227D01*
X460209Y299808D01*
X457288Y302729D01*
X455707Y306545D01*
X455707Y310675D01*
X457288Y314491D01*
X460209Y317412D01*
X464025Y318993D01*
X468155Y318993D01*
X471971Y317412D01*
X474892Y314491D01*
X476473Y310675D01*
X476473Y306545D01*
X474892Y302729D01*
X471971Y299808D01*
X468155Y298227D01*
X464025Y298227D01*
G37*
%LPD*%
%LPC*%
G36*
X489425Y298227D02*
X489425Y298227D01*
X485609Y299808D01*
X482688Y302729D01*
X481107Y306545D01*
X481107Y310675D01*
X482688Y314491D01*
X485609Y317412D01*
X489425Y318993D01*
X493555Y318993D01*
X497371Y317412D01*
X500292Y314491D01*
X501873Y310675D01*
X501873Y306545D01*
X500292Y302729D01*
X497371Y299808D01*
X493555Y298227D01*
X489425Y298227D01*
G37*
%LPD*%
%LPC*%
G36*
X540392Y32369D02*
X540392Y32369D01*
X536886Y33822D01*
X534202Y36506D01*
X532749Y40012D01*
X532749Y43808D01*
X534202Y47314D01*
X536886Y49998D01*
X540392Y51451D01*
X544188Y51451D01*
X547694Y49998D01*
X550378Y47314D01*
X551831Y43808D01*
X551831Y40012D01*
X550378Y36506D01*
X547694Y33822D01*
X544188Y32369D01*
X540392Y32369D01*
G37*
%LPD*%
%LPC*%
G36*
X565792Y32369D02*
X565792Y32369D01*
X562286Y33822D01*
X559602Y36506D01*
X558149Y40012D01*
X558149Y43808D01*
X559602Y47314D01*
X562286Y49998D01*
X565792Y51451D01*
X569588Y51451D01*
X573094Y49998D01*
X575778Y47314D01*
X577231Y43808D01*
X577231Y40012D01*
X575778Y36506D01*
X573094Y33822D01*
X569588Y32369D01*
X565792Y32369D01*
G37*
%LPD*%
%LPC*%
G36*
X616592Y32369D02*
X616592Y32369D01*
X613086Y33822D01*
X610402Y36506D01*
X608949Y40012D01*
X608949Y43808D01*
X610402Y47314D01*
X613086Y49998D01*
X616592Y51451D01*
X620388Y51451D01*
X623894Y49998D01*
X626578Y47314D01*
X628031Y43808D01*
X628031Y40012D01*
X626578Y36506D01*
X623894Y33822D01*
X620388Y32369D01*
X616592Y32369D01*
G37*
%LPD*%
%LPC*%
G36*
X540392Y337169D02*
X540392Y337169D01*
X536886Y338622D01*
X534202Y341306D01*
X532749Y344812D01*
X532749Y348608D01*
X534202Y352114D01*
X536886Y354798D01*
X540392Y356251D01*
X544188Y356251D01*
X547694Y354798D01*
X550378Y352114D01*
X551831Y348608D01*
X551831Y344812D01*
X550378Y341306D01*
X547694Y338622D01*
X544188Y337169D01*
X540392Y337169D01*
G37*
%LPD*%
%LPC*%
G36*
X353702Y196199D02*
X353702Y196199D01*
X350196Y197652D01*
X347512Y200336D01*
X346059Y203842D01*
X346059Y207638D01*
X347512Y211144D01*
X350196Y213828D01*
X353702Y215281D01*
X357498Y215281D01*
X361004Y213828D01*
X363688Y211144D01*
X365141Y207638D01*
X365141Y203842D01*
X363688Y200336D01*
X361004Y197652D01*
X357498Y196199D01*
X353702Y196199D01*
G37*
%LPD*%
%LPC*%
G36*
X565792Y337169D02*
X565792Y337169D01*
X562286Y338622D01*
X559602Y341306D01*
X558149Y344812D01*
X558149Y348608D01*
X559602Y352114D01*
X562286Y354798D01*
X565792Y356251D01*
X569588Y356251D01*
X573094Y354798D01*
X575778Y352114D01*
X577231Y348608D01*
X577231Y344812D01*
X575778Y341306D01*
X573094Y338622D01*
X569588Y337169D01*
X565792Y337169D01*
G37*
%LPD*%
%LPC*%
G36*
X53781Y212629D02*
X53781Y212629D01*
X52609Y213801D01*
X52609Y230699D01*
X53781Y231871D01*
X63059Y231871D01*
X64231Y230699D01*
X64231Y213801D01*
X63059Y212629D01*
X53781Y212629D01*
G37*
%LPD*%
%LPC*%
G36*
X15681Y212629D02*
X15681Y212629D01*
X14509Y213801D01*
X14509Y230699D01*
X15681Y231871D01*
X24959Y231871D01*
X26131Y230699D01*
X26131Y213801D01*
X24959Y212629D01*
X15681Y212629D01*
G37*
%LPD*%
%LPC*%
G36*
X243661Y242907D02*
X243661Y242907D01*
X240985Y244016D01*
X238936Y246065D01*
X237827Y248741D01*
X237827Y251639D01*
X238936Y254315D01*
X240985Y256364D01*
X243661Y257473D01*
X246559Y257473D01*
X249235Y256364D01*
X251284Y254315D01*
X252393Y251639D01*
X252393Y248741D01*
X251284Y246065D01*
X249235Y244016D01*
X246559Y242907D01*
X243661Y242907D01*
G37*
%LPD*%
%LPC*%
G36*
X201751Y170517D02*
X201751Y170517D01*
X199075Y171626D01*
X197026Y173675D01*
X195917Y176351D01*
X195917Y179249D01*
X197026Y181925D01*
X199075Y183974D01*
X201751Y185083D01*
X204649Y185083D01*
X207325Y183974D01*
X209374Y181925D01*
X210483Y179249D01*
X210483Y176351D01*
X209374Y173675D01*
X207325Y171626D01*
X204649Y170517D01*
X201751Y170517D01*
G37*
%LPD*%
%LPC*%
G36*
X192861Y206077D02*
X192861Y206077D01*
X190185Y207186D01*
X188136Y209235D01*
X187027Y211911D01*
X187027Y214809D01*
X188136Y217485D01*
X190185Y219534D01*
X192861Y220643D01*
X195759Y220643D01*
X198435Y219534D01*
X200484Y217485D01*
X201593Y214809D01*
X201593Y211911D01*
X200484Y209235D01*
X198435Y207186D01*
X195759Y206077D01*
X192861Y206077D01*
G37*
%LPD*%
%LPC*%
G36*
X261441Y207347D02*
X261441Y207347D01*
X258765Y208456D01*
X256716Y210505D01*
X255607Y213181D01*
X255607Y216079D01*
X256716Y218755D01*
X258765Y220804D01*
X261441Y221913D01*
X264339Y221913D01*
X267015Y220804D01*
X269064Y218755D01*
X270173Y216079D01*
X270173Y213181D01*
X269064Y210505D01*
X267015Y208456D01*
X264339Y207347D01*
X261441Y207347D01*
G37*
%LPD*%
%LPC*%
G36*
X85819Y32479D02*
X85819Y32479D01*
X85819Y42251D01*
X86616Y42125D01*
X88403Y41544D01*
X90077Y40691D01*
X91598Y39586D01*
X92926Y38258D01*
X94031Y36737D01*
X94884Y35063D01*
X95465Y33276D01*
X95533Y32845D01*
X95570Y32724D01*
X95603Y32603D01*
X95611Y32590D01*
X95616Y32575D01*
X95679Y32479D01*
X85819Y32479D01*
G37*
%LPD*%
%LPC*%
G36*
X97362Y32479D02*
X97362Y32479D01*
X97412Y32551D01*
X97417Y32565D01*
X97426Y32579D01*
X97497Y32813D01*
X97507Y32844D01*
X97575Y33276D01*
X98156Y35063D01*
X99009Y36737D01*
X100114Y38258D01*
X101442Y39586D01*
X102963Y40691D01*
X104637Y41544D01*
X106424Y42125D01*
X107221Y42251D01*
X107221Y32479D01*
X97362Y32479D01*
G37*
%LPD*%
%LPC*%
G36*
X85819Y28481D02*
X85819Y28481D01*
X95678Y28481D01*
X95628Y28409D01*
X95623Y28395D01*
X95614Y28381D01*
X95544Y28148D01*
X95533Y28115D01*
X95465Y27684D01*
X94884Y25897D01*
X94031Y24223D01*
X92926Y22702D01*
X91598Y21374D01*
X90077Y20269D01*
X88403Y19416D01*
X86616Y18835D01*
X85819Y18709D01*
X85819Y28481D01*
G37*
%LPD*%
%LPC*%
G36*
X106424Y18835D02*
X106424Y18835D01*
X104637Y19416D01*
X102963Y20269D01*
X101442Y21374D01*
X100114Y22702D01*
X99009Y24223D01*
X98156Y25897D01*
X97575Y27684D01*
X97507Y28116D01*
X97470Y28235D01*
X97437Y28357D01*
X97429Y28370D01*
X97424Y28385D01*
X97361Y28481D01*
X107221Y28481D01*
X107221Y18709D01*
X106424Y18835D01*
G37*
%LPD*%
%LPC*%
G36*
X111219Y361409D02*
X111219Y361409D01*
X111219Y371181D01*
X112016Y371055D01*
X113803Y370474D01*
X115477Y369621D01*
X116998Y368516D01*
X118326Y367188D01*
X119431Y365667D01*
X120284Y363993D01*
X120865Y362206D01*
X120991Y361409D01*
X111219Y361409D01*
G37*
%LPD*%
%LPC*%
G36*
X111219Y32479D02*
X111219Y32479D01*
X111219Y42251D01*
X112016Y42125D01*
X113803Y41544D01*
X115477Y40691D01*
X116998Y39586D01*
X118326Y38258D01*
X119431Y36737D01*
X120284Y35063D01*
X120865Y33276D01*
X120991Y32479D01*
X111219Y32479D01*
G37*
%LPD*%
%LPC*%
G36*
X72049Y32479D02*
X72049Y32479D01*
X72175Y33276D01*
X72756Y35063D01*
X73609Y36737D01*
X74714Y38258D01*
X76042Y39586D01*
X77563Y40691D01*
X79237Y41544D01*
X81024Y42125D01*
X81821Y42251D01*
X81821Y32479D01*
X72049Y32479D01*
G37*
%LPD*%
%LPC*%
G36*
X111219Y28481D02*
X111219Y28481D01*
X120991Y28481D01*
X120865Y27684D01*
X120284Y25897D01*
X119431Y24223D01*
X118326Y22702D01*
X116998Y21374D01*
X115477Y20269D01*
X113803Y19416D01*
X112016Y18835D01*
X111219Y18709D01*
X111219Y28481D01*
G37*
%LPD*%
%LPC*%
G36*
X97449Y361409D02*
X97449Y361409D01*
X97575Y362206D01*
X98156Y363993D01*
X99009Y365667D01*
X100114Y367188D01*
X101442Y368516D01*
X102963Y369621D01*
X104637Y370474D01*
X106424Y371055D01*
X107221Y371181D01*
X107221Y361409D01*
X97449Y361409D01*
G37*
%LPD*%
%LPC*%
G36*
X111219Y357411D02*
X111219Y357411D01*
X120991Y357411D01*
X120865Y356614D01*
X120284Y354827D01*
X119431Y353153D01*
X118326Y351632D01*
X116998Y350304D01*
X115477Y349199D01*
X113803Y348346D01*
X112016Y347765D01*
X111219Y347639D01*
X111219Y357411D01*
G37*
%LPD*%
%LPC*%
G36*
X81024Y18835D02*
X81024Y18835D01*
X79237Y19416D01*
X77563Y20269D01*
X76042Y21374D01*
X74714Y22702D01*
X73609Y24223D01*
X72756Y25897D01*
X72175Y27684D01*
X72049Y28481D01*
X81821Y28481D01*
X81821Y18709D01*
X81024Y18835D01*
G37*
%LPD*%
%LPC*%
G36*
X106424Y347765D02*
X106424Y347765D01*
X104637Y348346D01*
X102963Y349199D01*
X101442Y350304D01*
X100114Y351632D01*
X99009Y353153D01*
X98156Y354827D01*
X97575Y356614D01*
X97449Y357411D01*
X107221Y357411D01*
X107221Y347639D01*
X106424Y347765D01*
G37*
%LPD*%
%LPC*%
G36*
X163289Y310609D02*
X163289Y310609D01*
X163289Y319352D01*
X163848Y319264D01*
X165483Y318733D01*
X167015Y317952D01*
X168406Y316941D01*
X169621Y315726D01*
X170632Y314335D01*
X171413Y312803D01*
X171944Y311168D01*
X172032Y310609D01*
X163289Y310609D01*
G37*
%LPD*%
%LPC*%
G36*
X214089Y310609D02*
X214089Y310609D01*
X214089Y319352D01*
X214648Y319264D01*
X216283Y318733D01*
X217815Y317952D01*
X219206Y316941D01*
X220421Y315726D01*
X221432Y314335D01*
X222213Y312803D01*
X222744Y311168D01*
X222832Y310609D01*
X214089Y310609D01*
G37*
%LPD*%
%LPC*%
G36*
X569689Y82009D02*
X569689Y82009D01*
X569689Y90752D01*
X570248Y90664D01*
X571883Y90133D01*
X573415Y89352D01*
X574806Y88341D01*
X576021Y87126D01*
X577032Y85735D01*
X577813Y84203D01*
X578344Y82568D01*
X578432Y82009D01*
X569689Y82009D01*
G37*
%LPD*%
%LPC*%
G36*
X201348Y310609D02*
X201348Y310609D01*
X201436Y311168D01*
X201967Y312803D01*
X202748Y314335D01*
X203759Y315726D01*
X204974Y316941D01*
X206365Y317952D01*
X207897Y318733D01*
X209532Y319264D01*
X210091Y319352D01*
X210091Y310609D01*
X201348Y310609D01*
G37*
%LPD*%
%LPC*%
G36*
X556948Y82009D02*
X556948Y82009D01*
X557036Y82568D01*
X557567Y84203D01*
X558348Y85735D01*
X559359Y87126D01*
X560574Y88341D01*
X561965Y89352D01*
X563497Y90133D01*
X565132Y90664D01*
X565691Y90752D01*
X565691Y82009D01*
X556948Y82009D01*
G37*
%LPD*%
%LPC*%
G36*
X214089Y306611D02*
X214089Y306611D01*
X222832Y306611D01*
X222744Y306052D01*
X222213Y304417D01*
X221432Y302885D01*
X220421Y301494D01*
X219206Y300279D01*
X217815Y299268D01*
X216283Y298487D01*
X214648Y297956D01*
X214089Y297868D01*
X214089Y306611D01*
G37*
%LPD*%
%LPC*%
G36*
X150548Y310609D02*
X150548Y310609D01*
X150636Y311168D01*
X151167Y312803D01*
X151948Y314335D01*
X152959Y315726D01*
X154174Y316941D01*
X155565Y317952D01*
X157097Y318733D01*
X158732Y319264D01*
X159291Y319352D01*
X159291Y310609D01*
X150548Y310609D01*
G37*
%LPD*%
%LPC*%
G36*
X239489Y78011D02*
X239489Y78011D01*
X248232Y78011D01*
X248144Y77452D01*
X247613Y75817D01*
X246832Y74285D01*
X245821Y72894D01*
X244606Y71679D01*
X243215Y70668D01*
X241683Y69887D01*
X240048Y69356D01*
X239489Y69268D01*
X239489Y78011D01*
G37*
%LPD*%
%LPC*%
G36*
X163289Y306611D02*
X163289Y306611D01*
X172032Y306611D01*
X171944Y306052D01*
X171413Y304417D01*
X170632Y302885D01*
X169621Y301494D01*
X168406Y300279D01*
X167015Y299268D01*
X165483Y298487D01*
X163848Y297956D01*
X163289Y297868D01*
X163289Y306611D01*
G37*
%LPD*%
%LPC*%
G36*
X569689Y78011D02*
X569689Y78011D01*
X578432Y78011D01*
X578344Y77452D01*
X577813Y75817D01*
X577032Y74285D01*
X576021Y72894D01*
X574806Y71679D01*
X573415Y70668D01*
X571883Y69887D01*
X570248Y69356D01*
X569689Y69268D01*
X569689Y78011D01*
G37*
%LPD*%
%LPC*%
G36*
X565132Y69356D02*
X565132Y69356D01*
X563497Y69887D01*
X561965Y70668D01*
X560574Y71679D01*
X559359Y72894D01*
X558348Y74285D01*
X557567Y75817D01*
X557036Y77452D01*
X556948Y78011D01*
X565691Y78011D01*
X565691Y69268D01*
X565132Y69356D01*
G37*
%LPD*%
%LPC*%
G36*
X209532Y297956D02*
X209532Y297956D01*
X207897Y298487D01*
X206365Y299268D01*
X204974Y300279D01*
X203759Y301494D01*
X202748Y302885D01*
X201967Y304417D01*
X201436Y306052D01*
X201348Y306611D01*
X210091Y306611D01*
X210091Y297868D01*
X209532Y297956D01*
G37*
%LPD*%
%LPC*%
G36*
X158732Y297956D02*
X158732Y297956D01*
X157097Y298487D01*
X155565Y299268D01*
X154174Y300279D01*
X152959Y301494D01*
X151948Y302885D01*
X151167Y304417D01*
X150636Y306052D01*
X150548Y306611D01*
X159291Y306611D01*
X159291Y297868D01*
X158732Y297956D01*
G37*
%LPD*%
%LPC*%
G36*
X234932Y69356D02*
X234932Y69356D01*
X233297Y69887D01*
X231765Y70668D01*
X230374Y71679D01*
X229159Y72894D01*
X228148Y74285D01*
X227367Y75817D01*
X226836Y77452D01*
X226748Y78011D01*
X235491Y78011D01*
X235491Y69268D01*
X234932Y69356D01*
G37*
%LPD*%
%LPC*%
G36*
X620489Y348709D02*
X620489Y348709D01*
X620489Y356600D01*
X620851Y356543D01*
X622360Y356052D01*
X623774Y355332D01*
X625057Y354399D01*
X626179Y353277D01*
X627112Y351994D01*
X627832Y350580D01*
X628323Y349071D01*
X628380Y348709D01*
X620489Y348709D01*
G37*
%LPD*%
%LPC*%
G36*
X341089Y348709D02*
X341089Y348709D01*
X341089Y356600D01*
X341451Y356543D01*
X342960Y356052D01*
X344374Y355332D01*
X345657Y354399D01*
X346779Y353277D01*
X347712Y351994D01*
X348432Y350580D01*
X348923Y349071D01*
X348980Y348709D01*
X341089Y348709D01*
G37*
%LPD*%
%LPC*%
G36*
X493489Y348709D02*
X493489Y348709D01*
X493489Y356600D01*
X493851Y356543D01*
X495360Y356052D01*
X496774Y355332D01*
X498057Y354399D01*
X499179Y353277D01*
X500112Y351994D01*
X500832Y350580D01*
X501323Y349071D01*
X501380Y348709D01*
X493489Y348709D01*
G37*
%LPD*%
%LPC*%
G36*
X518889Y348709D02*
X518889Y348709D01*
X518889Y356600D01*
X519251Y356543D01*
X520760Y356052D01*
X522174Y355332D01*
X523457Y354399D01*
X524579Y353277D01*
X525512Y351994D01*
X526232Y350580D01*
X526723Y349071D01*
X526780Y348709D01*
X518889Y348709D01*
G37*
%LPD*%
%LPC*%
G36*
X595089Y348709D02*
X595089Y348709D01*
X595089Y356600D01*
X595451Y356543D01*
X596960Y356052D01*
X598374Y355332D01*
X599657Y354399D01*
X600779Y353277D01*
X601712Y351994D01*
X602432Y350580D01*
X602923Y349071D01*
X602980Y348709D01*
X595089Y348709D01*
G37*
%LPD*%
%LPC*%
G36*
X357599Y156939D02*
X357599Y156939D01*
X357599Y164830D01*
X357961Y164773D01*
X359470Y164282D01*
X360884Y163562D01*
X362167Y162629D01*
X363289Y161507D01*
X364222Y160224D01*
X364942Y158810D01*
X365433Y157301D01*
X365490Y156939D01*
X357599Y156939D01*
G37*
%LPD*%
%LPC*%
G36*
X595089Y43909D02*
X595089Y43909D01*
X595089Y51800D01*
X595451Y51743D01*
X596960Y51252D01*
X598374Y50532D01*
X599657Y49599D01*
X600779Y48477D01*
X601712Y47194D01*
X602432Y45780D01*
X602923Y44271D01*
X602980Y43909D01*
X595089Y43909D01*
G37*
%LPD*%
%LPC*%
G36*
X645889Y43909D02*
X645889Y43909D01*
X645889Y51800D01*
X646251Y51743D01*
X647760Y51252D01*
X649174Y50532D01*
X650457Y49599D01*
X651579Y48477D01*
X652512Y47194D01*
X653232Y45780D01*
X653723Y44271D01*
X653780Y43909D01*
X645889Y43909D01*
G37*
%LPD*%
%LPC*%
G36*
X645889Y348709D02*
X645889Y348709D01*
X645889Y356600D01*
X646251Y356543D01*
X647760Y356052D01*
X649174Y355332D01*
X650457Y354399D01*
X651579Y353277D01*
X652512Y351994D01*
X653232Y350580D01*
X653723Y349071D01*
X653780Y348709D01*
X645889Y348709D01*
G37*
%LPD*%
%LPC*%
G36*
X507000Y348709D02*
X507000Y348709D01*
X507057Y349071D01*
X507548Y350580D01*
X508268Y351994D01*
X509201Y353277D01*
X510323Y354399D01*
X511606Y355332D01*
X513020Y356052D01*
X514529Y356543D01*
X514891Y356600D01*
X514891Y348709D01*
X507000Y348709D01*
G37*
%LPD*%
%LPC*%
G36*
X608600Y348709D02*
X608600Y348709D01*
X608657Y349071D01*
X609148Y350580D01*
X609868Y351994D01*
X610801Y353277D01*
X611923Y354399D01*
X613206Y355332D01*
X614620Y356052D01*
X616129Y356543D01*
X616491Y356600D01*
X616491Y348709D01*
X608600Y348709D01*
G37*
%LPD*%
%LPC*%
G36*
X329200Y43909D02*
X329200Y43909D01*
X329257Y44271D01*
X329748Y45780D01*
X330468Y47194D01*
X331401Y48477D01*
X332523Y49599D01*
X333806Y50532D01*
X335220Y51252D01*
X336729Y51743D01*
X337091Y51800D01*
X337091Y43909D01*
X329200Y43909D01*
G37*
%LPD*%
%LPC*%
G36*
X583200Y43909D02*
X583200Y43909D01*
X583257Y44271D01*
X583748Y45780D01*
X584468Y47194D01*
X585401Y48477D01*
X586523Y49599D01*
X587806Y50532D01*
X589220Y51252D01*
X590729Y51743D01*
X591091Y51800D01*
X591091Y43909D01*
X583200Y43909D01*
G37*
%LPD*%
%LPC*%
G36*
X481600Y348709D02*
X481600Y348709D01*
X481657Y349071D01*
X482148Y350580D01*
X482868Y351994D01*
X483801Y353277D01*
X484923Y354399D01*
X486206Y355332D01*
X487620Y356052D01*
X489129Y356543D01*
X489491Y356600D01*
X489491Y348709D01*
X481600Y348709D01*
G37*
%LPD*%
%LPC*%
G36*
X595089Y344711D02*
X595089Y344711D01*
X602980Y344711D01*
X602923Y344349D01*
X602432Y342840D01*
X601712Y341426D01*
X600779Y340143D01*
X599657Y339021D01*
X598374Y338088D01*
X596960Y337368D01*
X595451Y336877D01*
X595089Y336820D01*
X595089Y344711D01*
G37*
%LPD*%
%LPC*%
G36*
X583200Y348709D02*
X583200Y348709D01*
X583257Y349071D01*
X583748Y350580D01*
X584468Y351994D01*
X585401Y353277D01*
X586523Y354399D01*
X587806Y355332D01*
X589220Y356052D01*
X590729Y356543D01*
X591091Y356600D01*
X591091Y348709D01*
X583200Y348709D01*
G37*
%LPD*%
%LPC*%
G36*
X357599Y152941D02*
X357599Y152941D01*
X365490Y152941D01*
X365433Y152579D01*
X364942Y151070D01*
X364222Y149656D01*
X363289Y148373D01*
X362167Y147251D01*
X360884Y146318D01*
X359470Y145598D01*
X357961Y145107D01*
X357599Y145050D01*
X357599Y152941D01*
G37*
%LPD*%
%LPC*%
G36*
X634000Y43909D02*
X634000Y43909D01*
X634057Y44271D01*
X634548Y45780D01*
X635268Y47194D01*
X636201Y48477D01*
X637323Y49599D01*
X638606Y50532D01*
X640020Y51252D01*
X641529Y51743D01*
X641891Y51800D01*
X641891Y43909D01*
X634000Y43909D01*
G37*
%LPD*%
%LPC*%
G36*
X493489Y344711D02*
X493489Y344711D01*
X501380Y344711D01*
X501323Y344349D01*
X500832Y342840D01*
X500112Y341426D01*
X499179Y340143D01*
X498057Y339021D01*
X496774Y338088D01*
X495360Y337368D01*
X493851Y336877D01*
X493489Y336820D01*
X493489Y344711D01*
G37*
%LPD*%
%LPC*%
G36*
X518889Y344711D02*
X518889Y344711D01*
X526780Y344711D01*
X526723Y344349D01*
X526232Y342840D01*
X525512Y341426D01*
X524579Y340143D01*
X523457Y339021D01*
X522174Y338088D01*
X520760Y337368D01*
X519251Y336877D01*
X518889Y336820D01*
X518889Y344711D01*
G37*
%LPD*%
%LPC*%
G36*
X634000Y348709D02*
X634000Y348709D01*
X634057Y349071D01*
X634548Y350580D01*
X635268Y351994D01*
X636201Y353277D01*
X637323Y354399D01*
X638606Y355332D01*
X640020Y356052D01*
X641529Y356543D01*
X641891Y356600D01*
X641891Y348709D01*
X634000Y348709D01*
G37*
%LPD*%
%LPC*%
G36*
X620489Y344711D02*
X620489Y344711D01*
X628380Y344711D01*
X628323Y344349D01*
X627832Y342840D01*
X627112Y341426D01*
X626179Y340143D01*
X625057Y339021D01*
X623774Y338088D01*
X622360Y337368D01*
X620851Y336877D01*
X620489Y336820D01*
X620489Y344711D01*
G37*
%LPD*%
%LPC*%
G36*
X595089Y39911D02*
X595089Y39911D01*
X602980Y39911D01*
X602923Y39549D01*
X602432Y38040D01*
X601712Y36626D01*
X600779Y35343D01*
X599657Y34221D01*
X598374Y33288D01*
X596960Y32568D01*
X595451Y32077D01*
X595089Y32020D01*
X595089Y39911D01*
G37*
%LPD*%
%LPC*%
G36*
X645889Y39911D02*
X645889Y39911D01*
X653780Y39911D01*
X653723Y39549D01*
X653232Y38040D01*
X652512Y36626D01*
X651579Y35343D01*
X650457Y34221D01*
X649174Y33288D01*
X647760Y32568D01*
X646251Y32077D01*
X645889Y32020D01*
X645889Y39911D01*
G37*
%LPD*%
%LPC*%
G36*
X645889Y344711D02*
X645889Y344711D01*
X653780Y344711D01*
X653723Y344349D01*
X653232Y342840D01*
X652512Y341426D01*
X651579Y340143D01*
X650457Y339021D01*
X649174Y338088D01*
X647760Y337368D01*
X646251Y336877D01*
X645889Y336820D01*
X645889Y344711D01*
G37*
%LPD*%
%LPC*%
G36*
X345710Y156939D02*
X345710Y156939D01*
X345767Y157301D01*
X346258Y158810D01*
X346978Y160224D01*
X347911Y161507D01*
X349033Y162629D01*
X350316Y163562D01*
X351730Y164282D01*
X353239Y164773D01*
X353601Y164830D01*
X353601Y156939D01*
X345710Y156939D01*
G37*
%LPD*%
%LPC*%
G36*
X329200Y348709D02*
X329200Y348709D01*
X329257Y349071D01*
X329748Y350580D01*
X330468Y351994D01*
X331401Y353277D01*
X332523Y354399D01*
X333806Y355332D01*
X335220Y356052D01*
X336729Y356543D01*
X337091Y356600D01*
X337091Y348709D01*
X329200Y348709D01*
G37*
%LPD*%
%LPC*%
G36*
X489129Y336877D02*
X489129Y336877D01*
X487620Y337368D01*
X486206Y338088D01*
X484923Y339021D01*
X483801Y340143D01*
X482868Y341426D01*
X482148Y342840D01*
X481657Y344349D01*
X481600Y344711D01*
X489491Y344711D01*
X489491Y336820D01*
X489129Y336877D01*
G37*
%LPD*%
%LPC*%
G36*
X641529Y32077D02*
X641529Y32077D01*
X640020Y32568D01*
X638606Y33288D01*
X637323Y34221D01*
X636201Y35343D01*
X635268Y36626D01*
X634548Y38040D01*
X634057Y39549D01*
X634000Y39911D01*
X641891Y39911D01*
X641891Y32020D01*
X641529Y32077D01*
G37*
%LPD*%
%LPC*%
G36*
X590729Y32077D02*
X590729Y32077D01*
X589220Y32568D01*
X587806Y33288D01*
X586523Y34221D01*
X585401Y35343D01*
X584468Y36626D01*
X583748Y38040D01*
X583257Y39549D01*
X583200Y39911D01*
X591091Y39911D01*
X591091Y32020D01*
X590729Y32077D01*
G37*
%LPD*%
%LPC*%
G36*
X641529Y336877D02*
X641529Y336877D01*
X640020Y337368D01*
X638606Y338088D01*
X637323Y339021D01*
X636201Y340143D01*
X635268Y341426D01*
X634548Y342840D01*
X634057Y344349D01*
X634000Y344711D01*
X641891Y344711D01*
X641891Y336820D01*
X641529Y336877D01*
G37*
%LPD*%
%LPC*%
G36*
X616129Y336877D02*
X616129Y336877D01*
X614620Y337368D01*
X613206Y338088D01*
X611923Y339021D01*
X610801Y340143D01*
X609868Y341426D01*
X609148Y342840D01*
X608657Y344349D01*
X608600Y344711D01*
X616491Y344711D01*
X616491Y336820D01*
X616129Y336877D01*
G37*
%LPD*%
%LPC*%
G36*
X353239Y145107D02*
X353239Y145107D01*
X351730Y145598D01*
X350316Y146318D01*
X349033Y147251D01*
X347911Y148373D01*
X346978Y149656D01*
X346258Y151070D01*
X345767Y152579D01*
X345710Y152941D01*
X353601Y152941D01*
X353601Y145050D01*
X353239Y145107D01*
G37*
%LPD*%
%LPC*%
G36*
X590729Y336877D02*
X590729Y336877D01*
X589220Y337368D01*
X587806Y338088D01*
X586523Y339021D01*
X585401Y340143D01*
X584468Y341426D01*
X583748Y342840D01*
X583257Y344349D01*
X583200Y344711D01*
X591091Y344711D01*
X591091Y336820D01*
X590729Y336877D01*
G37*
%LPD*%
%LPC*%
G36*
X336729Y32077D02*
X336729Y32077D01*
X335220Y32568D01*
X333806Y33288D01*
X332523Y34221D01*
X331401Y35343D01*
X330468Y36626D01*
X329748Y38040D01*
X329257Y39549D01*
X329200Y39911D01*
X337091Y39911D01*
X337091Y32020D01*
X336729Y32077D01*
G37*
%LPD*%
%LPC*%
G36*
X514529Y336877D02*
X514529Y336877D01*
X513020Y337368D01*
X511606Y338088D01*
X510323Y339021D01*
X509201Y340143D01*
X508268Y341426D01*
X507548Y342840D01*
X507057Y344349D01*
X507000Y344711D01*
X514891Y344711D01*
X514891Y336820D01*
X514529Y336877D01*
G37*
%LPD*%
%LPC*%
G36*
X22224Y168274D02*
X22224Y168274D01*
X22224Y176531D01*
X24465Y176531D01*
X25111Y176358D01*
X25690Y176023D01*
X26163Y175550D01*
X26498Y174971D01*
X26671Y174325D01*
X26671Y168274D01*
X22224Y168274D01*
G37*
%LPD*%
%LPC*%
G36*
X22224Y156209D02*
X22224Y156209D01*
X22224Y164466D01*
X26671Y164466D01*
X26671Y158415D01*
X26498Y157769D01*
X26163Y157190D01*
X25690Y156717D01*
X25111Y156382D01*
X24465Y156209D01*
X22224Y156209D01*
G37*
%LPD*%
%LPC*%
G36*
X13969Y168274D02*
X13969Y168274D01*
X13969Y174325D01*
X14142Y174971D01*
X14477Y175550D01*
X14950Y176023D01*
X15529Y176358D01*
X16175Y176531D01*
X18416Y176531D01*
X18416Y168274D01*
X13969Y168274D01*
G37*
%LPD*%
%LPC*%
G36*
X16175Y156209D02*
X16175Y156209D01*
X15529Y156382D01*
X14950Y156717D01*
X14477Y157190D01*
X14142Y157769D01*
X13969Y158415D01*
X13969Y164466D01*
X18416Y164466D01*
X18416Y156209D01*
X16175Y156209D01*
G37*
%LPD*%
%LPC*%
G36*
X710769Y330929D02*
X710769Y330929D01*
X710769Y337471D01*
X713105Y337471D01*
X713751Y337298D01*
X714330Y336963D01*
X714803Y336490D01*
X715138Y335911D01*
X715311Y335265D01*
X715311Y330929D01*
X710769Y330929D01*
G37*
%LPD*%
%LPC*%
G36*
X710769Y320389D02*
X710769Y320389D01*
X710769Y326931D01*
X715311Y326931D01*
X715311Y322595D01*
X715138Y321949D01*
X714803Y321370D01*
X714330Y320897D01*
X713751Y320562D01*
X713105Y320389D01*
X710769Y320389D01*
G37*
%LPD*%
%LPC*%
G36*
X702229Y330929D02*
X702229Y330929D01*
X702229Y335265D01*
X702402Y335911D01*
X702737Y336490D01*
X703210Y336963D01*
X703789Y337298D01*
X704435Y337471D01*
X706771Y337471D01*
X706771Y330929D01*
X702229Y330929D01*
G37*
%LPD*%
%LPC*%
G36*
X704435Y320389D02*
X704435Y320389D01*
X703789Y320562D01*
X703210Y320897D01*
X702737Y321370D01*
X702402Y321949D01*
X702229Y322595D01*
X702229Y326931D01*
X706771Y326931D01*
X706771Y320389D01*
X704435Y320389D01*
G37*
%LPD*%
%LPC*%
G36*
X212089Y308609D02*
X212089Y308609D01*
X212089Y308611D01*
X212091Y308611D01*
X212091Y308609D01*
X212089Y308609D01*
G37*
%LPD*%
%LPC*%
G36*
X593089Y346709D02*
X593089Y346709D01*
X593089Y346711D01*
X593091Y346711D01*
X593091Y346709D01*
X593089Y346709D01*
G37*
%LPD*%
%LPC*%
G36*
X593089Y41909D02*
X593089Y41909D01*
X593089Y41911D01*
X593091Y41911D01*
X593091Y41909D01*
X593089Y41909D01*
G37*
%LPD*%
%LPC*%
G36*
X643889Y41909D02*
X643889Y41909D01*
X643889Y41911D01*
X643891Y41911D01*
X643891Y41909D01*
X643889Y41909D01*
G37*
%LPD*%
%LPC*%
G36*
X161289Y308609D02*
X161289Y308609D01*
X161289Y308611D01*
X161291Y308611D01*
X161291Y308609D01*
X161289Y308609D01*
G37*
%LPD*%
%LPC*%
G36*
X618489Y346709D02*
X618489Y346709D01*
X618489Y346711D01*
X618491Y346711D01*
X618491Y346709D01*
X618489Y346709D01*
G37*
%LPD*%
%LPC*%
G36*
X643889Y346709D02*
X643889Y346709D01*
X643889Y346711D01*
X643891Y346711D01*
X643891Y346709D01*
X643889Y346709D01*
G37*
%LPD*%
%LPC*%
G36*
X491489Y346709D02*
X491489Y346709D01*
X491489Y346711D01*
X491491Y346711D01*
X491491Y346709D01*
X491489Y346709D01*
G37*
%LPD*%
%LPC*%
G36*
X567689Y80009D02*
X567689Y80009D01*
X567689Y80011D01*
X567691Y80011D01*
X567691Y80009D01*
X567689Y80009D01*
G37*
%LPD*%
%LPC*%
G36*
X109219Y359409D02*
X109219Y359409D01*
X109219Y359411D01*
X109221Y359411D01*
X109221Y359409D01*
X109219Y359409D01*
G37*
%LPD*%
%LPC*%
G36*
X355599Y154939D02*
X355599Y154939D01*
X355599Y154941D01*
X355601Y154941D01*
X355601Y154939D01*
X355599Y154939D01*
G37*
%LPD*%
%LPC*%
G36*
X109219Y30479D02*
X109219Y30479D01*
X109219Y30481D01*
X109221Y30481D01*
X109221Y30479D01*
X109219Y30479D01*
G37*
%LPD*%
%LPC*%
G36*
X83819Y30479D02*
X83819Y30479D01*
X83819Y30481D01*
X83821Y30481D01*
X83821Y30479D01*
X83819Y30479D01*
G37*
%LPD*%
%LPC*%
G36*
X516889Y346709D02*
X516889Y346709D01*
X516889Y346711D01*
X516891Y346711D01*
X516891Y346709D01*
X516889Y346709D01*
G37*
%LPD*%
%LPC*%
G36*
X708769Y328929D02*
X708769Y328929D01*
X708769Y328931D01*
X708771Y328931D01*
X708771Y328929D01*
X708769Y328929D01*
G37*
%LPD*%
D10*
X298450Y153670D03*
X298450Y179070D03*
X298450Y204470D03*
D11*
X298450Y229870D03*
D12*
X643890Y346710D03*
X618490Y346710D03*
X593090Y346710D03*
X567690Y346710D03*
X542290Y346710D03*
X516890Y346710D03*
X491490Y346710D03*
X466090Y346710D03*
X440690Y346710D03*
X415290Y346710D03*
X389890Y346710D03*
X364490Y346710D03*
X339090Y346710D03*
X339090Y41910D03*
X364490Y41910D03*
X389890Y41910D03*
X415290Y41910D03*
X440690Y41910D03*
X466090Y41910D03*
X491490Y41910D03*
X516890Y41910D03*
X542290Y41910D03*
X567690Y41910D03*
X593090Y41910D03*
X618490Y41910D03*
X643890Y41910D03*
D13*
X95020Y139700D03*
X59920Y139700D03*
D12*
X355600Y231140D03*
X355600Y205740D03*
X355600Y180340D03*
X355600Y154940D03*
D14*
X690770Y328930D03*
X708770Y328930D03*
D15*
X58420Y166370D03*
X58420Y222250D03*
X20320Y166370D03*
X20320Y222250D03*
D16*
X567690Y308610D03*
X542290Y308610D03*
X516890Y308610D03*
X491490Y308610D03*
X466090Y308610D03*
X440690Y308610D03*
X415290Y308610D03*
X389890Y308610D03*
X364490Y308610D03*
X339090Y308610D03*
X313690Y308610D03*
X288290Y308610D03*
X262890Y308610D03*
X237490Y308610D03*
X212090Y308610D03*
X186690Y308610D03*
X161290Y308610D03*
X161290Y80010D03*
X186690Y80010D03*
X212090Y80010D03*
X237490Y80010D03*
X262890Y80010D03*
X288290Y80010D03*
X313690Y80010D03*
X339090Y80010D03*
X364490Y80010D03*
X389890Y80010D03*
X415290Y80010D03*
X440690Y80010D03*
X466090Y80010D03*
X491490Y80010D03*
X516890Y80010D03*
X542290Y80010D03*
X567690Y80010D03*
D17*
X83820Y30480D03*
X109220Y30480D03*
X134620Y30480D03*
X160020Y30480D03*
X185420Y30480D03*
X210820Y30480D03*
X236220Y30480D03*
X261620Y30480D03*
X287020Y30480D03*
X83820Y359410D03*
X109220Y359410D03*
X134620Y359410D03*
X160020Y359410D03*
X185420Y359410D03*
X210820Y359410D03*
X236220Y359410D03*
X261620Y359410D03*
X287020Y359410D03*
D18*
X715010Y328930D03*
D19*
X708770Y328930D01*
D20*
X213360Y115570D03*
X213360Y135890D03*
X322580Y34290D03*
D18*
X205740Y250190D03*
X167640Y213360D03*
X234950Y214630D03*
X241300Y176530D03*
D20*
X546100Y266700D03*
X508000Y266700D03*
X469900Y266700D03*
X431800Y266700D03*
X431800Y228600D03*
X469900Y228600D03*
X508000Y228600D03*
X546100Y228600D03*
X431800Y190500D03*
X431800Y152400D03*
X469900Y152400D03*
X469900Y190500D03*
X508000Y190500D03*
X508000Y152400D03*
X546100Y152400D03*
X546100Y190500D03*
X469900Y114300D03*
X508000Y114300D03*
X546100Y114300D03*
X381000Y228600D03*
X381000Y190500D03*
X381000Y152400D03*
X330200Y266700D03*
X228600Y266700D03*
X139700Y266700D03*
X88900Y266700D03*
X25400Y266700D03*
X25400Y304800D03*
X88900Y304800D03*
X139700Y304800D03*
X88900Y228600D03*
X88900Y190500D03*
X139700Y190500D03*
X139700Y228600D03*
X88900Y114300D03*
X25400Y114300D03*
X25400Y63500D03*
X381000Y114300D03*
X304800Y114300D03*
X546100Y12700D03*
X596900Y12700D03*
X647700Y12700D03*
X495300Y12700D03*
X254000Y12700D03*
X203200Y12700D03*
X152400Y12700D03*
X101600Y12700D03*
X50800Y12700D03*
X698500Y266700D03*
X698500Y228600D03*
X698500Y190500D03*
X698500Y152400D03*
X698500Y114300D03*
X386080Y58420D03*
X361950Y58420D03*
X300990Y67310D03*
X181610Y146050D03*
D21*
X181610Y100330D02*
X161290Y80010D01*
X181610Y100330D02*
X181610Y124460D01*
D20*
X181610Y138430D03*
D21*
X181610Y146050D01*
D20*
X264160Y146050D03*
X264160Y138430D03*
D21*
X181610Y138430D02*
X181610Y124460D01*
X182880Y125730D01*
X259080Y125730D02*
X264160Y130810D01*
X264160Y146050D01*
X259080Y125730D02*
X182880Y125730D01*
D22*
X101600Y139700D02*
X95020Y139700D01*
X101600Y139700D02*
X180340Y139700D01*
X181610Y138430D01*
D23*
X134620Y44450D02*
X134620Y30480D01*
X161290Y71120D02*
X161290Y80010D01*
X161290Y71120D02*
X134620Y44450D01*
D18*
X101600Y139700D03*
X194310Y213360D03*
X203200Y177800D03*
D22*
X415290Y41910D02*
X415290Y31940D01*
X417830Y29400D01*
X449580Y29400D01*
X453390Y33210D01*
X453390Y86360D01*
X459740Y92710D01*
X542290Y87630D02*
X542290Y80010D01*
X542290Y87630D02*
X537210Y92710D01*
X459740Y92710D01*
X415290Y67310D02*
X440690Y41910D01*
X415290Y67310D02*
X415290Y80010D01*
X262890Y80010D02*
X262890Y68580D01*
X271780Y59690D01*
X320040Y59690D01*
X326438Y66088D01*
X334010Y97377D02*
X334010Y170180D01*
X326438Y89805D02*
X326438Y66088D01*
X326438Y89805D02*
X334010Y97377D01*
X344170Y180340D02*
X355600Y180340D01*
X344170Y180340D02*
X334010Y170180D01*
D23*
X325120Y109220D02*
X314960Y99060D01*
X325120Y109220D02*
X325120Y222250D01*
X334010Y231140D01*
X355600Y231140D01*
X212090Y90170D02*
X212090Y80010D01*
X220980Y99060D02*
X314960Y99060D01*
X220980Y99060D02*
X212090Y90170D01*
X160020Y44450D02*
X160020Y30480D01*
X173990Y58420D02*
X203200Y58420D01*
X212090Y67310D01*
X212090Y80010D01*
X173990Y58420D02*
X160020Y44450D01*
D18*
X685800Y328930D03*
X245110Y250190D03*
X262890Y214630D03*
D22*
X685800Y328930D02*
X690770Y328930D01*
X58420Y166370D02*
X58420Y141200D01*
X59920Y139700D01*
D20*
X58420Y181610D03*
D22*
X58420Y166370D01*
D18*
X53340Y138430D03*
D22*
X54610Y139700D02*
X59920Y139700D01*
X54610Y139700D02*
X53340Y138430D01*
X389890Y48260D02*
X389890Y41910D01*
X401320Y59690D02*
X401320Y111183D01*
X409130Y293560D02*
X415290Y299720D01*
X415290Y308610D01*
X401320Y59690D02*
X389890Y48260D01*
X401320Y111183D02*
X409130Y118993D01*
X409130Y293560D01*
X405130Y293370D02*
X389890Y308610D01*
X375920Y53340D02*
X364490Y41910D01*
X405130Y120650D02*
X405130Y293370D01*
X405130Y120650D02*
X375920Y91440D01*
X375920Y53340D01*
X466090Y41910D02*
X466090Y34290D01*
X457200Y25400D01*
X359410Y25400D01*
X351790Y33020D01*
X351790Y88900D01*
X360680Y97790D02*
X376613Y97790D01*
X401130Y122307D02*
X401130Y266890D01*
X382270Y285750D02*
X320040Y285750D01*
X313690Y292100D01*
X313690Y308610D01*
X360680Y97790D02*
X351790Y88900D01*
X376613Y97790D02*
X401130Y122307D01*
X401130Y266890D02*
X382270Y285750D01*
X313690Y321310D02*
X308610Y321310D01*
X313690Y321310D02*
X448310Y321310D01*
X466090Y339090D01*
X466090Y346710D01*
X275590Y321310D02*
X262890Y308610D01*
X275590Y321310D02*
X308610Y321310D01*
X440690Y331660D02*
X440690Y346710D01*
X440690Y331660D02*
X434340Y325310D01*
X249110Y325310D01*
X237490Y313690D01*
X237490Y308610D01*
D20*
X243840Y138430D03*
D21*
X243840Y153670D01*
X281940Y162560D02*
X298450Y179070D01*
X252730Y162560D02*
X243840Y153670D01*
X252730Y162560D02*
X281940Y162560D01*
D22*
X491490Y80010D02*
X502920Y68580D01*
X502920Y31750D01*
X488570Y17400D01*
X274700Y17400D02*
X261620Y30480D01*
X274700Y17400D02*
X488570Y17400D01*
X478790Y67310D02*
X466090Y80010D01*
X478790Y32084D02*
X468106Y21400D01*
X478790Y32084D02*
X478790Y67310D01*
X468106Y21400D02*
X298450Y21400D01*
X297370Y21400D01*
X296100Y21400D01*
X287020Y30480D01*
D24*
X424180Y331470D02*
X427990Y335280D01*
D20*
X427990Y335280D03*
D24*
X424180Y331470D02*
X297180Y331470D01*
X287020Y341630D01*
X287020Y359410D01*
D23*
X186690Y308610D02*
X185420Y309880D01*
X185420Y316230D01*
X172720Y328930D01*
X96520Y328930D01*
X83820Y341630D01*
X83820Y359410D01*
M02*
