G04 EAGLE Gerber RS-274X export*
G75*
%MOMM*%
%FSLAX34Y34*%
%LPD*%
%INTop Copper*%
%IPPOS*%
%AMOC8*
5,1,8,0,0,1.08239X$1,22.5*%
G01*
%ADD10C,0.130000*%
%ADD11C,0.152400*%
%ADD12C,1.778000*%
%ADD13C,1.900000*%
%ADD14R,2.550000X2.700000*%
%ADD15R,0.800000X1.200000*%
%ADD16C,1.508000*%
%ADD17R,1.400000X1.400000*%
%ADD18R,1.168400X1.600200*%
%ADD19C,1.676400*%
%ADD20C,1.879600*%
%ADD21C,1.056400*%
%ADD22C,0.706400*%
%ADD23C,0.254000*%
%ADD24C,0.812800*%
%ADD25C,0.406400*%
%ADD26C,0.200000*%
%ADD27C,0.609600*%
%ADD28C,1.016000*%
%ADD29C,0.508000*%

G36*
X702351Y3007D02*
X702351Y3007D01*
X702388Y3004D01*
X705736Y3267D01*
X705876Y3299D01*
X705966Y3313D01*
X712334Y5382D01*
X712336Y5383D01*
X712338Y5383D01*
X712370Y5399D01*
X712587Y5506D01*
X712600Y5517D01*
X712613Y5524D01*
X718029Y9460D01*
X718031Y9461D01*
X718033Y9462D01*
X718058Y9487D01*
X718232Y9656D01*
X718240Y9670D01*
X718250Y9681D01*
X722186Y15097D01*
X722187Y15099D01*
X722189Y15101D01*
X722205Y15132D01*
X722318Y15347D01*
X722321Y15363D01*
X722328Y15376D01*
X724397Y21744D01*
X724412Y21832D01*
X724412Y21833D01*
X724422Y21885D01*
X724443Y21974D01*
X724706Y25322D01*
X724704Y25363D01*
X724709Y25400D01*
X724709Y355600D01*
X724703Y355642D01*
X724706Y355678D01*
X724443Y359026D01*
X724411Y359166D01*
X724397Y359256D01*
X722328Y365624D01*
X722327Y365626D01*
X722327Y365628D01*
X722311Y365660D01*
X722204Y365877D01*
X722193Y365890D01*
X722186Y365903D01*
X718250Y371319D01*
X718249Y371321D01*
X718248Y371323D01*
X718229Y371342D01*
X718215Y371364D01*
X718149Y371424D01*
X718054Y371522D01*
X718040Y371530D01*
X718029Y371540D01*
X712613Y375476D01*
X712611Y375477D01*
X712609Y375479D01*
X712578Y375495D01*
X712363Y375608D01*
X712347Y375611D01*
X712334Y375618D01*
X705966Y377687D01*
X705825Y377712D01*
X705736Y377733D01*
X702388Y377996D01*
X702347Y377994D01*
X702310Y377999D01*
X663576Y377999D01*
X663490Y377987D01*
X663404Y377984D01*
X663351Y377967D01*
X663297Y377959D01*
X663218Y377924D01*
X663136Y377897D01*
X663090Y377866D01*
X663040Y377843D01*
X662974Y377787D01*
X662902Y377738D01*
X662868Y377695D01*
X662826Y377660D01*
X662778Y377587D01*
X662723Y377520D01*
X662702Y377470D01*
X662671Y377424D01*
X662646Y377341D01*
X662612Y377261D01*
X662605Y377207D01*
X662589Y377154D01*
X662588Y377067D01*
X662577Y376981D01*
X662586Y376927D01*
X662585Y376872D01*
X662608Y376788D01*
X662622Y376703D01*
X662646Y376653D01*
X662660Y376600D01*
X662706Y376526D01*
X662743Y376448D01*
X662780Y376407D01*
X662809Y376360D01*
X662873Y376302D01*
X662931Y376237D01*
X662974Y376211D01*
X663018Y376171D01*
X663120Y376122D01*
X663194Y376077D01*
X664411Y375573D01*
X675293Y364691D01*
X676371Y362088D01*
X676371Y335994D01*
X676380Y335930D01*
X676379Y335866D01*
X676400Y335791D01*
X676411Y335715D01*
X676437Y335656D01*
X676454Y335594D01*
X676495Y335528D01*
X676527Y335458D01*
X676569Y335409D01*
X676602Y335354D01*
X676660Y335302D01*
X676710Y335244D01*
X676764Y335208D01*
X676812Y335165D01*
X676881Y335132D01*
X676946Y335089D01*
X677008Y335070D01*
X677065Y335042D01*
X677135Y335031D01*
X677216Y335007D01*
X677301Y335006D01*
X677370Y334995D01*
X681212Y334995D01*
X681253Y335001D01*
X681295Y334998D01*
X681379Y335018D01*
X681491Y335035D01*
X681545Y335059D01*
X681594Y335071D01*
X684351Y336213D01*
X687249Y336213D01*
X689925Y335104D01*
X691974Y333055D01*
X693083Y330379D01*
X693083Y327481D01*
X691974Y324805D01*
X689925Y322756D01*
X687249Y321647D01*
X684351Y321647D01*
X681594Y322789D01*
X681554Y322800D01*
X681517Y322818D01*
X681431Y322831D01*
X681321Y322859D01*
X681263Y322857D01*
X681212Y322865D01*
X677370Y322865D01*
X677306Y322856D01*
X677242Y322857D01*
X677167Y322836D01*
X677091Y322825D01*
X677032Y322799D01*
X676970Y322782D01*
X676904Y322741D01*
X676834Y322709D01*
X676785Y322667D01*
X676730Y322634D01*
X676678Y322576D01*
X676620Y322526D01*
X676584Y322472D01*
X676541Y322424D01*
X676508Y322355D01*
X676465Y322290D01*
X676446Y322228D01*
X676418Y322171D01*
X676407Y322101D01*
X676383Y322020D01*
X676382Y321935D01*
X676371Y321866D01*
X676371Y312282D01*
X675293Y309679D01*
X651489Y285875D01*
X648886Y284797D01*
X489532Y284797D01*
X489437Y284784D01*
X489341Y284779D01*
X489297Y284764D01*
X489253Y284757D01*
X489165Y284718D01*
X489074Y284686D01*
X489040Y284661D01*
X488996Y284641D01*
X488898Y284558D01*
X488825Y284505D01*
X481878Y277557D01*
X479275Y276479D01*
X391047Y276479D01*
X390952Y276466D01*
X390856Y276461D01*
X390813Y276446D01*
X390768Y276439D01*
X390680Y276400D01*
X390589Y276368D01*
X390555Y276343D01*
X390511Y276323D01*
X390413Y276240D01*
X390340Y276187D01*
X362973Y248820D01*
X362916Y248743D01*
X362851Y248672D01*
X362831Y248631D01*
X362804Y248594D01*
X362770Y248504D01*
X362728Y248418D01*
X362722Y248376D01*
X362705Y248330D01*
X362695Y248203D01*
X362681Y248113D01*
X362681Y237966D01*
X362694Y237871D01*
X362699Y237775D01*
X362714Y237732D01*
X362721Y237687D01*
X362760Y237599D01*
X362792Y237508D01*
X362817Y237474D01*
X362837Y237430D01*
X362920Y237332D01*
X362973Y237259D01*
X363688Y236544D01*
X365141Y233038D01*
X365141Y229242D01*
X363688Y225736D01*
X361004Y223052D01*
X357498Y221599D01*
X353702Y221599D01*
X350196Y223052D01*
X347512Y225736D01*
X346059Y229242D01*
X346059Y233038D01*
X347512Y236544D01*
X348227Y237259D01*
X348284Y237336D01*
X348349Y237407D01*
X348369Y237448D01*
X348396Y237485D01*
X348430Y237575D01*
X348472Y237661D01*
X348478Y237703D01*
X348495Y237749D01*
X348505Y237876D01*
X348519Y237966D01*
X348519Y242110D01*
X348510Y242174D01*
X348511Y242238D01*
X348490Y242313D01*
X348479Y242389D01*
X348453Y242448D01*
X348436Y242510D01*
X348395Y242576D01*
X348363Y242646D01*
X348321Y242695D01*
X348288Y242750D01*
X348230Y242802D01*
X348180Y242860D01*
X348126Y242896D01*
X348078Y242939D01*
X348009Y242972D01*
X347944Y243015D01*
X347882Y243034D01*
X347825Y243062D01*
X347755Y243073D01*
X347674Y243097D01*
X347589Y243098D01*
X347520Y243109D01*
X301564Y243109D01*
X301478Y243097D01*
X301391Y243094D01*
X301339Y243077D01*
X301285Y243069D01*
X301206Y243034D01*
X301123Y243007D01*
X301078Y242976D01*
X301028Y242953D01*
X300962Y242897D01*
X300890Y242848D01*
X300855Y242806D01*
X300814Y242770D01*
X300766Y242697D01*
X300711Y242630D01*
X300689Y242580D01*
X300659Y242534D01*
X300634Y242451D01*
X300599Y242371D01*
X300593Y242317D01*
X300577Y242264D01*
X300576Y242177D01*
X300565Y242091D01*
X300574Y242037D01*
X300573Y241982D01*
X300596Y241898D01*
X300610Y241813D01*
X300633Y241763D01*
X300648Y241710D01*
X300694Y241636D01*
X300731Y241558D01*
X300767Y241517D01*
X300796Y241470D01*
X300861Y241412D01*
X300918Y241347D01*
X300962Y241321D01*
X301006Y241281D01*
X301108Y241232D01*
X301182Y241187D01*
X304965Y239620D01*
X308200Y236385D01*
X309400Y233488D01*
X309405Y233479D01*
X309407Y233470D01*
X309477Y233358D01*
X309543Y233245D01*
X309550Y233238D01*
X309555Y233230D01*
X309653Y233142D01*
X309749Y233052D01*
X309758Y233048D01*
X309765Y233041D01*
X309883Y232984D01*
X310001Y232924D01*
X310010Y232922D01*
X310018Y232918D01*
X310094Y232906D01*
X310278Y232872D01*
X310302Y232874D01*
X310323Y232871D01*
X322553Y232871D01*
X344631Y210793D01*
X344631Y209213D01*
X344643Y209127D01*
X344646Y209040D01*
X344663Y208988D01*
X344671Y208933D01*
X344706Y208854D01*
X344733Y208772D01*
X344764Y208726D01*
X344787Y208676D01*
X344843Y208610D01*
X344892Y208539D01*
X344934Y208504D01*
X344970Y208462D01*
X345043Y208414D01*
X345110Y208359D01*
X345160Y208338D01*
X345206Y208308D01*
X345289Y208282D01*
X345369Y208248D01*
X345423Y208241D01*
X345476Y208225D01*
X345563Y208224D01*
X345649Y208213D01*
X345703Y208222D01*
X345758Y208221D01*
X345842Y208245D01*
X345927Y208258D01*
X345977Y208282D01*
X346030Y208297D01*
X346104Y208342D01*
X346182Y208380D01*
X346223Y208416D01*
X346270Y208445D01*
X346328Y208509D01*
X346393Y208567D01*
X346419Y208610D01*
X346459Y208654D01*
X346508Y208756D01*
X346553Y208830D01*
X347512Y211144D01*
X350196Y213828D01*
X353702Y215281D01*
X357498Y215281D01*
X361004Y213828D01*
X363688Y211144D01*
X365141Y207638D01*
X365141Y203842D01*
X363688Y200336D01*
X361004Y197652D01*
X357498Y196199D01*
X353702Y196199D01*
X350196Y197652D01*
X347512Y200336D01*
X346553Y202650D01*
X346509Y202725D01*
X346473Y202804D01*
X346438Y202845D01*
X346410Y202893D01*
X346346Y202952D01*
X346290Y203018D01*
X346244Y203048D01*
X346204Y203086D01*
X346127Y203125D01*
X346054Y203172D01*
X346001Y203188D01*
X345952Y203213D01*
X345867Y203229D01*
X345784Y203255D01*
X345729Y203255D01*
X345675Y203266D01*
X345589Y203257D01*
X345502Y203259D01*
X345449Y203244D01*
X345395Y203239D01*
X345314Y203206D01*
X345230Y203183D01*
X345183Y203154D01*
X345133Y203134D01*
X345064Y203081D01*
X344990Y203035D01*
X344953Y202994D01*
X344910Y202961D01*
X344860Y202890D01*
X344801Y202826D01*
X344777Y202776D01*
X344745Y202732D01*
X344716Y202650D01*
X344678Y202572D01*
X344670Y202522D01*
X344651Y202466D01*
X344644Y202353D01*
X344631Y202267D01*
X344631Y183813D01*
X344639Y183753D01*
X344639Y183737D01*
X344643Y183722D01*
X344646Y183640D01*
X344663Y183588D01*
X344671Y183533D01*
X344706Y183454D01*
X344733Y183372D01*
X344764Y183326D01*
X344787Y183276D01*
X344843Y183210D01*
X344892Y183139D01*
X344934Y183104D01*
X344970Y183062D01*
X345043Y183014D01*
X345110Y182959D01*
X345160Y182938D01*
X345206Y182908D01*
X345289Y182882D01*
X345369Y182848D01*
X345423Y182841D01*
X345476Y182825D01*
X345563Y182824D01*
X345649Y182813D01*
X345703Y182822D01*
X345758Y182821D01*
X345842Y182845D01*
X345927Y182858D01*
X345977Y182882D01*
X346030Y182897D01*
X346104Y182942D01*
X346182Y182980D01*
X346223Y183016D01*
X346270Y183045D01*
X346328Y183109D01*
X346393Y183167D01*
X346419Y183210D01*
X346459Y183254D01*
X346508Y183356D01*
X346553Y183430D01*
X347512Y185744D01*
X350196Y188428D01*
X353702Y189881D01*
X357498Y189881D01*
X361004Y188428D01*
X363688Y185744D01*
X365141Y182238D01*
X365141Y178442D01*
X363688Y174936D01*
X361004Y172252D01*
X357498Y170799D01*
X353702Y170799D01*
X350196Y172252D01*
X347512Y174936D01*
X346553Y177250D01*
X346509Y177325D01*
X346473Y177404D01*
X346438Y177445D01*
X346410Y177493D01*
X346346Y177552D01*
X346290Y177618D01*
X346244Y177648D01*
X346204Y177686D01*
X346127Y177725D01*
X346054Y177772D01*
X346001Y177788D01*
X345952Y177813D01*
X345867Y177829D01*
X345784Y177855D01*
X345729Y177855D01*
X345675Y177866D01*
X345589Y177857D01*
X345502Y177859D01*
X345449Y177844D01*
X345395Y177839D01*
X345314Y177806D01*
X345230Y177783D01*
X345183Y177754D01*
X345133Y177734D01*
X345064Y177681D01*
X344990Y177635D01*
X344953Y177594D01*
X344910Y177561D01*
X344860Y177490D01*
X344801Y177426D01*
X344777Y177376D01*
X344745Y177332D01*
X344716Y177250D01*
X344678Y177172D01*
X344670Y177122D01*
X344651Y177066D01*
X344644Y176953D01*
X344631Y176867D01*
X344631Y159778D01*
X344637Y159731D01*
X344635Y159684D01*
X344657Y159592D01*
X344671Y159499D01*
X344690Y159456D01*
X344701Y159409D01*
X344748Y159328D01*
X344787Y159242D01*
X344818Y159206D01*
X344842Y159165D01*
X344909Y159099D01*
X344970Y159028D01*
X345010Y159002D01*
X345044Y158969D01*
X345127Y158925D01*
X345206Y158874D01*
X345252Y158860D01*
X345294Y158837D01*
X345386Y158819D01*
X345476Y158791D01*
X345524Y158791D01*
X345570Y158781D01*
X345664Y158789D01*
X345758Y158787D01*
X345804Y158800D01*
X345851Y158804D01*
X345939Y158838D01*
X346030Y158863D01*
X346070Y158888D01*
X346115Y158905D01*
X346190Y158961D01*
X346270Y159011D01*
X346302Y159046D01*
X346340Y159075D01*
X346388Y159142D01*
X346459Y159220D01*
X346487Y159279D01*
X346520Y159325D01*
X346978Y160224D01*
X347911Y161507D01*
X349033Y162629D01*
X350316Y163562D01*
X351730Y164282D01*
X353239Y164773D01*
X353601Y164830D01*
X353601Y155940D01*
X353610Y155877D01*
X353609Y155812D01*
X353630Y155738D01*
X353641Y155661D01*
X353667Y155602D01*
X353684Y155540D01*
X353725Y155474D01*
X353757Y155404D01*
X353799Y155355D01*
X353832Y155300D01*
X353890Y155249D01*
X353940Y155190D01*
X353994Y155154D01*
X354042Y155111D01*
X354111Y155078D01*
X354176Y155035D01*
X354238Y155016D01*
X354295Y154988D01*
X354365Y154978D01*
X354446Y154953D01*
X354531Y154952D01*
X354600Y154941D01*
X355601Y154941D01*
X355601Y154939D01*
X354600Y154939D01*
X354536Y154930D01*
X354472Y154931D01*
X354397Y154910D01*
X354321Y154899D01*
X354262Y154873D01*
X354200Y154856D01*
X354134Y154815D01*
X354064Y154783D01*
X354015Y154741D01*
X353960Y154708D01*
X353908Y154650D01*
X353850Y154600D01*
X353814Y154546D01*
X353771Y154498D01*
X353738Y154429D01*
X353695Y154364D01*
X353676Y154302D01*
X353648Y154244D01*
X353637Y154175D01*
X353613Y154094D01*
X353612Y154009D01*
X353601Y153940D01*
X353601Y145050D01*
X353239Y145107D01*
X351730Y145598D01*
X350316Y146318D01*
X349033Y147251D01*
X347911Y148373D01*
X346978Y149657D01*
X346520Y150555D01*
X346493Y150594D01*
X346473Y150638D01*
X346412Y150709D01*
X346358Y150786D01*
X346321Y150816D01*
X346290Y150852D01*
X346211Y150904D01*
X346138Y150962D01*
X346094Y150980D01*
X346054Y151006D01*
X345964Y151034D01*
X345877Y151070D01*
X345830Y151075D01*
X345784Y151089D01*
X345690Y151090D01*
X345597Y151100D01*
X345550Y151092D01*
X345502Y151093D01*
X345411Y151068D01*
X345319Y151051D01*
X345276Y151030D01*
X345230Y151017D01*
X345150Y150968D01*
X345066Y150927D01*
X345031Y150894D01*
X344990Y150869D01*
X344927Y150799D01*
X344858Y150736D01*
X344833Y150695D01*
X344801Y150660D01*
X344760Y150575D01*
X344712Y150495D01*
X344699Y150449D01*
X344678Y150406D01*
X344666Y150325D01*
X344638Y150223D01*
X344639Y150157D01*
X344631Y150102D01*
X344631Y146437D01*
X344644Y146342D01*
X344649Y146246D01*
X344664Y146203D01*
X344671Y146158D01*
X344710Y146070D01*
X344742Y145979D01*
X344767Y145945D01*
X344787Y145901D01*
X344870Y145803D01*
X344923Y145730D01*
X355280Y135373D01*
X355357Y135316D01*
X355428Y135251D01*
X355469Y135231D01*
X355506Y135204D01*
X355596Y135170D01*
X355682Y135128D01*
X355724Y135122D01*
X355770Y135105D01*
X355897Y135095D01*
X355987Y135081D01*
X426693Y135081D01*
X443691Y118083D01*
X443691Y90673D01*
X443692Y90664D01*
X443691Y90654D01*
X443712Y90524D01*
X443731Y90394D01*
X443734Y90385D01*
X443736Y90376D01*
X443793Y90256D01*
X443847Y90137D01*
X443853Y90130D01*
X443857Y90121D01*
X443945Y90022D01*
X444030Y89922D01*
X444038Y89917D01*
X444044Y89910D01*
X444110Y89870D01*
X444266Y89768D01*
X444289Y89761D01*
X444308Y89750D01*
X446571Y88812D01*
X449492Y85891D01*
X451073Y82075D01*
X451073Y77945D01*
X449492Y74129D01*
X446571Y71208D01*
X442755Y69627D01*
X438625Y69627D01*
X434809Y71208D01*
X433967Y72050D01*
X433941Y72069D01*
X433920Y72094D01*
X433828Y72154D01*
X433741Y72219D01*
X433711Y72231D01*
X433684Y72248D01*
X433579Y72280D01*
X433477Y72319D01*
X433445Y72321D01*
X433414Y72331D01*
X433305Y72332D01*
X433196Y72341D01*
X433164Y72334D01*
X433132Y72335D01*
X433027Y72305D01*
X432920Y72283D01*
X432891Y72268D01*
X432860Y72259D01*
X432767Y72202D01*
X432671Y72151D01*
X432648Y72128D01*
X432620Y72111D01*
X432547Y72030D01*
X432469Y71954D01*
X432453Y71926D01*
X432431Y71902D01*
X432384Y71804D01*
X432330Y71708D01*
X432322Y71677D01*
X432308Y71648D01*
X432294Y71559D01*
X432265Y71434D01*
X432267Y71386D01*
X432261Y71343D01*
X432261Y69157D01*
X432274Y69062D01*
X432279Y68966D01*
X432294Y68923D01*
X432301Y68878D01*
X432340Y68790D01*
X432372Y68699D01*
X432397Y68665D01*
X432417Y68621D01*
X432500Y68523D01*
X432553Y68450D01*
X435290Y65713D01*
X435367Y65656D01*
X435438Y65591D01*
X435479Y65571D01*
X435516Y65544D01*
X435606Y65510D01*
X435692Y65468D01*
X435734Y65462D01*
X435780Y65445D01*
X435907Y65435D01*
X435997Y65421D01*
X505073Y65421D01*
X505168Y65434D01*
X505264Y65439D01*
X505307Y65454D01*
X505352Y65461D01*
X505440Y65500D01*
X505531Y65532D01*
X505565Y65557D01*
X505609Y65577D01*
X505707Y65660D01*
X505780Y65713D01*
X510435Y70369D01*
X510474Y70420D01*
X510520Y70465D01*
X510558Y70532D01*
X510604Y70594D01*
X510627Y70654D01*
X510659Y70710D01*
X510676Y70786D01*
X510704Y70858D01*
X510709Y70922D01*
X510723Y70985D01*
X510720Y71062D01*
X510726Y71139D01*
X510712Y71202D01*
X510709Y71266D01*
X510684Y71339D01*
X510668Y71415D01*
X510638Y71472D01*
X510617Y71533D01*
X510575Y71589D01*
X510535Y71664D01*
X510476Y71725D01*
X510435Y71782D01*
X508088Y74129D01*
X506507Y77945D01*
X506507Y82075D01*
X508088Y85891D01*
X511009Y88812D01*
X514825Y90393D01*
X518955Y90393D01*
X522771Y88812D01*
X525692Y85891D01*
X527273Y82075D01*
X527273Y77945D01*
X525692Y74129D01*
X522771Y71208D01*
X518955Y69627D01*
X518595Y69627D01*
X518500Y69614D01*
X518404Y69609D01*
X518361Y69594D01*
X518316Y69587D01*
X518228Y69548D01*
X518137Y69516D01*
X518103Y69491D01*
X518059Y69471D01*
X517961Y69388D01*
X517888Y69335D01*
X511585Y63032D01*
X511547Y62980D01*
X511501Y62935D01*
X511462Y62868D01*
X511416Y62806D01*
X511393Y62746D01*
X511362Y62690D01*
X511344Y62615D01*
X511316Y62542D01*
X511311Y62478D01*
X511297Y62416D01*
X511301Y62338D01*
X511295Y62261D01*
X511308Y62198D01*
X511311Y62134D01*
X511336Y62061D01*
X511352Y61985D01*
X511382Y61928D01*
X511404Y61867D01*
X511445Y61811D01*
X511485Y61736D01*
X511544Y61675D01*
X511585Y61618D01*
X519891Y53313D01*
X519891Y51662D01*
X519892Y51652D01*
X519891Y51643D01*
X519912Y51513D01*
X519931Y51382D01*
X519934Y51374D01*
X519936Y51364D01*
X519993Y51245D01*
X520047Y51125D01*
X520053Y51118D01*
X520057Y51110D01*
X520145Y51011D01*
X520230Y50911D01*
X520238Y50906D01*
X520244Y50899D01*
X520310Y50859D01*
X520466Y50757D01*
X520489Y50750D01*
X520508Y50738D01*
X522294Y49998D01*
X524978Y47314D01*
X526431Y43808D01*
X526431Y40012D01*
X524978Y36506D01*
X522294Y33822D01*
X518788Y32369D01*
X514992Y32369D01*
X511486Y33822D01*
X508802Y36506D01*
X507349Y40012D01*
X507349Y43808D01*
X508802Y47314D01*
X511486Y49998D01*
X512390Y50373D01*
X512492Y50433D01*
X512596Y50489D01*
X512613Y50505D01*
X512632Y50516D01*
X512713Y50603D01*
X512798Y50686D01*
X512810Y50705D01*
X512825Y50722D01*
X512879Y50828D01*
X512937Y50931D01*
X512943Y50953D01*
X512953Y50973D01*
X512975Y51090D01*
X513002Y51205D01*
X513001Y51228D01*
X513005Y51251D01*
X512994Y51368D01*
X512988Y51487D01*
X512981Y51509D01*
X512978Y51531D01*
X512935Y51641D01*
X512896Y51753D01*
X512883Y51771D01*
X512874Y51793D01*
X512759Y51940D01*
X512714Y52002D01*
X509590Y55127D01*
X509513Y55184D01*
X509442Y55249D01*
X509401Y55269D01*
X509364Y55296D01*
X509274Y55330D01*
X509188Y55372D01*
X509146Y55378D01*
X509100Y55395D01*
X508973Y55405D01*
X508883Y55419D01*
X492067Y55419D01*
X492035Y55415D01*
X492003Y55417D01*
X491896Y55395D01*
X491788Y55379D01*
X491758Y55366D01*
X491727Y55360D01*
X491630Y55308D01*
X491531Y55263D01*
X491506Y55242D01*
X491478Y55227D01*
X491399Y55151D01*
X491316Y55080D01*
X491299Y55053D01*
X491276Y55030D01*
X491222Y54935D01*
X491162Y54844D01*
X491152Y54813D01*
X491137Y54785D01*
X491111Y54678D01*
X491080Y54574D01*
X491079Y54542D01*
X491072Y54511D01*
X491077Y54401D01*
X491076Y54292D01*
X491084Y54261D01*
X491086Y54229D01*
X491122Y54126D01*
X491151Y54020D01*
X491168Y53993D01*
X491178Y53962D01*
X491232Y53889D01*
X491299Y53780D01*
X491335Y53748D01*
X491360Y53713D01*
X492440Y52633D01*
X493649Y51425D01*
X493682Y51400D01*
X493710Y51369D01*
X493783Y51324D01*
X493874Y51256D01*
X493929Y51235D01*
X493973Y51208D01*
X496894Y49998D01*
X499578Y47314D01*
X501031Y43808D01*
X501031Y40012D01*
X499578Y36506D01*
X496894Y33822D01*
X493388Y32369D01*
X489592Y32369D01*
X486086Y33822D01*
X483402Y36506D01*
X481949Y40012D01*
X481949Y43808D01*
X483402Y47314D01*
X485630Y49543D01*
X485669Y49594D01*
X485715Y49639D01*
X485753Y49707D01*
X485800Y49768D01*
X485822Y49829D01*
X485854Y49885D01*
X485872Y49960D01*
X485899Y50032D01*
X485904Y50096D01*
X485919Y50159D01*
X485915Y50236D01*
X485921Y50314D01*
X485908Y50376D01*
X485905Y50441D01*
X485879Y50514D01*
X485863Y50590D01*
X485833Y50646D01*
X485812Y50707D01*
X485771Y50764D01*
X485731Y50839D01*
X485672Y50899D01*
X485630Y50956D01*
X485460Y51127D01*
X485383Y51184D01*
X485312Y51249D01*
X485271Y51269D01*
X485234Y51296D01*
X485144Y51330D01*
X485058Y51372D01*
X485016Y51378D01*
X484970Y51395D01*
X484843Y51405D01*
X484753Y51419D01*
X472486Y51419D01*
X472454Y51415D01*
X472422Y51417D01*
X472315Y51395D01*
X472207Y51379D01*
X472177Y51366D01*
X472146Y51360D01*
X472049Y51308D01*
X471950Y51263D01*
X471925Y51242D01*
X471897Y51227D01*
X471818Y51151D01*
X471735Y51080D01*
X471718Y51053D01*
X471695Y51030D01*
X471641Y50935D01*
X471581Y50844D01*
X471571Y50813D01*
X471556Y50785D01*
X471530Y50679D01*
X471498Y50574D01*
X471498Y50542D01*
X471491Y50511D01*
X471496Y50401D01*
X471495Y50292D01*
X471503Y50261D01*
X471505Y50229D01*
X471541Y50126D01*
X471570Y50020D01*
X471587Y49993D01*
X471597Y49962D01*
X471651Y49889D01*
X471718Y49780D01*
X471754Y49748D01*
X471779Y49713D01*
X474178Y47314D01*
X475631Y43808D01*
X475631Y40012D01*
X474178Y36506D01*
X471494Y33822D01*
X467988Y32369D01*
X464192Y32369D01*
X460686Y33822D01*
X458002Y36506D01*
X456549Y40012D01*
X456549Y43808D01*
X458002Y47314D01*
X460401Y49713D01*
X460420Y49739D01*
X460445Y49760D01*
X460505Y49852D01*
X460570Y49939D01*
X460581Y49969D01*
X460599Y49996D01*
X460631Y50101D01*
X460670Y50203D01*
X460672Y50235D01*
X460682Y50266D01*
X460683Y50375D01*
X460691Y50484D01*
X460685Y50516D01*
X460685Y50548D01*
X460656Y50653D01*
X460634Y50760D01*
X460619Y50789D01*
X460610Y50820D01*
X460553Y50913D01*
X460501Y51009D01*
X460479Y51032D01*
X460462Y51060D01*
X460381Y51133D01*
X460305Y51211D01*
X460277Y51227D01*
X460253Y51249D01*
X460154Y51296D01*
X460059Y51350D01*
X460028Y51358D01*
X459999Y51372D01*
X459910Y51386D01*
X459785Y51415D01*
X459736Y51413D01*
X459694Y51419D01*
X447086Y51419D01*
X447054Y51415D01*
X447022Y51417D01*
X446915Y51395D01*
X446807Y51379D01*
X446777Y51366D01*
X446746Y51360D01*
X446649Y51308D01*
X446550Y51263D01*
X446525Y51242D01*
X446497Y51227D01*
X446418Y51151D01*
X446335Y51080D01*
X446318Y51053D01*
X446295Y51030D01*
X446241Y50935D01*
X446181Y50844D01*
X446171Y50813D01*
X446156Y50785D01*
X446130Y50679D01*
X446098Y50574D01*
X446098Y50542D01*
X446091Y50511D01*
X446096Y50401D01*
X446095Y50292D01*
X446103Y50261D01*
X446105Y50229D01*
X446141Y50126D01*
X446170Y50020D01*
X446187Y49993D01*
X446197Y49962D01*
X446251Y49889D01*
X446318Y49780D01*
X446354Y49748D01*
X446379Y49713D01*
X448778Y47314D01*
X450231Y43808D01*
X450231Y40012D01*
X448778Y36506D01*
X446094Y33822D01*
X442588Y32369D01*
X438792Y32369D01*
X435286Y33822D01*
X432602Y36506D01*
X431149Y40012D01*
X431149Y43808D01*
X432602Y47314D01*
X435001Y49713D01*
X435020Y49739D01*
X435045Y49760D01*
X435105Y49852D01*
X435170Y49939D01*
X435181Y49969D01*
X435199Y49996D01*
X435231Y50101D01*
X435270Y50203D01*
X435272Y50235D01*
X435282Y50266D01*
X435283Y50375D01*
X435291Y50484D01*
X435285Y50516D01*
X435285Y50548D01*
X435256Y50653D01*
X435234Y50760D01*
X435219Y50789D01*
X435210Y50820D01*
X435153Y50913D01*
X435101Y51009D01*
X435079Y51032D01*
X435062Y51060D01*
X434981Y51133D01*
X434905Y51211D01*
X434877Y51227D01*
X434853Y51249D01*
X434754Y51296D01*
X434659Y51350D01*
X434628Y51358D01*
X434599Y51372D01*
X434510Y51386D01*
X434385Y51415D01*
X434336Y51413D01*
X434294Y51419D01*
X421686Y51419D01*
X421654Y51415D01*
X421622Y51417D01*
X421515Y51395D01*
X421407Y51379D01*
X421377Y51366D01*
X421346Y51360D01*
X421249Y51308D01*
X421150Y51263D01*
X421125Y51242D01*
X421097Y51227D01*
X421018Y51151D01*
X420935Y51080D01*
X420918Y51053D01*
X420895Y51030D01*
X420841Y50935D01*
X420781Y50844D01*
X420771Y50813D01*
X420756Y50785D01*
X420730Y50679D01*
X420698Y50574D01*
X420698Y50542D01*
X420691Y50511D01*
X420696Y50401D01*
X420695Y50292D01*
X420703Y50261D01*
X420705Y50229D01*
X420741Y50126D01*
X420770Y50020D01*
X420787Y49993D01*
X420797Y49962D01*
X420851Y49889D01*
X420918Y49780D01*
X420954Y49748D01*
X420979Y49713D01*
X423378Y47314D01*
X424831Y43808D01*
X424831Y40012D01*
X423378Y36506D01*
X420694Y33822D01*
X417188Y32369D01*
X413392Y32369D01*
X409886Y33822D01*
X407202Y36506D01*
X405749Y40012D01*
X405749Y43808D01*
X407202Y47314D01*
X409601Y49713D01*
X409620Y49739D01*
X409645Y49760D01*
X409705Y49852D01*
X409770Y49939D01*
X409781Y49969D01*
X409799Y49996D01*
X409831Y50101D01*
X409870Y50203D01*
X409872Y50235D01*
X409882Y50266D01*
X409883Y50375D01*
X409891Y50484D01*
X409885Y50516D01*
X409885Y50548D01*
X409856Y50653D01*
X409834Y50760D01*
X409819Y50789D01*
X409810Y50820D01*
X409753Y50913D01*
X409701Y51009D01*
X409679Y51032D01*
X409662Y51060D01*
X409581Y51133D01*
X409505Y51211D01*
X409477Y51227D01*
X409453Y51249D01*
X409354Y51296D01*
X409259Y51350D01*
X409228Y51358D01*
X409199Y51372D01*
X409110Y51386D01*
X408985Y51415D01*
X408936Y51413D01*
X408894Y51419D01*
X407310Y51419D01*
X393443Y65287D01*
X393366Y65344D01*
X393295Y65409D01*
X393254Y65429D01*
X393217Y65456D01*
X393127Y65490D01*
X393041Y65532D01*
X392999Y65538D01*
X392953Y65555D01*
X392826Y65565D01*
X392736Y65579D01*
X374677Y65579D01*
X369908Y70348D01*
X369900Y70354D01*
X369895Y70362D01*
X369788Y70438D01*
X369682Y70518D01*
X369673Y70521D01*
X369666Y70527D01*
X369542Y70570D01*
X369419Y70617D01*
X369409Y70618D01*
X369400Y70621D01*
X369269Y70629D01*
X369137Y70639D01*
X369128Y70637D01*
X369119Y70638D01*
X369043Y70619D01*
X368861Y70581D01*
X368840Y70570D01*
X368819Y70565D01*
X366555Y69627D01*
X362425Y69627D01*
X358609Y71208D01*
X355688Y74129D01*
X354107Y77945D01*
X354107Y82075D01*
X355688Y85891D01*
X358609Y88812D01*
X362425Y90393D01*
X366555Y90393D01*
X370371Y88812D01*
X373292Y85891D01*
X374873Y82075D01*
X374873Y77945D01*
X373935Y75681D01*
X373933Y75672D01*
X373928Y75664D01*
X373898Y75535D01*
X373865Y75408D01*
X373865Y75398D01*
X373863Y75389D01*
X373870Y75257D01*
X373874Y75126D01*
X373877Y75117D01*
X373877Y75107D01*
X373920Y74984D01*
X373961Y74858D01*
X373967Y74850D01*
X373970Y74841D01*
X374015Y74779D01*
X374120Y74625D01*
X374139Y74609D01*
X374152Y74592D01*
X376870Y71873D01*
X376947Y71816D01*
X377018Y71751D01*
X377059Y71731D01*
X377096Y71704D01*
X377186Y71670D01*
X377272Y71628D01*
X377314Y71622D01*
X377360Y71605D01*
X377487Y71595D01*
X377577Y71581D01*
X381223Y71581D01*
X381255Y71585D01*
X381288Y71583D01*
X381395Y71605D01*
X381503Y71621D01*
X381532Y71634D01*
X381564Y71640D01*
X381660Y71692D01*
X381760Y71737D01*
X381784Y71758D01*
X381813Y71773D01*
X381891Y71849D01*
X381974Y71920D01*
X381992Y71947D01*
X382015Y71970D01*
X382068Y72065D01*
X382128Y72156D01*
X382138Y72187D01*
X382154Y72215D01*
X382179Y72321D01*
X382211Y72426D01*
X382211Y72458D01*
X382219Y72489D01*
X382213Y72599D01*
X382215Y72708D01*
X382206Y72739D01*
X382204Y72771D01*
X382169Y72874D01*
X382139Y72980D01*
X382122Y73007D01*
X382112Y73038D01*
X382058Y73111D01*
X381991Y73220D01*
X381955Y73252D01*
X381930Y73287D01*
X381088Y74129D01*
X379507Y77945D01*
X379507Y82075D01*
X381088Y85891D01*
X384009Y88812D01*
X387825Y90393D01*
X391955Y90393D01*
X395771Y88812D01*
X398692Y85891D01*
X400273Y82075D01*
X400273Y77945D01*
X398963Y74783D01*
X398961Y74774D01*
X398956Y74766D01*
X398926Y74637D01*
X398893Y74510D01*
X398893Y74500D01*
X398891Y74491D01*
X398898Y74358D01*
X398902Y74228D01*
X398905Y74219D01*
X398905Y74209D01*
X398949Y74085D01*
X398989Y73960D01*
X398995Y73952D01*
X398998Y73943D01*
X399043Y73881D01*
X399148Y73727D01*
X399167Y73711D01*
X399180Y73694D01*
X411160Y61713D01*
X411237Y61656D01*
X411308Y61591D01*
X411349Y61571D01*
X411386Y61544D01*
X411476Y61510D01*
X411562Y61468D01*
X411604Y61462D01*
X411650Y61445D01*
X411777Y61435D01*
X411867Y61421D01*
X428683Y61421D01*
X428715Y61425D01*
X428747Y61423D01*
X428854Y61445D01*
X428962Y61461D01*
X428992Y61474D01*
X429023Y61480D01*
X429120Y61532D01*
X429219Y61577D01*
X429244Y61598D01*
X429272Y61613D01*
X429351Y61689D01*
X429434Y61760D01*
X429451Y61787D01*
X429474Y61810D01*
X429528Y61905D01*
X429588Y61996D01*
X429598Y62027D01*
X429613Y62055D01*
X429639Y62161D01*
X429670Y62266D01*
X429671Y62298D01*
X429678Y62329D01*
X429673Y62439D01*
X429674Y62548D01*
X429666Y62579D01*
X429664Y62611D01*
X429628Y62714D01*
X429599Y62820D01*
X429582Y62847D01*
X429572Y62878D01*
X429518Y62951D01*
X429451Y63060D01*
X429415Y63092D01*
X429390Y63127D01*
X428310Y64207D01*
X426259Y66257D01*
X426259Y74337D01*
X426247Y74423D01*
X426244Y74510D01*
X426227Y74562D01*
X426219Y74616D01*
X426184Y74696D01*
X426157Y74778D01*
X426126Y74823D01*
X426103Y74873D01*
X426047Y74939D01*
X425998Y75011D01*
X425956Y75046D01*
X425920Y75088D01*
X425847Y75135D01*
X425780Y75190D01*
X425730Y75212D01*
X425684Y75242D01*
X425601Y75268D01*
X425521Y75302D01*
X425467Y75308D01*
X425414Y75325D01*
X425327Y75326D01*
X425241Y75336D01*
X425187Y75328D01*
X425132Y75328D01*
X425048Y75305D01*
X424963Y75291D01*
X424913Y75268D01*
X424860Y75253D01*
X424786Y75207D01*
X424708Y75170D01*
X424667Y75134D01*
X424620Y75105D01*
X424562Y75041D01*
X424497Y74983D01*
X424471Y74939D01*
X424431Y74896D01*
X424382Y74793D01*
X424337Y74720D01*
X424092Y74129D01*
X421171Y71208D01*
X417355Y69627D01*
X413225Y69627D01*
X409409Y71208D01*
X406488Y74129D01*
X404907Y77945D01*
X404907Y82075D01*
X406488Y85891D01*
X409409Y88812D01*
X413225Y90393D01*
X417355Y90393D01*
X421171Y88812D01*
X424092Y85891D01*
X424337Y85300D01*
X424381Y85226D01*
X424417Y85147D01*
X424452Y85105D01*
X424480Y85058D01*
X424544Y84998D01*
X424600Y84932D01*
X424646Y84902D01*
X424686Y84865D01*
X424763Y84825D01*
X424836Y84778D01*
X424889Y84762D01*
X424938Y84737D01*
X425023Y84721D01*
X425106Y84695D01*
X425161Y84695D01*
X425215Y84685D01*
X425301Y84693D01*
X425388Y84692D01*
X425441Y84706D01*
X425495Y84712D01*
X425576Y84744D01*
X425660Y84767D01*
X425706Y84796D01*
X425757Y84816D01*
X425826Y84870D01*
X425900Y84915D01*
X425936Y84956D01*
X425980Y84990D01*
X426031Y85060D01*
X426089Y85124D01*
X426113Y85174D01*
X426145Y85218D01*
X426174Y85300D01*
X426212Y85378D01*
X426220Y85429D01*
X426239Y85484D01*
X426246Y85598D01*
X426259Y85683D01*
X426259Y120073D01*
X426246Y120168D01*
X426241Y120264D01*
X426226Y120307D01*
X426219Y120352D01*
X426180Y120440D01*
X426148Y120531D01*
X426123Y120565D01*
X426103Y120609D01*
X426020Y120707D01*
X425967Y120780D01*
X421960Y124787D01*
X421883Y124844D01*
X421812Y124909D01*
X421771Y124929D01*
X421734Y124956D01*
X421644Y124990D01*
X421558Y125032D01*
X421516Y125038D01*
X421470Y125055D01*
X421343Y125065D01*
X421253Y125079D01*
X350737Y125079D01*
X334629Y141187D01*
X334629Y186303D01*
X334616Y186398D01*
X334611Y186494D01*
X334596Y186537D01*
X334589Y186582D01*
X334550Y186670D01*
X334518Y186761D01*
X334493Y186795D01*
X334473Y186839D01*
X334390Y186937D01*
X334337Y187010D01*
X321440Y199907D01*
X321363Y199964D01*
X321292Y200029D01*
X321251Y200049D01*
X321214Y200076D01*
X321124Y200110D01*
X321038Y200152D01*
X320996Y200158D01*
X320950Y200175D01*
X320823Y200185D01*
X320733Y200199D01*
X309137Y200199D01*
X309127Y200198D01*
X309118Y200199D01*
X308988Y200178D01*
X308858Y200159D01*
X308849Y200156D01*
X308840Y200154D01*
X308720Y200097D01*
X308601Y200043D01*
X308593Y200037D01*
X308585Y200033D01*
X308486Y199945D01*
X308386Y199860D01*
X308381Y199852D01*
X308374Y199846D01*
X308334Y199780D01*
X308232Y199624D01*
X308225Y199601D01*
X308214Y199582D01*
X307683Y198301D01*
X304619Y195237D01*
X300616Y193579D01*
X296284Y193579D01*
X292281Y195237D01*
X289217Y198301D01*
X287559Y202304D01*
X287559Y206636D01*
X289217Y210639D01*
X292281Y213703D01*
X296284Y215361D01*
X300616Y215361D01*
X304619Y213703D01*
X307683Y210639D01*
X309266Y206818D01*
X309270Y206809D01*
X309273Y206800D01*
X309342Y206688D01*
X309409Y206575D01*
X309416Y206568D01*
X309421Y206560D01*
X309519Y206472D01*
X309615Y206382D01*
X309623Y206378D01*
X309630Y206371D01*
X309749Y206314D01*
X309866Y206254D01*
X309876Y206252D01*
X309884Y206248D01*
X309960Y206236D01*
X310144Y206202D01*
X310167Y206204D01*
X310189Y206201D01*
X323633Y206201D01*
X325683Y204150D01*
X336923Y192910D01*
X336949Y192891D01*
X336970Y192866D01*
X337062Y192806D01*
X337149Y192741D01*
X337179Y192730D01*
X337206Y192712D01*
X337311Y192680D01*
X337413Y192641D01*
X337445Y192639D01*
X337476Y192630D01*
X337585Y192628D01*
X337694Y192620D01*
X337726Y192626D01*
X337758Y192626D01*
X337863Y192655D01*
X337970Y192677D01*
X337999Y192692D01*
X338030Y192701D01*
X338123Y192758D01*
X338219Y192810D01*
X338242Y192832D01*
X338270Y192849D01*
X338343Y192930D01*
X338421Y193006D01*
X338437Y193034D01*
X338459Y193058D01*
X338506Y193157D01*
X338560Y193252D01*
X338568Y193283D01*
X338582Y193312D01*
X338596Y193401D01*
X338625Y193526D01*
X338623Y193575D01*
X338629Y193617D01*
X338629Y207893D01*
X338621Y207953D01*
X338621Y207975D01*
X338615Y207995D01*
X338611Y208084D01*
X338596Y208127D01*
X338589Y208172D01*
X338550Y208260D01*
X338518Y208351D01*
X338493Y208385D01*
X338473Y208429D01*
X338390Y208527D01*
X338337Y208600D01*
X320360Y226577D01*
X320283Y226634D01*
X320212Y226699D01*
X320171Y226719D01*
X320134Y226746D01*
X320044Y226780D01*
X319958Y226822D01*
X319916Y226828D01*
X319870Y226845D01*
X319743Y226855D01*
X319653Y226869D01*
X310323Y226869D01*
X310314Y226868D01*
X310304Y226869D01*
X310174Y226848D01*
X310044Y226829D01*
X310035Y226826D01*
X310026Y226824D01*
X309906Y226767D01*
X309787Y226713D01*
X309780Y226707D01*
X309771Y226703D01*
X309672Y226615D01*
X309573Y226530D01*
X309567Y226522D01*
X309560Y226516D01*
X309520Y226450D01*
X309418Y226294D01*
X309411Y226271D01*
X309400Y226252D01*
X308200Y223355D01*
X304965Y220120D01*
X300738Y218369D01*
X296162Y218369D01*
X291935Y220120D01*
X288700Y223355D01*
X286949Y227582D01*
X286949Y232158D01*
X288700Y236385D01*
X291935Y239620D01*
X295718Y241187D01*
X295793Y241231D01*
X295872Y241267D01*
X295914Y241302D01*
X295961Y241330D01*
X296020Y241394D01*
X296086Y241450D01*
X296117Y241496D01*
X296154Y241536D01*
X296193Y241613D01*
X296241Y241686D01*
X296257Y241739D01*
X296282Y241788D01*
X296298Y241873D01*
X296323Y241956D01*
X296324Y242011D01*
X296334Y242065D01*
X296326Y242151D01*
X296327Y242238D01*
X296312Y242291D01*
X296307Y242345D01*
X296275Y242426D01*
X296252Y242510D01*
X296223Y242557D01*
X296203Y242607D01*
X296149Y242676D01*
X296104Y242750D01*
X296063Y242787D01*
X296029Y242830D01*
X295959Y242880D01*
X295894Y242939D01*
X295845Y242963D01*
X295800Y242995D01*
X295719Y243024D01*
X295641Y243062D01*
X295590Y243070D01*
X295535Y243089D01*
X295421Y243096D01*
X295336Y243109D01*
X273510Y243109D01*
X273446Y243100D01*
X273382Y243101D01*
X273307Y243080D01*
X273231Y243069D01*
X273172Y243043D01*
X273110Y243026D01*
X273044Y242985D01*
X272974Y242953D01*
X272925Y242911D01*
X272870Y242878D01*
X272818Y242820D01*
X272760Y242770D01*
X272724Y242716D01*
X272681Y242668D01*
X272648Y242599D01*
X272605Y242534D01*
X272586Y242472D01*
X272558Y242415D01*
X272547Y242345D01*
X272523Y242264D01*
X272522Y242179D01*
X272511Y242110D01*
X272511Y235861D01*
X271339Y234689D01*
X262952Y234689D01*
X262888Y234680D01*
X262824Y234681D01*
X262749Y234660D01*
X262673Y234649D01*
X262614Y234623D01*
X262552Y234606D01*
X262486Y234565D01*
X262416Y234533D01*
X262367Y234491D01*
X262312Y234458D01*
X262260Y234400D01*
X262202Y234350D01*
X262166Y234296D01*
X262123Y234248D01*
X262090Y234179D01*
X262047Y234114D01*
X262028Y234052D01*
X262000Y233995D01*
X261989Y233925D01*
X261965Y233844D01*
X261964Y233759D01*
X261953Y233690D01*
X261953Y223630D01*
X261962Y223566D01*
X261961Y223502D01*
X261982Y223427D01*
X261993Y223351D01*
X262019Y223292D01*
X262036Y223230D01*
X262077Y223164D01*
X262109Y223094D01*
X262151Y223045D01*
X262184Y222990D01*
X262242Y222938D01*
X262292Y222880D01*
X262346Y222844D01*
X262394Y222801D01*
X262463Y222768D01*
X262528Y222725D01*
X262590Y222706D01*
X262647Y222678D01*
X262711Y222668D01*
X263174Y222205D01*
X263251Y222148D01*
X263322Y222083D01*
X263363Y222063D01*
X263400Y222036D01*
X263490Y222002D01*
X263576Y221960D01*
X263618Y221954D01*
X263664Y221937D01*
X263791Y221927D01*
X263881Y221913D01*
X264339Y221913D01*
X267015Y220804D01*
X269064Y218755D01*
X270173Y216079D01*
X270173Y213181D01*
X269064Y210505D01*
X267015Y208456D01*
X264339Y207347D01*
X263881Y207347D01*
X263786Y207334D01*
X263689Y207329D01*
X263646Y207314D01*
X263601Y207307D01*
X263514Y207268D01*
X263423Y207236D01*
X263389Y207211D01*
X263344Y207191D01*
X263247Y207108D01*
X263174Y207055D01*
X262749Y206629D01*
X253091Y206629D01*
X251919Y207801D01*
X251919Y221459D01*
X253125Y222665D01*
X253167Y222671D01*
X253226Y222697D01*
X253288Y222714D01*
X253354Y222755D01*
X253424Y222787D01*
X253473Y222829D01*
X253528Y222862D01*
X253580Y222920D01*
X253638Y222970D01*
X253674Y223024D01*
X253717Y223072D01*
X253750Y223141D01*
X253793Y223206D01*
X253812Y223268D01*
X253840Y223325D01*
X253851Y223395D01*
X253875Y223476D01*
X253876Y223561D01*
X253887Y223630D01*
X253887Y233690D01*
X253878Y233754D01*
X253879Y233818D01*
X253858Y233893D01*
X253847Y233969D01*
X253821Y234028D01*
X253804Y234090D01*
X253763Y234156D01*
X253731Y234226D01*
X253689Y234275D01*
X253656Y234330D01*
X253598Y234382D01*
X253548Y234440D01*
X253494Y234476D01*
X253446Y234519D01*
X253377Y234552D01*
X253312Y234595D01*
X253250Y234614D01*
X253193Y234642D01*
X253123Y234653D01*
X253042Y234677D01*
X252957Y234678D01*
X252888Y234689D01*
X244181Y234689D01*
X243009Y235861D01*
X243009Y242510D01*
X243008Y242519D01*
X243009Y242528D01*
X242988Y242658D01*
X242969Y242789D01*
X242966Y242798D01*
X242964Y242807D01*
X242907Y242926D01*
X242853Y243046D01*
X242847Y243053D01*
X242843Y243062D01*
X242755Y243160D01*
X242670Y243260D01*
X242662Y243265D01*
X242656Y243272D01*
X242590Y243312D01*
X242434Y243415D01*
X242411Y243422D01*
X242392Y243433D01*
X240985Y244016D01*
X238936Y246065D01*
X237827Y248741D01*
X237827Y251639D01*
X238936Y254315D01*
X240985Y256364D01*
X242392Y256947D01*
X242401Y256952D01*
X242410Y256954D01*
X242522Y257024D01*
X242635Y257091D01*
X242642Y257098D01*
X242650Y257103D01*
X242738Y257201D01*
X242828Y257296D01*
X242832Y257305D01*
X242839Y257312D01*
X242896Y257430D01*
X242956Y257548D01*
X242958Y257557D01*
X242962Y257566D01*
X242974Y257642D01*
X243008Y257825D01*
X243006Y257849D01*
X243009Y257870D01*
X243009Y264519D01*
X244181Y265691D01*
X271339Y265691D01*
X272511Y264519D01*
X272511Y258270D01*
X272520Y258206D01*
X272519Y258142D01*
X272540Y258067D01*
X272551Y257991D01*
X272577Y257932D01*
X272594Y257870D01*
X272635Y257804D01*
X272667Y257734D01*
X272709Y257685D01*
X272742Y257630D01*
X272800Y257578D01*
X272850Y257520D01*
X272904Y257484D01*
X272952Y257441D01*
X273021Y257408D01*
X273086Y257365D01*
X273148Y257346D01*
X273205Y257318D01*
X273275Y257307D01*
X273356Y257283D01*
X273441Y257282D01*
X273510Y257271D01*
X350983Y257271D01*
X351078Y257284D01*
X351174Y257289D01*
X351217Y257304D01*
X351262Y257311D01*
X351350Y257350D01*
X351441Y257382D01*
X351475Y257407D01*
X351519Y257427D01*
X351617Y257510D01*
X351690Y257563D01*
X383689Y289563D01*
X384177Y289765D01*
X384252Y289809D01*
X384331Y289845D01*
X384372Y289880D01*
X384420Y289908D01*
X384479Y289972D01*
X384545Y290028D01*
X384575Y290074D01*
X384613Y290114D01*
X384652Y290191D01*
X384699Y290264D01*
X384716Y290317D01*
X384740Y290366D01*
X384756Y290451D01*
X384782Y290534D01*
X384783Y290589D01*
X384793Y290643D01*
X384784Y290729D01*
X384786Y290816D01*
X384771Y290869D01*
X384766Y290923D01*
X384734Y291004D01*
X384710Y291088D01*
X384682Y291134D01*
X384661Y291185D01*
X384608Y291254D01*
X384562Y291328D01*
X384522Y291364D01*
X384488Y291408D01*
X384417Y291459D01*
X384353Y291517D01*
X384304Y291541D01*
X384259Y291573D01*
X384177Y291602D01*
X384099Y291640D01*
X384049Y291648D01*
X383993Y291667D01*
X383880Y291674D01*
X383795Y291687D01*
X339102Y291687D01*
X339007Y291674D01*
X338911Y291669D01*
X338867Y291654D01*
X338823Y291647D01*
X338735Y291608D01*
X338644Y291576D01*
X338610Y291551D01*
X338566Y291531D01*
X338468Y291448D01*
X338395Y291395D01*
X335640Y288639D01*
X71047Y288639D01*
X70952Y288626D01*
X70856Y288621D01*
X70813Y288606D01*
X70768Y288599D01*
X70680Y288560D01*
X70589Y288528D01*
X70555Y288503D01*
X70511Y288483D01*
X70413Y288400D01*
X70340Y288347D01*
X47743Y265750D01*
X47686Y265673D01*
X47621Y265602D01*
X47601Y265561D01*
X47574Y265524D01*
X47540Y265434D01*
X47498Y265348D01*
X47492Y265306D01*
X47475Y265260D01*
X47465Y265133D01*
X47451Y265043D01*
X47451Y197237D01*
X47464Y197142D01*
X47469Y197046D01*
X47484Y197003D01*
X47491Y196958D01*
X47530Y196870D01*
X47562Y196779D01*
X47587Y196745D01*
X47607Y196701D01*
X47690Y196603D01*
X47743Y196530D01*
X56838Y187435D01*
X56915Y187378D01*
X56986Y187313D01*
X57027Y187293D01*
X57064Y187266D01*
X57154Y187232D01*
X57240Y187190D01*
X57282Y187184D01*
X57328Y187167D01*
X57455Y187157D01*
X57545Y187143D01*
X59521Y187143D01*
X61554Y186300D01*
X63110Y184744D01*
X63953Y182711D01*
X63953Y180509D01*
X63110Y178476D01*
X61554Y176920D01*
X59521Y176077D01*
X57319Y176077D01*
X55286Y176920D01*
X53730Y178476D01*
X52887Y180509D01*
X52887Y182485D01*
X52874Y182580D01*
X52869Y182676D01*
X52854Y182719D01*
X52847Y182764D01*
X52808Y182852D01*
X52776Y182943D01*
X52751Y182977D01*
X52731Y183021D01*
X52648Y183119D01*
X52595Y183192D01*
X41449Y194337D01*
X41449Y267943D01*
X68147Y294641D01*
X332740Y294641D01*
X332835Y294654D01*
X332931Y294659D01*
X332974Y294674D01*
X333019Y294681D01*
X333107Y294720D01*
X333198Y294752D01*
X333232Y294777D01*
X333276Y294797D01*
X333373Y294880D01*
X333447Y294933D01*
X335766Y297253D01*
X335837Y297348D01*
X335913Y297439D01*
X335922Y297460D01*
X335936Y297479D01*
X335977Y297589D01*
X336024Y297699D01*
X336027Y297721D01*
X336035Y297743D01*
X336044Y297861D01*
X336059Y297978D01*
X336055Y298001D01*
X336057Y298024D01*
X336033Y298140D01*
X336014Y298257D01*
X336004Y298277D01*
X335999Y298300D01*
X335944Y298404D01*
X335893Y298512D01*
X335878Y298529D01*
X335867Y298549D01*
X335784Y298634D01*
X335705Y298722D01*
X335687Y298734D01*
X335670Y298751D01*
X335508Y298843D01*
X335442Y298883D01*
X333209Y299808D01*
X330288Y302729D01*
X328707Y306545D01*
X328707Y310675D01*
X329645Y312939D01*
X329647Y312948D01*
X329652Y312956D01*
X329682Y313085D01*
X329715Y313212D01*
X329715Y313222D01*
X329717Y313231D01*
X329710Y313363D01*
X329706Y313494D01*
X329703Y313503D01*
X329703Y313513D01*
X329660Y313636D01*
X329619Y313762D01*
X329613Y313770D01*
X329610Y313779D01*
X329565Y313841D01*
X329460Y313995D01*
X329441Y314011D01*
X329428Y314028D01*
X326948Y316509D01*
X326871Y316566D01*
X326800Y316631D01*
X326759Y316651D01*
X326722Y316678D01*
X326632Y316712D01*
X326546Y316754D01*
X326504Y316760D01*
X326458Y316777D01*
X326331Y316787D01*
X326241Y316801D01*
X324348Y316801D01*
X313430Y327719D01*
X313353Y327776D01*
X313282Y327841D01*
X313241Y327861D01*
X313205Y327888D01*
X313115Y327922D01*
X313028Y327964D01*
X312986Y327970D01*
X312941Y327987D01*
X312813Y327997D01*
X312724Y328011D01*
X282517Y328011D01*
X282485Y328007D01*
X282453Y328009D01*
X282346Y327987D01*
X282238Y327971D01*
X282208Y327958D01*
X282177Y327952D01*
X282080Y327900D01*
X281981Y327855D01*
X281956Y327834D01*
X281928Y327819D01*
X281849Y327743D01*
X281766Y327672D01*
X281749Y327645D01*
X281726Y327622D01*
X281672Y327527D01*
X281612Y327436D01*
X281602Y327405D01*
X281587Y327377D01*
X281561Y327270D01*
X281530Y327166D01*
X281529Y327134D01*
X281522Y327103D01*
X281527Y326993D01*
X281526Y326884D01*
X281534Y326853D01*
X281536Y326821D01*
X281572Y326718D01*
X281601Y326612D01*
X281618Y326585D01*
X281628Y326554D01*
X281682Y326481D01*
X281749Y326372D01*
X281785Y326340D01*
X281810Y326305D01*
X288830Y319285D01*
X288907Y319228D01*
X288978Y319163D01*
X289019Y319143D01*
X289056Y319116D01*
X289146Y319082D01*
X289232Y319040D01*
X289274Y319034D01*
X289320Y319017D01*
X289447Y319007D01*
X289537Y318993D01*
X290355Y318993D01*
X294171Y317412D01*
X297092Y314491D01*
X298673Y310675D01*
X298673Y306545D01*
X297092Y302729D01*
X294171Y299808D01*
X290355Y298227D01*
X286225Y298227D01*
X282409Y299808D01*
X279488Y302729D01*
X277907Y306545D01*
X277907Y310675D01*
X279488Y314491D01*
X281606Y316609D01*
X281644Y316661D01*
X281691Y316706D01*
X281729Y316773D01*
X281775Y316835D01*
X281798Y316895D01*
X281830Y316951D01*
X281847Y317026D01*
X281875Y317099D01*
X281880Y317163D01*
X281894Y317225D01*
X281891Y317303D01*
X281897Y317380D01*
X281883Y317443D01*
X281880Y317507D01*
X281855Y317580D01*
X281839Y317656D01*
X281809Y317713D01*
X281788Y317773D01*
X281746Y317830D01*
X281706Y317905D01*
X281647Y317966D01*
X281606Y318022D01*
X275910Y323719D01*
X275833Y323776D01*
X275762Y323841D01*
X275721Y323861D01*
X275684Y323888D01*
X275594Y323922D01*
X275508Y323964D01*
X275466Y323970D01*
X275420Y323987D01*
X275293Y323997D01*
X275203Y324011D01*
X266338Y324011D01*
X262630Y327719D01*
X262553Y327776D01*
X262482Y327841D01*
X262441Y327861D01*
X262405Y327888D01*
X262315Y327922D01*
X262228Y327964D01*
X262186Y327970D01*
X262141Y327987D01*
X262013Y327997D01*
X261924Y328011D01*
X238784Y328011D01*
X235077Y331719D01*
X235000Y331776D01*
X234929Y331841D01*
X234888Y331861D01*
X234852Y331888D01*
X234761Y331922D01*
X234675Y331964D01*
X234633Y331970D01*
X234588Y331987D01*
X234460Y331997D01*
X234371Y332011D01*
X214348Y332011D01*
X210641Y335719D01*
X210564Y335776D01*
X210493Y335841D01*
X210452Y335861D01*
X210415Y335888D01*
X210325Y335922D01*
X210239Y335964D01*
X210197Y335970D01*
X210151Y335987D01*
X210024Y335997D01*
X209934Y336011D01*
X190028Y336011D01*
X186321Y339719D01*
X186244Y339776D01*
X186173Y339841D01*
X186132Y339861D01*
X186095Y339888D01*
X186005Y339922D01*
X185919Y339964D01*
X185877Y339970D01*
X185831Y339987D01*
X185704Y339997D01*
X185614Y340011D01*
X169518Y340011D01*
X165811Y343719D01*
X165734Y343776D01*
X165663Y343841D01*
X165622Y343861D01*
X165585Y343888D01*
X165495Y343922D01*
X165409Y343964D01*
X165367Y343970D01*
X165321Y343987D01*
X165194Y343997D01*
X165104Y344011D01*
X145775Y344011D01*
X140816Y348971D01*
X140808Y348976D01*
X140802Y348984D01*
X140695Y349061D01*
X140590Y349140D01*
X140581Y349143D01*
X140573Y349149D01*
X140450Y349193D01*
X140326Y349240D01*
X140317Y349240D01*
X140308Y349243D01*
X140176Y349251D01*
X140045Y349261D01*
X140036Y349259D01*
X140026Y349260D01*
X139951Y349242D01*
X139769Y349204D01*
X139748Y349192D01*
X139727Y349187D01*
X136887Y348011D01*
X132353Y348011D01*
X128163Y349747D01*
X124957Y352953D01*
X123221Y357143D01*
X123221Y361677D01*
X124957Y365867D01*
X128163Y369073D01*
X132353Y370809D01*
X136887Y370809D01*
X141077Y369073D01*
X144283Y365867D01*
X146019Y361677D01*
X146019Y357143D01*
X144843Y354303D01*
X144840Y354294D01*
X144836Y354286D01*
X144805Y354157D01*
X144773Y354030D01*
X144773Y354021D01*
X144771Y354012D01*
X144777Y353879D01*
X144782Y353748D01*
X144785Y353739D01*
X144785Y353730D01*
X144828Y353605D01*
X144869Y353480D01*
X144874Y353472D01*
X144878Y353463D01*
X144923Y353401D01*
X145028Y353247D01*
X145047Y353232D01*
X145059Y353214D01*
X147968Y350305D01*
X148045Y350248D01*
X148116Y350183D01*
X148157Y350163D01*
X148194Y350136D01*
X148284Y350102D01*
X148370Y350060D01*
X148412Y350054D01*
X148458Y350037D01*
X148585Y350027D01*
X148675Y350013D01*
X150885Y350013D01*
X150917Y350017D01*
X150949Y350015D01*
X151056Y350037D01*
X151164Y350053D01*
X151193Y350066D01*
X151225Y350072D01*
X151321Y350124D01*
X151421Y350169D01*
X151445Y350190D01*
X151474Y350205D01*
X151552Y350281D01*
X151635Y350352D01*
X151653Y350379D01*
X151676Y350402D01*
X151730Y350497D01*
X151790Y350588D01*
X151799Y350619D01*
X151815Y350647D01*
X151840Y350753D01*
X151872Y350858D01*
X151872Y350890D01*
X151880Y350921D01*
X151874Y351031D01*
X151876Y351140D01*
X151867Y351171D01*
X151865Y351203D01*
X151830Y351306D01*
X151800Y351412D01*
X151784Y351439D01*
X151773Y351470D01*
X151720Y351543D01*
X151652Y351652D01*
X151616Y351684D01*
X151591Y351719D01*
X150357Y352953D01*
X148621Y357143D01*
X148621Y361677D01*
X150357Y365867D01*
X153563Y369073D01*
X157753Y370809D01*
X162287Y370809D01*
X166477Y369073D01*
X169683Y365867D01*
X171419Y361677D01*
X171419Y357143D01*
X170243Y354303D01*
X170240Y354294D01*
X170236Y354286D01*
X170205Y354157D01*
X170173Y354030D01*
X170173Y354021D01*
X170171Y354012D01*
X170177Y353879D01*
X170182Y353748D01*
X170185Y353739D01*
X170185Y353730D01*
X170228Y353605D01*
X170269Y353480D01*
X170274Y353472D01*
X170278Y353463D01*
X170323Y353401D01*
X170428Y353247D01*
X170447Y353232D01*
X170459Y353214D01*
X173368Y350305D01*
X173445Y350248D01*
X173516Y350183D01*
X173557Y350163D01*
X173594Y350136D01*
X173684Y350102D01*
X173770Y350060D01*
X173812Y350054D01*
X173858Y350037D01*
X173985Y350027D01*
X174075Y350013D01*
X176285Y350013D01*
X176317Y350017D01*
X176349Y350015D01*
X176456Y350037D01*
X176564Y350053D01*
X176593Y350066D01*
X176625Y350072D01*
X176721Y350124D01*
X176821Y350169D01*
X176845Y350190D01*
X176874Y350205D01*
X176952Y350281D01*
X177035Y350352D01*
X177053Y350379D01*
X177076Y350402D01*
X177130Y350497D01*
X177190Y350588D01*
X177199Y350619D01*
X177215Y350647D01*
X177240Y350753D01*
X177272Y350858D01*
X177272Y350890D01*
X177280Y350921D01*
X177274Y351031D01*
X177276Y351140D01*
X177267Y351171D01*
X177265Y351203D01*
X177230Y351306D01*
X177200Y351412D01*
X177184Y351439D01*
X177173Y351470D01*
X177120Y351543D01*
X177052Y351652D01*
X177016Y351684D01*
X176991Y351719D01*
X175757Y352953D01*
X174021Y357143D01*
X174021Y361677D01*
X175757Y365867D01*
X178963Y369073D01*
X183153Y370809D01*
X187687Y370809D01*
X191877Y369073D01*
X195083Y365867D01*
X196819Y361677D01*
X196819Y357143D01*
X195643Y354303D01*
X195640Y354294D01*
X195636Y354286D01*
X195605Y354157D01*
X195573Y354030D01*
X195573Y354021D01*
X195571Y354012D01*
X195577Y353879D01*
X195582Y353748D01*
X195585Y353739D01*
X195585Y353730D01*
X195628Y353605D01*
X195669Y353480D01*
X195674Y353472D01*
X195678Y353463D01*
X195723Y353401D01*
X195828Y353247D01*
X195847Y353232D01*
X195859Y353214D01*
X198768Y350305D01*
X198845Y350248D01*
X198916Y350183D01*
X198957Y350163D01*
X198994Y350136D01*
X199084Y350102D01*
X199170Y350060D01*
X199212Y350054D01*
X199258Y350037D01*
X199385Y350027D01*
X199475Y350013D01*
X201685Y350013D01*
X201717Y350017D01*
X201749Y350015D01*
X201856Y350037D01*
X201964Y350053D01*
X201993Y350066D01*
X202025Y350072D01*
X202121Y350124D01*
X202221Y350169D01*
X202245Y350190D01*
X202274Y350205D01*
X202352Y350281D01*
X202435Y350352D01*
X202453Y350379D01*
X202476Y350402D01*
X202530Y350497D01*
X202590Y350588D01*
X202599Y350619D01*
X202615Y350647D01*
X202640Y350753D01*
X202672Y350858D01*
X202672Y350890D01*
X202680Y350921D01*
X202674Y351031D01*
X202676Y351140D01*
X202667Y351171D01*
X202665Y351203D01*
X202630Y351306D01*
X202600Y351412D01*
X202584Y351439D01*
X202573Y351470D01*
X202520Y351543D01*
X202452Y351652D01*
X202416Y351684D01*
X202391Y351719D01*
X201157Y352953D01*
X199421Y357143D01*
X199421Y361677D01*
X201157Y365867D01*
X204363Y369073D01*
X208553Y370809D01*
X213087Y370809D01*
X217277Y369073D01*
X220483Y365867D01*
X222219Y361677D01*
X222219Y357143D01*
X221043Y354303D01*
X221040Y354294D01*
X221036Y354286D01*
X221005Y354157D01*
X220973Y354030D01*
X220973Y354021D01*
X220971Y354012D01*
X220977Y353879D01*
X220982Y353748D01*
X220985Y353739D01*
X220985Y353730D01*
X221028Y353605D01*
X221069Y353480D01*
X221074Y353472D01*
X221078Y353463D01*
X221123Y353401D01*
X221228Y353247D01*
X221247Y353232D01*
X221259Y353214D01*
X224168Y350305D01*
X224245Y350248D01*
X224316Y350183D01*
X224357Y350163D01*
X224394Y350136D01*
X224484Y350102D01*
X224570Y350060D01*
X224612Y350054D01*
X224658Y350037D01*
X224785Y350027D01*
X224875Y350013D01*
X227085Y350013D01*
X227117Y350017D01*
X227149Y350015D01*
X227256Y350037D01*
X227364Y350053D01*
X227393Y350066D01*
X227425Y350072D01*
X227521Y350124D01*
X227621Y350169D01*
X227645Y350190D01*
X227674Y350205D01*
X227752Y350281D01*
X227835Y350352D01*
X227853Y350379D01*
X227876Y350402D01*
X227930Y350497D01*
X227990Y350588D01*
X227999Y350619D01*
X228015Y350647D01*
X228040Y350753D01*
X228072Y350858D01*
X228072Y350890D01*
X228080Y350921D01*
X228074Y351031D01*
X228076Y351140D01*
X228067Y351171D01*
X228065Y351203D01*
X228030Y351306D01*
X228000Y351412D01*
X227984Y351439D01*
X227973Y351470D01*
X227920Y351543D01*
X227852Y351652D01*
X227816Y351684D01*
X227791Y351719D01*
X226557Y352953D01*
X224821Y357143D01*
X224821Y361677D01*
X226557Y365867D01*
X229763Y369073D01*
X233953Y370809D01*
X238487Y370809D01*
X242677Y369073D01*
X245883Y365867D01*
X247619Y361677D01*
X247619Y357143D01*
X246515Y354478D01*
X246513Y354469D01*
X246508Y354460D01*
X246477Y354331D01*
X246445Y354205D01*
X246445Y354195D01*
X246443Y354186D01*
X246450Y354053D01*
X246454Y353923D01*
X246457Y353914D01*
X246457Y353904D01*
X246500Y353780D01*
X246541Y353655D01*
X246547Y353647D01*
X246550Y353638D01*
X246595Y353576D01*
X246700Y353422D01*
X246719Y353406D01*
X246732Y353389D01*
X249815Y350305D01*
X249892Y350248D01*
X249963Y350183D01*
X250004Y350163D01*
X250040Y350136D01*
X250130Y350102D01*
X250217Y350060D01*
X250259Y350054D01*
X250304Y350037D01*
X250432Y350027D01*
X250521Y350013D01*
X252485Y350013D01*
X252517Y350017D01*
X252549Y350015D01*
X252656Y350037D01*
X252764Y350053D01*
X252793Y350066D01*
X252825Y350072D01*
X252921Y350124D01*
X253021Y350169D01*
X253045Y350190D01*
X253074Y350205D01*
X253152Y350281D01*
X253235Y350352D01*
X253253Y350379D01*
X253276Y350402D01*
X253330Y350497D01*
X253390Y350588D01*
X253399Y350619D01*
X253415Y350647D01*
X253440Y350753D01*
X253472Y350858D01*
X253472Y350890D01*
X253480Y350921D01*
X253474Y351031D01*
X253476Y351140D01*
X253467Y351171D01*
X253465Y351203D01*
X253430Y351306D01*
X253400Y351412D01*
X253384Y351439D01*
X253373Y351470D01*
X253320Y351543D01*
X253252Y351652D01*
X253216Y351684D01*
X253191Y351719D01*
X251957Y352953D01*
X250221Y357143D01*
X250221Y361677D01*
X251957Y365867D01*
X255163Y369073D01*
X259353Y370809D01*
X263887Y370809D01*
X268077Y369073D01*
X271283Y365867D01*
X273019Y361677D01*
X273019Y357133D01*
X272993Y357026D01*
X272961Y356899D01*
X272961Y356889D01*
X272959Y356880D01*
X272966Y356747D01*
X272970Y356617D01*
X272973Y356608D01*
X272973Y356598D01*
X273016Y356474D01*
X273057Y356349D01*
X273063Y356341D01*
X273066Y356332D01*
X273111Y356270D01*
X273216Y356116D01*
X273235Y356100D01*
X273247Y356083D01*
X274497Y354833D01*
X274566Y354781D01*
X274630Y354722D01*
X274679Y354697D01*
X274723Y354664D01*
X274804Y354633D01*
X274881Y354594D01*
X274935Y354584D01*
X274987Y354564D01*
X275073Y354558D01*
X275158Y354542D01*
X275213Y354547D01*
X275268Y354543D01*
X275353Y354560D01*
X275439Y354569D01*
X275490Y354589D01*
X275544Y354600D01*
X275620Y354641D01*
X275701Y354673D01*
X275744Y354707D01*
X275793Y354733D01*
X275855Y354793D01*
X275923Y354847D01*
X275956Y354891D01*
X275995Y354929D01*
X276038Y355005D01*
X276088Y355075D01*
X276107Y355127D01*
X276134Y355175D01*
X276154Y355259D01*
X276183Y355341D01*
X276186Y355396D01*
X276199Y355449D01*
X276194Y355536D01*
X276199Y355623D01*
X276187Y355672D01*
X276184Y355731D01*
X276147Y355838D01*
X276127Y355922D01*
X275621Y357143D01*
X275621Y361677D01*
X277357Y365867D01*
X280563Y369073D01*
X284753Y370809D01*
X289287Y370809D01*
X293477Y369073D01*
X296683Y365867D01*
X298419Y361677D01*
X298419Y357143D01*
X296683Y352953D01*
X295449Y351719D01*
X295429Y351693D01*
X295405Y351672D01*
X295345Y351580D01*
X295280Y351493D01*
X295268Y351463D01*
X295250Y351436D01*
X295218Y351331D01*
X295180Y351229D01*
X295177Y351197D01*
X295168Y351166D01*
X295167Y351057D01*
X295158Y350948D01*
X295165Y350916D01*
X295164Y350884D01*
X295193Y350779D01*
X295216Y350672D01*
X295231Y350643D01*
X295240Y350612D01*
X295297Y350519D01*
X295348Y350423D01*
X295371Y350400D01*
X295388Y350372D01*
X295469Y350299D01*
X295545Y350221D01*
X295573Y350205D01*
X295597Y350183D01*
X295695Y350136D01*
X295790Y350082D01*
X295822Y350074D01*
X295851Y350060D01*
X295940Y350046D01*
X296065Y350017D01*
X296113Y350019D01*
X296155Y350013D01*
X322251Y350013D01*
X327336Y344928D01*
X327424Y344862D01*
X327508Y344790D01*
X327536Y344777D01*
X327561Y344759D01*
X327665Y344720D01*
X327765Y344674D01*
X327796Y344670D01*
X327825Y344659D01*
X327935Y344651D01*
X328045Y344635D01*
X328075Y344640D01*
X328106Y344637D01*
X328214Y344660D01*
X328324Y344676D01*
X328352Y344689D01*
X328382Y344695D01*
X328412Y344711D01*
X338090Y344711D01*
X338153Y344720D01*
X338218Y344719D01*
X338292Y344740D01*
X338369Y344751D01*
X338428Y344777D01*
X338490Y344794D01*
X338556Y344835D01*
X338626Y344867D01*
X338675Y344909D01*
X338730Y344942D01*
X338781Y345000D01*
X338840Y345050D01*
X338876Y345104D01*
X338919Y345152D01*
X338952Y345221D01*
X338995Y345286D01*
X339014Y345348D01*
X339042Y345405D01*
X339052Y345475D01*
X339077Y345556D01*
X339078Y345641D01*
X339089Y345710D01*
X339089Y346711D01*
X339091Y346711D01*
X339091Y345710D01*
X339100Y345649D01*
X339099Y345616D01*
X339100Y345614D01*
X339099Y345582D01*
X339120Y345507D01*
X339131Y345431D01*
X339157Y345372D01*
X339174Y345310D01*
X339215Y345244D01*
X339247Y345174D01*
X339289Y345125D01*
X339322Y345070D01*
X339380Y345018D01*
X339430Y344960D01*
X339484Y344924D01*
X339532Y344881D01*
X339601Y344848D01*
X339666Y344805D01*
X339728Y344786D01*
X339786Y344758D01*
X339855Y344747D01*
X339936Y344723D01*
X340021Y344722D01*
X340090Y344711D01*
X348980Y344711D01*
X348923Y344349D01*
X348432Y342840D01*
X347712Y341427D01*
X346958Y340389D01*
X346914Y340305D01*
X346862Y340226D01*
X346848Y340181D01*
X346826Y340140D01*
X346807Y340047D01*
X346779Y339956D01*
X346779Y339910D01*
X346769Y339864D01*
X346777Y339769D01*
X346776Y339674D01*
X346788Y339629D01*
X346792Y339583D01*
X346825Y339494D01*
X346851Y339402D01*
X346875Y339363D01*
X346892Y339319D01*
X346949Y339243D01*
X346999Y339162D01*
X347034Y339131D01*
X347062Y339094D01*
X347138Y339037D01*
X347208Y338973D01*
X347250Y338953D01*
X347288Y338925D01*
X347376Y338892D01*
X347462Y338850D01*
X347505Y338844D01*
X347552Y338826D01*
X347678Y338817D01*
X347767Y338803D01*
X347892Y338803D01*
X349942Y336752D01*
X355361Y331333D01*
X355438Y331276D01*
X355509Y331211D01*
X355550Y331191D01*
X355586Y331164D01*
X355676Y331130D01*
X355763Y331088D01*
X355805Y331082D01*
X355850Y331065D01*
X355978Y331055D01*
X356067Y331041D01*
X422262Y331041D01*
X422379Y331057D01*
X422497Y331069D01*
X422519Y331077D01*
X422541Y331081D01*
X422649Y331129D01*
X422759Y331173D01*
X422777Y331187D01*
X422798Y331197D01*
X422888Y331274D01*
X422982Y331347D01*
X422995Y331365D01*
X423012Y331380D01*
X423077Y331480D01*
X423147Y331576D01*
X423154Y331597D01*
X423167Y331616D01*
X423201Y331730D01*
X423241Y331841D01*
X423243Y331864D01*
X423249Y331886D01*
X423251Y332004D01*
X423258Y332123D01*
X423253Y332144D01*
X423253Y332168D01*
X423203Y332347D01*
X423185Y332422D01*
X422457Y334179D01*
X422457Y336381D01*
X423366Y338575D01*
X423388Y338659D01*
X423418Y338740D01*
X423423Y338795D01*
X423436Y338848D01*
X423433Y338935D01*
X423440Y339021D01*
X423429Y339075D01*
X423427Y339130D01*
X423400Y339213D01*
X423383Y339297D01*
X423357Y339346D01*
X423340Y339398D01*
X423291Y339470D01*
X423250Y339546D01*
X423212Y339586D01*
X423181Y339631D01*
X423114Y339686D01*
X423053Y339748D01*
X423006Y339776D01*
X422963Y339810D01*
X422883Y339845D01*
X422808Y339887D01*
X422755Y339900D01*
X422704Y339922D01*
X422618Y339932D01*
X422534Y339952D01*
X422479Y339950D01*
X422424Y339956D01*
X422339Y339942D01*
X422252Y339938D01*
X422200Y339920D01*
X422146Y339911D01*
X422067Y339874D01*
X421985Y339846D01*
X421944Y339816D01*
X421891Y339790D01*
X421806Y339715D01*
X421736Y339664D01*
X420694Y338622D01*
X417188Y337169D01*
X413392Y337169D01*
X409886Y338622D01*
X407202Y341306D01*
X405749Y344812D01*
X405749Y348608D01*
X407202Y352114D01*
X409886Y354798D01*
X413392Y356251D01*
X417188Y356251D01*
X420694Y354798D01*
X423378Y352114D01*
X424831Y348608D01*
X424831Y344812D01*
X423312Y341145D01*
X423290Y341061D01*
X423259Y340979D01*
X423255Y340925D01*
X423242Y340872D01*
X423244Y340785D01*
X423238Y340698D01*
X423249Y340644D01*
X423251Y340590D01*
X423278Y340507D01*
X423295Y340422D01*
X423321Y340374D01*
X423338Y340322D01*
X423387Y340250D01*
X423428Y340173D01*
X423466Y340134D01*
X423497Y340089D01*
X423564Y340033D01*
X423625Y339971D01*
X423672Y339944D01*
X423715Y339909D01*
X423794Y339875D01*
X423870Y339832D01*
X423923Y339819D01*
X423974Y339798D01*
X424060Y339787D01*
X424145Y339767D01*
X424199Y339770D01*
X424254Y339763D01*
X424339Y339777D01*
X424426Y339782D01*
X424478Y339800D01*
X424532Y339808D01*
X424611Y339846D01*
X424693Y339874D01*
X424734Y339904D01*
X424787Y339929D01*
X424813Y339953D01*
X426889Y340813D01*
X429091Y340813D01*
X431159Y339956D01*
X431171Y339944D01*
X431220Y339919D01*
X431264Y339887D01*
X431345Y339856D01*
X431423Y339817D01*
X431477Y339806D01*
X431528Y339787D01*
X431614Y339780D01*
X431700Y339764D01*
X431754Y339769D01*
X431809Y339765D01*
X431894Y339783D01*
X431981Y339791D01*
X432032Y339812D01*
X432085Y339823D01*
X432162Y339863D01*
X432243Y339896D01*
X432286Y339929D01*
X432334Y339955D01*
X432396Y340016D01*
X432465Y340069D01*
X432497Y340114D01*
X432536Y340152D01*
X432579Y340227D01*
X432630Y340298D01*
X432648Y340350D01*
X432675Y340397D01*
X432695Y340482D01*
X432724Y340564D01*
X432728Y340618D01*
X432740Y340672D01*
X432736Y340758D01*
X432741Y340845D01*
X432729Y340895D01*
X432726Y340953D01*
X432689Y341061D01*
X432668Y341145D01*
X431149Y344812D01*
X431149Y348608D01*
X432602Y352114D01*
X435286Y354798D01*
X438792Y356251D01*
X442588Y356251D01*
X446094Y354798D01*
X448778Y352114D01*
X450231Y348608D01*
X450231Y344812D01*
X448778Y341306D01*
X447299Y339827D01*
X447280Y339801D01*
X447255Y339780D01*
X447195Y339688D01*
X447130Y339601D01*
X447119Y339571D01*
X447101Y339544D01*
X447069Y339439D01*
X447030Y339337D01*
X447028Y339305D01*
X447018Y339274D01*
X447017Y339165D01*
X447009Y339056D01*
X447015Y339024D01*
X447015Y338992D01*
X447044Y338887D01*
X447066Y338780D01*
X447081Y338751D01*
X447090Y338720D01*
X447147Y338627D01*
X447199Y338531D01*
X447221Y338508D01*
X447238Y338480D01*
X447319Y338407D01*
X447395Y338329D01*
X447423Y338313D01*
X447447Y338291D01*
X447546Y338244D01*
X447641Y338190D01*
X447672Y338182D01*
X447701Y338168D01*
X447790Y338154D01*
X447915Y338125D01*
X447964Y338127D01*
X448006Y338121D01*
X450142Y338121D01*
X457850Y330413D01*
X457927Y330356D01*
X457998Y330291D01*
X458039Y330271D01*
X458075Y330244D01*
X458165Y330210D01*
X458252Y330168D01*
X458294Y330162D01*
X458339Y330145D01*
X458467Y330135D01*
X458556Y330121D01*
X552601Y330121D01*
X555553Y327168D01*
X563812Y318910D01*
X563820Y318904D01*
X563825Y318896D01*
X563932Y318819D01*
X564038Y318740D01*
X564047Y318737D01*
X564054Y318731D01*
X564178Y318687D01*
X564301Y318641D01*
X564311Y318640D01*
X564320Y318637D01*
X564451Y318629D01*
X564583Y318619D01*
X564592Y318621D01*
X564601Y318620D01*
X564677Y318639D01*
X564859Y318677D01*
X564880Y318688D01*
X564901Y318693D01*
X565625Y318993D01*
X569755Y318993D01*
X573571Y317412D01*
X576492Y314491D01*
X578073Y310675D01*
X578073Y306545D01*
X576492Y302729D01*
X574428Y300665D01*
X574409Y300639D01*
X574384Y300618D01*
X574324Y300526D01*
X574259Y300439D01*
X574247Y300409D01*
X574230Y300382D01*
X574198Y300277D01*
X574159Y300175D01*
X574157Y300143D01*
X574147Y300112D01*
X574146Y300003D01*
X574137Y299894D01*
X574144Y299862D01*
X574143Y299830D01*
X574173Y299725D01*
X574195Y299618D01*
X574210Y299589D01*
X574219Y299558D01*
X574276Y299465D01*
X574327Y299369D01*
X574350Y299346D01*
X574367Y299318D01*
X574448Y299245D01*
X574524Y299167D01*
X574552Y299151D01*
X574576Y299129D01*
X574674Y299082D01*
X574770Y299028D01*
X574801Y299020D01*
X574830Y299006D01*
X574919Y298992D01*
X575044Y298963D01*
X575092Y298965D01*
X575135Y298959D01*
X644131Y298959D01*
X644226Y298972D01*
X644322Y298977D01*
X644365Y298992D01*
X644410Y298999D01*
X644498Y299038D01*
X644589Y299070D01*
X644623Y299095D01*
X644667Y299115D01*
X644765Y299198D01*
X644838Y299251D01*
X661917Y316330D01*
X661974Y316407D01*
X662039Y316478D01*
X662059Y316519D01*
X662086Y316556D01*
X662120Y316646D01*
X662162Y316732D01*
X662168Y316774D01*
X662185Y316820D01*
X662195Y316947D01*
X662209Y317037D01*
X662209Y357333D01*
X662196Y357428D01*
X662191Y357524D01*
X662176Y357567D01*
X662169Y357612D01*
X662130Y357700D01*
X662098Y357791D01*
X662073Y357825D01*
X662053Y357869D01*
X661970Y357967D01*
X661917Y358040D01*
X657760Y362197D01*
X657683Y362254D01*
X657612Y362319D01*
X657571Y362339D01*
X657534Y362366D01*
X657444Y362400D01*
X657358Y362442D01*
X657316Y362448D01*
X657270Y362465D01*
X657143Y362475D01*
X657053Y362489D01*
X394810Y362489D01*
X394746Y362480D01*
X394682Y362481D01*
X394607Y362460D01*
X394531Y362449D01*
X394472Y362423D01*
X394410Y362406D01*
X394344Y362365D01*
X394274Y362333D01*
X394225Y362291D01*
X394170Y362258D01*
X394118Y362200D01*
X394060Y362150D01*
X394024Y362096D01*
X393981Y362048D01*
X393948Y361979D01*
X393905Y361914D01*
X393886Y361852D01*
X393858Y361795D01*
X393857Y361788D01*
X392639Y360569D01*
X390858Y360569D01*
X390794Y360560D01*
X390730Y360561D01*
X390655Y360540D01*
X390579Y360529D01*
X390520Y360503D01*
X390458Y360486D01*
X390392Y360445D01*
X390322Y360413D01*
X390273Y360371D01*
X390218Y360338D01*
X390166Y360280D01*
X390108Y360230D01*
X390072Y360176D01*
X390029Y360128D01*
X389996Y360059D01*
X389953Y359994D01*
X389934Y359932D01*
X389906Y359875D01*
X389895Y359805D01*
X389871Y359724D01*
X389870Y359639D01*
X389859Y359570D01*
X389859Y359375D01*
X389872Y359280D01*
X389877Y359184D01*
X389892Y359141D01*
X389899Y359096D01*
X389938Y359008D01*
X389970Y358918D01*
X389995Y358883D01*
X390015Y358839D01*
X390098Y358742D01*
X390151Y358669D01*
X392981Y355839D01*
X393015Y355814D01*
X393042Y355783D01*
X393116Y355738D01*
X393207Y355669D01*
X393262Y355649D01*
X393306Y355622D01*
X395294Y354798D01*
X397978Y352114D01*
X399431Y348608D01*
X399431Y344812D01*
X397978Y341306D01*
X395294Y338622D01*
X391788Y337169D01*
X387992Y337169D01*
X384486Y338622D01*
X381802Y341306D01*
X380349Y344812D01*
X380349Y348608D01*
X381729Y351939D01*
X381731Y351948D01*
X381736Y351956D01*
X381766Y352085D01*
X381799Y352212D01*
X381799Y352221D01*
X381801Y352231D01*
X381794Y352362D01*
X381790Y352494D01*
X381787Y352503D01*
X381787Y352512D01*
X381744Y352636D01*
X381703Y352762D01*
X381697Y352770D01*
X381694Y352779D01*
X381649Y352841D01*
X381544Y352995D01*
X381525Y353010D01*
X381512Y353028D01*
X379761Y354779D01*
X379761Y359570D01*
X379752Y359634D01*
X379753Y359698D01*
X379732Y359773D01*
X379721Y359849D01*
X379695Y359908D01*
X379678Y359970D01*
X379637Y360036D01*
X379605Y360106D01*
X379563Y360155D01*
X379530Y360210D01*
X379472Y360262D01*
X379422Y360320D01*
X379368Y360356D01*
X379320Y360399D01*
X379251Y360432D01*
X379186Y360475D01*
X379124Y360494D01*
X379067Y360522D01*
X378997Y360533D01*
X378916Y360557D01*
X378831Y360558D01*
X378762Y360569D01*
X376681Y360569D01*
X376646Y360578D01*
X376569Y360574D01*
X376492Y360580D01*
X376442Y360569D01*
X374348Y360569D01*
X374284Y360560D01*
X374220Y360561D01*
X374145Y360540D01*
X374069Y360529D01*
X374010Y360503D01*
X373948Y360486D01*
X373882Y360445D01*
X373812Y360413D01*
X373763Y360371D01*
X373708Y360338D01*
X373656Y360280D01*
X373598Y360230D01*
X373562Y360176D01*
X373519Y360128D01*
X373486Y360059D01*
X373443Y359994D01*
X373424Y359932D01*
X373396Y359875D01*
X373385Y359805D01*
X373361Y359724D01*
X373360Y359639D01*
X373349Y359570D01*
X373349Y353509D01*
X372868Y353028D01*
X372862Y353020D01*
X372854Y353014D01*
X372777Y352908D01*
X372698Y352802D01*
X372695Y352793D01*
X372689Y352786D01*
X372645Y352661D01*
X372599Y352538D01*
X372598Y352529D01*
X372595Y352520D01*
X372587Y352388D01*
X372577Y352257D01*
X372579Y352248D01*
X372578Y352238D01*
X372597Y352163D01*
X372635Y351981D01*
X372646Y351960D01*
X372651Y351939D01*
X374031Y348608D01*
X374031Y344812D01*
X372578Y341306D01*
X369894Y338622D01*
X366388Y337169D01*
X362592Y337169D01*
X359086Y338622D01*
X356402Y341306D01*
X354949Y344812D01*
X354949Y348608D01*
X356402Y352114D01*
X359086Y354798D01*
X361074Y355622D01*
X361110Y355643D01*
X361150Y355657D01*
X361219Y355708D01*
X361317Y355766D01*
X361357Y355809D01*
X361399Y355839D01*
X362959Y357399D01*
X363016Y357476D01*
X363081Y357547D01*
X363101Y357588D01*
X363128Y357624D01*
X363162Y357714D01*
X363204Y357801D01*
X363210Y357843D01*
X363227Y357888D01*
X363237Y358016D01*
X363251Y358105D01*
X363251Y359570D01*
X363242Y359634D01*
X363243Y359698D01*
X363222Y359773D01*
X363211Y359849D01*
X363185Y359908D01*
X363168Y359970D01*
X363127Y360036D01*
X363095Y360106D01*
X363053Y360155D01*
X363020Y360210D01*
X362962Y360262D01*
X362912Y360320D01*
X362858Y360356D01*
X362810Y360399D01*
X362741Y360432D01*
X362676Y360475D01*
X362614Y360494D01*
X362557Y360522D01*
X362487Y360533D01*
X362406Y360557D01*
X362321Y360558D01*
X362252Y360569D01*
X360674Y360569D01*
X360568Y360554D01*
X360462Y360547D01*
X360431Y360535D01*
X360395Y360529D01*
X360260Y360468D01*
X360174Y360435D01*
X359771Y360202D01*
X359125Y360029D01*
X353789Y360029D01*
X353789Y368570D01*
X353780Y368634D01*
X353781Y368698D01*
X353760Y368772D01*
X353749Y368849D01*
X353723Y368908D01*
X353706Y368970D01*
X353665Y369036D01*
X353633Y369106D01*
X353591Y369155D01*
X353558Y369210D01*
X353500Y369261D01*
X353450Y369320D01*
X353396Y369356D01*
X353348Y369399D01*
X353279Y369432D01*
X353214Y369475D01*
X353152Y369494D01*
X353095Y369522D01*
X353025Y369532D01*
X352944Y369557D01*
X352859Y369558D01*
X352790Y369569D01*
X351789Y369569D01*
X351789Y370570D01*
X351780Y370634D01*
X351781Y370698D01*
X351760Y370773D01*
X351749Y370849D01*
X351723Y370908D01*
X351706Y370970D01*
X351665Y371036D01*
X351633Y371106D01*
X351591Y371155D01*
X351558Y371210D01*
X351500Y371262D01*
X351450Y371320D01*
X351396Y371356D01*
X351348Y371399D01*
X351279Y371432D01*
X351214Y371475D01*
X351152Y371494D01*
X351094Y371522D01*
X351025Y371532D01*
X350944Y371557D01*
X350859Y371558D01*
X350790Y371569D01*
X342249Y371569D01*
X342249Y377000D01*
X342240Y377064D01*
X342241Y377128D01*
X342220Y377203D01*
X342209Y377279D01*
X342183Y377338D01*
X342166Y377400D01*
X342125Y377466D01*
X342093Y377536D01*
X342051Y377585D01*
X342018Y377640D01*
X341960Y377692D01*
X341910Y377750D01*
X341856Y377786D01*
X341808Y377829D01*
X341739Y377862D01*
X341674Y377905D01*
X341612Y377924D01*
X341555Y377952D01*
X341485Y377963D01*
X341404Y377987D01*
X341319Y377988D01*
X341250Y377999D01*
X29210Y377999D01*
X29168Y377993D01*
X29132Y377996D01*
X25784Y377733D01*
X25644Y377701D01*
X25554Y377687D01*
X19186Y375618D01*
X19184Y375617D01*
X19182Y375617D01*
X19150Y375601D01*
X18933Y375494D01*
X18920Y375483D01*
X18907Y375476D01*
X13491Y371540D01*
X13489Y371539D01*
X13487Y371538D01*
X13462Y371513D01*
X13387Y371440D01*
X13322Y371385D01*
X13309Y371364D01*
X13288Y371344D01*
X13280Y371330D01*
X13270Y371319D01*
X9334Y365903D01*
X9333Y365901D01*
X9331Y365899D01*
X9315Y365868D01*
X9202Y365653D01*
X9199Y365637D01*
X9192Y365624D01*
X7123Y359256D01*
X7098Y359115D01*
X7077Y359026D01*
X6814Y355678D01*
X6816Y355637D01*
X6811Y355600D01*
X6811Y25400D01*
X6817Y25358D01*
X6814Y25322D01*
X7077Y21974D01*
X7109Y21834D01*
X7123Y21744D01*
X9192Y15376D01*
X9193Y15374D01*
X9193Y15372D01*
X9209Y15340D01*
X9316Y15123D01*
X9327Y15110D01*
X9334Y15097D01*
X13270Y9681D01*
X13271Y9679D01*
X13272Y9677D01*
X13297Y9652D01*
X13466Y9478D01*
X13480Y9470D01*
X13491Y9460D01*
X18907Y5524D01*
X18909Y5523D01*
X18911Y5521D01*
X18942Y5505D01*
X19157Y5392D01*
X19173Y5389D01*
X19186Y5382D01*
X25554Y3313D01*
X25695Y3288D01*
X25784Y3267D01*
X29132Y3004D01*
X29173Y3006D01*
X29210Y3001D01*
X702310Y3001D01*
X702351Y3007D01*
G37*
%LPC*%
G36*
X558267Y99825D02*
X558267Y99825D01*
X558262Y99829D01*
X558259Y99833D01*
X558037Y100050D01*
X558037Y100361D01*
X558036Y100366D01*
X558037Y100371D01*
X558030Y101043D01*
X558037Y101090D01*
X558037Y278161D01*
X558036Y278166D01*
X558037Y278171D01*
X558034Y278483D01*
X558254Y278704D01*
X558258Y278709D01*
X558262Y278712D01*
X558479Y278934D01*
X558789Y278934D01*
X558795Y278935D01*
X558800Y278934D01*
X672373Y280155D01*
X672424Y280163D01*
X673090Y280163D01*
X673096Y280164D01*
X673101Y280163D01*
X673413Y280166D01*
X673633Y279945D01*
X673638Y279942D01*
X673641Y279938D01*
X673863Y279721D01*
X673863Y279410D01*
X673864Y279405D01*
X673863Y279399D01*
X673870Y278728D01*
X673863Y278681D01*
X673863Y101610D01*
X673864Y101605D01*
X673863Y101599D01*
X673866Y101287D01*
X673645Y101067D01*
X673642Y101062D01*
X673638Y101059D01*
X673421Y100837D01*
X673110Y100837D01*
X673105Y100836D01*
X673100Y100837D01*
X559527Y99616D01*
X559476Y99608D01*
X558810Y99608D01*
X558804Y99607D01*
X558799Y99608D01*
X558487Y99605D01*
X558267Y99825D01*
G37*
%LPD*%
%LPC*%
G36*
X183153Y19081D02*
X183153Y19081D01*
X178963Y20817D01*
X175757Y24023D01*
X174021Y28213D01*
X174021Y32747D01*
X175757Y36937D01*
X178963Y40143D01*
X181802Y41319D01*
X181811Y41324D01*
X181820Y41327D01*
X181932Y41396D01*
X182045Y41463D01*
X182052Y41470D01*
X182060Y41475D01*
X182148Y41573D01*
X182238Y41669D01*
X182242Y41677D01*
X182249Y41684D01*
X182306Y41803D01*
X182366Y41920D01*
X182368Y41930D01*
X182372Y41938D01*
X182384Y42014D01*
X182418Y42197D01*
X182416Y42221D01*
X182419Y42243D01*
X182419Y43153D01*
X195987Y56721D01*
X277743Y56721D01*
X277838Y56734D01*
X277934Y56739D01*
X277977Y56754D01*
X278022Y56761D01*
X278110Y56800D01*
X278201Y56832D01*
X278235Y56857D01*
X278279Y56877D01*
X278377Y56960D01*
X278450Y57013D01*
X284997Y63560D01*
X285054Y63637D01*
X285119Y63708D01*
X285139Y63749D01*
X285166Y63786D01*
X285200Y63876D01*
X285242Y63962D01*
X285248Y64004D01*
X285265Y64050D01*
X285275Y64177D01*
X285289Y64267D01*
X285289Y69347D01*
X285288Y69356D01*
X285289Y69366D01*
X285268Y69496D01*
X285249Y69626D01*
X285246Y69635D01*
X285244Y69644D01*
X285187Y69764D01*
X285133Y69883D01*
X285127Y69890D01*
X285123Y69899D01*
X285035Y69998D01*
X284950Y70098D01*
X284942Y70103D01*
X284936Y70110D01*
X284870Y70150D01*
X284714Y70252D01*
X284691Y70259D01*
X284672Y70270D01*
X282409Y71208D01*
X279488Y74129D01*
X277907Y77945D01*
X277907Y82075D01*
X279488Y85891D01*
X282409Y88812D01*
X286225Y90393D01*
X290355Y90393D01*
X294171Y88812D01*
X297092Y85891D01*
X298673Y82075D01*
X298673Y77945D01*
X297092Y74129D01*
X294171Y71208D01*
X291908Y70270D01*
X291899Y70265D01*
X291890Y70263D01*
X291778Y70194D01*
X291665Y70127D01*
X291658Y70120D01*
X291650Y70115D01*
X291562Y70017D01*
X291472Y69921D01*
X291468Y69913D01*
X291461Y69905D01*
X291404Y69787D01*
X291344Y69669D01*
X291342Y69660D01*
X291338Y69652D01*
X291326Y69576D01*
X291292Y69392D01*
X291294Y69368D01*
X291291Y69347D01*
X291291Y61367D01*
X289240Y59317D01*
X284350Y54427D01*
X284331Y54401D01*
X284306Y54380D01*
X284246Y54288D01*
X284181Y54201D01*
X284170Y54171D01*
X284152Y54144D01*
X284120Y54039D01*
X284081Y53937D01*
X284079Y53905D01*
X284070Y53874D01*
X284068Y53765D01*
X284060Y53656D01*
X284066Y53624D01*
X284066Y53592D01*
X284095Y53487D01*
X284117Y53380D01*
X284132Y53351D01*
X284141Y53320D01*
X284198Y53227D01*
X284250Y53131D01*
X284272Y53108D01*
X284289Y53080D01*
X284370Y53007D01*
X284446Y52929D01*
X284474Y52913D01*
X284498Y52891D01*
X284597Y52844D01*
X284692Y52790D01*
X284723Y52782D01*
X284752Y52768D01*
X284841Y52754D01*
X284966Y52725D01*
X285015Y52727D01*
X285057Y52721D01*
X300793Y52721D01*
X300888Y52734D01*
X300984Y52739D01*
X301027Y52754D01*
X301072Y52761D01*
X301160Y52800D01*
X301251Y52832D01*
X301285Y52857D01*
X301329Y52877D01*
X301427Y52960D01*
X301500Y53013D01*
X310397Y61910D01*
X310454Y61987D01*
X310519Y62058D01*
X310539Y62099D01*
X310566Y62136D01*
X310600Y62226D01*
X310642Y62312D01*
X310648Y62354D01*
X310665Y62400D01*
X310675Y62527D01*
X310689Y62617D01*
X310689Y69347D01*
X310688Y69356D01*
X310689Y69366D01*
X310668Y69496D01*
X310649Y69626D01*
X310646Y69635D01*
X310644Y69644D01*
X310587Y69764D01*
X310533Y69883D01*
X310527Y69890D01*
X310523Y69899D01*
X310435Y69998D01*
X310350Y70098D01*
X310342Y70103D01*
X310336Y70110D01*
X310270Y70150D01*
X310114Y70252D01*
X310091Y70259D01*
X310072Y70270D01*
X307809Y71208D01*
X304888Y74129D01*
X303307Y77945D01*
X303307Y82075D01*
X304888Y85891D01*
X307809Y88812D01*
X311625Y90393D01*
X315755Y90393D01*
X319571Y88812D01*
X322492Y85891D01*
X324073Y82075D01*
X324073Y77945D01*
X322492Y74129D01*
X319571Y71208D01*
X317308Y70270D01*
X317299Y70265D01*
X317290Y70263D01*
X317178Y70194D01*
X317065Y70127D01*
X317058Y70120D01*
X317050Y70115D01*
X316962Y70017D01*
X316872Y69921D01*
X316868Y69913D01*
X316861Y69905D01*
X316804Y69787D01*
X316744Y69669D01*
X316742Y69660D01*
X316738Y69652D01*
X316726Y69576D01*
X316692Y69392D01*
X316694Y69368D01*
X316691Y69347D01*
X316691Y59717D01*
X314640Y57667D01*
X307400Y50427D01*
X307381Y50401D01*
X307356Y50380D01*
X307296Y50288D01*
X307231Y50201D01*
X307220Y50171D01*
X307202Y50144D01*
X307170Y50039D01*
X307131Y49937D01*
X307129Y49905D01*
X307120Y49874D01*
X307118Y49765D01*
X307110Y49656D01*
X307116Y49624D01*
X307116Y49592D01*
X307145Y49487D01*
X307167Y49380D01*
X307182Y49351D01*
X307191Y49320D01*
X307248Y49227D01*
X307300Y49131D01*
X307322Y49108D01*
X307339Y49080D01*
X307420Y49007D01*
X307496Y48929D01*
X307524Y48913D01*
X307548Y48891D01*
X307647Y48844D01*
X307742Y48790D01*
X307773Y48782D01*
X307802Y48768D01*
X307891Y48754D01*
X308016Y48725D01*
X308065Y48727D01*
X308107Y48721D01*
X322193Y48721D01*
X322288Y48734D01*
X322384Y48739D01*
X322427Y48754D01*
X322472Y48761D01*
X322560Y48800D01*
X322651Y48832D01*
X322685Y48857D01*
X322729Y48877D01*
X322827Y48960D01*
X322900Y49013D01*
X335797Y61910D01*
X335854Y61987D01*
X335919Y62058D01*
X335939Y62099D01*
X335966Y62136D01*
X336000Y62226D01*
X336042Y62312D01*
X336048Y62354D01*
X336065Y62400D01*
X336075Y62527D01*
X336089Y62617D01*
X336089Y69347D01*
X336088Y69356D01*
X336089Y69366D01*
X336068Y69496D01*
X336049Y69626D01*
X336046Y69635D01*
X336044Y69644D01*
X335987Y69764D01*
X335933Y69883D01*
X335927Y69890D01*
X335923Y69899D01*
X335835Y69998D01*
X335750Y70098D01*
X335742Y70103D01*
X335736Y70110D01*
X335670Y70150D01*
X335514Y70252D01*
X335491Y70259D01*
X335472Y70270D01*
X333209Y71208D01*
X330288Y74129D01*
X328707Y77945D01*
X328707Y82075D01*
X330288Y85891D01*
X333209Y88812D01*
X337025Y90393D01*
X341155Y90393D01*
X344971Y88812D01*
X347892Y85891D01*
X349473Y82075D01*
X349473Y77945D01*
X347892Y74129D01*
X344971Y71208D01*
X342708Y70270D01*
X342699Y70265D01*
X342690Y70263D01*
X342578Y70194D01*
X342465Y70127D01*
X342458Y70120D01*
X342450Y70115D01*
X342362Y70017D01*
X342272Y69921D01*
X342268Y69913D01*
X342261Y69905D01*
X342204Y69787D01*
X342144Y69669D01*
X342142Y69660D01*
X342138Y69652D01*
X342126Y69576D01*
X342092Y69392D01*
X342094Y69368D01*
X342091Y69347D01*
X342091Y59717D01*
X335799Y53425D01*
X335733Y53337D01*
X335661Y53253D01*
X335648Y53225D01*
X335630Y53200D01*
X335591Y53096D01*
X335546Y52996D01*
X335541Y52965D01*
X335530Y52936D01*
X335522Y52826D01*
X335506Y52717D01*
X335511Y52686D01*
X335508Y52655D01*
X335531Y52547D01*
X335547Y52437D01*
X335560Y52409D01*
X335566Y52379D01*
X335618Y52281D01*
X335664Y52181D01*
X335684Y52157D01*
X335698Y52130D01*
X335776Y52050D01*
X335847Y51967D01*
X335874Y51950D01*
X335895Y51928D01*
X335991Y51873D01*
X336084Y51813D01*
X336114Y51804D01*
X336141Y51789D01*
X336248Y51763D01*
X336354Y51731D01*
X336383Y51731D01*
X336415Y51724D01*
X336573Y51732D01*
X336662Y51732D01*
X337091Y51800D01*
X337091Y43909D01*
X329200Y43909D01*
X329268Y44338D01*
X329270Y44448D01*
X329278Y44558D01*
X329272Y44589D01*
X329273Y44620D01*
X329243Y44727D01*
X329221Y44835D01*
X329206Y44862D01*
X329198Y44892D01*
X329140Y44986D01*
X329088Y45084D01*
X329067Y45106D01*
X329050Y45132D01*
X328969Y45207D01*
X328892Y45286D01*
X328865Y45301D01*
X328841Y45322D01*
X328742Y45370D01*
X328646Y45425D01*
X328616Y45432D01*
X328588Y45445D01*
X328479Y45464D01*
X328372Y45490D01*
X328341Y45488D01*
X328310Y45493D01*
X328200Y45481D01*
X328090Y45475D01*
X328061Y45465D01*
X328030Y45461D01*
X327928Y45419D01*
X327824Y45383D01*
X327800Y45365D01*
X327770Y45353D01*
X327647Y45254D01*
X327575Y45201D01*
X325093Y42719D01*
X292282Y42719D01*
X292196Y42707D01*
X292109Y42704D01*
X292057Y42687D01*
X292002Y42679D01*
X291923Y42644D01*
X291841Y42617D01*
X291795Y42586D01*
X291745Y42563D01*
X291680Y42507D01*
X291608Y42458D01*
X291573Y42416D01*
X291531Y42380D01*
X291484Y42307D01*
X291428Y42240D01*
X291407Y42190D01*
X291377Y42144D01*
X291351Y42061D01*
X291317Y41981D01*
X291310Y41927D01*
X291294Y41874D01*
X291293Y41787D01*
X291283Y41701D01*
X291291Y41647D01*
X291291Y41592D01*
X291314Y41508D01*
X291328Y41423D01*
X291351Y41373D01*
X291366Y41320D01*
X291411Y41246D01*
X291449Y41168D01*
X291485Y41127D01*
X291514Y41080D01*
X291578Y41022D01*
X291636Y40957D01*
X291680Y40931D01*
X291723Y40891D01*
X291826Y40842D01*
X291899Y40797D01*
X293477Y40143D01*
X296683Y36937D01*
X298419Y32747D01*
X298419Y28213D01*
X296683Y24023D01*
X293477Y20817D01*
X289287Y19081D01*
X284753Y19081D01*
X280563Y20817D01*
X277357Y24023D01*
X275621Y28213D01*
X275621Y32747D01*
X277357Y36937D01*
X280563Y40143D01*
X282141Y40797D01*
X282215Y40841D01*
X282295Y40877D01*
X282336Y40912D01*
X282383Y40940D01*
X282443Y41004D01*
X282509Y41060D01*
X282539Y41106D01*
X282576Y41146D01*
X282616Y41223D01*
X282663Y41296D01*
X282679Y41349D01*
X282704Y41398D01*
X282720Y41483D01*
X282746Y41566D01*
X282746Y41621D01*
X282757Y41675D01*
X282748Y41761D01*
X282749Y41848D01*
X282735Y41901D01*
X282729Y41955D01*
X282697Y42036D01*
X282674Y42120D01*
X282645Y42166D01*
X282625Y42217D01*
X282572Y42286D01*
X282526Y42360D01*
X282485Y42396D01*
X282452Y42440D01*
X282381Y42491D01*
X282317Y42549D01*
X282267Y42573D01*
X282223Y42605D01*
X282141Y42634D01*
X282063Y42672D01*
X282013Y42680D01*
X281957Y42699D01*
X281844Y42706D01*
X281758Y42719D01*
X266882Y42719D01*
X266796Y42707D01*
X266709Y42704D01*
X266657Y42687D01*
X266602Y42679D01*
X266523Y42644D01*
X266441Y42617D01*
X266395Y42586D01*
X266345Y42563D01*
X266280Y42507D01*
X266208Y42458D01*
X266173Y42416D01*
X266131Y42380D01*
X266084Y42307D01*
X266028Y42240D01*
X266007Y42190D01*
X265977Y42144D01*
X265951Y42061D01*
X265917Y41981D01*
X265910Y41927D01*
X265894Y41874D01*
X265893Y41787D01*
X265883Y41701D01*
X265891Y41647D01*
X265891Y41592D01*
X265914Y41508D01*
X265928Y41423D01*
X265951Y41373D01*
X265966Y41320D01*
X266011Y41246D01*
X266049Y41168D01*
X266085Y41127D01*
X266114Y41080D01*
X266178Y41022D01*
X266236Y40957D01*
X266280Y40931D01*
X266323Y40891D01*
X266426Y40842D01*
X266499Y40797D01*
X268077Y40143D01*
X271283Y36937D01*
X273019Y32747D01*
X273019Y28213D01*
X271283Y24023D01*
X268077Y20817D01*
X263887Y19081D01*
X259353Y19081D01*
X255163Y20817D01*
X251957Y24023D01*
X250221Y28213D01*
X250221Y32747D01*
X251957Y36937D01*
X255163Y40143D01*
X256741Y40797D01*
X256815Y40841D01*
X256895Y40877D01*
X256936Y40912D01*
X256983Y40940D01*
X257043Y41004D01*
X257109Y41060D01*
X257139Y41106D01*
X257176Y41146D01*
X257216Y41223D01*
X257263Y41296D01*
X257279Y41349D01*
X257304Y41398D01*
X257320Y41483D01*
X257346Y41566D01*
X257346Y41621D01*
X257357Y41675D01*
X257348Y41761D01*
X257349Y41848D01*
X257335Y41901D01*
X257329Y41955D01*
X257297Y42036D01*
X257274Y42120D01*
X257245Y42166D01*
X257225Y42217D01*
X257172Y42286D01*
X257126Y42360D01*
X257085Y42396D01*
X257052Y42440D01*
X256981Y42491D01*
X256917Y42549D01*
X256867Y42573D01*
X256823Y42605D01*
X256741Y42634D01*
X256663Y42672D01*
X256613Y42680D01*
X256557Y42699D01*
X256444Y42706D01*
X256358Y42719D01*
X249307Y42719D01*
X249212Y42706D01*
X249116Y42701D01*
X249073Y42686D01*
X249028Y42679D01*
X248940Y42640D01*
X248849Y42608D01*
X248815Y42583D01*
X248771Y42563D01*
X248673Y42480D01*
X248600Y42427D01*
X245204Y39030D01*
X245165Y38979D01*
X245119Y38934D01*
X245081Y38866D01*
X245034Y38804D01*
X245012Y38744D01*
X244980Y38688D01*
X244962Y38613D01*
X244935Y38540D01*
X244930Y38476D01*
X244915Y38414D01*
X244919Y38336D01*
X244913Y38259D01*
X244926Y38196D01*
X244929Y38132D01*
X244955Y38059D01*
X244971Y37983D01*
X245001Y37926D01*
X245022Y37866D01*
X245063Y37809D01*
X245103Y37734D01*
X245162Y37673D01*
X245204Y37617D01*
X245883Y36937D01*
X247619Y32747D01*
X247619Y28213D01*
X245883Y24023D01*
X242677Y20817D01*
X238487Y19081D01*
X233953Y19081D01*
X229763Y20817D01*
X226557Y24023D01*
X224821Y28213D01*
X224821Y32747D01*
X226557Y36937D01*
X229763Y40143D01*
X233953Y41879D01*
X238487Y41879D01*
X238633Y41819D01*
X238642Y41816D01*
X238650Y41812D01*
X238779Y41781D01*
X238906Y41749D01*
X238915Y41749D01*
X238924Y41747D01*
X239057Y41753D01*
X239188Y41758D01*
X239197Y41760D01*
X239206Y41761D01*
X239331Y41804D01*
X239456Y41845D01*
X239464Y41850D01*
X239473Y41853D01*
X239535Y41899D01*
X239689Y42004D01*
X239704Y42023D01*
X239722Y42035D01*
X242700Y45013D01*
X242719Y45039D01*
X242744Y45060D01*
X242804Y45152D01*
X242869Y45239D01*
X242880Y45269D01*
X242898Y45296D01*
X242930Y45401D01*
X242969Y45503D01*
X242971Y45535D01*
X242980Y45566D01*
X242982Y45675D01*
X242990Y45784D01*
X242984Y45816D01*
X242984Y45848D01*
X242955Y45953D01*
X242933Y46060D01*
X242918Y46089D01*
X242909Y46120D01*
X242852Y46213D01*
X242800Y46309D01*
X242778Y46332D01*
X242761Y46360D01*
X242680Y46433D01*
X242604Y46511D01*
X242576Y46527D01*
X242552Y46549D01*
X242453Y46596D01*
X242358Y46650D01*
X242327Y46658D01*
X242298Y46672D01*
X242209Y46686D01*
X242084Y46715D01*
X242035Y46713D01*
X241993Y46719D01*
X224097Y46719D01*
X224002Y46706D01*
X223906Y46701D01*
X223863Y46686D01*
X223818Y46679D01*
X223730Y46640D01*
X223639Y46608D01*
X223605Y46583D01*
X223561Y46563D01*
X223463Y46480D01*
X223390Y46427D01*
X217899Y40935D01*
X217860Y40883D01*
X217814Y40839D01*
X217776Y40771D01*
X217729Y40709D01*
X217707Y40649D01*
X217675Y40593D01*
X217657Y40518D01*
X217630Y40445D01*
X217625Y40381D01*
X217610Y40319D01*
X217614Y40241D01*
X217608Y40164D01*
X217621Y40101D01*
X217624Y40037D01*
X217650Y39964D01*
X217666Y39888D01*
X217696Y39831D01*
X217717Y39771D01*
X217758Y39714D01*
X217798Y39639D01*
X217857Y39578D01*
X217899Y39522D01*
X220483Y36937D01*
X222219Y32747D01*
X222219Y28213D01*
X220483Y24023D01*
X217277Y20817D01*
X213087Y19081D01*
X208553Y19081D01*
X204363Y20817D01*
X201157Y24023D01*
X199421Y28213D01*
X199421Y32747D01*
X201157Y36937D01*
X204363Y40143D01*
X208553Y41879D01*
X209941Y41879D01*
X210036Y41892D01*
X210132Y41897D01*
X210175Y41912D01*
X210220Y41919D01*
X210308Y41958D01*
X210399Y41990D01*
X210433Y42015D01*
X210477Y42035D01*
X210575Y42118D01*
X210648Y42171D01*
X217490Y49013D01*
X217509Y49039D01*
X217534Y49060D01*
X217594Y49152D01*
X217659Y49239D01*
X217670Y49269D01*
X217688Y49296D01*
X217720Y49401D01*
X217759Y49503D01*
X217761Y49535D01*
X217770Y49566D01*
X217772Y49675D01*
X217780Y49784D01*
X217774Y49816D01*
X217774Y49848D01*
X217745Y49953D01*
X217723Y50060D01*
X217708Y50089D01*
X217699Y50120D01*
X217642Y50213D01*
X217590Y50309D01*
X217568Y50332D01*
X217551Y50360D01*
X217470Y50433D01*
X217394Y50511D01*
X217366Y50527D01*
X217342Y50549D01*
X217243Y50596D01*
X217148Y50650D01*
X217117Y50658D01*
X217088Y50672D01*
X216999Y50686D01*
X216874Y50715D01*
X216825Y50713D01*
X216783Y50719D01*
X198887Y50719D01*
X198792Y50706D01*
X198696Y50701D01*
X198653Y50686D01*
X198608Y50679D01*
X198520Y50640D01*
X198429Y50608D01*
X198395Y50583D01*
X198351Y50563D01*
X198253Y50480D01*
X198180Y50427D01*
X190120Y42366D01*
X190049Y42272D01*
X189974Y42180D01*
X189965Y42159D01*
X189951Y42141D01*
X189909Y42030D01*
X189862Y41921D01*
X189859Y41898D01*
X189851Y41877D01*
X189842Y41759D01*
X189828Y41641D01*
X189831Y41619D01*
X189830Y41596D01*
X189854Y41480D01*
X189873Y41363D01*
X189883Y41342D01*
X189887Y41320D01*
X189943Y41215D01*
X189994Y41108D01*
X190009Y41091D01*
X190020Y41071D01*
X190102Y40986D01*
X190181Y40897D01*
X190200Y40886D01*
X190216Y40869D01*
X190379Y40777D01*
X190444Y40737D01*
X191877Y40143D01*
X195083Y36937D01*
X196819Y32747D01*
X196819Y28213D01*
X195083Y24023D01*
X191877Y20817D01*
X187687Y19081D01*
X183153Y19081D01*
G37*
%LPD*%
%LPC*%
G36*
X230599Y113918D02*
X230599Y113918D01*
X230599Y123460D01*
X230590Y123524D01*
X230591Y123588D01*
X230570Y123662D01*
X230559Y123739D01*
X230533Y123798D01*
X230516Y123860D01*
X230475Y123926D01*
X230443Y123996D01*
X230401Y124045D01*
X230368Y124100D01*
X230310Y124151D01*
X230260Y124210D01*
X230206Y124246D01*
X230158Y124289D01*
X230089Y124322D01*
X230024Y124365D01*
X229962Y124384D01*
X229905Y124412D01*
X229835Y124422D01*
X229754Y124447D01*
X229669Y124448D01*
X229600Y124459D01*
X228599Y124459D01*
X228599Y124461D01*
X229600Y124461D01*
X229664Y124470D01*
X229728Y124469D01*
X229803Y124490D01*
X229879Y124501D01*
X229938Y124527D01*
X230000Y124544D01*
X230066Y124585D01*
X230136Y124617D01*
X230185Y124659D01*
X230240Y124692D01*
X230292Y124750D01*
X230350Y124800D01*
X230386Y124854D01*
X230429Y124902D01*
X230462Y124971D01*
X230505Y125036D01*
X230524Y125098D01*
X230552Y125156D01*
X230562Y125225D01*
X230587Y125306D01*
X230588Y125391D01*
X230599Y125460D01*
X230599Y135002D01*
X234777Y135002D01*
X235423Y134829D01*
X236099Y134438D01*
X236168Y134410D01*
X236233Y134374D01*
X236298Y134358D01*
X236360Y134333D01*
X236435Y134326D01*
X236508Y134309D01*
X236574Y134312D01*
X236641Y134305D01*
X236715Y134319D01*
X236789Y134323D01*
X236853Y134345D01*
X236918Y134357D01*
X236985Y134391D01*
X237056Y134415D01*
X237105Y134452D01*
X237125Y134462D01*
X238000Y134462D01*
X238117Y134478D01*
X238235Y134490D01*
X238256Y134498D01*
X238279Y134502D01*
X238387Y134550D01*
X238497Y134594D01*
X238515Y134608D01*
X238536Y134618D01*
X238626Y134695D01*
X238719Y134768D01*
X238733Y134786D01*
X238750Y134801D01*
X238815Y134901D01*
X238884Y134997D01*
X238892Y135018D01*
X238905Y135037D01*
X238939Y135151D01*
X238979Y135262D01*
X238980Y135285D01*
X238987Y135307D01*
X238988Y135425D01*
X238995Y135544D01*
X238990Y135565D01*
X238991Y135589D01*
X238941Y135768D01*
X238923Y135843D01*
X238234Y137507D01*
X238212Y137543D01*
X238199Y137582D01*
X238148Y137652D01*
X238090Y137750D01*
X238047Y137790D01*
X238017Y137831D01*
X235902Y139947D01*
X235825Y140004D01*
X235754Y140069D01*
X235713Y140089D01*
X235676Y140116D01*
X235586Y140150D01*
X235500Y140192D01*
X235458Y140198D01*
X235412Y140215D01*
X235285Y140225D01*
X235195Y140239D01*
X206765Y140239D01*
X206670Y140226D01*
X206574Y140221D01*
X206530Y140206D01*
X206486Y140199D01*
X206398Y140160D01*
X206307Y140128D01*
X206273Y140103D01*
X206229Y140083D01*
X206131Y140000D01*
X206058Y139947D01*
X202953Y136842D01*
X202896Y136765D01*
X202831Y136694D01*
X202811Y136653D01*
X202784Y136616D01*
X202750Y136526D01*
X202708Y136440D01*
X202702Y136398D01*
X202685Y136352D01*
X202675Y136225D01*
X202661Y136135D01*
X202661Y135461D01*
X202670Y135397D01*
X202669Y135333D01*
X202690Y135258D01*
X202701Y135182D01*
X202727Y135123D01*
X202744Y135061D01*
X202785Y134995D01*
X202817Y134925D01*
X202859Y134876D01*
X202892Y134821D01*
X202950Y134769D01*
X203000Y134711D01*
X203054Y134675D01*
X203102Y134632D01*
X203171Y134599D01*
X203236Y134556D01*
X203298Y134537D01*
X203355Y134509D01*
X203425Y134498D01*
X203506Y134474D01*
X203591Y134473D01*
X203660Y134462D01*
X204791Y134462D01*
X205963Y133290D01*
X205963Y115630D01*
X204791Y114458D01*
X191449Y114458D01*
X191207Y114701D01*
X191155Y114739D01*
X191110Y114786D01*
X191043Y114824D01*
X190981Y114870D01*
X190921Y114893D01*
X190865Y114925D01*
X190790Y114942D01*
X190717Y114970D01*
X190653Y114975D01*
X190590Y114990D01*
X190513Y114986D01*
X190436Y114992D01*
X190373Y114978D01*
X190309Y114975D01*
X190236Y114950D01*
X190160Y114934D01*
X190103Y114904D01*
X190042Y114883D01*
X189986Y114841D01*
X189911Y114802D01*
X189850Y114742D01*
X189793Y114701D01*
X189551Y114458D01*
X176209Y114458D01*
X175037Y115630D01*
X175037Y133290D01*
X175253Y133505D01*
X175310Y133582D01*
X175375Y133653D01*
X175395Y133694D01*
X175422Y133731D01*
X175456Y133821D01*
X175498Y133907D01*
X175504Y133949D01*
X175521Y133994D01*
X175531Y134122D01*
X175545Y134212D01*
X175545Y148526D01*
X176469Y150755D01*
X184193Y158479D01*
X184250Y158556D01*
X184315Y158628D01*
X184335Y158669D01*
X184362Y158705D01*
X184396Y158795D01*
X184438Y158881D01*
X184444Y158923D01*
X184461Y158969D01*
X184471Y159096D01*
X184485Y159186D01*
X184485Y161300D01*
X184476Y161364D01*
X184477Y161428D01*
X184456Y161503D01*
X184445Y161579D01*
X184419Y161638D01*
X184402Y161700D01*
X184361Y161766D01*
X184329Y161836D01*
X184287Y161885D01*
X184254Y161940D01*
X184196Y161992D01*
X184146Y162050D01*
X184092Y162086D01*
X184044Y162129D01*
X183975Y162162D01*
X183910Y162205D01*
X183848Y162224D01*
X183791Y162252D01*
X183721Y162263D01*
X183640Y162287D01*
X183555Y162288D01*
X183486Y162299D01*
X176971Y162299D01*
X175799Y163471D01*
X175799Y192129D01*
X176971Y193301D01*
X185578Y193301D01*
X185642Y193310D01*
X185706Y193309D01*
X185781Y193330D01*
X185857Y193341D01*
X185916Y193367D01*
X185978Y193384D01*
X186044Y193425D01*
X186114Y193457D01*
X186163Y193499D01*
X186218Y193532D01*
X186270Y193590D01*
X186328Y193640D01*
X186364Y193694D01*
X186407Y193742D01*
X186440Y193811D01*
X186483Y193876D01*
X186502Y193938D01*
X186530Y193995D01*
X186541Y194065D01*
X186565Y194146D01*
X186566Y194231D01*
X186577Y194300D01*
X186577Y204360D01*
X186568Y204424D01*
X186569Y204488D01*
X186548Y204563D01*
X186537Y204639D01*
X186511Y204698D01*
X186494Y204760D01*
X186453Y204826D01*
X186421Y204896D01*
X186379Y204945D01*
X186346Y205000D01*
X186288Y205052D01*
X186238Y205110D01*
X186184Y205146D01*
X186136Y205189D01*
X186067Y205222D01*
X186002Y205265D01*
X185940Y205284D01*
X185883Y205312D01*
X185819Y205322D01*
X184609Y206531D01*
X184609Y220189D01*
X185781Y221361D01*
X195439Y221361D01*
X196298Y220502D01*
X196331Y220477D01*
X196359Y220446D01*
X196432Y220401D01*
X196523Y220332D01*
X196578Y220312D01*
X196622Y220285D01*
X198435Y219534D01*
X200484Y217485D01*
X201593Y214809D01*
X201593Y211911D01*
X200484Y209235D01*
X198435Y207186D01*
X196622Y206435D01*
X196586Y206414D01*
X196547Y206400D01*
X196477Y206349D01*
X196379Y206291D01*
X196339Y206248D01*
X196298Y206218D01*
X195405Y205325D01*
X195363Y205319D01*
X195304Y205293D01*
X195242Y205276D01*
X195176Y205235D01*
X195106Y205203D01*
X195057Y205161D01*
X195002Y205128D01*
X194950Y205070D01*
X194892Y205020D01*
X194856Y204966D01*
X194813Y204918D01*
X194780Y204849D01*
X194737Y204784D01*
X194718Y204722D01*
X194690Y204665D01*
X194679Y204595D01*
X194655Y204514D01*
X194654Y204429D01*
X194643Y204360D01*
X194643Y194300D01*
X194652Y194236D01*
X194651Y194172D01*
X194672Y194097D01*
X194683Y194021D01*
X194709Y193962D01*
X194726Y193900D01*
X194767Y193834D01*
X194799Y193764D01*
X194841Y193715D01*
X194874Y193660D01*
X194932Y193608D01*
X194982Y193550D01*
X195036Y193514D01*
X195084Y193471D01*
X195153Y193438D01*
X195218Y193395D01*
X195280Y193376D01*
X195337Y193348D01*
X195407Y193337D01*
X195488Y193313D01*
X195573Y193312D01*
X195642Y193301D01*
X204129Y193301D01*
X205301Y192129D01*
X205301Y185480D01*
X205302Y185471D01*
X205301Y185462D01*
X205322Y185332D01*
X205341Y185201D01*
X205344Y185192D01*
X205346Y185183D01*
X205403Y185064D01*
X205457Y184944D01*
X205463Y184937D01*
X205467Y184928D01*
X205555Y184830D01*
X205640Y184730D01*
X205648Y184725D01*
X205654Y184718D01*
X205720Y184678D01*
X205876Y184575D01*
X205899Y184568D01*
X205918Y184557D01*
X207325Y183974D01*
X209374Y181925D01*
X210483Y179249D01*
X210483Y176351D01*
X209374Y173675D01*
X207325Y171626D01*
X205918Y171043D01*
X205909Y171038D01*
X205900Y171036D01*
X205788Y170966D01*
X205675Y170899D01*
X205668Y170892D01*
X205660Y170887D01*
X205572Y170789D01*
X205482Y170694D01*
X205478Y170685D01*
X205471Y170678D01*
X205414Y170560D01*
X205354Y170442D01*
X205352Y170433D01*
X205348Y170424D01*
X205336Y170348D01*
X205302Y170165D01*
X205304Y170141D01*
X205301Y170120D01*
X205301Y163471D01*
X204129Y162299D01*
X197614Y162299D01*
X197550Y162290D01*
X197486Y162291D01*
X197411Y162270D01*
X197335Y162259D01*
X197276Y162233D01*
X197214Y162216D01*
X197148Y162175D01*
X197078Y162143D01*
X197029Y162101D01*
X196974Y162068D01*
X196922Y162010D01*
X196864Y161960D01*
X196828Y161906D01*
X196785Y161858D01*
X196752Y161789D01*
X196709Y161724D01*
X196690Y161662D01*
X196662Y161605D01*
X196651Y161535D01*
X196627Y161454D01*
X196626Y161369D01*
X196615Y161300D01*
X196615Y155054D01*
X195691Y152825D01*
X187967Y145101D01*
X187910Y145024D01*
X187845Y144952D01*
X187825Y144911D01*
X187798Y144875D01*
X187764Y144785D01*
X187722Y144699D01*
X187716Y144657D01*
X187699Y144611D01*
X187689Y144484D01*
X187675Y144394D01*
X187675Y135461D01*
X187684Y135397D01*
X187683Y135333D01*
X187704Y135258D01*
X187715Y135182D01*
X187741Y135123D01*
X187758Y135061D01*
X187799Y134995D01*
X187831Y134925D01*
X187873Y134876D01*
X187906Y134821D01*
X187964Y134769D01*
X188014Y134711D01*
X188068Y134675D01*
X188116Y134632D01*
X188185Y134599D01*
X188250Y134556D01*
X188312Y134537D01*
X188369Y134509D01*
X188439Y134498D01*
X188520Y134474D01*
X188605Y134473D01*
X188674Y134462D01*
X189551Y134462D01*
X189793Y134219D01*
X189845Y134180D01*
X189890Y134134D01*
X189957Y134096D01*
X190019Y134050D01*
X190079Y134027D01*
X190135Y133995D01*
X190210Y133978D01*
X190283Y133950D01*
X190347Y133945D01*
X190409Y133930D01*
X190487Y133934D01*
X190564Y133928D01*
X190627Y133942D01*
X190691Y133945D01*
X190764Y133970D01*
X190840Y133986D01*
X190897Y134016D01*
X190958Y134037D01*
X191014Y134079D01*
X191089Y134118D01*
X191150Y134178D01*
X191207Y134219D01*
X191449Y134462D01*
X192580Y134462D01*
X192644Y134471D01*
X192708Y134470D01*
X192783Y134491D01*
X192859Y134502D01*
X192918Y134528D01*
X192980Y134545D01*
X193046Y134586D01*
X193116Y134618D01*
X193165Y134660D01*
X193220Y134693D01*
X193272Y134751D01*
X193330Y134801D01*
X193366Y134855D01*
X193409Y134903D01*
X193442Y134972D01*
X193485Y135037D01*
X193504Y135099D01*
X193532Y135156D01*
X193543Y135226D01*
X193567Y135307D01*
X193568Y135392D01*
X193579Y135461D01*
X193579Y140311D01*
X202589Y149321D01*
X239371Y149321D01*
X244439Y144253D01*
X244472Y144228D01*
X244500Y144197D01*
X244573Y144152D01*
X244664Y144084D01*
X244719Y144063D01*
X244763Y144036D01*
X246974Y143120D01*
X248530Y141564D01*
X249373Y139531D01*
X249373Y137329D01*
X248757Y135843D01*
X248728Y135729D01*
X248693Y135615D01*
X248693Y135592D01*
X248687Y135570D01*
X248691Y135452D01*
X248689Y135333D01*
X248695Y135311D01*
X248696Y135288D01*
X248733Y135176D01*
X248765Y135061D01*
X248777Y135042D01*
X248784Y135020D01*
X248850Y134922D01*
X248913Y134821D01*
X248930Y134806D01*
X248942Y134787D01*
X249034Y134712D01*
X249122Y134632D01*
X249143Y134622D01*
X249160Y134608D01*
X249269Y134561D01*
X249376Y134509D01*
X249397Y134506D01*
X249419Y134496D01*
X249604Y134474D01*
X249680Y134462D01*
X250511Y134462D01*
X251683Y133290D01*
X251683Y115630D01*
X250511Y114458D01*
X237124Y114458D01*
X237079Y114492D01*
X237009Y114518D01*
X236943Y114554D01*
X236878Y114568D01*
X236815Y114592D01*
X236741Y114597D01*
X236667Y114613D01*
X236601Y114608D01*
X236534Y114613D01*
X236461Y114598D01*
X236386Y114593D01*
X236329Y114571D01*
X236258Y114556D01*
X236172Y114510D01*
X236099Y114482D01*
X235423Y114091D01*
X234777Y113918D01*
X230599Y113918D01*
G37*
%LPD*%
%LPC*%
G36*
X166489Y102679D02*
X166489Y102679D01*
X158019Y111149D01*
X158019Y113459D01*
X158010Y113523D01*
X158011Y113587D01*
X157990Y113662D01*
X157979Y113738D01*
X157953Y113797D01*
X157936Y113859D01*
X157895Y113925D01*
X157863Y113995D01*
X157821Y114044D01*
X157788Y114099D01*
X157730Y114151D01*
X157680Y114209D01*
X157626Y114245D01*
X157578Y114288D01*
X157509Y114321D01*
X157444Y114364D01*
X157382Y114383D01*
X157325Y114411D01*
X157255Y114422D01*
X157174Y114446D01*
X157089Y114447D01*
X157020Y114458D01*
X155844Y114458D01*
X155799Y114492D01*
X155729Y114518D01*
X155663Y114554D01*
X155598Y114568D01*
X155535Y114592D01*
X155461Y114597D01*
X155387Y114613D01*
X155321Y114608D01*
X155254Y114613D01*
X155181Y114598D01*
X155106Y114593D01*
X155049Y114571D01*
X154978Y114556D01*
X154892Y114510D01*
X154819Y114482D01*
X154143Y114091D01*
X153497Y113918D01*
X149319Y113918D01*
X149319Y123460D01*
X149310Y123524D01*
X149311Y123588D01*
X149290Y123662D01*
X149279Y123739D01*
X149253Y123798D01*
X149236Y123860D01*
X149195Y123926D01*
X149163Y123996D01*
X149121Y124045D01*
X149088Y124100D01*
X149030Y124151D01*
X148980Y124210D01*
X148926Y124246D01*
X148878Y124289D01*
X148809Y124322D01*
X148744Y124365D01*
X148682Y124384D01*
X148625Y124412D01*
X148555Y124422D01*
X148474Y124447D01*
X148389Y124448D01*
X148320Y124459D01*
X147319Y124459D01*
X147319Y124461D01*
X148320Y124461D01*
X148384Y124470D01*
X148448Y124469D01*
X148523Y124490D01*
X148599Y124501D01*
X148658Y124527D01*
X148720Y124544D01*
X148786Y124585D01*
X148856Y124617D01*
X148905Y124659D01*
X148960Y124692D01*
X149012Y124750D01*
X149070Y124800D01*
X149106Y124854D01*
X149149Y124902D01*
X149182Y124971D01*
X149225Y125036D01*
X149244Y125098D01*
X149272Y125156D01*
X149282Y125225D01*
X149307Y125306D01*
X149308Y125391D01*
X149319Y125460D01*
X149319Y135002D01*
X153497Y135002D01*
X154143Y134829D01*
X154819Y134438D01*
X154888Y134410D01*
X154953Y134374D01*
X155018Y134358D01*
X155080Y134333D01*
X155155Y134326D01*
X155228Y134309D01*
X155294Y134312D01*
X155361Y134305D01*
X155435Y134319D01*
X155509Y134323D01*
X155573Y134345D01*
X155638Y134357D01*
X155705Y134391D01*
X155776Y134415D01*
X155825Y134452D01*
X155845Y134462D01*
X169231Y134462D01*
X170403Y133290D01*
X170403Y115630D01*
X169099Y114326D01*
X169060Y114275D01*
X169014Y114230D01*
X168976Y114162D01*
X168929Y114101D01*
X168907Y114041D01*
X168875Y113985D01*
X168857Y113909D01*
X168830Y113837D01*
X168825Y113773D01*
X168810Y113710D01*
X168814Y113633D01*
X168808Y113555D01*
X168821Y113493D01*
X168824Y113428D01*
X168850Y113355D01*
X168866Y113279D01*
X168896Y113223D01*
X168917Y113162D01*
X168958Y113105D01*
X168998Y113030D01*
X169057Y112970D01*
X169099Y112913D01*
X169958Y112053D01*
X170035Y111996D01*
X170106Y111931D01*
X170147Y111911D01*
X170184Y111884D01*
X170274Y111850D01*
X170360Y111808D01*
X170402Y111802D01*
X170448Y111785D01*
X170575Y111775D01*
X170665Y111761D01*
X272565Y111761D01*
X272660Y111774D01*
X272756Y111779D01*
X272799Y111794D01*
X272844Y111801D01*
X272932Y111840D01*
X273023Y111872D01*
X273057Y111897D01*
X273101Y111917D01*
X273199Y112000D01*
X273272Y112053D01*
X273971Y112752D01*
X273990Y112778D01*
X274015Y112799D01*
X274075Y112891D01*
X274140Y112978D01*
X274152Y113008D01*
X274169Y113035D01*
X274201Y113140D01*
X274240Y113242D01*
X274242Y113274D01*
X274252Y113305D01*
X274253Y113414D01*
X274262Y113523D01*
X274255Y113555D01*
X274255Y113587D01*
X274226Y113692D01*
X274204Y113799D01*
X274189Y113828D01*
X274180Y113859D01*
X274123Y113952D01*
X274071Y114048D01*
X274049Y114071D01*
X274032Y114099D01*
X273951Y114172D01*
X273875Y114250D01*
X273847Y114266D01*
X273823Y114288D01*
X273724Y114335D01*
X273629Y114389D01*
X273598Y114397D01*
X273569Y114411D01*
X273479Y114425D01*
X273355Y114454D01*
X273306Y114452D01*
X273264Y114458D01*
X272729Y114458D01*
X272487Y114701D01*
X272435Y114739D01*
X272390Y114786D01*
X272323Y114824D01*
X272261Y114870D01*
X272201Y114893D01*
X272145Y114925D01*
X272070Y114942D01*
X271997Y114970D01*
X271933Y114975D01*
X271870Y114990D01*
X271793Y114986D01*
X271716Y114992D01*
X271653Y114978D01*
X271589Y114975D01*
X271516Y114950D01*
X271440Y114934D01*
X271383Y114904D01*
X271322Y114883D01*
X271266Y114841D01*
X271191Y114802D01*
X271130Y114742D01*
X271073Y114701D01*
X270831Y114458D01*
X257489Y114458D01*
X256317Y115630D01*
X256317Y133290D01*
X257697Y134669D01*
X257736Y134693D01*
X257788Y134751D01*
X257846Y134801D01*
X257882Y134855D01*
X257925Y134903D01*
X257958Y134972D01*
X258001Y135037D01*
X258020Y135099D01*
X258048Y135156D01*
X258059Y135226D01*
X258083Y135307D01*
X258084Y135392D01*
X258095Y135461D01*
X258095Y147256D01*
X259019Y149485D01*
X260725Y151191D01*
X262954Y152115D01*
X265366Y152115D01*
X267595Y151191D01*
X269301Y149485D01*
X270225Y147256D01*
X270225Y135461D01*
X270234Y135397D01*
X270233Y135333D01*
X270254Y135258D01*
X270265Y135182D01*
X270291Y135123D01*
X270308Y135061D01*
X270349Y134995D01*
X270381Y134925D01*
X270423Y134876D01*
X270456Y134821D01*
X270514Y134769D01*
X270564Y134711D01*
X270616Y134677D01*
X271073Y134219D01*
X271125Y134180D01*
X271170Y134134D01*
X271237Y134096D01*
X271299Y134050D01*
X271359Y134027D01*
X271415Y133995D01*
X271490Y133978D01*
X271563Y133950D01*
X271627Y133945D01*
X271689Y133930D01*
X271767Y133934D01*
X271844Y133928D01*
X271907Y133942D01*
X271971Y133945D01*
X272044Y133970D01*
X272120Y133986D01*
X272177Y134016D01*
X272238Y134037D01*
X272294Y134079D01*
X272369Y134118D01*
X272430Y134178D01*
X272487Y134219D01*
X272937Y134669D01*
X272976Y134693D01*
X273028Y134751D01*
X273086Y134801D01*
X273122Y134855D01*
X273165Y134903D01*
X273198Y134972D01*
X273241Y135037D01*
X273260Y135099D01*
X273288Y135156D01*
X273299Y135226D01*
X273323Y135307D01*
X273324Y135392D01*
X273335Y135461D01*
X273335Y149796D01*
X274259Y152025D01*
X281045Y158811D01*
X283274Y159735D01*
X288699Y159735D01*
X288794Y159748D01*
X288890Y159753D01*
X288933Y159768D01*
X288978Y159775D01*
X289066Y159814D01*
X289157Y159846D01*
X289191Y159871D01*
X289235Y159891D01*
X289332Y159974D01*
X289406Y160027D01*
X292281Y162903D01*
X296284Y164561D01*
X300616Y164561D01*
X304619Y162903D01*
X307683Y159839D01*
X309341Y155836D01*
X309341Y151504D01*
X307683Y147501D01*
X304619Y144437D01*
X300616Y142779D01*
X296284Y142779D01*
X292281Y144437D01*
X289406Y147313D01*
X289329Y147370D01*
X289257Y147435D01*
X289216Y147455D01*
X289180Y147482D01*
X289090Y147516D01*
X289004Y147558D01*
X288962Y147564D01*
X288916Y147581D01*
X288789Y147591D01*
X288699Y147605D01*
X287406Y147605D01*
X287311Y147592D01*
X287215Y147587D01*
X287172Y147572D01*
X287127Y147565D01*
X287039Y147526D01*
X286948Y147494D01*
X286914Y147469D01*
X286870Y147449D01*
X286772Y147366D01*
X286699Y147313D01*
X285757Y146371D01*
X285700Y146294D01*
X285635Y146222D01*
X285615Y146181D01*
X285588Y146145D01*
X285554Y146055D01*
X285512Y145969D01*
X285506Y145927D01*
X285489Y145881D01*
X285479Y145754D01*
X285465Y145664D01*
X285465Y135461D01*
X285474Y135397D01*
X285473Y135333D01*
X285494Y135258D01*
X285505Y135182D01*
X285531Y135123D01*
X285548Y135061D01*
X285589Y134995D01*
X285621Y134925D01*
X285663Y134876D01*
X285696Y134821D01*
X285754Y134769D01*
X285804Y134711D01*
X285856Y134677D01*
X287243Y133290D01*
X287243Y115630D01*
X286071Y114458D01*
X284940Y114458D01*
X284876Y114449D01*
X284812Y114450D01*
X284737Y114429D01*
X284661Y114418D01*
X284602Y114392D01*
X284540Y114375D01*
X284474Y114334D01*
X284404Y114302D01*
X284355Y114260D01*
X284300Y114227D01*
X284248Y114169D01*
X284190Y114119D01*
X284154Y114065D01*
X284111Y114017D01*
X284078Y113948D01*
X284035Y113883D01*
X284016Y113821D01*
X283988Y113764D01*
X283977Y113694D01*
X283953Y113613D01*
X283952Y113528D01*
X283941Y113459D01*
X283941Y109879D01*
X276741Y102679D01*
X166489Y102679D01*
G37*
%LPD*%
%LPC*%
G36*
X24757Y340869D02*
X24757Y340869D01*
X18876Y343305D01*
X14375Y347806D01*
X11939Y353687D01*
X11939Y360053D01*
X14375Y365934D01*
X18876Y370435D01*
X24757Y372871D01*
X31123Y372871D01*
X37004Y370435D01*
X41505Y365934D01*
X43941Y360053D01*
X43941Y353687D01*
X41505Y347806D01*
X37004Y343305D01*
X31123Y340869D01*
X24757Y340869D01*
G37*
%LPD*%
%LPC*%
G36*
X697857Y340869D02*
X697857Y340869D01*
X691976Y343305D01*
X687475Y347806D01*
X685039Y353687D01*
X685039Y360053D01*
X687475Y365934D01*
X691976Y370435D01*
X697857Y372871D01*
X704223Y372871D01*
X710104Y370435D01*
X714605Y365934D01*
X717041Y360053D01*
X717041Y353687D01*
X714605Y347806D01*
X710104Y343305D01*
X704223Y340869D01*
X697857Y340869D01*
G37*
%LPD*%
%LPC*%
G36*
X24757Y10669D02*
X24757Y10669D01*
X18876Y13105D01*
X14375Y17606D01*
X11939Y23487D01*
X11939Y29853D01*
X14375Y35734D01*
X18876Y40235D01*
X24757Y42671D01*
X31123Y42671D01*
X37004Y40235D01*
X41505Y35734D01*
X43941Y29853D01*
X43941Y23487D01*
X41505Y17606D01*
X37004Y13105D01*
X31123Y10669D01*
X24757Y10669D01*
G37*
%LPD*%
%LPC*%
G36*
X697857Y10669D02*
X697857Y10669D01*
X691976Y13105D01*
X687475Y17606D01*
X685039Y23487D01*
X685039Y29853D01*
X687475Y35734D01*
X691976Y40235D01*
X697857Y42671D01*
X704223Y42671D01*
X710104Y40235D01*
X714605Y35734D01*
X717041Y29853D01*
X717041Y23487D01*
X714605Y17606D01*
X710104Y13105D01*
X704223Y10669D01*
X697857Y10669D01*
G37*
%LPD*%
%LPC*%
G36*
X692777Y287529D02*
X692777Y287529D01*
X686896Y289965D01*
X682395Y294466D01*
X679959Y300347D01*
X679959Y306713D01*
X682395Y312594D01*
X686896Y317095D01*
X692777Y319531D01*
X699143Y319531D01*
X705024Y317095D01*
X709525Y312594D01*
X711961Y306713D01*
X711961Y300347D01*
X709525Y294466D01*
X705024Y289965D01*
X699143Y287529D01*
X692777Y287529D01*
G37*
%LPD*%
%LPC*%
G36*
X692777Y66549D02*
X692777Y66549D01*
X686896Y68985D01*
X682395Y73486D01*
X679959Y79367D01*
X679959Y85733D01*
X682395Y91614D01*
X686896Y96115D01*
X692777Y98551D01*
X699143Y98551D01*
X705024Y96115D01*
X709525Y91614D01*
X711961Y85733D01*
X711961Y79367D01*
X709525Y73486D01*
X705024Y68985D01*
X699143Y66549D01*
X692777Y66549D01*
G37*
%LPD*%
%LPC*%
G36*
X81553Y348011D02*
X81553Y348011D01*
X77363Y349747D01*
X74157Y352953D01*
X72421Y357143D01*
X72421Y361677D01*
X74157Y365867D01*
X77363Y369073D01*
X81553Y370809D01*
X86087Y370809D01*
X90277Y369073D01*
X93483Y365867D01*
X95219Y361677D01*
X95219Y357143D01*
X93483Y352953D01*
X90277Y349747D01*
X86087Y348011D01*
X81553Y348011D01*
G37*
%LPD*%
%LPC*%
G36*
X132353Y19081D02*
X132353Y19081D01*
X128163Y20817D01*
X124957Y24023D01*
X123221Y28213D01*
X123221Y32747D01*
X124957Y36937D01*
X128163Y40143D01*
X132353Y41879D01*
X136887Y41879D01*
X141077Y40143D01*
X144283Y36937D01*
X146019Y32747D01*
X146019Y28213D01*
X144283Y24023D01*
X141077Y20817D01*
X136887Y19081D01*
X132353Y19081D01*
G37*
%LPD*%
%LPC*%
G36*
X157753Y19081D02*
X157753Y19081D01*
X153563Y20817D01*
X150357Y24023D01*
X148621Y28213D01*
X148621Y32747D01*
X150357Y36937D01*
X153563Y40143D01*
X157753Y41879D01*
X162287Y41879D01*
X166477Y40143D01*
X169683Y36937D01*
X171419Y32747D01*
X171419Y28213D01*
X169683Y24023D01*
X166477Y20817D01*
X162287Y19081D01*
X157753Y19081D01*
G37*
%LPD*%
%LPC*%
G36*
X296284Y168179D02*
X296284Y168179D01*
X292281Y169837D01*
X289217Y172901D01*
X287559Y176904D01*
X287559Y181236D01*
X289217Y185239D01*
X292281Y188303D01*
X296284Y189961D01*
X300616Y189961D01*
X304619Y188303D01*
X307683Y185239D01*
X309341Y181236D01*
X309341Y176904D01*
X307683Y172901D01*
X304619Y169837D01*
X300616Y168179D01*
X296284Y168179D01*
G37*
%LPD*%
%LPC*%
G36*
X184625Y298227D02*
X184625Y298227D01*
X180809Y299808D01*
X177888Y302729D01*
X176307Y306545D01*
X176307Y310675D01*
X177888Y314491D01*
X180809Y317412D01*
X184625Y318993D01*
X188755Y318993D01*
X192571Y317412D01*
X195492Y314491D01*
X197073Y310675D01*
X197073Y306545D01*
X195492Y302729D01*
X192571Y299808D01*
X188755Y298227D01*
X184625Y298227D01*
G37*
%LPD*%
%LPC*%
G36*
X159225Y69627D02*
X159225Y69627D01*
X155409Y71208D01*
X152488Y74129D01*
X150907Y77945D01*
X150907Y82075D01*
X152488Y85891D01*
X155409Y88812D01*
X159225Y90393D01*
X163355Y90393D01*
X167171Y88812D01*
X170092Y85891D01*
X171673Y82075D01*
X171673Y77945D01*
X170092Y74129D01*
X167171Y71208D01*
X163355Y69627D01*
X159225Y69627D01*
G37*
%LPD*%
%LPC*%
G36*
X184625Y69627D02*
X184625Y69627D01*
X180809Y71208D01*
X177888Y74129D01*
X176307Y77945D01*
X176307Y82075D01*
X177888Y85891D01*
X180809Y88812D01*
X184625Y90393D01*
X188755Y90393D01*
X192571Y88812D01*
X195492Y85891D01*
X197073Y82075D01*
X197073Y77945D01*
X195492Y74129D01*
X192571Y71208D01*
X188755Y69627D01*
X184625Y69627D01*
G37*
%LPD*%
%LPC*%
G36*
X210025Y69627D02*
X210025Y69627D01*
X206209Y71208D01*
X203288Y74129D01*
X201707Y77945D01*
X201707Y82075D01*
X203288Y85891D01*
X206209Y88812D01*
X210025Y90393D01*
X214155Y90393D01*
X217971Y88812D01*
X220892Y85891D01*
X222473Y82075D01*
X222473Y77945D01*
X220892Y74129D01*
X217971Y71208D01*
X214155Y69627D01*
X210025Y69627D01*
G37*
%LPD*%
%LPC*%
G36*
X260825Y298227D02*
X260825Y298227D01*
X257009Y299808D01*
X254088Y302729D01*
X252507Y306545D01*
X252507Y310675D01*
X254088Y314491D01*
X257009Y317412D01*
X260825Y318993D01*
X264955Y318993D01*
X268771Y317412D01*
X271692Y314491D01*
X273273Y310675D01*
X273273Y306545D01*
X271692Y302729D01*
X268771Y299808D01*
X264955Y298227D01*
X260825Y298227D01*
G37*
%LPD*%
%LPC*%
G36*
X260825Y69627D02*
X260825Y69627D01*
X257009Y71208D01*
X254088Y74129D01*
X252507Y77945D01*
X252507Y82075D01*
X254088Y85891D01*
X257009Y88812D01*
X260825Y90393D01*
X264955Y90393D01*
X268771Y88812D01*
X271692Y85891D01*
X273273Y82075D01*
X273273Y77945D01*
X271692Y74129D01*
X268771Y71208D01*
X264955Y69627D01*
X260825Y69627D01*
G37*
%LPD*%
%LPC*%
G36*
X464025Y69627D02*
X464025Y69627D01*
X460209Y71208D01*
X457288Y74129D01*
X455707Y77945D01*
X455707Y82075D01*
X457288Y85891D01*
X460209Y88812D01*
X464025Y90393D01*
X468155Y90393D01*
X471971Y88812D01*
X474892Y85891D01*
X476473Y82075D01*
X476473Y77945D01*
X474892Y74129D01*
X471971Y71208D01*
X468155Y69627D01*
X464025Y69627D01*
G37*
%LPD*%
%LPC*%
G36*
X489425Y69627D02*
X489425Y69627D01*
X485609Y71208D01*
X482688Y74129D01*
X481107Y77945D01*
X481107Y82075D01*
X482688Y85891D01*
X485609Y88812D01*
X489425Y90393D01*
X493555Y90393D01*
X497371Y88812D01*
X500292Y85891D01*
X501873Y82075D01*
X501873Y77945D01*
X500292Y74129D01*
X497371Y71208D01*
X493555Y69627D01*
X489425Y69627D01*
G37*
%LPD*%
%LPC*%
G36*
X311625Y298227D02*
X311625Y298227D01*
X307809Y299808D01*
X304888Y302729D01*
X303307Y306545D01*
X303307Y310675D01*
X304888Y314491D01*
X307809Y317412D01*
X311625Y318993D01*
X315755Y318993D01*
X319571Y317412D01*
X322492Y314491D01*
X324073Y310675D01*
X324073Y306545D01*
X322492Y302729D01*
X319571Y299808D01*
X315755Y298227D01*
X311625Y298227D01*
G37*
%LPD*%
%LPC*%
G36*
X540225Y69627D02*
X540225Y69627D01*
X536409Y71208D01*
X533488Y74129D01*
X531907Y77945D01*
X531907Y82075D01*
X533488Y85891D01*
X536409Y88812D01*
X540225Y90393D01*
X544355Y90393D01*
X548171Y88812D01*
X551092Y85891D01*
X552673Y82075D01*
X552673Y77945D01*
X551092Y74129D01*
X548171Y71208D01*
X544355Y69627D01*
X540225Y69627D01*
G37*
%LPD*%
%LPC*%
G36*
X235425Y298227D02*
X235425Y298227D01*
X231609Y299808D01*
X228688Y302729D01*
X227107Y306545D01*
X227107Y310675D01*
X228688Y314491D01*
X231609Y317412D01*
X235425Y318993D01*
X239555Y318993D01*
X243371Y317412D01*
X246292Y314491D01*
X247873Y310675D01*
X247873Y306545D01*
X246292Y302729D01*
X243371Y299808D01*
X239555Y298227D01*
X235425Y298227D01*
G37*
%LPD*%
%LPC*%
G36*
X464192Y337169D02*
X464192Y337169D01*
X460686Y338622D01*
X458002Y341306D01*
X456549Y344812D01*
X456549Y348608D01*
X458002Y352114D01*
X460686Y354798D01*
X464192Y356251D01*
X467988Y356251D01*
X471494Y354798D01*
X474178Y352114D01*
X475631Y348608D01*
X475631Y344812D01*
X474178Y341306D01*
X471494Y338622D01*
X467988Y337169D01*
X464192Y337169D01*
G37*
%LPD*%
%LPC*%
G36*
X565792Y337169D02*
X565792Y337169D01*
X562286Y338622D01*
X559602Y341306D01*
X558149Y344812D01*
X558149Y348608D01*
X559602Y352114D01*
X562286Y354798D01*
X565792Y356251D01*
X569588Y356251D01*
X573094Y354798D01*
X575778Y352114D01*
X577231Y348608D01*
X577231Y344812D01*
X575778Y341306D01*
X573094Y338622D01*
X569588Y337169D01*
X565792Y337169D01*
G37*
%LPD*%
%LPC*%
G36*
X540392Y337169D02*
X540392Y337169D01*
X536886Y338622D01*
X534202Y341306D01*
X532749Y344812D01*
X532749Y348608D01*
X534202Y352114D01*
X536886Y354798D01*
X540392Y356251D01*
X544188Y356251D01*
X547694Y354798D01*
X550378Y352114D01*
X551831Y348608D01*
X551831Y344812D01*
X550378Y341306D01*
X547694Y338622D01*
X544188Y337169D01*
X540392Y337169D01*
G37*
%LPD*%
%LPC*%
G36*
X362592Y32369D02*
X362592Y32369D01*
X359086Y33822D01*
X356402Y36506D01*
X354949Y40012D01*
X354949Y43808D01*
X356402Y47314D01*
X359086Y49998D01*
X362592Y51451D01*
X366388Y51451D01*
X369894Y49998D01*
X372578Y47314D01*
X374031Y43808D01*
X374031Y40012D01*
X372578Y36506D01*
X369894Y33822D01*
X366388Y32369D01*
X362592Y32369D01*
G37*
%LPD*%
%LPC*%
G36*
X387992Y32369D02*
X387992Y32369D01*
X384486Y33822D01*
X381802Y36506D01*
X380349Y40012D01*
X380349Y43808D01*
X381802Y47314D01*
X384486Y49998D01*
X387992Y51451D01*
X391788Y51451D01*
X395294Y49998D01*
X397978Y47314D01*
X399431Y43808D01*
X399431Y40012D01*
X397978Y36506D01*
X395294Y33822D01*
X391788Y32369D01*
X387992Y32369D01*
G37*
%LPD*%
%LPC*%
G36*
X540392Y32369D02*
X540392Y32369D01*
X536886Y33822D01*
X534202Y36506D01*
X532749Y40012D01*
X532749Y43808D01*
X534202Y47314D01*
X536886Y49998D01*
X540392Y51451D01*
X544188Y51451D01*
X547694Y49998D01*
X550378Y47314D01*
X551831Y43808D01*
X551831Y40012D01*
X550378Y36506D01*
X547694Y33822D01*
X544188Y32369D01*
X540392Y32369D01*
G37*
%LPD*%
%LPC*%
G36*
X616592Y32369D02*
X616592Y32369D01*
X613086Y33822D01*
X610402Y36506D01*
X608949Y40012D01*
X608949Y43808D01*
X610402Y47314D01*
X613086Y49998D01*
X616592Y51451D01*
X620388Y51451D01*
X623894Y49998D01*
X626578Y47314D01*
X628031Y43808D01*
X628031Y40012D01*
X626578Y36506D01*
X623894Y33822D01*
X620388Y32369D01*
X616592Y32369D01*
G37*
%LPD*%
%LPC*%
G36*
X565792Y32369D02*
X565792Y32369D01*
X562286Y33822D01*
X559602Y36506D01*
X558149Y40012D01*
X558149Y43808D01*
X559602Y47314D01*
X562286Y49998D01*
X565792Y51451D01*
X569588Y51451D01*
X573094Y49998D01*
X575778Y47314D01*
X577231Y43808D01*
X577231Y40012D01*
X575778Y36506D01*
X573094Y33822D01*
X569588Y32369D01*
X565792Y32369D01*
G37*
%LPD*%
%LPC*%
G36*
X196359Y252189D02*
X196359Y252189D01*
X196359Y266231D01*
X207445Y266231D01*
X208091Y266058D01*
X208670Y265723D01*
X209143Y265250D01*
X209478Y264671D01*
X209651Y264025D01*
X209651Y252189D01*
X196359Y252189D01*
G37*
%LPD*%
%LPC*%
G36*
X255949Y179799D02*
X255949Y179799D01*
X255949Y193841D01*
X267035Y193841D01*
X267681Y193668D01*
X268260Y193333D01*
X268733Y192860D01*
X269068Y192281D01*
X269241Y191635D01*
X269241Y179799D01*
X255949Y179799D01*
G37*
%LPD*%
%LPC*%
G36*
X196359Y234149D02*
X196359Y234149D01*
X196359Y248191D01*
X209651Y248191D01*
X209651Y236355D01*
X209478Y235709D01*
X209143Y235130D01*
X208670Y234657D01*
X208091Y234322D01*
X207445Y234149D01*
X196359Y234149D01*
G37*
%LPD*%
%LPC*%
G36*
X255949Y161759D02*
X255949Y161759D01*
X255949Y175801D01*
X269241Y175801D01*
X269241Y163965D01*
X269068Y163319D01*
X268733Y162740D01*
X268260Y162267D01*
X267681Y161932D01*
X267035Y161759D01*
X255949Y161759D01*
G37*
%LPD*%
%LPC*%
G36*
X179069Y252189D02*
X179069Y252189D01*
X179069Y264025D01*
X179242Y264671D01*
X179577Y265250D01*
X180050Y265723D01*
X180629Y266058D01*
X181275Y266231D01*
X192361Y266231D01*
X192361Y252189D01*
X179069Y252189D01*
G37*
%LPD*%
%LPC*%
G36*
X238659Y179799D02*
X238659Y179799D01*
X238659Y191635D01*
X238832Y192281D01*
X239167Y192860D01*
X239640Y193333D01*
X240219Y193668D01*
X240865Y193841D01*
X251951Y193841D01*
X251951Y179799D01*
X238659Y179799D01*
G37*
%LPD*%
%LPC*%
G36*
X181275Y234149D02*
X181275Y234149D01*
X180629Y234322D01*
X180050Y234657D01*
X179577Y235130D01*
X179242Y235709D01*
X179069Y236355D01*
X179069Y248191D01*
X192361Y248191D01*
X192361Y234149D01*
X181275Y234149D01*
G37*
%LPD*%
%LPC*%
G36*
X240865Y161759D02*
X240865Y161759D01*
X240219Y161932D01*
X239640Y162267D01*
X239167Y162740D01*
X238832Y163319D01*
X238659Y163965D01*
X238659Y175801D01*
X251951Y175801D01*
X251951Y161759D01*
X240865Y161759D01*
G37*
%LPD*%
%LPC*%
G36*
X51891Y131147D02*
X51891Y131147D01*
X49215Y132256D01*
X47166Y134305D01*
X46057Y136981D01*
X46057Y139879D01*
X47166Y142555D01*
X49215Y144604D01*
X51891Y145713D01*
X54789Y145713D01*
X57465Y144604D01*
X59514Y142555D01*
X60623Y139879D01*
X60623Y136981D01*
X59514Y134305D01*
X57465Y132256D01*
X54789Y131147D01*
X51891Y131147D01*
G37*
%LPD*%
%LPC*%
G36*
X100151Y132417D02*
X100151Y132417D01*
X97475Y133526D01*
X95426Y135575D01*
X94317Y138251D01*
X94317Y141149D01*
X95426Y143825D01*
X97475Y145874D01*
X100151Y146983D01*
X103049Y146983D01*
X105725Y145874D01*
X107774Y143825D01*
X108883Y141149D01*
X108883Y138251D01*
X107774Y135575D01*
X105725Y133526D01*
X103049Y132417D01*
X100151Y132417D01*
G37*
%LPD*%
%LPC*%
G36*
X85819Y32479D02*
X85819Y32479D01*
X85819Y42251D01*
X86616Y42125D01*
X88403Y41544D01*
X90077Y40691D01*
X91598Y39586D01*
X92926Y38258D01*
X94031Y36737D01*
X94884Y35063D01*
X95465Y33276D01*
X95533Y32845D01*
X95570Y32724D01*
X95603Y32603D01*
X95611Y32590D01*
X95616Y32575D01*
X95679Y32479D01*
X85819Y32479D01*
G37*
%LPD*%
%LPC*%
G36*
X97362Y32479D02*
X97362Y32479D01*
X97412Y32551D01*
X97417Y32565D01*
X97426Y32579D01*
X97496Y32811D01*
X97507Y32845D01*
X97575Y33276D01*
X98156Y35063D01*
X99009Y36737D01*
X100114Y38258D01*
X101442Y39586D01*
X102963Y40691D01*
X104637Y41544D01*
X106424Y42125D01*
X107221Y42251D01*
X107221Y32479D01*
X97362Y32479D01*
G37*
%LPD*%
%LPC*%
G36*
X85819Y28481D02*
X85819Y28481D01*
X95678Y28481D01*
X95628Y28409D01*
X95623Y28395D01*
X95614Y28381D01*
X95544Y28148D01*
X95533Y28115D01*
X95465Y27684D01*
X94884Y25897D01*
X94031Y24223D01*
X92926Y22702D01*
X91598Y21374D01*
X90077Y20269D01*
X88403Y19416D01*
X86616Y18835D01*
X85819Y18709D01*
X85819Y28481D01*
G37*
%LPD*%
%LPC*%
G36*
X106424Y18835D02*
X106424Y18835D01*
X104637Y19416D01*
X102963Y20269D01*
X101442Y21374D01*
X100114Y22702D01*
X99009Y24223D01*
X98156Y25897D01*
X97575Y27684D01*
X97507Y28116D01*
X97470Y28235D01*
X97437Y28357D01*
X97429Y28370D01*
X97424Y28385D01*
X97361Y28481D01*
X107221Y28481D01*
X107221Y18709D01*
X106424Y18835D01*
G37*
%LPD*%
%LPC*%
G36*
X111219Y361409D02*
X111219Y361409D01*
X111219Y371181D01*
X112016Y371055D01*
X113803Y370474D01*
X115477Y369621D01*
X116998Y368516D01*
X118326Y367188D01*
X119431Y365667D01*
X120284Y363993D01*
X120865Y362206D01*
X120991Y361409D01*
X111219Y361409D01*
G37*
%LPD*%
%LPC*%
G36*
X111219Y32479D02*
X111219Y32479D01*
X111219Y42251D01*
X112016Y42125D01*
X113803Y41544D01*
X115477Y40691D01*
X116998Y39586D01*
X118326Y38258D01*
X119431Y36737D01*
X120284Y35063D01*
X120865Y33276D01*
X120991Y32479D01*
X111219Y32479D01*
G37*
%LPD*%
%LPC*%
G36*
X97449Y361409D02*
X97449Y361409D01*
X97575Y362206D01*
X98156Y363993D01*
X99009Y365667D01*
X100114Y367188D01*
X101442Y368516D01*
X102963Y369621D01*
X104637Y370474D01*
X106424Y371055D01*
X107221Y371181D01*
X107221Y361409D01*
X97449Y361409D01*
G37*
%LPD*%
%LPC*%
G36*
X72049Y32479D02*
X72049Y32479D01*
X72175Y33276D01*
X72756Y35063D01*
X73609Y36737D01*
X74714Y38258D01*
X76042Y39586D01*
X77563Y40691D01*
X79237Y41544D01*
X81024Y42125D01*
X81821Y42251D01*
X81821Y32479D01*
X72049Y32479D01*
G37*
%LPD*%
%LPC*%
G36*
X111219Y357411D02*
X111219Y357411D01*
X120991Y357411D01*
X120865Y356614D01*
X120284Y354827D01*
X119431Y353153D01*
X118326Y351632D01*
X116998Y350304D01*
X115477Y349199D01*
X113803Y348346D01*
X112016Y347765D01*
X111219Y347639D01*
X111219Y357411D01*
G37*
%LPD*%
%LPC*%
G36*
X111219Y28481D02*
X111219Y28481D01*
X120991Y28481D01*
X120865Y27684D01*
X120284Y25897D01*
X119431Y24223D01*
X118326Y22702D01*
X116998Y21374D01*
X115477Y20269D01*
X113803Y19416D01*
X112016Y18835D01*
X111219Y18709D01*
X111219Y28481D01*
G37*
%LPD*%
%LPC*%
G36*
X106424Y347765D02*
X106424Y347765D01*
X104637Y348346D01*
X102963Y349199D01*
X101442Y350304D01*
X100114Y351632D01*
X99009Y353153D01*
X98156Y354827D01*
X97575Y356614D01*
X97449Y357411D01*
X107221Y357411D01*
X107221Y347639D01*
X106424Y347765D01*
G37*
%LPD*%
%LPC*%
G36*
X81024Y18835D02*
X81024Y18835D01*
X79237Y19416D01*
X77563Y20269D01*
X76042Y21374D01*
X74714Y22702D01*
X73609Y24223D01*
X72756Y25897D01*
X72175Y27684D01*
X72049Y28481D01*
X81821Y28481D01*
X81821Y18709D01*
X81024Y18835D01*
G37*
%LPD*%
%LPC*%
G36*
X344455Y360029D02*
X344455Y360029D01*
X343809Y360202D01*
X343230Y360537D01*
X342757Y361010D01*
X342422Y361589D01*
X342249Y362235D01*
X342249Y367571D01*
X349791Y367571D01*
X349791Y360029D01*
X344455Y360029D01*
G37*
%LPD*%
%LPC*%
G36*
X239489Y82009D02*
X239489Y82009D01*
X239489Y90752D01*
X240048Y90664D01*
X241683Y90133D01*
X243215Y89352D01*
X244606Y88341D01*
X245821Y87126D01*
X246832Y85735D01*
X247613Y84203D01*
X248144Y82568D01*
X248232Y82009D01*
X239489Y82009D01*
G37*
%LPD*%
%LPC*%
G36*
X569689Y82009D02*
X569689Y82009D01*
X569689Y90752D01*
X570248Y90664D01*
X571883Y90133D01*
X573415Y89352D01*
X574806Y88341D01*
X576021Y87126D01*
X577032Y85735D01*
X577813Y84203D01*
X578344Y82568D01*
X578432Y82009D01*
X569689Y82009D01*
G37*
%LPD*%
%LPC*%
G36*
X163289Y310609D02*
X163289Y310609D01*
X163289Y319352D01*
X163848Y319264D01*
X165483Y318733D01*
X167015Y317952D01*
X168406Y316941D01*
X169621Y315726D01*
X170632Y314335D01*
X171413Y312803D01*
X171944Y311168D01*
X172032Y310609D01*
X163289Y310609D01*
G37*
%LPD*%
%LPC*%
G36*
X214089Y310609D02*
X214089Y310609D01*
X214089Y319352D01*
X214648Y319264D01*
X216283Y318733D01*
X217815Y317952D01*
X219206Y316941D01*
X220421Y315726D01*
X221432Y314335D01*
X222213Y312803D01*
X222744Y311168D01*
X222832Y310609D01*
X214089Y310609D01*
G37*
%LPD*%
%LPC*%
G36*
X163289Y306611D02*
X163289Y306611D01*
X172032Y306611D01*
X171944Y306052D01*
X171413Y304417D01*
X170632Y302885D01*
X169621Y301494D01*
X168406Y300279D01*
X167015Y299268D01*
X165483Y298487D01*
X163848Y297956D01*
X163289Y297868D01*
X163289Y306611D01*
G37*
%LPD*%
%LPC*%
G36*
X214089Y306611D02*
X214089Y306611D01*
X222832Y306611D01*
X222744Y306052D01*
X222213Y304417D01*
X221432Y302885D01*
X220421Y301494D01*
X219206Y300279D01*
X217815Y299268D01*
X216283Y298487D01*
X214648Y297956D01*
X214089Y297868D01*
X214089Y306611D01*
G37*
%LPD*%
%LPC*%
G36*
X569689Y78011D02*
X569689Y78011D01*
X578432Y78011D01*
X578344Y77452D01*
X577813Y75817D01*
X577032Y74285D01*
X576021Y72894D01*
X574806Y71679D01*
X573415Y70668D01*
X571883Y69887D01*
X570248Y69356D01*
X569689Y69268D01*
X569689Y78011D01*
G37*
%LPD*%
%LPC*%
G36*
X226748Y82009D02*
X226748Y82009D01*
X226836Y82568D01*
X227367Y84203D01*
X228148Y85735D01*
X229159Y87126D01*
X230374Y88341D01*
X231765Y89352D01*
X233297Y90133D01*
X234932Y90664D01*
X235491Y90752D01*
X235491Y82009D01*
X226748Y82009D01*
G37*
%LPD*%
%LPC*%
G36*
X201348Y310609D02*
X201348Y310609D01*
X201436Y311168D01*
X201967Y312803D01*
X202748Y314335D01*
X203759Y315726D01*
X204974Y316941D01*
X206365Y317952D01*
X207897Y318733D01*
X209532Y319264D01*
X210091Y319352D01*
X210091Y310609D01*
X201348Y310609D01*
G37*
%LPD*%
%LPC*%
G36*
X150548Y310609D02*
X150548Y310609D01*
X150636Y311168D01*
X151167Y312803D01*
X151948Y314335D01*
X152959Y315726D01*
X154174Y316941D01*
X155565Y317952D01*
X157097Y318733D01*
X158732Y319264D01*
X159291Y319352D01*
X159291Y310609D01*
X150548Y310609D01*
G37*
%LPD*%
%LPC*%
G36*
X239489Y78011D02*
X239489Y78011D01*
X248232Y78011D01*
X248144Y77452D01*
X247613Y75817D01*
X246832Y74285D01*
X245821Y72894D01*
X244606Y71679D01*
X243215Y70668D01*
X241683Y69887D01*
X240048Y69356D01*
X239489Y69268D01*
X239489Y78011D01*
G37*
%LPD*%
%LPC*%
G36*
X556948Y82009D02*
X556948Y82009D01*
X557036Y82568D01*
X557567Y84203D01*
X558348Y85735D01*
X559359Y87126D01*
X560574Y88341D01*
X561965Y89352D01*
X563497Y90133D01*
X565132Y90664D01*
X565691Y90752D01*
X565691Y82009D01*
X556948Y82009D01*
G37*
%LPD*%
%LPC*%
G36*
X234932Y69356D02*
X234932Y69356D01*
X233297Y69887D01*
X231765Y70668D01*
X230374Y71679D01*
X229159Y72894D01*
X228148Y74285D01*
X227367Y75817D01*
X226836Y77452D01*
X226748Y78011D01*
X235491Y78011D01*
X235491Y69268D01*
X234932Y69356D01*
G37*
%LPD*%
%LPC*%
G36*
X209532Y297956D02*
X209532Y297956D01*
X207897Y298487D01*
X206365Y299268D01*
X204974Y300279D01*
X203759Y301494D01*
X202748Y302885D01*
X201967Y304417D01*
X201436Y306052D01*
X201348Y306611D01*
X210091Y306611D01*
X210091Y297868D01*
X209532Y297956D01*
G37*
%LPD*%
%LPC*%
G36*
X158732Y297956D02*
X158732Y297956D01*
X157097Y298487D01*
X155565Y299268D01*
X154174Y300279D01*
X152959Y301494D01*
X151948Y302885D01*
X151167Y304417D01*
X150636Y306052D01*
X150548Y306611D01*
X159291Y306611D01*
X159291Y297868D01*
X158732Y297956D01*
G37*
%LPD*%
%LPC*%
G36*
X565132Y69356D02*
X565132Y69356D01*
X563497Y69887D01*
X561965Y70668D01*
X560574Y71679D01*
X559359Y72894D01*
X558348Y74285D01*
X557567Y75817D01*
X557036Y77452D01*
X556948Y78011D01*
X565691Y78011D01*
X565691Y69268D01*
X565132Y69356D01*
G37*
%LPD*%
%LPC*%
G36*
X220217Y126459D02*
X220217Y126459D01*
X220217Y132796D01*
X220390Y133442D01*
X220725Y134021D01*
X221198Y134494D01*
X221777Y134829D01*
X222423Y135002D01*
X226601Y135002D01*
X226601Y126459D01*
X220217Y126459D01*
G37*
%LPD*%
%LPC*%
G36*
X138937Y126459D02*
X138937Y126459D01*
X138937Y132796D01*
X139110Y133442D01*
X139445Y134021D01*
X139918Y134494D01*
X140497Y134829D01*
X141143Y135002D01*
X145321Y135002D01*
X145321Y126459D01*
X138937Y126459D01*
G37*
%LPD*%
%LPC*%
G36*
X141143Y113918D02*
X141143Y113918D01*
X140497Y114091D01*
X139918Y114426D01*
X139445Y114899D01*
X139110Y115478D01*
X138937Y116124D01*
X138937Y122461D01*
X145321Y122461D01*
X145321Y113918D01*
X141143Y113918D01*
G37*
%LPD*%
%LPC*%
G36*
X222423Y113918D02*
X222423Y113918D01*
X221777Y114091D01*
X221198Y114426D01*
X220725Y114899D01*
X220390Y115478D01*
X220217Y116124D01*
X220217Y122461D01*
X226601Y122461D01*
X226601Y113918D01*
X222423Y113918D01*
G37*
%LPD*%
%LPC*%
G36*
X357599Y156939D02*
X357599Y156939D01*
X357599Y164830D01*
X357961Y164773D01*
X359470Y164282D01*
X360884Y163562D01*
X362167Y162629D01*
X363289Y161507D01*
X364222Y160224D01*
X364942Y158810D01*
X365433Y157301D01*
X365490Y156939D01*
X357599Y156939D01*
G37*
%LPD*%
%LPC*%
G36*
X341089Y43909D02*
X341089Y43909D01*
X341089Y51800D01*
X341451Y51743D01*
X342960Y51252D01*
X344374Y50532D01*
X345657Y49599D01*
X346779Y48477D01*
X347712Y47194D01*
X348432Y45780D01*
X348923Y44271D01*
X348980Y43909D01*
X341089Y43909D01*
G37*
%LPD*%
%LPC*%
G36*
X620489Y348709D02*
X620489Y348709D01*
X620489Y356600D01*
X620851Y356543D01*
X622360Y356052D01*
X623774Y355332D01*
X625057Y354399D01*
X626179Y353277D01*
X627112Y351994D01*
X627832Y350580D01*
X628323Y349071D01*
X628380Y348709D01*
X620489Y348709D01*
G37*
%LPD*%
%LPC*%
G36*
X595089Y348709D02*
X595089Y348709D01*
X595089Y356600D01*
X595451Y356543D01*
X596960Y356052D01*
X598374Y355332D01*
X599657Y354399D01*
X600779Y353277D01*
X601712Y351994D01*
X602432Y350580D01*
X602923Y349071D01*
X602980Y348709D01*
X595089Y348709D01*
G37*
%LPD*%
%LPC*%
G36*
X645889Y348709D02*
X645889Y348709D01*
X645889Y356600D01*
X646251Y356543D01*
X647760Y356052D01*
X649174Y355332D01*
X650457Y354399D01*
X651579Y353277D01*
X652512Y351994D01*
X653232Y350580D01*
X653723Y349071D01*
X653780Y348709D01*
X645889Y348709D01*
G37*
%LPD*%
%LPC*%
G36*
X341089Y348709D02*
X341089Y348709D01*
X341089Y356600D01*
X341451Y356543D01*
X342960Y356052D01*
X344374Y355332D01*
X345657Y354399D01*
X346779Y353277D01*
X347712Y351994D01*
X348432Y350580D01*
X348923Y349071D01*
X348980Y348709D01*
X341089Y348709D01*
G37*
%LPD*%
%LPC*%
G36*
X645889Y43909D02*
X645889Y43909D01*
X645889Y51800D01*
X646251Y51743D01*
X647760Y51252D01*
X649174Y50532D01*
X650457Y49599D01*
X651579Y48477D01*
X652512Y47194D01*
X653232Y45780D01*
X653723Y44271D01*
X653780Y43909D01*
X645889Y43909D01*
G37*
%LPD*%
%LPC*%
G36*
X595089Y43909D02*
X595089Y43909D01*
X595089Y51800D01*
X595451Y51743D01*
X596960Y51252D01*
X598374Y50532D01*
X599657Y49599D01*
X600779Y48477D01*
X601712Y47194D01*
X602432Y45780D01*
X602923Y44271D01*
X602980Y43909D01*
X595089Y43909D01*
G37*
%LPD*%
%LPC*%
G36*
X518889Y348709D02*
X518889Y348709D01*
X518889Y356600D01*
X519251Y356543D01*
X520760Y356052D01*
X522174Y355332D01*
X523457Y354399D01*
X524579Y353277D01*
X525512Y351994D01*
X526232Y350580D01*
X526723Y349071D01*
X526780Y348709D01*
X518889Y348709D01*
G37*
%LPD*%
%LPC*%
G36*
X493489Y348709D02*
X493489Y348709D01*
X493489Y356600D01*
X493851Y356543D01*
X495360Y356052D01*
X496774Y355332D01*
X498057Y354399D01*
X499179Y353277D01*
X500112Y351994D01*
X500832Y350580D01*
X501323Y349071D01*
X501380Y348709D01*
X493489Y348709D01*
G37*
%LPD*%
%LPC*%
G36*
X645889Y344711D02*
X645889Y344711D01*
X653780Y344711D01*
X653723Y344349D01*
X653232Y342840D01*
X652512Y341426D01*
X651579Y340143D01*
X650457Y339021D01*
X649174Y338088D01*
X647760Y337368D01*
X646251Y336877D01*
X645889Y336820D01*
X645889Y344711D01*
G37*
%LPD*%
%LPC*%
G36*
X357599Y152941D02*
X357599Y152941D01*
X365490Y152941D01*
X365433Y152579D01*
X364942Y151070D01*
X364222Y149656D01*
X363289Y148373D01*
X362167Y147251D01*
X360884Y146318D01*
X359470Y145598D01*
X357961Y145107D01*
X357599Y145050D01*
X357599Y152941D01*
G37*
%LPD*%
%LPC*%
G36*
X341089Y39911D02*
X341089Y39911D01*
X348980Y39911D01*
X348923Y39549D01*
X348432Y38040D01*
X347712Y36626D01*
X346779Y35343D01*
X345657Y34221D01*
X344374Y33288D01*
X342960Y32568D01*
X341451Y32077D01*
X341089Y32020D01*
X341089Y39911D01*
G37*
%LPD*%
%LPC*%
G36*
X481600Y348709D02*
X481600Y348709D01*
X481657Y349071D01*
X482148Y350580D01*
X482868Y351994D01*
X483801Y353277D01*
X484923Y354399D01*
X486206Y355332D01*
X487620Y356052D01*
X489129Y356543D01*
X489491Y356600D01*
X489491Y348709D01*
X481600Y348709D01*
G37*
%LPD*%
%LPC*%
G36*
X583200Y348709D02*
X583200Y348709D01*
X583257Y349071D01*
X583748Y350580D01*
X584468Y351994D01*
X585401Y353277D01*
X586523Y354399D01*
X587806Y355332D01*
X589220Y356052D01*
X590729Y356543D01*
X591091Y356600D01*
X591091Y348709D01*
X583200Y348709D01*
G37*
%LPD*%
%LPC*%
G36*
X507000Y348709D02*
X507000Y348709D01*
X507057Y349071D01*
X507548Y350580D01*
X508268Y351994D01*
X509201Y353277D01*
X510323Y354399D01*
X511606Y355332D01*
X513020Y356052D01*
X514529Y356543D01*
X514891Y356600D01*
X514891Y348709D01*
X507000Y348709D01*
G37*
%LPD*%
%LPC*%
G36*
X595089Y344711D02*
X595089Y344711D01*
X602980Y344711D01*
X602923Y344349D01*
X602432Y342840D01*
X601712Y341426D01*
X600779Y340143D01*
X599657Y339021D01*
X598374Y338088D01*
X596960Y337368D01*
X595451Y336877D01*
X595089Y336820D01*
X595089Y344711D01*
G37*
%LPD*%
%LPC*%
G36*
X634000Y348709D02*
X634000Y348709D01*
X634057Y349071D01*
X634548Y350580D01*
X635268Y351994D01*
X636201Y353277D01*
X637323Y354399D01*
X638606Y355332D01*
X640020Y356052D01*
X641529Y356543D01*
X641891Y356600D01*
X641891Y348709D01*
X634000Y348709D01*
G37*
%LPD*%
%LPC*%
G36*
X518889Y344711D02*
X518889Y344711D01*
X526780Y344711D01*
X526723Y344349D01*
X526232Y342840D01*
X525512Y341426D01*
X524579Y340143D01*
X523457Y339021D01*
X522174Y338088D01*
X520760Y337368D01*
X519251Y336877D01*
X518889Y336820D01*
X518889Y344711D01*
G37*
%LPD*%
%LPC*%
G36*
X493489Y344711D02*
X493489Y344711D01*
X501380Y344711D01*
X501323Y344349D01*
X500832Y342840D01*
X500112Y341426D01*
X499179Y340143D01*
X498057Y339021D01*
X496774Y338088D01*
X495360Y337368D01*
X493851Y336877D01*
X493489Y336820D01*
X493489Y344711D01*
G37*
%LPD*%
%LPC*%
G36*
X620489Y344711D02*
X620489Y344711D01*
X628380Y344711D01*
X628323Y344349D01*
X627832Y342840D01*
X627112Y341426D01*
X626179Y340143D01*
X625057Y339021D01*
X623774Y338088D01*
X622360Y337368D01*
X620851Y336877D01*
X620489Y336820D01*
X620489Y344711D01*
G37*
%LPD*%
%LPC*%
G36*
X329200Y348709D02*
X329200Y348709D01*
X329257Y349071D01*
X329748Y350580D01*
X330468Y351994D01*
X331401Y353277D01*
X332523Y354399D01*
X333806Y355332D01*
X335220Y356052D01*
X336729Y356543D01*
X337091Y356600D01*
X337091Y348709D01*
X329200Y348709D01*
G37*
%LPD*%
%LPC*%
G36*
X608600Y348709D02*
X608600Y348709D01*
X608657Y349071D01*
X609148Y350580D01*
X609868Y351994D01*
X610801Y353277D01*
X611923Y354399D01*
X613206Y355332D01*
X614620Y356052D01*
X616129Y356543D01*
X616491Y356600D01*
X616491Y348709D01*
X608600Y348709D01*
G37*
%LPD*%
%LPC*%
G36*
X634000Y43909D02*
X634000Y43909D01*
X634057Y44271D01*
X634548Y45780D01*
X635268Y47194D01*
X636201Y48477D01*
X637323Y49599D01*
X638606Y50532D01*
X640020Y51252D01*
X641529Y51743D01*
X641891Y51800D01*
X641891Y43909D01*
X634000Y43909D01*
G37*
%LPD*%
%LPC*%
G36*
X583200Y43909D02*
X583200Y43909D01*
X583257Y44271D01*
X583748Y45780D01*
X584468Y47194D01*
X585401Y48477D01*
X586523Y49599D01*
X587806Y50532D01*
X589220Y51252D01*
X590729Y51743D01*
X591091Y51800D01*
X591091Y43909D01*
X583200Y43909D01*
G37*
%LPD*%
%LPC*%
G36*
X645889Y39911D02*
X645889Y39911D01*
X653780Y39911D01*
X653723Y39549D01*
X653232Y38040D01*
X652512Y36626D01*
X651579Y35343D01*
X650457Y34221D01*
X649174Y33288D01*
X647760Y32568D01*
X646251Y32077D01*
X645889Y32020D01*
X645889Y39911D01*
G37*
%LPD*%
%LPC*%
G36*
X595089Y39911D02*
X595089Y39911D01*
X602980Y39911D01*
X602923Y39549D01*
X602432Y38040D01*
X601712Y36626D01*
X600779Y35343D01*
X599657Y34221D01*
X598374Y33288D01*
X596960Y32568D01*
X595451Y32077D01*
X595089Y32020D01*
X595089Y39911D01*
G37*
%LPD*%
%LPC*%
G36*
X514529Y336877D02*
X514529Y336877D01*
X513020Y337368D01*
X511606Y338088D01*
X510323Y339021D01*
X509201Y340143D01*
X508268Y341426D01*
X507548Y342840D01*
X507057Y344349D01*
X507000Y344711D01*
X514891Y344711D01*
X514891Y336820D01*
X514529Y336877D01*
G37*
%LPD*%
%LPC*%
G36*
X590729Y336877D02*
X590729Y336877D01*
X589220Y337368D01*
X587806Y338088D01*
X586523Y339021D01*
X585401Y340143D01*
X584468Y341426D01*
X583748Y342840D01*
X583257Y344349D01*
X583200Y344711D01*
X591091Y344711D01*
X591091Y336820D01*
X590729Y336877D01*
G37*
%LPD*%
%LPC*%
G36*
X489129Y336877D02*
X489129Y336877D01*
X487620Y337368D01*
X486206Y338088D01*
X484923Y339021D01*
X483801Y340143D01*
X482868Y341426D01*
X482148Y342840D01*
X481657Y344349D01*
X481600Y344711D01*
X489491Y344711D01*
X489491Y336820D01*
X489129Y336877D01*
G37*
%LPD*%
%LPC*%
G36*
X616129Y336877D02*
X616129Y336877D01*
X614620Y337368D01*
X613206Y338088D01*
X611923Y339021D01*
X610801Y340143D01*
X609868Y341426D01*
X609148Y342840D01*
X608657Y344349D01*
X608600Y344711D01*
X616491Y344711D01*
X616491Y336820D01*
X616129Y336877D01*
G37*
%LPD*%
%LPC*%
G36*
X641529Y32077D02*
X641529Y32077D01*
X640020Y32568D01*
X638606Y33288D01*
X637323Y34221D01*
X636201Y35343D01*
X635268Y36626D01*
X634548Y38040D01*
X634057Y39549D01*
X634000Y39911D01*
X641891Y39911D01*
X641891Y32020D01*
X641529Y32077D01*
G37*
%LPD*%
%LPC*%
G36*
X641529Y336877D02*
X641529Y336877D01*
X640020Y337368D01*
X638606Y338088D01*
X637323Y339021D01*
X636201Y340143D01*
X635268Y341426D01*
X634548Y342840D01*
X634057Y344349D01*
X634000Y344711D01*
X641891Y344711D01*
X641891Y336820D01*
X641529Y336877D01*
G37*
%LPD*%
%LPC*%
G36*
X590729Y32077D02*
X590729Y32077D01*
X589220Y32568D01*
X587806Y33288D01*
X586523Y34221D01*
X585401Y35343D01*
X584468Y36626D01*
X583748Y38040D01*
X583257Y39549D01*
X583200Y39911D01*
X591091Y39911D01*
X591091Y32020D01*
X590729Y32077D01*
G37*
%LPD*%
%LPC*%
G36*
X336729Y32077D02*
X336729Y32077D01*
X335220Y32568D01*
X333806Y33288D01*
X332523Y34221D01*
X331401Y35343D01*
X330468Y36626D01*
X329748Y38040D01*
X329257Y39549D01*
X329200Y39911D01*
X337091Y39911D01*
X337091Y32020D01*
X336729Y32077D01*
G37*
%LPD*%
%LPC*%
G36*
X174609Y215359D02*
X174609Y215359D01*
X174609Y221901D01*
X176945Y221901D01*
X177591Y221728D01*
X178170Y221393D01*
X178643Y220920D01*
X178978Y220341D01*
X179151Y219695D01*
X179151Y215359D01*
X174609Y215359D01*
G37*
%LPD*%
%LPC*%
G36*
X241919Y216629D02*
X241919Y216629D01*
X241919Y223171D01*
X244255Y223171D01*
X244901Y222998D01*
X245480Y222663D01*
X245953Y222190D01*
X246288Y221611D01*
X246461Y220965D01*
X246461Y216629D01*
X241919Y216629D01*
G37*
%LPD*%
%LPC*%
G36*
X241919Y206089D02*
X241919Y206089D01*
X241919Y212631D01*
X246461Y212631D01*
X246461Y208295D01*
X246288Y207649D01*
X245953Y207070D01*
X245480Y206597D01*
X244901Y206262D01*
X244255Y206089D01*
X241919Y206089D01*
G37*
%LPD*%
%LPC*%
G36*
X174609Y204819D02*
X174609Y204819D01*
X174609Y211361D01*
X179151Y211361D01*
X179151Y207025D01*
X178978Y206379D01*
X178643Y205800D01*
X178170Y205327D01*
X177591Y204992D01*
X176945Y204819D01*
X174609Y204819D01*
G37*
%LPD*%
%LPC*%
G36*
X233379Y216629D02*
X233379Y216629D01*
X233379Y220965D01*
X233552Y221611D01*
X233887Y222190D01*
X234360Y222663D01*
X234939Y222998D01*
X235585Y223171D01*
X237921Y223171D01*
X237921Y216629D01*
X233379Y216629D01*
G37*
%LPD*%
%LPC*%
G36*
X166069Y215359D02*
X166069Y215359D01*
X166069Y219695D01*
X166242Y220341D01*
X166577Y220920D01*
X167050Y221393D01*
X167629Y221728D01*
X168275Y221901D01*
X170611Y221901D01*
X170611Y215359D01*
X166069Y215359D01*
G37*
%LPD*%
%LPC*%
G36*
X168275Y204819D02*
X168275Y204819D01*
X167629Y204992D01*
X167050Y205327D01*
X166577Y205800D01*
X166242Y206379D01*
X166069Y207025D01*
X166069Y211361D01*
X170611Y211361D01*
X170611Y204819D01*
X168275Y204819D01*
G37*
%LPD*%
%LPC*%
G36*
X235585Y206089D02*
X235585Y206089D01*
X234939Y206262D01*
X234360Y206597D01*
X233887Y207070D01*
X233552Y207649D01*
X233379Y208295D01*
X233379Y212631D01*
X237921Y212631D01*
X237921Y206089D01*
X235585Y206089D01*
G37*
%LPD*%
%LPC*%
G36*
X491489Y346709D02*
X491489Y346709D01*
X491489Y346711D01*
X491491Y346711D01*
X491491Y346709D01*
X491489Y346709D01*
G37*
%LPD*%
%LPC*%
G36*
X567689Y80009D02*
X567689Y80009D01*
X567689Y80011D01*
X567691Y80011D01*
X567691Y80009D01*
X567689Y80009D01*
G37*
%LPD*%
%LPC*%
G36*
X161289Y308609D02*
X161289Y308609D01*
X161289Y308611D01*
X161291Y308611D01*
X161291Y308609D01*
X161289Y308609D01*
G37*
%LPD*%
%LPC*%
G36*
X212089Y308609D02*
X212089Y308609D01*
X212089Y308611D01*
X212091Y308611D01*
X212091Y308609D01*
X212089Y308609D01*
G37*
%LPD*%
%LPC*%
G36*
X109219Y359409D02*
X109219Y359409D01*
X109219Y359411D01*
X109221Y359411D01*
X109221Y359409D01*
X109219Y359409D01*
G37*
%LPD*%
%LPC*%
G36*
X643889Y41909D02*
X643889Y41909D01*
X643889Y41911D01*
X643891Y41911D01*
X643891Y41909D01*
X643889Y41909D01*
G37*
%LPD*%
%LPC*%
G36*
X593089Y41909D02*
X593089Y41909D01*
X593089Y41911D01*
X593091Y41911D01*
X593091Y41909D01*
X593089Y41909D01*
G37*
%LPD*%
%LPC*%
G36*
X643889Y346709D02*
X643889Y346709D01*
X643889Y346711D01*
X643891Y346711D01*
X643891Y346709D01*
X643889Y346709D01*
G37*
%LPD*%
%LPC*%
G36*
X618489Y346709D02*
X618489Y346709D01*
X618489Y346711D01*
X618491Y346711D01*
X618491Y346709D01*
X618489Y346709D01*
G37*
%LPD*%
%LPC*%
G36*
X237489Y80009D02*
X237489Y80009D01*
X237489Y80011D01*
X237491Y80011D01*
X237491Y80009D01*
X237489Y80009D01*
G37*
%LPD*%
%LPC*%
G36*
X593089Y346709D02*
X593089Y346709D01*
X593089Y346711D01*
X593091Y346711D01*
X593091Y346709D01*
X593089Y346709D01*
G37*
%LPD*%
%LPC*%
G36*
X516889Y346709D02*
X516889Y346709D01*
X516889Y346711D01*
X516891Y346711D01*
X516891Y346709D01*
X516889Y346709D01*
G37*
%LPD*%
%LPC*%
G36*
X109219Y30479D02*
X109219Y30479D01*
X109219Y30481D01*
X109221Y30481D01*
X109221Y30479D01*
X109219Y30479D01*
G37*
%LPD*%
%LPC*%
G36*
X83819Y30479D02*
X83819Y30479D01*
X83819Y30481D01*
X83821Y30481D01*
X83821Y30479D01*
X83819Y30479D01*
G37*
%LPD*%
%LPC*%
G36*
X339089Y41909D02*
X339089Y41909D01*
X339089Y41911D01*
X339091Y41911D01*
X339091Y41909D01*
X339089Y41909D01*
G37*
%LPD*%
%LPC*%
G36*
X194359Y250189D02*
X194359Y250189D01*
X194359Y250191D01*
X194361Y250191D01*
X194361Y250189D01*
X194359Y250189D01*
G37*
%LPD*%
%LPC*%
G36*
X172609Y213359D02*
X172609Y213359D01*
X172609Y213361D01*
X172611Y213361D01*
X172611Y213359D01*
X172609Y213359D01*
G37*
%LPD*%
%LPC*%
G36*
X239919Y214629D02*
X239919Y214629D01*
X239919Y214631D01*
X239921Y214631D01*
X239921Y214629D01*
X239919Y214629D01*
G37*
%LPD*%
%LPC*%
G36*
X253949Y177799D02*
X253949Y177799D01*
X253949Y177801D01*
X253951Y177801D01*
X253951Y177799D01*
X253949Y177799D01*
G37*
%LPD*%
D10*
X702310Y381000D02*
X809440Y381000D01*
X809440Y0D02*
X702310Y0D01*
X789940Y650D02*
X789940Y380350D01*
X786748Y355000D01*
X793132Y355000D01*
X789940Y380350D01*
X788640Y355000D01*
X791240Y355000D02*
X789940Y380350D01*
X787340Y355000D01*
X792540Y355000D02*
X789940Y380350D01*
X786748Y26000D02*
X789940Y650D01*
X786748Y26000D02*
X793132Y26000D01*
X789940Y650D01*
X788640Y26000D01*
X791240Y26000D02*
X789940Y650D01*
X787340Y26000D01*
X792540Y26000D02*
X789940Y650D01*
D11*
X783433Y159352D02*
X783433Y163868D01*
X783431Y164001D01*
X783425Y164133D01*
X783415Y164265D01*
X783402Y164397D01*
X783384Y164529D01*
X783363Y164659D01*
X783338Y164790D01*
X783309Y164919D01*
X783276Y165047D01*
X783240Y165175D01*
X783200Y165301D01*
X783156Y165426D01*
X783108Y165550D01*
X783057Y165672D01*
X783002Y165793D01*
X782944Y165912D01*
X782882Y166030D01*
X782817Y166145D01*
X782748Y166259D01*
X782677Y166370D01*
X782601Y166479D01*
X782523Y166586D01*
X782442Y166691D01*
X782357Y166793D01*
X782270Y166893D01*
X782180Y166990D01*
X782087Y167085D01*
X781991Y167176D01*
X781893Y167265D01*
X781792Y167351D01*
X781688Y167434D01*
X781582Y167514D01*
X781474Y167590D01*
X781364Y167664D01*
X781251Y167734D01*
X781137Y167801D01*
X781020Y167864D01*
X780902Y167924D01*
X780782Y167981D01*
X780660Y168034D01*
X780537Y168083D01*
X780413Y168129D01*
X780287Y168171D01*
X780160Y168209D01*
X780032Y168244D01*
X779903Y168275D01*
X779774Y168302D01*
X779643Y168325D01*
X779512Y168345D01*
X779380Y168360D01*
X779248Y168372D01*
X779116Y168380D01*
X778983Y168384D01*
X778851Y168384D01*
X778718Y168380D01*
X778586Y168372D01*
X778454Y168360D01*
X778322Y168345D01*
X778191Y168325D01*
X778060Y168302D01*
X777931Y168275D01*
X777802Y168244D01*
X777674Y168209D01*
X777547Y168171D01*
X777421Y168129D01*
X777297Y168083D01*
X777174Y168034D01*
X777052Y167981D01*
X776932Y167924D01*
X776814Y167864D01*
X776697Y167801D01*
X776583Y167734D01*
X776470Y167664D01*
X776360Y167590D01*
X776252Y167514D01*
X776146Y167434D01*
X776042Y167351D01*
X775941Y167265D01*
X775843Y167176D01*
X775747Y167085D01*
X775654Y166990D01*
X775564Y166893D01*
X775477Y166793D01*
X775392Y166691D01*
X775311Y166586D01*
X775233Y166479D01*
X775157Y166370D01*
X775086Y166259D01*
X775017Y166145D01*
X774952Y166030D01*
X774890Y165912D01*
X774832Y165793D01*
X774777Y165672D01*
X774726Y165550D01*
X774678Y165426D01*
X774634Y165301D01*
X774594Y165175D01*
X774558Y165047D01*
X774525Y164919D01*
X774496Y164790D01*
X774471Y164659D01*
X774450Y164529D01*
X774432Y164397D01*
X774419Y164265D01*
X774409Y164133D01*
X774403Y164001D01*
X774401Y163868D01*
X767177Y164771D02*
X767177Y159352D01*
X767177Y164771D02*
X767179Y164890D01*
X767185Y165010D01*
X767195Y165129D01*
X767209Y165247D01*
X767226Y165366D01*
X767248Y165483D01*
X767273Y165600D01*
X767303Y165715D01*
X767336Y165830D01*
X767373Y165944D01*
X767413Y166056D01*
X767458Y166167D01*
X767506Y166276D01*
X767557Y166384D01*
X767612Y166490D01*
X767671Y166594D01*
X767733Y166696D01*
X767798Y166796D01*
X767867Y166894D01*
X767939Y166990D01*
X768014Y167083D01*
X768091Y167173D01*
X768172Y167261D01*
X768256Y167346D01*
X768343Y167428D01*
X768432Y167508D01*
X768524Y167584D01*
X768618Y167658D01*
X768715Y167728D01*
X768813Y167795D01*
X768914Y167859D01*
X769018Y167919D01*
X769123Y167976D01*
X769230Y168029D01*
X769338Y168079D01*
X769448Y168125D01*
X769560Y168167D01*
X769673Y168206D01*
X769787Y168241D01*
X769902Y168272D01*
X770019Y168300D01*
X770136Y168323D01*
X770253Y168343D01*
X770372Y168359D01*
X770491Y168371D01*
X770610Y168379D01*
X770729Y168383D01*
X770849Y168383D01*
X770968Y168379D01*
X771087Y168371D01*
X771206Y168359D01*
X771325Y168343D01*
X771442Y168323D01*
X771559Y168300D01*
X771676Y168272D01*
X771791Y168241D01*
X771905Y168206D01*
X772018Y168167D01*
X772130Y168125D01*
X772240Y168079D01*
X772348Y168029D01*
X772455Y167976D01*
X772560Y167919D01*
X772664Y167859D01*
X772765Y167795D01*
X772863Y167728D01*
X772960Y167658D01*
X773054Y167584D01*
X773146Y167508D01*
X773235Y167428D01*
X773322Y167346D01*
X773406Y167261D01*
X773487Y167173D01*
X773564Y167083D01*
X773639Y166990D01*
X773711Y166894D01*
X773780Y166796D01*
X773845Y166696D01*
X773907Y166594D01*
X773966Y166490D01*
X774021Y166384D01*
X774072Y166276D01*
X774120Y166167D01*
X774165Y166056D01*
X774205Y165944D01*
X774242Y165830D01*
X774275Y165715D01*
X774305Y165600D01*
X774330Y165483D01*
X774352Y165366D01*
X774369Y165247D01*
X774383Y165129D01*
X774393Y165010D01*
X774399Y164890D01*
X774401Y164771D01*
X774402Y164771D02*
X774402Y161158D01*
X778917Y174983D02*
X778784Y174985D01*
X778652Y174991D01*
X778520Y175001D01*
X778388Y175014D01*
X778256Y175032D01*
X778126Y175053D01*
X777995Y175078D01*
X777866Y175107D01*
X777738Y175140D01*
X777610Y175176D01*
X777484Y175216D01*
X777359Y175260D01*
X777235Y175308D01*
X777113Y175359D01*
X776992Y175414D01*
X776873Y175472D01*
X776755Y175534D01*
X776640Y175599D01*
X776526Y175668D01*
X776415Y175739D01*
X776306Y175815D01*
X776199Y175893D01*
X776094Y175974D01*
X775992Y176059D01*
X775892Y176146D01*
X775795Y176236D01*
X775700Y176329D01*
X775609Y176425D01*
X775520Y176523D01*
X775434Y176624D01*
X775351Y176728D01*
X775271Y176834D01*
X775195Y176942D01*
X775121Y177052D01*
X775051Y177165D01*
X774984Y177279D01*
X774921Y177396D01*
X774861Y177514D01*
X774804Y177634D01*
X774751Y177756D01*
X774702Y177879D01*
X774656Y178003D01*
X774614Y178129D01*
X774576Y178256D01*
X774541Y178384D01*
X774510Y178513D01*
X774483Y178642D01*
X774460Y178773D01*
X774440Y178904D01*
X774425Y179036D01*
X774413Y179168D01*
X774405Y179300D01*
X774401Y179433D01*
X774401Y179565D01*
X774405Y179698D01*
X774413Y179830D01*
X774425Y179962D01*
X774440Y180094D01*
X774460Y180225D01*
X774483Y180356D01*
X774510Y180485D01*
X774541Y180614D01*
X774576Y180742D01*
X774614Y180869D01*
X774656Y180995D01*
X774702Y181119D01*
X774751Y181242D01*
X774804Y181364D01*
X774861Y181484D01*
X774921Y181602D01*
X774984Y181719D01*
X775051Y181833D01*
X775121Y181946D01*
X775195Y182056D01*
X775271Y182164D01*
X775351Y182270D01*
X775434Y182374D01*
X775520Y182475D01*
X775609Y182573D01*
X775700Y182669D01*
X775795Y182762D01*
X775892Y182852D01*
X775992Y182939D01*
X776094Y183024D01*
X776199Y183105D01*
X776306Y183183D01*
X776415Y183259D01*
X776526Y183330D01*
X776640Y183399D01*
X776755Y183464D01*
X776873Y183526D01*
X776992Y183584D01*
X777113Y183639D01*
X777235Y183690D01*
X777359Y183738D01*
X777484Y183782D01*
X777610Y183822D01*
X777738Y183858D01*
X777866Y183891D01*
X777995Y183920D01*
X778126Y183945D01*
X778256Y183966D01*
X778388Y183984D01*
X778520Y183997D01*
X778652Y184007D01*
X778784Y184013D01*
X778917Y184015D01*
X779050Y184013D01*
X779182Y184007D01*
X779314Y183997D01*
X779446Y183984D01*
X779578Y183966D01*
X779708Y183945D01*
X779839Y183920D01*
X779968Y183891D01*
X780096Y183858D01*
X780224Y183822D01*
X780350Y183782D01*
X780475Y183738D01*
X780599Y183690D01*
X780721Y183639D01*
X780842Y183584D01*
X780961Y183526D01*
X781079Y183464D01*
X781194Y183399D01*
X781308Y183330D01*
X781419Y183259D01*
X781528Y183183D01*
X781635Y183105D01*
X781740Y183024D01*
X781842Y182939D01*
X781942Y182852D01*
X782039Y182762D01*
X782134Y182669D01*
X782225Y182573D01*
X782314Y182475D01*
X782400Y182374D01*
X782483Y182270D01*
X782563Y182164D01*
X782639Y182056D01*
X782713Y181946D01*
X782783Y181833D01*
X782850Y181719D01*
X782913Y181602D01*
X782973Y181484D01*
X783030Y181364D01*
X783083Y181242D01*
X783132Y181119D01*
X783178Y180995D01*
X783220Y180869D01*
X783258Y180742D01*
X783293Y180614D01*
X783324Y180485D01*
X783351Y180356D01*
X783374Y180225D01*
X783394Y180094D01*
X783409Y179962D01*
X783421Y179830D01*
X783429Y179698D01*
X783433Y179565D01*
X783433Y179433D01*
X783429Y179300D01*
X783421Y179168D01*
X783409Y179036D01*
X783394Y178904D01*
X783374Y178773D01*
X783351Y178642D01*
X783324Y178513D01*
X783293Y178384D01*
X783258Y178256D01*
X783220Y178129D01*
X783178Y178003D01*
X783132Y177879D01*
X783083Y177756D01*
X783030Y177634D01*
X782973Y177514D01*
X782913Y177396D01*
X782850Y177279D01*
X782783Y177165D01*
X782713Y177052D01*
X782639Y176942D01*
X782563Y176834D01*
X782483Y176728D01*
X782400Y176624D01*
X782314Y176523D01*
X782225Y176425D01*
X782134Y176329D01*
X782039Y176236D01*
X781942Y176146D01*
X781842Y176059D01*
X781740Y175974D01*
X781635Y175893D01*
X781528Y175815D01*
X781419Y175739D01*
X781308Y175668D01*
X781194Y175599D01*
X781079Y175534D01*
X780961Y175472D01*
X780842Y175414D01*
X780721Y175359D01*
X780599Y175308D01*
X780475Y175260D01*
X780350Y175216D01*
X780224Y175176D01*
X780096Y175140D01*
X779968Y175107D01*
X779839Y175078D01*
X779708Y175053D01*
X779578Y175032D01*
X779446Y175014D01*
X779314Y175001D01*
X779182Y174991D01*
X779050Y174985D01*
X778917Y174983D01*
X770789Y175887D02*
X770670Y175889D01*
X770550Y175895D01*
X770431Y175905D01*
X770313Y175919D01*
X770194Y175936D01*
X770077Y175958D01*
X769960Y175983D01*
X769845Y176013D01*
X769730Y176046D01*
X769616Y176083D01*
X769504Y176123D01*
X769393Y176168D01*
X769284Y176216D01*
X769176Y176267D01*
X769070Y176322D01*
X768966Y176381D01*
X768864Y176443D01*
X768764Y176508D01*
X768666Y176577D01*
X768570Y176649D01*
X768477Y176724D01*
X768387Y176801D01*
X768299Y176882D01*
X768214Y176966D01*
X768132Y177053D01*
X768052Y177142D01*
X767976Y177234D01*
X767902Y177328D01*
X767832Y177425D01*
X767765Y177523D01*
X767701Y177624D01*
X767641Y177728D01*
X767584Y177833D01*
X767531Y177940D01*
X767481Y178048D01*
X767435Y178158D01*
X767393Y178270D01*
X767354Y178383D01*
X767319Y178497D01*
X767288Y178612D01*
X767260Y178729D01*
X767237Y178846D01*
X767217Y178963D01*
X767201Y179082D01*
X767189Y179201D01*
X767181Y179320D01*
X767177Y179439D01*
X767177Y179559D01*
X767181Y179678D01*
X767189Y179797D01*
X767201Y179916D01*
X767217Y180035D01*
X767237Y180152D01*
X767260Y180269D01*
X767288Y180386D01*
X767319Y180501D01*
X767354Y180615D01*
X767393Y180728D01*
X767435Y180840D01*
X767481Y180950D01*
X767531Y181058D01*
X767584Y181165D01*
X767641Y181270D01*
X767701Y181374D01*
X767765Y181475D01*
X767832Y181573D01*
X767902Y181670D01*
X767976Y181764D01*
X768052Y181856D01*
X768132Y181945D01*
X768214Y182032D01*
X768299Y182116D01*
X768387Y182197D01*
X768477Y182274D01*
X768570Y182349D01*
X768666Y182421D01*
X768764Y182490D01*
X768864Y182555D01*
X768966Y182617D01*
X769070Y182676D01*
X769176Y182731D01*
X769284Y182782D01*
X769393Y182830D01*
X769504Y182875D01*
X769616Y182915D01*
X769730Y182952D01*
X769845Y182985D01*
X769960Y183015D01*
X770077Y183040D01*
X770194Y183062D01*
X770313Y183079D01*
X770431Y183093D01*
X770550Y183103D01*
X770670Y183109D01*
X770789Y183111D01*
X770908Y183109D01*
X771028Y183103D01*
X771147Y183093D01*
X771265Y183079D01*
X771384Y183062D01*
X771501Y183040D01*
X771618Y183015D01*
X771733Y182985D01*
X771848Y182952D01*
X771962Y182915D01*
X772074Y182875D01*
X772185Y182830D01*
X772294Y182782D01*
X772402Y182731D01*
X772508Y182676D01*
X772612Y182617D01*
X772714Y182555D01*
X772814Y182490D01*
X772912Y182421D01*
X773008Y182349D01*
X773101Y182274D01*
X773191Y182197D01*
X773279Y182116D01*
X773364Y182032D01*
X773446Y181945D01*
X773526Y181856D01*
X773602Y181764D01*
X773676Y181670D01*
X773746Y181573D01*
X773813Y181475D01*
X773877Y181374D01*
X773937Y181270D01*
X773994Y181165D01*
X774047Y181058D01*
X774097Y180950D01*
X774143Y180840D01*
X774185Y180728D01*
X774224Y180615D01*
X774259Y180501D01*
X774290Y180386D01*
X774318Y180269D01*
X774341Y180152D01*
X774361Y180035D01*
X774377Y179916D01*
X774389Y179797D01*
X774397Y179678D01*
X774401Y179559D01*
X774401Y179439D01*
X774397Y179320D01*
X774389Y179201D01*
X774377Y179082D01*
X774361Y178963D01*
X774341Y178846D01*
X774318Y178729D01*
X774290Y178612D01*
X774259Y178497D01*
X774224Y178383D01*
X774185Y178270D01*
X774143Y178158D01*
X774097Y178048D01*
X774047Y177940D01*
X773994Y177833D01*
X773937Y177728D01*
X773877Y177624D01*
X773813Y177523D01*
X773746Y177425D01*
X773676Y177328D01*
X773602Y177234D01*
X773526Y177142D01*
X773446Y177053D01*
X773364Y176966D01*
X773279Y176882D01*
X773191Y176801D01*
X773101Y176724D01*
X773008Y176649D01*
X772912Y176577D01*
X772814Y176508D01*
X772714Y176443D01*
X772612Y176381D01*
X772508Y176322D01*
X772402Y176267D01*
X772294Y176216D01*
X772185Y176168D01*
X772074Y176123D01*
X771962Y176083D01*
X771848Y176046D01*
X771733Y176013D01*
X771618Y175983D01*
X771501Y175958D01*
X771384Y175936D01*
X771265Y175919D01*
X771147Y175905D01*
X771028Y175895D01*
X770908Y175889D01*
X770789Y175887D01*
X782530Y189989D02*
X783433Y189989D01*
X782530Y189989D02*
X782530Y190892D01*
X783433Y190892D01*
X783433Y189989D01*
X770789Y196867D02*
X767177Y201382D01*
X783433Y201382D01*
X783433Y196867D02*
X783433Y205898D01*
X775305Y212498D02*
X774985Y212502D01*
X774666Y212513D01*
X774346Y212532D01*
X774028Y212559D01*
X773710Y212593D01*
X773393Y212635D01*
X773077Y212685D01*
X772762Y212742D01*
X772449Y212806D01*
X772137Y212878D01*
X771827Y212957D01*
X771520Y213044D01*
X771214Y213138D01*
X770911Y213239D01*
X770610Y213348D01*
X770312Y213463D01*
X770016Y213586D01*
X769724Y213716D01*
X769435Y213853D01*
X769434Y213854D02*
X769326Y213893D01*
X769219Y213936D01*
X769114Y213982D01*
X769011Y214032D01*
X768909Y214086D01*
X768809Y214143D01*
X768711Y214204D01*
X768615Y214268D01*
X768522Y214335D01*
X768431Y214405D01*
X768342Y214479D01*
X768256Y214555D01*
X768173Y214635D01*
X768092Y214717D01*
X768014Y214802D01*
X767940Y214889D01*
X767868Y214980D01*
X767799Y215072D01*
X767734Y215167D01*
X767672Y215264D01*
X767613Y215363D01*
X767558Y215464D01*
X767507Y215567D01*
X767459Y215672D01*
X767414Y215778D01*
X767373Y215885D01*
X767336Y215994D01*
X767303Y216105D01*
X767274Y216216D01*
X767248Y216328D01*
X767226Y216441D01*
X767209Y216555D01*
X767195Y216669D01*
X767185Y216784D01*
X767179Y216899D01*
X767177Y217014D01*
X767179Y217129D01*
X767185Y217244D01*
X767195Y217359D01*
X767209Y217473D01*
X767226Y217587D01*
X767248Y217700D01*
X767274Y217812D01*
X767303Y217924D01*
X767336Y218034D01*
X767373Y218143D01*
X767414Y218251D01*
X767459Y218357D01*
X767507Y218462D01*
X767558Y218564D01*
X767614Y218666D01*
X767672Y218765D01*
X767734Y218862D01*
X767800Y218957D01*
X767868Y219049D01*
X767940Y219139D01*
X768014Y219227D01*
X768092Y219312D01*
X768173Y219394D01*
X768256Y219473D01*
X768342Y219550D01*
X768431Y219623D01*
X768522Y219694D01*
X768616Y219761D01*
X768711Y219825D01*
X768809Y219886D01*
X768909Y219943D01*
X769011Y219996D01*
X769115Y220047D01*
X769220Y220093D01*
X769327Y220136D01*
X769435Y220175D01*
X769435Y220174D02*
X769724Y220311D01*
X770016Y220441D01*
X770312Y220564D01*
X770610Y220679D01*
X770911Y220788D01*
X771214Y220889D01*
X771520Y220983D01*
X771827Y221070D01*
X772137Y221149D01*
X772449Y221221D01*
X772762Y221285D01*
X773077Y221342D01*
X773393Y221392D01*
X773710Y221434D01*
X774028Y221468D01*
X774346Y221495D01*
X774666Y221514D01*
X774985Y221525D01*
X775305Y221529D01*
X775305Y212498D02*
X775625Y212502D01*
X775944Y212513D01*
X776264Y212532D01*
X776582Y212559D01*
X776900Y212593D01*
X777217Y212635D01*
X777533Y212685D01*
X777848Y212742D01*
X778161Y212806D01*
X778473Y212878D01*
X778783Y212957D01*
X779090Y213044D01*
X779396Y213138D01*
X779699Y213239D01*
X780000Y213348D01*
X780298Y213463D01*
X780594Y213586D01*
X780886Y213716D01*
X781175Y213853D01*
X781176Y213853D02*
X781284Y213892D01*
X781391Y213935D01*
X781496Y213981D01*
X781600Y214032D01*
X781702Y214085D01*
X781802Y214142D01*
X781900Y214203D01*
X781995Y214267D01*
X782089Y214334D01*
X782180Y214405D01*
X782269Y214478D01*
X782355Y214555D01*
X782438Y214634D01*
X782519Y214716D01*
X782597Y214801D01*
X782671Y214889D01*
X782743Y214979D01*
X782812Y215072D01*
X782877Y215166D01*
X782939Y215263D01*
X782997Y215363D01*
X783053Y215464D01*
X783104Y215566D01*
X783152Y215671D01*
X783197Y215777D01*
X783238Y215885D01*
X783275Y215994D01*
X783308Y216104D01*
X783337Y216216D01*
X783363Y216328D01*
X783385Y216441D01*
X783402Y216555D01*
X783416Y216669D01*
X783426Y216784D01*
X783432Y216899D01*
X783434Y217014D01*
X781175Y220174D02*
X780886Y220311D01*
X780594Y220441D01*
X780298Y220564D01*
X780000Y220679D01*
X779699Y220788D01*
X779396Y220889D01*
X779090Y220983D01*
X778783Y221070D01*
X778473Y221149D01*
X778161Y221221D01*
X777848Y221285D01*
X777533Y221342D01*
X777217Y221392D01*
X776900Y221434D01*
X776582Y221468D01*
X776264Y221495D01*
X775944Y221514D01*
X775625Y221525D01*
X775305Y221529D01*
X781175Y220175D02*
X781283Y220136D01*
X781390Y220093D01*
X781495Y220047D01*
X781599Y219996D01*
X781701Y219943D01*
X781801Y219886D01*
X781899Y219825D01*
X781994Y219761D01*
X782088Y219694D01*
X782179Y219623D01*
X782268Y219550D01*
X782354Y219473D01*
X782437Y219394D01*
X782518Y219312D01*
X782596Y219227D01*
X782670Y219139D01*
X782742Y219049D01*
X782811Y218956D01*
X782876Y218862D01*
X782938Y218765D01*
X782996Y218665D01*
X783052Y218564D01*
X783103Y218461D01*
X783151Y218357D01*
X783196Y218251D01*
X783237Y218143D01*
X783274Y218034D01*
X783307Y217924D01*
X783336Y217812D01*
X783362Y217700D01*
X783384Y217587D01*
X783401Y217473D01*
X783415Y217359D01*
X783425Y217244D01*
X783431Y217129D01*
X783433Y217014D01*
X779821Y213401D02*
X770789Y220626D01*
D10*
X3810Y25400D02*
X3810Y-60140D01*
X727710Y-60140D02*
X727710Y25400D01*
X727060Y-40640D02*
X4460Y-40640D01*
X29810Y-37448D01*
X29810Y-43832D01*
X4460Y-40640D01*
X29810Y-39340D01*
X29810Y-41940D02*
X4460Y-40640D01*
X29810Y-38040D01*
X29810Y-43240D02*
X4460Y-40640D01*
X701710Y-37448D02*
X727060Y-40640D01*
X701710Y-37448D02*
X701710Y-43832D01*
X727060Y-40640D01*
X701710Y-39340D01*
X701710Y-41940D02*
X727060Y-40640D01*
X701710Y-38040D01*
X701710Y-43240D02*
X727060Y-40640D01*
D11*
X334612Y-19683D02*
X334612Y-17877D01*
X343643Y-17877D01*
X339128Y-34133D01*
X355210Y-17877D02*
X355335Y-17879D01*
X355460Y-17885D01*
X355585Y-17894D01*
X355709Y-17908D01*
X355833Y-17925D01*
X355957Y-17946D01*
X356079Y-17971D01*
X356201Y-18000D01*
X356322Y-18032D01*
X356442Y-18068D01*
X356561Y-18108D01*
X356678Y-18151D01*
X356794Y-18198D01*
X356909Y-18249D01*
X357021Y-18303D01*
X357133Y-18361D01*
X357242Y-18421D01*
X357349Y-18486D01*
X357455Y-18553D01*
X357558Y-18624D01*
X357659Y-18698D01*
X357758Y-18775D01*
X357854Y-18855D01*
X357948Y-18938D01*
X358039Y-19023D01*
X358128Y-19112D01*
X358213Y-19203D01*
X358296Y-19297D01*
X358376Y-19393D01*
X358453Y-19492D01*
X358527Y-19593D01*
X358598Y-19696D01*
X358665Y-19802D01*
X358730Y-19909D01*
X358790Y-20018D01*
X358848Y-20130D01*
X358902Y-20242D01*
X358953Y-20357D01*
X359000Y-20473D01*
X359043Y-20590D01*
X359083Y-20709D01*
X359119Y-20829D01*
X359151Y-20950D01*
X359180Y-21072D01*
X359205Y-21194D01*
X359226Y-21318D01*
X359243Y-21442D01*
X359257Y-21566D01*
X359266Y-21691D01*
X359272Y-21816D01*
X359274Y-21941D01*
X355210Y-17877D02*
X355067Y-17879D01*
X354925Y-17885D01*
X354782Y-17895D01*
X354640Y-17908D01*
X354499Y-17926D01*
X354357Y-17947D01*
X354217Y-17972D01*
X354077Y-18001D01*
X353938Y-18034D01*
X353800Y-18071D01*
X353663Y-18111D01*
X353528Y-18155D01*
X353393Y-18203D01*
X353260Y-18255D01*
X353128Y-18310D01*
X352998Y-18369D01*
X352870Y-18431D01*
X352743Y-18497D01*
X352618Y-18566D01*
X352495Y-18638D01*
X352374Y-18714D01*
X352256Y-18793D01*
X352139Y-18876D01*
X352025Y-18961D01*
X351913Y-19050D01*
X351804Y-19141D01*
X351697Y-19236D01*
X351592Y-19333D01*
X351491Y-19434D01*
X351392Y-19537D01*
X351296Y-19642D01*
X351203Y-19751D01*
X351113Y-19862D01*
X351026Y-19975D01*
X350942Y-20090D01*
X350862Y-20208D01*
X350784Y-20328D01*
X350710Y-20450D01*
X350640Y-20574D01*
X350572Y-20700D01*
X350509Y-20828D01*
X350448Y-20957D01*
X350391Y-21088D01*
X350338Y-21220D01*
X350289Y-21354D01*
X350243Y-21489D01*
X357919Y-25102D02*
X358013Y-25010D01*
X358103Y-24916D01*
X358191Y-24819D01*
X358276Y-24719D01*
X358358Y-24617D01*
X358436Y-24512D01*
X358512Y-24405D01*
X358584Y-24296D01*
X358653Y-24185D01*
X358719Y-24071D01*
X358781Y-23956D01*
X358840Y-23839D01*
X358895Y-23720D01*
X358946Y-23600D01*
X358994Y-23478D01*
X359039Y-23355D01*
X359079Y-23231D01*
X359116Y-23105D01*
X359149Y-22978D01*
X359178Y-22851D01*
X359204Y-22722D01*
X359225Y-22593D01*
X359243Y-22463D01*
X359256Y-22333D01*
X359266Y-22203D01*
X359272Y-22072D01*
X359274Y-21941D01*
X357920Y-25102D02*
X350243Y-34133D01*
X359274Y-34133D01*
X365249Y-34133D02*
X365249Y-33230D01*
X366152Y-33230D01*
X366152Y-34133D01*
X365249Y-34133D01*
X372127Y-34133D02*
X376642Y-34133D01*
X376775Y-34131D01*
X376907Y-34125D01*
X377039Y-34115D01*
X377171Y-34102D01*
X377303Y-34084D01*
X377433Y-34063D01*
X377564Y-34038D01*
X377693Y-34009D01*
X377821Y-33976D01*
X377949Y-33940D01*
X378075Y-33900D01*
X378200Y-33856D01*
X378324Y-33808D01*
X378446Y-33757D01*
X378567Y-33702D01*
X378686Y-33644D01*
X378804Y-33582D01*
X378919Y-33517D01*
X379033Y-33448D01*
X379144Y-33377D01*
X379253Y-33301D01*
X379360Y-33223D01*
X379465Y-33142D01*
X379567Y-33057D01*
X379667Y-32970D01*
X379764Y-32880D01*
X379859Y-32787D01*
X379950Y-32691D01*
X380039Y-32593D01*
X380125Y-32492D01*
X380208Y-32388D01*
X380288Y-32282D01*
X380364Y-32174D01*
X380438Y-32064D01*
X380508Y-31951D01*
X380575Y-31837D01*
X380638Y-31720D01*
X380698Y-31602D01*
X380755Y-31482D01*
X380808Y-31360D01*
X380857Y-31237D01*
X380903Y-31113D01*
X380945Y-30987D01*
X380983Y-30860D01*
X381018Y-30732D01*
X381049Y-30603D01*
X381076Y-30474D01*
X381099Y-30343D01*
X381119Y-30212D01*
X381134Y-30080D01*
X381146Y-29948D01*
X381154Y-29816D01*
X381158Y-29683D01*
X381158Y-29551D01*
X381154Y-29418D01*
X381146Y-29286D01*
X381134Y-29154D01*
X381119Y-29022D01*
X381099Y-28891D01*
X381076Y-28760D01*
X381049Y-28631D01*
X381018Y-28502D01*
X380983Y-28374D01*
X380945Y-28247D01*
X380903Y-28121D01*
X380857Y-27997D01*
X380808Y-27874D01*
X380755Y-27752D01*
X380698Y-27632D01*
X380638Y-27514D01*
X380575Y-27397D01*
X380508Y-27283D01*
X380438Y-27170D01*
X380364Y-27060D01*
X380288Y-26952D01*
X380208Y-26846D01*
X380125Y-26742D01*
X380039Y-26641D01*
X379950Y-26543D01*
X379859Y-26447D01*
X379764Y-26354D01*
X379667Y-26264D01*
X379567Y-26177D01*
X379465Y-26092D01*
X379360Y-26011D01*
X379253Y-25933D01*
X379144Y-25857D01*
X379033Y-25786D01*
X378919Y-25717D01*
X378804Y-25652D01*
X378686Y-25590D01*
X378567Y-25532D01*
X378446Y-25477D01*
X378324Y-25426D01*
X378200Y-25378D01*
X378075Y-25334D01*
X377949Y-25294D01*
X377821Y-25258D01*
X377693Y-25225D01*
X377564Y-25196D01*
X377433Y-25171D01*
X377303Y-25150D01*
X377171Y-25132D01*
X377039Y-25119D01*
X376907Y-25109D01*
X376775Y-25103D01*
X376642Y-25101D01*
X377546Y-17877D02*
X372127Y-17877D01*
X377546Y-17877D02*
X377665Y-17879D01*
X377785Y-17885D01*
X377904Y-17895D01*
X378022Y-17909D01*
X378141Y-17926D01*
X378258Y-17948D01*
X378375Y-17973D01*
X378490Y-18003D01*
X378605Y-18036D01*
X378719Y-18073D01*
X378831Y-18113D01*
X378942Y-18158D01*
X379051Y-18206D01*
X379159Y-18257D01*
X379265Y-18312D01*
X379369Y-18371D01*
X379471Y-18433D01*
X379571Y-18498D01*
X379669Y-18567D01*
X379765Y-18639D01*
X379858Y-18714D01*
X379948Y-18791D01*
X380036Y-18872D01*
X380121Y-18956D01*
X380203Y-19043D01*
X380283Y-19132D01*
X380359Y-19224D01*
X380433Y-19318D01*
X380503Y-19415D01*
X380570Y-19513D01*
X380634Y-19614D01*
X380694Y-19718D01*
X380751Y-19823D01*
X380804Y-19930D01*
X380854Y-20038D01*
X380900Y-20148D01*
X380942Y-20260D01*
X380981Y-20373D01*
X381016Y-20487D01*
X381047Y-20602D01*
X381075Y-20719D01*
X381098Y-20836D01*
X381118Y-20953D01*
X381134Y-21072D01*
X381146Y-21191D01*
X381154Y-21310D01*
X381158Y-21429D01*
X381158Y-21549D01*
X381154Y-21668D01*
X381146Y-21787D01*
X381134Y-21906D01*
X381118Y-22025D01*
X381098Y-22142D01*
X381075Y-22259D01*
X381047Y-22376D01*
X381016Y-22491D01*
X380981Y-22605D01*
X380942Y-22718D01*
X380900Y-22830D01*
X380854Y-22940D01*
X380804Y-23048D01*
X380751Y-23155D01*
X380694Y-23260D01*
X380634Y-23364D01*
X380570Y-23465D01*
X380503Y-23563D01*
X380433Y-23660D01*
X380359Y-23754D01*
X380283Y-23846D01*
X380203Y-23935D01*
X380121Y-24022D01*
X380036Y-24106D01*
X379948Y-24187D01*
X379858Y-24264D01*
X379765Y-24339D01*
X379669Y-24411D01*
X379571Y-24480D01*
X379471Y-24545D01*
X379369Y-24607D01*
X379265Y-24666D01*
X379159Y-24721D01*
X379051Y-24772D01*
X378942Y-24820D01*
X378831Y-24865D01*
X378719Y-24905D01*
X378605Y-24942D01*
X378490Y-24975D01*
X378375Y-25005D01*
X378258Y-25030D01*
X378141Y-25052D01*
X378022Y-25069D01*
X377904Y-25083D01*
X377785Y-25093D01*
X377665Y-25099D01*
X377546Y-25101D01*
X377546Y-25102D02*
X373933Y-25102D01*
X391371Y-26908D02*
X396789Y-26908D01*
X391371Y-26908D02*
X391253Y-26906D01*
X391135Y-26900D01*
X391017Y-26891D01*
X390900Y-26877D01*
X390783Y-26860D01*
X390666Y-26839D01*
X390551Y-26814D01*
X390436Y-26785D01*
X390322Y-26752D01*
X390210Y-26716D01*
X390099Y-26676D01*
X389989Y-26633D01*
X389880Y-26586D01*
X389773Y-26536D01*
X389668Y-26481D01*
X389565Y-26424D01*
X389464Y-26363D01*
X389364Y-26299D01*
X389267Y-26232D01*
X389172Y-26162D01*
X389080Y-26088D01*
X388989Y-26012D01*
X388902Y-25932D01*
X388817Y-25850D01*
X388735Y-25765D01*
X388655Y-25678D01*
X388579Y-25587D01*
X388505Y-25495D01*
X388435Y-25400D01*
X388368Y-25303D01*
X388304Y-25203D01*
X388243Y-25102D01*
X388186Y-24999D01*
X388131Y-24894D01*
X388081Y-24787D01*
X388034Y-24678D01*
X387991Y-24568D01*
X387951Y-24457D01*
X387915Y-24345D01*
X387882Y-24231D01*
X387853Y-24116D01*
X387828Y-24001D01*
X387807Y-23884D01*
X387790Y-23767D01*
X387776Y-23650D01*
X387767Y-23532D01*
X387761Y-23414D01*
X387759Y-23296D01*
X387758Y-23296D02*
X387758Y-22393D01*
X387760Y-22260D01*
X387766Y-22128D01*
X387776Y-21996D01*
X387789Y-21864D01*
X387807Y-21732D01*
X387828Y-21602D01*
X387853Y-21471D01*
X387882Y-21342D01*
X387915Y-21214D01*
X387951Y-21086D01*
X387991Y-20960D01*
X388035Y-20835D01*
X388083Y-20711D01*
X388134Y-20589D01*
X388189Y-20468D01*
X388247Y-20349D01*
X388309Y-20231D01*
X388374Y-20116D01*
X388443Y-20002D01*
X388514Y-19891D01*
X388590Y-19782D01*
X388668Y-19675D01*
X388749Y-19570D01*
X388834Y-19468D01*
X388921Y-19368D01*
X389011Y-19271D01*
X389104Y-19176D01*
X389200Y-19085D01*
X389298Y-18996D01*
X389399Y-18910D01*
X389503Y-18827D01*
X389609Y-18747D01*
X389717Y-18671D01*
X389827Y-18597D01*
X389940Y-18527D01*
X390054Y-18460D01*
X390171Y-18397D01*
X390289Y-18337D01*
X390409Y-18280D01*
X390531Y-18227D01*
X390654Y-18178D01*
X390778Y-18132D01*
X390904Y-18090D01*
X391031Y-18052D01*
X391159Y-18017D01*
X391288Y-17986D01*
X391417Y-17959D01*
X391548Y-17936D01*
X391679Y-17916D01*
X391811Y-17901D01*
X391943Y-17889D01*
X392075Y-17881D01*
X392208Y-17877D01*
X392340Y-17877D01*
X392473Y-17881D01*
X392605Y-17889D01*
X392737Y-17901D01*
X392869Y-17916D01*
X393000Y-17936D01*
X393131Y-17959D01*
X393260Y-17986D01*
X393389Y-18017D01*
X393517Y-18052D01*
X393644Y-18090D01*
X393770Y-18132D01*
X393894Y-18178D01*
X394017Y-18227D01*
X394139Y-18280D01*
X394259Y-18337D01*
X394377Y-18397D01*
X394494Y-18460D01*
X394608Y-18527D01*
X394721Y-18597D01*
X394831Y-18671D01*
X394939Y-18747D01*
X395045Y-18827D01*
X395149Y-18910D01*
X395250Y-18996D01*
X395348Y-19085D01*
X395444Y-19176D01*
X395537Y-19271D01*
X395627Y-19368D01*
X395714Y-19468D01*
X395799Y-19570D01*
X395880Y-19675D01*
X395958Y-19782D01*
X396034Y-19891D01*
X396105Y-20002D01*
X396174Y-20116D01*
X396239Y-20231D01*
X396301Y-20349D01*
X396359Y-20468D01*
X396414Y-20589D01*
X396465Y-20711D01*
X396513Y-20835D01*
X396557Y-20960D01*
X396597Y-21086D01*
X396633Y-21214D01*
X396666Y-21342D01*
X396695Y-21471D01*
X396720Y-21602D01*
X396741Y-21732D01*
X396759Y-21864D01*
X396772Y-21996D01*
X396782Y-22128D01*
X396788Y-22260D01*
X396790Y-22393D01*
X396789Y-22393D02*
X396789Y-26908D01*
X396787Y-27083D01*
X396781Y-27257D01*
X396770Y-27431D01*
X396755Y-27605D01*
X396736Y-27779D01*
X396713Y-27952D01*
X396686Y-28124D01*
X396654Y-28296D01*
X396619Y-28467D01*
X396579Y-28637D01*
X396535Y-28806D01*
X396487Y-28974D01*
X396435Y-29141D01*
X396379Y-29306D01*
X396319Y-29470D01*
X396256Y-29633D01*
X396188Y-29793D01*
X396116Y-29953D01*
X396041Y-30110D01*
X395961Y-30266D01*
X395878Y-30419D01*
X395792Y-30571D01*
X395701Y-30720D01*
X395607Y-30867D01*
X395510Y-31012D01*
X395409Y-31155D01*
X395305Y-31295D01*
X395197Y-31432D01*
X395086Y-31567D01*
X394972Y-31699D01*
X394855Y-31828D01*
X394734Y-31955D01*
X394611Y-32078D01*
X394484Y-32199D01*
X394355Y-32316D01*
X394223Y-32430D01*
X394088Y-32541D01*
X393951Y-32649D01*
X393811Y-32753D01*
X393668Y-32854D01*
X393523Y-32951D01*
X393376Y-33045D01*
X393227Y-33136D01*
X393075Y-33222D01*
X392922Y-33305D01*
X392766Y-33385D01*
X392609Y-33460D01*
X392449Y-33532D01*
X392289Y-33600D01*
X392126Y-33663D01*
X391962Y-33723D01*
X391797Y-33779D01*
X391630Y-33831D01*
X391462Y-33879D01*
X391293Y-33923D01*
X391123Y-33963D01*
X390952Y-33998D01*
X390780Y-34030D01*
X390608Y-34057D01*
X390435Y-34080D01*
X390261Y-34099D01*
X390087Y-34114D01*
X389913Y-34125D01*
X389739Y-34131D01*
X389564Y-34133D01*
D12*
X298450Y153670D03*
X298450Y179070D03*
X298450Y204470D03*
D13*
X298450Y229870D03*
D14*
X253950Y177800D03*
X190550Y177800D03*
D15*
X190610Y213360D03*
X172610Y213360D03*
D16*
X643890Y346710D03*
X618490Y346710D03*
X593090Y346710D03*
X567690Y346710D03*
X542290Y346710D03*
X516890Y346710D03*
X491490Y346710D03*
X466090Y346710D03*
X440690Y346710D03*
X415290Y346710D03*
X389890Y346710D03*
X364490Y346710D03*
X339090Y346710D03*
X339090Y41910D03*
X364490Y41910D03*
X389890Y41910D03*
X415290Y41910D03*
X440690Y41910D03*
X466090Y41910D03*
X491490Y41910D03*
X516890Y41910D03*
X542290Y41910D03*
X567690Y41910D03*
X593090Y41910D03*
X618490Y41910D03*
X643890Y41910D03*
D17*
X384810Y369570D03*
X368300Y369570D03*
X351790Y369570D03*
D14*
X194360Y250190D03*
X257760Y250190D03*
D15*
X257920Y214630D03*
X239920Y214630D03*
D16*
X355600Y231140D03*
X355600Y205740D03*
X355600Y180340D03*
X355600Y154940D03*
D18*
X147320Y124460D03*
X162560Y124460D03*
X264160Y124460D03*
X279400Y124460D03*
X228600Y124460D03*
X243840Y124460D03*
X182880Y124460D03*
X198120Y124460D03*
D19*
X567690Y308610D03*
X542290Y308610D03*
X516890Y308610D03*
X491490Y308610D03*
X466090Y308610D03*
X440690Y308610D03*
X415290Y308610D03*
X389890Y308610D03*
X364490Y308610D03*
X339090Y308610D03*
X313690Y308610D03*
X288290Y308610D03*
X262890Y308610D03*
X237490Y308610D03*
X212090Y308610D03*
X186690Y308610D03*
X161290Y308610D03*
X161290Y80010D03*
X186690Y80010D03*
X212090Y80010D03*
X237490Y80010D03*
X262890Y80010D03*
X288290Y80010D03*
X313690Y80010D03*
X339090Y80010D03*
X364490Y80010D03*
X389890Y80010D03*
X415290Y80010D03*
X440690Y80010D03*
X466090Y80010D03*
X491490Y80010D03*
X516890Y80010D03*
X542290Y80010D03*
X567690Y80010D03*
D20*
X83820Y30480D03*
X109220Y30480D03*
X134620Y30480D03*
X160020Y30480D03*
X185420Y30480D03*
X210820Y30480D03*
X236220Y30480D03*
X261620Y30480D03*
X287020Y30480D03*
X83820Y359410D03*
X109220Y359410D03*
X134620Y359410D03*
X160020Y359410D03*
X185420Y359410D03*
X210820Y359410D03*
X236220Y359410D03*
X261620Y359410D03*
X287020Y359410D03*
D21*
X715010Y328930D03*
D22*
X213360Y115570D03*
X213360Y135890D03*
X322580Y34290D03*
D21*
X205740Y250190D03*
X167640Y213360D03*
X234950Y214630D03*
X241300Y176530D03*
D23*
X239920Y214630D02*
X234950Y214630D01*
X242570Y177800D02*
X253950Y177800D01*
X242570Y177800D02*
X241300Y176530D01*
X172610Y213360D02*
X167640Y213360D01*
X194360Y250190D02*
X205740Y250190D01*
D22*
X546100Y266700D03*
X508000Y266700D03*
X469900Y266700D03*
X431800Y266700D03*
X431800Y228600D03*
X469900Y228600D03*
X508000Y228600D03*
X546100Y228600D03*
X431800Y190500D03*
X431800Y152400D03*
X469900Y152400D03*
X469900Y190500D03*
X508000Y190500D03*
X508000Y152400D03*
X546100Y152400D03*
X546100Y190500D03*
X469900Y114300D03*
X508000Y114300D03*
X546100Y114300D03*
X381000Y228600D03*
X381000Y190500D03*
X381000Y152400D03*
X330200Y266700D03*
X228600Y266700D03*
X139700Y266700D03*
X88900Y266700D03*
X25400Y266700D03*
X25400Y304800D03*
X88900Y304800D03*
X139700Y304800D03*
X88900Y228600D03*
X88900Y190500D03*
X139700Y190500D03*
X139700Y228600D03*
X88900Y114300D03*
X25400Y114300D03*
X25400Y63500D03*
X381000Y114300D03*
X304800Y114300D03*
X546100Y12700D03*
X596900Y12700D03*
X647700Y12700D03*
X495300Y12700D03*
X254000Y12700D03*
X203200Y12700D03*
X152400Y12700D03*
X101600Y12700D03*
X50800Y12700D03*
X698500Y266700D03*
X698500Y228600D03*
X698500Y190500D03*
X698500Y152400D03*
X698500Y114300D03*
X386080Y58420D03*
X361950Y58420D03*
X300990Y67310D03*
D24*
X182880Y124460D02*
X181610Y125730D01*
X181610Y146050D01*
X181610Y147320D01*
X190550Y156260D02*
X190550Y177800D01*
X190550Y156260D02*
X181610Y147320D01*
D22*
X181610Y146050D03*
X181610Y138430D03*
D24*
X264160Y138430D02*
X264160Y124460D01*
D22*
X264160Y146050D03*
D24*
X264160Y138430D01*
D22*
X264160Y138430D03*
D25*
X190610Y177860D02*
X190610Y213360D01*
X190610Y177860D02*
X190550Y177800D01*
D21*
X101600Y139700D03*
X194310Y213360D03*
X203200Y177800D03*
D23*
X190670Y177800D01*
X190610Y177860D01*
X190610Y213360D02*
X194310Y213360D01*
D26*
X516890Y80010D02*
X516890Y72580D01*
X506730Y62420D01*
X434340Y62420D01*
X429260Y67500D01*
X429260Y121730D02*
X422910Y128080D01*
X337630Y142430D02*
X337630Y187960D01*
X322390Y203200D01*
X299720Y203200D02*
X298450Y204470D01*
X429260Y121730D02*
X429260Y67500D01*
X422910Y128080D02*
X351980Y128080D01*
X337630Y142430D01*
X322390Y203200D02*
X299720Y203200D01*
X298450Y229870D02*
X321310Y229870D01*
X341630Y209550D02*
X341630Y144780D01*
X354330Y132080D01*
X425450Y132080D01*
X440690Y116840D01*
X440690Y80010D01*
X341630Y209550D02*
X321310Y229870D01*
X516890Y52070D02*
X516890Y41910D01*
X510540Y58420D02*
X410210Y58420D01*
X389890Y78740D01*
X389890Y80010D01*
X510540Y58420D02*
X516890Y52070D01*
X491490Y49340D02*
X491490Y41910D01*
X491490Y49340D02*
X486410Y54420D01*
X408553Y54420D01*
X394393Y68580D02*
X375920Y68580D01*
X394393Y68580D02*
X408553Y54420D01*
X375920Y68580D02*
X364490Y80010D01*
D27*
X389890Y346710D02*
X389890Y351790D01*
X384810Y356870D01*
X384810Y369570D01*
D24*
X259030Y251460D02*
X257760Y250190D01*
D25*
X257920Y250030D02*
X257920Y214630D01*
X257920Y250030D02*
X257760Y250190D01*
D28*
X355600Y251460D02*
X355600Y231140D01*
X669290Y328930D02*
X669290Y360680D01*
X660400Y369570D02*
X384810Y369570D01*
X660400Y369570D02*
X669290Y360680D01*
X354330Y250190D02*
X257760Y250190D01*
X354330Y250190D02*
X355600Y251460D01*
D21*
X685800Y328930D03*
D24*
X669290Y328930D01*
D21*
X245110Y250190D03*
X262890Y214630D03*
D23*
X257760Y250190D02*
X245110Y250190D01*
X257920Y214630D02*
X262890Y214630D01*
D28*
X387700Y283560D02*
X477867Y283560D01*
X486185Y291878D01*
X647478Y291878D01*
X669290Y313690D01*
X669290Y328930D01*
X387700Y283560D02*
X355600Y251460D01*
D26*
X44450Y266700D02*
X44450Y195580D01*
X58420Y181610D01*
X44450Y266700D02*
X69390Y291640D01*
D22*
X58420Y181610D03*
D21*
X53340Y138430D03*
D26*
X334397Y291640D02*
X337445Y294688D01*
X334397Y291640D02*
X69390Y291640D01*
X485997Y308610D02*
X491490Y308610D01*
X485997Y308610D02*
X472075Y294688D01*
X337445Y294688D01*
D27*
X364490Y346710D02*
X364490Y351790D01*
X368300Y355600D02*
X368300Y369570D01*
X368300Y355600D02*
X364490Y351790D01*
D29*
X162560Y124460D02*
X162560Y113030D01*
X168370Y107220D02*
X274860Y107220D01*
X279400Y111760D01*
X279400Y124460D01*
X168370Y107220D02*
X162560Y113030D01*
D24*
X279400Y124460D02*
X279400Y148590D01*
X284480Y153670D02*
X298450Y153670D01*
X284480Y153670D02*
X279400Y148590D01*
D29*
X198120Y138430D02*
X198120Y124460D01*
X198120Y138430D02*
X204470Y144780D01*
X237490Y144780D01*
X243840Y138430D01*
X243840Y124460D01*
D22*
X243840Y138430D03*
D26*
X247650Y45720D02*
X323850Y45720D01*
X339090Y60960D01*
X339090Y80010D01*
X236220Y34290D02*
X236220Y30480D01*
X236220Y34290D02*
X247650Y45720D01*
X302450Y49720D02*
X313690Y60960D01*
X313690Y80010D01*
X302450Y49720D02*
X222440Y49720D01*
X210820Y38100D02*
X210820Y30480D01*
X210820Y38100D02*
X222440Y49720D01*
X279400Y53720D02*
X288290Y62610D01*
X279400Y53720D02*
X197230Y53720D01*
X288290Y62610D02*
X288290Y80010D01*
X185420Y41910D02*
X185420Y30480D01*
X185420Y41910D02*
X197230Y53720D01*
X354411Y328040D02*
X445967Y328040D01*
X453967Y320040D01*
X505460Y320040D02*
X516890Y308610D01*
X505460Y320040D02*
X453967Y320040D01*
X354411Y328040D02*
X346649Y335802D01*
X332218Y335802D01*
X265677Y359410D02*
X261620Y359410D01*
X265677Y359410D02*
X278075Y347012D01*
X321008Y347012D01*
X332218Y335802D01*
X344992Y331802D02*
X352754Y324040D01*
X459740Y308610D02*
X466090Y308610D01*
X444310Y324040D02*
X352754Y324040D01*
X444310Y324040D02*
X459740Y308610D01*
X344992Y331802D02*
X330561Y331802D01*
X319351Y343012D01*
X274208Y343012D02*
X270208Y347012D01*
X248865Y347012D01*
X236467Y359410D02*
X236220Y359410D01*
X236467Y359410D02*
X248865Y347012D01*
X274208Y343012D02*
X319351Y343012D01*
X429260Y320040D02*
X440690Y308610D01*
X429260Y320040D02*
X351097Y320040D01*
X344458Y326678D01*
X343335Y327802D01*
X328904Y327802D01*
X317694Y339012D01*
X272551Y339012D02*
X268551Y343012D01*
X244998Y343012D02*
X240998Y347012D01*
X223218Y347012D02*
X210820Y359410D01*
X272551Y339012D02*
X317694Y339012D01*
X268551Y343012D02*
X244998Y343012D01*
X240998Y347012D02*
X223218Y347012D01*
X356870Y308610D02*
X364490Y308610D01*
X356870Y308610D02*
X341678Y323802D01*
X327247Y323802D01*
X316037Y335012D01*
X270894Y335012D01*
X266894Y339012D01*
X243341Y339012D01*
X239341Y343012D01*
X219598Y343012D02*
X215598Y347012D01*
X197818Y347012D02*
X185420Y359410D01*
X219598Y343012D02*
X239341Y343012D01*
X215598Y347012D02*
X197818Y347012D01*
X327898Y319802D02*
X339090Y308610D01*
X327898Y319802D02*
X325591Y319802D01*
X314381Y331012D01*
X269237Y331012D01*
X265237Y335012D01*
X241684Y335012D01*
X237684Y339012D01*
X217248Y339012D02*
X213248Y343012D01*
X209550Y343012D01*
X208280Y343012D01*
X217248Y339012D02*
X237684Y339012D01*
X208280Y343012D02*
X192928Y343012D01*
X188928Y347012D01*
X172418Y347012D02*
X160020Y359410D01*
X172418Y347012D02*
X188928Y347012D01*
D22*
X427990Y335280D03*
D29*
X429690Y333580D01*
X448262Y333580D01*
X456262Y325580D01*
X550720Y325580D02*
X567690Y308610D01*
X550720Y325580D02*
X456262Y325580D01*
D26*
X288290Y315582D02*
X288290Y308610D01*
X288290Y315582D02*
X276860Y327012D01*
X267581Y327012D01*
X263581Y331012D01*
X240027Y331012D01*
X236027Y335012D01*
X215591Y335012D02*
X211591Y339012D01*
X191271Y339012D01*
X187271Y343012D01*
X170761Y343012D01*
X166761Y347012D01*
X147018Y347012D02*
X134620Y359410D01*
X215591Y335012D02*
X236027Y335012D01*
X166761Y347012D02*
X147018Y347012D01*
M02*
