G04 EAGLE Gerber RS-274X export*
G75*
%MOMM*%
%FSLAX34Y34*%
%LPD*%
%IN*%
%IPPOS*%
%AMOC8*
5,1,8,0,0,1.08239X$1,22.5*%
G01*
%ADD10C,0.254000*%


D10*
X3810Y25400D02*
X3907Y23186D01*
X4196Y20989D01*
X4675Y18826D01*
X5342Y16713D01*
X6190Y14666D01*
X7213Y12700D01*
X8404Y10831D01*
X9752Y9073D01*
X11250Y7440D01*
X12883Y5942D01*
X14641Y4594D01*
X16510Y3403D01*
X18476Y2380D01*
X20523Y1532D01*
X22636Y865D01*
X24799Y386D01*
X26996Y97D01*
X29210Y0D01*
X702310Y0D01*
X704524Y97D01*
X706721Y386D01*
X708884Y865D01*
X710997Y1532D01*
X713045Y2380D01*
X715010Y3403D01*
X716879Y4594D01*
X718637Y5942D01*
X720271Y7440D01*
X721768Y9073D01*
X723116Y10831D01*
X724307Y12700D01*
X725330Y14666D01*
X726178Y16713D01*
X726845Y18826D01*
X727324Y20989D01*
X727613Y23186D01*
X727710Y25400D01*
X727710Y355600D01*
X727613Y357814D01*
X727324Y360011D01*
X726845Y362174D01*
X726178Y364287D01*
X725330Y366335D01*
X724307Y368300D01*
X723116Y370169D01*
X721768Y371927D01*
X720271Y373561D01*
X718637Y375058D01*
X716879Y376406D01*
X715010Y377597D01*
X713045Y378620D01*
X710997Y379468D01*
X708884Y380135D01*
X706721Y380614D01*
X704524Y380903D01*
X702310Y381000D01*
X29210Y381000D01*
X26996Y380903D01*
X24799Y380614D01*
X22636Y380135D01*
X20523Y379468D01*
X18476Y378620D01*
X16510Y377597D01*
X14641Y376406D01*
X12883Y375058D01*
X11250Y373561D01*
X9752Y371927D01*
X8404Y370169D01*
X7213Y368300D01*
X6190Y366335D01*
X5342Y364287D01*
X4675Y362174D01*
X4196Y360011D01*
X3907Y357814D01*
X3810Y355600D01*
X3810Y25400D01*
X709960Y82050D02*
X709889Y81053D01*
X709746Y80063D01*
X709534Y79086D01*
X709252Y78126D01*
X708903Y77189D01*
X708487Y76279D01*
X708008Y75402D01*
X707467Y74560D01*
X706868Y73760D01*
X706213Y73004D01*
X705506Y72297D01*
X704750Y71642D01*
X703950Y71043D01*
X703108Y70502D01*
X702231Y70023D01*
X701321Y69607D01*
X700384Y69258D01*
X699425Y68976D01*
X698447Y68764D01*
X697458Y68621D01*
X696460Y68550D01*
X695460Y68550D01*
X694463Y68621D01*
X693473Y68764D01*
X692496Y68976D01*
X691536Y69258D01*
X690599Y69607D01*
X689689Y70023D01*
X688812Y70502D01*
X687970Y71043D01*
X687170Y71642D01*
X686414Y72297D01*
X685707Y73004D01*
X685052Y73760D01*
X684453Y74560D01*
X683912Y75402D01*
X683433Y76279D01*
X683017Y77189D01*
X682668Y78126D01*
X682386Y79086D01*
X682174Y80063D01*
X682031Y81053D01*
X681960Y82050D01*
X681960Y83050D01*
X682031Y84048D01*
X682174Y85037D01*
X682386Y86015D01*
X682668Y86974D01*
X683017Y87911D01*
X683433Y88821D01*
X683912Y89698D01*
X684453Y90540D01*
X685052Y91340D01*
X685707Y92096D01*
X686414Y92803D01*
X687170Y93458D01*
X687970Y94057D01*
X688812Y94598D01*
X689689Y95077D01*
X690599Y95493D01*
X691536Y95842D01*
X692496Y96124D01*
X693473Y96336D01*
X694463Y96479D01*
X695460Y96550D01*
X696460Y96550D01*
X697458Y96479D01*
X698447Y96336D01*
X699425Y96124D01*
X700384Y95842D01*
X701321Y95493D01*
X702231Y95077D01*
X703108Y94598D01*
X703950Y94057D01*
X704750Y93458D01*
X705506Y92803D01*
X706213Y92096D01*
X706868Y91340D01*
X707467Y90540D01*
X708008Y89698D01*
X708487Y88821D01*
X708903Y87911D01*
X709252Y86974D01*
X709534Y86015D01*
X709746Y85037D01*
X709889Y84048D01*
X709960Y83050D01*
X709960Y82050D01*
X709960Y303030D02*
X709889Y302033D01*
X709746Y301043D01*
X709534Y300066D01*
X709252Y299106D01*
X708903Y298169D01*
X708487Y297259D01*
X708008Y296382D01*
X707467Y295540D01*
X706868Y294740D01*
X706213Y293984D01*
X705506Y293277D01*
X704750Y292622D01*
X703950Y292023D01*
X703108Y291482D01*
X702231Y291003D01*
X701321Y290587D01*
X700384Y290238D01*
X699425Y289956D01*
X698447Y289744D01*
X697458Y289601D01*
X696460Y289530D01*
X695460Y289530D01*
X694463Y289601D01*
X693473Y289744D01*
X692496Y289956D01*
X691536Y290238D01*
X690599Y290587D01*
X689689Y291003D01*
X688812Y291482D01*
X687970Y292023D01*
X687170Y292622D01*
X686414Y293277D01*
X685707Y293984D01*
X685052Y294740D01*
X684453Y295540D01*
X683912Y296382D01*
X683433Y297259D01*
X683017Y298169D01*
X682668Y299106D01*
X682386Y300066D01*
X682174Y301043D01*
X682031Y302033D01*
X681960Y303030D01*
X681960Y304030D01*
X682031Y305028D01*
X682174Y306017D01*
X682386Y306995D01*
X682668Y307954D01*
X683017Y308891D01*
X683433Y309801D01*
X683912Y310678D01*
X684453Y311520D01*
X685052Y312320D01*
X685707Y313076D01*
X686414Y313783D01*
X687170Y314438D01*
X687970Y315037D01*
X688812Y315578D01*
X689689Y316057D01*
X690599Y316473D01*
X691536Y316822D01*
X692496Y317104D01*
X693473Y317316D01*
X694463Y317459D01*
X695460Y317530D01*
X696460Y317530D01*
X697458Y317459D01*
X698447Y317316D01*
X699425Y317104D01*
X700384Y316822D01*
X701321Y316473D01*
X702231Y316057D01*
X703108Y315578D01*
X703950Y315037D01*
X704750Y314438D01*
X705506Y313783D01*
X706213Y313076D01*
X706868Y312320D01*
X707467Y311520D01*
X708008Y310678D01*
X708487Y309801D01*
X708903Y308891D01*
X709252Y307954D01*
X709534Y306995D01*
X709746Y306017D01*
X709889Y305028D01*
X709960Y304030D01*
X709960Y303030D01*
X715040Y356370D02*
X714969Y355373D01*
X714826Y354383D01*
X714614Y353406D01*
X714332Y352446D01*
X713983Y351509D01*
X713567Y350599D01*
X713088Y349722D01*
X712547Y348880D01*
X711948Y348080D01*
X711293Y347324D01*
X710586Y346617D01*
X709830Y345962D01*
X709030Y345363D01*
X708188Y344822D01*
X707311Y344343D01*
X706401Y343927D01*
X705464Y343578D01*
X704505Y343296D01*
X703527Y343084D01*
X702538Y342941D01*
X701540Y342870D01*
X700540Y342870D01*
X699543Y342941D01*
X698553Y343084D01*
X697576Y343296D01*
X696616Y343578D01*
X695679Y343927D01*
X694769Y344343D01*
X693892Y344822D01*
X693050Y345363D01*
X692250Y345962D01*
X691494Y346617D01*
X690787Y347324D01*
X690132Y348080D01*
X689533Y348880D01*
X688992Y349722D01*
X688513Y350599D01*
X688097Y351509D01*
X687748Y352446D01*
X687466Y353406D01*
X687254Y354383D01*
X687111Y355373D01*
X687040Y356370D01*
X687040Y357370D01*
X687111Y358368D01*
X687254Y359357D01*
X687466Y360335D01*
X687748Y361294D01*
X688097Y362231D01*
X688513Y363141D01*
X688992Y364018D01*
X689533Y364860D01*
X690132Y365660D01*
X690787Y366416D01*
X691494Y367123D01*
X692250Y367778D01*
X693050Y368377D01*
X693892Y368918D01*
X694769Y369397D01*
X695679Y369813D01*
X696616Y370162D01*
X697576Y370444D01*
X698553Y370656D01*
X699543Y370799D01*
X700540Y370870D01*
X701540Y370870D01*
X702538Y370799D01*
X703527Y370656D01*
X704505Y370444D01*
X705464Y370162D01*
X706401Y369813D01*
X707311Y369397D01*
X708188Y368918D01*
X709030Y368377D01*
X709830Y367778D01*
X710586Y367123D01*
X711293Y366416D01*
X711948Y365660D01*
X712547Y364860D01*
X713088Y364018D01*
X713567Y363141D01*
X713983Y362231D01*
X714332Y361294D01*
X714614Y360335D01*
X714826Y359357D01*
X714969Y358368D01*
X715040Y357370D01*
X715040Y356370D01*
X715040Y26170D02*
X714969Y25173D01*
X714826Y24183D01*
X714614Y23206D01*
X714332Y22246D01*
X713983Y21309D01*
X713567Y20399D01*
X713088Y19522D01*
X712547Y18680D01*
X711948Y17880D01*
X711293Y17124D01*
X710586Y16417D01*
X709830Y15762D01*
X709030Y15163D01*
X708188Y14622D01*
X707311Y14143D01*
X706401Y13727D01*
X705464Y13378D01*
X704505Y13096D01*
X703527Y12884D01*
X702538Y12741D01*
X701540Y12670D01*
X700540Y12670D01*
X699543Y12741D01*
X698553Y12884D01*
X697576Y13096D01*
X696616Y13378D01*
X695679Y13727D01*
X694769Y14143D01*
X693892Y14622D01*
X693050Y15163D01*
X692250Y15762D01*
X691494Y16417D01*
X690787Y17124D01*
X690132Y17880D01*
X689533Y18680D01*
X688992Y19522D01*
X688513Y20399D01*
X688097Y21309D01*
X687748Y22246D01*
X687466Y23206D01*
X687254Y24183D01*
X687111Y25173D01*
X687040Y26170D01*
X687040Y27170D01*
X687111Y28168D01*
X687254Y29157D01*
X687466Y30135D01*
X687748Y31094D01*
X688097Y32031D01*
X688513Y32941D01*
X688992Y33818D01*
X689533Y34660D01*
X690132Y35460D01*
X690787Y36216D01*
X691494Y36923D01*
X692250Y37578D01*
X693050Y38177D01*
X693892Y38718D01*
X694769Y39197D01*
X695679Y39613D01*
X696616Y39962D01*
X697576Y40244D01*
X698553Y40456D01*
X699543Y40599D01*
X700540Y40670D01*
X701540Y40670D01*
X702538Y40599D01*
X703527Y40456D01*
X704505Y40244D01*
X705464Y39962D01*
X706401Y39613D01*
X707311Y39197D01*
X708188Y38718D01*
X709030Y38177D01*
X709830Y37578D01*
X710586Y36923D01*
X711293Y36216D01*
X711948Y35460D01*
X712547Y34660D01*
X713088Y33818D01*
X713567Y32941D01*
X713983Y32031D01*
X714332Y31094D01*
X714614Y30135D01*
X714826Y29157D01*
X714969Y28168D01*
X715040Y27170D01*
X715040Y26170D01*
X41940Y356370D02*
X41869Y355373D01*
X41726Y354383D01*
X41514Y353406D01*
X41232Y352446D01*
X40883Y351509D01*
X40467Y350599D01*
X39988Y349722D01*
X39447Y348880D01*
X38848Y348080D01*
X38193Y347324D01*
X37486Y346617D01*
X36730Y345962D01*
X35930Y345363D01*
X35088Y344822D01*
X34211Y344343D01*
X33301Y343927D01*
X32364Y343578D01*
X31405Y343296D01*
X30427Y343084D01*
X29438Y342941D01*
X28440Y342870D01*
X27440Y342870D01*
X26443Y342941D01*
X25453Y343084D01*
X24476Y343296D01*
X23516Y343578D01*
X22579Y343927D01*
X21669Y344343D01*
X20792Y344822D01*
X19950Y345363D01*
X19150Y345962D01*
X18394Y346617D01*
X17687Y347324D01*
X17032Y348080D01*
X16433Y348880D01*
X15892Y349722D01*
X15413Y350599D01*
X14997Y351509D01*
X14648Y352446D01*
X14366Y353406D01*
X14154Y354383D01*
X14011Y355373D01*
X13940Y356370D01*
X13940Y357370D01*
X14011Y358368D01*
X14154Y359357D01*
X14366Y360335D01*
X14648Y361294D01*
X14997Y362231D01*
X15413Y363141D01*
X15892Y364018D01*
X16433Y364860D01*
X17032Y365660D01*
X17687Y366416D01*
X18394Y367123D01*
X19150Y367778D01*
X19950Y368377D01*
X20792Y368918D01*
X21669Y369397D01*
X22579Y369813D01*
X23516Y370162D01*
X24476Y370444D01*
X25453Y370656D01*
X26443Y370799D01*
X27440Y370870D01*
X28440Y370870D01*
X29438Y370799D01*
X30427Y370656D01*
X31405Y370444D01*
X32364Y370162D01*
X33301Y369813D01*
X34211Y369397D01*
X35088Y368918D01*
X35930Y368377D01*
X36730Y367778D01*
X37486Y367123D01*
X38193Y366416D01*
X38848Y365660D01*
X39447Y364860D01*
X39988Y364018D01*
X40467Y363141D01*
X40883Y362231D01*
X41232Y361294D01*
X41514Y360335D01*
X41726Y359357D01*
X41869Y358368D01*
X41940Y357370D01*
X41940Y356370D01*
X41940Y26170D02*
X41869Y25173D01*
X41726Y24183D01*
X41514Y23206D01*
X41232Y22246D01*
X40883Y21309D01*
X40467Y20399D01*
X39988Y19522D01*
X39447Y18680D01*
X38848Y17880D01*
X38193Y17124D01*
X37486Y16417D01*
X36730Y15762D01*
X35930Y15163D01*
X35088Y14622D01*
X34211Y14143D01*
X33301Y13727D01*
X32364Y13378D01*
X31405Y13096D01*
X30427Y12884D01*
X29438Y12741D01*
X28440Y12670D01*
X27440Y12670D01*
X26443Y12741D01*
X25453Y12884D01*
X24476Y13096D01*
X23516Y13378D01*
X22579Y13727D01*
X21669Y14143D01*
X20792Y14622D01*
X19950Y15163D01*
X19150Y15762D01*
X18394Y16417D01*
X17687Y17124D01*
X17032Y17880D01*
X16433Y18680D01*
X15892Y19522D01*
X15413Y20399D01*
X14997Y21309D01*
X14648Y22246D01*
X14366Y23206D01*
X14154Y24183D01*
X14011Y25173D01*
X13940Y26170D01*
X13940Y27170D01*
X14011Y28168D01*
X14154Y29157D01*
X14366Y30135D01*
X14648Y31094D01*
X14997Y32031D01*
X15413Y32941D01*
X15892Y33818D01*
X16433Y34660D01*
X17032Y35460D01*
X17687Y36216D01*
X18394Y36923D01*
X19150Y37578D01*
X19950Y38177D01*
X20792Y38718D01*
X21669Y39197D01*
X22579Y39613D01*
X23516Y39962D01*
X24476Y40244D01*
X25453Y40456D01*
X26443Y40599D01*
X27440Y40670D01*
X28440Y40670D01*
X29438Y40599D01*
X30427Y40456D01*
X31405Y40244D01*
X32364Y39962D01*
X33301Y39613D01*
X34211Y39197D01*
X35088Y38718D01*
X35930Y38177D01*
X36730Y37578D01*
X37486Y36923D01*
X38193Y36216D01*
X38848Y35460D01*
X39447Y34660D01*
X39988Y33818D01*
X40467Y32941D01*
X40883Y32031D01*
X41232Y31094D01*
X41514Y30135D01*
X41726Y29157D01*
X41869Y28168D01*
X41940Y27170D01*
X41940Y26170D01*
M02*
