G04 EAGLE Gerber RS-274X export*
G75*
%MOMM*%
%FSLAX34Y34*%
%LPD*%
%INSilkscreen Top*%
%IPPOS*%
%AMOC8*
5,1,8,0,0,1.08239X$1,22.5*%
G01*
%ADD10C,0.152400*%
%ADD11C,0.200000*%
%ADD12C,0.203200*%
%ADD13C,0.254000*%
%ADD14C,0.127000*%
%ADD15C,0.101600*%


D10*
X75182Y335435D02*
X77259Y335435D01*
X77259Y335436D02*
X77348Y335434D01*
X77438Y335428D01*
X77526Y335419D01*
X77615Y335405D01*
X77702Y335388D01*
X77789Y335367D01*
X77875Y335342D01*
X77960Y335314D01*
X78043Y335282D01*
X78126Y335247D01*
X78206Y335208D01*
X78285Y335165D01*
X78361Y335119D01*
X78436Y335070D01*
X78509Y335018D01*
X78579Y334963D01*
X78647Y334905D01*
X78712Y334843D01*
X78774Y334780D01*
X78834Y334713D01*
X78891Y334644D01*
X78945Y334573D01*
X78995Y334499D01*
X79043Y334423D01*
X79087Y334345D01*
X79128Y334266D01*
X79165Y334185D01*
X79199Y334102D01*
X79229Y334018D01*
X79255Y333932D01*
X79278Y333846D01*
X79297Y333759D01*
X79312Y333671D01*
X79324Y333582D01*
X79332Y333493D01*
X79336Y333404D01*
X79336Y333314D01*
X79332Y333225D01*
X79324Y333136D01*
X79312Y333047D01*
X79297Y332959D01*
X79278Y332872D01*
X79255Y332786D01*
X79229Y332700D01*
X79199Y332616D01*
X79165Y332533D01*
X79128Y332452D01*
X79087Y332373D01*
X79043Y332295D01*
X78995Y332219D01*
X78945Y332145D01*
X78891Y332074D01*
X78834Y332005D01*
X78774Y331938D01*
X78712Y331875D01*
X78647Y331813D01*
X78579Y331755D01*
X78509Y331700D01*
X78436Y331648D01*
X78361Y331599D01*
X78285Y331553D01*
X78206Y331510D01*
X78126Y331471D01*
X78043Y331436D01*
X77960Y331404D01*
X77875Y331376D01*
X77789Y331351D01*
X77702Y331330D01*
X77615Y331313D01*
X77526Y331299D01*
X77438Y331290D01*
X77348Y331284D01*
X77259Y331282D01*
X75182Y331282D01*
X75182Y338758D01*
X77259Y338758D01*
X77339Y338756D01*
X77419Y338750D01*
X77499Y338741D01*
X77578Y338727D01*
X77657Y338710D01*
X77734Y338689D01*
X77810Y338664D01*
X77885Y338635D01*
X77959Y338603D01*
X78031Y338568D01*
X78101Y338529D01*
X78169Y338486D01*
X78235Y338441D01*
X78299Y338392D01*
X78360Y338340D01*
X78419Y338286D01*
X78475Y338228D01*
X78529Y338168D01*
X78579Y338105D01*
X78626Y338041D01*
X78670Y337973D01*
X78711Y337904D01*
X78748Y337833D01*
X78782Y337760D01*
X78812Y337686D01*
X78839Y337610D01*
X78862Y337533D01*
X78881Y337455D01*
X78896Y337377D01*
X78908Y337297D01*
X78916Y337217D01*
X78920Y337137D01*
X78920Y337057D01*
X78916Y336977D01*
X78908Y336897D01*
X78896Y336817D01*
X78881Y336739D01*
X78862Y336661D01*
X78839Y336584D01*
X78812Y336508D01*
X78782Y336434D01*
X78748Y336361D01*
X78711Y336290D01*
X78670Y336221D01*
X78626Y336153D01*
X78579Y336089D01*
X78529Y336026D01*
X78475Y335966D01*
X78419Y335908D01*
X78360Y335854D01*
X78299Y335802D01*
X78235Y335753D01*
X78169Y335708D01*
X78101Y335665D01*
X78031Y335626D01*
X77959Y335591D01*
X77885Y335559D01*
X77810Y335530D01*
X77734Y335505D01*
X77657Y335484D01*
X77578Y335467D01*
X77499Y335453D01*
X77419Y335444D01*
X77339Y335438D01*
X77259Y335436D01*
X82410Y331282D02*
X84902Y338758D01*
X87394Y331282D01*
X86771Y333151D02*
X83033Y333151D01*
X92462Y331282D02*
X92462Y338758D01*
X94538Y338758D02*
X90385Y338758D01*
X102219Y335435D02*
X103465Y335435D01*
X103465Y331282D01*
X100973Y331282D01*
X100894Y331284D01*
X100815Y331290D01*
X100737Y331299D01*
X100659Y331312D01*
X100581Y331329D01*
X100505Y331349D01*
X100430Y331373D01*
X100356Y331401D01*
X100283Y331432D01*
X100212Y331467D01*
X100143Y331505D01*
X100075Y331546D01*
X100010Y331590D01*
X99946Y331637D01*
X99885Y331688D01*
X99827Y331741D01*
X99771Y331797D01*
X99718Y331855D01*
X99667Y331916D01*
X99620Y331980D01*
X99576Y332045D01*
X99535Y332113D01*
X99497Y332182D01*
X99462Y332253D01*
X99431Y332326D01*
X99403Y332400D01*
X99379Y332475D01*
X99359Y332551D01*
X99342Y332629D01*
X99329Y332707D01*
X99320Y332785D01*
X99314Y332864D01*
X99312Y332943D01*
X99312Y337097D01*
X99314Y337176D01*
X99320Y337255D01*
X99329Y337333D01*
X99342Y337411D01*
X99359Y337489D01*
X99379Y337565D01*
X99403Y337640D01*
X99431Y337714D01*
X99462Y337787D01*
X99497Y337858D01*
X99535Y337927D01*
X99576Y337995D01*
X99620Y338060D01*
X99667Y338124D01*
X99718Y338185D01*
X99771Y338243D01*
X99827Y338299D01*
X99885Y338352D01*
X99946Y338403D01*
X100010Y338450D01*
X100075Y338494D01*
X100142Y338535D01*
X100212Y338573D01*
X100283Y338608D01*
X100356Y338639D01*
X100430Y338667D01*
X100505Y338691D01*
X100581Y338711D01*
X100659Y338728D01*
X100737Y338741D01*
X100815Y338750D01*
X100894Y338756D01*
X100973Y338758D01*
X103465Y338758D01*
X107952Y338758D02*
X107952Y331282D01*
X112105Y331282D02*
X107952Y338758D01*
X112105Y338758D02*
X112105Y331282D01*
X116592Y331282D02*
X116592Y338758D01*
X118669Y338758D01*
X118757Y338756D01*
X118845Y338751D01*
X118933Y338741D01*
X119020Y338728D01*
X119107Y338711D01*
X119192Y338691D01*
X119277Y338667D01*
X119361Y338639D01*
X119443Y338608D01*
X119525Y338574D01*
X119604Y338536D01*
X119682Y338494D01*
X119758Y338450D01*
X119832Y338402D01*
X119904Y338351D01*
X119974Y338297D01*
X120041Y338240D01*
X120106Y338180D01*
X120169Y338118D01*
X120228Y338053D01*
X120285Y337986D01*
X120339Y337916D01*
X120390Y337844D01*
X120438Y337770D01*
X120482Y337694D01*
X120524Y337616D01*
X120562Y337536D01*
X120596Y337455D01*
X120627Y337373D01*
X120655Y337289D01*
X120679Y337204D01*
X120699Y337119D01*
X120716Y337032D01*
X120729Y336945D01*
X120739Y336857D01*
X120744Y336769D01*
X120746Y336681D01*
X120745Y336681D02*
X120745Y333359D01*
X120746Y333359D02*
X120744Y333268D01*
X120738Y333178D01*
X120728Y333088D01*
X120714Y332998D01*
X120697Y332909D01*
X120675Y332821D01*
X120650Y332734D01*
X120621Y332649D01*
X120588Y332564D01*
X120551Y332481D01*
X120511Y332400D01*
X120468Y332321D01*
X120421Y332243D01*
X120370Y332168D01*
X120317Y332095D01*
X120260Y332024D01*
X120200Y331956D01*
X120138Y331890D01*
X120072Y331828D01*
X120004Y331768D01*
X119933Y331711D01*
X119860Y331658D01*
X119785Y331607D01*
X119708Y331560D01*
X119628Y331517D01*
X119547Y331477D01*
X119464Y331440D01*
X119379Y331407D01*
X119294Y331378D01*
X119207Y331353D01*
X119119Y331331D01*
X119030Y331314D01*
X118940Y331300D01*
X118850Y331290D01*
X118760Y331284D01*
X118669Y331282D01*
X116592Y331282D01*
X128522Y337097D02*
X130599Y338758D01*
X130599Y331282D01*
X132675Y331282D02*
X128522Y331282D01*
X136622Y332943D02*
X138283Y338758D01*
X136622Y332943D02*
X140775Y332943D01*
X139529Y331282D02*
X139529Y334605D01*
X156206Y338758D02*
X156290Y338756D01*
X156374Y338750D01*
X156457Y338741D01*
X156540Y338728D01*
X156622Y338711D01*
X156703Y338691D01*
X156784Y338667D01*
X156863Y338639D01*
X156941Y338608D01*
X157017Y338573D01*
X157092Y338535D01*
X157165Y338493D01*
X157236Y338449D01*
X157305Y338401D01*
X157371Y338350D01*
X157436Y338296D01*
X157498Y338240D01*
X157557Y338181D01*
X157613Y338119D01*
X157667Y338054D01*
X157718Y337988D01*
X157766Y337919D01*
X157810Y337848D01*
X157852Y337775D01*
X157890Y337700D01*
X157925Y337624D01*
X157956Y337546D01*
X157984Y337467D01*
X158008Y337386D01*
X158028Y337305D01*
X158045Y337223D01*
X158058Y337140D01*
X158067Y337057D01*
X158073Y336973D01*
X158075Y336889D01*
X156206Y338758D02*
X156109Y338756D01*
X156011Y338750D01*
X155915Y338740D01*
X155818Y338726D01*
X155722Y338709D01*
X155627Y338687D01*
X155533Y338662D01*
X155440Y338633D01*
X155349Y338600D01*
X155258Y338563D01*
X155170Y338523D01*
X155083Y338479D01*
X154998Y338432D01*
X154914Y338381D01*
X154833Y338327D01*
X154755Y338270D01*
X154678Y338209D01*
X154604Y338146D01*
X154533Y338079D01*
X154465Y338010D01*
X154399Y337938D01*
X154336Y337864D01*
X154277Y337787D01*
X154221Y337707D01*
X154167Y337625D01*
X154118Y337542D01*
X154071Y337456D01*
X154029Y337369D01*
X153989Y337279D01*
X153954Y337189D01*
X153922Y337097D01*
X157453Y335435D02*
X157514Y335495D01*
X157572Y335558D01*
X157627Y335623D01*
X157679Y335691D01*
X157729Y335761D01*
X157776Y335833D01*
X157819Y335906D01*
X157859Y335982D01*
X157896Y336059D01*
X157930Y336138D01*
X157960Y336218D01*
X157987Y336299D01*
X158011Y336381D01*
X158031Y336464D01*
X158047Y336548D01*
X158060Y336633D01*
X158069Y336718D01*
X158074Y336803D01*
X158076Y336889D01*
X157452Y335435D02*
X153922Y331282D01*
X158075Y331282D01*
X162022Y335435D02*
X164514Y335435D01*
X164593Y335433D01*
X164672Y335427D01*
X164750Y335418D01*
X164828Y335405D01*
X164906Y335388D01*
X164982Y335368D01*
X165057Y335344D01*
X165131Y335316D01*
X165204Y335285D01*
X165275Y335250D01*
X165345Y335212D01*
X165412Y335171D01*
X165477Y335127D01*
X165541Y335080D01*
X165602Y335029D01*
X165660Y334976D01*
X165716Y334920D01*
X165769Y334862D01*
X165820Y334801D01*
X165867Y334737D01*
X165911Y334672D01*
X165952Y334605D01*
X165990Y334535D01*
X166025Y334464D01*
X166056Y334391D01*
X166084Y334317D01*
X166108Y334242D01*
X166128Y334166D01*
X166145Y334088D01*
X166158Y334010D01*
X166167Y333932D01*
X166173Y333853D01*
X166175Y333774D01*
X166175Y333359D01*
X166176Y333359D02*
X166174Y333270D01*
X166168Y333180D01*
X166159Y333092D01*
X166145Y333003D01*
X166128Y332916D01*
X166107Y332829D01*
X166082Y332743D01*
X166054Y332658D01*
X166022Y332575D01*
X165987Y332492D01*
X165948Y332412D01*
X165905Y332333D01*
X165859Y332257D01*
X165810Y332182D01*
X165758Y332109D01*
X165703Y332039D01*
X165645Y331971D01*
X165583Y331906D01*
X165520Y331844D01*
X165453Y331784D01*
X165384Y331727D01*
X165313Y331673D01*
X165239Y331623D01*
X165163Y331575D01*
X165085Y331531D01*
X165006Y331490D01*
X164925Y331453D01*
X164842Y331419D01*
X164758Y331389D01*
X164672Y331363D01*
X164586Y331340D01*
X164499Y331321D01*
X164411Y331306D01*
X164322Y331294D01*
X164233Y331286D01*
X164144Y331282D01*
X164054Y331282D01*
X163965Y331286D01*
X163876Y331294D01*
X163787Y331306D01*
X163699Y331321D01*
X163612Y331340D01*
X163526Y331363D01*
X163440Y331389D01*
X163356Y331419D01*
X163273Y331453D01*
X163192Y331490D01*
X163113Y331531D01*
X163035Y331575D01*
X162959Y331623D01*
X162885Y331673D01*
X162814Y331727D01*
X162745Y331784D01*
X162678Y331844D01*
X162615Y331906D01*
X162553Y331971D01*
X162495Y332039D01*
X162440Y332109D01*
X162388Y332182D01*
X162339Y332257D01*
X162293Y332333D01*
X162250Y332412D01*
X162211Y332492D01*
X162176Y332575D01*
X162144Y332658D01*
X162116Y332743D01*
X162091Y332829D01*
X162070Y332916D01*
X162053Y333003D01*
X162039Y333092D01*
X162030Y333180D01*
X162024Y333270D01*
X162022Y333359D01*
X162022Y335435D01*
X162024Y335548D01*
X162030Y335662D01*
X162039Y335775D01*
X162053Y335887D01*
X162070Y336000D01*
X162092Y336111D01*
X162116Y336222D01*
X162145Y336332D01*
X162178Y336440D01*
X162214Y336548D01*
X162254Y336654D01*
X162297Y336759D01*
X162344Y336862D01*
X162395Y336964D01*
X162448Y337064D01*
X162506Y337162D01*
X162566Y337257D01*
X162630Y337351D01*
X162697Y337443D01*
X162767Y337532D01*
X162840Y337619D01*
X162916Y337703D01*
X162995Y337785D01*
X163077Y337864D01*
X163161Y337940D01*
X163248Y338013D01*
X163337Y338083D01*
X163429Y338150D01*
X163522Y338214D01*
X163618Y338274D01*
X163716Y338332D01*
X163816Y338385D01*
X163918Y338436D01*
X164021Y338483D01*
X164126Y338526D01*
X164232Y338566D01*
X164340Y338602D01*
X164448Y338635D01*
X164558Y338664D01*
X164669Y338688D01*
X164780Y338710D01*
X164892Y338727D01*
X165005Y338741D01*
X165118Y338750D01*
X165232Y338756D01*
X165345Y338758D01*
X182876Y338758D02*
X182960Y338756D01*
X183044Y338750D01*
X183127Y338741D01*
X183210Y338728D01*
X183292Y338711D01*
X183373Y338691D01*
X183454Y338667D01*
X183533Y338639D01*
X183611Y338608D01*
X183687Y338573D01*
X183762Y338535D01*
X183835Y338493D01*
X183906Y338449D01*
X183975Y338401D01*
X184041Y338350D01*
X184106Y338296D01*
X184168Y338240D01*
X184227Y338181D01*
X184283Y338119D01*
X184337Y338054D01*
X184388Y337988D01*
X184436Y337919D01*
X184480Y337848D01*
X184522Y337775D01*
X184560Y337700D01*
X184595Y337624D01*
X184626Y337546D01*
X184654Y337467D01*
X184678Y337386D01*
X184698Y337305D01*
X184715Y337223D01*
X184728Y337140D01*
X184737Y337057D01*
X184743Y336973D01*
X184745Y336889D01*
X182876Y338758D02*
X182779Y338756D01*
X182681Y338750D01*
X182585Y338740D01*
X182488Y338726D01*
X182392Y338709D01*
X182297Y338687D01*
X182203Y338662D01*
X182110Y338633D01*
X182019Y338600D01*
X181928Y338563D01*
X181840Y338523D01*
X181753Y338479D01*
X181668Y338432D01*
X181584Y338381D01*
X181503Y338327D01*
X181425Y338270D01*
X181348Y338209D01*
X181274Y338146D01*
X181203Y338079D01*
X181135Y338010D01*
X181069Y337938D01*
X181006Y337864D01*
X180947Y337787D01*
X180891Y337707D01*
X180837Y337625D01*
X180788Y337542D01*
X180741Y337456D01*
X180699Y337369D01*
X180659Y337279D01*
X180624Y337189D01*
X180592Y337097D01*
X184123Y335435D02*
X184184Y335495D01*
X184242Y335558D01*
X184297Y335623D01*
X184349Y335691D01*
X184399Y335761D01*
X184446Y335833D01*
X184489Y335906D01*
X184529Y335982D01*
X184566Y336059D01*
X184600Y336138D01*
X184630Y336218D01*
X184657Y336299D01*
X184681Y336381D01*
X184701Y336464D01*
X184717Y336548D01*
X184730Y336633D01*
X184739Y336718D01*
X184744Y336803D01*
X184746Y336889D01*
X184122Y335435D02*
X180592Y331282D01*
X184745Y331282D01*
X188692Y331282D02*
X191184Y331282D01*
X191263Y331284D01*
X191342Y331290D01*
X191420Y331299D01*
X191498Y331312D01*
X191576Y331329D01*
X191652Y331349D01*
X191727Y331373D01*
X191801Y331401D01*
X191874Y331432D01*
X191945Y331467D01*
X192015Y331505D01*
X192082Y331546D01*
X192147Y331590D01*
X192211Y331637D01*
X192272Y331688D01*
X192330Y331741D01*
X192386Y331797D01*
X192439Y331855D01*
X192490Y331916D01*
X192537Y331980D01*
X192581Y332045D01*
X192622Y332113D01*
X192660Y332182D01*
X192695Y332253D01*
X192726Y332326D01*
X192754Y332400D01*
X192778Y332475D01*
X192798Y332551D01*
X192815Y332629D01*
X192828Y332707D01*
X192837Y332785D01*
X192843Y332864D01*
X192845Y332943D01*
X192845Y333774D01*
X192843Y333853D01*
X192837Y333932D01*
X192828Y334010D01*
X192815Y334088D01*
X192798Y334166D01*
X192778Y334242D01*
X192754Y334317D01*
X192726Y334391D01*
X192695Y334464D01*
X192660Y334535D01*
X192622Y334605D01*
X192581Y334672D01*
X192537Y334737D01*
X192490Y334801D01*
X192439Y334862D01*
X192386Y334920D01*
X192330Y334976D01*
X192272Y335029D01*
X192211Y335080D01*
X192147Y335127D01*
X192082Y335171D01*
X192015Y335212D01*
X191945Y335250D01*
X191874Y335285D01*
X191801Y335316D01*
X191727Y335344D01*
X191652Y335368D01*
X191576Y335388D01*
X191498Y335405D01*
X191420Y335418D01*
X191342Y335427D01*
X191263Y335433D01*
X191184Y335435D01*
X188692Y335435D01*
X188692Y338758D01*
X192845Y338758D01*
X204722Y331282D02*
X206799Y331282D01*
X206888Y331284D01*
X206978Y331290D01*
X207066Y331299D01*
X207155Y331313D01*
X207242Y331330D01*
X207329Y331351D01*
X207415Y331376D01*
X207500Y331404D01*
X207583Y331436D01*
X207666Y331471D01*
X207746Y331510D01*
X207825Y331553D01*
X207901Y331599D01*
X207976Y331648D01*
X208049Y331700D01*
X208119Y331755D01*
X208187Y331813D01*
X208252Y331875D01*
X208314Y331938D01*
X208374Y332005D01*
X208431Y332074D01*
X208485Y332145D01*
X208535Y332219D01*
X208583Y332295D01*
X208627Y332373D01*
X208668Y332452D01*
X208705Y332533D01*
X208739Y332616D01*
X208769Y332700D01*
X208795Y332786D01*
X208818Y332872D01*
X208837Y332959D01*
X208852Y333047D01*
X208864Y333136D01*
X208872Y333225D01*
X208876Y333314D01*
X208876Y333404D01*
X208872Y333493D01*
X208864Y333582D01*
X208852Y333671D01*
X208837Y333759D01*
X208818Y333846D01*
X208795Y333932D01*
X208769Y334018D01*
X208739Y334102D01*
X208705Y334185D01*
X208668Y334266D01*
X208627Y334345D01*
X208583Y334423D01*
X208535Y334499D01*
X208485Y334573D01*
X208431Y334644D01*
X208374Y334713D01*
X208314Y334780D01*
X208252Y334843D01*
X208187Y334905D01*
X208119Y334963D01*
X208049Y335018D01*
X207976Y335070D01*
X207901Y335119D01*
X207825Y335165D01*
X207746Y335208D01*
X207666Y335247D01*
X207583Y335282D01*
X207500Y335314D01*
X207415Y335342D01*
X207329Y335367D01*
X207242Y335388D01*
X207155Y335405D01*
X207066Y335419D01*
X206978Y335428D01*
X206888Y335434D01*
X206799Y335436D01*
X207214Y338758D02*
X204722Y338758D01*
X207214Y338758D02*
X207294Y338756D01*
X207374Y338750D01*
X207454Y338741D01*
X207533Y338727D01*
X207612Y338710D01*
X207689Y338689D01*
X207765Y338664D01*
X207840Y338635D01*
X207914Y338603D01*
X207986Y338568D01*
X208056Y338529D01*
X208124Y338486D01*
X208190Y338441D01*
X208254Y338392D01*
X208315Y338340D01*
X208374Y338286D01*
X208430Y338228D01*
X208484Y338168D01*
X208534Y338105D01*
X208581Y338041D01*
X208625Y337973D01*
X208666Y337904D01*
X208703Y337833D01*
X208737Y337760D01*
X208767Y337686D01*
X208794Y337610D01*
X208817Y337533D01*
X208836Y337455D01*
X208851Y337377D01*
X208863Y337297D01*
X208871Y337217D01*
X208875Y337137D01*
X208875Y337057D01*
X208871Y336977D01*
X208863Y336897D01*
X208851Y336817D01*
X208836Y336739D01*
X208817Y336661D01*
X208794Y336584D01*
X208767Y336508D01*
X208737Y336434D01*
X208703Y336361D01*
X208666Y336290D01*
X208625Y336221D01*
X208581Y336153D01*
X208534Y336089D01*
X208484Y336026D01*
X208430Y335966D01*
X208374Y335908D01*
X208315Y335854D01*
X208254Y335802D01*
X208190Y335753D01*
X208124Y335708D01*
X208056Y335665D01*
X207986Y335626D01*
X207914Y335591D01*
X207840Y335559D01*
X207765Y335530D01*
X207689Y335505D01*
X207612Y335484D01*
X207533Y335467D01*
X207454Y335453D01*
X207374Y335444D01*
X207294Y335438D01*
X207214Y335436D01*
X207214Y335435D02*
X205553Y335435D01*
X212822Y331282D02*
X215314Y331282D01*
X215393Y331284D01*
X215472Y331290D01*
X215550Y331299D01*
X215628Y331312D01*
X215706Y331329D01*
X215782Y331349D01*
X215857Y331373D01*
X215931Y331401D01*
X216004Y331432D01*
X216075Y331467D01*
X216145Y331505D01*
X216212Y331546D01*
X216277Y331590D01*
X216341Y331637D01*
X216402Y331688D01*
X216460Y331741D01*
X216516Y331797D01*
X216569Y331855D01*
X216620Y331916D01*
X216667Y331980D01*
X216711Y332045D01*
X216752Y332113D01*
X216790Y332182D01*
X216825Y332253D01*
X216856Y332326D01*
X216884Y332400D01*
X216908Y332475D01*
X216928Y332551D01*
X216945Y332629D01*
X216958Y332707D01*
X216967Y332785D01*
X216973Y332864D01*
X216975Y332943D01*
X216975Y333774D01*
X216973Y333853D01*
X216967Y333932D01*
X216958Y334010D01*
X216945Y334088D01*
X216928Y334166D01*
X216908Y334242D01*
X216884Y334317D01*
X216856Y334391D01*
X216825Y334464D01*
X216790Y334535D01*
X216752Y334605D01*
X216711Y334672D01*
X216667Y334737D01*
X216620Y334801D01*
X216569Y334862D01*
X216516Y334920D01*
X216460Y334976D01*
X216402Y335029D01*
X216341Y335080D01*
X216277Y335127D01*
X216212Y335171D01*
X216145Y335212D01*
X216075Y335250D01*
X216004Y335285D01*
X215931Y335316D01*
X215857Y335344D01*
X215782Y335368D01*
X215706Y335388D01*
X215628Y335405D01*
X215550Y335418D01*
X215472Y335427D01*
X215393Y335433D01*
X215314Y335435D01*
X212822Y335435D01*
X212822Y338758D01*
X216975Y338758D01*
X231392Y331282D02*
X233469Y331282D01*
X233558Y331284D01*
X233648Y331290D01*
X233736Y331299D01*
X233825Y331313D01*
X233912Y331330D01*
X233999Y331351D01*
X234085Y331376D01*
X234170Y331404D01*
X234253Y331436D01*
X234336Y331471D01*
X234416Y331510D01*
X234495Y331553D01*
X234571Y331599D01*
X234646Y331648D01*
X234719Y331700D01*
X234789Y331755D01*
X234857Y331813D01*
X234922Y331875D01*
X234984Y331938D01*
X235044Y332005D01*
X235101Y332074D01*
X235155Y332145D01*
X235205Y332219D01*
X235253Y332295D01*
X235297Y332373D01*
X235338Y332452D01*
X235375Y332533D01*
X235409Y332616D01*
X235439Y332700D01*
X235465Y332786D01*
X235488Y332872D01*
X235507Y332959D01*
X235522Y333047D01*
X235534Y333136D01*
X235542Y333225D01*
X235546Y333314D01*
X235546Y333404D01*
X235542Y333493D01*
X235534Y333582D01*
X235522Y333671D01*
X235507Y333759D01*
X235488Y333846D01*
X235465Y333932D01*
X235439Y334018D01*
X235409Y334102D01*
X235375Y334185D01*
X235338Y334266D01*
X235297Y334345D01*
X235253Y334423D01*
X235205Y334499D01*
X235155Y334573D01*
X235101Y334644D01*
X235044Y334713D01*
X234984Y334780D01*
X234922Y334843D01*
X234857Y334905D01*
X234789Y334963D01*
X234719Y335018D01*
X234646Y335070D01*
X234571Y335119D01*
X234495Y335165D01*
X234416Y335208D01*
X234336Y335247D01*
X234253Y335282D01*
X234170Y335314D01*
X234085Y335342D01*
X233999Y335367D01*
X233912Y335388D01*
X233825Y335405D01*
X233736Y335419D01*
X233648Y335428D01*
X233558Y335434D01*
X233469Y335436D01*
X233884Y338758D02*
X231392Y338758D01*
X233884Y338758D02*
X233964Y338756D01*
X234044Y338750D01*
X234124Y338741D01*
X234203Y338727D01*
X234282Y338710D01*
X234359Y338689D01*
X234435Y338664D01*
X234510Y338635D01*
X234584Y338603D01*
X234656Y338568D01*
X234726Y338529D01*
X234794Y338486D01*
X234860Y338441D01*
X234924Y338392D01*
X234985Y338340D01*
X235044Y338286D01*
X235100Y338228D01*
X235154Y338168D01*
X235204Y338105D01*
X235251Y338041D01*
X235295Y337973D01*
X235336Y337904D01*
X235373Y337833D01*
X235407Y337760D01*
X235437Y337686D01*
X235464Y337610D01*
X235487Y337533D01*
X235506Y337455D01*
X235521Y337377D01*
X235533Y337297D01*
X235541Y337217D01*
X235545Y337137D01*
X235545Y337057D01*
X235541Y336977D01*
X235533Y336897D01*
X235521Y336817D01*
X235506Y336739D01*
X235487Y336661D01*
X235464Y336584D01*
X235437Y336508D01*
X235407Y336434D01*
X235373Y336361D01*
X235336Y336290D01*
X235295Y336221D01*
X235251Y336153D01*
X235204Y336089D01*
X235154Y336026D01*
X235100Y335966D01*
X235044Y335908D01*
X234985Y335854D01*
X234924Y335802D01*
X234860Y335753D01*
X234794Y335708D01*
X234726Y335665D01*
X234656Y335626D01*
X234584Y335591D01*
X234510Y335559D01*
X234435Y335530D01*
X234359Y335505D01*
X234282Y335484D01*
X234203Y335467D01*
X234124Y335453D01*
X234044Y335444D01*
X233964Y335438D01*
X233884Y335436D01*
X233884Y335435D02*
X232223Y335435D01*
X239492Y332943D02*
X241153Y338758D01*
X239492Y332943D02*
X243645Y332943D01*
X242399Y331282D02*
X242399Y334605D01*
X255522Y338758D02*
X258014Y331282D01*
X260506Y338758D01*
X264494Y338758D02*
X264494Y331282D01*
X264494Y338758D02*
X266571Y338758D01*
X266660Y338756D01*
X266750Y338750D01*
X266838Y338741D01*
X266927Y338727D01*
X267014Y338710D01*
X267101Y338689D01*
X267187Y338664D01*
X267272Y338636D01*
X267355Y338604D01*
X267438Y338569D01*
X267518Y338530D01*
X267597Y338487D01*
X267673Y338441D01*
X267748Y338392D01*
X267821Y338340D01*
X267891Y338285D01*
X267959Y338227D01*
X268024Y338165D01*
X268086Y338102D01*
X268146Y338035D01*
X268203Y337966D01*
X268257Y337895D01*
X268307Y337821D01*
X268355Y337745D01*
X268399Y337667D01*
X268440Y337588D01*
X268477Y337507D01*
X268511Y337424D01*
X268541Y337340D01*
X268567Y337254D01*
X268590Y337168D01*
X268609Y337081D01*
X268624Y336993D01*
X268636Y336904D01*
X268644Y336815D01*
X268648Y336726D01*
X268648Y336636D01*
X268644Y336547D01*
X268636Y336458D01*
X268624Y336369D01*
X268609Y336281D01*
X268590Y336194D01*
X268567Y336108D01*
X268541Y336022D01*
X268511Y335938D01*
X268477Y335855D01*
X268440Y335774D01*
X268399Y335695D01*
X268355Y335617D01*
X268307Y335541D01*
X268257Y335467D01*
X268203Y335396D01*
X268146Y335327D01*
X268086Y335260D01*
X268024Y335197D01*
X267959Y335135D01*
X267891Y335077D01*
X267821Y335022D01*
X267748Y334970D01*
X267673Y334921D01*
X267597Y334875D01*
X267518Y334832D01*
X267438Y334793D01*
X267355Y334758D01*
X267272Y334726D01*
X267187Y334698D01*
X267101Y334673D01*
X267014Y334652D01*
X266927Y334635D01*
X266838Y334621D01*
X266750Y334612D01*
X266660Y334606D01*
X266571Y334604D01*
X266571Y334605D02*
X264494Y334605D01*
X277112Y331282D02*
X279189Y331282D01*
X279278Y331284D01*
X279368Y331290D01*
X279456Y331299D01*
X279545Y331313D01*
X279632Y331330D01*
X279719Y331351D01*
X279805Y331376D01*
X279890Y331404D01*
X279973Y331436D01*
X280056Y331471D01*
X280136Y331510D01*
X280215Y331553D01*
X280291Y331599D01*
X280366Y331648D01*
X280439Y331700D01*
X280509Y331755D01*
X280577Y331813D01*
X280642Y331875D01*
X280704Y331938D01*
X280764Y332005D01*
X280821Y332074D01*
X280875Y332145D01*
X280925Y332219D01*
X280973Y332295D01*
X281017Y332373D01*
X281058Y332452D01*
X281095Y332533D01*
X281129Y332616D01*
X281159Y332700D01*
X281185Y332786D01*
X281208Y332872D01*
X281227Y332959D01*
X281242Y333047D01*
X281254Y333136D01*
X281262Y333225D01*
X281266Y333314D01*
X281266Y333404D01*
X281262Y333493D01*
X281254Y333582D01*
X281242Y333671D01*
X281227Y333759D01*
X281208Y333846D01*
X281185Y333932D01*
X281159Y334018D01*
X281129Y334102D01*
X281095Y334185D01*
X281058Y334266D01*
X281017Y334345D01*
X280973Y334423D01*
X280925Y334499D01*
X280875Y334573D01*
X280821Y334644D01*
X280764Y334713D01*
X280704Y334780D01*
X280642Y334843D01*
X280577Y334905D01*
X280509Y334963D01*
X280439Y335018D01*
X280366Y335070D01*
X280291Y335119D01*
X280215Y335165D01*
X280136Y335208D01*
X280056Y335247D01*
X279973Y335282D01*
X279890Y335314D01*
X279805Y335342D01*
X279719Y335367D01*
X279632Y335388D01*
X279545Y335405D01*
X279456Y335419D01*
X279368Y335428D01*
X279278Y335434D01*
X279189Y335436D01*
X279604Y338758D02*
X277112Y338758D01*
X279604Y338758D02*
X279684Y338756D01*
X279764Y338750D01*
X279844Y338741D01*
X279923Y338727D01*
X280002Y338710D01*
X280079Y338689D01*
X280155Y338664D01*
X280230Y338635D01*
X280304Y338603D01*
X280376Y338568D01*
X280446Y338529D01*
X280514Y338486D01*
X280580Y338441D01*
X280644Y338392D01*
X280705Y338340D01*
X280764Y338286D01*
X280820Y338228D01*
X280874Y338168D01*
X280924Y338105D01*
X280971Y338041D01*
X281015Y337973D01*
X281056Y337904D01*
X281093Y337833D01*
X281127Y337760D01*
X281157Y337686D01*
X281184Y337610D01*
X281207Y337533D01*
X281226Y337455D01*
X281241Y337377D01*
X281253Y337297D01*
X281261Y337217D01*
X281265Y337137D01*
X281265Y337057D01*
X281261Y336977D01*
X281253Y336897D01*
X281241Y336817D01*
X281226Y336739D01*
X281207Y336661D01*
X281184Y336584D01*
X281157Y336508D01*
X281127Y336434D01*
X281093Y336361D01*
X281056Y336290D01*
X281015Y336221D01*
X280971Y336153D01*
X280924Y336089D01*
X280874Y336026D01*
X280820Y335966D01*
X280764Y335908D01*
X280705Y335854D01*
X280644Y335802D01*
X280580Y335753D01*
X280514Y335708D01*
X280446Y335665D01*
X280376Y335626D01*
X280304Y335591D01*
X280230Y335559D01*
X280155Y335530D01*
X280079Y335505D01*
X280002Y335484D01*
X279923Y335467D01*
X279844Y335453D01*
X279764Y335444D01*
X279684Y335438D01*
X279604Y335436D01*
X279604Y335435D02*
X277943Y335435D01*
X284797Y338758D02*
X287289Y331282D01*
X289781Y338758D01*
X293312Y331282D02*
X295389Y331282D01*
X295478Y331284D01*
X295568Y331290D01*
X295656Y331299D01*
X295745Y331313D01*
X295832Y331330D01*
X295919Y331351D01*
X296005Y331376D01*
X296090Y331404D01*
X296173Y331436D01*
X296256Y331471D01*
X296336Y331510D01*
X296415Y331553D01*
X296491Y331599D01*
X296566Y331648D01*
X296639Y331700D01*
X296709Y331755D01*
X296777Y331813D01*
X296842Y331875D01*
X296904Y331938D01*
X296964Y332005D01*
X297021Y332074D01*
X297075Y332145D01*
X297125Y332219D01*
X297173Y332295D01*
X297217Y332373D01*
X297258Y332452D01*
X297295Y332533D01*
X297329Y332616D01*
X297359Y332700D01*
X297385Y332786D01*
X297408Y332872D01*
X297427Y332959D01*
X297442Y333047D01*
X297454Y333136D01*
X297462Y333225D01*
X297466Y333314D01*
X297466Y333404D01*
X297462Y333493D01*
X297454Y333582D01*
X297442Y333671D01*
X297427Y333759D01*
X297408Y333846D01*
X297385Y333932D01*
X297359Y334018D01*
X297329Y334102D01*
X297295Y334185D01*
X297258Y334266D01*
X297217Y334345D01*
X297173Y334423D01*
X297125Y334499D01*
X297075Y334573D01*
X297021Y334644D01*
X296964Y334713D01*
X296904Y334780D01*
X296842Y334843D01*
X296777Y334905D01*
X296709Y334963D01*
X296639Y335018D01*
X296566Y335070D01*
X296491Y335119D01*
X296415Y335165D01*
X296336Y335208D01*
X296256Y335247D01*
X296173Y335282D01*
X296090Y335314D01*
X296005Y335342D01*
X295919Y335367D01*
X295832Y335388D01*
X295745Y335405D01*
X295656Y335419D01*
X295568Y335428D01*
X295478Y335434D01*
X295389Y335436D01*
X295804Y338758D02*
X293312Y338758D01*
X295804Y338758D02*
X295884Y338756D01*
X295964Y338750D01*
X296044Y338741D01*
X296123Y338727D01*
X296202Y338710D01*
X296279Y338689D01*
X296355Y338664D01*
X296430Y338635D01*
X296504Y338603D01*
X296576Y338568D01*
X296646Y338529D01*
X296714Y338486D01*
X296780Y338441D01*
X296844Y338392D01*
X296905Y338340D01*
X296964Y338286D01*
X297020Y338228D01*
X297074Y338168D01*
X297124Y338105D01*
X297171Y338041D01*
X297215Y337973D01*
X297256Y337904D01*
X297293Y337833D01*
X297327Y337760D01*
X297357Y337686D01*
X297384Y337610D01*
X297407Y337533D01*
X297426Y337455D01*
X297441Y337377D01*
X297453Y337297D01*
X297461Y337217D01*
X297465Y337137D01*
X297465Y337057D01*
X297461Y336977D01*
X297453Y336897D01*
X297441Y336817D01*
X297426Y336739D01*
X297407Y336661D01*
X297384Y336584D01*
X297357Y336508D01*
X297327Y336434D01*
X297293Y336361D01*
X297256Y336290D01*
X297215Y336221D01*
X297171Y336153D01*
X297124Y336089D01*
X297074Y336026D01*
X297020Y335966D01*
X296964Y335908D01*
X296905Y335854D01*
X296844Y335802D01*
X296780Y335753D01*
X296714Y335708D01*
X296646Y335665D01*
X296576Y335626D01*
X296504Y335591D01*
X296430Y335559D01*
X296355Y335530D01*
X296279Y335505D01*
X296202Y335484D01*
X296123Y335467D01*
X296044Y335453D01*
X295964Y335444D01*
X295884Y335438D01*
X295804Y335436D01*
X295804Y335435D02*
X294143Y335435D01*
X90765Y50955D02*
X89519Y50955D01*
X90765Y50955D02*
X90765Y46802D01*
X88273Y46802D01*
X88194Y46804D01*
X88115Y46810D01*
X88037Y46819D01*
X87959Y46832D01*
X87881Y46849D01*
X87805Y46869D01*
X87730Y46893D01*
X87656Y46921D01*
X87583Y46952D01*
X87512Y46987D01*
X87443Y47025D01*
X87375Y47066D01*
X87310Y47110D01*
X87246Y47157D01*
X87185Y47208D01*
X87127Y47261D01*
X87071Y47317D01*
X87018Y47375D01*
X86967Y47436D01*
X86920Y47500D01*
X86876Y47565D01*
X86835Y47633D01*
X86797Y47702D01*
X86762Y47773D01*
X86731Y47846D01*
X86703Y47920D01*
X86679Y47995D01*
X86659Y48071D01*
X86642Y48149D01*
X86629Y48227D01*
X86620Y48305D01*
X86614Y48384D01*
X86612Y48463D01*
X86612Y52617D01*
X86614Y52696D01*
X86620Y52775D01*
X86629Y52853D01*
X86642Y52931D01*
X86659Y53009D01*
X86679Y53085D01*
X86703Y53160D01*
X86731Y53234D01*
X86762Y53307D01*
X86797Y53378D01*
X86835Y53447D01*
X86876Y53515D01*
X86920Y53580D01*
X86967Y53644D01*
X87018Y53705D01*
X87071Y53763D01*
X87127Y53819D01*
X87185Y53872D01*
X87246Y53923D01*
X87310Y53970D01*
X87375Y54014D01*
X87442Y54055D01*
X87512Y54093D01*
X87583Y54128D01*
X87656Y54159D01*
X87730Y54187D01*
X87805Y54211D01*
X87881Y54231D01*
X87959Y54248D01*
X88037Y54261D01*
X88115Y54270D01*
X88194Y54276D01*
X88273Y54278D01*
X90765Y54278D01*
X95252Y54278D02*
X95252Y46802D01*
X99405Y46802D02*
X95252Y54278D01*
X99405Y54278D02*
X99405Y46802D01*
X103892Y46802D02*
X103892Y54278D01*
X105969Y54278D01*
X106057Y54276D01*
X106145Y54271D01*
X106233Y54261D01*
X106320Y54248D01*
X106407Y54231D01*
X106492Y54211D01*
X106577Y54187D01*
X106661Y54159D01*
X106743Y54128D01*
X106825Y54094D01*
X106904Y54056D01*
X106982Y54014D01*
X107058Y53970D01*
X107132Y53922D01*
X107204Y53871D01*
X107274Y53817D01*
X107341Y53760D01*
X107406Y53700D01*
X107469Y53638D01*
X107528Y53573D01*
X107585Y53506D01*
X107639Y53436D01*
X107690Y53364D01*
X107738Y53290D01*
X107782Y53214D01*
X107824Y53136D01*
X107862Y53056D01*
X107896Y52975D01*
X107927Y52893D01*
X107955Y52809D01*
X107979Y52724D01*
X107999Y52639D01*
X108016Y52552D01*
X108029Y52465D01*
X108039Y52377D01*
X108044Y52289D01*
X108046Y52201D01*
X108045Y52201D02*
X108045Y48879D01*
X108046Y48879D02*
X108044Y48788D01*
X108038Y48698D01*
X108028Y48608D01*
X108014Y48518D01*
X107997Y48429D01*
X107975Y48341D01*
X107950Y48254D01*
X107921Y48169D01*
X107888Y48084D01*
X107851Y48001D01*
X107811Y47920D01*
X107768Y47841D01*
X107721Y47763D01*
X107670Y47688D01*
X107617Y47615D01*
X107560Y47544D01*
X107500Y47476D01*
X107438Y47410D01*
X107372Y47348D01*
X107304Y47288D01*
X107233Y47231D01*
X107160Y47178D01*
X107085Y47127D01*
X107008Y47080D01*
X106928Y47037D01*
X106847Y46997D01*
X106764Y46960D01*
X106679Y46927D01*
X106594Y46898D01*
X106507Y46873D01*
X106419Y46851D01*
X106330Y46834D01*
X106240Y46820D01*
X106150Y46810D01*
X106060Y46804D01*
X105969Y46802D01*
X103892Y46802D01*
X123442Y46802D02*
X125519Y46802D01*
X125608Y46804D01*
X125698Y46810D01*
X125786Y46819D01*
X125875Y46833D01*
X125962Y46850D01*
X126049Y46871D01*
X126135Y46896D01*
X126220Y46924D01*
X126303Y46956D01*
X126386Y46991D01*
X126466Y47030D01*
X126545Y47073D01*
X126621Y47119D01*
X126696Y47168D01*
X126769Y47220D01*
X126839Y47275D01*
X126907Y47333D01*
X126972Y47395D01*
X127034Y47458D01*
X127094Y47525D01*
X127151Y47594D01*
X127205Y47665D01*
X127255Y47739D01*
X127303Y47815D01*
X127347Y47893D01*
X127388Y47972D01*
X127425Y48053D01*
X127459Y48136D01*
X127489Y48220D01*
X127515Y48306D01*
X127538Y48392D01*
X127557Y48479D01*
X127572Y48567D01*
X127584Y48656D01*
X127592Y48745D01*
X127596Y48834D01*
X127596Y48924D01*
X127592Y49013D01*
X127584Y49102D01*
X127572Y49191D01*
X127557Y49279D01*
X127538Y49366D01*
X127515Y49452D01*
X127489Y49538D01*
X127459Y49622D01*
X127425Y49705D01*
X127388Y49786D01*
X127347Y49865D01*
X127303Y49943D01*
X127255Y50019D01*
X127205Y50093D01*
X127151Y50164D01*
X127094Y50233D01*
X127034Y50300D01*
X126972Y50363D01*
X126907Y50425D01*
X126839Y50483D01*
X126769Y50538D01*
X126696Y50590D01*
X126621Y50639D01*
X126545Y50685D01*
X126466Y50728D01*
X126386Y50767D01*
X126303Y50802D01*
X126220Y50834D01*
X126135Y50862D01*
X126049Y50887D01*
X125962Y50908D01*
X125875Y50925D01*
X125786Y50939D01*
X125698Y50948D01*
X125608Y50954D01*
X125519Y50956D01*
X125934Y54278D02*
X123442Y54278D01*
X125934Y54278D02*
X126014Y54276D01*
X126094Y54270D01*
X126174Y54261D01*
X126253Y54247D01*
X126332Y54230D01*
X126409Y54209D01*
X126485Y54184D01*
X126560Y54155D01*
X126634Y54123D01*
X126706Y54088D01*
X126776Y54049D01*
X126844Y54006D01*
X126910Y53961D01*
X126974Y53912D01*
X127035Y53860D01*
X127094Y53806D01*
X127150Y53748D01*
X127204Y53688D01*
X127254Y53625D01*
X127301Y53561D01*
X127345Y53493D01*
X127386Y53424D01*
X127423Y53353D01*
X127457Y53280D01*
X127487Y53206D01*
X127514Y53130D01*
X127537Y53053D01*
X127556Y52975D01*
X127571Y52897D01*
X127583Y52817D01*
X127591Y52737D01*
X127595Y52657D01*
X127595Y52577D01*
X127591Y52497D01*
X127583Y52417D01*
X127571Y52337D01*
X127556Y52259D01*
X127537Y52181D01*
X127514Y52104D01*
X127487Y52028D01*
X127457Y51954D01*
X127423Y51881D01*
X127386Y51810D01*
X127345Y51741D01*
X127301Y51673D01*
X127254Y51609D01*
X127204Y51546D01*
X127150Y51486D01*
X127094Y51428D01*
X127035Y51374D01*
X126974Y51322D01*
X126910Y51273D01*
X126844Y51228D01*
X126776Y51185D01*
X126706Y51146D01*
X126634Y51111D01*
X126560Y51079D01*
X126485Y51050D01*
X126409Y51025D01*
X126332Y51004D01*
X126253Y50987D01*
X126174Y50973D01*
X126094Y50964D01*
X126014Y50958D01*
X125934Y50956D01*
X125934Y50955D02*
X124273Y50955D01*
X131127Y54278D02*
X133619Y46802D01*
X136111Y54278D01*
X139642Y46802D02*
X141719Y46802D01*
X141808Y46804D01*
X141898Y46810D01*
X141986Y46819D01*
X142075Y46833D01*
X142162Y46850D01*
X142249Y46871D01*
X142335Y46896D01*
X142420Y46924D01*
X142503Y46956D01*
X142586Y46991D01*
X142666Y47030D01*
X142745Y47073D01*
X142821Y47119D01*
X142896Y47168D01*
X142969Y47220D01*
X143039Y47275D01*
X143107Y47333D01*
X143172Y47395D01*
X143234Y47458D01*
X143294Y47525D01*
X143351Y47594D01*
X143405Y47665D01*
X143455Y47739D01*
X143503Y47815D01*
X143547Y47893D01*
X143588Y47972D01*
X143625Y48053D01*
X143659Y48136D01*
X143689Y48220D01*
X143715Y48306D01*
X143738Y48392D01*
X143757Y48479D01*
X143772Y48567D01*
X143784Y48656D01*
X143792Y48745D01*
X143796Y48834D01*
X143796Y48924D01*
X143792Y49013D01*
X143784Y49102D01*
X143772Y49191D01*
X143757Y49279D01*
X143738Y49366D01*
X143715Y49452D01*
X143689Y49538D01*
X143659Y49622D01*
X143625Y49705D01*
X143588Y49786D01*
X143547Y49865D01*
X143503Y49943D01*
X143455Y50019D01*
X143405Y50093D01*
X143351Y50164D01*
X143294Y50233D01*
X143234Y50300D01*
X143172Y50363D01*
X143107Y50425D01*
X143039Y50483D01*
X142969Y50538D01*
X142896Y50590D01*
X142821Y50639D01*
X142745Y50685D01*
X142666Y50728D01*
X142586Y50767D01*
X142503Y50802D01*
X142420Y50834D01*
X142335Y50862D01*
X142249Y50887D01*
X142162Y50908D01*
X142075Y50925D01*
X141986Y50939D01*
X141898Y50948D01*
X141808Y50954D01*
X141719Y50956D01*
X142134Y54278D02*
X139642Y54278D01*
X142134Y54278D02*
X142214Y54276D01*
X142294Y54270D01*
X142374Y54261D01*
X142453Y54247D01*
X142532Y54230D01*
X142609Y54209D01*
X142685Y54184D01*
X142760Y54155D01*
X142834Y54123D01*
X142906Y54088D01*
X142976Y54049D01*
X143044Y54006D01*
X143110Y53961D01*
X143174Y53912D01*
X143235Y53860D01*
X143294Y53806D01*
X143350Y53748D01*
X143404Y53688D01*
X143454Y53625D01*
X143501Y53561D01*
X143545Y53493D01*
X143586Y53424D01*
X143623Y53353D01*
X143657Y53280D01*
X143687Y53206D01*
X143714Y53130D01*
X143737Y53053D01*
X143756Y52975D01*
X143771Y52897D01*
X143783Y52817D01*
X143791Y52737D01*
X143795Y52657D01*
X143795Y52577D01*
X143791Y52497D01*
X143783Y52417D01*
X143771Y52337D01*
X143756Y52259D01*
X143737Y52181D01*
X143714Y52104D01*
X143687Y52028D01*
X143657Y51954D01*
X143623Y51881D01*
X143586Y51810D01*
X143545Y51741D01*
X143501Y51673D01*
X143454Y51609D01*
X143404Y51546D01*
X143350Y51486D01*
X143294Y51428D01*
X143235Y51374D01*
X143174Y51322D01*
X143110Y51273D01*
X143044Y51228D01*
X142976Y51185D01*
X142906Y51146D01*
X142834Y51111D01*
X142760Y51079D01*
X142685Y51050D01*
X142609Y51025D01*
X142532Y51004D01*
X142453Y50987D01*
X142374Y50973D01*
X142294Y50964D01*
X142214Y50958D01*
X142134Y50956D01*
X142134Y50955D02*
X140473Y50955D01*
X156462Y46802D02*
X158954Y46802D01*
X159033Y46804D01*
X159112Y46810D01*
X159190Y46819D01*
X159268Y46832D01*
X159346Y46849D01*
X159422Y46869D01*
X159497Y46893D01*
X159571Y46921D01*
X159644Y46952D01*
X159715Y46987D01*
X159785Y47025D01*
X159852Y47066D01*
X159917Y47110D01*
X159981Y47157D01*
X160042Y47208D01*
X160100Y47261D01*
X160156Y47317D01*
X160209Y47375D01*
X160260Y47436D01*
X160307Y47500D01*
X160351Y47565D01*
X160392Y47633D01*
X160430Y47702D01*
X160465Y47773D01*
X160496Y47846D01*
X160524Y47920D01*
X160548Y47995D01*
X160568Y48071D01*
X160585Y48149D01*
X160598Y48227D01*
X160607Y48305D01*
X160613Y48384D01*
X160615Y48463D01*
X160615Y49294D01*
X160613Y49373D01*
X160607Y49452D01*
X160598Y49530D01*
X160585Y49608D01*
X160568Y49686D01*
X160548Y49762D01*
X160524Y49837D01*
X160496Y49911D01*
X160465Y49984D01*
X160430Y50055D01*
X160392Y50125D01*
X160351Y50192D01*
X160307Y50257D01*
X160260Y50321D01*
X160209Y50382D01*
X160156Y50440D01*
X160100Y50496D01*
X160042Y50549D01*
X159981Y50600D01*
X159917Y50647D01*
X159852Y50691D01*
X159785Y50732D01*
X159715Y50770D01*
X159644Y50805D01*
X159571Y50836D01*
X159497Y50864D01*
X159422Y50888D01*
X159346Y50908D01*
X159268Y50925D01*
X159190Y50938D01*
X159112Y50947D01*
X159033Y50953D01*
X158954Y50955D01*
X156462Y50955D01*
X156462Y54278D01*
X160615Y54278D01*
X164147Y54278D02*
X166639Y46802D01*
X169131Y54278D01*
X185416Y54278D02*
X185500Y54276D01*
X185584Y54270D01*
X185667Y54261D01*
X185750Y54248D01*
X185832Y54231D01*
X185913Y54211D01*
X185994Y54187D01*
X186073Y54159D01*
X186151Y54128D01*
X186227Y54093D01*
X186302Y54055D01*
X186375Y54013D01*
X186446Y53969D01*
X186515Y53921D01*
X186581Y53870D01*
X186646Y53816D01*
X186708Y53760D01*
X186767Y53701D01*
X186823Y53639D01*
X186877Y53574D01*
X186928Y53508D01*
X186976Y53439D01*
X187020Y53368D01*
X187062Y53295D01*
X187100Y53220D01*
X187135Y53144D01*
X187166Y53066D01*
X187194Y52987D01*
X187218Y52906D01*
X187238Y52825D01*
X187255Y52743D01*
X187268Y52660D01*
X187277Y52577D01*
X187283Y52493D01*
X187285Y52409D01*
X185416Y54278D02*
X185319Y54276D01*
X185221Y54270D01*
X185125Y54260D01*
X185028Y54246D01*
X184932Y54229D01*
X184837Y54207D01*
X184743Y54182D01*
X184650Y54153D01*
X184559Y54120D01*
X184468Y54083D01*
X184380Y54043D01*
X184293Y53999D01*
X184208Y53952D01*
X184124Y53901D01*
X184043Y53847D01*
X183965Y53790D01*
X183888Y53729D01*
X183814Y53666D01*
X183743Y53599D01*
X183675Y53530D01*
X183609Y53458D01*
X183546Y53384D01*
X183487Y53307D01*
X183431Y53227D01*
X183377Y53145D01*
X183328Y53062D01*
X183281Y52976D01*
X183239Y52889D01*
X183199Y52799D01*
X183164Y52709D01*
X183132Y52617D01*
X186663Y50955D02*
X186724Y51015D01*
X186782Y51078D01*
X186837Y51143D01*
X186889Y51211D01*
X186939Y51281D01*
X186986Y51353D01*
X187029Y51426D01*
X187069Y51502D01*
X187106Y51579D01*
X187140Y51658D01*
X187170Y51738D01*
X187197Y51819D01*
X187221Y51901D01*
X187241Y51984D01*
X187257Y52068D01*
X187270Y52153D01*
X187279Y52238D01*
X187284Y52323D01*
X187286Y52409D01*
X186662Y50955D02*
X183132Y46802D01*
X187285Y46802D01*
X208532Y50540D02*
X208534Y50695D01*
X208540Y50850D01*
X208550Y51005D01*
X208563Y51160D01*
X208581Y51314D01*
X208602Y51468D01*
X208628Y51621D01*
X208657Y51774D01*
X208690Y51925D01*
X208727Y52076D01*
X208767Y52226D01*
X208812Y52375D01*
X208860Y52522D01*
X208911Y52669D01*
X208967Y52814D01*
X209026Y52957D01*
X209089Y53099D01*
X209155Y53240D01*
X209155Y53239D02*
X209182Y53311D01*
X209212Y53381D01*
X209245Y53450D01*
X209282Y53516D01*
X209322Y53581D01*
X209365Y53644D01*
X209412Y53705D01*
X209461Y53763D01*
X209513Y53819D01*
X209568Y53872D01*
X209625Y53922D01*
X209685Y53969D01*
X209747Y54013D01*
X209811Y54055D01*
X209877Y54093D01*
X209945Y54127D01*
X210015Y54158D01*
X210086Y54186D01*
X210158Y54210D01*
X210232Y54231D01*
X210306Y54248D01*
X210381Y54261D01*
X210457Y54270D01*
X210533Y54276D01*
X210609Y54278D01*
X210685Y54276D01*
X210761Y54270D01*
X210837Y54261D01*
X210912Y54248D01*
X210986Y54231D01*
X211060Y54210D01*
X211132Y54186D01*
X211203Y54158D01*
X211273Y54127D01*
X211341Y54093D01*
X211407Y54055D01*
X211471Y54013D01*
X211533Y53969D01*
X211593Y53922D01*
X211650Y53872D01*
X211705Y53819D01*
X211757Y53763D01*
X211806Y53705D01*
X211853Y53644D01*
X211896Y53581D01*
X211936Y53516D01*
X211973Y53450D01*
X212006Y53381D01*
X212036Y53311D01*
X212063Y53239D01*
X212063Y53240D02*
X212129Y53099D01*
X212192Y52957D01*
X212251Y52814D01*
X212307Y52669D01*
X212358Y52522D01*
X212406Y52375D01*
X212451Y52226D01*
X212491Y52076D01*
X212528Y51925D01*
X212561Y51774D01*
X212590Y51621D01*
X212616Y51468D01*
X212637Y51314D01*
X212655Y51160D01*
X212668Y51005D01*
X212678Y50850D01*
X212684Y50695D01*
X212686Y50540D01*
X208532Y50540D02*
X208534Y50385D01*
X208540Y50230D01*
X208550Y50075D01*
X208563Y49920D01*
X208581Y49766D01*
X208602Y49612D01*
X208628Y49459D01*
X208657Y49306D01*
X208690Y49155D01*
X208727Y49004D01*
X208767Y48854D01*
X208812Y48705D01*
X208860Y48558D01*
X208911Y48411D01*
X208967Y48266D01*
X209026Y48123D01*
X209089Y47981D01*
X209155Y47840D01*
X209182Y47769D01*
X209212Y47699D01*
X209245Y47630D01*
X209282Y47564D01*
X209322Y47499D01*
X209365Y47436D01*
X209412Y47375D01*
X209461Y47317D01*
X209513Y47261D01*
X209568Y47208D01*
X209625Y47158D01*
X209685Y47111D01*
X209747Y47067D01*
X209811Y47025D01*
X209877Y46987D01*
X209945Y46953D01*
X210015Y46922D01*
X210086Y46894D01*
X210158Y46870D01*
X210232Y46849D01*
X210306Y46832D01*
X210381Y46819D01*
X210457Y46810D01*
X210533Y46804D01*
X210609Y46802D01*
X212062Y47840D02*
X212128Y47981D01*
X212191Y48123D01*
X212250Y48266D01*
X212306Y48411D01*
X212357Y48558D01*
X212405Y48705D01*
X212450Y48854D01*
X212490Y49004D01*
X212527Y49155D01*
X212560Y49306D01*
X212589Y49459D01*
X212615Y49612D01*
X212636Y49766D01*
X212654Y49920D01*
X212667Y50075D01*
X212677Y50230D01*
X212683Y50385D01*
X212685Y50540D01*
X212063Y47841D02*
X212036Y47769D01*
X212006Y47699D01*
X211973Y47630D01*
X211936Y47564D01*
X211896Y47499D01*
X211853Y47436D01*
X211806Y47375D01*
X211757Y47317D01*
X211705Y47261D01*
X211650Y47208D01*
X211593Y47158D01*
X211533Y47111D01*
X211471Y47067D01*
X211407Y47025D01*
X211341Y46987D01*
X211273Y46953D01*
X211203Y46922D01*
X211132Y46894D01*
X211060Y46870D01*
X210986Y46849D01*
X210912Y46832D01*
X210837Y46819D01*
X210761Y46810D01*
X210685Y46804D01*
X210609Y46802D01*
X208947Y48463D02*
X212270Y52617D01*
X233932Y48463D02*
X235593Y54278D01*
X233932Y48463D02*
X238085Y48463D01*
X236839Y46802D02*
X236839Y50125D01*
X257599Y46802D02*
X257599Y54278D01*
X259675Y54278D02*
X255522Y54278D01*
X262667Y46802D02*
X267651Y54278D01*
X262667Y54278D02*
X267651Y46802D01*
X280922Y46802D02*
X280922Y54278D01*
X282999Y54278D01*
X283088Y54276D01*
X283178Y54270D01*
X283266Y54261D01*
X283355Y54247D01*
X283442Y54230D01*
X283529Y54209D01*
X283615Y54184D01*
X283700Y54156D01*
X283783Y54124D01*
X283866Y54089D01*
X283946Y54050D01*
X284025Y54007D01*
X284101Y53961D01*
X284176Y53912D01*
X284249Y53860D01*
X284319Y53805D01*
X284387Y53747D01*
X284452Y53685D01*
X284514Y53622D01*
X284574Y53555D01*
X284631Y53486D01*
X284685Y53415D01*
X284735Y53341D01*
X284783Y53265D01*
X284827Y53187D01*
X284868Y53108D01*
X284905Y53027D01*
X284939Y52944D01*
X284969Y52860D01*
X284995Y52774D01*
X285018Y52688D01*
X285037Y52601D01*
X285052Y52513D01*
X285064Y52424D01*
X285072Y52335D01*
X285076Y52246D01*
X285076Y52156D01*
X285072Y52067D01*
X285064Y51978D01*
X285052Y51889D01*
X285037Y51801D01*
X285018Y51714D01*
X284995Y51628D01*
X284969Y51542D01*
X284939Y51458D01*
X284905Y51375D01*
X284868Y51294D01*
X284827Y51215D01*
X284783Y51137D01*
X284735Y51061D01*
X284685Y50987D01*
X284631Y50916D01*
X284574Y50847D01*
X284514Y50780D01*
X284452Y50717D01*
X284387Y50655D01*
X284319Y50597D01*
X284249Y50542D01*
X284176Y50490D01*
X284101Y50441D01*
X284025Y50395D01*
X283946Y50352D01*
X283866Y50313D01*
X283783Y50278D01*
X283700Y50246D01*
X283615Y50218D01*
X283529Y50193D01*
X283442Y50172D01*
X283355Y50155D01*
X283266Y50141D01*
X283178Y50132D01*
X283088Y50126D01*
X282999Y50124D01*
X282999Y50125D02*
X280922Y50125D01*
X283414Y50125D02*
X285075Y46802D01*
X288525Y46802D02*
X293509Y54278D01*
X288525Y54278D02*
X293509Y46802D01*
X383792Y328742D02*
X386284Y328742D01*
X386363Y328744D01*
X386442Y328750D01*
X386520Y328759D01*
X386598Y328772D01*
X386676Y328789D01*
X386752Y328809D01*
X386827Y328833D01*
X386901Y328861D01*
X386974Y328892D01*
X387045Y328927D01*
X387115Y328965D01*
X387182Y329006D01*
X387247Y329050D01*
X387311Y329097D01*
X387372Y329148D01*
X387430Y329201D01*
X387486Y329257D01*
X387539Y329315D01*
X387590Y329376D01*
X387637Y329440D01*
X387681Y329505D01*
X387722Y329573D01*
X387760Y329642D01*
X387795Y329713D01*
X387826Y329786D01*
X387854Y329860D01*
X387878Y329935D01*
X387898Y330011D01*
X387915Y330089D01*
X387928Y330167D01*
X387937Y330245D01*
X387943Y330324D01*
X387945Y330403D01*
X387945Y331234D01*
X387943Y331313D01*
X387937Y331392D01*
X387928Y331470D01*
X387915Y331548D01*
X387898Y331626D01*
X387878Y331702D01*
X387854Y331777D01*
X387826Y331851D01*
X387795Y331924D01*
X387760Y331995D01*
X387722Y332065D01*
X387681Y332132D01*
X387637Y332197D01*
X387590Y332261D01*
X387539Y332322D01*
X387486Y332380D01*
X387430Y332436D01*
X387372Y332489D01*
X387311Y332540D01*
X387247Y332587D01*
X387182Y332631D01*
X387115Y332672D01*
X387045Y332710D01*
X386974Y332745D01*
X386901Y332776D01*
X386827Y332804D01*
X386752Y332828D01*
X386676Y332848D01*
X386598Y332865D01*
X386520Y332878D01*
X386442Y332887D01*
X386363Y332893D01*
X386284Y332895D01*
X383792Y332895D01*
X383792Y336218D01*
X387945Y336218D01*
X391477Y336218D02*
X393969Y328742D01*
X396461Y336218D01*
X333335Y332895D02*
X332089Y332895D01*
X333335Y332895D02*
X333335Y328742D01*
X330843Y328742D01*
X330764Y328744D01*
X330685Y328750D01*
X330607Y328759D01*
X330529Y328772D01*
X330451Y328789D01*
X330375Y328809D01*
X330300Y328833D01*
X330226Y328861D01*
X330153Y328892D01*
X330082Y328927D01*
X330013Y328965D01*
X329945Y329006D01*
X329880Y329050D01*
X329816Y329097D01*
X329755Y329148D01*
X329697Y329201D01*
X329641Y329257D01*
X329588Y329315D01*
X329537Y329376D01*
X329490Y329440D01*
X329446Y329505D01*
X329405Y329573D01*
X329367Y329642D01*
X329332Y329713D01*
X329301Y329786D01*
X329273Y329860D01*
X329249Y329935D01*
X329229Y330011D01*
X329212Y330089D01*
X329199Y330167D01*
X329190Y330245D01*
X329184Y330324D01*
X329182Y330403D01*
X329182Y334557D01*
X329184Y334636D01*
X329190Y334715D01*
X329199Y334793D01*
X329212Y334871D01*
X329229Y334949D01*
X329249Y335025D01*
X329273Y335100D01*
X329301Y335174D01*
X329332Y335247D01*
X329367Y335318D01*
X329405Y335387D01*
X329446Y335455D01*
X329490Y335520D01*
X329537Y335584D01*
X329588Y335645D01*
X329641Y335703D01*
X329697Y335759D01*
X329755Y335812D01*
X329816Y335863D01*
X329880Y335910D01*
X329945Y335954D01*
X330012Y335995D01*
X330082Y336033D01*
X330153Y336068D01*
X330226Y336099D01*
X330300Y336127D01*
X330375Y336151D01*
X330451Y336171D01*
X330529Y336188D01*
X330607Y336201D01*
X330685Y336210D01*
X330764Y336216D01*
X330843Y336218D01*
X333335Y336218D01*
X337822Y336218D02*
X337822Y328742D01*
X341975Y328742D02*
X337822Y336218D01*
X341975Y336218D02*
X341975Y328742D01*
X346462Y328742D02*
X346462Y336218D01*
X348539Y336218D01*
X348627Y336216D01*
X348715Y336211D01*
X348803Y336201D01*
X348890Y336188D01*
X348977Y336171D01*
X349062Y336151D01*
X349147Y336127D01*
X349231Y336099D01*
X349313Y336068D01*
X349395Y336034D01*
X349474Y335996D01*
X349552Y335954D01*
X349628Y335910D01*
X349702Y335862D01*
X349774Y335811D01*
X349844Y335757D01*
X349911Y335700D01*
X349976Y335640D01*
X350039Y335578D01*
X350098Y335513D01*
X350155Y335446D01*
X350209Y335376D01*
X350260Y335304D01*
X350308Y335230D01*
X350352Y335154D01*
X350394Y335076D01*
X350432Y334996D01*
X350466Y334915D01*
X350497Y334833D01*
X350525Y334749D01*
X350549Y334664D01*
X350569Y334579D01*
X350586Y334492D01*
X350599Y334405D01*
X350609Y334317D01*
X350614Y334229D01*
X350616Y334141D01*
X350615Y334141D02*
X350615Y330819D01*
X350616Y330819D02*
X350614Y330728D01*
X350608Y330638D01*
X350598Y330548D01*
X350584Y330458D01*
X350567Y330369D01*
X350545Y330281D01*
X350520Y330194D01*
X350491Y330109D01*
X350458Y330024D01*
X350421Y329941D01*
X350381Y329860D01*
X350338Y329781D01*
X350291Y329703D01*
X350240Y329628D01*
X350187Y329555D01*
X350130Y329484D01*
X350070Y329416D01*
X350008Y329350D01*
X349942Y329288D01*
X349874Y329228D01*
X349803Y329171D01*
X349730Y329118D01*
X349655Y329067D01*
X349578Y329020D01*
X349498Y328977D01*
X349417Y328937D01*
X349334Y328900D01*
X349249Y328867D01*
X349164Y328838D01*
X349077Y328813D01*
X348989Y328791D01*
X348900Y328774D01*
X348810Y328760D01*
X348720Y328750D01*
X348630Y328744D01*
X348539Y328742D01*
X346462Y328742D01*
X202182Y107618D02*
X202182Y100142D01*
X206335Y107618D01*
X206335Y100142D01*
X209682Y100142D02*
X211759Y107618D01*
X213835Y107618D01*
X213835Y100142D01*
X218652Y100142D02*
X218652Y107618D01*
X222805Y107618D02*
X218652Y100142D01*
X222805Y100142D02*
X222805Y107618D01*
D11*
X154940Y104140D02*
X154940Y114300D01*
X154940Y104140D02*
X191770Y104140D01*
X191770Y114300D01*
X237490Y114300D02*
X237490Y104140D01*
X271780Y104140D01*
X271780Y114300D01*
X364490Y326390D02*
X364490Y336550D01*
X364490Y326390D02*
X368300Y322580D01*
X373380Y322580D01*
X377190Y318770D01*
X377190Y274320D01*
X359410Y331470D02*
X364490Y336550D01*
X369570Y331470D01*
X367030Y274320D02*
X377190Y274320D01*
D10*
X336802Y266368D02*
X336802Y258892D01*
X336802Y266368D02*
X338879Y266368D01*
X338959Y266366D01*
X339039Y266360D01*
X339119Y266351D01*
X339198Y266337D01*
X339277Y266320D01*
X339354Y266299D01*
X339430Y266274D01*
X339505Y266245D01*
X339579Y266213D01*
X339651Y266178D01*
X339721Y266139D01*
X339789Y266096D01*
X339855Y266051D01*
X339919Y266002D01*
X339980Y265950D01*
X340039Y265896D01*
X340095Y265838D01*
X340149Y265778D01*
X340199Y265715D01*
X340246Y265651D01*
X340290Y265583D01*
X340331Y265514D01*
X340368Y265443D01*
X340402Y265370D01*
X340432Y265296D01*
X340459Y265220D01*
X340482Y265143D01*
X340501Y265065D01*
X340516Y264987D01*
X340528Y264907D01*
X340536Y264827D01*
X340540Y264747D01*
X340540Y264667D01*
X340536Y264587D01*
X340528Y264507D01*
X340516Y264427D01*
X340501Y264349D01*
X340482Y264271D01*
X340459Y264194D01*
X340432Y264118D01*
X340402Y264044D01*
X340368Y263971D01*
X340331Y263900D01*
X340290Y263831D01*
X340246Y263763D01*
X340199Y263699D01*
X340149Y263636D01*
X340095Y263576D01*
X340039Y263518D01*
X339980Y263464D01*
X339919Y263412D01*
X339855Y263363D01*
X339789Y263318D01*
X339721Y263275D01*
X339651Y263236D01*
X339579Y263201D01*
X339505Y263169D01*
X339430Y263140D01*
X339354Y263115D01*
X339277Y263094D01*
X339198Y263077D01*
X339119Y263063D01*
X339039Y263054D01*
X338959Y263048D01*
X338879Y263046D01*
X338879Y263045D02*
X336802Y263045D01*
X336802Y258892D02*
X338879Y258892D01*
X338968Y258894D01*
X339058Y258900D01*
X339146Y258909D01*
X339235Y258923D01*
X339322Y258940D01*
X339409Y258961D01*
X339495Y258986D01*
X339580Y259014D01*
X339663Y259046D01*
X339746Y259081D01*
X339826Y259120D01*
X339905Y259163D01*
X339981Y259209D01*
X340056Y259258D01*
X340129Y259310D01*
X340199Y259365D01*
X340267Y259423D01*
X340332Y259485D01*
X340394Y259548D01*
X340454Y259615D01*
X340511Y259684D01*
X340565Y259755D01*
X340615Y259829D01*
X340663Y259905D01*
X340707Y259983D01*
X340748Y260062D01*
X340785Y260143D01*
X340819Y260226D01*
X340849Y260310D01*
X340875Y260396D01*
X340898Y260482D01*
X340917Y260569D01*
X340932Y260657D01*
X340944Y260746D01*
X340952Y260835D01*
X340956Y260924D01*
X340956Y261014D01*
X340952Y261103D01*
X340944Y261192D01*
X340932Y261281D01*
X340917Y261369D01*
X340898Y261456D01*
X340875Y261542D01*
X340849Y261628D01*
X340819Y261712D01*
X340785Y261795D01*
X340748Y261876D01*
X340707Y261955D01*
X340663Y262033D01*
X340615Y262109D01*
X340565Y262183D01*
X340511Y262254D01*
X340454Y262323D01*
X340394Y262390D01*
X340332Y262453D01*
X340267Y262515D01*
X340199Y262573D01*
X340129Y262628D01*
X340056Y262680D01*
X339981Y262729D01*
X339905Y262775D01*
X339826Y262818D01*
X339746Y262857D01*
X339663Y262892D01*
X339580Y262924D01*
X339495Y262952D01*
X339409Y262977D01*
X339322Y262998D01*
X339235Y263015D01*
X339146Y263029D01*
X339058Y263038D01*
X338968Y263044D01*
X338879Y263046D01*
X349244Y263876D02*
X349244Y258892D01*
X345091Y258892D02*
X345091Y263876D01*
X345091Y258892D02*
X346337Y258892D01*
X346407Y258894D01*
X346477Y258900D01*
X346546Y258910D01*
X346614Y258923D01*
X346682Y258941D01*
X346749Y258962D01*
X346814Y258987D01*
X346878Y259015D01*
X346940Y259047D01*
X347000Y259083D01*
X347058Y259122D01*
X347114Y259164D01*
X347167Y259209D01*
X347218Y259257D01*
X347266Y259308D01*
X347311Y259361D01*
X347353Y259417D01*
X347392Y259475D01*
X347428Y259535D01*
X347460Y259597D01*
X347488Y259661D01*
X347513Y259726D01*
X347534Y259793D01*
X347552Y259861D01*
X347565Y259929D01*
X347575Y259998D01*
X347581Y260068D01*
X347583Y260138D01*
X347581Y260208D01*
X347575Y260278D01*
X347565Y260347D01*
X347552Y260415D01*
X347534Y260483D01*
X347513Y260550D01*
X347488Y260615D01*
X347460Y260679D01*
X347428Y260741D01*
X347392Y260801D01*
X347353Y260859D01*
X347311Y260915D01*
X347266Y260968D01*
X347218Y261019D01*
X347167Y261067D01*
X347114Y261112D01*
X347058Y261154D01*
X347000Y261193D01*
X346940Y261229D01*
X346878Y261261D01*
X346814Y261289D01*
X346749Y261314D01*
X346682Y261335D01*
X346614Y261353D01*
X346546Y261366D01*
X346477Y261376D01*
X346407Y261382D01*
X346337Y261384D01*
X345091Y261384D01*
X354917Y266368D02*
X356578Y266368D01*
X354917Y266368D02*
X354847Y266366D01*
X354777Y266360D01*
X354708Y266350D01*
X354640Y266337D01*
X354572Y266319D01*
X354505Y266298D01*
X354440Y266273D01*
X354376Y266245D01*
X354314Y266213D01*
X354254Y266177D01*
X354196Y266138D01*
X354140Y266096D01*
X354087Y266051D01*
X354036Y266003D01*
X353988Y265952D01*
X353943Y265899D01*
X353901Y265843D01*
X353862Y265785D01*
X353826Y265725D01*
X353794Y265663D01*
X353766Y265599D01*
X353741Y265534D01*
X353720Y265467D01*
X353702Y265399D01*
X353689Y265331D01*
X353679Y265262D01*
X353673Y265192D01*
X353671Y265122D01*
X353671Y260553D01*
X353673Y260473D01*
X353679Y260393D01*
X353688Y260313D01*
X353702Y260234D01*
X353719Y260155D01*
X353740Y260078D01*
X353765Y260002D01*
X353794Y259927D01*
X353826Y259853D01*
X353861Y259781D01*
X353900Y259711D01*
X353943Y259643D01*
X353988Y259577D01*
X354037Y259513D01*
X354089Y259452D01*
X354143Y259393D01*
X354201Y259337D01*
X354261Y259283D01*
X354324Y259233D01*
X354388Y259186D01*
X354456Y259142D01*
X354525Y259101D01*
X354596Y259064D01*
X354669Y259030D01*
X354743Y259000D01*
X354819Y258973D01*
X354896Y258950D01*
X354974Y258931D01*
X355052Y258916D01*
X355132Y258904D01*
X355212Y258896D01*
X355292Y258892D01*
X355372Y258892D01*
X355452Y258896D01*
X355532Y258904D01*
X355612Y258916D01*
X355690Y258931D01*
X355768Y258950D01*
X355845Y258973D01*
X355921Y259000D01*
X355995Y259030D01*
X356068Y259064D01*
X356139Y259101D01*
X356208Y259142D01*
X356276Y259186D01*
X356340Y259233D01*
X356403Y259283D01*
X356463Y259337D01*
X356521Y259393D01*
X356575Y259452D01*
X356627Y259513D01*
X356676Y259577D01*
X356721Y259643D01*
X356764Y259711D01*
X356803Y259781D01*
X356838Y259853D01*
X356870Y259927D01*
X356899Y260002D01*
X356924Y260078D01*
X356945Y260155D01*
X356962Y260234D01*
X356976Y260313D01*
X356985Y260393D01*
X356991Y260473D01*
X356993Y260553D01*
X356994Y260553D02*
X356994Y262215D01*
X356993Y262215D02*
X356991Y262295D01*
X356985Y262375D01*
X356976Y262455D01*
X356962Y262534D01*
X356945Y262613D01*
X356924Y262690D01*
X356899Y262766D01*
X356870Y262841D01*
X356838Y262915D01*
X356803Y262987D01*
X356764Y263057D01*
X356721Y263125D01*
X356676Y263191D01*
X356627Y263255D01*
X356575Y263316D01*
X356521Y263375D01*
X356463Y263431D01*
X356403Y263485D01*
X356340Y263535D01*
X356276Y263582D01*
X356208Y263626D01*
X356139Y263667D01*
X356068Y263704D01*
X355995Y263738D01*
X355921Y263768D01*
X355845Y263795D01*
X355768Y263818D01*
X355690Y263837D01*
X355612Y263852D01*
X355532Y263864D01*
X355452Y263872D01*
X355372Y263876D01*
X355292Y263876D01*
X355212Y263872D01*
X355132Y263864D01*
X355052Y263852D01*
X354974Y263837D01*
X354896Y263818D01*
X354819Y263795D01*
X354743Y263768D01*
X354669Y263738D01*
X354596Y263704D01*
X354525Y263667D01*
X354456Y263626D01*
X354388Y263582D01*
X354324Y263535D01*
X354261Y263485D01*
X354201Y263431D01*
X354143Y263375D01*
X354089Y263316D01*
X354037Y263255D01*
X353988Y263191D01*
X353943Y263125D01*
X353900Y263057D01*
X353861Y262987D01*
X353826Y262915D01*
X353794Y262841D01*
X353765Y262766D01*
X353740Y262690D01*
X353719Y262613D01*
X353702Y262534D01*
X353688Y262455D01*
X353679Y262375D01*
X353673Y262295D01*
X353671Y262215D01*
X360626Y262215D02*
X360626Y260553D01*
X360626Y262215D02*
X360628Y262295D01*
X360634Y262375D01*
X360643Y262455D01*
X360657Y262534D01*
X360674Y262613D01*
X360695Y262690D01*
X360720Y262766D01*
X360749Y262841D01*
X360781Y262915D01*
X360816Y262987D01*
X360855Y263057D01*
X360898Y263125D01*
X360943Y263191D01*
X360992Y263255D01*
X361044Y263316D01*
X361098Y263375D01*
X361156Y263431D01*
X361216Y263485D01*
X361279Y263535D01*
X361343Y263582D01*
X361411Y263626D01*
X361480Y263667D01*
X361551Y263704D01*
X361624Y263738D01*
X361698Y263768D01*
X361774Y263795D01*
X361851Y263818D01*
X361929Y263837D01*
X362007Y263852D01*
X362087Y263864D01*
X362167Y263872D01*
X362247Y263876D01*
X362327Y263876D01*
X362407Y263872D01*
X362487Y263864D01*
X362567Y263852D01*
X362645Y263837D01*
X362723Y263818D01*
X362800Y263795D01*
X362876Y263768D01*
X362950Y263738D01*
X363023Y263704D01*
X363094Y263667D01*
X363163Y263626D01*
X363231Y263582D01*
X363295Y263535D01*
X363358Y263485D01*
X363418Y263431D01*
X363476Y263375D01*
X363530Y263316D01*
X363582Y263255D01*
X363631Y263191D01*
X363676Y263125D01*
X363719Y263057D01*
X363758Y262987D01*
X363793Y262915D01*
X363825Y262841D01*
X363854Y262766D01*
X363879Y262690D01*
X363900Y262613D01*
X363917Y262534D01*
X363931Y262455D01*
X363940Y262375D01*
X363946Y262295D01*
X363948Y262215D01*
X363949Y262215D02*
X363949Y260553D01*
X363948Y260553D02*
X363946Y260473D01*
X363940Y260393D01*
X363931Y260313D01*
X363917Y260234D01*
X363900Y260155D01*
X363879Y260078D01*
X363854Y260002D01*
X363825Y259927D01*
X363793Y259853D01*
X363758Y259781D01*
X363719Y259711D01*
X363676Y259643D01*
X363631Y259577D01*
X363582Y259513D01*
X363530Y259452D01*
X363476Y259393D01*
X363418Y259337D01*
X363358Y259283D01*
X363295Y259233D01*
X363231Y259186D01*
X363163Y259142D01*
X363094Y259101D01*
X363023Y259064D01*
X362950Y259030D01*
X362876Y259000D01*
X362800Y258973D01*
X362723Y258950D01*
X362645Y258931D01*
X362567Y258916D01*
X362487Y258904D01*
X362407Y258896D01*
X362327Y258892D01*
X362247Y258892D01*
X362167Y258896D01*
X362087Y258904D01*
X362007Y258916D01*
X361929Y258931D01*
X361851Y258950D01*
X361774Y258973D01*
X361698Y259000D01*
X361624Y259030D01*
X361551Y259064D01*
X361480Y259101D01*
X361411Y259142D01*
X361343Y259186D01*
X361279Y259233D01*
X361216Y259283D01*
X361156Y259337D01*
X361098Y259393D01*
X361044Y259452D01*
X360992Y259513D01*
X360943Y259577D01*
X360898Y259643D01*
X360855Y259711D01*
X360816Y259781D01*
X360781Y259853D01*
X360749Y259927D01*
X360720Y260002D01*
X360695Y260078D01*
X360674Y260155D01*
X360657Y260234D01*
X360643Y260313D01*
X360634Y260393D01*
X360628Y260473D01*
X360626Y260553D01*
X367981Y263876D02*
X367981Y256400D01*
X367981Y263876D02*
X370058Y263876D01*
X370128Y263874D01*
X370198Y263868D01*
X370267Y263858D01*
X370335Y263845D01*
X370403Y263827D01*
X370470Y263806D01*
X370535Y263781D01*
X370599Y263753D01*
X370661Y263721D01*
X370721Y263685D01*
X370779Y263646D01*
X370835Y263604D01*
X370888Y263559D01*
X370939Y263511D01*
X370987Y263460D01*
X371032Y263407D01*
X371074Y263351D01*
X371113Y263293D01*
X371149Y263233D01*
X371181Y263171D01*
X371209Y263107D01*
X371234Y263042D01*
X371255Y262975D01*
X371273Y262907D01*
X371286Y262839D01*
X371296Y262770D01*
X371302Y262700D01*
X371304Y262630D01*
X371304Y260138D01*
X371302Y260068D01*
X371296Y259998D01*
X371286Y259929D01*
X371273Y259861D01*
X371255Y259793D01*
X371234Y259726D01*
X371209Y259661D01*
X371181Y259597D01*
X371149Y259535D01*
X371113Y259475D01*
X371074Y259417D01*
X371032Y259361D01*
X370987Y259308D01*
X370939Y259257D01*
X370888Y259209D01*
X370835Y259164D01*
X370779Y259122D01*
X370721Y259083D01*
X370661Y259047D01*
X370599Y259015D01*
X370535Y258987D01*
X370470Y258962D01*
X370403Y258941D01*
X370335Y258923D01*
X370267Y258910D01*
X370198Y258900D01*
X370128Y258894D01*
X370058Y258892D01*
X367981Y258892D01*
X379651Y258892D02*
X379651Y263876D01*
X381727Y260969D01*
X383804Y263876D01*
X383804Y258892D01*
X387896Y260553D02*
X387896Y262215D01*
X387898Y262295D01*
X387904Y262375D01*
X387913Y262455D01*
X387927Y262534D01*
X387944Y262613D01*
X387965Y262690D01*
X387990Y262766D01*
X388019Y262841D01*
X388051Y262915D01*
X388086Y262987D01*
X388125Y263057D01*
X388168Y263125D01*
X388213Y263191D01*
X388262Y263255D01*
X388314Y263316D01*
X388368Y263375D01*
X388426Y263431D01*
X388486Y263485D01*
X388549Y263535D01*
X388613Y263582D01*
X388681Y263626D01*
X388750Y263667D01*
X388821Y263704D01*
X388894Y263738D01*
X388968Y263768D01*
X389044Y263795D01*
X389121Y263818D01*
X389199Y263837D01*
X389277Y263852D01*
X389357Y263864D01*
X389437Y263872D01*
X389517Y263876D01*
X389597Y263876D01*
X389677Y263872D01*
X389757Y263864D01*
X389837Y263852D01*
X389915Y263837D01*
X389993Y263818D01*
X390070Y263795D01*
X390146Y263768D01*
X390220Y263738D01*
X390293Y263704D01*
X390364Y263667D01*
X390433Y263626D01*
X390501Y263582D01*
X390565Y263535D01*
X390628Y263485D01*
X390688Y263431D01*
X390746Y263375D01*
X390800Y263316D01*
X390852Y263255D01*
X390901Y263191D01*
X390946Y263125D01*
X390989Y263057D01*
X391028Y262987D01*
X391063Y262915D01*
X391095Y262841D01*
X391124Y262766D01*
X391149Y262690D01*
X391170Y262613D01*
X391187Y262534D01*
X391201Y262455D01*
X391210Y262375D01*
X391216Y262295D01*
X391218Y262215D01*
X391219Y262215D02*
X391219Y260553D01*
X391218Y260553D02*
X391216Y260473D01*
X391210Y260393D01*
X391201Y260313D01*
X391187Y260234D01*
X391170Y260155D01*
X391149Y260078D01*
X391124Y260002D01*
X391095Y259927D01*
X391063Y259853D01*
X391028Y259781D01*
X390989Y259711D01*
X390946Y259643D01*
X390901Y259577D01*
X390852Y259513D01*
X390800Y259452D01*
X390746Y259393D01*
X390688Y259337D01*
X390628Y259283D01*
X390565Y259233D01*
X390501Y259186D01*
X390433Y259142D01*
X390364Y259101D01*
X390293Y259064D01*
X390220Y259030D01*
X390146Y259000D01*
X390070Y258973D01*
X389993Y258950D01*
X389915Y258931D01*
X389837Y258916D01*
X389757Y258904D01*
X389677Y258896D01*
X389597Y258892D01*
X389517Y258892D01*
X389437Y258896D01*
X389357Y258904D01*
X389277Y258916D01*
X389199Y258931D01*
X389121Y258950D01*
X389044Y258973D01*
X388968Y259000D01*
X388894Y259030D01*
X388821Y259064D01*
X388750Y259101D01*
X388681Y259142D01*
X388613Y259186D01*
X388549Y259233D01*
X388486Y259283D01*
X388426Y259337D01*
X388368Y259393D01*
X388314Y259452D01*
X388262Y259513D01*
X388213Y259577D01*
X388168Y259643D01*
X388125Y259711D01*
X388086Y259781D01*
X388051Y259853D01*
X388019Y259927D01*
X387990Y260002D01*
X387965Y260078D01*
X387944Y260155D01*
X387927Y260234D01*
X387913Y260313D01*
X387904Y260393D01*
X387898Y260473D01*
X387896Y260553D01*
X394563Y258892D02*
X394563Y258061D01*
X394563Y258892D02*
X399132Y258892D01*
X399132Y258061D01*
X395394Y258892D02*
X396224Y263876D01*
X398301Y263876D01*
X398301Y258892D01*
X402411Y260138D02*
X402411Y263876D01*
X402411Y260138D02*
X402413Y260068D01*
X402419Y259998D01*
X402429Y259929D01*
X402442Y259861D01*
X402460Y259793D01*
X402481Y259726D01*
X402506Y259661D01*
X402534Y259597D01*
X402566Y259535D01*
X402602Y259475D01*
X402641Y259417D01*
X402683Y259361D01*
X402728Y259308D01*
X402776Y259257D01*
X402827Y259209D01*
X402880Y259164D01*
X402936Y259122D01*
X402994Y259083D01*
X403054Y259047D01*
X403116Y259015D01*
X403180Y258987D01*
X403245Y258962D01*
X403312Y258941D01*
X403380Y258923D01*
X403448Y258910D01*
X403517Y258900D01*
X403587Y258894D01*
X403657Y258892D01*
X405733Y258892D01*
X405733Y257646D02*
X405733Y263876D01*
X405733Y257646D02*
X405731Y257576D01*
X405725Y257506D01*
X405715Y257437D01*
X405702Y257369D01*
X405684Y257301D01*
X405663Y257234D01*
X405638Y257169D01*
X405610Y257105D01*
X405578Y257043D01*
X405542Y256983D01*
X405503Y256925D01*
X405461Y256869D01*
X405416Y256816D01*
X405368Y256765D01*
X405317Y256717D01*
X405264Y256672D01*
X405208Y256630D01*
X405150Y256591D01*
X405090Y256555D01*
X405028Y256523D01*
X404964Y256495D01*
X404899Y256470D01*
X404832Y256449D01*
X404764Y256431D01*
X404696Y256418D01*
X404627Y256408D01*
X404557Y256402D01*
X404487Y256400D01*
X402826Y256400D01*
X408962Y258892D02*
X410623Y263876D01*
X412284Y263876D01*
X412284Y258892D01*
X419773Y258892D02*
X419773Y263876D01*
X417697Y263876D01*
X417627Y263874D01*
X417557Y263868D01*
X417488Y263858D01*
X417420Y263845D01*
X417352Y263827D01*
X417285Y263806D01*
X417220Y263781D01*
X417156Y263753D01*
X417094Y263721D01*
X417034Y263685D01*
X416976Y263646D01*
X416920Y263604D01*
X416867Y263559D01*
X416816Y263511D01*
X416768Y263460D01*
X416723Y263407D01*
X416681Y263351D01*
X416642Y263293D01*
X416606Y263233D01*
X416574Y263171D01*
X416546Y263107D01*
X416521Y263042D01*
X416500Y262975D01*
X416482Y262907D01*
X416469Y262839D01*
X416459Y262770D01*
X416453Y262700D01*
X416451Y262630D01*
X416453Y262560D01*
X416459Y262490D01*
X416469Y262421D01*
X416482Y262353D01*
X416500Y262285D01*
X416521Y262218D01*
X416546Y262153D01*
X416574Y262089D01*
X416606Y262027D01*
X416642Y261967D01*
X416681Y261909D01*
X416723Y261853D01*
X416768Y261800D01*
X416816Y261749D01*
X416867Y261701D01*
X416920Y261656D01*
X416976Y261614D01*
X417034Y261575D01*
X417094Y261539D01*
X417156Y261507D01*
X417220Y261479D01*
X417285Y261454D01*
X417352Y261433D01*
X417420Y261415D01*
X417488Y261402D01*
X417557Y261392D01*
X417627Y261386D01*
X417697Y261384D01*
X419773Y261384D01*
X418112Y261384D02*
X416451Y258892D01*
X392682Y271592D02*
X392682Y279068D01*
X395174Y274915D01*
X397666Y279068D01*
X397666Y271592D01*
X402007Y271592D02*
X404084Y271592D01*
X404173Y271594D01*
X404263Y271600D01*
X404351Y271609D01*
X404440Y271623D01*
X404527Y271640D01*
X404614Y271661D01*
X404700Y271686D01*
X404785Y271714D01*
X404868Y271746D01*
X404951Y271781D01*
X405031Y271820D01*
X405110Y271863D01*
X405186Y271909D01*
X405261Y271958D01*
X405334Y272010D01*
X405404Y272065D01*
X405472Y272123D01*
X405537Y272185D01*
X405599Y272248D01*
X405659Y272315D01*
X405716Y272384D01*
X405770Y272455D01*
X405820Y272529D01*
X405868Y272605D01*
X405912Y272683D01*
X405953Y272762D01*
X405990Y272843D01*
X406024Y272926D01*
X406054Y273010D01*
X406080Y273096D01*
X406103Y273182D01*
X406122Y273269D01*
X406137Y273357D01*
X406149Y273446D01*
X406157Y273535D01*
X406161Y273624D01*
X406161Y273714D01*
X406157Y273803D01*
X406149Y273892D01*
X406137Y273981D01*
X406122Y274069D01*
X406103Y274156D01*
X406080Y274242D01*
X406054Y274328D01*
X406024Y274412D01*
X405990Y274495D01*
X405953Y274576D01*
X405912Y274655D01*
X405868Y274733D01*
X405820Y274809D01*
X405770Y274883D01*
X405716Y274954D01*
X405659Y275023D01*
X405599Y275090D01*
X405537Y275153D01*
X405472Y275215D01*
X405404Y275273D01*
X405334Y275328D01*
X405261Y275380D01*
X405186Y275429D01*
X405110Y275475D01*
X405031Y275518D01*
X404951Y275557D01*
X404868Y275592D01*
X404785Y275624D01*
X404700Y275652D01*
X404614Y275677D01*
X404527Y275698D01*
X404440Y275715D01*
X404351Y275729D01*
X404263Y275738D01*
X404173Y275744D01*
X404084Y275746D01*
X404499Y279068D02*
X402007Y279068D01*
X404499Y279068D02*
X404579Y279066D01*
X404659Y279060D01*
X404739Y279051D01*
X404818Y279037D01*
X404897Y279020D01*
X404974Y278999D01*
X405050Y278974D01*
X405125Y278945D01*
X405199Y278913D01*
X405271Y278878D01*
X405341Y278839D01*
X405409Y278796D01*
X405475Y278751D01*
X405539Y278702D01*
X405600Y278650D01*
X405659Y278596D01*
X405715Y278538D01*
X405769Y278478D01*
X405819Y278415D01*
X405866Y278351D01*
X405910Y278283D01*
X405951Y278214D01*
X405988Y278143D01*
X406022Y278070D01*
X406052Y277996D01*
X406079Y277920D01*
X406102Y277843D01*
X406121Y277765D01*
X406136Y277687D01*
X406148Y277607D01*
X406156Y277527D01*
X406160Y277447D01*
X406160Y277367D01*
X406156Y277287D01*
X406148Y277207D01*
X406136Y277127D01*
X406121Y277049D01*
X406102Y276971D01*
X406079Y276894D01*
X406052Y276818D01*
X406022Y276744D01*
X405988Y276671D01*
X405951Y276600D01*
X405910Y276531D01*
X405866Y276463D01*
X405819Y276399D01*
X405769Y276336D01*
X405715Y276276D01*
X405659Y276218D01*
X405600Y276164D01*
X405539Y276112D01*
X405475Y276063D01*
X405409Y276018D01*
X405341Y275975D01*
X405271Y275936D01*
X405199Y275901D01*
X405125Y275869D01*
X405050Y275840D01*
X404974Y275815D01*
X404897Y275794D01*
X404818Y275777D01*
X404739Y275763D01*
X404659Y275754D01*
X404579Y275748D01*
X404499Y275746D01*
X404499Y275745D02*
X402838Y275745D01*
X410107Y275330D02*
X410109Y275485D01*
X410115Y275640D01*
X410125Y275795D01*
X410138Y275950D01*
X410156Y276104D01*
X410177Y276258D01*
X410203Y276411D01*
X410232Y276564D01*
X410265Y276715D01*
X410302Y276866D01*
X410342Y277016D01*
X410387Y277165D01*
X410435Y277312D01*
X410486Y277459D01*
X410542Y277604D01*
X410601Y277747D01*
X410664Y277889D01*
X410730Y278030D01*
X410730Y278029D02*
X410757Y278101D01*
X410787Y278171D01*
X410820Y278240D01*
X410857Y278306D01*
X410897Y278371D01*
X410940Y278434D01*
X410987Y278495D01*
X411036Y278553D01*
X411088Y278609D01*
X411143Y278662D01*
X411200Y278712D01*
X411260Y278759D01*
X411322Y278803D01*
X411386Y278845D01*
X411452Y278883D01*
X411520Y278917D01*
X411590Y278948D01*
X411661Y278976D01*
X411733Y279000D01*
X411807Y279021D01*
X411881Y279038D01*
X411956Y279051D01*
X412032Y279060D01*
X412108Y279066D01*
X412184Y279068D01*
X412260Y279066D01*
X412336Y279060D01*
X412412Y279051D01*
X412487Y279038D01*
X412561Y279021D01*
X412635Y279000D01*
X412707Y278976D01*
X412778Y278948D01*
X412848Y278917D01*
X412916Y278883D01*
X412982Y278845D01*
X413046Y278803D01*
X413108Y278759D01*
X413168Y278712D01*
X413225Y278662D01*
X413280Y278609D01*
X413332Y278553D01*
X413381Y278495D01*
X413428Y278434D01*
X413471Y278371D01*
X413511Y278306D01*
X413548Y278240D01*
X413581Y278171D01*
X413611Y278101D01*
X413638Y278029D01*
X413638Y278030D02*
X413704Y277889D01*
X413767Y277747D01*
X413826Y277604D01*
X413882Y277459D01*
X413933Y277312D01*
X413981Y277165D01*
X414026Y277016D01*
X414066Y276866D01*
X414103Y276715D01*
X414136Y276564D01*
X414165Y276411D01*
X414191Y276258D01*
X414212Y276104D01*
X414230Y275950D01*
X414243Y275795D01*
X414253Y275640D01*
X414259Y275485D01*
X414261Y275330D01*
X410107Y275330D02*
X410109Y275175D01*
X410115Y275020D01*
X410125Y274865D01*
X410138Y274710D01*
X410156Y274556D01*
X410177Y274402D01*
X410203Y274249D01*
X410232Y274096D01*
X410265Y273945D01*
X410302Y273794D01*
X410342Y273644D01*
X410387Y273495D01*
X410435Y273348D01*
X410486Y273201D01*
X410542Y273056D01*
X410601Y272913D01*
X410664Y272771D01*
X410730Y272630D01*
X410757Y272559D01*
X410787Y272489D01*
X410820Y272420D01*
X410857Y272354D01*
X410897Y272289D01*
X410940Y272226D01*
X410987Y272165D01*
X411036Y272107D01*
X411088Y272051D01*
X411143Y271998D01*
X411200Y271948D01*
X411260Y271901D01*
X411322Y271857D01*
X411386Y271815D01*
X411452Y271777D01*
X411520Y271743D01*
X411590Y271712D01*
X411661Y271684D01*
X411733Y271660D01*
X411807Y271639D01*
X411881Y271622D01*
X411956Y271609D01*
X412032Y271600D01*
X412108Y271594D01*
X412184Y271592D01*
X413638Y272630D02*
X413704Y272771D01*
X413767Y272913D01*
X413826Y273056D01*
X413882Y273201D01*
X413933Y273348D01*
X413981Y273495D01*
X414026Y273644D01*
X414066Y273794D01*
X414103Y273945D01*
X414136Y274096D01*
X414165Y274249D01*
X414191Y274402D01*
X414212Y274556D01*
X414230Y274710D01*
X414243Y274865D01*
X414253Y275020D01*
X414259Y275175D01*
X414261Y275330D01*
X413638Y272631D02*
X413611Y272559D01*
X413581Y272489D01*
X413548Y272420D01*
X413511Y272354D01*
X413471Y272289D01*
X413428Y272226D01*
X413381Y272165D01*
X413332Y272107D01*
X413280Y272051D01*
X413225Y271998D01*
X413168Y271948D01*
X413108Y271901D01*
X413046Y271857D01*
X412982Y271815D01*
X412916Y271777D01*
X412848Y271743D01*
X412778Y271712D01*
X412707Y271684D01*
X412635Y271660D01*
X412561Y271639D01*
X412487Y271622D01*
X412412Y271609D01*
X412336Y271600D01*
X412260Y271594D01*
X412184Y271592D01*
X410523Y273253D02*
X413845Y277407D01*
X340612Y279068D02*
X340612Y271592D01*
X343104Y274915D02*
X340612Y279068D01*
X343104Y274915D02*
X345596Y279068D01*
X345596Y271592D01*
X352222Y279068D02*
X352306Y279066D01*
X352390Y279060D01*
X352473Y279051D01*
X352556Y279038D01*
X352638Y279021D01*
X352719Y279001D01*
X352800Y278977D01*
X352879Y278949D01*
X352957Y278918D01*
X353033Y278883D01*
X353108Y278845D01*
X353181Y278803D01*
X353252Y278759D01*
X353321Y278711D01*
X353387Y278660D01*
X353452Y278606D01*
X353514Y278550D01*
X353573Y278491D01*
X353629Y278429D01*
X353683Y278364D01*
X353734Y278298D01*
X353782Y278229D01*
X353826Y278158D01*
X353868Y278085D01*
X353906Y278010D01*
X353941Y277934D01*
X353972Y277856D01*
X354000Y277777D01*
X354024Y277696D01*
X354044Y277615D01*
X354061Y277533D01*
X354074Y277450D01*
X354083Y277367D01*
X354089Y277283D01*
X354091Y277199D01*
X352222Y279068D02*
X352125Y279066D01*
X352027Y279060D01*
X351931Y279050D01*
X351834Y279036D01*
X351738Y279019D01*
X351643Y278997D01*
X351549Y278972D01*
X351456Y278943D01*
X351365Y278910D01*
X351274Y278873D01*
X351186Y278833D01*
X351099Y278789D01*
X351014Y278742D01*
X350930Y278691D01*
X350849Y278637D01*
X350771Y278580D01*
X350694Y278519D01*
X350620Y278456D01*
X350549Y278389D01*
X350481Y278320D01*
X350415Y278248D01*
X350352Y278174D01*
X350293Y278097D01*
X350237Y278017D01*
X350183Y277935D01*
X350134Y277852D01*
X350087Y277766D01*
X350045Y277679D01*
X350005Y277589D01*
X349970Y277499D01*
X349938Y277407D01*
X353468Y275745D02*
X353529Y275805D01*
X353587Y275868D01*
X353642Y275933D01*
X353694Y276001D01*
X353744Y276071D01*
X353791Y276143D01*
X353834Y276216D01*
X353874Y276292D01*
X353911Y276369D01*
X353945Y276448D01*
X353975Y276528D01*
X354002Y276609D01*
X354026Y276691D01*
X354046Y276774D01*
X354062Y276858D01*
X354075Y276943D01*
X354084Y277028D01*
X354089Y277113D01*
X354091Y277199D01*
X353468Y275745D02*
X349937Y271592D01*
X354091Y271592D01*
X360322Y279068D02*
X360406Y279066D01*
X360490Y279060D01*
X360573Y279051D01*
X360656Y279038D01*
X360738Y279021D01*
X360819Y279001D01*
X360900Y278977D01*
X360979Y278949D01*
X361057Y278918D01*
X361133Y278883D01*
X361208Y278845D01*
X361281Y278803D01*
X361352Y278759D01*
X361421Y278711D01*
X361487Y278660D01*
X361552Y278606D01*
X361614Y278550D01*
X361673Y278491D01*
X361729Y278429D01*
X361783Y278364D01*
X361834Y278298D01*
X361882Y278229D01*
X361926Y278158D01*
X361968Y278085D01*
X362006Y278010D01*
X362041Y277934D01*
X362072Y277856D01*
X362100Y277777D01*
X362124Y277696D01*
X362144Y277615D01*
X362161Y277533D01*
X362174Y277450D01*
X362183Y277367D01*
X362189Y277283D01*
X362191Y277199D01*
X360322Y279068D02*
X360225Y279066D01*
X360127Y279060D01*
X360031Y279050D01*
X359934Y279036D01*
X359838Y279019D01*
X359743Y278997D01*
X359649Y278972D01*
X359556Y278943D01*
X359465Y278910D01*
X359374Y278873D01*
X359286Y278833D01*
X359199Y278789D01*
X359114Y278742D01*
X359030Y278691D01*
X358949Y278637D01*
X358871Y278580D01*
X358794Y278519D01*
X358720Y278456D01*
X358649Y278389D01*
X358581Y278320D01*
X358515Y278248D01*
X358452Y278174D01*
X358393Y278097D01*
X358337Y278017D01*
X358283Y277935D01*
X358234Y277852D01*
X358187Y277766D01*
X358145Y277679D01*
X358105Y277589D01*
X358070Y277499D01*
X358038Y277407D01*
X361568Y275745D02*
X361629Y275805D01*
X361687Y275868D01*
X361742Y275933D01*
X361794Y276001D01*
X361844Y276071D01*
X361891Y276143D01*
X361934Y276216D01*
X361974Y276292D01*
X362011Y276369D01*
X362045Y276448D01*
X362075Y276528D01*
X362102Y276609D01*
X362126Y276691D01*
X362146Y276774D01*
X362162Y276858D01*
X362175Y276943D01*
X362184Y277028D01*
X362189Y277113D01*
X362191Y277199D01*
X361568Y275745D02*
X358037Y271592D01*
X362191Y271592D01*
D11*
X377190Y274320D02*
X386080Y274320D01*
D12*
X272250Y152800D02*
X242250Y152800D01*
X272250Y152800D02*
X272250Y202800D01*
X242250Y202800D01*
X202250Y152800D02*
X182250Y152800D01*
X172250Y162800D01*
X172250Y192800D01*
X182250Y202800D01*
X202250Y202800D01*
D13*
X156922Y172720D02*
X154664Y172720D01*
X154571Y172722D01*
X154478Y172728D01*
X154385Y172737D01*
X154292Y172751D01*
X154201Y172768D01*
X154110Y172789D01*
X154020Y172814D01*
X153931Y172842D01*
X153843Y172874D01*
X153757Y172910D01*
X153672Y172949D01*
X153589Y172992D01*
X153508Y173038D01*
X153429Y173088D01*
X153352Y173140D01*
X153277Y173196D01*
X153205Y173255D01*
X153135Y173317D01*
X153067Y173381D01*
X153003Y173449D01*
X152941Y173519D01*
X152882Y173591D01*
X152826Y173666D01*
X152774Y173743D01*
X152724Y173822D01*
X152678Y173903D01*
X152635Y173986D01*
X152596Y174071D01*
X152560Y174157D01*
X152528Y174245D01*
X152500Y174334D01*
X152475Y174424D01*
X152454Y174515D01*
X152437Y174606D01*
X152423Y174699D01*
X152414Y174792D01*
X152408Y174885D01*
X152406Y174978D01*
X152406Y180622D01*
X152408Y180715D01*
X152414Y180808D01*
X152423Y180901D01*
X152437Y180994D01*
X152454Y181085D01*
X152475Y181176D01*
X152500Y181266D01*
X152528Y181355D01*
X152560Y181443D01*
X152596Y181529D01*
X152635Y181614D01*
X152678Y181697D01*
X152724Y181778D01*
X152774Y181857D01*
X152826Y181934D01*
X152882Y182009D01*
X152941Y182081D01*
X153003Y182151D01*
X153067Y182219D01*
X153135Y182283D01*
X153205Y182345D01*
X153277Y182404D01*
X153352Y182460D01*
X153429Y182512D01*
X153508Y182562D01*
X153589Y182608D01*
X153672Y182651D01*
X153757Y182690D01*
X153843Y182726D01*
X153931Y182758D01*
X154020Y182786D01*
X154110Y182811D01*
X154201Y182832D01*
X154292Y182849D01*
X154385Y182863D01*
X154478Y182872D01*
X154571Y182878D01*
X154664Y182880D01*
X156922Y182880D01*
X161989Y180622D02*
X164812Y182880D01*
X164812Y172720D01*
X167634Y172720D02*
X161989Y172720D01*
X148032Y207010D02*
X145774Y207010D01*
X145681Y207012D01*
X145588Y207018D01*
X145495Y207027D01*
X145402Y207041D01*
X145311Y207058D01*
X145220Y207079D01*
X145130Y207104D01*
X145041Y207132D01*
X144953Y207164D01*
X144867Y207200D01*
X144782Y207239D01*
X144699Y207282D01*
X144618Y207328D01*
X144539Y207378D01*
X144462Y207430D01*
X144387Y207486D01*
X144315Y207545D01*
X144245Y207607D01*
X144177Y207671D01*
X144113Y207739D01*
X144051Y207809D01*
X143992Y207881D01*
X143936Y207956D01*
X143884Y208033D01*
X143834Y208112D01*
X143788Y208193D01*
X143745Y208276D01*
X143706Y208361D01*
X143670Y208447D01*
X143638Y208535D01*
X143610Y208624D01*
X143585Y208714D01*
X143564Y208805D01*
X143547Y208896D01*
X143533Y208989D01*
X143524Y209082D01*
X143518Y209175D01*
X143516Y209268D01*
X143516Y214912D01*
X143518Y215005D01*
X143524Y215098D01*
X143533Y215191D01*
X143547Y215284D01*
X143564Y215375D01*
X143585Y215466D01*
X143610Y215556D01*
X143638Y215645D01*
X143670Y215733D01*
X143706Y215819D01*
X143745Y215904D01*
X143788Y215987D01*
X143834Y216068D01*
X143884Y216147D01*
X143936Y216224D01*
X143992Y216299D01*
X144051Y216371D01*
X144113Y216441D01*
X144177Y216509D01*
X144245Y216573D01*
X144315Y216635D01*
X144387Y216694D01*
X144462Y216750D01*
X144539Y216802D01*
X144618Y216852D01*
X144699Y216898D01*
X144782Y216941D01*
X144867Y216980D01*
X144953Y217016D01*
X145041Y217048D01*
X145130Y217076D01*
X145220Y217101D01*
X145311Y217122D01*
X145402Y217139D01*
X145495Y217153D01*
X145588Y217162D01*
X145681Y217168D01*
X145774Y217170D01*
X148032Y217170D01*
X156204Y217170D02*
X156304Y217168D01*
X156403Y217162D01*
X156503Y217152D01*
X156601Y217139D01*
X156700Y217121D01*
X156797Y217100D01*
X156893Y217075D01*
X156989Y217046D01*
X157083Y217013D01*
X157176Y216977D01*
X157267Y216937D01*
X157357Y216893D01*
X157445Y216846D01*
X157531Y216796D01*
X157615Y216742D01*
X157697Y216685D01*
X157776Y216625D01*
X157854Y216561D01*
X157928Y216495D01*
X158000Y216426D01*
X158069Y216354D01*
X158135Y216280D01*
X158199Y216202D01*
X158259Y216123D01*
X158316Y216041D01*
X158370Y215957D01*
X158420Y215871D01*
X158467Y215783D01*
X158511Y215693D01*
X158551Y215602D01*
X158587Y215509D01*
X158620Y215415D01*
X158649Y215319D01*
X158674Y215223D01*
X158695Y215126D01*
X158713Y215027D01*
X158726Y214929D01*
X158736Y214829D01*
X158742Y214730D01*
X158744Y214630D01*
X156204Y217170D02*
X156093Y217168D01*
X155982Y217162D01*
X155872Y217153D01*
X155762Y217140D01*
X155652Y217123D01*
X155543Y217102D01*
X155435Y217078D01*
X155328Y217050D01*
X155221Y217019D01*
X155116Y216983D01*
X155012Y216945D01*
X154910Y216902D01*
X154809Y216857D01*
X154709Y216807D01*
X154612Y216755D01*
X154516Y216699D01*
X154422Y216640D01*
X154330Y216578D01*
X154240Y216513D01*
X154153Y216445D01*
X154068Y216373D01*
X153985Y216299D01*
X153905Y216223D01*
X153828Y216143D01*
X153753Y216061D01*
X153681Y215977D01*
X153612Y215890D01*
X153547Y215801D01*
X153484Y215709D01*
X153424Y215616D01*
X153368Y215520D01*
X153314Y215423D01*
X153265Y215324D01*
X153218Y215223D01*
X153175Y215121D01*
X153136Y215017D01*
X153100Y214912D01*
X157897Y212655D02*
X157969Y212725D01*
X158038Y212798D01*
X158104Y212874D01*
X158167Y212952D01*
X158227Y213032D01*
X158284Y213115D01*
X158339Y213199D01*
X158390Y213286D01*
X158438Y213374D01*
X158482Y213464D01*
X158523Y213555D01*
X158561Y213648D01*
X158596Y213743D01*
X158627Y213838D01*
X158654Y213935D01*
X158678Y214032D01*
X158698Y214131D01*
X158714Y214230D01*
X158727Y214329D01*
X158737Y214429D01*
X158742Y214530D01*
X158744Y214630D01*
X157897Y212654D02*
X153099Y207010D01*
X158744Y207010D01*
D14*
X707390Y359410D02*
X707390Y29210D01*
X313690Y29210D01*
X313690Y359410D01*
X707390Y359410D01*
D12*
X206060Y275190D02*
X176060Y275190D01*
X176060Y225190D01*
X206060Y225190D01*
X246060Y275190D02*
X266060Y275190D01*
X276060Y265190D01*
X276060Y235190D01*
X266060Y225190D01*
X246060Y225190D01*
D13*
X159462Y246380D02*
X157204Y246380D01*
X157111Y246382D01*
X157018Y246388D01*
X156925Y246397D01*
X156832Y246411D01*
X156741Y246428D01*
X156650Y246449D01*
X156560Y246474D01*
X156471Y246502D01*
X156383Y246534D01*
X156297Y246570D01*
X156212Y246609D01*
X156129Y246652D01*
X156048Y246698D01*
X155969Y246748D01*
X155892Y246800D01*
X155817Y246856D01*
X155745Y246915D01*
X155675Y246977D01*
X155607Y247041D01*
X155543Y247109D01*
X155481Y247179D01*
X155422Y247251D01*
X155366Y247326D01*
X155314Y247403D01*
X155264Y247482D01*
X155218Y247563D01*
X155175Y247646D01*
X155136Y247731D01*
X155100Y247817D01*
X155068Y247905D01*
X155040Y247994D01*
X155015Y248084D01*
X154994Y248175D01*
X154977Y248266D01*
X154963Y248359D01*
X154954Y248452D01*
X154948Y248545D01*
X154946Y248638D01*
X154946Y254282D01*
X154948Y254375D01*
X154954Y254468D01*
X154963Y254561D01*
X154977Y254654D01*
X154994Y254745D01*
X155015Y254836D01*
X155040Y254926D01*
X155068Y255015D01*
X155100Y255103D01*
X155136Y255189D01*
X155175Y255274D01*
X155218Y255357D01*
X155264Y255438D01*
X155314Y255517D01*
X155366Y255594D01*
X155422Y255669D01*
X155481Y255741D01*
X155543Y255811D01*
X155607Y255879D01*
X155675Y255943D01*
X155745Y256005D01*
X155817Y256064D01*
X155892Y256120D01*
X155969Y256172D01*
X156048Y256222D01*
X156129Y256268D01*
X156212Y256311D01*
X156297Y256350D01*
X156383Y256386D01*
X156471Y256418D01*
X156560Y256446D01*
X156650Y256471D01*
X156741Y256492D01*
X156832Y256509D01*
X156925Y256523D01*
X157018Y256532D01*
X157111Y256538D01*
X157204Y256540D01*
X159462Y256540D01*
X164529Y246380D02*
X167352Y246380D01*
X167458Y246382D01*
X167563Y246388D01*
X167668Y246398D01*
X167773Y246412D01*
X167877Y246429D01*
X167980Y246451D01*
X168082Y246476D01*
X168184Y246505D01*
X168284Y246538D01*
X168383Y246575D01*
X168480Y246615D01*
X168576Y246659D01*
X168671Y246707D01*
X168763Y246758D01*
X168853Y246813D01*
X168942Y246870D01*
X169028Y246931D01*
X169111Y246996D01*
X169193Y247063D01*
X169271Y247133D01*
X169347Y247207D01*
X169421Y247283D01*
X169491Y247361D01*
X169558Y247443D01*
X169623Y247526D01*
X169684Y247612D01*
X169741Y247701D01*
X169796Y247791D01*
X169847Y247883D01*
X169895Y247978D01*
X169939Y248074D01*
X169979Y248171D01*
X170016Y248270D01*
X170049Y248370D01*
X170078Y248472D01*
X170103Y248574D01*
X170125Y248677D01*
X170142Y248781D01*
X170156Y248886D01*
X170166Y248991D01*
X170172Y249096D01*
X170174Y249202D01*
X170172Y249308D01*
X170166Y249413D01*
X170156Y249518D01*
X170142Y249623D01*
X170125Y249727D01*
X170103Y249830D01*
X170078Y249932D01*
X170049Y250034D01*
X170016Y250134D01*
X169979Y250233D01*
X169939Y250330D01*
X169895Y250426D01*
X169847Y250521D01*
X169796Y250613D01*
X169741Y250703D01*
X169684Y250792D01*
X169623Y250878D01*
X169558Y250961D01*
X169491Y251043D01*
X169421Y251121D01*
X169347Y251197D01*
X169271Y251271D01*
X169193Y251341D01*
X169111Y251408D01*
X169028Y251473D01*
X168942Y251534D01*
X168853Y251591D01*
X168763Y251646D01*
X168671Y251697D01*
X168576Y251745D01*
X168480Y251789D01*
X168383Y251829D01*
X168284Y251866D01*
X168184Y251899D01*
X168082Y251928D01*
X167980Y251953D01*
X167877Y251975D01*
X167773Y251992D01*
X167668Y252006D01*
X167563Y252016D01*
X167458Y252022D01*
X167352Y252024D01*
X167916Y256540D02*
X164529Y256540D01*
X167916Y256540D02*
X168009Y256538D01*
X168102Y256532D01*
X168195Y256523D01*
X168288Y256509D01*
X168379Y256492D01*
X168470Y256471D01*
X168560Y256446D01*
X168649Y256418D01*
X168737Y256386D01*
X168823Y256350D01*
X168908Y256311D01*
X168991Y256268D01*
X169072Y256222D01*
X169151Y256172D01*
X169228Y256120D01*
X169303Y256064D01*
X169375Y256005D01*
X169445Y255943D01*
X169513Y255879D01*
X169577Y255811D01*
X169639Y255741D01*
X169698Y255669D01*
X169754Y255594D01*
X169806Y255517D01*
X169856Y255438D01*
X169902Y255357D01*
X169945Y255274D01*
X169984Y255189D01*
X170020Y255103D01*
X170052Y255015D01*
X170080Y254926D01*
X170105Y254836D01*
X170126Y254745D01*
X170143Y254654D01*
X170157Y254561D01*
X170166Y254468D01*
X170172Y254375D01*
X170174Y254282D01*
X170172Y254189D01*
X170166Y254096D01*
X170157Y254003D01*
X170143Y253910D01*
X170126Y253819D01*
X170105Y253728D01*
X170080Y253638D01*
X170052Y253549D01*
X170020Y253461D01*
X169984Y253375D01*
X169945Y253290D01*
X169902Y253207D01*
X169856Y253126D01*
X169806Y253047D01*
X169754Y252970D01*
X169698Y252895D01*
X169639Y252823D01*
X169577Y252753D01*
X169513Y252685D01*
X169445Y252621D01*
X169375Y252559D01*
X169303Y252500D01*
X169228Y252444D01*
X169151Y252392D01*
X169072Y252342D01*
X168991Y252296D01*
X168908Y252253D01*
X168823Y252214D01*
X168737Y252178D01*
X168649Y252146D01*
X168560Y252118D01*
X168470Y252093D01*
X168379Y252072D01*
X168288Y252055D01*
X168195Y252041D01*
X168102Y252032D01*
X168009Y252026D01*
X167916Y252024D01*
X165658Y252024D01*
X213084Y208280D02*
X215342Y208280D01*
X213084Y208280D02*
X212991Y208282D01*
X212898Y208288D01*
X212805Y208297D01*
X212712Y208311D01*
X212621Y208328D01*
X212530Y208349D01*
X212440Y208374D01*
X212351Y208402D01*
X212263Y208434D01*
X212177Y208470D01*
X212092Y208509D01*
X212009Y208552D01*
X211928Y208598D01*
X211849Y208648D01*
X211772Y208700D01*
X211697Y208756D01*
X211625Y208815D01*
X211555Y208877D01*
X211487Y208941D01*
X211423Y209009D01*
X211361Y209079D01*
X211302Y209151D01*
X211246Y209226D01*
X211194Y209303D01*
X211144Y209382D01*
X211098Y209463D01*
X211055Y209546D01*
X211016Y209631D01*
X210980Y209717D01*
X210948Y209805D01*
X210920Y209894D01*
X210895Y209984D01*
X210874Y210075D01*
X210857Y210166D01*
X210843Y210259D01*
X210834Y210352D01*
X210828Y210445D01*
X210826Y210538D01*
X210826Y216182D01*
X210828Y216275D01*
X210834Y216368D01*
X210843Y216461D01*
X210857Y216554D01*
X210874Y216645D01*
X210895Y216736D01*
X210920Y216826D01*
X210948Y216915D01*
X210980Y217003D01*
X211016Y217089D01*
X211055Y217174D01*
X211098Y217257D01*
X211144Y217338D01*
X211194Y217417D01*
X211246Y217494D01*
X211302Y217569D01*
X211361Y217641D01*
X211423Y217711D01*
X211487Y217779D01*
X211555Y217843D01*
X211625Y217905D01*
X211697Y217964D01*
X211772Y218020D01*
X211849Y218072D01*
X211928Y218122D01*
X212009Y218168D01*
X212092Y218211D01*
X212177Y218250D01*
X212263Y218286D01*
X212351Y218318D01*
X212440Y218346D01*
X212530Y218371D01*
X212621Y218392D01*
X212712Y218409D01*
X212805Y218423D01*
X212898Y218432D01*
X212991Y218438D01*
X213084Y218440D01*
X215342Y218440D01*
X222667Y218440D02*
X220409Y210538D01*
X226054Y210538D01*
X224360Y212796D02*
X224360Y208280D01*
D10*
X168910Y114300D02*
X140970Y114300D01*
X168910Y134620D02*
X169010Y134618D01*
X169109Y134612D01*
X169209Y134602D01*
X169307Y134589D01*
X169406Y134571D01*
X169503Y134550D01*
X169599Y134525D01*
X169695Y134496D01*
X169789Y134463D01*
X169882Y134427D01*
X169973Y134387D01*
X170063Y134343D01*
X170151Y134296D01*
X170237Y134246D01*
X170321Y134192D01*
X170403Y134135D01*
X170482Y134075D01*
X170560Y134011D01*
X170634Y133945D01*
X170706Y133876D01*
X170775Y133804D01*
X170841Y133730D01*
X170905Y133652D01*
X170965Y133573D01*
X171022Y133491D01*
X171076Y133407D01*
X171126Y133321D01*
X171173Y133233D01*
X171217Y133143D01*
X171257Y133052D01*
X171293Y132959D01*
X171326Y132865D01*
X171355Y132769D01*
X171380Y132673D01*
X171401Y132576D01*
X171419Y132477D01*
X171432Y132379D01*
X171442Y132279D01*
X171448Y132180D01*
X171450Y132080D01*
X140970Y134620D02*
X140870Y134618D01*
X140771Y134612D01*
X140671Y134602D01*
X140573Y134589D01*
X140474Y134571D01*
X140377Y134550D01*
X140281Y134525D01*
X140185Y134496D01*
X140091Y134463D01*
X139998Y134427D01*
X139907Y134387D01*
X139817Y134343D01*
X139729Y134296D01*
X139643Y134246D01*
X139559Y134192D01*
X139477Y134135D01*
X139398Y134075D01*
X139320Y134011D01*
X139246Y133945D01*
X139174Y133876D01*
X139105Y133804D01*
X139039Y133730D01*
X138975Y133652D01*
X138915Y133573D01*
X138858Y133491D01*
X138804Y133407D01*
X138754Y133321D01*
X138707Y133233D01*
X138663Y133143D01*
X138623Y133052D01*
X138587Y132959D01*
X138554Y132865D01*
X138525Y132769D01*
X138500Y132673D01*
X138479Y132576D01*
X138461Y132477D01*
X138448Y132379D01*
X138438Y132279D01*
X138432Y132180D01*
X138430Y132080D01*
X138430Y116840D02*
X138432Y116740D01*
X138438Y116641D01*
X138448Y116541D01*
X138461Y116443D01*
X138479Y116344D01*
X138500Y116247D01*
X138525Y116151D01*
X138554Y116055D01*
X138587Y115961D01*
X138623Y115868D01*
X138663Y115777D01*
X138707Y115687D01*
X138754Y115599D01*
X138804Y115513D01*
X138858Y115429D01*
X138915Y115347D01*
X138975Y115268D01*
X139039Y115190D01*
X139105Y115116D01*
X139174Y115044D01*
X139246Y114975D01*
X139320Y114909D01*
X139398Y114845D01*
X139477Y114785D01*
X139559Y114728D01*
X139643Y114674D01*
X139729Y114624D01*
X139817Y114577D01*
X139907Y114533D01*
X139998Y114493D01*
X140091Y114457D01*
X140185Y114424D01*
X140281Y114395D01*
X140377Y114370D01*
X140474Y114349D01*
X140573Y114331D01*
X140671Y114318D01*
X140771Y114308D01*
X140870Y114302D01*
X140970Y114300D01*
X168910Y114300D02*
X169010Y114302D01*
X169109Y114308D01*
X169209Y114318D01*
X169307Y114331D01*
X169406Y114349D01*
X169503Y114370D01*
X169599Y114395D01*
X169695Y114424D01*
X169789Y114457D01*
X169882Y114493D01*
X169973Y114533D01*
X170063Y114577D01*
X170151Y114624D01*
X170237Y114674D01*
X170321Y114728D01*
X170403Y114785D01*
X170482Y114845D01*
X170560Y114909D01*
X170634Y114975D01*
X170706Y115044D01*
X170775Y115116D01*
X170841Y115190D01*
X170905Y115268D01*
X170965Y115347D01*
X171022Y115429D01*
X171076Y115513D01*
X171126Y115599D01*
X171173Y115687D01*
X171217Y115777D01*
X171257Y115868D01*
X171293Y115961D01*
X171326Y116055D01*
X171355Y116151D01*
X171380Y116247D01*
X171401Y116344D01*
X171419Y116443D01*
X171432Y116541D01*
X171442Y116641D01*
X171448Y116740D01*
X171450Y116840D01*
X171450Y132080D01*
X138430Y132080D02*
X138430Y116840D01*
X140970Y134620D02*
X168910Y134620D01*
D14*
X156210Y149225D02*
X153035Y146685D01*
X156210Y149225D02*
X156210Y137795D01*
X153035Y137795D02*
X159385Y137795D01*
D10*
X257810Y114300D02*
X285750Y114300D01*
X288290Y132080D02*
X288288Y132180D01*
X288282Y132279D01*
X288272Y132379D01*
X288259Y132477D01*
X288241Y132576D01*
X288220Y132673D01*
X288195Y132769D01*
X288166Y132865D01*
X288133Y132959D01*
X288097Y133052D01*
X288057Y133143D01*
X288013Y133233D01*
X287966Y133321D01*
X287916Y133407D01*
X287862Y133491D01*
X287805Y133573D01*
X287745Y133652D01*
X287681Y133730D01*
X287615Y133804D01*
X287546Y133876D01*
X287474Y133945D01*
X287400Y134011D01*
X287322Y134075D01*
X287243Y134135D01*
X287161Y134192D01*
X287077Y134246D01*
X286991Y134296D01*
X286903Y134343D01*
X286813Y134387D01*
X286722Y134427D01*
X286629Y134463D01*
X286535Y134496D01*
X286439Y134525D01*
X286343Y134550D01*
X286246Y134571D01*
X286147Y134589D01*
X286049Y134602D01*
X285949Y134612D01*
X285850Y134618D01*
X285750Y134620D01*
X257810Y134620D02*
X257710Y134618D01*
X257611Y134612D01*
X257511Y134602D01*
X257413Y134589D01*
X257314Y134571D01*
X257217Y134550D01*
X257121Y134525D01*
X257025Y134496D01*
X256931Y134463D01*
X256838Y134427D01*
X256747Y134387D01*
X256657Y134343D01*
X256569Y134296D01*
X256483Y134246D01*
X256399Y134192D01*
X256317Y134135D01*
X256238Y134075D01*
X256160Y134011D01*
X256086Y133945D01*
X256014Y133876D01*
X255945Y133804D01*
X255879Y133730D01*
X255815Y133652D01*
X255755Y133573D01*
X255698Y133491D01*
X255644Y133407D01*
X255594Y133321D01*
X255547Y133233D01*
X255503Y133143D01*
X255463Y133052D01*
X255427Y132959D01*
X255394Y132865D01*
X255365Y132769D01*
X255340Y132673D01*
X255319Y132576D01*
X255301Y132477D01*
X255288Y132379D01*
X255278Y132279D01*
X255272Y132180D01*
X255270Y132080D01*
X255270Y116840D02*
X255272Y116740D01*
X255278Y116641D01*
X255288Y116541D01*
X255301Y116443D01*
X255319Y116344D01*
X255340Y116247D01*
X255365Y116151D01*
X255394Y116055D01*
X255427Y115961D01*
X255463Y115868D01*
X255503Y115777D01*
X255547Y115687D01*
X255594Y115599D01*
X255644Y115513D01*
X255698Y115429D01*
X255755Y115347D01*
X255815Y115268D01*
X255879Y115190D01*
X255945Y115116D01*
X256014Y115044D01*
X256086Y114975D01*
X256160Y114909D01*
X256238Y114845D01*
X256317Y114785D01*
X256399Y114728D01*
X256483Y114674D01*
X256569Y114624D01*
X256657Y114577D01*
X256747Y114533D01*
X256838Y114493D01*
X256931Y114457D01*
X257025Y114424D01*
X257121Y114395D01*
X257217Y114370D01*
X257314Y114349D01*
X257413Y114331D01*
X257511Y114318D01*
X257611Y114308D01*
X257710Y114302D01*
X257810Y114300D01*
X285750Y114300D02*
X285850Y114302D01*
X285949Y114308D01*
X286049Y114318D01*
X286147Y114331D01*
X286246Y114349D01*
X286343Y114370D01*
X286439Y114395D01*
X286535Y114424D01*
X286629Y114457D01*
X286722Y114493D01*
X286813Y114533D01*
X286903Y114577D01*
X286991Y114624D01*
X287077Y114674D01*
X287161Y114728D01*
X287243Y114785D01*
X287322Y114845D01*
X287400Y114909D01*
X287474Y114975D01*
X287546Y115044D01*
X287615Y115116D01*
X287681Y115190D01*
X287745Y115268D01*
X287805Y115347D01*
X287862Y115429D01*
X287916Y115513D01*
X287966Y115599D01*
X288013Y115687D01*
X288057Y115777D01*
X288097Y115868D01*
X288133Y115961D01*
X288166Y116055D01*
X288195Y116151D01*
X288220Y116247D01*
X288241Y116344D01*
X288259Y116443D01*
X288272Y116541D01*
X288282Y116641D01*
X288288Y116740D01*
X288290Y116840D01*
X288290Y132080D01*
X255270Y132080D02*
X255270Y116840D01*
X257810Y134620D02*
X285750Y134620D01*
D14*
X274956Y146368D02*
X274954Y146472D01*
X274948Y146577D01*
X274939Y146681D01*
X274926Y146784D01*
X274908Y146887D01*
X274888Y146989D01*
X274863Y147091D01*
X274835Y147191D01*
X274803Y147291D01*
X274767Y147389D01*
X274728Y147486D01*
X274686Y147581D01*
X274640Y147675D01*
X274590Y147767D01*
X274538Y147857D01*
X274482Y147945D01*
X274422Y148031D01*
X274360Y148115D01*
X274295Y148196D01*
X274227Y148275D01*
X274155Y148352D01*
X274082Y148425D01*
X274005Y148497D01*
X273926Y148565D01*
X273845Y148630D01*
X273761Y148692D01*
X273675Y148752D01*
X273587Y148808D01*
X273497Y148860D01*
X273405Y148910D01*
X273311Y148956D01*
X273216Y148998D01*
X273119Y149037D01*
X273021Y149073D01*
X272921Y149105D01*
X272821Y149133D01*
X272719Y149158D01*
X272617Y149178D01*
X272514Y149196D01*
X272411Y149209D01*
X272307Y149218D01*
X272202Y149224D01*
X272098Y149226D01*
X272098Y149225D02*
X271980Y149223D01*
X271861Y149217D01*
X271743Y149208D01*
X271626Y149195D01*
X271509Y149177D01*
X271392Y149157D01*
X271276Y149132D01*
X271161Y149104D01*
X271048Y149071D01*
X270935Y149036D01*
X270823Y148996D01*
X270713Y148954D01*
X270604Y148907D01*
X270496Y148857D01*
X270391Y148804D01*
X270287Y148747D01*
X270185Y148687D01*
X270085Y148624D01*
X269987Y148557D01*
X269891Y148488D01*
X269798Y148415D01*
X269707Y148339D01*
X269618Y148261D01*
X269532Y148179D01*
X269449Y148095D01*
X269368Y148009D01*
X269291Y147919D01*
X269216Y147828D01*
X269144Y147734D01*
X269075Y147637D01*
X269010Y147539D01*
X268947Y147438D01*
X268888Y147335D01*
X268832Y147231D01*
X268780Y147125D01*
X268731Y147017D01*
X268686Y146908D01*
X268644Y146797D01*
X268606Y146685D01*
X274003Y144146D02*
X274079Y144221D01*
X274154Y144300D01*
X274225Y144381D01*
X274294Y144465D01*
X274359Y144551D01*
X274421Y144639D01*
X274481Y144729D01*
X274537Y144821D01*
X274590Y144916D01*
X274639Y145012D01*
X274685Y145110D01*
X274728Y145209D01*
X274767Y145310D01*
X274802Y145412D01*
X274834Y145515D01*
X274862Y145619D01*
X274887Y145724D01*
X274908Y145831D01*
X274925Y145937D01*
X274938Y146044D01*
X274947Y146152D01*
X274953Y146260D01*
X274955Y146368D01*
X274003Y144145D02*
X268605Y137795D01*
X274955Y137795D01*
D10*
X250190Y114300D02*
X222250Y114300D01*
X250190Y134620D02*
X250290Y134618D01*
X250389Y134612D01*
X250489Y134602D01*
X250587Y134589D01*
X250686Y134571D01*
X250783Y134550D01*
X250879Y134525D01*
X250975Y134496D01*
X251069Y134463D01*
X251162Y134427D01*
X251253Y134387D01*
X251343Y134343D01*
X251431Y134296D01*
X251517Y134246D01*
X251601Y134192D01*
X251683Y134135D01*
X251762Y134075D01*
X251840Y134011D01*
X251914Y133945D01*
X251986Y133876D01*
X252055Y133804D01*
X252121Y133730D01*
X252185Y133652D01*
X252245Y133573D01*
X252302Y133491D01*
X252356Y133407D01*
X252406Y133321D01*
X252453Y133233D01*
X252497Y133143D01*
X252537Y133052D01*
X252573Y132959D01*
X252606Y132865D01*
X252635Y132769D01*
X252660Y132673D01*
X252681Y132576D01*
X252699Y132477D01*
X252712Y132379D01*
X252722Y132279D01*
X252728Y132180D01*
X252730Y132080D01*
X222250Y134620D02*
X222150Y134618D01*
X222051Y134612D01*
X221951Y134602D01*
X221853Y134589D01*
X221754Y134571D01*
X221657Y134550D01*
X221561Y134525D01*
X221465Y134496D01*
X221371Y134463D01*
X221278Y134427D01*
X221187Y134387D01*
X221097Y134343D01*
X221009Y134296D01*
X220923Y134246D01*
X220839Y134192D01*
X220757Y134135D01*
X220678Y134075D01*
X220600Y134011D01*
X220526Y133945D01*
X220454Y133876D01*
X220385Y133804D01*
X220319Y133730D01*
X220255Y133652D01*
X220195Y133573D01*
X220138Y133491D01*
X220084Y133407D01*
X220034Y133321D01*
X219987Y133233D01*
X219943Y133143D01*
X219903Y133052D01*
X219867Y132959D01*
X219834Y132865D01*
X219805Y132769D01*
X219780Y132673D01*
X219759Y132576D01*
X219741Y132477D01*
X219728Y132379D01*
X219718Y132279D01*
X219712Y132180D01*
X219710Y132080D01*
X219710Y116840D02*
X219712Y116740D01*
X219718Y116641D01*
X219728Y116541D01*
X219741Y116443D01*
X219759Y116344D01*
X219780Y116247D01*
X219805Y116151D01*
X219834Y116055D01*
X219867Y115961D01*
X219903Y115868D01*
X219943Y115777D01*
X219987Y115687D01*
X220034Y115599D01*
X220084Y115513D01*
X220138Y115429D01*
X220195Y115347D01*
X220255Y115268D01*
X220319Y115190D01*
X220385Y115116D01*
X220454Y115044D01*
X220526Y114975D01*
X220600Y114909D01*
X220678Y114845D01*
X220757Y114785D01*
X220839Y114728D01*
X220923Y114674D01*
X221009Y114624D01*
X221097Y114577D01*
X221187Y114533D01*
X221278Y114493D01*
X221371Y114457D01*
X221465Y114424D01*
X221561Y114395D01*
X221657Y114370D01*
X221754Y114349D01*
X221853Y114331D01*
X221951Y114318D01*
X222051Y114308D01*
X222150Y114302D01*
X222250Y114300D01*
X250190Y114300D02*
X250290Y114302D01*
X250389Y114308D01*
X250489Y114318D01*
X250587Y114331D01*
X250686Y114349D01*
X250783Y114370D01*
X250879Y114395D01*
X250975Y114424D01*
X251069Y114457D01*
X251162Y114493D01*
X251253Y114533D01*
X251343Y114577D01*
X251431Y114624D01*
X251517Y114674D01*
X251601Y114728D01*
X251683Y114785D01*
X251762Y114845D01*
X251840Y114909D01*
X251914Y114975D01*
X251986Y115044D01*
X252055Y115116D01*
X252121Y115190D01*
X252185Y115268D01*
X252245Y115347D01*
X252302Y115429D01*
X252356Y115513D01*
X252406Y115599D01*
X252453Y115687D01*
X252497Y115777D01*
X252537Y115868D01*
X252573Y115961D01*
X252606Y116055D01*
X252635Y116151D01*
X252660Y116247D01*
X252681Y116344D01*
X252699Y116443D01*
X252712Y116541D01*
X252722Y116641D01*
X252728Y116740D01*
X252730Y116840D01*
X252730Y132080D01*
X219710Y132080D02*
X219710Y116840D01*
X222250Y134620D02*
X250190Y134620D01*
D14*
X236220Y137795D02*
X233045Y137795D01*
X236220Y137795D02*
X236331Y137797D01*
X236441Y137803D01*
X236552Y137812D01*
X236662Y137826D01*
X236771Y137843D01*
X236880Y137864D01*
X236988Y137889D01*
X237095Y137918D01*
X237201Y137950D01*
X237306Y137986D01*
X237409Y138026D01*
X237511Y138069D01*
X237612Y138116D01*
X237711Y138167D01*
X237807Y138220D01*
X237902Y138277D01*
X237995Y138338D01*
X238086Y138401D01*
X238175Y138468D01*
X238261Y138538D01*
X238344Y138611D01*
X238426Y138686D01*
X238504Y138764D01*
X238579Y138846D01*
X238652Y138929D01*
X238722Y139015D01*
X238789Y139104D01*
X238852Y139195D01*
X238913Y139288D01*
X238970Y139382D01*
X239023Y139479D01*
X239074Y139578D01*
X239121Y139679D01*
X239164Y139781D01*
X239204Y139884D01*
X239240Y139989D01*
X239272Y140095D01*
X239301Y140202D01*
X239326Y140310D01*
X239347Y140419D01*
X239364Y140528D01*
X239378Y140638D01*
X239387Y140749D01*
X239393Y140859D01*
X239395Y140970D01*
X239393Y141081D01*
X239387Y141191D01*
X239378Y141302D01*
X239364Y141412D01*
X239347Y141521D01*
X239326Y141630D01*
X239301Y141738D01*
X239272Y141845D01*
X239240Y141951D01*
X239204Y142056D01*
X239164Y142159D01*
X239121Y142261D01*
X239074Y142362D01*
X239023Y142461D01*
X238970Y142557D01*
X238913Y142652D01*
X238852Y142745D01*
X238789Y142836D01*
X238722Y142925D01*
X238652Y143011D01*
X238579Y143094D01*
X238504Y143176D01*
X238426Y143254D01*
X238344Y143329D01*
X238261Y143402D01*
X238175Y143472D01*
X238086Y143539D01*
X237995Y143602D01*
X237902Y143663D01*
X237808Y143720D01*
X237711Y143773D01*
X237612Y143824D01*
X237511Y143871D01*
X237409Y143914D01*
X237306Y143954D01*
X237201Y143990D01*
X237095Y144022D01*
X236988Y144051D01*
X236880Y144076D01*
X236771Y144097D01*
X236662Y144114D01*
X236552Y144128D01*
X236441Y144137D01*
X236331Y144143D01*
X236220Y144145D01*
X236855Y149225D02*
X233045Y149225D01*
X236855Y149225D02*
X236955Y149223D01*
X237054Y149217D01*
X237154Y149207D01*
X237252Y149194D01*
X237351Y149176D01*
X237448Y149155D01*
X237544Y149130D01*
X237640Y149101D01*
X237734Y149068D01*
X237827Y149032D01*
X237918Y148992D01*
X238008Y148948D01*
X238096Y148901D01*
X238182Y148851D01*
X238266Y148797D01*
X238348Y148740D01*
X238427Y148680D01*
X238505Y148616D01*
X238579Y148550D01*
X238651Y148481D01*
X238720Y148409D01*
X238786Y148335D01*
X238850Y148257D01*
X238910Y148178D01*
X238967Y148096D01*
X239021Y148012D01*
X239071Y147926D01*
X239118Y147838D01*
X239162Y147748D01*
X239202Y147657D01*
X239238Y147564D01*
X239271Y147470D01*
X239300Y147374D01*
X239325Y147278D01*
X239346Y147181D01*
X239364Y147082D01*
X239377Y146984D01*
X239387Y146884D01*
X239393Y146785D01*
X239395Y146685D01*
X239393Y146585D01*
X239387Y146486D01*
X239377Y146386D01*
X239364Y146288D01*
X239346Y146189D01*
X239325Y146092D01*
X239300Y145996D01*
X239271Y145900D01*
X239238Y145806D01*
X239202Y145713D01*
X239162Y145622D01*
X239118Y145532D01*
X239071Y145444D01*
X239021Y145358D01*
X238967Y145274D01*
X238910Y145192D01*
X238850Y145113D01*
X238786Y145035D01*
X238720Y144961D01*
X238651Y144889D01*
X238579Y144820D01*
X238505Y144754D01*
X238427Y144690D01*
X238348Y144630D01*
X238266Y144573D01*
X238182Y144519D01*
X238096Y144469D01*
X238008Y144422D01*
X237918Y144378D01*
X237827Y144338D01*
X237734Y144302D01*
X237640Y144269D01*
X237544Y144240D01*
X237448Y144215D01*
X237351Y144194D01*
X237252Y144176D01*
X237154Y144163D01*
X237054Y144153D01*
X236955Y144147D01*
X236855Y144145D01*
X234315Y144145D01*
D10*
X204470Y114300D02*
X176530Y114300D01*
X204470Y134620D02*
X204570Y134618D01*
X204669Y134612D01*
X204769Y134602D01*
X204867Y134589D01*
X204966Y134571D01*
X205063Y134550D01*
X205159Y134525D01*
X205255Y134496D01*
X205349Y134463D01*
X205442Y134427D01*
X205533Y134387D01*
X205623Y134343D01*
X205711Y134296D01*
X205797Y134246D01*
X205881Y134192D01*
X205963Y134135D01*
X206042Y134075D01*
X206120Y134011D01*
X206194Y133945D01*
X206266Y133876D01*
X206335Y133804D01*
X206401Y133730D01*
X206465Y133652D01*
X206525Y133573D01*
X206582Y133491D01*
X206636Y133407D01*
X206686Y133321D01*
X206733Y133233D01*
X206777Y133143D01*
X206817Y133052D01*
X206853Y132959D01*
X206886Y132865D01*
X206915Y132769D01*
X206940Y132673D01*
X206961Y132576D01*
X206979Y132477D01*
X206992Y132379D01*
X207002Y132279D01*
X207008Y132180D01*
X207010Y132080D01*
X176530Y134620D02*
X176430Y134618D01*
X176331Y134612D01*
X176231Y134602D01*
X176133Y134589D01*
X176034Y134571D01*
X175937Y134550D01*
X175841Y134525D01*
X175745Y134496D01*
X175651Y134463D01*
X175558Y134427D01*
X175467Y134387D01*
X175377Y134343D01*
X175289Y134296D01*
X175203Y134246D01*
X175119Y134192D01*
X175037Y134135D01*
X174958Y134075D01*
X174880Y134011D01*
X174806Y133945D01*
X174734Y133876D01*
X174665Y133804D01*
X174599Y133730D01*
X174535Y133652D01*
X174475Y133573D01*
X174418Y133491D01*
X174364Y133407D01*
X174314Y133321D01*
X174267Y133233D01*
X174223Y133143D01*
X174183Y133052D01*
X174147Y132959D01*
X174114Y132865D01*
X174085Y132769D01*
X174060Y132673D01*
X174039Y132576D01*
X174021Y132477D01*
X174008Y132379D01*
X173998Y132279D01*
X173992Y132180D01*
X173990Y132080D01*
X173990Y116840D02*
X173992Y116740D01*
X173998Y116641D01*
X174008Y116541D01*
X174021Y116443D01*
X174039Y116344D01*
X174060Y116247D01*
X174085Y116151D01*
X174114Y116055D01*
X174147Y115961D01*
X174183Y115868D01*
X174223Y115777D01*
X174267Y115687D01*
X174314Y115599D01*
X174364Y115513D01*
X174418Y115429D01*
X174475Y115347D01*
X174535Y115268D01*
X174599Y115190D01*
X174665Y115116D01*
X174734Y115044D01*
X174806Y114975D01*
X174880Y114909D01*
X174958Y114845D01*
X175037Y114785D01*
X175119Y114728D01*
X175203Y114674D01*
X175289Y114624D01*
X175377Y114577D01*
X175467Y114533D01*
X175558Y114493D01*
X175651Y114457D01*
X175745Y114424D01*
X175841Y114395D01*
X175937Y114370D01*
X176034Y114349D01*
X176133Y114331D01*
X176231Y114318D01*
X176331Y114308D01*
X176430Y114302D01*
X176530Y114300D01*
X204470Y114300D02*
X204570Y114302D01*
X204669Y114308D01*
X204769Y114318D01*
X204867Y114331D01*
X204966Y114349D01*
X205063Y114370D01*
X205159Y114395D01*
X205255Y114424D01*
X205349Y114457D01*
X205442Y114493D01*
X205533Y114533D01*
X205623Y114577D01*
X205711Y114624D01*
X205797Y114674D01*
X205881Y114728D01*
X205963Y114785D01*
X206042Y114845D01*
X206120Y114909D01*
X206194Y114975D01*
X206266Y115044D01*
X206335Y115116D01*
X206401Y115190D01*
X206465Y115268D01*
X206525Y115347D01*
X206582Y115429D01*
X206636Y115513D01*
X206686Y115599D01*
X206733Y115687D01*
X206777Y115777D01*
X206817Y115868D01*
X206853Y115961D01*
X206886Y116055D01*
X206915Y116151D01*
X206940Y116247D01*
X206961Y116344D01*
X206979Y116443D01*
X206992Y116541D01*
X207002Y116641D01*
X207008Y116740D01*
X207010Y116840D01*
X207010Y132080D01*
X173990Y132080D02*
X173990Y116840D01*
X176530Y134620D02*
X204470Y134620D01*
D14*
X187325Y140335D02*
X189865Y149225D01*
X187325Y140335D02*
X193675Y140335D01*
X191770Y142875D02*
X191770Y137795D01*
X658490Y118510D02*
X658490Y265110D01*
X612690Y265110D01*
X612690Y118510D01*
X658490Y118510D01*
X633490Y306310D02*
X633493Y306555D01*
X633502Y306801D01*
X633517Y307046D01*
X633538Y307290D01*
X633565Y307534D01*
X633598Y307777D01*
X633637Y308020D01*
X633682Y308261D01*
X633733Y308501D01*
X633790Y308740D01*
X633852Y308977D01*
X633921Y309213D01*
X633995Y309447D01*
X634075Y309679D01*
X634160Y309909D01*
X634251Y310137D01*
X634348Y310362D01*
X634450Y310586D01*
X634558Y310806D01*
X634671Y311024D01*
X634789Y311239D01*
X634913Y311451D01*
X635041Y311660D01*
X635175Y311866D01*
X635314Y312068D01*
X635458Y312267D01*
X635607Y312462D01*
X635760Y312654D01*
X635918Y312842D01*
X636080Y313026D01*
X636248Y313205D01*
X636419Y313381D01*
X636595Y313552D01*
X636774Y313720D01*
X636958Y313882D01*
X637146Y314040D01*
X637338Y314193D01*
X637533Y314342D01*
X637732Y314486D01*
X637934Y314625D01*
X638140Y314759D01*
X638349Y314887D01*
X638561Y315011D01*
X638776Y315129D01*
X638994Y315242D01*
X639214Y315350D01*
X639438Y315452D01*
X639663Y315549D01*
X639891Y315640D01*
X640121Y315725D01*
X640353Y315805D01*
X640587Y315879D01*
X640823Y315948D01*
X641060Y316010D01*
X641299Y316067D01*
X641539Y316118D01*
X641780Y316163D01*
X642023Y316202D01*
X642266Y316235D01*
X642510Y316262D01*
X642754Y316283D01*
X642999Y316298D01*
X643245Y316307D01*
X643490Y316310D01*
X643735Y316307D01*
X643981Y316298D01*
X644226Y316283D01*
X644470Y316262D01*
X644714Y316235D01*
X644957Y316202D01*
X645200Y316163D01*
X645441Y316118D01*
X645681Y316067D01*
X645920Y316010D01*
X646157Y315948D01*
X646393Y315879D01*
X646627Y315805D01*
X646859Y315725D01*
X647089Y315640D01*
X647317Y315549D01*
X647542Y315452D01*
X647766Y315350D01*
X647986Y315242D01*
X648204Y315129D01*
X648419Y315011D01*
X648631Y314887D01*
X648840Y314759D01*
X649046Y314625D01*
X649248Y314486D01*
X649447Y314342D01*
X649642Y314193D01*
X649834Y314040D01*
X650022Y313882D01*
X650206Y313720D01*
X650385Y313552D01*
X650561Y313381D01*
X650732Y313205D01*
X650900Y313026D01*
X651062Y312842D01*
X651220Y312654D01*
X651373Y312462D01*
X651522Y312267D01*
X651666Y312068D01*
X651805Y311866D01*
X651939Y311660D01*
X652067Y311451D01*
X652191Y311239D01*
X652309Y311024D01*
X652422Y310806D01*
X652530Y310586D01*
X652632Y310362D01*
X652729Y310137D01*
X652820Y309909D01*
X652905Y309679D01*
X652985Y309447D01*
X653059Y309213D01*
X653128Y308977D01*
X653190Y308740D01*
X653247Y308501D01*
X653298Y308261D01*
X653343Y308020D01*
X653382Y307777D01*
X653415Y307534D01*
X653442Y307290D01*
X653463Y307046D01*
X653478Y306801D01*
X653487Y306555D01*
X653490Y306310D01*
X653487Y306065D01*
X653478Y305819D01*
X653463Y305574D01*
X653442Y305330D01*
X653415Y305086D01*
X653382Y304843D01*
X653343Y304600D01*
X653298Y304359D01*
X653247Y304119D01*
X653190Y303880D01*
X653128Y303643D01*
X653059Y303407D01*
X652985Y303173D01*
X652905Y302941D01*
X652820Y302711D01*
X652729Y302483D01*
X652632Y302258D01*
X652530Y302034D01*
X652422Y301814D01*
X652309Y301596D01*
X652191Y301381D01*
X652067Y301169D01*
X651939Y300960D01*
X651805Y300754D01*
X651666Y300552D01*
X651522Y300353D01*
X651373Y300158D01*
X651220Y299966D01*
X651062Y299778D01*
X650900Y299594D01*
X650732Y299415D01*
X650561Y299239D01*
X650385Y299068D01*
X650206Y298900D01*
X650022Y298738D01*
X649834Y298580D01*
X649642Y298427D01*
X649447Y298278D01*
X649248Y298134D01*
X649046Y297995D01*
X648840Y297861D01*
X648631Y297733D01*
X648419Y297609D01*
X648204Y297491D01*
X647986Y297378D01*
X647766Y297270D01*
X647542Y297168D01*
X647317Y297071D01*
X647089Y296980D01*
X646859Y296895D01*
X646627Y296815D01*
X646393Y296741D01*
X646157Y296672D01*
X645920Y296610D01*
X645681Y296553D01*
X645441Y296502D01*
X645200Y296457D01*
X644957Y296418D01*
X644714Y296385D01*
X644470Y296358D01*
X644226Y296337D01*
X643981Y296322D01*
X643735Y296313D01*
X643490Y296310D01*
X643245Y296313D01*
X642999Y296322D01*
X642754Y296337D01*
X642510Y296358D01*
X642266Y296385D01*
X642023Y296418D01*
X641780Y296457D01*
X641539Y296502D01*
X641299Y296553D01*
X641060Y296610D01*
X640823Y296672D01*
X640587Y296741D01*
X640353Y296815D01*
X640121Y296895D01*
X639891Y296980D01*
X639663Y297071D01*
X639438Y297168D01*
X639214Y297270D01*
X638994Y297378D01*
X638776Y297491D01*
X638561Y297609D01*
X638349Y297733D01*
X638140Y297861D01*
X637934Y297995D01*
X637732Y298134D01*
X637533Y298278D01*
X637338Y298427D01*
X637146Y298580D01*
X636958Y298738D01*
X636774Y298900D01*
X636595Y299068D01*
X636419Y299239D01*
X636248Y299415D01*
X636080Y299594D01*
X635918Y299778D01*
X635760Y299966D01*
X635607Y300158D01*
X635458Y300353D01*
X635314Y300552D01*
X635175Y300754D01*
X635041Y300960D01*
X634913Y301169D01*
X634789Y301381D01*
X634671Y301596D01*
X634558Y301814D01*
X634450Y302034D01*
X634348Y302258D01*
X634251Y302483D01*
X634160Y302711D01*
X634075Y302941D01*
X633995Y303173D01*
X633921Y303407D01*
X633852Y303643D01*
X633790Y303880D01*
X633733Y304119D01*
X633682Y304359D01*
X633637Y304600D01*
X633598Y304843D01*
X633565Y305086D01*
X633538Y305330D01*
X633517Y305574D01*
X633502Y305819D01*
X633493Y306065D01*
X633490Y306310D01*
X633490Y81310D02*
X633493Y81555D01*
X633502Y81801D01*
X633517Y82046D01*
X633538Y82290D01*
X633565Y82534D01*
X633598Y82777D01*
X633637Y83020D01*
X633682Y83261D01*
X633733Y83501D01*
X633790Y83740D01*
X633852Y83977D01*
X633921Y84213D01*
X633995Y84447D01*
X634075Y84679D01*
X634160Y84909D01*
X634251Y85137D01*
X634348Y85362D01*
X634450Y85586D01*
X634558Y85806D01*
X634671Y86024D01*
X634789Y86239D01*
X634913Y86451D01*
X635041Y86660D01*
X635175Y86866D01*
X635314Y87068D01*
X635458Y87267D01*
X635607Y87462D01*
X635760Y87654D01*
X635918Y87842D01*
X636080Y88026D01*
X636248Y88205D01*
X636419Y88381D01*
X636595Y88552D01*
X636774Y88720D01*
X636958Y88882D01*
X637146Y89040D01*
X637338Y89193D01*
X637533Y89342D01*
X637732Y89486D01*
X637934Y89625D01*
X638140Y89759D01*
X638349Y89887D01*
X638561Y90011D01*
X638776Y90129D01*
X638994Y90242D01*
X639214Y90350D01*
X639438Y90452D01*
X639663Y90549D01*
X639891Y90640D01*
X640121Y90725D01*
X640353Y90805D01*
X640587Y90879D01*
X640823Y90948D01*
X641060Y91010D01*
X641299Y91067D01*
X641539Y91118D01*
X641780Y91163D01*
X642023Y91202D01*
X642266Y91235D01*
X642510Y91262D01*
X642754Y91283D01*
X642999Y91298D01*
X643245Y91307D01*
X643490Y91310D01*
X643735Y91307D01*
X643981Y91298D01*
X644226Y91283D01*
X644470Y91262D01*
X644714Y91235D01*
X644957Y91202D01*
X645200Y91163D01*
X645441Y91118D01*
X645681Y91067D01*
X645920Y91010D01*
X646157Y90948D01*
X646393Y90879D01*
X646627Y90805D01*
X646859Y90725D01*
X647089Y90640D01*
X647317Y90549D01*
X647542Y90452D01*
X647766Y90350D01*
X647986Y90242D01*
X648204Y90129D01*
X648419Y90011D01*
X648631Y89887D01*
X648840Y89759D01*
X649046Y89625D01*
X649248Y89486D01*
X649447Y89342D01*
X649642Y89193D01*
X649834Y89040D01*
X650022Y88882D01*
X650206Y88720D01*
X650385Y88552D01*
X650561Y88381D01*
X650732Y88205D01*
X650900Y88026D01*
X651062Y87842D01*
X651220Y87654D01*
X651373Y87462D01*
X651522Y87267D01*
X651666Y87068D01*
X651805Y86866D01*
X651939Y86660D01*
X652067Y86451D01*
X652191Y86239D01*
X652309Y86024D01*
X652422Y85806D01*
X652530Y85586D01*
X652632Y85362D01*
X652729Y85137D01*
X652820Y84909D01*
X652905Y84679D01*
X652985Y84447D01*
X653059Y84213D01*
X653128Y83977D01*
X653190Y83740D01*
X653247Y83501D01*
X653298Y83261D01*
X653343Y83020D01*
X653382Y82777D01*
X653415Y82534D01*
X653442Y82290D01*
X653463Y82046D01*
X653478Y81801D01*
X653487Y81555D01*
X653490Y81310D01*
X653487Y81065D01*
X653478Y80819D01*
X653463Y80574D01*
X653442Y80330D01*
X653415Y80086D01*
X653382Y79843D01*
X653343Y79600D01*
X653298Y79359D01*
X653247Y79119D01*
X653190Y78880D01*
X653128Y78643D01*
X653059Y78407D01*
X652985Y78173D01*
X652905Y77941D01*
X652820Y77711D01*
X652729Y77483D01*
X652632Y77258D01*
X652530Y77034D01*
X652422Y76814D01*
X652309Y76596D01*
X652191Y76381D01*
X652067Y76169D01*
X651939Y75960D01*
X651805Y75754D01*
X651666Y75552D01*
X651522Y75353D01*
X651373Y75158D01*
X651220Y74966D01*
X651062Y74778D01*
X650900Y74594D01*
X650732Y74415D01*
X650561Y74239D01*
X650385Y74068D01*
X650206Y73900D01*
X650022Y73738D01*
X649834Y73580D01*
X649642Y73427D01*
X649447Y73278D01*
X649248Y73134D01*
X649046Y72995D01*
X648840Y72861D01*
X648631Y72733D01*
X648419Y72609D01*
X648204Y72491D01*
X647986Y72378D01*
X647766Y72270D01*
X647542Y72168D01*
X647317Y72071D01*
X647089Y71980D01*
X646859Y71895D01*
X646627Y71815D01*
X646393Y71741D01*
X646157Y71672D01*
X645920Y71610D01*
X645681Y71553D01*
X645441Y71502D01*
X645200Y71457D01*
X644957Y71418D01*
X644714Y71385D01*
X644470Y71358D01*
X644226Y71337D01*
X643981Y71322D01*
X643735Y71313D01*
X643490Y71310D01*
X643245Y71313D01*
X642999Y71322D01*
X642754Y71337D01*
X642510Y71358D01*
X642266Y71385D01*
X642023Y71418D01*
X641780Y71457D01*
X641539Y71502D01*
X641299Y71553D01*
X641060Y71610D01*
X640823Y71672D01*
X640587Y71741D01*
X640353Y71815D01*
X640121Y71895D01*
X639891Y71980D01*
X639663Y72071D01*
X639438Y72168D01*
X639214Y72270D01*
X638994Y72378D01*
X638776Y72491D01*
X638561Y72609D01*
X638349Y72733D01*
X638140Y72861D01*
X637934Y72995D01*
X637732Y73134D01*
X637533Y73278D01*
X637338Y73427D01*
X637146Y73580D01*
X636958Y73738D01*
X636774Y73900D01*
X636595Y74068D01*
X636419Y74239D01*
X636248Y74415D01*
X636080Y74594D01*
X635918Y74778D01*
X635760Y74966D01*
X635607Y75158D01*
X635458Y75353D01*
X635314Y75552D01*
X635175Y75754D01*
X635041Y75960D01*
X634913Y76169D01*
X634789Y76381D01*
X634671Y76596D01*
X634558Y76814D01*
X634450Y77034D01*
X634348Y77258D01*
X634251Y77483D01*
X634160Y77711D01*
X634075Y77941D01*
X633995Y78173D01*
X633921Y78407D01*
X633852Y78643D01*
X633790Y78880D01*
X633733Y79119D01*
X633682Y79359D01*
X633637Y79600D01*
X633598Y79843D01*
X633565Y80086D01*
X633538Y80330D01*
X633517Y80574D01*
X633502Y80819D01*
X633493Y81065D01*
X633490Y81310D01*
X658490Y66310D02*
X8490Y66310D01*
X658490Y66310D02*
X658490Y321310D01*
X8490Y321310D02*
X8490Y66310D01*
X8490Y321310D02*
X658490Y321310D01*
D15*
X642112Y131625D02*
X630428Y131625D01*
X630428Y134870D02*
X630428Y128379D01*
X630428Y141531D02*
X642112Y141531D01*
X630428Y138285D02*
X630428Y144776D01*
X635621Y153878D02*
X635621Y155825D01*
X642112Y155825D01*
X642112Y151931D01*
X642110Y151832D01*
X642104Y151732D01*
X642095Y151633D01*
X642082Y151535D01*
X642065Y151437D01*
X642044Y151339D01*
X642019Y151243D01*
X641991Y151148D01*
X641959Y151054D01*
X641924Y150961D01*
X641885Y150869D01*
X641842Y150779D01*
X641797Y150691D01*
X641747Y150604D01*
X641695Y150520D01*
X641639Y150437D01*
X641581Y150357D01*
X641519Y150279D01*
X641454Y150204D01*
X641386Y150131D01*
X641316Y150061D01*
X641243Y149993D01*
X641168Y149928D01*
X641090Y149866D01*
X641010Y149808D01*
X640927Y149752D01*
X640843Y149700D01*
X640756Y149650D01*
X640668Y149605D01*
X640578Y149562D01*
X640486Y149523D01*
X640393Y149488D01*
X640299Y149456D01*
X640204Y149428D01*
X640108Y149403D01*
X640010Y149382D01*
X639912Y149365D01*
X639814Y149352D01*
X639715Y149343D01*
X639615Y149337D01*
X639516Y149335D01*
X639516Y149334D02*
X633024Y149334D01*
X632925Y149336D01*
X632825Y149342D01*
X632726Y149351D01*
X632628Y149364D01*
X632530Y149382D01*
X632432Y149402D01*
X632336Y149427D01*
X632240Y149455D01*
X632146Y149487D01*
X632053Y149522D01*
X631962Y149561D01*
X631872Y149604D01*
X631783Y149649D01*
X631697Y149699D01*
X631612Y149751D01*
X631530Y149807D01*
X631450Y149866D01*
X631372Y149927D01*
X631296Y149992D01*
X631223Y150060D01*
X631153Y150130D01*
X631085Y150203D01*
X631020Y150279D01*
X630959Y150357D01*
X630900Y150437D01*
X630844Y150519D01*
X630792Y150604D01*
X630743Y150690D01*
X630697Y150779D01*
X630654Y150869D01*
X630615Y150960D01*
X630580Y151053D01*
X630548Y151147D01*
X630520Y151243D01*
X630495Y151339D01*
X630475Y151437D01*
X630457Y151535D01*
X630444Y151633D01*
X630435Y151732D01*
X630429Y151831D01*
X630427Y151931D01*
X630428Y151931D02*
X630428Y155825D01*
X633674Y161145D02*
X638866Y161145D01*
X633674Y161145D02*
X633561Y161147D01*
X633448Y161153D01*
X633335Y161163D01*
X633222Y161177D01*
X633110Y161194D01*
X632999Y161216D01*
X632889Y161241D01*
X632779Y161271D01*
X632671Y161304D01*
X632564Y161341D01*
X632458Y161381D01*
X632354Y161426D01*
X632251Y161474D01*
X632150Y161525D01*
X632051Y161580D01*
X631954Y161638D01*
X631859Y161700D01*
X631766Y161765D01*
X631676Y161833D01*
X631588Y161904D01*
X631502Y161979D01*
X631419Y162056D01*
X631339Y162136D01*
X631262Y162219D01*
X631187Y162305D01*
X631116Y162393D01*
X631048Y162483D01*
X630983Y162576D01*
X630921Y162671D01*
X630863Y162768D01*
X630808Y162867D01*
X630757Y162968D01*
X630709Y163071D01*
X630664Y163175D01*
X630624Y163281D01*
X630587Y163388D01*
X630554Y163496D01*
X630524Y163606D01*
X630499Y163716D01*
X630477Y163827D01*
X630460Y163939D01*
X630446Y164052D01*
X630436Y164165D01*
X630430Y164278D01*
X630428Y164391D01*
X630430Y164504D01*
X630436Y164617D01*
X630446Y164730D01*
X630460Y164843D01*
X630477Y164955D01*
X630499Y165066D01*
X630524Y165176D01*
X630554Y165286D01*
X630587Y165394D01*
X630624Y165501D01*
X630664Y165607D01*
X630709Y165711D01*
X630757Y165814D01*
X630808Y165915D01*
X630863Y166014D01*
X630921Y166111D01*
X630983Y166206D01*
X631048Y166299D01*
X631116Y166389D01*
X631187Y166477D01*
X631262Y166563D01*
X631339Y166646D01*
X631419Y166726D01*
X631502Y166803D01*
X631588Y166878D01*
X631676Y166949D01*
X631766Y167017D01*
X631859Y167082D01*
X631954Y167144D01*
X632051Y167202D01*
X632150Y167257D01*
X632251Y167308D01*
X632354Y167356D01*
X632458Y167401D01*
X632564Y167441D01*
X632671Y167478D01*
X632779Y167511D01*
X632889Y167541D01*
X632999Y167566D01*
X633110Y167588D01*
X633222Y167605D01*
X633335Y167619D01*
X633448Y167629D01*
X633561Y167635D01*
X633674Y167637D01*
X633674Y167636D02*
X638866Y167636D01*
X638866Y167637D02*
X638979Y167635D01*
X639092Y167629D01*
X639205Y167619D01*
X639318Y167605D01*
X639430Y167588D01*
X639541Y167566D01*
X639651Y167541D01*
X639761Y167511D01*
X639869Y167478D01*
X639976Y167441D01*
X640082Y167401D01*
X640186Y167356D01*
X640289Y167308D01*
X640390Y167257D01*
X640489Y167202D01*
X640586Y167144D01*
X640681Y167082D01*
X640774Y167017D01*
X640864Y166949D01*
X640952Y166878D01*
X641038Y166803D01*
X641121Y166726D01*
X641201Y166646D01*
X641278Y166563D01*
X641353Y166477D01*
X641424Y166389D01*
X641492Y166299D01*
X641557Y166206D01*
X641619Y166111D01*
X641677Y166014D01*
X641732Y165915D01*
X641783Y165814D01*
X641831Y165711D01*
X641876Y165607D01*
X641916Y165501D01*
X641953Y165394D01*
X641986Y165286D01*
X642016Y165176D01*
X642041Y165066D01*
X642063Y164955D01*
X642080Y164843D01*
X642094Y164730D01*
X642104Y164617D01*
X642110Y164504D01*
X642112Y164391D01*
X642110Y164278D01*
X642104Y164165D01*
X642094Y164052D01*
X642080Y163939D01*
X642063Y163827D01*
X642041Y163716D01*
X642016Y163606D01*
X641986Y163496D01*
X641953Y163388D01*
X641916Y163281D01*
X641876Y163175D01*
X641831Y163071D01*
X641783Y162968D01*
X641732Y162867D01*
X641677Y162768D01*
X641619Y162671D01*
X641557Y162576D01*
X641492Y162483D01*
X641424Y162393D01*
X641353Y162305D01*
X641278Y162219D01*
X641201Y162136D01*
X641121Y162056D01*
X641038Y161979D01*
X640952Y161904D01*
X640864Y161833D01*
X640774Y161765D01*
X640681Y161700D01*
X640586Y161638D01*
X640489Y161580D01*
X640390Y161525D01*
X640289Y161474D01*
X640186Y161426D01*
X640082Y161381D01*
X639976Y161341D01*
X639869Y161304D01*
X639761Y161271D01*
X639651Y161241D01*
X639541Y161216D01*
X639430Y161194D01*
X639318Y161177D01*
X639205Y161163D01*
X639092Y161153D01*
X638979Y161147D01*
X638866Y161145D01*
X637568Y172688D02*
X637568Y180477D01*
X642112Y188013D02*
X630428Y188013D01*
X630428Y191258D02*
X630428Y184767D01*
X638866Y195435D02*
X638753Y195437D01*
X638640Y195443D01*
X638527Y195453D01*
X638414Y195467D01*
X638302Y195484D01*
X638191Y195506D01*
X638081Y195531D01*
X637971Y195561D01*
X637863Y195594D01*
X637756Y195631D01*
X637650Y195671D01*
X637546Y195716D01*
X637443Y195764D01*
X637342Y195815D01*
X637243Y195870D01*
X637146Y195928D01*
X637051Y195990D01*
X636958Y196055D01*
X636868Y196123D01*
X636780Y196194D01*
X636694Y196269D01*
X636611Y196346D01*
X636531Y196426D01*
X636454Y196509D01*
X636379Y196595D01*
X636308Y196683D01*
X636240Y196773D01*
X636175Y196866D01*
X636113Y196961D01*
X636055Y197058D01*
X636000Y197157D01*
X635949Y197258D01*
X635901Y197361D01*
X635856Y197465D01*
X635816Y197571D01*
X635779Y197678D01*
X635746Y197786D01*
X635716Y197896D01*
X635691Y198006D01*
X635669Y198117D01*
X635652Y198229D01*
X635638Y198342D01*
X635628Y198455D01*
X635622Y198568D01*
X635620Y198681D01*
X635622Y198794D01*
X635628Y198907D01*
X635638Y199020D01*
X635652Y199133D01*
X635669Y199245D01*
X635691Y199356D01*
X635716Y199466D01*
X635746Y199576D01*
X635779Y199684D01*
X635816Y199791D01*
X635856Y199897D01*
X635901Y200001D01*
X635949Y200104D01*
X636000Y200205D01*
X636055Y200304D01*
X636113Y200401D01*
X636175Y200496D01*
X636240Y200589D01*
X636308Y200679D01*
X636379Y200767D01*
X636454Y200853D01*
X636531Y200936D01*
X636611Y201016D01*
X636694Y201093D01*
X636780Y201168D01*
X636868Y201239D01*
X636958Y201307D01*
X637051Y201372D01*
X637146Y201434D01*
X637243Y201492D01*
X637342Y201547D01*
X637443Y201598D01*
X637546Y201646D01*
X637650Y201691D01*
X637756Y201731D01*
X637863Y201768D01*
X637971Y201801D01*
X638081Y201831D01*
X638191Y201856D01*
X638302Y201878D01*
X638414Y201895D01*
X638527Y201909D01*
X638640Y201919D01*
X638753Y201925D01*
X638866Y201927D01*
X638979Y201925D01*
X639092Y201919D01*
X639205Y201909D01*
X639318Y201895D01*
X639430Y201878D01*
X639541Y201856D01*
X639651Y201831D01*
X639761Y201801D01*
X639869Y201768D01*
X639976Y201731D01*
X640082Y201691D01*
X640186Y201646D01*
X640289Y201598D01*
X640390Y201547D01*
X640489Y201492D01*
X640586Y201434D01*
X640681Y201372D01*
X640774Y201307D01*
X640864Y201239D01*
X640952Y201168D01*
X641038Y201093D01*
X641121Y201016D01*
X641201Y200936D01*
X641278Y200853D01*
X641353Y200767D01*
X641424Y200679D01*
X641492Y200589D01*
X641557Y200496D01*
X641619Y200401D01*
X641677Y200304D01*
X641732Y200205D01*
X641783Y200104D01*
X641831Y200001D01*
X641876Y199897D01*
X641916Y199791D01*
X641953Y199684D01*
X641986Y199576D01*
X642016Y199466D01*
X642041Y199356D01*
X642063Y199245D01*
X642080Y199133D01*
X642094Y199020D01*
X642104Y198907D01*
X642110Y198794D01*
X642112Y198681D01*
X642110Y198568D01*
X642104Y198455D01*
X642094Y198342D01*
X642080Y198229D01*
X642063Y198117D01*
X642041Y198006D01*
X642016Y197896D01*
X641986Y197786D01*
X641953Y197678D01*
X641916Y197571D01*
X641876Y197465D01*
X641831Y197361D01*
X641783Y197258D01*
X641732Y197157D01*
X641677Y197058D01*
X641619Y196961D01*
X641557Y196866D01*
X641492Y196773D01*
X641424Y196683D01*
X641353Y196595D01*
X641278Y196509D01*
X641201Y196426D01*
X641121Y196346D01*
X641038Y196269D01*
X640952Y196194D01*
X640864Y196123D01*
X640774Y196055D01*
X640681Y195990D01*
X640586Y195928D01*
X640489Y195870D01*
X640390Y195815D01*
X640289Y195764D01*
X640186Y195716D01*
X640082Y195671D01*
X639976Y195631D01*
X639869Y195594D01*
X639761Y195561D01*
X639651Y195531D01*
X639541Y195506D01*
X639430Y195484D01*
X639318Y195467D01*
X639205Y195453D01*
X639092Y195443D01*
X638979Y195437D01*
X638866Y195435D01*
X633024Y196085D02*
X632923Y196087D01*
X632823Y196093D01*
X632723Y196103D01*
X632623Y196116D01*
X632524Y196134D01*
X632425Y196155D01*
X632328Y196180D01*
X632231Y196209D01*
X632136Y196242D01*
X632042Y196278D01*
X631950Y196318D01*
X631859Y196361D01*
X631770Y196408D01*
X631683Y196458D01*
X631597Y196512D01*
X631514Y196569D01*
X631434Y196629D01*
X631355Y196692D01*
X631279Y196759D01*
X631206Y196828D01*
X631136Y196900D01*
X631068Y196974D01*
X631003Y197051D01*
X630942Y197131D01*
X630883Y197213D01*
X630828Y197297D01*
X630776Y197383D01*
X630727Y197471D01*
X630682Y197561D01*
X630640Y197653D01*
X630602Y197746D01*
X630568Y197841D01*
X630537Y197936D01*
X630510Y198033D01*
X630487Y198131D01*
X630467Y198230D01*
X630452Y198330D01*
X630440Y198430D01*
X630432Y198530D01*
X630428Y198631D01*
X630428Y198731D01*
X630432Y198832D01*
X630440Y198932D01*
X630452Y199032D01*
X630467Y199132D01*
X630487Y199231D01*
X630510Y199329D01*
X630537Y199426D01*
X630568Y199521D01*
X630602Y199616D01*
X630640Y199709D01*
X630682Y199801D01*
X630727Y199891D01*
X630776Y199979D01*
X630828Y200065D01*
X630883Y200149D01*
X630942Y200231D01*
X631003Y200311D01*
X631068Y200388D01*
X631136Y200462D01*
X631206Y200534D01*
X631279Y200603D01*
X631355Y200670D01*
X631434Y200733D01*
X631514Y200793D01*
X631597Y200850D01*
X631683Y200904D01*
X631770Y200954D01*
X631859Y201001D01*
X631950Y201044D01*
X632042Y201084D01*
X632136Y201120D01*
X632231Y201153D01*
X632328Y201182D01*
X632425Y201207D01*
X632524Y201228D01*
X632623Y201246D01*
X632723Y201259D01*
X632823Y201269D01*
X632923Y201275D01*
X633024Y201277D01*
X633125Y201275D01*
X633225Y201269D01*
X633325Y201259D01*
X633425Y201246D01*
X633524Y201228D01*
X633623Y201207D01*
X633720Y201182D01*
X633817Y201153D01*
X633912Y201120D01*
X634006Y201084D01*
X634098Y201044D01*
X634189Y201001D01*
X634278Y200954D01*
X634365Y200904D01*
X634451Y200850D01*
X634534Y200793D01*
X634614Y200733D01*
X634693Y200670D01*
X634769Y200603D01*
X634842Y200534D01*
X634912Y200462D01*
X634980Y200388D01*
X635045Y200311D01*
X635106Y200231D01*
X635165Y200149D01*
X635220Y200065D01*
X635272Y199979D01*
X635321Y199891D01*
X635366Y199801D01*
X635408Y199709D01*
X635446Y199616D01*
X635480Y199521D01*
X635511Y199426D01*
X635538Y199329D01*
X635561Y199231D01*
X635581Y199132D01*
X635596Y199032D01*
X635608Y198932D01*
X635616Y198832D01*
X635620Y198731D01*
X635620Y198631D01*
X635616Y198530D01*
X635608Y198430D01*
X635596Y198330D01*
X635581Y198230D01*
X635561Y198131D01*
X635538Y198033D01*
X635511Y197936D01*
X635480Y197841D01*
X635446Y197746D01*
X635408Y197653D01*
X635366Y197561D01*
X635321Y197471D01*
X635272Y197383D01*
X635220Y197297D01*
X635165Y197213D01*
X635106Y197131D01*
X635045Y197051D01*
X634980Y196974D01*
X634912Y196900D01*
X634842Y196828D01*
X634769Y196759D01*
X634693Y196692D01*
X634614Y196629D01*
X634534Y196569D01*
X634451Y196512D01*
X634365Y196458D01*
X634278Y196408D01*
X634189Y196361D01*
X634098Y196318D01*
X634006Y196278D01*
X633912Y196242D01*
X633817Y196209D01*
X633720Y196180D01*
X633623Y196155D01*
X633524Y196134D01*
X633425Y196116D01*
X633325Y196103D01*
X633225Y196093D01*
X633125Y196087D01*
X633024Y196085D01*
X643410Y206371D02*
X643410Y211564D01*
X642112Y219255D02*
X630428Y215360D01*
X630428Y223149D02*
X642112Y219255D01*
X633024Y227439D02*
X630428Y230685D01*
X642112Y230685D01*
X642112Y233930D02*
X642112Y227439D01*
X642112Y238361D02*
X641463Y238361D01*
X641463Y239010D01*
X642112Y239010D01*
X642112Y238361D01*
X638866Y243440D02*
X638753Y243442D01*
X638640Y243448D01*
X638527Y243458D01*
X638414Y243472D01*
X638302Y243489D01*
X638191Y243511D01*
X638081Y243536D01*
X637971Y243566D01*
X637863Y243599D01*
X637756Y243636D01*
X637650Y243676D01*
X637546Y243721D01*
X637443Y243769D01*
X637342Y243820D01*
X637243Y243875D01*
X637146Y243933D01*
X637051Y243995D01*
X636958Y244060D01*
X636868Y244128D01*
X636780Y244199D01*
X636694Y244274D01*
X636611Y244351D01*
X636531Y244431D01*
X636454Y244514D01*
X636379Y244600D01*
X636308Y244688D01*
X636240Y244778D01*
X636175Y244871D01*
X636113Y244966D01*
X636055Y245063D01*
X636000Y245162D01*
X635949Y245263D01*
X635901Y245366D01*
X635856Y245470D01*
X635816Y245576D01*
X635779Y245683D01*
X635746Y245791D01*
X635716Y245901D01*
X635691Y246011D01*
X635669Y246122D01*
X635652Y246234D01*
X635638Y246347D01*
X635628Y246460D01*
X635622Y246573D01*
X635620Y246686D01*
X635622Y246799D01*
X635628Y246912D01*
X635638Y247025D01*
X635652Y247138D01*
X635669Y247250D01*
X635691Y247361D01*
X635716Y247471D01*
X635746Y247581D01*
X635779Y247689D01*
X635816Y247796D01*
X635856Y247902D01*
X635901Y248006D01*
X635949Y248109D01*
X636000Y248210D01*
X636055Y248309D01*
X636113Y248406D01*
X636175Y248501D01*
X636240Y248594D01*
X636308Y248684D01*
X636379Y248772D01*
X636454Y248858D01*
X636531Y248941D01*
X636611Y249021D01*
X636694Y249098D01*
X636780Y249173D01*
X636868Y249244D01*
X636958Y249312D01*
X637051Y249377D01*
X637146Y249439D01*
X637243Y249497D01*
X637342Y249552D01*
X637443Y249603D01*
X637546Y249651D01*
X637650Y249696D01*
X637756Y249736D01*
X637863Y249773D01*
X637971Y249806D01*
X638081Y249836D01*
X638191Y249861D01*
X638302Y249883D01*
X638414Y249900D01*
X638527Y249914D01*
X638640Y249924D01*
X638753Y249930D01*
X638866Y249932D01*
X638979Y249930D01*
X639092Y249924D01*
X639205Y249914D01*
X639318Y249900D01*
X639430Y249883D01*
X639541Y249861D01*
X639651Y249836D01*
X639761Y249806D01*
X639869Y249773D01*
X639976Y249736D01*
X640082Y249696D01*
X640186Y249651D01*
X640289Y249603D01*
X640390Y249552D01*
X640489Y249497D01*
X640586Y249439D01*
X640681Y249377D01*
X640774Y249312D01*
X640864Y249244D01*
X640952Y249173D01*
X641038Y249098D01*
X641121Y249021D01*
X641201Y248941D01*
X641278Y248858D01*
X641353Y248772D01*
X641424Y248684D01*
X641492Y248594D01*
X641557Y248501D01*
X641619Y248406D01*
X641677Y248309D01*
X641732Y248210D01*
X641783Y248109D01*
X641831Y248006D01*
X641876Y247902D01*
X641916Y247796D01*
X641953Y247689D01*
X641986Y247581D01*
X642016Y247471D01*
X642041Y247361D01*
X642063Y247250D01*
X642080Y247138D01*
X642094Y247025D01*
X642104Y246912D01*
X642110Y246799D01*
X642112Y246686D01*
X642110Y246573D01*
X642104Y246460D01*
X642094Y246347D01*
X642080Y246234D01*
X642063Y246122D01*
X642041Y246011D01*
X642016Y245901D01*
X641986Y245791D01*
X641953Y245683D01*
X641916Y245576D01*
X641876Y245470D01*
X641831Y245366D01*
X641783Y245263D01*
X641732Y245162D01*
X641677Y245063D01*
X641619Y244966D01*
X641557Y244871D01*
X641492Y244778D01*
X641424Y244688D01*
X641353Y244600D01*
X641278Y244514D01*
X641201Y244431D01*
X641121Y244351D01*
X641038Y244274D01*
X640952Y244199D01*
X640864Y244128D01*
X640774Y244060D01*
X640681Y243995D01*
X640586Y243933D01*
X640489Y243875D01*
X640390Y243820D01*
X640289Y243769D01*
X640186Y243721D01*
X640082Y243676D01*
X639976Y243636D01*
X639869Y243599D01*
X639761Y243566D01*
X639651Y243536D01*
X639541Y243511D01*
X639430Y243489D01*
X639318Y243472D01*
X639205Y243458D01*
X639092Y243448D01*
X638979Y243442D01*
X638866Y243440D01*
X633024Y244090D02*
X632923Y244092D01*
X632823Y244098D01*
X632723Y244108D01*
X632623Y244121D01*
X632524Y244139D01*
X632425Y244160D01*
X632328Y244185D01*
X632231Y244214D01*
X632136Y244247D01*
X632042Y244283D01*
X631950Y244323D01*
X631859Y244366D01*
X631770Y244413D01*
X631683Y244463D01*
X631597Y244517D01*
X631514Y244574D01*
X631434Y244634D01*
X631355Y244697D01*
X631279Y244764D01*
X631206Y244833D01*
X631136Y244905D01*
X631068Y244979D01*
X631003Y245056D01*
X630942Y245136D01*
X630883Y245218D01*
X630828Y245302D01*
X630776Y245388D01*
X630727Y245476D01*
X630682Y245566D01*
X630640Y245658D01*
X630602Y245751D01*
X630568Y245846D01*
X630537Y245941D01*
X630510Y246038D01*
X630487Y246136D01*
X630467Y246235D01*
X630452Y246335D01*
X630440Y246435D01*
X630432Y246535D01*
X630428Y246636D01*
X630428Y246736D01*
X630432Y246837D01*
X630440Y246937D01*
X630452Y247037D01*
X630467Y247137D01*
X630487Y247236D01*
X630510Y247334D01*
X630537Y247431D01*
X630568Y247526D01*
X630602Y247621D01*
X630640Y247714D01*
X630682Y247806D01*
X630727Y247896D01*
X630776Y247984D01*
X630828Y248070D01*
X630883Y248154D01*
X630942Y248236D01*
X631003Y248316D01*
X631068Y248393D01*
X631136Y248467D01*
X631206Y248539D01*
X631279Y248608D01*
X631355Y248675D01*
X631434Y248738D01*
X631514Y248798D01*
X631597Y248855D01*
X631683Y248909D01*
X631770Y248959D01*
X631859Y249006D01*
X631950Y249049D01*
X632042Y249089D01*
X632136Y249125D01*
X632231Y249158D01*
X632328Y249187D01*
X632425Y249212D01*
X632524Y249233D01*
X632623Y249251D01*
X632723Y249264D01*
X632823Y249274D01*
X632923Y249280D01*
X633024Y249282D01*
X633125Y249280D01*
X633225Y249274D01*
X633325Y249264D01*
X633425Y249251D01*
X633524Y249233D01*
X633623Y249212D01*
X633720Y249187D01*
X633817Y249158D01*
X633912Y249125D01*
X634006Y249089D01*
X634098Y249049D01*
X634189Y249006D01*
X634278Y248959D01*
X634365Y248909D01*
X634451Y248855D01*
X634534Y248798D01*
X634614Y248738D01*
X634693Y248675D01*
X634769Y248608D01*
X634842Y248539D01*
X634912Y248467D01*
X634980Y248393D01*
X635045Y248316D01*
X635106Y248236D01*
X635165Y248154D01*
X635220Y248070D01*
X635272Y247984D01*
X635321Y247896D01*
X635366Y247806D01*
X635408Y247714D01*
X635446Y247621D01*
X635480Y247526D01*
X635511Y247431D01*
X635538Y247334D01*
X635561Y247236D01*
X635581Y247137D01*
X635596Y247037D01*
X635608Y246937D01*
X635616Y246837D01*
X635620Y246736D01*
X635620Y246636D01*
X635616Y246535D01*
X635608Y246435D01*
X635596Y246335D01*
X635581Y246235D01*
X635561Y246136D01*
X635538Y246038D01*
X635511Y245941D01*
X635480Y245846D01*
X635446Y245751D01*
X635408Y245658D01*
X635366Y245566D01*
X635321Y245476D01*
X635272Y245388D01*
X635220Y245302D01*
X635165Y245218D01*
X635106Y245136D01*
X635045Y245056D01*
X634980Y244979D01*
X634912Y244905D01*
X634842Y244833D01*
X634769Y244764D01*
X634693Y244697D01*
X634614Y244634D01*
X634534Y244574D01*
X634451Y244517D01*
X634365Y244463D01*
X634278Y244413D01*
X634189Y244366D01*
X634098Y244323D01*
X634006Y244283D01*
X633912Y244247D01*
X633817Y244214D01*
X633720Y244185D01*
X633623Y244160D01*
X633524Y244139D01*
X633425Y244121D01*
X633325Y244108D01*
X633225Y244098D01*
X633125Y244092D01*
X633024Y244090D01*
M02*
