G04 EAGLE Gerber RS-274X export*
G75*
%MOMM*%
%FSLAX34Y34*%
%LPD*%
%INSoldermask Top*%
%IPPOS*%
%AMOC8*
5,1,8,0,0,1.08239X$1,22.5*%
G01*
%ADD10C,3.003200*%
%ADD11C,1.981200*%
%ADD12C,2.103200*%
%ADD13R,2.753200X2.903200*%
%ADD14R,1.003200X1.403200*%
%ADD15C,1.711200*%
%ADD16R,1.603200X1.603200*%
%ADD17R,1.371600X1.803400*%
%ADD18R,0.152400X1.828800*%
%ADD19C,1.879600*%
%ADD20C,2.082800*%
%ADD21C,1.259600*%


D10*
X695960Y82550D03*
X695960Y303530D03*
X701040Y356870D03*
X701040Y26670D03*
X27940Y356870D03*
X27940Y26670D03*
D11*
X298450Y153670D03*
X298450Y179070D03*
X298450Y204470D03*
D12*
X298450Y229870D03*
D13*
X253950Y177800D03*
X190550Y177800D03*
D14*
X190610Y213360D03*
X172610Y213360D03*
D15*
X643890Y346710D03*
X618490Y346710D03*
X593090Y346710D03*
X567690Y346710D03*
X542290Y346710D03*
X516890Y346710D03*
X491490Y346710D03*
X466090Y346710D03*
X440690Y346710D03*
X415290Y346710D03*
X389890Y346710D03*
X364490Y346710D03*
X339090Y346710D03*
X339090Y41910D03*
X364490Y41910D03*
X389890Y41910D03*
X415290Y41910D03*
X440690Y41910D03*
X466090Y41910D03*
X491490Y41910D03*
X516890Y41910D03*
X542290Y41910D03*
X567690Y41910D03*
X593090Y41910D03*
X618490Y41910D03*
X643890Y41910D03*
D16*
X384810Y369570D03*
X368300Y369570D03*
X351790Y369570D03*
D13*
X194360Y250190D03*
X257760Y250190D03*
D14*
X257920Y214630D03*
X239920Y214630D03*
D15*
X355600Y231140D03*
X355600Y205740D03*
X355600Y180340D03*
X355600Y154940D03*
D17*
X147320Y124460D03*
X162560Y124460D03*
D18*
X154940Y124460D03*
D17*
X264160Y124460D03*
X279400Y124460D03*
D18*
X271780Y124460D03*
D17*
X228600Y124460D03*
X243840Y124460D03*
D18*
X236220Y124460D03*
D17*
X182880Y124460D03*
X198120Y124460D03*
D18*
X190500Y124460D03*
D19*
X567690Y308610D03*
X542290Y308610D03*
X516890Y308610D03*
X491490Y308610D03*
X466090Y308610D03*
X440690Y308610D03*
X415290Y308610D03*
X389890Y308610D03*
X364490Y308610D03*
X339090Y308610D03*
X313690Y308610D03*
X288290Y308610D03*
X262890Y308610D03*
X237490Y308610D03*
X212090Y308610D03*
X186690Y308610D03*
X161290Y308610D03*
X161290Y80010D03*
X186690Y80010D03*
X212090Y80010D03*
X237490Y80010D03*
X262890Y80010D03*
X288290Y80010D03*
X313690Y80010D03*
X339090Y80010D03*
X364490Y80010D03*
X389890Y80010D03*
X415290Y80010D03*
X440690Y80010D03*
X466090Y80010D03*
X491490Y80010D03*
X516890Y80010D03*
X542290Y80010D03*
X567690Y80010D03*
D20*
X83820Y30480D03*
X109220Y30480D03*
X134620Y30480D03*
X160020Y30480D03*
X185420Y30480D03*
X210820Y30480D03*
X236220Y30480D03*
X261620Y30480D03*
X287020Y30480D03*
X83820Y359410D03*
X109220Y359410D03*
X134620Y359410D03*
X160020Y359410D03*
X185420Y359410D03*
X210820Y359410D03*
X236220Y359410D03*
X261620Y359410D03*
X287020Y359410D03*
D21*
X715010Y328930D03*
X205740Y250190D03*
X167640Y213360D03*
X234950Y214630D03*
X241300Y176530D03*
X101600Y139700D03*
X194310Y213360D03*
X203200Y177800D03*
X685800Y328930D03*
X245110Y250190D03*
X262890Y214630D03*
X53340Y138430D03*
M02*
