M48
;GenerationSoftware,Autodesk,EAGLE,9.6.2*%
;CreationDate,2022-06-19T19:14:05Z*%
FMAT,2
ICI,OFF
METRIC,TZ,000.000
T8C0.300
T7C0.350
T6C0.700
T5C1.000
T4C1.016
T3C1.110
T2C2.500
T1C3.200
%
G90
M71
T1
X92964Y51181
X92964Y4699
X4699Y4699
X4699Y51181
T2
X95758Y39370
X62103Y39370
X61976Y17145
X95758Y17272
T3
X39878Y15494
X37338Y15494
X34798Y15494
X32258Y15494
X29718Y15494
X27178Y15494
X24638Y15494
X22098Y15494
X19558Y15494
X17018Y15494
X14478Y15494
X9398Y15494
X6858Y15494
X4318Y15494
X42418Y40894
X4318Y40894
X6858Y40894
X9398Y40894
X11938Y40894
X14478Y40894
X17018Y40894
X19558Y40894
X22098Y40894
X24638Y40894
X27178Y40894
X29718Y40894
X32258Y40894
X34798Y40894
X37338Y40894
X39878Y40894
X11938Y15494
X44958Y40894
X47498Y40894
X50038Y40894
X50038Y15494
X47498Y15494
X44958Y15494
X42418Y15494
T4
X40183Y30709
X32258Y10414
X40183Y26187
X4318Y45974
X6858Y45974
X9398Y45974
X11938Y45974
X14478Y45974
X19558Y45974
X22098Y45974
X24638Y45974
X17018Y45974
X27178Y45974
X29718Y45974
X32258Y45974
X34798Y45974
X37338Y45974
X39878Y45974
X42418Y45974
X44958Y45974
X47498Y45974
X50038Y45974
X4318Y10414
X6858Y10414
X9398Y10414
X11938Y10414
X14478Y10414
X17018Y10414
X19558Y10414
X22098Y10414
X24638Y10414
X27178Y10414
X29718Y10414
X34798Y10414
X37338Y10414
X39878Y10414
X46685Y26187
X42418Y10414
X44958Y10414
X47498Y10414
X50038Y10414
X2794Y32004
X2794Y29464
X2794Y26924
X2794Y24384
X46685Y30709
T5
X66802Y26797
X91059Y13208
X68199Y43688
X70739Y43688
X73279Y43688
X23749Y25781
X65659Y43688
X66802Y30607
X80899Y13208
X61722Y29591
X61722Y27051
X61722Y24511
X61722Y32131
X23749Y29337
X30734Y24384
X30734Y26924
X30734Y29464
X30734Y32004
X91059Y43688
X88519Y43688
X85979Y43688
X83439Y43688
X80899Y43688
X78359Y43688
X75819Y43688
X63119Y43688
X60579Y43688
X60579Y13208
X63119Y13208
X65659Y13208
X68199Y13208
X70739Y13208
X73279Y13208
X75819Y13208
X78359Y13208
X83439Y13208
X85979Y13208
X88519Y13208
T6
X71247Y40132
X19558Y26797
X70739Y29591
X45847Y33782
X68326Y40132
X70739Y32639
X40767Y33782
X19558Y23749
T7
X49657Y29591
T8
X19431Y18669
X27813Y18669
M30