M48
;GenerationSoftware,Autodesk,EAGLE,9.6.2*%
;CreationDate,2021-12-21T19:58:07Z*%
FMAT,2
ICI,OFF
METRIC,TZ,000.000
T9C0.300
T8C0.350
T7C0.700
T6C0.800
T5C1.000
T4C1.016
T3C2.200
T2C2.500
T1C3.200
%
G90
M71
T1
X92964Y50927
X92964Y5207
X5334Y5207
X5334Y50927
T2
X62103Y39370
X61976Y17145
X95758Y39370
X95758Y17272
T3
X55118Y41021
X1778Y41021
X55118Y15621
X1778Y15621
T4
X6858Y43561
X4318Y43561
X40183Y26187
X46685Y26187
X46685Y30709
X50038Y13208
X47498Y13208
X40183Y30709
X44958Y13208
X42418Y13208
X6858Y13208
X39878Y13208
X37338Y13208
X34798Y13208
X32258Y13208
X29718Y13208
X27178Y13208
X24638Y13208
X22098Y13208
X19558Y13208
X17018Y13208
X14478Y13208
X11938Y13208
X9398Y13208
X4318Y13208
X50038Y43561
X47498Y43561
X44958Y43561
X42418Y43561
X9398Y43561
X37338Y43561
X34798Y43561
X32258Y43561
X29718Y43561
X27178Y43561
X39878Y43561
X22098Y43561
X19558Y43561
X17018Y43561
X14478Y43561
X11938Y43561
X24638Y43561
T5
X66802Y26797
X88519Y13208
X91059Y13208
X61722Y32131
X61722Y29591
X61722Y27051
X61722Y24511
X66802Y30607
X83439Y13208
X23749Y25781
X78359Y43688
X91059Y43688
X88519Y43688
X85979Y43688
X83439Y43688
X80899Y43688
X23749Y29337
X75819Y43688
X73279Y43688
X70739Y43688
X68199Y43688
X65659Y43688
X63119Y43688
X60579Y43688
X60579Y13208
X63119Y13208
X65659Y13208
X68199Y13208
X70739Y13208
X73279Y13208
X75819Y13208
X78359Y13208
X80899Y13208
X85979Y13208
T6
X30734Y32004
X19558Y41021
X17018Y41021
X14478Y41021
X11938Y41021
X6858Y41021
X44958Y15621
X4318Y15621
X6858Y15621
X9398Y15621
X11938Y15621
X22098Y15621
X4318Y41021
X30734Y29464
X30734Y26924
X14478Y15621
X17018Y15621
X19558Y15621
X24638Y15621
X27178Y15621
X29718Y15621
X32258Y15621
X34798Y15621
X37338Y15621
X39878Y15621
X42418Y15621
X9398Y41021
X47498Y15621
X50038Y15621
X50038Y41021
X47498Y41021
X44958Y41021
X42418Y41021
X39878Y41021
X37338Y41021
X30734Y24384
X34798Y41021
X32258Y41021
X29718Y41021
X27178Y41021
X24638Y41021
X22098Y41021
T7
X19558Y26797
X70739Y29591
X45847Y33782
X19558Y23749
X68326Y40132
X71247Y40132
X40767Y33782
X70739Y32639
T8
X49657Y29591
T9
X27813Y18669
X19431Y18669
M30