M48
;GenerationSoftware,Autodesk,EAGLE,9.6.2*%
;CreationDate,2022-07-22T06:23:19Z*%
FMAT,2
ICI,OFF
METRIC,TZ,000.000
T2C0.300
T1C1.016
%
G90
M71
T1
X3683Y20701
X1143Y2921
X1143Y5461
X1143Y8001
X1143Y10541
X1143Y13081
X1143Y15621
X1143Y18161
X1143Y20701
X1143Y23241
X1143Y25781
X1143Y28321
X1143Y30861
X1143Y33401
X31623Y33401
X31623Y30861
X31623Y28321
X31623Y25781
X31623Y23241
X31623Y20701
X31623Y18161
X31623Y15621
X31623Y13081
X31623Y10541
X31623Y8001
X31623Y5461
X31623Y2921
X3683Y2921
X3683Y5461
X3683Y8001
X3683Y10541
X3683Y13081
X3683Y15621
X3683Y18161
X3683Y23241
X3683Y25781
X3683Y28321
X3683Y30861
X3683Y33401
X29083Y33401
X29083Y30861
X29083Y28321
X29083Y25781
X29083Y23241
X29083Y20701
X29083Y18161
X29083Y15621
X29083Y13081
X29083Y10541
X29083Y8001
X29083Y5461
X29083Y2921
T2
X31750Y36830
X31750Y35560
X6985Y2540
X6985Y5080
X6985Y7620
X10160Y2540
X10160Y5080
X10160Y7620
X10160Y10795
X10160Y13970
X13970Y2540
X13970Y5080
X13970Y7620
X13970Y10795
X13970Y13970
X17780Y2540
X17780Y5080
X17780Y7620
X17780Y10795
X17780Y13970
X21590Y2540
X21590Y5080
X23495Y635
X21590Y10795
X21590Y13970
X25400Y2540
X25400Y5080
X13970Y17780
X13970Y21590
X13970Y25400
X13970Y29845
X13970Y34290
X17780Y17780
X17780Y21590
X17780Y25400
X17780Y29845
X17780Y34290
X6350Y25400
X6350Y29845
X6350Y34290
X21590Y29845
X21590Y25400
X21590Y21590
X21590Y17780
X635Y635
X1905Y635
X3175Y635
X4445Y635
X5715Y635
X6985Y635
X8255Y635
X9525Y635
X10795Y635
X12065Y635
X13335Y635
X14605Y635
X15875Y635
X17145Y635
X18415Y635
X19685Y635
X20955Y635
X22225Y635
X24765Y635
X26035Y635
X27305Y635
X28575Y635
X29845Y635
X31115Y635
X635Y38100
X1905Y38100
X3175Y38100
X4445Y38100
X5715Y38100
X6985Y38100
X8255Y38100
X9525Y38100
X10795Y38100
X21590Y7620
X12065Y38100
X13335Y38100
X14605Y38100
X15875Y38100
X17145Y38100
X18415Y38100
X19685Y38100
X20955Y38100
X22225Y38100
X23495Y38100
X24765Y38100
X26035Y38100
X27305Y38100
X28575Y38100
X29845Y38100
X31115Y38100
X635Y36830
X635Y35560
M30