M48
;GenerationSoftware,Autodesk,EAGLE,9.6.2*%
;CreationDate,2022-02-11T17:10:27Z*%
FMAT,2
ICI,OFF
METRIC,TZ,000.000
T1C1.016
%
G90
M71
T1
X1143Y2921
X1143Y5461
X1143Y8001
X1143Y10541
X1143Y13081
X1143Y15621
X1143Y18161
X1143Y20701
X1143Y23241
X1143Y25781
X1143Y28321
X1143Y30861
X1143Y33401
X31623Y33401
X31623Y30861
X31623Y28321
X31623Y25781
X31623Y23241
X31623Y20701
X31623Y18161
X31623Y15621
X31623Y13081
X31623Y10541
X31623Y8001
X31623Y5461
X31623Y2921
X3683Y2921
X3683Y5461
X3683Y8001
X3683Y10541
X3683Y13081
X3683Y15621
X3683Y18161
X3683Y20701
X3683Y23241
X3683Y25781
X3683Y28321
X3683Y30861
X3683Y33401
X29083Y33401
X29083Y30861
X29083Y28321
X29083Y25781
X29083Y23241
X29083Y20701
X29083Y18161
X29083Y15621
X29083Y13081
X29083Y10541
X29083Y8001
X29083Y5461
X29083Y2921
M30