M48
;GenerationSoftware,Autodesk,EAGLE,9.6.2*%
;CreationDate,2021-12-21T20:02:01Z*%
FMAT,2
ICI,OFF
METRIC,TZ,000.000
T8C0.250
T7C0.300
T6C0.350
T5C0.700
T4C0.800
T3C1.000
T2C1.016
T1C2.200
%
G90
M71
T1
X2413Y5842
X55753Y5842
X55753Y31242
X2413Y31242
T2
X25273Y33782
X50673Y3302
X32893Y33782
X30353Y3302
X30353Y33782
X27813Y33782
X10033Y33782
X22733Y33782
X17653Y33782
X15113Y33782
X32893Y3302
X12573Y33782
X35433Y3302
X7493Y33782
X15113Y3302
X4953Y33782
X37973Y3302
X40513Y3302
X43053Y3302
X45593Y3302
X48133Y3302
X38405Y16916
X38405Y21438
X20193Y33782
X44907Y21438
X44907Y16916
X35433Y33782
X37973Y33782
X40513Y33782
X43053Y33782
X45593Y33782
X48133Y33782
X50673Y33782
X4953Y3302
X7493Y3302
X10033Y3302
X12573Y3302
X17653Y3302
X20193Y3302
X22733Y3302
X25273Y3302
X27813Y3302
T3
X11684Y16383
X24384Y16002
X24384Y19558
X57912Y15240
X11684Y20193
X57912Y17780
X57912Y20320
X57912Y22860
T4
X30353Y5842
X27813Y5842
X25273Y5842
X7493Y31242
X20193Y5842
X17653Y5842
X15113Y5842
X12573Y5842
X10033Y5842
X7493Y5842
X4953Y5842
X31496Y14859
X31496Y17399
X31496Y19939
X31496Y22479
X22733Y5842
X4953Y31242
X10033Y31242
X12573Y31242
X15113Y31242
X17653Y31242
X20193Y31242
X22733Y31242
X25273Y31242
X27813Y31242
X30353Y31242
X32893Y31242
X45593Y31242
X35433Y31242
X37973Y31242
X40513Y31242
X43053Y31242
X48133Y31242
X50673Y31242
X50673Y5842
X48133Y5842
X45593Y5842
X43053Y5842
X40513Y5842
X37973Y5842
X32893Y5842
X35433Y5842
T5
X20193Y13843
X47879Y16764
X65659Y35306
X20193Y17145
X16256Y18923
X47879Y21590
X68834Y35306
X16256Y22225
T6
X50292Y17399
T7
X72009Y5207
X69469Y5207
X20828Y10287
X71882Y32639
X64516Y28575
X77089Y4953
X74422Y32639
X77851Y24257
X66294Y28575
T8
X19685Y35306
X17145Y35306
X14605Y35306
X12065Y35306
X9525Y35306
X6985Y35306
X4445Y35306
X78105Y14986
X74295Y14986
X70485Y14986
X78105Y17526
X88265Y22606
X70485Y17526
X78105Y20066
X74295Y20066
X78105Y22606
X85725Y9906
X81915Y30226
X74295Y22606
X70485Y22606
X70485Y20066
X70485Y25146
X74295Y11049
X70739Y5461
X68834Y10922
X66040Y10922
X26543Y8763
X62738Y10922
X72009Y12954
X84074Y7493
X82423Y6477
X90805Y17526
X93345Y17526
X95885Y17526
X88265Y17526
X85725Y17526
X81915Y17526
X81915Y14986
X85725Y14986
X88265Y14986
X90805Y14986
X93345Y14986
X74295Y17526
X95885Y14986
X95885Y12446
X88265Y12446
X85725Y12446
X88265Y9906
X90805Y9906
X93345Y9906
X95885Y9906
X81915Y20066
X81915Y22606
X85725Y22606
X90805Y22606
X93345Y22606
X95885Y22606
X85725Y20066
X88265Y20066
X90805Y20066
X93345Y20066
X95885Y20066
X85725Y25146
X88265Y25146
X85725Y27686
X88265Y27686
X90805Y27686
X93345Y27686
X95885Y27686
X95885Y25146
X93345Y25146
X60071Y6350
X88265Y4826
X90805Y4826
X93345Y4826
X95885Y4826
X95885Y7366
X95885Y2286
X93345Y2286
X90932Y1651
X88392Y1651
X85852Y1651
X83312Y1651
X80772Y1651
X78232Y1651
X75692Y1651
X73152Y1651
X70612Y1651
X68072Y1651
X65532Y1651
X62992Y1651
X60452Y1651
X57912Y1651
X55372Y1651
X52832Y1651
X29972Y1651
X27432Y1651
X24892Y1651
X22352Y1651
X19812Y1651
X17272Y1651
X14732Y1651
X12192Y1651
X9652Y1651
X75565Y35306
X7112Y1651
X4826Y1651
X95885Y30226
X95885Y32766
X95885Y35306
X93345Y35306
X90805Y35306
X88265Y35306
X85725Y35306
X83185Y35306
X80645Y35306
X78105Y35306
X73025Y35306
X70485Y35306
X62865Y35306
X60325Y35306
X57785Y35306
X55245Y35306
X52705Y35306
X50165Y35306
X47625Y35306
X45085Y35306
X42545Y35306
X40005Y35306
X37465Y35306
X34925Y35306
X32385Y35306
X29845Y35306
X27305Y35306
X24765Y35306
X22225Y35306
M30