G04 EAGLE Gerber RS-274X export*
G75*
%MOMM*%
%FSLAX34Y34*%
%LPD*%
%IN*%
%IPPOS*%
%AMOC8*
5,1,8,0,0,1.08239X$1,22.5*%
G01*
%ADD10C,0.254000*%


D10*
X0Y25400D02*
X97Y23186D01*
X386Y20989D01*
X865Y18826D01*
X1532Y16713D01*
X2380Y14666D01*
X3403Y12700D01*
X4594Y10831D01*
X5942Y9073D01*
X7440Y7440D01*
X9073Y5942D01*
X10831Y4594D01*
X12700Y3403D01*
X14666Y2380D01*
X16713Y1532D01*
X18826Y865D01*
X20989Y386D01*
X23186Y97D01*
X25400Y0D01*
X952500Y0D01*
X954714Y97D01*
X956911Y386D01*
X959074Y865D01*
X961187Y1532D01*
X963235Y2380D01*
X965200Y3403D01*
X967069Y4594D01*
X968827Y5942D01*
X970461Y7440D01*
X971958Y9073D01*
X973306Y10831D01*
X974497Y12700D01*
X975520Y14666D01*
X976368Y16713D01*
X977035Y18826D01*
X977514Y20989D01*
X977803Y23186D01*
X977900Y25400D01*
X977900Y342900D01*
X977803Y345114D01*
X977514Y347311D01*
X977035Y349474D01*
X976368Y351587D01*
X975520Y353635D01*
X974497Y355600D01*
X973306Y357469D01*
X971958Y359227D01*
X970461Y360861D01*
X968827Y362358D01*
X967069Y363706D01*
X965200Y364897D01*
X963235Y365920D01*
X961187Y366768D01*
X959074Y367435D01*
X956911Y367914D01*
X954714Y368203D01*
X952500Y368300D01*
X25400Y368300D01*
X23186Y368203D01*
X20989Y367914D01*
X18826Y367435D01*
X16713Y366768D01*
X14666Y365920D01*
X12700Y364897D01*
X10831Y363706D01*
X9073Y362358D01*
X7440Y360861D01*
X5942Y359227D01*
X4594Y357469D01*
X3403Y355600D01*
X2380Y353635D01*
X1532Y351587D01*
X865Y349474D01*
X386Y347311D01*
X97Y345114D01*
X0Y342900D01*
X0Y25400D01*
X35130Y311988D02*
X35062Y311126D01*
X34927Y310272D01*
X34725Y309432D01*
X34458Y308610D01*
X34127Y307811D01*
X33735Y307041D01*
X33283Y306304D01*
X32775Y305605D01*
X32214Y304947D01*
X31603Y304336D01*
X30945Y303775D01*
X30246Y303267D01*
X29509Y302815D01*
X28739Y302423D01*
X27940Y302092D01*
X27118Y301825D01*
X26278Y301623D01*
X25424Y301488D01*
X24562Y301420D01*
X23698Y301420D01*
X22836Y301488D01*
X21982Y301623D01*
X21142Y301825D01*
X20320Y302092D01*
X19521Y302423D01*
X18751Y302815D01*
X18014Y303267D01*
X17315Y303775D01*
X16657Y304336D01*
X16046Y304947D01*
X15485Y305605D01*
X14977Y306304D01*
X14525Y307041D01*
X14133Y307811D01*
X13802Y308610D01*
X13535Y309432D01*
X13333Y310272D01*
X13198Y311126D01*
X13130Y311988D01*
X13130Y312852D01*
X13198Y313714D01*
X13333Y314568D01*
X13535Y315408D01*
X13802Y316230D01*
X14133Y317029D01*
X14525Y317799D01*
X14977Y318536D01*
X15485Y319235D01*
X16046Y319893D01*
X16657Y320504D01*
X17315Y321065D01*
X18014Y321573D01*
X18751Y322025D01*
X19521Y322417D01*
X20320Y322748D01*
X21142Y323015D01*
X21982Y323217D01*
X22836Y323352D01*
X23698Y323420D01*
X24562Y323420D01*
X25424Y323352D01*
X26278Y323217D01*
X27118Y323015D01*
X27940Y322748D01*
X28739Y322417D01*
X29509Y322025D01*
X30246Y321573D01*
X30945Y321065D01*
X31603Y320504D01*
X32214Y319893D01*
X32775Y319235D01*
X33283Y318536D01*
X33735Y317799D01*
X34127Y317029D01*
X34458Y316230D01*
X34725Y315408D01*
X34927Y314568D01*
X35062Y313714D01*
X35130Y312852D01*
X35130Y311988D01*
X35130Y57988D02*
X35062Y57126D01*
X34927Y56272D01*
X34725Y55432D01*
X34458Y54610D01*
X34127Y53811D01*
X33735Y53041D01*
X33283Y52304D01*
X32775Y51605D01*
X32214Y50947D01*
X31603Y50336D01*
X30945Y49775D01*
X30246Y49267D01*
X29509Y48815D01*
X28739Y48423D01*
X27940Y48092D01*
X27118Y47825D01*
X26278Y47623D01*
X25424Y47488D01*
X24562Y47420D01*
X23698Y47420D01*
X22836Y47488D01*
X21982Y47623D01*
X21142Y47825D01*
X20320Y48092D01*
X19521Y48423D01*
X18751Y48815D01*
X18014Y49267D01*
X17315Y49775D01*
X16657Y50336D01*
X16046Y50947D01*
X15485Y51605D01*
X14977Y52304D01*
X14525Y53041D01*
X14133Y53811D01*
X13802Y54610D01*
X13535Y55432D01*
X13333Y56272D01*
X13198Y57126D01*
X13130Y57988D01*
X13130Y58852D01*
X13198Y59714D01*
X13333Y60568D01*
X13535Y61408D01*
X13802Y62230D01*
X14133Y63029D01*
X14525Y63799D01*
X14977Y64536D01*
X15485Y65235D01*
X16046Y65893D01*
X16657Y66504D01*
X17315Y67065D01*
X18014Y67573D01*
X18751Y68025D01*
X19521Y68417D01*
X20320Y68748D01*
X21142Y69015D01*
X21982Y69217D01*
X22836Y69352D01*
X23698Y69420D01*
X24562Y69420D01*
X25424Y69352D01*
X26278Y69217D01*
X27118Y69015D01*
X27940Y68748D01*
X28739Y68417D01*
X29509Y68025D01*
X30246Y67573D01*
X30945Y67065D01*
X31603Y66504D01*
X32214Y65893D01*
X32775Y65235D01*
X33283Y64536D01*
X33735Y63799D01*
X34127Y63029D01*
X34458Y62230D01*
X34725Y61408D01*
X34927Y60568D01*
X35062Y59714D01*
X35130Y58852D01*
X35130Y57988D01*
X568530Y57988D02*
X568462Y57126D01*
X568327Y56272D01*
X568125Y55432D01*
X567858Y54610D01*
X567527Y53811D01*
X567135Y53041D01*
X566683Y52304D01*
X566175Y51605D01*
X565614Y50947D01*
X565003Y50336D01*
X564345Y49775D01*
X563646Y49267D01*
X562909Y48815D01*
X562139Y48423D01*
X561340Y48092D01*
X560518Y47825D01*
X559678Y47623D01*
X558824Y47488D01*
X557962Y47420D01*
X557098Y47420D01*
X556236Y47488D01*
X555382Y47623D01*
X554542Y47825D01*
X553720Y48092D01*
X552921Y48423D01*
X552151Y48815D01*
X551414Y49267D01*
X550715Y49775D01*
X550057Y50336D01*
X549446Y50947D01*
X548885Y51605D01*
X548377Y52304D01*
X547925Y53041D01*
X547533Y53811D01*
X547202Y54610D01*
X546935Y55432D01*
X546733Y56272D01*
X546598Y57126D01*
X546530Y57988D01*
X546530Y58852D01*
X546598Y59714D01*
X546733Y60568D01*
X546935Y61408D01*
X547202Y62230D01*
X547533Y63029D01*
X547925Y63799D01*
X548377Y64536D01*
X548885Y65235D01*
X549446Y65893D01*
X550057Y66504D01*
X550715Y67065D01*
X551414Y67573D01*
X552151Y68025D01*
X552921Y68417D01*
X553720Y68748D01*
X554542Y69015D01*
X555382Y69217D01*
X556236Y69352D01*
X557098Y69420D01*
X557962Y69420D01*
X558824Y69352D01*
X559678Y69217D01*
X560518Y69015D01*
X561340Y68748D01*
X562139Y68417D01*
X562909Y68025D01*
X563646Y67573D01*
X564345Y67065D01*
X565003Y66504D01*
X565614Y65893D01*
X566175Y65235D01*
X566683Y64536D01*
X567135Y63799D01*
X567527Y63029D01*
X567858Y62230D01*
X568125Y61408D01*
X568327Y60568D01*
X568462Y59714D01*
X568530Y58852D01*
X568530Y57988D01*
X568530Y311988D02*
X568462Y311126D01*
X568327Y310272D01*
X568125Y309432D01*
X567858Y308610D01*
X567527Y307811D01*
X567135Y307041D01*
X566683Y306304D01*
X566175Y305605D01*
X565614Y304947D01*
X565003Y304336D01*
X564345Y303775D01*
X563646Y303267D01*
X562909Y302815D01*
X562139Y302423D01*
X561340Y302092D01*
X560518Y301825D01*
X559678Y301623D01*
X558824Y301488D01*
X557962Y301420D01*
X557098Y301420D01*
X556236Y301488D01*
X555382Y301623D01*
X554542Y301825D01*
X553720Y302092D01*
X552921Y302423D01*
X552151Y302815D01*
X551414Y303267D01*
X550715Y303775D01*
X550057Y304336D01*
X549446Y304947D01*
X548885Y305605D01*
X548377Y306304D01*
X547925Y307041D01*
X547533Y307811D01*
X547202Y308610D01*
X546935Y309432D01*
X546733Y310272D01*
X546598Y311126D01*
X546530Y311988D01*
X546530Y312852D01*
X546598Y313714D01*
X546733Y314568D01*
X546935Y315408D01*
X547202Y316230D01*
X547533Y317029D01*
X547925Y317799D01*
X548377Y318536D01*
X548885Y319235D01*
X549446Y319893D01*
X550057Y320504D01*
X550715Y321065D01*
X551414Y321573D01*
X552151Y322025D01*
X552921Y322417D01*
X553720Y322748D01*
X554542Y323015D01*
X555382Y323217D01*
X556236Y323352D01*
X557098Y323420D01*
X557962Y323420D01*
X558824Y323352D01*
X559678Y323217D01*
X560518Y323015D01*
X561340Y322748D01*
X562139Y322417D01*
X562909Y322025D01*
X563646Y321573D01*
X564345Y321065D01*
X565003Y320504D01*
X565614Y319893D01*
X566175Y319235D01*
X566683Y318536D01*
X567135Y317799D01*
X567527Y317029D01*
X567858Y316230D01*
X568125Y315408D01*
X568327Y314568D01*
X568462Y313714D01*
X568530Y312852D01*
X568530Y311988D01*
M02*
