G04 EAGLE Gerber RS-274X export*
G75*
%MOMM*%
%FSLAX34Y34*%
%LPD*%
%INSolderpaste Top*%
%IPPOS*%
%AMOC8*
5,1,8,0,0,1.08239X$1,22.5*%
G01*
%ADD10R,1.500000X1.800000*%
%ADD11R,0.780000X1.800000*%
%ADD12R,0.800000X1.200000*%
%ADD13R,1.168400X1.600200*%


D10*
X923290Y311150D03*
X897890Y311150D03*
X872490Y311150D03*
X796290Y311150D03*
X770890Y311150D03*
X745490Y311150D03*
X720090Y311150D03*
X694690Y311150D03*
X669290Y311150D03*
X643890Y311150D03*
X618490Y311150D03*
X618490Y67310D03*
X643890Y67310D03*
X669290Y67310D03*
X694690Y67310D03*
X720090Y67310D03*
X745490Y67310D03*
X770890Y67310D03*
X796290Y67310D03*
X872490Y67310D03*
X897890Y67310D03*
X923290Y67310D03*
D11*
X923290Y261620D03*
X910590Y261620D03*
X897890Y261620D03*
X842010Y261620D03*
X829310Y261620D03*
X816610Y261620D03*
X803910Y261620D03*
X791210Y261620D03*
X778510Y261620D03*
X765810Y261620D03*
X753110Y261620D03*
X753110Y119380D03*
X765810Y119380D03*
X778510Y119380D03*
X791210Y119380D03*
X803910Y119380D03*
X816610Y119380D03*
X829310Y119380D03*
X842010Y119380D03*
X897890Y119380D03*
X910590Y119380D03*
X923290Y119380D03*
D12*
X586850Y353060D03*
X568850Y353060D03*
D13*
X138430Y102870D03*
X153670Y102870D03*
X222250Y102870D03*
X237490Y102870D03*
X257810Y102870D03*
X273050Y102870D03*
X173990Y102870D03*
X189230Y102870D03*
M02*
