M48
;GenerationSoftware,Autodesk,EAGLE,9.6.2*%
;CreationDate,2022-07-27T19:44:44Z*%
FMAT,2
ICI,OFF
METRIC,TZ,000.000
T6C0.300
T5C0.350
T4C0.813
T3C0.900
T2C1.000
T1C1.100
%
G90
M71
T1
X70369Y2790
X67829Y2790
X65289Y2790
X62749Y2790
X60209Y2790
X57669Y2790
X55129Y2790
X52589Y2790
X34809Y2790
X50049Y2790
X47509Y2790
X24649Y2790
X27189Y2790
X29729Y2790
X32269Y2790
X44969Y2790
X24649Y28311
X42429Y2790
X39889Y2790
X37349Y2790
X22109Y2890
X70369Y28311
X67829Y28311
X65289Y28311
X62749Y28311
X60209Y28311
X57669Y28311
X55129Y28311
X52589Y28311
X50049Y28311
X47509Y28311
X44969Y28311
X42429Y28311
X39889Y28311
X37349Y28311
X34809Y28311
X32269Y28311
X29729Y28311
X27189Y28311
X22109Y28311
T2
X19590Y322
X22130Y322
X24670Y322
X27210Y322
X29750Y322
X32290Y322
X37370Y322
X37370Y30802
X34830Y30802
X32290Y30802
X29750Y30802
X27210Y30802
X24670Y30802
X22130Y30802
X19590Y30802
X17050Y30802
X14510Y30802
X11970Y30802
X9430Y30802
X6890Y30802
X43712Y19340
X43712Y16800
X43712Y14260
X43712Y11720
X34830Y322
X6890Y322
X9430Y322
X11970Y322
X14510Y322
X17050Y322
T3
X81543Y14349
X81543Y16889
T4
X75607Y18666
X78147Y18666
X78285Y12890
X75745Y12890
X78300Y15748
X75760Y15748
T5
X28143Y-1563
T6
X1270Y19685
X1270Y22225
X1270Y25400
X1905Y31115
X3175Y32385
X5715Y33020
X8890Y33020
X12700Y33020
X19050Y33020
X22225Y33020
X24765Y33020
X51435Y33020
X76835Y33020
X74295Y33020
X68580Y33020
X65405Y33020
X62230Y33020
X59055Y33020
X55880Y33020
X53340Y33020
X71755Y33020
X10160Y-1905
X7620Y-1905
X5080Y-1905
X2540Y-635
X1270Y6985
X1270Y10160
X35179Y12192
X85725Y14351
X48468Y16886
X47530Y16886
X17780Y-1905
X13970Y-1905
X15875Y33020
X76200Y-1905
X1270Y13335
X83185Y-1905
X86360Y-1905
X35179Y13335
X88900Y-1270
X91440Y7620
X91440Y11430
X80010Y-1905
X91440Y23495
X89535Y32385
X86995Y33020
X83820Y33020
X80645Y33020
X1270Y16510
X91440Y20955
M30