G04 EAGLE Gerber RS-274X export*
G75*
%MOMM*%
%FSLAX34Y34*%
%LPD*%
%INSoldermask Top*%
%IPPOS*%
%AMOC8*
5,1,8,0,0,1.08239X$1,22.5*%
G01*
%ADD10C,2.403200*%
%ADD11C,1.981200*%
%ADD12C,1.854200*%
%ADD13R,1.854200X1.854200*%
%ADD14C,2.082800*%
%ADD15R,1.854200X1.854200*%
%ADD16R,2.003200X1.703200*%
%ADD17R,2.003200X0.983200*%
%ADD18R,3.403200X2.203200*%
%ADD19R,1.473200X2.263200*%
%ADD20C,1.259600*%
%ADD21C,1.703200*%


D10*
X447500Y245000D03*
X447500Y22500D03*
X110000Y22500D03*
X442500Y300000D03*
D11*
X300670Y40960D03*
X300670Y66360D03*
X300670Y91760D03*
X300670Y117160D03*
X300670Y142560D03*
X300670Y167960D03*
X300670Y193360D03*
X300670Y218760D03*
X300670Y244160D03*
X300670Y269560D03*
X300670Y294960D03*
X300670Y320360D03*
X300670Y345760D03*
X300670Y371160D03*
X300670Y396560D03*
X300670Y421960D03*
X300670Y447360D03*
X300670Y472760D03*
X300670Y498160D03*
X554670Y498160D03*
X554670Y472760D03*
X554670Y447360D03*
X554670Y421960D03*
X554670Y396560D03*
X554670Y371160D03*
X554670Y345760D03*
X554670Y320360D03*
X554670Y294960D03*
X554670Y269560D03*
X554670Y244160D03*
X554670Y218760D03*
X554670Y193360D03*
X554670Y167960D03*
X554670Y142560D03*
X554670Y117160D03*
X554670Y91760D03*
X554670Y66360D03*
X554670Y40960D03*
X316860Y577790D03*
X291460Y577790D03*
X266060Y577790D03*
X240660Y577790D03*
D12*
X517908Y254320D03*
D13*
G36*
X483821Y264247D02*
X502359Y263891D01*
X502003Y245353D01*
X483465Y245709D01*
X483821Y264247D01*
G37*
D14*
X79582Y64556D03*
X14558Y64556D03*
X79582Y19344D03*
X14558Y19344D03*
D12*
X502580Y119630D03*
D15*
X502580Y94630D03*
D11*
X450010Y95110D03*
X450010Y120510D03*
X450010Y145910D03*
X450010Y171310D03*
D16*
X17810Y508320D03*
X17810Y482920D03*
X17810Y457520D03*
X17810Y381320D03*
X17810Y355920D03*
X17810Y330520D03*
X17810Y305120D03*
X17810Y279720D03*
X17810Y254320D03*
X17810Y228920D03*
X17810Y203520D03*
X261650Y203520D03*
X261650Y228920D03*
X261650Y254320D03*
X261650Y279720D03*
X261650Y305120D03*
X261650Y330520D03*
X261650Y355920D03*
X261650Y381320D03*
X261650Y457520D03*
X261650Y482920D03*
X261650Y508320D03*
D17*
X69880Y551500D03*
X69880Y538800D03*
X69880Y526100D03*
X69880Y470220D03*
X69880Y457520D03*
X69880Y444820D03*
X69880Y432120D03*
X69880Y419420D03*
X69880Y406720D03*
X69880Y394020D03*
X69880Y381320D03*
X212120Y381320D03*
X212120Y394020D03*
X212120Y406720D03*
X212120Y419420D03*
X212120Y432120D03*
X212120Y444820D03*
X212120Y457520D03*
X212120Y470220D03*
X212120Y526100D03*
X212120Y538800D03*
X212120Y551500D03*
D18*
X151500Y80000D03*
X233500Y80000D03*
D14*
X104800Y117500D03*
X117500Y136550D03*
X130200Y117500D03*
D19*
X174950Y147500D03*
X210050Y147500D03*
D20*
X482460Y19960D03*
X503690Y19960D03*
X519430Y208280D03*
X492760Y208280D03*
X24130Y132080D03*
D21*
X222500Y80000D03*
D20*
X482460Y46230D03*
X503690Y46230D03*
X68580Y132080D03*
D21*
X162500Y80000D03*
D20*
X171450Y147320D03*
X214630Y147320D03*
M02*
