G04 EAGLE Gerber RS-274X export*
G75*
%MOMM*%
%FSLAX34Y34*%
%LPD*%
%INSolderpaste Top*%
%IPPOS*%
%AMOC8*
5,1,8,0,0,1.08239X$1,22.5*%
G01*
%ADD10R,1.800000X1.500000*%
%ADD11R,1.800000X0.780000*%
%ADD12R,3.200000X2.000000*%
%ADD13R,1.270000X2.060000*%


D10*
X17810Y508320D03*
X17810Y482920D03*
X17810Y457520D03*
X17810Y381320D03*
X17810Y355920D03*
X17810Y330520D03*
X17810Y305120D03*
X17810Y279720D03*
X17810Y254320D03*
X17810Y228920D03*
X17810Y203520D03*
X261650Y203520D03*
X261650Y228920D03*
X261650Y254320D03*
X261650Y279720D03*
X261650Y305120D03*
X261650Y330520D03*
X261650Y355920D03*
X261650Y381320D03*
X261650Y457520D03*
X261650Y482920D03*
X261650Y508320D03*
D11*
X69880Y551500D03*
X69880Y538800D03*
X69880Y526100D03*
X69880Y470220D03*
X69880Y457520D03*
X69880Y444820D03*
X69880Y432120D03*
X69880Y419420D03*
X69880Y406720D03*
X69880Y394020D03*
X69880Y381320D03*
X212120Y381320D03*
X212120Y394020D03*
X212120Y406720D03*
X212120Y419420D03*
X212120Y432120D03*
X212120Y444820D03*
X212120Y457520D03*
X212120Y470220D03*
X212120Y526100D03*
X212120Y538800D03*
X212120Y551500D03*
D12*
X151500Y80000D03*
X233500Y80000D03*
D13*
X174950Y147500D03*
X210050Y147500D03*
M02*
