M48
;GenerationSoftware,Autodesk,EAGLE,9.6.2*%
;CreationDate,2021-12-21T13:15:05Z*%
FMAT,2
ICI,OFF
METRIC,TZ,000.000
T6C0.300
T5C0.650
T4C0.800
T3C1.000
T2C1.016
T1C2.800
%
G90
M71
T1
X69596Y8255
X69596Y30353
X70104Y35687
X70104Y2667
X2794Y2667
X2794Y35687
T2
X13462Y3048
X10922Y3048
X8382Y3048
X28702Y35941
X26162Y35941
X23622Y35941
X18542Y35941
X21082Y35941
X16002Y35941
X13462Y35941
X10922Y35941
X8382Y35941
X28702Y3048
X26162Y3048
X23622Y3048
X21082Y3048
X18542Y3048
X16002Y3048
T3
X59309Y4191
X56769Y4191
X54229Y4191
X51689Y4191
X49149Y4191
X44069Y4191
X38989Y4191
X36449Y4191
X33909Y4191
X46609Y4191
X33909Y34671
X36449Y34671
X38989Y34671
X41529Y34671
X44069Y34671
X46609Y34671
X49149Y34671
X51689Y34671
X54229Y34671
X56769Y34671
X64389Y34671
X59309Y34671
X61849Y34671
X41529Y4191
X35560Y15494
X35560Y18034
X35560Y20574
X35560Y23114
X64389Y4191
X61849Y4191
T4
X46609Y30861
X44069Y30861
X41529Y30861
X38989Y30861
X36449Y30861
X31369Y30861
X28829Y30861
X26289Y30861
X23749Y30861
X21209Y30861
X18669Y30861
X16129Y30861
X16129Y8001
X18669Y8001
X21209Y8001
X23749Y8001
X26289Y8001
X28829Y8001
X31369Y8001
X33909Y8001
X36449Y8001
X29845Y17907
X38989Y8001
X41529Y8001
X44069Y8001
X46609Y8001
X51689Y8001
X54229Y8001
X56769Y8001
X49149Y8001
X29845Y15367
X33909Y30861
X29845Y20447
X29845Y22987
X56769Y30861
X54229Y30861
X51689Y30861
X49149Y30861
T5
X71501Y32893
X10160Y13970
X26289Y21463
X24511Y25019
X20574Y25019
X16764Y21336
X23495Y21463
X24130Y17653
X68580Y32893
X20320Y17780
X19431Y21336
X5334Y13843
T6
X21336Y13589
X32258Y3429
X54610Y26670
X50800Y26670
X46990Y26670
X43180Y26670
X43180Y22860
X46990Y22860
X50800Y22860
X54610Y22860
X43180Y19050
X43180Y15240
X46990Y15240
X46990Y19050
X50800Y19050
X54610Y15240
X54610Y19050
X46990Y11430
X50800Y11430
X54610Y11430
X38100Y22860
X38100Y19050
X38100Y15240
X5842Y18161
X54610Y1270
X26416Y13843
X26416Y14605
X18161Y13843
X30099Y6731
X36195Y5842
X38608Y5842
X69850Y11430
X69850Y15240
X18161Y14605
X69850Y19050
X69850Y22860
X69850Y26670
X5080Y1270
X10160Y1270
X15240Y1270
X20320Y1270
X25400Y1270
X49530Y1270
X64770Y1270
X50800Y15240
X59690Y1270
X42799Y33528
X21336Y11557
X30480Y11430
X38100Y11430
X2540Y6350
X2540Y11430
X8890Y11430
X13970Y22860
X13970Y19050
X8890Y19050
X24384Y13843
X13970Y30480
X8890Y30480
X2540Y30480
X2540Y26670
X8890Y26670
X13970Y26670
X22860Y26670
X33020Y26670
X8890Y22860
M30