G04 EAGLE Gerber RS-274X export*
G75*
%MOMM*%
%FSLAX34Y34*%
%LPD*%
%INTop Copper*%
%IPPOS*%
%AMOC8*
5,1,8,0,0,1.08239X$1,22.5*%
G01*
%ADD10C,0.130000*%
%ADD11C,0.152400*%
%ADD12P,1.415766X8X292.500000*%
%ADD13C,1.778000*%
%ADD14C,1.900000*%
%ADD15R,2.550000X2.700000*%
%ADD16R,0.800000X1.200000*%
%ADD17C,1.508000*%
%ADD18R,1.400000X1.400000*%
%ADD19R,1.168400X1.600200*%
%ADD20C,1.879600*%
%ADD21C,0.706400*%
%ADD22C,1.056400*%
%ADD23C,0.406400*%
%ADD24C,0.508000*%
%ADD25C,0.200000*%
%ADD26C,0.812800*%
%ADD27C,0.254000*%
%ADD28C,0.756400*%
%ADD29C,0.609600*%

G36*
X81848Y3018D02*
X81848Y3018D01*
X81973Y3032D01*
X81987Y3038D01*
X82003Y3041D01*
X82117Y3092D01*
X82234Y3141D01*
X82246Y3150D01*
X82260Y3157D01*
X82356Y3239D01*
X82453Y3317D01*
X82462Y3330D01*
X82474Y3340D01*
X82543Y3446D01*
X82615Y3548D01*
X82620Y3563D01*
X82629Y3576D01*
X82665Y3697D01*
X82706Y3815D01*
X82706Y3831D01*
X82711Y3846D01*
X82713Y3971D01*
X82718Y4097D01*
X82715Y4112D01*
X82715Y4128D01*
X82681Y4249D01*
X82651Y4371D01*
X82644Y4385D01*
X82640Y4400D01*
X82574Y4506D01*
X82511Y4616D01*
X82500Y4626D01*
X82491Y4640D01*
X82398Y4724D01*
X82307Y4811D01*
X82294Y4818D01*
X82282Y4829D01*
X82064Y4935D01*
X82032Y4950D01*
X80507Y5446D01*
X78833Y6299D01*
X77312Y7404D01*
X75984Y8732D01*
X74879Y10253D01*
X74026Y11927D01*
X73445Y13714D01*
X73319Y14511D01*
X84090Y14511D01*
X84153Y14520D01*
X84218Y14519D01*
X84292Y14540D01*
X84369Y14551D01*
X84428Y14577D01*
X84490Y14594D01*
X84556Y14635D01*
X84626Y14667D01*
X84675Y14709D01*
X84730Y14742D01*
X84781Y14800D01*
X84840Y14850D01*
X84876Y14904D01*
X84919Y14952D01*
X84952Y15021D01*
X84995Y15086D01*
X85014Y15148D01*
X85042Y15205D01*
X85052Y15275D01*
X85077Y15356D01*
X85078Y15441D01*
X85089Y15510D01*
X85089Y16511D01*
X85091Y16511D01*
X85091Y15510D01*
X85100Y15446D01*
X85099Y15382D01*
X85120Y15307D01*
X85131Y15231D01*
X85157Y15172D01*
X85174Y15110D01*
X85215Y15044D01*
X85247Y14974D01*
X85289Y14925D01*
X85322Y14870D01*
X85380Y14818D01*
X85430Y14760D01*
X85484Y14724D01*
X85532Y14681D01*
X85601Y14648D01*
X85666Y14605D01*
X85728Y14586D01*
X85786Y14558D01*
X85855Y14547D01*
X85936Y14523D01*
X86021Y14522D01*
X86090Y14511D01*
X96861Y14511D01*
X96735Y13714D01*
X96154Y11927D01*
X95301Y10253D01*
X94196Y8732D01*
X92868Y7404D01*
X91347Y6299D01*
X89673Y5446D01*
X88148Y4950D01*
X88035Y4895D01*
X87920Y4843D01*
X87908Y4833D01*
X87894Y4826D01*
X87801Y4741D01*
X87706Y4660D01*
X87697Y4647D01*
X87686Y4636D01*
X87620Y4529D01*
X87551Y4424D01*
X87547Y4409D01*
X87539Y4396D01*
X87506Y4274D01*
X87469Y4154D01*
X87469Y4139D01*
X87465Y4123D01*
X87467Y3998D01*
X87465Y3872D01*
X87469Y3857D01*
X87470Y3842D01*
X87507Y3722D01*
X87540Y3600D01*
X87549Y3587D01*
X87553Y3572D01*
X87622Y3467D01*
X87689Y3360D01*
X87700Y3350D01*
X87709Y3337D01*
X87804Y3256D01*
X87898Y3171D01*
X87912Y3164D01*
X87924Y3154D01*
X88038Y3103D01*
X88152Y3048D01*
X88166Y3046D01*
X88181Y3039D01*
X88422Y3006D01*
X88456Y3001D01*
X702310Y3001D01*
X702352Y3007D01*
X702388Y3004D01*
X705736Y3267D01*
X705876Y3299D01*
X705966Y3313D01*
X712334Y5382D01*
X712336Y5383D01*
X712338Y5383D01*
X712370Y5399D01*
X712587Y5506D01*
X712600Y5517D01*
X712613Y5524D01*
X718029Y9460D01*
X718031Y9461D01*
X718033Y9462D01*
X718058Y9487D01*
X718232Y9656D01*
X718240Y9670D01*
X718250Y9681D01*
X722186Y15097D01*
X722187Y15099D01*
X722189Y15101D01*
X722205Y15132D01*
X722318Y15347D01*
X722321Y15363D01*
X722328Y15376D01*
X724397Y21744D01*
X724412Y21832D01*
X724412Y21833D01*
X724422Y21885D01*
X724443Y21974D01*
X724706Y25321D01*
X724704Y25363D01*
X724709Y25400D01*
X724709Y355600D01*
X724703Y355642D01*
X724706Y355678D01*
X724443Y359026D01*
X724411Y359166D01*
X724397Y359256D01*
X722328Y365624D01*
X722327Y365626D01*
X722327Y365628D01*
X722311Y365660D01*
X722204Y365877D01*
X722193Y365890D01*
X722186Y365903D01*
X718250Y371319D01*
X718249Y371321D01*
X718248Y371323D01*
X718229Y371342D01*
X718215Y371364D01*
X718149Y371424D01*
X718054Y371522D01*
X718040Y371530D01*
X718029Y371540D01*
X712613Y375476D01*
X712611Y375477D01*
X712609Y375479D01*
X712578Y375495D01*
X712363Y375608D01*
X712347Y375611D01*
X712334Y375618D01*
X705966Y377687D01*
X705825Y377712D01*
X705736Y377733D01*
X702388Y377996D01*
X702347Y377994D01*
X702310Y377999D01*
X435489Y377999D01*
X435457Y377995D01*
X435425Y377997D01*
X435318Y377975D01*
X435209Y377959D01*
X435180Y377946D01*
X435148Y377940D01*
X435052Y377888D01*
X434952Y377843D01*
X434928Y377822D01*
X434900Y377807D01*
X434821Y377731D01*
X434738Y377660D01*
X434721Y377633D01*
X434697Y377610D01*
X434644Y377515D01*
X434584Y377424D01*
X434574Y377393D01*
X434558Y377365D01*
X434533Y377258D01*
X434501Y377154D01*
X434501Y377122D01*
X434493Y377091D01*
X434499Y376981D01*
X434498Y376872D01*
X434506Y376841D01*
X434508Y376809D01*
X434544Y376706D01*
X434573Y376600D01*
X434590Y376573D01*
X434600Y376542D01*
X434654Y376469D01*
X434721Y376360D01*
X434757Y376328D01*
X434782Y376293D01*
X441752Y369323D01*
X443961Y367115D01*
X443961Y356350D01*
X443962Y356340D01*
X443961Y356331D01*
X443982Y356201D01*
X444001Y356070D01*
X444004Y356062D01*
X444006Y356053D01*
X444063Y355933D01*
X444117Y355814D01*
X444123Y355806D01*
X444127Y355798D01*
X444215Y355699D01*
X444300Y355599D01*
X444308Y355594D01*
X444314Y355587D01*
X444380Y355547D01*
X444536Y355445D01*
X444559Y355438D01*
X444578Y355427D01*
X446094Y354798D01*
X448778Y352114D01*
X450231Y348608D01*
X450231Y344812D01*
X448778Y341306D01*
X447729Y340257D01*
X447710Y340231D01*
X447685Y340210D01*
X447625Y340118D01*
X447560Y340031D01*
X447549Y340001D01*
X447531Y339974D01*
X447499Y339869D01*
X447460Y339767D01*
X447458Y339735D01*
X447448Y339704D01*
X447447Y339595D01*
X447439Y339486D01*
X447445Y339454D01*
X447445Y339422D01*
X447474Y339317D01*
X447496Y339210D01*
X447511Y339181D01*
X447520Y339150D01*
X447577Y339057D01*
X447629Y338961D01*
X447651Y338938D01*
X447668Y338910D01*
X447749Y338837D01*
X447825Y338759D01*
X447853Y338743D01*
X447877Y338721D01*
X447976Y338674D01*
X448071Y338620D01*
X448102Y338612D01*
X448131Y338598D01*
X448221Y338584D01*
X448345Y338555D01*
X448394Y338557D01*
X448436Y338551D01*
X458344Y338551D01*
X458376Y338555D01*
X458408Y338553D01*
X458515Y338575D01*
X458623Y338591D01*
X458653Y338604D01*
X458684Y338610D01*
X458781Y338662D01*
X458880Y338707D01*
X458905Y338728D01*
X458933Y338743D01*
X459012Y338819D01*
X459095Y338890D01*
X459112Y338917D01*
X459135Y338940D01*
X459189Y339035D01*
X459249Y339126D01*
X459259Y339157D01*
X459274Y339185D01*
X459300Y339291D01*
X459332Y339396D01*
X459332Y339428D01*
X459339Y339459D01*
X459334Y339569D01*
X459335Y339678D01*
X459327Y339709D01*
X459325Y339741D01*
X459289Y339844D01*
X459260Y339950D01*
X459243Y339977D01*
X459233Y340008D01*
X459179Y340081D01*
X459112Y340190D01*
X459076Y340222D01*
X459051Y340257D01*
X458002Y341306D01*
X456549Y344812D01*
X456549Y348608D01*
X458002Y352114D01*
X460686Y354798D01*
X464192Y356251D01*
X467988Y356251D01*
X471494Y354798D01*
X474178Y352114D01*
X475631Y348608D01*
X475631Y344812D01*
X474178Y341306D01*
X471494Y338622D01*
X467988Y337169D01*
X467939Y337169D01*
X467844Y337156D01*
X467748Y337151D01*
X467704Y337136D01*
X467659Y337129D01*
X467572Y337090D01*
X467481Y337058D01*
X467447Y337033D01*
X467403Y337013D01*
X467305Y336930D01*
X467232Y336877D01*
X462365Y332009D01*
X437917Y332009D01*
X437885Y332005D01*
X437853Y332007D01*
X437746Y331985D01*
X437638Y331969D01*
X437608Y331956D01*
X437577Y331950D01*
X437480Y331898D01*
X437381Y331853D01*
X437356Y331832D01*
X437328Y331817D01*
X437249Y331741D01*
X437166Y331670D01*
X437149Y331643D01*
X437126Y331620D01*
X437072Y331525D01*
X437012Y331434D01*
X437002Y331403D01*
X436987Y331375D01*
X436961Y331269D01*
X436930Y331164D01*
X436929Y331132D01*
X436922Y331100D01*
X436927Y330991D01*
X436926Y330882D01*
X436934Y330851D01*
X436936Y330819D01*
X436972Y330716D01*
X437001Y330610D01*
X437018Y330583D01*
X437029Y330552D01*
X437082Y330479D01*
X437149Y330370D01*
X437185Y330338D01*
X437210Y330303D01*
X437370Y330143D01*
X437447Y330086D01*
X437518Y330021D01*
X437560Y330001D01*
X437596Y329974D01*
X437686Y329940D01*
X437772Y329898D01*
X437814Y329892D01*
X437860Y329875D01*
X437987Y329865D01*
X438077Y329851D01*
X444228Y329851D01*
X449231Y324848D01*
X449231Y317772D01*
X444228Y312769D01*
X437152Y312769D01*
X432149Y317772D01*
X432149Y324848D01*
X432457Y325156D01*
X432496Y325207D01*
X432542Y325252D01*
X432580Y325319D01*
X432627Y325381D01*
X432649Y325441D01*
X432681Y325497D01*
X432699Y325573D01*
X432726Y325645D01*
X432731Y325709D01*
X432746Y325772D01*
X432742Y325849D01*
X432748Y325926D01*
X432735Y325989D01*
X432732Y326054D01*
X432706Y326127D01*
X432690Y326202D01*
X432660Y326259D01*
X432639Y326320D01*
X432598Y326377D01*
X432558Y326451D01*
X432499Y326512D01*
X432457Y326569D01*
X426420Y332607D01*
X426343Y332664D01*
X426272Y332729D01*
X426231Y332749D01*
X426194Y332776D01*
X426104Y332810D01*
X426018Y332852D01*
X425976Y332858D01*
X425930Y332875D01*
X425803Y332885D01*
X425713Y332899D01*
X258671Y332899D01*
X258661Y332898D01*
X258652Y332899D01*
X258522Y332878D01*
X258392Y332859D01*
X258383Y332856D01*
X258374Y332854D01*
X258254Y332797D01*
X258135Y332743D01*
X258127Y332737D01*
X258119Y332733D01*
X258020Y332645D01*
X257920Y332560D01*
X257915Y332552D01*
X257908Y332546D01*
X257868Y332480D01*
X257766Y332324D01*
X257759Y332301D01*
X257748Y332282D01*
X257632Y332004D01*
X256006Y330378D01*
X253880Y329497D01*
X251580Y329497D01*
X249454Y330378D01*
X247828Y332004D01*
X246947Y334130D01*
X246947Y336430D01*
X247828Y338556D01*
X249454Y340182D01*
X251580Y341063D01*
X253880Y341063D01*
X256006Y340182D01*
X256849Y339339D01*
X256866Y339326D01*
X256880Y339309D01*
X256979Y339242D01*
X257074Y339170D01*
X257095Y339162D01*
X257112Y339150D01*
X257227Y339112D01*
X257338Y339070D01*
X257360Y339069D01*
X257380Y339062D01*
X257500Y339058D01*
X257620Y339048D01*
X257641Y339053D01*
X257662Y339052D01*
X257778Y339082D01*
X257896Y339106D01*
X257915Y339116D01*
X257936Y339121D01*
X258039Y339182D01*
X258145Y339239D01*
X258160Y339254D01*
X258179Y339264D01*
X258260Y339351D01*
X258347Y339435D01*
X258357Y339454D01*
X258372Y339470D01*
X258426Y339576D01*
X258486Y339681D01*
X258491Y339702D01*
X258500Y339721D01*
X258523Y339838D01*
X258551Y339955D01*
X258550Y339977D01*
X258554Y339998D01*
X258544Y340089D01*
X258536Y340237D01*
X258524Y340272D01*
X258521Y340304D01*
X258429Y340646D01*
X258429Y345981D01*
X266970Y345981D01*
X267034Y345990D01*
X267098Y345989D01*
X267172Y346010D01*
X267249Y346021D01*
X267308Y346047D01*
X267370Y346064D01*
X267436Y346105D01*
X267506Y346137D01*
X267555Y346179D01*
X267610Y346212D01*
X267661Y346270D01*
X267720Y346320D01*
X267756Y346374D01*
X267799Y346422D01*
X267832Y346491D01*
X267875Y346556D01*
X267894Y346618D01*
X267922Y346675D01*
X267932Y346745D01*
X267957Y346826D01*
X267958Y346911D01*
X267969Y346980D01*
X267969Y347981D01*
X268970Y347981D01*
X269034Y347990D01*
X269098Y347989D01*
X269173Y348010D01*
X269249Y348021D01*
X269308Y348047D01*
X269370Y348064D01*
X269436Y348105D01*
X269506Y348137D01*
X269555Y348179D01*
X269610Y348212D01*
X269662Y348270D01*
X269720Y348320D01*
X269756Y348374D01*
X269799Y348422D01*
X269832Y348491D01*
X269875Y348556D01*
X269894Y348618D01*
X269922Y348676D01*
X269932Y348745D01*
X269957Y348826D01*
X269958Y348911D01*
X269969Y348980D01*
X269969Y357521D01*
X275305Y357521D01*
X275951Y357348D01*
X276354Y357115D01*
X276453Y357075D01*
X276549Y357028D01*
X276582Y357023D01*
X276616Y357009D01*
X276763Y356995D01*
X276854Y356981D01*
X278432Y356981D01*
X278496Y356990D01*
X278560Y356989D01*
X278635Y357010D01*
X278711Y357021D01*
X278770Y357047D01*
X278832Y357064D01*
X278898Y357105D01*
X278968Y357137D01*
X279017Y357179D01*
X279072Y357212D01*
X279124Y357270D01*
X279182Y357320D01*
X279218Y357374D01*
X279261Y357422D01*
X279294Y357491D01*
X279337Y357556D01*
X279356Y357618D01*
X279384Y357675D01*
X279395Y357745D01*
X279419Y357826D01*
X279420Y357911D01*
X279431Y357980D01*
X279431Y358212D01*
X279425Y358253D01*
X279428Y358295D01*
X279408Y358379D01*
X279391Y358491D01*
X279367Y358545D01*
X279355Y358595D01*
X278947Y359579D01*
X278947Y361781D01*
X279355Y362765D01*
X279364Y362801D01*
X279382Y362829D01*
X279790Y363814D01*
X281346Y365370D01*
X282013Y365647D01*
X282088Y365691D01*
X282167Y365727D01*
X282209Y365762D01*
X282256Y365790D01*
X282315Y365854D01*
X282381Y365910D01*
X282411Y365956D01*
X282449Y365996D01*
X282488Y366073D01*
X282536Y366146D01*
X282552Y366199D01*
X282577Y366248D01*
X282593Y366333D01*
X282618Y366416D01*
X282619Y366471D01*
X282629Y366525D01*
X282621Y366611D01*
X282622Y366698D01*
X282607Y366751D01*
X282602Y366805D01*
X282570Y366886D01*
X282547Y366970D01*
X282518Y367016D01*
X282498Y367067D01*
X282444Y367136D01*
X282399Y367210D01*
X282358Y367246D01*
X282324Y367290D01*
X282254Y367341D01*
X282189Y367399D01*
X282140Y367423D01*
X282095Y367455D01*
X282014Y367484D01*
X281936Y367522D01*
X281885Y367530D01*
X281830Y367549D01*
X281716Y367556D01*
X281631Y367569D01*
X246879Y367569D01*
X246784Y367556D01*
X246688Y367551D01*
X246644Y367536D01*
X246599Y367529D01*
X246512Y367490D01*
X246421Y367458D01*
X246387Y367433D01*
X246343Y367413D01*
X246245Y367330D01*
X246172Y367277D01*
X241053Y362158D01*
X240996Y362081D01*
X240931Y362010D01*
X240911Y361969D01*
X240884Y361932D01*
X240850Y361842D01*
X240808Y361756D01*
X240802Y361714D01*
X240785Y361668D01*
X240775Y361541D01*
X240761Y361451D01*
X240761Y330532D01*
X240774Y330437D01*
X240779Y330340D01*
X240794Y330297D01*
X240801Y330252D01*
X240840Y330165D01*
X240872Y330074D01*
X240897Y330040D01*
X240917Y329995D01*
X241000Y329898D01*
X241053Y329825D01*
X246031Y324848D01*
X246031Y317772D01*
X241028Y312769D01*
X233952Y312769D01*
X228949Y317772D01*
X228949Y324848D01*
X233927Y329825D01*
X233984Y329902D01*
X234049Y329973D01*
X234069Y330014D01*
X234096Y330051D01*
X234130Y330141D01*
X234172Y330227D01*
X234178Y330269D01*
X234195Y330314D01*
X234205Y330442D01*
X234219Y330532D01*
X234219Y364575D01*
X240588Y370943D01*
X240607Y370969D01*
X240632Y370990D01*
X240692Y371082D01*
X240757Y371169D01*
X240769Y371199D01*
X240786Y371226D01*
X240818Y371331D01*
X240857Y371433D01*
X240859Y371465D01*
X240869Y371496D01*
X240870Y371605D01*
X240879Y371714D01*
X240872Y371746D01*
X240872Y371778D01*
X240843Y371883D01*
X240821Y371990D01*
X240806Y372019D01*
X240797Y372050D01*
X240740Y372143D01*
X240688Y372239D01*
X240666Y372262D01*
X240649Y372290D01*
X240568Y372363D01*
X240492Y372441D01*
X240464Y372457D01*
X240440Y372479D01*
X240341Y372526D01*
X240246Y372580D01*
X240215Y372588D01*
X240186Y372602D01*
X240097Y372616D01*
X239972Y372645D01*
X239923Y372643D01*
X239881Y372649D01*
X175759Y372649D01*
X175664Y372636D01*
X175568Y372631D01*
X175524Y372616D01*
X175479Y372609D01*
X175392Y372570D01*
X175301Y372538D01*
X175267Y372513D01*
X175223Y372493D01*
X175125Y372410D01*
X175052Y372357D01*
X164853Y362158D01*
X164796Y362081D01*
X164731Y362010D01*
X164711Y361969D01*
X164684Y361932D01*
X164650Y361842D01*
X164608Y361756D01*
X164602Y361714D01*
X164585Y361668D01*
X164575Y361541D01*
X164561Y361451D01*
X164561Y330532D01*
X164574Y330437D01*
X164579Y330340D01*
X164594Y330297D01*
X164601Y330252D01*
X164640Y330165D01*
X164672Y330074D01*
X164697Y330040D01*
X164717Y329995D01*
X164800Y329898D01*
X164853Y329825D01*
X169831Y324848D01*
X169831Y317772D01*
X164828Y312769D01*
X157752Y312769D01*
X152749Y317772D01*
X152749Y324848D01*
X157727Y329825D01*
X157784Y329902D01*
X157849Y329973D01*
X157869Y330014D01*
X157896Y330051D01*
X157930Y330141D01*
X157972Y330227D01*
X157978Y330269D01*
X157995Y330314D01*
X158005Y330442D01*
X158019Y330532D01*
X158019Y364575D01*
X169738Y376293D01*
X169757Y376319D01*
X169782Y376340D01*
X169842Y376432D01*
X169907Y376519D01*
X169919Y376549D01*
X169936Y376576D01*
X169968Y376681D01*
X170007Y376783D01*
X170009Y376815D01*
X170019Y376846D01*
X170020Y376955D01*
X170029Y377064D01*
X170022Y377096D01*
X170022Y377128D01*
X169993Y377233D01*
X169971Y377340D01*
X169956Y377369D01*
X169947Y377400D01*
X169890Y377493D01*
X169838Y377589D01*
X169816Y377612D01*
X169799Y377640D01*
X169718Y377713D01*
X169642Y377791D01*
X169614Y377807D01*
X169590Y377829D01*
X169491Y377876D01*
X169396Y377930D01*
X169365Y377938D01*
X169336Y377952D01*
X169247Y377966D01*
X169122Y377995D01*
X169073Y377993D01*
X169031Y377999D01*
X29210Y377999D01*
X29168Y377993D01*
X29132Y377996D01*
X25784Y377733D01*
X25644Y377701D01*
X25554Y377687D01*
X19186Y375618D01*
X19184Y375617D01*
X19182Y375617D01*
X19150Y375601D01*
X18933Y375494D01*
X18920Y375483D01*
X18907Y375476D01*
X13491Y371540D01*
X13489Y371539D01*
X13487Y371538D01*
X13462Y371513D01*
X13387Y371440D01*
X13322Y371385D01*
X13309Y371364D01*
X13288Y371344D01*
X13280Y371330D01*
X13270Y371319D01*
X9334Y365903D01*
X9333Y365901D01*
X9331Y365899D01*
X9315Y365868D01*
X9202Y365653D01*
X9199Y365637D01*
X9192Y365624D01*
X7123Y359256D01*
X7098Y359115D01*
X7077Y359026D01*
X6814Y355678D01*
X6816Y355637D01*
X6811Y355600D01*
X6811Y274340D01*
X6815Y274308D01*
X6813Y274276D01*
X6835Y274169D01*
X6851Y274061D01*
X6864Y274031D01*
X6870Y274000D01*
X6922Y273903D01*
X6967Y273804D01*
X6988Y273779D01*
X7003Y273751D01*
X7079Y273672D01*
X7150Y273589D01*
X7177Y273572D01*
X7200Y273549D01*
X7295Y273495D01*
X7386Y273435D01*
X7417Y273426D01*
X7445Y273410D01*
X7552Y273384D01*
X7656Y273353D01*
X7688Y273352D01*
X7719Y273345D01*
X7829Y273350D01*
X7938Y273349D01*
X7969Y273357D01*
X8001Y273359D01*
X8104Y273395D01*
X8210Y273424D01*
X8237Y273441D01*
X8268Y273452D01*
X8341Y273505D01*
X8450Y273572D01*
X8482Y273608D01*
X8517Y273633D01*
X20118Y285235D01*
X21965Y287081D01*
X24194Y288005D01*
X52626Y288005D01*
X52690Y288014D01*
X52754Y288013D01*
X52829Y288034D01*
X52905Y288045D01*
X52964Y288071D01*
X53026Y288088D01*
X53092Y288129D01*
X53162Y288161D01*
X53211Y288203D01*
X53266Y288236D01*
X53318Y288294D01*
X53376Y288344D01*
X53412Y288398D01*
X53455Y288446D01*
X53488Y288515D01*
X53531Y288580D01*
X53550Y288642D01*
X53578Y288699D01*
X53589Y288769D01*
X53613Y288850D01*
X53614Y288935D01*
X53625Y289004D01*
X53625Y314882D01*
X53612Y314978D01*
X53607Y315074D01*
X53592Y315117D01*
X53585Y315162D01*
X53546Y315249D01*
X53514Y315340D01*
X53489Y315374D01*
X53469Y315419D01*
X53386Y315516D01*
X53333Y315589D01*
X51149Y317772D01*
X51149Y324848D01*
X56152Y329851D01*
X63228Y329851D01*
X68231Y324848D01*
X68231Y317772D01*
X66047Y315589D01*
X65990Y315512D01*
X65925Y315441D01*
X65905Y315400D01*
X65878Y315363D01*
X65844Y315274D01*
X65802Y315187D01*
X65796Y315145D01*
X65779Y315100D01*
X65769Y314972D01*
X65755Y314882D01*
X65755Y289004D01*
X65764Y288940D01*
X65763Y288876D01*
X65784Y288801D01*
X65795Y288725D01*
X65821Y288666D01*
X65838Y288604D01*
X65879Y288538D01*
X65911Y288468D01*
X65953Y288419D01*
X65986Y288364D01*
X66044Y288312D01*
X66094Y288254D01*
X66148Y288218D01*
X66196Y288175D01*
X66265Y288142D01*
X66330Y288099D01*
X66392Y288080D01*
X66449Y288052D01*
X66519Y288041D01*
X66600Y288017D01*
X66685Y288016D01*
X66754Y288005D01*
X321246Y288005D01*
X323475Y287081D01*
X341610Y268946D01*
X341680Y268894D01*
X341743Y268835D01*
X341792Y268810D01*
X341836Y268777D01*
X341917Y268747D01*
X341995Y268707D01*
X342048Y268697D01*
X342100Y268678D01*
X342186Y268671D01*
X342272Y268655D01*
X342326Y268660D01*
X342381Y268656D01*
X342466Y268674D01*
X342552Y268682D01*
X342603Y268702D01*
X342657Y268713D01*
X342734Y268754D01*
X342814Y268786D01*
X342858Y268820D01*
X342906Y268846D01*
X342968Y268906D01*
X343037Y268960D01*
X343069Y269004D01*
X343108Y269043D01*
X343151Y269118D01*
X343202Y269189D01*
X343220Y269240D01*
X343247Y269288D01*
X343267Y269373D01*
X343296Y269454D01*
X343299Y269509D01*
X343312Y269562D01*
X343308Y269649D01*
X343313Y269736D01*
X343301Y269785D01*
X343298Y269844D01*
X343260Y269952D01*
X343240Y270035D01*
X342447Y271949D01*
X342447Y273925D01*
X342434Y274020D01*
X342429Y274116D01*
X342414Y274159D01*
X342407Y274204D01*
X342368Y274292D01*
X342336Y274383D01*
X342311Y274417D01*
X342291Y274461D01*
X342208Y274559D01*
X342155Y274632D01*
X322272Y294514D01*
X322264Y294520D01*
X322259Y294527D01*
X322175Y294588D01*
X322149Y294611D01*
X322132Y294620D01*
X322046Y294684D01*
X322037Y294687D01*
X322030Y294692D01*
X321906Y294736D01*
X321783Y294783D01*
X321773Y294784D01*
X321764Y294787D01*
X321633Y294795D01*
X321501Y294805D01*
X321492Y294803D01*
X321483Y294804D01*
X321407Y294785D01*
X321225Y294747D01*
X321204Y294736D01*
X321183Y294731D01*
X319871Y294187D01*
X317669Y294187D01*
X315636Y295030D01*
X314080Y296586D01*
X313237Y298619D01*
X313237Y300821D01*
X314080Y302854D01*
X315636Y304410D01*
X316955Y304957D01*
X317030Y305001D01*
X317109Y305037D01*
X317151Y305072D01*
X317198Y305100D01*
X317257Y305164D01*
X317323Y305220D01*
X317353Y305266D01*
X317391Y305306D01*
X317430Y305383D01*
X317478Y305456D01*
X317494Y305509D01*
X317519Y305558D01*
X317535Y305643D01*
X317560Y305726D01*
X317561Y305781D01*
X317571Y305835D01*
X317563Y305921D01*
X317564Y306008D01*
X317549Y306061D01*
X317544Y306115D01*
X317512Y306196D01*
X317489Y306280D01*
X317460Y306326D01*
X317439Y306377D01*
X317386Y306446D01*
X317340Y306520D01*
X317300Y306556D01*
X317266Y306600D01*
X317196Y306651D01*
X317131Y306709D01*
X317082Y306733D01*
X317037Y306765D01*
X316955Y306794D01*
X316877Y306832D01*
X316827Y306840D01*
X316772Y306859D01*
X316658Y306866D01*
X316573Y306879D01*
X265457Y306879D01*
X259860Y312477D01*
X259783Y312534D01*
X259712Y312599D01*
X259671Y312619D01*
X259634Y312646D01*
X259544Y312680D01*
X259458Y312722D01*
X259416Y312728D01*
X259380Y312742D01*
X254349Y317772D01*
X254349Y324848D01*
X259352Y329851D01*
X266428Y329851D01*
X271431Y324848D01*
X271431Y317772D01*
X268245Y314587D01*
X268226Y314561D01*
X268201Y314540D01*
X268141Y314448D01*
X268076Y314361D01*
X268064Y314331D01*
X268047Y314304D01*
X268015Y314199D01*
X267976Y314097D01*
X267974Y314065D01*
X267964Y314034D01*
X267963Y313925D01*
X267954Y313816D01*
X267961Y313784D01*
X267960Y313752D01*
X267990Y313647D01*
X268012Y313540D01*
X268027Y313511D01*
X268036Y313480D01*
X268093Y313387D01*
X268144Y313291D01*
X268167Y313268D01*
X268184Y313240D01*
X268265Y313167D01*
X268341Y313089D01*
X268369Y313073D01*
X268393Y313051D01*
X268491Y313004D01*
X268587Y312950D01*
X268618Y312942D01*
X268647Y312928D01*
X268736Y312914D01*
X268861Y312885D01*
X268909Y312887D01*
X268952Y312881D01*
X282228Y312881D01*
X282260Y312885D01*
X282293Y312883D01*
X282399Y312905D01*
X282508Y312921D01*
X282537Y312934D01*
X282569Y312940D01*
X282665Y312992D01*
X282765Y313037D01*
X282789Y313058D01*
X282818Y313073D01*
X282896Y313149D01*
X282979Y313220D01*
X282997Y313247D01*
X283020Y313270D01*
X283073Y313365D01*
X283133Y313456D01*
X283143Y313487D01*
X283159Y313515D01*
X283184Y313621D01*
X283216Y313726D01*
X283216Y313758D01*
X283224Y313789D01*
X283218Y313899D01*
X283220Y314008D01*
X283211Y314039D01*
X283209Y314071D01*
X283173Y314174D01*
X283144Y314280D01*
X283127Y314307D01*
X283117Y314338D01*
X283063Y314411D01*
X282996Y314520D01*
X282960Y314552D01*
X282935Y314587D01*
X279749Y317772D01*
X279749Y324848D01*
X284752Y329851D01*
X291828Y329851D01*
X296831Y324848D01*
X296831Y317772D01*
X293645Y314587D01*
X293626Y314561D01*
X293601Y314540D01*
X293541Y314448D01*
X293476Y314361D01*
X293464Y314331D01*
X293447Y314304D01*
X293415Y314199D01*
X293376Y314097D01*
X293374Y314065D01*
X293364Y314034D01*
X293363Y313925D01*
X293354Y313816D01*
X293361Y313784D01*
X293360Y313752D01*
X293390Y313647D01*
X293412Y313540D01*
X293427Y313511D01*
X293436Y313480D01*
X293493Y313387D01*
X293544Y313291D01*
X293567Y313268D01*
X293584Y313240D01*
X293665Y313167D01*
X293741Y313089D01*
X293769Y313073D01*
X293793Y313051D01*
X293891Y313004D01*
X293987Y312950D01*
X294018Y312942D01*
X294047Y312928D01*
X294136Y312914D01*
X294261Y312885D01*
X294309Y312887D01*
X294352Y312881D01*
X307628Y312881D01*
X307660Y312885D01*
X307693Y312883D01*
X307799Y312905D01*
X307908Y312921D01*
X307937Y312934D01*
X307969Y312940D01*
X308065Y312992D01*
X308165Y313037D01*
X308189Y313058D01*
X308218Y313073D01*
X308296Y313149D01*
X308379Y313220D01*
X308397Y313247D01*
X308420Y313270D01*
X308473Y313365D01*
X308533Y313456D01*
X308543Y313487D01*
X308559Y313515D01*
X308584Y313621D01*
X308616Y313726D01*
X308616Y313758D01*
X308624Y313789D01*
X308618Y313899D01*
X308620Y314008D01*
X308611Y314039D01*
X308609Y314071D01*
X308573Y314174D01*
X308544Y314280D01*
X308527Y314307D01*
X308517Y314338D01*
X308463Y314411D01*
X308396Y314520D01*
X308360Y314552D01*
X308335Y314587D01*
X305149Y317772D01*
X305149Y324848D01*
X310152Y329851D01*
X317228Y329851D01*
X322231Y324848D01*
X322231Y317772D01*
X319045Y314587D01*
X319026Y314561D01*
X319001Y314540D01*
X318941Y314448D01*
X318876Y314361D01*
X318864Y314331D01*
X318847Y314304D01*
X318815Y314199D01*
X318776Y314097D01*
X318774Y314065D01*
X318764Y314034D01*
X318763Y313925D01*
X318754Y313816D01*
X318761Y313784D01*
X318760Y313752D01*
X318790Y313647D01*
X318812Y313540D01*
X318827Y313511D01*
X318836Y313480D01*
X318893Y313387D01*
X318944Y313291D01*
X318967Y313268D01*
X318984Y313240D01*
X319065Y313167D01*
X319141Y313089D01*
X319169Y313073D01*
X319193Y313051D01*
X319291Y313004D01*
X319387Y312950D01*
X319418Y312942D01*
X319447Y312928D01*
X319536Y312914D01*
X319661Y312885D01*
X319709Y312887D01*
X319752Y312881D01*
X333028Y312881D01*
X333060Y312885D01*
X333093Y312883D01*
X333199Y312905D01*
X333308Y312921D01*
X333337Y312934D01*
X333369Y312940D01*
X333465Y312992D01*
X333565Y313037D01*
X333589Y313058D01*
X333618Y313073D01*
X333696Y313149D01*
X333779Y313220D01*
X333797Y313247D01*
X333820Y313270D01*
X333873Y313365D01*
X333933Y313456D01*
X333943Y313487D01*
X333959Y313515D01*
X333984Y313621D01*
X334016Y313726D01*
X334016Y313758D01*
X334024Y313789D01*
X334018Y313899D01*
X334020Y314008D01*
X334011Y314039D01*
X334009Y314071D01*
X333973Y314174D01*
X333944Y314280D01*
X333927Y314307D01*
X333917Y314338D01*
X333863Y314411D01*
X333796Y314520D01*
X333760Y314552D01*
X333735Y314587D01*
X330549Y317772D01*
X330549Y324848D01*
X335552Y329851D01*
X342628Y329851D01*
X347631Y324848D01*
X347631Y317772D01*
X344445Y314587D01*
X344426Y314561D01*
X344401Y314540D01*
X344341Y314448D01*
X344276Y314361D01*
X344264Y314331D01*
X344247Y314304D01*
X344215Y314199D01*
X344176Y314097D01*
X344174Y314065D01*
X344164Y314034D01*
X344163Y313925D01*
X344154Y313816D01*
X344161Y313784D01*
X344160Y313752D01*
X344190Y313647D01*
X344212Y313540D01*
X344227Y313511D01*
X344236Y313480D01*
X344293Y313387D01*
X344344Y313291D01*
X344367Y313268D01*
X344384Y313240D01*
X344465Y313167D01*
X344541Y313089D01*
X344569Y313073D01*
X344593Y313051D01*
X344691Y313004D01*
X344787Y312950D01*
X344818Y312942D01*
X344847Y312928D01*
X344936Y312914D01*
X345061Y312885D01*
X345109Y312887D01*
X345152Y312881D01*
X356843Y312881D01*
X369943Y299780D01*
X369969Y299761D01*
X369990Y299736D01*
X370082Y299676D01*
X370169Y299611D01*
X370199Y299600D01*
X370226Y299582D01*
X370331Y299550D01*
X370433Y299511D01*
X370465Y299509D01*
X370496Y299500D01*
X370605Y299498D01*
X370714Y299490D01*
X370746Y299496D01*
X370778Y299496D01*
X370883Y299525D01*
X370990Y299547D01*
X371019Y299562D01*
X371050Y299571D01*
X371143Y299628D01*
X371239Y299680D01*
X371262Y299702D01*
X371290Y299719D01*
X371363Y299800D01*
X371441Y299876D01*
X371457Y299904D01*
X371479Y299928D01*
X371526Y300027D01*
X371580Y300122D01*
X371588Y300153D01*
X371602Y300182D01*
X371616Y300271D01*
X371645Y300396D01*
X371643Y300445D01*
X371649Y300487D01*
X371649Y307313D01*
X381057Y316720D01*
X381114Y316797D01*
X381179Y316868D01*
X381199Y316909D01*
X381226Y316946D01*
X381260Y317036D01*
X381302Y317122D01*
X381308Y317164D01*
X381325Y317210D01*
X381335Y317337D01*
X381349Y317427D01*
X381349Y324848D01*
X386352Y329851D01*
X393428Y329851D01*
X398431Y324848D01*
X398431Y317772D01*
X393428Y312769D01*
X386007Y312769D01*
X385912Y312756D01*
X385816Y312751D01*
X385773Y312736D01*
X385728Y312729D01*
X385640Y312690D01*
X385549Y312658D01*
X385515Y312633D01*
X385471Y312613D01*
X385373Y312530D01*
X385300Y312477D01*
X377943Y305120D01*
X377886Y305043D01*
X377821Y304972D01*
X377801Y304931D01*
X377774Y304894D01*
X377740Y304804D01*
X377698Y304718D01*
X377692Y304676D01*
X377675Y304630D01*
X377665Y304503D01*
X377651Y304413D01*
X377651Y252888D01*
X377664Y252793D01*
X377669Y252696D01*
X377684Y252653D01*
X377691Y252608D01*
X377730Y252521D01*
X377762Y252430D01*
X377787Y252396D01*
X377807Y252351D01*
X377890Y252254D01*
X377943Y252181D01*
X379340Y250784D01*
X380183Y248751D01*
X380183Y246549D01*
X379340Y244516D01*
X377784Y242960D01*
X375751Y242117D01*
X373549Y242117D01*
X371412Y243002D01*
X371298Y243032D01*
X371184Y243067D01*
X371161Y243067D01*
X371139Y243073D01*
X371021Y243069D01*
X370902Y243070D01*
X370880Y243064D01*
X370857Y243064D01*
X370745Y243027D01*
X370630Y242995D01*
X370611Y242983D01*
X370589Y242976D01*
X370491Y242909D01*
X370390Y242847D01*
X370375Y242830D01*
X370356Y242817D01*
X370281Y242726D01*
X370201Y242638D01*
X370191Y242617D01*
X370177Y242600D01*
X370130Y242490D01*
X370078Y242384D01*
X370075Y242363D01*
X370065Y242340D01*
X370043Y242156D01*
X370031Y242079D01*
X370031Y237877D01*
X370044Y237782D01*
X370049Y237686D01*
X370064Y237643D01*
X370071Y237598D01*
X370110Y237510D01*
X370142Y237419D01*
X370167Y237385D01*
X370187Y237341D01*
X370270Y237243D01*
X370323Y237170D01*
X400891Y206603D01*
X400891Y101607D01*
X400904Y101512D01*
X400909Y101416D01*
X400924Y101373D01*
X400931Y101328D01*
X400970Y101240D01*
X401002Y101149D01*
X401027Y101115D01*
X401047Y101071D01*
X401130Y100973D01*
X401183Y100900D01*
X407160Y94923D01*
X407237Y94866D01*
X407308Y94801D01*
X407349Y94781D01*
X407386Y94754D01*
X407476Y94720D01*
X407562Y94678D01*
X407604Y94672D01*
X407650Y94655D01*
X407777Y94645D01*
X407867Y94631D01*
X454280Y94631D01*
X454312Y94635D01*
X454344Y94633D01*
X454451Y94655D01*
X454559Y94671D01*
X454589Y94684D01*
X454620Y94690D01*
X454717Y94742D01*
X454816Y94787D01*
X454841Y94808D01*
X454869Y94823D01*
X454947Y94899D01*
X455031Y94970D01*
X455048Y94997D01*
X455071Y95020D01*
X455125Y95115D01*
X455185Y95206D01*
X455194Y95237D01*
X455210Y95265D01*
X455236Y95372D01*
X455267Y95476D01*
X455268Y95508D01*
X455275Y95539D01*
X455270Y95649D01*
X455271Y95758D01*
X455263Y95789D01*
X455261Y95821D01*
X455225Y95924D01*
X455196Y96030D01*
X455179Y96057D01*
X455168Y96088D01*
X455115Y96161D01*
X455048Y96270D01*
X455012Y96302D01*
X454987Y96337D01*
X445879Y105444D01*
X445879Y278443D01*
X445866Y278538D01*
X445861Y278634D01*
X445846Y278677D01*
X445839Y278722D01*
X445800Y278810D01*
X445768Y278901D01*
X445743Y278935D01*
X445723Y278979D01*
X445640Y279077D01*
X445587Y279150D01*
X414340Y310397D01*
X412260Y312477D01*
X412183Y312534D01*
X412112Y312599D01*
X412071Y312619D01*
X412034Y312646D01*
X411944Y312680D01*
X411858Y312722D01*
X411816Y312728D01*
X411780Y312742D01*
X406749Y317772D01*
X406749Y324848D01*
X411752Y329851D01*
X418828Y329851D01*
X423831Y324848D01*
X423831Y317772D01*
X420348Y314289D01*
X420309Y314238D01*
X420263Y314193D01*
X420225Y314126D01*
X420178Y314064D01*
X420156Y314003D01*
X420124Y313948D01*
X420106Y313872D01*
X420079Y313800D01*
X420074Y313736D01*
X420059Y313673D01*
X420063Y313596D01*
X420057Y313519D01*
X420070Y313456D01*
X420073Y313391D01*
X420099Y313318D01*
X420115Y313242D01*
X420145Y313186D01*
X420166Y313125D01*
X420207Y313068D01*
X420247Y312994D01*
X420306Y312933D01*
X420348Y312876D01*
X449830Y283393D01*
X450143Y283080D01*
X450195Y283042D01*
X450240Y282996D01*
X450269Y282979D01*
X450289Y282961D01*
X450326Y282943D01*
X450369Y282911D01*
X450429Y282888D01*
X450485Y282857D01*
X450523Y282848D01*
X450542Y282838D01*
X450575Y282833D01*
X450633Y282811D01*
X450697Y282806D01*
X450759Y282792D01*
X450821Y282795D01*
X450847Y282791D01*
X450853Y282791D01*
X450870Y282793D01*
X450914Y282790D01*
X450977Y282803D01*
X451041Y282806D01*
X451097Y282826D01*
X451132Y282831D01*
X451151Y282839D01*
X451190Y282847D01*
X451247Y282877D01*
X451308Y282899D01*
X451348Y282928D01*
X451389Y282947D01*
X451409Y282964D01*
X451439Y282980D01*
X451500Y283039D01*
X451557Y283080D01*
X462797Y294320D01*
X462854Y294397D01*
X462919Y294468D01*
X462939Y294509D01*
X462966Y294546D01*
X463000Y294636D01*
X463042Y294722D01*
X463048Y294764D01*
X463065Y294810D01*
X463075Y294937D01*
X463089Y295027D01*
X463089Y311818D01*
X463081Y311878D01*
X463081Y311897D01*
X463076Y311917D01*
X463071Y312010D01*
X463056Y312053D01*
X463049Y312098D01*
X463010Y312185D01*
X462978Y312276D01*
X462953Y312310D01*
X462933Y312355D01*
X462850Y312452D01*
X462797Y312525D01*
X457549Y317772D01*
X457549Y324848D01*
X462552Y329851D01*
X469628Y329851D01*
X474631Y324848D01*
X474631Y317772D01*
X469383Y312525D01*
X469326Y312448D01*
X469261Y312377D01*
X469241Y312336D01*
X469214Y312299D01*
X469180Y312209D01*
X469138Y312123D01*
X469132Y312081D01*
X469115Y312036D01*
X469107Y311937D01*
X469103Y311923D01*
X469102Y311892D01*
X469091Y311818D01*
X469091Y292830D01*
X469100Y292766D01*
X469099Y292702D01*
X469120Y292627D01*
X469131Y292551D01*
X469157Y292492D01*
X469174Y292430D01*
X469215Y292364D01*
X469247Y292294D01*
X469289Y292245D01*
X469322Y292190D01*
X469380Y292138D01*
X469430Y292080D01*
X469484Y292044D01*
X469532Y292001D01*
X469601Y291968D01*
X469666Y291925D01*
X469728Y291906D01*
X469785Y291878D01*
X469855Y291867D01*
X469936Y291843D01*
X470021Y291842D01*
X470090Y291831D01*
X606205Y291831D01*
X606791Y291245D01*
X606791Y104995D01*
X606205Y104409D01*
X496607Y104409D01*
X496575Y104405D01*
X496543Y104407D01*
X496436Y104385D01*
X496328Y104369D01*
X496298Y104356D01*
X496267Y104350D01*
X496170Y104298D01*
X496071Y104253D01*
X496046Y104232D01*
X496018Y104217D01*
X495939Y104141D01*
X495856Y104070D01*
X495839Y104043D01*
X495816Y104020D01*
X495762Y103925D01*
X495702Y103834D01*
X495692Y103803D01*
X495677Y103775D01*
X495651Y103669D01*
X495620Y103564D01*
X495619Y103532D01*
X495612Y103501D01*
X495617Y103391D01*
X495616Y103282D01*
X495624Y103251D01*
X495626Y103219D01*
X495662Y103116D01*
X495691Y103010D01*
X495708Y102983D01*
X495718Y102952D01*
X495772Y102879D01*
X495839Y102770D01*
X495875Y102738D01*
X495900Y102703D01*
X498023Y100580D01*
X505031Y93573D01*
X505031Y36301D01*
X482239Y13509D01*
X300053Y13509D01*
X300043Y13508D01*
X300034Y13509D01*
X299904Y13488D01*
X299773Y13469D01*
X299765Y13466D01*
X299755Y13464D01*
X299636Y13407D01*
X299516Y13353D01*
X299509Y13347D01*
X299501Y13343D01*
X299402Y13255D01*
X299302Y13170D01*
X299297Y13162D01*
X299290Y13156D01*
X299250Y13090D01*
X299148Y12934D01*
X299141Y12911D01*
X299129Y12892D01*
X297953Y10053D01*
X294747Y6847D01*
X290557Y5111D01*
X286023Y5111D01*
X281833Y6847D01*
X278627Y10053D01*
X276891Y14243D01*
X276891Y18777D01*
X278627Y22967D01*
X280163Y24503D01*
X280183Y24529D01*
X280207Y24550D01*
X280267Y24642D01*
X280332Y24729D01*
X280344Y24759D01*
X280362Y24786D01*
X280394Y24891D01*
X280432Y24993D01*
X280435Y25025D01*
X280444Y25056D01*
X280445Y25165D01*
X280454Y25274D01*
X280447Y25306D01*
X280448Y25338D01*
X280419Y25443D01*
X280396Y25550D01*
X280381Y25579D01*
X280372Y25610D01*
X280315Y25703D01*
X280264Y25799D01*
X280241Y25822D01*
X280224Y25850D01*
X280143Y25923D01*
X280067Y26001D01*
X280039Y26017D01*
X280015Y26039D01*
X279917Y26086D01*
X279822Y26140D01*
X279790Y26148D01*
X279761Y26162D01*
X279672Y26176D01*
X279547Y26205D01*
X279499Y26203D01*
X279457Y26209D01*
X274707Y26209D01*
X274612Y26196D01*
X274516Y26191D01*
X274473Y26176D01*
X274428Y26169D01*
X274340Y26130D01*
X274249Y26098D01*
X274215Y26073D01*
X274171Y26053D01*
X274074Y25970D01*
X274000Y25917D01*
X272509Y24425D01*
X272470Y24373D01*
X272424Y24329D01*
X272386Y24261D01*
X272339Y24199D01*
X272317Y24139D01*
X272285Y24083D01*
X272267Y24008D01*
X272240Y23935D01*
X272235Y23871D01*
X272220Y23809D01*
X272224Y23731D01*
X272218Y23654D01*
X272231Y23591D01*
X272234Y23527D01*
X272260Y23454D01*
X272276Y23378D01*
X272306Y23321D01*
X272327Y23261D01*
X272368Y23204D01*
X272408Y23129D01*
X272467Y23068D01*
X272509Y23012D01*
X272553Y22967D01*
X274289Y18777D01*
X274289Y14243D01*
X272553Y10053D01*
X269347Y6847D01*
X265157Y5111D01*
X260623Y5111D01*
X256433Y6847D01*
X253227Y10053D01*
X251491Y14243D01*
X251491Y18777D01*
X253227Y22967D01*
X256433Y26173D01*
X260623Y27909D01*
X265157Y27909D01*
X266201Y27477D01*
X266210Y27474D01*
X266218Y27470D01*
X266347Y27439D01*
X266474Y27407D01*
X266483Y27407D01*
X266492Y27405D01*
X266624Y27411D01*
X266756Y27416D01*
X266765Y27419D01*
X266774Y27419D01*
X266898Y27462D01*
X267024Y27503D01*
X267032Y27508D01*
X267041Y27511D01*
X267103Y27557D01*
X267257Y27662D01*
X267272Y27680D01*
X267290Y27693D01*
X269757Y30160D01*
X270056Y30459D01*
X270108Y30529D01*
X270167Y30592D01*
X270192Y30641D01*
X270225Y30685D01*
X270256Y30766D01*
X270295Y30844D01*
X270305Y30897D01*
X270325Y30949D01*
X270331Y31035D01*
X270347Y31121D01*
X270342Y31175D01*
X270346Y31230D01*
X270329Y31315D01*
X270320Y31401D01*
X270300Y31452D01*
X270289Y31506D01*
X270248Y31583D01*
X270216Y31663D01*
X270182Y31706D01*
X270156Y31755D01*
X270096Y31817D01*
X270042Y31886D01*
X269998Y31918D01*
X269960Y31957D01*
X269884Y32000D01*
X269814Y32051D01*
X269762Y32069D01*
X269714Y32096D01*
X269630Y32116D01*
X269548Y32145D01*
X269493Y32148D01*
X269440Y32161D01*
X269353Y32157D01*
X269266Y32162D01*
X269217Y32150D01*
X269158Y32147D01*
X269051Y32109D01*
X268967Y32089D01*
X265157Y30511D01*
X260623Y30511D01*
X256433Y32247D01*
X253227Y35453D01*
X251491Y39643D01*
X251491Y44177D01*
X253227Y48367D01*
X256433Y51573D01*
X260623Y53309D01*
X265157Y53309D01*
X266201Y52877D01*
X266210Y52874D01*
X266218Y52870D01*
X266347Y52839D01*
X266474Y52807D01*
X266483Y52807D01*
X266492Y52805D01*
X266625Y52811D01*
X266756Y52816D01*
X266765Y52818D01*
X266774Y52819D01*
X266899Y52862D01*
X267024Y52903D01*
X267032Y52908D01*
X267041Y52911D01*
X267103Y52957D01*
X267257Y53062D01*
X267272Y53080D01*
X267290Y53093D01*
X272297Y58100D01*
X274347Y60151D01*
X280958Y60151D01*
X280990Y60155D01*
X281023Y60153D01*
X281129Y60175D01*
X281238Y60191D01*
X281267Y60204D01*
X281299Y60210D01*
X281395Y60262D01*
X281495Y60307D01*
X281519Y60328D01*
X281548Y60343D01*
X281626Y60419D01*
X281709Y60490D01*
X281727Y60517D01*
X281750Y60540D01*
X281803Y60635D01*
X281863Y60726D01*
X281873Y60757D01*
X281889Y60785D01*
X281914Y60891D01*
X281946Y60996D01*
X281946Y61028D01*
X281954Y61059D01*
X281948Y61169D01*
X281950Y61278D01*
X281941Y61309D01*
X281939Y61341D01*
X281904Y61444D01*
X281874Y61550D01*
X281857Y61577D01*
X281847Y61608D01*
X281793Y61681D01*
X281726Y61790D01*
X281690Y61822D01*
X281665Y61857D01*
X279749Y63772D01*
X279749Y70848D01*
X284752Y75851D01*
X291828Y75851D01*
X296831Y70848D01*
X296831Y63772D01*
X294915Y61857D01*
X294896Y61831D01*
X294871Y61810D01*
X294811Y61718D01*
X294746Y61631D01*
X294734Y61601D01*
X294717Y61574D01*
X294685Y61469D01*
X294646Y61367D01*
X294644Y61335D01*
X294634Y61304D01*
X294633Y61195D01*
X294624Y61086D01*
X294631Y61054D01*
X294630Y61022D01*
X294660Y60917D01*
X294682Y60810D01*
X294697Y60781D01*
X294706Y60750D01*
X294763Y60657D01*
X294814Y60561D01*
X294837Y60538D01*
X294854Y60510D01*
X294935Y60437D01*
X295011Y60359D01*
X295039Y60343D01*
X295063Y60321D01*
X295161Y60274D01*
X295257Y60220D01*
X295288Y60212D01*
X295317Y60198D01*
X295406Y60184D01*
X295531Y60155D01*
X295579Y60157D01*
X295622Y60151D01*
X306358Y60151D01*
X306390Y60155D01*
X306423Y60153D01*
X306529Y60175D01*
X306638Y60191D01*
X306667Y60204D01*
X306699Y60210D01*
X306795Y60262D01*
X306895Y60307D01*
X306919Y60328D01*
X306948Y60343D01*
X307026Y60419D01*
X307109Y60490D01*
X307127Y60517D01*
X307150Y60540D01*
X307203Y60635D01*
X307263Y60726D01*
X307273Y60757D01*
X307289Y60785D01*
X307314Y60891D01*
X307346Y60996D01*
X307346Y61028D01*
X307354Y61059D01*
X307348Y61169D01*
X307350Y61278D01*
X307341Y61309D01*
X307339Y61341D01*
X307304Y61444D01*
X307274Y61550D01*
X307257Y61577D01*
X307247Y61608D01*
X307193Y61681D01*
X307126Y61790D01*
X307090Y61822D01*
X307065Y61857D01*
X305149Y63772D01*
X305149Y70848D01*
X310152Y75851D01*
X317228Y75851D01*
X322231Y70848D01*
X322231Y63772D01*
X320315Y61857D01*
X320296Y61831D01*
X320271Y61810D01*
X320211Y61718D01*
X320146Y61631D01*
X320134Y61601D01*
X320117Y61574D01*
X320085Y61469D01*
X320046Y61367D01*
X320044Y61335D01*
X320034Y61304D01*
X320033Y61195D01*
X320024Y61086D01*
X320031Y61054D01*
X320030Y61022D01*
X320060Y60917D01*
X320082Y60810D01*
X320097Y60781D01*
X320106Y60750D01*
X320163Y60657D01*
X320214Y60561D01*
X320237Y60538D01*
X320254Y60510D01*
X320335Y60437D01*
X320411Y60359D01*
X320439Y60343D01*
X320463Y60321D01*
X320561Y60274D01*
X320657Y60220D01*
X320688Y60212D01*
X320717Y60198D01*
X320806Y60184D01*
X320931Y60155D01*
X320979Y60157D01*
X321022Y60151D01*
X331758Y60151D01*
X331790Y60155D01*
X331823Y60153D01*
X331929Y60175D01*
X332038Y60191D01*
X332067Y60204D01*
X332099Y60210D01*
X332195Y60262D01*
X332295Y60307D01*
X332319Y60328D01*
X332348Y60343D01*
X332426Y60419D01*
X332509Y60490D01*
X332527Y60517D01*
X332550Y60540D01*
X332603Y60635D01*
X332663Y60726D01*
X332673Y60757D01*
X332689Y60785D01*
X332714Y60891D01*
X332746Y60996D01*
X332746Y61028D01*
X332754Y61059D01*
X332748Y61169D01*
X332750Y61278D01*
X332741Y61309D01*
X332739Y61341D01*
X332704Y61444D01*
X332674Y61550D01*
X332657Y61577D01*
X332647Y61608D01*
X332593Y61681D01*
X332526Y61790D01*
X332490Y61822D01*
X332465Y61857D01*
X330549Y63772D01*
X330549Y70848D01*
X335552Y75851D01*
X342628Y75851D01*
X347631Y70848D01*
X347631Y63772D01*
X345715Y61857D01*
X345696Y61831D01*
X345671Y61810D01*
X345611Y61718D01*
X345546Y61631D01*
X345534Y61601D01*
X345517Y61574D01*
X345485Y61469D01*
X345446Y61367D01*
X345444Y61335D01*
X345434Y61304D01*
X345433Y61195D01*
X345424Y61086D01*
X345431Y61054D01*
X345430Y61022D01*
X345460Y60917D01*
X345482Y60810D01*
X345497Y60781D01*
X345506Y60750D01*
X345563Y60657D01*
X345614Y60561D01*
X345637Y60538D01*
X345654Y60510D01*
X345735Y60437D01*
X345811Y60359D01*
X345839Y60343D01*
X345863Y60321D01*
X345961Y60274D01*
X346057Y60220D01*
X346088Y60212D01*
X346117Y60198D01*
X346206Y60184D01*
X346331Y60155D01*
X346379Y60157D01*
X346422Y60151D01*
X356395Y60151D01*
X356427Y60155D01*
X356459Y60153D01*
X356566Y60175D01*
X356674Y60191D01*
X356703Y60204D01*
X356735Y60210D01*
X356831Y60262D01*
X356931Y60307D01*
X356955Y60328D01*
X356984Y60343D01*
X357062Y60419D01*
X357145Y60490D01*
X357163Y60517D01*
X357186Y60540D01*
X357240Y60635D01*
X357300Y60726D01*
X357309Y60757D01*
X357325Y60785D01*
X357350Y60891D01*
X357382Y60996D01*
X357383Y61028D01*
X357390Y61059D01*
X357384Y61169D01*
X357386Y61278D01*
X357377Y61309D01*
X357376Y61341D01*
X357340Y61444D01*
X357311Y61550D01*
X357294Y61577D01*
X357283Y61608D01*
X357230Y61681D01*
X357162Y61790D01*
X357126Y61822D01*
X357101Y61857D01*
X355409Y63549D01*
X355409Y65311D01*
X363490Y65311D01*
X363553Y65320D01*
X363618Y65319D01*
X363692Y65340D01*
X363769Y65351D01*
X363828Y65377D01*
X363890Y65394D01*
X363956Y65435D01*
X364026Y65467D01*
X364075Y65509D01*
X364130Y65542D01*
X364181Y65600D01*
X364240Y65650D01*
X364276Y65704D01*
X364319Y65752D01*
X364352Y65821D01*
X364395Y65886D01*
X364414Y65948D01*
X364442Y66005D01*
X364452Y66075D01*
X364477Y66156D01*
X364478Y66241D01*
X364489Y66310D01*
X364489Y67311D01*
X364491Y67311D01*
X364491Y66310D01*
X364500Y66246D01*
X364499Y66182D01*
X364520Y66107D01*
X364531Y66031D01*
X364557Y65972D01*
X364574Y65910D01*
X364615Y65844D01*
X364647Y65774D01*
X364689Y65725D01*
X364722Y65670D01*
X364780Y65618D01*
X364830Y65560D01*
X364884Y65524D01*
X364932Y65481D01*
X365001Y65448D01*
X365066Y65405D01*
X365128Y65386D01*
X365186Y65358D01*
X365255Y65347D01*
X365336Y65323D01*
X365421Y65322D01*
X365490Y65311D01*
X373571Y65311D01*
X373571Y63549D01*
X371879Y61857D01*
X371859Y61831D01*
X371835Y61810D01*
X371775Y61718D01*
X371709Y61631D01*
X371698Y61601D01*
X371680Y61574D01*
X371648Y61469D01*
X371610Y61367D01*
X371607Y61335D01*
X371598Y61304D01*
X371596Y61195D01*
X371588Y61086D01*
X371595Y61054D01*
X371594Y61022D01*
X371623Y60917D01*
X371646Y60810D01*
X371661Y60781D01*
X371669Y60750D01*
X371727Y60657D01*
X371778Y60561D01*
X371801Y60538D01*
X371818Y60510D01*
X371899Y60437D01*
X371975Y60359D01*
X372003Y60343D01*
X372027Y60321D01*
X372125Y60274D01*
X372220Y60220D01*
X372252Y60212D01*
X372281Y60198D01*
X372370Y60184D01*
X372495Y60155D01*
X372543Y60157D01*
X372585Y60151D01*
X382558Y60151D01*
X382590Y60155D01*
X382623Y60153D01*
X382729Y60175D01*
X382838Y60191D01*
X382867Y60204D01*
X382899Y60210D01*
X382995Y60262D01*
X383095Y60307D01*
X383119Y60328D01*
X383148Y60343D01*
X383226Y60419D01*
X383309Y60490D01*
X383327Y60517D01*
X383350Y60540D01*
X383403Y60635D01*
X383463Y60726D01*
X383473Y60757D01*
X383489Y60785D01*
X383514Y60891D01*
X383546Y60996D01*
X383546Y61028D01*
X383554Y61059D01*
X383548Y61169D01*
X383550Y61278D01*
X383541Y61309D01*
X383539Y61341D01*
X383504Y61444D01*
X383474Y61550D01*
X383457Y61577D01*
X383447Y61608D01*
X383393Y61681D01*
X383326Y61790D01*
X383290Y61822D01*
X383265Y61857D01*
X381349Y63772D01*
X381349Y70848D01*
X386597Y76095D01*
X386654Y76172D01*
X386719Y76243D01*
X386739Y76284D01*
X386766Y76321D01*
X386800Y76411D01*
X386842Y76497D01*
X386848Y76539D01*
X386865Y76584D01*
X386875Y76712D01*
X386889Y76802D01*
X386889Y183763D01*
X386876Y183858D01*
X386871Y183954D01*
X386856Y183997D01*
X386849Y184042D01*
X386810Y184130D01*
X386778Y184221D01*
X386753Y184255D01*
X386733Y184299D01*
X386650Y184397D01*
X386597Y184470D01*
X382590Y188477D01*
X382513Y188534D01*
X382442Y188599D01*
X382401Y188619D01*
X382364Y188646D01*
X382274Y188680D01*
X382188Y188722D01*
X382146Y188728D01*
X382100Y188745D01*
X381973Y188755D01*
X381883Y188769D01*
X363076Y188769D01*
X363044Y188765D01*
X363012Y188767D01*
X362905Y188745D01*
X362797Y188729D01*
X362767Y188716D01*
X362736Y188710D01*
X362639Y188658D01*
X362540Y188613D01*
X362515Y188592D01*
X362487Y188577D01*
X362408Y188501D01*
X362325Y188430D01*
X362308Y188403D01*
X362285Y188380D01*
X362231Y188285D01*
X362171Y188194D01*
X362161Y188163D01*
X362146Y188135D01*
X362120Y188029D01*
X362088Y187924D01*
X362088Y187892D01*
X362081Y187861D01*
X362086Y187751D01*
X362085Y187642D01*
X362093Y187611D01*
X362095Y187579D01*
X362131Y187476D01*
X362160Y187370D01*
X362177Y187343D01*
X362187Y187312D01*
X362241Y187239D01*
X362308Y187130D01*
X362344Y187098D01*
X362369Y187063D01*
X363688Y185744D01*
X365141Y182238D01*
X365141Y178442D01*
X363688Y174936D01*
X361004Y172252D01*
X357498Y170799D01*
X353702Y170799D01*
X350196Y172252D01*
X347512Y174936D01*
X346059Y178442D01*
X346059Y182238D01*
X347512Y185744D01*
X348831Y187063D01*
X348850Y187089D01*
X348875Y187110D01*
X348935Y187202D01*
X349000Y187289D01*
X349011Y187319D01*
X349029Y187346D01*
X349061Y187451D01*
X349100Y187553D01*
X349102Y187585D01*
X349112Y187616D01*
X349113Y187725D01*
X349121Y187834D01*
X349115Y187866D01*
X349115Y187898D01*
X349086Y188003D01*
X349064Y188110D01*
X349049Y188139D01*
X349040Y188170D01*
X348983Y188263D01*
X348931Y188359D01*
X348909Y188382D01*
X348892Y188410D01*
X348811Y188483D01*
X348735Y188561D01*
X348707Y188577D01*
X348683Y188599D01*
X348584Y188646D01*
X348489Y188700D01*
X348458Y188708D01*
X348429Y188722D01*
X348339Y188736D01*
X348215Y188765D01*
X348166Y188763D01*
X348124Y188769D01*
X306565Y188769D01*
X306533Y188765D01*
X306501Y188767D01*
X306394Y188745D01*
X306286Y188729D01*
X306256Y188716D01*
X306225Y188710D01*
X306128Y188658D01*
X306029Y188613D01*
X306004Y188592D01*
X305976Y188577D01*
X305898Y188501D01*
X305815Y188430D01*
X305797Y188403D01*
X305774Y188380D01*
X305720Y188285D01*
X305660Y188194D01*
X305651Y188163D01*
X305635Y188135D01*
X305610Y188029D01*
X305578Y187924D01*
X305577Y187892D01*
X305570Y187861D01*
X305575Y187751D01*
X305574Y187642D01*
X305583Y187611D01*
X305584Y187579D01*
X305620Y187476D01*
X305649Y187370D01*
X305666Y187343D01*
X305677Y187312D01*
X305730Y187239D01*
X305797Y187130D01*
X305833Y187098D01*
X305858Y187063D01*
X307683Y185239D01*
X309341Y181236D01*
X309341Y176904D01*
X307683Y172901D01*
X304619Y169837D01*
X300616Y168179D01*
X296284Y168179D01*
X292281Y169837D01*
X289217Y172901D01*
X287559Y176904D01*
X287559Y181236D01*
X289217Y185239D01*
X291096Y187117D01*
X291134Y187169D01*
X291180Y187214D01*
X291219Y187281D01*
X291265Y187343D01*
X291288Y187403D01*
X291319Y187459D01*
X291337Y187535D01*
X291364Y187607D01*
X291369Y187671D01*
X291384Y187734D01*
X291380Y187811D01*
X291386Y187888D01*
X291373Y187951D01*
X291370Y188015D01*
X291344Y188088D01*
X291329Y188164D01*
X291299Y188221D01*
X291277Y188282D01*
X291236Y188338D01*
X291196Y188413D01*
X291137Y188474D01*
X291130Y188484D01*
X291119Y188502D01*
X291113Y188507D01*
X291096Y188531D01*
X288807Y190820D01*
X288806Y190820D01*
X281479Y198147D01*
X281479Y224763D01*
X286657Y229940D01*
X286714Y230017D01*
X286779Y230088D01*
X286799Y230129D01*
X286826Y230166D01*
X286860Y230256D01*
X286902Y230342D01*
X286908Y230384D01*
X286925Y230430D01*
X286935Y230557D01*
X286949Y230647D01*
X286949Y232158D01*
X288700Y236385D01*
X291935Y239620D01*
X296162Y241371D01*
X300738Y241371D01*
X304965Y239620D01*
X308200Y236385D01*
X309951Y232158D01*
X309951Y227582D01*
X308200Y223355D01*
X304965Y220120D01*
X300738Y218369D01*
X296162Y218369D01*
X291935Y220120D01*
X289336Y222719D01*
X289285Y222758D01*
X289240Y222804D01*
X289173Y222842D01*
X289111Y222889D01*
X289050Y222911D01*
X288995Y222943D01*
X288919Y222961D01*
X288847Y222988D01*
X288783Y222993D01*
X288720Y223008D01*
X288643Y223004D01*
X288566Y223010D01*
X288503Y222997D01*
X288438Y222994D01*
X288365Y222968D01*
X288289Y222952D01*
X288233Y222922D01*
X288172Y222901D01*
X288115Y222860D01*
X288040Y222820D01*
X287980Y222761D01*
X287923Y222719D01*
X287773Y222570D01*
X287716Y222493D01*
X287651Y222422D01*
X287631Y222381D01*
X287604Y222344D01*
X287570Y222254D01*
X287528Y222168D01*
X287522Y222126D01*
X287505Y222080D01*
X287499Y222012D01*
X287493Y221991D01*
X287492Y221935D01*
X287481Y221863D01*
X287481Y211315D01*
X287485Y211283D01*
X287483Y211251D01*
X287505Y211144D01*
X287521Y211036D01*
X287534Y211006D01*
X287540Y210975D01*
X287592Y210878D01*
X287637Y210779D01*
X287658Y210754D01*
X287673Y210726D01*
X287749Y210648D01*
X287820Y210565D01*
X287847Y210547D01*
X287870Y210524D01*
X287965Y210470D01*
X288056Y210410D01*
X288087Y210401D01*
X288115Y210385D01*
X288221Y210360D01*
X288326Y210328D01*
X288358Y210327D01*
X288389Y210320D01*
X288499Y210325D01*
X288608Y210324D01*
X288639Y210332D01*
X288671Y210334D01*
X288774Y210370D01*
X288880Y210399D01*
X288907Y210416D01*
X288938Y210427D01*
X289011Y210480D01*
X289120Y210547D01*
X289152Y210583D01*
X289187Y210608D01*
X292281Y213703D01*
X296284Y215361D01*
X300616Y215361D01*
X303168Y214304D01*
X303177Y214302D01*
X303185Y214297D01*
X303314Y214266D01*
X303441Y214234D01*
X303450Y214234D01*
X303460Y214232D01*
X303592Y214239D01*
X303723Y214243D01*
X303732Y214246D01*
X303741Y214246D01*
X303866Y214290D01*
X303991Y214330D01*
X303999Y214336D01*
X304008Y214339D01*
X304070Y214384D01*
X304224Y214489D01*
X304239Y214508D01*
X304257Y214520D01*
X311177Y221441D01*
X349394Y221441D01*
X349426Y221445D01*
X349458Y221443D01*
X349565Y221465D01*
X349673Y221481D01*
X349703Y221494D01*
X349734Y221500D01*
X349831Y221552D01*
X349930Y221597D01*
X349955Y221618D01*
X349983Y221633D01*
X350062Y221709D01*
X350145Y221780D01*
X350162Y221807D01*
X350185Y221830D01*
X350239Y221925D01*
X350299Y222016D01*
X350309Y222047D01*
X350324Y222075D01*
X350350Y222181D01*
X350382Y222286D01*
X350382Y222318D01*
X350389Y222349D01*
X350384Y222459D01*
X350385Y222568D01*
X350377Y222599D01*
X350375Y222631D01*
X350339Y222734D01*
X350310Y222840D01*
X350293Y222867D01*
X350283Y222898D01*
X350229Y222971D01*
X350162Y223080D01*
X350126Y223112D01*
X350101Y223147D01*
X347512Y225736D01*
X346059Y229242D01*
X346059Y233038D01*
X347512Y236544D01*
X349243Y238275D01*
X349300Y238352D01*
X349365Y238423D01*
X349385Y238464D01*
X349412Y238501D01*
X349446Y238591D01*
X349488Y238677D01*
X349494Y238719D01*
X349511Y238765D01*
X349521Y238892D01*
X349535Y238982D01*
X349535Y243454D01*
X349522Y243549D01*
X349517Y243645D01*
X349502Y243688D01*
X349495Y243733D01*
X349456Y243821D01*
X349424Y243912D01*
X349399Y243946D01*
X349379Y243990D01*
X349296Y244088D01*
X349243Y244161D01*
X317821Y275583D01*
X317744Y275640D01*
X317672Y275705D01*
X317631Y275725D01*
X317595Y275752D01*
X317505Y275786D01*
X317419Y275828D01*
X317377Y275834D01*
X317331Y275851D01*
X317204Y275861D01*
X317114Y275875D01*
X263554Y275875D01*
X263490Y275866D01*
X263426Y275867D01*
X263351Y275846D01*
X263275Y275835D01*
X263216Y275809D01*
X263154Y275792D01*
X263088Y275751D01*
X263018Y275719D01*
X262969Y275677D01*
X262914Y275644D01*
X262862Y275586D01*
X262804Y275536D01*
X262768Y275482D01*
X262725Y275434D01*
X262692Y275365D01*
X262649Y275300D01*
X262630Y275238D01*
X262602Y275181D01*
X262591Y275111D01*
X262567Y275030D01*
X262566Y274945D01*
X262555Y274876D01*
X262555Y261610D01*
X262564Y261546D01*
X262563Y261482D01*
X262584Y261407D01*
X262595Y261331D01*
X262621Y261272D01*
X262638Y261210D01*
X262679Y261144D01*
X262711Y261074D01*
X262753Y261025D01*
X262786Y260970D01*
X262844Y260918D01*
X262894Y260860D01*
X262948Y260824D01*
X262996Y260781D01*
X263065Y260748D01*
X263130Y260705D01*
X263192Y260686D01*
X263249Y260658D01*
X263319Y260647D01*
X263400Y260623D01*
X263485Y260622D01*
X263554Y260611D01*
X270069Y260611D01*
X271241Y259439D01*
X271241Y230781D01*
X270069Y229609D01*
X242911Y229609D01*
X241739Y230781D01*
X241739Y237430D01*
X241738Y237439D01*
X241739Y237448D01*
X241718Y237578D01*
X241699Y237709D01*
X241696Y237718D01*
X241694Y237727D01*
X241637Y237846D01*
X241583Y237966D01*
X241577Y237973D01*
X241573Y237982D01*
X241485Y238080D01*
X241400Y238180D01*
X241392Y238185D01*
X241386Y238192D01*
X241320Y238232D01*
X241164Y238335D01*
X241141Y238342D01*
X241122Y238353D01*
X239715Y238936D01*
X237666Y240985D01*
X236557Y243661D01*
X236557Y246559D01*
X237666Y249235D01*
X239715Y251284D01*
X241122Y251867D01*
X241131Y251872D01*
X241140Y251874D01*
X241252Y251944D01*
X241365Y252011D01*
X241372Y252018D01*
X241380Y252023D01*
X241468Y252121D01*
X241558Y252216D01*
X241562Y252225D01*
X241569Y252232D01*
X241626Y252350D01*
X241686Y252468D01*
X241688Y252477D01*
X241692Y252486D01*
X241704Y252562D01*
X241713Y252613D01*
X241727Y252659D01*
X241728Y252689D01*
X241738Y252745D01*
X241736Y252769D01*
X241739Y252790D01*
X241739Y259439D01*
X242911Y260611D01*
X249426Y260611D01*
X249490Y260620D01*
X249554Y260619D01*
X249629Y260640D01*
X249705Y260651D01*
X249764Y260677D01*
X249826Y260694D01*
X249892Y260735D01*
X249962Y260767D01*
X250011Y260809D01*
X250066Y260842D01*
X250118Y260900D01*
X250176Y260950D01*
X250212Y261004D01*
X250255Y261052D01*
X250288Y261121D01*
X250331Y261186D01*
X250350Y261248D01*
X250378Y261305D01*
X250389Y261375D01*
X250413Y261456D01*
X250414Y261541D01*
X250425Y261610D01*
X250425Y274876D01*
X250416Y274940D01*
X250417Y275004D01*
X250396Y275079D01*
X250385Y275155D01*
X250359Y275214D01*
X250342Y275276D01*
X250301Y275342D01*
X250269Y275412D01*
X250227Y275461D01*
X250194Y275516D01*
X250136Y275568D01*
X250086Y275626D01*
X250032Y275662D01*
X249984Y275705D01*
X249915Y275738D01*
X249850Y275781D01*
X249788Y275800D01*
X249731Y275828D01*
X249661Y275839D01*
X249580Y275863D01*
X249495Y275864D01*
X249426Y275875D01*
X168862Y275875D01*
X168798Y275866D01*
X168734Y275867D01*
X168659Y275846D01*
X168583Y275835D01*
X168524Y275809D01*
X168462Y275792D01*
X168396Y275751D01*
X168326Y275719D01*
X168277Y275677D01*
X168222Y275644D01*
X168170Y275586D01*
X168112Y275536D01*
X168076Y275482D01*
X168033Y275434D01*
X168000Y275365D01*
X167957Y275300D01*
X167938Y275238D01*
X167910Y275181D01*
X167899Y275111D01*
X167875Y275030D01*
X167874Y274945D01*
X167863Y274876D01*
X167863Y273712D01*
X167872Y273648D01*
X167871Y273584D01*
X167892Y273509D01*
X167903Y273433D01*
X167929Y273374D01*
X167946Y273312D01*
X167987Y273246D01*
X168019Y273176D01*
X168061Y273127D01*
X168094Y273072D01*
X168152Y273020D01*
X168202Y272962D01*
X168256Y272926D01*
X168304Y272883D01*
X168373Y272850D01*
X168438Y272807D01*
X168500Y272788D01*
X168557Y272760D01*
X168627Y272749D01*
X168708Y272725D01*
X168793Y272724D01*
X168862Y272713D01*
X169089Y272713D01*
X171765Y271604D01*
X173814Y269555D01*
X174923Y266879D01*
X174923Y263981D01*
X173814Y261305D01*
X171765Y259256D01*
X169089Y258147D01*
X168631Y258147D01*
X168536Y258134D01*
X168439Y258129D01*
X168396Y258114D01*
X168351Y258107D01*
X168264Y258068D01*
X168173Y258036D01*
X168139Y258011D01*
X168094Y257991D01*
X167997Y257908D01*
X167924Y257855D01*
X167499Y257429D01*
X157841Y257429D01*
X156669Y258601D01*
X156669Y272259D01*
X157841Y273431D01*
X158798Y273431D01*
X158862Y273440D01*
X158926Y273439D01*
X159001Y273460D01*
X159077Y273471D01*
X159136Y273497D01*
X159198Y273514D01*
X159264Y273555D01*
X159334Y273587D01*
X159383Y273629D01*
X159438Y273662D01*
X159490Y273720D01*
X159548Y273770D01*
X159584Y273824D01*
X159627Y273872D01*
X159660Y273941D01*
X159703Y274006D01*
X159722Y274068D01*
X159750Y274125D01*
X159761Y274195D01*
X159785Y274276D01*
X159786Y274361D01*
X159797Y274430D01*
X159797Y274876D01*
X159788Y274940D01*
X159789Y275004D01*
X159768Y275079D01*
X159757Y275155D01*
X159731Y275214D01*
X159714Y275276D01*
X159673Y275342D01*
X159641Y275412D01*
X159599Y275461D01*
X159566Y275516D01*
X159508Y275568D01*
X159458Y275626D01*
X159404Y275662D01*
X159356Y275705D01*
X159287Y275738D01*
X159222Y275781D01*
X159160Y275800D01*
X159103Y275828D01*
X159033Y275839D01*
X158952Y275863D01*
X158867Y275864D01*
X158798Y275875D01*
X149487Y275875D01*
X149476Y275874D01*
X149465Y275875D01*
X149336Y275854D01*
X149207Y275835D01*
X149198Y275831D01*
X149187Y275829D01*
X149069Y275773D01*
X148951Y275719D01*
X148942Y275712D01*
X148933Y275708D01*
X148835Y275621D01*
X148736Y275536D01*
X148730Y275527D01*
X148722Y275520D01*
X148654Y275409D01*
X148582Y275300D01*
X148579Y275290D01*
X148573Y275280D01*
X148537Y275154D01*
X148499Y275030D01*
X148499Y275019D01*
X148496Y275009D01*
X148497Y274878D01*
X148496Y274748D01*
X148499Y274738D01*
X148499Y274727D01*
X148536Y274603D01*
X148571Y274476D01*
X148577Y274467D01*
X148580Y274457D01*
X148650Y274348D01*
X148719Y274236D01*
X148727Y274229D01*
X148733Y274220D01*
X148832Y274135D01*
X148928Y274047D01*
X148938Y274043D01*
X148946Y274036D01*
X149020Y274003D01*
X149182Y273924D01*
X149206Y273921D01*
X149228Y273911D01*
X149651Y273798D01*
X150230Y273463D01*
X150703Y272990D01*
X151038Y272411D01*
X151211Y271765D01*
X151211Y267429D01*
X145670Y267429D01*
X145606Y267420D01*
X145542Y267421D01*
X145468Y267400D01*
X145391Y267389D01*
X145332Y267363D01*
X145270Y267346D01*
X145204Y267305D01*
X145134Y267273D01*
X145085Y267231D01*
X145030Y267198D01*
X144979Y267140D01*
X144920Y267090D01*
X144884Y267036D01*
X144841Y266988D01*
X144808Y266919D01*
X144765Y266854D01*
X144746Y266792D01*
X144718Y266735D01*
X144708Y266665D01*
X144683Y266584D01*
X144682Y266499D01*
X144671Y266430D01*
X144671Y265429D01*
X144669Y265429D01*
X144669Y266430D01*
X144660Y266494D01*
X144661Y266558D01*
X144640Y266633D01*
X144629Y266709D01*
X144603Y266768D01*
X144586Y266830D01*
X144545Y266896D01*
X144513Y266966D01*
X144471Y267015D01*
X144438Y267070D01*
X144380Y267122D01*
X144330Y267180D01*
X144276Y267216D01*
X144228Y267259D01*
X144159Y267292D01*
X144094Y267335D01*
X144032Y267354D01*
X143974Y267382D01*
X143905Y267392D01*
X143824Y267417D01*
X143739Y267418D01*
X143670Y267429D01*
X138129Y267429D01*
X138129Y269969D01*
X138117Y270055D01*
X138114Y270142D01*
X138097Y270194D01*
X138089Y270248D01*
X138054Y270327D01*
X138027Y270410D01*
X137996Y270455D01*
X137973Y270505D01*
X137917Y270571D01*
X137868Y270643D01*
X137826Y270678D01*
X137790Y270719D01*
X137717Y270767D01*
X137650Y270822D01*
X137600Y270844D01*
X137554Y270874D01*
X137471Y270899D01*
X137391Y270934D01*
X137337Y270940D01*
X137284Y270956D01*
X137197Y270957D01*
X137111Y270968D01*
X137057Y270959D01*
X137002Y270960D01*
X136918Y270937D01*
X136833Y270923D01*
X136783Y270899D01*
X136730Y270885D01*
X136657Y270839D01*
X136578Y270802D01*
X136537Y270766D01*
X136490Y270737D01*
X136432Y270672D01*
X136367Y270615D01*
X136341Y270571D01*
X136301Y270527D01*
X136252Y270425D01*
X136207Y270351D01*
X135500Y268646D01*
X134103Y267249D01*
X134046Y267172D01*
X133981Y267101D01*
X133961Y267060D01*
X133934Y267023D01*
X133900Y266933D01*
X133858Y266847D01*
X133852Y266805D01*
X133835Y266759D01*
X133825Y266632D01*
X133811Y266542D01*
X133811Y170074D01*
X133823Y169988D01*
X133826Y169901D01*
X133843Y169849D01*
X133851Y169795D01*
X133886Y169716D01*
X133913Y169633D01*
X133944Y169588D01*
X133967Y169538D01*
X134023Y169472D01*
X134072Y169400D01*
X134115Y169365D01*
X134150Y169324D01*
X134223Y169276D01*
X134290Y169221D01*
X134340Y169199D01*
X134386Y169169D01*
X134469Y169144D01*
X134549Y169110D01*
X134603Y169103D01*
X134656Y169087D01*
X134743Y169086D01*
X134829Y169075D01*
X134883Y169084D01*
X134938Y169083D01*
X135022Y169106D01*
X135107Y169120D01*
X135157Y169144D01*
X135210Y169158D01*
X135284Y169204D01*
X135362Y169241D01*
X135403Y169278D01*
X135450Y169306D01*
X135508Y169371D01*
X135573Y169429D01*
X135599Y169472D01*
X135639Y169516D01*
X135688Y169618D01*
X135733Y169692D01*
X136066Y170495D01*
X138115Y172544D01*
X140791Y173653D01*
X143689Y173653D01*
X146365Y172544D01*
X148414Y170495D01*
X149523Y167819D01*
X149523Y164921D01*
X148414Y162245D01*
X146365Y160196D01*
X143689Y159087D01*
X140791Y159087D01*
X138115Y160196D01*
X136066Y162245D01*
X135733Y163048D01*
X135689Y163123D01*
X135653Y163202D01*
X135618Y163244D01*
X135590Y163291D01*
X135526Y163350D01*
X135470Y163416D01*
X135424Y163446D01*
X135384Y163484D01*
X135307Y163523D01*
X135234Y163571D01*
X135181Y163587D01*
X135132Y163612D01*
X135047Y163628D01*
X134964Y163653D01*
X134909Y163654D01*
X134855Y163664D01*
X134769Y163656D01*
X134682Y163657D01*
X134629Y163642D01*
X134575Y163637D01*
X134494Y163605D01*
X134410Y163582D01*
X134364Y163553D01*
X134313Y163533D01*
X134244Y163479D01*
X134170Y163434D01*
X134134Y163393D01*
X134090Y163359D01*
X134039Y163289D01*
X133981Y163224D01*
X133957Y163175D01*
X133925Y163130D01*
X133896Y163048D01*
X133858Y162970D01*
X133850Y162920D01*
X133831Y162865D01*
X133824Y162751D01*
X133811Y162666D01*
X133811Y98177D01*
X133824Y98082D01*
X133829Y97986D01*
X133844Y97943D01*
X133851Y97898D01*
X133890Y97810D01*
X133922Y97719D01*
X133947Y97685D01*
X133967Y97641D01*
X134050Y97543D01*
X134103Y97470D01*
X141648Y89926D01*
X141699Y89887D01*
X141744Y89841D01*
X141812Y89803D01*
X141874Y89756D01*
X141934Y89734D01*
X141990Y89702D01*
X142065Y89684D01*
X142137Y89657D01*
X142201Y89652D01*
X142264Y89637D01*
X142342Y89641D01*
X142419Y89635D01*
X142482Y89648D01*
X142546Y89651D01*
X142619Y89677D01*
X142695Y89693D01*
X142752Y89723D01*
X142812Y89744D01*
X142869Y89785D01*
X142944Y89825D01*
X143004Y89884D01*
X143061Y89926D01*
X144186Y91050D01*
X146219Y91893D01*
X148421Y91893D01*
X150454Y91050D01*
X152010Y89494D01*
X152853Y87461D01*
X152853Y85259D01*
X152010Y83226D01*
X150454Y81670D01*
X148421Y80827D01*
X146219Y80827D01*
X144186Y81670D01*
X142789Y83067D01*
X142712Y83124D01*
X142641Y83189D01*
X142600Y83209D01*
X142563Y83236D01*
X142473Y83270D01*
X142387Y83312D01*
X142345Y83318D01*
X142299Y83335D01*
X142172Y83345D01*
X142082Y83359D01*
X139727Y83359D01*
X127809Y95277D01*
X127809Y266542D01*
X127796Y266637D01*
X127791Y266734D01*
X127776Y266777D01*
X127769Y266822D01*
X127730Y266909D01*
X127698Y267000D01*
X127673Y267034D01*
X127653Y267079D01*
X127570Y267176D01*
X127517Y267249D01*
X126120Y268646D01*
X125277Y270679D01*
X125277Y272881D01*
X125945Y274494D01*
X125975Y274608D01*
X126010Y274722D01*
X126010Y274745D01*
X126016Y274767D01*
X126012Y274885D01*
X126013Y275004D01*
X126007Y275026D01*
X126006Y275049D01*
X125970Y275161D01*
X125938Y275276D01*
X125926Y275295D01*
X125919Y275317D01*
X125852Y275415D01*
X125790Y275516D01*
X125773Y275531D01*
X125760Y275550D01*
X125669Y275625D01*
X125581Y275705D01*
X125560Y275715D01*
X125542Y275729D01*
X125433Y275776D01*
X125327Y275828D01*
X125306Y275831D01*
X125283Y275841D01*
X125099Y275863D01*
X125022Y275875D01*
X28326Y275875D01*
X28231Y275862D01*
X28135Y275857D01*
X28092Y275842D01*
X28047Y275835D01*
X27959Y275796D01*
X27868Y275764D01*
X27834Y275739D01*
X27790Y275719D01*
X27692Y275636D01*
X27619Y275583D01*
X17231Y265195D01*
X17174Y265118D01*
X17109Y265046D01*
X17089Y265005D01*
X17062Y264969D01*
X17028Y264879D01*
X16986Y264793D01*
X16980Y264751D01*
X16963Y264705D01*
X16953Y264578D01*
X16939Y264488D01*
X16939Y35946D01*
X16947Y35885D01*
X16947Y35848D01*
X16954Y35824D01*
X16957Y35755D01*
X16972Y35712D01*
X16979Y35667D01*
X17018Y35579D01*
X17050Y35488D01*
X17075Y35454D01*
X17095Y35410D01*
X17178Y35312D01*
X17231Y35239D01*
X29603Y22867D01*
X29680Y22810D01*
X29752Y22745D01*
X29793Y22725D01*
X29829Y22698D01*
X29919Y22664D01*
X30005Y22622D01*
X30047Y22616D01*
X30093Y22599D01*
X30220Y22589D01*
X30310Y22575D01*
X49221Y22575D01*
X49316Y22588D01*
X49412Y22593D01*
X49455Y22608D01*
X49500Y22615D01*
X49587Y22654D01*
X49678Y22686D01*
X49713Y22711D01*
X49757Y22731D01*
X49854Y22814D01*
X49927Y22867D01*
X53233Y26173D01*
X57423Y27909D01*
X61957Y27909D01*
X66147Y26173D01*
X69353Y22967D01*
X71089Y18777D01*
X71089Y14243D01*
X69353Y10053D01*
X66147Y6847D01*
X61957Y5111D01*
X57423Y5111D01*
X53233Y6847D01*
X49927Y10153D01*
X49850Y10210D01*
X49779Y10275D01*
X49738Y10295D01*
X49702Y10322D01*
X49612Y10356D01*
X49525Y10398D01*
X49483Y10404D01*
X49438Y10421D01*
X49310Y10431D01*
X49221Y10445D01*
X26178Y10445D01*
X23949Y11369D01*
X8517Y26801D01*
X8491Y26820D01*
X8470Y26845D01*
X8378Y26904D01*
X8291Y26970D01*
X8261Y26981D01*
X8234Y26999D01*
X8129Y27031D01*
X8027Y27069D01*
X7995Y27072D01*
X7964Y27081D01*
X7855Y27083D01*
X7746Y27091D01*
X7714Y27085D01*
X7682Y27085D01*
X7577Y27056D01*
X7470Y27034D01*
X7441Y27019D01*
X7410Y27010D01*
X7317Y26952D01*
X7221Y26901D01*
X7198Y26879D01*
X7170Y26862D01*
X7097Y26781D01*
X7019Y26704D01*
X7003Y26676D01*
X6981Y26652D01*
X6934Y26554D01*
X6880Y26459D01*
X6872Y26428D01*
X6858Y26399D01*
X6844Y26309D01*
X6815Y26185D01*
X6817Y26136D01*
X6811Y26094D01*
X6811Y25400D01*
X6817Y25358D01*
X6814Y25322D01*
X7077Y21974D01*
X7109Y21834D01*
X7123Y21744D01*
X9192Y15376D01*
X9193Y15374D01*
X9193Y15372D01*
X9209Y15340D01*
X9316Y15123D01*
X9327Y15110D01*
X9334Y15097D01*
X13270Y9681D01*
X13271Y9679D01*
X13272Y9677D01*
X13297Y9652D01*
X13466Y9478D01*
X13480Y9470D01*
X13491Y9460D01*
X18907Y5524D01*
X18909Y5523D01*
X18911Y5521D01*
X18942Y5505D01*
X19157Y5392D01*
X19173Y5389D01*
X19186Y5382D01*
X25554Y3313D01*
X25695Y3288D01*
X25784Y3267D01*
X29132Y3004D01*
X29173Y3006D01*
X29210Y3001D01*
X81724Y3001D01*
X81848Y3018D01*
G37*
%LPC*%
G36*
X170299Y89979D02*
X170299Y89979D01*
X158019Y102259D01*
X158019Y113459D01*
X158010Y113523D01*
X158011Y113587D01*
X157990Y113662D01*
X157979Y113738D01*
X157953Y113797D01*
X157936Y113859D01*
X157895Y113925D01*
X157863Y113995D01*
X157821Y114044D01*
X157788Y114099D01*
X157730Y114151D01*
X157680Y114209D01*
X157626Y114245D01*
X157578Y114288D01*
X157509Y114321D01*
X157444Y114364D01*
X157382Y114383D01*
X157325Y114411D01*
X157255Y114422D01*
X157174Y114446D01*
X157089Y114447D01*
X157020Y114458D01*
X155844Y114458D01*
X155799Y114492D01*
X155729Y114518D01*
X155663Y114554D01*
X155598Y114568D01*
X155535Y114592D01*
X155461Y114597D01*
X155387Y114613D01*
X155321Y114608D01*
X155254Y114613D01*
X155181Y114598D01*
X155106Y114593D01*
X155049Y114571D01*
X154978Y114556D01*
X154892Y114510D01*
X154819Y114482D01*
X154143Y114091D01*
X153497Y113918D01*
X149319Y113918D01*
X149319Y123460D01*
X149310Y123524D01*
X149311Y123588D01*
X149290Y123662D01*
X149279Y123739D01*
X149253Y123798D01*
X149236Y123860D01*
X149195Y123926D01*
X149163Y123996D01*
X149121Y124045D01*
X149088Y124100D01*
X149030Y124151D01*
X148980Y124210D01*
X148926Y124246D01*
X148878Y124289D01*
X148809Y124322D01*
X148744Y124365D01*
X148682Y124384D01*
X148625Y124412D01*
X148555Y124422D01*
X148474Y124447D01*
X148389Y124448D01*
X148320Y124459D01*
X147319Y124459D01*
X147319Y124461D01*
X148320Y124461D01*
X148384Y124470D01*
X148448Y124469D01*
X148523Y124490D01*
X148599Y124501D01*
X148658Y124527D01*
X148720Y124544D01*
X148786Y124585D01*
X148856Y124617D01*
X148905Y124659D01*
X148960Y124692D01*
X149012Y124750D01*
X149070Y124800D01*
X149106Y124854D01*
X149149Y124902D01*
X149182Y124971D01*
X149225Y125036D01*
X149244Y125098D01*
X149272Y125156D01*
X149282Y125225D01*
X149307Y125306D01*
X149308Y125391D01*
X149319Y125460D01*
X149319Y135002D01*
X153497Y135002D01*
X154143Y134829D01*
X154819Y134438D01*
X154888Y134410D01*
X154953Y134374D01*
X155018Y134358D01*
X155080Y134333D01*
X155155Y134326D01*
X155228Y134309D01*
X155294Y134312D01*
X155361Y134305D01*
X155435Y134319D01*
X155509Y134323D01*
X155573Y134345D01*
X155638Y134357D01*
X155705Y134391D01*
X155776Y134415D01*
X155825Y134452D01*
X155845Y134462D01*
X169231Y134462D01*
X170403Y133290D01*
X170403Y115630D01*
X169231Y114458D01*
X168100Y114458D01*
X168036Y114449D01*
X167972Y114450D01*
X167897Y114429D01*
X167821Y114418D01*
X167762Y114392D01*
X167700Y114375D01*
X167634Y114334D01*
X167564Y114302D01*
X167515Y114260D01*
X167460Y114227D01*
X167408Y114169D01*
X167350Y114119D01*
X167314Y114065D01*
X167271Y114017D01*
X167238Y113948D01*
X167195Y113883D01*
X167176Y113821D01*
X167148Y113764D01*
X167137Y113694D01*
X167113Y113613D01*
X167112Y113528D01*
X167101Y113459D01*
X167101Y106435D01*
X167114Y106340D01*
X167119Y106244D01*
X167134Y106200D01*
X167141Y106156D01*
X167180Y106068D01*
X167212Y105977D01*
X167237Y105943D01*
X167257Y105899D01*
X167340Y105801D01*
X167393Y105728D01*
X173768Y99353D01*
X173845Y99296D01*
X173916Y99231D01*
X173957Y99211D01*
X173994Y99184D01*
X174084Y99150D01*
X174170Y99108D01*
X174212Y99102D01*
X174258Y99085D01*
X174385Y99075D01*
X174475Y99061D01*
X184205Y99061D01*
X184237Y99065D01*
X184269Y99063D01*
X184376Y99085D01*
X184485Y99101D01*
X184514Y99114D01*
X184545Y99120D01*
X184642Y99172D01*
X184741Y99217D01*
X184766Y99238D01*
X184794Y99253D01*
X184873Y99329D01*
X184956Y99400D01*
X184973Y99427D01*
X184997Y99450D01*
X185050Y99545D01*
X185110Y99636D01*
X185120Y99667D01*
X185136Y99695D01*
X185161Y99802D01*
X185193Y99906D01*
X185193Y99938D01*
X185200Y99969D01*
X185195Y100079D01*
X185196Y100188D01*
X185188Y100219D01*
X185186Y100251D01*
X185150Y100354D01*
X185121Y100460D01*
X185104Y100487D01*
X185094Y100518D01*
X185040Y100591D01*
X184973Y100700D01*
X184937Y100732D01*
X184912Y100767D01*
X178339Y107339D01*
X178339Y113459D01*
X178330Y113523D01*
X178331Y113587D01*
X178310Y113662D01*
X178299Y113738D01*
X178273Y113797D01*
X178256Y113859D01*
X178215Y113925D01*
X178183Y113995D01*
X178141Y114044D01*
X178108Y114099D01*
X178050Y114151D01*
X178000Y114209D01*
X177946Y114245D01*
X177898Y114288D01*
X177829Y114321D01*
X177764Y114364D01*
X177702Y114383D01*
X177645Y114411D01*
X177575Y114422D01*
X177494Y114446D01*
X177409Y114447D01*
X177340Y114458D01*
X176209Y114458D01*
X175037Y115630D01*
X175037Y133290D01*
X176209Y134462D01*
X177340Y134462D01*
X177404Y134471D01*
X177468Y134470D01*
X177543Y134491D01*
X177619Y134502D01*
X177678Y134528D01*
X177740Y134545D01*
X177806Y134586D01*
X177876Y134618D01*
X177925Y134660D01*
X177980Y134693D01*
X178032Y134751D01*
X178090Y134801D01*
X178126Y134855D01*
X178169Y134903D01*
X178202Y134972D01*
X178245Y135037D01*
X178264Y135099D01*
X178292Y135156D01*
X178303Y135226D01*
X178327Y135307D01*
X178328Y135392D01*
X178339Y135461D01*
X178339Y150471D01*
X185717Y157848D01*
X185774Y157925D01*
X185839Y157996D01*
X185859Y158037D01*
X185886Y158074D01*
X185920Y158164D01*
X185962Y158250D01*
X185968Y158292D01*
X185985Y158338D01*
X185995Y158465D01*
X186009Y158555D01*
X186009Y161300D01*
X186000Y161364D01*
X186001Y161428D01*
X185980Y161503D01*
X185969Y161579D01*
X185943Y161638D01*
X185926Y161700D01*
X185885Y161766D01*
X185853Y161836D01*
X185811Y161885D01*
X185778Y161940D01*
X185720Y161992D01*
X185670Y162050D01*
X185616Y162086D01*
X185568Y162129D01*
X185499Y162162D01*
X185434Y162205D01*
X185372Y162224D01*
X185315Y162252D01*
X185245Y162263D01*
X185164Y162287D01*
X185079Y162288D01*
X185010Y162299D01*
X176971Y162299D01*
X175799Y163471D01*
X175799Y192129D01*
X176971Y193301D01*
X185010Y193301D01*
X185074Y193310D01*
X185138Y193309D01*
X185213Y193330D01*
X185289Y193341D01*
X185348Y193367D01*
X185410Y193384D01*
X185476Y193425D01*
X185546Y193457D01*
X185595Y193499D01*
X185650Y193532D01*
X185702Y193590D01*
X185760Y193640D01*
X185796Y193694D01*
X185839Y193742D01*
X185872Y193811D01*
X185915Y193876D01*
X185934Y193938D01*
X185962Y193995D01*
X185973Y194065D01*
X185997Y194146D01*
X185998Y194231D01*
X186009Y194300D01*
X186009Y200855D01*
X186000Y200919D01*
X186001Y200980D01*
X185993Y201010D01*
X185991Y201046D01*
X185976Y201090D01*
X185969Y201134D01*
X185941Y201198D01*
X185926Y201252D01*
X185911Y201275D01*
X185898Y201313D01*
X185873Y201347D01*
X185853Y201391D01*
X185805Y201448D01*
X185778Y201492D01*
X185748Y201518D01*
X185717Y201562D01*
X183832Y203447D01*
X183755Y203504D01*
X183684Y203569D01*
X183643Y203589D01*
X183606Y203616D01*
X183516Y203650D01*
X183430Y203692D01*
X183388Y203698D01*
X183342Y203715D01*
X183215Y203725D01*
X183125Y203739D01*
X176353Y203739D01*
X176258Y203726D01*
X176161Y203721D01*
X176118Y203706D01*
X176073Y203699D01*
X175986Y203660D01*
X175895Y203628D01*
X175861Y203603D01*
X175816Y203583D01*
X175719Y203500D01*
X175646Y203447D01*
X174305Y202106D01*
X171629Y200997D01*
X171171Y200997D01*
X171076Y200984D01*
X170979Y200979D01*
X170936Y200964D01*
X170891Y200957D01*
X170804Y200918D01*
X170713Y200886D01*
X170679Y200861D01*
X170634Y200841D01*
X170537Y200758D01*
X170464Y200705D01*
X170039Y200279D01*
X160381Y200279D01*
X159209Y201451D01*
X159209Y215109D01*
X160381Y216281D01*
X170039Y216281D01*
X170464Y215855D01*
X170541Y215798D01*
X170612Y215733D01*
X170653Y215713D01*
X170690Y215686D01*
X170780Y215652D01*
X170866Y215610D01*
X170908Y215604D01*
X170954Y215587D01*
X171081Y215577D01*
X171171Y215563D01*
X171629Y215563D01*
X174305Y214454D01*
X175646Y213113D01*
X175723Y213056D01*
X175794Y212991D01*
X175835Y212971D01*
X175872Y212944D01*
X175962Y212910D01*
X176048Y212868D01*
X176090Y212862D01*
X176135Y212845D01*
X176263Y212835D01*
X176353Y212821D01*
X187301Y212821D01*
X195091Y205031D01*
X195091Y194300D01*
X195100Y194236D01*
X195099Y194172D01*
X195120Y194097D01*
X195131Y194021D01*
X195157Y193962D01*
X195174Y193900D01*
X195215Y193834D01*
X195247Y193764D01*
X195289Y193715D01*
X195322Y193660D01*
X195380Y193608D01*
X195430Y193550D01*
X195484Y193514D01*
X195532Y193471D01*
X195601Y193438D01*
X195666Y193395D01*
X195728Y193376D01*
X195785Y193348D01*
X195855Y193337D01*
X195936Y193313D01*
X196021Y193312D01*
X196090Y193301D01*
X204129Y193301D01*
X205301Y192129D01*
X205301Y186006D01*
X205302Y185997D01*
X205301Y185988D01*
X205322Y185857D01*
X205341Y185727D01*
X205344Y185719D01*
X205346Y185709D01*
X205403Y185589D01*
X205457Y185470D01*
X205463Y185463D01*
X205467Y185454D01*
X205555Y185356D01*
X205640Y185256D01*
X205648Y185251D01*
X205654Y185244D01*
X205720Y185204D01*
X205876Y185101D01*
X205899Y185094D01*
X205918Y185083D01*
X208595Y183974D01*
X210644Y181925D01*
X211753Y179249D01*
X211753Y176351D01*
X210644Y173675D01*
X208595Y171626D01*
X205918Y170517D01*
X205909Y170512D01*
X205900Y170510D01*
X205788Y170440D01*
X205675Y170373D01*
X205668Y170366D01*
X205660Y170361D01*
X205572Y170263D01*
X205482Y170168D01*
X205478Y170159D01*
X205471Y170152D01*
X205414Y170034D01*
X205354Y169916D01*
X205352Y169907D01*
X205348Y169898D01*
X205336Y169822D01*
X205302Y169639D01*
X205304Y169615D01*
X205301Y169594D01*
X205301Y163471D01*
X204129Y162299D01*
X196090Y162299D01*
X196026Y162290D01*
X195962Y162291D01*
X195887Y162270D01*
X195811Y162259D01*
X195752Y162233D01*
X195690Y162216D01*
X195624Y162175D01*
X195554Y162143D01*
X195505Y162101D01*
X195450Y162068D01*
X195398Y162010D01*
X195340Y161960D01*
X195304Y161906D01*
X195261Y161858D01*
X195228Y161789D01*
X195185Y161724D01*
X195166Y161662D01*
X195138Y161605D01*
X195127Y161535D01*
X195103Y161454D01*
X195102Y161369D01*
X195091Y161300D01*
X195091Y154379D01*
X187713Y147002D01*
X187656Y146925D01*
X187591Y146854D01*
X187571Y146813D01*
X187544Y146776D01*
X187510Y146686D01*
X187468Y146600D01*
X187462Y146558D01*
X187445Y146512D01*
X187435Y146385D01*
X187421Y146295D01*
X187421Y135461D01*
X187430Y135397D01*
X187429Y135333D01*
X187450Y135258D01*
X187461Y135182D01*
X187487Y135123D01*
X187504Y135061D01*
X187545Y134995D01*
X187577Y134925D01*
X187619Y134876D01*
X187652Y134821D01*
X187710Y134769D01*
X187760Y134711D01*
X187814Y134675D01*
X187862Y134632D01*
X187931Y134599D01*
X187996Y134556D01*
X188058Y134537D01*
X188115Y134509D01*
X188185Y134498D01*
X188266Y134474D01*
X188351Y134473D01*
X188420Y134462D01*
X189551Y134462D01*
X189793Y134219D01*
X189845Y134180D01*
X189890Y134134D01*
X189957Y134096D01*
X190019Y134050D01*
X190079Y134027D01*
X190135Y133995D01*
X190210Y133978D01*
X190283Y133950D01*
X190347Y133945D01*
X190409Y133930D01*
X190487Y133934D01*
X190564Y133928D01*
X190627Y133942D01*
X190691Y133945D01*
X190764Y133970D01*
X190840Y133986D01*
X190897Y134016D01*
X190958Y134037D01*
X191014Y134079D01*
X191089Y134118D01*
X191150Y134178D01*
X191207Y134219D01*
X191449Y134462D01*
X192580Y134462D01*
X192644Y134471D01*
X192708Y134470D01*
X192783Y134491D01*
X192859Y134502D01*
X192918Y134528D01*
X192980Y134545D01*
X193046Y134586D01*
X193116Y134618D01*
X193165Y134660D01*
X193220Y134693D01*
X193272Y134751D01*
X193330Y134801D01*
X193366Y134855D01*
X193409Y134903D01*
X193442Y134972D01*
X193485Y135037D01*
X193504Y135099D01*
X193532Y135156D01*
X193543Y135226D01*
X193567Y135307D01*
X193568Y135392D01*
X193579Y135461D01*
X193579Y141581D01*
X203859Y151861D01*
X239371Y151861D01*
X248381Y142851D01*
X248381Y135461D01*
X248390Y135397D01*
X248389Y135333D01*
X248410Y135258D01*
X248421Y135182D01*
X248447Y135123D01*
X248464Y135061D01*
X248505Y134995D01*
X248537Y134925D01*
X248579Y134876D01*
X248612Y134821D01*
X248670Y134769D01*
X248720Y134711D01*
X248774Y134675D01*
X248822Y134632D01*
X248891Y134599D01*
X248956Y134556D01*
X249018Y134537D01*
X249075Y134509D01*
X249145Y134498D01*
X249226Y134474D01*
X249311Y134473D01*
X249380Y134462D01*
X250511Y134462D01*
X251683Y133290D01*
X251683Y115630D01*
X250511Y114458D01*
X249680Y114458D01*
X249563Y114442D01*
X249445Y114430D01*
X249424Y114422D01*
X249401Y114418D01*
X249293Y114370D01*
X249183Y114326D01*
X249165Y114312D01*
X249144Y114302D01*
X249054Y114225D01*
X248961Y114152D01*
X248947Y114134D01*
X248930Y114119D01*
X248865Y114019D01*
X248796Y113923D01*
X248788Y113902D01*
X248775Y113883D01*
X248741Y113769D01*
X248701Y113658D01*
X248700Y113635D01*
X248693Y113613D01*
X248691Y113495D01*
X248685Y113376D01*
X248690Y113355D01*
X248689Y113331D01*
X248739Y113152D01*
X248757Y113077D01*
X249373Y111591D01*
X249373Y109389D01*
X248599Y107522D01*
X248570Y107408D01*
X248535Y107294D01*
X248535Y107271D01*
X248529Y107249D01*
X248533Y107131D01*
X248531Y107012D01*
X248538Y106990D01*
X248538Y106967D01*
X248575Y106855D01*
X248607Y106740D01*
X248619Y106721D01*
X248626Y106699D01*
X248693Y106601D01*
X248755Y106500D01*
X248772Y106485D01*
X248785Y106466D01*
X248876Y106391D01*
X248964Y106311D01*
X248985Y106301D01*
X249002Y106287D01*
X249111Y106240D01*
X249218Y106188D01*
X249239Y106185D01*
X249261Y106175D01*
X249446Y106153D01*
X249523Y106141D01*
X254245Y106141D01*
X254340Y106154D01*
X254436Y106159D01*
X254480Y106174D01*
X254524Y106181D01*
X254612Y106220D01*
X254703Y106252D01*
X254737Y106277D01*
X254781Y106297D01*
X254879Y106380D01*
X254952Y106433D01*
X259327Y110808D01*
X259384Y110885D01*
X259449Y110956D01*
X259469Y110997D01*
X259496Y111034D01*
X259530Y111124D01*
X259572Y111210D01*
X259578Y111252D01*
X259595Y111298D01*
X259605Y111425D01*
X259619Y111515D01*
X259619Y113459D01*
X259610Y113523D01*
X259611Y113587D01*
X259590Y113662D01*
X259579Y113738D01*
X259553Y113797D01*
X259536Y113859D01*
X259495Y113925D01*
X259463Y113995D01*
X259421Y114044D01*
X259388Y114099D01*
X259330Y114151D01*
X259280Y114209D01*
X259226Y114245D01*
X259178Y114288D01*
X259109Y114321D01*
X259044Y114364D01*
X258982Y114383D01*
X258925Y114411D01*
X258855Y114422D01*
X258774Y114446D01*
X258689Y114447D01*
X258620Y114458D01*
X257489Y114458D01*
X256317Y115630D01*
X256317Y133290D01*
X257489Y134462D01*
X258320Y134462D01*
X258437Y134478D01*
X258555Y134490D01*
X258576Y134498D01*
X258599Y134502D01*
X258707Y134550D01*
X258817Y134594D01*
X258835Y134608D01*
X258856Y134618D01*
X258946Y134695D01*
X259039Y134768D01*
X259053Y134786D01*
X259070Y134801D01*
X259135Y134901D01*
X259204Y134997D01*
X259212Y135018D01*
X259225Y135037D01*
X259259Y135151D01*
X259299Y135262D01*
X259300Y135285D01*
X259307Y135307D01*
X259309Y135425D01*
X259315Y135544D01*
X259310Y135565D01*
X259311Y135589D01*
X259261Y135768D01*
X259243Y135843D01*
X258627Y137329D01*
X258627Y139531D01*
X259470Y141564D01*
X261026Y143120D01*
X263059Y143963D01*
X265261Y143963D01*
X267294Y143120D01*
X268850Y141564D01*
X269693Y139531D01*
X269693Y137329D01*
X269077Y135843D01*
X269048Y135729D01*
X269013Y135615D01*
X269013Y135592D01*
X269007Y135570D01*
X269011Y135452D01*
X269009Y135333D01*
X269015Y135311D01*
X269016Y135288D01*
X269053Y135176D01*
X269084Y135061D01*
X269096Y135042D01*
X269104Y135020D01*
X269170Y134922D01*
X269233Y134821D01*
X269250Y134806D01*
X269262Y134787D01*
X269354Y134712D01*
X269442Y134632D01*
X269462Y134622D01*
X269480Y134608D01*
X269589Y134561D01*
X269696Y134509D01*
X269717Y134506D01*
X269739Y134496D01*
X269924Y134474D01*
X270000Y134462D01*
X270831Y134462D01*
X271073Y134219D01*
X271125Y134180D01*
X271170Y134134D01*
X271237Y134096D01*
X271299Y134050D01*
X271359Y134027D01*
X271415Y133995D01*
X271490Y133978D01*
X271563Y133950D01*
X271627Y133945D01*
X271689Y133930D01*
X271767Y133934D01*
X271844Y133928D01*
X271907Y133942D01*
X271971Y133945D01*
X272044Y133970D01*
X272120Y133986D01*
X272177Y134016D01*
X272238Y134037D01*
X272294Y134079D01*
X272369Y134118D01*
X272430Y134178D01*
X272487Y134219D01*
X272729Y134462D01*
X273860Y134462D01*
X273924Y134471D01*
X273988Y134470D01*
X274063Y134491D01*
X274139Y134502D01*
X274198Y134528D01*
X274260Y134545D01*
X274326Y134586D01*
X274396Y134618D01*
X274445Y134660D01*
X274500Y134693D01*
X274552Y134751D01*
X274610Y134801D01*
X274646Y134855D01*
X274689Y134903D01*
X274722Y134972D01*
X274765Y135037D01*
X274784Y135099D01*
X274812Y135156D01*
X274823Y135226D01*
X274847Y135307D01*
X274848Y135392D01*
X274859Y135461D01*
X274859Y150471D01*
X282599Y158211D01*
X287875Y158211D01*
X287885Y158212D01*
X287894Y158211D01*
X288024Y158232D01*
X288154Y158251D01*
X288163Y158254D01*
X288172Y158256D01*
X288291Y158313D01*
X288411Y158367D01*
X288418Y158373D01*
X288427Y158377D01*
X288526Y158465D01*
X288626Y158550D01*
X288631Y158558D01*
X288638Y158564D01*
X288678Y158630D01*
X288780Y158786D01*
X288787Y158809D01*
X288798Y158828D01*
X289217Y159839D01*
X292281Y162903D01*
X296284Y164561D01*
X300616Y164561D01*
X304619Y162903D01*
X307683Y159839D01*
X309341Y155836D01*
X309341Y151504D01*
X307683Y147501D01*
X304619Y144437D01*
X300616Y142779D01*
X296284Y142779D01*
X292281Y144437D01*
X289217Y147501D01*
X288798Y148512D01*
X288793Y148520D01*
X288791Y148530D01*
X288721Y148643D01*
X288655Y148755D01*
X288648Y148762D01*
X288643Y148770D01*
X288545Y148858D01*
X288449Y148948D01*
X288441Y148952D01*
X288433Y148959D01*
X288315Y149016D01*
X288198Y149076D01*
X288188Y149078D01*
X288180Y149082D01*
X288104Y149094D01*
X287920Y149128D01*
X287896Y149126D01*
X287875Y149129D01*
X286775Y149129D01*
X286680Y149116D01*
X286584Y149111D01*
X286540Y149096D01*
X286496Y149089D01*
X286408Y149050D01*
X286317Y149018D01*
X286283Y148993D01*
X286239Y148973D01*
X286141Y148890D01*
X286068Y148837D01*
X284233Y147002D01*
X284176Y146925D01*
X284111Y146854D01*
X284091Y146813D01*
X284064Y146776D01*
X284030Y146686D01*
X283988Y146600D01*
X283982Y146558D01*
X283965Y146512D01*
X283955Y146385D01*
X283941Y146295D01*
X283941Y135461D01*
X283950Y135397D01*
X283949Y135333D01*
X283970Y135258D01*
X283981Y135182D01*
X284007Y135123D01*
X284024Y135061D01*
X284065Y134995D01*
X284097Y134925D01*
X284139Y134876D01*
X284172Y134821D01*
X284230Y134769D01*
X284280Y134711D01*
X284334Y134675D01*
X284382Y134632D01*
X284451Y134599D01*
X284516Y134556D01*
X284578Y134537D01*
X284635Y134509D01*
X284705Y134498D01*
X284786Y134474D01*
X284871Y134473D01*
X284940Y134462D01*
X286071Y134462D01*
X287243Y133290D01*
X287243Y115630D01*
X286071Y114458D01*
X284940Y114458D01*
X284876Y114449D01*
X284812Y114450D01*
X284737Y114429D01*
X284661Y114418D01*
X284602Y114392D01*
X284540Y114375D01*
X284474Y114334D01*
X284404Y114302D01*
X284355Y114260D01*
X284300Y114227D01*
X284248Y114169D01*
X284190Y114119D01*
X284154Y114065D01*
X284111Y114017D01*
X284078Y113948D01*
X284035Y113883D01*
X284016Y113821D01*
X283988Y113764D01*
X283977Y113694D01*
X283953Y113613D01*
X283952Y113528D01*
X283941Y113459D01*
X283941Y106069D01*
X267851Y89979D01*
X170299Y89979D01*
G37*
%LPD*%
G36*
X474878Y23524D02*
X474878Y23524D01*
X474974Y23529D01*
X475017Y23544D01*
X475062Y23551D01*
X475150Y23590D01*
X475241Y23622D01*
X475275Y23647D01*
X475319Y23667D01*
X475417Y23750D01*
X475490Y23803D01*
X476957Y25270D01*
X476990Y25314D01*
X477000Y25324D01*
X477020Y25353D01*
X477079Y25418D01*
X477099Y25459D01*
X477126Y25496D01*
X477143Y25542D01*
X477155Y25560D01*
X477168Y25603D01*
X477202Y25672D01*
X477208Y25714D01*
X477225Y25760D01*
X477229Y25801D01*
X477237Y25829D01*
X477238Y25907D01*
X477249Y25977D01*
X477249Y38896D01*
X477237Y38982D01*
X477234Y39069D01*
X477217Y39121D01*
X477209Y39175D01*
X477174Y39254D01*
X477147Y39337D01*
X477116Y39382D01*
X477093Y39432D01*
X477037Y39498D01*
X476988Y39570D01*
X476946Y39605D01*
X476910Y39647D01*
X476837Y39694D01*
X476770Y39749D01*
X476720Y39771D01*
X476674Y39801D01*
X476591Y39826D01*
X476511Y39861D01*
X476457Y39867D01*
X476404Y39883D01*
X476317Y39885D01*
X476231Y39895D01*
X476177Y39887D01*
X476122Y39887D01*
X476038Y39864D01*
X475953Y39850D01*
X475903Y39827D01*
X475850Y39812D01*
X475776Y39766D01*
X475698Y39729D01*
X475657Y39693D01*
X475610Y39664D01*
X475552Y39599D01*
X475487Y39542D01*
X475461Y39498D01*
X475421Y39455D01*
X475372Y39352D01*
X475327Y39279D01*
X474178Y36506D01*
X471494Y33822D01*
X467988Y32369D01*
X464192Y32369D01*
X460686Y33822D01*
X458002Y36506D01*
X456549Y40012D01*
X456549Y43808D01*
X458002Y47314D01*
X460686Y49998D01*
X462472Y50738D01*
X462481Y50743D01*
X462490Y50746D01*
X462602Y50815D01*
X462715Y50882D01*
X462722Y50889D01*
X462730Y50894D01*
X462818Y50992D01*
X462908Y51088D01*
X462912Y51096D01*
X462919Y51103D01*
X462976Y51222D01*
X463036Y51339D01*
X463038Y51348D01*
X463042Y51357D01*
X463054Y51433D01*
X463088Y51616D01*
X463086Y51640D01*
X463089Y51662D01*
X463089Y52043D01*
X468110Y57063D01*
X468129Y57089D01*
X468154Y57110D01*
X468214Y57202D01*
X468279Y57289D01*
X468290Y57319D01*
X468308Y57346D01*
X468340Y57451D01*
X468379Y57553D01*
X468381Y57585D01*
X468390Y57616D01*
X468392Y57725D01*
X468400Y57834D01*
X468394Y57866D01*
X468394Y57898D01*
X468365Y58003D01*
X468343Y58110D01*
X468328Y58139D01*
X468319Y58170D01*
X468262Y58263D01*
X468210Y58359D01*
X468188Y58382D01*
X468171Y58410D01*
X468090Y58483D01*
X468014Y58561D01*
X467986Y58577D01*
X467962Y58599D01*
X467863Y58646D01*
X467768Y58700D01*
X467737Y58708D01*
X467708Y58722D01*
X467619Y58736D01*
X467494Y58765D01*
X467445Y58763D01*
X467403Y58769D01*
X462552Y58769D01*
X457549Y63772D01*
X457549Y70848D01*
X462797Y76095D01*
X462854Y76172D01*
X462919Y76243D01*
X462939Y76284D01*
X462966Y76321D01*
X463000Y76411D01*
X463042Y76497D01*
X463048Y76539D01*
X463065Y76584D01*
X463075Y76712D01*
X463089Y76802D01*
X463089Y79623D01*
X463076Y79718D01*
X463071Y79814D01*
X463056Y79857D01*
X463049Y79902D01*
X463010Y79990D01*
X462978Y80081D01*
X462953Y80115D01*
X462933Y80159D01*
X462850Y80257D01*
X462797Y80330D01*
X458790Y84337D01*
X458713Y84394D01*
X458642Y84459D01*
X458601Y84479D01*
X458564Y84506D01*
X458474Y84540D01*
X458388Y84582D01*
X458346Y84588D01*
X458300Y84605D01*
X458173Y84615D01*
X458083Y84629D01*
X402617Y84629D01*
X400567Y86680D01*
X394597Y92650D01*
X394571Y92669D01*
X394550Y92694D01*
X394492Y92731D01*
X394458Y92763D01*
X394425Y92778D01*
X394371Y92819D01*
X394341Y92830D01*
X394314Y92848D01*
X394226Y92875D01*
X394204Y92886D01*
X394188Y92888D01*
X394107Y92919D01*
X394075Y92921D01*
X394044Y92930D01*
X393935Y92932D01*
X393826Y92940D01*
X393794Y92934D01*
X393762Y92934D01*
X393657Y92905D01*
X393550Y92883D01*
X393521Y92868D01*
X393490Y92859D01*
X393397Y92802D01*
X393301Y92750D01*
X393278Y92728D01*
X393250Y92711D01*
X393177Y92630D01*
X393144Y92598D01*
X393140Y92594D01*
X393139Y92592D01*
X393099Y92554D01*
X393083Y92526D01*
X393061Y92502D01*
X393014Y92403D01*
X393006Y92390D01*
X392985Y92358D01*
X392982Y92347D01*
X392960Y92308D01*
X392952Y92277D01*
X392938Y92248D01*
X392925Y92159D01*
X392903Y92088D01*
X392902Y92066D01*
X392895Y92034D01*
X392897Y91985D01*
X392891Y91943D01*
X392891Y76802D01*
X392904Y76707D01*
X392909Y76610D01*
X392924Y76567D01*
X392931Y76522D01*
X392970Y76435D01*
X393002Y76344D01*
X393027Y76310D01*
X393047Y76265D01*
X393130Y76168D01*
X393183Y76095D01*
X398431Y70848D01*
X398431Y63772D01*
X396515Y61857D01*
X396496Y61831D01*
X396471Y61810D01*
X396411Y61718D01*
X396346Y61631D01*
X396334Y61601D01*
X396317Y61574D01*
X396285Y61469D01*
X396246Y61367D01*
X396244Y61335D01*
X396234Y61304D01*
X396233Y61195D01*
X396224Y61086D01*
X396231Y61054D01*
X396230Y61022D01*
X396260Y60917D01*
X396282Y60810D01*
X396297Y60781D01*
X396306Y60750D01*
X396363Y60657D01*
X396414Y60561D01*
X396437Y60538D01*
X396454Y60510D01*
X396535Y60437D01*
X396611Y60359D01*
X396639Y60343D01*
X396663Y60321D01*
X396761Y60274D01*
X396857Y60220D01*
X396888Y60212D01*
X396917Y60198D01*
X397006Y60184D01*
X397131Y60155D01*
X397179Y60157D01*
X397222Y60151D01*
X403473Y60151D01*
X403568Y60164D01*
X403664Y60169D01*
X403707Y60184D01*
X403752Y60191D01*
X403840Y60230D01*
X403931Y60262D01*
X403965Y60287D01*
X404009Y60307D01*
X404107Y60390D01*
X404180Y60443D01*
X406457Y62720D01*
X406514Y62797D01*
X406579Y62868D01*
X406599Y62909D01*
X406626Y62946D01*
X406660Y63036D01*
X406702Y63122D01*
X406708Y63164D01*
X406725Y63210D01*
X406735Y63337D01*
X406749Y63427D01*
X406749Y70848D01*
X411752Y75851D01*
X418828Y75851D01*
X423831Y70848D01*
X423831Y63772D01*
X418828Y58769D01*
X411407Y58769D01*
X411312Y58756D01*
X411216Y58751D01*
X411173Y58736D01*
X411128Y58729D01*
X411040Y58690D01*
X410949Y58658D01*
X410915Y58633D01*
X410871Y58613D01*
X410774Y58530D01*
X410700Y58477D01*
X410080Y57857D01*
X410061Y57831D01*
X410036Y57810D01*
X409976Y57718D01*
X409911Y57631D01*
X409900Y57601D01*
X409882Y57574D01*
X409850Y57469D01*
X409811Y57367D01*
X409809Y57335D01*
X409800Y57304D01*
X409798Y57195D01*
X409790Y57086D01*
X409796Y57054D01*
X409796Y57022D01*
X409825Y56917D01*
X409847Y56810D01*
X409862Y56781D01*
X409871Y56750D01*
X409928Y56657D01*
X409980Y56561D01*
X410002Y56538D01*
X410019Y56510D01*
X410100Y56437D01*
X410176Y56359D01*
X410204Y56343D01*
X410228Y56321D01*
X410327Y56274D01*
X410422Y56220D01*
X410453Y56212D01*
X410482Y56198D01*
X410572Y56184D01*
X410696Y56155D01*
X410745Y56157D01*
X410787Y56151D01*
X424873Y56151D01*
X424968Y56164D01*
X425064Y56169D01*
X425107Y56184D01*
X425152Y56191D01*
X425240Y56230D01*
X425331Y56262D01*
X425365Y56287D01*
X425409Y56307D01*
X425507Y56390D01*
X425580Y56443D01*
X431857Y62720D01*
X431914Y62797D01*
X431979Y62868D01*
X431999Y62909D01*
X432026Y62946D01*
X432060Y63036D01*
X432102Y63122D01*
X432108Y63164D01*
X432125Y63210D01*
X432135Y63337D01*
X432149Y63427D01*
X432149Y70848D01*
X437152Y75851D01*
X444228Y75851D01*
X449231Y70848D01*
X449231Y63772D01*
X444228Y58769D01*
X436807Y58769D01*
X436712Y58756D01*
X436616Y58751D01*
X436573Y58736D01*
X436528Y58729D01*
X436440Y58690D01*
X436349Y58658D01*
X436315Y58633D01*
X436271Y58613D01*
X436173Y58530D01*
X436100Y58477D01*
X427773Y50149D01*
X422956Y50149D01*
X422924Y50145D01*
X422892Y50147D01*
X422785Y50125D01*
X422677Y50109D01*
X422647Y50096D01*
X422616Y50090D01*
X422519Y50038D01*
X422420Y49993D01*
X422395Y49972D01*
X422367Y49957D01*
X422288Y49881D01*
X422205Y49810D01*
X422188Y49783D01*
X422165Y49760D01*
X422111Y49665D01*
X422051Y49574D01*
X422041Y49543D01*
X422026Y49515D01*
X422000Y49409D01*
X421968Y49304D01*
X421968Y49272D01*
X421961Y49241D01*
X421966Y49131D01*
X421965Y49022D01*
X421973Y48991D01*
X421975Y48959D01*
X422011Y48856D01*
X422040Y48750D01*
X422057Y48723D01*
X422067Y48692D01*
X422121Y48619D01*
X422188Y48510D01*
X422224Y48478D01*
X422249Y48443D01*
X423378Y47314D01*
X424831Y43808D01*
X424831Y40012D01*
X423378Y36506D01*
X420694Y33822D01*
X417188Y32369D01*
X413392Y32369D01*
X409886Y33822D01*
X407202Y36506D01*
X405749Y40012D01*
X405749Y43808D01*
X407202Y47314D01*
X408331Y48443D01*
X408350Y48469D01*
X408375Y48490D01*
X408435Y48582D01*
X408500Y48669D01*
X408511Y48699D01*
X408529Y48726D01*
X408561Y48831D01*
X408600Y48933D01*
X408602Y48965D01*
X408612Y48996D01*
X408613Y49105D01*
X408621Y49214D01*
X408615Y49246D01*
X408615Y49278D01*
X408586Y49383D01*
X408564Y49490D01*
X408549Y49519D01*
X408540Y49550D01*
X408483Y49643D01*
X408431Y49739D01*
X408409Y49762D01*
X408392Y49790D01*
X408311Y49863D01*
X408235Y49941D01*
X408207Y49957D01*
X408183Y49979D01*
X408084Y50026D01*
X407989Y50080D01*
X407958Y50088D01*
X407929Y50102D01*
X407839Y50116D01*
X407715Y50145D01*
X407666Y50143D01*
X407624Y50149D01*
X397556Y50149D01*
X397524Y50145D01*
X397492Y50147D01*
X397385Y50125D01*
X397277Y50109D01*
X397247Y50096D01*
X397216Y50090D01*
X397119Y50038D01*
X397020Y49993D01*
X396995Y49972D01*
X396967Y49957D01*
X396888Y49881D01*
X396805Y49810D01*
X396788Y49783D01*
X396765Y49760D01*
X396711Y49665D01*
X396651Y49574D01*
X396641Y49543D01*
X396626Y49515D01*
X396600Y49409D01*
X396568Y49304D01*
X396568Y49272D01*
X396561Y49241D01*
X396566Y49131D01*
X396565Y49022D01*
X396573Y48991D01*
X396575Y48959D01*
X396611Y48856D01*
X396640Y48750D01*
X396657Y48723D01*
X396667Y48692D01*
X396721Y48619D01*
X396788Y48510D01*
X396824Y48478D01*
X396849Y48443D01*
X397978Y47314D01*
X399431Y43808D01*
X399431Y40012D01*
X397978Y36506D01*
X395294Y33822D01*
X391788Y32369D01*
X387992Y32369D01*
X384486Y33822D01*
X381802Y36506D01*
X380349Y40012D01*
X380349Y43808D01*
X381802Y47314D01*
X382931Y48443D01*
X382950Y48469D01*
X382975Y48490D01*
X383035Y48582D01*
X383100Y48669D01*
X383111Y48699D01*
X383129Y48726D01*
X383161Y48831D01*
X383200Y48933D01*
X383202Y48965D01*
X383212Y48996D01*
X383213Y49105D01*
X383221Y49214D01*
X383215Y49246D01*
X383215Y49278D01*
X383186Y49383D01*
X383164Y49490D01*
X383149Y49519D01*
X383140Y49550D01*
X383083Y49643D01*
X383031Y49739D01*
X383009Y49762D01*
X382992Y49790D01*
X382911Y49863D01*
X382835Y49941D01*
X382807Y49957D01*
X382783Y49979D01*
X382684Y50026D01*
X382589Y50080D01*
X382558Y50088D01*
X382529Y50102D01*
X382439Y50116D01*
X382315Y50145D01*
X382266Y50143D01*
X382224Y50149D01*
X372156Y50149D01*
X372124Y50145D01*
X372092Y50147D01*
X371985Y50125D01*
X371877Y50109D01*
X371847Y50096D01*
X371816Y50090D01*
X371719Y50038D01*
X371620Y49993D01*
X371595Y49972D01*
X371567Y49957D01*
X371488Y49881D01*
X371405Y49810D01*
X371388Y49783D01*
X371365Y49760D01*
X371311Y49665D01*
X371251Y49574D01*
X371241Y49543D01*
X371226Y49515D01*
X371200Y49409D01*
X371168Y49304D01*
X371168Y49272D01*
X371161Y49241D01*
X371166Y49131D01*
X371165Y49022D01*
X371173Y48991D01*
X371175Y48959D01*
X371211Y48856D01*
X371240Y48750D01*
X371257Y48723D01*
X371267Y48692D01*
X371321Y48619D01*
X371388Y48510D01*
X371424Y48478D01*
X371449Y48443D01*
X372578Y47314D01*
X374031Y43808D01*
X374031Y40012D01*
X372578Y36506D01*
X369894Y33822D01*
X366388Y32369D01*
X362592Y32369D01*
X359086Y33822D01*
X356402Y36506D01*
X354949Y40012D01*
X354949Y43808D01*
X356402Y47314D01*
X357531Y48443D01*
X357550Y48469D01*
X357575Y48490D01*
X357635Y48582D01*
X357700Y48669D01*
X357711Y48699D01*
X357729Y48726D01*
X357761Y48831D01*
X357800Y48933D01*
X357802Y48965D01*
X357812Y48996D01*
X357813Y49105D01*
X357821Y49214D01*
X357815Y49246D01*
X357815Y49278D01*
X357786Y49383D01*
X357764Y49490D01*
X357749Y49519D01*
X357740Y49550D01*
X357683Y49643D01*
X357631Y49739D01*
X357609Y49762D01*
X357592Y49790D01*
X357511Y49863D01*
X357435Y49941D01*
X357407Y49957D01*
X357383Y49979D01*
X357284Y50026D01*
X357189Y50080D01*
X357158Y50088D01*
X357129Y50102D01*
X357039Y50116D01*
X356915Y50145D01*
X356866Y50143D01*
X356824Y50149D01*
X347519Y50149D01*
X347487Y50145D01*
X347455Y50147D01*
X347348Y50125D01*
X347240Y50109D01*
X347211Y50096D01*
X347179Y50089D01*
X347082Y50038D01*
X346983Y49993D01*
X346959Y49972D01*
X346930Y49957D01*
X346852Y49881D01*
X346769Y49810D01*
X346751Y49783D01*
X346728Y49760D01*
X346674Y49665D01*
X346615Y49574D01*
X346605Y49543D01*
X346589Y49514D01*
X346564Y49408D01*
X346532Y49304D01*
X346532Y49272D01*
X346524Y49240D01*
X346530Y49131D01*
X346528Y49022D01*
X346537Y48991D01*
X346539Y48958D01*
X346575Y48855D01*
X346604Y48750D01*
X346621Y48723D01*
X346631Y48692D01*
X346685Y48619D01*
X346733Y48541D01*
X346752Y48510D01*
X346761Y48502D01*
X347712Y47194D01*
X348432Y45780D01*
X348923Y44271D01*
X348980Y43909D01*
X340090Y43909D01*
X340027Y43900D01*
X339962Y43901D01*
X339888Y43880D01*
X339811Y43869D01*
X339752Y43843D01*
X339690Y43826D01*
X339624Y43785D01*
X339554Y43753D01*
X339505Y43711D01*
X339450Y43678D01*
X339399Y43620D01*
X339340Y43570D01*
X339304Y43516D01*
X339261Y43468D01*
X339228Y43399D01*
X339185Y43334D01*
X339166Y43272D01*
X339138Y43215D01*
X339128Y43145D01*
X339103Y43064D01*
X339102Y42979D01*
X339091Y42910D01*
X339091Y41909D01*
X339089Y41909D01*
X339089Y42910D01*
X339080Y42974D01*
X339081Y43038D01*
X339060Y43113D01*
X339049Y43189D01*
X339023Y43248D01*
X339006Y43310D01*
X338965Y43376D01*
X338933Y43446D01*
X338891Y43495D01*
X338858Y43550D01*
X338800Y43602D01*
X338750Y43660D01*
X338696Y43696D01*
X338648Y43739D01*
X338579Y43772D01*
X338514Y43815D01*
X338452Y43834D01*
X338394Y43862D01*
X338325Y43872D01*
X338244Y43897D01*
X338159Y43898D01*
X338090Y43909D01*
X329200Y43909D01*
X329257Y44271D01*
X329748Y45780D01*
X330468Y47194D01*
X331409Y48489D01*
X331411Y48490D01*
X331417Y48500D01*
X331447Y48541D01*
X331459Y48564D01*
X331471Y48581D01*
X331536Y48668D01*
X331548Y48699D01*
X331565Y48726D01*
X331597Y48830D01*
X331636Y48932D01*
X331638Y48965D01*
X331648Y48996D01*
X331649Y49105D01*
X331658Y49213D01*
X331651Y49245D01*
X331652Y49278D01*
X331623Y49383D01*
X331600Y49489D01*
X331585Y49518D01*
X331576Y49550D01*
X331519Y49642D01*
X331468Y49739D01*
X331445Y49762D01*
X331428Y49790D01*
X331347Y49863D01*
X331271Y49941D01*
X331243Y49957D01*
X331219Y49979D01*
X331121Y50026D01*
X331026Y50080D01*
X330995Y50087D01*
X330965Y50102D01*
X330876Y50116D01*
X330752Y50145D01*
X330703Y50143D01*
X330661Y50149D01*
X301187Y50149D01*
X301092Y50136D01*
X300996Y50131D01*
X300953Y50116D01*
X300908Y50109D01*
X300820Y50070D01*
X300729Y50038D01*
X300695Y50013D01*
X300651Y49993D01*
X300554Y49910D01*
X300480Y49857D01*
X298729Y48106D01*
X298724Y48098D01*
X298716Y48092D01*
X298639Y47985D01*
X298560Y47880D01*
X298557Y47871D01*
X298551Y47863D01*
X298507Y47739D01*
X298460Y47616D01*
X298460Y47607D01*
X298457Y47598D01*
X298449Y47466D01*
X298439Y47335D01*
X298441Y47326D01*
X298440Y47316D01*
X298458Y47241D01*
X298496Y47059D01*
X298508Y47038D01*
X298513Y47017D01*
X299689Y44177D01*
X299689Y39643D01*
X297953Y35453D01*
X296417Y33917D01*
X296397Y33891D01*
X296373Y33870D01*
X296313Y33778D01*
X296248Y33691D01*
X296236Y33661D01*
X296218Y33634D01*
X296186Y33529D01*
X296148Y33427D01*
X296145Y33395D01*
X296136Y33364D01*
X296135Y33255D01*
X296126Y33146D01*
X296133Y33114D01*
X296132Y33082D01*
X296161Y32977D01*
X296184Y32870D01*
X296199Y32841D01*
X296208Y32810D01*
X296265Y32717D01*
X296316Y32621D01*
X296339Y32598D01*
X296356Y32570D01*
X296437Y32497D01*
X296513Y32419D01*
X296541Y32403D01*
X296565Y32381D01*
X296663Y32334D01*
X296758Y32280D01*
X296790Y32272D01*
X296819Y32258D01*
X296908Y32244D01*
X297033Y32215D01*
X297081Y32217D01*
X297123Y32211D01*
X303503Y32211D01*
X311910Y23803D01*
X311987Y23746D01*
X312058Y23681D01*
X312099Y23661D01*
X312136Y23634D01*
X312226Y23600D01*
X312312Y23558D01*
X312354Y23552D01*
X312400Y23535D01*
X312527Y23525D01*
X312617Y23511D01*
X474783Y23511D01*
X474878Y23524D01*
G37*
G36*
X466344Y102635D02*
X466344Y102635D01*
X466376Y102633D01*
X466483Y102655D01*
X466591Y102671D01*
X466620Y102684D01*
X466652Y102690D01*
X466748Y102742D01*
X466848Y102787D01*
X466872Y102808D01*
X466901Y102823D01*
X466979Y102899D01*
X467062Y102970D01*
X467080Y102997D01*
X467103Y103020D01*
X467157Y103115D01*
X467217Y103206D01*
X467226Y103237D01*
X467242Y103265D01*
X467267Y103371D01*
X467299Y103476D01*
X467299Y103508D01*
X467307Y103539D01*
X467301Y103649D01*
X467303Y103758D01*
X467294Y103789D01*
X467292Y103821D01*
X467257Y103924D01*
X467227Y104030D01*
X467211Y104057D01*
X467200Y104088D01*
X467147Y104161D01*
X467079Y104270D01*
X467043Y104302D01*
X467018Y104337D01*
X466359Y104995D01*
X466359Y286983D01*
X466355Y287015D01*
X466357Y287047D01*
X466335Y287154D01*
X466319Y287262D01*
X466306Y287292D01*
X466300Y287323D01*
X466248Y287420D01*
X466203Y287519D01*
X466182Y287544D01*
X466167Y287572D01*
X466091Y287651D01*
X466020Y287734D01*
X465993Y287751D01*
X465970Y287774D01*
X465875Y287828D01*
X465784Y287888D01*
X465753Y287898D01*
X465725Y287913D01*
X465618Y287939D01*
X465514Y287970D01*
X465482Y287971D01*
X465451Y287978D01*
X465341Y287973D01*
X465232Y287974D01*
X465201Y287966D01*
X465169Y287964D01*
X465066Y287928D01*
X464960Y287899D01*
X464933Y287882D01*
X464902Y287872D01*
X464829Y287818D01*
X464720Y287751D01*
X464688Y287715D01*
X464653Y287690D01*
X456173Y279210D01*
X456116Y279133D01*
X456051Y279062D01*
X456031Y279021D01*
X456004Y278984D01*
X455970Y278894D01*
X455928Y278808D01*
X455922Y278766D01*
X455905Y278720D01*
X455895Y278593D01*
X455881Y278503D01*
X455881Y110877D01*
X455889Y110817D01*
X455889Y110792D01*
X455895Y110770D01*
X455899Y110686D01*
X455914Y110643D01*
X455921Y110598D01*
X455960Y110510D01*
X455992Y110419D01*
X456017Y110385D01*
X456037Y110341D01*
X456120Y110243D01*
X456173Y110170D01*
X463420Y102923D01*
X463497Y102866D01*
X463568Y102801D01*
X463609Y102781D01*
X463646Y102754D01*
X463736Y102720D01*
X463822Y102678D01*
X463864Y102672D01*
X463910Y102655D01*
X464037Y102645D01*
X464127Y102631D01*
X466312Y102631D01*
X466344Y102635D01*
G37*
G36*
X238275Y106157D02*
X238275Y106157D01*
X238393Y106169D01*
X238414Y106177D01*
X238437Y106181D01*
X238545Y106229D01*
X238655Y106273D01*
X238673Y106287D01*
X238694Y106297D01*
X238784Y106374D01*
X238877Y106447D01*
X238891Y106465D01*
X238908Y106480D01*
X238973Y106580D01*
X239042Y106676D01*
X239050Y106697D01*
X239062Y106716D01*
X239097Y106830D01*
X239137Y106941D01*
X239138Y106964D01*
X239145Y106986D01*
X239146Y107104D01*
X239153Y107223D01*
X239148Y107244D01*
X239149Y107268D01*
X239099Y107447D01*
X239081Y107522D01*
X238307Y109389D01*
X238307Y111591D01*
X238923Y113077D01*
X238952Y113191D01*
X238987Y113305D01*
X238987Y113328D01*
X238993Y113350D01*
X238989Y113468D01*
X238991Y113587D01*
X238985Y113609D01*
X238984Y113632D01*
X238947Y113744D01*
X238916Y113859D01*
X238904Y113878D01*
X238896Y113900D01*
X238830Y113998D01*
X238767Y114099D01*
X238750Y114114D01*
X238738Y114133D01*
X238646Y114208D01*
X238558Y114288D01*
X238538Y114298D01*
X238520Y114312D01*
X238411Y114359D01*
X238304Y114411D01*
X238283Y114414D01*
X238261Y114424D01*
X238076Y114446D01*
X238000Y114458D01*
X237124Y114458D01*
X237079Y114492D01*
X237009Y114518D01*
X236943Y114554D01*
X236878Y114568D01*
X236815Y114592D01*
X236741Y114597D01*
X236667Y114613D01*
X236601Y114608D01*
X236534Y114613D01*
X236461Y114598D01*
X236386Y114593D01*
X236329Y114571D01*
X236258Y114556D01*
X236172Y114510D01*
X236099Y114482D01*
X235423Y114091D01*
X234777Y113918D01*
X230599Y113918D01*
X230599Y123460D01*
X230590Y123524D01*
X230591Y123588D01*
X230570Y123662D01*
X230559Y123739D01*
X230533Y123798D01*
X230516Y123860D01*
X230475Y123926D01*
X230443Y123996D01*
X230401Y124045D01*
X230368Y124100D01*
X230310Y124151D01*
X230260Y124210D01*
X230206Y124246D01*
X230158Y124289D01*
X230089Y124322D01*
X230024Y124365D01*
X229962Y124384D01*
X229905Y124412D01*
X229835Y124422D01*
X229754Y124447D01*
X229669Y124448D01*
X229600Y124459D01*
X228599Y124459D01*
X228599Y124461D01*
X229600Y124461D01*
X229664Y124470D01*
X229728Y124469D01*
X229803Y124490D01*
X229879Y124501D01*
X229938Y124527D01*
X230000Y124544D01*
X230066Y124585D01*
X230136Y124617D01*
X230185Y124659D01*
X230240Y124692D01*
X230292Y124750D01*
X230350Y124800D01*
X230386Y124854D01*
X230429Y124902D01*
X230462Y124971D01*
X230505Y125036D01*
X230524Y125098D01*
X230552Y125156D01*
X230562Y125225D01*
X230587Y125306D01*
X230588Y125391D01*
X230599Y125460D01*
X230599Y135002D01*
X234777Y135002D01*
X235423Y134829D01*
X236099Y134438D01*
X236168Y134410D01*
X236233Y134374D01*
X236298Y134358D01*
X236360Y134333D01*
X236435Y134326D01*
X236508Y134309D01*
X236574Y134312D01*
X236641Y134305D01*
X236715Y134319D01*
X236789Y134323D01*
X236853Y134345D01*
X236918Y134357D01*
X236985Y134391D01*
X237056Y134415D01*
X237105Y134452D01*
X237125Y134462D01*
X238300Y134462D01*
X238364Y134471D01*
X238428Y134470D01*
X238503Y134491D01*
X238579Y134502D01*
X238638Y134528D01*
X238700Y134545D01*
X238766Y134586D01*
X238836Y134618D01*
X238885Y134660D01*
X238940Y134693D01*
X238992Y134751D01*
X239050Y134801D01*
X239086Y134855D01*
X239129Y134903D01*
X239162Y134972D01*
X239205Y135037D01*
X239224Y135099D01*
X239252Y135156D01*
X239263Y135226D01*
X239287Y135307D01*
X239288Y135392D01*
X239299Y135461D01*
X239299Y138675D01*
X239286Y138770D01*
X239281Y138866D01*
X239266Y138910D01*
X239259Y138954D01*
X239220Y139042D01*
X239188Y139133D01*
X239163Y139167D01*
X239143Y139211D01*
X239060Y139309D01*
X239007Y139382D01*
X235902Y142487D01*
X235825Y142544D01*
X235754Y142609D01*
X235713Y142629D01*
X235676Y142656D01*
X235586Y142690D01*
X235500Y142732D01*
X235458Y142738D01*
X235412Y142755D01*
X235285Y142765D01*
X235195Y142779D01*
X208035Y142779D01*
X207940Y142766D01*
X207844Y142761D01*
X207800Y142746D01*
X207756Y142739D01*
X207668Y142700D01*
X207577Y142668D01*
X207543Y142643D01*
X207499Y142623D01*
X207401Y142540D01*
X207328Y142487D01*
X202953Y138112D01*
X202896Y138035D01*
X202831Y137964D01*
X202811Y137923D01*
X202784Y137886D01*
X202750Y137796D01*
X202708Y137710D01*
X202702Y137668D01*
X202685Y137622D01*
X202675Y137495D01*
X202661Y137405D01*
X202661Y135461D01*
X202670Y135397D01*
X202669Y135333D01*
X202690Y135258D01*
X202701Y135182D01*
X202727Y135123D01*
X202744Y135061D01*
X202785Y134995D01*
X202817Y134925D01*
X202859Y134876D01*
X202892Y134821D01*
X202950Y134769D01*
X203000Y134711D01*
X203054Y134675D01*
X203102Y134632D01*
X203171Y134599D01*
X203236Y134556D01*
X203298Y134537D01*
X203355Y134509D01*
X203425Y134498D01*
X203506Y134474D01*
X203591Y134473D01*
X203660Y134462D01*
X204791Y134462D01*
X205963Y133290D01*
X205963Y115630D01*
X204791Y114458D01*
X191449Y114458D01*
X191207Y114701D01*
X191155Y114739D01*
X191110Y114786D01*
X191043Y114824D01*
X190981Y114870D01*
X190921Y114893D01*
X190865Y114925D01*
X190790Y114942D01*
X190717Y114970D01*
X190653Y114975D01*
X190590Y114990D01*
X190513Y114986D01*
X190436Y114992D01*
X190373Y114978D01*
X190309Y114975D01*
X190236Y114950D01*
X190160Y114934D01*
X190103Y114904D01*
X190042Y114883D01*
X189986Y114841D01*
X189911Y114802D01*
X189850Y114742D01*
X189793Y114701D01*
X189551Y114458D01*
X188420Y114458D01*
X188356Y114449D01*
X188292Y114450D01*
X188217Y114429D01*
X188141Y114418D01*
X188082Y114392D01*
X188020Y114375D01*
X187954Y114334D01*
X187884Y114302D01*
X187835Y114260D01*
X187780Y114227D01*
X187728Y114169D01*
X187670Y114119D01*
X187634Y114065D01*
X187591Y114017D01*
X187558Y113948D01*
X187515Y113883D01*
X187496Y113821D01*
X187468Y113764D01*
X187457Y113694D01*
X187433Y113613D01*
X187432Y113528D01*
X187421Y113459D01*
X187421Y111515D01*
X187434Y111420D01*
X187439Y111324D01*
X187454Y111280D01*
X187461Y111236D01*
X187500Y111148D01*
X187532Y111057D01*
X187557Y111023D01*
X187577Y110979D01*
X187660Y110881D01*
X187713Y110808D01*
X192088Y106433D01*
X192165Y106376D01*
X192236Y106311D01*
X192277Y106291D01*
X192314Y106264D01*
X192404Y106230D01*
X192490Y106188D01*
X192532Y106182D01*
X192578Y106165D01*
X192705Y106155D01*
X192795Y106141D01*
X238157Y106141D01*
X238275Y106157D01*
G37*
G36*
X330436Y338914D02*
X330436Y338914D01*
X330531Y338919D01*
X330575Y338934D01*
X330621Y338941D01*
X330708Y338980D01*
X330798Y339011D01*
X330836Y339038D01*
X330878Y339057D01*
X330950Y339119D01*
X331028Y339173D01*
X331057Y339210D01*
X331093Y339240D01*
X331145Y339320D01*
X331204Y339394D01*
X331221Y339437D01*
X331247Y339476D01*
X331275Y339567D01*
X331311Y339655D01*
X331316Y339701D01*
X331329Y339746D01*
X331331Y339841D01*
X331341Y339935D01*
X331333Y339981D01*
X331333Y340028D01*
X331308Y340119D01*
X331291Y340213D01*
X331271Y340252D01*
X331258Y340300D01*
X331192Y340407D01*
X331151Y340487D01*
X330468Y341426D01*
X329748Y342840D01*
X329257Y344349D01*
X329200Y344711D01*
X338090Y344711D01*
X338153Y344720D01*
X338218Y344719D01*
X338292Y344740D01*
X338369Y344751D01*
X338428Y344777D01*
X338490Y344794D01*
X338556Y344835D01*
X338626Y344867D01*
X338675Y344909D01*
X338730Y344942D01*
X338781Y345000D01*
X338840Y345050D01*
X338876Y345104D01*
X338919Y345152D01*
X338952Y345221D01*
X338995Y345286D01*
X339014Y345348D01*
X339042Y345405D01*
X339052Y345475D01*
X339077Y345556D01*
X339078Y345641D01*
X339089Y345710D01*
X339089Y346711D01*
X339091Y346711D01*
X339091Y345710D01*
X339100Y345649D01*
X339099Y345616D01*
X339100Y345614D01*
X339099Y345582D01*
X339120Y345507D01*
X339131Y345431D01*
X339157Y345372D01*
X339174Y345310D01*
X339215Y345244D01*
X339247Y345174D01*
X339289Y345125D01*
X339322Y345070D01*
X339380Y345018D01*
X339430Y344960D01*
X339484Y344924D01*
X339532Y344881D01*
X339601Y344848D01*
X339666Y344805D01*
X339728Y344786D01*
X339786Y344758D01*
X339855Y344747D01*
X339936Y344723D01*
X340021Y344722D01*
X340090Y344711D01*
X348980Y344711D01*
X348923Y344349D01*
X348432Y342840D01*
X347712Y341426D01*
X347029Y340487D01*
X346985Y340403D01*
X346933Y340324D01*
X346919Y340279D01*
X346898Y340238D01*
X346878Y340145D01*
X346851Y340054D01*
X346850Y340008D01*
X346840Y339962D01*
X346848Y339867D01*
X346847Y339772D01*
X346859Y339727D01*
X346863Y339681D01*
X346897Y339592D01*
X346922Y339500D01*
X346946Y339461D01*
X346963Y339417D01*
X347020Y339341D01*
X347070Y339260D01*
X347105Y339229D01*
X347133Y339192D01*
X347209Y339135D01*
X347279Y339071D01*
X347321Y339051D01*
X347359Y339023D01*
X347448Y338990D01*
X347533Y338948D01*
X347576Y338942D01*
X347623Y338924D01*
X347749Y338915D01*
X347838Y338901D01*
X356394Y338901D01*
X356426Y338905D01*
X356458Y338903D01*
X356565Y338925D01*
X356673Y338941D01*
X356703Y338954D01*
X356734Y338960D01*
X356831Y339012D01*
X356930Y339057D01*
X356955Y339078D01*
X356983Y339093D01*
X357062Y339169D01*
X357145Y339240D01*
X357162Y339267D01*
X357185Y339290D01*
X357239Y339385D01*
X357299Y339476D01*
X357309Y339507D01*
X357324Y339535D01*
X357350Y339641D01*
X357382Y339746D01*
X357382Y339778D01*
X357389Y339809D01*
X357384Y339919D01*
X357385Y340028D01*
X357377Y340059D01*
X357375Y340091D01*
X357339Y340194D01*
X357310Y340300D01*
X357293Y340327D01*
X357283Y340358D01*
X357229Y340431D01*
X357162Y340540D01*
X357126Y340572D01*
X357101Y340607D01*
X356402Y341306D01*
X354949Y344812D01*
X354949Y348608D01*
X356402Y352114D01*
X359086Y354798D01*
X362592Y356251D01*
X366388Y356251D01*
X369894Y354798D01*
X372578Y352114D01*
X374031Y348608D01*
X374031Y344812D01*
X372578Y341306D01*
X371879Y340607D01*
X371860Y340581D01*
X371835Y340560D01*
X371775Y340468D01*
X371710Y340381D01*
X371699Y340351D01*
X371681Y340324D01*
X371649Y340219D01*
X371610Y340117D01*
X371608Y340085D01*
X371598Y340054D01*
X371597Y339945D01*
X371589Y339836D01*
X371595Y339804D01*
X371595Y339772D01*
X371624Y339667D01*
X371646Y339560D01*
X371661Y339531D01*
X371670Y339500D01*
X371727Y339407D01*
X371779Y339311D01*
X371801Y339288D01*
X371818Y339260D01*
X371899Y339187D01*
X371975Y339109D01*
X372003Y339093D01*
X372027Y339071D01*
X372125Y339024D01*
X372221Y338970D01*
X372252Y338962D01*
X372281Y338948D01*
X372371Y338934D01*
X372495Y338905D01*
X372544Y338907D01*
X372586Y338901D01*
X381794Y338901D01*
X381826Y338905D01*
X381858Y338903D01*
X381965Y338925D01*
X382073Y338941D01*
X382103Y338954D01*
X382134Y338960D01*
X382231Y339012D01*
X382330Y339057D01*
X382355Y339078D01*
X382383Y339093D01*
X382462Y339169D01*
X382545Y339240D01*
X382562Y339267D01*
X382585Y339290D01*
X382639Y339385D01*
X382699Y339476D01*
X382709Y339507D01*
X382724Y339535D01*
X382750Y339641D01*
X382782Y339746D01*
X382782Y339778D01*
X382789Y339809D01*
X382784Y339919D01*
X382785Y340028D01*
X382777Y340059D01*
X382775Y340091D01*
X382739Y340194D01*
X382710Y340300D01*
X382693Y340327D01*
X382683Y340358D01*
X382629Y340431D01*
X382562Y340540D01*
X382526Y340572D01*
X382501Y340607D01*
X381802Y341306D01*
X380349Y344812D01*
X380349Y348608D01*
X381802Y352114D01*
X384486Y354798D01*
X384732Y354900D01*
X384741Y354905D01*
X384750Y354908D01*
X384862Y354977D01*
X384975Y355044D01*
X384982Y355051D01*
X384990Y355056D01*
X385078Y355154D01*
X385168Y355250D01*
X385172Y355258D01*
X385179Y355265D01*
X385236Y355384D01*
X385296Y355501D01*
X385298Y355510D01*
X385302Y355519D01*
X385314Y355595D01*
X385338Y355725D01*
X385345Y355755D01*
X385345Y355761D01*
X385348Y355778D01*
X385346Y355802D01*
X385349Y355824D01*
X385349Y355845D01*
X385336Y355940D01*
X385331Y356036D01*
X385316Y356080D01*
X385309Y356124D01*
X385270Y356212D01*
X385238Y356303D01*
X385213Y356337D01*
X385193Y356381D01*
X385110Y356479D01*
X385057Y356552D01*
X381412Y360197D01*
X381335Y360254D01*
X381264Y360319D01*
X381223Y360339D01*
X381186Y360366D01*
X381096Y360400D01*
X381010Y360442D01*
X380968Y360448D01*
X380922Y360465D01*
X380795Y360475D01*
X380705Y360489D01*
X308365Y360489D01*
X308270Y360476D01*
X308174Y360471D01*
X308131Y360456D01*
X308086Y360449D01*
X307998Y360410D01*
X307907Y360378D01*
X307873Y360353D01*
X307829Y360333D01*
X307731Y360250D01*
X307658Y360197D01*
X306148Y358687D01*
X306129Y358661D01*
X306104Y358640D01*
X306044Y358548D01*
X305979Y358461D01*
X305967Y358431D01*
X305950Y358404D01*
X305918Y358299D01*
X305879Y358197D01*
X305877Y358165D01*
X305867Y358134D01*
X305866Y358025D01*
X305857Y357916D01*
X305864Y357884D01*
X305864Y357852D01*
X305893Y357747D01*
X305915Y357640D01*
X305930Y357611D01*
X305939Y357580D01*
X305996Y357487D01*
X306048Y357391D01*
X306070Y357368D01*
X306087Y357340D01*
X306168Y357267D01*
X306244Y357189D01*
X306272Y357173D01*
X306296Y357151D01*
X306395Y357104D01*
X306490Y357050D01*
X306521Y357042D01*
X306550Y357028D01*
X306639Y357014D01*
X306764Y356985D01*
X306813Y356987D01*
X306855Y356981D01*
X308819Y356981D01*
X309991Y355809D01*
X309991Y339900D01*
X310000Y339836D01*
X309999Y339772D01*
X310020Y339697D01*
X310031Y339621D01*
X310057Y339562D01*
X310074Y339500D01*
X310115Y339434D01*
X310147Y339364D01*
X310189Y339315D01*
X310222Y339260D01*
X310280Y339208D01*
X310330Y339150D01*
X310384Y339114D01*
X310432Y339071D01*
X310501Y339038D01*
X310566Y338995D01*
X310628Y338976D01*
X310685Y338948D01*
X310755Y338937D01*
X310836Y338913D01*
X310921Y338912D01*
X310990Y338901D01*
X330342Y338901D01*
X330436Y338914D01*
G37*
%LPC*%
G36*
X26027Y340869D02*
X26027Y340869D01*
X20146Y343305D01*
X15645Y347806D01*
X13209Y353687D01*
X13209Y360053D01*
X15645Y365934D01*
X20146Y370435D01*
X26027Y372871D01*
X32393Y372871D01*
X38274Y370435D01*
X42775Y365934D01*
X45211Y360053D01*
X45211Y353687D01*
X42775Y347806D01*
X38274Y343305D01*
X32393Y340869D01*
X26027Y340869D01*
G37*
%LPD*%
%LPC*%
G36*
X697857Y340869D02*
X697857Y340869D01*
X691976Y343305D01*
X687475Y347806D01*
X685039Y353687D01*
X685039Y360053D01*
X687475Y365934D01*
X691976Y370435D01*
X697857Y372871D01*
X704223Y372871D01*
X710104Y370435D01*
X714605Y365934D01*
X717041Y360053D01*
X717041Y353687D01*
X714605Y347806D01*
X710104Y343305D01*
X704223Y340869D01*
X697857Y340869D01*
G37*
%LPD*%
%LPC*%
G36*
X697857Y10669D02*
X697857Y10669D01*
X691976Y13105D01*
X687475Y17606D01*
X685039Y23487D01*
X685039Y29853D01*
X687475Y35734D01*
X691976Y40235D01*
X697857Y42671D01*
X704223Y42671D01*
X710104Y40235D01*
X714605Y35734D01*
X717041Y29853D01*
X717041Y23487D01*
X714605Y17606D01*
X710104Y13105D01*
X704223Y10669D01*
X697857Y10669D01*
G37*
%LPD*%
%LPC*%
G36*
X692777Y66549D02*
X692777Y66549D01*
X686896Y68985D01*
X682395Y73486D01*
X679959Y79367D01*
X679959Y85733D01*
X682395Y91614D01*
X686896Y96115D01*
X692777Y98551D01*
X699143Y98551D01*
X705024Y96115D01*
X709525Y91614D01*
X711961Y85733D01*
X711961Y79367D01*
X709525Y73486D01*
X705024Y68985D01*
X699143Y66549D01*
X692777Y66549D01*
G37*
%LPD*%
%LPC*%
G36*
X692777Y287529D02*
X692777Y287529D01*
X686896Y289965D01*
X682395Y294466D01*
X679959Y300347D01*
X679959Y306713D01*
X682395Y312594D01*
X686896Y317095D01*
X692777Y319531D01*
X699143Y319531D01*
X705024Y317095D01*
X709525Y312594D01*
X711961Y306713D01*
X711961Y300347D01*
X709525Y294466D01*
X705024Y289965D01*
X699143Y287529D01*
X692777Y287529D01*
G37*
%LPD*%
G36*
X352213Y194783D02*
X352213Y194783D01*
X352300Y194786D01*
X352352Y194803D01*
X352407Y194811D01*
X352486Y194846D01*
X352568Y194873D01*
X352614Y194904D01*
X352664Y194927D01*
X352730Y194983D01*
X352801Y195032D01*
X352836Y195074D01*
X352878Y195110D01*
X352926Y195183D01*
X352981Y195250D01*
X353002Y195300D01*
X353032Y195346D01*
X353058Y195429D01*
X353092Y195509D01*
X353099Y195563D01*
X353115Y195616D01*
X353116Y195703D01*
X353127Y195789D01*
X353118Y195843D01*
X353119Y195898D01*
X353095Y195982D01*
X353082Y196067D01*
X353058Y196117D01*
X353043Y196170D01*
X352998Y196244D01*
X352960Y196322D01*
X352924Y196363D01*
X352895Y196410D01*
X352831Y196468D01*
X352773Y196533D01*
X352730Y196559D01*
X352686Y196599D01*
X352584Y196648D01*
X352510Y196693D01*
X350196Y197652D01*
X347512Y200336D01*
X346059Y203842D01*
X346059Y207638D01*
X347512Y211144D01*
X350101Y213733D01*
X350120Y213759D01*
X350145Y213780D01*
X350205Y213872D01*
X350270Y213959D01*
X350282Y213989D01*
X350299Y214016D01*
X350331Y214121D01*
X350370Y214223D01*
X350372Y214255D01*
X350382Y214286D01*
X350383Y214395D01*
X350391Y214504D01*
X350385Y214536D01*
X350385Y214568D01*
X350356Y214673D01*
X350334Y214780D01*
X350319Y214809D01*
X350310Y214840D01*
X350253Y214933D01*
X350201Y215029D01*
X350179Y215052D01*
X350162Y215080D01*
X350081Y215153D01*
X350005Y215231D01*
X349977Y215247D01*
X349953Y215269D01*
X349854Y215316D01*
X349759Y215370D01*
X349728Y215378D01*
X349699Y215392D01*
X349610Y215406D01*
X349485Y215435D01*
X349436Y215433D01*
X349394Y215439D01*
X314077Y215439D01*
X313982Y215426D01*
X313886Y215421D01*
X313843Y215406D01*
X313798Y215399D01*
X313710Y215360D01*
X313619Y215328D01*
X313585Y215303D01*
X313541Y215283D01*
X313443Y215200D01*
X313370Y215147D01*
X308500Y210277D01*
X308495Y210269D01*
X308487Y210263D01*
X308410Y210156D01*
X308331Y210051D01*
X308328Y210042D01*
X308322Y210035D01*
X308278Y209911D01*
X308232Y209787D01*
X308231Y209778D01*
X308228Y209769D01*
X308220Y209637D01*
X308210Y209506D01*
X308212Y209497D01*
X308211Y209487D01*
X308229Y209412D01*
X308267Y209230D01*
X308279Y209209D01*
X308284Y209188D01*
X309341Y206636D01*
X309341Y202304D01*
X307683Y198301D01*
X305858Y196477D01*
X305839Y196451D01*
X305815Y196430D01*
X305754Y196338D01*
X305689Y196251D01*
X305678Y196221D01*
X305660Y196194D01*
X305628Y196089D01*
X305590Y195987D01*
X305587Y195955D01*
X305578Y195924D01*
X305576Y195815D01*
X305568Y195706D01*
X305574Y195674D01*
X305574Y195642D01*
X305603Y195537D01*
X305625Y195430D01*
X305640Y195401D01*
X305649Y195370D01*
X305707Y195277D01*
X305758Y195181D01*
X305780Y195158D01*
X305797Y195130D01*
X305878Y195057D01*
X305955Y194979D01*
X305983Y194963D01*
X306007Y194941D01*
X306105Y194894D01*
X306200Y194840D01*
X306231Y194832D01*
X306260Y194818D01*
X306350Y194804D01*
X306474Y194775D01*
X306523Y194777D01*
X306565Y194771D01*
X352127Y194771D01*
X352213Y194783D01*
G37*
%LPC*%
G36*
X184423Y30511D02*
X184423Y30511D01*
X180233Y32247D01*
X177027Y35453D01*
X175291Y39643D01*
X175291Y44177D01*
X177027Y48367D01*
X180233Y51573D01*
X184423Y53309D01*
X188957Y53309D01*
X191797Y52133D01*
X191806Y52130D01*
X191814Y52126D01*
X191943Y52095D01*
X192070Y52063D01*
X192079Y52063D01*
X192088Y52061D01*
X192221Y52067D01*
X192352Y52072D01*
X192361Y52075D01*
X192370Y52075D01*
X192495Y52118D01*
X192620Y52159D01*
X192628Y52164D01*
X192637Y52168D01*
X192699Y52213D01*
X192853Y52318D01*
X192868Y52337D01*
X192886Y52349D01*
X203257Y62720D01*
X203314Y62797D01*
X203379Y62868D01*
X203399Y62909D01*
X203426Y62946D01*
X203460Y63036D01*
X203502Y63122D01*
X203508Y63164D01*
X203525Y63210D01*
X203535Y63337D01*
X203549Y63427D01*
X203549Y70848D01*
X208552Y75851D01*
X215628Y75851D01*
X220631Y70848D01*
X220631Y63772D01*
X215628Y58769D01*
X208207Y58769D01*
X208112Y58756D01*
X208016Y58751D01*
X207973Y58736D01*
X207928Y58729D01*
X207840Y58690D01*
X207749Y58658D01*
X207715Y58633D01*
X207671Y58613D01*
X207573Y58530D01*
X207500Y58477D01*
X197129Y48106D01*
X197124Y48098D01*
X197116Y48092D01*
X197039Y47985D01*
X196960Y47880D01*
X196957Y47871D01*
X196951Y47863D01*
X196907Y47740D01*
X196860Y47616D01*
X196860Y47607D01*
X196857Y47598D01*
X196849Y47466D01*
X196839Y47335D01*
X196841Y47326D01*
X196840Y47316D01*
X196858Y47241D01*
X196896Y47059D01*
X196908Y47038D01*
X196913Y47017D01*
X198089Y44177D01*
X198089Y39643D01*
X196353Y35453D01*
X193147Y32247D01*
X188957Y30511D01*
X184423Y30511D01*
G37*
%LPD*%
%LPC*%
G36*
X133623Y30511D02*
X133623Y30511D01*
X129433Y32247D01*
X126227Y35453D01*
X124491Y39643D01*
X124491Y44177D01*
X126227Y48367D01*
X129433Y51573D01*
X133623Y53309D01*
X138157Y53309D01*
X140997Y52133D01*
X141006Y52130D01*
X141014Y52126D01*
X141143Y52095D01*
X141270Y52063D01*
X141279Y52063D01*
X141288Y52061D01*
X141421Y52067D01*
X141552Y52072D01*
X141561Y52075D01*
X141570Y52075D01*
X141695Y52118D01*
X141820Y52159D01*
X141828Y52164D01*
X141837Y52168D01*
X141899Y52213D01*
X142053Y52318D01*
X142068Y52337D01*
X142086Y52349D01*
X152457Y62720D01*
X152514Y62797D01*
X152579Y62868D01*
X152599Y62909D01*
X152626Y62946D01*
X152660Y63036D01*
X152702Y63122D01*
X152708Y63164D01*
X152725Y63210D01*
X152735Y63337D01*
X152749Y63427D01*
X152749Y70848D01*
X157752Y75851D01*
X164828Y75851D01*
X169831Y70848D01*
X169831Y63772D01*
X164828Y58769D01*
X157407Y58769D01*
X157312Y58756D01*
X157216Y58751D01*
X157173Y58736D01*
X157128Y58729D01*
X157040Y58690D01*
X156949Y58658D01*
X156915Y58633D01*
X156871Y58613D01*
X156773Y58530D01*
X156700Y58477D01*
X146329Y48106D01*
X146324Y48098D01*
X146316Y48092D01*
X146239Y47985D01*
X146160Y47880D01*
X146157Y47871D01*
X146151Y47863D01*
X146107Y47740D01*
X146060Y47616D01*
X146060Y47607D01*
X146057Y47598D01*
X146049Y47466D01*
X146039Y47335D01*
X146041Y47326D01*
X146040Y47316D01*
X146058Y47241D01*
X146096Y47059D01*
X146108Y47038D01*
X146113Y47017D01*
X147289Y44177D01*
X147289Y39643D01*
X145553Y35453D01*
X142347Y32247D01*
X138157Y30511D01*
X133623Y30511D01*
G37*
%LPD*%
%LPC*%
G36*
X209823Y30511D02*
X209823Y30511D01*
X205633Y32247D01*
X202427Y35453D01*
X200691Y39643D01*
X200691Y44177D01*
X202427Y48367D01*
X205633Y51573D01*
X209823Y53309D01*
X214357Y53309D01*
X217197Y52133D01*
X217206Y52130D01*
X217214Y52126D01*
X217343Y52095D01*
X217470Y52063D01*
X217479Y52063D01*
X217488Y52061D01*
X217621Y52067D01*
X217752Y52072D01*
X217761Y52075D01*
X217770Y52075D01*
X217895Y52118D01*
X218020Y52159D01*
X218028Y52164D01*
X218037Y52168D01*
X218099Y52213D01*
X218253Y52318D01*
X218268Y52337D01*
X218286Y52349D01*
X228657Y62720D01*
X228714Y62797D01*
X228779Y62868D01*
X228799Y62909D01*
X228826Y62946D01*
X228860Y63036D01*
X228902Y63122D01*
X228908Y63164D01*
X228925Y63210D01*
X228935Y63337D01*
X228949Y63427D01*
X228949Y70848D01*
X233952Y75851D01*
X241028Y75851D01*
X246031Y70848D01*
X246031Y63772D01*
X241028Y58769D01*
X233607Y58769D01*
X233512Y58756D01*
X233416Y58751D01*
X233373Y58736D01*
X233328Y58729D01*
X233240Y58690D01*
X233149Y58658D01*
X233115Y58633D01*
X233071Y58613D01*
X232973Y58530D01*
X232900Y58477D01*
X222529Y48106D01*
X222524Y48098D01*
X222516Y48092D01*
X222439Y47985D01*
X222360Y47880D01*
X222357Y47871D01*
X222351Y47863D01*
X222307Y47740D01*
X222260Y47616D01*
X222260Y47607D01*
X222257Y47598D01*
X222249Y47466D01*
X222239Y47335D01*
X222241Y47326D01*
X222240Y47316D01*
X222258Y47241D01*
X222296Y47059D01*
X222308Y47038D01*
X222313Y47017D01*
X223489Y44177D01*
X223489Y39643D01*
X221753Y35453D01*
X218547Y32247D01*
X214357Y30511D01*
X209823Y30511D01*
G37*
%LPD*%
%LPC*%
G36*
X159023Y30511D02*
X159023Y30511D01*
X154833Y32247D01*
X151627Y35453D01*
X149891Y39643D01*
X149891Y44177D01*
X151627Y48367D01*
X154833Y51573D01*
X159023Y53309D01*
X163557Y53309D01*
X166397Y52133D01*
X166406Y52130D01*
X166414Y52126D01*
X166543Y52095D01*
X166670Y52063D01*
X166679Y52063D01*
X166688Y52061D01*
X166821Y52067D01*
X166952Y52072D01*
X166961Y52075D01*
X166970Y52075D01*
X167095Y52118D01*
X167220Y52159D01*
X167228Y52164D01*
X167237Y52168D01*
X167299Y52213D01*
X167453Y52318D01*
X167468Y52337D01*
X167486Y52349D01*
X177857Y62720D01*
X177914Y62797D01*
X177979Y62868D01*
X177999Y62909D01*
X178026Y62946D01*
X178060Y63036D01*
X178102Y63122D01*
X178108Y63164D01*
X178125Y63210D01*
X178135Y63337D01*
X178149Y63427D01*
X178149Y70848D01*
X183152Y75851D01*
X190228Y75851D01*
X195231Y70848D01*
X195231Y63772D01*
X190228Y58769D01*
X182807Y58769D01*
X182712Y58756D01*
X182616Y58751D01*
X182573Y58736D01*
X182528Y58729D01*
X182440Y58690D01*
X182349Y58658D01*
X182315Y58633D01*
X182271Y58613D01*
X182173Y58530D01*
X182100Y58477D01*
X171729Y48106D01*
X171724Y48098D01*
X171716Y48092D01*
X171639Y47985D01*
X171560Y47880D01*
X171557Y47871D01*
X171551Y47863D01*
X171507Y47740D01*
X171460Y47616D01*
X171460Y47607D01*
X171457Y47598D01*
X171449Y47466D01*
X171439Y47335D01*
X171441Y47326D01*
X171440Y47316D01*
X171458Y47241D01*
X171496Y47059D01*
X171508Y47038D01*
X171513Y47017D01*
X172689Y44177D01*
X172689Y39643D01*
X170953Y35453D01*
X167747Y32247D01*
X163557Y30511D01*
X159023Y30511D01*
G37*
%LPD*%
%LPC*%
G36*
X235223Y30511D02*
X235223Y30511D01*
X231033Y32247D01*
X227827Y35453D01*
X226091Y39643D01*
X226091Y44177D01*
X227827Y48367D01*
X231033Y51573D01*
X235223Y53309D01*
X239757Y53309D01*
X242597Y52133D01*
X242606Y52130D01*
X242614Y52126D01*
X242743Y52095D01*
X242870Y52063D01*
X242879Y52063D01*
X242888Y52061D01*
X243021Y52067D01*
X243152Y52072D01*
X243161Y52075D01*
X243170Y52075D01*
X243295Y52118D01*
X243420Y52159D01*
X243428Y52164D01*
X243437Y52168D01*
X243499Y52213D01*
X243653Y52318D01*
X243668Y52337D01*
X243686Y52349D01*
X254057Y62720D01*
X254114Y62797D01*
X254179Y62868D01*
X254199Y62909D01*
X254226Y62946D01*
X254260Y63036D01*
X254302Y63122D01*
X254308Y63164D01*
X254325Y63210D01*
X254335Y63337D01*
X254349Y63427D01*
X254349Y70848D01*
X259352Y75851D01*
X266428Y75851D01*
X271431Y70848D01*
X271431Y63772D01*
X266428Y58769D01*
X259007Y58769D01*
X258912Y58756D01*
X258816Y58751D01*
X258773Y58736D01*
X258728Y58729D01*
X258640Y58690D01*
X258549Y58658D01*
X258515Y58633D01*
X258471Y58613D01*
X258373Y58530D01*
X258300Y58477D01*
X247929Y48106D01*
X247924Y48098D01*
X247916Y48092D01*
X247839Y47985D01*
X247760Y47880D01*
X247757Y47871D01*
X247751Y47863D01*
X247707Y47740D01*
X247660Y47616D01*
X247660Y47607D01*
X247657Y47598D01*
X247649Y47466D01*
X247639Y47335D01*
X247641Y47326D01*
X247640Y47316D01*
X247658Y47241D01*
X247696Y47059D01*
X247708Y47038D01*
X247713Y47017D01*
X248889Y44177D01*
X248889Y39643D01*
X247153Y35453D01*
X243947Y32247D01*
X239757Y30511D01*
X235223Y30511D01*
G37*
%LPD*%
%LPC*%
G36*
X57423Y30511D02*
X57423Y30511D01*
X53233Y32247D01*
X50027Y35453D01*
X48291Y39643D01*
X48291Y44177D01*
X50027Y48367D01*
X53233Y51573D01*
X56072Y52749D01*
X56081Y52754D01*
X56090Y52757D01*
X56202Y52826D01*
X56315Y52893D01*
X56322Y52900D01*
X56330Y52905D01*
X56418Y53003D01*
X56508Y53099D01*
X56512Y53107D01*
X56519Y53114D01*
X56576Y53233D01*
X56636Y53350D01*
X56638Y53360D01*
X56642Y53368D01*
X56654Y53444D01*
X56688Y53627D01*
X56686Y53651D01*
X56689Y53673D01*
X56689Y57818D01*
X56676Y57913D01*
X56671Y58010D01*
X56656Y58053D01*
X56649Y58098D01*
X56610Y58185D01*
X56578Y58276D01*
X56553Y58310D01*
X56533Y58355D01*
X56450Y58452D01*
X56397Y58525D01*
X51149Y63772D01*
X51149Y70848D01*
X56152Y75851D01*
X63228Y75851D01*
X68231Y70848D01*
X68231Y63772D01*
X62983Y58525D01*
X62926Y58448D01*
X62861Y58377D01*
X62841Y58336D01*
X62814Y58299D01*
X62780Y58209D01*
X62738Y58123D01*
X62732Y58081D01*
X62715Y58036D01*
X62705Y57908D01*
X62691Y57818D01*
X62691Y53673D01*
X62692Y53663D01*
X62691Y53654D01*
X62712Y53524D01*
X62731Y53393D01*
X62734Y53385D01*
X62736Y53375D01*
X62793Y53256D01*
X62847Y53136D01*
X62853Y53129D01*
X62857Y53121D01*
X62945Y53022D01*
X63030Y52922D01*
X63038Y52917D01*
X63044Y52910D01*
X63110Y52870D01*
X63266Y52768D01*
X63289Y52761D01*
X63308Y52749D01*
X66147Y51573D01*
X69353Y48367D01*
X71089Y44177D01*
X71089Y39643D01*
X69353Y35453D01*
X66147Y32247D01*
X61957Y30511D01*
X57423Y30511D01*
G37*
%LPD*%
%LPC*%
G36*
X82823Y30511D02*
X82823Y30511D01*
X78633Y32247D01*
X75427Y35453D01*
X73691Y39643D01*
X73691Y44177D01*
X75427Y48367D01*
X78633Y51573D01*
X81472Y52749D01*
X81481Y52754D01*
X81490Y52757D01*
X81602Y52826D01*
X81715Y52893D01*
X81722Y52900D01*
X81730Y52905D01*
X81818Y53003D01*
X81908Y53099D01*
X81912Y53107D01*
X81919Y53114D01*
X81976Y53233D01*
X82036Y53350D01*
X82038Y53360D01*
X82042Y53368D01*
X82054Y53444D01*
X82088Y53627D01*
X82086Y53651D01*
X82089Y53673D01*
X82089Y57818D01*
X82076Y57913D01*
X82071Y58010D01*
X82056Y58053D01*
X82049Y58098D01*
X82010Y58185D01*
X81978Y58276D01*
X81953Y58310D01*
X81933Y58355D01*
X81850Y58452D01*
X81797Y58525D01*
X76549Y63772D01*
X76549Y70848D01*
X81552Y75851D01*
X88628Y75851D01*
X93631Y70848D01*
X93631Y63772D01*
X88383Y58525D01*
X88326Y58448D01*
X88261Y58377D01*
X88241Y58336D01*
X88214Y58299D01*
X88180Y58209D01*
X88138Y58123D01*
X88132Y58081D01*
X88115Y58036D01*
X88105Y57908D01*
X88091Y57818D01*
X88091Y53673D01*
X88092Y53663D01*
X88091Y53654D01*
X88112Y53524D01*
X88131Y53393D01*
X88134Y53385D01*
X88136Y53375D01*
X88193Y53256D01*
X88247Y53136D01*
X88253Y53129D01*
X88257Y53121D01*
X88345Y53022D01*
X88430Y52922D01*
X88438Y52917D01*
X88444Y52910D01*
X88510Y52870D01*
X88666Y52768D01*
X88689Y52761D01*
X88708Y52749D01*
X91547Y51573D01*
X94753Y48367D01*
X96489Y44177D01*
X96489Y39643D01*
X94753Y35453D01*
X91547Y32247D01*
X87357Y30511D01*
X82823Y30511D01*
G37*
%LPD*%
%LPC*%
G36*
X108223Y30511D02*
X108223Y30511D01*
X104033Y32247D01*
X100827Y35453D01*
X99091Y39643D01*
X99091Y44177D01*
X100827Y48367D01*
X104033Y51573D01*
X106872Y52749D01*
X106881Y52754D01*
X106890Y52757D01*
X107002Y52826D01*
X107115Y52893D01*
X107122Y52900D01*
X107130Y52905D01*
X107218Y53003D01*
X107308Y53099D01*
X107312Y53107D01*
X107319Y53114D01*
X107376Y53233D01*
X107436Y53350D01*
X107438Y53360D01*
X107442Y53368D01*
X107454Y53444D01*
X107488Y53627D01*
X107486Y53651D01*
X107489Y53673D01*
X107489Y57818D01*
X107476Y57913D01*
X107471Y58010D01*
X107456Y58053D01*
X107449Y58098D01*
X107410Y58185D01*
X107378Y58276D01*
X107353Y58310D01*
X107333Y58355D01*
X107250Y58452D01*
X107197Y58525D01*
X101949Y63772D01*
X101949Y70848D01*
X106952Y75851D01*
X114028Y75851D01*
X119031Y70848D01*
X119031Y63772D01*
X113783Y58525D01*
X113726Y58448D01*
X113661Y58377D01*
X113641Y58336D01*
X113614Y58299D01*
X113580Y58209D01*
X113538Y58123D01*
X113532Y58081D01*
X113515Y58036D01*
X113505Y57908D01*
X113491Y57818D01*
X113491Y53673D01*
X113492Y53663D01*
X113491Y53654D01*
X113512Y53524D01*
X113531Y53393D01*
X113534Y53385D01*
X113536Y53375D01*
X113593Y53256D01*
X113647Y53136D01*
X113653Y53129D01*
X113657Y53121D01*
X113745Y53022D01*
X113830Y52922D01*
X113838Y52917D01*
X113844Y52910D01*
X113910Y52870D01*
X114066Y52768D01*
X114089Y52761D01*
X114108Y52749D01*
X116947Y51573D01*
X120153Y48367D01*
X121889Y44177D01*
X121889Y39643D01*
X120153Y35453D01*
X116947Y32247D01*
X112757Y30511D01*
X108223Y30511D01*
G37*
%LPD*%
%LPC*%
G36*
X565104Y308309D02*
X565104Y308309D01*
X560326Y310289D01*
X556669Y313946D01*
X554689Y318724D01*
X554689Y323896D01*
X556669Y328674D01*
X560326Y332331D01*
X565104Y334311D01*
X570276Y334311D01*
X575054Y332331D01*
X578711Y328674D01*
X580691Y323896D01*
X580691Y318724D01*
X578711Y313946D01*
X575054Y310289D01*
X570276Y308309D01*
X565104Y308309D01*
G37*
%LPD*%
%LPC*%
G36*
X31704Y54309D02*
X31704Y54309D01*
X26926Y56289D01*
X23269Y59946D01*
X21289Y64724D01*
X21289Y69896D01*
X23269Y74674D01*
X26926Y78331D01*
X31704Y80311D01*
X36876Y80311D01*
X41654Y78331D01*
X45311Y74674D01*
X47291Y69896D01*
X47291Y64724D01*
X45311Y59946D01*
X41654Y56289D01*
X36876Y54309D01*
X31704Y54309D01*
G37*
%LPD*%
%LPC*%
G36*
X565104Y54309D02*
X565104Y54309D01*
X560326Y56289D01*
X556669Y59946D01*
X554689Y64724D01*
X554689Y69896D01*
X556669Y74674D01*
X560326Y78331D01*
X565104Y80311D01*
X570276Y80311D01*
X575054Y78331D01*
X578711Y74674D01*
X580691Y69896D01*
X580691Y64724D01*
X578711Y59946D01*
X575054Y56289D01*
X570276Y54309D01*
X565104Y54309D01*
G37*
%LPD*%
%LPC*%
G36*
X31704Y308309D02*
X31704Y308309D01*
X26926Y310289D01*
X23269Y313946D01*
X21289Y318724D01*
X21289Y323896D01*
X23269Y328674D01*
X26926Y332331D01*
X31704Y334311D01*
X36876Y334311D01*
X41654Y332331D01*
X45311Y328674D01*
X47291Y323896D01*
X47291Y318724D01*
X45311Y313946D01*
X41654Y310289D01*
X36876Y308309D01*
X31704Y308309D01*
G37*
%LPD*%
%LPC*%
G36*
X209823Y5111D02*
X209823Y5111D01*
X205633Y6847D01*
X202427Y10053D01*
X200691Y14243D01*
X200691Y18777D01*
X202427Y22967D01*
X205633Y26173D01*
X209823Y27909D01*
X214357Y27909D01*
X218547Y26173D01*
X221753Y22967D01*
X223489Y18777D01*
X223489Y14243D01*
X221753Y10053D01*
X218547Y6847D01*
X214357Y5111D01*
X209823Y5111D01*
G37*
%LPD*%
%LPC*%
G36*
X235223Y5111D02*
X235223Y5111D01*
X231033Y6847D01*
X227827Y10053D01*
X226091Y14243D01*
X226091Y18777D01*
X227827Y22967D01*
X231033Y26173D01*
X235223Y27909D01*
X239757Y27909D01*
X243947Y26173D01*
X247153Y22967D01*
X248889Y18777D01*
X248889Y14243D01*
X247153Y10053D01*
X243947Y6847D01*
X239757Y5111D01*
X235223Y5111D01*
G37*
%LPD*%
%LPC*%
G36*
X133623Y5111D02*
X133623Y5111D01*
X129433Y6847D01*
X126227Y10053D01*
X124491Y14243D01*
X124491Y18777D01*
X126227Y22967D01*
X129433Y26173D01*
X133623Y27909D01*
X138157Y27909D01*
X142347Y26173D01*
X145553Y22967D01*
X147289Y18777D01*
X147289Y14243D01*
X145553Y10053D01*
X142347Y6847D01*
X138157Y5111D01*
X133623Y5111D01*
G37*
%LPD*%
%LPC*%
G36*
X108223Y5111D02*
X108223Y5111D01*
X104033Y6847D01*
X100827Y10053D01*
X99091Y14243D01*
X99091Y18777D01*
X100827Y22967D01*
X104033Y26173D01*
X108223Y27909D01*
X112757Y27909D01*
X116947Y26173D01*
X120153Y22967D01*
X121889Y18777D01*
X121889Y14243D01*
X120153Y10053D01*
X116947Y6847D01*
X112757Y5111D01*
X108223Y5111D01*
G37*
%LPD*%
%LPC*%
G36*
X184423Y5111D02*
X184423Y5111D01*
X180233Y6847D01*
X177027Y10053D01*
X175291Y14243D01*
X175291Y18777D01*
X177027Y22967D01*
X180233Y26173D01*
X184423Y27909D01*
X188957Y27909D01*
X193147Y26173D01*
X196353Y22967D01*
X198089Y18777D01*
X198089Y14243D01*
X196353Y10053D01*
X193147Y6847D01*
X188957Y5111D01*
X184423Y5111D01*
G37*
%LPD*%
%LPC*%
G36*
X159023Y5111D02*
X159023Y5111D01*
X154833Y6847D01*
X151627Y10053D01*
X149891Y14243D01*
X149891Y18777D01*
X151627Y22967D01*
X154833Y26173D01*
X159023Y27909D01*
X163557Y27909D01*
X167747Y26173D01*
X170953Y22967D01*
X172689Y18777D01*
X172689Y14243D01*
X170953Y10053D01*
X167747Y6847D01*
X163557Y5111D01*
X159023Y5111D01*
G37*
%LPD*%
%LPC*%
G36*
X565792Y337169D02*
X565792Y337169D01*
X562286Y338622D01*
X559602Y341306D01*
X558149Y344812D01*
X558149Y348608D01*
X559602Y352114D01*
X562286Y354798D01*
X565792Y356251D01*
X569588Y356251D01*
X573094Y354798D01*
X575778Y352114D01*
X577231Y348608D01*
X577231Y344812D01*
X575778Y341306D01*
X573094Y338622D01*
X569588Y337169D01*
X565792Y337169D01*
G37*
%LPD*%
%LPC*%
G36*
X540392Y337169D02*
X540392Y337169D01*
X536886Y338622D01*
X534202Y341306D01*
X532749Y344812D01*
X532749Y348608D01*
X534202Y352114D01*
X536886Y354798D01*
X540392Y356251D01*
X544188Y356251D01*
X547694Y354798D01*
X550378Y352114D01*
X551831Y348608D01*
X551831Y344812D01*
X550378Y341306D01*
X547694Y338622D01*
X544188Y337169D01*
X540392Y337169D01*
G37*
%LPD*%
%LPC*%
G36*
X438792Y32369D02*
X438792Y32369D01*
X435286Y33822D01*
X432602Y36506D01*
X431149Y40012D01*
X431149Y43808D01*
X432602Y47314D01*
X435286Y49998D01*
X438792Y51451D01*
X442588Y51451D01*
X446094Y49998D01*
X448778Y47314D01*
X450231Y43808D01*
X450231Y40012D01*
X448778Y36506D01*
X446094Y33822D01*
X442588Y32369D01*
X438792Y32369D01*
G37*
%LPD*%
%LPC*%
G36*
X514992Y32369D02*
X514992Y32369D01*
X511486Y33822D01*
X508802Y36506D01*
X507349Y40012D01*
X507349Y43808D01*
X508802Y47314D01*
X511486Y49998D01*
X514992Y51451D01*
X518788Y51451D01*
X522294Y49998D01*
X524978Y47314D01*
X526431Y43808D01*
X526431Y40012D01*
X524978Y36506D01*
X522294Y33822D01*
X518788Y32369D01*
X514992Y32369D01*
G37*
%LPD*%
%LPC*%
G36*
X565792Y32369D02*
X565792Y32369D01*
X562286Y33822D01*
X559602Y36506D01*
X558149Y40012D01*
X558149Y43808D01*
X559602Y47314D01*
X562286Y49998D01*
X565792Y51451D01*
X569588Y51451D01*
X573094Y49998D01*
X575778Y47314D01*
X577231Y43808D01*
X577231Y40012D01*
X575778Y36506D01*
X573094Y33822D01*
X569588Y32369D01*
X565792Y32369D01*
G37*
%LPD*%
%LPC*%
G36*
X616592Y32369D02*
X616592Y32369D01*
X613086Y33822D01*
X610402Y36506D01*
X608949Y40012D01*
X608949Y43808D01*
X610402Y47314D01*
X613086Y49998D01*
X616592Y51451D01*
X620388Y51451D01*
X623894Y49998D01*
X626578Y47314D01*
X628031Y43808D01*
X628031Y40012D01*
X626578Y36506D01*
X623894Y33822D01*
X620388Y32369D01*
X616592Y32369D01*
G37*
%LPD*%
%LPC*%
G36*
X540392Y32369D02*
X540392Y32369D01*
X536886Y33822D01*
X534202Y36506D01*
X532749Y40012D01*
X532749Y43808D01*
X534202Y47314D01*
X536886Y49998D01*
X540392Y51451D01*
X544188Y51451D01*
X547694Y49998D01*
X550378Y47314D01*
X551831Y43808D01*
X551831Y40012D01*
X550378Y36506D01*
X547694Y33822D01*
X544188Y32369D01*
X540392Y32369D01*
G37*
%LPD*%
%LPC*%
G36*
X513352Y312769D02*
X513352Y312769D01*
X508349Y317772D01*
X508349Y324848D01*
X513352Y329851D01*
X520428Y329851D01*
X525431Y324848D01*
X525431Y317772D01*
X520428Y312769D01*
X513352Y312769D01*
G37*
%LPD*%
%LPC*%
G36*
X106952Y312769D02*
X106952Y312769D01*
X101949Y317772D01*
X101949Y324848D01*
X106952Y329851D01*
X114028Y329851D01*
X119031Y324848D01*
X119031Y317772D01*
X114028Y312769D01*
X106952Y312769D01*
G37*
%LPD*%
%LPC*%
G36*
X132352Y312769D02*
X132352Y312769D01*
X127349Y317772D01*
X127349Y324848D01*
X132352Y329851D01*
X139428Y329851D01*
X144431Y324848D01*
X144431Y317772D01*
X139428Y312769D01*
X132352Y312769D01*
G37*
%LPD*%
%LPC*%
G36*
X360952Y312769D02*
X360952Y312769D01*
X355949Y317772D01*
X355949Y324848D01*
X360952Y329851D01*
X368028Y329851D01*
X373031Y324848D01*
X373031Y317772D01*
X368028Y312769D01*
X360952Y312769D01*
G37*
%LPD*%
%LPC*%
G36*
X487952Y312769D02*
X487952Y312769D01*
X482949Y317772D01*
X482949Y324848D01*
X487952Y329851D01*
X495028Y329851D01*
X500031Y324848D01*
X500031Y317772D01*
X495028Y312769D01*
X487952Y312769D01*
G37*
%LPD*%
%LPC*%
G36*
X132352Y58769D02*
X132352Y58769D01*
X127349Y63772D01*
X127349Y70848D01*
X132352Y75851D01*
X139428Y75851D01*
X144431Y70848D01*
X144431Y63772D01*
X139428Y58769D01*
X132352Y58769D01*
G37*
%LPD*%
%LPC*%
G36*
X208552Y312769D02*
X208552Y312769D01*
X203549Y317772D01*
X203549Y324848D01*
X208552Y329851D01*
X215628Y329851D01*
X220631Y324848D01*
X220631Y317772D01*
X215628Y312769D01*
X208552Y312769D01*
G37*
%LPD*%
%LPC*%
G36*
X81552Y312769D02*
X81552Y312769D01*
X76549Y317772D01*
X76549Y324848D01*
X81552Y329851D01*
X88628Y329851D01*
X93631Y324848D01*
X93631Y317772D01*
X88628Y312769D01*
X81552Y312769D01*
G37*
%LPD*%
%LPC*%
G36*
X195089Y247109D02*
X195089Y247109D01*
X195089Y261151D01*
X206175Y261151D01*
X206821Y260978D01*
X207400Y260643D01*
X207873Y260170D01*
X208208Y259591D01*
X208381Y258945D01*
X208381Y247109D01*
X195089Y247109D01*
G37*
%LPD*%
%LPC*%
G36*
X255949Y179799D02*
X255949Y179799D01*
X255949Y193841D01*
X267035Y193841D01*
X267681Y193668D01*
X268260Y193333D01*
X268733Y192860D01*
X269068Y192281D01*
X269241Y191635D01*
X269241Y179799D01*
X255949Y179799D01*
G37*
%LPD*%
%LPC*%
G36*
X195089Y229069D02*
X195089Y229069D01*
X195089Y243111D01*
X208381Y243111D01*
X208381Y231275D01*
X208208Y230629D01*
X207873Y230050D01*
X207400Y229577D01*
X206821Y229242D01*
X206175Y229069D01*
X195089Y229069D01*
G37*
%LPD*%
%LPC*%
G36*
X255949Y161759D02*
X255949Y161759D01*
X255949Y175801D01*
X269241Y175801D01*
X269241Y163965D01*
X269068Y163319D01*
X268733Y162740D01*
X268260Y162267D01*
X267681Y161932D01*
X267035Y161759D01*
X255949Y161759D01*
G37*
%LPD*%
%LPC*%
G36*
X177799Y247109D02*
X177799Y247109D01*
X177799Y258945D01*
X177972Y259591D01*
X178307Y260170D01*
X178780Y260643D01*
X179359Y260978D01*
X180005Y261151D01*
X191091Y261151D01*
X191091Y247109D01*
X177799Y247109D01*
G37*
%LPD*%
%LPC*%
G36*
X238659Y179799D02*
X238659Y179799D01*
X238659Y191635D01*
X238832Y192281D01*
X239167Y192860D01*
X239640Y193333D01*
X240219Y193668D01*
X240865Y193841D01*
X251951Y193841D01*
X251951Y179799D01*
X238659Y179799D01*
G37*
%LPD*%
%LPC*%
G36*
X240865Y161759D02*
X240865Y161759D01*
X240219Y161932D01*
X239640Y162267D01*
X239167Y162740D01*
X238832Y163319D01*
X238659Y163965D01*
X238659Y175801D01*
X251951Y175801D01*
X251951Y161759D01*
X240865Y161759D01*
G37*
%LPD*%
%LPC*%
G36*
X180005Y229069D02*
X180005Y229069D01*
X179359Y229242D01*
X178780Y229577D01*
X178307Y230050D01*
X177972Y230629D01*
X177799Y231275D01*
X177799Y243111D01*
X191091Y243111D01*
X191091Y229069D01*
X180005Y229069D01*
G37*
%LPD*%
%LPC*%
G36*
X89991Y159087D02*
X89991Y159087D01*
X87315Y160196D01*
X85266Y162245D01*
X84157Y164921D01*
X84157Y167819D01*
X85266Y170495D01*
X87315Y172544D01*
X89991Y173653D01*
X92889Y173653D01*
X95565Y172544D01*
X97614Y170495D01*
X98723Y167819D01*
X98723Y164921D01*
X97614Y162245D01*
X95565Y160196D01*
X92889Y159087D01*
X89991Y159087D01*
G37*
%LPD*%
%LPC*%
G36*
X93801Y343237D02*
X93801Y343237D01*
X91125Y344346D01*
X89076Y346395D01*
X87967Y349071D01*
X87967Y351969D01*
X89076Y354645D01*
X91125Y356694D01*
X93801Y357803D01*
X96699Y357803D01*
X99375Y356694D01*
X101424Y354645D01*
X102533Y351969D01*
X102533Y349071D01*
X101424Y346395D01*
X99375Y344346D01*
X96699Y343237D01*
X93801Y343237D01*
G37*
%LPD*%
%LPC*%
G36*
X87089Y18509D02*
X87089Y18509D01*
X87089Y28281D01*
X87886Y28155D01*
X89673Y27574D01*
X91347Y26721D01*
X92868Y25616D01*
X94196Y24288D01*
X95301Y22767D01*
X96154Y21093D01*
X96735Y19306D01*
X96861Y18509D01*
X87089Y18509D01*
G37*
%LPD*%
%LPC*%
G36*
X73319Y18509D02*
X73319Y18509D01*
X73445Y19306D01*
X74026Y21093D01*
X74879Y22767D01*
X75984Y24288D01*
X77312Y25616D01*
X78833Y26721D01*
X80507Y27574D01*
X82294Y28155D01*
X83091Y28281D01*
X83091Y18509D01*
X73319Y18509D01*
G37*
%LPD*%
%LPC*%
G36*
X258429Y349979D02*
X258429Y349979D01*
X258429Y355315D01*
X258602Y355961D01*
X258937Y356540D01*
X259410Y357013D01*
X259989Y357348D01*
X260635Y357521D01*
X265971Y357521D01*
X265971Y349979D01*
X258429Y349979D01*
G37*
%LPD*%
%LPC*%
G36*
X138937Y126459D02*
X138937Y126459D01*
X138937Y132796D01*
X139110Y133442D01*
X139445Y134021D01*
X139918Y134494D01*
X140497Y134829D01*
X141143Y135002D01*
X145321Y135002D01*
X145321Y126459D01*
X138937Y126459D01*
G37*
%LPD*%
%LPC*%
G36*
X220217Y126459D02*
X220217Y126459D01*
X220217Y132796D01*
X220390Y133442D01*
X220725Y134021D01*
X221198Y134494D01*
X221777Y134829D01*
X222423Y135002D01*
X226601Y135002D01*
X226601Y126459D01*
X220217Y126459D01*
G37*
%LPD*%
%LPC*%
G36*
X141143Y113918D02*
X141143Y113918D01*
X140497Y114091D01*
X139918Y114426D01*
X139445Y114899D01*
X139110Y115478D01*
X138937Y116124D01*
X138937Y122461D01*
X145321Y122461D01*
X145321Y113918D01*
X141143Y113918D01*
G37*
%LPD*%
%LPC*%
G36*
X222423Y113918D02*
X222423Y113918D01*
X221777Y114091D01*
X221198Y114426D01*
X220725Y114899D01*
X220390Y115478D01*
X220217Y116124D01*
X220217Y122461D01*
X226601Y122461D01*
X226601Y113918D01*
X222423Y113918D01*
G37*
%LPD*%
%LPC*%
G36*
X341089Y348709D02*
X341089Y348709D01*
X341089Y356600D01*
X341451Y356543D01*
X342960Y356052D01*
X344374Y355332D01*
X345657Y354399D01*
X346779Y353277D01*
X347712Y351994D01*
X348432Y350580D01*
X348923Y349071D01*
X348980Y348709D01*
X341089Y348709D01*
G37*
%LPD*%
%LPC*%
G36*
X645889Y348709D02*
X645889Y348709D01*
X645889Y356600D01*
X646251Y356543D01*
X647760Y356052D01*
X649174Y355332D01*
X650457Y354399D01*
X651579Y353277D01*
X652512Y351994D01*
X653232Y350580D01*
X653723Y349071D01*
X653780Y348709D01*
X645889Y348709D01*
G37*
%LPD*%
%LPC*%
G36*
X357599Y156939D02*
X357599Y156939D01*
X357599Y164830D01*
X357961Y164773D01*
X359470Y164282D01*
X360884Y163562D01*
X362167Y162629D01*
X363289Y161507D01*
X364222Y160224D01*
X364942Y158810D01*
X365433Y157301D01*
X365490Y156939D01*
X357599Y156939D01*
G37*
%LPD*%
%LPC*%
G36*
X518889Y348709D02*
X518889Y348709D01*
X518889Y356600D01*
X519251Y356543D01*
X520760Y356052D01*
X522174Y355332D01*
X523457Y354399D01*
X524579Y353277D01*
X525512Y351994D01*
X526232Y350580D01*
X526723Y349071D01*
X526780Y348709D01*
X518889Y348709D01*
G37*
%LPD*%
%LPC*%
G36*
X595089Y348709D02*
X595089Y348709D01*
X595089Y356600D01*
X595451Y356543D01*
X596960Y356052D01*
X598374Y355332D01*
X599657Y354399D01*
X600779Y353277D01*
X601712Y351994D01*
X602432Y350580D01*
X602923Y349071D01*
X602980Y348709D01*
X595089Y348709D01*
G37*
%LPD*%
%LPC*%
G36*
X645889Y43909D02*
X645889Y43909D01*
X645889Y51800D01*
X646251Y51743D01*
X647760Y51252D01*
X649174Y50532D01*
X650457Y49599D01*
X651579Y48477D01*
X652512Y47194D01*
X653232Y45780D01*
X653723Y44271D01*
X653780Y43909D01*
X645889Y43909D01*
G37*
%LPD*%
%LPC*%
G36*
X595089Y43909D02*
X595089Y43909D01*
X595089Y51800D01*
X595451Y51743D01*
X596960Y51252D01*
X598374Y50532D01*
X599657Y49599D01*
X600779Y48477D01*
X601712Y47194D01*
X602432Y45780D01*
X602923Y44271D01*
X602980Y43909D01*
X595089Y43909D01*
G37*
%LPD*%
%LPC*%
G36*
X493489Y348709D02*
X493489Y348709D01*
X493489Y356600D01*
X493851Y356543D01*
X495360Y356052D01*
X496774Y355332D01*
X498057Y354399D01*
X499179Y353277D01*
X500112Y351994D01*
X500832Y350580D01*
X501323Y349071D01*
X501380Y348709D01*
X493489Y348709D01*
G37*
%LPD*%
%LPC*%
G36*
X620489Y348709D02*
X620489Y348709D01*
X620489Y356600D01*
X620851Y356543D01*
X622360Y356052D01*
X623774Y355332D01*
X625057Y354399D01*
X626179Y353277D01*
X627112Y351994D01*
X627832Y350580D01*
X628323Y349071D01*
X628380Y348709D01*
X620489Y348709D01*
G37*
%LPD*%
%LPC*%
G36*
X634000Y43909D02*
X634000Y43909D01*
X634057Y44271D01*
X634548Y45780D01*
X635268Y47194D01*
X636201Y48477D01*
X637323Y49599D01*
X638606Y50532D01*
X640020Y51252D01*
X641529Y51743D01*
X641891Y51800D01*
X641891Y43909D01*
X634000Y43909D01*
G37*
%LPD*%
%LPC*%
G36*
X481600Y348709D02*
X481600Y348709D01*
X481657Y349071D01*
X482148Y350580D01*
X482868Y351994D01*
X483801Y353277D01*
X484923Y354399D01*
X486206Y355332D01*
X487620Y356052D01*
X489129Y356543D01*
X489491Y356600D01*
X489491Y348709D01*
X481600Y348709D01*
G37*
%LPD*%
%LPC*%
G36*
X645889Y344711D02*
X645889Y344711D01*
X653780Y344711D01*
X653723Y344349D01*
X653232Y342840D01*
X652512Y341426D01*
X651579Y340143D01*
X650457Y339021D01*
X649174Y338088D01*
X647760Y337368D01*
X646251Y336877D01*
X645889Y336820D01*
X645889Y344711D01*
G37*
%LPD*%
%LPC*%
G36*
X493489Y344711D02*
X493489Y344711D01*
X501380Y344711D01*
X501323Y344349D01*
X500832Y342840D01*
X500112Y341426D01*
X499179Y340143D01*
X498057Y339021D01*
X496774Y338088D01*
X495360Y337368D01*
X493851Y336877D01*
X493489Y336820D01*
X493489Y344711D01*
G37*
%LPD*%
%LPC*%
G36*
X518889Y344711D02*
X518889Y344711D01*
X526780Y344711D01*
X526723Y344349D01*
X526232Y342840D01*
X525512Y341426D01*
X524579Y340143D01*
X523457Y339021D01*
X522174Y338088D01*
X520760Y337368D01*
X519251Y336877D01*
X518889Y336820D01*
X518889Y344711D01*
G37*
%LPD*%
%LPC*%
G36*
X595089Y344711D02*
X595089Y344711D01*
X602980Y344711D01*
X602923Y344349D01*
X602432Y342840D01*
X601712Y341426D01*
X600779Y340143D01*
X599657Y339021D01*
X598374Y338088D01*
X596960Y337368D01*
X595451Y336877D01*
X595089Y336820D01*
X595089Y344711D01*
G37*
%LPD*%
%LPC*%
G36*
X620489Y344711D02*
X620489Y344711D01*
X628380Y344711D01*
X628323Y344349D01*
X627832Y342840D01*
X627112Y341426D01*
X626179Y340143D01*
X625057Y339021D01*
X623774Y338088D01*
X622360Y337368D01*
X620851Y336877D01*
X620489Y336820D01*
X620489Y344711D01*
G37*
%LPD*%
%LPC*%
G36*
X507000Y348709D02*
X507000Y348709D01*
X507057Y349071D01*
X507548Y350580D01*
X508268Y351994D01*
X509201Y353277D01*
X510323Y354399D01*
X511606Y355332D01*
X513020Y356052D01*
X514529Y356543D01*
X514891Y356600D01*
X514891Y348709D01*
X507000Y348709D01*
G37*
%LPD*%
%LPC*%
G36*
X341089Y39911D02*
X341089Y39911D01*
X348980Y39911D01*
X348923Y39549D01*
X348432Y38040D01*
X347712Y36626D01*
X346779Y35343D01*
X345657Y34221D01*
X344374Y33288D01*
X342960Y32568D01*
X341451Y32077D01*
X341089Y32020D01*
X341089Y39911D01*
G37*
%LPD*%
%LPC*%
G36*
X595089Y39911D02*
X595089Y39911D01*
X602980Y39911D01*
X602923Y39549D01*
X602432Y38040D01*
X601712Y36626D01*
X600779Y35343D01*
X599657Y34221D01*
X598374Y33288D01*
X596960Y32568D01*
X595451Y32077D01*
X595089Y32020D01*
X595089Y39911D01*
G37*
%LPD*%
%LPC*%
G36*
X645889Y39911D02*
X645889Y39911D01*
X653780Y39911D01*
X653723Y39549D01*
X653232Y38040D01*
X652512Y36626D01*
X651579Y35343D01*
X650457Y34221D01*
X649174Y33288D01*
X647760Y32568D01*
X646251Y32077D01*
X645889Y32020D01*
X645889Y39911D01*
G37*
%LPD*%
%LPC*%
G36*
X345710Y156939D02*
X345710Y156939D01*
X345767Y157301D01*
X346258Y158810D01*
X346978Y160224D01*
X347911Y161507D01*
X349033Y162629D01*
X350316Y163562D01*
X351730Y164282D01*
X353239Y164773D01*
X353601Y164830D01*
X353601Y156939D01*
X345710Y156939D01*
G37*
%LPD*%
%LPC*%
G36*
X357599Y152941D02*
X357599Y152941D01*
X365490Y152941D01*
X365433Y152579D01*
X364942Y151070D01*
X364222Y149656D01*
X363289Y148373D01*
X362167Y147251D01*
X360884Y146318D01*
X359470Y145598D01*
X357961Y145107D01*
X357599Y145050D01*
X357599Y152941D01*
G37*
%LPD*%
%LPC*%
G36*
X329200Y348709D02*
X329200Y348709D01*
X329257Y349071D01*
X329748Y350580D01*
X330468Y351994D01*
X331401Y353277D01*
X332523Y354399D01*
X333806Y355332D01*
X335220Y356052D01*
X336729Y356543D01*
X337091Y356600D01*
X337091Y348709D01*
X329200Y348709D01*
G37*
%LPD*%
%LPC*%
G36*
X634000Y348709D02*
X634000Y348709D01*
X634057Y349071D01*
X634548Y350580D01*
X635268Y351994D01*
X636201Y353277D01*
X637323Y354399D01*
X638606Y355332D01*
X640020Y356052D01*
X641529Y356543D01*
X641891Y356600D01*
X641891Y348709D01*
X634000Y348709D01*
G37*
%LPD*%
%LPC*%
G36*
X608600Y348709D02*
X608600Y348709D01*
X608657Y349071D01*
X609148Y350580D01*
X609868Y351994D01*
X610801Y353277D01*
X611923Y354399D01*
X613206Y355332D01*
X614620Y356052D01*
X616129Y356543D01*
X616491Y356600D01*
X616491Y348709D01*
X608600Y348709D01*
G37*
%LPD*%
%LPC*%
G36*
X583200Y43909D02*
X583200Y43909D01*
X583257Y44271D01*
X583748Y45780D01*
X584468Y47194D01*
X585401Y48477D01*
X586523Y49599D01*
X587806Y50532D01*
X589220Y51252D01*
X590729Y51743D01*
X591091Y51800D01*
X591091Y43909D01*
X583200Y43909D01*
G37*
%LPD*%
%LPC*%
G36*
X583200Y348709D02*
X583200Y348709D01*
X583257Y349071D01*
X583748Y350580D01*
X584468Y351994D01*
X585401Y353277D01*
X586523Y354399D01*
X587806Y355332D01*
X589220Y356052D01*
X590729Y356543D01*
X591091Y356600D01*
X591091Y348709D01*
X583200Y348709D01*
G37*
%LPD*%
%LPC*%
G36*
X514529Y336877D02*
X514529Y336877D01*
X513020Y337368D01*
X511606Y338088D01*
X510323Y339021D01*
X509201Y340143D01*
X508268Y341426D01*
X507548Y342840D01*
X507057Y344349D01*
X507000Y344711D01*
X514891Y344711D01*
X514891Y336820D01*
X514529Y336877D01*
G37*
%LPD*%
%LPC*%
G36*
X590729Y336877D02*
X590729Y336877D01*
X589220Y337368D01*
X587806Y338088D01*
X586523Y339021D01*
X585401Y340143D01*
X584468Y341426D01*
X583748Y342840D01*
X583257Y344349D01*
X583200Y344711D01*
X591091Y344711D01*
X591091Y336820D01*
X590729Y336877D01*
G37*
%LPD*%
%LPC*%
G36*
X616129Y336877D02*
X616129Y336877D01*
X614620Y337368D01*
X613206Y338088D01*
X611923Y339021D01*
X610801Y340143D01*
X609868Y341426D01*
X609148Y342840D01*
X608657Y344349D01*
X608600Y344711D01*
X616491Y344711D01*
X616491Y336820D01*
X616129Y336877D01*
G37*
%LPD*%
%LPC*%
G36*
X641529Y32077D02*
X641529Y32077D01*
X640020Y32568D01*
X638606Y33288D01*
X637323Y34221D01*
X636201Y35343D01*
X635268Y36626D01*
X634548Y38040D01*
X634057Y39549D01*
X634000Y39911D01*
X641891Y39911D01*
X641891Y32020D01*
X641529Y32077D01*
G37*
%LPD*%
%LPC*%
G36*
X590729Y32077D02*
X590729Y32077D01*
X589220Y32568D01*
X587806Y33288D01*
X586523Y34221D01*
X585401Y35343D01*
X584468Y36626D01*
X583748Y38040D01*
X583257Y39549D01*
X583200Y39911D01*
X591091Y39911D01*
X591091Y32020D01*
X590729Y32077D01*
G37*
%LPD*%
%LPC*%
G36*
X353239Y145107D02*
X353239Y145107D01*
X351730Y145598D01*
X350316Y146318D01*
X349033Y147251D01*
X347911Y148373D01*
X346978Y149656D01*
X346258Y151070D01*
X345767Y152579D01*
X345710Y152941D01*
X353601Y152941D01*
X353601Y145050D01*
X353239Y145107D01*
G37*
%LPD*%
%LPC*%
G36*
X489129Y336877D02*
X489129Y336877D01*
X487620Y337368D01*
X486206Y338088D01*
X484923Y339021D01*
X483801Y340143D01*
X482868Y341426D01*
X482148Y342840D01*
X481657Y344349D01*
X481600Y344711D01*
X489491Y344711D01*
X489491Y336820D01*
X489129Y336877D01*
G37*
%LPD*%
%LPC*%
G36*
X336729Y32077D02*
X336729Y32077D01*
X335220Y32568D01*
X333806Y33288D01*
X332523Y34221D01*
X331401Y35343D01*
X330468Y36626D01*
X329748Y38040D01*
X329257Y39549D01*
X329200Y39911D01*
X337091Y39911D01*
X337091Y32020D01*
X336729Y32077D01*
G37*
%LPD*%
%LPC*%
G36*
X641529Y336877D02*
X641529Y336877D01*
X640020Y337368D01*
X638606Y338088D01*
X637323Y339021D01*
X636201Y340143D01*
X635268Y341426D01*
X634548Y342840D01*
X634057Y344349D01*
X634000Y344711D01*
X641891Y344711D01*
X641891Y336820D01*
X641529Y336877D01*
G37*
%LPD*%
%LPC*%
G36*
X188689Y323309D02*
X188689Y323309D01*
X188689Y330391D01*
X190451Y330391D01*
X195771Y325071D01*
X195771Y323309D01*
X188689Y323309D01*
G37*
%LPD*%
%LPC*%
G36*
X366489Y69309D02*
X366489Y69309D01*
X366489Y76391D01*
X368251Y76391D01*
X373571Y71071D01*
X373571Y69309D01*
X366489Y69309D01*
G37*
%LPD*%
%LPC*%
G36*
X518889Y69309D02*
X518889Y69309D01*
X518889Y76391D01*
X520651Y76391D01*
X525971Y71071D01*
X525971Y69309D01*
X518889Y69309D01*
G37*
%LPD*%
%LPC*%
G36*
X507809Y69309D02*
X507809Y69309D01*
X507809Y71071D01*
X513129Y76391D01*
X514891Y76391D01*
X514891Y69309D01*
X507809Y69309D01*
G37*
%LPD*%
%LPC*%
G36*
X518889Y58229D02*
X518889Y58229D01*
X518889Y65311D01*
X525971Y65311D01*
X525971Y63549D01*
X520651Y58229D01*
X518889Y58229D01*
G37*
%LPD*%
%LPC*%
G36*
X188689Y312229D02*
X188689Y312229D01*
X188689Y319311D01*
X195771Y319311D01*
X195771Y317549D01*
X190451Y312229D01*
X188689Y312229D01*
G37*
%LPD*%
%LPC*%
G36*
X177609Y323309D02*
X177609Y323309D01*
X177609Y325071D01*
X182929Y330391D01*
X184691Y330391D01*
X184691Y323309D01*
X177609Y323309D01*
G37*
%LPD*%
%LPC*%
G36*
X355409Y69309D02*
X355409Y69309D01*
X355409Y71071D01*
X360729Y76391D01*
X362491Y76391D01*
X362491Y69309D01*
X355409Y69309D01*
G37*
%LPD*%
%LPC*%
G36*
X513129Y58229D02*
X513129Y58229D01*
X507809Y63549D01*
X507809Y65311D01*
X514891Y65311D01*
X514891Y58229D01*
X513129Y58229D01*
G37*
%LPD*%
%LPC*%
G36*
X182929Y312229D02*
X182929Y312229D01*
X177609Y317549D01*
X177609Y319311D01*
X184691Y319311D01*
X184691Y312229D01*
X182929Y312229D01*
G37*
%LPD*%
%LPC*%
G36*
X149209Y210279D02*
X149209Y210279D01*
X149209Y216821D01*
X151545Y216821D01*
X152191Y216648D01*
X152770Y216313D01*
X153243Y215840D01*
X153578Y215261D01*
X153751Y214615D01*
X153751Y210279D01*
X149209Y210279D01*
G37*
%LPD*%
%LPC*%
G36*
X146669Y256889D02*
X146669Y256889D01*
X146669Y263431D01*
X151211Y263431D01*
X151211Y259095D01*
X151038Y258449D01*
X150703Y257870D01*
X150230Y257397D01*
X149651Y257062D01*
X149005Y256889D01*
X146669Y256889D01*
G37*
%LPD*%
%LPC*%
G36*
X149209Y199739D02*
X149209Y199739D01*
X149209Y206281D01*
X153751Y206281D01*
X153751Y201945D01*
X153578Y201299D01*
X153243Y200720D01*
X152770Y200247D01*
X152191Y199912D01*
X151545Y199739D01*
X149209Y199739D01*
G37*
%LPD*%
%LPC*%
G36*
X140669Y210279D02*
X140669Y210279D01*
X140669Y214615D01*
X140842Y215261D01*
X141177Y215840D01*
X141650Y216313D01*
X142229Y216648D01*
X142875Y216821D01*
X145211Y216821D01*
X145211Y210279D01*
X140669Y210279D01*
G37*
%LPD*%
%LPC*%
G36*
X142875Y199739D02*
X142875Y199739D01*
X142229Y199912D01*
X141650Y200247D01*
X141177Y200720D01*
X140842Y201299D01*
X140669Y201945D01*
X140669Y206281D01*
X145211Y206281D01*
X145211Y199739D01*
X142875Y199739D01*
G37*
%LPD*%
%LPC*%
G36*
X140335Y256889D02*
X140335Y256889D01*
X139689Y257062D01*
X139110Y257397D01*
X138637Y257870D01*
X138302Y258449D01*
X138129Y259095D01*
X138129Y263431D01*
X142671Y263431D01*
X142671Y256889D01*
X140335Y256889D01*
G37*
%LPD*%
%LPC*%
G36*
X618489Y346709D02*
X618489Y346709D01*
X618489Y346711D01*
X618491Y346711D01*
X618491Y346709D01*
X618489Y346709D01*
G37*
%LPD*%
%LPC*%
G36*
X491489Y346709D02*
X491489Y346709D01*
X491489Y346711D01*
X491491Y346711D01*
X491491Y346709D01*
X491489Y346709D01*
G37*
%LPD*%
%LPC*%
G36*
X516889Y346709D02*
X516889Y346709D01*
X516889Y346711D01*
X516891Y346711D01*
X516891Y346709D01*
X516889Y346709D01*
G37*
%LPD*%
%LPC*%
G36*
X593089Y346709D02*
X593089Y346709D01*
X593089Y346711D01*
X593091Y346711D01*
X593091Y346709D01*
X593089Y346709D01*
G37*
%LPD*%
%LPC*%
G36*
X643889Y346709D02*
X643889Y346709D01*
X643889Y346711D01*
X643891Y346711D01*
X643891Y346709D01*
X643889Y346709D01*
G37*
%LPD*%
%LPC*%
G36*
X593089Y41909D02*
X593089Y41909D01*
X593089Y41911D01*
X593091Y41911D01*
X593091Y41909D01*
X593089Y41909D01*
G37*
%LPD*%
%LPC*%
G36*
X186689Y321309D02*
X186689Y321309D01*
X186689Y321311D01*
X186691Y321311D01*
X186691Y321309D01*
X186689Y321309D01*
G37*
%LPD*%
%LPC*%
G36*
X355599Y154939D02*
X355599Y154939D01*
X355599Y154941D01*
X355601Y154941D01*
X355601Y154939D01*
X355599Y154939D01*
G37*
%LPD*%
%LPC*%
G36*
X516889Y67309D02*
X516889Y67309D01*
X516889Y67311D01*
X516891Y67311D01*
X516891Y67309D01*
X516889Y67309D01*
G37*
%LPD*%
%LPC*%
G36*
X643889Y41909D02*
X643889Y41909D01*
X643889Y41911D01*
X643891Y41911D01*
X643891Y41909D01*
X643889Y41909D01*
G37*
%LPD*%
%LPC*%
G36*
X147209Y208279D02*
X147209Y208279D01*
X147209Y208281D01*
X147211Y208281D01*
X147211Y208279D01*
X147209Y208279D01*
G37*
%LPD*%
%LPC*%
G36*
X193089Y245109D02*
X193089Y245109D01*
X193089Y245111D01*
X193091Y245111D01*
X193091Y245109D01*
X193089Y245109D01*
G37*
%LPD*%
%LPC*%
G36*
X253949Y177799D02*
X253949Y177799D01*
X253949Y177801D01*
X253951Y177801D01*
X253951Y177799D01*
X253949Y177799D01*
G37*
%LPD*%
D10*
X702310Y381000D02*
X809440Y381000D01*
X809440Y0D02*
X702310Y0D01*
X789940Y650D02*
X789940Y380350D01*
X786748Y355000D01*
X793132Y355000D01*
X789940Y380350D01*
X788640Y355000D01*
X791240Y355000D02*
X789940Y380350D01*
X787340Y355000D01*
X792540Y355000D02*
X789940Y380350D01*
X786748Y26000D02*
X789940Y650D01*
X786748Y26000D02*
X793132Y26000D01*
X789940Y650D01*
X788640Y26000D01*
X791240Y26000D02*
X789940Y650D01*
X787340Y26000D01*
X792540Y26000D02*
X789940Y650D01*
D11*
X783433Y159352D02*
X783433Y163868D01*
X783431Y164001D01*
X783425Y164133D01*
X783415Y164265D01*
X783402Y164397D01*
X783384Y164529D01*
X783363Y164659D01*
X783338Y164790D01*
X783309Y164919D01*
X783276Y165047D01*
X783240Y165175D01*
X783200Y165301D01*
X783156Y165426D01*
X783108Y165550D01*
X783057Y165672D01*
X783002Y165793D01*
X782944Y165912D01*
X782882Y166030D01*
X782817Y166145D01*
X782748Y166259D01*
X782677Y166370D01*
X782601Y166479D01*
X782523Y166586D01*
X782442Y166691D01*
X782357Y166793D01*
X782270Y166893D01*
X782180Y166990D01*
X782087Y167085D01*
X781991Y167176D01*
X781893Y167265D01*
X781792Y167351D01*
X781688Y167434D01*
X781582Y167514D01*
X781474Y167590D01*
X781364Y167664D01*
X781251Y167734D01*
X781137Y167801D01*
X781020Y167864D01*
X780902Y167924D01*
X780782Y167981D01*
X780660Y168034D01*
X780537Y168083D01*
X780413Y168129D01*
X780287Y168171D01*
X780160Y168209D01*
X780032Y168244D01*
X779903Y168275D01*
X779774Y168302D01*
X779643Y168325D01*
X779512Y168345D01*
X779380Y168360D01*
X779248Y168372D01*
X779116Y168380D01*
X778983Y168384D01*
X778851Y168384D01*
X778718Y168380D01*
X778586Y168372D01*
X778454Y168360D01*
X778322Y168345D01*
X778191Y168325D01*
X778060Y168302D01*
X777931Y168275D01*
X777802Y168244D01*
X777674Y168209D01*
X777547Y168171D01*
X777421Y168129D01*
X777297Y168083D01*
X777174Y168034D01*
X777052Y167981D01*
X776932Y167924D01*
X776814Y167864D01*
X776697Y167801D01*
X776583Y167734D01*
X776470Y167664D01*
X776360Y167590D01*
X776252Y167514D01*
X776146Y167434D01*
X776042Y167351D01*
X775941Y167265D01*
X775843Y167176D01*
X775747Y167085D01*
X775654Y166990D01*
X775564Y166893D01*
X775477Y166793D01*
X775392Y166691D01*
X775311Y166586D01*
X775233Y166479D01*
X775157Y166370D01*
X775086Y166259D01*
X775017Y166145D01*
X774952Y166030D01*
X774890Y165912D01*
X774832Y165793D01*
X774777Y165672D01*
X774726Y165550D01*
X774678Y165426D01*
X774634Y165301D01*
X774594Y165175D01*
X774558Y165047D01*
X774525Y164919D01*
X774496Y164790D01*
X774471Y164659D01*
X774450Y164529D01*
X774432Y164397D01*
X774419Y164265D01*
X774409Y164133D01*
X774403Y164001D01*
X774401Y163868D01*
X767177Y164771D02*
X767177Y159352D01*
X767177Y164771D02*
X767179Y164890D01*
X767185Y165010D01*
X767195Y165129D01*
X767209Y165247D01*
X767226Y165366D01*
X767248Y165483D01*
X767273Y165600D01*
X767303Y165715D01*
X767336Y165830D01*
X767373Y165944D01*
X767413Y166056D01*
X767458Y166167D01*
X767506Y166276D01*
X767557Y166384D01*
X767612Y166490D01*
X767671Y166594D01*
X767733Y166696D01*
X767798Y166796D01*
X767867Y166894D01*
X767939Y166990D01*
X768014Y167083D01*
X768091Y167173D01*
X768172Y167261D01*
X768256Y167346D01*
X768343Y167428D01*
X768432Y167508D01*
X768524Y167584D01*
X768618Y167658D01*
X768715Y167728D01*
X768813Y167795D01*
X768914Y167859D01*
X769018Y167919D01*
X769123Y167976D01*
X769230Y168029D01*
X769338Y168079D01*
X769448Y168125D01*
X769560Y168167D01*
X769673Y168206D01*
X769787Y168241D01*
X769902Y168272D01*
X770019Y168300D01*
X770136Y168323D01*
X770253Y168343D01*
X770372Y168359D01*
X770491Y168371D01*
X770610Y168379D01*
X770729Y168383D01*
X770849Y168383D01*
X770968Y168379D01*
X771087Y168371D01*
X771206Y168359D01*
X771325Y168343D01*
X771442Y168323D01*
X771559Y168300D01*
X771676Y168272D01*
X771791Y168241D01*
X771905Y168206D01*
X772018Y168167D01*
X772130Y168125D01*
X772240Y168079D01*
X772348Y168029D01*
X772455Y167976D01*
X772560Y167919D01*
X772664Y167859D01*
X772765Y167795D01*
X772863Y167728D01*
X772960Y167658D01*
X773054Y167584D01*
X773146Y167508D01*
X773235Y167428D01*
X773322Y167346D01*
X773406Y167261D01*
X773487Y167173D01*
X773564Y167083D01*
X773639Y166990D01*
X773711Y166894D01*
X773780Y166796D01*
X773845Y166696D01*
X773907Y166594D01*
X773966Y166490D01*
X774021Y166384D01*
X774072Y166276D01*
X774120Y166167D01*
X774165Y166056D01*
X774205Y165944D01*
X774242Y165830D01*
X774275Y165715D01*
X774305Y165600D01*
X774330Y165483D01*
X774352Y165366D01*
X774369Y165247D01*
X774383Y165129D01*
X774393Y165010D01*
X774399Y164890D01*
X774401Y164771D01*
X774402Y164771D02*
X774402Y161158D01*
X778917Y174983D02*
X778784Y174985D01*
X778652Y174991D01*
X778520Y175001D01*
X778388Y175014D01*
X778256Y175032D01*
X778126Y175053D01*
X777995Y175078D01*
X777866Y175107D01*
X777738Y175140D01*
X777610Y175176D01*
X777484Y175216D01*
X777359Y175260D01*
X777235Y175308D01*
X777113Y175359D01*
X776992Y175414D01*
X776873Y175472D01*
X776755Y175534D01*
X776640Y175599D01*
X776526Y175668D01*
X776415Y175739D01*
X776306Y175815D01*
X776199Y175893D01*
X776094Y175974D01*
X775992Y176059D01*
X775892Y176146D01*
X775795Y176236D01*
X775700Y176329D01*
X775609Y176425D01*
X775520Y176523D01*
X775434Y176624D01*
X775351Y176728D01*
X775271Y176834D01*
X775195Y176942D01*
X775121Y177052D01*
X775051Y177165D01*
X774984Y177279D01*
X774921Y177396D01*
X774861Y177514D01*
X774804Y177634D01*
X774751Y177756D01*
X774702Y177879D01*
X774656Y178003D01*
X774614Y178129D01*
X774576Y178256D01*
X774541Y178384D01*
X774510Y178513D01*
X774483Y178642D01*
X774460Y178773D01*
X774440Y178904D01*
X774425Y179036D01*
X774413Y179168D01*
X774405Y179300D01*
X774401Y179433D01*
X774401Y179565D01*
X774405Y179698D01*
X774413Y179830D01*
X774425Y179962D01*
X774440Y180094D01*
X774460Y180225D01*
X774483Y180356D01*
X774510Y180485D01*
X774541Y180614D01*
X774576Y180742D01*
X774614Y180869D01*
X774656Y180995D01*
X774702Y181119D01*
X774751Y181242D01*
X774804Y181364D01*
X774861Y181484D01*
X774921Y181602D01*
X774984Y181719D01*
X775051Y181833D01*
X775121Y181946D01*
X775195Y182056D01*
X775271Y182164D01*
X775351Y182270D01*
X775434Y182374D01*
X775520Y182475D01*
X775609Y182573D01*
X775700Y182669D01*
X775795Y182762D01*
X775892Y182852D01*
X775992Y182939D01*
X776094Y183024D01*
X776199Y183105D01*
X776306Y183183D01*
X776415Y183259D01*
X776526Y183330D01*
X776640Y183399D01*
X776755Y183464D01*
X776873Y183526D01*
X776992Y183584D01*
X777113Y183639D01*
X777235Y183690D01*
X777359Y183738D01*
X777484Y183782D01*
X777610Y183822D01*
X777738Y183858D01*
X777866Y183891D01*
X777995Y183920D01*
X778126Y183945D01*
X778256Y183966D01*
X778388Y183984D01*
X778520Y183997D01*
X778652Y184007D01*
X778784Y184013D01*
X778917Y184015D01*
X779050Y184013D01*
X779182Y184007D01*
X779314Y183997D01*
X779446Y183984D01*
X779578Y183966D01*
X779708Y183945D01*
X779839Y183920D01*
X779968Y183891D01*
X780096Y183858D01*
X780224Y183822D01*
X780350Y183782D01*
X780475Y183738D01*
X780599Y183690D01*
X780721Y183639D01*
X780842Y183584D01*
X780961Y183526D01*
X781079Y183464D01*
X781194Y183399D01*
X781308Y183330D01*
X781419Y183259D01*
X781528Y183183D01*
X781635Y183105D01*
X781740Y183024D01*
X781842Y182939D01*
X781942Y182852D01*
X782039Y182762D01*
X782134Y182669D01*
X782225Y182573D01*
X782314Y182475D01*
X782400Y182374D01*
X782483Y182270D01*
X782563Y182164D01*
X782639Y182056D01*
X782713Y181946D01*
X782783Y181833D01*
X782850Y181719D01*
X782913Y181602D01*
X782973Y181484D01*
X783030Y181364D01*
X783083Y181242D01*
X783132Y181119D01*
X783178Y180995D01*
X783220Y180869D01*
X783258Y180742D01*
X783293Y180614D01*
X783324Y180485D01*
X783351Y180356D01*
X783374Y180225D01*
X783394Y180094D01*
X783409Y179962D01*
X783421Y179830D01*
X783429Y179698D01*
X783433Y179565D01*
X783433Y179433D01*
X783429Y179300D01*
X783421Y179168D01*
X783409Y179036D01*
X783394Y178904D01*
X783374Y178773D01*
X783351Y178642D01*
X783324Y178513D01*
X783293Y178384D01*
X783258Y178256D01*
X783220Y178129D01*
X783178Y178003D01*
X783132Y177879D01*
X783083Y177756D01*
X783030Y177634D01*
X782973Y177514D01*
X782913Y177396D01*
X782850Y177279D01*
X782783Y177165D01*
X782713Y177052D01*
X782639Y176942D01*
X782563Y176834D01*
X782483Y176728D01*
X782400Y176624D01*
X782314Y176523D01*
X782225Y176425D01*
X782134Y176329D01*
X782039Y176236D01*
X781942Y176146D01*
X781842Y176059D01*
X781740Y175974D01*
X781635Y175893D01*
X781528Y175815D01*
X781419Y175739D01*
X781308Y175668D01*
X781194Y175599D01*
X781079Y175534D01*
X780961Y175472D01*
X780842Y175414D01*
X780721Y175359D01*
X780599Y175308D01*
X780475Y175260D01*
X780350Y175216D01*
X780224Y175176D01*
X780096Y175140D01*
X779968Y175107D01*
X779839Y175078D01*
X779708Y175053D01*
X779578Y175032D01*
X779446Y175014D01*
X779314Y175001D01*
X779182Y174991D01*
X779050Y174985D01*
X778917Y174983D01*
X770789Y175887D02*
X770670Y175889D01*
X770550Y175895D01*
X770431Y175905D01*
X770313Y175919D01*
X770194Y175936D01*
X770077Y175958D01*
X769960Y175983D01*
X769845Y176013D01*
X769730Y176046D01*
X769616Y176083D01*
X769504Y176123D01*
X769393Y176168D01*
X769284Y176216D01*
X769176Y176267D01*
X769070Y176322D01*
X768966Y176381D01*
X768864Y176443D01*
X768764Y176508D01*
X768666Y176577D01*
X768570Y176649D01*
X768477Y176724D01*
X768387Y176801D01*
X768299Y176882D01*
X768214Y176966D01*
X768132Y177053D01*
X768052Y177142D01*
X767976Y177234D01*
X767902Y177328D01*
X767832Y177425D01*
X767765Y177523D01*
X767701Y177624D01*
X767641Y177728D01*
X767584Y177833D01*
X767531Y177940D01*
X767481Y178048D01*
X767435Y178158D01*
X767393Y178270D01*
X767354Y178383D01*
X767319Y178497D01*
X767288Y178612D01*
X767260Y178729D01*
X767237Y178846D01*
X767217Y178963D01*
X767201Y179082D01*
X767189Y179201D01*
X767181Y179320D01*
X767177Y179439D01*
X767177Y179559D01*
X767181Y179678D01*
X767189Y179797D01*
X767201Y179916D01*
X767217Y180035D01*
X767237Y180152D01*
X767260Y180269D01*
X767288Y180386D01*
X767319Y180501D01*
X767354Y180615D01*
X767393Y180728D01*
X767435Y180840D01*
X767481Y180950D01*
X767531Y181058D01*
X767584Y181165D01*
X767641Y181270D01*
X767701Y181374D01*
X767765Y181475D01*
X767832Y181573D01*
X767902Y181670D01*
X767976Y181764D01*
X768052Y181856D01*
X768132Y181945D01*
X768214Y182032D01*
X768299Y182116D01*
X768387Y182197D01*
X768477Y182274D01*
X768570Y182349D01*
X768666Y182421D01*
X768764Y182490D01*
X768864Y182555D01*
X768966Y182617D01*
X769070Y182676D01*
X769176Y182731D01*
X769284Y182782D01*
X769393Y182830D01*
X769504Y182875D01*
X769616Y182915D01*
X769730Y182952D01*
X769845Y182985D01*
X769960Y183015D01*
X770077Y183040D01*
X770194Y183062D01*
X770313Y183079D01*
X770431Y183093D01*
X770550Y183103D01*
X770670Y183109D01*
X770789Y183111D01*
X770908Y183109D01*
X771028Y183103D01*
X771147Y183093D01*
X771265Y183079D01*
X771384Y183062D01*
X771501Y183040D01*
X771618Y183015D01*
X771733Y182985D01*
X771848Y182952D01*
X771962Y182915D01*
X772074Y182875D01*
X772185Y182830D01*
X772294Y182782D01*
X772402Y182731D01*
X772508Y182676D01*
X772612Y182617D01*
X772714Y182555D01*
X772814Y182490D01*
X772912Y182421D01*
X773008Y182349D01*
X773101Y182274D01*
X773191Y182197D01*
X773279Y182116D01*
X773364Y182032D01*
X773446Y181945D01*
X773526Y181856D01*
X773602Y181764D01*
X773676Y181670D01*
X773746Y181573D01*
X773813Y181475D01*
X773877Y181374D01*
X773937Y181270D01*
X773994Y181165D01*
X774047Y181058D01*
X774097Y180950D01*
X774143Y180840D01*
X774185Y180728D01*
X774224Y180615D01*
X774259Y180501D01*
X774290Y180386D01*
X774318Y180269D01*
X774341Y180152D01*
X774361Y180035D01*
X774377Y179916D01*
X774389Y179797D01*
X774397Y179678D01*
X774401Y179559D01*
X774401Y179439D01*
X774397Y179320D01*
X774389Y179201D01*
X774377Y179082D01*
X774361Y178963D01*
X774341Y178846D01*
X774318Y178729D01*
X774290Y178612D01*
X774259Y178497D01*
X774224Y178383D01*
X774185Y178270D01*
X774143Y178158D01*
X774097Y178048D01*
X774047Y177940D01*
X773994Y177833D01*
X773937Y177728D01*
X773877Y177624D01*
X773813Y177523D01*
X773746Y177425D01*
X773676Y177328D01*
X773602Y177234D01*
X773526Y177142D01*
X773446Y177053D01*
X773364Y176966D01*
X773279Y176882D01*
X773191Y176801D01*
X773101Y176724D01*
X773008Y176649D01*
X772912Y176577D01*
X772814Y176508D01*
X772714Y176443D01*
X772612Y176381D01*
X772508Y176322D01*
X772402Y176267D01*
X772294Y176216D01*
X772185Y176168D01*
X772074Y176123D01*
X771962Y176083D01*
X771848Y176046D01*
X771733Y176013D01*
X771618Y175983D01*
X771501Y175958D01*
X771384Y175936D01*
X771265Y175919D01*
X771147Y175905D01*
X771028Y175895D01*
X770908Y175889D01*
X770789Y175887D01*
X782530Y189989D02*
X783433Y189989D01*
X782530Y189989D02*
X782530Y190892D01*
X783433Y190892D01*
X783433Y189989D01*
X770789Y196867D02*
X767177Y201382D01*
X783433Y201382D01*
X783433Y196867D02*
X783433Y205898D01*
X775305Y212498D02*
X774985Y212502D01*
X774666Y212513D01*
X774346Y212532D01*
X774028Y212559D01*
X773710Y212593D01*
X773393Y212635D01*
X773077Y212685D01*
X772762Y212742D01*
X772449Y212806D01*
X772137Y212878D01*
X771827Y212957D01*
X771520Y213044D01*
X771214Y213138D01*
X770911Y213239D01*
X770610Y213348D01*
X770312Y213463D01*
X770016Y213586D01*
X769724Y213716D01*
X769435Y213853D01*
X769434Y213854D02*
X769326Y213893D01*
X769219Y213936D01*
X769114Y213982D01*
X769011Y214032D01*
X768909Y214086D01*
X768809Y214143D01*
X768711Y214204D01*
X768615Y214268D01*
X768522Y214335D01*
X768431Y214405D01*
X768342Y214479D01*
X768256Y214555D01*
X768173Y214635D01*
X768092Y214717D01*
X768014Y214802D01*
X767940Y214889D01*
X767868Y214980D01*
X767799Y215072D01*
X767734Y215167D01*
X767672Y215264D01*
X767613Y215363D01*
X767558Y215464D01*
X767507Y215567D01*
X767459Y215672D01*
X767414Y215778D01*
X767373Y215885D01*
X767336Y215994D01*
X767303Y216105D01*
X767274Y216216D01*
X767248Y216328D01*
X767226Y216441D01*
X767209Y216555D01*
X767195Y216669D01*
X767185Y216784D01*
X767179Y216899D01*
X767177Y217014D01*
X767179Y217129D01*
X767185Y217244D01*
X767195Y217359D01*
X767209Y217473D01*
X767226Y217587D01*
X767248Y217700D01*
X767274Y217812D01*
X767303Y217924D01*
X767336Y218034D01*
X767373Y218143D01*
X767414Y218251D01*
X767459Y218357D01*
X767507Y218462D01*
X767558Y218564D01*
X767614Y218666D01*
X767672Y218765D01*
X767734Y218862D01*
X767800Y218957D01*
X767868Y219049D01*
X767940Y219139D01*
X768014Y219227D01*
X768092Y219312D01*
X768173Y219394D01*
X768256Y219473D01*
X768342Y219550D01*
X768431Y219623D01*
X768522Y219694D01*
X768616Y219761D01*
X768711Y219825D01*
X768809Y219886D01*
X768909Y219943D01*
X769011Y219996D01*
X769115Y220047D01*
X769220Y220093D01*
X769327Y220136D01*
X769435Y220175D01*
X769435Y220174D02*
X769724Y220311D01*
X770016Y220441D01*
X770312Y220564D01*
X770610Y220679D01*
X770911Y220788D01*
X771214Y220889D01*
X771520Y220983D01*
X771827Y221070D01*
X772137Y221149D01*
X772449Y221221D01*
X772762Y221285D01*
X773077Y221342D01*
X773393Y221392D01*
X773710Y221434D01*
X774028Y221468D01*
X774346Y221495D01*
X774666Y221514D01*
X774985Y221525D01*
X775305Y221529D01*
X775305Y212498D02*
X775625Y212502D01*
X775944Y212513D01*
X776264Y212532D01*
X776582Y212559D01*
X776900Y212593D01*
X777217Y212635D01*
X777533Y212685D01*
X777848Y212742D01*
X778161Y212806D01*
X778473Y212878D01*
X778783Y212957D01*
X779090Y213044D01*
X779396Y213138D01*
X779699Y213239D01*
X780000Y213348D01*
X780298Y213463D01*
X780594Y213586D01*
X780886Y213716D01*
X781175Y213853D01*
X781176Y213853D02*
X781284Y213892D01*
X781391Y213935D01*
X781496Y213981D01*
X781600Y214032D01*
X781702Y214085D01*
X781802Y214142D01*
X781900Y214203D01*
X781995Y214267D01*
X782089Y214334D01*
X782180Y214405D01*
X782269Y214478D01*
X782355Y214555D01*
X782438Y214634D01*
X782519Y214716D01*
X782597Y214801D01*
X782671Y214889D01*
X782743Y214979D01*
X782812Y215072D01*
X782877Y215166D01*
X782939Y215263D01*
X782997Y215363D01*
X783053Y215464D01*
X783104Y215566D01*
X783152Y215671D01*
X783197Y215777D01*
X783238Y215885D01*
X783275Y215994D01*
X783308Y216104D01*
X783337Y216216D01*
X783363Y216328D01*
X783385Y216441D01*
X783402Y216555D01*
X783416Y216669D01*
X783426Y216784D01*
X783432Y216899D01*
X783434Y217014D01*
X781175Y220174D02*
X780886Y220311D01*
X780594Y220441D01*
X780298Y220564D01*
X780000Y220679D01*
X779699Y220788D01*
X779396Y220889D01*
X779090Y220983D01*
X778783Y221070D01*
X778473Y221149D01*
X778161Y221221D01*
X777848Y221285D01*
X777533Y221342D01*
X777217Y221392D01*
X776900Y221434D01*
X776582Y221468D01*
X776264Y221495D01*
X775944Y221514D01*
X775625Y221525D01*
X775305Y221529D01*
X781175Y220175D02*
X781283Y220136D01*
X781390Y220093D01*
X781495Y220047D01*
X781599Y219996D01*
X781701Y219943D01*
X781801Y219886D01*
X781899Y219825D01*
X781994Y219761D01*
X782088Y219694D01*
X782179Y219623D01*
X782268Y219550D01*
X782354Y219473D01*
X782437Y219394D01*
X782518Y219312D01*
X782596Y219227D01*
X782670Y219139D01*
X782742Y219049D01*
X782811Y218956D01*
X782876Y218862D01*
X782938Y218765D01*
X782996Y218665D01*
X783052Y218564D01*
X783103Y218461D01*
X783151Y218357D01*
X783196Y218251D01*
X783237Y218143D01*
X783274Y218034D01*
X783307Y217924D01*
X783336Y217812D01*
X783362Y217700D01*
X783384Y217587D01*
X783401Y217473D01*
X783415Y217359D01*
X783425Y217244D01*
X783431Y217129D01*
X783433Y217014D01*
X779821Y213401D02*
X770789Y220626D01*
D10*
X3810Y25400D02*
X3810Y-60140D01*
X727710Y-60140D02*
X727710Y25400D01*
X727060Y-40640D02*
X4460Y-40640D01*
X29810Y-37448D01*
X29810Y-43832D01*
X4460Y-40640D01*
X29810Y-39340D01*
X29810Y-41940D02*
X4460Y-40640D01*
X29810Y-38040D01*
X29810Y-43240D02*
X4460Y-40640D01*
X701710Y-37448D02*
X727060Y-40640D01*
X701710Y-37448D02*
X701710Y-43832D01*
X727060Y-40640D01*
X701710Y-39340D01*
X701710Y-41940D02*
X727060Y-40640D01*
X701710Y-38040D01*
X701710Y-43240D02*
X727060Y-40640D01*
D11*
X334612Y-19683D02*
X334612Y-17877D01*
X343643Y-17877D01*
X339128Y-34133D01*
X355210Y-17877D02*
X355335Y-17879D01*
X355460Y-17885D01*
X355585Y-17894D01*
X355709Y-17908D01*
X355833Y-17925D01*
X355957Y-17946D01*
X356079Y-17971D01*
X356201Y-18000D01*
X356322Y-18032D01*
X356442Y-18068D01*
X356561Y-18108D01*
X356678Y-18151D01*
X356794Y-18198D01*
X356909Y-18249D01*
X357021Y-18303D01*
X357133Y-18361D01*
X357242Y-18421D01*
X357349Y-18486D01*
X357455Y-18553D01*
X357558Y-18624D01*
X357659Y-18698D01*
X357758Y-18775D01*
X357854Y-18855D01*
X357948Y-18938D01*
X358039Y-19023D01*
X358128Y-19112D01*
X358213Y-19203D01*
X358296Y-19297D01*
X358376Y-19393D01*
X358453Y-19492D01*
X358527Y-19593D01*
X358598Y-19696D01*
X358665Y-19802D01*
X358730Y-19909D01*
X358790Y-20018D01*
X358848Y-20130D01*
X358902Y-20242D01*
X358953Y-20357D01*
X359000Y-20473D01*
X359043Y-20590D01*
X359083Y-20709D01*
X359119Y-20829D01*
X359151Y-20950D01*
X359180Y-21072D01*
X359205Y-21194D01*
X359226Y-21318D01*
X359243Y-21442D01*
X359257Y-21566D01*
X359266Y-21691D01*
X359272Y-21816D01*
X359274Y-21941D01*
X355210Y-17877D02*
X355067Y-17879D01*
X354925Y-17885D01*
X354782Y-17895D01*
X354640Y-17908D01*
X354499Y-17926D01*
X354357Y-17947D01*
X354217Y-17972D01*
X354077Y-18001D01*
X353938Y-18034D01*
X353800Y-18071D01*
X353663Y-18111D01*
X353528Y-18155D01*
X353393Y-18203D01*
X353260Y-18255D01*
X353128Y-18310D01*
X352998Y-18369D01*
X352870Y-18431D01*
X352743Y-18497D01*
X352618Y-18566D01*
X352495Y-18638D01*
X352374Y-18714D01*
X352256Y-18793D01*
X352139Y-18876D01*
X352025Y-18961D01*
X351913Y-19050D01*
X351804Y-19141D01*
X351697Y-19236D01*
X351592Y-19333D01*
X351491Y-19434D01*
X351392Y-19537D01*
X351296Y-19642D01*
X351203Y-19751D01*
X351113Y-19862D01*
X351026Y-19975D01*
X350942Y-20090D01*
X350862Y-20208D01*
X350784Y-20328D01*
X350710Y-20450D01*
X350640Y-20574D01*
X350572Y-20700D01*
X350509Y-20828D01*
X350448Y-20957D01*
X350391Y-21088D01*
X350338Y-21220D01*
X350289Y-21354D01*
X350243Y-21489D01*
X357919Y-25102D02*
X358013Y-25010D01*
X358103Y-24916D01*
X358191Y-24819D01*
X358276Y-24719D01*
X358358Y-24617D01*
X358436Y-24512D01*
X358512Y-24405D01*
X358584Y-24296D01*
X358653Y-24185D01*
X358719Y-24071D01*
X358781Y-23956D01*
X358840Y-23839D01*
X358895Y-23720D01*
X358946Y-23600D01*
X358994Y-23478D01*
X359039Y-23355D01*
X359079Y-23231D01*
X359116Y-23105D01*
X359149Y-22978D01*
X359178Y-22851D01*
X359204Y-22722D01*
X359225Y-22593D01*
X359243Y-22463D01*
X359256Y-22333D01*
X359266Y-22203D01*
X359272Y-22072D01*
X359274Y-21941D01*
X357920Y-25102D02*
X350243Y-34133D01*
X359274Y-34133D01*
X365249Y-34133D02*
X365249Y-33230D01*
X366152Y-33230D01*
X366152Y-34133D01*
X365249Y-34133D01*
X372127Y-34133D02*
X376642Y-34133D01*
X376775Y-34131D01*
X376907Y-34125D01*
X377039Y-34115D01*
X377171Y-34102D01*
X377303Y-34084D01*
X377433Y-34063D01*
X377564Y-34038D01*
X377693Y-34009D01*
X377821Y-33976D01*
X377949Y-33940D01*
X378075Y-33900D01*
X378200Y-33856D01*
X378324Y-33808D01*
X378446Y-33757D01*
X378567Y-33702D01*
X378686Y-33644D01*
X378804Y-33582D01*
X378919Y-33517D01*
X379033Y-33448D01*
X379144Y-33377D01*
X379253Y-33301D01*
X379360Y-33223D01*
X379465Y-33142D01*
X379567Y-33057D01*
X379667Y-32970D01*
X379764Y-32880D01*
X379859Y-32787D01*
X379950Y-32691D01*
X380039Y-32593D01*
X380125Y-32492D01*
X380208Y-32388D01*
X380288Y-32282D01*
X380364Y-32174D01*
X380438Y-32064D01*
X380508Y-31951D01*
X380575Y-31837D01*
X380638Y-31720D01*
X380698Y-31602D01*
X380755Y-31482D01*
X380808Y-31360D01*
X380857Y-31237D01*
X380903Y-31113D01*
X380945Y-30987D01*
X380983Y-30860D01*
X381018Y-30732D01*
X381049Y-30603D01*
X381076Y-30474D01*
X381099Y-30343D01*
X381119Y-30212D01*
X381134Y-30080D01*
X381146Y-29948D01*
X381154Y-29816D01*
X381158Y-29683D01*
X381158Y-29551D01*
X381154Y-29418D01*
X381146Y-29286D01*
X381134Y-29154D01*
X381119Y-29022D01*
X381099Y-28891D01*
X381076Y-28760D01*
X381049Y-28631D01*
X381018Y-28502D01*
X380983Y-28374D01*
X380945Y-28247D01*
X380903Y-28121D01*
X380857Y-27997D01*
X380808Y-27874D01*
X380755Y-27752D01*
X380698Y-27632D01*
X380638Y-27514D01*
X380575Y-27397D01*
X380508Y-27283D01*
X380438Y-27170D01*
X380364Y-27060D01*
X380288Y-26952D01*
X380208Y-26846D01*
X380125Y-26742D01*
X380039Y-26641D01*
X379950Y-26543D01*
X379859Y-26447D01*
X379764Y-26354D01*
X379667Y-26264D01*
X379567Y-26177D01*
X379465Y-26092D01*
X379360Y-26011D01*
X379253Y-25933D01*
X379144Y-25857D01*
X379033Y-25786D01*
X378919Y-25717D01*
X378804Y-25652D01*
X378686Y-25590D01*
X378567Y-25532D01*
X378446Y-25477D01*
X378324Y-25426D01*
X378200Y-25378D01*
X378075Y-25334D01*
X377949Y-25294D01*
X377821Y-25258D01*
X377693Y-25225D01*
X377564Y-25196D01*
X377433Y-25171D01*
X377303Y-25150D01*
X377171Y-25132D01*
X377039Y-25119D01*
X376907Y-25109D01*
X376775Y-25103D01*
X376642Y-25101D01*
X377546Y-17877D02*
X372127Y-17877D01*
X377546Y-17877D02*
X377665Y-17879D01*
X377785Y-17885D01*
X377904Y-17895D01*
X378022Y-17909D01*
X378141Y-17926D01*
X378258Y-17948D01*
X378375Y-17973D01*
X378490Y-18003D01*
X378605Y-18036D01*
X378719Y-18073D01*
X378831Y-18113D01*
X378942Y-18158D01*
X379051Y-18206D01*
X379159Y-18257D01*
X379265Y-18312D01*
X379369Y-18371D01*
X379471Y-18433D01*
X379571Y-18498D01*
X379669Y-18567D01*
X379765Y-18639D01*
X379858Y-18714D01*
X379948Y-18791D01*
X380036Y-18872D01*
X380121Y-18956D01*
X380203Y-19043D01*
X380283Y-19132D01*
X380359Y-19224D01*
X380433Y-19318D01*
X380503Y-19415D01*
X380570Y-19513D01*
X380634Y-19614D01*
X380694Y-19718D01*
X380751Y-19823D01*
X380804Y-19930D01*
X380854Y-20038D01*
X380900Y-20148D01*
X380942Y-20260D01*
X380981Y-20373D01*
X381016Y-20487D01*
X381047Y-20602D01*
X381075Y-20719D01*
X381098Y-20836D01*
X381118Y-20953D01*
X381134Y-21072D01*
X381146Y-21191D01*
X381154Y-21310D01*
X381158Y-21429D01*
X381158Y-21549D01*
X381154Y-21668D01*
X381146Y-21787D01*
X381134Y-21906D01*
X381118Y-22025D01*
X381098Y-22142D01*
X381075Y-22259D01*
X381047Y-22376D01*
X381016Y-22491D01*
X380981Y-22605D01*
X380942Y-22718D01*
X380900Y-22830D01*
X380854Y-22940D01*
X380804Y-23048D01*
X380751Y-23155D01*
X380694Y-23260D01*
X380634Y-23364D01*
X380570Y-23465D01*
X380503Y-23563D01*
X380433Y-23660D01*
X380359Y-23754D01*
X380283Y-23846D01*
X380203Y-23935D01*
X380121Y-24022D01*
X380036Y-24106D01*
X379948Y-24187D01*
X379858Y-24264D01*
X379765Y-24339D01*
X379669Y-24411D01*
X379571Y-24480D01*
X379471Y-24545D01*
X379369Y-24607D01*
X379265Y-24666D01*
X379159Y-24721D01*
X379051Y-24772D01*
X378942Y-24820D01*
X378831Y-24865D01*
X378719Y-24905D01*
X378605Y-24942D01*
X378490Y-24975D01*
X378375Y-25005D01*
X378258Y-25030D01*
X378141Y-25052D01*
X378022Y-25069D01*
X377904Y-25083D01*
X377785Y-25093D01*
X377665Y-25099D01*
X377546Y-25101D01*
X377546Y-25102D02*
X373933Y-25102D01*
X391371Y-26908D02*
X396789Y-26908D01*
X391371Y-26908D02*
X391253Y-26906D01*
X391135Y-26900D01*
X391017Y-26891D01*
X390900Y-26877D01*
X390783Y-26860D01*
X390666Y-26839D01*
X390551Y-26814D01*
X390436Y-26785D01*
X390322Y-26752D01*
X390210Y-26716D01*
X390099Y-26676D01*
X389989Y-26633D01*
X389880Y-26586D01*
X389773Y-26536D01*
X389668Y-26481D01*
X389565Y-26424D01*
X389464Y-26363D01*
X389364Y-26299D01*
X389267Y-26232D01*
X389172Y-26162D01*
X389080Y-26088D01*
X388989Y-26012D01*
X388902Y-25932D01*
X388817Y-25850D01*
X388735Y-25765D01*
X388655Y-25678D01*
X388579Y-25587D01*
X388505Y-25495D01*
X388435Y-25400D01*
X388368Y-25303D01*
X388304Y-25203D01*
X388243Y-25102D01*
X388186Y-24999D01*
X388131Y-24894D01*
X388081Y-24787D01*
X388034Y-24678D01*
X387991Y-24568D01*
X387951Y-24457D01*
X387915Y-24345D01*
X387882Y-24231D01*
X387853Y-24116D01*
X387828Y-24001D01*
X387807Y-23884D01*
X387790Y-23767D01*
X387776Y-23650D01*
X387767Y-23532D01*
X387761Y-23414D01*
X387759Y-23296D01*
X387758Y-23296D02*
X387758Y-22393D01*
X387760Y-22260D01*
X387766Y-22128D01*
X387776Y-21996D01*
X387789Y-21864D01*
X387807Y-21732D01*
X387828Y-21602D01*
X387853Y-21471D01*
X387882Y-21342D01*
X387915Y-21214D01*
X387951Y-21086D01*
X387991Y-20960D01*
X388035Y-20835D01*
X388083Y-20711D01*
X388134Y-20589D01*
X388189Y-20468D01*
X388247Y-20349D01*
X388309Y-20231D01*
X388374Y-20116D01*
X388443Y-20002D01*
X388514Y-19891D01*
X388590Y-19782D01*
X388668Y-19675D01*
X388749Y-19570D01*
X388834Y-19468D01*
X388921Y-19368D01*
X389011Y-19271D01*
X389104Y-19176D01*
X389200Y-19085D01*
X389298Y-18996D01*
X389399Y-18910D01*
X389503Y-18827D01*
X389609Y-18747D01*
X389717Y-18671D01*
X389827Y-18597D01*
X389940Y-18527D01*
X390054Y-18460D01*
X390171Y-18397D01*
X390289Y-18337D01*
X390409Y-18280D01*
X390531Y-18227D01*
X390654Y-18178D01*
X390778Y-18132D01*
X390904Y-18090D01*
X391031Y-18052D01*
X391159Y-18017D01*
X391288Y-17986D01*
X391417Y-17959D01*
X391548Y-17936D01*
X391679Y-17916D01*
X391811Y-17901D01*
X391943Y-17889D01*
X392075Y-17881D01*
X392208Y-17877D01*
X392340Y-17877D01*
X392473Y-17881D01*
X392605Y-17889D01*
X392737Y-17901D01*
X392869Y-17916D01*
X393000Y-17936D01*
X393131Y-17959D01*
X393260Y-17986D01*
X393389Y-18017D01*
X393517Y-18052D01*
X393644Y-18090D01*
X393770Y-18132D01*
X393894Y-18178D01*
X394017Y-18227D01*
X394139Y-18280D01*
X394259Y-18337D01*
X394377Y-18397D01*
X394494Y-18460D01*
X394608Y-18527D01*
X394721Y-18597D01*
X394831Y-18671D01*
X394939Y-18747D01*
X395045Y-18827D01*
X395149Y-18910D01*
X395250Y-18996D01*
X395348Y-19085D01*
X395444Y-19176D01*
X395537Y-19271D01*
X395627Y-19368D01*
X395714Y-19468D01*
X395799Y-19570D01*
X395880Y-19675D01*
X395958Y-19782D01*
X396034Y-19891D01*
X396105Y-20002D01*
X396174Y-20116D01*
X396239Y-20231D01*
X396301Y-20349D01*
X396359Y-20468D01*
X396414Y-20589D01*
X396465Y-20711D01*
X396513Y-20835D01*
X396557Y-20960D01*
X396597Y-21086D01*
X396633Y-21214D01*
X396666Y-21342D01*
X396695Y-21471D01*
X396720Y-21602D01*
X396741Y-21732D01*
X396759Y-21864D01*
X396772Y-21996D01*
X396782Y-22128D01*
X396788Y-22260D01*
X396790Y-22393D01*
X396789Y-22393D02*
X396789Y-26908D01*
X396787Y-27083D01*
X396781Y-27257D01*
X396770Y-27431D01*
X396755Y-27605D01*
X396736Y-27779D01*
X396713Y-27952D01*
X396686Y-28124D01*
X396654Y-28296D01*
X396619Y-28467D01*
X396579Y-28637D01*
X396535Y-28806D01*
X396487Y-28974D01*
X396435Y-29141D01*
X396379Y-29306D01*
X396319Y-29470D01*
X396256Y-29633D01*
X396188Y-29793D01*
X396116Y-29953D01*
X396041Y-30110D01*
X395961Y-30266D01*
X395878Y-30419D01*
X395792Y-30571D01*
X395701Y-30720D01*
X395607Y-30867D01*
X395510Y-31012D01*
X395409Y-31155D01*
X395305Y-31295D01*
X395197Y-31432D01*
X395086Y-31567D01*
X394972Y-31699D01*
X394855Y-31828D01*
X394734Y-31955D01*
X394611Y-32078D01*
X394484Y-32199D01*
X394355Y-32316D01*
X394223Y-32430D01*
X394088Y-32541D01*
X393951Y-32649D01*
X393811Y-32753D01*
X393668Y-32854D01*
X393523Y-32951D01*
X393376Y-33045D01*
X393227Y-33136D01*
X393075Y-33222D01*
X392922Y-33305D01*
X392766Y-33385D01*
X392609Y-33460D01*
X392449Y-33532D01*
X392289Y-33600D01*
X392126Y-33663D01*
X391962Y-33723D01*
X391797Y-33779D01*
X391630Y-33831D01*
X391462Y-33879D01*
X391293Y-33923D01*
X391123Y-33963D01*
X390952Y-33998D01*
X390780Y-34030D01*
X390608Y-34057D01*
X390435Y-34080D01*
X390261Y-34099D01*
X390087Y-34114D01*
X389913Y-34125D01*
X389739Y-34131D01*
X389564Y-34133D01*
D12*
X59690Y321310D03*
X85090Y321310D03*
X110490Y321310D03*
X135890Y321310D03*
X161290Y321310D03*
X186690Y321310D03*
X212090Y321310D03*
X237490Y321310D03*
X262890Y321310D03*
X288290Y321310D03*
X313690Y321310D03*
X339090Y321310D03*
X364490Y321310D03*
X389890Y321310D03*
X415290Y321310D03*
X440690Y321310D03*
X466090Y321310D03*
X491490Y321310D03*
X516890Y321310D03*
X516890Y67310D03*
X491490Y67310D03*
X466090Y67310D03*
X440690Y67310D03*
X415290Y67310D03*
X389890Y67310D03*
X364490Y67310D03*
X339090Y67310D03*
X313690Y67310D03*
X288290Y67310D03*
X262890Y67310D03*
X237490Y67310D03*
X212090Y67310D03*
X186690Y67310D03*
X161290Y67310D03*
X135890Y67310D03*
X110490Y67310D03*
X85090Y67310D03*
X59690Y67310D03*
D13*
X298450Y153670D03*
X298450Y179070D03*
X298450Y204470D03*
D14*
X298450Y229870D03*
D15*
X253950Y177800D03*
X190550Y177800D03*
D16*
X165210Y208280D03*
X147210Y208280D03*
D17*
X643890Y346710D03*
X618490Y346710D03*
X593090Y346710D03*
X567690Y346710D03*
X542290Y346710D03*
X516890Y346710D03*
X491490Y346710D03*
X466090Y346710D03*
X440690Y346710D03*
X415290Y346710D03*
X389890Y346710D03*
X364490Y346710D03*
X339090Y346710D03*
X339090Y41910D03*
X364490Y41910D03*
X389890Y41910D03*
X415290Y41910D03*
X440690Y41910D03*
X466090Y41910D03*
X491490Y41910D03*
X516890Y41910D03*
X542290Y41910D03*
X567690Y41910D03*
X593090Y41910D03*
X618490Y41910D03*
X643890Y41910D03*
D18*
X300990Y347980D03*
X284480Y347980D03*
X267970Y347980D03*
D15*
X193090Y245110D03*
X256490Y245110D03*
D16*
X162670Y265430D03*
X144670Y265430D03*
D17*
X355600Y231140D03*
X355600Y205740D03*
X355600Y180340D03*
X355600Y154940D03*
D19*
X147320Y124460D03*
X162560Y124460D03*
X264160Y124460D03*
X279400Y124460D03*
X228600Y124460D03*
X243840Y124460D03*
X182880Y124460D03*
X198120Y124460D03*
D20*
X59690Y16510D03*
X59690Y41910D03*
X85090Y16510D03*
X85090Y41910D03*
X110490Y16510D03*
X110490Y41910D03*
X135890Y16510D03*
X135890Y41910D03*
X161290Y16510D03*
X161290Y41910D03*
X186690Y16510D03*
X186690Y41910D03*
X212090Y16510D03*
X212090Y41910D03*
X237490Y16510D03*
X237490Y41910D03*
X262890Y16510D03*
X262890Y41910D03*
X288290Y16510D03*
X288290Y41910D03*
D21*
X320040Y346710D03*
X252730Y347980D03*
X213360Y124460D03*
X612140Y16510D03*
X637540Y16510D03*
X662940Y16510D03*
X688340Y219710D03*
X612140Y219710D03*
X612140Y245110D03*
X650240Y245110D03*
X688340Y245110D03*
X612140Y270510D03*
X650240Y270510D03*
X688340Y270510D03*
X612140Y118110D03*
X688340Y194310D03*
X650240Y143510D03*
X688340Y54610D03*
D22*
X142240Y208280D03*
X240030Y177800D03*
X139700Y265430D03*
X205740Y245110D03*
X121920Y350520D03*
D21*
X586740Y16510D03*
X561340Y16510D03*
X535940Y16510D03*
X510540Y16510D03*
X612140Y92710D03*
X688340Y168910D03*
X612140Y295910D03*
X612140Y321310D03*
X650240Y321310D03*
X650240Y295910D03*
X429260Y309880D03*
X394970Y285750D03*
X320040Y204470D03*
X294640Y257810D03*
X320040Y181610D03*
X320040Y118110D03*
X358140Y130810D03*
X421640Y270510D03*
X421640Y245110D03*
X421640Y143510D03*
X421640Y118110D03*
X459740Y118110D03*
X459740Y143510D03*
X459740Y245110D03*
X459740Y270510D03*
X688340Y143510D03*
X688340Y118110D03*
X650240Y118110D03*
X650240Y92710D03*
X650240Y67310D03*
X612140Y67310D03*
D23*
X144670Y265430D02*
X139700Y265430D01*
X142240Y208280D02*
X147210Y208280D01*
X193090Y245110D02*
X205740Y245110D01*
D24*
X240030Y177800D02*
X253950Y177800D01*
D21*
X421640Y219710D03*
X421640Y194310D03*
X421640Y168910D03*
X459740Y219710D03*
X459740Y194310D03*
X459740Y168910D03*
X612140Y194310D03*
X650240Y219710D03*
X650240Y194310D03*
X650240Y168910D03*
X612140Y168910D03*
X612140Y143510D03*
D24*
X182880Y124460D02*
X182880Y109220D01*
X190500Y101600D01*
X256540Y101600D01*
X264160Y109220D02*
X264160Y124460D01*
X264160Y109220D02*
X256540Y101600D01*
X264160Y124460D02*
X264160Y138430D01*
D21*
X264160Y138430D03*
D22*
X142240Y166370D03*
X170180Y208280D03*
X204470Y177800D03*
D23*
X170180Y208280D02*
X165210Y208280D01*
D24*
X185420Y208280D01*
X190550Y203150D02*
X190550Y177800D01*
X190550Y203150D02*
X185420Y208280D01*
X182880Y148590D02*
X182880Y124460D01*
X190550Y156260D02*
X190550Y177800D01*
X190550Y156260D02*
X182880Y148590D01*
X190550Y177800D02*
X204470Y177800D01*
D25*
X298450Y204470D02*
X312420Y218440D01*
X378460Y218440D01*
X393890Y203010D01*
X393890Y97600D01*
X466090Y81280D02*
X466090Y67310D01*
X403860Y87630D02*
X393890Y97600D01*
X403860Y87630D02*
X459740Y87630D01*
X466090Y81280D01*
X298450Y229870D02*
X290830Y229870D01*
X284480Y223520D01*
X389890Y185420D02*
X389890Y67310D01*
X284480Y199390D02*
X284480Y223520D01*
X284480Y199390D02*
X292100Y191770D01*
X383540Y191770D01*
X389890Y185420D01*
D26*
X355600Y231140D02*
X355600Y246380D01*
X163830Y281940D02*
X59690Y281940D01*
X163830Y281940D02*
X256540Y281940D01*
X320040Y281940D01*
X355600Y246380D01*
X256490Y245110D02*
X256490Y281890D01*
X256540Y281940D01*
D22*
X167640Y265430D03*
X243840Y245110D03*
X95250Y350520D03*
D27*
X256490Y245110D02*
X256540Y245060D01*
X255270Y245110D02*
X243840Y245110D01*
D26*
X59690Y16510D02*
X27384Y16510D01*
X10874Y33020D01*
X10874Y267414D01*
X25400Y281940D01*
X59690Y281940D01*
X59690Y321310D01*
D23*
X163830Y281940D02*
X163830Y266590D01*
X162670Y265430D01*
X167640Y265430D01*
X255270Y245110D02*
X256490Y245110D01*
D24*
X300990Y347980D02*
X300990Y359950D01*
X306070Y365030D01*
X383000Y365030D01*
X389890Y358140D02*
X389890Y346710D01*
X389890Y358140D02*
X383000Y365030D01*
D22*
X91440Y166370D03*
D28*
X252730Y335280D03*
D25*
X253350Y335900D01*
X427370Y335900D01*
X440690Y322580D01*
X440690Y321310D01*
X466090Y50800D02*
X466090Y41910D01*
X466090Y50800D02*
X476250Y60960D01*
X476250Y82550D01*
X367030Y236220D02*
X367030Y298450D01*
X355600Y309880D01*
X266700Y309880D01*
X467170Y91630D02*
X476250Y82550D01*
X467170Y91630D02*
X406210Y91630D01*
X397890Y99950D01*
X397890Y205360D01*
X367030Y236220D01*
X262890Y313690D02*
X262890Y321310D01*
X262890Y313690D02*
X266700Y309880D01*
D27*
X237490Y321310D02*
X237490Y363220D01*
X245110Y370840D01*
X427990Y364490D02*
X427990Y341630D01*
X434340Y335280D01*
X466090Y340360D02*
X466090Y346710D01*
X421640Y370840D02*
X245110Y370840D01*
X421640Y370840D02*
X427990Y364490D01*
X434340Y335280D02*
X461010Y335280D01*
X466090Y340360D01*
X161290Y321310D02*
X161290Y363220D01*
X430530Y375920D02*
X440690Y365760D01*
X440690Y346710D01*
X173990Y375920D02*
X161290Y363220D01*
X173990Y375920D02*
X430530Y375920D01*
D29*
X284480Y360680D02*
X284480Y347980D01*
D21*
X284480Y360680D03*
D24*
X162560Y124460D02*
X162560Y104140D01*
X172180Y94520D02*
X265970Y94520D01*
X279400Y107950D01*
X279400Y124460D01*
X172180Y94520D02*
X162560Y104140D01*
X279400Y124460D02*
X279400Y148590D01*
X284480Y153670D01*
X298450Y153670D01*
X198120Y139700D02*
X198120Y124460D01*
X198120Y139700D02*
X205740Y147320D01*
X237490Y147320D01*
X243840Y140970D01*
X243840Y124460D01*
X243840Y110490D01*
D21*
X243840Y110490D03*
D25*
X59690Y67310D02*
X59690Y41910D01*
X85090Y41910D02*
X85090Y67310D01*
X110490Y67310D02*
X110490Y41910D01*
X135890Y41910D02*
X161290Y67310D01*
X161290Y41910D02*
X186690Y67310D01*
X186690Y41910D02*
X212090Y67310D01*
X212090Y41910D02*
X237490Y67310D01*
X237490Y41910D02*
X262890Y67310D01*
X288290Y41910D02*
X299530Y53150D01*
X426530Y53150D02*
X440690Y67310D01*
X426530Y53150D02*
X299530Y53150D01*
X262890Y44450D02*
X262890Y41910D01*
X262890Y44450D02*
X275590Y57150D01*
X405130Y57150D02*
X415290Y67310D01*
X405130Y57150D02*
X275590Y57150D01*
D21*
X147320Y86360D03*
D25*
X140970Y86360D01*
X130810Y96520D01*
X130810Y271780D01*
D21*
X130810Y271780D03*
X347980Y273050D03*
D25*
X321310Y299720D02*
X318770Y299720D01*
X321310Y299720D02*
X347980Y273050D01*
D21*
X318770Y299720D03*
X374650Y247650D03*
D25*
X374650Y306070D01*
X389890Y321310D01*
X262890Y19050D02*
X262890Y16510D01*
X262890Y19050D02*
X273050Y29210D01*
X302260Y29210D01*
X310960Y20510D01*
X468827Y95630D02*
X480250Y84207D01*
X459937Y95630D02*
X448880Y106687D01*
X448880Y280100D02*
X415290Y313690D01*
X415290Y321310D01*
X448880Y280100D02*
X448880Y106687D01*
X476440Y20510D02*
X310960Y20510D01*
X476440Y20510D02*
X480250Y24320D01*
X480250Y84207D01*
X468827Y95630D02*
X459937Y95630D01*
X480996Y16510D02*
X288290Y16510D01*
X480996Y16510D02*
X502030Y37544D01*
X502030Y92330D01*
X494730Y99630D01*
X462470Y99630D02*
X452880Y109220D01*
X452880Y280160D01*
X466090Y293370D01*
X466090Y321310D01*
X462470Y99630D02*
X494730Y99630D01*
M02*
