G04 EAGLE Gerber RS-274X export*
G75*
%MOMM*%
%FSLAX34Y34*%
%LPD*%
%IN*%
%IPPOS*%
%AMOC8*
5,1,8,0,0,1.08239X$1,22.5*%
G01*
%ADD10C,0.254000*%


D10*
X3810Y25400D02*
X3907Y23186D01*
X4196Y20989D01*
X4675Y18826D01*
X5342Y16713D01*
X6190Y14666D01*
X7213Y12700D01*
X8404Y10831D01*
X9752Y9073D01*
X11250Y7440D01*
X12883Y5942D01*
X14641Y4594D01*
X16510Y3403D01*
X18476Y2380D01*
X20523Y1532D01*
X22636Y865D01*
X24799Y386D01*
X26996Y97D01*
X29210Y0D01*
X702310Y0D01*
X704524Y97D01*
X706721Y386D01*
X708884Y865D01*
X710997Y1532D01*
X713045Y2380D01*
X715010Y3403D01*
X716879Y4594D01*
X718637Y5942D01*
X720271Y7440D01*
X721768Y9073D01*
X723116Y10831D01*
X724307Y12700D01*
X725330Y14666D01*
X726178Y16713D01*
X726845Y18826D01*
X727324Y20989D01*
X727613Y23186D01*
X727710Y25400D01*
X727710Y355600D01*
X727613Y357814D01*
X727324Y360011D01*
X726845Y362174D01*
X726178Y364287D01*
X725330Y366335D01*
X724307Y368300D01*
X723116Y370169D01*
X721768Y371927D01*
X720271Y373561D01*
X718637Y375058D01*
X716879Y376406D01*
X715010Y377597D01*
X713045Y378620D01*
X710997Y379468D01*
X708884Y380135D01*
X706721Y380614D01*
X704524Y380903D01*
X702310Y381000D01*
X29210Y381000D01*
X26996Y380903D01*
X24799Y380614D01*
X22636Y380135D01*
X20523Y379468D01*
X18476Y378620D01*
X16510Y377597D01*
X14641Y376406D01*
X12883Y375058D01*
X11250Y373561D01*
X9752Y371927D01*
X8404Y370169D01*
X7213Y368300D01*
X6190Y366335D01*
X5342Y364287D01*
X4675Y362174D01*
X4196Y360011D01*
X3907Y357814D01*
X3810Y355600D01*
X3810Y25400D01*
X45290Y320878D02*
X45222Y320016D01*
X45087Y319162D01*
X44885Y318322D01*
X44618Y317500D01*
X44287Y316701D01*
X43895Y315931D01*
X43443Y315194D01*
X42935Y314495D01*
X42374Y313837D01*
X41763Y313226D01*
X41105Y312665D01*
X40406Y312157D01*
X39669Y311705D01*
X38899Y311313D01*
X38100Y310982D01*
X37278Y310715D01*
X36438Y310513D01*
X35584Y310378D01*
X34722Y310310D01*
X33858Y310310D01*
X32996Y310378D01*
X32142Y310513D01*
X31302Y310715D01*
X30480Y310982D01*
X29681Y311313D01*
X28911Y311705D01*
X28174Y312157D01*
X27475Y312665D01*
X26817Y313226D01*
X26206Y313837D01*
X25645Y314495D01*
X25137Y315194D01*
X24685Y315931D01*
X24293Y316701D01*
X23962Y317500D01*
X23695Y318322D01*
X23493Y319162D01*
X23358Y320016D01*
X23290Y320878D01*
X23290Y321742D01*
X23358Y322604D01*
X23493Y323458D01*
X23695Y324298D01*
X23962Y325120D01*
X24293Y325919D01*
X24685Y326689D01*
X25137Y327426D01*
X25645Y328125D01*
X26206Y328783D01*
X26817Y329394D01*
X27475Y329955D01*
X28174Y330463D01*
X28911Y330915D01*
X29681Y331307D01*
X30480Y331638D01*
X31302Y331905D01*
X32142Y332107D01*
X32996Y332242D01*
X33858Y332310D01*
X34722Y332310D01*
X35584Y332242D01*
X36438Y332107D01*
X37278Y331905D01*
X38100Y331638D01*
X38899Y331307D01*
X39669Y330915D01*
X40406Y330463D01*
X41105Y329955D01*
X41763Y329394D01*
X42374Y328783D01*
X42935Y328125D01*
X43443Y327426D01*
X43895Y326689D01*
X44287Y325919D01*
X44618Y325120D01*
X44885Y324298D01*
X45087Y323458D01*
X45222Y322604D01*
X45290Y321742D01*
X45290Y320878D01*
X45290Y66878D02*
X45222Y66016D01*
X45087Y65162D01*
X44885Y64322D01*
X44618Y63500D01*
X44287Y62701D01*
X43895Y61931D01*
X43443Y61194D01*
X42935Y60495D01*
X42374Y59837D01*
X41763Y59226D01*
X41105Y58665D01*
X40406Y58157D01*
X39669Y57705D01*
X38899Y57313D01*
X38100Y56982D01*
X37278Y56715D01*
X36438Y56513D01*
X35584Y56378D01*
X34722Y56310D01*
X33858Y56310D01*
X32996Y56378D01*
X32142Y56513D01*
X31302Y56715D01*
X30480Y56982D01*
X29681Y57313D01*
X28911Y57705D01*
X28174Y58157D01*
X27475Y58665D01*
X26817Y59226D01*
X26206Y59837D01*
X25645Y60495D01*
X25137Y61194D01*
X24685Y61931D01*
X24293Y62701D01*
X23962Y63500D01*
X23695Y64322D01*
X23493Y65162D01*
X23358Y66016D01*
X23290Y66878D01*
X23290Y67742D01*
X23358Y68604D01*
X23493Y69458D01*
X23695Y70298D01*
X23962Y71120D01*
X24293Y71919D01*
X24685Y72689D01*
X25137Y73426D01*
X25645Y74125D01*
X26206Y74783D01*
X26817Y75394D01*
X27475Y75955D01*
X28174Y76463D01*
X28911Y76915D01*
X29681Y77307D01*
X30480Y77638D01*
X31302Y77905D01*
X32142Y78107D01*
X32996Y78242D01*
X33858Y78310D01*
X34722Y78310D01*
X35584Y78242D01*
X36438Y78107D01*
X37278Y77905D01*
X38100Y77638D01*
X38899Y77307D01*
X39669Y76915D01*
X40406Y76463D01*
X41105Y75955D01*
X41763Y75394D01*
X42374Y74783D01*
X42935Y74125D01*
X43443Y73426D01*
X43895Y72689D01*
X44287Y71919D01*
X44618Y71120D01*
X44885Y70298D01*
X45087Y69458D01*
X45222Y68604D01*
X45290Y67742D01*
X45290Y66878D01*
X578690Y66878D02*
X578622Y66016D01*
X578487Y65162D01*
X578285Y64322D01*
X578018Y63500D01*
X577687Y62701D01*
X577295Y61931D01*
X576843Y61194D01*
X576335Y60495D01*
X575774Y59837D01*
X575163Y59226D01*
X574505Y58665D01*
X573806Y58157D01*
X573069Y57705D01*
X572299Y57313D01*
X571500Y56982D01*
X570678Y56715D01*
X569838Y56513D01*
X568984Y56378D01*
X568122Y56310D01*
X567258Y56310D01*
X566396Y56378D01*
X565542Y56513D01*
X564702Y56715D01*
X563880Y56982D01*
X563081Y57313D01*
X562311Y57705D01*
X561574Y58157D01*
X560875Y58665D01*
X560217Y59226D01*
X559606Y59837D01*
X559045Y60495D01*
X558537Y61194D01*
X558085Y61931D01*
X557693Y62701D01*
X557362Y63500D01*
X557095Y64322D01*
X556893Y65162D01*
X556758Y66016D01*
X556690Y66878D01*
X556690Y67742D01*
X556758Y68604D01*
X556893Y69458D01*
X557095Y70298D01*
X557362Y71120D01*
X557693Y71919D01*
X558085Y72689D01*
X558537Y73426D01*
X559045Y74125D01*
X559606Y74783D01*
X560217Y75394D01*
X560875Y75955D01*
X561574Y76463D01*
X562311Y76915D01*
X563081Y77307D01*
X563880Y77638D01*
X564702Y77905D01*
X565542Y78107D01*
X566396Y78242D01*
X567258Y78310D01*
X568122Y78310D01*
X568984Y78242D01*
X569838Y78107D01*
X570678Y77905D01*
X571500Y77638D01*
X572299Y77307D01*
X573069Y76915D01*
X573806Y76463D01*
X574505Y75955D01*
X575163Y75394D01*
X575774Y74783D01*
X576335Y74125D01*
X576843Y73426D01*
X577295Y72689D01*
X577687Y71919D01*
X578018Y71120D01*
X578285Y70298D01*
X578487Y69458D01*
X578622Y68604D01*
X578690Y67742D01*
X578690Y66878D01*
X578690Y320878D02*
X578622Y320016D01*
X578487Y319162D01*
X578285Y318322D01*
X578018Y317500D01*
X577687Y316701D01*
X577295Y315931D01*
X576843Y315194D01*
X576335Y314495D01*
X575774Y313837D01*
X575163Y313226D01*
X574505Y312665D01*
X573806Y312157D01*
X573069Y311705D01*
X572299Y311313D01*
X571500Y310982D01*
X570678Y310715D01*
X569838Y310513D01*
X568984Y310378D01*
X568122Y310310D01*
X567258Y310310D01*
X566396Y310378D01*
X565542Y310513D01*
X564702Y310715D01*
X563880Y310982D01*
X563081Y311313D01*
X562311Y311705D01*
X561574Y312157D01*
X560875Y312665D01*
X560217Y313226D01*
X559606Y313837D01*
X559045Y314495D01*
X558537Y315194D01*
X558085Y315931D01*
X557693Y316701D01*
X557362Y317500D01*
X557095Y318322D01*
X556893Y319162D01*
X556758Y320016D01*
X556690Y320878D01*
X556690Y321742D01*
X556758Y322604D01*
X556893Y323458D01*
X557095Y324298D01*
X557362Y325120D01*
X557693Y325919D01*
X558085Y326689D01*
X558537Y327426D01*
X559045Y328125D01*
X559606Y328783D01*
X560217Y329394D01*
X560875Y329955D01*
X561574Y330463D01*
X562311Y330915D01*
X563081Y331307D01*
X563880Y331638D01*
X564702Y331905D01*
X565542Y332107D01*
X566396Y332242D01*
X567258Y332310D01*
X568122Y332310D01*
X568984Y332242D01*
X569838Y332107D01*
X570678Y331905D01*
X571500Y331638D01*
X572299Y331307D01*
X573069Y330915D01*
X573806Y330463D01*
X574505Y329955D01*
X575163Y329394D01*
X575774Y328783D01*
X576335Y328125D01*
X576843Y327426D01*
X577295Y326689D01*
X577687Y325919D01*
X578018Y325120D01*
X578285Y324298D01*
X578487Y323458D01*
X578622Y322604D01*
X578690Y321742D01*
X578690Y320878D01*
X709960Y82050D02*
X709889Y81053D01*
X709746Y80063D01*
X709534Y79086D01*
X709252Y78126D01*
X708903Y77189D01*
X708487Y76279D01*
X708008Y75402D01*
X707467Y74560D01*
X706868Y73760D01*
X706213Y73004D01*
X705506Y72297D01*
X704750Y71642D01*
X703950Y71043D01*
X703108Y70502D01*
X702231Y70023D01*
X701321Y69607D01*
X700384Y69258D01*
X699425Y68976D01*
X698447Y68764D01*
X697458Y68621D01*
X696460Y68550D01*
X695460Y68550D01*
X694463Y68621D01*
X693473Y68764D01*
X692496Y68976D01*
X691536Y69258D01*
X690599Y69607D01*
X689689Y70023D01*
X688812Y70502D01*
X687970Y71043D01*
X687170Y71642D01*
X686414Y72297D01*
X685707Y73004D01*
X685052Y73760D01*
X684453Y74560D01*
X683912Y75402D01*
X683433Y76279D01*
X683017Y77189D01*
X682668Y78126D01*
X682386Y79086D01*
X682174Y80063D01*
X682031Y81053D01*
X681960Y82050D01*
X681960Y83050D01*
X682031Y84048D01*
X682174Y85037D01*
X682386Y86015D01*
X682668Y86974D01*
X683017Y87911D01*
X683433Y88821D01*
X683912Y89698D01*
X684453Y90540D01*
X685052Y91340D01*
X685707Y92096D01*
X686414Y92803D01*
X687170Y93458D01*
X687970Y94057D01*
X688812Y94598D01*
X689689Y95077D01*
X690599Y95493D01*
X691536Y95842D01*
X692496Y96124D01*
X693473Y96336D01*
X694463Y96479D01*
X695460Y96550D01*
X696460Y96550D01*
X697458Y96479D01*
X698447Y96336D01*
X699425Y96124D01*
X700384Y95842D01*
X701321Y95493D01*
X702231Y95077D01*
X703108Y94598D01*
X703950Y94057D01*
X704750Y93458D01*
X705506Y92803D01*
X706213Y92096D01*
X706868Y91340D01*
X707467Y90540D01*
X708008Y89698D01*
X708487Y88821D01*
X708903Y87911D01*
X709252Y86974D01*
X709534Y86015D01*
X709746Y85037D01*
X709889Y84048D01*
X709960Y83050D01*
X709960Y82050D01*
X709960Y303030D02*
X709889Y302033D01*
X709746Y301043D01*
X709534Y300066D01*
X709252Y299106D01*
X708903Y298169D01*
X708487Y297259D01*
X708008Y296382D01*
X707467Y295540D01*
X706868Y294740D01*
X706213Y293984D01*
X705506Y293277D01*
X704750Y292622D01*
X703950Y292023D01*
X703108Y291482D01*
X702231Y291003D01*
X701321Y290587D01*
X700384Y290238D01*
X699425Y289956D01*
X698447Y289744D01*
X697458Y289601D01*
X696460Y289530D01*
X695460Y289530D01*
X694463Y289601D01*
X693473Y289744D01*
X692496Y289956D01*
X691536Y290238D01*
X690599Y290587D01*
X689689Y291003D01*
X688812Y291482D01*
X687970Y292023D01*
X687170Y292622D01*
X686414Y293277D01*
X685707Y293984D01*
X685052Y294740D01*
X684453Y295540D01*
X683912Y296382D01*
X683433Y297259D01*
X683017Y298169D01*
X682668Y299106D01*
X682386Y300066D01*
X682174Y301043D01*
X682031Y302033D01*
X681960Y303030D01*
X681960Y304030D01*
X682031Y305028D01*
X682174Y306017D01*
X682386Y306995D01*
X682668Y307954D01*
X683017Y308891D01*
X683433Y309801D01*
X683912Y310678D01*
X684453Y311520D01*
X685052Y312320D01*
X685707Y313076D01*
X686414Y313783D01*
X687170Y314438D01*
X687970Y315037D01*
X688812Y315578D01*
X689689Y316057D01*
X690599Y316473D01*
X691536Y316822D01*
X692496Y317104D01*
X693473Y317316D01*
X694463Y317459D01*
X695460Y317530D01*
X696460Y317530D01*
X697458Y317459D01*
X698447Y317316D01*
X699425Y317104D01*
X700384Y316822D01*
X701321Y316473D01*
X702231Y316057D01*
X703108Y315578D01*
X703950Y315037D01*
X704750Y314438D01*
X705506Y313783D01*
X706213Y313076D01*
X706868Y312320D01*
X707467Y311520D01*
X708008Y310678D01*
X708487Y309801D01*
X708903Y308891D01*
X709252Y307954D01*
X709534Y306995D01*
X709746Y306017D01*
X709889Y305028D01*
X709960Y304030D01*
X709960Y303030D01*
X43210Y356370D02*
X43139Y355373D01*
X42996Y354383D01*
X42784Y353406D01*
X42502Y352446D01*
X42153Y351509D01*
X41737Y350599D01*
X41258Y349722D01*
X40717Y348880D01*
X40118Y348080D01*
X39463Y347324D01*
X38756Y346617D01*
X38000Y345962D01*
X37200Y345363D01*
X36358Y344822D01*
X35481Y344343D01*
X34571Y343927D01*
X33634Y343578D01*
X32675Y343296D01*
X31697Y343084D01*
X30708Y342941D01*
X29710Y342870D01*
X28710Y342870D01*
X27713Y342941D01*
X26723Y343084D01*
X25746Y343296D01*
X24786Y343578D01*
X23849Y343927D01*
X22939Y344343D01*
X22062Y344822D01*
X21220Y345363D01*
X20420Y345962D01*
X19664Y346617D01*
X18957Y347324D01*
X18302Y348080D01*
X17703Y348880D01*
X17162Y349722D01*
X16683Y350599D01*
X16267Y351509D01*
X15918Y352446D01*
X15636Y353406D01*
X15424Y354383D01*
X15281Y355373D01*
X15210Y356370D01*
X15210Y357370D01*
X15281Y358368D01*
X15424Y359357D01*
X15636Y360335D01*
X15918Y361294D01*
X16267Y362231D01*
X16683Y363141D01*
X17162Y364018D01*
X17703Y364860D01*
X18302Y365660D01*
X18957Y366416D01*
X19664Y367123D01*
X20420Y367778D01*
X21220Y368377D01*
X22062Y368918D01*
X22939Y369397D01*
X23849Y369813D01*
X24786Y370162D01*
X25746Y370444D01*
X26723Y370656D01*
X27713Y370799D01*
X28710Y370870D01*
X29710Y370870D01*
X30708Y370799D01*
X31697Y370656D01*
X32675Y370444D01*
X33634Y370162D01*
X34571Y369813D01*
X35481Y369397D01*
X36358Y368918D01*
X37200Y368377D01*
X38000Y367778D01*
X38756Y367123D01*
X39463Y366416D01*
X40118Y365660D01*
X40717Y364860D01*
X41258Y364018D01*
X41737Y363141D01*
X42153Y362231D01*
X42502Y361294D01*
X42784Y360335D01*
X42996Y359357D01*
X43139Y358368D01*
X43210Y357370D01*
X43210Y356370D01*
X715040Y356370D02*
X714969Y355373D01*
X714826Y354383D01*
X714614Y353406D01*
X714332Y352446D01*
X713983Y351509D01*
X713567Y350599D01*
X713088Y349722D01*
X712547Y348880D01*
X711948Y348080D01*
X711293Y347324D01*
X710586Y346617D01*
X709830Y345962D01*
X709030Y345363D01*
X708188Y344822D01*
X707311Y344343D01*
X706401Y343927D01*
X705464Y343578D01*
X704505Y343296D01*
X703527Y343084D01*
X702538Y342941D01*
X701540Y342870D01*
X700540Y342870D01*
X699543Y342941D01*
X698553Y343084D01*
X697576Y343296D01*
X696616Y343578D01*
X695679Y343927D01*
X694769Y344343D01*
X693892Y344822D01*
X693050Y345363D01*
X692250Y345962D01*
X691494Y346617D01*
X690787Y347324D01*
X690132Y348080D01*
X689533Y348880D01*
X688992Y349722D01*
X688513Y350599D01*
X688097Y351509D01*
X687748Y352446D01*
X687466Y353406D01*
X687254Y354383D01*
X687111Y355373D01*
X687040Y356370D01*
X687040Y357370D01*
X687111Y358368D01*
X687254Y359357D01*
X687466Y360335D01*
X687748Y361294D01*
X688097Y362231D01*
X688513Y363141D01*
X688992Y364018D01*
X689533Y364860D01*
X690132Y365660D01*
X690787Y366416D01*
X691494Y367123D01*
X692250Y367778D01*
X693050Y368377D01*
X693892Y368918D01*
X694769Y369397D01*
X695679Y369813D01*
X696616Y370162D01*
X697576Y370444D01*
X698553Y370656D01*
X699543Y370799D01*
X700540Y370870D01*
X701540Y370870D01*
X702538Y370799D01*
X703527Y370656D01*
X704505Y370444D01*
X705464Y370162D01*
X706401Y369813D01*
X707311Y369397D01*
X708188Y368918D01*
X709030Y368377D01*
X709830Y367778D01*
X710586Y367123D01*
X711293Y366416D01*
X711948Y365660D01*
X712547Y364860D01*
X713088Y364018D01*
X713567Y363141D01*
X713983Y362231D01*
X714332Y361294D01*
X714614Y360335D01*
X714826Y359357D01*
X714969Y358368D01*
X715040Y357370D01*
X715040Y356370D01*
X715040Y26170D02*
X714969Y25173D01*
X714826Y24183D01*
X714614Y23206D01*
X714332Y22246D01*
X713983Y21309D01*
X713567Y20399D01*
X713088Y19522D01*
X712547Y18680D01*
X711948Y17880D01*
X711293Y17124D01*
X710586Y16417D01*
X709830Y15762D01*
X709030Y15163D01*
X708188Y14622D01*
X707311Y14143D01*
X706401Y13727D01*
X705464Y13378D01*
X704505Y13096D01*
X703527Y12884D01*
X702538Y12741D01*
X701540Y12670D01*
X700540Y12670D01*
X699543Y12741D01*
X698553Y12884D01*
X697576Y13096D01*
X696616Y13378D01*
X695679Y13727D01*
X694769Y14143D01*
X693892Y14622D01*
X693050Y15163D01*
X692250Y15762D01*
X691494Y16417D01*
X690787Y17124D01*
X690132Y17880D01*
X689533Y18680D01*
X688992Y19522D01*
X688513Y20399D01*
X688097Y21309D01*
X687748Y22246D01*
X687466Y23206D01*
X687254Y24183D01*
X687111Y25173D01*
X687040Y26170D01*
X687040Y27170D01*
X687111Y28168D01*
X687254Y29157D01*
X687466Y30135D01*
X687748Y31094D01*
X688097Y32031D01*
X688513Y32941D01*
X688992Y33818D01*
X689533Y34660D01*
X690132Y35460D01*
X690787Y36216D01*
X691494Y36923D01*
X692250Y37578D01*
X693050Y38177D01*
X693892Y38718D01*
X694769Y39197D01*
X695679Y39613D01*
X696616Y39962D01*
X697576Y40244D01*
X698553Y40456D01*
X699543Y40599D01*
X700540Y40670D01*
X701540Y40670D01*
X702538Y40599D01*
X703527Y40456D01*
X704505Y40244D01*
X705464Y39962D01*
X706401Y39613D01*
X707311Y39197D01*
X708188Y38718D01*
X709030Y38177D01*
X709830Y37578D01*
X710586Y36923D01*
X711293Y36216D01*
X711948Y35460D01*
X712547Y34660D01*
X713088Y33818D01*
X713567Y32941D01*
X713983Y32031D01*
X714332Y31094D01*
X714614Y30135D01*
X714826Y29157D01*
X714969Y28168D01*
X715040Y27170D01*
X715040Y26170D01*
M02*
