G04 EAGLE Gerber RS-274X export*
G75*
%MOMM*%
%FSLAX34Y34*%
%LPD*%
%INSilkscreen Bottom*%
%IPPOS*%
%AMOC8*
5,1,8,0,0,1.08239X$1,22.5*%
G01*
%ADD10C,0.200000*%
%ADD11C,0.076200*%
%ADD12C,0.177800*%
%ADD13C,0.127000*%
%ADD14C,0.254000*%
%ADD15C,0.203200*%


D10*
X48260Y43180D02*
X40640Y43180D01*
X40640Y13970D01*
X48260Y13970D01*
X300990Y41910D02*
X309880Y41910D01*
X309880Y13970D01*
X300990Y13970D01*
D11*
X27994Y25019D02*
X25941Y22453D01*
X35179Y22453D01*
X35179Y25019D02*
X35179Y19887D01*
X28251Y38936D02*
X28156Y38938D01*
X28060Y38944D01*
X27965Y38954D01*
X27871Y38968D01*
X27777Y38985D01*
X27684Y39007D01*
X27592Y39032D01*
X27501Y39061D01*
X27411Y39094D01*
X27323Y39131D01*
X27236Y39171D01*
X27152Y39214D01*
X27069Y39262D01*
X26988Y39312D01*
X26909Y39366D01*
X26832Y39423D01*
X26758Y39483D01*
X26687Y39546D01*
X26618Y39613D01*
X26552Y39681D01*
X26488Y39753D01*
X26428Y39827D01*
X26371Y39904D01*
X26317Y39983D01*
X26267Y40064D01*
X26219Y40147D01*
X26176Y40231D01*
X26136Y40318D01*
X26099Y40406D01*
X26066Y40496D01*
X26037Y40587D01*
X26012Y40679D01*
X25990Y40772D01*
X25973Y40866D01*
X25959Y40960D01*
X25949Y41055D01*
X25943Y41150D01*
X25941Y41246D01*
X25943Y41352D01*
X25949Y41459D01*
X25958Y41565D01*
X25972Y41671D01*
X25989Y41776D01*
X26010Y41881D01*
X26034Y41984D01*
X26063Y42087D01*
X26095Y42189D01*
X26130Y42289D01*
X26170Y42388D01*
X26213Y42486D01*
X26259Y42582D01*
X26309Y42676D01*
X26362Y42769D01*
X26418Y42859D01*
X26478Y42948D01*
X26540Y43034D01*
X26606Y43118D01*
X26675Y43199D01*
X26746Y43278D01*
X26821Y43355D01*
X26898Y43428D01*
X26978Y43499D01*
X27060Y43567D01*
X27144Y43632D01*
X27231Y43694D01*
X27320Y43752D01*
X27411Y43808D01*
X27504Y43860D01*
X27599Y43909D01*
X27696Y43954D01*
X27794Y43996D01*
X27893Y44034D01*
X27994Y44069D01*
X30047Y39707D02*
X29980Y39639D01*
X29910Y39573D01*
X29837Y39511D01*
X29763Y39451D01*
X29686Y39394D01*
X29607Y39340D01*
X29526Y39290D01*
X29443Y39242D01*
X29358Y39198D01*
X29272Y39157D01*
X29184Y39119D01*
X29095Y39085D01*
X29004Y39054D01*
X28912Y39027D01*
X28820Y39003D01*
X28726Y38983D01*
X28632Y38966D01*
X28537Y38954D01*
X28442Y38944D01*
X28347Y38939D01*
X28251Y38937D01*
X30047Y39707D02*
X35179Y44069D01*
X35179Y38937D01*
X312961Y19913D02*
X315014Y22479D01*
X312961Y19913D02*
X322199Y19913D01*
X322199Y22479D02*
X322199Y17347D01*
X318093Y11426D02*
X318093Y8347D01*
X318093Y11426D02*
X318091Y11516D01*
X318085Y11605D01*
X318075Y11694D01*
X318062Y11782D01*
X318044Y11870D01*
X318023Y11957D01*
X317998Y12043D01*
X317969Y12128D01*
X317937Y12212D01*
X317901Y12294D01*
X317861Y12374D01*
X317818Y12453D01*
X317771Y12529D01*
X317722Y12604D01*
X317669Y12676D01*
X317613Y12746D01*
X317554Y12813D01*
X317492Y12878D01*
X317427Y12940D01*
X317360Y12999D01*
X317290Y13055D01*
X317218Y13108D01*
X317143Y13157D01*
X317067Y13204D01*
X316988Y13247D01*
X316908Y13287D01*
X316826Y13323D01*
X316742Y13355D01*
X316657Y13384D01*
X316571Y13409D01*
X316484Y13430D01*
X316396Y13448D01*
X316308Y13461D01*
X316219Y13471D01*
X316130Y13477D01*
X316040Y13479D01*
X315527Y13479D01*
X315428Y13477D01*
X315328Y13471D01*
X315229Y13462D01*
X315131Y13448D01*
X315033Y13431D01*
X314935Y13410D01*
X314839Y13385D01*
X314744Y13356D01*
X314649Y13324D01*
X314557Y13288D01*
X314465Y13249D01*
X314375Y13206D01*
X314287Y13160D01*
X314201Y13110D01*
X314117Y13057D01*
X314035Y13001D01*
X313955Y12941D01*
X313878Y12879D01*
X313803Y12813D01*
X313730Y12745D01*
X313661Y12674D01*
X313594Y12600D01*
X313530Y12524D01*
X313469Y12445D01*
X313411Y12364D01*
X313356Y12281D01*
X313305Y12196D01*
X313257Y12109D01*
X313212Y12020D01*
X313171Y11929D01*
X313133Y11837D01*
X313099Y11744D01*
X313069Y11649D01*
X313042Y11553D01*
X313019Y11456D01*
X313000Y11359D01*
X312985Y11260D01*
X312973Y11161D01*
X312965Y11062D01*
X312961Y10963D01*
X312961Y10863D01*
X312965Y10764D01*
X312973Y10665D01*
X312985Y10566D01*
X313000Y10467D01*
X313019Y10370D01*
X313042Y10273D01*
X313069Y10177D01*
X313099Y10082D01*
X313133Y9989D01*
X313171Y9897D01*
X313212Y9806D01*
X313257Y9717D01*
X313305Y9630D01*
X313356Y9545D01*
X313411Y9462D01*
X313469Y9381D01*
X313530Y9302D01*
X313594Y9226D01*
X313661Y9152D01*
X313730Y9081D01*
X313803Y9013D01*
X313878Y8947D01*
X313955Y8885D01*
X314035Y8825D01*
X314117Y8769D01*
X314201Y8716D01*
X314287Y8666D01*
X314375Y8620D01*
X314465Y8577D01*
X314557Y8538D01*
X314649Y8502D01*
X314744Y8470D01*
X314839Y8441D01*
X314935Y8416D01*
X315033Y8395D01*
X315131Y8378D01*
X315229Y8364D01*
X315328Y8355D01*
X315428Y8349D01*
X315527Y8347D01*
X318093Y8347D01*
X318219Y8349D01*
X318346Y8355D01*
X318472Y8365D01*
X318598Y8378D01*
X318723Y8396D01*
X318847Y8417D01*
X318971Y8442D01*
X319095Y8471D01*
X319217Y8504D01*
X319338Y8540D01*
X319458Y8580D01*
X319576Y8624D01*
X319693Y8672D01*
X319809Y8723D01*
X319923Y8777D01*
X320036Y8836D01*
X320146Y8897D01*
X320255Y8962D01*
X320361Y9030D01*
X320465Y9102D01*
X320567Y9176D01*
X320667Y9254D01*
X320764Y9335D01*
X320859Y9419D01*
X320951Y9505D01*
X321041Y9595D01*
X321127Y9687D01*
X321211Y9782D01*
X321292Y9879D01*
X321370Y9979D01*
X321444Y10081D01*
X321516Y10185D01*
X321584Y10291D01*
X321649Y10400D01*
X321710Y10510D01*
X321769Y10623D01*
X321823Y10737D01*
X321874Y10853D01*
X321922Y10970D01*
X321966Y11088D01*
X322006Y11208D01*
X322042Y11329D01*
X322075Y11452D01*
X322104Y11575D01*
X322129Y11699D01*
X322150Y11823D01*
X322168Y11948D01*
X322181Y12074D01*
X322191Y12200D01*
X322197Y12327D01*
X322199Y12453D01*
X316541Y40206D02*
X316446Y40208D01*
X316350Y40214D01*
X316255Y40224D01*
X316161Y40238D01*
X316067Y40255D01*
X315974Y40277D01*
X315882Y40302D01*
X315791Y40331D01*
X315701Y40364D01*
X315613Y40401D01*
X315526Y40441D01*
X315442Y40484D01*
X315359Y40532D01*
X315278Y40582D01*
X315199Y40636D01*
X315122Y40693D01*
X315048Y40753D01*
X314977Y40816D01*
X314908Y40883D01*
X314842Y40951D01*
X314778Y41023D01*
X314718Y41097D01*
X314661Y41174D01*
X314607Y41253D01*
X314557Y41334D01*
X314509Y41417D01*
X314466Y41501D01*
X314426Y41588D01*
X314389Y41676D01*
X314356Y41766D01*
X314327Y41857D01*
X314302Y41949D01*
X314280Y42042D01*
X314263Y42136D01*
X314249Y42230D01*
X314239Y42325D01*
X314233Y42420D01*
X314231Y42516D01*
X314233Y42622D01*
X314239Y42729D01*
X314248Y42835D01*
X314262Y42941D01*
X314279Y43046D01*
X314300Y43151D01*
X314324Y43254D01*
X314353Y43357D01*
X314385Y43459D01*
X314420Y43559D01*
X314460Y43658D01*
X314503Y43756D01*
X314549Y43852D01*
X314599Y43946D01*
X314652Y44039D01*
X314708Y44129D01*
X314768Y44218D01*
X314830Y44304D01*
X314896Y44388D01*
X314965Y44469D01*
X315036Y44548D01*
X315111Y44625D01*
X315188Y44698D01*
X315268Y44769D01*
X315350Y44837D01*
X315434Y44902D01*
X315521Y44964D01*
X315610Y45022D01*
X315701Y45078D01*
X315794Y45130D01*
X315889Y45179D01*
X315986Y45224D01*
X316084Y45266D01*
X316183Y45304D01*
X316284Y45339D01*
X318337Y40977D02*
X318270Y40909D01*
X318200Y40843D01*
X318127Y40781D01*
X318053Y40721D01*
X317976Y40664D01*
X317897Y40610D01*
X317816Y40560D01*
X317733Y40512D01*
X317648Y40468D01*
X317562Y40427D01*
X317474Y40389D01*
X317385Y40355D01*
X317294Y40324D01*
X317202Y40297D01*
X317110Y40273D01*
X317016Y40253D01*
X316922Y40236D01*
X316827Y40224D01*
X316732Y40214D01*
X316637Y40209D01*
X316541Y40207D01*
X318337Y40977D02*
X323469Y45339D01*
X323469Y40207D01*
X318850Y36339D02*
X318668Y36337D01*
X318487Y36330D01*
X318305Y36319D01*
X318124Y36304D01*
X317943Y36285D01*
X317763Y36261D01*
X317584Y36233D01*
X317405Y36201D01*
X317227Y36164D01*
X317050Y36123D01*
X316874Y36078D01*
X316699Y36029D01*
X316525Y35975D01*
X316353Y35918D01*
X316182Y35856D01*
X316012Y35790D01*
X315844Y35721D01*
X315678Y35647D01*
X315514Y35569D01*
X315435Y35540D01*
X315358Y35508D01*
X315282Y35472D01*
X315207Y35433D01*
X315134Y35390D01*
X315064Y35344D01*
X314995Y35296D01*
X314929Y35244D01*
X314865Y35189D01*
X314804Y35132D01*
X314745Y35072D01*
X314688Y35009D01*
X314635Y34944D01*
X314585Y34877D01*
X314537Y34807D01*
X314493Y34736D01*
X314452Y34662D01*
X314414Y34587D01*
X314380Y34510D01*
X314349Y34432D01*
X314322Y34353D01*
X314298Y34272D01*
X314277Y34190D01*
X314261Y34108D01*
X314248Y34025D01*
X314238Y33941D01*
X314233Y33857D01*
X314231Y33773D01*
X314233Y33689D01*
X314238Y33605D01*
X314248Y33521D01*
X314261Y33438D01*
X314277Y33356D01*
X314298Y33274D01*
X314322Y33193D01*
X314349Y33114D01*
X314380Y33036D01*
X314414Y32959D01*
X314452Y32884D01*
X314493Y32810D01*
X314537Y32739D01*
X314585Y32669D01*
X314635Y32602D01*
X314688Y32537D01*
X314745Y32474D01*
X314803Y32414D01*
X314865Y32357D01*
X314929Y32302D01*
X314995Y32250D01*
X315064Y32202D01*
X315134Y32156D01*
X315207Y32113D01*
X315281Y32074D01*
X315358Y32038D01*
X315435Y32006D01*
X315514Y31977D01*
X315514Y31976D02*
X315678Y31898D01*
X315844Y31824D01*
X316012Y31755D01*
X316182Y31689D01*
X316353Y31627D01*
X316525Y31570D01*
X316699Y31516D01*
X316874Y31467D01*
X317050Y31422D01*
X317227Y31381D01*
X317405Y31344D01*
X317584Y31312D01*
X317763Y31284D01*
X317943Y31260D01*
X318124Y31241D01*
X318305Y31226D01*
X318487Y31215D01*
X318668Y31208D01*
X318850Y31206D01*
X318850Y36339D02*
X319032Y36337D01*
X319213Y36330D01*
X319395Y36319D01*
X319576Y36304D01*
X319757Y36285D01*
X319937Y36261D01*
X320116Y36233D01*
X320295Y36201D01*
X320473Y36164D01*
X320650Y36123D01*
X320826Y36078D01*
X321001Y36029D01*
X321175Y35975D01*
X321347Y35918D01*
X321518Y35856D01*
X321688Y35790D01*
X321856Y35721D01*
X322022Y35647D01*
X322186Y35569D01*
X322265Y35540D01*
X322342Y35508D01*
X322419Y35472D01*
X322493Y35433D01*
X322566Y35390D01*
X322636Y35344D01*
X322705Y35296D01*
X322771Y35244D01*
X322835Y35189D01*
X322897Y35132D01*
X322955Y35072D01*
X323012Y35009D01*
X323065Y34944D01*
X323115Y34877D01*
X323163Y34807D01*
X323207Y34736D01*
X323248Y34662D01*
X323286Y34587D01*
X323320Y34510D01*
X323351Y34432D01*
X323378Y34353D01*
X323402Y34272D01*
X323423Y34190D01*
X323439Y34108D01*
X323452Y34025D01*
X323462Y33941D01*
X323467Y33857D01*
X323469Y33773D01*
X322186Y31977D02*
X322022Y31899D01*
X321856Y31825D01*
X321688Y31756D01*
X321518Y31690D01*
X321347Y31628D01*
X321175Y31571D01*
X321001Y31517D01*
X320826Y31468D01*
X320650Y31423D01*
X320473Y31382D01*
X320295Y31345D01*
X320116Y31313D01*
X319937Y31285D01*
X319757Y31261D01*
X319576Y31242D01*
X319395Y31227D01*
X319213Y31216D01*
X319032Y31209D01*
X318850Y31207D01*
X322186Y31977D02*
X322265Y32006D01*
X322342Y32038D01*
X322419Y32074D01*
X322493Y32113D01*
X322566Y32156D01*
X322636Y32202D01*
X322705Y32250D01*
X322771Y32302D01*
X322835Y32357D01*
X322897Y32414D01*
X322955Y32474D01*
X323012Y32537D01*
X323065Y32602D01*
X323115Y32669D01*
X323163Y32739D01*
X323207Y32810D01*
X323248Y32884D01*
X323286Y32959D01*
X323320Y33036D01*
X323351Y33114D01*
X323378Y33193D01*
X323402Y33274D01*
X323423Y33356D01*
X323439Y33438D01*
X323452Y33521D01*
X323462Y33605D01*
X323467Y33689D01*
X323469Y33773D01*
X321416Y35826D02*
X316284Y31720D01*
X231977Y108787D02*
X231977Y110326D01*
X231977Y108787D02*
X237109Y108787D01*
X237109Y111866D01*
X237107Y111956D01*
X237101Y112045D01*
X237091Y112134D01*
X237078Y112222D01*
X237060Y112310D01*
X237039Y112397D01*
X237014Y112483D01*
X236985Y112568D01*
X236953Y112652D01*
X236917Y112734D01*
X236877Y112814D01*
X236834Y112893D01*
X236787Y112969D01*
X236738Y113044D01*
X236685Y113116D01*
X236629Y113186D01*
X236570Y113253D01*
X236508Y113318D01*
X236443Y113380D01*
X236376Y113439D01*
X236306Y113495D01*
X236234Y113548D01*
X236159Y113597D01*
X236083Y113644D01*
X236004Y113687D01*
X235924Y113727D01*
X235842Y113763D01*
X235758Y113795D01*
X235673Y113824D01*
X235587Y113849D01*
X235500Y113870D01*
X235412Y113888D01*
X235324Y113901D01*
X235235Y113911D01*
X235146Y113917D01*
X235056Y113919D01*
X229924Y113919D01*
X229834Y113917D01*
X229745Y113911D01*
X229656Y113901D01*
X229568Y113888D01*
X229480Y113870D01*
X229393Y113849D01*
X229307Y113824D01*
X229222Y113795D01*
X229138Y113763D01*
X229056Y113727D01*
X228976Y113687D01*
X228898Y113644D01*
X228821Y113597D01*
X228746Y113548D01*
X228674Y113495D01*
X228604Y113439D01*
X228537Y113380D01*
X228472Y113318D01*
X228410Y113253D01*
X228351Y113186D01*
X228295Y113116D01*
X228242Y113044D01*
X228193Y112969D01*
X228146Y112893D01*
X228103Y112814D01*
X228063Y112734D01*
X228027Y112652D01*
X227995Y112568D01*
X227966Y112483D01*
X227941Y112397D01*
X227920Y112310D01*
X227902Y112223D01*
X227889Y112134D01*
X227879Y112045D01*
X227873Y111956D01*
X227871Y111866D01*
X227871Y108787D01*
X237109Y104619D02*
X237109Y102053D01*
X237107Y101954D01*
X237101Y101854D01*
X237092Y101755D01*
X237078Y101657D01*
X237061Y101559D01*
X237040Y101461D01*
X237015Y101365D01*
X236986Y101270D01*
X236954Y101175D01*
X236918Y101083D01*
X236879Y100991D01*
X236836Y100901D01*
X236790Y100813D01*
X236740Y100727D01*
X236687Y100643D01*
X236631Y100561D01*
X236571Y100481D01*
X236509Y100404D01*
X236443Y100329D01*
X236375Y100256D01*
X236304Y100187D01*
X236230Y100120D01*
X236154Y100056D01*
X236075Y99995D01*
X235994Y99937D01*
X235911Y99882D01*
X235826Y99831D01*
X235739Y99783D01*
X235650Y99738D01*
X235559Y99697D01*
X235467Y99659D01*
X235374Y99625D01*
X235279Y99595D01*
X235183Y99568D01*
X235086Y99545D01*
X234989Y99526D01*
X234890Y99511D01*
X234791Y99499D01*
X234692Y99491D01*
X234593Y99487D01*
X234493Y99487D01*
X234394Y99491D01*
X234295Y99499D01*
X234196Y99511D01*
X234097Y99526D01*
X234000Y99545D01*
X233903Y99568D01*
X233807Y99595D01*
X233712Y99625D01*
X233619Y99659D01*
X233527Y99697D01*
X233436Y99738D01*
X233347Y99783D01*
X233260Y99831D01*
X233175Y99882D01*
X233092Y99937D01*
X233011Y99995D01*
X232932Y100056D01*
X232856Y100120D01*
X232782Y100187D01*
X232711Y100256D01*
X232643Y100329D01*
X232577Y100404D01*
X232515Y100481D01*
X232455Y100561D01*
X232399Y100643D01*
X232346Y100727D01*
X232296Y100813D01*
X232250Y100901D01*
X232207Y100991D01*
X232168Y101083D01*
X232132Y101175D01*
X232100Y101270D01*
X232071Y101365D01*
X232046Y101461D01*
X232025Y101559D01*
X232008Y101657D01*
X231994Y101755D01*
X231985Y101854D01*
X231979Y101954D01*
X231977Y102053D01*
X227871Y101540D02*
X227871Y104619D01*
X227871Y101540D02*
X227873Y101450D01*
X227879Y101361D01*
X227889Y101272D01*
X227902Y101184D01*
X227920Y101096D01*
X227941Y101009D01*
X227966Y100923D01*
X227995Y100838D01*
X228027Y100754D01*
X228063Y100672D01*
X228103Y100592D01*
X228146Y100514D01*
X228193Y100437D01*
X228242Y100362D01*
X228295Y100290D01*
X228351Y100220D01*
X228410Y100153D01*
X228472Y100088D01*
X228537Y100026D01*
X228604Y99967D01*
X228674Y99911D01*
X228746Y99858D01*
X228821Y99809D01*
X228898Y99762D01*
X228976Y99719D01*
X229056Y99679D01*
X229138Y99643D01*
X229222Y99611D01*
X229307Y99582D01*
X229393Y99557D01*
X229480Y99536D01*
X229568Y99518D01*
X229656Y99505D01*
X229745Y99495D01*
X229834Y99489D01*
X229924Y99487D01*
X230014Y99489D01*
X230103Y99495D01*
X230192Y99505D01*
X230280Y99518D01*
X230368Y99536D01*
X230455Y99557D01*
X230541Y99582D01*
X230626Y99611D01*
X230710Y99643D01*
X230792Y99679D01*
X230872Y99719D01*
X230951Y99762D01*
X231027Y99809D01*
X231102Y99858D01*
X231174Y99911D01*
X231244Y99967D01*
X231311Y100026D01*
X231376Y100088D01*
X231438Y100153D01*
X231497Y100220D01*
X231553Y100290D01*
X231606Y100362D01*
X231655Y100437D01*
X231702Y100514D01*
X231745Y100592D01*
X231785Y100672D01*
X231821Y100754D01*
X231853Y100838D01*
X231882Y100923D01*
X231907Y101009D01*
X231928Y101096D01*
X231946Y101184D01*
X231959Y101272D01*
X231969Y101361D01*
X231975Y101450D01*
X231977Y101540D01*
X231977Y103593D01*
X231977Y95619D02*
X231977Y92540D01*
X231979Y92450D01*
X231985Y92361D01*
X231995Y92272D01*
X232008Y92184D01*
X232026Y92096D01*
X232047Y92009D01*
X232072Y91923D01*
X232101Y91838D01*
X232133Y91754D01*
X232169Y91672D01*
X232209Y91592D01*
X232252Y91514D01*
X232299Y91437D01*
X232348Y91362D01*
X232401Y91290D01*
X232457Y91220D01*
X232516Y91153D01*
X232578Y91088D01*
X232643Y91026D01*
X232710Y90967D01*
X232780Y90911D01*
X232852Y90858D01*
X232927Y90809D01*
X233004Y90762D01*
X233082Y90719D01*
X233162Y90679D01*
X233244Y90643D01*
X233328Y90611D01*
X233413Y90582D01*
X233499Y90557D01*
X233586Y90536D01*
X233674Y90518D01*
X233762Y90505D01*
X233851Y90495D01*
X233940Y90489D01*
X234030Y90487D01*
X234543Y90487D01*
X234642Y90489D01*
X234742Y90495D01*
X234841Y90504D01*
X234939Y90518D01*
X235037Y90535D01*
X235135Y90556D01*
X235231Y90581D01*
X235326Y90610D01*
X235421Y90642D01*
X235513Y90678D01*
X235605Y90717D01*
X235695Y90760D01*
X235783Y90806D01*
X235869Y90856D01*
X235953Y90909D01*
X236035Y90965D01*
X236115Y91025D01*
X236192Y91087D01*
X236267Y91153D01*
X236340Y91221D01*
X236409Y91292D01*
X236476Y91366D01*
X236540Y91442D01*
X236601Y91521D01*
X236659Y91602D01*
X236714Y91685D01*
X236765Y91770D01*
X236813Y91857D01*
X236858Y91946D01*
X236899Y92037D01*
X236937Y92129D01*
X236971Y92222D01*
X237001Y92317D01*
X237028Y92413D01*
X237051Y92510D01*
X237070Y92607D01*
X237085Y92706D01*
X237097Y92805D01*
X237105Y92904D01*
X237109Y93003D01*
X237109Y93103D01*
X237105Y93202D01*
X237097Y93301D01*
X237085Y93400D01*
X237070Y93499D01*
X237051Y93596D01*
X237028Y93693D01*
X237001Y93789D01*
X236971Y93884D01*
X236937Y93977D01*
X236899Y94069D01*
X236858Y94160D01*
X236813Y94249D01*
X236765Y94336D01*
X236714Y94421D01*
X236659Y94504D01*
X236601Y94585D01*
X236540Y94664D01*
X236476Y94740D01*
X236409Y94814D01*
X236340Y94885D01*
X236267Y94953D01*
X236192Y95019D01*
X236115Y95081D01*
X236035Y95141D01*
X235953Y95197D01*
X235869Y95250D01*
X235783Y95300D01*
X235695Y95346D01*
X235605Y95389D01*
X235513Y95428D01*
X235421Y95464D01*
X235326Y95496D01*
X235231Y95525D01*
X235135Y95550D01*
X235037Y95571D01*
X234939Y95588D01*
X234841Y95602D01*
X234742Y95611D01*
X234642Y95617D01*
X234543Y95619D01*
X231977Y95619D01*
X231851Y95617D01*
X231724Y95611D01*
X231598Y95601D01*
X231472Y95588D01*
X231347Y95570D01*
X231223Y95549D01*
X231099Y95524D01*
X230975Y95495D01*
X230853Y95462D01*
X230732Y95426D01*
X230612Y95386D01*
X230494Y95342D01*
X230377Y95294D01*
X230261Y95243D01*
X230147Y95189D01*
X230034Y95130D01*
X229924Y95069D01*
X229815Y95004D01*
X229709Y94936D01*
X229605Y94864D01*
X229503Y94790D01*
X229403Y94712D01*
X229306Y94631D01*
X229211Y94547D01*
X229119Y94461D01*
X229029Y94371D01*
X228943Y94279D01*
X228859Y94184D01*
X228778Y94087D01*
X228700Y93987D01*
X228626Y93885D01*
X228554Y93781D01*
X228486Y93675D01*
X228421Y93566D01*
X228360Y93456D01*
X228301Y93343D01*
X228247Y93229D01*
X228196Y93114D01*
X228148Y92996D01*
X228104Y92878D01*
X228064Y92758D01*
X228028Y92637D01*
X227995Y92515D01*
X227966Y92391D01*
X227941Y92268D01*
X227920Y92143D01*
X227902Y92018D01*
X227889Y91892D01*
X227879Y91766D01*
X227873Y91640D01*
X227871Y91513D01*
X233247Y139267D02*
X233247Y140806D01*
X233247Y139267D02*
X238379Y139267D01*
X238379Y142346D01*
X238377Y142436D01*
X238371Y142525D01*
X238361Y142614D01*
X238348Y142702D01*
X238330Y142790D01*
X238309Y142877D01*
X238284Y142963D01*
X238255Y143048D01*
X238223Y143132D01*
X238187Y143214D01*
X238147Y143294D01*
X238104Y143373D01*
X238057Y143449D01*
X238008Y143524D01*
X237955Y143596D01*
X237899Y143666D01*
X237840Y143733D01*
X237778Y143798D01*
X237713Y143860D01*
X237646Y143919D01*
X237576Y143975D01*
X237504Y144028D01*
X237429Y144077D01*
X237353Y144124D01*
X237274Y144167D01*
X237194Y144207D01*
X237112Y144243D01*
X237028Y144275D01*
X236943Y144304D01*
X236857Y144329D01*
X236770Y144350D01*
X236682Y144368D01*
X236594Y144381D01*
X236505Y144391D01*
X236416Y144397D01*
X236326Y144399D01*
X231194Y144399D01*
X231104Y144397D01*
X231015Y144391D01*
X230926Y144381D01*
X230838Y144368D01*
X230750Y144350D01*
X230663Y144329D01*
X230577Y144304D01*
X230492Y144275D01*
X230408Y144243D01*
X230326Y144207D01*
X230246Y144167D01*
X230168Y144124D01*
X230091Y144077D01*
X230016Y144028D01*
X229944Y143975D01*
X229874Y143919D01*
X229807Y143860D01*
X229742Y143798D01*
X229680Y143733D01*
X229621Y143666D01*
X229565Y143596D01*
X229512Y143524D01*
X229463Y143449D01*
X229416Y143373D01*
X229373Y143294D01*
X229333Y143214D01*
X229297Y143132D01*
X229265Y143048D01*
X229236Y142963D01*
X229211Y142877D01*
X229190Y142790D01*
X229172Y142703D01*
X229159Y142614D01*
X229149Y142525D01*
X229143Y142436D01*
X229141Y142346D01*
X229141Y139267D01*
X231194Y135099D02*
X229141Y132533D01*
X238379Y132533D01*
X238379Y135099D02*
X238379Y129967D01*
X214197Y110326D02*
X214197Y108787D01*
X219329Y108787D01*
X219329Y111866D01*
X219327Y111956D01*
X219321Y112045D01*
X219311Y112134D01*
X219298Y112222D01*
X219280Y112310D01*
X219259Y112397D01*
X219234Y112483D01*
X219205Y112568D01*
X219173Y112652D01*
X219137Y112734D01*
X219097Y112814D01*
X219054Y112893D01*
X219007Y112969D01*
X218958Y113044D01*
X218905Y113116D01*
X218849Y113186D01*
X218790Y113253D01*
X218728Y113318D01*
X218663Y113380D01*
X218596Y113439D01*
X218526Y113495D01*
X218454Y113548D01*
X218379Y113597D01*
X218303Y113644D01*
X218224Y113687D01*
X218144Y113727D01*
X218062Y113763D01*
X217978Y113795D01*
X217893Y113824D01*
X217807Y113849D01*
X217720Y113870D01*
X217632Y113888D01*
X217544Y113901D01*
X217455Y113911D01*
X217366Y113917D01*
X217276Y113919D01*
X212144Y113919D01*
X212054Y113917D01*
X211965Y113911D01*
X211876Y113901D01*
X211788Y113888D01*
X211700Y113870D01*
X211613Y113849D01*
X211527Y113824D01*
X211442Y113795D01*
X211358Y113763D01*
X211276Y113727D01*
X211196Y113687D01*
X211118Y113644D01*
X211041Y113597D01*
X210966Y113548D01*
X210894Y113495D01*
X210824Y113439D01*
X210757Y113380D01*
X210692Y113318D01*
X210630Y113253D01*
X210571Y113186D01*
X210515Y113116D01*
X210462Y113044D01*
X210413Y112969D01*
X210366Y112893D01*
X210323Y112814D01*
X210283Y112734D01*
X210247Y112652D01*
X210215Y112568D01*
X210186Y112483D01*
X210161Y112397D01*
X210140Y112310D01*
X210122Y112223D01*
X210109Y112134D01*
X210099Y112045D01*
X210093Y111956D01*
X210091Y111866D01*
X210091Y108787D01*
X219329Y104619D02*
X219329Y102053D01*
X219327Y101954D01*
X219321Y101854D01*
X219312Y101755D01*
X219298Y101657D01*
X219281Y101559D01*
X219260Y101461D01*
X219235Y101365D01*
X219206Y101270D01*
X219174Y101175D01*
X219138Y101083D01*
X219099Y100991D01*
X219056Y100901D01*
X219010Y100813D01*
X218960Y100727D01*
X218907Y100643D01*
X218851Y100561D01*
X218791Y100481D01*
X218729Y100404D01*
X218663Y100329D01*
X218595Y100256D01*
X218524Y100187D01*
X218450Y100120D01*
X218374Y100056D01*
X218295Y99995D01*
X218214Y99937D01*
X218131Y99882D01*
X218046Y99831D01*
X217959Y99783D01*
X217870Y99738D01*
X217779Y99697D01*
X217687Y99659D01*
X217594Y99625D01*
X217499Y99595D01*
X217403Y99568D01*
X217306Y99545D01*
X217209Y99526D01*
X217110Y99511D01*
X217011Y99499D01*
X216912Y99491D01*
X216813Y99487D01*
X216713Y99487D01*
X216614Y99491D01*
X216515Y99499D01*
X216416Y99511D01*
X216317Y99526D01*
X216220Y99545D01*
X216123Y99568D01*
X216027Y99595D01*
X215932Y99625D01*
X215839Y99659D01*
X215747Y99697D01*
X215656Y99738D01*
X215567Y99783D01*
X215480Y99831D01*
X215395Y99882D01*
X215312Y99937D01*
X215231Y99995D01*
X215152Y100056D01*
X215076Y100120D01*
X215002Y100187D01*
X214931Y100256D01*
X214863Y100329D01*
X214797Y100404D01*
X214735Y100481D01*
X214675Y100561D01*
X214619Y100643D01*
X214566Y100727D01*
X214516Y100813D01*
X214470Y100901D01*
X214427Y100991D01*
X214388Y101083D01*
X214352Y101175D01*
X214320Y101270D01*
X214291Y101365D01*
X214266Y101461D01*
X214245Y101559D01*
X214228Y101657D01*
X214214Y101755D01*
X214205Y101854D01*
X214199Y101954D01*
X214197Y102053D01*
X210091Y101540D02*
X210091Y104619D01*
X210091Y101540D02*
X210093Y101450D01*
X210099Y101361D01*
X210109Y101272D01*
X210122Y101184D01*
X210140Y101096D01*
X210161Y101009D01*
X210186Y100923D01*
X210215Y100838D01*
X210247Y100754D01*
X210283Y100672D01*
X210323Y100592D01*
X210366Y100514D01*
X210413Y100437D01*
X210462Y100362D01*
X210515Y100290D01*
X210571Y100220D01*
X210630Y100153D01*
X210692Y100088D01*
X210757Y100026D01*
X210824Y99967D01*
X210894Y99911D01*
X210966Y99858D01*
X211041Y99809D01*
X211118Y99762D01*
X211196Y99719D01*
X211276Y99679D01*
X211358Y99643D01*
X211442Y99611D01*
X211527Y99582D01*
X211613Y99557D01*
X211700Y99536D01*
X211788Y99518D01*
X211876Y99505D01*
X211965Y99495D01*
X212054Y99489D01*
X212144Y99487D01*
X212234Y99489D01*
X212323Y99495D01*
X212412Y99505D01*
X212500Y99518D01*
X212588Y99536D01*
X212675Y99557D01*
X212761Y99582D01*
X212846Y99611D01*
X212930Y99643D01*
X213012Y99679D01*
X213092Y99719D01*
X213171Y99762D01*
X213247Y99809D01*
X213322Y99858D01*
X213394Y99911D01*
X213464Y99967D01*
X213531Y100026D01*
X213596Y100088D01*
X213658Y100153D01*
X213717Y100220D01*
X213773Y100290D01*
X213826Y100362D01*
X213875Y100437D01*
X213922Y100514D01*
X213965Y100592D01*
X214005Y100672D01*
X214041Y100754D01*
X214073Y100838D01*
X214102Y100923D01*
X214127Y101009D01*
X214148Y101096D01*
X214166Y101184D01*
X214179Y101272D01*
X214189Y101361D01*
X214195Y101450D01*
X214197Y101540D01*
X214197Y103593D01*
X217276Y95619D02*
X210091Y93566D01*
X217276Y95619D02*
X217276Y90487D01*
X215223Y92027D02*
X219329Y92027D01*
X196417Y108787D02*
X196417Y110326D01*
X196417Y108787D02*
X201549Y108787D01*
X201549Y111866D01*
X201547Y111956D01*
X201541Y112045D01*
X201531Y112134D01*
X201518Y112222D01*
X201500Y112310D01*
X201479Y112397D01*
X201454Y112483D01*
X201425Y112568D01*
X201393Y112652D01*
X201357Y112734D01*
X201317Y112814D01*
X201274Y112893D01*
X201227Y112969D01*
X201178Y113044D01*
X201125Y113116D01*
X201069Y113186D01*
X201010Y113253D01*
X200948Y113318D01*
X200883Y113380D01*
X200816Y113439D01*
X200746Y113495D01*
X200674Y113548D01*
X200599Y113597D01*
X200523Y113644D01*
X200444Y113687D01*
X200364Y113727D01*
X200282Y113763D01*
X200198Y113795D01*
X200113Y113824D01*
X200027Y113849D01*
X199940Y113870D01*
X199852Y113888D01*
X199764Y113901D01*
X199675Y113911D01*
X199586Y113917D01*
X199496Y113919D01*
X194364Y113919D01*
X194274Y113917D01*
X194185Y113911D01*
X194096Y113901D01*
X194008Y113888D01*
X193920Y113870D01*
X193833Y113849D01*
X193747Y113824D01*
X193662Y113795D01*
X193578Y113763D01*
X193496Y113727D01*
X193416Y113687D01*
X193338Y113644D01*
X193261Y113597D01*
X193186Y113548D01*
X193114Y113495D01*
X193044Y113439D01*
X192977Y113380D01*
X192912Y113318D01*
X192850Y113253D01*
X192791Y113186D01*
X192735Y113116D01*
X192682Y113044D01*
X192633Y112969D01*
X192586Y112893D01*
X192543Y112814D01*
X192503Y112734D01*
X192467Y112652D01*
X192435Y112568D01*
X192406Y112483D01*
X192381Y112397D01*
X192360Y112310D01*
X192342Y112223D01*
X192329Y112134D01*
X192319Y112045D01*
X192313Y111956D01*
X192311Y111866D01*
X192311Y108787D01*
X201549Y104619D02*
X201549Y102053D01*
X201547Y101954D01*
X201541Y101854D01*
X201532Y101755D01*
X201518Y101657D01*
X201501Y101559D01*
X201480Y101461D01*
X201455Y101365D01*
X201426Y101270D01*
X201394Y101175D01*
X201358Y101083D01*
X201319Y100991D01*
X201276Y100901D01*
X201230Y100813D01*
X201180Y100727D01*
X201127Y100643D01*
X201071Y100561D01*
X201011Y100481D01*
X200949Y100404D01*
X200883Y100329D01*
X200815Y100256D01*
X200744Y100187D01*
X200670Y100120D01*
X200594Y100056D01*
X200515Y99995D01*
X200434Y99937D01*
X200351Y99882D01*
X200266Y99831D01*
X200179Y99783D01*
X200090Y99738D01*
X199999Y99697D01*
X199907Y99659D01*
X199814Y99625D01*
X199719Y99595D01*
X199623Y99568D01*
X199526Y99545D01*
X199429Y99526D01*
X199330Y99511D01*
X199231Y99499D01*
X199132Y99491D01*
X199033Y99487D01*
X198933Y99487D01*
X198834Y99491D01*
X198735Y99499D01*
X198636Y99511D01*
X198537Y99526D01*
X198440Y99545D01*
X198343Y99568D01*
X198247Y99595D01*
X198152Y99625D01*
X198059Y99659D01*
X197967Y99697D01*
X197876Y99738D01*
X197787Y99783D01*
X197700Y99831D01*
X197615Y99882D01*
X197532Y99937D01*
X197451Y99995D01*
X197372Y100056D01*
X197296Y100120D01*
X197222Y100187D01*
X197151Y100256D01*
X197083Y100329D01*
X197017Y100404D01*
X196955Y100481D01*
X196895Y100561D01*
X196839Y100643D01*
X196786Y100727D01*
X196736Y100813D01*
X196690Y100901D01*
X196647Y100991D01*
X196608Y101083D01*
X196572Y101175D01*
X196540Y101270D01*
X196511Y101365D01*
X196486Y101461D01*
X196465Y101559D01*
X196448Y101657D01*
X196434Y101755D01*
X196425Y101854D01*
X196419Y101954D01*
X196417Y102053D01*
X192311Y101540D02*
X192311Y104619D01*
X192311Y101540D02*
X192313Y101450D01*
X192319Y101361D01*
X192329Y101272D01*
X192342Y101184D01*
X192360Y101096D01*
X192381Y101009D01*
X192406Y100923D01*
X192435Y100838D01*
X192467Y100754D01*
X192503Y100672D01*
X192543Y100592D01*
X192586Y100514D01*
X192633Y100437D01*
X192682Y100362D01*
X192735Y100290D01*
X192791Y100220D01*
X192850Y100153D01*
X192912Y100088D01*
X192977Y100026D01*
X193044Y99967D01*
X193114Y99911D01*
X193186Y99858D01*
X193261Y99809D01*
X193338Y99762D01*
X193416Y99719D01*
X193496Y99679D01*
X193578Y99643D01*
X193662Y99611D01*
X193747Y99582D01*
X193833Y99557D01*
X193920Y99536D01*
X194008Y99518D01*
X194096Y99505D01*
X194185Y99495D01*
X194274Y99489D01*
X194364Y99487D01*
X194454Y99489D01*
X194543Y99495D01*
X194632Y99505D01*
X194720Y99518D01*
X194808Y99536D01*
X194895Y99557D01*
X194981Y99582D01*
X195066Y99611D01*
X195150Y99643D01*
X195232Y99679D01*
X195312Y99719D01*
X195391Y99762D01*
X195467Y99809D01*
X195542Y99858D01*
X195614Y99911D01*
X195684Y99967D01*
X195751Y100026D01*
X195816Y100088D01*
X195878Y100153D01*
X195937Y100220D01*
X195993Y100290D01*
X196046Y100362D01*
X196095Y100437D01*
X196142Y100514D01*
X196185Y100592D01*
X196225Y100672D01*
X196261Y100754D01*
X196293Y100838D01*
X196322Y100923D01*
X196347Y101009D01*
X196368Y101096D01*
X196386Y101184D01*
X196399Y101272D01*
X196409Y101361D01*
X196415Y101450D01*
X196417Y101540D01*
X196417Y103593D01*
X201549Y95619D02*
X201549Y92540D01*
X201547Y92450D01*
X201541Y92361D01*
X201531Y92272D01*
X201518Y92184D01*
X201500Y92096D01*
X201479Y92009D01*
X201454Y91923D01*
X201425Y91838D01*
X201393Y91754D01*
X201357Y91672D01*
X201317Y91592D01*
X201274Y91514D01*
X201227Y91437D01*
X201178Y91362D01*
X201125Y91290D01*
X201069Y91220D01*
X201010Y91153D01*
X200948Y91088D01*
X200883Y91026D01*
X200816Y90967D01*
X200746Y90911D01*
X200674Y90858D01*
X200599Y90809D01*
X200523Y90762D01*
X200444Y90719D01*
X200364Y90679D01*
X200282Y90643D01*
X200198Y90611D01*
X200113Y90582D01*
X200027Y90557D01*
X199940Y90536D01*
X199853Y90518D01*
X199764Y90505D01*
X199675Y90495D01*
X199586Y90489D01*
X199496Y90487D01*
X198470Y90487D01*
X198380Y90489D01*
X198291Y90495D01*
X198202Y90505D01*
X198114Y90518D01*
X198026Y90536D01*
X197939Y90557D01*
X197853Y90582D01*
X197768Y90611D01*
X197684Y90643D01*
X197602Y90679D01*
X197522Y90719D01*
X197444Y90762D01*
X197367Y90809D01*
X197292Y90858D01*
X197220Y90911D01*
X197150Y90967D01*
X197083Y91026D01*
X197018Y91088D01*
X196956Y91153D01*
X196897Y91220D01*
X196841Y91290D01*
X196788Y91362D01*
X196739Y91437D01*
X196692Y91514D01*
X196649Y91592D01*
X196609Y91672D01*
X196573Y91754D01*
X196541Y91838D01*
X196512Y91923D01*
X196487Y92009D01*
X196466Y92096D01*
X196448Y92184D01*
X196435Y92272D01*
X196425Y92361D01*
X196419Y92450D01*
X196417Y92540D01*
X196417Y95619D01*
X192311Y95619D01*
X192311Y90487D01*
X177367Y108787D02*
X177367Y110326D01*
X177367Y108787D02*
X182499Y108787D01*
X182499Y111866D01*
X182497Y111956D01*
X182491Y112045D01*
X182481Y112134D01*
X182468Y112222D01*
X182450Y112310D01*
X182429Y112397D01*
X182404Y112483D01*
X182375Y112568D01*
X182343Y112652D01*
X182307Y112734D01*
X182267Y112814D01*
X182224Y112893D01*
X182177Y112969D01*
X182128Y113044D01*
X182075Y113116D01*
X182019Y113186D01*
X181960Y113253D01*
X181898Y113318D01*
X181833Y113380D01*
X181766Y113439D01*
X181696Y113495D01*
X181624Y113548D01*
X181549Y113597D01*
X181473Y113644D01*
X181394Y113687D01*
X181314Y113727D01*
X181232Y113763D01*
X181148Y113795D01*
X181063Y113824D01*
X180977Y113849D01*
X180890Y113870D01*
X180802Y113888D01*
X180714Y113901D01*
X180625Y113911D01*
X180536Y113917D01*
X180446Y113919D01*
X175314Y113919D01*
X175224Y113917D01*
X175135Y113911D01*
X175046Y113901D01*
X174958Y113888D01*
X174870Y113870D01*
X174783Y113849D01*
X174697Y113824D01*
X174612Y113795D01*
X174528Y113763D01*
X174446Y113727D01*
X174366Y113687D01*
X174288Y113644D01*
X174211Y113597D01*
X174136Y113548D01*
X174064Y113495D01*
X173994Y113439D01*
X173927Y113380D01*
X173862Y113318D01*
X173800Y113253D01*
X173741Y113186D01*
X173685Y113116D01*
X173632Y113044D01*
X173583Y112969D01*
X173536Y112893D01*
X173493Y112814D01*
X173453Y112734D01*
X173417Y112652D01*
X173385Y112568D01*
X173356Y112483D01*
X173331Y112397D01*
X173310Y112310D01*
X173292Y112223D01*
X173279Y112134D01*
X173269Y112045D01*
X173263Y111956D01*
X173261Y111866D01*
X173261Y108787D01*
X173261Y101796D02*
X173263Y101700D01*
X173269Y101605D01*
X173279Y101510D01*
X173293Y101416D01*
X173310Y101322D01*
X173332Y101229D01*
X173357Y101137D01*
X173386Y101046D01*
X173419Y100956D01*
X173456Y100868D01*
X173496Y100781D01*
X173539Y100697D01*
X173587Y100614D01*
X173637Y100533D01*
X173691Y100454D01*
X173748Y100377D01*
X173808Y100303D01*
X173872Y100231D01*
X173938Y100163D01*
X174007Y100096D01*
X174078Y100033D01*
X174152Y99973D01*
X174229Y99916D01*
X174308Y99862D01*
X174389Y99812D01*
X174472Y99764D01*
X174556Y99721D01*
X174643Y99681D01*
X174731Y99644D01*
X174821Y99611D01*
X174912Y99582D01*
X175004Y99557D01*
X175097Y99535D01*
X175191Y99518D01*
X175285Y99504D01*
X175380Y99494D01*
X175476Y99488D01*
X175571Y99486D01*
X173261Y101796D02*
X173263Y101902D01*
X173269Y102009D01*
X173278Y102115D01*
X173292Y102221D01*
X173309Y102326D01*
X173330Y102431D01*
X173354Y102534D01*
X173383Y102637D01*
X173415Y102739D01*
X173450Y102839D01*
X173490Y102938D01*
X173533Y103036D01*
X173579Y103132D01*
X173629Y103226D01*
X173682Y103319D01*
X173738Y103409D01*
X173798Y103498D01*
X173860Y103584D01*
X173926Y103668D01*
X173995Y103749D01*
X174066Y103828D01*
X174141Y103905D01*
X174218Y103978D01*
X174298Y104049D01*
X174380Y104117D01*
X174464Y104182D01*
X174551Y104244D01*
X174640Y104302D01*
X174731Y104358D01*
X174824Y104410D01*
X174919Y104459D01*
X175016Y104504D01*
X175114Y104546D01*
X175213Y104584D01*
X175314Y104619D01*
X177367Y100257D02*
X177300Y100189D01*
X177230Y100123D01*
X177157Y100061D01*
X177083Y100001D01*
X177006Y99944D01*
X176927Y99890D01*
X176846Y99840D01*
X176763Y99792D01*
X176678Y99748D01*
X176592Y99707D01*
X176504Y99669D01*
X176415Y99635D01*
X176324Y99604D01*
X176232Y99577D01*
X176140Y99553D01*
X176046Y99533D01*
X175952Y99516D01*
X175857Y99504D01*
X175762Y99494D01*
X175667Y99489D01*
X175571Y99487D01*
X177367Y100257D02*
X182499Y104619D01*
X182499Y99487D01*
X182499Y95619D02*
X182499Y92540D01*
X182497Y92450D01*
X182491Y92361D01*
X182481Y92272D01*
X182468Y92184D01*
X182450Y92096D01*
X182429Y92009D01*
X182404Y91923D01*
X182375Y91838D01*
X182343Y91754D01*
X182307Y91672D01*
X182267Y91592D01*
X182224Y91514D01*
X182177Y91437D01*
X182128Y91362D01*
X182075Y91290D01*
X182019Y91220D01*
X181960Y91153D01*
X181898Y91088D01*
X181833Y91026D01*
X181766Y90967D01*
X181696Y90911D01*
X181624Y90858D01*
X181549Y90809D01*
X181473Y90762D01*
X181394Y90719D01*
X181314Y90679D01*
X181232Y90643D01*
X181148Y90611D01*
X181063Y90582D01*
X180977Y90557D01*
X180890Y90536D01*
X180803Y90518D01*
X180714Y90505D01*
X180625Y90495D01*
X180536Y90489D01*
X180446Y90487D01*
X179420Y90487D01*
X179330Y90489D01*
X179241Y90495D01*
X179152Y90505D01*
X179064Y90518D01*
X178976Y90536D01*
X178889Y90557D01*
X178803Y90582D01*
X178718Y90611D01*
X178634Y90643D01*
X178552Y90679D01*
X178472Y90719D01*
X178394Y90762D01*
X178317Y90809D01*
X178242Y90858D01*
X178170Y90911D01*
X178100Y90967D01*
X178033Y91026D01*
X177968Y91088D01*
X177906Y91153D01*
X177847Y91220D01*
X177791Y91290D01*
X177738Y91362D01*
X177689Y91437D01*
X177642Y91514D01*
X177599Y91592D01*
X177559Y91672D01*
X177523Y91754D01*
X177491Y91838D01*
X177462Y91923D01*
X177437Y92009D01*
X177416Y92096D01*
X177398Y92184D01*
X177385Y92272D01*
X177375Y92361D01*
X177369Y92450D01*
X177367Y92540D01*
X177367Y95619D01*
X173261Y95619D01*
X173261Y90487D01*
X158317Y108787D02*
X158317Y110326D01*
X158317Y108787D02*
X163449Y108787D01*
X163449Y111866D01*
X163447Y111956D01*
X163441Y112045D01*
X163431Y112134D01*
X163418Y112222D01*
X163400Y112310D01*
X163379Y112397D01*
X163354Y112483D01*
X163325Y112568D01*
X163293Y112652D01*
X163257Y112734D01*
X163217Y112814D01*
X163174Y112893D01*
X163127Y112969D01*
X163078Y113044D01*
X163025Y113116D01*
X162969Y113186D01*
X162910Y113253D01*
X162848Y113318D01*
X162783Y113380D01*
X162716Y113439D01*
X162646Y113495D01*
X162574Y113548D01*
X162499Y113597D01*
X162423Y113644D01*
X162344Y113687D01*
X162264Y113727D01*
X162182Y113763D01*
X162098Y113795D01*
X162013Y113824D01*
X161927Y113849D01*
X161840Y113870D01*
X161752Y113888D01*
X161664Y113901D01*
X161575Y113911D01*
X161486Y113917D01*
X161396Y113919D01*
X156264Y113919D01*
X156174Y113917D01*
X156085Y113911D01*
X155996Y113901D01*
X155908Y113888D01*
X155820Y113870D01*
X155733Y113849D01*
X155647Y113824D01*
X155562Y113795D01*
X155478Y113763D01*
X155396Y113727D01*
X155316Y113687D01*
X155238Y113644D01*
X155161Y113597D01*
X155086Y113548D01*
X155014Y113495D01*
X154944Y113439D01*
X154877Y113380D01*
X154812Y113318D01*
X154750Y113253D01*
X154691Y113186D01*
X154635Y113116D01*
X154582Y113044D01*
X154533Y112969D01*
X154486Y112893D01*
X154443Y112814D01*
X154403Y112734D01*
X154367Y112652D01*
X154335Y112568D01*
X154306Y112483D01*
X154281Y112397D01*
X154260Y112310D01*
X154242Y112223D01*
X154229Y112134D01*
X154219Y112045D01*
X154213Y111956D01*
X154211Y111866D01*
X154211Y108787D01*
X156264Y104619D02*
X154211Y102053D01*
X163449Y102053D01*
X163449Y104619D02*
X163449Y99487D01*
X156521Y90486D02*
X156426Y90488D01*
X156330Y90494D01*
X156235Y90504D01*
X156141Y90518D01*
X156047Y90535D01*
X155954Y90557D01*
X155862Y90582D01*
X155771Y90611D01*
X155681Y90644D01*
X155593Y90681D01*
X155506Y90721D01*
X155422Y90764D01*
X155339Y90812D01*
X155258Y90862D01*
X155179Y90916D01*
X155102Y90973D01*
X155028Y91033D01*
X154957Y91096D01*
X154888Y91163D01*
X154822Y91231D01*
X154758Y91303D01*
X154698Y91377D01*
X154641Y91454D01*
X154587Y91533D01*
X154537Y91614D01*
X154489Y91697D01*
X154446Y91781D01*
X154406Y91868D01*
X154369Y91956D01*
X154336Y92046D01*
X154307Y92137D01*
X154282Y92229D01*
X154260Y92322D01*
X154243Y92416D01*
X154229Y92510D01*
X154219Y92605D01*
X154213Y92700D01*
X154211Y92796D01*
X154213Y92902D01*
X154219Y93009D01*
X154228Y93115D01*
X154242Y93221D01*
X154259Y93326D01*
X154280Y93431D01*
X154304Y93534D01*
X154333Y93637D01*
X154365Y93739D01*
X154400Y93839D01*
X154440Y93938D01*
X154483Y94036D01*
X154529Y94132D01*
X154579Y94226D01*
X154632Y94319D01*
X154688Y94409D01*
X154748Y94498D01*
X154810Y94584D01*
X154876Y94668D01*
X154945Y94749D01*
X155016Y94828D01*
X155091Y94905D01*
X155168Y94978D01*
X155248Y95049D01*
X155330Y95117D01*
X155414Y95182D01*
X155501Y95244D01*
X155590Y95302D01*
X155681Y95358D01*
X155774Y95410D01*
X155869Y95459D01*
X155966Y95504D01*
X156064Y95546D01*
X156163Y95584D01*
X156264Y95619D01*
X158317Y91257D02*
X158250Y91189D01*
X158180Y91123D01*
X158107Y91061D01*
X158033Y91001D01*
X157956Y90944D01*
X157877Y90890D01*
X157796Y90840D01*
X157713Y90792D01*
X157628Y90748D01*
X157542Y90707D01*
X157454Y90669D01*
X157365Y90635D01*
X157274Y90604D01*
X157182Y90577D01*
X157090Y90553D01*
X156996Y90533D01*
X156902Y90516D01*
X156807Y90504D01*
X156712Y90494D01*
X156617Y90489D01*
X156521Y90487D01*
X158317Y91257D02*
X163449Y95619D01*
X163449Y90487D01*
X139267Y108787D02*
X139267Y110326D01*
X139267Y108787D02*
X144399Y108787D01*
X144399Y111866D01*
X144397Y111956D01*
X144391Y112045D01*
X144381Y112134D01*
X144368Y112222D01*
X144350Y112310D01*
X144329Y112397D01*
X144304Y112483D01*
X144275Y112568D01*
X144243Y112652D01*
X144207Y112734D01*
X144167Y112814D01*
X144124Y112893D01*
X144077Y112969D01*
X144028Y113044D01*
X143975Y113116D01*
X143919Y113186D01*
X143860Y113253D01*
X143798Y113318D01*
X143733Y113380D01*
X143666Y113439D01*
X143596Y113495D01*
X143524Y113548D01*
X143449Y113597D01*
X143373Y113644D01*
X143294Y113687D01*
X143214Y113727D01*
X143132Y113763D01*
X143048Y113795D01*
X142963Y113824D01*
X142877Y113849D01*
X142790Y113870D01*
X142702Y113888D01*
X142614Y113901D01*
X142525Y113911D01*
X142436Y113917D01*
X142346Y113919D01*
X137214Y113919D01*
X137124Y113917D01*
X137035Y113911D01*
X136946Y113901D01*
X136858Y113888D01*
X136770Y113870D01*
X136683Y113849D01*
X136597Y113824D01*
X136512Y113795D01*
X136428Y113763D01*
X136346Y113727D01*
X136266Y113687D01*
X136188Y113644D01*
X136111Y113597D01*
X136036Y113548D01*
X135964Y113495D01*
X135894Y113439D01*
X135827Y113380D01*
X135762Y113318D01*
X135700Y113253D01*
X135641Y113186D01*
X135585Y113116D01*
X135532Y113044D01*
X135483Y112969D01*
X135436Y112893D01*
X135393Y112814D01*
X135353Y112734D01*
X135317Y112652D01*
X135285Y112568D01*
X135256Y112483D01*
X135231Y112397D01*
X135210Y112310D01*
X135192Y112223D01*
X135179Y112134D01*
X135169Y112045D01*
X135163Y111956D01*
X135161Y111866D01*
X135161Y108787D01*
X140293Y102566D02*
X140293Y99487D01*
X140293Y102566D02*
X140291Y102656D01*
X140285Y102745D01*
X140275Y102834D01*
X140262Y102922D01*
X140244Y103010D01*
X140223Y103097D01*
X140198Y103183D01*
X140169Y103268D01*
X140137Y103352D01*
X140101Y103434D01*
X140061Y103514D01*
X140018Y103593D01*
X139971Y103669D01*
X139922Y103744D01*
X139869Y103816D01*
X139813Y103886D01*
X139754Y103953D01*
X139692Y104018D01*
X139627Y104080D01*
X139560Y104139D01*
X139490Y104195D01*
X139418Y104248D01*
X139343Y104297D01*
X139267Y104344D01*
X139188Y104387D01*
X139108Y104427D01*
X139026Y104463D01*
X138942Y104495D01*
X138857Y104524D01*
X138771Y104549D01*
X138684Y104570D01*
X138596Y104588D01*
X138508Y104601D01*
X138419Y104611D01*
X138330Y104617D01*
X138240Y104619D01*
X137727Y104619D01*
X137628Y104617D01*
X137528Y104611D01*
X137429Y104602D01*
X137331Y104588D01*
X137233Y104571D01*
X137135Y104550D01*
X137039Y104525D01*
X136944Y104496D01*
X136849Y104464D01*
X136757Y104428D01*
X136665Y104389D01*
X136575Y104346D01*
X136487Y104300D01*
X136401Y104250D01*
X136317Y104197D01*
X136235Y104141D01*
X136155Y104081D01*
X136078Y104019D01*
X136003Y103953D01*
X135930Y103885D01*
X135861Y103814D01*
X135794Y103740D01*
X135730Y103664D01*
X135669Y103585D01*
X135611Y103504D01*
X135556Y103421D01*
X135505Y103336D01*
X135457Y103249D01*
X135412Y103160D01*
X135371Y103069D01*
X135333Y102977D01*
X135299Y102884D01*
X135269Y102789D01*
X135242Y102693D01*
X135219Y102596D01*
X135200Y102499D01*
X135185Y102400D01*
X135173Y102301D01*
X135165Y102202D01*
X135161Y102103D01*
X135161Y102003D01*
X135165Y101904D01*
X135173Y101805D01*
X135185Y101706D01*
X135200Y101607D01*
X135219Y101510D01*
X135242Y101413D01*
X135269Y101317D01*
X135299Y101222D01*
X135333Y101129D01*
X135371Y101037D01*
X135412Y100946D01*
X135457Y100857D01*
X135505Y100770D01*
X135556Y100685D01*
X135611Y100602D01*
X135669Y100521D01*
X135730Y100442D01*
X135794Y100366D01*
X135861Y100292D01*
X135930Y100221D01*
X136003Y100153D01*
X136078Y100087D01*
X136155Y100025D01*
X136235Y99965D01*
X136317Y99909D01*
X136401Y99856D01*
X136487Y99806D01*
X136575Y99760D01*
X136665Y99717D01*
X136757Y99678D01*
X136849Y99642D01*
X136944Y99610D01*
X137039Y99581D01*
X137135Y99556D01*
X137233Y99535D01*
X137331Y99518D01*
X137429Y99504D01*
X137528Y99495D01*
X137628Y99489D01*
X137727Y99487D01*
X140293Y99487D01*
X140419Y99489D01*
X140546Y99495D01*
X140672Y99505D01*
X140798Y99518D01*
X140923Y99536D01*
X141047Y99557D01*
X141171Y99582D01*
X141295Y99611D01*
X141417Y99644D01*
X141538Y99680D01*
X141658Y99720D01*
X141776Y99764D01*
X141893Y99812D01*
X142009Y99863D01*
X142123Y99917D01*
X142236Y99976D01*
X142346Y100037D01*
X142455Y100102D01*
X142561Y100170D01*
X142665Y100242D01*
X142767Y100316D01*
X142867Y100394D01*
X142964Y100475D01*
X143059Y100559D01*
X143151Y100645D01*
X143241Y100735D01*
X143327Y100827D01*
X143411Y100922D01*
X143492Y101019D01*
X143570Y101119D01*
X143644Y101221D01*
X143716Y101325D01*
X143784Y101431D01*
X143849Y101540D01*
X143910Y101650D01*
X143969Y101763D01*
X144023Y101877D01*
X144074Y101993D01*
X144122Y102110D01*
X144166Y102228D01*
X144206Y102348D01*
X144242Y102469D01*
X144275Y102592D01*
X144304Y102715D01*
X144329Y102839D01*
X144350Y102963D01*
X144368Y103088D01*
X144381Y103214D01*
X144391Y103340D01*
X144397Y103467D01*
X144399Y103593D01*
X121487Y108787D02*
X121487Y110326D01*
X121487Y108787D02*
X126619Y108787D01*
X126619Y111866D01*
X126617Y111956D01*
X126611Y112045D01*
X126601Y112134D01*
X126588Y112222D01*
X126570Y112310D01*
X126549Y112397D01*
X126524Y112483D01*
X126495Y112568D01*
X126463Y112652D01*
X126427Y112734D01*
X126387Y112814D01*
X126344Y112893D01*
X126297Y112969D01*
X126248Y113044D01*
X126195Y113116D01*
X126139Y113186D01*
X126080Y113253D01*
X126018Y113318D01*
X125953Y113380D01*
X125886Y113439D01*
X125816Y113495D01*
X125744Y113548D01*
X125669Y113597D01*
X125593Y113644D01*
X125514Y113687D01*
X125434Y113727D01*
X125352Y113763D01*
X125268Y113795D01*
X125183Y113824D01*
X125097Y113849D01*
X125010Y113870D01*
X124922Y113888D01*
X124834Y113901D01*
X124745Y113911D01*
X124656Y113917D01*
X124566Y113919D01*
X119434Y113919D01*
X119344Y113917D01*
X119255Y113911D01*
X119166Y113901D01*
X119078Y113888D01*
X118990Y113870D01*
X118903Y113849D01*
X118817Y113824D01*
X118732Y113795D01*
X118648Y113763D01*
X118566Y113727D01*
X118486Y113687D01*
X118408Y113644D01*
X118331Y113597D01*
X118256Y113548D01*
X118184Y113495D01*
X118114Y113439D01*
X118047Y113380D01*
X117982Y113318D01*
X117920Y113253D01*
X117861Y113186D01*
X117805Y113116D01*
X117752Y113044D01*
X117703Y112969D01*
X117656Y112893D01*
X117613Y112814D01*
X117573Y112734D01*
X117537Y112652D01*
X117505Y112568D01*
X117476Y112483D01*
X117451Y112397D01*
X117430Y112310D01*
X117412Y112223D01*
X117399Y112134D01*
X117389Y112045D01*
X117383Y111956D01*
X117381Y111866D01*
X117381Y108787D01*
X119434Y104619D02*
X117381Y102053D01*
X126619Y102053D01*
X126619Y104619D02*
X126619Y99487D01*
X122000Y95619D02*
X121818Y95617D01*
X121637Y95610D01*
X121455Y95599D01*
X121274Y95584D01*
X121093Y95565D01*
X120913Y95541D01*
X120734Y95513D01*
X120555Y95481D01*
X120377Y95444D01*
X120200Y95403D01*
X120024Y95358D01*
X119849Y95309D01*
X119675Y95255D01*
X119503Y95198D01*
X119332Y95136D01*
X119162Y95070D01*
X118994Y95001D01*
X118828Y94927D01*
X118664Y94849D01*
X118585Y94820D01*
X118508Y94788D01*
X118432Y94752D01*
X118357Y94713D01*
X118284Y94670D01*
X118214Y94624D01*
X118145Y94576D01*
X118079Y94524D01*
X118015Y94469D01*
X117954Y94412D01*
X117895Y94352D01*
X117838Y94289D01*
X117785Y94224D01*
X117735Y94157D01*
X117687Y94087D01*
X117643Y94016D01*
X117602Y93942D01*
X117564Y93867D01*
X117530Y93790D01*
X117499Y93712D01*
X117472Y93633D01*
X117448Y93552D01*
X117427Y93470D01*
X117411Y93388D01*
X117398Y93305D01*
X117388Y93221D01*
X117383Y93137D01*
X117381Y93053D01*
X117383Y92969D01*
X117388Y92885D01*
X117398Y92801D01*
X117411Y92718D01*
X117427Y92636D01*
X117448Y92554D01*
X117472Y92473D01*
X117499Y92394D01*
X117530Y92316D01*
X117564Y92239D01*
X117602Y92164D01*
X117643Y92090D01*
X117687Y92019D01*
X117735Y91949D01*
X117785Y91882D01*
X117838Y91817D01*
X117895Y91754D01*
X117953Y91694D01*
X118015Y91637D01*
X118079Y91582D01*
X118145Y91530D01*
X118214Y91482D01*
X118284Y91436D01*
X118357Y91393D01*
X118431Y91354D01*
X118508Y91318D01*
X118585Y91286D01*
X118664Y91257D01*
X118828Y91179D01*
X118994Y91105D01*
X119162Y91036D01*
X119332Y90970D01*
X119503Y90908D01*
X119675Y90851D01*
X119849Y90797D01*
X120024Y90748D01*
X120200Y90703D01*
X120377Y90662D01*
X120555Y90625D01*
X120734Y90593D01*
X120913Y90565D01*
X121093Y90541D01*
X121274Y90522D01*
X121455Y90507D01*
X121637Y90496D01*
X121818Y90489D01*
X122000Y90487D01*
X122000Y95619D02*
X122182Y95617D01*
X122363Y95610D01*
X122545Y95599D01*
X122726Y95584D01*
X122907Y95565D01*
X123087Y95541D01*
X123266Y95513D01*
X123445Y95481D01*
X123623Y95444D01*
X123800Y95403D01*
X123976Y95358D01*
X124151Y95309D01*
X124325Y95255D01*
X124497Y95198D01*
X124668Y95136D01*
X124838Y95070D01*
X125006Y95001D01*
X125172Y94927D01*
X125336Y94849D01*
X125415Y94820D01*
X125492Y94788D01*
X125569Y94752D01*
X125643Y94713D01*
X125716Y94670D01*
X125786Y94624D01*
X125855Y94576D01*
X125921Y94524D01*
X125985Y94469D01*
X126047Y94412D01*
X126105Y94352D01*
X126162Y94289D01*
X126215Y94224D01*
X126265Y94157D01*
X126313Y94087D01*
X126357Y94016D01*
X126398Y93942D01*
X126436Y93867D01*
X126470Y93790D01*
X126501Y93712D01*
X126528Y93633D01*
X126552Y93552D01*
X126573Y93470D01*
X126589Y93388D01*
X126602Y93305D01*
X126612Y93221D01*
X126617Y93137D01*
X126619Y93053D01*
X125336Y91257D02*
X125172Y91179D01*
X125006Y91105D01*
X124838Y91036D01*
X124668Y90970D01*
X124497Y90908D01*
X124325Y90851D01*
X124151Y90797D01*
X123976Y90748D01*
X123800Y90703D01*
X123623Y90662D01*
X123445Y90625D01*
X123266Y90593D01*
X123087Y90565D01*
X122907Y90541D01*
X122726Y90522D01*
X122545Y90507D01*
X122363Y90496D01*
X122182Y90489D01*
X122000Y90487D01*
X125336Y91257D02*
X125415Y91286D01*
X125492Y91318D01*
X125569Y91354D01*
X125643Y91393D01*
X125716Y91436D01*
X125786Y91482D01*
X125855Y91530D01*
X125921Y91582D01*
X125985Y91637D01*
X126047Y91694D01*
X126105Y91754D01*
X126162Y91817D01*
X126215Y91882D01*
X126265Y91949D01*
X126313Y92019D01*
X126357Y92090D01*
X126398Y92164D01*
X126436Y92239D01*
X126470Y92316D01*
X126501Y92394D01*
X126528Y92473D01*
X126552Y92554D01*
X126573Y92636D01*
X126589Y92718D01*
X126602Y92801D01*
X126612Y92885D01*
X126617Y92969D01*
X126619Y93053D01*
X124566Y95106D02*
X119434Y91000D01*
X103707Y108787D02*
X103707Y110326D01*
X103707Y108787D02*
X108839Y108787D01*
X108839Y111866D01*
X108837Y111956D01*
X108831Y112045D01*
X108821Y112134D01*
X108808Y112222D01*
X108790Y112310D01*
X108769Y112397D01*
X108744Y112483D01*
X108715Y112568D01*
X108683Y112652D01*
X108647Y112734D01*
X108607Y112814D01*
X108564Y112893D01*
X108517Y112969D01*
X108468Y113044D01*
X108415Y113116D01*
X108359Y113186D01*
X108300Y113253D01*
X108238Y113318D01*
X108173Y113380D01*
X108106Y113439D01*
X108036Y113495D01*
X107964Y113548D01*
X107889Y113597D01*
X107813Y113644D01*
X107734Y113687D01*
X107654Y113727D01*
X107572Y113763D01*
X107488Y113795D01*
X107403Y113824D01*
X107317Y113849D01*
X107230Y113870D01*
X107142Y113888D01*
X107054Y113901D01*
X106965Y113911D01*
X106876Y113917D01*
X106786Y113919D01*
X101654Y113919D01*
X101564Y113917D01*
X101475Y113911D01*
X101386Y113901D01*
X101298Y113888D01*
X101210Y113870D01*
X101123Y113849D01*
X101037Y113824D01*
X100952Y113795D01*
X100868Y113763D01*
X100786Y113727D01*
X100706Y113687D01*
X100628Y113644D01*
X100551Y113597D01*
X100476Y113548D01*
X100404Y113495D01*
X100334Y113439D01*
X100267Y113380D01*
X100202Y113318D01*
X100140Y113253D01*
X100081Y113186D01*
X100025Y113116D01*
X99972Y113044D01*
X99923Y112969D01*
X99876Y112893D01*
X99833Y112814D01*
X99793Y112734D01*
X99757Y112652D01*
X99725Y112568D01*
X99696Y112483D01*
X99671Y112397D01*
X99650Y112310D01*
X99632Y112223D01*
X99619Y112134D01*
X99609Y112045D01*
X99603Y111956D01*
X99601Y111866D01*
X99601Y108787D01*
X101654Y104619D02*
X99601Y102053D01*
X108839Y102053D01*
X108839Y104619D02*
X108839Y99487D01*
X101654Y95619D02*
X99601Y93053D01*
X108839Y93053D01*
X108839Y95619D02*
X108839Y90487D01*
X83387Y108787D02*
X83387Y110326D01*
X83387Y108787D02*
X88519Y108787D01*
X88519Y111866D01*
X88517Y111956D01*
X88511Y112045D01*
X88501Y112134D01*
X88488Y112222D01*
X88470Y112310D01*
X88449Y112397D01*
X88424Y112483D01*
X88395Y112568D01*
X88363Y112652D01*
X88327Y112734D01*
X88287Y112814D01*
X88244Y112893D01*
X88197Y112969D01*
X88148Y113044D01*
X88095Y113116D01*
X88039Y113186D01*
X87980Y113253D01*
X87918Y113318D01*
X87853Y113380D01*
X87786Y113439D01*
X87716Y113495D01*
X87644Y113548D01*
X87569Y113597D01*
X87493Y113644D01*
X87414Y113687D01*
X87334Y113727D01*
X87252Y113763D01*
X87168Y113795D01*
X87083Y113824D01*
X86997Y113849D01*
X86910Y113870D01*
X86822Y113888D01*
X86734Y113901D01*
X86645Y113911D01*
X86556Y113917D01*
X86466Y113919D01*
X81334Y113919D01*
X81244Y113917D01*
X81155Y113911D01*
X81066Y113901D01*
X80978Y113888D01*
X80890Y113870D01*
X80803Y113849D01*
X80717Y113824D01*
X80632Y113795D01*
X80548Y113763D01*
X80466Y113727D01*
X80386Y113687D01*
X80308Y113644D01*
X80231Y113597D01*
X80156Y113548D01*
X80084Y113495D01*
X80014Y113439D01*
X79947Y113380D01*
X79882Y113318D01*
X79820Y113253D01*
X79761Y113186D01*
X79705Y113116D01*
X79652Y113044D01*
X79603Y112969D01*
X79556Y112893D01*
X79513Y112814D01*
X79473Y112734D01*
X79437Y112652D01*
X79405Y112568D01*
X79376Y112483D01*
X79351Y112397D01*
X79330Y112310D01*
X79312Y112223D01*
X79299Y112134D01*
X79289Y112045D01*
X79283Y111956D01*
X79281Y111866D01*
X79281Y108787D01*
X79281Y104319D02*
X88519Y104319D01*
X88519Y99187D02*
X79281Y104319D01*
X79281Y99187D02*
X88519Y99187D01*
X88519Y94719D02*
X79281Y94719D01*
X79281Y92153D01*
X79283Y92055D01*
X79289Y91957D01*
X79298Y91859D01*
X79311Y91761D01*
X79328Y91664D01*
X79348Y91568D01*
X79373Y91473D01*
X79401Y91379D01*
X79432Y91286D01*
X79467Y91194D01*
X79506Y91103D01*
X79547Y91014D01*
X79593Y90927D01*
X79641Y90842D01*
X79693Y90758D01*
X79748Y90677D01*
X79806Y90597D01*
X79867Y90520D01*
X79931Y90446D01*
X79998Y90374D01*
X80068Y90304D01*
X80140Y90237D01*
X80214Y90173D01*
X80291Y90112D01*
X80371Y90054D01*
X80452Y89999D01*
X80536Y89947D01*
X80621Y89899D01*
X80708Y89853D01*
X80797Y89812D01*
X80888Y89773D01*
X80980Y89738D01*
X81073Y89707D01*
X81167Y89679D01*
X81262Y89654D01*
X81358Y89634D01*
X81455Y89617D01*
X81553Y89604D01*
X81651Y89595D01*
X81749Y89589D01*
X81847Y89587D01*
X85953Y89587D01*
X86051Y89589D01*
X86149Y89595D01*
X86247Y89604D01*
X86345Y89617D01*
X86442Y89634D01*
X86538Y89654D01*
X86633Y89679D01*
X86727Y89707D01*
X86820Y89738D01*
X86912Y89773D01*
X87003Y89812D01*
X87092Y89853D01*
X87179Y89899D01*
X87264Y89947D01*
X87348Y89999D01*
X87429Y90054D01*
X87509Y90112D01*
X87586Y90173D01*
X87660Y90237D01*
X87732Y90304D01*
X87802Y90374D01*
X87869Y90446D01*
X87933Y90520D01*
X87994Y90597D01*
X88052Y90677D01*
X88107Y90758D01*
X88159Y90842D01*
X88207Y90927D01*
X88253Y91014D01*
X88294Y91103D01*
X88333Y91194D01*
X88368Y91286D01*
X88399Y91379D01*
X88427Y91473D01*
X88452Y91568D01*
X88472Y91664D01*
X88489Y91761D01*
X88502Y91859D01*
X88511Y91957D01*
X88517Y92055D01*
X88519Y92153D01*
X88519Y94719D01*
X63336Y107760D02*
X63336Y113919D01*
X60257Y110840D02*
X66416Y110840D01*
X66929Y103806D02*
X66929Y100727D01*
X66927Y100637D01*
X66921Y100548D01*
X66911Y100459D01*
X66898Y100371D01*
X66880Y100283D01*
X66859Y100196D01*
X66834Y100110D01*
X66805Y100025D01*
X66773Y99941D01*
X66737Y99859D01*
X66697Y99779D01*
X66654Y99701D01*
X66607Y99624D01*
X66558Y99549D01*
X66505Y99477D01*
X66449Y99407D01*
X66390Y99340D01*
X66328Y99275D01*
X66263Y99213D01*
X66196Y99154D01*
X66126Y99098D01*
X66054Y99045D01*
X65979Y98996D01*
X65903Y98949D01*
X65824Y98906D01*
X65744Y98866D01*
X65662Y98830D01*
X65578Y98798D01*
X65493Y98769D01*
X65407Y98744D01*
X65320Y98723D01*
X65233Y98705D01*
X65144Y98692D01*
X65055Y98682D01*
X64966Y98676D01*
X64876Y98674D01*
X63850Y98674D01*
X63760Y98676D01*
X63671Y98682D01*
X63582Y98692D01*
X63494Y98705D01*
X63406Y98723D01*
X63319Y98744D01*
X63233Y98769D01*
X63148Y98798D01*
X63064Y98830D01*
X62982Y98866D01*
X62902Y98906D01*
X62824Y98949D01*
X62747Y98996D01*
X62672Y99045D01*
X62600Y99098D01*
X62530Y99154D01*
X62463Y99213D01*
X62398Y99275D01*
X62336Y99340D01*
X62277Y99407D01*
X62221Y99477D01*
X62168Y99549D01*
X62119Y99624D01*
X62072Y99701D01*
X62029Y99779D01*
X61989Y99859D01*
X61953Y99941D01*
X61921Y100025D01*
X61892Y100110D01*
X61867Y100196D01*
X61846Y100283D01*
X61828Y100371D01*
X61815Y100459D01*
X61805Y100548D01*
X61799Y100637D01*
X61797Y100727D01*
X61797Y103806D01*
X57691Y103806D01*
X57691Y98674D01*
X57691Y95319D02*
X66929Y92240D01*
X57691Y89160D01*
X215467Y139267D02*
X215467Y140806D01*
X215467Y139267D02*
X220599Y139267D01*
X220599Y142346D01*
X220597Y142436D01*
X220591Y142525D01*
X220581Y142614D01*
X220568Y142702D01*
X220550Y142790D01*
X220529Y142877D01*
X220504Y142963D01*
X220475Y143048D01*
X220443Y143132D01*
X220407Y143214D01*
X220367Y143294D01*
X220324Y143373D01*
X220277Y143449D01*
X220228Y143524D01*
X220175Y143596D01*
X220119Y143666D01*
X220060Y143733D01*
X219998Y143798D01*
X219933Y143860D01*
X219866Y143919D01*
X219796Y143975D01*
X219724Y144028D01*
X219649Y144077D01*
X219573Y144124D01*
X219494Y144167D01*
X219414Y144207D01*
X219332Y144243D01*
X219248Y144275D01*
X219163Y144304D01*
X219077Y144329D01*
X218990Y144350D01*
X218902Y144368D01*
X218814Y144381D01*
X218725Y144391D01*
X218636Y144397D01*
X218546Y144399D01*
X213414Y144399D01*
X213324Y144397D01*
X213235Y144391D01*
X213146Y144381D01*
X213058Y144368D01*
X212970Y144350D01*
X212883Y144329D01*
X212797Y144304D01*
X212712Y144275D01*
X212628Y144243D01*
X212546Y144207D01*
X212466Y144167D01*
X212388Y144124D01*
X212311Y144077D01*
X212236Y144028D01*
X212164Y143975D01*
X212094Y143919D01*
X212027Y143860D01*
X211962Y143798D01*
X211900Y143733D01*
X211841Y143666D01*
X211785Y143596D01*
X211732Y143524D01*
X211683Y143449D01*
X211636Y143373D01*
X211593Y143294D01*
X211553Y143214D01*
X211517Y143132D01*
X211485Y143048D01*
X211456Y142963D01*
X211431Y142877D01*
X211410Y142790D01*
X211392Y142703D01*
X211379Y142614D01*
X211369Y142525D01*
X211363Y142436D01*
X211361Y142346D01*
X211361Y139267D01*
X220599Y135099D02*
X220599Y132533D01*
X220597Y132434D01*
X220591Y132334D01*
X220582Y132235D01*
X220568Y132137D01*
X220551Y132039D01*
X220530Y131941D01*
X220505Y131845D01*
X220476Y131750D01*
X220444Y131655D01*
X220408Y131563D01*
X220369Y131471D01*
X220326Y131381D01*
X220280Y131293D01*
X220230Y131207D01*
X220177Y131123D01*
X220121Y131041D01*
X220061Y130961D01*
X219999Y130884D01*
X219933Y130809D01*
X219865Y130736D01*
X219794Y130667D01*
X219720Y130600D01*
X219644Y130536D01*
X219565Y130475D01*
X219484Y130417D01*
X219401Y130362D01*
X219316Y130311D01*
X219229Y130263D01*
X219140Y130218D01*
X219049Y130177D01*
X218957Y130139D01*
X218864Y130105D01*
X218769Y130075D01*
X218673Y130048D01*
X218576Y130025D01*
X218479Y130006D01*
X218380Y129991D01*
X218281Y129979D01*
X218182Y129971D01*
X218083Y129967D01*
X217983Y129967D01*
X217884Y129971D01*
X217785Y129979D01*
X217686Y129991D01*
X217587Y130006D01*
X217490Y130025D01*
X217393Y130048D01*
X217297Y130075D01*
X217202Y130105D01*
X217109Y130139D01*
X217017Y130177D01*
X216926Y130218D01*
X216837Y130263D01*
X216750Y130311D01*
X216665Y130362D01*
X216582Y130417D01*
X216501Y130475D01*
X216422Y130536D01*
X216346Y130600D01*
X216272Y130667D01*
X216201Y130736D01*
X216133Y130809D01*
X216067Y130884D01*
X216005Y130961D01*
X215945Y131041D01*
X215889Y131123D01*
X215836Y131207D01*
X215786Y131293D01*
X215740Y131381D01*
X215697Y131471D01*
X215658Y131563D01*
X215622Y131655D01*
X215590Y131750D01*
X215561Y131845D01*
X215536Y131941D01*
X215515Y132039D01*
X215498Y132137D01*
X215484Y132235D01*
X215475Y132334D01*
X215469Y132434D01*
X215467Y132533D01*
X211361Y132020D02*
X211361Y135099D01*
X211361Y132020D02*
X211363Y131930D01*
X211369Y131841D01*
X211379Y131752D01*
X211392Y131664D01*
X211410Y131576D01*
X211431Y131489D01*
X211456Y131403D01*
X211485Y131318D01*
X211517Y131234D01*
X211553Y131152D01*
X211593Y131072D01*
X211636Y130994D01*
X211683Y130917D01*
X211732Y130842D01*
X211785Y130770D01*
X211841Y130700D01*
X211900Y130633D01*
X211962Y130568D01*
X212027Y130506D01*
X212094Y130447D01*
X212164Y130391D01*
X212236Y130338D01*
X212311Y130289D01*
X212388Y130242D01*
X212466Y130199D01*
X212546Y130159D01*
X212628Y130123D01*
X212712Y130091D01*
X212797Y130062D01*
X212883Y130037D01*
X212970Y130016D01*
X213058Y129998D01*
X213146Y129985D01*
X213235Y129975D01*
X213324Y129969D01*
X213414Y129967D01*
X213504Y129969D01*
X213593Y129975D01*
X213682Y129985D01*
X213770Y129998D01*
X213858Y130016D01*
X213945Y130037D01*
X214031Y130062D01*
X214116Y130091D01*
X214200Y130123D01*
X214282Y130159D01*
X214362Y130199D01*
X214441Y130242D01*
X214517Y130289D01*
X214592Y130338D01*
X214664Y130391D01*
X214734Y130447D01*
X214801Y130506D01*
X214866Y130568D01*
X214928Y130633D01*
X214987Y130700D01*
X215043Y130770D01*
X215096Y130842D01*
X215145Y130917D01*
X215192Y130994D01*
X215235Y131072D01*
X215275Y131152D01*
X215311Y131234D01*
X215343Y131318D01*
X215372Y131403D01*
X215397Y131489D01*
X215418Y131576D01*
X215436Y131664D01*
X215449Y131752D01*
X215459Y131841D01*
X215465Y131930D01*
X215467Y132020D01*
X215467Y134073D01*
X198957Y139267D02*
X198957Y140806D01*
X198957Y139267D02*
X204089Y139267D01*
X204089Y142346D01*
X204087Y142436D01*
X204081Y142525D01*
X204071Y142614D01*
X204058Y142702D01*
X204040Y142790D01*
X204019Y142877D01*
X203994Y142963D01*
X203965Y143048D01*
X203933Y143132D01*
X203897Y143214D01*
X203857Y143294D01*
X203814Y143373D01*
X203767Y143449D01*
X203718Y143524D01*
X203665Y143596D01*
X203609Y143666D01*
X203550Y143733D01*
X203488Y143798D01*
X203423Y143860D01*
X203356Y143919D01*
X203286Y143975D01*
X203214Y144028D01*
X203139Y144077D01*
X203063Y144124D01*
X202984Y144167D01*
X202904Y144207D01*
X202822Y144243D01*
X202738Y144275D01*
X202653Y144304D01*
X202567Y144329D01*
X202480Y144350D01*
X202392Y144368D01*
X202304Y144381D01*
X202215Y144391D01*
X202126Y144397D01*
X202036Y144399D01*
X196904Y144399D01*
X196814Y144397D01*
X196725Y144391D01*
X196636Y144381D01*
X196548Y144368D01*
X196460Y144350D01*
X196373Y144329D01*
X196287Y144304D01*
X196202Y144275D01*
X196118Y144243D01*
X196036Y144207D01*
X195956Y144167D01*
X195878Y144124D01*
X195801Y144077D01*
X195726Y144028D01*
X195654Y143975D01*
X195584Y143919D01*
X195517Y143860D01*
X195452Y143798D01*
X195390Y143733D01*
X195331Y143666D01*
X195275Y143596D01*
X195222Y143524D01*
X195173Y143449D01*
X195126Y143373D01*
X195083Y143294D01*
X195043Y143214D01*
X195007Y143132D01*
X194975Y143048D01*
X194946Y142963D01*
X194921Y142877D01*
X194900Y142790D01*
X194882Y142703D01*
X194869Y142614D01*
X194859Y142525D01*
X194853Y142436D01*
X194851Y142346D01*
X194851Y139267D01*
X196904Y135099D02*
X194851Y132533D01*
X204089Y132533D01*
X204089Y135099D02*
X204089Y129967D01*
X195877Y126099D02*
X194851Y126099D01*
X194851Y120967D01*
X204089Y123533D01*
X179907Y139267D02*
X179907Y140806D01*
X179907Y139267D02*
X185039Y139267D01*
X185039Y142346D01*
X185037Y142436D01*
X185031Y142525D01*
X185021Y142614D01*
X185008Y142702D01*
X184990Y142790D01*
X184969Y142877D01*
X184944Y142963D01*
X184915Y143048D01*
X184883Y143132D01*
X184847Y143214D01*
X184807Y143294D01*
X184764Y143373D01*
X184717Y143449D01*
X184668Y143524D01*
X184615Y143596D01*
X184559Y143666D01*
X184500Y143733D01*
X184438Y143798D01*
X184373Y143860D01*
X184306Y143919D01*
X184236Y143975D01*
X184164Y144028D01*
X184089Y144077D01*
X184013Y144124D01*
X183934Y144167D01*
X183854Y144207D01*
X183772Y144243D01*
X183688Y144275D01*
X183603Y144304D01*
X183517Y144329D01*
X183430Y144350D01*
X183342Y144368D01*
X183254Y144381D01*
X183165Y144391D01*
X183076Y144397D01*
X182986Y144399D01*
X177854Y144399D01*
X177764Y144397D01*
X177675Y144391D01*
X177586Y144381D01*
X177498Y144368D01*
X177410Y144350D01*
X177323Y144329D01*
X177237Y144304D01*
X177152Y144275D01*
X177068Y144243D01*
X176986Y144207D01*
X176906Y144167D01*
X176828Y144124D01*
X176751Y144077D01*
X176676Y144028D01*
X176604Y143975D01*
X176534Y143919D01*
X176467Y143860D01*
X176402Y143798D01*
X176340Y143733D01*
X176281Y143666D01*
X176225Y143596D01*
X176172Y143524D01*
X176123Y143449D01*
X176076Y143373D01*
X176033Y143294D01*
X175993Y143214D01*
X175957Y143132D01*
X175925Y143048D01*
X175896Y142963D01*
X175871Y142877D01*
X175850Y142790D01*
X175832Y142703D01*
X175819Y142614D01*
X175809Y142525D01*
X175803Y142436D01*
X175801Y142346D01*
X175801Y139267D01*
X177854Y135099D02*
X175801Y132533D01*
X185039Y132533D01*
X185039Y135099D02*
X185039Y129967D01*
X179907Y126099D02*
X179907Y123020D01*
X179909Y122930D01*
X179915Y122841D01*
X179925Y122752D01*
X179938Y122664D01*
X179956Y122576D01*
X179977Y122489D01*
X180002Y122403D01*
X180031Y122318D01*
X180063Y122234D01*
X180099Y122152D01*
X180139Y122072D01*
X180182Y121994D01*
X180229Y121917D01*
X180278Y121842D01*
X180331Y121770D01*
X180387Y121700D01*
X180446Y121633D01*
X180508Y121568D01*
X180573Y121506D01*
X180640Y121447D01*
X180710Y121391D01*
X180782Y121338D01*
X180857Y121289D01*
X180934Y121242D01*
X181012Y121199D01*
X181092Y121159D01*
X181174Y121123D01*
X181258Y121091D01*
X181343Y121062D01*
X181429Y121037D01*
X181516Y121016D01*
X181604Y120998D01*
X181692Y120985D01*
X181781Y120975D01*
X181870Y120969D01*
X181960Y120967D01*
X182473Y120967D01*
X182572Y120969D01*
X182672Y120975D01*
X182771Y120984D01*
X182869Y120998D01*
X182967Y121015D01*
X183065Y121036D01*
X183161Y121061D01*
X183256Y121090D01*
X183351Y121122D01*
X183443Y121158D01*
X183535Y121197D01*
X183625Y121240D01*
X183713Y121286D01*
X183799Y121336D01*
X183883Y121389D01*
X183965Y121445D01*
X184045Y121505D01*
X184122Y121567D01*
X184197Y121633D01*
X184270Y121701D01*
X184339Y121772D01*
X184406Y121846D01*
X184470Y121922D01*
X184531Y122001D01*
X184589Y122082D01*
X184644Y122165D01*
X184695Y122250D01*
X184743Y122337D01*
X184788Y122426D01*
X184829Y122517D01*
X184867Y122609D01*
X184901Y122702D01*
X184931Y122797D01*
X184958Y122893D01*
X184981Y122990D01*
X185000Y123087D01*
X185015Y123186D01*
X185027Y123285D01*
X185035Y123384D01*
X185039Y123483D01*
X185039Y123583D01*
X185035Y123682D01*
X185027Y123781D01*
X185015Y123880D01*
X185000Y123979D01*
X184981Y124076D01*
X184958Y124173D01*
X184931Y124269D01*
X184901Y124364D01*
X184867Y124457D01*
X184829Y124549D01*
X184788Y124640D01*
X184743Y124729D01*
X184695Y124816D01*
X184644Y124901D01*
X184589Y124984D01*
X184531Y125065D01*
X184470Y125144D01*
X184406Y125220D01*
X184339Y125294D01*
X184270Y125365D01*
X184197Y125433D01*
X184122Y125499D01*
X184045Y125561D01*
X183965Y125621D01*
X183883Y125677D01*
X183799Y125730D01*
X183713Y125780D01*
X183625Y125826D01*
X183535Y125869D01*
X183443Y125908D01*
X183351Y125944D01*
X183256Y125976D01*
X183161Y126005D01*
X183065Y126030D01*
X182967Y126051D01*
X182869Y126068D01*
X182771Y126082D01*
X182672Y126091D01*
X182572Y126097D01*
X182473Y126099D01*
X179907Y126099D01*
X179781Y126097D01*
X179654Y126091D01*
X179528Y126081D01*
X179402Y126068D01*
X179277Y126050D01*
X179153Y126029D01*
X179029Y126004D01*
X178905Y125975D01*
X178783Y125942D01*
X178662Y125906D01*
X178542Y125866D01*
X178424Y125822D01*
X178307Y125774D01*
X178191Y125723D01*
X178077Y125669D01*
X177964Y125610D01*
X177854Y125549D01*
X177745Y125484D01*
X177639Y125416D01*
X177535Y125344D01*
X177433Y125270D01*
X177333Y125192D01*
X177236Y125111D01*
X177141Y125027D01*
X177049Y124941D01*
X176959Y124851D01*
X176873Y124759D01*
X176789Y124664D01*
X176708Y124567D01*
X176630Y124467D01*
X176556Y124365D01*
X176484Y124261D01*
X176416Y124155D01*
X176351Y124046D01*
X176290Y123936D01*
X176231Y123823D01*
X176177Y123709D01*
X176126Y123594D01*
X176078Y123476D01*
X176034Y123358D01*
X175994Y123238D01*
X175958Y123117D01*
X175925Y122995D01*
X175896Y122871D01*
X175871Y122748D01*
X175850Y122623D01*
X175832Y122498D01*
X175819Y122372D01*
X175809Y122246D01*
X175803Y122120D01*
X175801Y121993D01*
X160857Y139267D02*
X160857Y140806D01*
X160857Y139267D02*
X165989Y139267D01*
X165989Y142346D01*
X165987Y142436D01*
X165981Y142525D01*
X165971Y142614D01*
X165958Y142702D01*
X165940Y142790D01*
X165919Y142877D01*
X165894Y142963D01*
X165865Y143048D01*
X165833Y143132D01*
X165797Y143214D01*
X165757Y143294D01*
X165714Y143373D01*
X165667Y143449D01*
X165618Y143524D01*
X165565Y143596D01*
X165509Y143666D01*
X165450Y143733D01*
X165388Y143798D01*
X165323Y143860D01*
X165256Y143919D01*
X165186Y143975D01*
X165114Y144028D01*
X165039Y144077D01*
X164963Y144124D01*
X164884Y144167D01*
X164804Y144207D01*
X164722Y144243D01*
X164638Y144275D01*
X164553Y144304D01*
X164467Y144329D01*
X164380Y144350D01*
X164292Y144368D01*
X164204Y144381D01*
X164115Y144391D01*
X164026Y144397D01*
X163936Y144399D01*
X158804Y144399D01*
X158714Y144397D01*
X158625Y144391D01*
X158536Y144381D01*
X158448Y144368D01*
X158360Y144350D01*
X158273Y144329D01*
X158187Y144304D01*
X158102Y144275D01*
X158018Y144243D01*
X157936Y144207D01*
X157856Y144167D01*
X157778Y144124D01*
X157701Y144077D01*
X157626Y144028D01*
X157554Y143975D01*
X157484Y143919D01*
X157417Y143860D01*
X157352Y143798D01*
X157290Y143733D01*
X157231Y143666D01*
X157175Y143596D01*
X157122Y143524D01*
X157073Y143449D01*
X157026Y143373D01*
X156983Y143294D01*
X156943Y143214D01*
X156907Y143132D01*
X156875Y143048D01*
X156846Y142963D01*
X156821Y142877D01*
X156800Y142790D01*
X156782Y142703D01*
X156769Y142614D01*
X156759Y142525D01*
X156753Y142436D01*
X156751Y142346D01*
X156751Y139267D01*
X156751Y133046D02*
X163936Y135099D01*
X163936Y129967D01*
X161883Y131507D02*
X165989Y131507D01*
X140537Y137997D02*
X140537Y139536D01*
X140537Y137997D02*
X145669Y137997D01*
X145669Y141076D01*
X145667Y141166D01*
X145661Y141255D01*
X145651Y141344D01*
X145638Y141432D01*
X145620Y141520D01*
X145599Y141607D01*
X145574Y141693D01*
X145545Y141778D01*
X145513Y141862D01*
X145477Y141944D01*
X145437Y142024D01*
X145394Y142103D01*
X145347Y142179D01*
X145298Y142254D01*
X145245Y142326D01*
X145189Y142396D01*
X145130Y142463D01*
X145068Y142528D01*
X145003Y142590D01*
X144936Y142649D01*
X144866Y142705D01*
X144794Y142758D01*
X144719Y142807D01*
X144643Y142854D01*
X144564Y142897D01*
X144484Y142937D01*
X144402Y142973D01*
X144318Y143005D01*
X144233Y143034D01*
X144147Y143059D01*
X144060Y143080D01*
X143972Y143098D01*
X143884Y143111D01*
X143795Y143121D01*
X143706Y143127D01*
X143616Y143129D01*
X138484Y143129D01*
X138394Y143127D01*
X138305Y143121D01*
X138216Y143111D01*
X138128Y143098D01*
X138040Y143080D01*
X137953Y143059D01*
X137867Y143034D01*
X137782Y143005D01*
X137698Y142973D01*
X137616Y142937D01*
X137536Y142897D01*
X137458Y142854D01*
X137381Y142807D01*
X137306Y142758D01*
X137234Y142705D01*
X137164Y142649D01*
X137097Y142590D01*
X137032Y142528D01*
X136970Y142463D01*
X136911Y142396D01*
X136855Y142326D01*
X136802Y142254D01*
X136753Y142179D01*
X136706Y142103D01*
X136663Y142024D01*
X136623Y141944D01*
X136587Y141862D01*
X136555Y141778D01*
X136526Y141693D01*
X136501Y141607D01*
X136480Y141520D01*
X136462Y141433D01*
X136449Y141344D01*
X136439Y141255D01*
X136433Y141166D01*
X136431Y141076D01*
X136431Y137997D01*
X137714Y133059D02*
X137878Y133137D01*
X138044Y133211D01*
X138212Y133280D01*
X138382Y133346D01*
X138553Y133408D01*
X138725Y133465D01*
X138899Y133519D01*
X139074Y133568D01*
X139250Y133613D01*
X139427Y133654D01*
X139605Y133691D01*
X139784Y133723D01*
X139963Y133751D01*
X140143Y133775D01*
X140324Y133794D01*
X140505Y133809D01*
X140687Y133820D01*
X140868Y133827D01*
X141050Y133829D01*
X137714Y133059D02*
X137635Y133030D01*
X137558Y132998D01*
X137482Y132962D01*
X137407Y132923D01*
X137334Y132880D01*
X137264Y132834D01*
X137195Y132786D01*
X137129Y132734D01*
X137065Y132679D01*
X137004Y132622D01*
X136945Y132562D01*
X136888Y132499D01*
X136835Y132434D01*
X136785Y132367D01*
X136737Y132297D01*
X136693Y132226D01*
X136652Y132152D01*
X136614Y132077D01*
X136580Y132000D01*
X136549Y131922D01*
X136522Y131843D01*
X136498Y131762D01*
X136477Y131680D01*
X136461Y131598D01*
X136448Y131515D01*
X136438Y131431D01*
X136433Y131347D01*
X136431Y131263D01*
X136433Y131179D01*
X136438Y131095D01*
X136448Y131011D01*
X136461Y130928D01*
X136477Y130846D01*
X136498Y130764D01*
X136522Y130683D01*
X136549Y130604D01*
X136580Y130526D01*
X136614Y130449D01*
X136652Y130374D01*
X136693Y130300D01*
X136737Y130229D01*
X136785Y130159D01*
X136835Y130092D01*
X136888Y130027D01*
X136945Y129964D01*
X137003Y129904D01*
X137065Y129847D01*
X137129Y129792D01*
X137195Y129740D01*
X137264Y129692D01*
X137334Y129646D01*
X137407Y129603D01*
X137481Y129564D01*
X137558Y129528D01*
X137635Y129496D01*
X137714Y129467D01*
X137714Y129466D02*
X137878Y129388D01*
X138044Y129314D01*
X138212Y129245D01*
X138382Y129179D01*
X138553Y129117D01*
X138725Y129060D01*
X138899Y129006D01*
X139074Y128957D01*
X139250Y128912D01*
X139427Y128871D01*
X139605Y128834D01*
X139784Y128802D01*
X139963Y128774D01*
X140143Y128750D01*
X140324Y128731D01*
X140505Y128716D01*
X140687Y128705D01*
X140868Y128698D01*
X141050Y128696D01*
X141050Y133829D02*
X141232Y133827D01*
X141413Y133820D01*
X141595Y133809D01*
X141776Y133794D01*
X141957Y133775D01*
X142137Y133751D01*
X142316Y133723D01*
X142495Y133691D01*
X142673Y133654D01*
X142850Y133613D01*
X143026Y133568D01*
X143201Y133519D01*
X143375Y133465D01*
X143547Y133408D01*
X143718Y133346D01*
X143888Y133280D01*
X144056Y133211D01*
X144222Y133137D01*
X144386Y133059D01*
X144465Y133030D01*
X144542Y132998D01*
X144619Y132962D01*
X144693Y132923D01*
X144766Y132880D01*
X144836Y132834D01*
X144905Y132786D01*
X144971Y132734D01*
X145035Y132679D01*
X145097Y132622D01*
X145155Y132562D01*
X145212Y132499D01*
X145265Y132434D01*
X145315Y132367D01*
X145363Y132297D01*
X145407Y132226D01*
X145448Y132152D01*
X145486Y132077D01*
X145520Y132000D01*
X145551Y131922D01*
X145578Y131843D01*
X145602Y131762D01*
X145623Y131680D01*
X145639Y131598D01*
X145652Y131515D01*
X145662Y131431D01*
X145667Y131347D01*
X145669Y131263D01*
X144386Y129467D02*
X144222Y129389D01*
X144056Y129315D01*
X143888Y129246D01*
X143718Y129180D01*
X143547Y129118D01*
X143375Y129061D01*
X143201Y129007D01*
X143026Y128958D01*
X142850Y128913D01*
X142673Y128872D01*
X142495Y128835D01*
X142316Y128803D01*
X142137Y128775D01*
X141957Y128751D01*
X141776Y128732D01*
X141595Y128717D01*
X141413Y128706D01*
X141232Y128699D01*
X141050Y128697D01*
X144386Y129467D02*
X144465Y129496D01*
X144542Y129528D01*
X144619Y129564D01*
X144693Y129603D01*
X144766Y129646D01*
X144836Y129692D01*
X144905Y129740D01*
X144971Y129792D01*
X145035Y129847D01*
X145097Y129904D01*
X145155Y129964D01*
X145212Y130027D01*
X145265Y130092D01*
X145315Y130159D01*
X145363Y130229D01*
X145407Y130300D01*
X145448Y130374D01*
X145486Y130449D01*
X145520Y130526D01*
X145551Y130604D01*
X145578Y130683D01*
X145602Y130764D01*
X145623Y130846D01*
X145639Y130928D01*
X145652Y131011D01*
X145662Y131095D01*
X145667Y131179D01*
X145669Y131263D01*
X143616Y133316D02*
X138484Y129210D01*
X122757Y137997D02*
X122757Y139536D01*
X122757Y137997D02*
X127889Y137997D01*
X127889Y141076D01*
X127887Y141166D01*
X127881Y141255D01*
X127871Y141344D01*
X127858Y141432D01*
X127840Y141520D01*
X127819Y141607D01*
X127794Y141693D01*
X127765Y141778D01*
X127733Y141862D01*
X127697Y141944D01*
X127657Y142024D01*
X127614Y142103D01*
X127567Y142179D01*
X127518Y142254D01*
X127465Y142326D01*
X127409Y142396D01*
X127350Y142463D01*
X127288Y142528D01*
X127223Y142590D01*
X127156Y142649D01*
X127086Y142705D01*
X127014Y142758D01*
X126939Y142807D01*
X126863Y142854D01*
X126784Y142897D01*
X126704Y142937D01*
X126622Y142973D01*
X126538Y143005D01*
X126453Y143034D01*
X126367Y143059D01*
X126280Y143080D01*
X126192Y143098D01*
X126104Y143111D01*
X126015Y143121D01*
X125926Y143127D01*
X125836Y143129D01*
X120704Y143129D01*
X120614Y143127D01*
X120525Y143121D01*
X120436Y143111D01*
X120348Y143098D01*
X120260Y143080D01*
X120173Y143059D01*
X120087Y143034D01*
X120002Y143005D01*
X119918Y142973D01*
X119836Y142937D01*
X119756Y142897D01*
X119678Y142854D01*
X119601Y142807D01*
X119526Y142758D01*
X119454Y142705D01*
X119384Y142649D01*
X119317Y142590D01*
X119252Y142528D01*
X119190Y142463D01*
X119131Y142396D01*
X119075Y142326D01*
X119022Y142254D01*
X118973Y142179D01*
X118926Y142103D01*
X118883Y142024D01*
X118843Y141944D01*
X118807Y141862D01*
X118775Y141778D01*
X118746Y141693D01*
X118721Y141607D01*
X118700Y141520D01*
X118682Y141433D01*
X118669Y141344D01*
X118659Y141255D01*
X118653Y141166D01*
X118651Y141076D01*
X118651Y137997D01*
X118651Y131006D02*
X118653Y130910D01*
X118659Y130815D01*
X118669Y130720D01*
X118683Y130626D01*
X118700Y130532D01*
X118722Y130439D01*
X118747Y130347D01*
X118776Y130256D01*
X118809Y130166D01*
X118846Y130078D01*
X118886Y129991D01*
X118929Y129907D01*
X118977Y129824D01*
X119027Y129743D01*
X119081Y129664D01*
X119138Y129587D01*
X119198Y129513D01*
X119262Y129441D01*
X119328Y129373D01*
X119397Y129306D01*
X119468Y129243D01*
X119542Y129183D01*
X119619Y129126D01*
X119698Y129072D01*
X119779Y129022D01*
X119862Y128974D01*
X119946Y128931D01*
X120033Y128891D01*
X120121Y128854D01*
X120211Y128821D01*
X120302Y128792D01*
X120394Y128767D01*
X120487Y128745D01*
X120581Y128728D01*
X120675Y128714D01*
X120770Y128704D01*
X120866Y128698D01*
X120961Y128696D01*
X118651Y131006D02*
X118653Y131112D01*
X118659Y131219D01*
X118668Y131325D01*
X118682Y131431D01*
X118699Y131536D01*
X118720Y131641D01*
X118744Y131744D01*
X118773Y131847D01*
X118805Y131949D01*
X118840Y132049D01*
X118880Y132148D01*
X118923Y132246D01*
X118969Y132342D01*
X119019Y132436D01*
X119072Y132529D01*
X119128Y132619D01*
X119188Y132708D01*
X119250Y132794D01*
X119316Y132878D01*
X119385Y132959D01*
X119456Y133038D01*
X119531Y133115D01*
X119608Y133188D01*
X119688Y133259D01*
X119770Y133327D01*
X119854Y133392D01*
X119941Y133454D01*
X120030Y133512D01*
X120121Y133568D01*
X120214Y133620D01*
X120309Y133669D01*
X120406Y133714D01*
X120504Y133756D01*
X120603Y133794D01*
X120704Y133829D01*
X122757Y129467D02*
X122690Y129399D01*
X122620Y129333D01*
X122547Y129271D01*
X122473Y129211D01*
X122396Y129154D01*
X122317Y129100D01*
X122236Y129050D01*
X122153Y129002D01*
X122068Y128958D01*
X121982Y128917D01*
X121894Y128879D01*
X121805Y128845D01*
X121714Y128814D01*
X121622Y128787D01*
X121530Y128763D01*
X121436Y128743D01*
X121342Y128726D01*
X121247Y128714D01*
X121152Y128704D01*
X121057Y128699D01*
X120961Y128697D01*
X122757Y129467D02*
X127889Y133829D01*
X127889Y128697D01*
X104977Y137997D02*
X104977Y139536D01*
X104977Y137997D02*
X110109Y137997D01*
X110109Y141076D01*
X110107Y141166D01*
X110101Y141255D01*
X110091Y141344D01*
X110078Y141432D01*
X110060Y141520D01*
X110039Y141607D01*
X110014Y141693D01*
X109985Y141778D01*
X109953Y141862D01*
X109917Y141944D01*
X109877Y142024D01*
X109834Y142103D01*
X109787Y142179D01*
X109738Y142254D01*
X109685Y142326D01*
X109629Y142396D01*
X109570Y142463D01*
X109508Y142528D01*
X109443Y142590D01*
X109376Y142649D01*
X109306Y142705D01*
X109234Y142758D01*
X109159Y142807D01*
X109083Y142854D01*
X109004Y142897D01*
X108924Y142937D01*
X108842Y142973D01*
X108758Y143005D01*
X108673Y143034D01*
X108587Y143059D01*
X108500Y143080D01*
X108412Y143098D01*
X108324Y143111D01*
X108235Y143121D01*
X108146Y143127D01*
X108056Y143129D01*
X102924Y143129D01*
X102834Y143127D01*
X102745Y143121D01*
X102656Y143111D01*
X102568Y143098D01*
X102480Y143080D01*
X102393Y143059D01*
X102307Y143034D01*
X102222Y143005D01*
X102138Y142973D01*
X102056Y142937D01*
X101976Y142897D01*
X101898Y142854D01*
X101821Y142807D01*
X101746Y142758D01*
X101674Y142705D01*
X101604Y142649D01*
X101537Y142590D01*
X101472Y142528D01*
X101410Y142463D01*
X101351Y142396D01*
X101295Y142326D01*
X101242Y142254D01*
X101193Y142179D01*
X101146Y142103D01*
X101103Y142024D01*
X101063Y141944D01*
X101027Y141862D01*
X100995Y141778D01*
X100966Y141693D01*
X100941Y141607D01*
X100920Y141520D01*
X100902Y141433D01*
X100889Y141344D01*
X100879Y141255D01*
X100873Y141166D01*
X100871Y141076D01*
X100871Y137997D01*
X107543Y133829D02*
X107444Y133827D01*
X107344Y133821D01*
X107245Y133812D01*
X107147Y133798D01*
X107049Y133781D01*
X106951Y133760D01*
X106855Y133735D01*
X106760Y133706D01*
X106665Y133674D01*
X106573Y133638D01*
X106481Y133599D01*
X106391Y133556D01*
X106303Y133510D01*
X106217Y133460D01*
X106133Y133407D01*
X106051Y133351D01*
X105971Y133291D01*
X105894Y133229D01*
X105819Y133163D01*
X105746Y133095D01*
X105677Y133024D01*
X105610Y132950D01*
X105546Y132874D01*
X105485Y132795D01*
X105427Y132714D01*
X105372Y132631D01*
X105321Y132546D01*
X105273Y132459D01*
X105228Y132370D01*
X105187Y132279D01*
X105149Y132187D01*
X105115Y132094D01*
X105085Y131999D01*
X105058Y131903D01*
X105035Y131806D01*
X105016Y131709D01*
X105001Y131610D01*
X104989Y131511D01*
X104981Y131412D01*
X104977Y131313D01*
X104977Y131213D01*
X104981Y131114D01*
X104989Y131015D01*
X105001Y130916D01*
X105016Y130817D01*
X105035Y130720D01*
X105058Y130623D01*
X105085Y130527D01*
X105115Y130432D01*
X105149Y130339D01*
X105187Y130247D01*
X105228Y130156D01*
X105273Y130067D01*
X105321Y129980D01*
X105372Y129895D01*
X105427Y129812D01*
X105485Y129731D01*
X105546Y129652D01*
X105610Y129576D01*
X105677Y129502D01*
X105746Y129431D01*
X105819Y129363D01*
X105894Y129297D01*
X105971Y129235D01*
X106051Y129175D01*
X106133Y129119D01*
X106217Y129066D01*
X106303Y129016D01*
X106391Y128970D01*
X106481Y128927D01*
X106573Y128888D01*
X106665Y128852D01*
X106760Y128820D01*
X106855Y128791D01*
X106951Y128766D01*
X107049Y128745D01*
X107147Y128728D01*
X107245Y128714D01*
X107344Y128705D01*
X107444Y128699D01*
X107543Y128697D01*
X107642Y128699D01*
X107742Y128705D01*
X107841Y128714D01*
X107939Y128728D01*
X108037Y128745D01*
X108135Y128766D01*
X108231Y128791D01*
X108326Y128820D01*
X108421Y128852D01*
X108513Y128888D01*
X108605Y128927D01*
X108695Y128970D01*
X108783Y129016D01*
X108869Y129066D01*
X108953Y129119D01*
X109035Y129175D01*
X109115Y129235D01*
X109192Y129297D01*
X109267Y129363D01*
X109340Y129431D01*
X109409Y129502D01*
X109476Y129576D01*
X109540Y129652D01*
X109601Y129731D01*
X109659Y129812D01*
X109714Y129895D01*
X109765Y129980D01*
X109813Y130067D01*
X109858Y130156D01*
X109899Y130247D01*
X109937Y130339D01*
X109971Y130432D01*
X110001Y130527D01*
X110028Y130623D01*
X110051Y130720D01*
X110070Y130817D01*
X110085Y130916D01*
X110097Y131015D01*
X110105Y131114D01*
X110109Y131213D01*
X110109Y131313D01*
X110105Y131412D01*
X110097Y131511D01*
X110085Y131610D01*
X110070Y131709D01*
X110051Y131806D01*
X110028Y131903D01*
X110001Y131999D01*
X109971Y132094D01*
X109937Y132187D01*
X109899Y132279D01*
X109858Y132370D01*
X109813Y132459D01*
X109765Y132546D01*
X109714Y132631D01*
X109659Y132714D01*
X109601Y132795D01*
X109540Y132874D01*
X109476Y132950D01*
X109409Y133024D01*
X109340Y133095D01*
X109267Y133163D01*
X109192Y133229D01*
X109115Y133291D01*
X109035Y133351D01*
X108953Y133407D01*
X108869Y133460D01*
X108783Y133510D01*
X108695Y133556D01*
X108605Y133599D01*
X108513Y133638D01*
X108421Y133674D01*
X108326Y133706D01*
X108231Y133735D01*
X108135Y133760D01*
X108037Y133781D01*
X107939Y133798D01*
X107841Y133812D01*
X107742Y133821D01*
X107642Y133827D01*
X107543Y133829D01*
X102924Y133316D02*
X102834Y133314D01*
X102745Y133308D01*
X102656Y133298D01*
X102568Y133285D01*
X102480Y133267D01*
X102393Y133246D01*
X102307Y133221D01*
X102222Y133192D01*
X102138Y133160D01*
X102056Y133124D01*
X101976Y133084D01*
X101898Y133041D01*
X101821Y132994D01*
X101746Y132945D01*
X101674Y132892D01*
X101604Y132836D01*
X101537Y132777D01*
X101472Y132715D01*
X101410Y132650D01*
X101351Y132583D01*
X101295Y132513D01*
X101242Y132441D01*
X101193Y132366D01*
X101146Y132290D01*
X101103Y132211D01*
X101063Y132131D01*
X101027Y132049D01*
X100995Y131965D01*
X100966Y131880D01*
X100941Y131794D01*
X100920Y131707D01*
X100902Y131619D01*
X100889Y131531D01*
X100879Y131442D01*
X100873Y131353D01*
X100871Y131263D01*
X100873Y131173D01*
X100879Y131084D01*
X100889Y130995D01*
X100902Y130907D01*
X100920Y130819D01*
X100941Y130732D01*
X100966Y130646D01*
X100995Y130561D01*
X101027Y130477D01*
X101063Y130395D01*
X101103Y130315D01*
X101146Y130237D01*
X101193Y130160D01*
X101242Y130085D01*
X101295Y130013D01*
X101351Y129943D01*
X101410Y129876D01*
X101472Y129811D01*
X101537Y129749D01*
X101604Y129690D01*
X101674Y129634D01*
X101746Y129581D01*
X101821Y129532D01*
X101898Y129485D01*
X101976Y129442D01*
X102056Y129402D01*
X102138Y129366D01*
X102222Y129334D01*
X102307Y129305D01*
X102393Y129280D01*
X102480Y129259D01*
X102568Y129241D01*
X102656Y129228D01*
X102745Y129218D01*
X102834Y129212D01*
X102924Y129210D01*
X103014Y129212D01*
X103103Y129218D01*
X103192Y129228D01*
X103280Y129241D01*
X103368Y129259D01*
X103455Y129280D01*
X103541Y129305D01*
X103626Y129334D01*
X103710Y129366D01*
X103792Y129402D01*
X103872Y129442D01*
X103951Y129485D01*
X104027Y129532D01*
X104102Y129581D01*
X104174Y129634D01*
X104244Y129690D01*
X104311Y129749D01*
X104376Y129811D01*
X104438Y129876D01*
X104497Y129943D01*
X104553Y130013D01*
X104606Y130085D01*
X104655Y130160D01*
X104702Y130237D01*
X104745Y130315D01*
X104785Y130395D01*
X104821Y130477D01*
X104853Y130561D01*
X104882Y130646D01*
X104907Y130732D01*
X104928Y130819D01*
X104946Y130907D01*
X104959Y130995D01*
X104969Y131084D01*
X104975Y131173D01*
X104977Y131263D01*
X104975Y131353D01*
X104969Y131442D01*
X104959Y131531D01*
X104946Y131619D01*
X104928Y131707D01*
X104907Y131794D01*
X104882Y131880D01*
X104853Y131965D01*
X104821Y132049D01*
X104785Y132131D01*
X104745Y132211D01*
X104702Y132290D01*
X104655Y132366D01*
X104606Y132441D01*
X104553Y132513D01*
X104497Y132583D01*
X104438Y132650D01*
X104376Y132715D01*
X104311Y132777D01*
X104244Y132836D01*
X104174Y132892D01*
X104102Y132945D01*
X104027Y132994D01*
X103951Y133041D01*
X103872Y133084D01*
X103792Y133124D01*
X103710Y133160D01*
X103626Y133192D01*
X103541Y133221D01*
X103455Y133246D01*
X103368Y133267D01*
X103280Y133285D01*
X103192Y133298D01*
X103103Y133308D01*
X103014Y133314D01*
X102924Y133316D01*
X84657Y137997D02*
X84657Y139536D01*
X84657Y137997D02*
X89789Y137997D01*
X89789Y141076D01*
X89787Y141166D01*
X89781Y141255D01*
X89771Y141344D01*
X89758Y141432D01*
X89740Y141520D01*
X89719Y141607D01*
X89694Y141693D01*
X89665Y141778D01*
X89633Y141862D01*
X89597Y141944D01*
X89557Y142024D01*
X89514Y142103D01*
X89467Y142179D01*
X89418Y142254D01*
X89365Y142326D01*
X89309Y142396D01*
X89250Y142463D01*
X89188Y142528D01*
X89123Y142590D01*
X89056Y142649D01*
X88986Y142705D01*
X88914Y142758D01*
X88839Y142807D01*
X88763Y142854D01*
X88684Y142897D01*
X88604Y142937D01*
X88522Y142973D01*
X88438Y143005D01*
X88353Y143034D01*
X88267Y143059D01*
X88180Y143080D01*
X88092Y143098D01*
X88004Y143111D01*
X87915Y143121D01*
X87826Y143127D01*
X87736Y143129D01*
X82604Y143129D01*
X82514Y143127D01*
X82425Y143121D01*
X82336Y143111D01*
X82248Y143098D01*
X82160Y143080D01*
X82073Y143059D01*
X81987Y143034D01*
X81902Y143005D01*
X81818Y142973D01*
X81736Y142937D01*
X81656Y142897D01*
X81578Y142854D01*
X81501Y142807D01*
X81426Y142758D01*
X81354Y142705D01*
X81284Y142649D01*
X81217Y142590D01*
X81152Y142528D01*
X81090Y142463D01*
X81031Y142396D01*
X80975Y142326D01*
X80922Y142254D01*
X80873Y142179D01*
X80826Y142103D01*
X80783Y142024D01*
X80743Y141944D01*
X80707Y141862D01*
X80675Y141778D01*
X80646Y141693D01*
X80621Y141607D01*
X80600Y141520D01*
X80582Y141433D01*
X80569Y141344D01*
X80559Y141255D01*
X80553Y141166D01*
X80551Y141076D01*
X80551Y137997D01*
X80551Y133829D02*
X81577Y133829D01*
X80551Y133829D02*
X80551Y128697D01*
X89789Y131263D01*
X64337Y137997D02*
X64337Y139536D01*
X64337Y137997D02*
X69469Y137997D01*
X69469Y141076D01*
X69467Y141166D01*
X69461Y141255D01*
X69451Y141344D01*
X69438Y141432D01*
X69420Y141520D01*
X69399Y141607D01*
X69374Y141693D01*
X69345Y141778D01*
X69313Y141862D01*
X69277Y141944D01*
X69237Y142024D01*
X69194Y142103D01*
X69147Y142179D01*
X69098Y142254D01*
X69045Y142326D01*
X68989Y142396D01*
X68930Y142463D01*
X68868Y142528D01*
X68803Y142590D01*
X68736Y142649D01*
X68666Y142705D01*
X68594Y142758D01*
X68519Y142807D01*
X68443Y142854D01*
X68364Y142897D01*
X68284Y142937D01*
X68202Y142973D01*
X68118Y143005D01*
X68033Y143034D01*
X67947Y143059D01*
X67860Y143080D01*
X67772Y143098D01*
X67684Y143111D01*
X67595Y143121D01*
X67506Y143127D01*
X67416Y143129D01*
X62284Y143129D01*
X62194Y143127D01*
X62105Y143121D01*
X62016Y143111D01*
X61928Y143098D01*
X61840Y143080D01*
X61753Y143059D01*
X61667Y143034D01*
X61582Y143005D01*
X61498Y142973D01*
X61416Y142937D01*
X61336Y142897D01*
X61258Y142854D01*
X61181Y142807D01*
X61106Y142758D01*
X61034Y142705D01*
X60964Y142649D01*
X60897Y142590D01*
X60832Y142528D01*
X60770Y142463D01*
X60711Y142396D01*
X60655Y142326D01*
X60602Y142254D01*
X60553Y142179D01*
X60506Y142103D01*
X60463Y142024D01*
X60423Y141944D01*
X60387Y141862D01*
X60355Y141778D01*
X60326Y141693D01*
X60301Y141607D01*
X60280Y141520D01*
X60262Y141433D01*
X60249Y141344D01*
X60239Y141255D01*
X60233Y141166D01*
X60231Y141076D01*
X60231Y137997D01*
X64337Y133829D02*
X64337Y130750D01*
X64339Y130660D01*
X64345Y130571D01*
X64355Y130482D01*
X64368Y130394D01*
X64386Y130306D01*
X64407Y130219D01*
X64432Y130133D01*
X64461Y130048D01*
X64493Y129964D01*
X64529Y129882D01*
X64569Y129802D01*
X64612Y129724D01*
X64659Y129647D01*
X64708Y129572D01*
X64761Y129500D01*
X64817Y129430D01*
X64876Y129363D01*
X64938Y129298D01*
X65003Y129236D01*
X65070Y129177D01*
X65140Y129121D01*
X65212Y129068D01*
X65287Y129019D01*
X65364Y128972D01*
X65442Y128929D01*
X65522Y128889D01*
X65604Y128853D01*
X65688Y128821D01*
X65773Y128792D01*
X65859Y128767D01*
X65946Y128746D01*
X66034Y128728D01*
X66122Y128715D01*
X66211Y128705D01*
X66300Y128699D01*
X66390Y128697D01*
X66903Y128697D01*
X67002Y128699D01*
X67102Y128705D01*
X67201Y128714D01*
X67299Y128728D01*
X67397Y128745D01*
X67495Y128766D01*
X67591Y128791D01*
X67686Y128820D01*
X67781Y128852D01*
X67873Y128888D01*
X67965Y128927D01*
X68055Y128970D01*
X68143Y129016D01*
X68229Y129066D01*
X68313Y129119D01*
X68395Y129175D01*
X68475Y129235D01*
X68552Y129297D01*
X68627Y129363D01*
X68700Y129431D01*
X68769Y129502D01*
X68836Y129576D01*
X68900Y129652D01*
X68961Y129731D01*
X69019Y129812D01*
X69074Y129895D01*
X69125Y129980D01*
X69173Y130067D01*
X69218Y130156D01*
X69259Y130247D01*
X69297Y130339D01*
X69331Y130432D01*
X69361Y130527D01*
X69388Y130623D01*
X69411Y130720D01*
X69430Y130817D01*
X69445Y130916D01*
X69457Y131015D01*
X69465Y131114D01*
X69469Y131213D01*
X69469Y131313D01*
X69465Y131412D01*
X69457Y131511D01*
X69445Y131610D01*
X69430Y131709D01*
X69411Y131806D01*
X69388Y131903D01*
X69361Y131999D01*
X69331Y132094D01*
X69297Y132187D01*
X69259Y132279D01*
X69218Y132370D01*
X69173Y132459D01*
X69125Y132546D01*
X69074Y132631D01*
X69019Y132714D01*
X68961Y132795D01*
X68900Y132874D01*
X68836Y132950D01*
X68769Y133024D01*
X68700Y133095D01*
X68627Y133163D01*
X68552Y133229D01*
X68475Y133291D01*
X68395Y133351D01*
X68313Y133407D01*
X68229Y133460D01*
X68143Y133510D01*
X68055Y133556D01*
X67965Y133599D01*
X67873Y133638D01*
X67781Y133674D01*
X67686Y133706D01*
X67591Y133735D01*
X67495Y133760D01*
X67397Y133781D01*
X67299Y133798D01*
X67201Y133812D01*
X67102Y133821D01*
X67002Y133827D01*
X66903Y133829D01*
X64337Y133829D01*
X64211Y133827D01*
X64084Y133821D01*
X63958Y133811D01*
X63832Y133798D01*
X63707Y133780D01*
X63583Y133759D01*
X63459Y133734D01*
X63335Y133705D01*
X63213Y133672D01*
X63092Y133636D01*
X62972Y133596D01*
X62854Y133552D01*
X62737Y133504D01*
X62621Y133453D01*
X62507Y133399D01*
X62394Y133340D01*
X62284Y133279D01*
X62175Y133214D01*
X62069Y133146D01*
X61965Y133074D01*
X61863Y133000D01*
X61763Y132922D01*
X61666Y132841D01*
X61571Y132757D01*
X61479Y132671D01*
X61389Y132581D01*
X61303Y132489D01*
X61219Y132394D01*
X61138Y132297D01*
X61060Y132197D01*
X60986Y132095D01*
X60914Y131991D01*
X60846Y131885D01*
X60781Y131776D01*
X60720Y131666D01*
X60661Y131553D01*
X60607Y131439D01*
X60556Y131324D01*
X60508Y131206D01*
X60464Y131088D01*
X60424Y130968D01*
X60388Y130847D01*
X60355Y130725D01*
X60326Y130601D01*
X60301Y130478D01*
X60280Y130353D01*
X60262Y130228D01*
X60249Y130102D01*
X60239Y129976D01*
X60233Y129850D01*
X60231Y129723D01*
D10*
X242570Y135890D02*
X252730Y135890D01*
X252730Y97790D01*
X243840Y97790D01*
D11*
X257081Y110083D02*
X259134Y112649D01*
X257081Y110083D02*
X266319Y110083D01*
X266319Y112649D02*
X266319Y107517D01*
X262213Y101596D02*
X262213Y98517D01*
X262213Y101596D02*
X262211Y101686D01*
X262205Y101775D01*
X262195Y101864D01*
X262182Y101952D01*
X262164Y102040D01*
X262143Y102127D01*
X262118Y102213D01*
X262089Y102298D01*
X262057Y102382D01*
X262021Y102464D01*
X261981Y102544D01*
X261938Y102623D01*
X261891Y102699D01*
X261842Y102774D01*
X261789Y102846D01*
X261733Y102916D01*
X261674Y102983D01*
X261612Y103048D01*
X261547Y103110D01*
X261480Y103169D01*
X261410Y103225D01*
X261338Y103278D01*
X261263Y103327D01*
X261187Y103374D01*
X261108Y103417D01*
X261028Y103457D01*
X260946Y103493D01*
X260862Y103525D01*
X260777Y103554D01*
X260691Y103579D01*
X260604Y103600D01*
X260516Y103618D01*
X260428Y103631D01*
X260339Y103641D01*
X260250Y103647D01*
X260160Y103649D01*
X259647Y103649D01*
X259548Y103647D01*
X259448Y103641D01*
X259349Y103632D01*
X259251Y103618D01*
X259153Y103601D01*
X259055Y103580D01*
X258959Y103555D01*
X258864Y103526D01*
X258769Y103494D01*
X258677Y103458D01*
X258585Y103419D01*
X258495Y103376D01*
X258407Y103330D01*
X258321Y103280D01*
X258237Y103227D01*
X258155Y103171D01*
X258075Y103111D01*
X257998Y103049D01*
X257923Y102983D01*
X257850Y102915D01*
X257781Y102844D01*
X257714Y102770D01*
X257650Y102694D01*
X257589Y102615D01*
X257531Y102534D01*
X257476Y102451D01*
X257425Y102366D01*
X257377Y102279D01*
X257332Y102190D01*
X257291Y102099D01*
X257253Y102007D01*
X257219Y101914D01*
X257189Y101819D01*
X257162Y101723D01*
X257139Y101626D01*
X257120Y101529D01*
X257105Y101430D01*
X257093Y101331D01*
X257085Y101232D01*
X257081Y101133D01*
X257081Y101033D01*
X257085Y100934D01*
X257093Y100835D01*
X257105Y100736D01*
X257120Y100637D01*
X257139Y100540D01*
X257162Y100443D01*
X257189Y100347D01*
X257219Y100252D01*
X257253Y100159D01*
X257291Y100067D01*
X257332Y99976D01*
X257377Y99887D01*
X257425Y99800D01*
X257476Y99715D01*
X257531Y99632D01*
X257589Y99551D01*
X257650Y99472D01*
X257714Y99396D01*
X257781Y99322D01*
X257850Y99251D01*
X257923Y99183D01*
X257998Y99117D01*
X258075Y99055D01*
X258155Y98995D01*
X258237Y98939D01*
X258321Y98886D01*
X258407Y98836D01*
X258495Y98790D01*
X258585Y98747D01*
X258677Y98708D01*
X258769Y98672D01*
X258864Y98640D01*
X258959Y98611D01*
X259055Y98586D01*
X259153Y98565D01*
X259251Y98548D01*
X259349Y98534D01*
X259448Y98525D01*
X259548Y98519D01*
X259647Y98517D01*
X262213Y98517D01*
X262339Y98519D01*
X262466Y98525D01*
X262592Y98535D01*
X262718Y98548D01*
X262843Y98566D01*
X262967Y98587D01*
X263091Y98612D01*
X263215Y98641D01*
X263337Y98674D01*
X263458Y98710D01*
X263578Y98750D01*
X263696Y98794D01*
X263813Y98842D01*
X263929Y98893D01*
X264043Y98947D01*
X264156Y99006D01*
X264266Y99067D01*
X264375Y99132D01*
X264481Y99200D01*
X264585Y99272D01*
X264687Y99346D01*
X264787Y99424D01*
X264884Y99505D01*
X264979Y99589D01*
X265071Y99675D01*
X265161Y99765D01*
X265247Y99857D01*
X265331Y99952D01*
X265412Y100049D01*
X265490Y100149D01*
X265564Y100251D01*
X265636Y100355D01*
X265704Y100461D01*
X265769Y100570D01*
X265830Y100680D01*
X265889Y100793D01*
X265943Y100907D01*
X265994Y101023D01*
X266042Y101140D01*
X266086Y101258D01*
X266126Y101378D01*
X266162Y101499D01*
X266195Y101622D01*
X266224Y101745D01*
X266249Y101869D01*
X266270Y101993D01*
X266288Y102118D01*
X266301Y102244D01*
X266311Y102370D01*
X266317Y102497D01*
X266319Y102623D01*
X259391Y131646D02*
X259296Y131648D01*
X259200Y131654D01*
X259105Y131664D01*
X259011Y131678D01*
X258917Y131695D01*
X258824Y131717D01*
X258732Y131742D01*
X258641Y131771D01*
X258551Y131804D01*
X258463Y131841D01*
X258376Y131881D01*
X258292Y131924D01*
X258209Y131972D01*
X258128Y132022D01*
X258049Y132076D01*
X257972Y132133D01*
X257898Y132193D01*
X257827Y132256D01*
X257758Y132323D01*
X257692Y132391D01*
X257628Y132463D01*
X257568Y132537D01*
X257511Y132614D01*
X257457Y132693D01*
X257407Y132774D01*
X257359Y132857D01*
X257316Y132941D01*
X257276Y133028D01*
X257239Y133116D01*
X257206Y133206D01*
X257177Y133297D01*
X257152Y133389D01*
X257130Y133482D01*
X257113Y133576D01*
X257099Y133670D01*
X257089Y133765D01*
X257083Y133860D01*
X257081Y133956D01*
X257083Y134062D01*
X257089Y134169D01*
X257098Y134275D01*
X257112Y134381D01*
X257129Y134486D01*
X257150Y134591D01*
X257174Y134694D01*
X257203Y134797D01*
X257235Y134899D01*
X257270Y134999D01*
X257310Y135098D01*
X257353Y135196D01*
X257399Y135292D01*
X257449Y135386D01*
X257502Y135479D01*
X257558Y135569D01*
X257618Y135658D01*
X257680Y135744D01*
X257746Y135828D01*
X257815Y135909D01*
X257886Y135988D01*
X257961Y136065D01*
X258038Y136138D01*
X258118Y136209D01*
X258200Y136277D01*
X258284Y136342D01*
X258371Y136404D01*
X258460Y136462D01*
X258551Y136518D01*
X258644Y136570D01*
X258739Y136619D01*
X258836Y136664D01*
X258934Y136706D01*
X259033Y136744D01*
X259134Y136779D01*
X261187Y132417D02*
X261120Y132349D01*
X261050Y132283D01*
X260977Y132221D01*
X260903Y132161D01*
X260826Y132104D01*
X260747Y132050D01*
X260666Y132000D01*
X260583Y131952D01*
X260498Y131908D01*
X260412Y131867D01*
X260324Y131829D01*
X260235Y131795D01*
X260144Y131764D01*
X260052Y131737D01*
X259960Y131713D01*
X259866Y131693D01*
X259772Y131676D01*
X259677Y131664D01*
X259582Y131654D01*
X259487Y131649D01*
X259391Y131647D01*
X261187Y132417D02*
X266319Y136779D01*
X266319Y131647D01*
X261700Y127779D02*
X261518Y127777D01*
X261337Y127770D01*
X261155Y127759D01*
X260974Y127744D01*
X260793Y127725D01*
X260613Y127701D01*
X260434Y127673D01*
X260255Y127641D01*
X260077Y127604D01*
X259900Y127563D01*
X259724Y127518D01*
X259549Y127469D01*
X259375Y127415D01*
X259203Y127358D01*
X259032Y127296D01*
X258862Y127230D01*
X258694Y127161D01*
X258528Y127087D01*
X258364Y127009D01*
X258285Y126980D01*
X258208Y126948D01*
X258132Y126912D01*
X258057Y126873D01*
X257984Y126830D01*
X257914Y126784D01*
X257845Y126736D01*
X257779Y126684D01*
X257715Y126629D01*
X257654Y126572D01*
X257595Y126512D01*
X257538Y126449D01*
X257485Y126384D01*
X257435Y126317D01*
X257387Y126247D01*
X257343Y126176D01*
X257302Y126102D01*
X257264Y126027D01*
X257230Y125950D01*
X257199Y125872D01*
X257172Y125793D01*
X257148Y125712D01*
X257127Y125630D01*
X257111Y125548D01*
X257098Y125465D01*
X257088Y125381D01*
X257083Y125297D01*
X257081Y125213D01*
X257083Y125129D01*
X257088Y125045D01*
X257098Y124961D01*
X257111Y124878D01*
X257127Y124796D01*
X257148Y124714D01*
X257172Y124633D01*
X257199Y124554D01*
X257230Y124476D01*
X257264Y124399D01*
X257302Y124324D01*
X257343Y124250D01*
X257387Y124179D01*
X257435Y124109D01*
X257485Y124042D01*
X257538Y123977D01*
X257595Y123914D01*
X257653Y123854D01*
X257715Y123797D01*
X257779Y123742D01*
X257845Y123690D01*
X257914Y123642D01*
X257984Y123596D01*
X258057Y123553D01*
X258131Y123514D01*
X258208Y123478D01*
X258285Y123446D01*
X258364Y123417D01*
X258364Y123416D02*
X258528Y123338D01*
X258694Y123264D01*
X258862Y123195D01*
X259032Y123129D01*
X259203Y123067D01*
X259375Y123010D01*
X259549Y122956D01*
X259724Y122907D01*
X259900Y122862D01*
X260077Y122821D01*
X260255Y122784D01*
X260434Y122752D01*
X260613Y122724D01*
X260793Y122700D01*
X260974Y122681D01*
X261155Y122666D01*
X261337Y122655D01*
X261518Y122648D01*
X261700Y122646D01*
X261700Y127779D02*
X261882Y127777D01*
X262063Y127770D01*
X262245Y127759D01*
X262426Y127744D01*
X262607Y127725D01*
X262787Y127701D01*
X262966Y127673D01*
X263145Y127641D01*
X263323Y127604D01*
X263500Y127563D01*
X263676Y127518D01*
X263851Y127469D01*
X264025Y127415D01*
X264197Y127358D01*
X264368Y127296D01*
X264538Y127230D01*
X264706Y127161D01*
X264872Y127087D01*
X265036Y127009D01*
X265115Y126980D01*
X265192Y126948D01*
X265269Y126912D01*
X265343Y126873D01*
X265416Y126830D01*
X265486Y126784D01*
X265555Y126736D01*
X265621Y126684D01*
X265685Y126629D01*
X265747Y126572D01*
X265805Y126512D01*
X265862Y126449D01*
X265915Y126384D01*
X265965Y126317D01*
X266013Y126247D01*
X266057Y126176D01*
X266098Y126102D01*
X266136Y126027D01*
X266170Y125950D01*
X266201Y125872D01*
X266228Y125793D01*
X266252Y125712D01*
X266273Y125630D01*
X266289Y125548D01*
X266302Y125465D01*
X266312Y125381D01*
X266317Y125297D01*
X266319Y125213D01*
X265036Y123417D02*
X264872Y123339D01*
X264706Y123265D01*
X264538Y123196D01*
X264368Y123130D01*
X264197Y123068D01*
X264025Y123011D01*
X263851Y122957D01*
X263676Y122908D01*
X263500Y122863D01*
X263323Y122822D01*
X263145Y122785D01*
X262966Y122753D01*
X262787Y122725D01*
X262607Y122701D01*
X262426Y122682D01*
X262245Y122667D01*
X262063Y122656D01*
X261882Y122649D01*
X261700Y122647D01*
X265036Y123417D02*
X265115Y123446D01*
X265192Y123478D01*
X265269Y123514D01*
X265343Y123553D01*
X265416Y123596D01*
X265486Y123642D01*
X265555Y123690D01*
X265621Y123742D01*
X265685Y123797D01*
X265747Y123854D01*
X265805Y123914D01*
X265862Y123977D01*
X265915Y124042D01*
X265965Y124109D01*
X266013Y124179D01*
X266057Y124250D01*
X266098Y124324D01*
X266136Y124399D01*
X266170Y124476D01*
X266201Y124554D01*
X266228Y124633D01*
X266252Y124714D01*
X266273Y124796D01*
X266289Y124878D01*
X266302Y124961D01*
X266312Y125045D01*
X266317Y125129D01*
X266319Y125213D01*
X264266Y127266D02*
X259134Y123160D01*
D10*
X54610Y135890D02*
X43180Y135890D01*
X43180Y97790D01*
X53340Y97790D01*
D11*
X31804Y110109D02*
X29751Y107543D01*
X38989Y107543D01*
X38989Y110109D02*
X38989Y104977D01*
X30791Y129106D02*
X30696Y129108D01*
X30600Y129114D01*
X30505Y129124D01*
X30411Y129138D01*
X30317Y129155D01*
X30224Y129177D01*
X30132Y129202D01*
X30041Y129231D01*
X29951Y129264D01*
X29863Y129301D01*
X29776Y129341D01*
X29692Y129384D01*
X29609Y129432D01*
X29528Y129482D01*
X29449Y129536D01*
X29372Y129593D01*
X29298Y129653D01*
X29227Y129716D01*
X29158Y129783D01*
X29092Y129851D01*
X29028Y129923D01*
X28968Y129997D01*
X28911Y130074D01*
X28857Y130153D01*
X28807Y130234D01*
X28759Y130317D01*
X28716Y130401D01*
X28676Y130488D01*
X28639Y130576D01*
X28606Y130666D01*
X28577Y130757D01*
X28552Y130849D01*
X28530Y130942D01*
X28513Y131036D01*
X28499Y131130D01*
X28489Y131225D01*
X28483Y131320D01*
X28481Y131416D01*
X28483Y131522D01*
X28489Y131629D01*
X28498Y131735D01*
X28512Y131841D01*
X28529Y131946D01*
X28550Y132051D01*
X28574Y132154D01*
X28603Y132257D01*
X28635Y132359D01*
X28670Y132459D01*
X28710Y132558D01*
X28753Y132656D01*
X28799Y132752D01*
X28849Y132846D01*
X28902Y132939D01*
X28958Y133029D01*
X29018Y133118D01*
X29080Y133204D01*
X29146Y133288D01*
X29215Y133369D01*
X29286Y133448D01*
X29361Y133525D01*
X29438Y133598D01*
X29518Y133669D01*
X29600Y133737D01*
X29684Y133802D01*
X29771Y133864D01*
X29860Y133922D01*
X29951Y133978D01*
X30044Y134030D01*
X30139Y134079D01*
X30236Y134124D01*
X30334Y134166D01*
X30433Y134204D01*
X30534Y134239D01*
X32587Y129877D02*
X32520Y129809D01*
X32450Y129743D01*
X32377Y129681D01*
X32303Y129621D01*
X32226Y129564D01*
X32147Y129510D01*
X32066Y129460D01*
X31983Y129412D01*
X31898Y129368D01*
X31812Y129327D01*
X31724Y129289D01*
X31635Y129255D01*
X31544Y129224D01*
X31452Y129197D01*
X31360Y129173D01*
X31266Y129153D01*
X31172Y129136D01*
X31077Y129124D01*
X30982Y129114D01*
X30887Y129109D01*
X30791Y129107D01*
X32587Y129877D02*
X37719Y134239D01*
X37719Y129107D01*
D12*
X392657Y229259D02*
X398245Y229259D01*
X395451Y226465D02*
X395451Y232053D01*
X388025Y225999D02*
X385231Y225999D01*
X385147Y226001D01*
X385064Y226006D01*
X384981Y226016D01*
X384898Y226029D01*
X384816Y226046D01*
X384735Y226066D01*
X384655Y226090D01*
X384576Y226118D01*
X384499Y226149D01*
X384423Y226183D01*
X384348Y226221D01*
X384275Y226263D01*
X384205Y226307D01*
X384136Y226355D01*
X384069Y226405D01*
X384005Y226459D01*
X383944Y226515D01*
X383884Y226575D01*
X383828Y226636D01*
X383774Y226700D01*
X383724Y226767D01*
X383676Y226836D01*
X383632Y226906D01*
X383590Y226979D01*
X383552Y227054D01*
X383518Y227130D01*
X383487Y227207D01*
X383459Y227286D01*
X383435Y227366D01*
X383415Y227447D01*
X383398Y227529D01*
X383385Y227612D01*
X383375Y227695D01*
X383370Y227778D01*
X383368Y227862D01*
X383369Y227862D02*
X383369Y228793D01*
X383368Y228793D02*
X383370Y228877D01*
X383376Y228960D01*
X383385Y229043D01*
X383398Y229126D01*
X383415Y229208D01*
X383435Y229289D01*
X383459Y229369D01*
X383487Y229448D01*
X383518Y229525D01*
X383552Y229601D01*
X383590Y229676D01*
X383632Y229749D01*
X383676Y229819D01*
X383724Y229888D01*
X383774Y229955D01*
X383828Y230019D01*
X383884Y230080D01*
X383944Y230140D01*
X384005Y230196D01*
X384069Y230250D01*
X384136Y230300D01*
X384205Y230348D01*
X384275Y230392D01*
X384348Y230434D01*
X384423Y230472D01*
X384499Y230506D01*
X384576Y230537D01*
X384655Y230565D01*
X384735Y230589D01*
X384816Y230609D01*
X384898Y230626D01*
X384981Y230639D01*
X385064Y230649D01*
X385147Y230654D01*
X385231Y230656D01*
X388025Y230656D01*
X388025Y234381D01*
X383369Y234381D01*
X379347Y234381D02*
X376553Y225999D01*
X373759Y234381D01*
X416592Y181126D02*
X417989Y181126D01*
X416592Y181126D02*
X416592Y176469D01*
X419386Y176469D01*
X419470Y176471D01*
X419553Y176477D01*
X419636Y176486D01*
X419719Y176499D01*
X419801Y176516D01*
X419882Y176536D01*
X419962Y176560D01*
X420041Y176588D01*
X420118Y176619D01*
X420194Y176653D01*
X420269Y176691D01*
X420342Y176733D01*
X420412Y176777D01*
X420481Y176825D01*
X420548Y176875D01*
X420612Y176929D01*
X420673Y176985D01*
X420733Y177045D01*
X420789Y177106D01*
X420843Y177170D01*
X420893Y177237D01*
X420941Y177306D01*
X420985Y177376D01*
X421027Y177449D01*
X421065Y177524D01*
X421099Y177600D01*
X421130Y177677D01*
X421158Y177756D01*
X421182Y177836D01*
X421202Y177917D01*
X421219Y177999D01*
X421232Y178082D01*
X421242Y178165D01*
X421247Y178248D01*
X421249Y178332D01*
X421248Y178332D02*
X421248Y182988D01*
X421249Y182988D02*
X421247Y183074D01*
X421241Y183160D01*
X421231Y183245D01*
X421217Y183330D01*
X421200Y183415D01*
X421178Y183498D01*
X421152Y183580D01*
X421123Y183661D01*
X421090Y183740D01*
X421054Y183818D01*
X421014Y183895D01*
X420970Y183969D01*
X420923Y184041D01*
X420873Y184111D01*
X420819Y184178D01*
X420763Y184243D01*
X420703Y184305D01*
X420641Y184365D01*
X420576Y184421D01*
X420509Y184475D01*
X420439Y184525D01*
X420367Y184572D01*
X420293Y184616D01*
X420216Y184656D01*
X420139Y184692D01*
X420059Y184725D01*
X419978Y184754D01*
X419896Y184780D01*
X419813Y184802D01*
X419728Y184819D01*
X419643Y184833D01*
X419558Y184843D01*
X419472Y184849D01*
X419386Y184851D01*
X416592Y184851D01*
X411279Y184851D02*
X411279Y176469D01*
X411279Y184851D02*
X408951Y184851D01*
X408856Y184849D01*
X408761Y184843D01*
X408667Y184834D01*
X408573Y184820D01*
X408479Y184803D01*
X408387Y184782D01*
X408295Y184757D01*
X408205Y184728D01*
X408115Y184696D01*
X408027Y184660D01*
X407941Y184620D01*
X407856Y184578D01*
X407773Y184531D01*
X407692Y184481D01*
X407614Y184428D01*
X407537Y184372D01*
X407463Y184313D01*
X407391Y184251D01*
X407322Y184186D01*
X407255Y184118D01*
X407192Y184048D01*
X407131Y183974D01*
X407073Y183899D01*
X407019Y183821D01*
X406967Y183741D01*
X406919Y183659D01*
X406875Y183576D01*
X406833Y183490D01*
X406796Y183403D01*
X406762Y183314D01*
X406731Y183224D01*
X406704Y183133D01*
X406681Y183041D01*
X406662Y182948D01*
X406647Y182854D01*
X406635Y182760D01*
X406627Y182665D01*
X406623Y182570D01*
X406623Y182476D01*
X406627Y182381D01*
X406635Y182286D01*
X406647Y182192D01*
X406662Y182098D01*
X406681Y182005D01*
X406704Y181913D01*
X406731Y181822D01*
X406762Y181732D01*
X406796Y181643D01*
X406833Y181556D01*
X406875Y181470D01*
X406919Y181387D01*
X406967Y181305D01*
X407019Y181225D01*
X407073Y181147D01*
X407131Y181072D01*
X407192Y180998D01*
X407255Y180928D01*
X407322Y180860D01*
X407391Y180795D01*
X407463Y180733D01*
X407537Y180674D01*
X407614Y180618D01*
X407692Y180565D01*
X407773Y180515D01*
X407856Y180468D01*
X407941Y180426D01*
X408027Y180386D01*
X408115Y180350D01*
X408205Y180318D01*
X408295Y180289D01*
X408387Y180264D01*
X408479Y180243D01*
X408573Y180226D01*
X408667Y180212D01*
X408761Y180203D01*
X408856Y180197D01*
X408951Y180195D01*
X408951Y180194D02*
X411279Y180194D01*
X400166Y176469D02*
X400082Y176471D01*
X399999Y176476D01*
X399916Y176486D01*
X399833Y176499D01*
X399751Y176516D01*
X399670Y176536D01*
X399590Y176560D01*
X399511Y176588D01*
X399434Y176619D01*
X399358Y176653D01*
X399283Y176691D01*
X399210Y176733D01*
X399140Y176777D01*
X399071Y176825D01*
X399004Y176875D01*
X398940Y176929D01*
X398879Y176985D01*
X398819Y177045D01*
X398763Y177106D01*
X398709Y177170D01*
X398659Y177237D01*
X398611Y177306D01*
X398567Y177376D01*
X398525Y177449D01*
X398487Y177524D01*
X398453Y177600D01*
X398422Y177677D01*
X398394Y177756D01*
X398370Y177836D01*
X398350Y177917D01*
X398333Y177999D01*
X398320Y178082D01*
X398310Y178165D01*
X398305Y178248D01*
X398303Y178332D01*
X400166Y176469D02*
X400290Y176471D01*
X400414Y176477D01*
X400538Y176487D01*
X400662Y176500D01*
X400785Y176518D01*
X400907Y176539D01*
X401029Y176565D01*
X401150Y176594D01*
X401270Y176627D01*
X401388Y176664D01*
X401506Y176704D01*
X401622Y176748D01*
X401737Y176796D01*
X401850Y176847D01*
X401961Y176902D01*
X402071Y176961D01*
X402179Y177023D01*
X402284Y177088D01*
X402388Y177156D01*
X402490Y177228D01*
X402589Y177303D01*
X402685Y177381D01*
X402780Y177462D01*
X402871Y177546D01*
X402960Y177633D01*
X402728Y182988D02*
X402726Y183072D01*
X402721Y183155D01*
X402711Y183238D01*
X402698Y183321D01*
X402681Y183403D01*
X402661Y183484D01*
X402637Y183564D01*
X402609Y183643D01*
X402578Y183720D01*
X402544Y183796D01*
X402506Y183871D01*
X402464Y183944D01*
X402420Y184014D01*
X402372Y184083D01*
X402322Y184150D01*
X402268Y184214D01*
X402212Y184275D01*
X402152Y184335D01*
X402091Y184391D01*
X402027Y184445D01*
X401960Y184495D01*
X401891Y184543D01*
X401821Y184587D01*
X401748Y184629D01*
X401673Y184667D01*
X401597Y184701D01*
X401520Y184732D01*
X401441Y184760D01*
X401361Y184784D01*
X401280Y184804D01*
X401198Y184821D01*
X401115Y184834D01*
X401032Y184844D01*
X400949Y184849D01*
X400865Y184851D01*
X400865Y184852D02*
X400753Y184850D01*
X400640Y184845D01*
X400528Y184836D01*
X400417Y184823D01*
X400305Y184807D01*
X400195Y184787D01*
X400085Y184764D01*
X399976Y184737D01*
X399868Y184707D01*
X399760Y184673D01*
X399654Y184636D01*
X399550Y184595D01*
X399446Y184551D01*
X399344Y184504D01*
X399244Y184453D01*
X399145Y184399D01*
X399048Y184342D01*
X398953Y184282D01*
X398860Y184219D01*
X398769Y184153D01*
X401797Y181358D02*
X401869Y181403D01*
X401940Y181451D01*
X402008Y181503D01*
X402074Y181557D01*
X402137Y181614D01*
X402198Y181674D01*
X402256Y181737D01*
X402311Y181803D01*
X402363Y181870D01*
X402411Y181940D01*
X402457Y182012D01*
X402499Y182087D01*
X402538Y182163D01*
X402574Y182240D01*
X402606Y182319D01*
X402634Y182400D01*
X402659Y182482D01*
X402680Y182565D01*
X402697Y182648D01*
X402711Y182733D01*
X402720Y182817D01*
X402726Y182903D01*
X402728Y182988D01*
X399234Y179962D02*
X399162Y179917D01*
X399091Y179869D01*
X399023Y179817D01*
X398957Y179763D01*
X398894Y179706D01*
X398833Y179646D01*
X398775Y179583D01*
X398720Y179517D01*
X398668Y179450D01*
X398620Y179380D01*
X398574Y179308D01*
X398532Y179233D01*
X398493Y179157D01*
X398457Y179080D01*
X398425Y179001D01*
X398397Y178920D01*
X398372Y178838D01*
X398351Y178755D01*
X398334Y178672D01*
X398320Y178587D01*
X398311Y178503D01*
X398305Y178417D01*
X398303Y178332D01*
X399235Y179962D02*
X401796Y181359D01*
X394570Y175538D02*
X390845Y175538D01*
X385087Y176469D02*
X385087Y184851D01*
X382759Y184851D02*
X387416Y184851D01*
X379347Y176469D02*
X373759Y184851D01*
X379347Y184851D02*
X373759Y176469D01*
X393266Y154456D02*
X394663Y154456D01*
X393266Y154456D02*
X393266Y149799D01*
X396060Y149799D01*
X396144Y149801D01*
X396227Y149807D01*
X396310Y149816D01*
X396393Y149829D01*
X396475Y149846D01*
X396556Y149866D01*
X396636Y149890D01*
X396715Y149918D01*
X396792Y149949D01*
X396868Y149983D01*
X396943Y150021D01*
X397016Y150063D01*
X397086Y150107D01*
X397155Y150155D01*
X397222Y150205D01*
X397286Y150259D01*
X397347Y150315D01*
X397407Y150375D01*
X397463Y150436D01*
X397517Y150500D01*
X397567Y150567D01*
X397615Y150636D01*
X397659Y150706D01*
X397701Y150779D01*
X397739Y150854D01*
X397773Y150930D01*
X397804Y151007D01*
X397832Y151086D01*
X397856Y151166D01*
X397876Y151247D01*
X397893Y151329D01*
X397906Y151412D01*
X397916Y151495D01*
X397921Y151578D01*
X397923Y151662D01*
X397923Y156318D01*
X397921Y156404D01*
X397915Y156490D01*
X397905Y156575D01*
X397891Y156660D01*
X397874Y156745D01*
X397852Y156828D01*
X397826Y156910D01*
X397797Y156991D01*
X397764Y157070D01*
X397728Y157148D01*
X397688Y157225D01*
X397644Y157299D01*
X397597Y157371D01*
X397547Y157441D01*
X397493Y157508D01*
X397437Y157573D01*
X397377Y157635D01*
X397315Y157695D01*
X397250Y157751D01*
X397183Y157805D01*
X397113Y157855D01*
X397041Y157902D01*
X396967Y157946D01*
X396890Y157986D01*
X396813Y158022D01*
X396733Y158055D01*
X396652Y158084D01*
X396570Y158110D01*
X396487Y158132D01*
X396402Y158149D01*
X396317Y158163D01*
X396232Y158173D01*
X396146Y158179D01*
X396060Y158181D01*
X393266Y158181D01*
X388169Y158181D02*
X388169Y149799D01*
X383513Y149799D02*
X388169Y158181D01*
X383513Y158181D02*
X383513Y149799D01*
X378416Y149799D02*
X378416Y158181D01*
X376087Y158181D01*
X375991Y158179D01*
X375895Y158173D01*
X375799Y158163D01*
X375704Y158149D01*
X375609Y158131D01*
X375516Y158110D01*
X375423Y158084D01*
X375331Y158055D01*
X375241Y158022D01*
X375152Y157985D01*
X375065Y157944D01*
X374979Y157900D01*
X374895Y157853D01*
X374814Y157802D01*
X374734Y157748D01*
X374657Y157690D01*
X374582Y157629D01*
X374510Y157566D01*
X374441Y157499D01*
X374374Y157430D01*
X374311Y157358D01*
X374250Y157283D01*
X374192Y157206D01*
X374138Y157126D01*
X374087Y157045D01*
X374040Y156961D01*
X373996Y156875D01*
X373955Y156788D01*
X373918Y156699D01*
X373885Y156609D01*
X373856Y156517D01*
X373830Y156425D01*
X373809Y156331D01*
X373791Y156236D01*
X373777Y156141D01*
X373767Y156045D01*
X373761Y155949D01*
X373759Y155853D01*
X373759Y152127D01*
X373761Y152033D01*
X373767Y151940D01*
X373776Y151846D01*
X373789Y151754D01*
X373806Y151661D01*
X373827Y151570D01*
X373851Y151479D01*
X373879Y151390D01*
X373910Y151301D01*
X373945Y151214D01*
X373984Y151129D01*
X374026Y151045D01*
X374071Y150963D01*
X374119Y150883D01*
X374171Y150805D01*
X374226Y150728D01*
X374284Y150655D01*
X374344Y150583D01*
X374408Y150514D01*
X374474Y150448D01*
X374543Y150384D01*
X374615Y150324D01*
X374688Y150266D01*
X374765Y150211D01*
X374843Y150159D01*
X374923Y150111D01*
X375005Y150066D01*
X375089Y150024D01*
X375175Y149985D01*
X375262Y149950D01*
X375350Y149919D01*
X375439Y149891D01*
X375530Y149867D01*
X375621Y149846D01*
X375714Y149829D01*
X375806Y149816D01*
X375900Y149807D01*
X375993Y149801D01*
X376087Y149799D01*
X378416Y149799D01*
X275300Y225999D02*
X275216Y226001D01*
X275133Y226006D01*
X275050Y226016D01*
X274967Y226029D01*
X274885Y226046D01*
X274804Y226066D01*
X274724Y226090D01*
X274645Y226118D01*
X274568Y226149D01*
X274492Y226183D01*
X274417Y226221D01*
X274344Y226263D01*
X274274Y226307D01*
X274205Y226355D01*
X274138Y226405D01*
X274074Y226459D01*
X274013Y226515D01*
X273953Y226575D01*
X273897Y226636D01*
X273843Y226700D01*
X273793Y226767D01*
X273745Y226836D01*
X273701Y226906D01*
X273659Y226979D01*
X273621Y227054D01*
X273587Y227130D01*
X273556Y227207D01*
X273528Y227286D01*
X273504Y227366D01*
X273484Y227447D01*
X273467Y227529D01*
X273454Y227612D01*
X273444Y227695D01*
X273439Y227778D01*
X273437Y227862D01*
X275300Y225999D02*
X275424Y226001D01*
X275548Y226007D01*
X275672Y226017D01*
X275796Y226030D01*
X275919Y226048D01*
X276041Y226069D01*
X276163Y226095D01*
X276284Y226124D01*
X276404Y226157D01*
X276522Y226194D01*
X276640Y226234D01*
X276756Y226278D01*
X276871Y226326D01*
X276984Y226377D01*
X277095Y226432D01*
X277205Y226491D01*
X277313Y226553D01*
X277418Y226618D01*
X277522Y226686D01*
X277624Y226758D01*
X277723Y226833D01*
X277819Y226911D01*
X277914Y226992D01*
X278005Y227076D01*
X278094Y227163D01*
X277862Y232518D02*
X277860Y232602D01*
X277855Y232685D01*
X277845Y232768D01*
X277832Y232851D01*
X277815Y232933D01*
X277795Y233014D01*
X277771Y233094D01*
X277743Y233173D01*
X277712Y233250D01*
X277678Y233326D01*
X277640Y233401D01*
X277598Y233474D01*
X277554Y233544D01*
X277506Y233613D01*
X277456Y233680D01*
X277402Y233744D01*
X277346Y233805D01*
X277286Y233865D01*
X277225Y233921D01*
X277161Y233975D01*
X277094Y234025D01*
X277025Y234073D01*
X276955Y234117D01*
X276882Y234159D01*
X276807Y234197D01*
X276731Y234231D01*
X276654Y234262D01*
X276575Y234290D01*
X276495Y234314D01*
X276414Y234334D01*
X276332Y234351D01*
X276249Y234364D01*
X276166Y234374D01*
X276083Y234379D01*
X275999Y234381D01*
X275999Y234382D02*
X275887Y234380D01*
X275774Y234375D01*
X275662Y234366D01*
X275551Y234353D01*
X275439Y234337D01*
X275329Y234317D01*
X275219Y234294D01*
X275110Y234267D01*
X275002Y234237D01*
X274894Y234203D01*
X274788Y234166D01*
X274684Y234125D01*
X274580Y234081D01*
X274478Y234034D01*
X274378Y233983D01*
X274279Y233929D01*
X274182Y233872D01*
X274087Y233812D01*
X273994Y233749D01*
X273903Y233683D01*
X276931Y230888D02*
X277003Y230933D01*
X277074Y230981D01*
X277142Y231033D01*
X277208Y231087D01*
X277271Y231144D01*
X277332Y231204D01*
X277390Y231267D01*
X277445Y231333D01*
X277497Y231400D01*
X277545Y231470D01*
X277591Y231542D01*
X277633Y231617D01*
X277672Y231693D01*
X277708Y231770D01*
X277740Y231849D01*
X277768Y231930D01*
X277793Y232012D01*
X277814Y232095D01*
X277831Y232178D01*
X277845Y232263D01*
X277854Y232347D01*
X277860Y232433D01*
X277862Y232518D01*
X274368Y229492D02*
X274296Y229447D01*
X274225Y229399D01*
X274157Y229347D01*
X274091Y229293D01*
X274028Y229236D01*
X273967Y229176D01*
X273909Y229113D01*
X273854Y229047D01*
X273802Y228980D01*
X273754Y228910D01*
X273708Y228838D01*
X273666Y228763D01*
X273627Y228687D01*
X273591Y228610D01*
X273559Y228531D01*
X273531Y228450D01*
X273506Y228368D01*
X273485Y228285D01*
X273468Y228202D01*
X273454Y228117D01*
X273445Y228033D01*
X273439Y227947D01*
X273437Y227862D01*
X274369Y229492D02*
X276930Y230889D01*
X268950Y234381D02*
X268950Y225999D01*
X268950Y234381D02*
X266622Y234381D01*
X266526Y234379D01*
X266430Y234373D01*
X266334Y234363D01*
X266239Y234349D01*
X266144Y234331D01*
X266051Y234310D01*
X265958Y234284D01*
X265866Y234255D01*
X265776Y234222D01*
X265687Y234185D01*
X265600Y234144D01*
X265514Y234100D01*
X265430Y234053D01*
X265349Y234002D01*
X265269Y233948D01*
X265192Y233890D01*
X265117Y233829D01*
X265045Y233766D01*
X264976Y233699D01*
X264909Y233630D01*
X264846Y233558D01*
X264785Y233483D01*
X264727Y233406D01*
X264673Y233326D01*
X264622Y233245D01*
X264575Y233161D01*
X264531Y233075D01*
X264490Y232988D01*
X264453Y232899D01*
X264420Y232809D01*
X264391Y232717D01*
X264365Y232625D01*
X264344Y232531D01*
X264326Y232436D01*
X264312Y232341D01*
X264302Y232245D01*
X264296Y232149D01*
X264294Y232053D01*
X264293Y232053D02*
X264293Y228327D01*
X264294Y228327D02*
X264296Y228233D01*
X264302Y228140D01*
X264311Y228046D01*
X264324Y227954D01*
X264341Y227861D01*
X264362Y227770D01*
X264386Y227679D01*
X264414Y227590D01*
X264445Y227501D01*
X264480Y227414D01*
X264519Y227329D01*
X264561Y227245D01*
X264606Y227163D01*
X264654Y227083D01*
X264706Y227005D01*
X264761Y226928D01*
X264819Y226855D01*
X264879Y226783D01*
X264943Y226714D01*
X265009Y226648D01*
X265078Y226584D01*
X265150Y226524D01*
X265223Y226466D01*
X265300Y226411D01*
X265378Y226359D01*
X265458Y226311D01*
X265540Y226266D01*
X265624Y226224D01*
X265710Y226185D01*
X265797Y226150D01*
X265885Y226119D01*
X265974Y226091D01*
X266065Y226067D01*
X266156Y226046D01*
X266249Y226029D01*
X266341Y226016D01*
X266435Y226007D01*
X266528Y226001D01*
X266622Y225999D01*
X268950Y225999D01*
X259967Y225999D02*
X257173Y234381D01*
X254379Y225999D01*
X255078Y228095D02*
X259269Y228095D01*
X274050Y202462D02*
X274052Y202378D01*
X274057Y202295D01*
X274067Y202212D01*
X274080Y202129D01*
X274097Y202047D01*
X274117Y201966D01*
X274141Y201886D01*
X274169Y201807D01*
X274200Y201730D01*
X274234Y201654D01*
X274272Y201579D01*
X274314Y201506D01*
X274358Y201436D01*
X274406Y201367D01*
X274456Y201300D01*
X274510Y201236D01*
X274566Y201175D01*
X274626Y201115D01*
X274687Y201059D01*
X274751Y201005D01*
X274818Y200955D01*
X274887Y200907D01*
X274957Y200863D01*
X275030Y200821D01*
X275105Y200783D01*
X275181Y200749D01*
X275258Y200718D01*
X275337Y200690D01*
X275417Y200666D01*
X275498Y200646D01*
X275580Y200629D01*
X275663Y200616D01*
X275746Y200606D01*
X275829Y200601D01*
X275913Y200599D01*
X276037Y200601D01*
X276161Y200607D01*
X276285Y200617D01*
X276409Y200630D01*
X276532Y200648D01*
X276654Y200669D01*
X276776Y200695D01*
X276897Y200724D01*
X277017Y200757D01*
X277135Y200794D01*
X277253Y200834D01*
X277369Y200878D01*
X277484Y200926D01*
X277597Y200977D01*
X277708Y201032D01*
X277818Y201091D01*
X277926Y201153D01*
X278031Y201218D01*
X278135Y201286D01*
X278237Y201358D01*
X278336Y201433D01*
X278432Y201511D01*
X278527Y201592D01*
X278618Y201676D01*
X278707Y201763D01*
X278475Y207118D02*
X278473Y207202D01*
X278468Y207285D01*
X278458Y207368D01*
X278445Y207451D01*
X278428Y207533D01*
X278408Y207614D01*
X278384Y207694D01*
X278356Y207773D01*
X278325Y207850D01*
X278291Y207926D01*
X278253Y208001D01*
X278211Y208074D01*
X278167Y208144D01*
X278119Y208213D01*
X278069Y208280D01*
X278015Y208344D01*
X277959Y208405D01*
X277899Y208465D01*
X277838Y208521D01*
X277774Y208575D01*
X277707Y208625D01*
X277638Y208673D01*
X277568Y208717D01*
X277495Y208759D01*
X277420Y208797D01*
X277344Y208831D01*
X277267Y208862D01*
X277188Y208890D01*
X277108Y208914D01*
X277027Y208934D01*
X276945Y208951D01*
X276862Y208964D01*
X276779Y208974D01*
X276696Y208979D01*
X276612Y208981D01*
X276612Y208982D02*
X276500Y208980D01*
X276387Y208975D01*
X276275Y208966D01*
X276164Y208953D01*
X276052Y208937D01*
X275942Y208917D01*
X275832Y208894D01*
X275723Y208867D01*
X275615Y208837D01*
X275507Y208803D01*
X275401Y208766D01*
X275297Y208725D01*
X275193Y208681D01*
X275091Y208634D01*
X274991Y208583D01*
X274892Y208529D01*
X274795Y208472D01*
X274700Y208412D01*
X274607Y208349D01*
X274516Y208283D01*
X277543Y205488D02*
X277615Y205533D01*
X277686Y205581D01*
X277754Y205633D01*
X277820Y205687D01*
X277883Y205744D01*
X277944Y205804D01*
X278002Y205867D01*
X278057Y205933D01*
X278109Y206000D01*
X278157Y206070D01*
X278203Y206142D01*
X278245Y206217D01*
X278284Y206293D01*
X278320Y206370D01*
X278352Y206449D01*
X278380Y206530D01*
X278405Y206612D01*
X278426Y206695D01*
X278443Y206778D01*
X278457Y206863D01*
X278466Y206947D01*
X278472Y207033D01*
X278474Y207118D01*
X274981Y204092D02*
X274909Y204047D01*
X274838Y203999D01*
X274770Y203947D01*
X274704Y203893D01*
X274641Y203836D01*
X274580Y203776D01*
X274522Y203713D01*
X274467Y203647D01*
X274415Y203580D01*
X274367Y203510D01*
X274321Y203438D01*
X274279Y203363D01*
X274240Y203287D01*
X274204Y203210D01*
X274172Y203131D01*
X274144Y203050D01*
X274119Y202968D01*
X274098Y202885D01*
X274081Y202802D01*
X274067Y202717D01*
X274058Y202633D01*
X274052Y202547D01*
X274050Y202462D01*
X274982Y204092D02*
X277543Y205489D01*
X268048Y200599D02*
X266185Y200599D01*
X268048Y200599D02*
X268132Y200601D01*
X268215Y200607D01*
X268298Y200616D01*
X268381Y200629D01*
X268463Y200646D01*
X268544Y200666D01*
X268624Y200690D01*
X268703Y200718D01*
X268780Y200749D01*
X268856Y200783D01*
X268931Y200821D01*
X269004Y200863D01*
X269074Y200907D01*
X269143Y200955D01*
X269210Y201005D01*
X269274Y201059D01*
X269335Y201115D01*
X269395Y201175D01*
X269451Y201236D01*
X269505Y201300D01*
X269555Y201367D01*
X269603Y201436D01*
X269647Y201506D01*
X269689Y201579D01*
X269727Y201654D01*
X269761Y201730D01*
X269792Y201807D01*
X269820Y201886D01*
X269844Y201966D01*
X269864Y202047D01*
X269881Y202129D01*
X269894Y202212D01*
X269904Y202295D01*
X269909Y202378D01*
X269911Y202462D01*
X269910Y202462D02*
X269910Y207118D01*
X269908Y207204D01*
X269902Y207290D01*
X269892Y207375D01*
X269878Y207460D01*
X269861Y207545D01*
X269839Y207628D01*
X269813Y207710D01*
X269784Y207791D01*
X269751Y207870D01*
X269715Y207948D01*
X269675Y208025D01*
X269631Y208099D01*
X269584Y208171D01*
X269534Y208241D01*
X269480Y208308D01*
X269424Y208373D01*
X269364Y208435D01*
X269302Y208495D01*
X269237Y208551D01*
X269170Y208605D01*
X269100Y208655D01*
X269028Y208702D01*
X268954Y208746D01*
X268877Y208786D01*
X268800Y208822D01*
X268720Y208855D01*
X268639Y208884D01*
X268557Y208910D01*
X268474Y208932D01*
X268389Y208949D01*
X268304Y208963D01*
X268219Y208973D01*
X268133Y208979D01*
X268047Y208981D01*
X268048Y208981D02*
X266185Y208981D01*
X261914Y208981D02*
X261914Y200599D01*
X258189Y200599D01*
D13*
X311150Y13970D02*
X6350Y13970D01*
X6350Y369570D01*
X311150Y369570D01*
X311150Y13970D01*
D14*
X162560Y157897D02*
X152400Y157897D01*
X162560Y157897D02*
X162560Y160719D01*
X162558Y160825D01*
X162552Y160930D01*
X162542Y161035D01*
X162528Y161140D01*
X162511Y161244D01*
X162489Y161347D01*
X162464Y161449D01*
X162435Y161551D01*
X162402Y161651D01*
X162365Y161750D01*
X162325Y161847D01*
X162281Y161943D01*
X162233Y162038D01*
X162182Y162130D01*
X162127Y162220D01*
X162070Y162309D01*
X162009Y162395D01*
X161944Y162478D01*
X161877Y162560D01*
X161807Y162638D01*
X161733Y162714D01*
X161657Y162788D01*
X161579Y162858D01*
X161497Y162925D01*
X161414Y162990D01*
X161328Y163051D01*
X161239Y163108D01*
X161149Y163163D01*
X161057Y163214D01*
X160962Y163262D01*
X160866Y163306D01*
X160769Y163346D01*
X160670Y163383D01*
X160570Y163416D01*
X160468Y163445D01*
X160366Y163470D01*
X160263Y163492D01*
X160159Y163509D01*
X160054Y163523D01*
X159949Y163533D01*
X159844Y163539D01*
X159738Y163541D01*
X159632Y163539D01*
X159527Y163533D01*
X159422Y163523D01*
X159317Y163509D01*
X159213Y163492D01*
X159110Y163470D01*
X159008Y163445D01*
X158906Y163416D01*
X158806Y163383D01*
X158707Y163346D01*
X158610Y163306D01*
X158514Y163262D01*
X158419Y163214D01*
X158327Y163163D01*
X158237Y163108D01*
X158148Y163051D01*
X158062Y162990D01*
X157979Y162925D01*
X157897Y162858D01*
X157819Y162788D01*
X157743Y162714D01*
X157669Y162638D01*
X157599Y162560D01*
X157532Y162478D01*
X157467Y162395D01*
X157406Y162309D01*
X157349Y162220D01*
X157294Y162130D01*
X157243Y162038D01*
X157195Y161943D01*
X157151Y161847D01*
X157111Y161750D01*
X157074Y161651D01*
X157041Y161551D01*
X157012Y161449D01*
X156987Y161347D01*
X156965Y161244D01*
X156948Y161140D01*
X156934Y161035D01*
X156924Y160930D01*
X156918Y160825D01*
X156916Y160719D01*
X156916Y157897D01*
X156916Y161284D02*
X152400Y163542D01*
X160302Y169198D02*
X162560Y172021D01*
X152400Y172021D01*
X152400Y174843D02*
X152400Y169198D01*
D13*
X342900Y66040D02*
X342900Y320040D01*
X711200Y320040D01*
X711200Y66040D01*
X342900Y66040D01*
X346710Y303530D02*
X346714Y303842D01*
X346725Y304153D01*
X346744Y304464D01*
X346771Y304775D01*
X346806Y305085D01*
X346847Y305393D01*
X346897Y305701D01*
X346954Y306008D01*
X347019Y306313D01*
X347091Y306616D01*
X347170Y306917D01*
X347257Y307217D01*
X347351Y307514D01*
X347452Y307809D01*
X347561Y308101D01*
X347677Y308390D01*
X347800Y308677D01*
X347929Y308960D01*
X348066Y309240D01*
X348210Y309517D01*
X348360Y309790D01*
X348517Y310059D01*
X348680Y310324D01*
X348850Y310586D01*
X349027Y310843D01*
X349209Y311095D01*
X349398Y311343D01*
X349593Y311587D01*
X349793Y311825D01*
X350000Y312059D01*
X350212Y312287D01*
X350430Y312510D01*
X350653Y312728D01*
X350881Y312940D01*
X351115Y313147D01*
X351353Y313347D01*
X351597Y313542D01*
X351845Y313731D01*
X352097Y313913D01*
X352354Y314090D01*
X352616Y314260D01*
X352881Y314423D01*
X353150Y314580D01*
X353423Y314730D01*
X353700Y314874D01*
X353980Y315011D01*
X354263Y315140D01*
X354550Y315263D01*
X354839Y315379D01*
X355131Y315488D01*
X355426Y315589D01*
X355723Y315683D01*
X356023Y315770D01*
X356324Y315849D01*
X356627Y315921D01*
X356932Y315986D01*
X357239Y316043D01*
X357547Y316093D01*
X357855Y316134D01*
X358165Y316169D01*
X358476Y316196D01*
X358787Y316215D01*
X359098Y316226D01*
X359410Y316230D01*
X359722Y316226D01*
X360033Y316215D01*
X360344Y316196D01*
X360655Y316169D01*
X360965Y316134D01*
X361273Y316093D01*
X361581Y316043D01*
X361888Y315986D01*
X362193Y315921D01*
X362496Y315849D01*
X362797Y315770D01*
X363097Y315683D01*
X363394Y315589D01*
X363689Y315488D01*
X363981Y315379D01*
X364270Y315263D01*
X364557Y315140D01*
X364840Y315011D01*
X365120Y314874D01*
X365397Y314730D01*
X365670Y314580D01*
X365939Y314423D01*
X366204Y314260D01*
X366466Y314090D01*
X366723Y313913D01*
X366975Y313731D01*
X367223Y313542D01*
X367467Y313347D01*
X367705Y313147D01*
X367939Y312940D01*
X368167Y312728D01*
X368390Y312510D01*
X368608Y312287D01*
X368820Y312059D01*
X369027Y311825D01*
X369227Y311587D01*
X369422Y311343D01*
X369611Y311095D01*
X369793Y310843D01*
X369970Y310586D01*
X370140Y310324D01*
X370303Y310059D01*
X370460Y309790D01*
X370610Y309517D01*
X370754Y309240D01*
X370891Y308960D01*
X371020Y308677D01*
X371143Y308390D01*
X371259Y308101D01*
X371368Y307809D01*
X371469Y307514D01*
X371563Y307217D01*
X371650Y306917D01*
X371729Y306616D01*
X371801Y306313D01*
X371866Y306008D01*
X371923Y305701D01*
X371973Y305393D01*
X372014Y305085D01*
X372049Y304775D01*
X372076Y304464D01*
X372095Y304153D01*
X372106Y303842D01*
X372110Y303530D01*
X372106Y303218D01*
X372095Y302907D01*
X372076Y302596D01*
X372049Y302285D01*
X372014Y301975D01*
X371973Y301667D01*
X371923Y301359D01*
X371866Y301052D01*
X371801Y300747D01*
X371729Y300444D01*
X371650Y300143D01*
X371563Y299843D01*
X371469Y299546D01*
X371368Y299251D01*
X371259Y298959D01*
X371143Y298670D01*
X371020Y298383D01*
X370891Y298100D01*
X370754Y297820D01*
X370610Y297543D01*
X370460Y297270D01*
X370303Y297001D01*
X370140Y296736D01*
X369970Y296474D01*
X369793Y296217D01*
X369611Y295965D01*
X369422Y295717D01*
X369227Y295473D01*
X369027Y295235D01*
X368820Y295001D01*
X368608Y294773D01*
X368390Y294550D01*
X368167Y294332D01*
X367939Y294120D01*
X367705Y293913D01*
X367467Y293713D01*
X367223Y293518D01*
X366975Y293329D01*
X366723Y293147D01*
X366466Y292970D01*
X366204Y292800D01*
X365939Y292637D01*
X365670Y292480D01*
X365397Y292330D01*
X365120Y292186D01*
X364840Y292049D01*
X364557Y291920D01*
X364270Y291797D01*
X363981Y291681D01*
X363689Y291572D01*
X363394Y291471D01*
X363097Y291377D01*
X362797Y291290D01*
X362496Y291211D01*
X362193Y291139D01*
X361888Y291074D01*
X361581Y291017D01*
X361273Y290967D01*
X360965Y290926D01*
X360655Y290891D01*
X360344Y290864D01*
X360033Y290845D01*
X359722Y290834D01*
X359410Y290830D01*
X359098Y290834D01*
X358787Y290845D01*
X358476Y290864D01*
X358165Y290891D01*
X357855Y290926D01*
X357547Y290967D01*
X357239Y291017D01*
X356932Y291074D01*
X356627Y291139D01*
X356324Y291211D01*
X356023Y291290D01*
X355723Y291377D01*
X355426Y291471D01*
X355131Y291572D01*
X354839Y291681D01*
X354550Y291797D01*
X354263Y291920D01*
X353980Y292049D01*
X353700Y292186D01*
X353423Y292330D01*
X353150Y292480D01*
X352881Y292637D01*
X352616Y292800D01*
X352354Y292970D01*
X352097Y293147D01*
X351845Y293329D01*
X351597Y293518D01*
X351353Y293713D01*
X351115Y293913D01*
X350881Y294120D01*
X350653Y294332D01*
X350430Y294550D01*
X350212Y294773D01*
X350000Y295001D01*
X349793Y295235D01*
X349593Y295473D01*
X349398Y295717D01*
X349209Y295965D01*
X349027Y296217D01*
X348850Y296474D01*
X348680Y296736D01*
X348517Y297001D01*
X348360Y297270D01*
X348210Y297543D01*
X348066Y297820D01*
X347929Y298100D01*
X347800Y298383D01*
X347677Y298670D01*
X347561Y298959D01*
X347452Y299251D01*
X347351Y299546D01*
X347257Y299843D01*
X347170Y300143D01*
X347091Y300444D01*
X347019Y300747D01*
X346954Y301052D01*
X346897Y301359D01*
X346847Y301667D01*
X346806Y301975D01*
X346771Y302285D01*
X346744Y302596D01*
X346725Y302907D01*
X346714Y303218D01*
X346710Y303530D01*
X345440Y81280D02*
X345444Y81592D01*
X345455Y81903D01*
X345474Y82214D01*
X345501Y82525D01*
X345536Y82835D01*
X345577Y83143D01*
X345627Y83451D01*
X345684Y83758D01*
X345749Y84063D01*
X345821Y84366D01*
X345900Y84667D01*
X345987Y84967D01*
X346081Y85264D01*
X346182Y85559D01*
X346291Y85851D01*
X346407Y86140D01*
X346530Y86427D01*
X346659Y86710D01*
X346796Y86990D01*
X346940Y87267D01*
X347090Y87540D01*
X347247Y87809D01*
X347410Y88074D01*
X347580Y88336D01*
X347757Y88593D01*
X347939Y88845D01*
X348128Y89093D01*
X348323Y89337D01*
X348523Y89575D01*
X348730Y89809D01*
X348942Y90037D01*
X349160Y90260D01*
X349383Y90478D01*
X349611Y90690D01*
X349845Y90897D01*
X350083Y91097D01*
X350327Y91292D01*
X350575Y91481D01*
X350827Y91663D01*
X351084Y91840D01*
X351346Y92010D01*
X351611Y92173D01*
X351880Y92330D01*
X352153Y92480D01*
X352430Y92624D01*
X352710Y92761D01*
X352993Y92890D01*
X353280Y93013D01*
X353569Y93129D01*
X353861Y93238D01*
X354156Y93339D01*
X354453Y93433D01*
X354753Y93520D01*
X355054Y93599D01*
X355357Y93671D01*
X355662Y93736D01*
X355969Y93793D01*
X356277Y93843D01*
X356585Y93884D01*
X356895Y93919D01*
X357206Y93946D01*
X357517Y93965D01*
X357828Y93976D01*
X358140Y93980D01*
X358452Y93976D01*
X358763Y93965D01*
X359074Y93946D01*
X359385Y93919D01*
X359695Y93884D01*
X360003Y93843D01*
X360311Y93793D01*
X360618Y93736D01*
X360923Y93671D01*
X361226Y93599D01*
X361527Y93520D01*
X361827Y93433D01*
X362124Y93339D01*
X362419Y93238D01*
X362711Y93129D01*
X363000Y93013D01*
X363287Y92890D01*
X363570Y92761D01*
X363850Y92624D01*
X364127Y92480D01*
X364400Y92330D01*
X364669Y92173D01*
X364934Y92010D01*
X365196Y91840D01*
X365453Y91663D01*
X365705Y91481D01*
X365953Y91292D01*
X366197Y91097D01*
X366435Y90897D01*
X366669Y90690D01*
X366897Y90478D01*
X367120Y90260D01*
X367338Y90037D01*
X367550Y89809D01*
X367757Y89575D01*
X367957Y89337D01*
X368152Y89093D01*
X368341Y88845D01*
X368523Y88593D01*
X368700Y88336D01*
X368870Y88074D01*
X369033Y87809D01*
X369190Y87540D01*
X369340Y87267D01*
X369484Y86990D01*
X369621Y86710D01*
X369750Y86427D01*
X369873Y86140D01*
X369989Y85851D01*
X370098Y85559D01*
X370199Y85264D01*
X370293Y84967D01*
X370380Y84667D01*
X370459Y84366D01*
X370531Y84063D01*
X370596Y83758D01*
X370653Y83451D01*
X370703Y83143D01*
X370744Y82835D01*
X370779Y82525D01*
X370806Y82214D01*
X370825Y81903D01*
X370836Y81592D01*
X370840Y81280D01*
X370836Y80968D01*
X370825Y80657D01*
X370806Y80346D01*
X370779Y80035D01*
X370744Y79725D01*
X370703Y79417D01*
X370653Y79109D01*
X370596Y78802D01*
X370531Y78497D01*
X370459Y78194D01*
X370380Y77893D01*
X370293Y77593D01*
X370199Y77296D01*
X370098Y77001D01*
X369989Y76709D01*
X369873Y76420D01*
X369750Y76133D01*
X369621Y75850D01*
X369484Y75570D01*
X369340Y75293D01*
X369190Y75020D01*
X369033Y74751D01*
X368870Y74486D01*
X368700Y74224D01*
X368523Y73967D01*
X368341Y73715D01*
X368152Y73467D01*
X367957Y73223D01*
X367757Y72985D01*
X367550Y72751D01*
X367338Y72523D01*
X367120Y72300D01*
X366897Y72082D01*
X366669Y71870D01*
X366435Y71663D01*
X366197Y71463D01*
X365953Y71268D01*
X365705Y71079D01*
X365453Y70897D01*
X365196Y70720D01*
X364934Y70550D01*
X364669Y70387D01*
X364400Y70230D01*
X364127Y70080D01*
X363850Y69936D01*
X363570Y69799D01*
X363287Y69670D01*
X363000Y69547D01*
X362711Y69431D01*
X362419Y69322D01*
X362124Y69221D01*
X361827Y69127D01*
X361527Y69040D01*
X361226Y68961D01*
X360923Y68889D01*
X360618Y68824D01*
X360311Y68767D01*
X360003Y68717D01*
X359695Y68676D01*
X359385Y68641D01*
X359074Y68614D01*
X358763Y68595D01*
X358452Y68584D01*
X358140Y68580D01*
X357828Y68584D01*
X357517Y68595D01*
X357206Y68614D01*
X356895Y68641D01*
X356585Y68676D01*
X356277Y68717D01*
X355969Y68767D01*
X355662Y68824D01*
X355357Y68889D01*
X355054Y68961D01*
X354753Y69040D01*
X354453Y69127D01*
X354156Y69221D01*
X353861Y69322D01*
X353569Y69431D01*
X353280Y69547D01*
X352993Y69670D01*
X352710Y69799D01*
X352430Y69936D01*
X352153Y70080D01*
X351880Y70230D01*
X351611Y70387D01*
X351346Y70550D01*
X351084Y70720D01*
X350827Y70897D01*
X350575Y71079D01*
X350327Y71268D01*
X350083Y71463D01*
X349845Y71663D01*
X349611Y71870D01*
X349383Y72082D01*
X349160Y72300D01*
X348942Y72523D01*
X348730Y72751D01*
X348523Y72985D01*
X348323Y73223D01*
X348128Y73467D01*
X347939Y73715D01*
X347757Y73967D01*
X347580Y74224D01*
X347410Y74486D01*
X347247Y74751D01*
X347090Y75020D01*
X346940Y75293D01*
X346796Y75570D01*
X346659Y75850D01*
X346530Y76133D01*
X346407Y76420D01*
X346291Y76709D01*
X346182Y77001D01*
X346081Y77296D01*
X345987Y77593D01*
X345900Y77893D01*
X345821Y78194D01*
X345749Y78497D01*
X345684Y78802D01*
X345627Y79109D01*
X345577Y79417D01*
X345536Y79725D01*
X345501Y80035D01*
X345474Y80346D01*
X345455Y80657D01*
X345444Y80968D01*
X345440Y81280D01*
X683260Y303530D02*
X683264Y303842D01*
X683275Y304153D01*
X683294Y304464D01*
X683321Y304775D01*
X683356Y305085D01*
X683397Y305393D01*
X683447Y305701D01*
X683504Y306008D01*
X683569Y306313D01*
X683641Y306616D01*
X683720Y306917D01*
X683807Y307217D01*
X683901Y307514D01*
X684002Y307809D01*
X684111Y308101D01*
X684227Y308390D01*
X684350Y308677D01*
X684479Y308960D01*
X684616Y309240D01*
X684760Y309517D01*
X684910Y309790D01*
X685067Y310059D01*
X685230Y310324D01*
X685400Y310586D01*
X685577Y310843D01*
X685759Y311095D01*
X685948Y311343D01*
X686143Y311587D01*
X686343Y311825D01*
X686550Y312059D01*
X686762Y312287D01*
X686980Y312510D01*
X687203Y312728D01*
X687431Y312940D01*
X687665Y313147D01*
X687903Y313347D01*
X688147Y313542D01*
X688395Y313731D01*
X688647Y313913D01*
X688904Y314090D01*
X689166Y314260D01*
X689431Y314423D01*
X689700Y314580D01*
X689973Y314730D01*
X690250Y314874D01*
X690530Y315011D01*
X690813Y315140D01*
X691100Y315263D01*
X691389Y315379D01*
X691681Y315488D01*
X691976Y315589D01*
X692273Y315683D01*
X692573Y315770D01*
X692874Y315849D01*
X693177Y315921D01*
X693482Y315986D01*
X693789Y316043D01*
X694097Y316093D01*
X694405Y316134D01*
X694715Y316169D01*
X695026Y316196D01*
X695337Y316215D01*
X695648Y316226D01*
X695960Y316230D01*
X696272Y316226D01*
X696583Y316215D01*
X696894Y316196D01*
X697205Y316169D01*
X697515Y316134D01*
X697823Y316093D01*
X698131Y316043D01*
X698438Y315986D01*
X698743Y315921D01*
X699046Y315849D01*
X699347Y315770D01*
X699647Y315683D01*
X699944Y315589D01*
X700239Y315488D01*
X700531Y315379D01*
X700820Y315263D01*
X701107Y315140D01*
X701390Y315011D01*
X701670Y314874D01*
X701947Y314730D01*
X702220Y314580D01*
X702489Y314423D01*
X702754Y314260D01*
X703016Y314090D01*
X703273Y313913D01*
X703525Y313731D01*
X703773Y313542D01*
X704017Y313347D01*
X704255Y313147D01*
X704489Y312940D01*
X704717Y312728D01*
X704940Y312510D01*
X705158Y312287D01*
X705370Y312059D01*
X705577Y311825D01*
X705777Y311587D01*
X705972Y311343D01*
X706161Y311095D01*
X706343Y310843D01*
X706520Y310586D01*
X706690Y310324D01*
X706853Y310059D01*
X707010Y309790D01*
X707160Y309517D01*
X707304Y309240D01*
X707441Y308960D01*
X707570Y308677D01*
X707693Y308390D01*
X707809Y308101D01*
X707918Y307809D01*
X708019Y307514D01*
X708113Y307217D01*
X708200Y306917D01*
X708279Y306616D01*
X708351Y306313D01*
X708416Y306008D01*
X708473Y305701D01*
X708523Y305393D01*
X708564Y305085D01*
X708599Y304775D01*
X708626Y304464D01*
X708645Y304153D01*
X708656Y303842D01*
X708660Y303530D01*
X708656Y303218D01*
X708645Y302907D01*
X708626Y302596D01*
X708599Y302285D01*
X708564Y301975D01*
X708523Y301667D01*
X708473Y301359D01*
X708416Y301052D01*
X708351Y300747D01*
X708279Y300444D01*
X708200Y300143D01*
X708113Y299843D01*
X708019Y299546D01*
X707918Y299251D01*
X707809Y298959D01*
X707693Y298670D01*
X707570Y298383D01*
X707441Y298100D01*
X707304Y297820D01*
X707160Y297543D01*
X707010Y297270D01*
X706853Y297001D01*
X706690Y296736D01*
X706520Y296474D01*
X706343Y296217D01*
X706161Y295965D01*
X705972Y295717D01*
X705777Y295473D01*
X705577Y295235D01*
X705370Y295001D01*
X705158Y294773D01*
X704940Y294550D01*
X704717Y294332D01*
X704489Y294120D01*
X704255Y293913D01*
X704017Y293713D01*
X703773Y293518D01*
X703525Y293329D01*
X703273Y293147D01*
X703016Y292970D01*
X702754Y292800D01*
X702489Y292637D01*
X702220Y292480D01*
X701947Y292330D01*
X701670Y292186D01*
X701390Y292049D01*
X701107Y291920D01*
X700820Y291797D01*
X700531Y291681D01*
X700239Y291572D01*
X699944Y291471D01*
X699647Y291377D01*
X699347Y291290D01*
X699046Y291211D01*
X698743Y291139D01*
X698438Y291074D01*
X698131Y291017D01*
X697823Y290967D01*
X697515Y290926D01*
X697205Y290891D01*
X696894Y290864D01*
X696583Y290845D01*
X696272Y290834D01*
X695960Y290830D01*
X695648Y290834D01*
X695337Y290845D01*
X695026Y290864D01*
X694715Y290891D01*
X694405Y290926D01*
X694097Y290967D01*
X693789Y291017D01*
X693482Y291074D01*
X693177Y291139D01*
X692874Y291211D01*
X692573Y291290D01*
X692273Y291377D01*
X691976Y291471D01*
X691681Y291572D01*
X691389Y291681D01*
X691100Y291797D01*
X690813Y291920D01*
X690530Y292049D01*
X690250Y292186D01*
X689973Y292330D01*
X689700Y292480D01*
X689431Y292637D01*
X689166Y292800D01*
X688904Y292970D01*
X688647Y293147D01*
X688395Y293329D01*
X688147Y293518D01*
X687903Y293713D01*
X687665Y293913D01*
X687431Y294120D01*
X687203Y294332D01*
X686980Y294550D01*
X686762Y294773D01*
X686550Y295001D01*
X686343Y295235D01*
X686143Y295473D01*
X685948Y295717D01*
X685759Y295965D01*
X685577Y296217D01*
X685400Y296474D01*
X685230Y296736D01*
X685067Y297001D01*
X684910Y297270D01*
X684760Y297543D01*
X684616Y297820D01*
X684479Y298100D01*
X684350Y298383D01*
X684227Y298670D01*
X684111Y298959D01*
X684002Y299251D01*
X683901Y299546D01*
X683807Y299843D01*
X683720Y300143D01*
X683641Y300444D01*
X683569Y300747D01*
X683504Y301052D01*
X683447Y301359D01*
X683397Y301667D01*
X683356Y301975D01*
X683321Y302285D01*
X683294Y302596D01*
X683275Y302907D01*
X683264Y303218D01*
X683260Y303530D01*
X683260Y82550D02*
X683264Y82862D01*
X683275Y83173D01*
X683294Y83484D01*
X683321Y83795D01*
X683356Y84105D01*
X683397Y84413D01*
X683447Y84721D01*
X683504Y85028D01*
X683569Y85333D01*
X683641Y85636D01*
X683720Y85937D01*
X683807Y86237D01*
X683901Y86534D01*
X684002Y86829D01*
X684111Y87121D01*
X684227Y87410D01*
X684350Y87697D01*
X684479Y87980D01*
X684616Y88260D01*
X684760Y88537D01*
X684910Y88810D01*
X685067Y89079D01*
X685230Y89344D01*
X685400Y89606D01*
X685577Y89863D01*
X685759Y90115D01*
X685948Y90363D01*
X686143Y90607D01*
X686343Y90845D01*
X686550Y91079D01*
X686762Y91307D01*
X686980Y91530D01*
X687203Y91748D01*
X687431Y91960D01*
X687665Y92167D01*
X687903Y92367D01*
X688147Y92562D01*
X688395Y92751D01*
X688647Y92933D01*
X688904Y93110D01*
X689166Y93280D01*
X689431Y93443D01*
X689700Y93600D01*
X689973Y93750D01*
X690250Y93894D01*
X690530Y94031D01*
X690813Y94160D01*
X691100Y94283D01*
X691389Y94399D01*
X691681Y94508D01*
X691976Y94609D01*
X692273Y94703D01*
X692573Y94790D01*
X692874Y94869D01*
X693177Y94941D01*
X693482Y95006D01*
X693789Y95063D01*
X694097Y95113D01*
X694405Y95154D01*
X694715Y95189D01*
X695026Y95216D01*
X695337Y95235D01*
X695648Y95246D01*
X695960Y95250D01*
X696272Y95246D01*
X696583Y95235D01*
X696894Y95216D01*
X697205Y95189D01*
X697515Y95154D01*
X697823Y95113D01*
X698131Y95063D01*
X698438Y95006D01*
X698743Y94941D01*
X699046Y94869D01*
X699347Y94790D01*
X699647Y94703D01*
X699944Y94609D01*
X700239Y94508D01*
X700531Y94399D01*
X700820Y94283D01*
X701107Y94160D01*
X701390Y94031D01*
X701670Y93894D01*
X701947Y93750D01*
X702220Y93600D01*
X702489Y93443D01*
X702754Y93280D01*
X703016Y93110D01*
X703273Y92933D01*
X703525Y92751D01*
X703773Y92562D01*
X704017Y92367D01*
X704255Y92167D01*
X704489Y91960D01*
X704717Y91748D01*
X704940Y91530D01*
X705158Y91307D01*
X705370Y91079D01*
X705577Y90845D01*
X705777Y90607D01*
X705972Y90363D01*
X706161Y90115D01*
X706343Y89863D01*
X706520Y89606D01*
X706690Y89344D01*
X706853Y89079D01*
X707010Y88810D01*
X707160Y88537D01*
X707304Y88260D01*
X707441Y87980D01*
X707570Y87697D01*
X707693Y87410D01*
X707809Y87121D01*
X707918Y86829D01*
X708019Y86534D01*
X708113Y86237D01*
X708200Y85937D01*
X708279Y85636D01*
X708351Y85333D01*
X708416Y85028D01*
X708473Y84721D01*
X708523Y84413D01*
X708564Y84105D01*
X708599Y83795D01*
X708626Y83484D01*
X708645Y83173D01*
X708656Y82862D01*
X708660Y82550D01*
X708656Y82238D01*
X708645Y81927D01*
X708626Y81616D01*
X708599Y81305D01*
X708564Y80995D01*
X708523Y80687D01*
X708473Y80379D01*
X708416Y80072D01*
X708351Y79767D01*
X708279Y79464D01*
X708200Y79163D01*
X708113Y78863D01*
X708019Y78566D01*
X707918Y78271D01*
X707809Y77979D01*
X707693Y77690D01*
X707570Y77403D01*
X707441Y77120D01*
X707304Y76840D01*
X707160Y76563D01*
X707010Y76290D01*
X706853Y76021D01*
X706690Y75756D01*
X706520Y75494D01*
X706343Y75237D01*
X706161Y74985D01*
X705972Y74737D01*
X705777Y74493D01*
X705577Y74255D01*
X705370Y74021D01*
X705158Y73793D01*
X704940Y73570D01*
X704717Y73352D01*
X704489Y73140D01*
X704255Y72933D01*
X704017Y72733D01*
X703773Y72538D01*
X703525Y72349D01*
X703273Y72167D01*
X703016Y71990D01*
X702754Y71820D01*
X702489Y71657D01*
X702220Y71500D01*
X701947Y71350D01*
X701670Y71206D01*
X701390Y71069D01*
X701107Y70940D01*
X700820Y70817D01*
X700531Y70701D01*
X700239Y70592D01*
X699944Y70491D01*
X699647Y70397D01*
X699347Y70310D01*
X699046Y70231D01*
X698743Y70159D01*
X698438Y70094D01*
X698131Y70037D01*
X697823Y69987D01*
X697515Y69946D01*
X697205Y69911D01*
X696894Y69884D01*
X696583Y69865D01*
X696272Y69854D01*
X695960Y69850D01*
X695648Y69854D01*
X695337Y69865D01*
X695026Y69884D01*
X694715Y69911D01*
X694405Y69946D01*
X694097Y69987D01*
X693789Y70037D01*
X693482Y70094D01*
X693177Y70159D01*
X692874Y70231D01*
X692573Y70310D01*
X692273Y70397D01*
X691976Y70491D01*
X691681Y70592D01*
X691389Y70701D01*
X691100Y70817D01*
X690813Y70940D01*
X690530Y71069D01*
X690250Y71206D01*
X689973Y71350D01*
X689700Y71500D01*
X689431Y71657D01*
X689166Y71820D01*
X688904Y71990D01*
X688647Y72167D01*
X688395Y72349D01*
X688147Y72538D01*
X687903Y72733D01*
X687665Y72933D01*
X687431Y73140D01*
X687203Y73352D01*
X686980Y73570D01*
X686762Y73793D01*
X686550Y74021D01*
X686343Y74255D01*
X686143Y74493D01*
X685948Y74737D01*
X685759Y74985D01*
X685577Y75237D01*
X685400Y75494D01*
X685230Y75756D01*
X685067Y76021D01*
X684910Y76290D01*
X684760Y76563D01*
X684616Y76840D01*
X684479Y77120D01*
X684350Y77403D01*
X684227Y77690D01*
X684111Y77979D01*
X684002Y78271D01*
X683901Y78566D01*
X683807Y78863D01*
X683720Y79163D01*
X683641Y79464D01*
X683569Y79767D01*
X683504Y80072D01*
X683447Y80379D01*
X683397Y80687D01*
X683356Y80995D01*
X683321Y81305D01*
X683294Y81616D01*
X683275Y81927D01*
X683264Y82238D01*
X683260Y82550D01*
D14*
X150136Y345440D02*
X147878Y345440D01*
X150136Y345440D02*
X150229Y345442D01*
X150322Y345448D01*
X150415Y345457D01*
X150508Y345471D01*
X150599Y345488D01*
X150690Y345509D01*
X150780Y345534D01*
X150869Y345562D01*
X150957Y345594D01*
X151043Y345630D01*
X151128Y345669D01*
X151211Y345712D01*
X151292Y345758D01*
X151371Y345808D01*
X151448Y345860D01*
X151523Y345916D01*
X151595Y345975D01*
X151665Y346037D01*
X151733Y346101D01*
X151797Y346169D01*
X151859Y346239D01*
X151918Y346311D01*
X151974Y346386D01*
X152026Y346463D01*
X152076Y346542D01*
X152122Y346623D01*
X152165Y346706D01*
X152204Y346791D01*
X152240Y346877D01*
X152272Y346965D01*
X152300Y347054D01*
X152325Y347144D01*
X152346Y347235D01*
X152363Y347326D01*
X152377Y347419D01*
X152386Y347512D01*
X152392Y347605D01*
X152394Y347698D01*
X152394Y353342D01*
X152392Y353435D01*
X152386Y353528D01*
X152377Y353621D01*
X152363Y353714D01*
X152346Y353805D01*
X152325Y353896D01*
X152300Y353986D01*
X152272Y354075D01*
X152240Y354163D01*
X152204Y354249D01*
X152165Y354334D01*
X152122Y354417D01*
X152076Y354498D01*
X152026Y354577D01*
X151974Y354654D01*
X151918Y354729D01*
X151859Y354801D01*
X151797Y354871D01*
X151733Y354939D01*
X151665Y355003D01*
X151595Y355065D01*
X151523Y355124D01*
X151448Y355180D01*
X151371Y355232D01*
X151292Y355282D01*
X151211Y355328D01*
X151128Y355371D01*
X151043Y355410D01*
X150957Y355446D01*
X150869Y355478D01*
X150780Y355506D01*
X150690Y355531D01*
X150599Y355552D01*
X150508Y355569D01*
X150415Y355583D01*
X150322Y355592D01*
X150229Y355598D01*
X150136Y355600D01*
X147878Y355600D01*
X142811Y345440D02*
X139424Y345440D01*
X139331Y345442D01*
X139238Y345448D01*
X139145Y345457D01*
X139052Y345471D01*
X138961Y345488D01*
X138870Y345509D01*
X138780Y345534D01*
X138691Y345562D01*
X138603Y345594D01*
X138517Y345630D01*
X138432Y345669D01*
X138349Y345712D01*
X138268Y345758D01*
X138189Y345808D01*
X138112Y345860D01*
X138037Y345916D01*
X137965Y345975D01*
X137895Y346037D01*
X137827Y346101D01*
X137763Y346169D01*
X137701Y346239D01*
X137642Y346311D01*
X137586Y346386D01*
X137534Y346463D01*
X137484Y346542D01*
X137438Y346623D01*
X137395Y346706D01*
X137356Y346791D01*
X137320Y346877D01*
X137288Y346965D01*
X137260Y347054D01*
X137235Y347144D01*
X137214Y347235D01*
X137197Y347326D01*
X137183Y347419D01*
X137174Y347511D01*
X137168Y347605D01*
X137166Y347698D01*
X137166Y348827D01*
X137168Y348920D01*
X137174Y349013D01*
X137183Y349106D01*
X137197Y349199D01*
X137214Y349290D01*
X137235Y349381D01*
X137260Y349471D01*
X137288Y349560D01*
X137320Y349648D01*
X137356Y349734D01*
X137395Y349819D01*
X137438Y349902D01*
X137484Y349983D01*
X137534Y350062D01*
X137586Y350139D01*
X137642Y350214D01*
X137701Y350286D01*
X137763Y350356D01*
X137827Y350424D01*
X137895Y350488D01*
X137965Y350550D01*
X138037Y350609D01*
X138112Y350665D01*
X138189Y350717D01*
X138268Y350767D01*
X138349Y350813D01*
X138432Y350856D01*
X138517Y350895D01*
X138603Y350931D01*
X138691Y350963D01*
X138780Y350991D01*
X138870Y351016D01*
X138961Y351037D01*
X139052Y351054D01*
X139145Y351068D01*
X139238Y351077D01*
X139331Y351083D01*
X139424Y351085D01*
X139424Y351084D02*
X142811Y351084D01*
X142811Y355600D01*
X137166Y355600D01*
D15*
X52070Y168910D02*
X26970Y168910D01*
X64770Y178910D02*
X64770Y209710D01*
X51770Y219710D02*
X26970Y219710D01*
X13970Y209710D02*
X13970Y178910D01*
X26670Y194310D02*
X26674Y194622D01*
X26685Y194933D01*
X26704Y195244D01*
X26731Y195555D01*
X26766Y195865D01*
X26807Y196173D01*
X26857Y196481D01*
X26914Y196788D01*
X26979Y197093D01*
X27051Y197396D01*
X27130Y197697D01*
X27217Y197997D01*
X27311Y198294D01*
X27412Y198589D01*
X27521Y198881D01*
X27637Y199170D01*
X27760Y199457D01*
X27889Y199740D01*
X28026Y200020D01*
X28170Y200297D01*
X28320Y200570D01*
X28477Y200839D01*
X28640Y201104D01*
X28810Y201366D01*
X28987Y201623D01*
X29169Y201875D01*
X29358Y202123D01*
X29553Y202367D01*
X29753Y202605D01*
X29960Y202839D01*
X30172Y203067D01*
X30390Y203290D01*
X30613Y203508D01*
X30841Y203720D01*
X31075Y203927D01*
X31313Y204127D01*
X31557Y204322D01*
X31805Y204511D01*
X32057Y204693D01*
X32314Y204870D01*
X32576Y205040D01*
X32841Y205203D01*
X33110Y205360D01*
X33383Y205510D01*
X33660Y205654D01*
X33940Y205791D01*
X34223Y205920D01*
X34510Y206043D01*
X34799Y206159D01*
X35091Y206268D01*
X35386Y206369D01*
X35683Y206463D01*
X35983Y206550D01*
X36284Y206629D01*
X36587Y206701D01*
X36892Y206766D01*
X37199Y206823D01*
X37507Y206873D01*
X37815Y206914D01*
X38125Y206949D01*
X38436Y206976D01*
X38747Y206995D01*
X39058Y207006D01*
X39370Y207010D01*
X39682Y207006D01*
X39993Y206995D01*
X40304Y206976D01*
X40615Y206949D01*
X40925Y206914D01*
X41233Y206873D01*
X41541Y206823D01*
X41848Y206766D01*
X42153Y206701D01*
X42456Y206629D01*
X42757Y206550D01*
X43057Y206463D01*
X43354Y206369D01*
X43649Y206268D01*
X43941Y206159D01*
X44230Y206043D01*
X44517Y205920D01*
X44800Y205791D01*
X45080Y205654D01*
X45357Y205510D01*
X45630Y205360D01*
X45899Y205203D01*
X46164Y205040D01*
X46426Y204870D01*
X46683Y204693D01*
X46935Y204511D01*
X47183Y204322D01*
X47427Y204127D01*
X47665Y203927D01*
X47899Y203720D01*
X48127Y203508D01*
X48350Y203290D01*
X48568Y203067D01*
X48780Y202839D01*
X48987Y202605D01*
X49187Y202367D01*
X49382Y202123D01*
X49571Y201875D01*
X49753Y201623D01*
X49930Y201366D01*
X50100Y201104D01*
X50263Y200839D01*
X50420Y200570D01*
X50570Y200297D01*
X50714Y200020D01*
X50851Y199740D01*
X50980Y199457D01*
X51103Y199170D01*
X51219Y198881D01*
X51328Y198589D01*
X51429Y198294D01*
X51523Y197997D01*
X51610Y197697D01*
X51689Y197396D01*
X51761Y197093D01*
X51826Y196788D01*
X51883Y196481D01*
X51933Y196173D01*
X51974Y195865D01*
X52009Y195555D01*
X52036Y195244D01*
X52055Y194933D01*
X52066Y194622D01*
X52070Y194310D01*
X52066Y193998D01*
X52055Y193687D01*
X52036Y193376D01*
X52009Y193065D01*
X51974Y192755D01*
X51933Y192447D01*
X51883Y192139D01*
X51826Y191832D01*
X51761Y191527D01*
X51689Y191224D01*
X51610Y190923D01*
X51523Y190623D01*
X51429Y190326D01*
X51328Y190031D01*
X51219Y189739D01*
X51103Y189450D01*
X50980Y189163D01*
X50851Y188880D01*
X50714Y188600D01*
X50570Y188323D01*
X50420Y188050D01*
X50263Y187781D01*
X50100Y187516D01*
X49930Y187254D01*
X49753Y186997D01*
X49571Y186745D01*
X49382Y186497D01*
X49187Y186253D01*
X48987Y186015D01*
X48780Y185781D01*
X48568Y185553D01*
X48350Y185330D01*
X48127Y185112D01*
X47899Y184900D01*
X47665Y184693D01*
X47427Y184493D01*
X47183Y184298D01*
X46935Y184109D01*
X46683Y183927D01*
X46426Y183750D01*
X46164Y183580D01*
X45899Y183417D01*
X45630Y183260D01*
X45357Y183110D01*
X45080Y182966D01*
X44800Y182829D01*
X44517Y182700D01*
X44230Y182577D01*
X43941Y182461D01*
X43649Y182352D01*
X43354Y182251D01*
X43057Y182157D01*
X42757Y182070D01*
X42456Y181991D01*
X42153Y181919D01*
X41848Y181854D01*
X41541Y181797D01*
X41233Y181747D01*
X40925Y181706D01*
X40615Y181671D01*
X40304Y181644D01*
X39993Y181625D01*
X39682Y181614D01*
X39370Y181610D01*
X39058Y181614D01*
X38747Y181625D01*
X38436Y181644D01*
X38125Y181671D01*
X37815Y181706D01*
X37507Y181747D01*
X37199Y181797D01*
X36892Y181854D01*
X36587Y181919D01*
X36284Y181991D01*
X35983Y182070D01*
X35683Y182157D01*
X35386Y182251D01*
X35091Y182352D01*
X34799Y182461D01*
X34510Y182577D01*
X34223Y182700D01*
X33940Y182829D01*
X33660Y182966D01*
X33383Y183110D01*
X33110Y183260D01*
X32841Y183417D01*
X32576Y183580D01*
X32314Y183750D01*
X32057Y183927D01*
X31805Y184109D01*
X31557Y184298D01*
X31313Y184493D01*
X31075Y184693D01*
X30841Y184900D01*
X30613Y185112D01*
X30390Y185330D01*
X30172Y185553D01*
X29960Y185781D01*
X29753Y186015D01*
X29553Y186253D01*
X29358Y186497D01*
X29169Y186745D01*
X28987Y186997D01*
X28810Y187254D01*
X28640Y187516D01*
X28477Y187781D01*
X28320Y188050D01*
X28170Y188323D01*
X28026Y188600D01*
X27889Y188880D01*
X27760Y189163D01*
X27637Y189450D01*
X27521Y189739D01*
X27412Y190031D01*
X27311Y190326D01*
X27217Y190623D01*
X27130Y190923D01*
X27051Y191224D01*
X26979Y191527D01*
X26914Y191832D01*
X26857Y192139D01*
X26807Y192447D01*
X26766Y192755D01*
X26731Y193065D01*
X26704Y193376D01*
X26685Y193687D01*
X26674Y193998D01*
X26670Y194310D01*
D14*
X78034Y183790D02*
X78034Y180968D01*
X78034Y183790D02*
X78032Y183896D01*
X78026Y184001D01*
X78016Y184106D01*
X78002Y184211D01*
X77985Y184315D01*
X77963Y184418D01*
X77938Y184520D01*
X77909Y184622D01*
X77876Y184722D01*
X77839Y184821D01*
X77799Y184918D01*
X77755Y185014D01*
X77707Y185109D01*
X77656Y185201D01*
X77601Y185291D01*
X77544Y185380D01*
X77483Y185466D01*
X77418Y185549D01*
X77351Y185631D01*
X77281Y185709D01*
X77207Y185785D01*
X77131Y185859D01*
X77053Y185929D01*
X76971Y185996D01*
X76888Y186061D01*
X76802Y186122D01*
X76713Y186179D01*
X76623Y186234D01*
X76531Y186285D01*
X76436Y186333D01*
X76340Y186377D01*
X76243Y186417D01*
X76144Y186454D01*
X76044Y186487D01*
X75942Y186516D01*
X75840Y186541D01*
X75737Y186563D01*
X75633Y186580D01*
X75528Y186594D01*
X75423Y186604D01*
X75318Y186610D01*
X75212Y186612D01*
X75106Y186610D01*
X75001Y186604D01*
X74896Y186594D01*
X74791Y186580D01*
X74687Y186563D01*
X74584Y186541D01*
X74482Y186516D01*
X74380Y186487D01*
X74280Y186454D01*
X74181Y186417D01*
X74084Y186377D01*
X73988Y186333D01*
X73893Y186285D01*
X73801Y186234D01*
X73711Y186179D01*
X73622Y186122D01*
X73536Y186061D01*
X73453Y185996D01*
X73371Y185929D01*
X73293Y185859D01*
X73217Y185785D01*
X73143Y185709D01*
X73073Y185631D01*
X73006Y185549D01*
X72941Y185466D01*
X72880Y185380D01*
X72823Y185291D01*
X72768Y185201D01*
X72717Y185109D01*
X72669Y185014D01*
X72625Y184918D01*
X72585Y184821D01*
X72548Y184722D01*
X72515Y184622D01*
X72486Y184520D01*
X72461Y184418D01*
X72439Y184315D01*
X72422Y184211D01*
X72408Y184106D01*
X72398Y184001D01*
X72392Y183896D01*
X72390Y183790D01*
X72390Y180968D01*
X82550Y180968D01*
X82550Y183790D01*
X82548Y183883D01*
X82542Y183976D01*
X82533Y184069D01*
X82519Y184162D01*
X82502Y184253D01*
X82481Y184344D01*
X82456Y184434D01*
X82428Y184523D01*
X82396Y184611D01*
X82360Y184697D01*
X82321Y184782D01*
X82278Y184865D01*
X82232Y184946D01*
X82182Y185025D01*
X82130Y185102D01*
X82074Y185177D01*
X82015Y185249D01*
X81953Y185319D01*
X81889Y185387D01*
X81821Y185451D01*
X81751Y185513D01*
X81679Y185572D01*
X81604Y185628D01*
X81527Y185680D01*
X81448Y185730D01*
X81367Y185776D01*
X81284Y185819D01*
X81199Y185858D01*
X81113Y185894D01*
X81025Y185926D01*
X80936Y185954D01*
X80846Y185979D01*
X80755Y186000D01*
X80664Y186017D01*
X80571Y186031D01*
X80478Y186040D01*
X80385Y186046D01*
X80292Y186048D01*
X80199Y186046D01*
X80106Y186040D01*
X80013Y186031D01*
X79920Y186017D01*
X79829Y186000D01*
X79738Y185979D01*
X79648Y185954D01*
X79559Y185926D01*
X79471Y185894D01*
X79385Y185858D01*
X79300Y185819D01*
X79217Y185776D01*
X79136Y185730D01*
X79057Y185680D01*
X78980Y185628D01*
X78905Y185572D01*
X78833Y185513D01*
X78763Y185451D01*
X78695Y185387D01*
X78631Y185319D01*
X78569Y185249D01*
X78510Y185177D01*
X78454Y185102D01*
X78402Y185025D01*
X78352Y184946D01*
X78306Y184865D01*
X78263Y184782D01*
X78224Y184697D01*
X78188Y184611D01*
X78156Y184523D01*
X78128Y184434D01*
X78103Y184344D01*
X78082Y184253D01*
X78065Y184162D01*
X78051Y184069D01*
X78042Y183976D01*
X78036Y183883D01*
X78034Y183790D01*
X82550Y193781D02*
X72390Y193781D01*
X82550Y190959D02*
X82550Y196603D01*
X82550Y202008D02*
X72390Y202008D01*
X72390Y207652D02*
X82550Y202008D01*
X82550Y207652D02*
X72390Y207652D01*
M02*
