G04 EAGLE Gerber RS-274X export*
G75*
%MOMM*%
%FSLAX34Y34*%
%LPD*%
%INSoldermask Top*%
%IPPOS*%
%AMOC8*
5,1,8,0,0,1.08239X$1,22.5*%
G01*
%ADD10C,2.403200*%
%ADD11C,3.003200*%
%ADD12P,1.635708X8X292.500000*%
%ADD13C,1.981200*%
%ADD14C,2.103200*%
%ADD15R,2.753200X2.903200*%
%ADD16R,1.003200X1.403200*%
%ADD17C,1.711200*%
%ADD18R,1.603200X1.603200*%
%ADD19R,1.371600X1.803400*%
%ADD20R,0.152400X1.828800*%
%ADD21C,2.082800*%
%ADD22C,1.259600*%


D10*
X34290Y321310D03*
X34290Y67310D03*
X567690Y67310D03*
X567690Y321310D03*
D11*
X695960Y82550D03*
X695960Y303530D03*
X29210Y356870D03*
X701040Y356870D03*
X701040Y26670D03*
D12*
X59690Y321310D03*
X85090Y321310D03*
X110490Y321310D03*
X135890Y321310D03*
X161290Y321310D03*
X186690Y321310D03*
X212090Y321310D03*
X237490Y321310D03*
X262890Y321310D03*
X288290Y321310D03*
X313690Y321310D03*
X339090Y321310D03*
X364490Y321310D03*
X389890Y321310D03*
X415290Y321310D03*
X440690Y321310D03*
X466090Y321310D03*
X491490Y321310D03*
X516890Y321310D03*
X516890Y67310D03*
X491490Y67310D03*
X466090Y67310D03*
X440690Y67310D03*
X415290Y67310D03*
X389890Y67310D03*
X364490Y67310D03*
X339090Y67310D03*
X313690Y67310D03*
X288290Y67310D03*
X262890Y67310D03*
X237490Y67310D03*
X212090Y67310D03*
X186690Y67310D03*
X161290Y67310D03*
X135890Y67310D03*
X110490Y67310D03*
X85090Y67310D03*
X59690Y67310D03*
D13*
X298450Y153670D03*
X298450Y179070D03*
X298450Y204470D03*
D14*
X298450Y229870D03*
D15*
X253950Y177800D03*
X190550Y177800D03*
D16*
X165210Y208280D03*
X147210Y208280D03*
D17*
X643890Y346710D03*
X618490Y346710D03*
X593090Y346710D03*
X567690Y346710D03*
X542290Y346710D03*
X516890Y346710D03*
X491490Y346710D03*
X466090Y346710D03*
X440690Y346710D03*
X415290Y346710D03*
X389890Y346710D03*
X364490Y346710D03*
X339090Y346710D03*
X339090Y41910D03*
X364490Y41910D03*
X389890Y41910D03*
X415290Y41910D03*
X440690Y41910D03*
X466090Y41910D03*
X491490Y41910D03*
X516890Y41910D03*
X542290Y41910D03*
X567690Y41910D03*
X593090Y41910D03*
X618490Y41910D03*
X643890Y41910D03*
D18*
X300990Y347980D03*
X284480Y347980D03*
X267970Y347980D03*
D15*
X193090Y245110D03*
X256490Y245110D03*
D16*
X162670Y265430D03*
X144670Y265430D03*
D17*
X355600Y231140D03*
X355600Y205740D03*
X355600Y180340D03*
X355600Y154940D03*
D19*
X147320Y124460D03*
X162560Y124460D03*
D20*
X154940Y124460D03*
D19*
X264160Y124460D03*
X279400Y124460D03*
D20*
X271780Y124460D03*
D19*
X228600Y124460D03*
X243840Y124460D03*
D20*
X236220Y124460D03*
D19*
X182880Y124460D03*
X198120Y124460D03*
D20*
X190500Y124460D03*
D21*
X59690Y16510D03*
X59690Y41910D03*
X85090Y16510D03*
X85090Y41910D03*
X110490Y16510D03*
X110490Y41910D03*
X135890Y16510D03*
X135890Y41910D03*
X161290Y16510D03*
X161290Y41910D03*
X186690Y16510D03*
X186690Y41910D03*
X212090Y16510D03*
X212090Y41910D03*
X237490Y16510D03*
X237490Y41910D03*
X262890Y16510D03*
X262890Y41910D03*
X288290Y16510D03*
X288290Y41910D03*
D22*
X142240Y208280D03*
X240030Y177800D03*
X139700Y265430D03*
X205740Y245110D03*
X121920Y350520D03*
X142240Y166370D03*
X170180Y208280D03*
X204470Y177800D03*
X167640Y265430D03*
X243840Y245110D03*
X95250Y350520D03*
X91440Y166370D03*
M02*
