G04 EAGLE Gerber RS-274X export*
G75*
%MOMM*%
%FSLAX34Y34*%
%LPD*%
%INSoldermask Bottom*%
%IPPOS*%
%AMOC8*
5,1,8,0,0,1.08239X$1,22.5*%
G01*
%ADD10C,2.403200*%
%ADD11C,3.003200*%
%ADD12P,1.635708X8X292.500000*%
%ADD13C,1.981200*%
%ADD14C,2.103200*%
%ADD15C,1.711200*%
%ADD16R,1.473200X2.263200*%
%ADD17R,1.003200X1.403200*%
%ADD18C,2.082800*%
%ADD19R,0.965200X1.727200*%
%ADD20C,1.259600*%


D10*
X34290Y321310D03*
X34290Y67310D03*
X567690Y67310D03*
X567690Y321310D03*
D11*
X695960Y82550D03*
X695960Y303530D03*
X29210Y356870D03*
X701040Y356870D03*
X701040Y26670D03*
D12*
X59690Y321310D03*
X85090Y321310D03*
X110490Y321310D03*
X135890Y321310D03*
X161290Y321310D03*
X186690Y321310D03*
X212090Y321310D03*
X237490Y321310D03*
X262890Y321310D03*
X288290Y321310D03*
X313690Y321310D03*
X339090Y321310D03*
X364490Y321310D03*
X389890Y321310D03*
X415290Y321310D03*
X440690Y321310D03*
X466090Y321310D03*
X491490Y321310D03*
X516890Y321310D03*
X516890Y67310D03*
X491490Y67310D03*
X466090Y67310D03*
X440690Y67310D03*
X415290Y67310D03*
X389890Y67310D03*
X364490Y67310D03*
X339090Y67310D03*
X313690Y67310D03*
X288290Y67310D03*
X262890Y67310D03*
X237490Y67310D03*
X212090Y67310D03*
X186690Y67310D03*
X161290Y67310D03*
X135890Y67310D03*
X110490Y67310D03*
X85090Y67310D03*
X59690Y67310D03*
D13*
X298450Y153670D03*
X298450Y179070D03*
X298450Y204470D03*
D14*
X298450Y229870D03*
D15*
X643890Y346710D03*
X618490Y346710D03*
X593090Y346710D03*
X567690Y346710D03*
X542290Y346710D03*
X516890Y346710D03*
X491490Y346710D03*
X466090Y346710D03*
X440690Y346710D03*
X415290Y346710D03*
X389890Y346710D03*
X364490Y346710D03*
X339090Y346710D03*
X339090Y41910D03*
X364490Y41910D03*
X389890Y41910D03*
X415290Y41910D03*
X440690Y41910D03*
X466090Y41910D03*
X491490Y41910D03*
X516890Y41910D03*
X542290Y41910D03*
X567690Y41910D03*
X593090Y41910D03*
X618490Y41910D03*
X643890Y41910D03*
D16*
X134390Y166370D03*
X99290Y166370D03*
D15*
X355600Y231140D03*
X355600Y205740D03*
X355600Y180340D03*
X355600Y154940D03*
D17*
X100220Y350520D03*
X118220Y350520D03*
D18*
X59690Y16510D03*
X59690Y41910D03*
X85090Y16510D03*
X85090Y41910D03*
X110490Y16510D03*
X110490Y41910D03*
X135890Y16510D03*
X135890Y41910D03*
X161290Y16510D03*
X161290Y41910D03*
X186690Y16510D03*
X186690Y41910D03*
X212090Y16510D03*
X212090Y41910D03*
X237490Y16510D03*
X237490Y41910D03*
X262890Y16510D03*
X262890Y41910D03*
X288290Y16510D03*
X288290Y41910D03*
D19*
X58420Y166370D03*
X58420Y222250D03*
X20320Y166370D03*
X20320Y222250D03*
D20*
X142240Y208280D03*
X240030Y177800D03*
X139700Y265430D03*
X205740Y245110D03*
X121920Y350520D03*
X142240Y166370D03*
X170180Y208280D03*
X204470Y177800D03*
X167640Y265430D03*
X243840Y245110D03*
X95250Y350520D03*
X91440Y166370D03*
M02*
