G04 EAGLE Gerber RS-274X export*
G75*
%MOMM*%
%FSLAX34Y34*%
%LPD*%
%INTop Copper*%
%IPPOS*%
%AMOC8*
5,1,8,0,0,1.08239X$1,22.5*%
G01*
%ADD10P,1.415766X8X292.500000*%
%ADD11C,1.778000*%
%ADD12C,1.900000*%
%ADD13C,1.508000*%
%ADD14C,5.842000*%
%ADD15C,1.879600*%
%ADD16R,0.800000X1.200000*%
%ADD17R,1.168400X1.600200*%
%ADD18C,1.500000*%
%ADD19C,1.106400*%
%ADD20C,0.812800*%
%ADD21C,0.756400*%
%ADD22C,0.609600*%
%ADD23C,0.200000*%
%ADD24C,0.254000*%
%ADD25C,0.706400*%

G36*
X927129Y11165D02*
X927129Y11165D01*
X927156Y11162D01*
X931482Y11405D01*
X931573Y11424D01*
X931649Y11429D01*
X940084Y13354D01*
X940208Y13402D01*
X940296Y13428D01*
X948091Y17182D01*
X948201Y17256D01*
X948281Y17301D01*
X955046Y22696D01*
X955137Y22793D01*
X955204Y22854D01*
X960599Y29619D01*
X960666Y29734D01*
X960718Y29809D01*
X964472Y37604D01*
X964512Y37731D01*
X964546Y37816D01*
X966471Y46251D01*
X966479Y46344D01*
X966495Y46418D01*
X966738Y50744D01*
X966735Y50774D01*
X966739Y50800D01*
X966739Y150491D01*
X966723Y150608D01*
X966711Y150726D01*
X966703Y150747D01*
X966699Y150770D01*
X966651Y150878D01*
X966607Y150988D01*
X966593Y151006D01*
X966583Y151027D01*
X966506Y151117D01*
X966433Y151210D01*
X966415Y151224D01*
X966400Y151241D01*
X966300Y151306D01*
X966204Y151375D01*
X966183Y151383D01*
X966164Y151396D01*
X966050Y151430D01*
X965939Y151470D01*
X965916Y151471D01*
X965894Y151478D01*
X965776Y151479D01*
X965657Y151486D01*
X965636Y151481D01*
X965612Y151482D01*
X965433Y151432D01*
X965358Y151414D01*
X962087Y150059D01*
X953073Y150059D01*
X944744Y153509D01*
X938369Y159884D01*
X934919Y168212D01*
X934919Y177227D01*
X938369Y185556D01*
X944744Y191931D01*
X953073Y195381D01*
X962087Y195381D01*
X965358Y194026D01*
X965472Y193997D01*
X965586Y193962D01*
X965609Y193962D01*
X965631Y193956D01*
X965749Y193960D01*
X965868Y193958D01*
X965890Y193964D01*
X965913Y193965D01*
X966025Y194002D01*
X966140Y194034D01*
X966159Y194046D01*
X966181Y194053D01*
X966279Y194119D01*
X966380Y194182D01*
X966395Y194199D01*
X966414Y194211D01*
X966489Y194303D01*
X966569Y194391D01*
X966579Y194412D01*
X966593Y194429D01*
X966640Y194538D01*
X966692Y194645D01*
X966695Y194666D01*
X966705Y194688D01*
X966726Y194866D01*
X966727Y194869D01*
X966727Y194873D01*
X966739Y194949D01*
X966739Y371471D01*
X966723Y371588D01*
X966711Y371706D01*
X966703Y371727D01*
X966699Y371750D01*
X966651Y371858D01*
X966607Y371968D01*
X966593Y371986D01*
X966583Y372007D01*
X966506Y372097D01*
X966433Y372190D01*
X966415Y372204D01*
X966400Y372221D01*
X966300Y372286D01*
X966204Y372355D01*
X966183Y372363D01*
X966164Y372376D01*
X966050Y372410D01*
X965939Y372450D01*
X965916Y372451D01*
X965894Y372458D01*
X965776Y372459D01*
X965657Y372466D01*
X965636Y372461D01*
X965612Y372462D01*
X965433Y372412D01*
X965358Y372394D01*
X962087Y371039D01*
X953073Y371039D01*
X944744Y374489D01*
X938369Y380864D01*
X934919Y389192D01*
X934919Y398207D01*
X938369Y406536D01*
X944744Y412911D01*
X953073Y416361D01*
X962087Y416361D01*
X965358Y415006D01*
X965472Y414977D01*
X965586Y414942D01*
X965609Y414942D01*
X965631Y414936D01*
X965749Y414940D01*
X965868Y414938D01*
X965890Y414944D01*
X965913Y414945D01*
X966025Y414982D01*
X966140Y415014D01*
X966159Y415026D01*
X966181Y415033D01*
X966279Y415099D01*
X966380Y415162D01*
X966395Y415179D01*
X966414Y415191D01*
X966489Y415283D01*
X966569Y415371D01*
X966579Y415392D01*
X966593Y415409D01*
X966640Y415518D01*
X966692Y415625D01*
X966695Y415646D01*
X966705Y415668D01*
X966727Y415853D01*
X966739Y415929D01*
X966739Y508000D01*
X966735Y508029D01*
X966738Y508056D01*
X966495Y512382D01*
X966476Y512473D01*
X966471Y512549D01*
X964546Y520984D01*
X964500Y521103D01*
X964480Y521178D01*
X964475Y521185D01*
X964472Y521196D01*
X960718Y528991D01*
X960644Y529101D01*
X960599Y529181D01*
X955204Y535946D01*
X955107Y536037D01*
X955046Y536104D01*
X948281Y541499D01*
X948166Y541566D01*
X948091Y541618D01*
X940296Y545372D01*
X940169Y545412D01*
X940084Y545446D01*
X931649Y547371D01*
X931556Y547379D01*
X931482Y547395D01*
X927156Y547638D01*
X927126Y547635D01*
X927100Y547639D01*
X50800Y547639D01*
X50771Y547635D01*
X50744Y547638D01*
X46418Y547395D01*
X46327Y547376D01*
X46251Y547371D01*
X37816Y545446D01*
X37692Y545398D01*
X37604Y545372D01*
X29809Y541618D01*
X29699Y541544D01*
X29619Y541499D01*
X22854Y536104D01*
X22763Y536007D01*
X22696Y535946D01*
X17301Y529181D01*
X17234Y529066D01*
X17182Y528991D01*
X13428Y521196D01*
X13388Y521069D01*
X13354Y520984D01*
X11429Y512549D01*
X11421Y512456D01*
X11405Y512382D01*
X11162Y508056D01*
X11165Y508026D01*
X11161Y508000D01*
X11161Y431868D01*
X11177Y431751D01*
X11189Y431632D01*
X11197Y431611D01*
X11201Y431589D01*
X11249Y431481D01*
X11293Y431370D01*
X11307Y431352D01*
X11317Y431332D01*
X11394Y431242D01*
X11467Y431148D01*
X11485Y431135D01*
X11500Y431117D01*
X11600Y431052D01*
X11696Y430983D01*
X11717Y430976D01*
X11736Y430963D01*
X11850Y430928D01*
X11961Y430889D01*
X11984Y430887D01*
X12006Y430881D01*
X12124Y430879D01*
X12243Y430872D01*
X12264Y430877D01*
X12288Y430877D01*
X12467Y430927D01*
X12542Y430945D01*
X13571Y431371D01*
X21989Y431371D01*
X29767Y428149D01*
X35409Y422506D01*
X35435Y422487D01*
X35456Y422462D01*
X35548Y422403D01*
X35635Y422337D01*
X35665Y422326D01*
X35692Y422308D01*
X35797Y422276D01*
X35899Y422238D01*
X35931Y422235D01*
X35962Y422226D01*
X36071Y422224D01*
X36180Y422216D01*
X36212Y422222D01*
X36244Y422222D01*
X36349Y422251D01*
X36456Y422273D01*
X36485Y422288D01*
X36516Y422297D01*
X36609Y422355D01*
X36705Y422406D01*
X36728Y422428D01*
X36756Y422445D01*
X36829Y422526D01*
X36907Y422603D01*
X36923Y422631D01*
X36945Y422655D01*
X36992Y422753D01*
X37046Y422848D01*
X37054Y422879D01*
X37068Y422908D01*
X37082Y422998D01*
X37111Y423122D01*
X37109Y423171D01*
X37115Y423213D01*
X37115Y425141D01*
X37102Y425236D01*
X37097Y425332D01*
X37082Y425375D01*
X37075Y425420D01*
X37036Y425507D01*
X37004Y425598D01*
X36979Y425633D01*
X36959Y425677D01*
X36876Y425774D01*
X36823Y425847D01*
X33517Y429153D01*
X31781Y433343D01*
X31781Y437877D01*
X33517Y442067D01*
X36723Y445273D01*
X40913Y447009D01*
X45447Y447009D01*
X49637Y445273D01*
X52843Y442067D01*
X54579Y437877D01*
X54579Y433343D01*
X52843Y429153D01*
X49537Y425847D01*
X49480Y425770D01*
X49415Y425699D01*
X49395Y425658D01*
X49368Y425622D01*
X49334Y425532D01*
X49292Y425445D01*
X49286Y425403D01*
X49269Y425358D01*
X49259Y425230D01*
X49245Y425141D01*
X49245Y416638D01*
X49258Y416543D01*
X49263Y416446D01*
X49278Y416403D01*
X49285Y416358D01*
X49324Y416271D01*
X49356Y416180D01*
X49381Y416146D01*
X49401Y416101D01*
X49484Y416004D01*
X49537Y415931D01*
X51721Y413748D01*
X51721Y406672D01*
X46718Y401669D01*
X39642Y401669D01*
X38935Y402377D01*
X38840Y402448D01*
X38749Y402523D01*
X38728Y402532D01*
X38709Y402546D01*
X38599Y402588D01*
X38490Y402635D01*
X38467Y402637D01*
X38446Y402645D01*
X38327Y402655D01*
X38210Y402669D01*
X38187Y402665D01*
X38164Y402667D01*
X38048Y402643D01*
X37931Y402624D01*
X37911Y402614D01*
X37888Y402610D01*
X37784Y402554D01*
X37676Y402503D01*
X37659Y402488D01*
X37639Y402477D01*
X37554Y402394D01*
X37466Y402316D01*
X37455Y402297D01*
X37437Y402280D01*
X37345Y402118D01*
X37305Y402052D01*
X35719Y398223D01*
X29767Y392271D01*
X21989Y389049D01*
X13571Y389049D01*
X12542Y389475D01*
X12428Y389505D01*
X12314Y389539D01*
X12291Y389540D01*
X12269Y389545D01*
X12151Y389542D01*
X12032Y389543D01*
X12010Y389537D01*
X11987Y389536D01*
X11875Y389500D01*
X11760Y389468D01*
X11741Y389456D01*
X11719Y389449D01*
X11621Y389382D01*
X11520Y389320D01*
X11505Y389303D01*
X11486Y389290D01*
X11411Y389198D01*
X11331Y389110D01*
X11321Y389090D01*
X11307Y389072D01*
X11260Y388963D01*
X11208Y388857D01*
X11205Y388835D01*
X11195Y388813D01*
X11173Y388629D01*
X11161Y388552D01*
X11161Y177868D01*
X11177Y177751D01*
X11189Y177632D01*
X11197Y177611D01*
X11201Y177589D01*
X11249Y177481D01*
X11293Y177370D01*
X11307Y177352D01*
X11317Y177332D01*
X11394Y177242D01*
X11467Y177148D01*
X11485Y177135D01*
X11500Y177117D01*
X11600Y177052D01*
X11696Y176983D01*
X11717Y176976D01*
X11736Y176963D01*
X11850Y176928D01*
X11961Y176889D01*
X11984Y176887D01*
X12006Y176881D01*
X12124Y176879D01*
X12243Y176872D01*
X12264Y176877D01*
X12288Y176877D01*
X12467Y176927D01*
X12542Y176945D01*
X13571Y177371D01*
X21989Y177371D01*
X29767Y174149D01*
X35719Y168197D01*
X37305Y164368D01*
X37366Y164265D01*
X37421Y164161D01*
X37437Y164144D01*
X37449Y164125D01*
X37535Y164044D01*
X37618Y163959D01*
X37638Y163947D01*
X37655Y163932D01*
X37760Y163878D01*
X37863Y163820D01*
X37886Y163814D01*
X37906Y163804D01*
X38022Y163782D01*
X38138Y163755D01*
X38161Y163756D01*
X38183Y163752D01*
X38301Y163763D01*
X38420Y163769D01*
X38441Y163777D01*
X38464Y163779D01*
X38574Y163823D01*
X38686Y163862D01*
X38704Y163874D01*
X38726Y163883D01*
X38872Y163998D01*
X38935Y164043D01*
X39642Y164751D01*
X46718Y164751D01*
X51721Y159748D01*
X51721Y152672D01*
X46743Y147695D01*
X46686Y147618D01*
X46621Y147547D01*
X46601Y147506D01*
X46574Y147469D01*
X46540Y147379D01*
X46498Y147293D01*
X46492Y147251D01*
X46475Y147206D01*
X46465Y147078D01*
X46451Y146988D01*
X46451Y143731D01*
X46452Y143721D01*
X46451Y143712D01*
X46472Y143582D01*
X46491Y143452D01*
X46494Y143443D01*
X46496Y143434D01*
X46553Y143314D01*
X46607Y143195D01*
X46613Y143187D01*
X46617Y143179D01*
X46705Y143080D01*
X46790Y142980D01*
X46798Y142975D01*
X46804Y142968D01*
X46870Y142928D01*
X47026Y142826D01*
X47049Y142819D01*
X47068Y142808D01*
X49637Y141743D01*
X52843Y138537D01*
X54579Y134347D01*
X54579Y129813D01*
X52843Y125623D01*
X49637Y122417D01*
X45447Y120681D01*
X40913Y120681D01*
X36723Y122417D01*
X33517Y125623D01*
X31781Y129813D01*
X31781Y134347D01*
X33517Y138537D01*
X36723Y141743D01*
X39292Y142808D01*
X39301Y142812D01*
X39310Y142815D01*
X39422Y142884D01*
X39535Y142951D01*
X39542Y142958D01*
X39550Y142963D01*
X39638Y143061D01*
X39728Y143157D01*
X39732Y143165D01*
X39739Y143172D01*
X39796Y143291D01*
X39856Y143408D01*
X39858Y143418D01*
X39862Y143426D01*
X39874Y143502D01*
X39908Y143685D01*
X39906Y143709D01*
X39909Y143731D01*
X39909Y146988D01*
X39896Y147084D01*
X39891Y147180D01*
X39876Y147223D01*
X39869Y147268D01*
X39830Y147355D01*
X39798Y147446D01*
X39773Y147480D01*
X39753Y147525D01*
X39670Y147622D01*
X39617Y147695D01*
X38935Y148377D01*
X38840Y148448D01*
X38749Y148523D01*
X38728Y148532D01*
X38709Y148546D01*
X38599Y148588D01*
X38490Y148635D01*
X38467Y148637D01*
X38446Y148645D01*
X38327Y148655D01*
X38210Y148669D01*
X38187Y148665D01*
X38164Y148667D01*
X38048Y148643D01*
X37931Y148624D01*
X37911Y148614D01*
X37888Y148610D01*
X37784Y148554D01*
X37676Y148503D01*
X37659Y148488D01*
X37639Y148477D01*
X37554Y148394D01*
X37466Y148316D01*
X37454Y148297D01*
X37437Y148280D01*
X37345Y148118D01*
X37305Y148052D01*
X35719Y144223D01*
X29767Y138271D01*
X21989Y135049D01*
X13571Y135049D01*
X12542Y135475D01*
X12428Y135505D01*
X12314Y135539D01*
X12291Y135540D01*
X12269Y135545D01*
X12151Y135542D01*
X12032Y135543D01*
X12010Y135537D01*
X11987Y135536D01*
X11875Y135500D01*
X11760Y135468D01*
X11741Y135456D01*
X11719Y135449D01*
X11621Y135382D01*
X11520Y135320D01*
X11505Y135303D01*
X11486Y135290D01*
X11411Y135198D01*
X11331Y135110D01*
X11321Y135090D01*
X11307Y135072D01*
X11260Y134963D01*
X11208Y134857D01*
X11205Y134835D01*
X11195Y134813D01*
X11173Y134629D01*
X11161Y134552D01*
X11161Y50800D01*
X11165Y50770D01*
X11162Y50744D01*
X11405Y46418D01*
X11424Y46327D01*
X11429Y46251D01*
X13354Y37816D01*
X13402Y37692D01*
X13428Y37604D01*
X17182Y29809D01*
X17256Y29699D01*
X17301Y29619D01*
X22696Y22854D01*
X22793Y22763D01*
X22854Y22696D01*
X29619Y17301D01*
X29734Y17234D01*
X29809Y17182D01*
X37604Y13428D01*
X37731Y13388D01*
X37816Y13354D01*
X46251Y11429D01*
X46344Y11421D01*
X46418Y11405D01*
X50744Y11162D01*
X50774Y11165D01*
X50800Y11161D01*
X927100Y11161D01*
X927129Y11165D01*
G37*
%LPC*%
G36*
X307985Y110299D02*
X307985Y110299D01*
X297896Y120389D01*
X297819Y120446D01*
X297748Y120511D01*
X297707Y120531D01*
X297670Y120558D01*
X297580Y120592D01*
X297494Y120634D01*
X297452Y120640D01*
X297406Y120657D01*
X297279Y120667D01*
X297189Y120681D01*
X294913Y120681D01*
X290723Y122417D01*
X287517Y125623D01*
X285781Y129813D01*
X285781Y134347D01*
X287517Y138537D01*
X290723Y141743D01*
X293292Y142808D01*
X293301Y142812D01*
X293310Y142815D01*
X293422Y142884D01*
X293535Y142951D01*
X293542Y142958D01*
X293550Y142963D01*
X293638Y143061D01*
X293728Y143157D01*
X293732Y143165D01*
X293739Y143172D01*
X293796Y143291D01*
X293856Y143408D01*
X293858Y143418D01*
X293862Y143426D01*
X293874Y143502D01*
X293908Y143685D01*
X293906Y143709D01*
X293909Y143731D01*
X293909Y146988D01*
X293896Y147083D01*
X293891Y147180D01*
X293876Y147223D01*
X293869Y147268D01*
X293830Y147355D01*
X293798Y147446D01*
X293773Y147480D01*
X293753Y147525D01*
X293670Y147622D01*
X293617Y147695D01*
X288639Y152672D01*
X288639Y159748D01*
X293642Y164751D01*
X300718Y164751D01*
X305721Y159748D01*
X305721Y152672D01*
X300743Y147695D01*
X300686Y147618D01*
X300621Y147547D01*
X300601Y147506D01*
X300574Y147469D01*
X300540Y147379D01*
X300498Y147293D01*
X300492Y147251D01*
X300475Y147206D01*
X300465Y147078D01*
X300451Y146988D01*
X300451Y143731D01*
X300452Y143721D01*
X300451Y143712D01*
X300472Y143582D01*
X300491Y143452D01*
X300494Y143443D01*
X300496Y143434D01*
X300553Y143314D01*
X300607Y143195D01*
X300613Y143187D01*
X300617Y143179D01*
X300705Y143080D01*
X300790Y142980D01*
X300798Y142975D01*
X300804Y142968D01*
X300870Y142928D01*
X301026Y142826D01*
X301049Y142819D01*
X301068Y142808D01*
X303637Y141743D01*
X306843Y138537D01*
X308579Y134347D01*
X308579Y129813D01*
X306843Y125623D01*
X305084Y123864D01*
X305046Y123813D01*
X305000Y123768D01*
X304962Y123701D01*
X304915Y123639D01*
X304893Y123579D01*
X304861Y123523D01*
X304843Y123447D01*
X304816Y123375D01*
X304811Y123311D01*
X304796Y123248D01*
X304800Y123171D01*
X304794Y123094D01*
X304807Y123031D01*
X304810Y122966D01*
X304836Y122893D01*
X304851Y122818D01*
X304882Y122761D01*
X304903Y122700D01*
X304944Y122643D01*
X304984Y122569D01*
X305043Y122508D01*
X305084Y122451D01*
X310402Y117133D01*
X310479Y117076D01*
X310550Y117011D01*
X310591Y116991D01*
X310628Y116964D01*
X310718Y116930D01*
X310804Y116888D01*
X310846Y116882D01*
X310892Y116865D01*
X311019Y116855D01*
X311109Y116841D01*
X544141Y116841D01*
X544173Y116845D01*
X544205Y116843D01*
X544312Y116865D01*
X544421Y116881D01*
X544450Y116894D01*
X544482Y116900D01*
X544578Y116952D01*
X544678Y116997D01*
X544702Y117018D01*
X544730Y117033D01*
X544809Y117109D01*
X544892Y117180D01*
X544909Y117207D01*
X544933Y117230D01*
X544986Y117325D01*
X545046Y117416D01*
X545056Y117447D01*
X545072Y117475D01*
X545097Y117582D01*
X545129Y117686D01*
X545129Y117718D01*
X545137Y117749D01*
X545131Y117859D01*
X545132Y117968D01*
X545124Y117999D01*
X545122Y118031D01*
X545086Y118134D01*
X545057Y118240D01*
X545040Y118267D01*
X545030Y118298D01*
X544976Y118371D01*
X544909Y118480D01*
X544873Y118512D01*
X544848Y118547D01*
X525049Y138345D01*
X525049Y176031D01*
X525036Y176126D01*
X525035Y176140D01*
X525035Y176165D01*
X525033Y176172D01*
X525031Y176222D01*
X525016Y176266D01*
X525009Y176311D01*
X524972Y176392D01*
X524960Y176437D01*
X524952Y176450D01*
X524938Y176489D01*
X524913Y176523D01*
X524893Y176567D01*
X524844Y176625D01*
X524812Y176677D01*
X524780Y176705D01*
X524757Y176738D01*
X514812Y186683D01*
X514735Y186740D01*
X514664Y186805D01*
X514623Y186825D01*
X514586Y186852D01*
X514496Y186886D01*
X514410Y186928D01*
X514368Y186934D01*
X514322Y186951D01*
X514195Y186961D01*
X514105Y186975D01*
X416729Y186975D01*
X378357Y225348D01*
X378331Y225367D01*
X378310Y225392D01*
X378218Y225452D01*
X378131Y225517D01*
X378101Y225529D01*
X378074Y225546D01*
X377969Y225578D01*
X377867Y225617D01*
X377835Y225619D01*
X377804Y225629D01*
X377695Y225630D01*
X377586Y225639D01*
X377554Y225632D01*
X377522Y225632D01*
X377417Y225603D01*
X377310Y225581D01*
X377281Y225566D01*
X377250Y225557D01*
X377157Y225500D01*
X377061Y225448D01*
X377038Y225426D01*
X377010Y225409D01*
X376937Y225328D01*
X376859Y225252D01*
X376843Y225224D01*
X376821Y225200D01*
X376774Y225101D01*
X376720Y225006D01*
X376712Y224975D01*
X376698Y224946D01*
X376684Y224857D01*
X376655Y224732D01*
X376657Y224683D01*
X376651Y224641D01*
X376651Y165432D01*
X376664Y165337D01*
X376669Y165240D01*
X376684Y165197D01*
X376691Y165152D01*
X376730Y165065D01*
X376762Y164974D01*
X376787Y164940D01*
X376807Y164895D01*
X376890Y164798D01*
X376943Y164725D01*
X381921Y159748D01*
X381921Y152672D01*
X379259Y150011D01*
X379240Y149985D01*
X379215Y149964D01*
X379155Y149872D01*
X379090Y149785D01*
X379078Y149755D01*
X379061Y149728D01*
X379029Y149623D01*
X378990Y149521D01*
X378988Y149489D01*
X378978Y149458D01*
X378977Y149349D01*
X378968Y149240D01*
X378975Y149208D01*
X378974Y149176D01*
X379004Y149071D01*
X379026Y148964D01*
X379041Y148935D01*
X379050Y148904D01*
X379107Y148811D01*
X379158Y148715D01*
X379181Y148692D01*
X379198Y148664D01*
X379279Y148591D01*
X379355Y148513D01*
X379383Y148497D01*
X379407Y148475D01*
X379505Y148428D01*
X379601Y148374D01*
X379632Y148366D01*
X379661Y148352D01*
X379750Y148338D01*
X379875Y148309D01*
X379923Y148311D01*
X379966Y148305D01*
X392194Y148305D01*
X392226Y148309D01*
X392259Y148307D01*
X392365Y148329D01*
X392474Y148345D01*
X392503Y148358D01*
X392535Y148364D01*
X392631Y148416D01*
X392731Y148461D01*
X392755Y148482D01*
X392784Y148497D01*
X392862Y148573D01*
X392945Y148644D01*
X392963Y148671D01*
X392986Y148694D01*
X393039Y148789D01*
X393099Y148880D01*
X393109Y148911D01*
X393125Y148939D01*
X393150Y149045D01*
X393182Y149150D01*
X393182Y149182D01*
X393190Y149213D01*
X393184Y149323D01*
X393186Y149432D01*
X393177Y149463D01*
X393175Y149495D01*
X393139Y149598D01*
X393110Y149704D01*
X393093Y149731D01*
X393083Y149762D01*
X393029Y149835D01*
X392962Y149944D01*
X392926Y149976D01*
X392901Y150011D01*
X390239Y152672D01*
X390239Y159748D01*
X395242Y164751D01*
X402318Y164751D01*
X407321Y159748D01*
X407321Y152672D01*
X404659Y150011D01*
X404640Y149985D01*
X404615Y149964D01*
X404555Y149872D01*
X404490Y149785D01*
X404478Y149755D01*
X404461Y149728D01*
X404429Y149623D01*
X404390Y149521D01*
X404388Y149489D01*
X404378Y149458D01*
X404377Y149349D01*
X404368Y149240D01*
X404375Y149208D01*
X404374Y149176D01*
X404404Y149071D01*
X404426Y148964D01*
X404441Y148935D01*
X404450Y148904D01*
X404507Y148811D01*
X404558Y148715D01*
X404581Y148692D01*
X404598Y148664D01*
X404679Y148591D01*
X404755Y148513D01*
X404783Y148497D01*
X404807Y148475D01*
X404905Y148428D01*
X405001Y148374D01*
X405032Y148366D01*
X405061Y148352D01*
X405150Y148338D01*
X405275Y148309D01*
X405323Y148311D01*
X405366Y148305D01*
X417594Y148305D01*
X417626Y148309D01*
X417659Y148307D01*
X417765Y148329D01*
X417874Y148345D01*
X417903Y148358D01*
X417935Y148364D01*
X418031Y148416D01*
X418131Y148461D01*
X418155Y148482D01*
X418184Y148497D01*
X418262Y148573D01*
X418345Y148644D01*
X418363Y148671D01*
X418386Y148694D01*
X418439Y148789D01*
X418499Y148880D01*
X418509Y148911D01*
X418525Y148939D01*
X418550Y149045D01*
X418582Y149150D01*
X418582Y149182D01*
X418590Y149213D01*
X418584Y149323D01*
X418586Y149432D01*
X418577Y149463D01*
X418575Y149495D01*
X418539Y149598D01*
X418510Y149704D01*
X418493Y149731D01*
X418483Y149762D01*
X418429Y149835D01*
X418362Y149944D01*
X418326Y149976D01*
X418301Y150011D01*
X415639Y152672D01*
X415639Y159748D01*
X420642Y164751D01*
X427718Y164751D01*
X432721Y159748D01*
X432721Y152672D01*
X430059Y150011D01*
X430040Y149985D01*
X430015Y149964D01*
X429955Y149872D01*
X429890Y149785D01*
X429878Y149755D01*
X429861Y149728D01*
X429829Y149623D01*
X429790Y149521D01*
X429788Y149489D01*
X429778Y149458D01*
X429777Y149349D01*
X429768Y149240D01*
X429775Y149208D01*
X429774Y149176D01*
X429804Y149071D01*
X429826Y148964D01*
X429841Y148935D01*
X429850Y148904D01*
X429907Y148811D01*
X429958Y148715D01*
X429981Y148692D01*
X429998Y148664D01*
X430079Y148591D01*
X430155Y148513D01*
X430183Y148497D01*
X430207Y148475D01*
X430305Y148428D01*
X430401Y148374D01*
X430432Y148366D01*
X430461Y148352D01*
X430550Y148338D01*
X430675Y148309D01*
X430723Y148311D01*
X430766Y148305D01*
X442994Y148305D01*
X443026Y148309D01*
X443059Y148307D01*
X443165Y148329D01*
X443274Y148345D01*
X443303Y148358D01*
X443335Y148364D01*
X443431Y148416D01*
X443531Y148461D01*
X443555Y148482D01*
X443584Y148497D01*
X443662Y148573D01*
X443745Y148644D01*
X443763Y148671D01*
X443786Y148694D01*
X443839Y148789D01*
X443899Y148880D01*
X443909Y148911D01*
X443925Y148939D01*
X443950Y149045D01*
X443982Y149150D01*
X443982Y149182D01*
X443990Y149213D01*
X443984Y149323D01*
X443986Y149432D01*
X443977Y149463D01*
X443975Y149495D01*
X443939Y149598D01*
X443910Y149704D01*
X443893Y149731D01*
X443883Y149762D01*
X443829Y149835D01*
X443762Y149944D01*
X443726Y149976D01*
X443701Y150011D01*
X441039Y152672D01*
X441039Y159748D01*
X446042Y164751D01*
X453118Y164751D01*
X458121Y159748D01*
X458121Y152672D01*
X453143Y147695D01*
X453086Y147618D01*
X453021Y147547D01*
X453001Y147506D01*
X452974Y147469D01*
X452940Y147379D01*
X452898Y147293D01*
X452892Y147251D01*
X452875Y147206D01*
X452865Y147078D01*
X452851Y146988D01*
X452851Y146219D01*
X451676Y145045D01*
X451605Y144950D01*
X451530Y144859D01*
X451521Y144838D01*
X451507Y144819D01*
X451465Y144709D01*
X451419Y144600D01*
X451416Y144577D01*
X451408Y144556D01*
X451398Y144437D01*
X451384Y144320D01*
X451388Y144297D01*
X451386Y144274D01*
X451410Y144158D01*
X451429Y144041D01*
X451439Y144021D01*
X451443Y143998D01*
X451499Y143893D01*
X451550Y143786D01*
X451565Y143769D01*
X451576Y143749D01*
X451659Y143664D01*
X451737Y143576D01*
X451756Y143564D01*
X451773Y143547D01*
X451935Y143455D01*
X452001Y143415D01*
X456037Y141743D01*
X459243Y138537D01*
X460979Y134347D01*
X460979Y129813D01*
X459243Y125623D01*
X456037Y122417D01*
X451847Y120681D01*
X447313Y120681D01*
X443123Y122417D01*
X439917Y125623D01*
X438181Y129813D01*
X438181Y134347D01*
X439917Y138537D01*
X441437Y140057D01*
X441457Y140083D01*
X441481Y140104D01*
X441541Y140196D01*
X441606Y140283D01*
X441618Y140313D01*
X441636Y140340D01*
X441668Y140445D01*
X441706Y140547D01*
X441709Y140579D01*
X441718Y140610D01*
X441719Y140719D01*
X441728Y140828D01*
X441721Y140860D01*
X441722Y140892D01*
X441693Y140997D01*
X441670Y141104D01*
X441655Y141133D01*
X441646Y141164D01*
X441589Y141257D01*
X441538Y141353D01*
X441515Y141376D01*
X441498Y141404D01*
X441417Y141477D01*
X441341Y141555D01*
X441313Y141571D01*
X441289Y141593D01*
X441191Y141640D01*
X441096Y141694D01*
X441064Y141702D01*
X441035Y141716D01*
X440946Y141730D01*
X440821Y141759D01*
X440773Y141757D01*
X440731Y141763D01*
X433029Y141763D01*
X432997Y141759D01*
X432965Y141761D01*
X432858Y141739D01*
X432750Y141723D01*
X432721Y141710D01*
X432689Y141704D01*
X432593Y141652D01*
X432493Y141607D01*
X432469Y141586D01*
X432440Y141571D01*
X432362Y141495D01*
X432279Y141424D01*
X432261Y141397D01*
X432238Y141374D01*
X432184Y141279D01*
X432124Y141188D01*
X432115Y141157D01*
X432099Y141129D01*
X432074Y141023D01*
X432042Y140918D01*
X432042Y140886D01*
X432034Y140855D01*
X432040Y140745D01*
X432038Y140636D01*
X432047Y140605D01*
X432049Y140573D01*
X432084Y140470D01*
X432114Y140364D01*
X432130Y140337D01*
X432141Y140306D01*
X432194Y140233D01*
X432262Y140124D01*
X432298Y140092D01*
X432323Y140057D01*
X433843Y138537D01*
X435579Y134347D01*
X435579Y129813D01*
X433843Y125623D01*
X430637Y122417D01*
X426447Y120681D01*
X421913Y120681D01*
X417723Y122417D01*
X414517Y125623D01*
X412781Y129813D01*
X412781Y134347D01*
X414517Y138537D01*
X416037Y140057D01*
X416057Y140083D01*
X416081Y140104D01*
X416141Y140196D01*
X416206Y140283D01*
X416218Y140313D01*
X416236Y140340D01*
X416268Y140445D01*
X416306Y140547D01*
X416309Y140579D01*
X416318Y140610D01*
X416319Y140719D01*
X416328Y140828D01*
X416321Y140860D01*
X416322Y140892D01*
X416293Y140997D01*
X416270Y141104D01*
X416255Y141133D01*
X416246Y141164D01*
X416189Y141257D01*
X416138Y141353D01*
X416115Y141376D01*
X416098Y141404D01*
X416017Y141477D01*
X415941Y141555D01*
X415913Y141571D01*
X415889Y141593D01*
X415791Y141640D01*
X415696Y141694D01*
X415664Y141702D01*
X415635Y141716D01*
X415546Y141730D01*
X415421Y141759D01*
X415373Y141757D01*
X415331Y141763D01*
X407629Y141763D01*
X407597Y141759D01*
X407565Y141761D01*
X407458Y141739D01*
X407350Y141723D01*
X407321Y141710D01*
X407289Y141704D01*
X407193Y141652D01*
X407093Y141607D01*
X407069Y141586D01*
X407040Y141571D01*
X406962Y141495D01*
X406879Y141424D01*
X406861Y141397D01*
X406838Y141374D01*
X406784Y141279D01*
X406724Y141188D01*
X406715Y141157D01*
X406699Y141129D01*
X406674Y141023D01*
X406642Y140918D01*
X406642Y140886D01*
X406634Y140855D01*
X406640Y140745D01*
X406638Y140636D01*
X406647Y140605D01*
X406649Y140573D01*
X406684Y140470D01*
X406714Y140364D01*
X406730Y140337D01*
X406741Y140306D01*
X406794Y140233D01*
X406862Y140124D01*
X406898Y140092D01*
X406923Y140057D01*
X408443Y138537D01*
X410179Y134347D01*
X410179Y129813D01*
X408443Y125623D01*
X405237Y122417D01*
X401047Y120681D01*
X396513Y120681D01*
X392323Y122417D01*
X389117Y125623D01*
X387381Y129813D01*
X387381Y134347D01*
X389117Y138537D01*
X390637Y140057D01*
X390657Y140083D01*
X390681Y140104D01*
X390741Y140196D01*
X390806Y140283D01*
X390818Y140313D01*
X390836Y140340D01*
X390868Y140445D01*
X390906Y140547D01*
X390909Y140579D01*
X390918Y140610D01*
X390919Y140719D01*
X390928Y140828D01*
X390921Y140860D01*
X390922Y140892D01*
X390893Y140997D01*
X390870Y141104D01*
X390855Y141133D01*
X390846Y141164D01*
X390789Y141257D01*
X390738Y141353D01*
X390715Y141376D01*
X390698Y141404D01*
X390617Y141477D01*
X390541Y141555D01*
X390513Y141571D01*
X390489Y141593D01*
X390391Y141640D01*
X390296Y141694D01*
X390264Y141702D01*
X390235Y141716D01*
X390146Y141730D01*
X390021Y141759D01*
X389973Y141757D01*
X389931Y141763D01*
X382229Y141763D01*
X382197Y141759D01*
X382165Y141761D01*
X382058Y141739D01*
X381950Y141723D01*
X381921Y141710D01*
X381889Y141704D01*
X381793Y141652D01*
X381693Y141607D01*
X381669Y141586D01*
X381640Y141571D01*
X381562Y141495D01*
X381479Y141424D01*
X381461Y141397D01*
X381438Y141374D01*
X381384Y141279D01*
X381324Y141188D01*
X381315Y141157D01*
X381299Y141129D01*
X381274Y141023D01*
X381242Y140918D01*
X381242Y140886D01*
X381234Y140855D01*
X381240Y140745D01*
X381238Y140636D01*
X381247Y140605D01*
X381249Y140573D01*
X381284Y140470D01*
X381314Y140364D01*
X381330Y140337D01*
X381341Y140306D01*
X381394Y140233D01*
X381462Y140124D01*
X381498Y140092D01*
X381523Y140057D01*
X383043Y138537D01*
X384779Y134347D01*
X384779Y129813D01*
X383043Y125623D01*
X379837Y122417D01*
X375647Y120681D01*
X371113Y120681D01*
X366923Y122417D01*
X363717Y125623D01*
X361981Y129813D01*
X361981Y134347D01*
X363717Y138537D01*
X365476Y140296D01*
X365514Y140347D01*
X365560Y140392D01*
X365598Y140459D01*
X365645Y140521D01*
X365667Y140581D01*
X365699Y140637D01*
X365717Y140713D01*
X365744Y140785D01*
X365749Y140849D01*
X365764Y140912D01*
X365760Y140989D01*
X365766Y141066D01*
X365753Y141129D01*
X365750Y141194D01*
X365724Y141267D01*
X365709Y141342D01*
X365678Y141399D01*
X365657Y141460D01*
X365616Y141517D01*
X365576Y141591D01*
X365517Y141652D01*
X365476Y141709D01*
X363213Y143972D01*
X357409Y149775D01*
X357409Y150385D01*
X357405Y150417D01*
X357407Y150449D01*
X357385Y150556D01*
X357369Y150664D01*
X357356Y150693D01*
X357350Y150725D01*
X357298Y150821D01*
X357253Y150921D01*
X357232Y150945D01*
X357217Y150974D01*
X357141Y151052D01*
X357070Y151135D01*
X357043Y151153D01*
X357020Y151176D01*
X356925Y151230D01*
X356834Y151290D01*
X356803Y151299D01*
X356775Y151315D01*
X356668Y151340D01*
X356564Y151372D01*
X356532Y151373D01*
X356501Y151380D01*
X356391Y151374D01*
X356282Y151376D01*
X356251Y151367D01*
X356219Y151366D01*
X356116Y151330D01*
X356010Y151301D01*
X355983Y151284D01*
X355952Y151273D01*
X355879Y151220D01*
X355770Y151152D01*
X355738Y151116D01*
X355703Y151091D01*
X351741Y147129D01*
X349979Y147129D01*
X349979Y155210D01*
X349970Y155273D01*
X349971Y155338D01*
X349950Y155412D01*
X349939Y155489D01*
X349913Y155548D01*
X349896Y155610D01*
X349855Y155676D01*
X349823Y155746D01*
X349781Y155795D01*
X349748Y155850D01*
X349690Y155901D01*
X349640Y155960D01*
X349586Y155996D01*
X349538Y156039D01*
X349469Y156072D01*
X349404Y156115D01*
X349342Y156134D01*
X349285Y156162D01*
X349215Y156172D01*
X349134Y156197D01*
X349049Y156198D01*
X348980Y156209D01*
X347979Y156209D01*
X347979Y156211D01*
X348980Y156211D01*
X349044Y156220D01*
X349108Y156219D01*
X349183Y156240D01*
X349259Y156251D01*
X349318Y156277D01*
X349380Y156294D01*
X349446Y156335D01*
X349516Y156367D01*
X349565Y156409D01*
X349620Y156442D01*
X349672Y156500D01*
X349730Y156550D01*
X349766Y156604D01*
X349809Y156652D01*
X349842Y156721D01*
X349885Y156786D01*
X349904Y156848D01*
X349932Y156906D01*
X349942Y156975D01*
X349967Y157056D01*
X349968Y157141D01*
X349979Y157210D01*
X349979Y165291D01*
X351741Y165291D01*
X355703Y161329D01*
X355729Y161309D01*
X355750Y161285D01*
X355809Y161246D01*
X355839Y161219D01*
X355869Y161205D01*
X355929Y161159D01*
X355959Y161148D01*
X355986Y161130D01*
X356083Y161101D01*
X356093Y161096D01*
X356101Y161095D01*
X356193Y161060D01*
X356225Y161057D01*
X356256Y161048D01*
X356365Y161046D01*
X356474Y161038D01*
X356506Y161045D01*
X356538Y161044D01*
X356643Y161073D01*
X356750Y161096D01*
X356779Y161111D01*
X356810Y161119D01*
X356903Y161177D01*
X356999Y161228D01*
X357022Y161251D01*
X357050Y161268D01*
X357123Y161349D01*
X357201Y161425D01*
X357217Y161453D01*
X357239Y161477D01*
X357286Y161575D01*
X357307Y161611D01*
X357315Y161624D01*
X357316Y161628D01*
X357340Y161670D01*
X357348Y161702D01*
X357362Y161731D01*
X357376Y161820D01*
X357378Y161831D01*
X357397Y161893D01*
X357398Y161912D01*
X357405Y161945D01*
X357403Y161993D01*
X357409Y162035D01*
X357409Y171535D01*
X363213Y177338D01*
X363229Y177360D01*
X363247Y177376D01*
X363280Y177426D01*
X363335Y177486D01*
X363355Y177527D01*
X363382Y177564D01*
X363398Y177605D01*
X363402Y177612D01*
X363409Y177636D01*
X363416Y177654D01*
X363458Y177740D01*
X363464Y177782D01*
X363481Y177828D01*
X363491Y177955D01*
X363505Y178045D01*
X363505Y224481D01*
X363492Y224575D01*
X363487Y224672D01*
X363472Y224715D01*
X363465Y224760D01*
X363426Y224847D01*
X363394Y224938D01*
X363369Y224973D01*
X363349Y225017D01*
X363266Y225114D01*
X363213Y225187D01*
X324897Y263502D01*
X324897Y287791D01*
X324884Y287886D01*
X324879Y287982D01*
X324864Y288026D01*
X324857Y288071D01*
X324818Y288158D01*
X324786Y288249D01*
X324761Y288283D01*
X324741Y288327D01*
X324658Y288425D01*
X324605Y288498D01*
X322026Y291077D01*
X321949Y291134D01*
X321878Y291199D01*
X321837Y291219D01*
X321800Y291246D01*
X321710Y291280D01*
X321624Y291322D01*
X321582Y291328D01*
X321536Y291345D01*
X321409Y291355D01*
X321319Y291369D01*
X318441Y291369D01*
X318431Y291368D01*
X318422Y291369D01*
X318292Y291348D01*
X318162Y291329D01*
X318153Y291326D01*
X318144Y291324D01*
X318025Y291267D01*
X317905Y291213D01*
X317898Y291207D01*
X317889Y291203D01*
X317790Y291115D01*
X317690Y291030D01*
X317685Y291022D01*
X317678Y291016D01*
X317638Y290950D01*
X317536Y290794D01*
X317529Y290771D01*
X317518Y290752D01*
X316573Y288471D01*
X313509Y285407D01*
X309506Y283749D01*
X305174Y283749D01*
X301171Y285407D01*
X298107Y288471D01*
X296449Y292474D01*
X296449Y296806D01*
X298107Y300809D01*
X301171Y303873D01*
X305174Y305531D01*
X309506Y305531D01*
X313509Y303873D01*
X316573Y300809D01*
X317518Y298528D01*
X317523Y298520D01*
X317525Y298510D01*
X317595Y298397D01*
X317661Y298285D01*
X317668Y298278D01*
X317673Y298270D01*
X317771Y298182D01*
X317867Y298092D01*
X317876Y298088D01*
X317883Y298081D01*
X318001Y298024D01*
X318118Y297964D01*
X318128Y297962D01*
X318136Y297958D01*
X318212Y297946D01*
X318396Y297912D01*
X318420Y297914D01*
X318441Y297911D01*
X324443Y297911D01*
X328525Y293828D01*
X328551Y293809D01*
X328572Y293784D01*
X328664Y293724D01*
X328751Y293659D01*
X328781Y293647D01*
X328808Y293630D01*
X328913Y293598D01*
X329015Y293559D01*
X329047Y293557D01*
X329078Y293547D01*
X329187Y293546D01*
X329296Y293537D01*
X329328Y293544D01*
X329360Y293544D01*
X329465Y293573D01*
X329572Y293595D01*
X329601Y293610D01*
X329632Y293619D01*
X329725Y293676D01*
X329821Y293728D01*
X329844Y293750D01*
X329872Y293767D01*
X329945Y293848D01*
X330023Y293924D01*
X330039Y293952D01*
X330061Y293976D01*
X330108Y294075D01*
X330162Y294170D01*
X330170Y294201D01*
X330184Y294230D01*
X330198Y294319D01*
X330227Y294444D01*
X330225Y294493D01*
X330231Y294535D01*
X330231Y313191D01*
X330218Y313286D01*
X330213Y313382D01*
X330198Y313426D01*
X330191Y313471D01*
X330152Y313558D01*
X330120Y313649D01*
X330095Y313683D01*
X330075Y313727D01*
X329992Y313825D01*
X329939Y313898D01*
X327360Y316477D01*
X327283Y316534D01*
X327212Y316599D01*
X327171Y316619D01*
X327134Y316646D01*
X327044Y316680D01*
X326958Y316722D01*
X326916Y316728D01*
X326870Y316745D01*
X326743Y316755D01*
X326653Y316769D01*
X319101Y316769D01*
X319092Y316768D01*
X319082Y316769D01*
X318952Y316748D01*
X318822Y316729D01*
X318813Y316726D01*
X318804Y316724D01*
X318685Y316667D01*
X318565Y316613D01*
X318558Y316607D01*
X318549Y316603D01*
X318451Y316515D01*
X318351Y316430D01*
X318346Y316422D01*
X318339Y316416D01*
X318299Y316350D01*
X318196Y316194D01*
X318189Y316171D01*
X318178Y316152D01*
X317090Y313525D01*
X313855Y310290D01*
X309628Y308539D01*
X305052Y308539D01*
X300825Y310290D01*
X297590Y313525D01*
X295839Y317752D01*
X295839Y322328D01*
X297590Y326555D01*
X300825Y329790D01*
X305052Y331541D01*
X309628Y331541D01*
X313855Y329790D01*
X317090Y326555D01*
X318178Y323928D01*
X318183Y323919D01*
X318185Y323910D01*
X318255Y323798D01*
X318322Y323685D01*
X318329Y323678D01*
X318334Y323670D01*
X318432Y323582D01*
X318527Y323492D01*
X318536Y323488D01*
X318543Y323481D01*
X318661Y323424D01*
X318779Y323364D01*
X318788Y323362D01*
X318797Y323358D01*
X318872Y323346D01*
X319056Y323312D01*
X319080Y323314D01*
X319101Y323311D01*
X329777Y323311D01*
X333859Y319228D01*
X333885Y319209D01*
X333906Y319184D01*
X333998Y319124D01*
X334085Y319059D01*
X334115Y319047D01*
X334142Y319030D01*
X334247Y318998D01*
X334349Y318959D01*
X334381Y318957D01*
X334412Y318947D01*
X334521Y318946D01*
X334630Y318937D01*
X334662Y318944D01*
X334694Y318944D01*
X334799Y318973D01*
X334906Y318995D01*
X334935Y319010D01*
X334966Y319019D01*
X335059Y319076D01*
X335155Y319128D01*
X335178Y319150D01*
X335206Y319167D01*
X335279Y319248D01*
X335357Y319324D01*
X335373Y319352D01*
X335395Y319376D01*
X335442Y319475D01*
X335496Y319570D01*
X335504Y319601D01*
X335518Y319630D01*
X335532Y319719D01*
X335561Y319844D01*
X335559Y319893D01*
X335565Y319935D01*
X335565Y367801D01*
X335552Y367896D01*
X335547Y367992D01*
X335532Y368036D01*
X335525Y368081D01*
X335486Y368168D01*
X335454Y368259D01*
X335429Y368293D01*
X335409Y368337D01*
X335326Y368435D01*
X335273Y368508D01*
X330154Y373627D01*
X330077Y373684D01*
X330006Y373749D01*
X329965Y373769D01*
X329928Y373796D01*
X329838Y373830D01*
X329752Y373872D01*
X329710Y373878D01*
X329664Y373895D01*
X329537Y373905D01*
X329447Y373919D01*
X261535Y373919D01*
X243109Y392345D01*
X243109Y400988D01*
X243096Y401083D01*
X243091Y401180D01*
X243076Y401223D01*
X243069Y401268D01*
X243030Y401355D01*
X242998Y401446D01*
X242973Y401480D01*
X242953Y401525D01*
X242870Y401622D01*
X242817Y401695D01*
X237839Y406672D01*
X237839Y413748D01*
X242817Y418725D01*
X242874Y418802D01*
X242939Y418873D01*
X242959Y418914D01*
X242986Y418951D01*
X243020Y419041D01*
X243062Y419127D01*
X243068Y419169D01*
X243085Y419214D01*
X243095Y419342D01*
X243109Y419432D01*
X243109Y423959D01*
X243108Y423969D01*
X243109Y423978D01*
X243088Y424108D01*
X243069Y424238D01*
X243066Y424247D01*
X243064Y424256D01*
X243007Y424376D01*
X242953Y424495D01*
X242947Y424503D01*
X242943Y424511D01*
X242855Y424610D01*
X242770Y424710D01*
X242762Y424715D01*
X242756Y424722D01*
X242690Y424762D01*
X242534Y424864D01*
X242511Y424871D01*
X242492Y424882D01*
X239923Y425947D01*
X236717Y429153D01*
X234981Y433343D01*
X234981Y437877D01*
X236717Y442067D01*
X239923Y445273D01*
X244113Y447009D01*
X248647Y447009D01*
X252837Y445273D01*
X256043Y442067D01*
X257779Y437877D01*
X257779Y433343D01*
X256043Y429153D01*
X252837Y425947D01*
X250268Y424882D01*
X250259Y424878D01*
X250250Y424875D01*
X250138Y424806D01*
X250025Y424739D01*
X250018Y424732D01*
X250010Y424727D01*
X249922Y424629D01*
X249832Y424533D01*
X249828Y424525D01*
X249821Y424518D01*
X249764Y424399D01*
X249704Y424282D01*
X249702Y424272D01*
X249698Y424264D01*
X249686Y424188D01*
X249652Y424005D01*
X249654Y423981D01*
X249651Y423959D01*
X249651Y419432D01*
X249664Y419337D01*
X249669Y419240D01*
X249684Y419197D01*
X249691Y419152D01*
X249730Y419065D01*
X249762Y418974D01*
X249787Y418940D01*
X249807Y418895D01*
X249890Y418798D01*
X249943Y418725D01*
X254921Y413748D01*
X254921Y406672D01*
X249943Y401695D01*
X249886Y401618D01*
X249821Y401547D01*
X249801Y401506D01*
X249774Y401469D01*
X249740Y401379D01*
X249698Y401293D01*
X249692Y401251D01*
X249675Y401206D01*
X249665Y401078D01*
X249651Y400988D01*
X249651Y395469D01*
X249664Y395374D01*
X249669Y395278D01*
X249684Y395234D01*
X249691Y395189D01*
X249730Y395102D01*
X249762Y395011D01*
X249787Y394977D01*
X249807Y394933D01*
X249890Y394835D01*
X249943Y394762D01*
X263952Y380753D01*
X264029Y380696D01*
X264100Y380631D01*
X264141Y380611D01*
X264178Y380584D01*
X264268Y380550D01*
X264354Y380508D01*
X264396Y380502D01*
X264442Y380485D01*
X264569Y380475D01*
X264659Y380461D01*
X332571Y380461D01*
X334779Y378252D01*
X339193Y373838D01*
X339219Y373819D01*
X339240Y373794D01*
X339332Y373734D01*
X339419Y373669D01*
X339449Y373657D01*
X339476Y373640D01*
X339581Y373608D01*
X339683Y373569D01*
X339715Y373567D01*
X339746Y373557D01*
X339855Y373556D01*
X339964Y373547D01*
X339996Y373554D01*
X340028Y373554D01*
X340133Y373583D01*
X340240Y373605D01*
X340269Y373620D01*
X340300Y373629D01*
X340393Y373686D01*
X340489Y373738D01*
X340512Y373760D01*
X340540Y373777D01*
X340613Y373858D01*
X340691Y373934D01*
X340707Y373962D01*
X340729Y373986D01*
X340776Y374085D01*
X340830Y374180D01*
X340838Y374211D01*
X340852Y374240D01*
X340866Y374329D01*
X340895Y374454D01*
X340893Y374503D01*
X340899Y374545D01*
X340899Y386851D01*
X340886Y386946D01*
X340881Y387042D01*
X340866Y387086D01*
X340859Y387131D01*
X340820Y387218D01*
X340788Y387309D01*
X340763Y387343D01*
X340743Y387387D01*
X340664Y387480D01*
X340640Y387518D01*
X340626Y387531D01*
X340607Y387558D01*
X326788Y401377D01*
X326711Y401434D01*
X326640Y401499D01*
X326599Y401519D01*
X326562Y401546D01*
X326472Y401580D01*
X326386Y401622D01*
X326344Y401628D01*
X326298Y401645D01*
X326171Y401655D01*
X326081Y401669D01*
X319042Y401669D01*
X314039Y406672D01*
X314039Y413748D01*
X319017Y418725D01*
X319074Y418802D01*
X319139Y418873D01*
X319159Y418914D01*
X319186Y418951D01*
X319220Y419041D01*
X319262Y419127D01*
X319268Y419169D01*
X319285Y419214D01*
X319295Y419342D01*
X319309Y419432D01*
X319309Y423959D01*
X319308Y423969D01*
X319309Y423978D01*
X319288Y424108D01*
X319269Y424238D01*
X319266Y424247D01*
X319264Y424256D01*
X319207Y424376D01*
X319153Y424495D01*
X319147Y424503D01*
X319143Y424511D01*
X319055Y424610D01*
X318970Y424710D01*
X318962Y424715D01*
X318956Y424722D01*
X318890Y424762D01*
X318734Y424864D01*
X318711Y424871D01*
X318692Y424882D01*
X316123Y425947D01*
X312917Y429153D01*
X311181Y433343D01*
X311181Y437877D01*
X312917Y442067D01*
X316123Y445273D01*
X320313Y447009D01*
X324847Y447009D01*
X329037Y445273D01*
X332243Y442067D01*
X333979Y437877D01*
X333979Y433343D01*
X332243Y429153D01*
X329037Y425947D01*
X326468Y424882D01*
X326459Y424878D01*
X326450Y424875D01*
X326338Y424806D01*
X326225Y424739D01*
X326218Y424732D01*
X326210Y424727D01*
X326122Y424629D01*
X326032Y424533D01*
X326028Y424525D01*
X326021Y424518D01*
X325964Y424399D01*
X325904Y424282D01*
X325902Y424272D01*
X325898Y424264D01*
X325886Y424188D01*
X325852Y424005D01*
X325854Y423981D01*
X325851Y423959D01*
X325851Y419432D01*
X325864Y419337D01*
X325869Y419240D01*
X325884Y419197D01*
X325891Y419152D01*
X325930Y419065D01*
X325962Y418974D01*
X325987Y418940D01*
X326007Y418895D01*
X326090Y418798D01*
X326143Y418725D01*
X331121Y413748D01*
X331121Y406709D01*
X331134Y406614D01*
X331139Y406518D01*
X331154Y406474D01*
X331161Y406429D01*
X331200Y406342D01*
X331232Y406251D01*
X331257Y406217D01*
X331277Y406173D01*
X331360Y406075D01*
X331413Y406002D01*
X344527Y392888D01*
X344553Y392869D01*
X344574Y392844D01*
X344666Y392784D01*
X344753Y392719D01*
X344783Y392707D01*
X344810Y392690D01*
X344915Y392658D01*
X345017Y392619D01*
X345049Y392617D01*
X345080Y392607D01*
X345189Y392606D01*
X345298Y392597D01*
X345330Y392604D01*
X345362Y392604D01*
X345467Y392633D01*
X345574Y392655D01*
X345603Y392670D01*
X345634Y392679D01*
X345727Y392736D01*
X345823Y392788D01*
X345846Y392810D01*
X345874Y392827D01*
X345947Y392908D01*
X346025Y392984D01*
X346041Y393012D01*
X346063Y393036D01*
X346110Y393135D01*
X346164Y393230D01*
X346172Y393261D01*
X346186Y393290D01*
X346200Y393379D01*
X346229Y393504D01*
X346227Y393553D01*
X346233Y393595D01*
X346233Y400670D01*
X346224Y400734D01*
X346225Y400798D01*
X346204Y400873D01*
X346193Y400949D01*
X346167Y401008D01*
X346150Y401070D01*
X346109Y401136D01*
X346077Y401206D01*
X346035Y401255D01*
X346002Y401310D01*
X345944Y401362D01*
X345894Y401420D01*
X345840Y401456D01*
X345792Y401499D01*
X345723Y401532D01*
X345658Y401575D01*
X345596Y401594D01*
X345539Y401622D01*
X345469Y401633D01*
X345388Y401657D01*
X345303Y401658D01*
X345234Y401669D01*
X344442Y401669D01*
X339439Y406672D01*
X339439Y413748D01*
X344417Y418725D01*
X344474Y418802D01*
X344539Y418873D01*
X344559Y418914D01*
X344586Y418951D01*
X344620Y419041D01*
X344662Y419127D01*
X344668Y419169D01*
X344685Y419214D01*
X344695Y419342D01*
X344709Y419432D01*
X344709Y423959D01*
X344708Y423969D01*
X344709Y423978D01*
X344688Y424108D01*
X344669Y424238D01*
X344666Y424247D01*
X344664Y424256D01*
X344607Y424376D01*
X344553Y424495D01*
X344547Y424503D01*
X344543Y424511D01*
X344455Y424610D01*
X344370Y424710D01*
X344362Y424715D01*
X344356Y424722D01*
X344290Y424762D01*
X344134Y424864D01*
X344111Y424871D01*
X344092Y424882D01*
X341523Y425947D01*
X338317Y429153D01*
X336581Y433343D01*
X336581Y437877D01*
X338317Y442067D01*
X341523Y445273D01*
X345713Y447009D01*
X350247Y447009D01*
X354437Y445273D01*
X357643Y442067D01*
X359379Y437877D01*
X359379Y433343D01*
X357643Y429153D01*
X354437Y425947D01*
X351868Y424882D01*
X351859Y424878D01*
X351850Y424875D01*
X351738Y424806D01*
X351625Y424739D01*
X351618Y424732D01*
X351610Y424727D01*
X351522Y424629D01*
X351432Y424533D01*
X351428Y424525D01*
X351421Y424518D01*
X351364Y424399D01*
X351304Y424282D01*
X351302Y424272D01*
X351298Y424264D01*
X351286Y424188D01*
X351252Y424005D01*
X351254Y423981D01*
X351251Y423959D01*
X351251Y419432D01*
X351264Y419337D01*
X351269Y419240D01*
X351284Y419197D01*
X351291Y419152D01*
X351330Y419065D01*
X351362Y418974D01*
X351387Y418940D01*
X351407Y418895D01*
X351490Y418798D01*
X351543Y418725D01*
X356521Y413748D01*
X356521Y406672D01*
X353067Y403219D01*
X353010Y403142D01*
X352945Y403071D01*
X352925Y403030D01*
X352898Y402993D01*
X352864Y402903D01*
X352822Y402817D01*
X352816Y402775D01*
X352799Y402730D01*
X352789Y402602D01*
X352775Y402512D01*
X352775Y278375D01*
X352788Y278280D01*
X352793Y278184D01*
X352808Y278140D01*
X352815Y278095D01*
X352854Y278008D01*
X352886Y277917D01*
X352911Y277883D01*
X352931Y277839D01*
X353014Y277741D01*
X353067Y277668D01*
X426258Y204477D01*
X426335Y204420D01*
X426406Y204355D01*
X426447Y204335D01*
X426484Y204308D01*
X426574Y204274D01*
X426660Y204232D01*
X426702Y204226D01*
X426748Y204209D01*
X426875Y204199D01*
X426965Y204185D01*
X638038Y204185D01*
X653765Y188458D01*
X653765Y153915D01*
X653778Y153820D01*
X653783Y153724D01*
X653798Y153680D01*
X653805Y153635D01*
X653844Y153548D01*
X653876Y153457D01*
X653901Y153423D01*
X653921Y153379D01*
X654004Y153281D01*
X654057Y153208D01*
X659861Y147405D01*
X659861Y141720D01*
X659862Y141710D01*
X659861Y141701D01*
X659882Y141571D01*
X659901Y141440D01*
X659904Y141432D01*
X659906Y141423D01*
X659963Y141303D01*
X660017Y141184D01*
X660023Y141176D01*
X660027Y141168D01*
X660115Y141069D01*
X660200Y140969D01*
X660208Y140964D01*
X660214Y140957D01*
X660280Y140917D01*
X660436Y140815D01*
X660459Y140808D01*
X660478Y140797D01*
X661994Y140168D01*
X664678Y137484D01*
X666131Y133978D01*
X666131Y130182D01*
X664678Y126676D01*
X661994Y123992D01*
X660332Y123303D01*
X660257Y123259D01*
X660178Y123223D01*
X660136Y123188D01*
X660089Y123160D01*
X660030Y123096D01*
X659964Y123040D01*
X659934Y122994D01*
X659896Y122954D01*
X659857Y122877D01*
X659809Y122804D01*
X659793Y122751D01*
X659769Y122702D01*
X659752Y122617D01*
X659727Y122534D01*
X659726Y122479D01*
X659716Y122425D01*
X659724Y122339D01*
X659723Y122252D01*
X659738Y122199D01*
X659743Y122145D01*
X659775Y122064D01*
X659798Y121980D01*
X659827Y121933D01*
X659848Y121883D01*
X659901Y121814D01*
X659947Y121740D01*
X659987Y121704D01*
X660021Y121660D01*
X660092Y121609D01*
X660156Y121551D01*
X660205Y121527D01*
X660250Y121495D01*
X660332Y121466D01*
X660410Y121428D01*
X660460Y121420D01*
X660516Y121401D01*
X660629Y121394D01*
X660714Y121381D01*
X677866Y121381D01*
X677952Y121393D01*
X678038Y121396D01*
X678091Y121413D01*
X678145Y121421D01*
X678224Y121456D01*
X678306Y121483D01*
X678352Y121514D01*
X678402Y121537D01*
X678468Y121593D01*
X678539Y121642D01*
X678574Y121684D01*
X678616Y121720D01*
X678664Y121793D01*
X678719Y121860D01*
X678740Y121910D01*
X678771Y121956D01*
X678796Y122039D01*
X678830Y122119D01*
X678837Y122173D01*
X678853Y122226D01*
X678854Y122313D01*
X678865Y122399D01*
X678856Y122453D01*
X678857Y122508D01*
X678834Y122592D01*
X678820Y122677D01*
X678796Y122727D01*
X678782Y122780D01*
X678736Y122853D01*
X678699Y122932D01*
X678662Y122973D01*
X678633Y123020D01*
X678569Y123078D01*
X678511Y123143D01*
X678468Y123169D01*
X678424Y123209D01*
X678322Y123258D01*
X678248Y123303D01*
X676586Y123992D01*
X673902Y126676D01*
X672449Y130182D01*
X672449Y133978D01*
X673902Y137484D01*
X676586Y140168D01*
X680092Y141621D01*
X683888Y141621D01*
X687394Y140168D01*
X690078Y137484D01*
X691531Y133978D01*
X691531Y130182D01*
X690078Y126676D01*
X687394Y123992D01*
X685732Y123303D01*
X685657Y123259D01*
X685578Y123223D01*
X685536Y123188D01*
X685489Y123160D01*
X685430Y123096D01*
X685364Y123040D01*
X685334Y122994D01*
X685296Y122954D01*
X685257Y122877D01*
X685209Y122804D01*
X685193Y122751D01*
X685169Y122702D01*
X685152Y122617D01*
X685127Y122534D01*
X685126Y122479D01*
X685116Y122425D01*
X685124Y122339D01*
X685123Y122252D01*
X685138Y122199D01*
X685143Y122145D01*
X685175Y122064D01*
X685198Y121980D01*
X685227Y121933D01*
X685248Y121883D01*
X685301Y121814D01*
X685347Y121740D01*
X685387Y121704D01*
X685421Y121660D01*
X685492Y121609D01*
X685556Y121551D01*
X685605Y121527D01*
X685650Y121495D01*
X685732Y121466D01*
X685810Y121428D01*
X685860Y121420D01*
X685916Y121401D01*
X686029Y121394D01*
X686114Y121381D01*
X703266Y121381D01*
X703352Y121393D01*
X703438Y121396D01*
X703491Y121413D01*
X703545Y121421D01*
X703624Y121456D01*
X703706Y121483D01*
X703752Y121514D01*
X703802Y121537D01*
X703868Y121593D01*
X703939Y121642D01*
X703974Y121684D01*
X704016Y121720D01*
X704064Y121793D01*
X704119Y121860D01*
X704140Y121910D01*
X704171Y121956D01*
X704196Y122039D01*
X704230Y122119D01*
X704237Y122173D01*
X704253Y122226D01*
X704254Y122313D01*
X704265Y122399D01*
X704256Y122453D01*
X704257Y122508D01*
X704234Y122592D01*
X704220Y122677D01*
X704196Y122727D01*
X704182Y122780D01*
X704136Y122853D01*
X704099Y122932D01*
X704062Y122973D01*
X704033Y123020D01*
X703969Y123078D01*
X703911Y123143D01*
X703868Y123169D01*
X703824Y123209D01*
X703722Y123258D01*
X703648Y123303D01*
X701986Y123992D01*
X699302Y126676D01*
X697849Y130182D01*
X697849Y133978D01*
X699302Y137484D01*
X701986Y140168D01*
X705492Y141621D01*
X709288Y141621D01*
X712794Y140168D01*
X715478Y137484D01*
X716931Y133978D01*
X716931Y130182D01*
X715478Y126676D01*
X712794Y123992D01*
X711132Y123303D01*
X711057Y123259D01*
X710978Y123223D01*
X710936Y123188D01*
X710889Y123160D01*
X710830Y123096D01*
X710764Y123040D01*
X710734Y122994D01*
X710696Y122954D01*
X710657Y122877D01*
X710609Y122804D01*
X710593Y122751D01*
X710569Y122702D01*
X710552Y122617D01*
X710527Y122534D01*
X710526Y122479D01*
X710516Y122425D01*
X710524Y122339D01*
X710523Y122252D01*
X710538Y122199D01*
X710543Y122145D01*
X710575Y122064D01*
X710598Y121980D01*
X710627Y121933D01*
X710648Y121883D01*
X710701Y121814D01*
X710747Y121740D01*
X710787Y121704D01*
X710821Y121660D01*
X710892Y121609D01*
X710956Y121551D01*
X711005Y121527D01*
X711050Y121495D01*
X711132Y121466D01*
X711210Y121428D01*
X711260Y121420D01*
X711316Y121401D01*
X711429Y121394D01*
X711514Y121381D01*
X722131Y121381D01*
X722226Y121394D01*
X722322Y121399D01*
X722366Y121414D01*
X722411Y121421D01*
X722498Y121460D01*
X722589Y121492D01*
X722623Y121517D01*
X722667Y121537D01*
X722765Y121620D01*
X722838Y121673D01*
X725564Y124400D01*
X725574Y124413D01*
X725577Y124415D01*
X725584Y124426D01*
X725603Y124451D01*
X725649Y124496D01*
X725687Y124563D01*
X725734Y124625D01*
X725756Y124686D01*
X725788Y124741D01*
X725806Y124817D01*
X725833Y124889D01*
X725838Y124953D01*
X725853Y125016D01*
X725849Y125093D01*
X725855Y125171D01*
X725842Y125233D01*
X725839Y125298D01*
X725813Y125371D01*
X725797Y125447D01*
X725767Y125503D01*
X725746Y125564D01*
X725705Y125621D01*
X725665Y125696D01*
X725606Y125756D01*
X725564Y125813D01*
X724702Y126676D01*
X723249Y130182D01*
X723249Y133978D01*
X724702Y137484D01*
X727386Y140168D01*
X730892Y141621D01*
X734688Y141621D01*
X738194Y140168D01*
X740878Y137484D01*
X742331Y133978D01*
X742331Y130182D01*
X740878Y126676D01*
X738194Y123992D01*
X734688Y122539D01*
X733369Y122539D01*
X733274Y122526D01*
X733178Y122521D01*
X733134Y122506D01*
X733089Y122499D01*
X733002Y122460D01*
X732911Y122428D01*
X732877Y122403D01*
X732833Y122383D01*
X732735Y122300D01*
X732662Y122247D01*
X728962Y118547D01*
X728943Y118521D01*
X728918Y118500D01*
X728858Y118408D01*
X728793Y118321D01*
X728781Y118291D01*
X728764Y118264D01*
X728732Y118159D01*
X728693Y118057D01*
X728691Y118025D01*
X728681Y117994D01*
X728680Y117885D01*
X728671Y117776D01*
X728678Y117744D01*
X728678Y117712D01*
X728707Y117607D01*
X728729Y117500D01*
X728744Y117471D01*
X728753Y117440D01*
X728810Y117347D01*
X728862Y117251D01*
X728884Y117228D01*
X728901Y117200D01*
X728982Y117127D01*
X729058Y117049D01*
X729086Y117033D01*
X729110Y117011D01*
X729209Y116964D01*
X729304Y116910D01*
X729335Y116902D01*
X729364Y116888D01*
X729453Y116874D01*
X729578Y116845D01*
X729627Y116847D01*
X729669Y116841D01*
X763311Y116841D01*
X763406Y116854D01*
X763502Y116859D01*
X763546Y116874D01*
X763591Y116881D01*
X763678Y116920D01*
X763769Y116952D01*
X763803Y116977D01*
X763847Y116997D01*
X763945Y117080D01*
X764018Y117133D01*
X774461Y127576D01*
X774467Y127584D01*
X774474Y127590D01*
X774551Y127697D01*
X774630Y127802D01*
X774634Y127811D01*
X774639Y127819D01*
X774683Y127942D01*
X774730Y128066D01*
X774730Y128075D01*
X774734Y128084D01*
X774741Y128216D01*
X774752Y128347D01*
X774750Y128356D01*
X774750Y128366D01*
X774732Y128441D01*
X774694Y128623D01*
X774683Y128644D01*
X774678Y128665D01*
X774049Y130182D01*
X774049Y133978D01*
X775502Y137484D01*
X778186Y140168D01*
X781692Y141621D01*
X785488Y141621D01*
X788994Y140168D01*
X791678Y137484D01*
X793131Y133978D01*
X793131Y130182D01*
X791678Y126676D01*
X788994Y123992D01*
X785488Y122539D01*
X781692Y122539D01*
X780175Y123168D01*
X780166Y123170D01*
X780158Y123175D01*
X780029Y123205D01*
X779902Y123238D01*
X779893Y123237D01*
X779884Y123240D01*
X779751Y123233D01*
X779620Y123229D01*
X779611Y123226D01*
X779602Y123225D01*
X779477Y123182D01*
X779352Y123141D01*
X779344Y123136D01*
X779335Y123133D01*
X779273Y123087D01*
X779119Y122982D01*
X779104Y122964D01*
X779086Y122951D01*
X766435Y110299D01*
X307985Y110299D01*
G37*
%LPD*%
%LPC*%
G36*
X502604Y207517D02*
X502604Y207517D01*
X502157Y207964D01*
X502157Y290508D01*
X502153Y290540D01*
X502155Y290572D01*
X502133Y290679D01*
X502117Y290787D01*
X502104Y290817D01*
X502098Y290848D01*
X502046Y290945D01*
X502001Y291044D01*
X501980Y291069D01*
X501965Y291097D01*
X501889Y291176D01*
X501818Y291259D01*
X501791Y291276D01*
X501768Y291299D01*
X501674Y291353D01*
X501582Y291413D01*
X501551Y291422D01*
X501523Y291438D01*
X501417Y291463D01*
X501312Y291495D01*
X501280Y291496D01*
X501249Y291503D01*
X501139Y291498D01*
X501030Y291499D01*
X500999Y291491D01*
X500967Y291489D01*
X500864Y291453D01*
X500758Y291424D01*
X500731Y291407D01*
X500700Y291396D01*
X500627Y291343D01*
X500518Y291276D01*
X500486Y291240D01*
X500451Y291215D01*
X500005Y290769D01*
X497776Y289845D01*
X495364Y289845D01*
X493135Y290769D01*
X491429Y292475D01*
X490505Y294704D01*
X490505Y333820D01*
X490496Y333884D01*
X490497Y333948D01*
X490476Y334023D01*
X490465Y334099D01*
X490439Y334158D01*
X490422Y334220D01*
X490381Y334286D01*
X490349Y334356D01*
X490307Y334405D01*
X490274Y334460D01*
X490216Y334512D01*
X490166Y334570D01*
X490112Y334606D01*
X490064Y334649D01*
X489995Y334682D01*
X489930Y334725D01*
X489868Y334744D01*
X489811Y334772D01*
X489741Y334783D01*
X489660Y334807D01*
X489575Y334808D01*
X489506Y334819D01*
X466048Y334819D01*
X466039Y334818D01*
X466029Y334819D01*
X465899Y334798D01*
X465769Y334779D01*
X465760Y334776D01*
X465751Y334774D01*
X465631Y334717D01*
X465512Y334663D01*
X465505Y334657D01*
X465496Y334653D01*
X465397Y334565D01*
X465298Y334480D01*
X465292Y334472D01*
X465285Y334466D01*
X465246Y334400D01*
X465143Y334244D01*
X465136Y334221D01*
X465125Y334202D01*
X464856Y333553D01*
X462737Y331434D01*
X459968Y330287D01*
X456972Y330287D01*
X454203Y331434D01*
X452084Y333553D01*
X450937Y336322D01*
X450937Y339318D01*
X452084Y342087D01*
X454203Y344206D01*
X456972Y345353D01*
X459968Y345353D01*
X462737Y344206D01*
X464856Y342087D01*
X465125Y341438D01*
X465130Y341429D01*
X465132Y341420D01*
X465202Y341308D01*
X465269Y341195D01*
X465275Y341188D01*
X465280Y341180D01*
X465379Y341092D01*
X465474Y341002D01*
X465483Y340998D01*
X465490Y340991D01*
X465608Y340934D01*
X465726Y340874D01*
X465735Y340872D01*
X465744Y340868D01*
X465819Y340856D01*
X466003Y340822D01*
X466027Y340824D01*
X466048Y340821D01*
X489506Y340821D01*
X489570Y340830D01*
X489634Y340829D01*
X489709Y340850D01*
X489785Y340861D01*
X489844Y340887D01*
X489906Y340904D01*
X489972Y340945D01*
X490042Y340977D01*
X490091Y341019D01*
X490146Y341052D01*
X490198Y341110D01*
X490256Y341160D01*
X490292Y341214D01*
X490335Y341262D01*
X490368Y341331D01*
X490411Y341396D01*
X490430Y341458D01*
X490458Y341515D01*
X490469Y341585D01*
X490493Y341666D01*
X490494Y341751D01*
X490505Y341820D01*
X490505Y407606D01*
X491429Y409835D01*
X491547Y409953D01*
X491604Y410030D01*
X491669Y410102D01*
X491689Y410143D01*
X491716Y410179D01*
X491750Y410269D01*
X491792Y410355D01*
X491798Y410397D01*
X491815Y410443D01*
X491825Y410570D01*
X491839Y410660D01*
X491839Y413748D01*
X494023Y415931D01*
X494080Y416008D01*
X494145Y416079D01*
X494165Y416120D01*
X494192Y416157D01*
X494226Y416246D01*
X494268Y416333D01*
X494274Y416375D01*
X494291Y416420D01*
X494301Y416548D01*
X494315Y416638D01*
X494315Y425141D01*
X494302Y425236D01*
X494297Y425332D01*
X494282Y425375D01*
X494275Y425420D01*
X494236Y425507D01*
X494204Y425598D01*
X494179Y425633D01*
X494159Y425677D01*
X494076Y425774D01*
X494023Y425847D01*
X490717Y429153D01*
X488981Y433343D01*
X488981Y437877D01*
X490717Y442067D01*
X493923Y445273D01*
X498113Y447009D01*
X502647Y447009D01*
X506837Y445273D01*
X510043Y442067D01*
X511779Y437877D01*
X511779Y433343D01*
X510043Y429153D01*
X506737Y425847D01*
X506680Y425770D01*
X506615Y425699D01*
X506595Y425658D01*
X506568Y425622D01*
X506534Y425532D01*
X506492Y425445D01*
X506486Y425403D01*
X506469Y425358D01*
X506459Y425230D01*
X506445Y425141D01*
X506445Y416638D01*
X506458Y416542D01*
X506463Y416446D01*
X506478Y416403D01*
X506485Y416358D01*
X506524Y416271D01*
X506556Y416180D01*
X506581Y416146D01*
X506601Y416101D01*
X506684Y416004D01*
X506737Y415931D01*
X508921Y413748D01*
X508921Y406672D01*
X503918Y401669D01*
X503634Y401669D01*
X503570Y401660D01*
X503506Y401661D01*
X503431Y401640D01*
X503355Y401629D01*
X503296Y401603D01*
X503234Y401586D01*
X503168Y401545D01*
X503098Y401513D01*
X503049Y401471D01*
X502994Y401438D01*
X502942Y401380D01*
X502884Y401330D01*
X502848Y401276D01*
X502805Y401228D01*
X502772Y401159D01*
X502729Y401094D01*
X502710Y401032D01*
X502682Y400975D01*
X502671Y400905D01*
X502647Y400824D01*
X502646Y400739D01*
X502635Y400670D01*
X502635Y373872D01*
X502644Y373810D01*
X502643Y373761D01*
X502643Y373760D01*
X502643Y373744D01*
X502664Y373669D01*
X502675Y373593D01*
X502701Y373534D01*
X502718Y373472D01*
X502759Y373406D01*
X502791Y373336D01*
X502833Y373287D01*
X502866Y373232D01*
X502924Y373180D01*
X502974Y373122D01*
X503028Y373086D01*
X503076Y373043D01*
X503145Y373010D01*
X503210Y372967D01*
X503272Y372948D01*
X503329Y372920D01*
X503399Y372909D01*
X503480Y372885D01*
X503565Y372884D01*
X503634Y372873D01*
X566736Y372873D01*
X567183Y372426D01*
X567183Y207964D01*
X566736Y207517D01*
X502604Y207517D01*
G37*
%LPD*%
%LPC*%
G36*
X141242Y401669D02*
X141242Y401669D01*
X136239Y406672D01*
X136239Y413748D01*
X141217Y418725D01*
X141274Y418802D01*
X141339Y418873D01*
X141359Y418914D01*
X141386Y418951D01*
X141420Y419041D01*
X141462Y419127D01*
X141468Y419169D01*
X141485Y419214D01*
X141495Y419342D01*
X141509Y419432D01*
X141509Y423959D01*
X141508Y423969D01*
X141509Y423978D01*
X141488Y424108D01*
X141469Y424238D01*
X141466Y424247D01*
X141464Y424256D01*
X141407Y424376D01*
X141353Y424495D01*
X141347Y424503D01*
X141343Y424511D01*
X141255Y424610D01*
X141170Y424710D01*
X141162Y424715D01*
X141156Y424722D01*
X141090Y424762D01*
X140934Y424864D01*
X140911Y424871D01*
X140892Y424882D01*
X138323Y425947D01*
X135117Y429153D01*
X133381Y433343D01*
X133381Y437877D01*
X135117Y442067D01*
X138323Y445273D01*
X140892Y446338D01*
X140901Y446342D01*
X140910Y446345D01*
X141022Y446414D01*
X141135Y446481D01*
X141142Y446488D01*
X141150Y446493D01*
X141238Y446591D01*
X141328Y446687D01*
X141332Y446695D01*
X141339Y446702D01*
X141396Y446821D01*
X141456Y446938D01*
X141458Y446948D01*
X141462Y446956D01*
X141474Y447032D01*
X141508Y447215D01*
X141506Y447239D01*
X141509Y447261D01*
X141509Y453475D01*
X151045Y463011D01*
X699855Y463011D01*
X710661Y452205D01*
X710661Y446520D01*
X710662Y446510D01*
X710661Y446501D01*
X710682Y446371D01*
X710701Y446240D01*
X710704Y446232D01*
X710706Y446223D01*
X710763Y446103D01*
X710817Y445984D01*
X710823Y445976D01*
X710827Y445968D01*
X710915Y445869D01*
X711000Y445769D01*
X711008Y445764D01*
X711014Y445757D01*
X711080Y445717D01*
X711236Y445615D01*
X711259Y445608D01*
X711278Y445597D01*
X712794Y444968D01*
X715478Y442284D01*
X716931Y438778D01*
X716931Y434982D01*
X715478Y431476D01*
X713159Y429157D01*
X713140Y429131D01*
X713115Y429110D01*
X713055Y429018D01*
X712990Y428931D01*
X712979Y428901D01*
X712961Y428874D01*
X712929Y428769D01*
X712890Y428667D01*
X712888Y428635D01*
X712878Y428604D01*
X712877Y428495D01*
X712869Y428386D01*
X712875Y428354D01*
X712875Y428322D01*
X712904Y428217D01*
X712926Y428110D01*
X712941Y428081D01*
X712950Y428050D01*
X713007Y427957D01*
X713059Y427861D01*
X713081Y427838D01*
X713098Y427810D01*
X713179Y427737D01*
X713255Y427659D01*
X713283Y427643D01*
X713307Y427621D01*
X713406Y427574D01*
X713501Y427520D01*
X713532Y427512D01*
X713561Y427498D01*
X713650Y427484D01*
X713775Y427455D01*
X713824Y427457D01*
X713866Y427451D01*
X724671Y427451D01*
X724766Y427464D01*
X724862Y427469D01*
X724906Y427484D01*
X724951Y427491D01*
X725038Y427530D01*
X725129Y427562D01*
X725163Y427587D01*
X725207Y427607D01*
X725305Y427690D01*
X725378Y427743D01*
X726199Y428565D01*
X726238Y428616D01*
X726284Y428661D01*
X726322Y428728D01*
X726369Y428790D01*
X726391Y428851D01*
X726423Y428906D01*
X726441Y428982D01*
X726468Y429054D01*
X726473Y429118D01*
X726488Y429181D01*
X726484Y429258D01*
X726490Y429336D01*
X726477Y429398D01*
X726474Y429463D01*
X726448Y429536D01*
X726432Y429612D01*
X726402Y429668D01*
X726381Y429729D01*
X726340Y429786D01*
X726300Y429861D01*
X726241Y429921D01*
X726199Y429978D01*
X724702Y431476D01*
X723249Y434982D01*
X723249Y438778D01*
X724702Y442284D01*
X727386Y444968D01*
X730892Y446421D01*
X734688Y446421D01*
X738194Y444968D01*
X740878Y442284D01*
X742331Y438778D01*
X742331Y434982D01*
X740878Y431476D01*
X738194Y428792D01*
X734688Y427339D01*
X734639Y427339D01*
X734544Y427326D01*
X734448Y427321D01*
X734404Y427306D01*
X734359Y427299D01*
X734272Y427260D01*
X734181Y427228D01*
X734147Y427203D01*
X734103Y427183D01*
X734005Y427100D01*
X733932Y427047D01*
X733852Y426967D01*
X730003Y423118D01*
X727795Y420909D01*
X698415Y420909D01*
X693628Y425697D01*
X691419Y427905D01*
X691419Y430404D01*
X691415Y430436D01*
X691417Y430468D01*
X691395Y430575D01*
X691379Y430683D01*
X691366Y430713D01*
X691360Y430744D01*
X691308Y430841D01*
X691263Y430940D01*
X691242Y430965D01*
X691227Y430993D01*
X691151Y431072D01*
X691080Y431155D01*
X691053Y431172D01*
X691030Y431195D01*
X690935Y431249D01*
X690844Y431309D01*
X690813Y431319D01*
X690785Y431334D01*
X690679Y431360D01*
X690574Y431392D01*
X690542Y431392D01*
X690511Y431399D01*
X690401Y431394D01*
X690292Y431395D01*
X690261Y431387D01*
X690229Y431385D01*
X690126Y431349D01*
X690020Y431320D01*
X689993Y431303D01*
X689962Y431293D01*
X689889Y431239D01*
X689780Y431172D01*
X689748Y431136D01*
X689713Y431111D01*
X687394Y428792D01*
X683888Y427339D01*
X680092Y427339D01*
X676586Y428792D01*
X673902Y431476D01*
X672449Y434982D01*
X672449Y438778D01*
X673902Y442284D01*
X676586Y444968D01*
X680092Y446421D01*
X683888Y446421D01*
X687394Y444968D01*
X689713Y442649D01*
X689739Y442630D01*
X689760Y442605D01*
X689852Y442545D01*
X689939Y442480D01*
X689969Y442469D01*
X689996Y442451D01*
X690101Y442419D01*
X690203Y442380D01*
X690235Y442378D01*
X690266Y442368D01*
X690375Y442367D01*
X690484Y442359D01*
X690516Y442365D01*
X690548Y442365D01*
X690653Y442394D01*
X690760Y442416D01*
X690789Y442431D01*
X690820Y442440D01*
X690913Y442497D01*
X691009Y442549D01*
X691032Y442571D01*
X691060Y442588D01*
X691133Y442669D01*
X691211Y442745D01*
X691227Y442773D01*
X691249Y442797D01*
X691296Y442896D01*
X691350Y442991D01*
X691358Y443022D01*
X691372Y443051D01*
X691386Y443140D01*
X691415Y443265D01*
X691413Y443314D01*
X691419Y443356D01*
X691419Y444604D01*
X691406Y444699D01*
X691401Y444795D01*
X691386Y444838D01*
X691379Y444883D01*
X691340Y444971D01*
X691308Y445062D01*
X691283Y445096D01*
X691263Y445140D01*
X691180Y445237D01*
X691127Y445311D01*
X686944Y449493D01*
X686867Y449551D01*
X686796Y449615D01*
X686755Y449635D01*
X686719Y449662D01*
X686629Y449696D01*
X686542Y449738D01*
X686500Y449745D01*
X686455Y449762D01*
X686327Y449772D01*
X686238Y449786D01*
X227495Y449786D01*
X227400Y449772D01*
X227304Y449767D01*
X227261Y449752D01*
X227216Y449746D01*
X227128Y449706D01*
X227037Y449675D01*
X227003Y449650D01*
X226959Y449630D01*
X226862Y449546D01*
X226788Y449493D01*
X225052Y447757D01*
X224981Y447662D01*
X224906Y447570D01*
X224897Y447549D01*
X224883Y447531D01*
X224841Y447420D01*
X224794Y447311D01*
X224791Y447289D01*
X224783Y447267D01*
X224774Y447148D01*
X224760Y447031D01*
X224763Y447009D01*
X224762Y446986D01*
X224786Y446870D01*
X224805Y446753D01*
X224815Y446732D01*
X224819Y446710D01*
X224875Y446605D01*
X224926Y446498D01*
X224941Y446481D01*
X224952Y446461D01*
X225034Y446376D01*
X225113Y446287D01*
X225132Y446276D01*
X225148Y446259D01*
X225311Y446167D01*
X225376Y446127D01*
X227437Y445273D01*
X230643Y442067D01*
X232379Y437877D01*
X232379Y433343D01*
X230643Y429153D01*
X227437Y425947D01*
X224868Y424882D01*
X224859Y424878D01*
X224850Y424875D01*
X224738Y424806D01*
X224625Y424739D01*
X224618Y424732D01*
X224610Y424727D01*
X224522Y424629D01*
X224432Y424533D01*
X224428Y424525D01*
X224421Y424518D01*
X224364Y424399D01*
X224304Y424282D01*
X224302Y424272D01*
X224298Y424264D01*
X224286Y424188D01*
X224252Y424005D01*
X224254Y423981D01*
X224251Y423959D01*
X224251Y419432D01*
X224264Y419337D01*
X224269Y419240D01*
X224284Y419197D01*
X224291Y419152D01*
X224330Y419065D01*
X224362Y418974D01*
X224387Y418940D01*
X224407Y418895D01*
X224490Y418798D01*
X224543Y418725D01*
X229521Y413748D01*
X229521Y406672D01*
X224518Y401669D01*
X217442Y401669D01*
X212439Y406672D01*
X212439Y413748D01*
X217417Y418725D01*
X217474Y418802D01*
X217539Y418873D01*
X217559Y418914D01*
X217586Y418951D01*
X217620Y419041D01*
X217662Y419127D01*
X217668Y419169D01*
X217685Y419214D01*
X217695Y419342D01*
X217709Y419432D01*
X217709Y423959D01*
X217708Y423969D01*
X217709Y423978D01*
X217688Y424108D01*
X217669Y424238D01*
X217666Y424247D01*
X217664Y424256D01*
X217607Y424376D01*
X217553Y424495D01*
X217547Y424503D01*
X217543Y424511D01*
X217455Y424610D01*
X217370Y424710D01*
X217362Y424715D01*
X217356Y424722D01*
X217290Y424762D01*
X217134Y424864D01*
X217111Y424871D01*
X217092Y424882D01*
X214523Y425947D01*
X211317Y429153D01*
X209581Y433343D01*
X209581Y437877D01*
X211317Y442067D01*
X214523Y445273D01*
X217092Y446338D01*
X217101Y446342D01*
X217110Y446345D01*
X217222Y446414D01*
X217335Y446481D01*
X217342Y446488D01*
X217350Y446493D01*
X217438Y446591D01*
X217528Y446687D01*
X217532Y446695D01*
X217539Y446702D01*
X217596Y446821D01*
X217656Y446938D01*
X217658Y446948D01*
X217662Y446956D01*
X217674Y447032D01*
X217708Y447215D01*
X217706Y447239D01*
X217709Y447261D01*
X217709Y449665D01*
X222808Y454763D01*
X222827Y454789D01*
X222852Y454810D01*
X222912Y454902D01*
X222977Y454989D01*
X222989Y455019D01*
X223006Y455046D01*
X223038Y455151D01*
X223077Y455253D01*
X223079Y455285D01*
X223089Y455316D01*
X223090Y455425D01*
X223099Y455534D01*
X223092Y455566D01*
X223092Y455598D01*
X223063Y455703D01*
X223041Y455810D01*
X223026Y455839D01*
X223017Y455870D01*
X222960Y455963D01*
X222908Y456059D01*
X222886Y456082D01*
X222869Y456110D01*
X222788Y456183D01*
X222712Y456261D01*
X222684Y456277D01*
X222660Y456299D01*
X222561Y456346D01*
X222466Y456400D01*
X222435Y456408D01*
X222406Y456422D01*
X222317Y456436D01*
X222192Y456465D01*
X222143Y456463D01*
X222101Y456469D01*
X154169Y456469D01*
X154074Y456456D01*
X153978Y456451D01*
X153934Y456436D01*
X153889Y456429D01*
X153802Y456390D01*
X153711Y456358D01*
X153677Y456333D01*
X153633Y456313D01*
X153535Y456230D01*
X153462Y456177D01*
X148343Y451058D01*
X148286Y450981D01*
X148221Y450910D01*
X148201Y450869D01*
X148174Y450832D01*
X148140Y450742D01*
X148098Y450656D01*
X148092Y450614D01*
X148075Y450568D01*
X148065Y450441D01*
X148051Y450351D01*
X148051Y447261D01*
X148052Y447251D01*
X148051Y447242D01*
X148072Y447112D01*
X148091Y446982D01*
X148094Y446973D01*
X148096Y446964D01*
X148153Y446844D01*
X148207Y446725D01*
X148213Y446717D01*
X148217Y446709D01*
X148305Y446610D01*
X148390Y446510D01*
X148398Y446505D01*
X148404Y446498D01*
X148470Y446458D01*
X148626Y446356D01*
X148649Y446349D01*
X148668Y446338D01*
X151237Y445273D01*
X154443Y442067D01*
X156179Y437877D01*
X156179Y433343D01*
X154443Y429153D01*
X151237Y425947D01*
X148668Y424882D01*
X148659Y424878D01*
X148650Y424875D01*
X148538Y424806D01*
X148425Y424739D01*
X148418Y424732D01*
X148410Y424727D01*
X148322Y424629D01*
X148232Y424533D01*
X148228Y424525D01*
X148221Y424518D01*
X148164Y424399D01*
X148104Y424282D01*
X148102Y424272D01*
X148098Y424264D01*
X148086Y424188D01*
X148052Y424005D01*
X148054Y423981D01*
X148051Y423959D01*
X148051Y419432D01*
X148064Y419337D01*
X148069Y419240D01*
X148084Y419197D01*
X148091Y419152D01*
X148130Y419065D01*
X148162Y418974D01*
X148187Y418940D01*
X148207Y418895D01*
X148290Y418798D01*
X148343Y418725D01*
X153321Y413748D01*
X153321Y406672D01*
X148318Y401669D01*
X141242Y401669D01*
G37*
%LPD*%
%LPC*%
G36*
X161739Y168941D02*
X161739Y168941D01*
X153701Y176979D01*
X153701Y189659D01*
X153692Y189723D01*
X153693Y189787D01*
X153672Y189862D01*
X153661Y189938D01*
X153635Y189997D01*
X153618Y190059D01*
X153577Y190125D01*
X153545Y190195D01*
X153503Y190244D01*
X153470Y190299D01*
X153412Y190351D01*
X153362Y190409D01*
X153308Y190445D01*
X153260Y190488D01*
X153191Y190521D01*
X153126Y190564D01*
X153064Y190583D01*
X153007Y190611D01*
X152937Y190622D01*
X152856Y190646D01*
X152771Y190647D01*
X152702Y190658D01*
X152034Y190658D01*
X151989Y190692D01*
X151919Y190718D01*
X151853Y190754D01*
X151788Y190768D01*
X151725Y190792D01*
X151651Y190797D01*
X151577Y190813D01*
X151511Y190808D01*
X151444Y190813D01*
X151371Y190798D01*
X151296Y190793D01*
X151239Y190771D01*
X151168Y190756D01*
X151082Y190710D01*
X151009Y190682D01*
X150333Y190291D01*
X149687Y190118D01*
X145509Y190118D01*
X145509Y199660D01*
X145500Y199724D01*
X145501Y199788D01*
X145480Y199862D01*
X145469Y199939D01*
X145443Y199998D01*
X145426Y200060D01*
X145385Y200126D01*
X145353Y200196D01*
X145311Y200245D01*
X145278Y200300D01*
X145220Y200351D01*
X145170Y200410D01*
X145116Y200446D01*
X145068Y200489D01*
X144999Y200522D01*
X144934Y200565D01*
X144872Y200584D01*
X144815Y200612D01*
X144745Y200622D01*
X144664Y200647D01*
X144579Y200648D01*
X144510Y200659D01*
X143509Y200659D01*
X143509Y200661D01*
X144510Y200661D01*
X144574Y200670D01*
X144638Y200669D01*
X144713Y200690D01*
X144789Y200701D01*
X144848Y200727D01*
X144910Y200744D01*
X144976Y200785D01*
X145046Y200817D01*
X145095Y200859D01*
X145150Y200892D01*
X145202Y200950D01*
X145260Y201000D01*
X145296Y201054D01*
X145339Y201102D01*
X145372Y201171D01*
X145415Y201236D01*
X145434Y201298D01*
X145462Y201356D01*
X145472Y201425D01*
X145497Y201506D01*
X145498Y201591D01*
X145509Y201660D01*
X145509Y211202D01*
X149687Y211202D01*
X150333Y211029D01*
X151009Y210638D01*
X151078Y210610D01*
X151143Y210574D01*
X151208Y210558D01*
X151270Y210533D01*
X151345Y210526D01*
X151418Y210509D01*
X151484Y210512D01*
X151551Y210505D01*
X151625Y210519D01*
X151699Y210523D01*
X151763Y210545D01*
X151828Y210557D01*
X151895Y210591D01*
X151966Y210615D01*
X152015Y210652D01*
X152035Y210662D01*
X165421Y210662D01*
X166593Y209490D01*
X166593Y191830D01*
X165421Y190658D01*
X164798Y190658D01*
X164734Y190649D01*
X164670Y190650D01*
X164595Y190629D01*
X164519Y190618D01*
X164460Y190592D01*
X164398Y190575D01*
X164332Y190534D01*
X164262Y190502D01*
X164213Y190460D01*
X164158Y190427D01*
X164106Y190369D01*
X164048Y190319D01*
X164012Y190265D01*
X163969Y190217D01*
X163936Y190148D01*
X163893Y190083D01*
X163874Y190021D01*
X163846Y189964D01*
X163835Y189894D01*
X163811Y189813D01*
X163810Y189728D01*
X163799Y189659D01*
X163799Y181575D01*
X163812Y181480D01*
X163817Y181384D01*
X163832Y181341D01*
X163839Y181296D01*
X163878Y181208D01*
X163910Y181118D01*
X163935Y181083D01*
X163955Y181039D01*
X164038Y180942D01*
X164091Y180869D01*
X165629Y179331D01*
X165705Y179274D01*
X165777Y179209D01*
X165818Y179189D01*
X165854Y179162D01*
X165944Y179128D01*
X166031Y179086D01*
X166073Y179080D01*
X166118Y179063D01*
X166246Y179053D01*
X166335Y179039D01*
X236522Y179039D01*
X236586Y179048D01*
X236650Y179047D01*
X236725Y179068D01*
X236801Y179079D01*
X236860Y179105D01*
X236922Y179122D01*
X236988Y179163D01*
X237058Y179195D01*
X237107Y179237D01*
X237162Y179270D01*
X237214Y179328D01*
X237272Y179378D01*
X237308Y179432D01*
X237351Y179480D01*
X237384Y179549D01*
X237427Y179614D01*
X237446Y179676D01*
X237474Y179733D01*
X237485Y179803D01*
X237509Y179884D01*
X237510Y179969D01*
X237521Y180038D01*
X237521Y189659D01*
X237512Y189723D01*
X237513Y189787D01*
X237492Y189862D01*
X237481Y189938D01*
X237455Y189997D01*
X237438Y190059D01*
X237397Y190125D01*
X237365Y190195D01*
X237323Y190244D01*
X237290Y190299D01*
X237232Y190351D01*
X237182Y190409D01*
X237128Y190445D01*
X237080Y190488D01*
X237011Y190521D01*
X236946Y190564D01*
X236884Y190583D01*
X236827Y190611D01*
X236757Y190622D01*
X236676Y190646D01*
X236591Y190647D01*
X236522Y190658D01*
X235899Y190658D01*
X235657Y190901D01*
X235605Y190939D01*
X235560Y190986D01*
X235493Y191024D01*
X235431Y191070D01*
X235371Y191093D01*
X235315Y191125D01*
X235240Y191142D01*
X235167Y191170D01*
X235103Y191175D01*
X235040Y191190D01*
X234963Y191186D01*
X234886Y191192D01*
X234823Y191178D01*
X234759Y191175D01*
X234686Y191150D01*
X234610Y191134D01*
X234553Y191104D01*
X234492Y191083D01*
X234436Y191041D01*
X234361Y191002D01*
X234300Y190942D01*
X234243Y190901D01*
X234001Y190658D01*
X220659Y190658D01*
X219487Y191830D01*
X219487Y209490D01*
X220659Y210662D01*
X221282Y210662D01*
X221346Y210671D01*
X221410Y210670D01*
X221485Y210691D01*
X221561Y210702D01*
X221620Y210728D01*
X221682Y210745D01*
X221748Y210786D01*
X221818Y210818D01*
X221867Y210860D01*
X221922Y210893D01*
X221974Y210951D01*
X222032Y211001D01*
X222068Y211055D01*
X222111Y211103D01*
X222144Y211172D01*
X222187Y211237D01*
X222206Y211299D01*
X222234Y211356D01*
X222245Y211426D01*
X222269Y211507D01*
X222270Y211592D01*
X222281Y211661D01*
X222281Y226095D01*
X222268Y226190D01*
X222263Y226286D01*
X222248Y226329D01*
X222241Y226374D01*
X222202Y226462D01*
X222170Y226552D01*
X222145Y226587D01*
X222125Y226631D01*
X222042Y226728D01*
X221989Y226801D01*
X216641Y232149D01*
X216565Y232206D01*
X216493Y232271D01*
X216452Y232291D01*
X216416Y232318D01*
X216326Y232352D01*
X216239Y232394D01*
X216197Y232400D01*
X216152Y232417D01*
X216024Y232427D01*
X215935Y232441D01*
X201598Y232441D01*
X201503Y232428D01*
X201407Y232423D01*
X201364Y232408D01*
X201319Y232401D01*
X201231Y232362D01*
X201140Y232330D01*
X201106Y232305D01*
X201062Y232285D01*
X200965Y232202D01*
X200892Y232149D01*
X199847Y231104D01*
X197078Y229957D01*
X194082Y229957D01*
X191313Y231104D01*
X190268Y232149D01*
X190192Y232206D01*
X190120Y232271D01*
X190079Y232291D01*
X190043Y232318D01*
X189953Y232352D01*
X189867Y232394D01*
X189824Y232400D01*
X189779Y232417D01*
X189651Y232427D01*
X189562Y232441D01*
X189195Y232441D01*
X189100Y232428D01*
X189004Y232423D01*
X188961Y232408D01*
X188916Y232401D01*
X188828Y232362D01*
X188738Y232330D01*
X188703Y232305D01*
X188659Y232285D01*
X188562Y232202D01*
X188489Y232149D01*
X184411Y228071D01*
X184354Y227995D01*
X184289Y227923D01*
X184269Y227882D01*
X184242Y227846D01*
X184208Y227756D01*
X184166Y227669D01*
X184160Y227627D01*
X184143Y227582D01*
X184133Y227454D01*
X184119Y227365D01*
X184119Y211661D01*
X184128Y211597D01*
X184127Y211533D01*
X184148Y211458D01*
X184159Y211382D01*
X184185Y211323D01*
X184202Y211261D01*
X184243Y211195D01*
X184275Y211125D01*
X184317Y211076D01*
X184350Y211021D01*
X184408Y210969D01*
X184458Y210911D01*
X184512Y210875D01*
X184560Y210832D01*
X184629Y210799D01*
X184694Y210756D01*
X184756Y210737D01*
X184813Y210709D01*
X184883Y210698D01*
X184964Y210674D01*
X185049Y210673D01*
X185118Y210662D01*
X185741Y210662D01*
X185983Y210419D01*
X186035Y210380D01*
X186080Y210334D01*
X186147Y210296D01*
X186209Y210250D01*
X186269Y210227D01*
X186325Y210195D01*
X186400Y210178D01*
X186473Y210150D01*
X186537Y210145D01*
X186599Y210130D01*
X186677Y210134D01*
X186754Y210128D01*
X186817Y210142D01*
X186881Y210145D01*
X186954Y210170D01*
X187030Y210186D01*
X187087Y210216D01*
X187148Y210237D01*
X187204Y210279D01*
X187279Y210318D01*
X187340Y210378D01*
X187397Y210419D01*
X187639Y210662D01*
X200981Y210662D01*
X202153Y209490D01*
X202153Y191830D01*
X200981Y190658D01*
X200358Y190658D01*
X200294Y190649D01*
X200230Y190650D01*
X200155Y190629D01*
X200079Y190618D01*
X200020Y190592D01*
X199958Y190575D01*
X199892Y190534D01*
X199822Y190502D01*
X199773Y190460D01*
X199718Y190427D01*
X199666Y190369D01*
X199608Y190319D01*
X199572Y190265D01*
X199529Y190217D01*
X199496Y190148D01*
X199453Y190083D01*
X199434Y190021D01*
X199406Y189964D01*
X199395Y189894D01*
X199371Y189813D01*
X199370Y189728D01*
X199359Y189659D01*
X199359Y189158D01*
X199365Y189117D01*
X199362Y189075D01*
X199382Y188991D01*
X199399Y188879D01*
X199423Y188825D01*
X199435Y188775D01*
X199843Y187791D01*
X199843Y185589D01*
X199435Y184605D01*
X199426Y184569D01*
X199408Y184541D01*
X199000Y183556D01*
X197444Y182000D01*
X196459Y181592D01*
X196428Y181573D01*
X196395Y181565D01*
X195411Y181157D01*
X193209Y181157D01*
X192225Y181565D01*
X192189Y181574D01*
X192161Y181592D01*
X191176Y182000D01*
X189620Y183556D01*
X189212Y184541D01*
X189193Y184572D01*
X189185Y184605D01*
X188777Y185589D01*
X188777Y187791D01*
X189185Y188775D01*
X189196Y188816D01*
X189214Y188853D01*
X189227Y188938D01*
X189255Y189049D01*
X189253Y189107D01*
X189261Y189158D01*
X189261Y189659D01*
X189252Y189723D01*
X189253Y189787D01*
X189232Y189862D01*
X189221Y189938D01*
X189195Y189997D01*
X189178Y190059D01*
X189137Y190125D01*
X189105Y190195D01*
X189063Y190244D01*
X189030Y190299D01*
X188972Y190351D01*
X188922Y190409D01*
X188868Y190445D01*
X188820Y190488D01*
X188751Y190521D01*
X188686Y190564D01*
X188624Y190583D01*
X188567Y190611D01*
X188497Y190622D01*
X188416Y190646D01*
X188331Y190647D01*
X188262Y190658D01*
X187639Y190658D01*
X187397Y190901D01*
X187345Y190939D01*
X187300Y190986D01*
X187233Y191024D01*
X187171Y191070D01*
X187111Y191093D01*
X187055Y191125D01*
X186980Y191142D01*
X186907Y191170D01*
X186843Y191175D01*
X186780Y191190D01*
X186703Y191186D01*
X186626Y191192D01*
X186563Y191178D01*
X186499Y191175D01*
X186426Y191150D01*
X186350Y191134D01*
X186293Y191104D01*
X186232Y191083D01*
X186176Y191041D01*
X186101Y191002D01*
X186040Y190942D01*
X185983Y190901D01*
X185741Y190658D01*
X172399Y190658D01*
X171227Y191830D01*
X171227Y209490D01*
X172399Y210662D01*
X173022Y210662D01*
X173086Y210671D01*
X173150Y210670D01*
X173225Y210691D01*
X173301Y210702D01*
X173360Y210728D01*
X173422Y210745D01*
X173488Y210786D01*
X173558Y210818D01*
X173607Y210860D01*
X173662Y210893D01*
X173714Y210951D01*
X173772Y211001D01*
X173808Y211055D01*
X173851Y211103D01*
X173884Y211172D01*
X173927Y211237D01*
X173946Y211299D01*
X173974Y211356D01*
X173985Y211426D01*
X174009Y211507D01*
X174010Y211592D01*
X174021Y211661D01*
X174021Y231961D01*
X184599Y242539D01*
X189562Y242539D01*
X189657Y242552D01*
X189753Y242557D01*
X189796Y242572D01*
X189841Y242579D01*
X189929Y242618D01*
X190020Y242650D01*
X190054Y242675D01*
X190098Y242695D01*
X190195Y242778D01*
X190268Y242831D01*
X191313Y243876D01*
X194082Y245023D01*
X197078Y245023D01*
X199847Y243876D01*
X200892Y242831D01*
X200968Y242774D01*
X201040Y242709D01*
X201081Y242689D01*
X201117Y242662D01*
X201207Y242628D01*
X201293Y242586D01*
X201336Y242580D01*
X201381Y242563D01*
X201509Y242553D01*
X201598Y242539D01*
X220531Y242539D01*
X232379Y230691D01*
X232379Y211661D01*
X232388Y211597D01*
X232387Y211533D01*
X232408Y211458D01*
X232419Y211382D01*
X232445Y211323D01*
X232462Y211261D01*
X232503Y211195D01*
X232535Y211125D01*
X232577Y211076D01*
X232610Y211021D01*
X232668Y210969D01*
X232718Y210911D01*
X232772Y210875D01*
X232820Y210832D01*
X232889Y210799D01*
X232954Y210756D01*
X233016Y210737D01*
X233073Y210709D01*
X233143Y210698D01*
X233224Y210674D01*
X233309Y210673D01*
X233378Y210662D01*
X234001Y210662D01*
X234243Y210419D01*
X234295Y210380D01*
X234340Y210334D01*
X234407Y210296D01*
X234469Y210250D01*
X234529Y210227D01*
X234585Y210195D01*
X234660Y210178D01*
X234733Y210150D01*
X234797Y210145D01*
X234859Y210130D01*
X234937Y210134D01*
X235014Y210128D01*
X235077Y210142D01*
X235141Y210145D01*
X235214Y210170D01*
X235290Y210186D01*
X235347Y210216D01*
X235408Y210237D01*
X235464Y210279D01*
X235539Y210318D01*
X235600Y210378D01*
X235657Y210419D01*
X235899Y210662D01*
X249241Y210662D01*
X250413Y209490D01*
X250413Y191830D01*
X249241Y190658D01*
X248618Y190658D01*
X248554Y190649D01*
X248490Y190650D01*
X248415Y190629D01*
X248339Y190618D01*
X248280Y190592D01*
X248218Y190575D01*
X248152Y190534D01*
X248082Y190502D01*
X248033Y190460D01*
X247978Y190427D01*
X247926Y190369D01*
X247868Y190319D01*
X247832Y190265D01*
X247789Y190217D01*
X247756Y190148D01*
X247713Y190083D01*
X247694Y190021D01*
X247666Y189964D01*
X247655Y189894D01*
X247631Y189813D01*
X247630Y189728D01*
X247619Y189659D01*
X247619Y180038D01*
X247628Y179974D01*
X247627Y179910D01*
X247648Y179835D01*
X247659Y179759D01*
X247685Y179700D01*
X247702Y179638D01*
X247743Y179572D01*
X247775Y179502D01*
X247817Y179453D01*
X247850Y179398D01*
X247908Y179346D01*
X247958Y179288D01*
X248012Y179252D01*
X248060Y179209D01*
X248129Y179176D01*
X248194Y179133D01*
X248256Y179114D01*
X248313Y179086D01*
X248383Y179075D01*
X248464Y179051D01*
X248549Y179050D01*
X248618Y179039D01*
X298485Y179039D01*
X298580Y179052D01*
X298676Y179057D01*
X298719Y179072D01*
X298764Y179079D01*
X298852Y179118D01*
X298942Y179150D01*
X298977Y179175D01*
X299021Y179195D01*
X299118Y179278D01*
X299191Y179331D01*
X303269Y183409D01*
X303326Y183485D01*
X303391Y183557D01*
X303411Y183598D01*
X303438Y183634D01*
X303472Y183724D01*
X303514Y183811D01*
X303520Y183853D01*
X303537Y183898D01*
X303547Y184026D01*
X303561Y184115D01*
X303561Y232949D01*
X303560Y232959D01*
X303561Y232968D01*
X303540Y233099D01*
X303521Y233229D01*
X303518Y233237D01*
X303516Y233247D01*
X303459Y233366D01*
X303405Y233486D01*
X303399Y233493D01*
X303395Y233501D01*
X303307Y233601D01*
X303222Y233700D01*
X303214Y233705D01*
X303208Y233712D01*
X303142Y233752D01*
X302986Y233854D01*
X302963Y233861D01*
X302944Y233873D01*
X301171Y234607D01*
X298107Y237671D01*
X296449Y241674D01*
X296449Y246006D01*
X298107Y250009D01*
X301171Y253073D01*
X305174Y254731D01*
X309506Y254731D01*
X313509Y253073D01*
X316573Y250009D01*
X318231Y246006D01*
X318231Y241674D01*
X316573Y237671D01*
X313951Y235050D01*
X313894Y234973D01*
X313829Y234901D01*
X313809Y234860D01*
X313782Y234824D01*
X313748Y234734D01*
X313706Y234648D01*
X313700Y234606D01*
X313683Y234560D01*
X313673Y234433D01*
X313659Y234343D01*
X313659Y179519D01*
X303081Y168941D01*
X161739Y168941D01*
G37*
%LPD*%
G36*
X600469Y121387D02*
X600469Y121387D01*
X600517Y121385D01*
X600608Y121407D01*
X600701Y121421D01*
X600744Y121440D01*
X600791Y121451D01*
X600872Y121498D01*
X600958Y121537D01*
X600994Y121568D01*
X601036Y121592D01*
X601101Y121659D01*
X601172Y121720D01*
X601198Y121760D01*
X601231Y121794D01*
X601275Y121877D01*
X601327Y121956D01*
X601341Y122002D01*
X601363Y122044D01*
X601382Y122136D01*
X601409Y122226D01*
X601410Y122274D01*
X601419Y122320D01*
X601411Y122414D01*
X601413Y122508D01*
X601400Y122554D01*
X601396Y122601D01*
X601363Y122689D01*
X601337Y122780D01*
X601312Y122820D01*
X601295Y122865D01*
X601239Y122940D01*
X601189Y123020D01*
X601154Y123052D01*
X601125Y123090D01*
X601058Y123138D01*
X600980Y123209D01*
X600921Y123237D01*
X600875Y123270D01*
X600507Y123458D01*
X599223Y124391D01*
X598101Y125513D01*
X597168Y126796D01*
X596448Y128210D01*
X595957Y129719D01*
X595900Y130081D01*
X604790Y130081D01*
X604853Y130090D01*
X604918Y130089D01*
X604992Y130110D01*
X605069Y130121D01*
X605128Y130147D01*
X605190Y130164D01*
X605256Y130205D01*
X605326Y130237D01*
X605375Y130279D01*
X605430Y130312D01*
X605481Y130370D01*
X605540Y130420D01*
X605576Y130474D01*
X605619Y130522D01*
X605652Y130591D01*
X605695Y130656D01*
X605714Y130718D01*
X605742Y130775D01*
X605752Y130845D01*
X605777Y130926D01*
X605778Y131011D01*
X605789Y131080D01*
X605789Y132081D01*
X605791Y132081D01*
X605791Y131080D01*
X605800Y131016D01*
X605799Y130952D01*
X605820Y130877D01*
X605831Y130801D01*
X605857Y130742D01*
X605874Y130680D01*
X605915Y130614D01*
X605947Y130544D01*
X605989Y130495D01*
X606022Y130440D01*
X606080Y130388D01*
X606130Y130330D01*
X606184Y130294D01*
X606232Y130251D01*
X606301Y130218D01*
X606366Y130175D01*
X606428Y130156D01*
X606486Y130128D01*
X606555Y130117D01*
X606636Y130093D01*
X606721Y130092D01*
X606790Y130081D01*
X615680Y130081D01*
X615623Y129719D01*
X615132Y128210D01*
X614412Y126796D01*
X613479Y125513D01*
X612357Y124391D01*
X611073Y123458D01*
X610705Y123270D01*
X610666Y123243D01*
X610622Y123223D01*
X610551Y123162D01*
X610474Y123108D01*
X610444Y123071D01*
X610408Y123040D01*
X610356Y122961D01*
X610298Y122888D01*
X610280Y122844D01*
X610253Y122804D01*
X610226Y122714D01*
X610190Y122627D01*
X610185Y122580D01*
X610171Y122534D01*
X610170Y122440D01*
X610160Y122347D01*
X610168Y122300D01*
X610167Y122252D01*
X610192Y122161D01*
X610209Y122069D01*
X610230Y122026D01*
X610243Y121980D01*
X610292Y121900D01*
X610333Y121816D01*
X610366Y121781D01*
X610391Y121740D01*
X610460Y121677D01*
X610524Y121608D01*
X610565Y121583D01*
X610600Y121551D01*
X610684Y121510D01*
X610765Y121462D01*
X610811Y121449D01*
X610854Y121428D01*
X610935Y121416D01*
X611037Y121388D01*
X611103Y121389D01*
X611158Y121381D01*
X627066Y121381D01*
X627152Y121393D01*
X627238Y121396D01*
X627291Y121413D01*
X627345Y121421D01*
X627424Y121456D01*
X627506Y121483D01*
X627552Y121514D01*
X627602Y121537D01*
X627668Y121593D01*
X627739Y121642D01*
X627774Y121684D01*
X627816Y121720D01*
X627864Y121793D01*
X627919Y121860D01*
X627940Y121910D01*
X627971Y121956D01*
X627996Y122039D01*
X628030Y122119D01*
X628037Y122173D01*
X628053Y122226D01*
X628054Y122313D01*
X628065Y122399D01*
X628056Y122453D01*
X628057Y122508D01*
X628034Y122592D01*
X628020Y122677D01*
X627996Y122727D01*
X627982Y122780D01*
X627936Y122853D01*
X627899Y122932D01*
X627862Y122973D01*
X627833Y123020D01*
X627769Y123078D01*
X627711Y123143D01*
X627668Y123169D01*
X627624Y123209D01*
X627522Y123258D01*
X627448Y123303D01*
X625786Y123992D01*
X623102Y126676D01*
X621649Y130182D01*
X621649Y133978D01*
X623102Y137484D01*
X625786Y140168D01*
X629292Y141621D01*
X633088Y141621D01*
X634605Y140992D01*
X634614Y140990D01*
X634622Y140985D01*
X634751Y140955D01*
X634878Y140922D01*
X634887Y140923D01*
X634896Y140920D01*
X635029Y140927D01*
X635160Y140931D01*
X635169Y140934D01*
X635178Y140935D01*
X635303Y140978D01*
X635428Y141019D01*
X635436Y141024D01*
X635445Y141027D01*
X635507Y141073D01*
X635661Y141178D01*
X635676Y141196D01*
X635694Y141209D01*
X640327Y145842D01*
X640384Y145919D01*
X640449Y145990D01*
X640469Y146031D01*
X640496Y146068D01*
X640530Y146158D01*
X640572Y146244D01*
X640578Y146286D01*
X640595Y146332D01*
X640605Y146459D01*
X640619Y146549D01*
X640619Y157850D01*
X640615Y157882D01*
X640617Y157914D01*
X640595Y158021D01*
X640579Y158129D01*
X640566Y158158D01*
X640560Y158190D01*
X640508Y158286D01*
X640463Y158386D01*
X640442Y158410D01*
X640427Y158439D01*
X640351Y158517D01*
X640280Y158600D01*
X640253Y158618D01*
X640230Y158641D01*
X640135Y158695D01*
X640044Y158755D01*
X640013Y158764D01*
X639985Y158780D01*
X639878Y158805D01*
X639774Y158837D01*
X639742Y158838D01*
X639711Y158845D01*
X639601Y158839D01*
X639492Y158841D01*
X639461Y158832D01*
X639429Y158831D01*
X639326Y158795D01*
X639220Y158766D01*
X639193Y158749D01*
X639162Y158738D01*
X639089Y158685D01*
X638980Y158617D01*
X638948Y158581D01*
X638913Y158556D01*
X632596Y152239D01*
X624267Y148789D01*
X615253Y148789D01*
X606924Y152239D01*
X600549Y158614D01*
X597099Y166942D01*
X597099Y175957D01*
X600549Y184286D01*
X606866Y190603D01*
X606886Y190629D01*
X606910Y190650D01*
X606970Y190742D01*
X607036Y190829D01*
X607047Y190859D01*
X607065Y190886D01*
X607097Y190991D01*
X607135Y191093D01*
X607138Y191125D01*
X607147Y191156D01*
X607149Y191265D01*
X607157Y191374D01*
X607150Y191406D01*
X607151Y191438D01*
X607122Y191543D01*
X607099Y191650D01*
X607084Y191679D01*
X607076Y191710D01*
X607018Y191803D01*
X606967Y191899D01*
X606944Y191922D01*
X606927Y191950D01*
X606846Y192023D01*
X606770Y192101D01*
X606742Y192117D01*
X606718Y192139D01*
X606620Y192186D01*
X606525Y192240D01*
X606493Y192248D01*
X606464Y192262D01*
X606375Y192276D01*
X606250Y192305D01*
X606202Y192303D01*
X606160Y192309D01*
X520849Y192309D01*
X520817Y192305D01*
X520785Y192307D01*
X520678Y192285D01*
X520569Y192269D01*
X520540Y192256D01*
X520508Y192250D01*
X520412Y192198D01*
X520312Y192153D01*
X520288Y192132D01*
X520260Y192117D01*
X520181Y192041D01*
X520098Y191970D01*
X520081Y191943D01*
X520057Y191920D01*
X520004Y191825D01*
X519944Y191734D01*
X519934Y191703D01*
X519918Y191675D01*
X519893Y191568D01*
X519861Y191464D01*
X519861Y191432D01*
X519853Y191401D01*
X519859Y191291D01*
X519858Y191182D01*
X519866Y191151D01*
X519868Y191119D01*
X519904Y191016D01*
X519933Y190910D01*
X519950Y190883D01*
X519960Y190852D01*
X520014Y190779D01*
X520081Y190670D01*
X520117Y190638D01*
X520142Y190603D01*
X531591Y179155D01*
X531591Y168959D01*
X531595Y168927D01*
X531593Y168895D01*
X531615Y168788D01*
X531631Y168680D01*
X531644Y168650D01*
X531650Y168619D01*
X531702Y168522D01*
X531747Y168423D01*
X531768Y168398D01*
X531783Y168370D01*
X531859Y168292D01*
X531930Y168208D01*
X531957Y168191D01*
X531980Y168168D01*
X532075Y168114D01*
X532166Y168054D01*
X532197Y168045D01*
X532225Y168029D01*
X532332Y168003D01*
X532436Y167972D01*
X532468Y167971D01*
X532499Y167964D01*
X532609Y167969D01*
X532718Y167968D01*
X532749Y167976D01*
X532781Y167978D01*
X532884Y168014D01*
X532990Y168043D01*
X533017Y168060D01*
X533048Y168071D01*
X533121Y168124D01*
X533230Y168191D01*
X533262Y168227D01*
X533297Y168252D01*
X539193Y174149D01*
X546971Y177371D01*
X555389Y177371D01*
X563167Y174149D01*
X569119Y168197D01*
X572341Y160419D01*
X572341Y152001D01*
X569119Y144223D01*
X563167Y138271D01*
X555389Y135049D01*
X546971Y135049D01*
X539193Y138271D01*
X533297Y144168D01*
X533271Y144187D01*
X533250Y144212D01*
X533158Y144271D01*
X533071Y144337D01*
X533041Y144348D01*
X533014Y144366D01*
X532909Y144398D01*
X532807Y144436D01*
X532775Y144439D01*
X532744Y144448D01*
X532635Y144450D01*
X532526Y144458D01*
X532494Y144452D01*
X532462Y144452D01*
X532357Y144423D01*
X532250Y144401D01*
X532221Y144386D01*
X532190Y144377D01*
X532097Y144319D01*
X532001Y144268D01*
X531978Y144246D01*
X531950Y144229D01*
X531877Y144148D01*
X531799Y144071D01*
X531783Y144043D01*
X531761Y144019D01*
X531714Y143921D01*
X531660Y143826D01*
X531652Y143795D01*
X531638Y143766D01*
X531624Y143676D01*
X531595Y143552D01*
X531597Y143503D01*
X531591Y143461D01*
X531591Y141469D01*
X531604Y141374D01*
X531609Y141278D01*
X531624Y141234D01*
X531631Y141189D01*
X531670Y141102D01*
X531702Y141011D01*
X531727Y140977D01*
X531747Y140933D01*
X531830Y140835D01*
X531883Y140762D01*
X550972Y121673D01*
X551049Y121616D01*
X551120Y121551D01*
X551161Y121531D01*
X551198Y121504D01*
X551288Y121470D01*
X551374Y121428D01*
X551416Y121422D01*
X551462Y121405D01*
X551589Y121395D01*
X551679Y121381D01*
X600422Y121381D01*
X600469Y121387D01*
G37*
%LPC*%
G36*
X925531Y478059D02*
X925531Y478059D01*
X917593Y480186D01*
X910476Y484295D01*
X904665Y490106D01*
X900556Y497223D01*
X898429Y505161D01*
X898429Y513379D01*
X900556Y521317D01*
X904665Y528434D01*
X910476Y534245D01*
X917593Y538354D01*
X925531Y540481D01*
X933749Y540481D01*
X941687Y538354D01*
X948804Y534245D01*
X954615Y528434D01*
X958724Y521317D01*
X960851Y513379D01*
X960851Y505161D01*
X958724Y497223D01*
X954615Y490106D01*
X948804Y484295D01*
X941687Y480186D01*
X933749Y478059D01*
X925531Y478059D01*
G37*
%LPD*%
%LPC*%
G36*
X49231Y478059D02*
X49231Y478059D01*
X41293Y480186D01*
X34176Y484295D01*
X28365Y490106D01*
X24256Y497223D01*
X22129Y505161D01*
X22129Y513379D01*
X24256Y521317D01*
X28365Y528434D01*
X34176Y534245D01*
X41293Y538354D01*
X49231Y540481D01*
X57449Y540481D01*
X65387Y538354D01*
X72504Y534245D01*
X78315Y528434D01*
X82424Y521317D01*
X84551Y513379D01*
X84551Y505161D01*
X82424Y497223D01*
X78315Y490106D01*
X72504Y484295D01*
X65387Y480186D01*
X57449Y478059D01*
X49231Y478059D01*
G37*
%LPD*%
%LPC*%
G36*
X49231Y20859D02*
X49231Y20859D01*
X41293Y22986D01*
X34176Y27095D01*
X28365Y32906D01*
X24256Y40023D01*
X22129Y47961D01*
X22129Y56179D01*
X24256Y64117D01*
X28365Y71234D01*
X34176Y77045D01*
X41293Y81154D01*
X49231Y83281D01*
X57449Y83281D01*
X65387Y81154D01*
X72504Y77045D01*
X78315Y71234D01*
X82424Y64117D01*
X84551Y56179D01*
X84551Y47961D01*
X82424Y40023D01*
X78315Y32906D01*
X72504Y27095D01*
X65387Y22986D01*
X57449Y20859D01*
X49231Y20859D01*
G37*
%LPD*%
%LPC*%
G36*
X925531Y20859D02*
X925531Y20859D01*
X917593Y22986D01*
X910476Y27095D01*
X904665Y32906D01*
X900556Y40023D01*
X898429Y47961D01*
X898429Y56179D01*
X900556Y64117D01*
X904665Y71234D01*
X910476Y77045D01*
X917593Y81154D01*
X925531Y83281D01*
X933749Y83281D01*
X941687Y81154D01*
X948804Y77045D01*
X954615Y71234D01*
X958724Y64117D01*
X960851Y56179D01*
X960851Y47961D01*
X958724Y40023D01*
X954615Y32906D01*
X948804Y27095D01*
X941687Y22986D01*
X933749Y20859D01*
X925531Y20859D01*
G37*
%LPD*%
%LPC*%
G36*
X464585Y295687D02*
X464585Y295687D01*
X460395Y297423D01*
X457189Y300629D01*
X456013Y303468D01*
X456008Y303477D01*
X456005Y303486D01*
X455936Y303598D01*
X455869Y303711D01*
X455862Y303718D01*
X455857Y303726D01*
X455759Y303814D01*
X455663Y303904D01*
X455655Y303908D01*
X455648Y303915D01*
X455529Y303972D01*
X455412Y304032D01*
X455402Y304034D01*
X455394Y304038D01*
X455318Y304050D01*
X455135Y304084D01*
X455111Y304082D01*
X455089Y304085D01*
X442241Y304085D01*
X432609Y313717D01*
X432609Y332353D01*
X432596Y332448D01*
X432591Y332544D01*
X432576Y332587D01*
X432569Y332632D01*
X432530Y332720D01*
X432498Y332811D01*
X432473Y332845D01*
X432453Y332889D01*
X432370Y332987D01*
X432317Y333060D01*
X430850Y334527D01*
X430773Y334584D01*
X430702Y334649D01*
X430661Y334669D01*
X430624Y334696D01*
X430534Y334730D01*
X430448Y334772D01*
X430406Y334778D01*
X430360Y334795D01*
X430233Y334805D01*
X430143Y334819D01*
X415248Y334819D01*
X415239Y334818D01*
X415229Y334819D01*
X415099Y334798D01*
X414969Y334779D01*
X414960Y334776D01*
X414951Y334774D01*
X414831Y334717D01*
X414712Y334663D01*
X414705Y334657D01*
X414696Y334653D01*
X414597Y334565D01*
X414498Y334480D01*
X414492Y334472D01*
X414485Y334466D01*
X414446Y334400D01*
X414343Y334244D01*
X414336Y334221D01*
X414325Y334202D01*
X414056Y333553D01*
X411937Y331434D01*
X409168Y330287D01*
X406172Y330287D01*
X403403Y331434D01*
X401284Y333553D01*
X400137Y336322D01*
X400137Y339318D01*
X401284Y342087D01*
X403403Y344206D01*
X404052Y344475D01*
X404061Y344480D01*
X404070Y344482D01*
X404182Y344552D01*
X404295Y344619D01*
X404302Y344625D01*
X404310Y344630D01*
X404398Y344729D01*
X404488Y344824D01*
X404492Y344833D01*
X404499Y344840D01*
X404556Y344958D01*
X404616Y345076D01*
X404618Y345085D01*
X404622Y345094D01*
X404634Y345169D01*
X404668Y345353D01*
X404666Y345377D01*
X404669Y345398D01*
X404669Y379703D01*
X422157Y397190D01*
X422168Y397205D01*
X422174Y397211D01*
X422189Y397234D01*
X422214Y397267D01*
X422279Y397338D01*
X422299Y397379D01*
X422326Y397416D01*
X422360Y397506D01*
X422402Y397592D01*
X422408Y397634D01*
X422425Y397680D01*
X422435Y397807D01*
X422449Y397897D01*
X422449Y400670D01*
X422440Y400734D01*
X422441Y400798D01*
X422420Y400873D01*
X422409Y400949D01*
X422383Y401008D01*
X422366Y401070D01*
X422325Y401136D01*
X422293Y401206D01*
X422251Y401255D01*
X422218Y401310D01*
X422160Y401362D01*
X422110Y401420D01*
X422056Y401456D01*
X422008Y401499D01*
X421939Y401532D01*
X421874Y401575D01*
X421812Y401594D01*
X421755Y401622D01*
X421685Y401633D01*
X421604Y401657D01*
X421519Y401658D01*
X421450Y401669D01*
X420642Y401669D01*
X415639Y406672D01*
X415639Y413748D01*
X420617Y418725D01*
X420674Y418802D01*
X420739Y418873D01*
X420759Y418914D01*
X420786Y418951D01*
X420820Y419041D01*
X420862Y419127D01*
X420868Y419169D01*
X420885Y419214D01*
X420895Y419342D01*
X420909Y419432D01*
X420909Y423959D01*
X420908Y423969D01*
X420909Y423978D01*
X420888Y424108D01*
X420869Y424238D01*
X420866Y424247D01*
X420864Y424256D01*
X420807Y424376D01*
X420753Y424495D01*
X420747Y424503D01*
X420743Y424511D01*
X420655Y424610D01*
X420570Y424710D01*
X420562Y424715D01*
X420556Y424722D01*
X420490Y424762D01*
X420334Y424864D01*
X420311Y424871D01*
X420292Y424882D01*
X417723Y425947D01*
X414517Y429153D01*
X412781Y433343D01*
X412781Y437877D01*
X414517Y442067D01*
X417723Y445273D01*
X421913Y447009D01*
X426447Y447009D01*
X430637Y445273D01*
X433843Y442067D01*
X435579Y437877D01*
X435579Y433343D01*
X433843Y429153D01*
X430637Y425947D01*
X428068Y424882D01*
X428059Y424878D01*
X428050Y424875D01*
X427938Y424806D01*
X427825Y424739D01*
X427818Y424732D01*
X427810Y424727D01*
X427722Y424629D01*
X427632Y424533D01*
X427628Y424525D01*
X427621Y424518D01*
X427564Y424399D01*
X427504Y424282D01*
X427502Y424272D01*
X427498Y424264D01*
X427486Y424188D01*
X427452Y424005D01*
X427454Y423981D01*
X427451Y423959D01*
X427451Y419432D01*
X427464Y419337D01*
X427469Y419240D01*
X427484Y419197D01*
X427491Y419152D01*
X427530Y419065D01*
X427562Y418974D01*
X427587Y418940D01*
X427607Y418895D01*
X427690Y418798D01*
X427743Y418725D01*
X432721Y413748D01*
X432721Y406672D01*
X428743Y402695D01*
X428686Y402618D01*
X428621Y402547D01*
X428601Y402506D01*
X428574Y402469D01*
X428540Y402379D01*
X428498Y402293D01*
X428492Y402251D01*
X428475Y402206D01*
X428465Y402078D01*
X428451Y401988D01*
X428451Y394997D01*
X410963Y377510D01*
X410906Y377433D01*
X410841Y377362D01*
X410821Y377321D01*
X410794Y377284D01*
X410760Y377194D01*
X410718Y377108D01*
X410712Y377066D01*
X410695Y377020D01*
X410685Y376893D01*
X410671Y376803D01*
X410671Y345398D01*
X410672Y345389D01*
X410671Y345379D01*
X410692Y345249D01*
X410711Y345119D01*
X410714Y345110D01*
X410716Y345101D01*
X410773Y344981D01*
X410827Y344862D01*
X410833Y344855D01*
X410837Y344846D01*
X410925Y344747D01*
X411010Y344648D01*
X411018Y344642D01*
X411024Y344635D01*
X411090Y344595D01*
X411246Y344493D01*
X411269Y344486D01*
X411288Y344475D01*
X411937Y344206D01*
X414056Y342087D01*
X414325Y341438D01*
X414330Y341429D01*
X414332Y341420D01*
X414402Y341308D01*
X414469Y341195D01*
X414475Y341188D01*
X414480Y341180D01*
X414579Y341092D01*
X414674Y341002D01*
X414683Y340998D01*
X414690Y340991D01*
X414808Y340934D01*
X414926Y340874D01*
X414935Y340872D01*
X414944Y340868D01*
X415019Y340856D01*
X415203Y340822D01*
X415227Y340824D01*
X415248Y340821D01*
X433043Y340821D01*
X435093Y338770D01*
X436560Y337303D01*
X438611Y335253D01*
X438611Y316617D01*
X438624Y316522D01*
X438629Y316426D01*
X438644Y316383D01*
X438651Y316338D01*
X438690Y316250D01*
X438722Y316159D01*
X438747Y316125D01*
X438767Y316081D01*
X438850Y315983D01*
X438903Y315910D01*
X444434Y310379D01*
X444511Y310322D01*
X444582Y310257D01*
X444623Y310237D01*
X444660Y310210D01*
X444750Y310176D01*
X444836Y310134D01*
X444878Y310128D01*
X444924Y310111D01*
X445051Y310101D01*
X445141Y310087D01*
X455089Y310087D01*
X455099Y310088D01*
X455108Y310087D01*
X455238Y310108D01*
X455369Y310127D01*
X455377Y310130D01*
X455387Y310132D01*
X455506Y310189D01*
X455626Y310243D01*
X455633Y310249D01*
X455641Y310253D01*
X455740Y310341D01*
X455840Y310426D01*
X455845Y310434D01*
X455852Y310440D01*
X455892Y310506D01*
X455994Y310662D01*
X456001Y310685D01*
X456013Y310704D01*
X457189Y313543D01*
X460395Y316749D01*
X464585Y318485D01*
X469119Y318485D01*
X473309Y316749D01*
X476515Y313543D01*
X478251Y309353D01*
X478251Y304819D01*
X476515Y300629D01*
X473309Y297423D01*
X469119Y295687D01*
X464585Y295687D01*
G37*
%LPD*%
%LPC*%
G36*
X616523Y371039D02*
X616523Y371039D01*
X608194Y374489D01*
X601819Y380864D01*
X598369Y389192D01*
X598369Y398207D01*
X601819Y406536D01*
X608194Y412911D01*
X616523Y416361D01*
X625537Y416361D01*
X633866Y412911D01*
X640241Y406536D01*
X643691Y398207D01*
X643691Y389192D01*
X640241Y380864D01*
X633866Y374489D01*
X625537Y371039D01*
X616523Y371039D01*
G37*
%LPD*%
%LPC*%
G36*
X277029Y181157D02*
X277029Y181157D01*
X276045Y181565D01*
X276009Y181574D01*
X275981Y181592D01*
X274996Y182000D01*
X273440Y183556D01*
X273032Y184541D01*
X273013Y184572D01*
X273005Y184605D01*
X272597Y185589D01*
X272597Y187791D01*
X273005Y188775D01*
X273016Y188816D01*
X273034Y188853D01*
X273047Y188938D01*
X273075Y189049D01*
X273073Y189107D01*
X273081Y189158D01*
X273081Y189659D01*
X273072Y189723D01*
X273073Y189787D01*
X273052Y189862D01*
X273041Y189938D01*
X273015Y189997D01*
X272998Y190059D01*
X272957Y190125D01*
X272925Y190195D01*
X272883Y190244D01*
X272850Y190299D01*
X272792Y190351D01*
X272742Y190409D01*
X272688Y190445D01*
X272640Y190488D01*
X272571Y190521D01*
X272506Y190564D01*
X272444Y190583D01*
X272387Y190611D01*
X272317Y190622D01*
X272236Y190646D01*
X272151Y190647D01*
X272082Y190658D01*
X271414Y190658D01*
X271369Y190692D01*
X271299Y190718D01*
X271233Y190754D01*
X271168Y190768D01*
X271105Y190792D01*
X271031Y190797D01*
X270957Y190813D01*
X270891Y190808D01*
X270824Y190813D01*
X270751Y190798D01*
X270676Y190793D01*
X270619Y190771D01*
X270548Y190756D01*
X270462Y190710D01*
X270389Y190682D01*
X269713Y190291D01*
X269067Y190118D01*
X264889Y190118D01*
X264889Y199660D01*
X264880Y199724D01*
X264881Y199788D01*
X264860Y199862D01*
X264849Y199939D01*
X264823Y199998D01*
X264806Y200060D01*
X264765Y200126D01*
X264733Y200196D01*
X264691Y200245D01*
X264658Y200300D01*
X264600Y200351D01*
X264550Y200410D01*
X264496Y200446D01*
X264448Y200489D01*
X264379Y200522D01*
X264314Y200565D01*
X264252Y200584D01*
X264195Y200612D01*
X264125Y200622D01*
X264044Y200647D01*
X263959Y200648D01*
X263890Y200659D01*
X262889Y200659D01*
X262889Y200661D01*
X263890Y200661D01*
X263954Y200670D01*
X264018Y200669D01*
X264093Y200690D01*
X264169Y200701D01*
X264228Y200727D01*
X264290Y200744D01*
X264356Y200785D01*
X264426Y200817D01*
X264475Y200859D01*
X264530Y200892D01*
X264582Y200950D01*
X264640Y201000D01*
X264676Y201054D01*
X264719Y201102D01*
X264752Y201171D01*
X264795Y201236D01*
X264814Y201298D01*
X264842Y201356D01*
X264852Y201425D01*
X264877Y201506D01*
X264878Y201591D01*
X264889Y201660D01*
X264889Y211202D01*
X269067Y211202D01*
X269713Y211029D01*
X270389Y210638D01*
X270458Y210610D01*
X270523Y210574D01*
X270588Y210558D01*
X270650Y210533D01*
X270725Y210526D01*
X270798Y210509D01*
X270864Y210512D01*
X270931Y210505D01*
X271005Y210519D01*
X271079Y210523D01*
X271143Y210545D01*
X271208Y210557D01*
X271275Y210591D01*
X271346Y210615D01*
X271395Y210652D01*
X271415Y210662D01*
X272082Y210662D01*
X272146Y210671D01*
X272210Y210670D01*
X272285Y210691D01*
X272361Y210702D01*
X272420Y210728D01*
X272482Y210745D01*
X272548Y210786D01*
X272618Y210818D01*
X272667Y210860D01*
X272722Y210893D01*
X272774Y210951D01*
X272832Y211001D01*
X272868Y211055D01*
X272911Y211103D01*
X272944Y211172D01*
X272987Y211237D01*
X273006Y211299D01*
X273034Y211356D01*
X273045Y211426D01*
X273069Y211507D01*
X273070Y211592D01*
X273081Y211661D01*
X273081Y257361D01*
X290009Y274289D01*
X296976Y274289D01*
X296985Y274290D01*
X296994Y274289D01*
X297125Y274310D01*
X297255Y274329D01*
X297263Y274332D01*
X297273Y274334D01*
X297393Y274391D01*
X297512Y274445D01*
X297519Y274451D01*
X297528Y274455D01*
X297626Y274543D01*
X297726Y274628D01*
X297731Y274636D01*
X297738Y274642D01*
X297778Y274708D01*
X297880Y274864D01*
X297887Y274887D01*
X297899Y274906D01*
X298107Y275409D01*
X301171Y278473D01*
X305174Y280131D01*
X309506Y280131D01*
X313509Y278473D01*
X316573Y275409D01*
X318231Y271406D01*
X318231Y267074D01*
X316573Y263071D01*
X313509Y260007D01*
X309506Y258349D01*
X305174Y258349D01*
X301171Y260007D01*
X298107Y263071D01*
X297899Y263574D01*
X297894Y263583D01*
X297891Y263592D01*
X297822Y263704D01*
X297755Y263817D01*
X297748Y263824D01*
X297743Y263832D01*
X297646Y263920D01*
X297549Y264010D01*
X297541Y264014D01*
X297534Y264021D01*
X297415Y264078D01*
X297298Y264138D01*
X297289Y264140D01*
X297280Y264144D01*
X297204Y264156D01*
X297021Y264190D01*
X296997Y264188D01*
X296976Y264191D01*
X294605Y264191D01*
X294510Y264178D01*
X294414Y264173D01*
X294371Y264158D01*
X294326Y264151D01*
X294238Y264112D01*
X294148Y264080D01*
X294113Y264055D01*
X294069Y264035D01*
X293972Y263952D01*
X293899Y263899D01*
X283471Y253471D01*
X283414Y253395D01*
X283349Y253323D01*
X283329Y253282D01*
X283302Y253246D01*
X283268Y253156D01*
X283226Y253069D01*
X283220Y253027D01*
X283203Y252982D01*
X283193Y252854D01*
X283179Y252765D01*
X283179Y211661D01*
X283188Y211597D01*
X283187Y211533D01*
X283208Y211458D01*
X283219Y211382D01*
X283245Y211323D01*
X283262Y211261D01*
X283303Y211195D01*
X283335Y211125D01*
X283377Y211076D01*
X283410Y211021D01*
X283468Y210969D01*
X283518Y210911D01*
X283572Y210875D01*
X283620Y210832D01*
X283689Y210799D01*
X283754Y210756D01*
X283816Y210737D01*
X283873Y210709D01*
X283943Y210698D01*
X284024Y210674D01*
X284109Y210673D01*
X284178Y210662D01*
X284801Y210662D01*
X285973Y209490D01*
X285973Y191830D01*
X284801Y190658D01*
X284178Y190658D01*
X284114Y190649D01*
X284050Y190650D01*
X283975Y190629D01*
X283899Y190618D01*
X283840Y190592D01*
X283778Y190575D01*
X283712Y190534D01*
X283642Y190502D01*
X283593Y190460D01*
X283538Y190427D01*
X283486Y190369D01*
X283428Y190319D01*
X283392Y190265D01*
X283349Y190217D01*
X283316Y190148D01*
X283273Y190083D01*
X283254Y190021D01*
X283226Y189964D01*
X283215Y189894D01*
X283191Y189813D01*
X283190Y189728D01*
X283179Y189659D01*
X283179Y189158D01*
X283185Y189117D01*
X283182Y189075D01*
X283202Y188991D01*
X283219Y188879D01*
X283243Y188825D01*
X283255Y188775D01*
X283663Y187791D01*
X283663Y185589D01*
X283255Y184605D01*
X283246Y184569D01*
X283228Y184541D01*
X282820Y183556D01*
X281264Y182000D01*
X280279Y181592D01*
X280248Y181573D01*
X280215Y181565D01*
X279231Y181157D01*
X277029Y181157D01*
G37*
%LPD*%
%LPC*%
G36*
X546971Y389049D02*
X546971Y389049D01*
X539193Y392271D01*
X533241Y398223D01*
X530019Y406001D01*
X530019Y414419D01*
X533241Y422197D01*
X539193Y428149D01*
X546971Y431371D01*
X555389Y431371D01*
X563167Y428149D01*
X569119Y422197D01*
X572341Y414419D01*
X572341Y406001D01*
X569119Y398223D01*
X563167Y392271D01*
X555389Y389049D01*
X546971Y389049D01*
G37*
%LPD*%
%LPC*%
G36*
X684671Y393319D02*
X684671Y393319D01*
X684496Y393495D01*
X684419Y393552D01*
X684348Y393617D01*
X684307Y393637D01*
X684270Y393664D01*
X684180Y393698D01*
X684094Y393740D01*
X684052Y393746D01*
X684006Y393763D01*
X683879Y393773D01*
X683789Y393787D01*
X681762Y393787D01*
X678993Y394934D01*
X678964Y394963D01*
X678888Y395020D01*
X678816Y395085D01*
X678775Y395105D01*
X678739Y395132D01*
X678649Y395166D01*
X678563Y395208D01*
X678520Y395214D01*
X678475Y395231D01*
X678347Y395241D01*
X678258Y395255D01*
X673164Y395255D01*
X670935Y396179D01*
X651449Y415665D01*
X650525Y417894D01*
X650525Y429038D01*
X650512Y429133D01*
X650507Y429229D01*
X650492Y429272D01*
X650485Y429317D01*
X650446Y429405D01*
X650414Y429496D01*
X650389Y429530D01*
X650369Y429574D01*
X650286Y429672D01*
X650233Y429745D01*
X648502Y431476D01*
X647049Y434982D01*
X647049Y438778D01*
X648502Y442284D01*
X651186Y444968D01*
X654692Y446421D01*
X658488Y446421D01*
X661994Y444968D01*
X664678Y442284D01*
X666131Y438778D01*
X666131Y434982D01*
X664678Y431476D01*
X662947Y429745D01*
X662890Y429668D01*
X662825Y429597D01*
X662805Y429556D01*
X662778Y429519D01*
X662744Y429429D01*
X662702Y429343D01*
X662696Y429301D01*
X662679Y429255D01*
X662669Y429128D01*
X662655Y429038D01*
X662655Y422026D01*
X662668Y421931D01*
X662673Y421835D01*
X662688Y421792D01*
X662695Y421747D01*
X662734Y421659D01*
X662766Y421568D01*
X662791Y421534D01*
X662811Y421490D01*
X662894Y421392D01*
X662947Y421319D01*
X676589Y407677D01*
X676666Y407620D01*
X676738Y407555D01*
X676779Y407535D01*
X676815Y407508D01*
X676905Y407474D01*
X676991Y407432D01*
X677033Y407426D01*
X677079Y407409D01*
X677206Y407399D01*
X677296Y407385D01*
X678258Y407385D01*
X678353Y407398D01*
X678449Y407403D01*
X678492Y407418D01*
X678537Y407425D01*
X678625Y407464D01*
X678716Y407496D01*
X678750Y407521D01*
X678794Y407541D01*
X678891Y407624D01*
X678964Y407677D01*
X678993Y407706D01*
X681762Y408853D01*
X683789Y408853D01*
X683884Y408866D01*
X683981Y408871D01*
X684024Y408886D01*
X684069Y408893D01*
X684156Y408932D01*
X684247Y408964D01*
X684281Y408989D01*
X684326Y409009D01*
X684423Y409092D01*
X684496Y409145D01*
X684671Y409321D01*
X694329Y409321D01*
X695501Y408149D01*
X695501Y402880D01*
X695507Y402838D01*
X695504Y402797D01*
X695515Y402754D01*
X695514Y402739D01*
X695528Y402691D01*
X695541Y402600D01*
X695565Y402547D01*
X695565Y400099D01*
X695548Y400065D01*
X695535Y399980D01*
X695507Y399870D01*
X695509Y399811D01*
X695501Y399760D01*
X695501Y394491D01*
X694329Y393319D01*
X684671Y393319D01*
G37*
%LPD*%
%LPC*%
G36*
X90442Y401669D02*
X90442Y401669D01*
X85439Y406672D01*
X85439Y413748D01*
X90417Y418725D01*
X90474Y418802D01*
X90539Y418873D01*
X90559Y418914D01*
X90586Y418951D01*
X90620Y419041D01*
X90662Y419127D01*
X90668Y419169D01*
X90685Y419214D01*
X90695Y419342D01*
X90709Y419432D01*
X90709Y423959D01*
X90708Y423969D01*
X90709Y423978D01*
X90688Y424108D01*
X90669Y424238D01*
X90666Y424247D01*
X90664Y424256D01*
X90607Y424376D01*
X90553Y424495D01*
X90547Y424503D01*
X90543Y424511D01*
X90455Y424610D01*
X90370Y424710D01*
X90362Y424715D01*
X90356Y424722D01*
X90290Y424762D01*
X90134Y424864D01*
X90111Y424871D01*
X90092Y424882D01*
X87523Y425947D01*
X84317Y429153D01*
X82581Y433343D01*
X82581Y437877D01*
X84317Y442067D01*
X87523Y445273D01*
X91713Y447009D01*
X96247Y447009D01*
X100437Y445273D01*
X103643Y442067D01*
X105379Y437877D01*
X105379Y433343D01*
X103643Y429153D01*
X100437Y425947D01*
X97868Y424882D01*
X97859Y424878D01*
X97850Y424875D01*
X97738Y424806D01*
X97625Y424739D01*
X97618Y424732D01*
X97610Y424727D01*
X97522Y424629D01*
X97432Y424533D01*
X97428Y424525D01*
X97421Y424518D01*
X97364Y424399D01*
X97304Y424282D01*
X97302Y424272D01*
X97298Y424264D01*
X97286Y424188D01*
X97252Y424005D01*
X97254Y423981D01*
X97251Y423959D01*
X97251Y419432D01*
X97264Y419337D01*
X97269Y419240D01*
X97284Y419197D01*
X97291Y419152D01*
X97330Y419065D01*
X97362Y418974D01*
X97387Y418940D01*
X97407Y418895D01*
X97490Y418798D01*
X97543Y418725D01*
X102521Y413748D01*
X102521Y406672D01*
X97518Y401669D01*
X90442Y401669D01*
G37*
%LPD*%
%LPC*%
G36*
X65042Y401669D02*
X65042Y401669D01*
X60039Y406672D01*
X60039Y413748D01*
X65017Y418725D01*
X65074Y418802D01*
X65139Y418873D01*
X65159Y418914D01*
X65186Y418951D01*
X65220Y419041D01*
X65262Y419127D01*
X65268Y419169D01*
X65285Y419214D01*
X65295Y419342D01*
X65309Y419432D01*
X65309Y423959D01*
X65308Y423969D01*
X65309Y423978D01*
X65288Y424108D01*
X65269Y424238D01*
X65266Y424247D01*
X65264Y424256D01*
X65207Y424376D01*
X65153Y424495D01*
X65147Y424503D01*
X65143Y424511D01*
X65055Y424610D01*
X64970Y424710D01*
X64962Y424715D01*
X64956Y424722D01*
X64890Y424762D01*
X64734Y424864D01*
X64711Y424871D01*
X64692Y424882D01*
X62123Y425947D01*
X58917Y429153D01*
X57181Y433343D01*
X57181Y437877D01*
X58917Y442067D01*
X62123Y445273D01*
X66313Y447009D01*
X70847Y447009D01*
X75037Y445273D01*
X78243Y442067D01*
X79979Y437877D01*
X79979Y433343D01*
X78243Y429153D01*
X75037Y425947D01*
X72468Y424882D01*
X72459Y424878D01*
X72450Y424875D01*
X72338Y424806D01*
X72225Y424739D01*
X72218Y424732D01*
X72210Y424727D01*
X72122Y424629D01*
X72032Y424533D01*
X72028Y424525D01*
X72021Y424518D01*
X71964Y424399D01*
X71904Y424282D01*
X71902Y424272D01*
X71898Y424264D01*
X71886Y424188D01*
X71852Y424005D01*
X71854Y423981D01*
X71851Y423959D01*
X71851Y419432D01*
X71864Y419337D01*
X71869Y419240D01*
X71884Y419197D01*
X71891Y419152D01*
X71930Y419065D01*
X71962Y418974D01*
X71987Y418940D01*
X72007Y418895D01*
X72090Y418798D01*
X72143Y418725D01*
X77121Y413748D01*
X77121Y406672D01*
X72118Y401669D01*
X65042Y401669D01*
G37*
%LPD*%
%LPC*%
G36*
X293642Y401669D02*
X293642Y401669D01*
X288639Y406672D01*
X288639Y413748D01*
X293617Y418725D01*
X293674Y418802D01*
X293739Y418873D01*
X293759Y418914D01*
X293786Y418951D01*
X293820Y419041D01*
X293862Y419127D01*
X293868Y419169D01*
X293885Y419214D01*
X293895Y419342D01*
X293909Y419432D01*
X293909Y423959D01*
X293908Y423969D01*
X293909Y423978D01*
X293888Y424108D01*
X293869Y424238D01*
X293866Y424247D01*
X293864Y424256D01*
X293807Y424376D01*
X293753Y424495D01*
X293747Y424503D01*
X293743Y424511D01*
X293655Y424610D01*
X293570Y424710D01*
X293562Y424715D01*
X293556Y424722D01*
X293490Y424762D01*
X293334Y424864D01*
X293311Y424871D01*
X293292Y424882D01*
X290723Y425947D01*
X287517Y429153D01*
X285781Y433343D01*
X285781Y437877D01*
X287517Y442067D01*
X290723Y445273D01*
X294913Y447009D01*
X299447Y447009D01*
X303637Y445273D01*
X306843Y442067D01*
X308579Y437877D01*
X308579Y433343D01*
X306843Y429153D01*
X303637Y425947D01*
X301068Y424882D01*
X301059Y424878D01*
X301050Y424875D01*
X300938Y424806D01*
X300825Y424739D01*
X300818Y424732D01*
X300810Y424727D01*
X300722Y424629D01*
X300632Y424533D01*
X300628Y424525D01*
X300621Y424518D01*
X300564Y424399D01*
X300504Y424282D01*
X300502Y424272D01*
X300498Y424264D01*
X300486Y424188D01*
X300452Y424005D01*
X300454Y423981D01*
X300451Y423959D01*
X300451Y419432D01*
X300464Y419337D01*
X300469Y419240D01*
X300484Y419197D01*
X300491Y419152D01*
X300530Y419065D01*
X300562Y418974D01*
X300587Y418940D01*
X300607Y418895D01*
X300690Y418798D01*
X300743Y418725D01*
X305721Y413748D01*
X305721Y406672D01*
X300718Y401669D01*
X293642Y401669D01*
G37*
%LPD*%
%LPC*%
G36*
X268242Y401669D02*
X268242Y401669D01*
X263239Y406672D01*
X263239Y413748D01*
X268217Y418725D01*
X268274Y418802D01*
X268339Y418873D01*
X268359Y418914D01*
X268386Y418951D01*
X268420Y419041D01*
X268462Y419127D01*
X268468Y419169D01*
X268485Y419214D01*
X268495Y419342D01*
X268509Y419432D01*
X268509Y423959D01*
X268508Y423969D01*
X268509Y423978D01*
X268488Y424108D01*
X268469Y424238D01*
X268466Y424247D01*
X268464Y424256D01*
X268407Y424376D01*
X268353Y424495D01*
X268347Y424503D01*
X268343Y424511D01*
X268255Y424610D01*
X268170Y424710D01*
X268162Y424715D01*
X268156Y424722D01*
X268090Y424762D01*
X267934Y424864D01*
X267911Y424871D01*
X267892Y424882D01*
X265323Y425947D01*
X262117Y429153D01*
X260381Y433343D01*
X260381Y437877D01*
X262117Y442067D01*
X265323Y445273D01*
X269513Y447009D01*
X274047Y447009D01*
X278237Y445273D01*
X281443Y442067D01*
X283179Y437877D01*
X283179Y433343D01*
X281443Y429153D01*
X278237Y425947D01*
X275668Y424882D01*
X275659Y424878D01*
X275650Y424875D01*
X275538Y424806D01*
X275425Y424739D01*
X275418Y424732D01*
X275410Y424727D01*
X275322Y424629D01*
X275232Y424533D01*
X275228Y424525D01*
X275221Y424518D01*
X275164Y424399D01*
X275104Y424282D01*
X275102Y424272D01*
X275098Y424264D01*
X275086Y424188D01*
X275052Y424005D01*
X275054Y423981D01*
X275051Y423959D01*
X275051Y419432D01*
X275064Y419337D01*
X275069Y419240D01*
X275084Y419197D01*
X275091Y419152D01*
X275130Y419065D01*
X275162Y418974D01*
X275187Y418940D01*
X275207Y418895D01*
X275290Y418798D01*
X275343Y418725D01*
X280321Y413748D01*
X280321Y406672D01*
X275318Y401669D01*
X268242Y401669D01*
G37*
%LPD*%
%LPC*%
G36*
X192042Y401669D02*
X192042Y401669D01*
X187039Y406672D01*
X187039Y413748D01*
X192017Y418725D01*
X192074Y418802D01*
X192139Y418873D01*
X192159Y418914D01*
X192186Y418951D01*
X192220Y419041D01*
X192262Y419127D01*
X192268Y419169D01*
X192285Y419214D01*
X192295Y419342D01*
X192309Y419432D01*
X192309Y423959D01*
X192308Y423969D01*
X192309Y423978D01*
X192288Y424108D01*
X192269Y424238D01*
X192266Y424247D01*
X192264Y424256D01*
X192207Y424376D01*
X192153Y424495D01*
X192147Y424503D01*
X192143Y424511D01*
X192055Y424610D01*
X191970Y424710D01*
X191962Y424715D01*
X191956Y424722D01*
X191890Y424762D01*
X191734Y424864D01*
X191711Y424871D01*
X191692Y424882D01*
X189123Y425947D01*
X185917Y429153D01*
X184181Y433343D01*
X184181Y437877D01*
X185917Y442067D01*
X189123Y445273D01*
X193313Y447009D01*
X197847Y447009D01*
X202037Y445273D01*
X205243Y442067D01*
X206979Y437877D01*
X206979Y433343D01*
X205243Y429153D01*
X202037Y425947D01*
X199468Y424882D01*
X199459Y424878D01*
X199450Y424875D01*
X199338Y424806D01*
X199225Y424739D01*
X199218Y424732D01*
X199210Y424727D01*
X199122Y424629D01*
X199032Y424533D01*
X199028Y424525D01*
X199021Y424518D01*
X198964Y424399D01*
X198904Y424282D01*
X198902Y424272D01*
X198898Y424264D01*
X198886Y424188D01*
X198852Y424005D01*
X198854Y423981D01*
X198851Y423959D01*
X198851Y419432D01*
X198864Y419337D01*
X198869Y419240D01*
X198884Y419197D01*
X198891Y419152D01*
X198930Y419065D01*
X198962Y418974D01*
X198987Y418940D01*
X199007Y418895D01*
X199090Y418798D01*
X199143Y418725D01*
X204121Y413748D01*
X204121Y406672D01*
X199118Y401669D01*
X192042Y401669D01*
G37*
%LPD*%
%LPC*%
G36*
X115842Y401669D02*
X115842Y401669D01*
X110839Y406672D01*
X110839Y413748D01*
X115817Y418725D01*
X115874Y418802D01*
X115939Y418873D01*
X115959Y418914D01*
X115986Y418951D01*
X116020Y419041D01*
X116062Y419127D01*
X116068Y419169D01*
X116085Y419214D01*
X116095Y419342D01*
X116109Y419432D01*
X116109Y423959D01*
X116108Y423969D01*
X116109Y423978D01*
X116088Y424108D01*
X116069Y424238D01*
X116066Y424247D01*
X116064Y424256D01*
X116007Y424376D01*
X115953Y424495D01*
X115947Y424503D01*
X115943Y424511D01*
X115855Y424610D01*
X115770Y424710D01*
X115762Y424715D01*
X115756Y424722D01*
X115690Y424762D01*
X115534Y424864D01*
X115511Y424871D01*
X115492Y424882D01*
X112923Y425947D01*
X109717Y429153D01*
X107981Y433343D01*
X107981Y437877D01*
X109717Y442067D01*
X112923Y445273D01*
X117113Y447009D01*
X121647Y447009D01*
X125837Y445273D01*
X129043Y442067D01*
X130779Y437877D01*
X130779Y433343D01*
X129043Y429153D01*
X125837Y425947D01*
X123268Y424882D01*
X123259Y424878D01*
X123250Y424875D01*
X123138Y424806D01*
X123025Y424739D01*
X123018Y424732D01*
X123010Y424727D01*
X122922Y424629D01*
X122832Y424533D01*
X122828Y424525D01*
X122821Y424518D01*
X122764Y424399D01*
X122704Y424282D01*
X122702Y424272D01*
X122698Y424264D01*
X122686Y424188D01*
X122652Y424005D01*
X122654Y423981D01*
X122651Y423959D01*
X122651Y419432D01*
X122664Y419337D01*
X122669Y419240D01*
X122684Y419197D01*
X122691Y419152D01*
X122730Y419065D01*
X122762Y418974D01*
X122787Y418940D01*
X122807Y418895D01*
X122890Y418798D01*
X122943Y418725D01*
X127921Y413748D01*
X127921Y406672D01*
X122918Y401669D01*
X115842Y401669D01*
G37*
%LPD*%
%LPC*%
G36*
X395242Y401669D02*
X395242Y401669D01*
X390239Y406672D01*
X390239Y413748D01*
X395217Y418725D01*
X395274Y418802D01*
X395339Y418873D01*
X395359Y418914D01*
X395386Y418951D01*
X395420Y419041D01*
X395462Y419127D01*
X395468Y419169D01*
X395485Y419214D01*
X395495Y419342D01*
X395509Y419432D01*
X395509Y423959D01*
X395508Y423969D01*
X395509Y423978D01*
X395488Y424108D01*
X395469Y424238D01*
X395466Y424247D01*
X395464Y424256D01*
X395407Y424376D01*
X395353Y424495D01*
X395347Y424503D01*
X395343Y424511D01*
X395255Y424610D01*
X395170Y424710D01*
X395162Y424715D01*
X395156Y424722D01*
X395090Y424762D01*
X394934Y424864D01*
X394911Y424871D01*
X394892Y424882D01*
X392323Y425947D01*
X389117Y429153D01*
X387381Y433343D01*
X387381Y437877D01*
X389117Y442067D01*
X392323Y445273D01*
X396513Y447009D01*
X401047Y447009D01*
X405237Y445273D01*
X408443Y442067D01*
X410179Y437877D01*
X410179Y433343D01*
X408443Y429153D01*
X405237Y425947D01*
X402668Y424882D01*
X402659Y424878D01*
X402650Y424875D01*
X402538Y424806D01*
X402425Y424739D01*
X402418Y424732D01*
X402410Y424727D01*
X402322Y424629D01*
X402232Y424533D01*
X402228Y424525D01*
X402221Y424518D01*
X402164Y424399D01*
X402104Y424282D01*
X402102Y424272D01*
X402098Y424264D01*
X402086Y424188D01*
X402052Y424005D01*
X402054Y423981D01*
X402051Y423959D01*
X402051Y419432D01*
X402064Y419337D01*
X402069Y419240D01*
X402084Y419197D01*
X402091Y419152D01*
X402130Y419065D01*
X402162Y418974D01*
X402187Y418940D01*
X402207Y418895D01*
X402290Y418798D01*
X402343Y418725D01*
X407321Y413748D01*
X407321Y406672D01*
X402318Y401669D01*
X395242Y401669D01*
G37*
%LPD*%
%LPC*%
G36*
X446042Y401669D02*
X446042Y401669D01*
X441039Y406672D01*
X441039Y413748D01*
X446017Y418725D01*
X446074Y418802D01*
X446139Y418873D01*
X446159Y418914D01*
X446186Y418951D01*
X446220Y419041D01*
X446262Y419127D01*
X446268Y419169D01*
X446285Y419214D01*
X446295Y419342D01*
X446309Y419432D01*
X446309Y423959D01*
X446308Y423969D01*
X446309Y423978D01*
X446288Y424108D01*
X446269Y424238D01*
X446266Y424247D01*
X446264Y424256D01*
X446207Y424376D01*
X446153Y424495D01*
X446147Y424503D01*
X446143Y424511D01*
X446055Y424610D01*
X445970Y424710D01*
X445962Y424715D01*
X445956Y424722D01*
X445890Y424762D01*
X445734Y424864D01*
X445711Y424871D01*
X445692Y424882D01*
X443123Y425947D01*
X439917Y429153D01*
X438181Y433343D01*
X438181Y437877D01*
X439917Y442067D01*
X443123Y445273D01*
X447313Y447009D01*
X451847Y447009D01*
X456037Y445273D01*
X459243Y442067D01*
X460979Y437877D01*
X460979Y433343D01*
X459243Y429153D01*
X456037Y425947D01*
X453468Y424882D01*
X453459Y424878D01*
X453450Y424875D01*
X453338Y424806D01*
X453225Y424739D01*
X453218Y424732D01*
X453210Y424727D01*
X453122Y424629D01*
X453032Y424533D01*
X453028Y424525D01*
X453021Y424518D01*
X452964Y424399D01*
X452904Y424282D01*
X452902Y424272D01*
X452898Y424264D01*
X452886Y424188D01*
X452852Y424005D01*
X452854Y423981D01*
X452851Y423959D01*
X452851Y419432D01*
X452864Y419337D01*
X452869Y419240D01*
X452884Y419197D01*
X452891Y419152D01*
X452930Y419065D01*
X452962Y418974D01*
X452987Y418940D01*
X453007Y418895D01*
X453090Y418798D01*
X453143Y418725D01*
X458121Y413748D01*
X458121Y406672D01*
X453118Y401669D01*
X446042Y401669D01*
G37*
%LPD*%
%LPC*%
G36*
X369842Y401669D02*
X369842Y401669D01*
X364839Y406672D01*
X364839Y413748D01*
X369817Y418725D01*
X369874Y418802D01*
X369939Y418873D01*
X369959Y418914D01*
X369986Y418951D01*
X370020Y419041D01*
X370062Y419127D01*
X370068Y419169D01*
X370085Y419214D01*
X370095Y419342D01*
X370109Y419432D01*
X370109Y423959D01*
X370108Y423969D01*
X370109Y423978D01*
X370088Y424108D01*
X370069Y424238D01*
X370066Y424247D01*
X370064Y424256D01*
X370007Y424376D01*
X369953Y424495D01*
X369947Y424503D01*
X369943Y424511D01*
X369855Y424610D01*
X369770Y424710D01*
X369762Y424715D01*
X369756Y424722D01*
X369690Y424762D01*
X369534Y424864D01*
X369511Y424871D01*
X369492Y424882D01*
X366923Y425947D01*
X363717Y429153D01*
X361981Y433343D01*
X361981Y437877D01*
X363717Y442067D01*
X366923Y445273D01*
X371113Y447009D01*
X375647Y447009D01*
X379837Y445273D01*
X383043Y442067D01*
X384779Y437877D01*
X384779Y433343D01*
X383043Y429153D01*
X379837Y425947D01*
X377268Y424882D01*
X377259Y424878D01*
X377250Y424875D01*
X377138Y424806D01*
X377025Y424739D01*
X377018Y424732D01*
X377010Y424727D01*
X376922Y424629D01*
X376832Y424533D01*
X376828Y424525D01*
X376821Y424518D01*
X376764Y424399D01*
X376704Y424282D01*
X376702Y424272D01*
X376698Y424264D01*
X376686Y424188D01*
X376652Y424005D01*
X376654Y423981D01*
X376651Y423959D01*
X376651Y419432D01*
X376664Y419337D01*
X376669Y419240D01*
X376684Y419197D01*
X376691Y419152D01*
X376730Y419065D01*
X376762Y418974D01*
X376787Y418940D01*
X376807Y418895D01*
X376890Y418798D01*
X376943Y418725D01*
X381921Y413748D01*
X381921Y406672D01*
X376918Y401669D01*
X369842Y401669D01*
G37*
%LPD*%
%LPC*%
G36*
X471442Y401669D02*
X471442Y401669D01*
X466439Y406672D01*
X466439Y413748D01*
X471417Y418725D01*
X471474Y418802D01*
X471539Y418873D01*
X471559Y418914D01*
X471586Y418951D01*
X471620Y419041D01*
X471662Y419127D01*
X471668Y419169D01*
X471685Y419214D01*
X471695Y419342D01*
X471709Y419432D01*
X471709Y423959D01*
X471708Y423969D01*
X471709Y423978D01*
X471688Y424108D01*
X471669Y424238D01*
X471666Y424247D01*
X471664Y424256D01*
X471607Y424376D01*
X471553Y424495D01*
X471547Y424503D01*
X471543Y424511D01*
X471455Y424610D01*
X471370Y424710D01*
X471362Y424715D01*
X471356Y424722D01*
X471290Y424762D01*
X471134Y424864D01*
X471111Y424871D01*
X471092Y424882D01*
X468523Y425947D01*
X465317Y429153D01*
X463581Y433343D01*
X463581Y437877D01*
X465317Y442067D01*
X468523Y445273D01*
X472713Y447009D01*
X477247Y447009D01*
X481437Y445273D01*
X484643Y442067D01*
X486379Y437877D01*
X486379Y433343D01*
X484643Y429153D01*
X481437Y425947D01*
X478868Y424882D01*
X478859Y424878D01*
X478850Y424875D01*
X478738Y424806D01*
X478625Y424739D01*
X478618Y424732D01*
X478610Y424727D01*
X478522Y424629D01*
X478432Y424533D01*
X478428Y424525D01*
X478421Y424518D01*
X478364Y424399D01*
X478304Y424282D01*
X478302Y424272D01*
X478298Y424264D01*
X478286Y424188D01*
X478252Y424005D01*
X478254Y423981D01*
X478251Y423959D01*
X478251Y419432D01*
X478264Y419337D01*
X478269Y419240D01*
X478284Y419197D01*
X478291Y419152D01*
X478330Y419065D01*
X478362Y418974D01*
X478387Y418940D01*
X478407Y418895D01*
X478490Y418798D01*
X478543Y418725D01*
X483521Y413748D01*
X483521Y406672D01*
X478518Y401669D01*
X471442Y401669D01*
G37*
%LPD*%
%LPC*%
G36*
X244113Y120681D02*
X244113Y120681D01*
X239923Y122417D01*
X236717Y125623D01*
X234981Y129813D01*
X234981Y134347D01*
X236717Y138537D01*
X239923Y141743D01*
X242492Y142808D01*
X242501Y142812D01*
X242510Y142815D01*
X242622Y142884D01*
X242735Y142951D01*
X242742Y142958D01*
X242750Y142963D01*
X242838Y143061D01*
X242928Y143157D01*
X242932Y143165D01*
X242939Y143172D01*
X242996Y143291D01*
X243056Y143408D01*
X243058Y143418D01*
X243062Y143426D01*
X243074Y143502D01*
X243108Y143685D01*
X243106Y143709D01*
X243109Y143731D01*
X243109Y146988D01*
X243096Y147083D01*
X243091Y147180D01*
X243076Y147223D01*
X243069Y147268D01*
X243030Y147355D01*
X242998Y147446D01*
X242973Y147480D01*
X242953Y147525D01*
X242870Y147622D01*
X242817Y147695D01*
X237839Y152672D01*
X237839Y159748D01*
X242842Y164751D01*
X249918Y164751D01*
X254921Y159748D01*
X254921Y152672D01*
X249943Y147695D01*
X249886Y147618D01*
X249821Y147547D01*
X249801Y147506D01*
X249774Y147469D01*
X249740Y147379D01*
X249698Y147293D01*
X249692Y147251D01*
X249675Y147206D01*
X249665Y147078D01*
X249651Y146988D01*
X249651Y143731D01*
X249652Y143721D01*
X249651Y143712D01*
X249672Y143582D01*
X249691Y143452D01*
X249694Y143443D01*
X249696Y143434D01*
X249753Y143314D01*
X249807Y143195D01*
X249813Y143187D01*
X249817Y143179D01*
X249905Y143080D01*
X249990Y142980D01*
X249998Y142975D01*
X250004Y142968D01*
X250070Y142928D01*
X250226Y142826D01*
X250249Y142819D01*
X250268Y142808D01*
X252837Y141743D01*
X256043Y138537D01*
X257779Y134347D01*
X257779Y129813D01*
X256043Y125623D01*
X252837Y122417D01*
X248647Y120681D01*
X244113Y120681D01*
G37*
%LPD*%
%LPC*%
G36*
X218713Y120681D02*
X218713Y120681D01*
X214523Y122417D01*
X211317Y125623D01*
X209581Y129813D01*
X209581Y134347D01*
X211317Y138537D01*
X214523Y141743D01*
X217092Y142808D01*
X217101Y142812D01*
X217110Y142815D01*
X217222Y142884D01*
X217335Y142951D01*
X217342Y142958D01*
X217350Y142963D01*
X217438Y143061D01*
X217528Y143157D01*
X217532Y143165D01*
X217539Y143172D01*
X217596Y143291D01*
X217656Y143408D01*
X217658Y143418D01*
X217662Y143426D01*
X217674Y143502D01*
X217708Y143685D01*
X217706Y143709D01*
X217709Y143731D01*
X217709Y146988D01*
X217696Y147083D01*
X217691Y147180D01*
X217676Y147223D01*
X217669Y147268D01*
X217630Y147355D01*
X217598Y147446D01*
X217573Y147480D01*
X217553Y147525D01*
X217470Y147622D01*
X217417Y147695D01*
X212439Y152672D01*
X212439Y159748D01*
X217442Y164751D01*
X224518Y164751D01*
X229521Y159748D01*
X229521Y152672D01*
X224543Y147695D01*
X224486Y147618D01*
X224421Y147547D01*
X224401Y147506D01*
X224374Y147469D01*
X224340Y147379D01*
X224298Y147293D01*
X224292Y147251D01*
X224275Y147206D01*
X224265Y147078D01*
X224251Y146988D01*
X224251Y143731D01*
X224252Y143721D01*
X224251Y143712D01*
X224272Y143582D01*
X224291Y143452D01*
X224294Y143443D01*
X224296Y143434D01*
X224353Y143314D01*
X224407Y143195D01*
X224413Y143187D01*
X224417Y143179D01*
X224505Y143080D01*
X224590Y142980D01*
X224598Y142975D01*
X224604Y142968D01*
X224670Y142928D01*
X224826Y142826D01*
X224849Y142819D01*
X224868Y142808D01*
X227437Y141743D01*
X230643Y138537D01*
X232379Y134347D01*
X232379Y129813D01*
X230643Y125623D01*
X227437Y122417D01*
X223247Y120681D01*
X218713Y120681D01*
G37*
%LPD*%
%LPC*%
G36*
X193313Y120681D02*
X193313Y120681D01*
X189123Y122417D01*
X185917Y125623D01*
X184181Y129813D01*
X184181Y134347D01*
X185917Y138537D01*
X189123Y141743D01*
X191692Y142808D01*
X191701Y142812D01*
X191710Y142815D01*
X191822Y142884D01*
X191935Y142951D01*
X191942Y142958D01*
X191950Y142963D01*
X192038Y143061D01*
X192128Y143157D01*
X192132Y143165D01*
X192139Y143172D01*
X192196Y143291D01*
X192256Y143408D01*
X192258Y143418D01*
X192262Y143426D01*
X192274Y143502D01*
X192308Y143685D01*
X192306Y143709D01*
X192309Y143731D01*
X192309Y146988D01*
X192296Y147083D01*
X192291Y147180D01*
X192276Y147223D01*
X192269Y147268D01*
X192230Y147355D01*
X192198Y147446D01*
X192173Y147480D01*
X192153Y147525D01*
X192070Y147622D01*
X192017Y147695D01*
X187039Y152672D01*
X187039Y159748D01*
X192042Y164751D01*
X199118Y164751D01*
X204121Y159748D01*
X204121Y152672D01*
X199143Y147695D01*
X199086Y147618D01*
X199021Y147547D01*
X199001Y147506D01*
X198974Y147469D01*
X198940Y147379D01*
X198898Y147293D01*
X198892Y147251D01*
X198875Y147206D01*
X198865Y147078D01*
X198851Y146988D01*
X198851Y143731D01*
X198852Y143721D01*
X198851Y143712D01*
X198872Y143582D01*
X198891Y143452D01*
X198894Y143443D01*
X198896Y143434D01*
X198953Y143314D01*
X199007Y143195D01*
X199013Y143187D01*
X199017Y143179D01*
X199105Y143080D01*
X199190Y142980D01*
X199198Y142975D01*
X199204Y142968D01*
X199270Y142928D01*
X199426Y142826D01*
X199449Y142819D01*
X199468Y142808D01*
X202037Y141743D01*
X205243Y138537D01*
X206979Y134347D01*
X206979Y129813D01*
X205243Y125623D01*
X202037Y122417D01*
X197847Y120681D01*
X193313Y120681D01*
G37*
%LPD*%
%LPC*%
G36*
X167913Y120681D02*
X167913Y120681D01*
X163723Y122417D01*
X160517Y125623D01*
X158781Y129813D01*
X158781Y134347D01*
X160517Y138537D01*
X163723Y141743D01*
X166292Y142808D01*
X166301Y142812D01*
X166310Y142815D01*
X166422Y142884D01*
X166535Y142951D01*
X166542Y142958D01*
X166550Y142963D01*
X166638Y143061D01*
X166728Y143157D01*
X166732Y143165D01*
X166739Y143172D01*
X166796Y143291D01*
X166856Y143408D01*
X166858Y143418D01*
X166862Y143426D01*
X166874Y143502D01*
X166908Y143685D01*
X166906Y143709D01*
X166909Y143731D01*
X166909Y146988D01*
X166896Y147083D01*
X166891Y147180D01*
X166876Y147223D01*
X166869Y147268D01*
X166830Y147355D01*
X166798Y147446D01*
X166773Y147480D01*
X166753Y147525D01*
X166670Y147622D01*
X166617Y147695D01*
X161639Y152672D01*
X161639Y159748D01*
X166642Y164751D01*
X173718Y164751D01*
X178721Y159748D01*
X178721Y152672D01*
X173743Y147695D01*
X173686Y147618D01*
X173621Y147547D01*
X173601Y147506D01*
X173574Y147469D01*
X173540Y147379D01*
X173498Y147293D01*
X173492Y147251D01*
X173475Y147206D01*
X173465Y147078D01*
X173451Y146988D01*
X173451Y143731D01*
X173452Y143721D01*
X173451Y143712D01*
X173472Y143582D01*
X173491Y143452D01*
X173494Y143443D01*
X173496Y143434D01*
X173553Y143314D01*
X173607Y143195D01*
X173613Y143187D01*
X173617Y143179D01*
X173705Y143080D01*
X173790Y142980D01*
X173798Y142975D01*
X173804Y142968D01*
X173870Y142928D01*
X174026Y142826D01*
X174049Y142819D01*
X174068Y142808D01*
X176637Y141743D01*
X179843Y138537D01*
X181579Y134347D01*
X181579Y129813D01*
X179843Y125623D01*
X176637Y122417D01*
X172447Y120681D01*
X167913Y120681D01*
G37*
%LPD*%
%LPC*%
G36*
X66313Y120681D02*
X66313Y120681D01*
X62123Y122417D01*
X58917Y125623D01*
X57181Y129813D01*
X57181Y134347D01*
X58917Y138537D01*
X62123Y141743D01*
X64692Y142808D01*
X64701Y142812D01*
X64710Y142815D01*
X64822Y142884D01*
X64935Y142951D01*
X64942Y142958D01*
X64950Y142963D01*
X65038Y143061D01*
X65128Y143157D01*
X65132Y143165D01*
X65139Y143172D01*
X65196Y143291D01*
X65256Y143408D01*
X65258Y143418D01*
X65262Y143426D01*
X65274Y143502D01*
X65308Y143685D01*
X65306Y143709D01*
X65309Y143731D01*
X65309Y146988D01*
X65296Y147083D01*
X65291Y147180D01*
X65276Y147223D01*
X65269Y147268D01*
X65230Y147355D01*
X65198Y147446D01*
X65173Y147480D01*
X65153Y147525D01*
X65070Y147622D01*
X65017Y147695D01*
X60039Y152672D01*
X60039Y159748D01*
X65042Y164751D01*
X72118Y164751D01*
X77121Y159748D01*
X77121Y152672D01*
X72143Y147695D01*
X72086Y147618D01*
X72021Y147547D01*
X72001Y147506D01*
X71974Y147469D01*
X71940Y147379D01*
X71898Y147293D01*
X71892Y147251D01*
X71875Y147206D01*
X71865Y147078D01*
X71851Y146988D01*
X71851Y143731D01*
X71852Y143721D01*
X71851Y143712D01*
X71872Y143582D01*
X71891Y143452D01*
X71894Y143443D01*
X71896Y143434D01*
X71953Y143314D01*
X72007Y143195D01*
X72013Y143187D01*
X72017Y143179D01*
X72105Y143080D01*
X72190Y142980D01*
X72198Y142975D01*
X72204Y142968D01*
X72270Y142928D01*
X72426Y142826D01*
X72449Y142819D01*
X72468Y142808D01*
X75037Y141743D01*
X78243Y138537D01*
X79979Y134347D01*
X79979Y129813D01*
X78243Y125623D01*
X75037Y122417D01*
X70847Y120681D01*
X66313Y120681D01*
G37*
%LPD*%
%LPC*%
G36*
X91713Y120681D02*
X91713Y120681D01*
X87523Y122417D01*
X84317Y125623D01*
X82581Y129813D01*
X82581Y134347D01*
X84317Y138537D01*
X87523Y141743D01*
X90092Y142808D01*
X90101Y142812D01*
X90110Y142815D01*
X90222Y142884D01*
X90335Y142951D01*
X90342Y142958D01*
X90350Y142963D01*
X90438Y143061D01*
X90528Y143157D01*
X90532Y143165D01*
X90539Y143172D01*
X90596Y143291D01*
X90656Y143408D01*
X90658Y143418D01*
X90662Y143426D01*
X90674Y143502D01*
X90708Y143685D01*
X90706Y143709D01*
X90709Y143731D01*
X90709Y146988D01*
X90696Y147083D01*
X90691Y147180D01*
X90676Y147223D01*
X90669Y147268D01*
X90630Y147355D01*
X90598Y147446D01*
X90573Y147480D01*
X90553Y147525D01*
X90470Y147622D01*
X90417Y147695D01*
X85439Y152672D01*
X85439Y159748D01*
X90442Y164751D01*
X97518Y164751D01*
X102521Y159748D01*
X102521Y152672D01*
X97543Y147695D01*
X97486Y147618D01*
X97421Y147547D01*
X97401Y147506D01*
X97374Y147469D01*
X97340Y147379D01*
X97298Y147293D01*
X97292Y147251D01*
X97275Y147206D01*
X97265Y147078D01*
X97251Y146988D01*
X97251Y143731D01*
X97252Y143721D01*
X97251Y143712D01*
X97272Y143582D01*
X97291Y143452D01*
X97294Y143443D01*
X97296Y143434D01*
X97353Y143314D01*
X97407Y143195D01*
X97413Y143187D01*
X97417Y143179D01*
X97505Y143080D01*
X97590Y142980D01*
X97598Y142975D01*
X97604Y142968D01*
X97670Y142928D01*
X97826Y142826D01*
X97849Y142819D01*
X97868Y142808D01*
X100437Y141743D01*
X103643Y138537D01*
X105379Y134347D01*
X105379Y129813D01*
X103643Y125623D01*
X100437Y122417D01*
X96247Y120681D01*
X91713Y120681D01*
G37*
%LPD*%
%LPC*%
G36*
X142513Y120681D02*
X142513Y120681D01*
X138323Y122417D01*
X135117Y125623D01*
X133381Y129813D01*
X133381Y134347D01*
X135117Y138537D01*
X138323Y141743D01*
X140892Y142808D01*
X140901Y142812D01*
X140910Y142815D01*
X141022Y142884D01*
X141135Y142951D01*
X141142Y142958D01*
X141150Y142963D01*
X141238Y143061D01*
X141328Y143157D01*
X141332Y143165D01*
X141339Y143172D01*
X141396Y143291D01*
X141456Y143408D01*
X141458Y143418D01*
X141462Y143426D01*
X141474Y143502D01*
X141508Y143685D01*
X141506Y143709D01*
X141509Y143731D01*
X141509Y146988D01*
X141496Y147083D01*
X141491Y147180D01*
X141476Y147223D01*
X141469Y147268D01*
X141430Y147355D01*
X141398Y147446D01*
X141373Y147480D01*
X141353Y147525D01*
X141270Y147622D01*
X141217Y147695D01*
X136239Y152672D01*
X136239Y159748D01*
X141242Y164751D01*
X148318Y164751D01*
X153321Y159748D01*
X153321Y152672D01*
X148343Y147695D01*
X148286Y147618D01*
X148221Y147547D01*
X148201Y147506D01*
X148174Y147469D01*
X148140Y147379D01*
X148098Y147293D01*
X148092Y147251D01*
X148075Y147206D01*
X148065Y147078D01*
X148051Y146988D01*
X148051Y143731D01*
X148052Y143721D01*
X148051Y143712D01*
X148072Y143582D01*
X148091Y143452D01*
X148094Y143443D01*
X148096Y143434D01*
X148153Y143314D01*
X148207Y143195D01*
X148213Y143187D01*
X148217Y143179D01*
X148305Y143080D01*
X148390Y142980D01*
X148398Y142975D01*
X148404Y142968D01*
X148470Y142928D01*
X148626Y142826D01*
X148649Y142819D01*
X148668Y142808D01*
X151237Y141743D01*
X154443Y138537D01*
X156179Y134347D01*
X156179Y129813D01*
X154443Y125623D01*
X151237Y122417D01*
X147047Y120681D01*
X142513Y120681D01*
G37*
%LPD*%
%LPC*%
G36*
X117113Y120681D02*
X117113Y120681D01*
X112923Y122417D01*
X109717Y125623D01*
X107981Y129813D01*
X107981Y134347D01*
X109717Y138537D01*
X112923Y141743D01*
X115492Y142808D01*
X115501Y142812D01*
X115510Y142815D01*
X115622Y142884D01*
X115735Y142951D01*
X115742Y142958D01*
X115750Y142963D01*
X115838Y143061D01*
X115928Y143157D01*
X115932Y143165D01*
X115939Y143172D01*
X115996Y143291D01*
X116056Y143408D01*
X116058Y143418D01*
X116062Y143426D01*
X116074Y143502D01*
X116108Y143685D01*
X116106Y143709D01*
X116109Y143731D01*
X116109Y146988D01*
X116096Y147083D01*
X116091Y147180D01*
X116076Y147223D01*
X116069Y147268D01*
X116030Y147355D01*
X115998Y147446D01*
X115973Y147480D01*
X115953Y147525D01*
X115870Y147622D01*
X115817Y147695D01*
X110839Y152672D01*
X110839Y159748D01*
X115842Y164751D01*
X122918Y164751D01*
X127921Y159748D01*
X127921Y152672D01*
X122943Y147695D01*
X122886Y147618D01*
X122821Y147547D01*
X122801Y147506D01*
X122774Y147469D01*
X122740Y147379D01*
X122698Y147293D01*
X122692Y147251D01*
X122675Y147206D01*
X122665Y147078D01*
X122651Y146988D01*
X122651Y143731D01*
X122652Y143721D01*
X122651Y143712D01*
X122672Y143582D01*
X122691Y143452D01*
X122694Y143443D01*
X122696Y143434D01*
X122753Y143314D01*
X122807Y143195D01*
X122813Y143187D01*
X122817Y143179D01*
X122905Y143080D01*
X122990Y142980D01*
X122998Y142975D01*
X123004Y142968D01*
X123070Y142928D01*
X123226Y142826D01*
X123249Y142819D01*
X123268Y142808D01*
X125837Y141743D01*
X129043Y138537D01*
X130779Y134347D01*
X130779Y129813D01*
X129043Y125623D01*
X125837Y122417D01*
X121647Y120681D01*
X117113Y120681D01*
G37*
%LPD*%
%LPC*%
G36*
X320313Y120681D02*
X320313Y120681D01*
X316123Y122417D01*
X312917Y125623D01*
X311181Y129813D01*
X311181Y134347D01*
X312917Y138537D01*
X316123Y141743D01*
X318692Y142808D01*
X318701Y142812D01*
X318710Y142815D01*
X318822Y142884D01*
X318935Y142951D01*
X318942Y142958D01*
X318950Y142963D01*
X319038Y143061D01*
X319128Y143157D01*
X319132Y143165D01*
X319139Y143172D01*
X319196Y143291D01*
X319256Y143408D01*
X319258Y143418D01*
X319262Y143426D01*
X319274Y143502D01*
X319308Y143685D01*
X319306Y143709D01*
X319309Y143731D01*
X319309Y146988D01*
X319296Y147083D01*
X319291Y147180D01*
X319276Y147223D01*
X319269Y147268D01*
X319230Y147355D01*
X319198Y147446D01*
X319173Y147480D01*
X319153Y147525D01*
X319070Y147622D01*
X319017Y147695D01*
X314039Y152672D01*
X314039Y159748D01*
X319042Y164751D01*
X326118Y164751D01*
X331121Y159748D01*
X331121Y152672D01*
X326143Y147695D01*
X326086Y147618D01*
X326021Y147547D01*
X326001Y147506D01*
X325974Y147469D01*
X325940Y147379D01*
X325898Y147293D01*
X325892Y147251D01*
X325875Y147206D01*
X325865Y147078D01*
X325851Y146988D01*
X325851Y143731D01*
X325852Y143721D01*
X325851Y143712D01*
X325872Y143582D01*
X325891Y143452D01*
X325894Y143443D01*
X325896Y143434D01*
X325953Y143314D01*
X326007Y143195D01*
X326013Y143187D01*
X326017Y143179D01*
X326105Y143080D01*
X326190Y142980D01*
X326198Y142975D01*
X326204Y142968D01*
X326270Y142928D01*
X326426Y142826D01*
X326449Y142819D01*
X326468Y142808D01*
X329037Y141743D01*
X332243Y138537D01*
X333979Y134347D01*
X333979Y129813D01*
X332243Y125623D01*
X329037Y122417D01*
X324847Y120681D01*
X320313Y120681D01*
G37*
%LPD*%
%LPC*%
G36*
X269513Y120681D02*
X269513Y120681D01*
X265323Y122417D01*
X262117Y125623D01*
X260381Y129813D01*
X260381Y134347D01*
X262117Y138537D01*
X265323Y141743D01*
X267892Y142808D01*
X267901Y142812D01*
X267910Y142815D01*
X268022Y142884D01*
X268135Y142951D01*
X268142Y142958D01*
X268150Y142963D01*
X268238Y143061D01*
X268328Y143157D01*
X268332Y143165D01*
X268339Y143172D01*
X268396Y143291D01*
X268456Y143408D01*
X268458Y143418D01*
X268462Y143426D01*
X268474Y143502D01*
X268508Y143685D01*
X268506Y143709D01*
X268509Y143731D01*
X268509Y146988D01*
X268496Y147083D01*
X268491Y147180D01*
X268476Y147223D01*
X268469Y147268D01*
X268430Y147355D01*
X268398Y147446D01*
X268373Y147480D01*
X268353Y147525D01*
X268270Y147622D01*
X268217Y147695D01*
X263239Y152672D01*
X263239Y159748D01*
X268242Y164751D01*
X275318Y164751D01*
X280321Y159748D01*
X280321Y152672D01*
X275343Y147695D01*
X275286Y147618D01*
X275221Y147547D01*
X275201Y147506D01*
X275174Y147469D01*
X275140Y147379D01*
X275098Y147293D01*
X275092Y147251D01*
X275075Y147206D01*
X275065Y147078D01*
X275051Y146988D01*
X275051Y143731D01*
X275052Y143721D01*
X275051Y143712D01*
X275072Y143582D01*
X275091Y143452D01*
X275094Y143443D01*
X275096Y143434D01*
X275153Y143314D01*
X275207Y143195D01*
X275213Y143187D01*
X275217Y143179D01*
X275305Y143080D01*
X275390Y142980D01*
X275398Y142975D01*
X275404Y142968D01*
X275470Y142928D01*
X275626Y142826D01*
X275649Y142819D01*
X275668Y142808D01*
X278237Y141743D01*
X281443Y138537D01*
X283179Y134347D01*
X283179Y129813D01*
X281443Y125623D01*
X278237Y122417D01*
X274047Y120681D01*
X269513Y120681D01*
G37*
%LPD*%
%LPC*%
G36*
X399561Y295687D02*
X399561Y295687D01*
X395371Y297423D01*
X392165Y300629D01*
X390429Y304819D01*
X390429Y309353D01*
X392165Y313543D01*
X395371Y316749D01*
X399561Y318485D01*
X404095Y318485D01*
X408285Y316749D01*
X411491Y313543D01*
X413227Y309353D01*
X413227Y304819D01*
X411491Y300629D01*
X408285Y297423D01*
X404095Y295687D01*
X399561Y295687D01*
G37*
%LPD*%
%LPC*%
G36*
X399561Y250475D02*
X399561Y250475D01*
X395371Y252211D01*
X392165Y255417D01*
X390429Y259607D01*
X390429Y264141D01*
X392165Y268331D01*
X395371Y271537D01*
X399561Y273273D01*
X404095Y273273D01*
X408285Y271537D01*
X411491Y268331D01*
X413227Y264141D01*
X413227Y259607D01*
X411491Y255417D01*
X408285Y252211D01*
X404095Y250475D01*
X399561Y250475D01*
G37*
%LPD*%
%LPC*%
G36*
X472713Y120681D02*
X472713Y120681D01*
X468523Y122417D01*
X465317Y125623D01*
X463581Y129813D01*
X463581Y134347D01*
X465317Y138537D01*
X468523Y141743D01*
X472713Y143479D01*
X477247Y143479D01*
X481437Y141743D01*
X484643Y138537D01*
X486379Y134347D01*
X486379Y129813D01*
X484643Y125623D01*
X481437Y122417D01*
X477247Y120681D01*
X472713Y120681D01*
G37*
%LPD*%
%LPC*%
G36*
X615322Y260969D02*
X615322Y260969D01*
X611816Y262422D01*
X609132Y265106D01*
X607679Y268612D01*
X607679Y272408D01*
X609132Y275914D01*
X611816Y278598D01*
X615322Y280051D01*
X619118Y280051D01*
X622624Y278598D01*
X625308Y275914D01*
X626761Y272408D01*
X626761Y268612D01*
X625308Y265106D01*
X622624Y262422D01*
X619118Y260969D01*
X615322Y260969D01*
G37*
%LPD*%
%LPC*%
G36*
X756292Y122539D02*
X756292Y122539D01*
X752786Y123992D01*
X750102Y126676D01*
X748649Y130182D01*
X748649Y133978D01*
X750102Y137484D01*
X752786Y140168D01*
X756292Y141621D01*
X760088Y141621D01*
X763594Y140168D01*
X766278Y137484D01*
X767731Y133978D01*
X767731Y130182D01*
X766278Y126676D01*
X763594Y123992D01*
X760088Y122539D01*
X756292Y122539D01*
G37*
%LPD*%
%LPC*%
G36*
X615322Y311769D02*
X615322Y311769D01*
X611816Y313222D01*
X609132Y315906D01*
X607679Y319412D01*
X607679Y323208D01*
X609132Y326714D01*
X611816Y329398D01*
X615322Y330851D01*
X619118Y330851D01*
X622624Y329398D01*
X625308Y326714D01*
X626761Y323208D01*
X626761Y319412D01*
X625308Y315906D01*
X622624Y313222D01*
X619118Y311769D01*
X615322Y311769D01*
G37*
%LPD*%
%LPC*%
G36*
X615322Y286369D02*
X615322Y286369D01*
X611816Y287822D01*
X609132Y290506D01*
X607679Y294012D01*
X607679Y297808D01*
X609132Y301314D01*
X611816Y303998D01*
X615322Y305451D01*
X619118Y305451D01*
X622624Y303998D01*
X625308Y301314D01*
X626761Y297808D01*
X626761Y294012D01*
X625308Y290506D01*
X622624Y287822D01*
X619118Y286369D01*
X615322Y286369D01*
G37*
%LPD*%
%LPC*%
G36*
X883292Y122539D02*
X883292Y122539D01*
X879786Y123992D01*
X877102Y126676D01*
X875649Y130182D01*
X875649Y133978D01*
X877102Y137484D01*
X879786Y140168D01*
X883292Y141621D01*
X887088Y141621D01*
X890594Y140168D01*
X893278Y137484D01*
X894731Y133978D01*
X894731Y130182D01*
X893278Y126676D01*
X890594Y123992D01*
X887088Y122539D01*
X883292Y122539D01*
G37*
%LPD*%
%LPC*%
G36*
X832492Y122539D02*
X832492Y122539D01*
X828986Y123992D01*
X826302Y126676D01*
X824849Y130182D01*
X824849Y133978D01*
X826302Y137484D01*
X828986Y140168D01*
X832492Y141621D01*
X836288Y141621D01*
X839794Y140168D01*
X842478Y137484D01*
X843931Y133978D01*
X843931Y130182D01*
X842478Y126676D01*
X839794Y123992D01*
X836288Y122539D01*
X832492Y122539D01*
G37*
%LPD*%
%LPC*%
G36*
X807092Y122539D02*
X807092Y122539D01*
X803586Y123992D01*
X800902Y126676D01*
X799449Y130182D01*
X799449Y133978D01*
X800902Y137484D01*
X803586Y140168D01*
X807092Y141621D01*
X810888Y141621D01*
X814394Y140168D01*
X817078Y137484D01*
X818531Y133978D01*
X818531Y130182D01*
X817078Y126676D01*
X814394Y123992D01*
X810888Y122539D01*
X807092Y122539D01*
G37*
%LPD*%
%LPC*%
G36*
X807092Y427339D02*
X807092Y427339D01*
X803586Y428792D01*
X800902Y431476D01*
X799449Y434982D01*
X799449Y438778D01*
X800902Y442284D01*
X803586Y444968D01*
X807092Y446421D01*
X810888Y446421D01*
X814394Y444968D01*
X817078Y442284D01*
X818531Y438778D01*
X818531Y434982D01*
X817078Y431476D01*
X814394Y428792D01*
X810888Y427339D01*
X807092Y427339D01*
G37*
%LPD*%
%LPC*%
G36*
X832492Y427339D02*
X832492Y427339D01*
X828986Y428792D01*
X826302Y431476D01*
X824849Y434982D01*
X824849Y438778D01*
X826302Y442284D01*
X828986Y444968D01*
X832492Y446421D01*
X836288Y446421D01*
X839794Y444968D01*
X842478Y442284D01*
X843931Y438778D01*
X843931Y434982D01*
X842478Y431476D01*
X839794Y428792D01*
X836288Y427339D01*
X832492Y427339D01*
G37*
%LPD*%
%LPC*%
G36*
X629292Y427339D02*
X629292Y427339D01*
X625786Y428792D01*
X623102Y431476D01*
X621649Y434982D01*
X621649Y438778D01*
X623102Y442284D01*
X625786Y444968D01*
X629292Y446421D01*
X633088Y446421D01*
X636594Y444968D01*
X639278Y442284D01*
X640731Y438778D01*
X640731Y434982D01*
X639278Y431476D01*
X636594Y428792D01*
X633088Y427339D01*
X629292Y427339D01*
G37*
%LPD*%
%LPC*%
G36*
X666130Y296569D02*
X666130Y296569D01*
X662638Y298016D01*
X659966Y300688D01*
X658519Y304180D01*
X658519Y307960D01*
X659966Y311452D01*
X662638Y314124D01*
X666130Y315571D01*
X669910Y315571D01*
X673402Y314124D01*
X676074Y311452D01*
X677521Y307960D01*
X677521Y304180D01*
X676074Y300688D01*
X673402Y298016D01*
X669910Y296569D01*
X666130Y296569D01*
G37*
%LPD*%
%LPC*%
G36*
X235600Y248309D02*
X235600Y248309D01*
X232108Y249756D01*
X229436Y252428D01*
X227989Y255920D01*
X227989Y259700D01*
X229436Y263192D01*
X232108Y265864D01*
X235600Y267311D01*
X239380Y267311D01*
X242872Y265864D01*
X245544Y263192D01*
X246991Y259700D01*
X246991Y255920D01*
X245544Y252428D01*
X242872Y249756D01*
X239380Y248309D01*
X235600Y248309D01*
G37*
%LPD*%
%LPC*%
G36*
X471442Y147669D02*
X471442Y147669D01*
X466439Y152672D01*
X466439Y159748D01*
X471442Y164751D01*
X478518Y164751D01*
X483521Y159748D01*
X483521Y152672D01*
X478518Y147669D01*
X471442Y147669D01*
G37*
%LPD*%
%LPC*%
G36*
X705892Y318857D02*
X705892Y318857D01*
X703123Y320004D01*
X701004Y322123D01*
X699857Y324892D01*
X699857Y327888D01*
X701004Y330657D01*
X703123Y332776D01*
X705892Y333923D01*
X708888Y333923D01*
X711657Y332776D01*
X713776Y330657D01*
X714923Y327888D01*
X714923Y324892D01*
X713776Y322123D01*
X711657Y320004D01*
X708888Y318857D01*
X705892Y318857D01*
G37*
%LPD*%
%LPC*%
G36*
X468851Y263873D02*
X468851Y263873D01*
X468851Y273645D01*
X469648Y273519D01*
X471435Y272938D01*
X473109Y272085D01*
X474630Y270980D01*
X475958Y269652D01*
X477063Y268131D01*
X477916Y266457D01*
X478497Y264670D01*
X478623Y263873D01*
X468851Y263873D01*
G37*
%LPD*%
%LPC*%
G36*
X172179Y437609D02*
X172179Y437609D01*
X172179Y447381D01*
X172976Y447255D01*
X174763Y446674D01*
X176437Y445821D01*
X177958Y444716D01*
X179286Y443388D01*
X180391Y441867D01*
X181244Y440193D01*
X181825Y438406D01*
X181951Y437609D01*
X172179Y437609D01*
G37*
%LPD*%
%LPC*%
G36*
X502379Y134079D02*
X502379Y134079D01*
X502379Y143851D01*
X503176Y143725D01*
X504963Y143144D01*
X506637Y142291D01*
X508158Y141186D01*
X509486Y139858D01*
X510591Y138337D01*
X511444Y136663D01*
X512025Y134876D01*
X512151Y134079D01*
X502379Y134079D01*
G37*
%LPD*%
%LPC*%
G36*
X349979Y134079D02*
X349979Y134079D01*
X349979Y143851D01*
X350776Y143725D01*
X352563Y143144D01*
X354237Y142291D01*
X355758Y141186D01*
X357086Y139858D01*
X358191Y138337D01*
X359044Y136663D01*
X359625Y134876D01*
X359751Y134079D01*
X349979Y134079D01*
G37*
%LPD*%
%LPC*%
G36*
X468851Y259875D02*
X468851Y259875D01*
X478623Y259875D01*
X478505Y259129D01*
X478497Y259078D01*
X477916Y257291D01*
X477063Y255617D01*
X475958Y254096D01*
X474630Y252768D01*
X473109Y251663D01*
X471435Y250810D01*
X469648Y250229D01*
X468851Y250103D01*
X468851Y259875D01*
G37*
%LPD*%
%LPC*%
G36*
X158409Y437609D02*
X158409Y437609D01*
X158535Y438406D01*
X159116Y440193D01*
X159969Y441867D01*
X161074Y443388D01*
X162402Y444716D01*
X163923Y445821D01*
X165597Y446674D01*
X167384Y447255D01*
X168181Y447381D01*
X168181Y437609D01*
X158409Y437609D01*
G37*
%LPD*%
%LPC*%
G36*
X502379Y130081D02*
X502379Y130081D01*
X512151Y130081D01*
X512025Y129284D01*
X511444Y127497D01*
X510591Y125823D01*
X509486Y124302D01*
X508158Y122974D01*
X506637Y121869D01*
X504963Y121016D01*
X503176Y120435D01*
X502379Y120309D01*
X502379Y130081D01*
G37*
%LPD*%
%LPC*%
G36*
X336209Y134079D02*
X336209Y134079D01*
X336335Y134876D01*
X336916Y136663D01*
X337769Y138337D01*
X338874Y139858D01*
X340202Y141186D01*
X341723Y142291D01*
X343397Y143144D01*
X345184Y143725D01*
X345981Y143851D01*
X345981Y134079D01*
X336209Y134079D01*
G37*
%LPD*%
%LPC*%
G36*
X488609Y134079D02*
X488609Y134079D01*
X488735Y134876D01*
X489316Y136663D01*
X490169Y138337D01*
X491274Y139858D01*
X492602Y141186D01*
X494123Y142291D01*
X495797Y143144D01*
X497584Y143725D01*
X498381Y143851D01*
X498381Y134079D01*
X488609Y134079D01*
G37*
%LPD*%
%LPC*%
G36*
X455081Y263873D02*
X455081Y263873D01*
X455207Y264670D01*
X455788Y266457D01*
X456641Y268131D01*
X457746Y269652D01*
X459074Y270980D01*
X460595Y272085D01*
X462269Y272938D01*
X464056Y273519D01*
X464853Y273645D01*
X464853Y263873D01*
X455081Y263873D01*
G37*
%LPD*%
%LPC*%
G36*
X349979Y130081D02*
X349979Y130081D01*
X359751Y130081D01*
X359625Y129284D01*
X359044Y127497D01*
X358191Y125823D01*
X357086Y124302D01*
X355758Y122974D01*
X354237Y121869D01*
X352563Y121016D01*
X350776Y120435D01*
X349979Y120309D01*
X349979Y130081D01*
G37*
%LPD*%
%LPC*%
G36*
X172179Y433611D02*
X172179Y433611D01*
X181951Y433611D01*
X181825Y432814D01*
X181244Y431027D01*
X180391Y429353D01*
X179286Y427832D01*
X177958Y426504D01*
X176437Y425399D01*
X174763Y424546D01*
X172976Y423965D01*
X172179Y423839D01*
X172179Y433611D01*
G37*
%LPD*%
%LPC*%
G36*
X497584Y120435D02*
X497584Y120435D01*
X495797Y121016D01*
X494123Y121869D01*
X492602Y122974D01*
X491274Y124302D01*
X490169Y125823D01*
X489316Y127497D01*
X488735Y129284D01*
X488609Y130081D01*
X498381Y130081D01*
X498381Y120309D01*
X497584Y120435D01*
G37*
%LPD*%
%LPC*%
G36*
X464056Y250229D02*
X464056Y250229D01*
X462269Y250810D01*
X460595Y251663D01*
X459074Y252768D01*
X457746Y254096D01*
X456641Y255617D01*
X455788Y257291D01*
X455207Y259078D01*
X455081Y259875D01*
X464853Y259875D01*
X464853Y250103D01*
X464056Y250229D01*
G37*
%LPD*%
%LPC*%
G36*
X345184Y120435D02*
X345184Y120435D01*
X343397Y121016D01*
X341723Y121869D01*
X340202Y122974D01*
X338874Y124302D01*
X337769Y125823D01*
X336916Y127497D01*
X336335Y129284D01*
X336209Y130081D01*
X345981Y130081D01*
X345981Y120309D01*
X345184Y120435D01*
G37*
%LPD*%
%LPC*%
G36*
X167384Y423965D02*
X167384Y423965D01*
X165597Y424546D01*
X163923Y425399D01*
X162402Y426504D01*
X161074Y427832D01*
X159969Y429353D01*
X159116Y431027D01*
X158535Y432814D01*
X158409Y433611D01*
X168181Y433611D01*
X168181Y423839D01*
X167384Y423965D01*
G37*
%LPD*%
%LPC*%
G36*
X254507Y202659D02*
X254507Y202659D01*
X254507Y208996D01*
X254680Y209642D01*
X255015Y210221D01*
X255488Y210694D01*
X256067Y211029D01*
X256713Y211202D01*
X260891Y211202D01*
X260891Y202659D01*
X254507Y202659D01*
G37*
%LPD*%
%LPC*%
G36*
X135127Y202659D02*
X135127Y202659D01*
X135127Y208996D01*
X135300Y209642D01*
X135635Y210221D01*
X136108Y210694D01*
X136687Y211029D01*
X137333Y211202D01*
X141511Y211202D01*
X141511Y202659D01*
X135127Y202659D01*
G37*
%LPD*%
%LPC*%
G36*
X256713Y190118D02*
X256713Y190118D01*
X256067Y190291D01*
X255488Y190626D01*
X255015Y191099D01*
X254680Y191678D01*
X254507Y192324D01*
X254507Y198661D01*
X260891Y198661D01*
X260891Y190118D01*
X256713Y190118D01*
G37*
%LPD*%
%LPC*%
G36*
X137333Y190118D02*
X137333Y190118D01*
X136687Y190291D01*
X136108Y190626D01*
X135635Y191099D01*
X135300Y191678D01*
X135127Y192324D01*
X135127Y198661D01*
X141511Y198661D01*
X141511Y190118D01*
X137333Y190118D01*
G37*
%LPD*%
%LPC*%
G36*
X785589Y438879D02*
X785589Y438879D01*
X785589Y446770D01*
X785951Y446713D01*
X787460Y446222D01*
X788874Y445502D01*
X790157Y444569D01*
X791279Y443447D01*
X792212Y442164D01*
X792932Y440750D01*
X793423Y439241D01*
X793480Y438879D01*
X785589Y438879D01*
G37*
%LPD*%
%LPC*%
G36*
X912589Y134079D02*
X912589Y134079D01*
X912589Y141970D01*
X912951Y141913D01*
X914460Y141422D01*
X915874Y140702D01*
X917157Y139769D01*
X918279Y138647D01*
X919212Y137364D01*
X919932Y135950D01*
X920423Y134441D01*
X920480Y134079D01*
X912589Y134079D01*
G37*
%LPD*%
%LPC*%
G36*
X607789Y134079D02*
X607789Y134079D01*
X607789Y141970D01*
X608151Y141913D01*
X609660Y141422D01*
X611074Y140702D01*
X612357Y139769D01*
X613479Y138647D01*
X614412Y137364D01*
X615132Y135950D01*
X615623Y134441D01*
X615680Y134079D01*
X607789Y134079D01*
G37*
%LPD*%
%LPC*%
G36*
X861789Y438879D02*
X861789Y438879D01*
X861789Y446770D01*
X862151Y446713D01*
X863660Y446222D01*
X865074Y445502D01*
X866357Y444569D01*
X867479Y443447D01*
X868412Y442164D01*
X869132Y440750D01*
X869623Y439241D01*
X869680Y438879D01*
X861789Y438879D01*
G37*
%LPD*%
%LPC*%
G36*
X887189Y438879D02*
X887189Y438879D01*
X887189Y446770D01*
X887551Y446713D01*
X889060Y446222D01*
X890474Y445502D01*
X891757Y444569D01*
X892879Y443447D01*
X893812Y442164D01*
X894532Y440750D01*
X895023Y439241D01*
X895080Y438879D01*
X887189Y438879D01*
G37*
%LPD*%
%LPC*%
G36*
X607789Y438879D02*
X607789Y438879D01*
X607789Y446770D01*
X608151Y446713D01*
X609660Y446222D01*
X611074Y445502D01*
X612357Y444569D01*
X613479Y443447D01*
X614412Y442164D01*
X615132Y440750D01*
X615623Y439241D01*
X615680Y438879D01*
X607789Y438879D01*
G37*
%LPD*%
%LPC*%
G36*
X861789Y134079D02*
X861789Y134079D01*
X861789Y141970D01*
X862151Y141913D01*
X863660Y141422D01*
X865074Y140702D01*
X866357Y139769D01*
X867479Y138647D01*
X868412Y137364D01*
X869132Y135950D01*
X869623Y134441D01*
X869680Y134079D01*
X861789Y134079D01*
G37*
%LPD*%
%LPC*%
G36*
X912589Y438879D02*
X912589Y438879D01*
X912589Y446770D01*
X912951Y446713D01*
X914460Y446222D01*
X915874Y445502D01*
X917157Y444569D01*
X918279Y443447D01*
X919212Y442164D01*
X919932Y440750D01*
X920423Y439241D01*
X920480Y438879D01*
X912589Y438879D01*
G37*
%LPD*%
%LPC*%
G36*
X619219Y247109D02*
X619219Y247109D01*
X619219Y255000D01*
X619581Y254943D01*
X621090Y254452D01*
X622504Y253732D01*
X623787Y252799D01*
X624909Y251677D01*
X625842Y250394D01*
X626562Y248980D01*
X627053Y247471D01*
X627110Y247109D01*
X619219Y247109D01*
G37*
%LPD*%
%LPC*%
G36*
X760189Y438879D02*
X760189Y438879D01*
X760189Y446770D01*
X760551Y446713D01*
X762060Y446222D01*
X763474Y445502D01*
X764757Y444569D01*
X765879Y443447D01*
X766812Y442164D01*
X767532Y440750D01*
X768023Y439241D01*
X768080Y438879D01*
X760189Y438879D01*
G37*
%LPD*%
%LPC*%
G36*
X595900Y438879D02*
X595900Y438879D01*
X595957Y439241D01*
X596448Y440750D01*
X597168Y442164D01*
X598101Y443447D01*
X599223Y444569D01*
X600506Y445502D01*
X601920Y446222D01*
X603429Y446713D01*
X603791Y446770D01*
X603791Y438879D01*
X595900Y438879D01*
G37*
%LPD*%
%LPC*%
G36*
X849900Y438879D02*
X849900Y438879D01*
X849957Y439241D01*
X850448Y440750D01*
X851168Y442164D01*
X852101Y443447D01*
X853223Y444569D01*
X854506Y445502D01*
X855920Y446222D01*
X857429Y446713D01*
X857791Y446770D01*
X857791Y438879D01*
X849900Y438879D01*
G37*
%LPD*%
%LPC*%
G36*
X900700Y438879D02*
X900700Y438879D01*
X900757Y439241D01*
X901248Y440750D01*
X901968Y442164D01*
X902901Y443447D01*
X904023Y444569D01*
X905306Y445502D01*
X906720Y446222D01*
X908229Y446713D01*
X908591Y446770D01*
X908591Y438879D01*
X900700Y438879D01*
G37*
%LPD*%
%LPC*%
G36*
X773700Y438879D02*
X773700Y438879D01*
X773757Y439241D01*
X774248Y440750D01*
X774968Y442164D01*
X775901Y443447D01*
X777023Y444569D01*
X778306Y445502D01*
X779720Y446222D01*
X781229Y446713D01*
X781591Y446770D01*
X781591Y438879D01*
X773700Y438879D01*
G37*
%LPD*%
%LPC*%
G36*
X748300Y438879D02*
X748300Y438879D01*
X748357Y439241D01*
X748848Y440750D01*
X749568Y442164D01*
X750501Y443447D01*
X751623Y444569D01*
X752906Y445502D01*
X754320Y446222D01*
X755829Y446713D01*
X756191Y446770D01*
X756191Y438879D01*
X748300Y438879D01*
G37*
%LPD*%
%LPC*%
G36*
X875300Y438879D02*
X875300Y438879D01*
X875357Y439241D01*
X875848Y440750D01*
X876568Y442164D01*
X877501Y443447D01*
X878623Y444569D01*
X879906Y445502D01*
X881320Y446222D01*
X882829Y446713D01*
X883191Y446770D01*
X883191Y438879D01*
X875300Y438879D01*
G37*
%LPD*%
%LPC*%
G36*
X607330Y247109D02*
X607330Y247109D01*
X607387Y247471D01*
X607878Y248980D01*
X608598Y250394D01*
X609531Y251677D01*
X610653Y252799D01*
X611936Y253732D01*
X613350Y254452D01*
X614859Y254943D01*
X615221Y255000D01*
X615221Y247109D01*
X607330Y247109D01*
G37*
%LPD*%
%LPC*%
G36*
X861789Y130081D02*
X861789Y130081D01*
X869680Y130081D01*
X869623Y129719D01*
X869132Y128210D01*
X868412Y126796D01*
X867479Y125513D01*
X866357Y124391D01*
X865074Y123458D01*
X863660Y122738D01*
X862151Y122247D01*
X861789Y122190D01*
X861789Y130081D01*
G37*
%LPD*%
%LPC*%
G36*
X861789Y434881D02*
X861789Y434881D01*
X869680Y434881D01*
X869623Y434519D01*
X869132Y433010D01*
X868412Y431596D01*
X867479Y430313D01*
X866357Y429191D01*
X865074Y428258D01*
X863660Y427538D01*
X862151Y427047D01*
X861789Y426990D01*
X861789Y434881D01*
G37*
%LPD*%
%LPC*%
G36*
X607789Y434881D02*
X607789Y434881D01*
X615680Y434881D01*
X615623Y434519D01*
X615132Y433010D01*
X614412Y431596D01*
X613479Y430313D01*
X612357Y429191D01*
X611074Y428258D01*
X609660Y427538D01*
X608151Y427047D01*
X607789Y426990D01*
X607789Y434881D01*
G37*
%LPD*%
%LPC*%
G36*
X760189Y434881D02*
X760189Y434881D01*
X768080Y434881D01*
X768023Y434519D01*
X767532Y433010D01*
X766812Y431596D01*
X765879Y430313D01*
X764757Y429191D01*
X763474Y428258D01*
X762060Y427538D01*
X760551Y427047D01*
X760189Y426990D01*
X760189Y434881D01*
G37*
%LPD*%
%LPC*%
G36*
X849900Y134079D02*
X849900Y134079D01*
X849957Y134441D01*
X850448Y135950D01*
X851168Y137364D01*
X852101Y138647D01*
X853223Y139769D01*
X854506Y140702D01*
X855920Y141422D01*
X857429Y141913D01*
X857791Y141970D01*
X857791Y134079D01*
X849900Y134079D01*
G37*
%LPD*%
%LPC*%
G36*
X595900Y134079D02*
X595900Y134079D01*
X595957Y134441D01*
X596448Y135950D01*
X597168Y137364D01*
X598101Y138647D01*
X599223Y139769D01*
X600506Y140702D01*
X601920Y141422D01*
X603429Y141913D01*
X603791Y141970D01*
X603791Y134079D01*
X595900Y134079D01*
G37*
%LPD*%
%LPC*%
G36*
X619219Y243111D02*
X619219Y243111D01*
X627110Y243111D01*
X627053Y242749D01*
X626562Y241240D01*
X625842Y239826D01*
X624909Y238543D01*
X623787Y237421D01*
X622504Y236488D01*
X621090Y235768D01*
X619581Y235277D01*
X619219Y235220D01*
X619219Y243111D01*
G37*
%LPD*%
%LPC*%
G36*
X785589Y434881D02*
X785589Y434881D01*
X793480Y434881D01*
X793423Y434519D01*
X792932Y433010D01*
X792212Y431596D01*
X791279Y430313D01*
X790157Y429191D01*
X788874Y428258D01*
X787460Y427538D01*
X785951Y427047D01*
X785589Y426990D01*
X785589Y434881D01*
G37*
%LPD*%
%LPC*%
G36*
X912589Y434881D02*
X912589Y434881D01*
X920480Y434881D01*
X920423Y434519D01*
X919932Y433010D01*
X919212Y431596D01*
X918279Y430313D01*
X917157Y429191D01*
X915874Y428258D01*
X914460Y427538D01*
X912951Y427047D01*
X912589Y426990D01*
X912589Y434881D01*
G37*
%LPD*%
%LPC*%
G36*
X912589Y130081D02*
X912589Y130081D01*
X920480Y130081D01*
X920423Y129719D01*
X919932Y128210D01*
X919212Y126796D01*
X918279Y125513D01*
X917157Y124391D01*
X915874Y123458D01*
X914460Y122738D01*
X912951Y122247D01*
X912589Y122190D01*
X912589Y130081D01*
G37*
%LPD*%
%LPC*%
G36*
X887189Y434881D02*
X887189Y434881D01*
X895080Y434881D01*
X895023Y434519D01*
X894532Y433010D01*
X893812Y431596D01*
X892879Y430313D01*
X891757Y429191D01*
X890474Y428258D01*
X889060Y427538D01*
X887551Y427047D01*
X887189Y426990D01*
X887189Y434881D01*
G37*
%LPD*%
%LPC*%
G36*
X900700Y134079D02*
X900700Y134079D01*
X900757Y134441D01*
X901248Y135950D01*
X901968Y137364D01*
X902901Y138647D01*
X904023Y139769D01*
X905306Y140702D01*
X906720Y141422D01*
X908229Y141913D01*
X908591Y141970D01*
X908591Y134079D01*
X900700Y134079D01*
G37*
%LPD*%
%LPC*%
G36*
X603429Y427047D02*
X603429Y427047D01*
X601920Y427538D01*
X600506Y428258D01*
X599223Y429191D01*
X598101Y430313D01*
X597168Y431596D01*
X596448Y433010D01*
X595957Y434519D01*
X595900Y434881D01*
X603791Y434881D01*
X603791Y426990D01*
X603429Y427047D01*
G37*
%LPD*%
%LPC*%
G36*
X755829Y427047D02*
X755829Y427047D01*
X754320Y427538D01*
X752906Y428258D01*
X751623Y429191D01*
X750501Y430313D01*
X749568Y431596D01*
X748848Y433010D01*
X748357Y434519D01*
X748300Y434881D01*
X756191Y434881D01*
X756191Y426990D01*
X755829Y427047D01*
G37*
%LPD*%
%LPC*%
G36*
X857429Y427047D02*
X857429Y427047D01*
X855920Y427538D01*
X854506Y428258D01*
X853223Y429191D01*
X852101Y430313D01*
X851168Y431596D01*
X850448Y433010D01*
X849957Y434519D01*
X849900Y434881D01*
X857791Y434881D01*
X857791Y426990D01*
X857429Y427047D01*
G37*
%LPD*%
%LPC*%
G36*
X882829Y427047D02*
X882829Y427047D01*
X881320Y427538D01*
X879906Y428258D01*
X878623Y429191D01*
X877501Y430313D01*
X876568Y431596D01*
X875848Y433010D01*
X875357Y434519D01*
X875300Y434881D01*
X883191Y434881D01*
X883191Y426990D01*
X882829Y427047D01*
G37*
%LPD*%
%LPC*%
G36*
X781229Y427047D02*
X781229Y427047D01*
X779720Y427538D01*
X778306Y428258D01*
X777023Y429191D01*
X775901Y430313D01*
X774968Y431596D01*
X774248Y433010D01*
X773757Y434519D01*
X773700Y434881D01*
X781591Y434881D01*
X781591Y426990D01*
X781229Y427047D01*
G37*
%LPD*%
%LPC*%
G36*
X908229Y427047D02*
X908229Y427047D01*
X906720Y427538D01*
X905306Y428258D01*
X904023Y429191D01*
X902901Y430313D01*
X901968Y431596D01*
X901248Y433010D01*
X900757Y434519D01*
X900700Y434881D01*
X908591Y434881D01*
X908591Y426990D01*
X908229Y427047D01*
G37*
%LPD*%
%LPC*%
G36*
X614859Y235277D02*
X614859Y235277D01*
X613350Y235768D01*
X611936Y236488D01*
X610653Y237421D01*
X609531Y238543D01*
X608598Y239826D01*
X607878Y241240D01*
X607387Y242749D01*
X607330Y243111D01*
X615221Y243111D01*
X615221Y235220D01*
X614859Y235277D01*
G37*
%LPD*%
%LPC*%
G36*
X908229Y122247D02*
X908229Y122247D01*
X906720Y122738D01*
X905306Y123458D01*
X904023Y124391D01*
X902901Y125513D01*
X901968Y126796D01*
X901248Y128210D01*
X900757Y129719D01*
X900700Y130081D01*
X908591Y130081D01*
X908591Y122190D01*
X908229Y122247D01*
G37*
%LPD*%
%LPC*%
G36*
X857429Y122247D02*
X857429Y122247D01*
X855920Y122738D01*
X854506Y123458D01*
X853223Y124391D01*
X852101Y125513D01*
X851168Y126796D01*
X850448Y128210D01*
X849957Y129719D01*
X849900Y130081D01*
X857791Y130081D01*
X857791Y122190D01*
X857429Y122247D01*
G37*
%LPD*%
%LPC*%
G36*
X502379Y158209D02*
X502379Y158209D01*
X502379Y165291D01*
X504141Y165291D01*
X509461Y159971D01*
X509461Y158209D01*
X502379Y158209D01*
G37*
%LPD*%
%LPC*%
G36*
X172179Y412209D02*
X172179Y412209D01*
X172179Y419291D01*
X173941Y419291D01*
X179261Y413971D01*
X179261Y412209D01*
X172179Y412209D01*
G37*
%LPD*%
%LPC*%
G36*
X491299Y158209D02*
X491299Y158209D01*
X491299Y159971D01*
X496619Y165291D01*
X498381Y165291D01*
X498381Y158209D01*
X491299Y158209D01*
G37*
%LPD*%
%LPC*%
G36*
X338899Y158209D02*
X338899Y158209D01*
X338899Y159971D01*
X344219Y165291D01*
X345981Y165291D01*
X345981Y158209D01*
X338899Y158209D01*
G37*
%LPD*%
%LPC*%
G36*
X161099Y412209D02*
X161099Y412209D01*
X161099Y413971D01*
X166419Y419291D01*
X168181Y419291D01*
X168181Y412209D01*
X161099Y412209D01*
G37*
%LPD*%
%LPC*%
G36*
X502379Y147129D02*
X502379Y147129D01*
X502379Y154211D01*
X509461Y154211D01*
X509461Y152449D01*
X504141Y147129D01*
X502379Y147129D01*
G37*
%LPD*%
%LPC*%
G36*
X172179Y401129D02*
X172179Y401129D01*
X172179Y408211D01*
X179261Y408211D01*
X179261Y406449D01*
X173941Y401129D01*
X172179Y401129D01*
G37*
%LPD*%
%LPC*%
G36*
X166419Y401129D02*
X166419Y401129D01*
X161099Y406449D01*
X161099Y408211D01*
X168181Y408211D01*
X168181Y401129D01*
X166419Y401129D01*
G37*
%LPD*%
%LPC*%
G36*
X496619Y147129D02*
X496619Y147129D01*
X491299Y152449D01*
X491299Y154211D01*
X498381Y154211D01*
X498381Y147129D01*
X496619Y147129D01*
G37*
%LPD*%
%LPC*%
G36*
X344219Y147129D02*
X344219Y147129D01*
X338899Y152449D01*
X338899Y154211D01*
X345981Y154211D01*
X345981Y147129D01*
X344219Y147129D01*
G37*
%LPD*%
%LPC*%
G36*
X709499Y403319D02*
X709499Y403319D01*
X709499Y409861D01*
X711835Y409861D01*
X712481Y409688D01*
X713060Y409353D01*
X713533Y408880D01*
X713868Y408301D01*
X714041Y407655D01*
X714041Y403319D01*
X709499Y403319D01*
G37*
%LPD*%
%LPC*%
G36*
X709499Y392779D02*
X709499Y392779D01*
X709499Y399321D01*
X714041Y399321D01*
X714041Y394985D01*
X713868Y394339D01*
X713533Y393760D01*
X713060Y393287D01*
X712481Y392952D01*
X711835Y392779D01*
X709499Y392779D01*
G37*
%LPD*%
%LPC*%
G36*
X700959Y403319D02*
X700959Y403319D01*
X700959Y407655D01*
X701132Y408301D01*
X701467Y408880D01*
X701940Y409353D01*
X702519Y409688D01*
X703165Y409861D01*
X705501Y409861D01*
X705501Y403319D01*
X700959Y403319D01*
G37*
%LPD*%
%LPC*%
G36*
X703165Y392779D02*
X703165Y392779D01*
X702519Y392952D01*
X701940Y393287D01*
X701467Y393760D01*
X701132Y394339D01*
X700959Y394985D01*
X700959Y399321D01*
X705501Y399321D01*
X705501Y392779D01*
X703165Y392779D01*
G37*
%LPD*%
%LPC*%
G36*
X910589Y436879D02*
X910589Y436879D01*
X910589Y436881D01*
X910591Y436881D01*
X910591Y436879D01*
X910589Y436879D01*
G37*
%LPD*%
%LPC*%
G36*
X885189Y436879D02*
X885189Y436879D01*
X885189Y436881D01*
X885191Y436881D01*
X885191Y436879D01*
X885189Y436879D01*
G37*
%LPD*%
%LPC*%
G36*
X783589Y436879D02*
X783589Y436879D01*
X783589Y436881D01*
X783591Y436881D01*
X783591Y436879D01*
X783589Y436879D01*
G37*
%LPD*%
%LPC*%
G36*
X170179Y410209D02*
X170179Y410209D01*
X170179Y410211D01*
X170181Y410211D01*
X170181Y410209D01*
X170179Y410209D01*
G37*
%LPD*%
%LPC*%
G36*
X500379Y156209D02*
X500379Y156209D01*
X500379Y156211D01*
X500381Y156211D01*
X500381Y156209D01*
X500379Y156209D01*
G37*
%LPD*%
%LPC*%
G36*
X859789Y132079D02*
X859789Y132079D01*
X859789Y132081D01*
X859791Y132081D01*
X859791Y132079D01*
X859789Y132079D01*
G37*
%LPD*%
%LPC*%
G36*
X500379Y132079D02*
X500379Y132079D01*
X500379Y132081D01*
X500381Y132081D01*
X500381Y132079D01*
X500379Y132079D01*
G37*
%LPD*%
%LPC*%
G36*
X347979Y132079D02*
X347979Y132079D01*
X347979Y132081D01*
X347981Y132081D01*
X347981Y132079D01*
X347979Y132079D01*
G37*
%LPD*%
%LPC*%
G36*
X466851Y261873D02*
X466851Y261873D01*
X466851Y261875D01*
X466853Y261875D01*
X466853Y261873D01*
X466851Y261873D01*
G37*
%LPD*%
%LPC*%
G36*
X617219Y245109D02*
X617219Y245109D01*
X617219Y245111D01*
X617221Y245111D01*
X617221Y245109D01*
X617219Y245109D01*
G37*
%LPD*%
%LPC*%
G36*
X170179Y435609D02*
X170179Y435609D01*
X170179Y435611D01*
X170181Y435611D01*
X170181Y435609D01*
X170179Y435609D01*
G37*
%LPD*%
%LPC*%
G36*
X758189Y436879D02*
X758189Y436879D01*
X758189Y436881D01*
X758191Y436881D01*
X758191Y436879D01*
X758189Y436879D01*
G37*
%LPD*%
%LPC*%
G36*
X859789Y436879D02*
X859789Y436879D01*
X859789Y436881D01*
X859791Y436881D01*
X859791Y436879D01*
X859789Y436879D01*
G37*
%LPD*%
%LPC*%
G36*
X605789Y436879D02*
X605789Y436879D01*
X605789Y436881D01*
X605791Y436881D01*
X605791Y436879D01*
X605789Y436879D01*
G37*
%LPD*%
%LPC*%
G36*
X910589Y132079D02*
X910589Y132079D01*
X910589Y132081D01*
X910591Y132081D01*
X910591Y132079D01*
X910589Y132079D01*
G37*
%LPD*%
%LPC*%
G36*
X707499Y401319D02*
X707499Y401319D01*
X707499Y401321D01*
X707501Y401321D01*
X707501Y401319D01*
X707499Y401319D01*
G37*
%LPD*%
D10*
X43180Y410210D03*
X68580Y410210D03*
X93980Y410210D03*
X119380Y410210D03*
X144780Y410210D03*
X170180Y410210D03*
X195580Y410210D03*
X220980Y410210D03*
X246380Y410210D03*
X271780Y410210D03*
X297180Y410210D03*
X322580Y410210D03*
X347980Y410210D03*
X373380Y410210D03*
X398780Y410210D03*
X424180Y410210D03*
X449580Y410210D03*
X474980Y410210D03*
X500380Y410210D03*
X500380Y156210D03*
X474980Y156210D03*
X449580Y156210D03*
X424180Y156210D03*
X398780Y156210D03*
X373380Y156210D03*
X347980Y156210D03*
X322580Y156210D03*
X297180Y156210D03*
X271780Y156210D03*
X246380Y156210D03*
X220980Y156210D03*
X195580Y156210D03*
X170180Y156210D03*
X144780Y156210D03*
X119380Y156210D03*
X93980Y156210D03*
X68580Y156210D03*
X43180Y156210D03*
D11*
X307340Y243840D03*
X307340Y269240D03*
X307340Y294640D03*
D12*
X307340Y320040D03*
D13*
X910590Y436880D03*
X885190Y436880D03*
X859790Y436880D03*
X834390Y436880D03*
X808990Y436880D03*
X783590Y436880D03*
X758190Y436880D03*
X732790Y436880D03*
X707390Y436880D03*
X681990Y436880D03*
X656590Y436880D03*
X631190Y436880D03*
X605790Y436880D03*
X605790Y132080D03*
X631190Y132080D03*
X656590Y132080D03*
X681990Y132080D03*
X707390Y132080D03*
X732790Y132080D03*
X758190Y132080D03*
X783590Y132080D03*
X808990Y132080D03*
X834390Y132080D03*
X859790Y132080D03*
X885190Y132080D03*
X910590Y132080D03*
D14*
X53340Y509270D03*
X929640Y509270D03*
X53340Y52070D03*
X929640Y52070D03*
D15*
X466852Y307086D03*
X401828Y307086D03*
X466852Y261874D03*
X401828Y261874D03*
D13*
X617220Y321310D03*
X617220Y295910D03*
X617220Y270510D03*
X617220Y245110D03*
D16*
X689500Y401320D03*
X707500Y401320D03*
D17*
X143510Y200660D03*
X158750Y200660D03*
X227330Y200660D03*
X242570Y200660D03*
X262890Y200660D03*
X278130Y200660D03*
X179070Y200660D03*
X194310Y200660D03*
D15*
X43180Y435610D03*
X68580Y435610D03*
X93980Y435610D03*
X119380Y435610D03*
X144780Y435610D03*
X170180Y435610D03*
X195580Y435610D03*
X220980Y435610D03*
X246380Y435610D03*
X271780Y435610D03*
X297180Y435610D03*
X322580Y435610D03*
X347980Y435610D03*
X373380Y435610D03*
X398780Y435610D03*
X424180Y435610D03*
X449580Y435610D03*
X474980Y435610D03*
X500380Y435610D03*
X43180Y132080D03*
X68580Y132080D03*
X93980Y132080D03*
X119380Y132080D03*
X144780Y132080D03*
X170180Y132080D03*
X195580Y132080D03*
X220980Y132080D03*
X246380Y132080D03*
X271780Y132080D03*
X297180Y132080D03*
X322580Y132080D03*
X347980Y132080D03*
X373380Y132080D03*
X398780Y132080D03*
X424180Y132080D03*
X449580Y132080D03*
X474980Y132080D03*
X500380Y132080D03*
D18*
X237490Y293370D03*
X668020Y267970D03*
D19*
X712470Y401320D03*
D20*
X707500Y401320D01*
D19*
X195580Y267970D03*
X707390Y295910D03*
D21*
X496570Y295910D03*
D20*
X496570Y339090D02*
X496570Y406400D01*
X496570Y339090D02*
X496570Y295910D01*
X496570Y406400D02*
X500380Y410210D01*
D19*
X458470Y337820D03*
X195580Y237490D03*
D22*
X227330Y228600D02*
X227330Y200660D01*
X218440Y237490D02*
X195580Y237490D01*
X218440Y237490D02*
X227330Y228600D01*
X179070Y229870D02*
X179070Y200660D01*
X186690Y237490D02*
X195580Y237490D01*
X186690Y237490D02*
X179070Y229870D01*
D23*
X458470Y337820D02*
X495300Y337820D01*
X496570Y339090D01*
D20*
X500380Y410210D02*
X500380Y435610D01*
D24*
X323088Y294640D02*
X307340Y294640D01*
X323088Y294640D02*
X328168Y289560D01*
X328168Y264857D01*
X366776Y226249D01*
X366776Y176276D02*
X360680Y170180D01*
X360680Y151130D01*
X366776Y145034D01*
X447040Y145034D02*
X449580Y147574D01*
X449580Y156210D01*
X366776Y176276D02*
X366776Y226249D01*
X366776Y145034D02*
X447040Y145034D01*
X328422Y320040D02*
X307340Y320040D01*
X328422Y320040D02*
X333502Y314960D01*
X333502Y266541D01*
X373380Y226663D02*
X373380Y156210D01*
X373380Y226663D02*
X333502Y266541D01*
X322580Y156210D02*
X322580Y132080D01*
X297180Y132080D02*
X297180Y156210D01*
X297180Y132080D02*
X297180Y125730D01*
X309340Y113570D02*
X765080Y113570D01*
X783590Y132080D01*
X309340Y113570D02*
X297180Y125730D01*
X271780Y132080D02*
X271780Y156210D01*
X119380Y156210D02*
X119380Y132080D01*
D18*
X668020Y306070D03*
D19*
X683260Y401320D03*
D20*
X689500Y401320D01*
X683260Y401320D02*
X674370Y401320D01*
X656590Y419100D01*
X656590Y436880D01*
D19*
X707390Y326390D03*
D20*
X43180Y410210D02*
X43180Y435610D01*
D19*
X407670Y337820D03*
D23*
X407670Y378460D01*
X425450Y396240D01*
X425450Y408940D01*
X424180Y410210D01*
X431800Y337820D02*
X407670Y337820D01*
X435610Y334010D02*
X435610Y314960D01*
X443484Y307086D01*
X466852Y307086D01*
X435610Y334010D02*
X431800Y337820D01*
D24*
X424180Y410210D02*
X424180Y435610D01*
X656590Y146050D02*
X656590Y132080D01*
X650494Y152146D02*
X650494Y187103D01*
X650494Y152146D02*
X656590Y146050D01*
X650494Y187103D02*
X636683Y200914D01*
X425196Y200914D01*
X349504Y276606D01*
X349504Y408686D02*
X347980Y410210D01*
X349504Y408686D02*
X349504Y276606D01*
X347980Y410210D02*
X347980Y435610D01*
X643890Y185420D02*
X643890Y144780D01*
X631190Y132080D01*
X633730Y195580D02*
X421640Y195580D01*
X344170Y273050D01*
X344170Y388620D02*
X322580Y410210D01*
X633730Y195580D02*
X643890Y185420D01*
X344170Y273050D02*
X344170Y388620D01*
X322580Y410210D02*
X322580Y435610D01*
X271780Y435610D02*
X271780Y410210D01*
X732790Y132080D02*
X732790Y127000D01*
X723900Y118110D01*
X549910Y118110D01*
X528320Y139700D02*
X528320Y177800D01*
X515874Y190246D01*
X338836Y269494D02*
X338836Y369570D01*
X331216Y377190D01*
X262890Y377190D02*
X246380Y393700D01*
X246380Y408940D01*
X246380Y410210D01*
X528320Y139700D02*
X549910Y118110D01*
X515874Y190246D02*
X418084Y190246D01*
X338836Y269494D01*
X331216Y377190D02*
X262890Y377190D01*
X246380Y410210D02*
X246380Y435610D01*
X732790Y436880D02*
X732790Y430530D01*
X726440Y424180D01*
X699770Y424180D01*
X694690Y429260D01*
X694690Y446373D02*
X688006Y453056D01*
X237490Y453056D02*
X234616Y453056D01*
X237490Y453056D02*
X688006Y453056D01*
X694690Y446373D02*
X694690Y429260D01*
X220980Y435610D02*
X220980Y410210D01*
X225726Y453056D02*
X234616Y453056D01*
X220980Y448310D02*
X220980Y435610D01*
X220980Y448310D02*
X225726Y453056D01*
X167640Y459740D02*
X166370Y459740D01*
X167640Y459740D02*
X698500Y459740D01*
X707390Y450850D01*
X707390Y436880D01*
X144780Y435610D02*
X144780Y410210D01*
X152400Y459740D02*
X166370Y459740D01*
X152400Y459740D02*
X144780Y452120D01*
X144780Y435610D01*
D18*
X237490Y257810D03*
D22*
X242570Y173990D02*
X300990Y173990D01*
X308610Y181610D01*
X308610Y242570D01*
X307340Y243840D01*
X242570Y173990D02*
X163830Y173990D01*
X158750Y179070D01*
X158750Y200660D01*
X242570Y200660D02*
X242570Y173990D01*
X278130Y200660D02*
X278130Y255270D01*
X292100Y269240D02*
X307340Y269240D01*
X292100Y269240D02*
X278130Y255270D01*
X194310Y200660D02*
X194310Y186690D01*
X278130Y186690D02*
X278130Y200660D01*
D25*
X194310Y186690D03*
X278130Y186690D03*
D24*
X43180Y156210D02*
X43180Y132080D01*
X68580Y132080D02*
X68580Y156210D01*
X93980Y156210D02*
X93980Y132080D01*
X144780Y132080D02*
X144780Y156210D01*
X170180Y156210D02*
X170180Y132080D01*
X195580Y132080D02*
X195580Y156210D01*
X220980Y156210D02*
X220980Y132080D01*
X246380Y132080D02*
X246380Y156210D01*
X373380Y410210D02*
X373380Y435610D01*
X297180Y435610D02*
X297180Y410210D01*
X195580Y410210D02*
X195580Y435610D01*
X119380Y435610D02*
X119380Y410210D01*
X93980Y410210D02*
X93980Y435610D01*
X68580Y435610D02*
X68580Y410210D01*
X474980Y410210D02*
X474980Y435610D01*
X449580Y435610D02*
X449580Y410210D01*
X398780Y410210D02*
X398780Y435610D01*
M02*
