G04 EAGLE Gerber RS-274X export*
G75*
%MOMM*%
%FSLAX34Y34*%
%LPD*%
%INBottom Copper*%
%IPPOS*%
%AMOC8*
5,1,8,0,0,1.08239X$1,22.5*%
G01*
%ADD10C,1.665000*%
%ADD11C,1.778000*%
%ADD12R,2.700000X2.550000*%
%ADD13R,1.200000X0.800000*%
%ADD14C,1.508000*%
%ADD15C,5.842000*%
%ADD16C,1.879600*%
%ADD17R,1.400000X1.400000*%
%ADD18R,1.270000X2.060000*%
%ADD19C,1.500000*%
%ADD20C,0.200000*%
%ADD21C,1.106400*%
%ADD22C,0.609600*%
%ADD23C,0.756400*%
%ADD24C,0.254000*%
%ADD25C,0.812800*%
%ADD26C,0.706400*%

G36*
X927129Y4005D02*
X927129Y4005D01*
X927156Y4002D01*
X932284Y4290D01*
X932375Y4309D01*
X932450Y4314D01*
X942449Y6596D01*
X942573Y6643D01*
X942660Y6670D01*
X951901Y11120D01*
X951942Y11148D01*
X951951Y11152D01*
X951961Y11160D01*
X952011Y11193D01*
X952090Y11239D01*
X960109Y17633D01*
X960199Y17730D01*
X960267Y17791D01*
X966661Y25810D01*
X966728Y25924D01*
X966780Y25999D01*
X971230Y35240D01*
X971270Y35366D01*
X971304Y35451D01*
X973586Y45450D01*
X973594Y45542D01*
X973610Y45616D01*
X973898Y50744D01*
X973895Y50774D01*
X973899Y50800D01*
X973899Y166589D01*
X973887Y166675D01*
X973884Y166762D01*
X973867Y166814D01*
X973859Y166869D01*
X973824Y166947D01*
X973797Y167030D01*
X973766Y167076D01*
X973743Y167125D01*
X973687Y167191D01*
X973638Y167263D01*
X973596Y167298D01*
X973560Y167340D01*
X973487Y167387D01*
X973420Y167442D01*
X973370Y167464D01*
X973324Y167494D01*
X973241Y167520D01*
X973161Y167554D01*
X973107Y167561D01*
X973054Y167577D01*
X972967Y167578D01*
X972881Y167588D01*
X972827Y167580D01*
X972772Y167580D01*
X972688Y167557D01*
X972603Y167543D01*
X972553Y167520D01*
X972500Y167505D01*
X972426Y167460D01*
X972348Y167422D01*
X972307Y167386D01*
X972260Y167357D01*
X972202Y167293D01*
X972137Y167235D01*
X972111Y167191D01*
X972071Y167148D01*
X972022Y167045D01*
X971977Y166972D01*
X970721Y163939D01*
X966361Y159579D01*
X960663Y157219D01*
X954497Y157219D01*
X948799Y159579D01*
X944439Y163939D01*
X942079Y169637D01*
X942079Y175803D01*
X944439Y181501D01*
X948799Y185861D01*
X954497Y188221D01*
X960663Y188221D01*
X966361Y185861D01*
X970721Y181501D01*
X971977Y178468D01*
X972021Y178394D01*
X972057Y178315D01*
X972092Y178273D01*
X972120Y178226D01*
X972184Y178166D01*
X972240Y178100D01*
X972286Y178070D01*
X972326Y178033D01*
X972403Y177993D01*
X972476Y177946D01*
X972529Y177930D01*
X972578Y177905D01*
X972663Y177889D01*
X972746Y177863D01*
X972801Y177863D01*
X972855Y177852D01*
X972941Y177861D01*
X973028Y177860D01*
X973081Y177874D01*
X973135Y177880D01*
X973216Y177912D01*
X973300Y177935D01*
X973347Y177964D01*
X973397Y177984D01*
X973466Y178037D01*
X973540Y178083D01*
X973577Y178124D01*
X973620Y178158D01*
X973670Y178228D01*
X973729Y178292D01*
X973753Y178342D01*
X973785Y178386D01*
X973814Y178468D01*
X973852Y178546D01*
X973860Y178597D01*
X973879Y178652D01*
X973882Y178698D01*
X973887Y178715D01*
X973888Y178780D01*
X973899Y178851D01*
X973899Y387569D01*
X973887Y387655D01*
X973884Y387742D01*
X973867Y387794D01*
X973859Y387849D01*
X973824Y387927D01*
X973797Y388010D01*
X973766Y388056D01*
X973743Y388105D01*
X973687Y388171D01*
X973638Y388243D01*
X973596Y388278D01*
X973560Y388320D01*
X973487Y388367D01*
X973420Y388422D01*
X973370Y388444D01*
X973324Y388474D01*
X973241Y388500D01*
X973161Y388534D01*
X973107Y388541D01*
X973054Y388557D01*
X972967Y388558D01*
X972881Y388568D01*
X972827Y388560D01*
X972772Y388560D01*
X972688Y388537D01*
X972603Y388523D01*
X972553Y388500D01*
X972500Y388485D01*
X972426Y388440D01*
X972348Y388402D01*
X972307Y388366D01*
X972260Y388337D01*
X972202Y388273D01*
X972137Y388215D01*
X972111Y388171D01*
X972071Y388128D01*
X972022Y388025D01*
X971977Y387952D01*
X970721Y384919D01*
X966361Y380559D01*
X960663Y378199D01*
X954497Y378199D01*
X948799Y380559D01*
X944439Y384919D01*
X942079Y390617D01*
X942079Y396783D01*
X944439Y402481D01*
X948799Y406841D01*
X954497Y409201D01*
X960663Y409201D01*
X966361Y406841D01*
X970721Y402481D01*
X971977Y399448D01*
X972021Y399374D01*
X972057Y399295D01*
X972092Y399253D01*
X972120Y399206D01*
X972184Y399146D01*
X972240Y399080D01*
X972286Y399050D01*
X972326Y399013D01*
X972403Y398973D01*
X972476Y398926D01*
X972529Y398910D01*
X972578Y398885D01*
X972663Y398869D01*
X972746Y398843D01*
X972801Y398843D01*
X972855Y398832D01*
X972941Y398841D01*
X973028Y398840D01*
X973081Y398854D01*
X973135Y398860D01*
X973216Y398892D01*
X973300Y398915D01*
X973347Y398944D01*
X973397Y398964D01*
X973466Y399017D01*
X973540Y399063D01*
X973577Y399104D01*
X973620Y399138D01*
X973670Y399208D01*
X973729Y399272D01*
X973753Y399322D01*
X973785Y399366D01*
X973814Y399448D01*
X973852Y399526D01*
X973860Y399577D01*
X973879Y399632D01*
X973886Y399746D01*
X973899Y399831D01*
X973899Y508000D01*
X973895Y508029D01*
X973898Y508056D01*
X973610Y513184D01*
X973591Y513275D01*
X973586Y513350D01*
X971304Y523349D01*
X971257Y523473D01*
X971230Y523560D01*
X966780Y532801D01*
X966707Y532911D01*
X966661Y532990D01*
X960267Y541009D01*
X960170Y541099D01*
X960109Y541167D01*
X952090Y547561D01*
X951976Y547628D01*
X951901Y547680D01*
X942660Y552130D01*
X942534Y552170D01*
X942449Y552204D01*
X932450Y554486D01*
X932358Y554494D01*
X932284Y554510D01*
X927156Y554798D01*
X927126Y554795D01*
X927100Y554799D01*
X50800Y554799D01*
X50771Y554795D01*
X50744Y554798D01*
X45616Y554510D01*
X45525Y554491D01*
X45450Y554486D01*
X35451Y552204D01*
X35327Y552157D01*
X35240Y552130D01*
X25999Y547680D01*
X25889Y547607D01*
X25810Y547561D01*
X17791Y541167D01*
X17701Y541070D01*
X17633Y541009D01*
X11239Y532990D01*
X11172Y532876D01*
X11120Y532801D01*
X6670Y523560D01*
X6630Y523434D01*
X6596Y523349D01*
X4314Y513350D01*
X4306Y513258D01*
X4290Y513184D01*
X4002Y508056D01*
X4005Y508026D01*
X4001Y508000D01*
X4001Y50800D01*
X4005Y50770D01*
X4002Y50744D01*
X4290Y45616D01*
X4309Y45525D01*
X4314Y45450D01*
X6596Y35451D01*
X6643Y35327D01*
X6670Y35240D01*
X11120Y25999D01*
X11193Y25889D01*
X11239Y25810D01*
X17633Y17791D01*
X17730Y17701D01*
X17791Y17633D01*
X25810Y11239D01*
X25915Y11177D01*
X25927Y11166D01*
X25944Y11158D01*
X25999Y11120D01*
X35240Y6670D01*
X35366Y6630D01*
X35451Y6596D01*
X45450Y4314D01*
X45542Y4306D01*
X45616Y4290D01*
X50744Y4002D01*
X50774Y4005D01*
X50800Y4001D01*
X927100Y4001D01*
X927129Y4005D01*
G37*
%LPC*%
G36*
X472713Y92741D02*
X472713Y92741D01*
X468523Y94477D01*
X465317Y97683D01*
X463581Y101873D01*
X463581Y106407D01*
X465317Y110597D01*
X468523Y113803D01*
X471092Y114868D01*
X471101Y114872D01*
X471110Y114875D01*
X471222Y114944D01*
X471335Y115011D01*
X471342Y115018D01*
X471350Y115023D01*
X471438Y115121D01*
X471528Y115217D01*
X471532Y115225D01*
X471539Y115232D01*
X471596Y115351D01*
X471656Y115468D01*
X471658Y115478D01*
X471662Y115486D01*
X471674Y115562D01*
X471708Y115745D01*
X471706Y115769D01*
X471709Y115791D01*
X471709Y144451D01*
X471708Y144460D01*
X471709Y144469D01*
X471688Y144599D01*
X471669Y144730D01*
X471666Y144738D01*
X471664Y144748D01*
X471607Y144867D01*
X471553Y144987D01*
X471547Y144994D01*
X471543Y145003D01*
X471455Y145101D01*
X471370Y145201D01*
X471362Y145206D01*
X471356Y145213D01*
X471290Y145253D01*
X471134Y145356D01*
X471111Y145363D01*
X471092Y145374D01*
X469131Y146186D01*
X466226Y149091D01*
X464654Y152886D01*
X464654Y156994D01*
X466226Y160789D01*
X469131Y163694D01*
X469822Y163980D01*
X469831Y163985D01*
X469840Y163987D01*
X469919Y164036D01*
X469920Y164037D01*
X469921Y164037D01*
X469952Y164057D01*
X470065Y164124D01*
X470072Y164131D01*
X470080Y164136D01*
X470168Y164233D01*
X470258Y164329D01*
X470262Y164338D01*
X470269Y164345D01*
X470326Y164463D01*
X470386Y164581D01*
X470388Y164590D01*
X470392Y164599D01*
X470404Y164675D01*
X470438Y164858D01*
X470436Y164882D01*
X470439Y164903D01*
X470439Y182965D01*
X472648Y185173D01*
X483412Y195937D01*
X483431Y195963D01*
X483456Y195984D01*
X483516Y196076D01*
X483581Y196163D01*
X483593Y196193D01*
X483610Y196220D01*
X483642Y196325D01*
X483681Y196427D01*
X483683Y196459D01*
X483693Y196490D01*
X483694Y196599D01*
X483703Y196708D01*
X483696Y196740D01*
X483696Y196772D01*
X483667Y196877D01*
X483645Y196984D01*
X483630Y197013D01*
X483621Y197044D01*
X483564Y197137D01*
X483512Y197233D01*
X483490Y197256D01*
X483473Y197284D01*
X483392Y197357D01*
X483316Y197435D01*
X483288Y197451D01*
X483264Y197473D01*
X483165Y197520D01*
X483070Y197574D01*
X483039Y197582D01*
X483010Y197596D01*
X482921Y197610D01*
X482796Y197639D01*
X482747Y197637D01*
X482705Y197643D01*
X342383Y197643D01*
X342288Y197630D01*
X342192Y197625D01*
X342148Y197610D01*
X342103Y197603D01*
X342016Y197564D01*
X341925Y197532D01*
X341891Y197507D01*
X341847Y197487D01*
X341749Y197404D01*
X341676Y197351D01*
X326143Y181818D01*
X326086Y181741D01*
X326021Y181670D01*
X326001Y181629D01*
X325974Y181592D01*
X325940Y181502D01*
X325898Y181416D01*
X325892Y181374D01*
X325875Y181328D01*
X325865Y181201D01*
X325851Y181111D01*
X325851Y165429D01*
X325852Y165420D01*
X325851Y165411D01*
X325872Y165281D01*
X325891Y165150D01*
X325894Y165142D01*
X325896Y165132D01*
X325953Y165013D01*
X326007Y164893D01*
X326013Y164886D01*
X326017Y164877D01*
X326105Y164779D01*
X326190Y164679D01*
X326198Y164674D01*
X326204Y164667D01*
X326270Y164627D01*
X326426Y164524D01*
X326449Y164517D01*
X326468Y164506D01*
X328429Y163694D01*
X331334Y160789D01*
X332906Y156994D01*
X332906Y152886D01*
X331334Y149091D01*
X328429Y146186D01*
X324634Y144614D01*
X320526Y144614D01*
X316731Y146186D01*
X313826Y149091D01*
X312254Y152886D01*
X312254Y156994D01*
X313826Y160789D01*
X316731Y163694D01*
X318692Y164506D01*
X318701Y164511D01*
X318710Y164514D01*
X318822Y164583D01*
X318935Y164650D01*
X318942Y164657D01*
X318950Y164662D01*
X319038Y164760D01*
X319128Y164856D01*
X319132Y164864D01*
X319139Y164871D01*
X319196Y164989D01*
X319256Y165107D01*
X319258Y165116D01*
X319262Y165125D01*
X319274Y165201D01*
X319308Y165384D01*
X319306Y165408D01*
X319309Y165429D01*
X319309Y178992D01*
X319305Y179024D01*
X319307Y179056D01*
X319285Y179163D01*
X319269Y179271D01*
X319256Y179301D01*
X319250Y179332D01*
X319198Y179428D01*
X319153Y179528D01*
X319132Y179553D01*
X319117Y179581D01*
X319041Y179659D01*
X318970Y179742D01*
X318943Y179760D01*
X318920Y179783D01*
X318825Y179837D01*
X318734Y179897D01*
X318703Y179906D01*
X318675Y179922D01*
X318568Y179947D01*
X318464Y179979D01*
X318432Y179980D01*
X318401Y179987D01*
X318291Y179982D01*
X318182Y179983D01*
X318151Y179974D01*
X318119Y179973D01*
X318016Y179937D01*
X317910Y179908D01*
X317883Y179891D01*
X317852Y179880D01*
X317779Y179827D01*
X317670Y179760D01*
X317638Y179724D01*
X317603Y179698D01*
X311164Y173259D01*
X132579Y173259D01*
X132484Y173246D01*
X132388Y173241D01*
X132344Y173226D01*
X132299Y173219D01*
X132212Y173180D01*
X132121Y173148D01*
X132087Y173123D01*
X132043Y173103D01*
X131945Y173020D01*
X131872Y172967D01*
X124427Y165521D01*
X124356Y165427D01*
X124280Y165335D01*
X124271Y165314D01*
X124258Y165296D01*
X124216Y165185D01*
X124169Y165076D01*
X124166Y165053D01*
X124158Y165032D01*
X124149Y164914D01*
X124134Y164796D01*
X124138Y164774D01*
X124136Y164751D01*
X124161Y164635D01*
X124180Y164518D01*
X124189Y164497D01*
X124194Y164475D01*
X124250Y164370D01*
X124301Y164263D01*
X124316Y164246D01*
X124326Y164226D01*
X124409Y164141D01*
X124488Y164052D01*
X124506Y164041D01*
X124523Y164024D01*
X124685Y163932D01*
X124751Y163892D01*
X125229Y163694D01*
X128134Y160789D01*
X129706Y156994D01*
X129706Y152886D01*
X128134Y149091D01*
X125229Y146186D01*
X121434Y144614D01*
X117326Y144614D01*
X113531Y146186D01*
X110626Y149091D01*
X109054Y152886D01*
X109054Y156994D01*
X110626Y160789D01*
X113531Y163694D01*
X115492Y164506D01*
X115501Y164511D01*
X115510Y164514D01*
X115622Y164583D01*
X115735Y164650D01*
X115742Y164657D01*
X115750Y164662D01*
X115838Y164760D01*
X115928Y164856D01*
X115932Y164864D01*
X115939Y164871D01*
X115996Y164989D01*
X116056Y165107D01*
X116058Y165116D01*
X116062Y165125D01*
X116074Y165201D01*
X116108Y165384D01*
X116106Y165408D01*
X116109Y165429D01*
X116109Y166455D01*
X129455Y179801D01*
X191461Y179801D01*
X191547Y179813D01*
X191634Y179816D01*
X191686Y179833D01*
X191740Y179841D01*
X191819Y179876D01*
X191902Y179903D01*
X191947Y179934D01*
X191997Y179957D01*
X192063Y180013D01*
X192135Y180062D01*
X192170Y180105D01*
X192211Y180140D01*
X192259Y180213D01*
X192314Y180280D01*
X192336Y180330D01*
X192366Y180376D01*
X192391Y180459D01*
X192425Y180539D01*
X192432Y180593D01*
X192448Y180646D01*
X192449Y180733D01*
X192460Y180819D01*
X192451Y180873D01*
X192452Y180928D01*
X192429Y181012D01*
X192415Y181097D01*
X192391Y181147D01*
X192377Y181200D01*
X192331Y181274D01*
X192294Y181352D01*
X192257Y181393D01*
X192229Y181440D01*
X192164Y181498D01*
X192106Y181563D01*
X192063Y181589D01*
X192019Y181629D01*
X191917Y181678D01*
X191843Y181723D01*
X191176Y182000D01*
X189620Y183556D01*
X189212Y184541D01*
X189190Y184577D01*
X189177Y184616D01*
X189126Y184686D01*
X189068Y184784D01*
X189025Y184824D01*
X188995Y184865D01*
X156951Y216909D01*
X153701Y220159D01*
X153701Y280705D01*
X153688Y280800D01*
X153683Y280896D01*
X153668Y280939D01*
X153661Y280984D01*
X153622Y281072D01*
X153590Y281162D01*
X153565Y281197D01*
X153545Y281241D01*
X153462Y281338D01*
X153409Y281411D01*
X145521Y289299D01*
X145445Y289356D01*
X145373Y289421D01*
X145332Y289441D01*
X145296Y289468D01*
X145206Y289502D01*
X145119Y289544D01*
X145077Y289550D01*
X145032Y289567D01*
X144904Y289577D01*
X144815Y289591D01*
X38854Y289591D01*
X38845Y289590D01*
X38836Y289591D01*
X38706Y289570D01*
X38575Y289551D01*
X38567Y289548D01*
X38557Y289546D01*
X38438Y289489D01*
X38318Y289435D01*
X38311Y289429D01*
X38302Y289425D01*
X38204Y289337D01*
X38104Y289252D01*
X38099Y289244D01*
X38092Y289238D01*
X38052Y289172D01*
X37949Y289016D01*
X37942Y288993D01*
X37931Y288974D01*
X37603Y288183D01*
X34397Y284977D01*
X30207Y283241D01*
X25673Y283241D01*
X21483Y284977D01*
X18979Y287481D01*
X18953Y287501D01*
X18932Y287525D01*
X18840Y287585D01*
X18753Y287650D01*
X18723Y287662D01*
X18696Y287680D01*
X18591Y287712D01*
X18489Y287750D01*
X18457Y287753D01*
X18426Y287762D01*
X18317Y287763D01*
X18208Y287772D01*
X18176Y287765D01*
X18144Y287766D01*
X18039Y287736D01*
X17932Y287714D01*
X17903Y287699D01*
X17872Y287690D01*
X17779Y287633D01*
X17683Y287582D01*
X17660Y287559D01*
X17632Y287542D01*
X17559Y287461D01*
X17481Y287385D01*
X17465Y287357D01*
X17443Y287333D01*
X17396Y287235D01*
X17342Y287140D01*
X17334Y287108D01*
X17320Y287079D01*
X17306Y286990D01*
X17277Y286865D01*
X17279Y286817D01*
X17273Y286775D01*
X17273Y284565D01*
X17286Y284470D01*
X17291Y284374D01*
X17306Y284331D01*
X17313Y284286D01*
X17352Y284198D01*
X17384Y284107D01*
X17409Y284073D01*
X17429Y284029D01*
X17512Y283931D01*
X17565Y283858D01*
X21744Y279679D01*
X21752Y279674D01*
X21758Y279666D01*
X21865Y279589D01*
X21970Y279510D01*
X21979Y279507D01*
X21987Y279501D01*
X22110Y279457D01*
X22234Y279410D01*
X22243Y279410D01*
X22252Y279407D01*
X22384Y279399D01*
X22515Y279389D01*
X22524Y279391D01*
X22534Y279390D01*
X22609Y279408D01*
X22791Y279446D01*
X22812Y279458D01*
X22833Y279463D01*
X25673Y280639D01*
X30207Y280639D01*
X34397Y278903D01*
X37603Y275697D01*
X39339Y271507D01*
X39339Y266973D01*
X37603Y262783D01*
X34397Y259577D01*
X30207Y257841D01*
X25673Y257841D01*
X21483Y259577D01*
X18277Y262783D01*
X16541Y266973D01*
X16541Y271507D01*
X17717Y274347D01*
X17720Y274356D01*
X17724Y274364D01*
X17755Y274493D01*
X17787Y274620D01*
X17787Y274629D01*
X17789Y274638D01*
X17783Y274771D01*
X17778Y274902D01*
X17775Y274911D01*
X17775Y274920D01*
X17732Y275044D01*
X17691Y275170D01*
X17686Y275178D01*
X17682Y275187D01*
X17637Y275248D01*
X17532Y275403D01*
X17514Y275418D01*
X17501Y275436D01*
X14979Y277958D01*
X14953Y277977D01*
X14932Y278002D01*
X14840Y278062D01*
X14753Y278127D01*
X14723Y278138D01*
X14696Y278156D01*
X14591Y278188D01*
X14489Y278227D01*
X14457Y278229D01*
X14426Y278238D01*
X14317Y278240D01*
X14208Y278248D01*
X14176Y278242D01*
X14144Y278242D01*
X14039Y278213D01*
X13932Y278191D01*
X13903Y278176D01*
X13872Y278167D01*
X13779Y278110D01*
X13683Y278058D01*
X13660Y278036D01*
X13632Y278019D01*
X13559Y277938D01*
X13481Y277862D01*
X13465Y277834D01*
X13443Y277810D01*
X13396Y277711D01*
X13342Y277616D01*
X13334Y277585D01*
X13320Y277556D01*
X13306Y277467D01*
X13277Y277342D01*
X13279Y277293D01*
X13273Y277251D01*
X13273Y263165D01*
X13286Y263070D01*
X13291Y262974D01*
X13306Y262931D01*
X13313Y262886D01*
X13352Y262798D01*
X13384Y262707D01*
X13409Y262673D01*
X13429Y262629D01*
X13512Y262531D01*
X13565Y262458D01*
X21744Y254279D01*
X21752Y254274D01*
X21758Y254266D01*
X21865Y254189D01*
X21970Y254110D01*
X21979Y254107D01*
X21987Y254101D01*
X22110Y254057D01*
X22234Y254010D01*
X22243Y254010D01*
X22252Y254007D01*
X22384Y253999D01*
X22515Y253989D01*
X22524Y253991D01*
X22534Y253990D01*
X22609Y254008D01*
X22791Y254046D01*
X22812Y254058D01*
X22833Y254063D01*
X25673Y255239D01*
X30207Y255239D01*
X34397Y253503D01*
X37603Y250297D01*
X39339Y246107D01*
X39339Y241573D01*
X37603Y237383D01*
X34397Y234177D01*
X30207Y232441D01*
X25673Y232441D01*
X21483Y234177D01*
X18277Y237383D01*
X16541Y241573D01*
X16541Y246107D01*
X17717Y248947D01*
X17720Y248956D01*
X17724Y248964D01*
X17755Y249093D01*
X17787Y249220D01*
X17787Y249229D01*
X17789Y249238D01*
X17783Y249371D01*
X17778Y249502D01*
X17775Y249511D01*
X17775Y249520D01*
X17732Y249645D01*
X17691Y249770D01*
X17686Y249778D01*
X17682Y249787D01*
X17637Y249849D01*
X17532Y250003D01*
X17513Y250018D01*
X17501Y250036D01*
X7271Y260265D01*
X7271Y334672D01*
X17420Y344821D01*
X275373Y344821D01*
X295842Y324351D01*
X295937Y324280D01*
X296029Y324205D01*
X296050Y324196D01*
X296068Y324182D01*
X296179Y324140D01*
X296288Y324093D01*
X296310Y324091D01*
X296332Y324083D01*
X296450Y324073D01*
X296568Y324059D01*
X296590Y324063D01*
X296613Y324061D01*
X296729Y324085D01*
X296846Y324104D01*
X296867Y324114D01*
X296889Y324118D01*
X296994Y324174D01*
X297101Y324225D01*
X297118Y324240D01*
X297138Y324251D01*
X297223Y324334D01*
X297312Y324412D01*
X297323Y324431D01*
X297340Y324448D01*
X297432Y324610D01*
X297472Y324676D01*
X298107Y326209D01*
X301171Y329273D01*
X305174Y330931D01*
X309506Y330931D01*
X313509Y329273D01*
X316573Y326209D01*
X318231Y322206D01*
X318231Y317874D01*
X316573Y313871D01*
X313509Y310807D01*
X309506Y309149D01*
X305174Y309149D01*
X301171Y310807D01*
X298107Y313871D01*
X297050Y316422D01*
X297046Y316431D01*
X297043Y316440D01*
X296974Y316552D01*
X296907Y316665D01*
X296900Y316672D01*
X296895Y316680D01*
X296797Y316768D01*
X296701Y316858D01*
X296693Y316862D01*
X296686Y316869D01*
X296567Y316926D01*
X296450Y316986D01*
X296440Y316988D01*
X296432Y316992D01*
X296356Y317004D01*
X296173Y317038D01*
X296149Y317036D01*
X296127Y317039D01*
X294667Y317039D01*
X290457Y321250D01*
X290431Y321269D01*
X290410Y321294D01*
X290318Y321354D01*
X290231Y321419D01*
X290201Y321430D01*
X290174Y321448D01*
X290069Y321480D01*
X289967Y321519D01*
X289935Y321521D01*
X289904Y321530D01*
X289795Y321532D01*
X289686Y321540D01*
X289654Y321534D01*
X289622Y321534D01*
X289517Y321505D01*
X289410Y321483D01*
X289381Y321468D01*
X289350Y321459D01*
X289257Y321402D01*
X289161Y321350D01*
X289138Y321328D01*
X289110Y321311D01*
X289037Y321230D01*
X288959Y321154D01*
X288943Y321126D01*
X288921Y321102D01*
X288874Y321003D01*
X288820Y320908D01*
X288812Y320877D01*
X288798Y320848D01*
X288784Y320759D01*
X288755Y320634D01*
X288757Y320585D01*
X288751Y320543D01*
X288751Y305187D01*
X288764Y305092D01*
X288769Y304996D01*
X288784Y304953D01*
X288791Y304908D01*
X288830Y304820D01*
X288862Y304729D01*
X288887Y304695D01*
X288907Y304651D01*
X288990Y304554D01*
X289043Y304480D01*
X295470Y298053D01*
X295560Y297986D01*
X295599Y297951D01*
X295609Y297946D01*
X295657Y297907D01*
X295678Y297898D01*
X295696Y297884D01*
X295807Y297842D01*
X295916Y297795D01*
X295938Y297793D01*
X295960Y297785D01*
X296078Y297775D01*
X296196Y297761D01*
X296218Y297765D01*
X296241Y297763D01*
X296357Y297787D01*
X296474Y297806D01*
X296495Y297816D01*
X296517Y297820D01*
X296622Y297876D01*
X296729Y297927D01*
X296746Y297942D01*
X296766Y297953D01*
X296851Y298036D01*
X296940Y298114D01*
X296951Y298133D01*
X296968Y298150D01*
X297052Y298298D01*
X297090Y298356D01*
X297093Y298366D01*
X297100Y298378D01*
X298107Y300809D01*
X301171Y303873D01*
X305174Y305531D01*
X309506Y305531D01*
X313509Y303873D01*
X316573Y300809D01*
X318231Y296806D01*
X318231Y292474D01*
X316573Y288471D01*
X313509Y285407D01*
X309506Y283749D01*
X305174Y283749D01*
X301171Y285407D01*
X298107Y288471D01*
X297050Y291022D01*
X297046Y291031D01*
X297043Y291040D01*
X296974Y291152D01*
X296907Y291265D01*
X296900Y291272D01*
X296895Y291280D01*
X296797Y291368D01*
X296701Y291458D01*
X296693Y291462D01*
X296686Y291469D01*
X296567Y291526D01*
X296450Y291586D01*
X296440Y291588D01*
X296432Y291592D01*
X296356Y291604D01*
X296173Y291638D01*
X296149Y291636D01*
X296127Y291639D01*
X293397Y291639D01*
X282749Y302287D01*
X282749Y322193D01*
X282736Y322288D01*
X282731Y322384D01*
X282716Y322427D01*
X282709Y322472D01*
X282670Y322560D01*
X282638Y322651D01*
X282613Y322685D01*
X282593Y322729D01*
X282510Y322827D01*
X282457Y322900D01*
X270830Y334527D01*
X270753Y334584D01*
X270682Y334649D01*
X270641Y334669D01*
X270604Y334696D01*
X270514Y334730D01*
X270428Y334772D01*
X270386Y334778D01*
X270340Y334795D01*
X270213Y334805D01*
X270123Y334819D01*
X21977Y334819D01*
X21882Y334806D01*
X21786Y334801D01*
X21743Y334786D01*
X21698Y334779D01*
X21610Y334740D01*
X21519Y334708D01*
X21485Y334683D01*
X21441Y334663D01*
X21343Y334580D01*
X21270Y334527D01*
X17565Y330822D01*
X17508Y330745D01*
X17443Y330674D01*
X17423Y330633D01*
X17396Y330596D01*
X17362Y330506D01*
X17320Y330420D01*
X17314Y330378D01*
X17297Y330332D01*
X17287Y330205D01*
X17273Y330115D01*
X17273Y327905D01*
X17277Y327873D01*
X17275Y327841D01*
X17297Y327734D01*
X17313Y327626D01*
X17326Y327597D01*
X17332Y327565D01*
X17384Y327469D01*
X17429Y327369D01*
X17450Y327345D01*
X17465Y327316D01*
X17541Y327238D01*
X17612Y327155D01*
X17639Y327137D01*
X17662Y327114D01*
X17757Y327060D01*
X17848Y327000D01*
X17879Y326991D01*
X17907Y326975D01*
X18013Y326950D01*
X18118Y326918D01*
X18150Y326918D01*
X18181Y326910D01*
X18291Y326916D01*
X18400Y326914D01*
X18431Y326923D01*
X18463Y326925D01*
X18566Y326960D01*
X18672Y326990D01*
X18699Y327006D01*
X18730Y327017D01*
X18803Y327070D01*
X18912Y327138D01*
X18944Y327174D01*
X18979Y327199D01*
X21483Y329703D01*
X25673Y331439D01*
X30207Y331439D01*
X34397Y329703D01*
X37603Y326497D01*
X39339Y322307D01*
X39339Y317773D01*
X37603Y313583D01*
X34397Y310377D01*
X30207Y308641D01*
X25673Y308641D01*
X21483Y310377D01*
X18979Y312881D01*
X18953Y312901D01*
X18932Y312925D01*
X18840Y312985D01*
X18753Y313050D01*
X18723Y313062D01*
X18696Y313080D01*
X18591Y313112D01*
X18489Y313150D01*
X18457Y313153D01*
X18426Y313162D01*
X18317Y313163D01*
X18208Y313172D01*
X18176Y313165D01*
X18144Y313166D01*
X18039Y313136D01*
X17932Y313114D01*
X17903Y313099D01*
X17872Y313090D01*
X17779Y313033D01*
X17683Y312982D01*
X17660Y312959D01*
X17632Y312942D01*
X17559Y312861D01*
X17481Y312785D01*
X17465Y312757D01*
X17443Y312733D01*
X17396Y312635D01*
X17342Y312540D01*
X17334Y312508D01*
X17320Y312479D01*
X17306Y312390D01*
X17277Y312265D01*
X17279Y312217D01*
X17273Y312175D01*
X17273Y302505D01*
X17277Y302473D01*
X17275Y302441D01*
X17297Y302334D01*
X17313Y302226D01*
X17326Y302197D01*
X17332Y302165D01*
X17384Y302069D01*
X17429Y301969D01*
X17450Y301945D01*
X17465Y301916D01*
X17541Y301838D01*
X17612Y301755D01*
X17639Y301737D01*
X17662Y301714D01*
X17757Y301660D01*
X17848Y301600D01*
X17879Y301591D01*
X17907Y301575D01*
X18013Y301550D01*
X18118Y301518D01*
X18150Y301518D01*
X18181Y301510D01*
X18291Y301516D01*
X18400Y301514D01*
X18431Y301523D01*
X18463Y301525D01*
X18566Y301560D01*
X18672Y301590D01*
X18699Y301606D01*
X18730Y301617D01*
X18803Y301670D01*
X18912Y301738D01*
X18944Y301774D01*
X18979Y301799D01*
X21483Y304303D01*
X25673Y306039D01*
X30207Y306039D01*
X34397Y304303D01*
X37603Y301097D01*
X37931Y300306D01*
X37936Y300297D01*
X37938Y300288D01*
X38008Y300176D01*
X38075Y300063D01*
X38082Y300056D01*
X38087Y300048D01*
X38185Y299960D01*
X38280Y299870D01*
X38289Y299866D01*
X38296Y299859D01*
X38414Y299802D01*
X38532Y299742D01*
X38541Y299740D01*
X38550Y299736D01*
X38626Y299724D01*
X38809Y299690D01*
X38833Y299692D01*
X38854Y299689D01*
X149411Y299689D01*
X163799Y285301D01*
X163799Y224755D01*
X163812Y224660D01*
X163817Y224564D01*
X163832Y224521D01*
X163839Y224476D01*
X163878Y224388D01*
X163910Y224298D01*
X163935Y224263D01*
X163955Y224219D01*
X164038Y224122D01*
X164091Y224049D01*
X196109Y192031D01*
X196185Y191974D01*
X196257Y191909D01*
X196298Y191889D01*
X196334Y191862D01*
X196424Y191828D01*
X196511Y191786D01*
X196553Y191780D01*
X196598Y191763D01*
X196726Y191753D01*
X196815Y191739D01*
X275662Y191739D01*
X275703Y191745D01*
X275745Y191742D01*
X275829Y191762D01*
X275941Y191779D01*
X275995Y191803D01*
X276045Y191815D01*
X277029Y192223D01*
X279231Y192223D01*
X280215Y191815D01*
X280251Y191806D01*
X280279Y191788D01*
X281264Y191380D01*
X282820Y189824D01*
X283228Y188839D01*
X283247Y188808D01*
X283255Y188775D01*
X283663Y187791D01*
X283663Y185589D01*
X283255Y184605D01*
X283246Y184569D01*
X283228Y184541D01*
X282820Y183556D01*
X281264Y182000D01*
X280597Y181723D01*
X280522Y181679D01*
X280443Y181643D01*
X280401Y181608D01*
X280354Y181580D01*
X280295Y181516D01*
X280229Y181460D01*
X280199Y181414D01*
X280161Y181374D01*
X280122Y181297D01*
X280074Y181224D01*
X280058Y181171D01*
X280033Y181122D01*
X280017Y181037D01*
X279992Y180954D01*
X279991Y180899D01*
X279981Y180845D01*
X279989Y180759D01*
X279988Y180672D01*
X280003Y180619D01*
X280008Y180565D01*
X280040Y180484D01*
X280063Y180400D01*
X280092Y180354D01*
X280112Y180303D01*
X280166Y180234D01*
X280211Y180160D01*
X280252Y180124D01*
X280286Y180080D01*
X280356Y180029D01*
X280421Y179971D01*
X280470Y179947D01*
X280515Y179915D01*
X280596Y179886D01*
X280674Y179848D01*
X280725Y179840D01*
X280780Y179821D01*
X280894Y179814D01*
X280979Y179801D01*
X308041Y179801D01*
X308136Y179814D01*
X308232Y179819D01*
X308275Y179834D01*
X308320Y179841D01*
X308407Y179880D01*
X308498Y179912D01*
X308533Y179937D01*
X308577Y179957D01*
X308674Y180040D01*
X308747Y180093D01*
X333671Y205017D01*
X333691Y205043D01*
X333715Y205064D01*
X333775Y205156D01*
X333841Y205243D01*
X333852Y205273D01*
X333870Y205300D01*
X333902Y205405D01*
X333940Y205507D01*
X333943Y205539D01*
X333952Y205570D01*
X333954Y205679D01*
X333962Y205788D01*
X333955Y205820D01*
X333956Y205852D01*
X333927Y205957D01*
X333904Y206064D01*
X333889Y206093D01*
X333881Y206124D01*
X333823Y206217D01*
X333772Y206313D01*
X333749Y206336D01*
X333732Y206364D01*
X333651Y206437D01*
X333575Y206515D01*
X333547Y206531D01*
X333523Y206553D01*
X333425Y206600D01*
X333330Y206654D01*
X333298Y206662D01*
X333269Y206676D01*
X333180Y206690D01*
X333055Y206719D01*
X333007Y206717D01*
X332965Y206723D01*
X290196Y206723D01*
X287967Y207647D01*
X259401Y236213D01*
X259324Y236270D01*
X259252Y236335D01*
X259211Y236355D01*
X259175Y236382D01*
X259085Y236416D01*
X258999Y236458D01*
X258957Y236464D01*
X258911Y236481D01*
X258784Y236491D01*
X258694Y236505D01*
X253990Y236505D01*
X253926Y236496D01*
X253862Y236497D01*
X253787Y236476D01*
X253711Y236465D01*
X253652Y236439D01*
X253590Y236422D01*
X253524Y236381D01*
X253454Y236349D01*
X253405Y236307D01*
X253350Y236274D01*
X253298Y236216D01*
X253240Y236166D01*
X253204Y236112D01*
X253161Y236064D01*
X253128Y235995D01*
X253085Y235930D01*
X253066Y235868D01*
X253038Y235811D01*
X253027Y235741D01*
X253003Y235660D01*
X253002Y235575D01*
X252991Y235506D01*
X252991Y230311D01*
X251819Y229139D01*
X223161Y229139D01*
X221989Y230311D01*
X221989Y237682D01*
X221980Y237746D01*
X221981Y237810D01*
X221960Y237885D01*
X221949Y237961D01*
X221923Y238020D01*
X221906Y238082D01*
X221865Y238148D01*
X221833Y238218D01*
X221791Y238267D01*
X221758Y238322D01*
X221700Y238374D01*
X221650Y238432D01*
X221596Y238468D01*
X221548Y238511D01*
X221479Y238544D01*
X221414Y238587D01*
X221352Y238606D01*
X221295Y238634D01*
X221225Y238645D01*
X221144Y238669D01*
X221059Y238670D01*
X220990Y238681D01*
X204112Y238681D01*
X204048Y238672D01*
X203984Y238673D01*
X203909Y238652D01*
X203833Y238641D01*
X203774Y238615D01*
X203712Y238598D01*
X203646Y238557D01*
X203576Y238525D01*
X203527Y238483D01*
X203472Y238450D01*
X203420Y238392D01*
X203362Y238342D01*
X203326Y238288D01*
X203283Y238240D01*
X203250Y238171D01*
X203207Y238106D01*
X203188Y238044D01*
X203160Y237987D01*
X203149Y237917D01*
X203125Y237836D01*
X203124Y237751D01*
X203113Y237682D01*
X203113Y235992D01*
X201966Y233223D01*
X199847Y231104D01*
X197078Y229957D01*
X194082Y229957D01*
X191313Y231104D01*
X189194Y233223D01*
X188047Y235992D01*
X188047Y238019D01*
X188034Y238115D01*
X188029Y238211D01*
X188014Y238254D01*
X188007Y238299D01*
X187968Y238386D01*
X187936Y238477D01*
X187911Y238511D01*
X187891Y238556D01*
X187808Y238653D01*
X187755Y238726D01*
X187579Y238901D01*
X187579Y248559D01*
X188751Y249731D01*
X202409Y249731D01*
X203068Y249071D01*
X203145Y249014D01*
X203216Y248949D01*
X203257Y248929D01*
X203294Y248902D01*
X203384Y248868D01*
X203470Y248826D01*
X203512Y248820D01*
X203557Y248803D01*
X203685Y248793D01*
X203775Y248779D01*
X220990Y248779D01*
X221054Y248788D01*
X221118Y248787D01*
X221193Y248808D01*
X221269Y248819D01*
X221328Y248845D01*
X221390Y248862D01*
X221456Y248903D01*
X221526Y248935D01*
X221575Y248977D01*
X221630Y249010D01*
X221682Y249068D01*
X221740Y249118D01*
X221776Y249172D01*
X221819Y249220D01*
X221852Y249289D01*
X221895Y249354D01*
X221914Y249416D01*
X221942Y249473D01*
X221953Y249543D01*
X221977Y249624D01*
X221978Y249709D01*
X221989Y249778D01*
X221989Y257469D01*
X223161Y258641D01*
X226990Y258641D01*
X227054Y258650D01*
X227118Y258649D01*
X227193Y258670D01*
X227269Y258681D01*
X227328Y258707D01*
X227390Y258724D01*
X227456Y258765D01*
X227526Y258797D01*
X227575Y258839D01*
X227630Y258872D01*
X227682Y258930D01*
X227740Y258980D01*
X227776Y259034D01*
X227819Y259082D01*
X227852Y259151D01*
X227895Y259216D01*
X227914Y259278D01*
X227942Y259335D01*
X227953Y259405D01*
X227977Y259486D01*
X227978Y259571D01*
X227989Y259640D01*
X227989Y259700D01*
X229436Y263192D01*
X232108Y265864D01*
X235600Y267311D01*
X239380Y267311D01*
X242872Y265864D01*
X245544Y263192D01*
X246991Y259700D01*
X246991Y259640D01*
X247000Y259576D01*
X246999Y259512D01*
X247020Y259437D01*
X247031Y259361D01*
X247057Y259302D01*
X247074Y259240D01*
X247115Y259174D01*
X247147Y259104D01*
X247189Y259055D01*
X247222Y259000D01*
X247280Y258948D01*
X247330Y258890D01*
X247384Y258854D01*
X247432Y258811D01*
X247501Y258778D01*
X247566Y258735D01*
X247628Y258716D01*
X247685Y258688D01*
X247755Y258677D01*
X247836Y258653D01*
X247921Y258652D01*
X247990Y258641D01*
X251819Y258641D01*
X252991Y257469D01*
X252991Y249634D01*
X253000Y249570D01*
X252999Y249506D01*
X253020Y249431D01*
X253031Y249355D01*
X253057Y249296D01*
X253074Y249234D01*
X253115Y249168D01*
X253147Y249098D01*
X253189Y249049D01*
X253222Y248994D01*
X253280Y248942D01*
X253330Y248884D01*
X253384Y248848D01*
X253432Y248805D01*
X253501Y248772D01*
X253566Y248729D01*
X253628Y248710D01*
X253685Y248682D01*
X253755Y248671D01*
X253836Y248647D01*
X253921Y248646D01*
X253990Y248635D01*
X262826Y248635D01*
X265055Y247711D01*
X293621Y219145D01*
X293698Y219088D01*
X293770Y219023D01*
X293811Y219003D01*
X293847Y218976D01*
X293937Y218942D01*
X294023Y218900D01*
X294065Y218894D01*
X294111Y218877D01*
X294238Y218867D01*
X294328Y218853D01*
X474594Y218853D01*
X474689Y218866D01*
X474785Y218871D01*
X474828Y218886D01*
X474873Y218893D01*
X474961Y218932D01*
X475052Y218964D01*
X475086Y218989D01*
X475130Y219009D01*
X475228Y219092D01*
X475301Y219145D01*
X490213Y234057D01*
X490270Y234134D01*
X490335Y234206D01*
X490355Y234247D01*
X490382Y234283D01*
X490416Y234373D01*
X490458Y234459D01*
X490464Y234501D01*
X490481Y234547D01*
X490490Y234664D01*
X490493Y234673D01*
X490494Y234689D01*
X490505Y234764D01*
X490505Y297116D01*
X491429Y299345D01*
X493135Y301051D01*
X495364Y301975D01*
X497776Y301975D01*
X499506Y301258D01*
X499620Y301229D01*
X499734Y301194D01*
X499757Y301194D01*
X499779Y301188D01*
X499897Y301192D01*
X500016Y301191D01*
X500038Y301197D01*
X500061Y301197D01*
X500173Y301234D01*
X500288Y301266D01*
X500307Y301278D01*
X500329Y301285D01*
X500427Y301352D01*
X500528Y301414D01*
X500543Y301431D01*
X500562Y301444D01*
X500637Y301535D01*
X500717Y301623D01*
X500727Y301644D01*
X500741Y301661D01*
X500788Y301771D01*
X500840Y301877D01*
X500843Y301898D01*
X500853Y301920D01*
X500875Y302105D01*
X500887Y302182D01*
X500887Y372426D01*
X501334Y372873D01*
X565466Y372873D01*
X565913Y372426D01*
X565913Y209724D01*
X565922Y209660D01*
X565921Y209596D01*
X565942Y209521D01*
X565953Y209445D01*
X565979Y209386D01*
X565996Y209324D01*
X566037Y209258D01*
X566069Y209188D01*
X566111Y209139D01*
X566144Y209084D01*
X566202Y209032D01*
X566252Y208974D01*
X566306Y208938D01*
X566354Y208895D01*
X566423Y208862D01*
X566488Y208819D01*
X566550Y208800D01*
X566607Y208772D01*
X566677Y208761D01*
X566758Y208737D01*
X566843Y208736D01*
X566912Y208725D01*
X582145Y208725D01*
X582240Y208738D01*
X582336Y208743D01*
X582380Y208758D01*
X582425Y208765D01*
X582512Y208804D01*
X582603Y208836D01*
X582637Y208861D01*
X582681Y208881D01*
X582779Y208964D01*
X582852Y209017D01*
X593337Y219502D01*
X593394Y219579D01*
X593459Y219650D01*
X593479Y219691D01*
X593506Y219728D01*
X593540Y219818D01*
X593582Y219904D01*
X593588Y219946D01*
X593605Y219992D01*
X593615Y220119D01*
X593629Y220209D01*
X593629Y261705D01*
X605705Y273781D01*
X607580Y273781D01*
X607590Y273782D01*
X607599Y273781D01*
X607729Y273802D01*
X607860Y273821D01*
X607868Y273824D01*
X607877Y273826D01*
X607997Y273883D01*
X608116Y273937D01*
X608124Y273943D01*
X608132Y273947D01*
X608231Y274035D01*
X608331Y274120D01*
X608336Y274128D01*
X608343Y274134D01*
X608383Y274200D01*
X608485Y274356D01*
X608489Y274368D01*
X608492Y274374D01*
X608496Y274385D01*
X608503Y274398D01*
X609132Y275914D01*
X611816Y278598D01*
X615322Y280051D01*
X619118Y280051D01*
X622624Y278598D01*
X625308Y275914D01*
X626761Y272408D01*
X626761Y268612D01*
X625308Y265106D01*
X622624Y262422D01*
X619118Y260969D01*
X615322Y260969D01*
X611816Y262422D01*
X609132Y265106D01*
X608869Y265740D01*
X608809Y265842D01*
X608753Y265946D01*
X608737Y265963D01*
X608726Y265982D01*
X608639Y266064D01*
X608556Y266148D01*
X608536Y266160D01*
X608520Y266175D01*
X608414Y266229D01*
X608311Y266287D01*
X608289Y266293D01*
X608268Y266303D01*
X608152Y266325D01*
X608036Y266352D01*
X608014Y266351D01*
X607991Y266355D01*
X607874Y266344D01*
X607755Y266338D01*
X607733Y266331D01*
X607711Y266328D01*
X607601Y266285D01*
X607488Y266246D01*
X607471Y266233D01*
X607449Y266224D01*
X607301Y266109D01*
X607239Y266064D01*
X600463Y259288D01*
X600406Y259211D01*
X600341Y259140D01*
X600321Y259099D01*
X600294Y259062D01*
X600260Y258972D01*
X600218Y258886D01*
X600212Y258844D01*
X600195Y258798D01*
X600185Y258671D01*
X600171Y258581D01*
X600171Y217085D01*
X597962Y214877D01*
X588976Y205891D01*
X588957Y205865D01*
X588932Y205844D01*
X588872Y205752D01*
X588807Y205665D01*
X588795Y205635D01*
X588778Y205608D01*
X588746Y205503D01*
X588707Y205401D01*
X588705Y205369D01*
X588695Y205338D01*
X588694Y205229D01*
X588685Y205120D01*
X588692Y205088D01*
X588692Y205056D01*
X588721Y204951D01*
X588743Y204844D01*
X588758Y204815D01*
X588767Y204784D01*
X588824Y204691D01*
X588876Y204595D01*
X588898Y204572D01*
X588915Y204544D01*
X588996Y204471D01*
X589072Y204393D01*
X589100Y204377D01*
X589124Y204355D01*
X589223Y204308D01*
X589318Y204254D01*
X589349Y204246D01*
X589378Y204232D01*
X589467Y204218D01*
X589592Y204189D01*
X589641Y204191D01*
X589683Y204185D01*
X664708Y204185D01*
X690595Y178298D01*
X690595Y167885D01*
X690608Y167790D01*
X690610Y167756D01*
X690610Y167750D01*
X690610Y167748D01*
X690613Y167694D01*
X690628Y167650D01*
X690635Y167605D01*
X690674Y167518D01*
X690685Y167478D01*
X690692Y167467D01*
X690706Y167427D01*
X690731Y167393D01*
X690751Y167349D01*
X690802Y167289D01*
X690833Y167238D01*
X690864Y167211D01*
X690887Y167178D01*
X710661Y147405D01*
X710661Y141720D01*
X710662Y141710D01*
X710661Y141701D01*
X710682Y141571D01*
X710701Y141440D01*
X710704Y141432D01*
X710706Y141423D01*
X710763Y141303D01*
X710817Y141184D01*
X710823Y141176D01*
X710827Y141168D01*
X710915Y141069D01*
X711000Y140969D01*
X711008Y140964D01*
X711014Y140957D01*
X711080Y140917D01*
X711236Y140815D01*
X711259Y140808D01*
X711278Y140797D01*
X712794Y140168D01*
X715478Y137484D01*
X716931Y133978D01*
X716931Y130182D01*
X715478Y126676D01*
X712794Y123992D01*
X709288Y122539D01*
X705492Y122539D01*
X701986Y123992D01*
X699302Y126676D01*
X697849Y130182D01*
X697849Y133978D01*
X699302Y137484D01*
X701986Y140168D01*
X703502Y140797D01*
X703511Y140801D01*
X703520Y140804D01*
X703632Y140873D01*
X703745Y140940D01*
X703752Y140947D01*
X703760Y140952D01*
X703848Y141050D01*
X703938Y141146D01*
X703942Y141154D01*
X703949Y141161D01*
X704006Y141280D01*
X704066Y141397D01*
X704068Y141407D01*
X704072Y141415D01*
X704084Y141491D01*
X704118Y141674D01*
X704116Y141698D01*
X704119Y141720D01*
X704119Y144281D01*
X704106Y144376D01*
X704101Y144472D01*
X704086Y144516D01*
X704079Y144561D01*
X704040Y144648D01*
X704008Y144739D01*
X703983Y144773D01*
X703963Y144817D01*
X703880Y144915D01*
X703827Y144988D01*
X686967Y161848D01*
X686941Y161867D01*
X686920Y161892D01*
X686828Y161952D01*
X686741Y162017D01*
X686711Y162029D01*
X686684Y162046D01*
X686579Y162078D01*
X686477Y162117D01*
X686445Y162119D01*
X686414Y162129D01*
X686305Y162130D01*
X686196Y162139D01*
X686164Y162132D01*
X686132Y162132D01*
X686027Y162103D01*
X685920Y162081D01*
X685891Y162066D01*
X685860Y162057D01*
X685767Y162000D01*
X685671Y161948D01*
X685648Y161926D01*
X685620Y161909D01*
X685547Y161828D01*
X685469Y161752D01*
X685453Y161724D01*
X685431Y161700D01*
X685384Y161601D01*
X685330Y161506D01*
X685322Y161475D01*
X685308Y161446D01*
X685294Y161357D01*
X685265Y161232D01*
X685267Y161183D01*
X685261Y161141D01*
X685261Y141720D01*
X685262Y141710D01*
X685261Y141701D01*
X685282Y141571D01*
X685301Y141440D01*
X685304Y141432D01*
X685306Y141423D01*
X685363Y141303D01*
X685417Y141184D01*
X685423Y141176D01*
X685427Y141168D01*
X685515Y141069D01*
X685600Y140969D01*
X685608Y140964D01*
X685614Y140957D01*
X685680Y140917D01*
X685836Y140815D01*
X685859Y140808D01*
X685878Y140797D01*
X687394Y140168D01*
X690078Y137484D01*
X691531Y133978D01*
X691531Y130182D01*
X690078Y126676D01*
X687394Y123992D01*
X683888Y122539D01*
X680092Y122539D01*
X676586Y123992D01*
X673902Y126676D01*
X672449Y130182D01*
X672449Y133978D01*
X673902Y137484D01*
X676586Y140168D01*
X678102Y140797D01*
X678111Y140801D01*
X678120Y140804D01*
X678232Y140873D01*
X678345Y140940D01*
X678352Y140947D01*
X678360Y140952D01*
X678448Y141050D01*
X678538Y141146D01*
X678542Y141154D01*
X678549Y141161D01*
X678606Y141280D01*
X678666Y141397D01*
X678668Y141407D01*
X678672Y141415D01*
X678684Y141491D01*
X678718Y141674D01*
X678716Y141698D01*
X678719Y141720D01*
X678719Y170951D01*
X678706Y171046D01*
X678701Y171142D01*
X678686Y171186D01*
X678679Y171231D01*
X678640Y171318D01*
X678608Y171409D01*
X678583Y171443D01*
X678563Y171487D01*
X678480Y171585D01*
X678427Y171658D01*
X658068Y192017D01*
X657991Y192074D01*
X657920Y192139D01*
X657879Y192159D01*
X657842Y192186D01*
X657752Y192220D01*
X657666Y192262D01*
X657624Y192268D01*
X657578Y192285D01*
X657451Y192295D01*
X657361Y192309D01*
X489449Y192309D01*
X489354Y192296D01*
X489258Y192291D01*
X489214Y192276D01*
X489169Y192269D01*
X489082Y192230D01*
X488991Y192198D01*
X488957Y192173D01*
X488913Y192153D01*
X488815Y192070D01*
X488742Y192017D01*
X477273Y180548D01*
X477262Y180533D01*
X477257Y180529D01*
X477243Y180508D01*
X477216Y180471D01*
X477151Y180400D01*
X477131Y180359D01*
X477104Y180322D01*
X477070Y180232D01*
X477028Y180146D01*
X477022Y180104D01*
X477005Y180058D01*
X476995Y179931D01*
X476981Y179841D01*
X476981Y165955D01*
X476982Y165946D01*
X476981Y165937D01*
X477002Y165807D01*
X477021Y165676D01*
X477024Y165668D01*
X477026Y165658D01*
X477083Y165538D01*
X477137Y165419D01*
X477143Y165412D01*
X477147Y165403D01*
X477235Y165305D01*
X477320Y165205D01*
X477328Y165200D01*
X477334Y165193D01*
X477400Y165153D01*
X477556Y165051D01*
X477579Y165043D01*
X477598Y165032D01*
X480829Y163694D01*
X483734Y160789D01*
X485306Y156994D01*
X485306Y152886D01*
X483734Y149091D01*
X480829Y146186D01*
X478868Y145374D01*
X478859Y145369D01*
X478850Y145366D01*
X478738Y145297D01*
X478625Y145230D01*
X478618Y145223D01*
X478610Y145218D01*
X478522Y145120D01*
X478432Y145024D01*
X478428Y145016D01*
X478421Y145009D01*
X478364Y144891D01*
X478304Y144773D01*
X478302Y144764D01*
X478298Y144755D01*
X478286Y144679D01*
X478252Y144496D01*
X478254Y144472D01*
X478251Y144451D01*
X478251Y115791D01*
X478252Y115781D01*
X478251Y115772D01*
X478272Y115642D01*
X478291Y115512D01*
X478294Y115503D01*
X478296Y115494D01*
X478353Y115374D01*
X478407Y115255D01*
X478413Y115247D01*
X478417Y115239D01*
X478505Y115140D01*
X478590Y115040D01*
X478598Y115035D01*
X478604Y115028D01*
X478670Y114988D01*
X478826Y114886D01*
X478849Y114879D01*
X478868Y114868D01*
X481437Y113803D01*
X484643Y110597D01*
X486379Y106407D01*
X486379Y101873D01*
X484643Y97683D01*
X481437Y94477D01*
X477247Y92741D01*
X472713Y92741D01*
G37*
%LPD*%
%LPC*%
G36*
X666130Y296569D02*
X666130Y296569D01*
X662638Y298016D01*
X659966Y300688D01*
X658519Y304180D01*
X658519Y304240D01*
X658510Y304304D01*
X658511Y304368D01*
X658490Y304443D01*
X658479Y304519D01*
X658453Y304578D01*
X658436Y304640D01*
X658395Y304706D01*
X658363Y304776D01*
X658321Y304825D01*
X658288Y304880D01*
X658230Y304932D01*
X658180Y304990D01*
X658126Y305026D01*
X658078Y305069D01*
X658009Y305102D01*
X657944Y305145D01*
X657882Y305164D01*
X657825Y305192D01*
X657755Y305203D01*
X657674Y305227D01*
X657589Y305228D01*
X657520Y305239D01*
X653691Y305239D01*
X652519Y306411D01*
X652519Y315262D01*
X652510Y315326D01*
X652511Y315390D01*
X652490Y315465D01*
X652479Y315541D01*
X652453Y315600D01*
X652436Y315662D01*
X652395Y315728D01*
X652363Y315798D01*
X652321Y315847D01*
X652288Y315902D01*
X652230Y315954D01*
X652180Y316012D01*
X652126Y316048D01*
X652078Y316091D01*
X652009Y316124D01*
X651944Y316167D01*
X651882Y316186D01*
X651825Y316214D01*
X651755Y316225D01*
X651674Y316249D01*
X651589Y316250D01*
X651520Y316261D01*
X626078Y316261D01*
X625983Y316248D01*
X625887Y316243D01*
X625844Y316228D01*
X625799Y316221D01*
X625711Y316182D01*
X625620Y316150D01*
X625586Y316125D01*
X625542Y316105D01*
X625444Y316022D01*
X625371Y315969D01*
X622624Y313222D01*
X619118Y311769D01*
X615322Y311769D01*
X611816Y313222D01*
X609132Y315906D01*
X607679Y319412D01*
X607679Y323208D01*
X609132Y326714D01*
X610863Y328445D01*
X610920Y328522D01*
X610985Y328593D01*
X611005Y328634D01*
X611032Y328671D01*
X611066Y328761D01*
X611108Y328847D01*
X611114Y328889D01*
X611131Y328935D01*
X611141Y329062D01*
X611155Y329152D01*
X611155Y345054D01*
X611142Y345149D01*
X611137Y345245D01*
X611122Y345288D01*
X611115Y345333D01*
X611076Y345421D01*
X611044Y345512D01*
X611019Y345546D01*
X610999Y345590D01*
X610916Y345688D01*
X610863Y345761D01*
X579441Y377183D01*
X579364Y377240D01*
X579292Y377305D01*
X579251Y377325D01*
X579215Y377352D01*
X579125Y377386D01*
X579039Y377428D01*
X578997Y377434D01*
X578951Y377451D01*
X578824Y377461D01*
X578734Y377475D01*
X55944Y377475D01*
X53715Y378399D01*
X38039Y394075D01*
X37115Y396304D01*
X37115Y399988D01*
X37102Y400083D01*
X37097Y400179D01*
X37082Y400222D01*
X37075Y400267D01*
X37036Y400355D01*
X37004Y400446D01*
X36979Y400480D01*
X36959Y400524D01*
X36876Y400621D01*
X36823Y400695D01*
X34426Y403091D01*
X32854Y406886D01*
X32854Y410994D01*
X34426Y414789D01*
X37331Y417694D01*
X41126Y419266D01*
X45234Y419266D01*
X49029Y417694D01*
X51934Y414789D01*
X53506Y410994D01*
X53506Y406886D01*
X51934Y403091D01*
X49761Y400919D01*
X49723Y400867D01*
X49677Y400822D01*
X49639Y400755D01*
X49592Y400693D01*
X49569Y400633D01*
X49538Y400577D01*
X49520Y400502D01*
X49493Y400429D01*
X49488Y400365D01*
X49473Y400303D01*
X49477Y400225D01*
X49471Y400148D01*
X49484Y400085D01*
X49487Y400021D01*
X49513Y399948D01*
X49528Y399872D01*
X49559Y399815D01*
X49580Y399754D01*
X49621Y399698D01*
X49661Y399623D01*
X49720Y399562D01*
X49761Y399505D01*
X59369Y389897D01*
X59446Y389840D01*
X59518Y389775D01*
X59559Y389755D01*
X59595Y389728D01*
X59685Y389694D01*
X59771Y389652D01*
X59813Y389646D01*
X59859Y389629D01*
X59986Y389619D01*
X60076Y389605D01*
X582866Y389605D01*
X585095Y388681D01*
X586942Y386835D01*
X622361Y351415D01*
X623285Y349186D01*
X623285Y329152D01*
X623298Y329057D01*
X623303Y328961D01*
X623318Y328918D01*
X623325Y328873D01*
X623364Y328785D01*
X623396Y328694D01*
X623421Y328660D01*
X623441Y328616D01*
X623524Y328518D01*
X623577Y328445D01*
X625371Y326651D01*
X625448Y326594D01*
X625519Y326529D01*
X625560Y326509D01*
X625597Y326482D01*
X625687Y326448D01*
X625773Y326406D01*
X625815Y326400D01*
X625861Y326383D01*
X625988Y326373D01*
X626078Y326359D01*
X651520Y326359D01*
X651584Y326368D01*
X651648Y326367D01*
X651723Y326388D01*
X651799Y326399D01*
X651858Y326425D01*
X651920Y326442D01*
X651986Y326483D01*
X652056Y326515D01*
X652105Y326557D01*
X652160Y326590D01*
X652212Y326648D01*
X652270Y326698D01*
X652306Y326752D01*
X652349Y326800D01*
X652382Y326869D01*
X652425Y326934D01*
X652444Y326996D01*
X652472Y327053D01*
X652483Y327123D01*
X652507Y327204D01*
X652508Y327289D01*
X652519Y327358D01*
X652519Y333569D01*
X653691Y334741D01*
X660956Y334741D01*
X661020Y334750D01*
X661084Y334749D01*
X661159Y334770D01*
X661235Y334781D01*
X661294Y334807D01*
X661356Y334824D01*
X661422Y334865D01*
X661492Y334897D01*
X661541Y334939D01*
X661596Y334972D01*
X661648Y335030D01*
X661706Y335080D01*
X661742Y335134D01*
X661785Y335182D01*
X661818Y335251D01*
X661861Y335316D01*
X661880Y335378D01*
X661908Y335435D01*
X661919Y335505D01*
X661943Y335586D01*
X661944Y335671D01*
X661955Y335740D01*
X661955Y402204D01*
X661942Y402299D01*
X661937Y402395D01*
X661922Y402438D01*
X661915Y402483D01*
X661876Y402571D01*
X661844Y402662D01*
X661819Y402696D01*
X661799Y402740D01*
X661716Y402838D01*
X661663Y402911D01*
X651449Y413125D01*
X650525Y415354D01*
X650525Y429038D01*
X650512Y429133D01*
X650507Y429229D01*
X650492Y429272D01*
X650485Y429317D01*
X650446Y429405D01*
X650414Y429496D01*
X650389Y429530D01*
X650369Y429574D01*
X650286Y429672D01*
X650233Y429745D01*
X648502Y431476D01*
X647049Y434982D01*
X647049Y438778D01*
X647313Y439415D01*
X647315Y439424D01*
X647320Y439432D01*
X647351Y439561D01*
X647383Y439688D01*
X647383Y439697D01*
X647385Y439706D01*
X647378Y439839D01*
X647374Y439970D01*
X647371Y439979D01*
X647371Y439988D01*
X647327Y440113D01*
X647287Y440238D01*
X647281Y440246D01*
X647278Y440255D01*
X647233Y440317D01*
X647128Y440471D01*
X647109Y440486D01*
X647096Y440504D01*
X632491Y455109D01*
X632491Y464980D01*
X632482Y465044D01*
X632483Y465108D01*
X632462Y465183D01*
X632451Y465259D01*
X632425Y465318D01*
X632408Y465380D01*
X632367Y465446D01*
X632335Y465516D01*
X632293Y465565D01*
X632260Y465620D01*
X632202Y465672D01*
X632152Y465730D01*
X632098Y465766D01*
X632050Y465809D01*
X631981Y465842D01*
X631916Y465885D01*
X631854Y465904D01*
X631797Y465932D01*
X631727Y465943D01*
X631646Y465967D01*
X631561Y465968D01*
X631492Y465979D01*
X629411Y465979D01*
X629376Y465988D01*
X629299Y465984D01*
X629222Y465990D01*
X629172Y465979D01*
X627078Y465979D01*
X627014Y465970D01*
X626950Y465971D01*
X626875Y465950D01*
X626799Y465939D01*
X626740Y465913D01*
X626678Y465896D01*
X626612Y465855D01*
X626542Y465823D01*
X626493Y465781D01*
X626438Y465748D01*
X626386Y465690D01*
X626328Y465640D01*
X626292Y465586D01*
X626249Y465538D01*
X626216Y465469D01*
X626173Y465404D01*
X626154Y465342D01*
X626126Y465285D01*
X626115Y465215D01*
X626091Y465134D01*
X626090Y465049D01*
X626079Y464980D01*
X626079Y450815D01*
X626092Y450720D01*
X626097Y450624D01*
X626112Y450581D01*
X626119Y450536D01*
X626158Y450448D01*
X626190Y450358D01*
X626215Y450323D01*
X626235Y450279D01*
X626318Y450182D01*
X626371Y450109D01*
X629767Y446713D01*
X629843Y446656D01*
X629915Y446591D01*
X629956Y446571D01*
X629992Y446544D01*
X630082Y446510D01*
X630169Y446468D01*
X630211Y446462D01*
X630256Y446445D01*
X630384Y446435D01*
X630473Y446421D01*
X633088Y446421D01*
X636594Y444968D01*
X639278Y442284D01*
X640731Y438778D01*
X640731Y434982D01*
X639278Y431476D01*
X636594Y428792D01*
X633088Y427339D01*
X629292Y427339D01*
X625786Y428792D01*
X623102Y431476D01*
X621649Y434982D01*
X621649Y438778D01*
X621913Y439415D01*
X621915Y439424D01*
X621920Y439432D01*
X621951Y439561D01*
X621983Y439688D01*
X621983Y439697D01*
X621985Y439706D01*
X621978Y439839D01*
X621974Y439970D01*
X621971Y439979D01*
X621971Y439988D01*
X621927Y440113D01*
X621887Y440238D01*
X621881Y440246D01*
X621878Y440255D01*
X621832Y440317D01*
X621728Y440471D01*
X621709Y440486D01*
X621696Y440504D01*
X615981Y446219D01*
X615981Y464980D01*
X615972Y465044D01*
X615973Y465108D01*
X615952Y465183D01*
X615941Y465259D01*
X615915Y465318D01*
X615898Y465380D01*
X615857Y465446D01*
X615825Y465516D01*
X615783Y465565D01*
X615750Y465620D01*
X615692Y465672D01*
X615642Y465730D01*
X615588Y465766D01*
X615540Y465809D01*
X615471Y465842D01*
X615406Y465885D01*
X615344Y465904D01*
X615287Y465932D01*
X615217Y465943D01*
X615136Y465967D01*
X615051Y465968D01*
X614982Y465979D01*
X613404Y465979D01*
X613298Y465964D01*
X613192Y465957D01*
X613161Y465945D01*
X613125Y465939D01*
X612990Y465878D01*
X612904Y465845D01*
X612501Y465612D01*
X611855Y465439D01*
X606519Y465439D01*
X606519Y473980D01*
X606510Y474044D01*
X606511Y474108D01*
X606490Y474182D01*
X606479Y474259D01*
X606453Y474318D01*
X606436Y474380D01*
X606395Y474446D01*
X606363Y474516D01*
X606321Y474565D01*
X606288Y474620D01*
X606230Y474671D01*
X606180Y474730D01*
X606126Y474766D01*
X606078Y474809D01*
X606009Y474842D01*
X605944Y474885D01*
X605882Y474904D01*
X605825Y474932D01*
X605755Y474942D01*
X605674Y474967D01*
X605589Y474968D01*
X605520Y474979D01*
X604519Y474979D01*
X604519Y474981D01*
X605520Y474981D01*
X605584Y474990D01*
X605648Y474989D01*
X605723Y475010D01*
X605799Y475021D01*
X605858Y475047D01*
X605920Y475064D01*
X605986Y475105D01*
X606056Y475137D01*
X606105Y475179D01*
X606160Y475212D01*
X606212Y475270D01*
X606270Y475320D01*
X606306Y475374D01*
X606349Y475422D01*
X606382Y475491D01*
X606425Y475556D01*
X606444Y475618D01*
X606472Y475676D01*
X606482Y475745D01*
X606507Y475826D01*
X606508Y475911D01*
X606519Y475980D01*
X606519Y484521D01*
X611855Y484521D01*
X612501Y484348D01*
X612904Y484115D01*
X613003Y484075D01*
X613099Y484028D01*
X613132Y484023D01*
X613166Y484009D01*
X613313Y483995D01*
X613404Y483981D01*
X629160Y483981D01*
X629196Y483972D01*
X629273Y483976D01*
X629349Y483970D01*
X629398Y483981D01*
X645369Y483981D01*
X646541Y482809D01*
X646541Y467151D01*
X645369Y465979D01*
X643588Y465979D01*
X643524Y465970D01*
X643460Y465971D01*
X643385Y465950D01*
X643309Y465939D01*
X643250Y465913D01*
X643188Y465896D01*
X643122Y465855D01*
X643052Y465823D01*
X643003Y465781D01*
X642948Y465748D01*
X642896Y465690D01*
X642838Y465640D01*
X642802Y465586D01*
X642759Y465538D01*
X642726Y465469D01*
X642683Y465404D01*
X642664Y465342D01*
X642636Y465285D01*
X642625Y465215D01*
X642601Y465134D01*
X642600Y465049D01*
X642589Y464980D01*
X642589Y459705D01*
X642602Y459610D01*
X642607Y459514D01*
X642622Y459471D01*
X642629Y459426D01*
X642668Y459338D01*
X642700Y459248D01*
X642725Y459213D01*
X642745Y459169D01*
X642828Y459072D01*
X642881Y458999D01*
X655167Y446713D01*
X655243Y446656D01*
X655315Y446591D01*
X655356Y446571D01*
X655392Y446544D01*
X655482Y446510D01*
X655569Y446468D01*
X655611Y446462D01*
X655656Y446445D01*
X655784Y446435D01*
X655873Y446421D01*
X658488Y446421D01*
X661994Y444968D01*
X664678Y442284D01*
X666131Y438778D01*
X666131Y434982D01*
X664678Y431476D01*
X662947Y429745D01*
X662890Y429668D01*
X662825Y429597D01*
X662805Y429556D01*
X662778Y429519D01*
X662744Y429429D01*
X662702Y429343D01*
X662696Y429301D01*
X662679Y429255D01*
X662669Y429128D01*
X662655Y429038D01*
X662655Y419486D01*
X662668Y419391D01*
X662673Y419295D01*
X662688Y419252D01*
X662695Y419207D01*
X662734Y419119D01*
X662766Y419028D01*
X662791Y418994D01*
X662811Y418950D01*
X662894Y418852D01*
X662947Y418779D01*
X673161Y408565D01*
X674085Y406336D01*
X674085Y403876D01*
X674097Y403791D01*
X674100Y403704D01*
X674117Y403652D01*
X674125Y403597D01*
X674160Y403518D01*
X674187Y403436D01*
X674218Y403390D01*
X674241Y403340D01*
X674297Y403274D01*
X674346Y403203D01*
X674388Y403168D01*
X674424Y403126D01*
X674497Y403078D01*
X674564Y403023D01*
X674614Y403002D01*
X674660Y402972D01*
X674743Y402946D01*
X674823Y402912D01*
X674877Y402905D01*
X674930Y402889D01*
X675017Y402888D01*
X675103Y402877D01*
X675157Y402886D01*
X675212Y402885D01*
X675296Y402909D01*
X675381Y402922D01*
X675431Y402946D01*
X675484Y402961D01*
X675558Y403006D01*
X675636Y403043D01*
X675677Y403080D01*
X675724Y403109D01*
X675782Y403173D01*
X675847Y403231D01*
X675873Y403274D01*
X675913Y403318D01*
X675962Y403421D01*
X676007Y403494D01*
X676874Y405587D01*
X678993Y407706D01*
X681762Y408853D01*
X684758Y408853D01*
X687527Y407706D01*
X689646Y405587D01*
X690793Y402818D01*
X690793Y399822D01*
X689646Y397053D01*
X687527Y394934D01*
X684758Y393787D01*
X681762Y393787D01*
X678993Y394934D01*
X676874Y397053D01*
X676007Y399146D01*
X675963Y399221D01*
X675927Y399300D01*
X675892Y399341D01*
X675864Y399389D01*
X675800Y399448D01*
X675744Y399514D01*
X675698Y399544D01*
X675658Y399582D01*
X675581Y399621D01*
X675508Y399668D01*
X675455Y399684D01*
X675406Y399709D01*
X675321Y399725D01*
X675238Y399751D01*
X675183Y399752D01*
X675129Y399762D01*
X675043Y399753D01*
X674956Y399755D01*
X674903Y399740D01*
X674849Y399735D01*
X674768Y399703D01*
X674684Y399679D01*
X674637Y399650D01*
X674587Y399630D01*
X674518Y399577D01*
X674444Y399531D01*
X674408Y399490D01*
X674364Y399457D01*
X674313Y399386D01*
X674255Y399322D01*
X674231Y399273D01*
X674199Y399228D01*
X674170Y399146D01*
X674132Y399068D01*
X674124Y399018D01*
X674105Y398962D01*
X674099Y398866D01*
X674097Y398859D01*
X674096Y398838D01*
X674085Y398764D01*
X674085Y335740D01*
X674094Y335677D01*
X674093Y335624D01*
X674093Y335623D01*
X674093Y335612D01*
X674114Y335537D01*
X674125Y335461D01*
X674151Y335402D01*
X674168Y335340D01*
X674209Y335274D01*
X674241Y335204D01*
X674283Y335155D01*
X674316Y335100D01*
X674374Y335048D01*
X674424Y334990D01*
X674478Y334954D01*
X674526Y334911D01*
X674595Y334878D01*
X674660Y334835D01*
X674722Y334816D01*
X674779Y334788D01*
X674849Y334777D01*
X674930Y334753D01*
X675015Y334752D01*
X675084Y334741D01*
X682349Y334741D01*
X683521Y333569D01*
X683521Y326038D01*
X683530Y325974D01*
X683529Y325910D01*
X683550Y325835D01*
X683561Y325759D01*
X683587Y325700D01*
X683604Y325638D01*
X683645Y325572D01*
X683677Y325502D01*
X683719Y325453D01*
X683752Y325398D01*
X683810Y325346D01*
X683860Y325288D01*
X683914Y325252D01*
X683962Y325209D01*
X684031Y325176D01*
X684096Y325133D01*
X684158Y325114D01*
X684215Y325086D01*
X684285Y325075D01*
X684366Y325051D01*
X684451Y325050D01*
X684520Y325039D01*
X698858Y325039D01*
X698922Y325048D01*
X698986Y325047D01*
X699061Y325068D01*
X699137Y325079D01*
X699196Y325105D01*
X699258Y325122D01*
X699324Y325163D01*
X699394Y325195D01*
X699443Y325237D01*
X699498Y325270D01*
X699550Y325328D01*
X699608Y325378D01*
X699644Y325432D01*
X699687Y325480D01*
X699720Y325549D01*
X699763Y325614D01*
X699782Y325676D01*
X699810Y325733D01*
X699821Y325803D01*
X699845Y325884D01*
X699846Y325969D01*
X699857Y326038D01*
X699857Y327888D01*
X701004Y330657D01*
X703123Y332776D01*
X705892Y333923D01*
X708888Y333923D01*
X711657Y332776D01*
X713776Y330657D01*
X714923Y327888D01*
X714923Y325861D01*
X714936Y325766D01*
X714941Y325669D01*
X714956Y325626D01*
X714963Y325581D01*
X715002Y325494D01*
X715034Y325403D01*
X715059Y325369D01*
X715079Y325324D01*
X715162Y325227D01*
X715215Y325154D01*
X715391Y324979D01*
X715391Y315321D01*
X714219Y314149D01*
X700561Y314149D01*
X700062Y314649D01*
X699985Y314706D01*
X699914Y314771D01*
X699873Y314791D01*
X699836Y314818D01*
X699746Y314852D01*
X699660Y314894D01*
X699618Y314900D01*
X699572Y314917D01*
X699445Y314927D01*
X699355Y314941D01*
X684520Y314941D01*
X684456Y314932D01*
X684392Y314933D01*
X684317Y314912D01*
X684241Y314901D01*
X684182Y314875D01*
X684120Y314858D01*
X684054Y314817D01*
X683984Y314785D01*
X683935Y314743D01*
X683880Y314710D01*
X683828Y314652D01*
X683770Y314602D01*
X683734Y314548D01*
X683691Y314500D01*
X683658Y314431D01*
X683615Y314366D01*
X683596Y314304D01*
X683568Y314247D01*
X683557Y314177D01*
X683533Y314096D01*
X683532Y314011D01*
X683521Y313942D01*
X683521Y306411D01*
X682349Y305239D01*
X678520Y305239D01*
X678456Y305230D01*
X678392Y305231D01*
X678317Y305210D01*
X678241Y305199D01*
X678182Y305173D01*
X678120Y305156D01*
X678054Y305115D01*
X677984Y305083D01*
X677935Y305041D01*
X677880Y305008D01*
X677828Y304950D01*
X677770Y304900D01*
X677734Y304846D01*
X677691Y304798D01*
X677658Y304729D01*
X677615Y304664D01*
X677596Y304602D01*
X677568Y304545D01*
X677557Y304475D01*
X677533Y304394D01*
X677532Y304309D01*
X677521Y304240D01*
X677521Y304180D01*
X676074Y300688D01*
X673402Y298016D01*
X669910Y296569D01*
X666130Y296569D01*
G37*
%LPD*%
%LPC*%
G36*
X925531Y480599D02*
X925531Y480599D01*
X917593Y482726D01*
X910476Y486835D01*
X904665Y492646D01*
X900556Y499763D01*
X898429Y507701D01*
X898429Y515919D01*
X900556Y523857D01*
X904665Y530974D01*
X910476Y536785D01*
X917593Y540894D01*
X925531Y543021D01*
X933749Y543021D01*
X941687Y540894D01*
X948804Y536785D01*
X954615Y530974D01*
X958724Y523857D01*
X960851Y515919D01*
X960851Y507701D01*
X958724Y499763D01*
X954615Y492646D01*
X948804Y486835D01*
X941687Y482726D01*
X933749Y480599D01*
X925531Y480599D01*
G37*
%LPD*%
%LPC*%
G36*
X42881Y480599D02*
X42881Y480599D01*
X34943Y482726D01*
X27826Y486835D01*
X22015Y492646D01*
X17906Y499763D01*
X15779Y507701D01*
X15779Y515919D01*
X17906Y523857D01*
X22015Y530974D01*
X27826Y536785D01*
X34943Y540894D01*
X42881Y543021D01*
X51099Y543021D01*
X59037Y540894D01*
X66154Y536785D01*
X71965Y530974D01*
X76074Y523857D01*
X78201Y515919D01*
X78201Y507701D01*
X76074Y499763D01*
X71965Y492646D01*
X66154Y486835D01*
X59037Y482726D01*
X51099Y480599D01*
X42881Y480599D01*
G37*
%LPD*%
%LPC*%
G36*
X925531Y15779D02*
X925531Y15779D01*
X917593Y17906D01*
X910476Y22015D01*
X904665Y27826D01*
X900556Y34943D01*
X898429Y42881D01*
X898429Y51099D01*
X900556Y59037D01*
X904665Y66154D01*
X910476Y71965D01*
X917593Y76074D01*
X925531Y78201D01*
X933749Y78201D01*
X941687Y76074D01*
X948804Y71965D01*
X954615Y66154D01*
X958724Y59037D01*
X960851Y51099D01*
X960851Y42881D01*
X958724Y34943D01*
X954615Y27826D01*
X948804Y22015D01*
X941687Y17906D01*
X933749Y15779D01*
X925531Y15779D01*
G37*
%LPD*%
%LPC*%
G36*
X42881Y15779D02*
X42881Y15779D01*
X34943Y17906D01*
X27826Y22015D01*
X22015Y27826D01*
X17906Y34943D01*
X15779Y42881D01*
X15779Y51099D01*
X17906Y59037D01*
X22015Y66154D01*
X27826Y71965D01*
X34943Y76074D01*
X42881Y78201D01*
X51099Y78201D01*
X59037Y76074D01*
X66154Y71965D01*
X71965Y66154D01*
X76074Y59037D01*
X78201Y51099D01*
X78201Y42881D01*
X76074Y34943D01*
X71965Y27826D01*
X66154Y22015D01*
X59037Y17906D01*
X51099Y15779D01*
X42881Y15779D01*
G37*
%LPD*%
%LPC*%
G36*
X396513Y92741D02*
X396513Y92741D01*
X392323Y94477D01*
X389117Y97683D01*
X387381Y101873D01*
X387381Y106407D01*
X389117Y110597D01*
X392323Y113803D01*
X394892Y114868D01*
X394901Y114872D01*
X394910Y114875D01*
X395022Y114944D01*
X395135Y115011D01*
X395142Y115018D01*
X395150Y115023D01*
X395238Y115121D01*
X395328Y115217D01*
X395332Y115225D01*
X395339Y115232D01*
X395396Y115351D01*
X395456Y115468D01*
X395458Y115478D01*
X395462Y115486D01*
X395474Y115562D01*
X395508Y115745D01*
X395506Y115769D01*
X395509Y115791D01*
X395509Y144451D01*
X395508Y144460D01*
X395509Y144469D01*
X395488Y144599D01*
X395469Y144730D01*
X395466Y144738D01*
X395464Y144748D01*
X395407Y144867D01*
X395353Y144987D01*
X395347Y144994D01*
X395343Y145003D01*
X395255Y145101D01*
X395170Y145201D01*
X395162Y145206D01*
X395156Y145213D01*
X395090Y145253D01*
X394934Y145356D01*
X394911Y145363D01*
X394892Y145374D01*
X392931Y146186D01*
X390026Y149091D01*
X388454Y152886D01*
X388454Y156994D01*
X390026Y160789D01*
X392931Y163694D01*
X396726Y165266D01*
X400834Y165266D01*
X404629Y163694D01*
X407534Y160789D01*
X409106Y156994D01*
X409106Y152886D01*
X407534Y149091D01*
X404629Y146186D01*
X402668Y145374D01*
X402659Y145369D01*
X402650Y145366D01*
X402538Y145297D01*
X402425Y145230D01*
X402418Y145223D01*
X402410Y145218D01*
X402322Y145120D01*
X402232Y145024D01*
X402228Y145016D01*
X402221Y145009D01*
X402164Y144891D01*
X402104Y144773D01*
X402102Y144764D01*
X402098Y144755D01*
X402086Y144679D01*
X402052Y144496D01*
X402054Y144472D01*
X402051Y144451D01*
X402051Y115791D01*
X402052Y115781D01*
X402051Y115772D01*
X402072Y115642D01*
X402091Y115512D01*
X402094Y115503D01*
X402096Y115494D01*
X402153Y115374D01*
X402207Y115255D01*
X402213Y115247D01*
X402217Y115239D01*
X402305Y115140D01*
X402390Y115040D01*
X402398Y115035D01*
X402404Y115028D01*
X402470Y114988D01*
X402626Y114886D01*
X402649Y114879D01*
X402668Y114868D01*
X405237Y113803D01*
X408443Y110597D01*
X410179Y106407D01*
X410179Y101873D01*
X408443Y97683D01*
X405237Y94477D01*
X401047Y92741D01*
X396513Y92741D01*
G37*
%LPD*%
%LPC*%
G36*
X447313Y92741D02*
X447313Y92741D01*
X443123Y94477D01*
X439917Y97683D01*
X438181Y101873D01*
X438181Y106407D01*
X439917Y110597D01*
X443123Y113803D01*
X445692Y114868D01*
X445701Y114872D01*
X445710Y114875D01*
X445822Y114944D01*
X445935Y115011D01*
X445942Y115018D01*
X445950Y115023D01*
X446038Y115121D01*
X446128Y115217D01*
X446132Y115225D01*
X446139Y115232D01*
X446196Y115351D01*
X446256Y115468D01*
X446258Y115478D01*
X446262Y115486D01*
X446274Y115562D01*
X446308Y115745D01*
X446306Y115769D01*
X446309Y115791D01*
X446309Y144451D01*
X446308Y144460D01*
X446309Y144469D01*
X446288Y144599D01*
X446269Y144730D01*
X446266Y144738D01*
X446264Y144748D01*
X446207Y144867D01*
X446153Y144987D01*
X446147Y144994D01*
X446143Y145003D01*
X446055Y145101D01*
X445970Y145201D01*
X445962Y145206D01*
X445956Y145213D01*
X445890Y145253D01*
X445734Y145356D01*
X445711Y145363D01*
X445692Y145374D01*
X443731Y146186D01*
X440826Y149091D01*
X439254Y152886D01*
X439254Y156994D01*
X440826Y160789D01*
X443731Y163694D01*
X447526Y165266D01*
X451634Y165266D01*
X455429Y163694D01*
X458334Y160789D01*
X459906Y156994D01*
X459906Y152886D01*
X458334Y149091D01*
X455429Y146186D01*
X453468Y145374D01*
X453459Y145369D01*
X453450Y145366D01*
X453338Y145297D01*
X453225Y145230D01*
X453218Y145223D01*
X453210Y145218D01*
X453122Y145120D01*
X453032Y145024D01*
X453028Y145016D01*
X453021Y145009D01*
X452964Y144891D01*
X452904Y144773D01*
X452902Y144764D01*
X452898Y144755D01*
X452886Y144679D01*
X452852Y144496D01*
X452854Y144472D01*
X452851Y144451D01*
X452851Y115791D01*
X452852Y115781D01*
X452851Y115772D01*
X452872Y115642D01*
X452891Y115512D01*
X452894Y115503D01*
X452896Y115494D01*
X452953Y115374D01*
X453007Y115255D01*
X453013Y115247D01*
X453017Y115239D01*
X453105Y115140D01*
X453190Y115040D01*
X453198Y115035D01*
X453204Y115028D01*
X453270Y114988D01*
X453426Y114886D01*
X453449Y114879D01*
X453468Y114868D01*
X456037Y113803D01*
X459243Y110597D01*
X460979Y106407D01*
X460979Y101873D01*
X459243Y97683D01*
X456037Y94477D01*
X451847Y92741D01*
X447313Y92741D01*
G37*
%LPD*%
%LPC*%
G36*
X371113Y92741D02*
X371113Y92741D01*
X366923Y94477D01*
X363717Y97683D01*
X361981Y101873D01*
X361981Y106407D01*
X363717Y110597D01*
X366923Y113803D01*
X369492Y114868D01*
X369501Y114872D01*
X369510Y114875D01*
X369622Y114944D01*
X369735Y115011D01*
X369742Y115018D01*
X369750Y115023D01*
X369838Y115121D01*
X369928Y115217D01*
X369932Y115225D01*
X369939Y115232D01*
X369996Y115351D01*
X370056Y115468D01*
X370058Y115478D01*
X370062Y115486D01*
X370074Y115562D01*
X370108Y115745D01*
X370106Y115769D01*
X370109Y115791D01*
X370109Y144451D01*
X370108Y144460D01*
X370109Y144469D01*
X370088Y144599D01*
X370069Y144730D01*
X370066Y144738D01*
X370064Y144748D01*
X370007Y144867D01*
X369953Y144987D01*
X369947Y144994D01*
X369943Y145003D01*
X369855Y145101D01*
X369770Y145201D01*
X369762Y145206D01*
X369756Y145213D01*
X369690Y145253D01*
X369534Y145356D01*
X369511Y145363D01*
X369492Y145374D01*
X367531Y146186D01*
X364626Y149091D01*
X363054Y152886D01*
X363054Y156994D01*
X364626Y160789D01*
X367531Y163694D01*
X371326Y165266D01*
X375434Y165266D01*
X379229Y163694D01*
X382134Y160789D01*
X383706Y156994D01*
X383706Y152886D01*
X382134Y149091D01*
X379229Y146186D01*
X377268Y145374D01*
X377259Y145369D01*
X377250Y145366D01*
X377138Y145297D01*
X377025Y145230D01*
X377018Y145223D01*
X377010Y145218D01*
X376922Y145120D01*
X376832Y145024D01*
X376828Y145016D01*
X376821Y145009D01*
X376764Y144891D01*
X376704Y144773D01*
X376702Y144764D01*
X376698Y144755D01*
X376686Y144679D01*
X376652Y144496D01*
X376654Y144472D01*
X376651Y144451D01*
X376651Y115791D01*
X376652Y115781D01*
X376651Y115772D01*
X376672Y115642D01*
X376691Y115512D01*
X376694Y115503D01*
X376696Y115494D01*
X376753Y115374D01*
X376807Y115255D01*
X376813Y115247D01*
X376817Y115239D01*
X376905Y115140D01*
X376990Y115040D01*
X376998Y115035D01*
X377004Y115028D01*
X377070Y114988D01*
X377226Y114886D01*
X377249Y114879D01*
X377268Y114868D01*
X379837Y113803D01*
X383043Y110597D01*
X384779Y106407D01*
X384779Y101873D01*
X383043Y97683D01*
X379837Y94477D01*
X375647Y92741D01*
X371113Y92741D01*
G37*
%LPD*%
%LPC*%
G36*
X421913Y92741D02*
X421913Y92741D01*
X417723Y94477D01*
X414517Y97683D01*
X412781Y101873D01*
X412781Y106407D01*
X414517Y110597D01*
X417723Y113803D01*
X420292Y114868D01*
X420301Y114872D01*
X420310Y114875D01*
X420422Y114944D01*
X420535Y115011D01*
X420542Y115018D01*
X420550Y115023D01*
X420638Y115121D01*
X420728Y115217D01*
X420732Y115225D01*
X420739Y115232D01*
X420796Y115351D01*
X420856Y115468D01*
X420858Y115478D01*
X420862Y115486D01*
X420874Y115562D01*
X420908Y115745D01*
X420906Y115769D01*
X420909Y115791D01*
X420909Y144451D01*
X420908Y144460D01*
X420909Y144469D01*
X420888Y144599D01*
X420869Y144730D01*
X420866Y144738D01*
X420864Y144748D01*
X420807Y144867D01*
X420753Y144987D01*
X420747Y144994D01*
X420743Y145003D01*
X420655Y145101D01*
X420570Y145201D01*
X420562Y145206D01*
X420556Y145213D01*
X420490Y145253D01*
X420334Y145356D01*
X420311Y145363D01*
X420292Y145374D01*
X418331Y146186D01*
X415426Y149091D01*
X413854Y152886D01*
X413854Y156994D01*
X415426Y160789D01*
X418331Y163694D01*
X422126Y165266D01*
X426234Y165266D01*
X430029Y163694D01*
X432934Y160789D01*
X434506Y156994D01*
X434506Y152886D01*
X432934Y149091D01*
X430029Y146186D01*
X428068Y145374D01*
X428059Y145369D01*
X428050Y145366D01*
X427938Y145297D01*
X427825Y145230D01*
X427818Y145223D01*
X427810Y145218D01*
X427722Y145120D01*
X427632Y145024D01*
X427628Y145016D01*
X427621Y145009D01*
X427564Y144891D01*
X427504Y144773D01*
X427502Y144764D01*
X427498Y144755D01*
X427486Y144679D01*
X427452Y144496D01*
X427454Y144472D01*
X427451Y144451D01*
X427451Y115791D01*
X427452Y115781D01*
X427451Y115772D01*
X427472Y115642D01*
X427491Y115512D01*
X427494Y115503D01*
X427496Y115494D01*
X427553Y115374D01*
X427607Y115255D01*
X427613Y115247D01*
X427617Y115239D01*
X427705Y115140D01*
X427790Y115040D01*
X427798Y115035D01*
X427804Y115028D01*
X427870Y114988D01*
X428026Y114886D01*
X428049Y114879D01*
X428068Y114868D01*
X430637Y113803D01*
X433843Y110597D01*
X435579Y106407D01*
X435579Y101873D01*
X433843Y97683D01*
X430637Y94477D01*
X426447Y92741D01*
X421913Y92741D01*
G37*
%LPD*%
%LPC*%
G36*
X616677Y155949D02*
X616677Y155949D01*
X610979Y158309D01*
X606619Y162669D01*
X604259Y168367D01*
X604259Y174533D01*
X606619Y180231D01*
X610979Y184591D01*
X616677Y186951D01*
X622843Y186951D01*
X628541Y184591D01*
X632901Y180231D01*
X635261Y174533D01*
X635261Y168367D01*
X632901Y162669D01*
X628541Y158309D01*
X622843Y155949D01*
X616677Y155949D01*
G37*
%LPD*%
%LPC*%
G36*
X617947Y378199D02*
X617947Y378199D01*
X612249Y380559D01*
X607889Y384919D01*
X605529Y390617D01*
X605529Y396783D01*
X607889Y402481D01*
X612249Y406841D01*
X617947Y409201D01*
X624113Y409201D01*
X629811Y406841D01*
X634171Y402481D01*
X636531Y396783D01*
X636531Y390617D01*
X634171Y384919D01*
X629811Y380559D01*
X624113Y378199D01*
X617947Y378199D01*
G37*
%LPD*%
%LPC*%
G36*
X408341Y325519D02*
X408341Y325519D01*
X407169Y326691D01*
X407169Y329288D01*
X407160Y329352D01*
X407161Y329416D01*
X407140Y329491D01*
X407129Y329567D01*
X407103Y329626D01*
X407086Y329688D01*
X407045Y329754D01*
X407013Y329824D01*
X406971Y329873D01*
X406938Y329928D01*
X406880Y329980D01*
X406830Y330038D01*
X406776Y330074D01*
X406728Y330117D01*
X406659Y330150D01*
X406594Y330193D01*
X406532Y330212D01*
X406475Y330240D01*
X406405Y330251D01*
X406324Y330275D01*
X406239Y330276D01*
X406173Y330287D01*
X403403Y331434D01*
X401284Y333553D01*
X400137Y336322D01*
X400137Y339318D01*
X401284Y342087D01*
X403403Y344206D01*
X406172Y345353D01*
X406234Y345362D01*
X406298Y345361D01*
X406373Y345382D01*
X406449Y345393D01*
X406508Y345419D01*
X406570Y345436D01*
X406636Y345477D01*
X406706Y345509D01*
X406755Y345551D01*
X406810Y345584D01*
X406862Y345642D01*
X406920Y345692D01*
X406956Y345746D01*
X406999Y345794D01*
X407032Y345863D01*
X407075Y345928D01*
X407094Y345990D01*
X407122Y346047D01*
X407133Y346117D01*
X407157Y346198D01*
X407158Y346283D01*
X407169Y346352D01*
X407169Y348949D01*
X408341Y350121D01*
X422699Y350121D01*
X423871Y348949D01*
X423871Y326691D01*
X422699Y325519D01*
X408341Y325519D01*
G37*
%LPD*%
%LPC*%
G36*
X443441Y325519D02*
X443441Y325519D01*
X442269Y326691D01*
X442269Y348949D01*
X443441Y350121D01*
X457799Y350121D01*
X458971Y348949D01*
X458971Y346352D01*
X458980Y346288D01*
X458979Y346224D01*
X459000Y346149D01*
X459011Y346073D01*
X459037Y346014D01*
X459054Y345952D01*
X459095Y345886D01*
X459127Y345816D01*
X459169Y345767D01*
X459202Y345712D01*
X459260Y345660D01*
X459310Y345602D01*
X459364Y345566D01*
X459412Y345523D01*
X459481Y345490D01*
X459546Y345447D01*
X459608Y345428D01*
X459665Y345400D01*
X459735Y345389D01*
X459816Y345365D01*
X459901Y345364D01*
X459967Y345353D01*
X462737Y344206D01*
X464856Y342087D01*
X466003Y339318D01*
X466003Y336322D01*
X464856Y333553D01*
X462737Y331434D01*
X459968Y330287D01*
X459906Y330278D01*
X459842Y330279D01*
X459767Y330258D01*
X459691Y330247D01*
X459632Y330221D01*
X459570Y330204D01*
X459504Y330163D01*
X459434Y330131D01*
X459385Y330089D01*
X459330Y330056D01*
X459278Y329998D01*
X459220Y329948D01*
X459184Y329894D01*
X459141Y329846D01*
X459108Y329777D01*
X459065Y329712D01*
X459046Y329650D01*
X459018Y329593D01*
X459007Y329523D01*
X458983Y329442D01*
X458982Y329357D01*
X458971Y329288D01*
X458971Y326691D01*
X457799Y325519D01*
X443441Y325519D01*
G37*
%LPD*%
%LPC*%
G36*
X464585Y295687D02*
X464585Y295687D01*
X460395Y297423D01*
X457189Y300629D01*
X455453Y304819D01*
X455453Y309353D01*
X457189Y313543D01*
X460395Y316749D01*
X464585Y318485D01*
X469119Y318485D01*
X473309Y316749D01*
X476515Y313543D01*
X478251Y309353D01*
X478251Y304819D01*
X476515Y300629D01*
X473309Y297423D01*
X469119Y295687D01*
X464585Y295687D01*
G37*
%LPD*%
%LPC*%
G36*
X399561Y250475D02*
X399561Y250475D01*
X395371Y252211D01*
X392165Y255417D01*
X390429Y259607D01*
X390429Y264141D01*
X392165Y268331D01*
X395371Y271537D01*
X399561Y273273D01*
X404095Y273273D01*
X408285Y271537D01*
X411491Y268331D01*
X413227Y264141D01*
X413227Y259607D01*
X411491Y255417D01*
X408285Y252211D01*
X404095Y250475D01*
X399561Y250475D01*
G37*
%LPD*%
%LPC*%
G36*
X218713Y448341D02*
X218713Y448341D01*
X214523Y450077D01*
X211317Y453283D01*
X209581Y457473D01*
X209581Y462007D01*
X211317Y466197D01*
X214523Y469403D01*
X218713Y471139D01*
X223247Y471139D01*
X227437Y469403D01*
X230643Y466197D01*
X232379Y462007D01*
X232379Y457473D01*
X230643Y453283D01*
X227437Y450077D01*
X223247Y448341D01*
X218713Y448341D01*
G37*
%LPD*%
%LPC*%
G36*
X244113Y448341D02*
X244113Y448341D01*
X239923Y450077D01*
X236717Y453283D01*
X234981Y457473D01*
X234981Y462007D01*
X236717Y466197D01*
X239923Y469403D01*
X244113Y471139D01*
X248647Y471139D01*
X252837Y469403D01*
X256043Y466197D01*
X257779Y462007D01*
X257779Y457473D01*
X256043Y453283D01*
X252837Y450077D01*
X248647Y448341D01*
X244113Y448341D01*
G37*
%LPD*%
%LPC*%
G36*
X269513Y448341D02*
X269513Y448341D01*
X265323Y450077D01*
X262117Y453283D01*
X260381Y457473D01*
X260381Y462007D01*
X262117Y466197D01*
X265323Y469403D01*
X269513Y471139D01*
X274047Y471139D01*
X278237Y469403D01*
X281443Y466197D01*
X283179Y462007D01*
X283179Y457473D01*
X281443Y453283D01*
X278237Y450077D01*
X274047Y448341D01*
X269513Y448341D01*
G37*
%LPD*%
%LPC*%
G36*
X294913Y448341D02*
X294913Y448341D01*
X290723Y450077D01*
X287517Y453283D01*
X285781Y457473D01*
X285781Y462007D01*
X287517Y466197D01*
X290723Y469403D01*
X294913Y471139D01*
X299447Y471139D01*
X303637Y469403D01*
X306843Y466197D01*
X308579Y462007D01*
X308579Y457473D01*
X306843Y453283D01*
X303637Y450077D01*
X299447Y448341D01*
X294913Y448341D01*
G37*
%LPD*%
%LPC*%
G36*
X320313Y448341D02*
X320313Y448341D01*
X316123Y450077D01*
X312917Y453283D01*
X311181Y457473D01*
X311181Y462007D01*
X312917Y466197D01*
X316123Y469403D01*
X320313Y471139D01*
X324847Y471139D01*
X329037Y469403D01*
X332243Y466197D01*
X333979Y462007D01*
X333979Y457473D01*
X332243Y453283D01*
X329037Y450077D01*
X324847Y448341D01*
X320313Y448341D01*
G37*
%LPD*%
%LPC*%
G36*
X371113Y448341D02*
X371113Y448341D01*
X366923Y450077D01*
X363717Y453283D01*
X361981Y457473D01*
X361981Y462007D01*
X363717Y466197D01*
X366923Y469403D01*
X371113Y471139D01*
X375647Y471139D01*
X379837Y469403D01*
X383043Y466197D01*
X384779Y462007D01*
X384779Y457473D01*
X383043Y453283D01*
X379837Y450077D01*
X375647Y448341D01*
X371113Y448341D01*
G37*
%LPD*%
%LPC*%
G36*
X396513Y448341D02*
X396513Y448341D01*
X392323Y450077D01*
X389117Y453283D01*
X387381Y457473D01*
X387381Y462007D01*
X389117Y466197D01*
X392323Y469403D01*
X396513Y471139D01*
X401047Y471139D01*
X405237Y469403D01*
X408443Y466197D01*
X410179Y462007D01*
X410179Y457473D01*
X408443Y453283D01*
X405237Y450077D01*
X401047Y448341D01*
X396513Y448341D01*
G37*
%LPD*%
%LPC*%
G36*
X421913Y448341D02*
X421913Y448341D01*
X417723Y450077D01*
X414517Y453283D01*
X412781Y457473D01*
X412781Y462007D01*
X414517Y466197D01*
X417723Y469403D01*
X421913Y471139D01*
X426447Y471139D01*
X430637Y469403D01*
X433843Y466197D01*
X435579Y462007D01*
X435579Y457473D01*
X433843Y453283D01*
X430637Y450077D01*
X426447Y448341D01*
X421913Y448341D01*
G37*
%LPD*%
%LPC*%
G36*
X345713Y448341D02*
X345713Y448341D01*
X341523Y450077D01*
X338317Y453283D01*
X336581Y457473D01*
X336581Y462007D01*
X338317Y466197D01*
X341523Y469403D01*
X345713Y471139D01*
X350247Y471139D01*
X354437Y469403D01*
X357643Y466197D01*
X359379Y462007D01*
X359379Y457473D01*
X357643Y453283D01*
X354437Y450077D01*
X350247Y448341D01*
X345713Y448341D01*
G37*
%LPD*%
%LPC*%
G36*
X447313Y448341D02*
X447313Y448341D01*
X443123Y450077D01*
X439917Y453283D01*
X438181Y457473D01*
X438181Y462007D01*
X439917Y466197D01*
X443123Y469403D01*
X447313Y471139D01*
X451847Y471139D01*
X456037Y469403D01*
X459243Y466197D01*
X460979Y462007D01*
X460979Y457473D01*
X459243Y453283D01*
X456037Y450077D01*
X451847Y448341D01*
X447313Y448341D01*
G37*
%LPD*%
%LPC*%
G36*
X472713Y448341D02*
X472713Y448341D01*
X468523Y450077D01*
X465317Y453283D01*
X463581Y457473D01*
X463581Y462007D01*
X465317Y466197D01*
X468523Y469403D01*
X472713Y471139D01*
X477247Y471139D01*
X481437Y469403D01*
X484643Y466197D01*
X486379Y462007D01*
X486379Y457473D01*
X484643Y453283D01*
X481437Y450077D01*
X477247Y448341D01*
X472713Y448341D01*
G37*
%LPD*%
%LPC*%
G36*
X66313Y448341D02*
X66313Y448341D01*
X62123Y450077D01*
X58917Y453283D01*
X57181Y457473D01*
X57181Y462007D01*
X58917Y466197D01*
X62123Y469403D01*
X66313Y471139D01*
X70847Y471139D01*
X75037Y469403D01*
X78243Y466197D01*
X79979Y462007D01*
X79979Y457473D01*
X78243Y453283D01*
X75037Y450077D01*
X70847Y448341D01*
X66313Y448341D01*
G37*
%LPD*%
%LPC*%
G36*
X40913Y92741D02*
X40913Y92741D01*
X36723Y94477D01*
X33517Y97683D01*
X31781Y101873D01*
X31781Y106407D01*
X33517Y110597D01*
X36723Y113803D01*
X40913Y115539D01*
X45447Y115539D01*
X49637Y113803D01*
X52843Y110597D01*
X54579Y106407D01*
X54579Y101873D01*
X52843Y97683D01*
X49637Y94477D01*
X45447Y92741D01*
X40913Y92741D01*
G37*
%LPD*%
%LPC*%
G36*
X66313Y92741D02*
X66313Y92741D01*
X62123Y94477D01*
X58917Y97683D01*
X57181Y101873D01*
X57181Y106407D01*
X58917Y110597D01*
X62123Y113803D01*
X66313Y115539D01*
X70847Y115539D01*
X75037Y113803D01*
X78243Y110597D01*
X79979Y106407D01*
X79979Y101873D01*
X78243Y97683D01*
X75037Y94477D01*
X70847Y92741D01*
X66313Y92741D01*
G37*
%LPD*%
%LPC*%
G36*
X91713Y92741D02*
X91713Y92741D01*
X87523Y94477D01*
X84317Y97683D01*
X82581Y101873D01*
X82581Y106407D01*
X84317Y110597D01*
X87523Y113803D01*
X91713Y115539D01*
X96247Y115539D01*
X100437Y113803D01*
X103643Y110597D01*
X105379Y106407D01*
X105379Y101873D01*
X103643Y97683D01*
X100437Y94477D01*
X96247Y92741D01*
X91713Y92741D01*
G37*
%LPD*%
%LPC*%
G36*
X117113Y92741D02*
X117113Y92741D01*
X112923Y94477D01*
X109717Y97683D01*
X107981Y101873D01*
X107981Y106407D01*
X109717Y110597D01*
X112923Y113803D01*
X117113Y115539D01*
X121647Y115539D01*
X125837Y113803D01*
X129043Y110597D01*
X130779Y106407D01*
X130779Y101873D01*
X129043Y97683D01*
X125837Y94477D01*
X121647Y92741D01*
X117113Y92741D01*
G37*
%LPD*%
%LPC*%
G36*
X142513Y92741D02*
X142513Y92741D01*
X138323Y94477D01*
X135117Y97683D01*
X133381Y101873D01*
X133381Y106407D01*
X135117Y110597D01*
X138323Y113803D01*
X142513Y115539D01*
X147047Y115539D01*
X151237Y113803D01*
X154443Y110597D01*
X156179Y106407D01*
X156179Y101873D01*
X154443Y97683D01*
X151237Y94477D01*
X147047Y92741D01*
X142513Y92741D01*
G37*
%LPD*%
%LPC*%
G36*
X167913Y92741D02*
X167913Y92741D01*
X163723Y94477D01*
X160517Y97683D01*
X158781Y101873D01*
X158781Y106407D01*
X160517Y110597D01*
X163723Y113803D01*
X167913Y115539D01*
X172447Y115539D01*
X176637Y113803D01*
X179843Y110597D01*
X181579Y106407D01*
X181579Y101873D01*
X179843Y97683D01*
X176637Y94477D01*
X172447Y92741D01*
X167913Y92741D01*
G37*
%LPD*%
%LPC*%
G36*
X193313Y92741D02*
X193313Y92741D01*
X189123Y94477D01*
X185917Y97683D01*
X184181Y101873D01*
X184181Y106407D01*
X185917Y110597D01*
X189123Y113803D01*
X193313Y115539D01*
X197847Y115539D01*
X202037Y113803D01*
X205243Y110597D01*
X206979Y106407D01*
X206979Y101873D01*
X205243Y97683D01*
X202037Y94477D01*
X197847Y92741D01*
X193313Y92741D01*
G37*
%LPD*%
%LPC*%
G36*
X218713Y92741D02*
X218713Y92741D01*
X214523Y94477D01*
X211317Y97683D01*
X209581Y101873D01*
X209581Y106407D01*
X211317Y110597D01*
X214523Y113803D01*
X218713Y115539D01*
X223247Y115539D01*
X227437Y113803D01*
X230643Y110597D01*
X232379Y106407D01*
X232379Y101873D01*
X230643Y97683D01*
X227437Y94477D01*
X223247Y92741D01*
X218713Y92741D01*
G37*
%LPD*%
%LPC*%
G36*
X91713Y448341D02*
X91713Y448341D01*
X87523Y450077D01*
X84317Y453283D01*
X82581Y457473D01*
X82581Y462007D01*
X84317Y466197D01*
X87523Y469403D01*
X91713Y471139D01*
X96247Y471139D01*
X100437Y469403D01*
X103643Y466197D01*
X105379Y462007D01*
X105379Y457473D01*
X103643Y453283D01*
X100437Y450077D01*
X96247Y448341D01*
X91713Y448341D01*
G37*
%LPD*%
%LPC*%
G36*
X269513Y92741D02*
X269513Y92741D01*
X265323Y94477D01*
X262117Y97683D01*
X260381Y101873D01*
X260381Y106407D01*
X262117Y110597D01*
X265323Y113803D01*
X269513Y115539D01*
X274047Y115539D01*
X278237Y113803D01*
X281443Y110597D01*
X283179Y106407D01*
X283179Y101873D01*
X281443Y97683D01*
X278237Y94477D01*
X274047Y92741D01*
X269513Y92741D01*
G37*
%LPD*%
%LPC*%
G36*
X294913Y92741D02*
X294913Y92741D01*
X290723Y94477D01*
X287517Y97683D01*
X285781Y101873D01*
X285781Y106407D01*
X287517Y110597D01*
X290723Y113803D01*
X294913Y115539D01*
X299447Y115539D01*
X303637Y113803D01*
X306843Y110597D01*
X308579Y106407D01*
X308579Y101873D01*
X306843Y97683D01*
X303637Y94477D01*
X299447Y92741D01*
X294913Y92741D01*
G37*
%LPD*%
%LPC*%
G36*
X320313Y92741D02*
X320313Y92741D01*
X316123Y94477D01*
X312917Y97683D01*
X311181Y101873D01*
X311181Y106407D01*
X312917Y110597D01*
X316123Y113803D01*
X320313Y115539D01*
X324847Y115539D01*
X329037Y113803D01*
X332243Y110597D01*
X333979Y106407D01*
X333979Y101873D01*
X332243Y97683D01*
X329037Y94477D01*
X324847Y92741D01*
X320313Y92741D01*
G37*
%LPD*%
%LPC*%
G36*
X399561Y295687D02*
X399561Y295687D01*
X395371Y297423D01*
X392165Y300629D01*
X390429Y304819D01*
X390429Y309353D01*
X392165Y313543D01*
X395371Y316749D01*
X399561Y318485D01*
X404095Y318485D01*
X408285Y316749D01*
X411491Y313543D01*
X413227Y309353D01*
X413227Y304819D01*
X411491Y300629D01*
X408285Y297423D01*
X404095Y295687D01*
X399561Y295687D01*
G37*
%LPD*%
%LPC*%
G36*
X117113Y448341D02*
X117113Y448341D01*
X112923Y450077D01*
X109717Y453283D01*
X107981Y457473D01*
X107981Y462007D01*
X109717Y466197D01*
X112923Y469403D01*
X117113Y471139D01*
X121647Y471139D01*
X125837Y469403D01*
X129043Y466197D01*
X130779Y462007D01*
X130779Y457473D01*
X129043Y453283D01*
X125837Y450077D01*
X121647Y448341D01*
X117113Y448341D01*
G37*
%LPD*%
%LPC*%
G36*
X40913Y448341D02*
X40913Y448341D01*
X36723Y450077D01*
X33517Y453283D01*
X31781Y457473D01*
X31781Y462007D01*
X33517Y466197D01*
X36723Y469403D01*
X40913Y471139D01*
X45447Y471139D01*
X49637Y469403D01*
X52843Y466197D01*
X54579Y462007D01*
X54579Y457473D01*
X52843Y453283D01*
X49637Y450077D01*
X45447Y448341D01*
X40913Y448341D01*
G37*
%LPD*%
%LPC*%
G36*
X142513Y448341D02*
X142513Y448341D01*
X138323Y450077D01*
X135117Y453283D01*
X133381Y457473D01*
X133381Y462007D01*
X135117Y466197D01*
X138323Y469403D01*
X142513Y471139D01*
X147047Y471139D01*
X151237Y469403D01*
X154443Y466197D01*
X156179Y462007D01*
X156179Y457473D01*
X154443Y453283D01*
X151237Y450077D01*
X147047Y448341D01*
X142513Y448341D01*
G37*
%LPD*%
%LPC*%
G36*
X193313Y448341D02*
X193313Y448341D01*
X189123Y450077D01*
X185917Y453283D01*
X184181Y457473D01*
X184181Y462007D01*
X185917Y466197D01*
X189123Y469403D01*
X193313Y471139D01*
X197847Y471139D01*
X202037Y469403D01*
X205243Y466197D01*
X206979Y462007D01*
X206979Y457473D01*
X205243Y453283D01*
X202037Y450077D01*
X197847Y448341D01*
X193313Y448341D01*
G37*
%LPD*%
%LPC*%
G36*
X498113Y448341D02*
X498113Y448341D01*
X493923Y450077D01*
X490717Y453283D01*
X488981Y457473D01*
X488981Y462007D01*
X490717Y466197D01*
X493923Y469403D01*
X498113Y471139D01*
X502647Y471139D01*
X506837Y469403D01*
X510043Y466197D01*
X511779Y462007D01*
X511779Y457473D01*
X510043Y453283D01*
X506837Y450077D01*
X502647Y448341D01*
X498113Y448341D01*
G37*
%LPD*%
%LPC*%
G36*
X244113Y92741D02*
X244113Y92741D01*
X239923Y94477D01*
X236717Y97683D01*
X234981Y101873D01*
X234981Y106407D01*
X236717Y110597D01*
X239923Y113803D01*
X244113Y115539D01*
X248647Y115539D01*
X252837Y113803D01*
X256043Y110597D01*
X257779Y106407D01*
X257779Y101873D01*
X256043Y97683D01*
X252837Y94477D01*
X248647Y92741D01*
X244113Y92741D01*
G37*
%LPD*%
%LPC*%
G36*
X305174Y232949D02*
X305174Y232949D01*
X301171Y234607D01*
X298107Y237671D01*
X296449Y241674D01*
X296449Y246006D01*
X298107Y250009D01*
X301171Y253073D01*
X305174Y254731D01*
X309506Y254731D01*
X313509Y253073D01*
X316573Y250009D01*
X318231Y246006D01*
X318231Y241674D01*
X316573Y237671D01*
X313509Y234607D01*
X309506Y232949D01*
X305174Y232949D01*
G37*
%LPD*%
%LPC*%
G36*
X305174Y258349D02*
X305174Y258349D01*
X301171Y260007D01*
X298107Y263071D01*
X296449Y267074D01*
X296449Y271406D01*
X298107Y275409D01*
X301171Y278473D01*
X305174Y280131D01*
X309506Y280131D01*
X313509Y278473D01*
X316573Y275409D01*
X318231Y271406D01*
X318231Y267074D01*
X316573Y263071D01*
X313509Y260007D01*
X309506Y258349D01*
X305174Y258349D01*
G37*
%LPD*%
%LPC*%
G36*
X218926Y144614D02*
X218926Y144614D01*
X215131Y146186D01*
X212226Y149091D01*
X210654Y152886D01*
X210654Y156994D01*
X212226Y160789D01*
X215131Y163694D01*
X218926Y165266D01*
X223034Y165266D01*
X226829Y163694D01*
X229734Y160789D01*
X231306Y156994D01*
X231306Y152886D01*
X229734Y149091D01*
X226829Y146186D01*
X223034Y144614D01*
X218926Y144614D01*
G37*
%LPD*%
%LPC*%
G36*
X244326Y144614D02*
X244326Y144614D01*
X240531Y146186D01*
X237626Y149091D01*
X236054Y152886D01*
X236054Y156994D01*
X237626Y160789D01*
X240531Y163694D01*
X244326Y165266D01*
X248434Y165266D01*
X252229Y163694D01*
X255134Y160789D01*
X256706Y156994D01*
X256706Y152886D01*
X255134Y149091D01*
X252229Y146186D01*
X248434Y144614D01*
X244326Y144614D01*
G37*
%LPD*%
%LPC*%
G36*
X269726Y144614D02*
X269726Y144614D01*
X265931Y146186D01*
X263026Y149091D01*
X261454Y152886D01*
X261454Y156994D01*
X263026Y160789D01*
X265931Y163694D01*
X269726Y165266D01*
X273834Y165266D01*
X277629Y163694D01*
X280534Y160789D01*
X282106Y156994D01*
X282106Y152886D01*
X280534Y149091D01*
X277629Y146186D01*
X273834Y144614D01*
X269726Y144614D01*
G37*
%LPD*%
%LPC*%
G36*
X295126Y144614D02*
X295126Y144614D01*
X291331Y146186D01*
X288426Y149091D01*
X286854Y152886D01*
X286854Y156994D01*
X288426Y160789D01*
X291331Y163694D01*
X295126Y165266D01*
X299234Y165266D01*
X303029Y163694D01*
X305934Y160789D01*
X307506Y156994D01*
X307506Y152886D01*
X305934Y149091D01*
X303029Y146186D01*
X299234Y144614D01*
X295126Y144614D01*
G37*
%LPD*%
%LPC*%
G36*
X320526Y398614D02*
X320526Y398614D01*
X316731Y400186D01*
X313826Y403091D01*
X312254Y406886D01*
X312254Y410994D01*
X313826Y414789D01*
X316731Y417694D01*
X320526Y419266D01*
X324634Y419266D01*
X328429Y417694D01*
X331334Y414789D01*
X332906Y410994D01*
X332906Y406886D01*
X331334Y403091D01*
X328429Y400186D01*
X324634Y398614D01*
X320526Y398614D01*
G37*
%LPD*%
%LPC*%
G36*
X295126Y398614D02*
X295126Y398614D01*
X291331Y400186D01*
X288426Y403091D01*
X286854Y406886D01*
X286854Y410994D01*
X288426Y414789D01*
X291331Y417694D01*
X295126Y419266D01*
X299234Y419266D01*
X303029Y417694D01*
X305934Y414789D01*
X307506Y410994D01*
X307506Y406886D01*
X305934Y403091D01*
X303029Y400186D01*
X299234Y398614D01*
X295126Y398614D01*
G37*
%LPD*%
%LPC*%
G36*
X269726Y398614D02*
X269726Y398614D01*
X265931Y400186D01*
X263026Y403091D01*
X261454Y406886D01*
X261454Y410994D01*
X263026Y414789D01*
X265931Y417694D01*
X269726Y419266D01*
X273834Y419266D01*
X277629Y417694D01*
X280534Y414789D01*
X282106Y410994D01*
X282106Y406886D01*
X280534Y403091D01*
X277629Y400186D01*
X273834Y398614D01*
X269726Y398614D01*
G37*
%LPD*%
%LPC*%
G36*
X244326Y398614D02*
X244326Y398614D01*
X240531Y400186D01*
X237626Y403091D01*
X236054Y406886D01*
X236054Y410994D01*
X237626Y414789D01*
X240531Y417694D01*
X244326Y419266D01*
X248434Y419266D01*
X252229Y417694D01*
X255134Y414789D01*
X256706Y410994D01*
X256706Y406886D01*
X255134Y403091D01*
X252229Y400186D01*
X248434Y398614D01*
X244326Y398614D01*
G37*
%LPD*%
%LPC*%
G36*
X193526Y398614D02*
X193526Y398614D01*
X189731Y400186D01*
X186826Y403091D01*
X185254Y406886D01*
X185254Y410994D01*
X186826Y414789D01*
X189731Y417694D01*
X193526Y419266D01*
X197634Y419266D01*
X201429Y417694D01*
X204334Y414789D01*
X205906Y410994D01*
X205906Y406886D01*
X204334Y403091D01*
X201429Y400186D01*
X197634Y398614D01*
X193526Y398614D01*
G37*
%LPD*%
%LPC*%
G36*
X117326Y398614D02*
X117326Y398614D01*
X113531Y400186D01*
X110626Y403091D01*
X109054Y406886D01*
X109054Y410994D01*
X110626Y414789D01*
X113531Y417694D01*
X117326Y419266D01*
X121434Y419266D01*
X125229Y417694D01*
X128134Y414789D01*
X129706Y410994D01*
X129706Y406886D01*
X128134Y403091D01*
X125229Y400186D01*
X121434Y398614D01*
X117326Y398614D01*
G37*
%LPD*%
%LPC*%
G36*
X91926Y398614D02*
X91926Y398614D01*
X88131Y400186D01*
X85226Y403091D01*
X83654Y406886D01*
X83654Y410994D01*
X85226Y414789D01*
X88131Y417694D01*
X91926Y419266D01*
X96034Y419266D01*
X99829Y417694D01*
X102734Y414789D01*
X104306Y410994D01*
X104306Y406886D01*
X102734Y403091D01*
X99829Y400186D01*
X96034Y398614D01*
X91926Y398614D01*
G37*
%LPD*%
%LPC*%
G36*
X66526Y398614D02*
X66526Y398614D01*
X62731Y400186D01*
X59826Y403091D01*
X58254Y406886D01*
X58254Y410994D01*
X59826Y414789D01*
X62731Y417694D01*
X66526Y419266D01*
X70634Y419266D01*
X74429Y417694D01*
X77334Y414789D01*
X78906Y410994D01*
X78906Y406886D01*
X77334Y403091D01*
X74429Y400186D01*
X70634Y398614D01*
X66526Y398614D01*
G37*
%LPD*%
%LPC*%
G36*
X142726Y398614D02*
X142726Y398614D01*
X138931Y400186D01*
X136026Y403091D01*
X134454Y406886D01*
X134454Y410994D01*
X136026Y414789D01*
X138931Y417694D01*
X142726Y419266D01*
X146834Y419266D01*
X150629Y417694D01*
X153534Y414789D01*
X155106Y410994D01*
X155106Y406886D01*
X153534Y403091D01*
X150629Y400186D01*
X146834Y398614D01*
X142726Y398614D01*
G37*
%LPD*%
%LPC*%
G36*
X498326Y398614D02*
X498326Y398614D01*
X494531Y400186D01*
X491626Y403091D01*
X490054Y406886D01*
X490054Y410994D01*
X491626Y414789D01*
X494531Y417694D01*
X498326Y419266D01*
X502434Y419266D01*
X506229Y417694D01*
X509134Y414789D01*
X510706Y410994D01*
X510706Y406886D01*
X509134Y403091D01*
X506229Y400186D01*
X502434Y398614D01*
X498326Y398614D01*
G37*
%LPD*%
%LPC*%
G36*
X472926Y398614D02*
X472926Y398614D01*
X469131Y400186D01*
X466226Y403091D01*
X464654Y406886D01*
X464654Y410994D01*
X466226Y414789D01*
X469131Y417694D01*
X472926Y419266D01*
X477034Y419266D01*
X480829Y417694D01*
X483734Y414789D01*
X485306Y410994D01*
X485306Y406886D01*
X483734Y403091D01*
X480829Y400186D01*
X477034Y398614D01*
X472926Y398614D01*
G37*
%LPD*%
%LPC*%
G36*
X447526Y398614D02*
X447526Y398614D01*
X443731Y400186D01*
X440826Y403091D01*
X439254Y406886D01*
X439254Y410994D01*
X440826Y414789D01*
X443731Y417694D01*
X447526Y419266D01*
X451634Y419266D01*
X455429Y417694D01*
X458334Y414789D01*
X459906Y410994D01*
X459906Y406886D01*
X458334Y403091D01*
X455429Y400186D01*
X451634Y398614D01*
X447526Y398614D01*
G37*
%LPD*%
%LPC*%
G36*
X422126Y398614D02*
X422126Y398614D01*
X418331Y400186D01*
X415426Y403091D01*
X413854Y406886D01*
X413854Y410994D01*
X415426Y414789D01*
X418331Y417694D01*
X422126Y419266D01*
X426234Y419266D01*
X430029Y417694D01*
X432934Y414789D01*
X434506Y410994D01*
X434506Y406886D01*
X432934Y403091D01*
X430029Y400186D01*
X426234Y398614D01*
X422126Y398614D01*
G37*
%LPD*%
%LPC*%
G36*
X396726Y398614D02*
X396726Y398614D01*
X392931Y400186D01*
X390026Y403091D01*
X388454Y406886D01*
X388454Y410994D01*
X390026Y414789D01*
X392931Y417694D01*
X396726Y419266D01*
X400834Y419266D01*
X404629Y417694D01*
X407534Y414789D01*
X409106Y410994D01*
X409106Y406886D01*
X407534Y403091D01*
X404629Y400186D01*
X400834Y398614D01*
X396726Y398614D01*
G37*
%LPD*%
%LPC*%
G36*
X218926Y398614D02*
X218926Y398614D01*
X215131Y400186D01*
X212226Y403091D01*
X210654Y406886D01*
X210654Y410994D01*
X212226Y414789D01*
X215131Y417694D01*
X218926Y419266D01*
X223034Y419266D01*
X226829Y417694D01*
X229734Y414789D01*
X231306Y410994D01*
X231306Y406886D01*
X229734Y403091D01*
X226829Y400186D01*
X223034Y398614D01*
X218926Y398614D01*
G37*
%LPD*%
%LPC*%
G36*
X345926Y398614D02*
X345926Y398614D01*
X342131Y400186D01*
X339226Y403091D01*
X337654Y406886D01*
X337654Y410994D01*
X339226Y414789D01*
X342131Y417694D01*
X345926Y419266D01*
X350034Y419266D01*
X353829Y417694D01*
X356734Y414789D01*
X358306Y410994D01*
X358306Y406886D01*
X356734Y403091D01*
X353829Y400186D01*
X350034Y398614D01*
X345926Y398614D01*
G37*
%LPD*%
%LPC*%
G36*
X41126Y144614D02*
X41126Y144614D01*
X37331Y146186D01*
X34426Y149091D01*
X32854Y152886D01*
X32854Y156994D01*
X34426Y160789D01*
X37331Y163694D01*
X41126Y165266D01*
X45234Y165266D01*
X49029Y163694D01*
X51934Y160789D01*
X53506Y156994D01*
X53506Y152886D01*
X51934Y149091D01*
X49029Y146186D01*
X45234Y144614D01*
X41126Y144614D01*
G37*
%LPD*%
%LPC*%
G36*
X66526Y144614D02*
X66526Y144614D01*
X62731Y146186D01*
X59826Y149091D01*
X58254Y152886D01*
X58254Y156994D01*
X59826Y160789D01*
X62731Y163694D01*
X66526Y165266D01*
X70634Y165266D01*
X74429Y163694D01*
X77334Y160789D01*
X78906Y156994D01*
X78906Y152886D01*
X77334Y149091D01*
X74429Y146186D01*
X70634Y144614D01*
X66526Y144614D01*
G37*
%LPD*%
%LPC*%
G36*
X168126Y144614D02*
X168126Y144614D01*
X164331Y146186D01*
X161426Y149091D01*
X159854Y152886D01*
X159854Y156994D01*
X161426Y160789D01*
X164331Y163694D01*
X168126Y165266D01*
X172234Y165266D01*
X176029Y163694D01*
X178934Y160789D01*
X180506Y156994D01*
X180506Y152886D01*
X178934Y149091D01*
X176029Y146186D01*
X172234Y144614D01*
X168126Y144614D01*
G37*
%LPD*%
%LPC*%
G36*
X91926Y144614D02*
X91926Y144614D01*
X88131Y146186D01*
X85226Y149091D01*
X83654Y152886D01*
X83654Y156994D01*
X85226Y160789D01*
X88131Y163694D01*
X91926Y165266D01*
X96034Y165266D01*
X99829Y163694D01*
X102734Y160789D01*
X104306Y156994D01*
X104306Y152886D01*
X102734Y149091D01*
X99829Y146186D01*
X96034Y144614D01*
X91926Y144614D01*
G37*
%LPD*%
%LPC*%
G36*
X142726Y144614D02*
X142726Y144614D01*
X138931Y146186D01*
X136026Y149091D01*
X134454Y152886D01*
X134454Y156994D01*
X136026Y160789D01*
X138931Y163694D01*
X142726Y165266D01*
X146834Y165266D01*
X150629Y163694D01*
X153534Y160789D01*
X155106Y156994D01*
X155106Y152886D01*
X153534Y149091D01*
X150629Y146186D01*
X146834Y144614D01*
X142726Y144614D01*
G37*
%LPD*%
%LPC*%
G36*
X193526Y144614D02*
X193526Y144614D01*
X189731Y146186D01*
X186826Y149091D01*
X185254Y152886D01*
X185254Y156994D01*
X186826Y160789D01*
X189731Y163694D01*
X193526Y165266D01*
X197634Y165266D01*
X201429Y163694D01*
X204334Y160789D01*
X205906Y156994D01*
X205906Y152886D01*
X204334Y149091D01*
X201429Y146186D01*
X197634Y144614D01*
X193526Y144614D01*
G37*
%LPD*%
%LPC*%
G36*
X371326Y398614D02*
X371326Y398614D01*
X367531Y400186D01*
X364626Y403091D01*
X363054Y406886D01*
X363054Y410994D01*
X364626Y414789D01*
X367531Y417694D01*
X371326Y419266D01*
X375434Y419266D01*
X379229Y417694D01*
X382134Y414789D01*
X383706Y410994D01*
X383706Y406886D01*
X382134Y403091D01*
X379229Y400186D01*
X375434Y398614D01*
X371326Y398614D01*
G37*
%LPD*%
%LPC*%
G36*
X832492Y427339D02*
X832492Y427339D01*
X828986Y428792D01*
X826302Y431476D01*
X824849Y434982D01*
X824849Y438778D01*
X826302Y442284D01*
X828986Y444968D01*
X832492Y446421D01*
X836288Y446421D01*
X839794Y444968D01*
X842478Y442284D01*
X843931Y438778D01*
X843931Y434982D01*
X842478Y431476D01*
X839794Y428792D01*
X836288Y427339D01*
X832492Y427339D01*
G37*
%LPD*%
%LPC*%
G36*
X680092Y427339D02*
X680092Y427339D01*
X676586Y428792D01*
X673902Y431476D01*
X672449Y434982D01*
X672449Y438778D01*
X673902Y442284D01*
X676586Y444968D01*
X680092Y446421D01*
X683888Y446421D01*
X687394Y444968D01*
X690078Y442284D01*
X691531Y438778D01*
X691531Y434982D01*
X690078Y431476D01*
X687394Y428792D01*
X683888Y427339D01*
X680092Y427339D01*
G37*
%LPD*%
%LPC*%
G36*
X730892Y427339D02*
X730892Y427339D01*
X727386Y428792D01*
X724702Y431476D01*
X723249Y434982D01*
X723249Y438778D01*
X724702Y442284D01*
X727386Y444968D01*
X730892Y446421D01*
X734688Y446421D01*
X738194Y444968D01*
X740878Y442284D01*
X742331Y438778D01*
X742331Y434982D01*
X740878Y431476D01*
X738194Y428792D01*
X734688Y427339D01*
X730892Y427339D01*
G37*
%LPD*%
%LPC*%
G36*
X654692Y122539D02*
X654692Y122539D01*
X651186Y123992D01*
X648502Y126676D01*
X647049Y130182D01*
X647049Y133978D01*
X648502Y137484D01*
X651186Y140168D01*
X654692Y141621D01*
X658488Y141621D01*
X661994Y140168D01*
X664678Y137484D01*
X666131Y133978D01*
X666131Y130182D01*
X664678Y126676D01*
X661994Y123992D01*
X658488Y122539D01*
X654692Y122539D01*
G37*
%LPD*%
%LPC*%
G36*
X730892Y122539D02*
X730892Y122539D01*
X727386Y123992D01*
X724702Y126676D01*
X723249Y130182D01*
X723249Y133978D01*
X724702Y137484D01*
X727386Y140168D01*
X730892Y141621D01*
X734688Y141621D01*
X738194Y140168D01*
X740878Y137484D01*
X742331Y133978D01*
X742331Y130182D01*
X740878Y126676D01*
X738194Y123992D01*
X734688Y122539D01*
X730892Y122539D01*
G37*
%LPD*%
%LPC*%
G36*
X629292Y122539D02*
X629292Y122539D01*
X625786Y123992D01*
X623102Y126676D01*
X621649Y130182D01*
X621649Y133978D01*
X623102Y137484D01*
X625786Y140168D01*
X629292Y141621D01*
X633088Y141621D01*
X636594Y140168D01*
X639278Y137484D01*
X640731Y133978D01*
X640731Y130182D01*
X639278Y126676D01*
X636594Y123992D01*
X633088Y122539D01*
X629292Y122539D01*
G37*
%LPD*%
%LPC*%
G36*
X615322Y286369D02*
X615322Y286369D01*
X611816Y287822D01*
X609132Y290506D01*
X607679Y294012D01*
X607679Y297808D01*
X609132Y301314D01*
X611816Y303998D01*
X615322Y305451D01*
X619118Y305451D01*
X622624Y303998D01*
X625308Y301314D01*
X626761Y297808D01*
X626761Y294012D01*
X625308Y290506D01*
X622624Y287822D01*
X619118Y286369D01*
X615322Y286369D01*
G37*
%LPD*%
%LPC*%
G36*
X705492Y427339D02*
X705492Y427339D01*
X701986Y428792D01*
X699302Y431476D01*
X697849Y434982D01*
X697849Y438778D01*
X699302Y442284D01*
X701986Y444968D01*
X705492Y446421D01*
X709288Y446421D01*
X712794Y444968D01*
X715478Y442284D01*
X716931Y438778D01*
X716931Y434982D01*
X715478Y431476D01*
X712794Y428792D01*
X709288Y427339D01*
X705492Y427339D01*
G37*
%LPD*%
%LPC*%
G36*
X756292Y122539D02*
X756292Y122539D01*
X752786Y123992D01*
X750102Y126676D01*
X748649Y130182D01*
X748649Y133978D01*
X750102Y137484D01*
X752786Y140168D01*
X756292Y141621D01*
X760088Y141621D01*
X763594Y140168D01*
X766278Y137484D01*
X767731Y133978D01*
X767731Y130182D01*
X766278Y126676D01*
X763594Y123992D01*
X760088Y122539D01*
X756292Y122539D01*
G37*
%LPD*%
%LPC*%
G36*
X807092Y122539D02*
X807092Y122539D01*
X803586Y123992D01*
X800902Y126676D01*
X799449Y130182D01*
X799449Y133978D01*
X800902Y137484D01*
X803586Y140168D01*
X807092Y141621D01*
X810888Y141621D01*
X814394Y140168D01*
X817078Y137484D01*
X818531Y133978D01*
X818531Y130182D01*
X817078Y126676D01*
X814394Y123992D01*
X810888Y122539D01*
X807092Y122539D01*
G37*
%LPD*%
%LPC*%
G36*
X832492Y122539D02*
X832492Y122539D01*
X828986Y123992D01*
X826302Y126676D01*
X824849Y130182D01*
X824849Y133978D01*
X826302Y137484D01*
X828986Y140168D01*
X832492Y141621D01*
X836288Y141621D01*
X839794Y140168D01*
X842478Y137484D01*
X843931Y133978D01*
X843931Y130182D01*
X842478Y126676D01*
X839794Y123992D01*
X836288Y122539D01*
X832492Y122539D01*
G37*
%LPD*%
%LPC*%
G36*
X883292Y122539D02*
X883292Y122539D01*
X879786Y123992D01*
X877102Y126676D01*
X875649Y130182D01*
X875649Y133978D01*
X877102Y137484D01*
X879786Y140168D01*
X883292Y141621D01*
X887088Y141621D01*
X890594Y140168D01*
X893278Y137484D01*
X894731Y133978D01*
X894731Y130182D01*
X893278Y126676D01*
X890594Y123992D01*
X887088Y122539D01*
X883292Y122539D01*
G37*
%LPD*%
%LPC*%
G36*
X781692Y122539D02*
X781692Y122539D01*
X778186Y123992D01*
X775502Y126676D01*
X774049Y130182D01*
X774049Y133978D01*
X775502Y137484D01*
X778186Y140168D01*
X781692Y141621D01*
X785488Y141621D01*
X788994Y140168D01*
X791678Y137484D01*
X793131Y133978D01*
X793131Y130182D01*
X791678Y126676D01*
X788994Y123992D01*
X785488Y122539D01*
X781692Y122539D01*
G37*
%LPD*%
%LPC*%
G36*
X807092Y427339D02*
X807092Y427339D01*
X803586Y428792D01*
X800902Y431476D01*
X799449Y434982D01*
X799449Y438778D01*
X800902Y442284D01*
X803586Y444968D01*
X807092Y446421D01*
X810888Y446421D01*
X814394Y444968D01*
X817078Y442284D01*
X818531Y438778D01*
X818531Y434982D01*
X817078Y431476D01*
X814394Y428792D01*
X810888Y427339D01*
X807092Y427339D01*
G37*
%LPD*%
%LPC*%
G36*
X670019Y258589D02*
X670019Y258589D01*
X670019Y271881D01*
X681855Y271881D01*
X682501Y271708D01*
X683080Y271373D01*
X683553Y270900D01*
X683888Y270321D01*
X684061Y269675D01*
X684061Y258589D01*
X670019Y258589D01*
G37*
%LPD*%
%LPC*%
G36*
X239489Y309289D02*
X239489Y309289D01*
X239489Y322581D01*
X251325Y322581D01*
X251971Y322408D01*
X252550Y322073D01*
X253023Y321600D01*
X253358Y321021D01*
X253531Y320375D01*
X253531Y309289D01*
X239489Y309289D01*
G37*
%LPD*%
%LPC*%
G36*
X239489Y305291D02*
X239489Y305291D01*
X253531Y305291D01*
X253531Y294205D01*
X253358Y293559D01*
X253023Y292980D01*
X252550Y292507D01*
X251971Y292172D01*
X251325Y291999D01*
X239489Y291999D01*
X239489Y305291D01*
G37*
%LPD*%
%LPC*%
G36*
X670019Y254591D02*
X670019Y254591D01*
X684061Y254591D01*
X684061Y243505D01*
X683888Y242859D01*
X683553Y242280D01*
X683080Y241807D01*
X682501Y241472D01*
X681855Y241299D01*
X670019Y241299D01*
X670019Y254591D01*
G37*
%LPD*%
%LPC*%
G36*
X651979Y258589D02*
X651979Y258589D01*
X651979Y269675D01*
X652152Y270321D01*
X652487Y270900D01*
X652960Y271373D01*
X653539Y271708D01*
X654185Y271881D01*
X666021Y271881D01*
X666021Y258589D01*
X651979Y258589D01*
G37*
%LPD*%
%LPC*%
G36*
X221449Y309289D02*
X221449Y309289D01*
X221449Y320375D01*
X221622Y321021D01*
X221957Y321600D01*
X222430Y322073D01*
X223009Y322408D01*
X223655Y322581D01*
X235491Y322581D01*
X235491Y309289D01*
X221449Y309289D01*
G37*
%LPD*%
%LPC*%
G36*
X654185Y241299D02*
X654185Y241299D01*
X653539Y241472D01*
X652960Y241807D01*
X652487Y242280D01*
X652152Y242859D01*
X651979Y243505D01*
X651979Y254591D01*
X666021Y254591D01*
X666021Y241299D01*
X654185Y241299D01*
G37*
%LPD*%
%LPC*%
G36*
X223655Y291999D02*
X223655Y291999D01*
X223009Y292172D01*
X222430Y292507D01*
X221957Y292980D01*
X221622Y293559D01*
X221449Y294205D01*
X221449Y305291D01*
X235491Y305291D01*
X235491Y291999D01*
X223655Y291999D01*
G37*
%LPD*%
%LPC*%
G36*
X468851Y263873D02*
X468851Y263873D01*
X468851Y273645D01*
X469648Y273519D01*
X471435Y272938D01*
X473109Y272085D01*
X474630Y270980D01*
X475958Y269652D01*
X477063Y268131D01*
X477916Y266457D01*
X478497Y264670D01*
X478623Y263873D01*
X468851Y263873D01*
G37*
%LPD*%
%LPC*%
G36*
X172179Y461739D02*
X172179Y461739D01*
X172179Y471511D01*
X172976Y471385D01*
X174763Y470804D01*
X176437Y469951D01*
X177958Y468846D01*
X179286Y467518D01*
X180391Y465997D01*
X181244Y464323D01*
X181825Y462536D01*
X181951Y461739D01*
X172179Y461739D01*
G37*
%LPD*%
%LPC*%
G36*
X349979Y106139D02*
X349979Y106139D01*
X349979Y115911D01*
X350776Y115785D01*
X352563Y115204D01*
X354237Y114351D01*
X355758Y113246D01*
X357086Y111918D01*
X358191Y110397D01*
X359044Y108723D01*
X359625Y106936D01*
X359751Y106139D01*
X349979Y106139D01*
G37*
%LPD*%
%LPC*%
G36*
X502379Y106139D02*
X502379Y106139D01*
X502379Y115911D01*
X503176Y115785D01*
X504963Y115204D01*
X506637Y114351D01*
X508158Y113246D01*
X509486Y111918D01*
X510591Y110397D01*
X511444Y108723D01*
X512025Y106936D01*
X512151Y106139D01*
X502379Y106139D01*
G37*
%LPD*%
%LPC*%
G36*
X502379Y102141D02*
X502379Y102141D01*
X512151Y102141D01*
X512025Y101344D01*
X511444Y99557D01*
X510591Y97883D01*
X509486Y96362D01*
X508158Y95034D01*
X506637Y93929D01*
X504963Y93076D01*
X503176Y92495D01*
X502379Y92369D01*
X502379Y102141D01*
G37*
%LPD*%
%LPC*%
G36*
X172179Y457741D02*
X172179Y457741D01*
X181951Y457741D01*
X181825Y456944D01*
X181244Y455157D01*
X180391Y453483D01*
X179286Y451962D01*
X177958Y450634D01*
X176437Y449529D01*
X174763Y448676D01*
X172976Y448095D01*
X172179Y447969D01*
X172179Y457741D01*
G37*
%LPD*%
%LPC*%
G36*
X349979Y102141D02*
X349979Y102141D01*
X359751Y102141D01*
X359625Y101344D01*
X359044Y99557D01*
X358191Y97883D01*
X357086Y96362D01*
X355758Y95034D01*
X354237Y93929D01*
X352563Y93076D01*
X350776Y92495D01*
X349979Y92369D01*
X349979Y102141D01*
G37*
%LPD*%
%LPC*%
G36*
X455081Y263873D02*
X455081Y263873D01*
X455207Y264670D01*
X455788Y266457D01*
X456641Y268131D01*
X457746Y269652D01*
X459074Y270980D01*
X460595Y272085D01*
X462269Y272938D01*
X464056Y273519D01*
X464853Y273645D01*
X464853Y263873D01*
X455081Y263873D01*
G37*
%LPD*%
%LPC*%
G36*
X468851Y259875D02*
X468851Y259875D01*
X478623Y259875D01*
X478497Y259078D01*
X477916Y257291D01*
X477063Y255617D01*
X475958Y254096D01*
X474630Y252768D01*
X473109Y251663D01*
X471435Y250810D01*
X469648Y250229D01*
X468851Y250103D01*
X468851Y259875D01*
G37*
%LPD*%
%LPC*%
G36*
X488609Y106139D02*
X488609Y106139D01*
X488709Y106769D01*
X488735Y106936D01*
X489316Y108723D01*
X490169Y110397D01*
X491274Y111918D01*
X492602Y113246D01*
X494123Y114351D01*
X495797Y115204D01*
X497584Y115785D01*
X498381Y115911D01*
X498381Y106139D01*
X488609Y106139D01*
G37*
%LPD*%
%LPC*%
G36*
X336209Y106139D02*
X336209Y106139D01*
X336309Y106769D01*
X336335Y106936D01*
X336916Y108723D01*
X337769Y110397D01*
X338874Y111918D01*
X340202Y113246D01*
X341723Y114351D01*
X343397Y115204D01*
X345184Y115785D01*
X345981Y115911D01*
X345981Y106139D01*
X336209Y106139D01*
G37*
%LPD*%
%LPC*%
G36*
X158409Y461739D02*
X158409Y461739D01*
X158530Y462502D01*
X158535Y462536D01*
X159116Y464323D01*
X159969Y465997D01*
X161074Y467518D01*
X162402Y468846D01*
X163923Y469951D01*
X165597Y470804D01*
X167384Y471385D01*
X168181Y471511D01*
X168181Y461739D01*
X158409Y461739D01*
G37*
%LPD*%
%LPC*%
G36*
X497584Y92495D02*
X497584Y92495D01*
X495797Y93076D01*
X494123Y93929D01*
X492602Y95034D01*
X491274Y96362D01*
X490169Y97883D01*
X489316Y99557D01*
X488735Y101344D01*
X488609Y102141D01*
X498381Y102141D01*
X498381Y92369D01*
X497584Y92495D01*
G37*
%LPD*%
%LPC*%
G36*
X464056Y250229D02*
X464056Y250229D01*
X462269Y250810D01*
X460595Y251663D01*
X459074Y252768D01*
X457746Y254096D01*
X456641Y255617D01*
X455788Y257291D01*
X455207Y259078D01*
X455081Y259875D01*
X464853Y259875D01*
X464853Y250103D01*
X464056Y250229D01*
G37*
%LPD*%
%LPC*%
G36*
X167384Y448095D02*
X167384Y448095D01*
X165597Y448676D01*
X163923Y449529D01*
X162402Y450634D01*
X161074Y451962D01*
X159969Y453483D01*
X159116Y455157D01*
X158535Y456944D01*
X158409Y457741D01*
X168181Y457741D01*
X168181Y447969D01*
X167384Y448095D01*
G37*
%LPD*%
%LPC*%
G36*
X345184Y92495D02*
X345184Y92495D01*
X343397Y93076D01*
X341723Y93929D01*
X340202Y95034D01*
X338874Y96362D01*
X337769Y97883D01*
X336916Y99557D01*
X336335Y101344D01*
X336209Y102141D01*
X345981Y102141D01*
X345981Y92369D01*
X345184Y92495D01*
G37*
%LPD*%
%LPC*%
G36*
X594979Y476979D02*
X594979Y476979D01*
X594979Y482315D01*
X595152Y482961D01*
X595487Y483540D01*
X595960Y484013D01*
X596539Y484348D01*
X597185Y484521D01*
X602521Y484521D01*
X602521Y476979D01*
X594979Y476979D01*
G37*
%LPD*%
%LPC*%
G36*
X597185Y465439D02*
X597185Y465439D01*
X596539Y465612D01*
X595960Y465947D01*
X595487Y466420D01*
X595152Y466999D01*
X594979Y467645D01*
X594979Y472981D01*
X602521Y472981D01*
X602521Y465439D01*
X597185Y465439D01*
G37*
%LPD*%
%LPC*%
G36*
X502379Y156939D02*
X502379Y156939D01*
X502379Y165625D01*
X502924Y165538D01*
X504551Y165010D01*
X506075Y164233D01*
X507459Y163228D01*
X508668Y162019D01*
X509673Y160635D01*
X510450Y159111D01*
X510978Y157484D01*
X511065Y156939D01*
X502379Y156939D01*
G37*
%LPD*%
%LPC*%
G36*
X172179Y410939D02*
X172179Y410939D01*
X172179Y419625D01*
X172724Y419538D01*
X174351Y419010D01*
X175875Y418233D01*
X177259Y417228D01*
X178468Y416019D01*
X179473Y414635D01*
X180250Y413111D01*
X180778Y411484D01*
X180865Y410939D01*
X172179Y410939D01*
G37*
%LPD*%
%LPC*%
G36*
X349979Y156939D02*
X349979Y156939D01*
X349979Y165625D01*
X350524Y165538D01*
X352151Y165010D01*
X353675Y164233D01*
X355059Y163228D01*
X356268Y162019D01*
X357273Y160635D01*
X358050Y159111D01*
X358578Y157484D01*
X358665Y156939D01*
X349979Y156939D01*
G37*
%LPD*%
%LPC*%
G36*
X502379Y152941D02*
X502379Y152941D01*
X511065Y152941D01*
X510978Y152396D01*
X510450Y150769D01*
X509673Y149245D01*
X508668Y147861D01*
X507459Y146652D01*
X506075Y145647D01*
X504551Y144870D01*
X502924Y144342D01*
X502379Y144255D01*
X502379Y152941D01*
G37*
%LPD*%
%LPC*%
G36*
X349979Y152941D02*
X349979Y152941D01*
X358665Y152941D01*
X358578Y152396D01*
X358050Y150769D01*
X357273Y149245D01*
X356268Y147861D01*
X355059Y146652D01*
X353675Y145647D01*
X352151Y144870D01*
X350524Y144342D01*
X349979Y144255D01*
X349979Y152941D01*
G37*
%LPD*%
%LPC*%
G36*
X337295Y156939D02*
X337295Y156939D01*
X337382Y157484D01*
X337910Y159111D01*
X338687Y160635D01*
X339692Y162019D01*
X340901Y163228D01*
X342285Y164233D01*
X343809Y165010D01*
X345436Y165538D01*
X345981Y165625D01*
X345981Y156939D01*
X337295Y156939D01*
G37*
%LPD*%
%LPC*%
G36*
X489695Y156939D02*
X489695Y156939D01*
X489782Y157484D01*
X490310Y159111D01*
X491087Y160635D01*
X492092Y162019D01*
X493301Y163228D01*
X494685Y164233D01*
X496209Y165010D01*
X497836Y165538D01*
X498381Y165625D01*
X498381Y156939D01*
X489695Y156939D01*
G37*
%LPD*%
%LPC*%
G36*
X159495Y410939D02*
X159495Y410939D01*
X159582Y411484D01*
X160110Y413111D01*
X160887Y414635D01*
X161892Y416019D01*
X163101Y417228D01*
X164485Y418233D01*
X166009Y419010D01*
X167636Y419538D01*
X168181Y419625D01*
X168181Y410939D01*
X159495Y410939D01*
G37*
%LPD*%
%LPC*%
G36*
X172179Y406941D02*
X172179Y406941D01*
X180865Y406941D01*
X180851Y406853D01*
X180851Y406852D01*
X180778Y406396D01*
X180250Y404769D01*
X179473Y403245D01*
X178468Y401861D01*
X177259Y400652D01*
X175875Y399647D01*
X174351Y398870D01*
X172724Y398342D01*
X172179Y398255D01*
X172179Y406941D01*
G37*
%LPD*%
%LPC*%
G36*
X497836Y144342D02*
X497836Y144342D01*
X496209Y144870D01*
X494685Y145647D01*
X493301Y146652D01*
X492092Y147861D01*
X491087Y149245D01*
X490310Y150769D01*
X489782Y152396D01*
X489695Y152941D01*
X498381Y152941D01*
X498381Y144255D01*
X497836Y144342D01*
G37*
%LPD*%
%LPC*%
G36*
X167636Y398342D02*
X167636Y398342D01*
X166009Y398870D01*
X164485Y399647D01*
X163101Y400652D01*
X161892Y401861D01*
X160887Y403245D01*
X160110Y404769D01*
X159582Y406396D01*
X159495Y406941D01*
X168181Y406941D01*
X168181Y398255D01*
X167636Y398342D01*
G37*
%LPD*%
%LPC*%
G36*
X345436Y144342D02*
X345436Y144342D01*
X343809Y144870D01*
X342285Y145647D01*
X340901Y146652D01*
X339692Y147861D01*
X338687Y149245D01*
X337910Y150769D01*
X337382Y152396D01*
X337295Y152941D01*
X345981Y152941D01*
X345981Y144255D01*
X345436Y144342D01*
G37*
%LPD*%
%LPC*%
G36*
X861789Y134079D02*
X861789Y134079D01*
X861789Y141970D01*
X862151Y141913D01*
X863660Y141422D01*
X865074Y140702D01*
X866357Y139769D01*
X867479Y138647D01*
X868412Y137364D01*
X869132Y135950D01*
X869623Y134441D01*
X869680Y134079D01*
X861789Y134079D01*
G37*
%LPD*%
%LPC*%
G36*
X607789Y134079D02*
X607789Y134079D01*
X607789Y141970D01*
X608151Y141913D01*
X609660Y141422D01*
X611074Y140702D01*
X612357Y139769D01*
X613479Y138647D01*
X614412Y137364D01*
X615132Y135950D01*
X615623Y134441D01*
X615680Y134079D01*
X607789Y134079D01*
G37*
%LPD*%
%LPC*%
G36*
X912589Y134079D02*
X912589Y134079D01*
X912589Y141970D01*
X912951Y141913D01*
X914460Y141422D01*
X915874Y140702D01*
X917157Y139769D01*
X918279Y138647D01*
X919212Y137364D01*
X919932Y135950D01*
X920423Y134441D01*
X920480Y134079D01*
X912589Y134079D01*
G37*
%LPD*%
%LPC*%
G36*
X619219Y247109D02*
X619219Y247109D01*
X619219Y255000D01*
X619581Y254943D01*
X621090Y254452D01*
X622504Y253732D01*
X623787Y252799D01*
X624909Y251677D01*
X625842Y250394D01*
X626562Y248980D01*
X627053Y247471D01*
X627110Y247109D01*
X619219Y247109D01*
G37*
%LPD*%
%LPC*%
G36*
X607789Y438879D02*
X607789Y438879D01*
X607789Y446770D01*
X608151Y446713D01*
X609660Y446222D01*
X611074Y445502D01*
X612357Y444569D01*
X613479Y443447D01*
X614412Y442164D01*
X615132Y440750D01*
X615623Y439241D01*
X615680Y438879D01*
X607789Y438879D01*
G37*
%LPD*%
%LPC*%
G36*
X887189Y438879D02*
X887189Y438879D01*
X887189Y446770D01*
X887551Y446713D01*
X889060Y446222D01*
X890474Y445502D01*
X891757Y444569D01*
X892879Y443447D01*
X893812Y442164D01*
X894532Y440750D01*
X895023Y439241D01*
X895080Y438879D01*
X887189Y438879D01*
G37*
%LPD*%
%LPC*%
G36*
X861789Y438879D02*
X861789Y438879D01*
X861789Y446770D01*
X862151Y446713D01*
X863660Y446222D01*
X865074Y445502D01*
X866357Y444569D01*
X867479Y443447D01*
X868412Y442164D01*
X869132Y440750D01*
X869623Y439241D01*
X869680Y438879D01*
X861789Y438879D01*
G37*
%LPD*%
%LPC*%
G36*
X785589Y438879D02*
X785589Y438879D01*
X785589Y446770D01*
X785951Y446713D01*
X787460Y446222D01*
X788874Y445502D01*
X790157Y444569D01*
X791279Y443447D01*
X792212Y442164D01*
X792932Y440750D01*
X793423Y439241D01*
X793480Y438879D01*
X785589Y438879D01*
G37*
%LPD*%
%LPC*%
G36*
X912589Y438879D02*
X912589Y438879D01*
X912589Y446770D01*
X912951Y446713D01*
X914460Y446222D01*
X915874Y445502D01*
X917157Y444569D01*
X918279Y443447D01*
X919212Y442164D01*
X919932Y440750D01*
X920423Y439241D01*
X920480Y438879D01*
X912589Y438879D01*
G37*
%LPD*%
%LPC*%
G36*
X760189Y438879D02*
X760189Y438879D01*
X760189Y446770D01*
X760551Y446713D01*
X762060Y446222D01*
X763474Y445502D01*
X764757Y444569D01*
X765879Y443447D01*
X766812Y442164D01*
X767532Y440750D01*
X768023Y439241D01*
X768080Y438879D01*
X760189Y438879D01*
G37*
%LPD*%
%LPC*%
G36*
X773700Y438879D02*
X773700Y438879D01*
X773757Y439241D01*
X774248Y440750D01*
X774968Y442164D01*
X775901Y443447D01*
X777023Y444569D01*
X778306Y445502D01*
X779720Y446222D01*
X781229Y446713D01*
X781591Y446770D01*
X781591Y438879D01*
X773700Y438879D01*
G37*
%LPD*%
%LPC*%
G36*
X748300Y438879D02*
X748300Y438879D01*
X748357Y439241D01*
X748848Y440750D01*
X749568Y442164D01*
X750501Y443447D01*
X751623Y444569D01*
X752906Y445502D01*
X754320Y446222D01*
X755829Y446713D01*
X756191Y446770D01*
X756191Y438879D01*
X748300Y438879D01*
G37*
%LPD*%
%LPC*%
G36*
X849900Y438879D02*
X849900Y438879D01*
X849957Y439241D01*
X850448Y440750D01*
X851168Y442164D01*
X852101Y443447D01*
X853223Y444569D01*
X854506Y445502D01*
X855920Y446222D01*
X857429Y446713D01*
X857791Y446770D01*
X857791Y438879D01*
X849900Y438879D01*
G37*
%LPD*%
%LPC*%
G36*
X875300Y438879D02*
X875300Y438879D01*
X875357Y439241D01*
X875848Y440750D01*
X876568Y442164D01*
X877501Y443447D01*
X878623Y444569D01*
X879906Y445502D01*
X881320Y446222D01*
X882829Y446713D01*
X883191Y446770D01*
X883191Y438879D01*
X875300Y438879D01*
G37*
%LPD*%
%LPC*%
G36*
X595900Y438879D02*
X595900Y438879D01*
X595957Y439241D01*
X596448Y440750D01*
X597168Y442164D01*
X598101Y443447D01*
X599223Y444569D01*
X600506Y445502D01*
X601920Y446222D01*
X603429Y446713D01*
X603791Y446770D01*
X603791Y438879D01*
X595900Y438879D01*
G37*
%LPD*%
%LPC*%
G36*
X607330Y247109D02*
X607330Y247109D01*
X607387Y247471D01*
X607878Y248980D01*
X608598Y250394D01*
X609531Y251677D01*
X610653Y252799D01*
X611936Y253732D01*
X613350Y254452D01*
X614859Y254943D01*
X615221Y255000D01*
X615221Y247109D01*
X607330Y247109D01*
G37*
%LPD*%
%LPC*%
G36*
X619219Y243111D02*
X619219Y243111D01*
X627110Y243111D01*
X627053Y242749D01*
X626562Y241240D01*
X625842Y239826D01*
X624909Y238543D01*
X623787Y237421D01*
X622504Y236488D01*
X621090Y235768D01*
X619581Y235277D01*
X619219Y235220D01*
X619219Y243111D01*
G37*
%LPD*%
%LPC*%
G36*
X900700Y438879D02*
X900700Y438879D01*
X900757Y439241D01*
X901248Y440750D01*
X901968Y442164D01*
X902901Y443447D01*
X904023Y444569D01*
X905306Y445502D01*
X906720Y446222D01*
X908229Y446713D01*
X908591Y446770D01*
X908591Y438879D01*
X900700Y438879D01*
G37*
%LPD*%
%LPC*%
G36*
X900700Y134079D02*
X900700Y134079D01*
X900757Y134441D01*
X901248Y135950D01*
X901968Y137364D01*
X902901Y138647D01*
X904023Y139769D01*
X905306Y140702D01*
X906720Y141422D01*
X908229Y141913D01*
X908591Y141970D01*
X908591Y134079D01*
X900700Y134079D01*
G37*
%LPD*%
%LPC*%
G36*
X595900Y134079D02*
X595900Y134079D01*
X595957Y134441D01*
X596448Y135950D01*
X597168Y137364D01*
X598101Y138647D01*
X599223Y139769D01*
X600506Y140702D01*
X601920Y141422D01*
X603429Y141913D01*
X603791Y141970D01*
X603791Y134079D01*
X595900Y134079D01*
G37*
%LPD*%
%LPC*%
G36*
X849900Y134079D02*
X849900Y134079D01*
X849957Y134441D01*
X850448Y135950D01*
X851168Y137364D01*
X852101Y138647D01*
X853223Y139769D01*
X854506Y140702D01*
X855920Y141422D01*
X857429Y141913D01*
X857791Y141970D01*
X857791Y134079D01*
X849900Y134079D01*
G37*
%LPD*%
%LPC*%
G36*
X861789Y130081D02*
X861789Y130081D01*
X869680Y130081D01*
X869623Y129719D01*
X869132Y128210D01*
X868412Y126796D01*
X867479Y125513D01*
X866357Y124391D01*
X865074Y123458D01*
X863660Y122738D01*
X862151Y122247D01*
X861789Y122190D01*
X861789Y130081D01*
G37*
%LPD*%
%LPC*%
G36*
X607789Y130081D02*
X607789Y130081D01*
X615680Y130081D01*
X615623Y129719D01*
X615132Y128210D01*
X614412Y126796D01*
X613479Y125513D01*
X612357Y124391D01*
X611074Y123458D01*
X609660Y122738D01*
X608151Y122247D01*
X607789Y122190D01*
X607789Y130081D01*
G37*
%LPD*%
%LPC*%
G36*
X912589Y130081D02*
X912589Y130081D01*
X920480Y130081D01*
X920423Y129719D01*
X919932Y128210D01*
X919212Y126796D01*
X918279Y125513D01*
X917157Y124391D01*
X915874Y123458D01*
X914460Y122738D01*
X912951Y122247D01*
X912589Y122190D01*
X912589Y130081D01*
G37*
%LPD*%
%LPC*%
G36*
X607789Y434881D02*
X607789Y434881D01*
X615680Y434881D01*
X615672Y434832D01*
X615672Y434831D01*
X615623Y434519D01*
X615132Y433010D01*
X614412Y431596D01*
X613479Y430313D01*
X612357Y429191D01*
X611074Y428258D01*
X609660Y427538D01*
X608151Y427047D01*
X607789Y426990D01*
X607789Y434881D01*
G37*
%LPD*%
%LPC*%
G36*
X785589Y434881D02*
X785589Y434881D01*
X793480Y434881D01*
X793472Y434832D01*
X793472Y434831D01*
X793423Y434519D01*
X792932Y433010D01*
X792212Y431596D01*
X791279Y430313D01*
X790157Y429191D01*
X788874Y428258D01*
X787460Y427538D01*
X785951Y427047D01*
X785589Y426990D01*
X785589Y434881D01*
G37*
%LPD*%
%LPC*%
G36*
X887189Y434881D02*
X887189Y434881D01*
X895080Y434881D01*
X895072Y434832D01*
X895072Y434831D01*
X895023Y434519D01*
X894532Y433010D01*
X893812Y431596D01*
X892879Y430313D01*
X891757Y429191D01*
X890474Y428258D01*
X889060Y427538D01*
X887551Y427047D01*
X887189Y426990D01*
X887189Y434881D01*
G37*
%LPD*%
%LPC*%
G36*
X760189Y434881D02*
X760189Y434881D01*
X768080Y434881D01*
X768072Y434832D01*
X768072Y434831D01*
X768023Y434519D01*
X767532Y433010D01*
X766812Y431596D01*
X765879Y430313D01*
X764757Y429191D01*
X763474Y428258D01*
X762060Y427538D01*
X760551Y427047D01*
X760189Y426990D01*
X760189Y434881D01*
G37*
%LPD*%
%LPC*%
G36*
X912589Y434881D02*
X912589Y434881D01*
X920480Y434881D01*
X920472Y434832D01*
X920472Y434831D01*
X920423Y434519D01*
X919932Y433010D01*
X919212Y431596D01*
X918279Y430313D01*
X917157Y429191D01*
X915874Y428258D01*
X914460Y427538D01*
X912951Y427047D01*
X912589Y426990D01*
X912589Y434881D01*
G37*
%LPD*%
%LPC*%
G36*
X861789Y434881D02*
X861789Y434881D01*
X869680Y434881D01*
X869672Y434832D01*
X869672Y434831D01*
X869623Y434519D01*
X869132Y433010D01*
X868412Y431596D01*
X867479Y430313D01*
X866357Y429191D01*
X865074Y428258D01*
X863660Y427538D01*
X862151Y427047D01*
X861789Y426990D01*
X861789Y434881D01*
G37*
%LPD*%
%LPC*%
G36*
X603429Y427047D02*
X603429Y427047D01*
X601920Y427538D01*
X600506Y428258D01*
X599223Y429191D01*
X598101Y430313D01*
X597168Y431596D01*
X596448Y433010D01*
X595957Y434519D01*
X595900Y434881D01*
X603791Y434881D01*
X603791Y426990D01*
X603429Y427047D01*
G37*
%LPD*%
%LPC*%
G36*
X857429Y427047D02*
X857429Y427047D01*
X855920Y427538D01*
X854506Y428258D01*
X853223Y429191D01*
X852101Y430313D01*
X851168Y431596D01*
X850448Y433010D01*
X849957Y434519D01*
X849900Y434881D01*
X857791Y434881D01*
X857791Y426990D01*
X857429Y427047D01*
G37*
%LPD*%
%LPC*%
G36*
X857429Y122247D02*
X857429Y122247D01*
X855920Y122738D01*
X854506Y123458D01*
X853223Y124391D01*
X852101Y125513D01*
X851168Y126796D01*
X850448Y128210D01*
X849957Y129719D01*
X849900Y130081D01*
X857791Y130081D01*
X857791Y122190D01*
X857429Y122247D01*
G37*
%LPD*%
%LPC*%
G36*
X882829Y427047D02*
X882829Y427047D01*
X881320Y427538D01*
X879906Y428258D01*
X878623Y429191D01*
X877501Y430313D01*
X876568Y431596D01*
X875848Y433010D01*
X875357Y434519D01*
X875300Y434881D01*
X883191Y434881D01*
X883191Y426990D01*
X882829Y427047D01*
G37*
%LPD*%
%LPC*%
G36*
X603429Y122247D02*
X603429Y122247D01*
X601920Y122738D01*
X600506Y123458D01*
X599223Y124391D01*
X598101Y125513D01*
X597168Y126796D01*
X596448Y128210D01*
X595957Y129719D01*
X595900Y130081D01*
X603791Y130081D01*
X603791Y122190D01*
X603429Y122247D01*
G37*
%LPD*%
%LPC*%
G36*
X755829Y427047D02*
X755829Y427047D01*
X754320Y427538D01*
X752906Y428258D01*
X751623Y429191D01*
X750501Y430313D01*
X749568Y431596D01*
X748848Y433010D01*
X748357Y434519D01*
X748300Y434881D01*
X756191Y434881D01*
X756191Y426990D01*
X755829Y427047D01*
G37*
%LPD*%
%LPC*%
G36*
X781229Y427047D02*
X781229Y427047D01*
X779720Y427538D01*
X778306Y428258D01*
X777023Y429191D01*
X775901Y430313D01*
X774968Y431596D01*
X774248Y433010D01*
X773757Y434519D01*
X773700Y434881D01*
X781591Y434881D01*
X781591Y426990D01*
X781229Y427047D01*
G37*
%LPD*%
%LPC*%
G36*
X908229Y122247D02*
X908229Y122247D01*
X906720Y122738D01*
X905306Y123458D01*
X904023Y124391D01*
X902901Y125513D01*
X901968Y126796D01*
X901248Y128210D01*
X900757Y129719D01*
X900700Y130081D01*
X908591Y130081D01*
X908591Y122190D01*
X908229Y122247D01*
G37*
%LPD*%
%LPC*%
G36*
X614859Y235277D02*
X614859Y235277D01*
X613350Y235768D01*
X611936Y236488D01*
X610653Y237421D01*
X609531Y238543D01*
X608598Y239826D01*
X607878Y241240D01*
X607387Y242749D01*
X607330Y243111D01*
X615221Y243111D01*
X615221Y235220D01*
X614859Y235277D01*
G37*
%LPD*%
%LPC*%
G36*
X908229Y427047D02*
X908229Y427047D01*
X906720Y427538D01*
X905306Y428258D01*
X904023Y429191D01*
X902901Y430313D01*
X901968Y431596D01*
X901248Y433010D01*
X900757Y434519D01*
X900700Y434881D01*
X908591Y434881D01*
X908591Y426990D01*
X908229Y427047D01*
G37*
%LPD*%
%LPC*%
G36*
X709389Y304149D02*
X709389Y304149D01*
X709389Y308691D01*
X713725Y308691D01*
X714371Y308518D01*
X714950Y308183D01*
X715423Y307710D01*
X715758Y307131D01*
X715931Y306485D01*
X715931Y304149D01*
X709389Y304149D01*
G37*
%LPD*%
%LPC*%
G36*
X197579Y263729D02*
X197579Y263729D01*
X197579Y268271D01*
X201915Y268271D01*
X202561Y268098D01*
X203140Y267763D01*
X203613Y267290D01*
X203948Y266711D01*
X204121Y266065D01*
X204121Y263729D01*
X197579Y263729D01*
G37*
%LPD*%
%LPC*%
G36*
X187039Y263729D02*
X187039Y263729D01*
X187039Y266065D01*
X187212Y266711D01*
X187547Y267290D01*
X188020Y267763D01*
X188599Y268098D01*
X189245Y268271D01*
X193581Y268271D01*
X193581Y263729D01*
X187039Y263729D01*
G37*
%LPD*%
%LPC*%
G36*
X698849Y304149D02*
X698849Y304149D01*
X698849Y306485D01*
X699022Y307131D01*
X699357Y307710D01*
X699830Y308183D01*
X700409Y308518D01*
X701055Y308691D01*
X705391Y308691D01*
X705391Y304149D01*
X698849Y304149D01*
G37*
%LPD*%
%LPC*%
G36*
X709389Y295609D02*
X709389Y295609D01*
X709389Y300151D01*
X715931Y300151D01*
X715931Y297815D01*
X715758Y297169D01*
X715423Y296590D01*
X714950Y296117D01*
X714371Y295782D01*
X713725Y295609D01*
X709389Y295609D01*
G37*
%LPD*%
%LPC*%
G36*
X197579Y255189D02*
X197579Y255189D01*
X197579Y259731D01*
X204121Y259731D01*
X204121Y257395D01*
X203948Y256749D01*
X203613Y256170D01*
X203140Y255697D01*
X202561Y255362D01*
X201915Y255189D01*
X197579Y255189D01*
G37*
%LPD*%
%LPC*%
G36*
X701055Y295609D02*
X701055Y295609D01*
X700409Y295782D01*
X699830Y296117D01*
X699357Y296590D01*
X699022Y297169D01*
X698849Y297815D01*
X698849Y300151D01*
X705391Y300151D01*
X705391Y295609D01*
X701055Y295609D01*
G37*
%LPD*%
%LPC*%
G36*
X189245Y255189D02*
X189245Y255189D01*
X188599Y255362D01*
X188020Y255697D01*
X187547Y256170D01*
X187212Y256749D01*
X187039Y257395D01*
X187039Y259731D01*
X193581Y259731D01*
X193581Y255189D01*
X189245Y255189D01*
G37*
%LPD*%
%LPC*%
G36*
X170179Y459739D02*
X170179Y459739D01*
X170179Y459741D01*
X170181Y459741D01*
X170181Y459739D01*
X170179Y459739D01*
G37*
%LPD*%
%LPC*%
G36*
X605789Y436879D02*
X605789Y436879D01*
X605789Y436881D01*
X605791Y436881D01*
X605791Y436879D01*
X605789Y436879D01*
G37*
%LPD*%
%LPC*%
G36*
X758189Y436879D02*
X758189Y436879D01*
X758189Y436881D01*
X758191Y436881D01*
X758191Y436879D01*
X758189Y436879D01*
G37*
%LPD*%
%LPC*%
G36*
X783589Y436879D02*
X783589Y436879D01*
X783589Y436881D01*
X783591Y436881D01*
X783591Y436879D01*
X783589Y436879D01*
G37*
%LPD*%
%LPC*%
G36*
X859789Y436879D02*
X859789Y436879D01*
X859789Y436881D01*
X859791Y436881D01*
X859791Y436879D01*
X859789Y436879D01*
G37*
%LPD*%
%LPC*%
G36*
X885189Y436879D02*
X885189Y436879D01*
X885189Y436881D01*
X885191Y436881D01*
X885191Y436879D01*
X885189Y436879D01*
G37*
%LPD*%
%LPC*%
G36*
X910589Y436879D02*
X910589Y436879D01*
X910589Y436881D01*
X910591Y436881D01*
X910591Y436879D01*
X910589Y436879D01*
G37*
%LPD*%
%LPC*%
G36*
X500379Y154939D02*
X500379Y154939D01*
X500379Y154941D01*
X500381Y154941D01*
X500381Y154939D01*
X500379Y154939D01*
G37*
%LPD*%
%LPC*%
G36*
X617219Y245109D02*
X617219Y245109D01*
X617219Y245111D01*
X617221Y245111D01*
X617221Y245109D01*
X617219Y245109D01*
G37*
%LPD*%
%LPC*%
G36*
X170179Y408939D02*
X170179Y408939D01*
X170179Y408941D01*
X170181Y408941D01*
X170181Y408939D01*
X170179Y408939D01*
G37*
%LPD*%
%LPC*%
G36*
X605789Y132079D02*
X605789Y132079D01*
X605789Y132081D01*
X605791Y132081D01*
X605791Y132079D01*
X605789Y132079D01*
G37*
%LPD*%
%LPC*%
G36*
X910589Y132079D02*
X910589Y132079D01*
X910589Y132081D01*
X910591Y132081D01*
X910591Y132079D01*
X910589Y132079D01*
G37*
%LPD*%
%LPC*%
G36*
X859789Y132079D02*
X859789Y132079D01*
X859789Y132081D01*
X859791Y132081D01*
X859791Y132079D01*
X859789Y132079D01*
G37*
%LPD*%
%LPC*%
G36*
X500379Y104139D02*
X500379Y104139D01*
X500379Y104141D01*
X500381Y104141D01*
X500381Y104139D01*
X500379Y104139D01*
G37*
%LPD*%
%LPC*%
G36*
X347979Y104139D02*
X347979Y104139D01*
X347979Y104141D01*
X347981Y104141D01*
X347981Y104139D01*
X347979Y104139D01*
G37*
%LPD*%
%LPC*%
G36*
X347979Y154939D02*
X347979Y154939D01*
X347979Y154941D01*
X347981Y154941D01*
X347981Y154939D01*
X347979Y154939D01*
G37*
%LPD*%
%LPC*%
G36*
X466851Y261873D02*
X466851Y261873D01*
X466851Y261875D01*
X466853Y261875D01*
X466853Y261873D01*
X466851Y261873D01*
G37*
%LPD*%
%LPC*%
G36*
X237489Y307289D02*
X237489Y307289D01*
X237489Y307291D01*
X237491Y307291D01*
X237491Y307289D01*
X237489Y307289D01*
G37*
%LPD*%
%LPC*%
G36*
X707389Y302149D02*
X707389Y302149D01*
X707389Y302151D01*
X707391Y302151D01*
X707391Y302149D01*
X707389Y302149D01*
G37*
%LPD*%
%LPC*%
G36*
X668019Y256589D02*
X668019Y256589D01*
X668019Y256591D01*
X668021Y256591D01*
X668021Y256589D01*
X668019Y256589D01*
G37*
%LPD*%
%LPC*%
G36*
X195579Y261729D02*
X195579Y261729D01*
X195579Y261731D01*
X195581Y261731D01*
X195581Y261729D01*
X195579Y261729D01*
G37*
%LPD*%
D10*
X43180Y408940D03*
X68580Y408940D03*
X93980Y408940D03*
X119380Y408940D03*
X144780Y408940D03*
X170180Y408940D03*
X195580Y408940D03*
X220980Y408940D03*
X246380Y408940D03*
X271780Y408940D03*
X297180Y408940D03*
X322580Y408940D03*
X347980Y408940D03*
X373380Y408940D03*
X398780Y408940D03*
X424180Y408940D03*
X449580Y408940D03*
X474980Y408940D03*
X500380Y408940D03*
X500380Y154940D03*
X474980Y154940D03*
X449580Y154940D03*
X424180Y154940D03*
X398780Y154940D03*
X373380Y154940D03*
X347980Y154940D03*
X322580Y154940D03*
X297180Y154940D03*
X271780Y154940D03*
X246380Y154940D03*
X220980Y154940D03*
X195580Y154940D03*
X170180Y154940D03*
X144780Y154940D03*
X119380Y154940D03*
X93980Y154940D03*
X68580Y154940D03*
X43180Y154940D03*
D11*
X307340Y243840D03*
X307340Y269240D03*
X307340Y294640D03*
X307340Y320040D03*
D12*
X237490Y307290D03*
X237490Y243890D03*
D13*
X195580Y243730D03*
X195580Y261730D03*
D14*
X910590Y436880D03*
X885190Y436880D03*
X859790Y436880D03*
X834390Y436880D03*
X808990Y436880D03*
X783590Y436880D03*
X758190Y436880D03*
X732790Y436880D03*
X707390Y436880D03*
X681990Y436880D03*
X656590Y436880D03*
X631190Y436880D03*
X605790Y436880D03*
X605790Y132080D03*
X631190Y132080D03*
X656590Y132080D03*
X681990Y132080D03*
X707390Y132080D03*
X732790Y132080D03*
X758190Y132080D03*
X783590Y132080D03*
X808990Y132080D03*
X834390Y132080D03*
X859790Y132080D03*
X885190Y132080D03*
X910590Y132080D03*
D15*
X46990Y511810D03*
X929640Y511810D03*
X46990Y46990D03*
X929640Y46990D03*
D16*
X466852Y307086D03*
X401828Y307086D03*
X466852Y261874D03*
X401828Y261874D03*
D17*
X637540Y474980D03*
X621030Y474980D03*
X604520Y474980D03*
D18*
X450620Y337820D03*
X415520Y337820D03*
D12*
X668020Y256590D03*
X668020Y319990D03*
D13*
X707390Y320150D03*
X707390Y302150D03*
D14*
X617220Y321310D03*
X617220Y295910D03*
X617220Y270510D03*
X617220Y245110D03*
D16*
X43180Y459740D03*
X68580Y459740D03*
X93980Y459740D03*
X119380Y459740D03*
X144780Y459740D03*
X170180Y459740D03*
X195580Y459740D03*
X220980Y459740D03*
X246380Y459740D03*
X271780Y459740D03*
X297180Y459740D03*
X322580Y459740D03*
X347980Y459740D03*
X373380Y459740D03*
X398780Y459740D03*
X424180Y459740D03*
X449580Y459740D03*
X474980Y459740D03*
X500380Y459740D03*
X43180Y104140D03*
X68580Y104140D03*
X93980Y104140D03*
X119380Y104140D03*
X144780Y104140D03*
X170180Y104140D03*
X195580Y104140D03*
X220980Y104140D03*
X246380Y104140D03*
X271780Y104140D03*
X297180Y104140D03*
X322580Y104140D03*
X347980Y104140D03*
X373380Y104140D03*
X398780Y104140D03*
X424180Y104140D03*
X449580Y104140D03*
X474980Y104140D03*
X500380Y104140D03*
X27940Y320040D03*
X27940Y294640D03*
X27940Y269240D03*
X27940Y243840D03*
D19*
X237490Y293370D03*
X668020Y267970D03*
D20*
X237490Y293370D02*
X237490Y307290D01*
D21*
X712470Y401320D03*
X195580Y267970D03*
X707390Y295910D03*
D20*
X195580Y267970D02*
X195580Y261730D01*
X707390Y295910D02*
X707390Y302150D01*
D22*
X237600Y243730D02*
X195580Y243730D01*
X237600Y243730D02*
X241300Y240030D01*
X241300Y240080D01*
X240690Y240690D01*
D23*
X496570Y295910D03*
D22*
X240690Y240690D02*
X237490Y243890D01*
D21*
X458470Y337820D03*
D24*
X450620Y337820D01*
D21*
X195580Y237490D03*
D20*
X195580Y243730D01*
D25*
X477520Y212788D02*
X496570Y231838D01*
X477520Y212788D02*
X291402Y212788D01*
X261620Y242570D01*
X242570Y242570D01*
X240690Y240690D01*
X496570Y231838D02*
X496570Y295910D01*
D24*
X681990Y172720D02*
X681990Y132080D01*
X487680Y195580D02*
X473710Y181610D01*
X473710Y155391D01*
X474980Y154940D01*
X659130Y195580D02*
X681990Y172720D01*
X659130Y195580D02*
X487680Y195580D01*
X474980Y154940D02*
X474980Y104140D01*
X449580Y104140D02*
X449580Y154940D01*
D20*
X27940Y269240D02*
X14272Y282908D01*
X14272Y331772D01*
X20320Y337820D01*
X271780Y337820D01*
X285750Y323850D01*
X285750Y303530D01*
X294640Y294640D01*
X307340Y294640D01*
D24*
X373380Y154940D02*
X373380Y104140D01*
D20*
X27940Y243840D02*
X10272Y261508D01*
X10272Y333429D02*
X18663Y341820D01*
X295910Y320040D02*
X307340Y320040D01*
X10272Y333429D02*
X10272Y261508D01*
X18663Y341820D02*
X274130Y341820D01*
X295910Y320040D01*
D24*
X707390Y146050D02*
X707390Y132080D01*
X687324Y166116D02*
X687324Y176943D01*
X687324Y166116D02*
X707390Y146050D01*
X687324Y176943D02*
X663353Y200914D01*
X340614Y200914D01*
X322580Y182880D02*
X322580Y154940D01*
X322580Y182880D02*
X340614Y200914D01*
X607060Y270510D02*
X617220Y270510D01*
X607060Y270510D02*
X596900Y260350D01*
X596900Y218440D01*
X583914Y205454D01*
X309809Y176530D02*
X130810Y176530D01*
X309809Y176530D02*
X338733Y205454D01*
X583914Y205454D01*
X119380Y165100D02*
X119380Y154940D01*
X119380Y165100D02*
X130810Y176530D01*
D22*
X617220Y321310D02*
X617270Y321260D01*
X668020Y319990D02*
X707230Y319990D01*
X707390Y320150D01*
D25*
X617220Y321310D02*
X617220Y347980D01*
X581660Y383540D01*
X667970Y320040D02*
X668020Y319990D01*
D22*
X666700Y321310D02*
X617220Y321310D01*
X666700Y321310D02*
X668020Y319990D01*
X637540Y457200D02*
X637540Y474980D01*
X656590Y438150D02*
X656590Y436880D01*
X656590Y438150D02*
X637540Y457200D01*
D25*
X668020Y405130D02*
X668020Y319990D01*
X668020Y405130D02*
X656590Y416560D01*
X656590Y436880D01*
D19*
X668020Y306070D03*
D20*
X668020Y319990D01*
D21*
X683260Y401320D03*
X707390Y326390D03*
D20*
X707390Y320150D01*
D25*
X43180Y397510D02*
X43180Y408940D01*
X57150Y383540D02*
X581660Y383540D01*
X57150Y383540D02*
X43180Y397510D01*
D21*
X407670Y337820D03*
D24*
X415520Y337820D01*
D22*
X621030Y448310D02*
X621030Y474980D01*
X621030Y448310D02*
X631190Y438150D01*
X631190Y436880D01*
D19*
X237490Y257810D03*
D26*
X194310Y186690D03*
X278130Y186690D03*
D22*
X194310Y186690D01*
X147320Y294640D02*
X27940Y294640D01*
X158750Y222250D02*
X194310Y186690D01*
X158750Y283210D02*
X147320Y294640D01*
X158750Y283210D02*
X158750Y222250D01*
D24*
X398780Y154940D02*
X398780Y104140D01*
X424180Y104140D02*
X424180Y154940D01*
M02*
