G04 EAGLE Gerber RS-274X export*
G75*
%MOMM*%
%FSLAX34Y34*%
%LPD*%
%INTop Copper*%
%IPPOS*%
%AMOC8*
5,1,8,0,0,1.08239X$1,22.5*%
G01*
%ADD10C,1.665000*%
%ADD11C,1.778000*%
%ADD12C,1.508000*%
%ADD13C,5.842000*%
%ADD14C,1.879600*%
%ADD15R,0.800000X1.200000*%
%ADD16R,1.168400X1.600200*%
%ADD17C,1.500000*%
%ADD18C,1.106400*%
%ADD19C,0.812800*%
%ADD20C,0.756400*%
%ADD21C,0.609600*%
%ADD22C,0.200000*%
%ADD23C,0.254000*%
%ADD24C,0.706400*%

G36*
X927129Y4005D02*
X927129Y4005D01*
X927156Y4002D01*
X932284Y4290D01*
X932375Y4309D01*
X932450Y4314D01*
X942449Y6596D01*
X942573Y6643D01*
X942660Y6670D01*
X951901Y11120D01*
X951942Y11148D01*
X951951Y11152D01*
X951961Y11160D01*
X952011Y11193D01*
X952090Y11239D01*
X960109Y17633D01*
X960199Y17730D01*
X960267Y17791D01*
X966661Y25810D01*
X966728Y25924D01*
X966780Y25999D01*
X971230Y35240D01*
X971270Y35366D01*
X971304Y35451D01*
X973586Y45450D01*
X973594Y45542D01*
X973610Y45616D01*
X973898Y50744D01*
X973895Y50774D01*
X973899Y50800D01*
X973899Y166589D01*
X973887Y166675D01*
X973884Y166762D01*
X973867Y166814D01*
X973859Y166869D01*
X973824Y166947D01*
X973797Y167030D01*
X973766Y167076D01*
X973743Y167125D01*
X973687Y167191D01*
X973638Y167263D01*
X973596Y167298D01*
X973560Y167340D01*
X973487Y167387D01*
X973420Y167442D01*
X973370Y167464D01*
X973324Y167494D01*
X973241Y167520D01*
X973161Y167554D01*
X973107Y167561D01*
X973054Y167577D01*
X972967Y167578D01*
X972881Y167588D01*
X972827Y167580D01*
X972772Y167580D01*
X972688Y167557D01*
X972603Y167543D01*
X972553Y167520D01*
X972500Y167505D01*
X972426Y167460D01*
X972348Y167422D01*
X972307Y167386D01*
X972260Y167357D01*
X972202Y167293D01*
X972137Y167235D01*
X972111Y167191D01*
X972071Y167148D01*
X972022Y167045D01*
X971977Y166972D01*
X970721Y163939D01*
X966361Y159579D01*
X960663Y157219D01*
X954497Y157219D01*
X948799Y159579D01*
X944439Y163939D01*
X942079Y169637D01*
X942079Y175803D01*
X944439Y181501D01*
X948799Y185861D01*
X954497Y188221D01*
X960663Y188221D01*
X966361Y185861D01*
X970721Y181501D01*
X971977Y178468D01*
X972021Y178394D01*
X972057Y178315D01*
X972092Y178273D01*
X972120Y178226D01*
X972184Y178166D01*
X972240Y178100D01*
X972286Y178070D01*
X972326Y178033D01*
X972403Y177993D01*
X972476Y177946D01*
X972529Y177930D01*
X972578Y177905D01*
X972663Y177889D01*
X972746Y177863D01*
X972801Y177863D01*
X972855Y177852D01*
X972941Y177861D01*
X973028Y177860D01*
X973081Y177874D01*
X973135Y177880D01*
X973216Y177912D01*
X973300Y177935D01*
X973347Y177964D01*
X973397Y177984D01*
X973466Y178037D01*
X973540Y178083D01*
X973577Y178124D01*
X973620Y178158D01*
X973670Y178228D01*
X973729Y178292D01*
X973753Y178342D01*
X973785Y178386D01*
X973814Y178468D01*
X973852Y178546D01*
X973860Y178597D01*
X973879Y178652D01*
X973882Y178698D01*
X973887Y178715D01*
X973888Y178780D01*
X973899Y178851D01*
X973899Y387569D01*
X973887Y387655D01*
X973884Y387742D01*
X973867Y387794D01*
X973859Y387849D01*
X973824Y387927D01*
X973797Y388010D01*
X973766Y388056D01*
X973743Y388105D01*
X973687Y388171D01*
X973638Y388243D01*
X973596Y388278D01*
X973560Y388320D01*
X973487Y388367D01*
X973420Y388422D01*
X973370Y388444D01*
X973324Y388474D01*
X973241Y388500D01*
X973161Y388534D01*
X973107Y388541D01*
X973054Y388557D01*
X972967Y388558D01*
X972881Y388568D01*
X972827Y388560D01*
X972772Y388560D01*
X972688Y388537D01*
X972603Y388523D01*
X972553Y388500D01*
X972500Y388485D01*
X972426Y388440D01*
X972348Y388402D01*
X972307Y388366D01*
X972260Y388337D01*
X972202Y388273D01*
X972137Y388215D01*
X972111Y388171D01*
X972071Y388128D01*
X972022Y388025D01*
X971977Y387952D01*
X970721Y384919D01*
X966361Y380559D01*
X960663Y378199D01*
X954497Y378199D01*
X948799Y380559D01*
X944439Y384919D01*
X942079Y390617D01*
X942079Y396783D01*
X944439Y402481D01*
X948799Y406841D01*
X954497Y409201D01*
X960663Y409201D01*
X966361Y406841D01*
X970721Y402481D01*
X971977Y399448D01*
X972021Y399374D01*
X972057Y399295D01*
X972092Y399253D01*
X972120Y399206D01*
X972184Y399146D01*
X972240Y399080D01*
X972286Y399050D01*
X972326Y399013D01*
X972403Y398973D01*
X972476Y398926D01*
X972529Y398910D01*
X972578Y398885D01*
X972663Y398869D01*
X972746Y398843D01*
X972801Y398843D01*
X972855Y398832D01*
X972941Y398841D01*
X973028Y398840D01*
X973081Y398854D01*
X973135Y398860D01*
X973216Y398892D01*
X973300Y398915D01*
X973347Y398944D01*
X973397Y398964D01*
X973466Y399017D01*
X973540Y399063D01*
X973577Y399104D01*
X973620Y399138D01*
X973670Y399208D01*
X973729Y399272D01*
X973753Y399322D01*
X973785Y399366D01*
X973814Y399448D01*
X973852Y399526D01*
X973860Y399577D01*
X973879Y399632D01*
X973886Y399746D01*
X973899Y399831D01*
X973899Y508000D01*
X973895Y508029D01*
X973898Y508056D01*
X973610Y513184D01*
X973591Y513275D01*
X973586Y513350D01*
X971304Y523349D01*
X971257Y523473D01*
X971230Y523560D01*
X966780Y532801D01*
X966707Y532911D01*
X966661Y532990D01*
X960267Y541009D01*
X960170Y541099D01*
X960109Y541167D01*
X952090Y547561D01*
X951976Y547628D01*
X951901Y547680D01*
X942660Y552130D01*
X942534Y552170D01*
X942449Y552204D01*
X932450Y554486D01*
X932358Y554494D01*
X932284Y554510D01*
X927156Y554798D01*
X927126Y554795D01*
X927100Y554799D01*
X50800Y554799D01*
X50771Y554795D01*
X50744Y554798D01*
X45616Y554510D01*
X45525Y554491D01*
X45450Y554486D01*
X35451Y552204D01*
X35327Y552157D01*
X35240Y552130D01*
X25999Y547680D01*
X25889Y547607D01*
X25810Y547561D01*
X17791Y541167D01*
X17701Y541070D01*
X17633Y541009D01*
X11239Y532990D01*
X11172Y532876D01*
X11120Y532801D01*
X6670Y523560D01*
X6630Y523434D01*
X6596Y523349D01*
X4314Y513350D01*
X4306Y513258D01*
X4290Y513184D01*
X4002Y508056D01*
X4005Y508026D01*
X4001Y508000D01*
X4001Y50800D01*
X4005Y50770D01*
X4002Y50744D01*
X4290Y45616D01*
X4309Y45525D01*
X4314Y45450D01*
X6596Y35451D01*
X6643Y35327D01*
X6670Y35240D01*
X11120Y25999D01*
X11193Y25889D01*
X11239Y25810D01*
X17633Y17791D01*
X17730Y17701D01*
X17791Y17633D01*
X25810Y11239D01*
X25915Y11177D01*
X25927Y11166D01*
X25944Y11158D01*
X25999Y11120D01*
X35240Y6670D01*
X35366Y6630D01*
X35451Y6596D01*
X45450Y4314D01*
X45542Y4306D01*
X45616Y4290D01*
X50744Y4002D01*
X50774Y4005D01*
X50800Y4001D01*
X927100Y4001D01*
X927129Y4005D01*
G37*
%LPC*%
G36*
X307367Y85899D02*
X307367Y85899D01*
X305317Y87950D01*
X300682Y92585D01*
X300674Y92590D01*
X300668Y92598D01*
X300562Y92675D01*
X300456Y92754D01*
X300447Y92757D01*
X300439Y92763D01*
X300316Y92807D01*
X300192Y92854D01*
X300183Y92854D01*
X300174Y92858D01*
X300042Y92865D01*
X299911Y92875D01*
X299902Y92873D01*
X299892Y92874D01*
X299817Y92856D01*
X299635Y92818D01*
X299614Y92807D01*
X299593Y92801D01*
X299447Y92741D01*
X294913Y92741D01*
X290723Y94477D01*
X287517Y97683D01*
X285781Y101873D01*
X285781Y106407D01*
X287517Y110597D01*
X290723Y113803D01*
X293292Y114868D01*
X293301Y114872D01*
X293310Y114875D01*
X293422Y114944D01*
X293535Y115011D01*
X293542Y115018D01*
X293550Y115023D01*
X293638Y115121D01*
X293728Y115217D01*
X293732Y115225D01*
X293739Y115232D01*
X293796Y115351D01*
X293856Y115468D01*
X293858Y115478D01*
X293862Y115486D01*
X293874Y115562D01*
X293908Y115745D01*
X293906Y115769D01*
X293909Y115791D01*
X293909Y144451D01*
X293908Y144460D01*
X293909Y144469D01*
X293888Y144599D01*
X293869Y144730D01*
X293866Y144738D01*
X293864Y144748D01*
X293807Y144867D01*
X293753Y144987D01*
X293747Y144994D01*
X293743Y145003D01*
X293655Y145101D01*
X293570Y145201D01*
X293562Y145206D01*
X293556Y145213D01*
X293490Y145253D01*
X293334Y145356D01*
X293311Y145363D01*
X293292Y145374D01*
X291331Y146186D01*
X288426Y149091D01*
X286854Y152886D01*
X286854Y156994D01*
X288426Y160789D01*
X290571Y162933D01*
X290590Y162959D01*
X290615Y162980D01*
X290675Y163072D01*
X290740Y163159D01*
X290751Y163189D01*
X290769Y163216D01*
X290801Y163321D01*
X290839Y163423D01*
X290842Y163455D01*
X290851Y163486D01*
X290853Y163595D01*
X290861Y163704D01*
X290855Y163736D01*
X290855Y163768D01*
X290826Y163873D01*
X290804Y163980D01*
X290789Y164009D01*
X290780Y164040D01*
X290722Y164133D01*
X290671Y164229D01*
X290649Y164252D01*
X290632Y164280D01*
X290551Y164353D01*
X290474Y164431D01*
X290446Y164447D01*
X290422Y164469D01*
X290324Y164516D01*
X290229Y164570D01*
X290198Y164578D01*
X290169Y164592D01*
X290079Y164606D01*
X289955Y164635D01*
X289906Y164633D01*
X289864Y164639D01*
X279096Y164639D01*
X279064Y164635D01*
X279032Y164637D01*
X278925Y164615D01*
X278817Y164599D01*
X278787Y164586D01*
X278756Y164580D01*
X278659Y164528D01*
X278560Y164483D01*
X278535Y164462D01*
X278507Y164447D01*
X278429Y164371D01*
X278345Y164300D01*
X278328Y164273D01*
X278305Y164250D01*
X278251Y164155D01*
X278191Y164064D01*
X278182Y164033D01*
X278166Y164005D01*
X278141Y163899D01*
X278109Y163794D01*
X278108Y163762D01*
X278101Y163731D01*
X278106Y163621D01*
X278105Y163512D01*
X278113Y163481D01*
X278115Y163449D01*
X278151Y163346D01*
X278180Y163240D01*
X278197Y163213D01*
X278208Y163182D01*
X278261Y163109D01*
X278328Y163000D01*
X278364Y162968D01*
X278389Y162933D01*
X280534Y160789D01*
X282106Y156994D01*
X282106Y152886D01*
X280534Y149091D01*
X277629Y146186D01*
X275668Y145374D01*
X275659Y145369D01*
X275650Y145366D01*
X275538Y145297D01*
X275425Y145230D01*
X275418Y145223D01*
X275410Y145218D01*
X275322Y145120D01*
X275232Y145024D01*
X275228Y145016D01*
X275221Y145009D01*
X275164Y144891D01*
X275104Y144773D01*
X275102Y144764D01*
X275098Y144755D01*
X275086Y144679D01*
X275052Y144496D01*
X275054Y144472D01*
X275051Y144451D01*
X275051Y115791D01*
X275052Y115781D01*
X275051Y115772D01*
X275072Y115642D01*
X275091Y115512D01*
X275094Y115503D01*
X275096Y115494D01*
X275153Y115374D01*
X275207Y115255D01*
X275213Y115247D01*
X275217Y115239D01*
X275305Y115140D01*
X275390Y115040D01*
X275398Y115035D01*
X275404Y115028D01*
X275470Y114988D01*
X275626Y114886D01*
X275649Y114879D01*
X275668Y114868D01*
X278237Y113803D01*
X281443Y110597D01*
X283179Y106407D01*
X283179Y101873D01*
X281443Y97683D01*
X278237Y94477D01*
X274047Y92741D01*
X269513Y92741D01*
X265323Y94477D01*
X262117Y97683D01*
X260381Y101873D01*
X260381Y106407D01*
X262117Y110597D01*
X265323Y113803D01*
X267892Y114868D01*
X267901Y114872D01*
X267910Y114875D01*
X268022Y114944D01*
X268135Y115011D01*
X268142Y115018D01*
X268150Y115023D01*
X268238Y115121D01*
X268328Y115217D01*
X268332Y115225D01*
X268339Y115232D01*
X268396Y115351D01*
X268456Y115468D01*
X268458Y115478D01*
X268462Y115486D01*
X268474Y115562D01*
X268508Y115745D01*
X268506Y115769D01*
X268509Y115791D01*
X268509Y144451D01*
X268508Y144460D01*
X268509Y144469D01*
X268488Y144599D01*
X268469Y144730D01*
X268466Y144738D01*
X268464Y144748D01*
X268407Y144867D01*
X268353Y144987D01*
X268347Y144994D01*
X268343Y145003D01*
X268255Y145101D01*
X268170Y145201D01*
X268162Y145206D01*
X268156Y145213D01*
X268090Y145253D01*
X267934Y145356D01*
X267911Y145363D01*
X267892Y145374D01*
X265931Y146186D01*
X263026Y149091D01*
X261454Y152886D01*
X261454Y156994D01*
X263026Y160789D01*
X265931Y163694D01*
X269726Y165266D01*
X269828Y165266D01*
X269923Y165279D01*
X270019Y165284D01*
X270062Y165299D01*
X270107Y165306D01*
X270195Y165345D01*
X270286Y165377D01*
X270320Y165402D01*
X270364Y165422D01*
X270461Y165505D01*
X270535Y165558D01*
X272212Y167235D01*
X272231Y167261D01*
X272256Y167282D01*
X272316Y167374D01*
X272381Y167461D01*
X272392Y167491D01*
X272410Y167518D01*
X272442Y167623D01*
X272481Y167725D01*
X272483Y167757D01*
X272492Y167788D01*
X272494Y167897D01*
X272502Y168006D01*
X272496Y168038D01*
X272496Y168070D01*
X272467Y168175D01*
X272445Y168282D01*
X272430Y168311D01*
X272421Y168342D01*
X272364Y168435D01*
X272312Y168531D01*
X272290Y168554D01*
X272273Y168582D01*
X272192Y168655D01*
X272116Y168733D01*
X272088Y168749D01*
X272064Y168771D01*
X271965Y168818D01*
X271870Y168872D01*
X271839Y168880D01*
X271810Y168894D01*
X271721Y168908D01*
X271596Y168937D01*
X271547Y168935D01*
X271505Y168941D01*
X161739Y168941D01*
X153701Y176979D01*
X153701Y189659D01*
X153692Y189723D01*
X153693Y189787D01*
X153672Y189862D01*
X153661Y189938D01*
X153635Y189997D01*
X153618Y190059D01*
X153577Y190125D01*
X153545Y190195D01*
X153503Y190244D01*
X153470Y190299D01*
X153412Y190351D01*
X153362Y190409D01*
X153308Y190445D01*
X153260Y190488D01*
X153191Y190521D01*
X153126Y190564D01*
X153064Y190583D01*
X153007Y190611D01*
X152937Y190622D01*
X152856Y190646D01*
X152771Y190647D01*
X152702Y190658D01*
X152034Y190658D01*
X151989Y190692D01*
X151919Y190718D01*
X151853Y190754D01*
X151788Y190768D01*
X151725Y190792D01*
X151651Y190797D01*
X151577Y190813D01*
X151511Y190808D01*
X151444Y190813D01*
X151371Y190798D01*
X151296Y190793D01*
X151239Y190771D01*
X151168Y190756D01*
X151082Y190710D01*
X151009Y190682D01*
X150333Y190291D01*
X149687Y190118D01*
X145509Y190118D01*
X145509Y199660D01*
X145500Y199724D01*
X145501Y199788D01*
X145480Y199862D01*
X145469Y199939D01*
X145443Y199998D01*
X145426Y200060D01*
X145385Y200126D01*
X145353Y200196D01*
X145311Y200245D01*
X145278Y200300D01*
X145220Y200351D01*
X145170Y200410D01*
X145116Y200446D01*
X145068Y200489D01*
X144999Y200522D01*
X144934Y200565D01*
X144872Y200584D01*
X144815Y200612D01*
X144745Y200622D01*
X144664Y200647D01*
X144579Y200648D01*
X144510Y200659D01*
X143509Y200659D01*
X143509Y200661D01*
X144510Y200661D01*
X144574Y200670D01*
X144638Y200669D01*
X144713Y200690D01*
X144789Y200701D01*
X144848Y200727D01*
X144910Y200744D01*
X144976Y200785D01*
X145046Y200817D01*
X145095Y200859D01*
X145150Y200892D01*
X145202Y200950D01*
X145260Y201000D01*
X145296Y201054D01*
X145339Y201102D01*
X145372Y201171D01*
X145415Y201236D01*
X145434Y201298D01*
X145462Y201356D01*
X145472Y201425D01*
X145497Y201506D01*
X145498Y201591D01*
X145509Y201660D01*
X145509Y211202D01*
X149687Y211202D01*
X150333Y211029D01*
X151009Y210638D01*
X151078Y210610D01*
X151143Y210574D01*
X151208Y210558D01*
X151270Y210533D01*
X151345Y210526D01*
X151418Y210509D01*
X151484Y210512D01*
X151551Y210505D01*
X151625Y210519D01*
X151699Y210523D01*
X151763Y210545D01*
X151828Y210557D01*
X151895Y210591D01*
X151966Y210615D01*
X152015Y210652D01*
X152035Y210662D01*
X152702Y210662D01*
X152766Y210671D01*
X152830Y210670D01*
X152905Y210691D01*
X152981Y210702D01*
X153040Y210728D01*
X153102Y210745D01*
X153168Y210786D01*
X153238Y210818D01*
X153287Y210860D01*
X153342Y210893D01*
X153394Y210951D01*
X153452Y211001D01*
X153488Y211055D01*
X153531Y211103D01*
X153564Y211172D01*
X153607Y211237D01*
X153626Y211299D01*
X153654Y211356D01*
X153665Y211426D01*
X153689Y211507D01*
X153690Y211592D01*
X153701Y211661D01*
X153701Y281975D01*
X153688Y282070D01*
X153683Y282166D01*
X153668Y282209D01*
X153661Y282254D01*
X153622Y282342D01*
X153590Y282432D01*
X153565Y282467D01*
X153545Y282511D01*
X153462Y282608D01*
X153409Y282681D01*
X146791Y289299D01*
X146715Y289356D01*
X146643Y289421D01*
X146602Y289441D01*
X146566Y289468D01*
X146476Y289502D01*
X146389Y289544D01*
X146347Y289550D01*
X146302Y289567D01*
X146174Y289577D01*
X146085Y289591D01*
X51249Y289591D01*
X39642Y301197D01*
X39573Y301249D01*
X39510Y301309D01*
X39461Y301334D01*
X39417Y301367D01*
X39336Y301397D01*
X39258Y301437D01*
X39204Y301447D01*
X39153Y301466D01*
X39067Y301473D01*
X38981Y301489D01*
X38927Y301484D01*
X38872Y301488D01*
X38787Y301470D01*
X38700Y301462D01*
X38649Y301442D01*
X38596Y301430D01*
X38519Y301390D01*
X38439Y301358D01*
X38395Y301324D01*
X38347Y301298D01*
X38285Y301237D01*
X38216Y301184D01*
X38184Y301140D01*
X38145Y301101D01*
X38102Y301026D01*
X38051Y300955D01*
X38033Y300904D01*
X38006Y300856D01*
X37986Y300771D01*
X37957Y300690D01*
X37953Y300635D01*
X37941Y300581D01*
X37945Y300495D01*
X37940Y300408D01*
X37952Y300359D01*
X37955Y300300D01*
X37992Y300192D01*
X38013Y300109D01*
X39339Y296907D01*
X39339Y292373D01*
X37603Y288183D01*
X34397Y284977D01*
X30207Y283241D01*
X25673Y283241D01*
X21483Y284977D01*
X18277Y288183D01*
X16541Y292373D01*
X16541Y296907D01*
X18277Y301097D01*
X21483Y304303D01*
X25673Y306039D01*
X30207Y306039D01*
X33409Y304713D01*
X33493Y304691D01*
X33574Y304661D01*
X33629Y304656D01*
X33682Y304643D01*
X33768Y304645D01*
X33855Y304639D01*
X33909Y304650D01*
X33964Y304652D01*
X34046Y304679D01*
X34131Y304696D01*
X34179Y304722D01*
X34232Y304739D01*
X34303Y304788D01*
X34380Y304829D01*
X34419Y304867D01*
X34465Y304898D01*
X34520Y304965D01*
X34582Y305026D01*
X34609Y305073D01*
X34644Y305116D01*
X34678Y305195D01*
X34721Y305271D01*
X34734Y305324D01*
X34755Y305375D01*
X34766Y305461D01*
X34786Y305545D01*
X34783Y305600D01*
X34790Y305655D01*
X34776Y305740D01*
X34772Y305827D01*
X34754Y305879D01*
X34745Y305933D01*
X34708Y306012D01*
X34679Y306093D01*
X34649Y306135D01*
X34624Y306188D01*
X34548Y306273D01*
X34498Y306342D01*
X32088Y308752D01*
X32080Y308758D01*
X32074Y308766D01*
X31967Y308843D01*
X31862Y308922D01*
X31853Y308925D01*
X31845Y308931D01*
X31721Y308975D01*
X31598Y309021D01*
X31589Y309022D01*
X31580Y309025D01*
X31448Y309033D01*
X31317Y309043D01*
X31308Y309041D01*
X31298Y309042D01*
X31223Y309023D01*
X31041Y308985D01*
X31020Y308974D01*
X30999Y308969D01*
X30207Y308641D01*
X25673Y308641D01*
X21483Y310377D01*
X18277Y313583D01*
X16541Y317773D01*
X16541Y322307D01*
X18277Y326497D01*
X21483Y329703D01*
X25673Y331439D01*
X30207Y331439D01*
X34397Y329703D01*
X37603Y326497D01*
X39339Y322307D01*
X39339Y317773D01*
X39011Y316981D01*
X39009Y316972D01*
X39004Y316964D01*
X38973Y316835D01*
X38941Y316708D01*
X38941Y316699D01*
X38939Y316690D01*
X38946Y316557D01*
X38950Y316426D01*
X38953Y316417D01*
X38953Y316408D01*
X38997Y316283D01*
X39037Y316158D01*
X39043Y316150D01*
X39046Y316141D01*
X39091Y316079D01*
X39196Y315925D01*
X39215Y315910D01*
X39228Y315892D01*
X55139Y299981D01*
X55215Y299924D01*
X55287Y299859D01*
X55328Y299839D01*
X55364Y299812D01*
X55454Y299778D01*
X55541Y299736D01*
X55583Y299730D01*
X55628Y299713D01*
X55756Y299703D01*
X55845Y299689D01*
X150681Y299689D01*
X163799Y286571D01*
X163799Y211661D01*
X163808Y211597D01*
X163807Y211533D01*
X163828Y211458D01*
X163839Y211382D01*
X163865Y211323D01*
X163882Y211261D01*
X163923Y211195D01*
X163955Y211125D01*
X163997Y211076D01*
X164030Y211021D01*
X164088Y210969D01*
X164138Y210911D01*
X164192Y210875D01*
X164240Y210832D01*
X164309Y210799D01*
X164374Y210756D01*
X164436Y210737D01*
X164493Y210709D01*
X164563Y210698D01*
X164644Y210674D01*
X164729Y210673D01*
X164798Y210662D01*
X165421Y210662D01*
X166593Y209490D01*
X166593Y191830D01*
X165421Y190658D01*
X164798Y190658D01*
X164734Y190649D01*
X164670Y190650D01*
X164595Y190629D01*
X164519Y190618D01*
X164460Y190592D01*
X164398Y190575D01*
X164332Y190534D01*
X164262Y190502D01*
X164213Y190460D01*
X164158Y190427D01*
X164106Y190369D01*
X164048Y190319D01*
X164012Y190265D01*
X163969Y190217D01*
X163936Y190148D01*
X163893Y190083D01*
X163874Y190021D01*
X163846Y189964D01*
X163835Y189894D01*
X163811Y189813D01*
X163810Y189728D01*
X163799Y189659D01*
X163799Y181575D01*
X163812Y181480D01*
X163817Y181384D01*
X163832Y181341D01*
X163839Y181296D01*
X163878Y181208D01*
X163910Y181118D01*
X163935Y181083D01*
X163955Y181039D01*
X164038Y180942D01*
X164091Y180869D01*
X165629Y179331D01*
X165705Y179274D01*
X165777Y179209D01*
X165818Y179189D01*
X165854Y179162D01*
X165944Y179128D01*
X166031Y179086D01*
X166073Y179080D01*
X166118Y179063D01*
X166246Y179053D01*
X166335Y179039D01*
X236522Y179039D01*
X236586Y179048D01*
X236650Y179047D01*
X236725Y179068D01*
X236801Y179079D01*
X236860Y179105D01*
X236922Y179122D01*
X236988Y179163D01*
X237058Y179195D01*
X237107Y179237D01*
X237162Y179270D01*
X237214Y179328D01*
X237272Y179378D01*
X237308Y179432D01*
X237351Y179480D01*
X237384Y179549D01*
X237427Y179614D01*
X237446Y179676D01*
X237474Y179733D01*
X237485Y179803D01*
X237509Y179884D01*
X237510Y179969D01*
X237521Y180038D01*
X237521Y189659D01*
X237512Y189723D01*
X237513Y189787D01*
X237492Y189862D01*
X237481Y189938D01*
X237455Y189997D01*
X237438Y190059D01*
X237397Y190125D01*
X237365Y190195D01*
X237323Y190244D01*
X237290Y190299D01*
X237232Y190351D01*
X237182Y190409D01*
X237128Y190445D01*
X237080Y190488D01*
X237011Y190521D01*
X236946Y190564D01*
X236884Y190583D01*
X236827Y190611D01*
X236757Y190622D01*
X236676Y190646D01*
X236591Y190647D01*
X236522Y190658D01*
X235899Y190658D01*
X235657Y190901D01*
X235605Y190939D01*
X235560Y190986D01*
X235493Y191024D01*
X235431Y191070D01*
X235371Y191093D01*
X235315Y191125D01*
X235240Y191142D01*
X235167Y191170D01*
X235103Y191175D01*
X235040Y191190D01*
X234963Y191186D01*
X234886Y191192D01*
X234823Y191178D01*
X234759Y191175D01*
X234686Y191150D01*
X234610Y191134D01*
X234553Y191104D01*
X234492Y191083D01*
X234436Y191041D01*
X234361Y191002D01*
X234300Y190942D01*
X234243Y190901D01*
X234001Y190658D01*
X220659Y190658D01*
X219487Y191830D01*
X219487Y209490D01*
X220659Y210662D01*
X221282Y210662D01*
X221346Y210671D01*
X221410Y210670D01*
X221485Y210691D01*
X221561Y210702D01*
X221620Y210728D01*
X221682Y210745D01*
X221748Y210786D01*
X221818Y210818D01*
X221867Y210860D01*
X221922Y210893D01*
X221974Y210951D01*
X222032Y211001D01*
X222068Y211055D01*
X222111Y211103D01*
X222144Y211172D01*
X222187Y211237D01*
X222206Y211299D01*
X222234Y211356D01*
X222245Y211426D01*
X222269Y211507D01*
X222270Y211592D01*
X222281Y211661D01*
X222281Y226095D01*
X222268Y226190D01*
X222263Y226286D01*
X222248Y226329D01*
X222241Y226374D01*
X222202Y226462D01*
X222170Y226552D01*
X222145Y226587D01*
X222125Y226631D01*
X222042Y226728D01*
X221989Y226801D01*
X216641Y232149D01*
X216565Y232206D01*
X216493Y232271D01*
X216452Y232291D01*
X216416Y232318D01*
X216326Y232352D01*
X216239Y232394D01*
X216197Y232400D01*
X216152Y232417D01*
X216024Y232427D01*
X215935Y232441D01*
X201598Y232441D01*
X201503Y232428D01*
X201407Y232423D01*
X201364Y232408D01*
X201319Y232401D01*
X201231Y232362D01*
X201140Y232330D01*
X201106Y232305D01*
X201062Y232285D01*
X200965Y232202D01*
X200892Y232149D01*
X199847Y231104D01*
X197078Y229957D01*
X194082Y229957D01*
X191313Y231104D01*
X190268Y232149D01*
X190192Y232206D01*
X190120Y232271D01*
X190079Y232291D01*
X190043Y232318D01*
X189953Y232352D01*
X189867Y232394D01*
X189824Y232400D01*
X189779Y232417D01*
X189651Y232427D01*
X189562Y232441D01*
X189195Y232441D01*
X189100Y232428D01*
X189004Y232423D01*
X188961Y232408D01*
X188916Y232401D01*
X188828Y232362D01*
X188738Y232330D01*
X188703Y232305D01*
X188659Y232285D01*
X188562Y232202D01*
X188489Y232149D01*
X184411Y228071D01*
X184354Y227995D01*
X184289Y227923D01*
X184269Y227882D01*
X184242Y227846D01*
X184208Y227756D01*
X184166Y227669D01*
X184160Y227627D01*
X184143Y227582D01*
X184133Y227454D01*
X184119Y227365D01*
X184119Y211661D01*
X184128Y211597D01*
X184127Y211533D01*
X184148Y211458D01*
X184159Y211382D01*
X184185Y211323D01*
X184202Y211261D01*
X184243Y211195D01*
X184275Y211125D01*
X184317Y211076D01*
X184350Y211021D01*
X184408Y210969D01*
X184458Y210911D01*
X184512Y210875D01*
X184560Y210832D01*
X184629Y210799D01*
X184694Y210756D01*
X184756Y210737D01*
X184813Y210709D01*
X184883Y210698D01*
X184964Y210674D01*
X185049Y210673D01*
X185118Y210662D01*
X185741Y210662D01*
X185983Y210419D01*
X186035Y210380D01*
X186080Y210334D01*
X186147Y210296D01*
X186209Y210250D01*
X186269Y210227D01*
X186325Y210195D01*
X186400Y210178D01*
X186473Y210150D01*
X186537Y210145D01*
X186599Y210130D01*
X186677Y210134D01*
X186754Y210128D01*
X186817Y210142D01*
X186881Y210145D01*
X186954Y210170D01*
X187030Y210186D01*
X187087Y210216D01*
X187148Y210237D01*
X187204Y210279D01*
X187279Y210318D01*
X187340Y210378D01*
X187397Y210419D01*
X187639Y210662D01*
X200981Y210662D01*
X202153Y209490D01*
X202153Y191830D01*
X200981Y190658D01*
X200358Y190658D01*
X200294Y190649D01*
X200230Y190650D01*
X200155Y190629D01*
X200079Y190618D01*
X200020Y190592D01*
X199958Y190575D01*
X199892Y190534D01*
X199822Y190502D01*
X199773Y190460D01*
X199718Y190427D01*
X199666Y190369D01*
X199608Y190319D01*
X199572Y190265D01*
X199529Y190217D01*
X199496Y190148D01*
X199453Y190083D01*
X199434Y190021D01*
X199406Y189964D01*
X199395Y189894D01*
X199371Y189813D01*
X199370Y189728D01*
X199359Y189659D01*
X199359Y189158D01*
X199365Y189117D01*
X199362Y189075D01*
X199382Y188991D01*
X199399Y188879D01*
X199423Y188825D01*
X199435Y188775D01*
X199843Y187791D01*
X199843Y185589D01*
X199435Y184605D01*
X199426Y184569D01*
X199408Y184541D01*
X199000Y183556D01*
X197444Y182000D01*
X196459Y181592D01*
X196428Y181573D01*
X196395Y181565D01*
X195411Y181157D01*
X193209Y181157D01*
X192225Y181565D01*
X192189Y181574D01*
X192161Y181592D01*
X191176Y182000D01*
X189620Y183556D01*
X189212Y184541D01*
X189193Y184572D01*
X189185Y184605D01*
X188777Y185589D01*
X188777Y187791D01*
X189185Y188775D01*
X189196Y188816D01*
X189214Y188853D01*
X189227Y188938D01*
X189255Y189049D01*
X189253Y189107D01*
X189261Y189158D01*
X189261Y189659D01*
X189252Y189723D01*
X189253Y189787D01*
X189232Y189862D01*
X189221Y189938D01*
X189195Y189997D01*
X189178Y190059D01*
X189137Y190125D01*
X189105Y190195D01*
X189063Y190244D01*
X189030Y190299D01*
X188972Y190351D01*
X188922Y190409D01*
X188868Y190445D01*
X188820Y190488D01*
X188751Y190521D01*
X188686Y190564D01*
X188624Y190583D01*
X188567Y190611D01*
X188497Y190622D01*
X188416Y190646D01*
X188331Y190647D01*
X188262Y190658D01*
X187639Y190658D01*
X187397Y190901D01*
X187345Y190939D01*
X187300Y190986D01*
X187233Y191024D01*
X187171Y191070D01*
X187111Y191093D01*
X187055Y191125D01*
X186980Y191142D01*
X186907Y191170D01*
X186843Y191175D01*
X186780Y191190D01*
X186703Y191186D01*
X186626Y191192D01*
X186563Y191178D01*
X186499Y191175D01*
X186426Y191150D01*
X186350Y191134D01*
X186293Y191104D01*
X186232Y191083D01*
X186176Y191041D01*
X186101Y191002D01*
X186040Y190942D01*
X185983Y190901D01*
X185741Y190658D01*
X172399Y190658D01*
X171227Y191830D01*
X171227Y209490D01*
X172399Y210662D01*
X173022Y210662D01*
X173086Y210671D01*
X173150Y210670D01*
X173225Y210691D01*
X173301Y210702D01*
X173360Y210728D01*
X173422Y210745D01*
X173488Y210786D01*
X173558Y210818D01*
X173607Y210860D01*
X173662Y210893D01*
X173714Y210951D01*
X173772Y211001D01*
X173808Y211055D01*
X173851Y211103D01*
X173884Y211172D01*
X173927Y211237D01*
X173946Y211299D01*
X173974Y211356D01*
X173985Y211426D01*
X174009Y211507D01*
X174010Y211592D01*
X174021Y211661D01*
X174021Y231961D01*
X184599Y242539D01*
X189562Y242539D01*
X189657Y242552D01*
X189753Y242557D01*
X189796Y242572D01*
X189841Y242579D01*
X189929Y242618D01*
X190020Y242650D01*
X190054Y242675D01*
X190098Y242695D01*
X190195Y242778D01*
X190268Y242831D01*
X191313Y243876D01*
X194082Y245023D01*
X197078Y245023D01*
X199847Y243876D01*
X200892Y242831D01*
X200968Y242774D01*
X201040Y242709D01*
X201081Y242689D01*
X201117Y242662D01*
X201207Y242628D01*
X201293Y242586D01*
X201336Y242580D01*
X201381Y242563D01*
X201509Y242553D01*
X201598Y242539D01*
X220531Y242539D01*
X232379Y230691D01*
X232379Y211661D01*
X232388Y211597D01*
X232387Y211533D01*
X232408Y211458D01*
X232419Y211382D01*
X232445Y211323D01*
X232462Y211261D01*
X232503Y211195D01*
X232535Y211125D01*
X232577Y211076D01*
X232610Y211021D01*
X232668Y210969D01*
X232718Y210911D01*
X232772Y210875D01*
X232820Y210832D01*
X232889Y210799D01*
X232954Y210756D01*
X233016Y210737D01*
X233073Y210709D01*
X233143Y210698D01*
X233224Y210674D01*
X233309Y210673D01*
X233378Y210662D01*
X234001Y210662D01*
X234243Y210419D01*
X234295Y210380D01*
X234340Y210334D01*
X234407Y210296D01*
X234469Y210250D01*
X234529Y210227D01*
X234585Y210195D01*
X234660Y210178D01*
X234733Y210150D01*
X234797Y210145D01*
X234859Y210130D01*
X234937Y210134D01*
X235014Y210128D01*
X235077Y210142D01*
X235141Y210145D01*
X235214Y210170D01*
X235290Y210186D01*
X235347Y210216D01*
X235408Y210237D01*
X235464Y210279D01*
X235539Y210318D01*
X235600Y210378D01*
X235657Y210419D01*
X235899Y210662D01*
X249241Y210662D01*
X250413Y209490D01*
X250413Y191830D01*
X249241Y190658D01*
X248618Y190658D01*
X248554Y190649D01*
X248490Y190650D01*
X248415Y190629D01*
X248339Y190618D01*
X248280Y190592D01*
X248218Y190575D01*
X248152Y190534D01*
X248082Y190502D01*
X248033Y190460D01*
X247978Y190427D01*
X247926Y190369D01*
X247868Y190319D01*
X247832Y190265D01*
X247789Y190217D01*
X247756Y190148D01*
X247713Y190083D01*
X247694Y190021D01*
X247666Y189964D01*
X247655Y189894D01*
X247631Y189813D01*
X247630Y189728D01*
X247619Y189659D01*
X247619Y180038D01*
X247628Y179974D01*
X247627Y179910D01*
X247648Y179835D01*
X247659Y179759D01*
X247685Y179700D01*
X247702Y179638D01*
X247743Y179572D01*
X247775Y179502D01*
X247817Y179453D01*
X247850Y179398D01*
X247908Y179346D01*
X247958Y179288D01*
X248012Y179252D01*
X248060Y179209D01*
X248129Y179176D01*
X248194Y179133D01*
X248256Y179114D01*
X248313Y179086D01*
X248383Y179075D01*
X248464Y179051D01*
X248549Y179050D01*
X248618Y179039D01*
X298485Y179039D01*
X298580Y179052D01*
X298676Y179057D01*
X298719Y179072D01*
X298764Y179079D01*
X298852Y179118D01*
X298942Y179150D01*
X298977Y179175D01*
X299021Y179195D01*
X299118Y179278D01*
X299191Y179331D01*
X303269Y183409D01*
X303326Y183485D01*
X303391Y183557D01*
X303411Y183598D01*
X303438Y183634D01*
X303472Y183724D01*
X303514Y183811D01*
X303520Y183853D01*
X303537Y183898D01*
X303547Y184026D01*
X303561Y184115D01*
X303561Y232949D01*
X303560Y232959D01*
X303561Y232968D01*
X303540Y233099D01*
X303521Y233229D01*
X303518Y233237D01*
X303516Y233247D01*
X303459Y233366D01*
X303405Y233486D01*
X303399Y233493D01*
X303395Y233501D01*
X303307Y233601D01*
X303222Y233700D01*
X303214Y233705D01*
X303208Y233712D01*
X303142Y233752D01*
X302986Y233854D01*
X302963Y233861D01*
X302944Y233873D01*
X301171Y234607D01*
X298107Y237671D01*
X296449Y241674D01*
X296449Y246006D01*
X298107Y250009D01*
X301171Y253073D01*
X305174Y254731D01*
X309506Y254731D01*
X313509Y253073D01*
X316573Y250009D01*
X318231Y246006D01*
X318231Y241674D01*
X316573Y237671D01*
X313951Y235050D01*
X313894Y234973D01*
X313829Y234901D01*
X313809Y234860D01*
X313782Y234824D01*
X313748Y234734D01*
X313706Y234648D01*
X313700Y234606D01*
X313683Y234560D01*
X313673Y234432D01*
X313659Y234343D01*
X313659Y179519D01*
X310409Y176269D01*
X306487Y172347D01*
X306467Y172321D01*
X306443Y172300D01*
X306383Y172208D01*
X306317Y172121D01*
X306306Y172091D01*
X306288Y172064D01*
X306256Y171959D01*
X306218Y171857D01*
X306215Y171825D01*
X306206Y171794D01*
X306204Y171685D01*
X306196Y171576D01*
X306203Y171544D01*
X306202Y171512D01*
X306231Y171407D01*
X306254Y171300D01*
X306269Y171271D01*
X306277Y171240D01*
X306335Y171147D01*
X306386Y171051D01*
X306408Y171028D01*
X306425Y171000D01*
X306507Y170927D01*
X306583Y170849D01*
X306611Y170833D01*
X306635Y170811D01*
X306733Y170764D01*
X306828Y170710D01*
X306860Y170702D01*
X306889Y170688D01*
X306978Y170674D01*
X307103Y170645D01*
X307151Y170647D01*
X307193Y170641D01*
X330173Y170641D01*
X338537Y162277D01*
X338588Y162238D01*
X338633Y162192D01*
X338701Y162154D01*
X338763Y162107D01*
X338823Y162085D01*
X338879Y162053D01*
X338954Y162035D01*
X339026Y162008D01*
X339090Y162003D01*
X339153Y161988D01*
X339231Y161992D01*
X339308Y161986D01*
X339371Y161999D01*
X339435Y162002D01*
X339508Y162028D01*
X339584Y162044D01*
X339641Y162074D01*
X339701Y162095D01*
X339758Y162136D01*
X339833Y162176D01*
X339893Y162235D01*
X339950Y162277D01*
X340901Y163228D01*
X342285Y164233D01*
X343809Y165010D01*
X345436Y165538D01*
X345981Y165625D01*
X345981Y155940D01*
X345990Y155877D01*
X345989Y155812D01*
X346010Y155738D01*
X346021Y155661D01*
X346047Y155602D01*
X346064Y155540D01*
X346105Y155474D01*
X346137Y155404D01*
X346179Y155355D01*
X346212Y155300D01*
X346270Y155249D01*
X346320Y155190D01*
X346374Y155154D01*
X346422Y155111D01*
X346491Y155078D01*
X346556Y155035D01*
X346618Y155016D01*
X346675Y154988D01*
X346745Y154978D01*
X346826Y154953D01*
X346911Y154952D01*
X346980Y154941D01*
X348980Y154941D01*
X349044Y154950D01*
X349108Y154949D01*
X349183Y154970D01*
X349259Y154981D01*
X349318Y155007D01*
X349380Y155024D01*
X349446Y155065D01*
X349516Y155097D01*
X349565Y155139D01*
X349620Y155172D01*
X349672Y155230D01*
X349730Y155280D01*
X349766Y155334D01*
X349809Y155382D01*
X349842Y155451D01*
X349885Y155516D01*
X349904Y155578D01*
X349932Y155636D01*
X349942Y155705D01*
X349967Y155786D01*
X349968Y155871D01*
X349979Y155940D01*
X349979Y165625D01*
X350524Y165538D01*
X352151Y165010D01*
X353675Y164233D01*
X355059Y163228D01*
X355973Y162313D01*
X355999Y162294D01*
X356020Y162269D01*
X356112Y162209D01*
X356199Y162144D01*
X356229Y162132D01*
X356256Y162115D01*
X356361Y162083D01*
X356463Y162044D01*
X356495Y162042D01*
X356526Y162032D01*
X356635Y162031D01*
X356744Y162022D01*
X356776Y162029D01*
X356808Y162029D01*
X356913Y162058D01*
X357020Y162080D01*
X357049Y162095D01*
X357080Y162104D01*
X357173Y162161D01*
X357269Y162212D01*
X357292Y162235D01*
X357320Y162252D01*
X357393Y162333D01*
X357471Y162409D01*
X357487Y162437D01*
X357509Y162461D01*
X357556Y162559D01*
X357610Y162655D01*
X357618Y162686D01*
X357632Y162715D01*
X357646Y162804D01*
X357675Y162929D01*
X357673Y162977D01*
X357679Y163020D01*
X357679Y167613D01*
X366087Y176020D01*
X366144Y176097D01*
X366209Y176168D01*
X366229Y176209D01*
X366256Y176246D01*
X366290Y176336D01*
X366332Y176422D01*
X366338Y176464D01*
X366355Y176510D01*
X366365Y176637D01*
X366379Y176727D01*
X366379Y225598D01*
X366366Y225692D01*
X366361Y225789D01*
X366346Y225832D01*
X366339Y225877D01*
X366300Y225964D01*
X366268Y226055D01*
X366243Y226090D01*
X366223Y226134D01*
X366140Y226231D01*
X366087Y226304D01*
X327565Y264825D01*
X327565Y289173D01*
X327552Y289268D01*
X327547Y289364D01*
X327532Y289407D01*
X327525Y289452D01*
X327486Y289540D01*
X327454Y289631D01*
X327429Y289665D01*
X327409Y289709D01*
X327326Y289807D01*
X327273Y289880D01*
X325806Y291347D01*
X325729Y291404D01*
X325658Y291469D01*
X325617Y291489D01*
X325580Y291516D01*
X325490Y291550D01*
X325404Y291592D01*
X325362Y291598D01*
X325316Y291615D01*
X325189Y291625D01*
X325099Y291639D01*
X318553Y291639D01*
X318543Y291638D01*
X318534Y291639D01*
X318404Y291618D01*
X318274Y291599D01*
X318265Y291596D01*
X318256Y291594D01*
X318136Y291537D01*
X318017Y291483D01*
X318009Y291477D01*
X318001Y291473D01*
X317902Y291385D01*
X317802Y291300D01*
X317797Y291292D01*
X317790Y291286D01*
X317750Y291220D01*
X317648Y291064D01*
X317641Y291041D01*
X317630Y291022D01*
X316573Y288471D01*
X313509Y285407D01*
X309506Y283749D01*
X305174Y283749D01*
X301171Y285407D01*
X298107Y288471D01*
X296449Y292474D01*
X296449Y296806D01*
X298107Y300809D01*
X301171Y303873D01*
X305174Y305531D01*
X309506Y305531D01*
X313509Y303873D01*
X316573Y300809D01*
X317630Y298258D01*
X317634Y298249D01*
X317637Y298240D01*
X317706Y298128D01*
X317773Y298015D01*
X317780Y298008D01*
X317785Y298000D01*
X317883Y297912D01*
X317979Y297822D01*
X317987Y297818D01*
X317994Y297811D01*
X318113Y297754D01*
X318230Y297694D01*
X318240Y297692D01*
X318248Y297688D01*
X318324Y297676D01*
X318507Y297642D01*
X318531Y297644D01*
X318553Y297641D01*
X327999Y297641D01*
X329859Y295780D01*
X329885Y295761D01*
X329906Y295736D01*
X329998Y295676D01*
X330085Y295611D01*
X330115Y295600D01*
X330142Y295582D01*
X330247Y295550D01*
X330349Y295511D01*
X330381Y295509D01*
X330412Y295500D01*
X330521Y295498D01*
X330630Y295490D01*
X330662Y295496D01*
X330694Y295496D01*
X330799Y295525D01*
X330906Y295547D01*
X330935Y295562D01*
X330966Y295571D01*
X331059Y295628D01*
X331155Y295680D01*
X331178Y295702D01*
X331206Y295719D01*
X331279Y295800D01*
X331357Y295876D01*
X331373Y295904D01*
X331395Y295928D01*
X331442Y296027D01*
X331496Y296122D01*
X331504Y296153D01*
X331518Y296182D01*
X331532Y296271D01*
X331561Y296396D01*
X331559Y296445D01*
X331565Y296487D01*
X331565Y309493D01*
X331552Y309588D01*
X331547Y309684D01*
X331532Y309727D01*
X331525Y309772D01*
X331486Y309860D01*
X331454Y309951D01*
X331429Y309985D01*
X331409Y310029D01*
X331326Y310127D01*
X331273Y310200D01*
X324726Y316747D01*
X324649Y316804D01*
X324578Y316869D01*
X324537Y316889D01*
X324500Y316916D01*
X324410Y316950D01*
X324324Y316992D01*
X324282Y316998D01*
X324236Y317015D01*
X324109Y317025D01*
X324019Y317039D01*
X318553Y317039D01*
X318543Y317038D01*
X318534Y317039D01*
X318404Y317018D01*
X318274Y316999D01*
X318265Y316996D01*
X318256Y316994D01*
X318136Y316937D01*
X318017Y316883D01*
X318009Y316877D01*
X318001Y316873D01*
X317902Y316785D01*
X317802Y316700D01*
X317797Y316692D01*
X317790Y316686D01*
X317750Y316620D01*
X317648Y316464D01*
X317641Y316441D01*
X317630Y316422D01*
X316573Y313871D01*
X313509Y310807D01*
X309506Y309149D01*
X305174Y309149D01*
X301171Y310807D01*
X298107Y313871D01*
X296449Y317874D01*
X296449Y322206D01*
X298107Y326209D01*
X301171Y329273D01*
X305174Y330931D01*
X309506Y330931D01*
X313509Y329273D01*
X316573Y326209D01*
X317630Y323658D01*
X317634Y323649D01*
X317637Y323640D01*
X317706Y323528D01*
X317773Y323415D01*
X317780Y323408D01*
X317785Y323400D01*
X317883Y323312D01*
X317979Y323222D01*
X317987Y323218D01*
X317994Y323211D01*
X318113Y323154D01*
X318230Y323094D01*
X318240Y323092D01*
X318248Y323088D01*
X318324Y323076D01*
X318507Y323042D01*
X318531Y323044D01*
X318553Y323041D01*
X326919Y323041D01*
X333859Y316100D01*
X333885Y316081D01*
X333906Y316056D01*
X333998Y315996D01*
X334085Y315931D01*
X334115Y315920D01*
X334142Y315902D01*
X334247Y315870D01*
X334349Y315831D01*
X334381Y315829D01*
X334412Y315820D01*
X334521Y315818D01*
X334630Y315810D01*
X334662Y315816D01*
X334694Y315816D01*
X334799Y315845D01*
X334906Y315867D01*
X334935Y315882D01*
X334966Y315891D01*
X335059Y315948D01*
X335155Y316000D01*
X335178Y316022D01*
X335206Y316039D01*
X335279Y316120D01*
X335357Y316196D01*
X335373Y316224D01*
X335395Y316248D01*
X335442Y316347D01*
X335496Y316442D01*
X335504Y316473D01*
X335518Y316502D01*
X335532Y316591D01*
X335561Y316716D01*
X335559Y316765D01*
X335565Y316807D01*
X335565Y367801D01*
X335552Y367896D01*
X335547Y367992D01*
X335532Y368036D01*
X335525Y368081D01*
X335486Y368168D01*
X335454Y368259D01*
X335429Y368293D01*
X335409Y368337D01*
X335326Y368435D01*
X335273Y368508D01*
X330154Y373627D01*
X330077Y373684D01*
X330006Y373749D01*
X329965Y373769D01*
X329928Y373796D01*
X329838Y373830D01*
X329752Y373872D01*
X329710Y373878D01*
X329664Y373895D01*
X329537Y373905D01*
X329447Y373919D01*
X261535Y373919D01*
X259327Y376128D01*
X245318Y390137D01*
X243109Y392345D01*
X243109Y398451D01*
X243108Y398460D01*
X243109Y398469D01*
X243088Y398599D01*
X243069Y398730D01*
X243066Y398738D01*
X243064Y398748D01*
X243007Y398867D01*
X242953Y398987D01*
X242947Y398994D01*
X242943Y399003D01*
X242855Y399101D01*
X242770Y399201D01*
X242762Y399206D01*
X242756Y399213D01*
X242690Y399253D01*
X242534Y399356D01*
X242511Y399363D01*
X242492Y399374D01*
X240531Y400186D01*
X237626Y403091D01*
X236054Y406886D01*
X236054Y410994D01*
X237626Y414789D01*
X240531Y417694D01*
X242492Y418506D01*
X242501Y418511D01*
X242510Y418514D01*
X242622Y418583D01*
X242735Y418650D01*
X242742Y418657D01*
X242750Y418662D01*
X242838Y418760D01*
X242928Y418856D01*
X242932Y418864D01*
X242939Y418871D01*
X242996Y418989D01*
X243056Y419107D01*
X243058Y419116D01*
X243062Y419125D01*
X243074Y419201D01*
X243108Y419384D01*
X243106Y419408D01*
X243109Y419429D01*
X243109Y448089D01*
X243108Y448099D01*
X243109Y448108D01*
X243088Y448238D01*
X243069Y448368D01*
X243066Y448377D01*
X243064Y448386D01*
X243007Y448506D01*
X242953Y448625D01*
X242947Y448633D01*
X242943Y448641D01*
X242855Y448740D01*
X242770Y448840D01*
X242762Y448845D01*
X242756Y448852D01*
X242690Y448892D01*
X242534Y448994D01*
X242511Y449001D01*
X242492Y449012D01*
X239923Y450077D01*
X236717Y453283D01*
X234981Y457473D01*
X234981Y462007D01*
X236717Y466197D01*
X239923Y469403D01*
X244113Y471139D01*
X248647Y471139D01*
X252837Y469403D01*
X256043Y466197D01*
X257779Y462007D01*
X257779Y457473D01*
X256043Y453283D01*
X252837Y450077D01*
X250268Y449012D01*
X250259Y449008D01*
X250250Y449005D01*
X250138Y448936D01*
X250025Y448869D01*
X250018Y448862D01*
X250010Y448857D01*
X249922Y448759D01*
X249832Y448663D01*
X249828Y448655D01*
X249821Y448648D01*
X249764Y448529D01*
X249704Y448412D01*
X249702Y448402D01*
X249698Y448394D01*
X249686Y448318D01*
X249652Y448135D01*
X249654Y448111D01*
X249651Y448089D01*
X249651Y419429D01*
X249652Y419420D01*
X249651Y419411D01*
X249672Y419281D01*
X249691Y419150D01*
X249694Y419142D01*
X249696Y419132D01*
X249753Y419013D01*
X249807Y418893D01*
X249813Y418886D01*
X249817Y418877D01*
X249905Y418779D01*
X249990Y418679D01*
X249998Y418674D01*
X250004Y418667D01*
X250070Y418627D01*
X250226Y418524D01*
X250249Y418517D01*
X250268Y418506D01*
X252229Y417694D01*
X255134Y414789D01*
X256706Y410994D01*
X256706Y406886D01*
X255134Y403091D01*
X252229Y400186D01*
X250268Y399374D01*
X250259Y399369D01*
X250250Y399366D01*
X250138Y399297D01*
X250025Y399230D01*
X250018Y399223D01*
X250010Y399218D01*
X249922Y399120D01*
X249832Y399024D01*
X249828Y399016D01*
X249821Y399009D01*
X249764Y398891D01*
X249704Y398773D01*
X249702Y398764D01*
X249698Y398755D01*
X249686Y398679D01*
X249652Y398496D01*
X249654Y398472D01*
X249651Y398451D01*
X249651Y395469D01*
X249664Y395374D01*
X249669Y395278D01*
X249684Y395234D01*
X249691Y395189D01*
X249730Y395102D01*
X249762Y395011D01*
X249787Y394977D01*
X249807Y394933D01*
X249890Y394835D01*
X249943Y394762D01*
X263952Y380753D01*
X264029Y380696D01*
X264100Y380631D01*
X264141Y380611D01*
X264178Y380584D01*
X264268Y380550D01*
X264354Y380508D01*
X264396Y380502D01*
X264442Y380485D01*
X264569Y380475D01*
X264659Y380461D01*
X332571Y380461D01*
X334779Y378252D01*
X339193Y373838D01*
X339219Y373819D01*
X339240Y373794D01*
X339332Y373734D01*
X339419Y373669D01*
X339449Y373657D01*
X339476Y373640D01*
X339581Y373608D01*
X339683Y373569D01*
X339715Y373567D01*
X339746Y373557D01*
X339855Y373556D01*
X339964Y373547D01*
X339996Y373554D01*
X340028Y373554D01*
X340133Y373583D01*
X340240Y373605D01*
X340269Y373620D01*
X340300Y373629D01*
X340393Y373686D01*
X340489Y373738D01*
X340512Y373760D01*
X340540Y373777D01*
X340613Y373858D01*
X340691Y373934D01*
X340707Y373962D01*
X340729Y373986D01*
X340776Y374085D01*
X340830Y374180D01*
X340838Y374211D01*
X340852Y374240D01*
X340866Y374329D01*
X340895Y374454D01*
X340893Y374503D01*
X340899Y374545D01*
X340899Y394764D01*
X340891Y394823D01*
X340891Y394835D01*
X340887Y394850D01*
X340885Y394863D01*
X340879Y394963D01*
X340865Y395002D01*
X340859Y395043D01*
X340818Y395135D01*
X340785Y395229D01*
X340760Y395263D01*
X340743Y395300D01*
X340678Y395376D01*
X340619Y395458D01*
X340588Y395481D01*
X340560Y395515D01*
X340447Y395589D01*
X340374Y395644D01*
X330312Y401062D01*
X330255Y401083D01*
X330203Y401112D01*
X330124Y401131D01*
X330047Y401159D01*
X329987Y401163D01*
X329929Y401177D01*
X329847Y401173D01*
X329766Y401179D01*
X329707Y401166D01*
X329647Y401163D01*
X329570Y401136D01*
X329490Y401119D01*
X329437Y401090D01*
X329380Y401070D01*
X329321Y401027D01*
X329242Y400984D01*
X329186Y400928D01*
X329131Y400889D01*
X328429Y400186D01*
X324634Y398614D01*
X320526Y398614D01*
X316731Y400186D01*
X313826Y403091D01*
X312254Y406886D01*
X312254Y410994D01*
X313826Y414789D01*
X316731Y417694D01*
X318692Y418506D01*
X318701Y418511D01*
X318710Y418514D01*
X318822Y418583D01*
X318935Y418650D01*
X318942Y418657D01*
X318950Y418662D01*
X319038Y418760D01*
X319128Y418856D01*
X319132Y418864D01*
X319139Y418871D01*
X319196Y418989D01*
X319256Y419107D01*
X319258Y419116D01*
X319262Y419125D01*
X319274Y419201D01*
X319308Y419384D01*
X319306Y419408D01*
X319309Y419429D01*
X319309Y448089D01*
X319308Y448099D01*
X319309Y448108D01*
X319288Y448238D01*
X319269Y448368D01*
X319266Y448377D01*
X319264Y448386D01*
X319207Y448506D01*
X319153Y448625D01*
X319147Y448633D01*
X319143Y448641D01*
X319055Y448740D01*
X318970Y448840D01*
X318962Y448845D01*
X318956Y448852D01*
X318890Y448892D01*
X318734Y448994D01*
X318711Y449001D01*
X318692Y449012D01*
X316123Y450077D01*
X312917Y453283D01*
X311181Y457473D01*
X311181Y462007D01*
X312917Y466197D01*
X316123Y469403D01*
X320313Y471139D01*
X324847Y471139D01*
X329037Y469403D01*
X332243Y466197D01*
X333979Y462007D01*
X333979Y457473D01*
X332243Y453283D01*
X329037Y450077D01*
X326468Y449012D01*
X326459Y449008D01*
X326450Y449005D01*
X326338Y448936D01*
X326225Y448869D01*
X326218Y448862D01*
X326210Y448857D01*
X326122Y448759D01*
X326032Y448663D01*
X326028Y448655D01*
X326021Y448648D01*
X325964Y448529D01*
X325904Y448412D01*
X325902Y448402D01*
X325898Y448394D01*
X325886Y448318D01*
X325852Y448135D01*
X325854Y448111D01*
X325851Y448089D01*
X325851Y419429D01*
X325852Y419420D01*
X325851Y419411D01*
X325872Y419281D01*
X325891Y419150D01*
X325894Y419142D01*
X325896Y419132D01*
X325953Y419013D01*
X326007Y418893D01*
X326013Y418886D01*
X326017Y418877D01*
X326105Y418779D01*
X326190Y418679D01*
X326198Y418674D01*
X326204Y418667D01*
X326270Y418627D01*
X326426Y418524D01*
X326449Y418517D01*
X326468Y418506D01*
X328429Y417694D01*
X331334Y414789D01*
X332906Y410994D01*
X332906Y407692D01*
X332915Y407628D01*
X332914Y407570D01*
X332923Y407536D01*
X332926Y407492D01*
X332940Y407453D01*
X332946Y407412D01*
X332976Y407344D01*
X332989Y407298D01*
X333003Y407275D01*
X333020Y407227D01*
X333045Y407193D01*
X333062Y407155D01*
X333117Y407091D01*
X333137Y407058D01*
X333152Y407045D01*
X333186Y406998D01*
X333217Y406975D01*
X333245Y406941D01*
X333324Y406890D01*
X333347Y406869D01*
X333372Y406857D01*
X333431Y406812D01*
X336435Y405194D01*
X336513Y405166D01*
X336587Y405128D01*
X336645Y405117D01*
X336700Y405097D01*
X336782Y405091D01*
X336864Y405076D01*
X336923Y405081D01*
X336981Y405077D01*
X337062Y405095D01*
X337144Y405103D01*
X337199Y405125D01*
X337257Y405137D01*
X337330Y405177D01*
X337406Y405207D01*
X337453Y405244D01*
X337505Y405272D01*
X337564Y405330D01*
X337629Y405381D01*
X337663Y405429D01*
X337705Y405470D01*
X337745Y405542D01*
X337794Y405610D01*
X337814Y405665D01*
X337842Y405717D01*
X337861Y405797D01*
X337888Y405875D01*
X337892Y405934D01*
X337905Y405992D01*
X337900Y406074D01*
X337905Y406157D01*
X337892Y406210D01*
X337888Y406273D01*
X337852Y406375D01*
X337832Y406456D01*
X337654Y406886D01*
X337654Y410994D01*
X339226Y414789D01*
X342131Y417694D01*
X344092Y418506D01*
X344101Y418511D01*
X344110Y418514D01*
X344222Y418583D01*
X344335Y418650D01*
X344342Y418657D01*
X344350Y418662D01*
X344438Y418760D01*
X344528Y418856D01*
X344532Y418864D01*
X344539Y418871D01*
X344596Y418989D01*
X344656Y419107D01*
X344658Y419116D01*
X344662Y419125D01*
X344674Y419201D01*
X344708Y419384D01*
X344706Y419408D01*
X344709Y419429D01*
X344709Y448089D01*
X344708Y448099D01*
X344709Y448108D01*
X344688Y448238D01*
X344669Y448368D01*
X344666Y448377D01*
X344664Y448386D01*
X344607Y448506D01*
X344553Y448625D01*
X344547Y448633D01*
X344543Y448641D01*
X344455Y448740D01*
X344370Y448840D01*
X344362Y448845D01*
X344356Y448852D01*
X344290Y448892D01*
X344134Y448994D01*
X344111Y449001D01*
X344092Y449012D01*
X341523Y450077D01*
X338317Y453283D01*
X336581Y457473D01*
X336581Y462007D01*
X338317Y466197D01*
X341523Y469403D01*
X345713Y471139D01*
X350247Y471139D01*
X354437Y469403D01*
X357643Y466197D01*
X359379Y462007D01*
X359379Y457473D01*
X357643Y453283D01*
X354437Y450077D01*
X351868Y449012D01*
X351859Y449008D01*
X351850Y449005D01*
X351738Y448936D01*
X351625Y448869D01*
X351618Y448862D01*
X351610Y448857D01*
X351522Y448759D01*
X351432Y448663D01*
X351428Y448655D01*
X351421Y448648D01*
X351364Y448529D01*
X351304Y448412D01*
X351302Y448402D01*
X351298Y448394D01*
X351286Y448318D01*
X351252Y448135D01*
X351254Y448111D01*
X351251Y448089D01*
X351251Y419429D01*
X351252Y419420D01*
X351251Y419411D01*
X351272Y419281D01*
X351291Y419150D01*
X351294Y419142D01*
X351296Y419132D01*
X351353Y419013D01*
X351407Y418893D01*
X351413Y418886D01*
X351417Y418877D01*
X351505Y418779D01*
X351590Y418679D01*
X351598Y418674D01*
X351604Y418667D01*
X351670Y418627D01*
X351826Y418524D01*
X351849Y418517D01*
X351868Y418506D01*
X353829Y417694D01*
X356734Y414789D01*
X358306Y410994D01*
X358306Y406886D01*
X356734Y403091D01*
X353829Y400186D01*
X353392Y400005D01*
X353383Y400000D01*
X353374Y399998D01*
X353262Y399928D01*
X353149Y399861D01*
X353142Y399855D01*
X353134Y399850D01*
X353046Y399751D01*
X352956Y399656D01*
X352952Y399647D01*
X352945Y399640D01*
X352888Y399521D01*
X352828Y399404D01*
X352826Y399395D01*
X352822Y399386D01*
X352810Y399310D01*
X352776Y399127D01*
X352778Y399103D01*
X352775Y399082D01*
X352775Y275835D01*
X352788Y275740D01*
X352793Y275644D01*
X352808Y275600D01*
X352815Y275555D01*
X352854Y275468D01*
X352886Y275377D01*
X352911Y275343D01*
X352931Y275299D01*
X353014Y275201D01*
X353033Y275175D01*
X353044Y275157D01*
X353050Y275152D01*
X353067Y275128D01*
X423718Y204477D01*
X423795Y204420D01*
X423866Y204355D01*
X423907Y204335D01*
X423944Y204308D01*
X424034Y204274D01*
X424120Y204232D01*
X424162Y204226D01*
X424208Y204209D01*
X424335Y204199D01*
X424425Y204185D01*
X638038Y204185D01*
X653765Y188458D01*
X653765Y153915D01*
X653778Y153820D01*
X653783Y153724D01*
X653798Y153680D01*
X653805Y153635D01*
X653844Y153548D01*
X653876Y153457D01*
X653901Y153423D01*
X653921Y153379D01*
X653999Y153287D01*
X654023Y153249D01*
X654038Y153235D01*
X654057Y153208D01*
X659861Y147405D01*
X659861Y141720D01*
X659862Y141710D01*
X659861Y141701D01*
X659882Y141571D01*
X659901Y141440D01*
X659904Y141432D01*
X659906Y141423D01*
X659963Y141303D01*
X660017Y141184D01*
X660023Y141176D01*
X660027Y141168D01*
X660115Y141069D01*
X660200Y140969D01*
X660208Y140964D01*
X660214Y140957D01*
X660280Y140917D01*
X660436Y140815D01*
X660459Y140808D01*
X660478Y140797D01*
X661994Y140168D01*
X664678Y137484D01*
X666131Y133978D01*
X666131Y130182D01*
X664678Y126676D01*
X661994Y123992D01*
X660332Y123303D01*
X660257Y123259D01*
X660178Y123223D01*
X660136Y123188D01*
X660089Y123160D01*
X660030Y123096D01*
X659964Y123040D01*
X659934Y122994D01*
X659896Y122954D01*
X659857Y122877D01*
X659809Y122804D01*
X659793Y122751D01*
X659768Y122702D01*
X659752Y122617D01*
X659727Y122534D01*
X659726Y122479D01*
X659716Y122425D01*
X659724Y122339D01*
X659723Y122252D01*
X659738Y122199D01*
X659743Y122145D01*
X659775Y122064D01*
X659798Y121980D01*
X659827Y121933D01*
X659848Y121883D01*
X659901Y121814D01*
X659947Y121740D01*
X659987Y121704D01*
X660021Y121660D01*
X660092Y121609D01*
X660156Y121551D01*
X660205Y121527D01*
X660250Y121495D01*
X660332Y121466D01*
X660410Y121428D01*
X660460Y121420D01*
X660516Y121401D01*
X660629Y121394D01*
X660714Y121381D01*
X677866Y121381D01*
X677952Y121393D01*
X678038Y121396D01*
X678091Y121413D01*
X678145Y121421D01*
X678224Y121456D01*
X678307Y121483D01*
X678352Y121514D01*
X678402Y121537D01*
X678468Y121593D01*
X678540Y121642D01*
X678574Y121684D01*
X678616Y121720D01*
X678664Y121793D01*
X678719Y121860D01*
X678741Y121910D01*
X678771Y121956D01*
X678796Y122039D01*
X678830Y122119D01*
X678837Y122173D01*
X678853Y122226D01*
X678854Y122313D01*
X678865Y122399D01*
X678856Y122453D01*
X678857Y122508D01*
X678834Y122592D01*
X678820Y122677D01*
X678796Y122727D01*
X678782Y122780D01*
X678736Y122854D01*
X678699Y122932D01*
X678662Y122973D01*
X678633Y123020D01*
X678569Y123078D01*
X678511Y123143D01*
X678468Y123169D01*
X678424Y123209D01*
X678322Y123258D01*
X678248Y123303D01*
X676586Y123992D01*
X673902Y126676D01*
X672449Y130182D01*
X672449Y133978D01*
X673902Y137484D01*
X676586Y140168D01*
X680092Y141621D01*
X683888Y141621D01*
X687394Y140168D01*
X690078Y137484D01*
X691531Y133978D01*
X691531Y130182D01*
X690078Y126676D01*
X687394Y123992D01*
X685732Y123303D01*
X685657Y123259D01*
X685578Y123223D01*
X685536Y123188D01*
X685489Y123160D01*
X685430Y123096D01*
X685364Y123040D01*
X685334Y122994D01*
X685296Y122954D01*
X685257Y122877D01*
X685209Y122804D01*
X685193Y122751D01*
X685168Y122702D01*
X685152Y122617D01*
X685127Y122534D01*
X685126Y122479D01*
X685116Y122425D01*
X685124Y122339D01*
X685123Y122252D01*
X685138Y122199D01*
X685143Y122145D01*
X685175Y122064D01*
X685198Y121980D01*
X685227Y121933D01*
X685248Y121883D01*
X685301Y121814D01*
X685347Y121740D01*
X685387Y121704D01*
X685421Y121660D01*
X685492Y121609D01*
X685556Y121551D01*
X685605Y121527D01*
X685650Y121495D01*
X685732Y121466D01*
X685810Y121428D01*
X685860Y121420D01*
X685916Y121401D01*
X686029Y121394D01*
X686114Y121381D01*
X703266Y121381D01*
X703352Y121393D01*
X703438Y121396D01*
X703491Y121413D01*
X703545Y121421D01*
X703624Y121456D01*
X703707Y121483D01*
X703752Y121514D01*
X703802Y121537D01*
X703868Y121593D01*
X703940Y121642D01*
X703974Y121684D01*
X704016Y121720D01*
X704064Y121793D01*
X704119Y121860D01*
X704141Y121910D01*
X704171Y121956D01*
X704196Y122039D01*
X704230Y122119D01*
X704237Y122173D01*
X704253Y122226D01*
X704254Y122313D01*
X704265Y122399D01*
X704256Y122453D01*
X704257Y122508D01*
X704234Y122592D01*
X704220Y122677D01*
X704196Y122727D01*
X704182Y122780D01*
X704136Y122854D01*
X704099Y122932D01*
X704062Y122973D01*
X704033Y123020D01*
X703969Y123078D01*
X703911Y123143D01*
X703868Y123169D01*
X703824Y123209D01*
X703722Y123258D01*
X703648Y123303D01*
X701986Y123992D01*
X699302Y126676D01*
X697849Y130182D01*
X697849Y133978D01*
X699302Y137484D01*
X701986Y140168D01*
X705492Y141621D01*
X709288Y141621D01*
X712794Y140168D01*
X715478Y137484D01*
X716931Y133978D01*
X716931Y130182D01*
X715478Y126676D01*
X712794Y123992D01*
X711132Y123303D01*
X711057Y123259D01*
X710978Y123223D01*
X710936Y123188D01*
X710889Y123160D01*
X710830Y123096D01*
X710764Y123040D01*
X710734Y122994D01*
X710696Y122954D01*
X710657Y122877D01*
X710609Y122804D01*
X710593Y122751D01*
X710568Y122702D01*
X710552Y122617D01*
X710527Y122534D01*
X710526Y122479D01*
X710516Y122425D01*
X710524Y122339D01*
X710523Y122252D01*
X710538Y122199D01*
X710543Y122145D01*
X710575Y122064D01*
X710598Y121980D01*
X710627Y121933D01*
X710648Y121883D01*
X710701Y121814D01*
X710747Y121740D01*
X710787Y121704D01*
X710821Y121660D01*
X710892Y121609D01*
X710956Y121551D01*
X711005Y121527D01*
X711050Y121495D01*
X711132Y121466D01*
X711210Y121428D01*
X711260Y121420D01*
X711316Y121401D01*
X711429Y121394D01*
X711514Y121381D01*
X722131Y121381D01*
X722226Y121394D01*
X722322Y121399D01*
X722366Y121414D01*
X722411Y121421D01*
X722498Y121460D01*
X722589Y121492D01*
X722623Y121517D01*
X722667Y121537D01*
X722765Y121620D01*
X722838Y121673D01*
X725564Y124400D01*
X725603Y124451D01*
X725649Y124496D01*
X725687Y124563D01*
X725734Y124625D01*
X725756Y124686D01*
X725788Y124741D01*
X725806Y124817D01*
X725833Y124889D01*
X725838Y124953D01*
X725853Y125016D01*
X725849Y125093D01*
X725855Y125171D01*
X725842Y125233D01*
X725839Y125298D01*
X725813Y125371D01*
X725797Y125447D01*
X725767Y125503D01*
X725746Y125564D01*
X725705Y125621D01*
X725665Y125696D01*
X725606Y125756D01*
X725564Y125813D01*
X724702Y126676D01*
X723249Y130182D01*
X723249Y133978D01*
X724702Y137484D01*
X727386Y140168D01*
X730892Y141621D01*
X734688Y141621D01*
X738194Y140168D01*
X740878Y137484D01*
X742331Y133978D01*
X742331Y130182D01*
X740878Y126676D01*
X738194Y123992D01*
X734688Y122539D01*
X733369Y122539D01*
X733274Y122526D01*
X733178Y122521D01*
X733134Y122506D01*
X733089Y122499D01*
X733002Y122460D01*
X732911Y122428D01*
X732877Y122403D01*
X732833Y122383D01*
X732735Y122300D01*
X732662Y122247D01*
X728962Y118547D01*
X728943Y118521D01*
X728918Y118500D01*
X728858Y118408D01*
X728793Y118321D01*
X728781Y118291D01*
X728764Y118264D01*
X728732Y118159D01*
X728693Y118057D01*
X728691Y118025D01*
X728681Y117994D01*
X728680Y117885D01*
X728671Y117776D01*
X728678Y117744D01*
X728678Y117712D01*
X728707Y117607D01*
X728729Y117500D01*
X728744Y117471D01*
X728753Y117440D01*
X728810Y117347D01*
X728862Y117251D01*
X728884Y117228D01*
X728901Y117200D01*
X728982Y117127D01*
X729058Y117049D01*
X729086Y117033D01*
X729110Y117011D01*
X729209Y116964D01*
X729304Y116910D01*
X729335Y116902D01*
X729364Y116888D01*
X729453Y116874D01*
X729578Y116845D01*
X729627Y116847D01*
X729669Y116841D01*
X752263Y116841D01*
X752358Y116854D01*
X752454Y116859D01*
X752497Y116874D01*
X752542Y116881D01*
X752630Y116920D01*
X752721Y116952D01*
X752755Y116977D01*
X752799Y116997D01*
X752897Y117080D01*
X752970Y117133D01*
X754897Y119060D01*
X754954Y119137D01*
X755019Y119208D01*
X755039Y119249D01*
X755066Y119286D01*
X755100Y119376D01*
X755142Y119462D01*
X755148Y119504D01*
X755165Y119550D01*
X755175Y119677D01*
X755189Y119767D01*
X755189Y122328D01*
X755188Y122338D01*
X755189Y122347D01*
X755168Y122477D01*
X755149Y122608D01*
X755146Y122616D01*
X755144Y122626D01*
X755087Y122745D01*
X755033Y122865D01*
X755027Y122872D01*
X755023Y122880D01*
X754935Y122979D01*
X754850Y123079D01*
X754842Y123084D01*
X754836Y123091D01*
X754770Y123131D01*
X754614Y123233D01*
X754591Y123240D01*
X754572Y123252D01*
X752786Y123992D01*
X750102Y126676D01*
X748649Y130182D01*
X748649Y133978D01*
X750102Y137484D01*
X752786Y140168D01*
X756292Y141621D01*
X760088Y141621D01*
X763594Y140168D01*
X766278Y137484D01*
X767731Y133978D01*
X767731Y130182D01*
X766278Y126676D01*
X763594Y123992D01*
X761808Y123252D01*
X761799Y123247D01*
X761790Y123244D01*
X761678Y123175D01*
X761565Y123108D01*
X761558Y123101D01*
X761550Y123096D01*
X761462Y122998D01*
X761372Y122902D01*
X761368Y122894D01*
X761361Y122887D01*
X761304Y122768D01*
X761244Y122651D01*
X761242Y122642D01*
X761238Y122633D01*
X761226Y122557D01*
X761192Y122374D01*
X761194Y122350D01*
X761191Y122328D01*
X761191Y116867D01*
X758870Y114547D01*
X758851Y114521D01*
X758826Y114500D01*
X758766Y114408D01*
X758701Y114321D01*
X758690Y114291D01*
X758672Y114264D01*
X758640Y114159D01*
X758601Y114057D01*
X758599Y114025D01*
X758590Y113994D01*
X758588Y113885D01*
X758580Y113776D01*
X758586Y113744D01*
X758586Y113712D01*
X758615Y113607D01*
X758637Y113500D01*
X758652Y113471D01*
X758661Y113440D01*
X758718Y113347D01*
X758770Y113251D01*
X758792Y113228D01*
X758809Y113200D01*
X758890Y113127D01*
X758966Y113049D01*
X758994Y113033D01*
X759018Y113011D01*
X759117Y112964D01*
X759212Y112910D01*
X759243Y112902D01*
X759272Y112888D01*
X759361Y112874D01*
X759486Y112845D01*
X759535Y112847D01*
X759577Y112841D01*
X773663Y112841D01*
X773758Y112854D01*
X773854Y112859D01*
X773897Y112874D01*
X773942Y112881D01*
X774030Y112920D01*
X774121Y112952D01*
X774155Y112977D01*
X774199Y112997D01*
X774297Y113080D01*
X774370Y113133D01*
X780297Y119060D01*
X780354Y119137D01*
X780419Y119208D01*
X780439Y119249D01*
X780466Y119286D01*
X780500Y119376D01*
X780542Y119462D01*
X780548Y119504D01*
X780565Y119550D01*
X780575Y119677D01*
X780589Y119767D01*
X780589Y122328D01*
X780588Y122338D01*
X780589Y122347D01*
X780568Y122477D01*
X780549Y122608D01*
X780546Y122616D01*
X780544Y122626D01*
X780487Y122745D01*
X780433Y122865D01*
X780427Y122872D01*
X780423Y122880D01*
X780335Y122979D01*
X780250Y123079D01*
X780242Y123084D01*
X780236Y123091D01*
X780170Y123131D01*
X780014Y123233D01*
X779991Y123240D01*
X779972Y123252D01*
X778186Y123992D01*
X775502Y126676D01*
X774049Y130182D01*
X774049Y133978D01*
X775502Y137484D01*
X778186Y140168D01*
X781692Y141621D01*
X785488Y141621D01*
X788994Y140168D01*
X791678Y137484D01*
X793131Y133978D01*
X793131Y130182D01*
X791678Y126676D01*
X788994Y123992D01*
X787208Y123252D01*
X787199Y123247D01*
X787190Y123244D01*
X787078Y123175D01*
X786965Y123108D01*
X786958Y123101D01*
X786950Y123096D01*
X786862Y122998D01*
X786772Y122902D01*
X786768Y122894D01*
X786761Y122887D01*
X786704Y122768D01*
X786644Y122651D01*
X786642Y122642D01*
X786638Y122633D01*
X786626Y122557D01*
X786592Y122374D01*
X786594Y122350D01*
X786591Y122328D01*
X786591Y116867D01*
X776563Y106839D01*
X545241Y106839D01*
X543191Y108890D01*
X530024Y122057D01*
X529947Y122114D01*
X529876Y122179D01*
X529835Y122199D01*
X529799Y122226D01*
X529708Y122260D01*
X529622Y122302D01*
X529580Y122308D01*
X529535Y122325D01*
X529407Y122335D01*
X529318Y122349D01*
X368687Y122349D01*
X368592Y122336D01*
X368496Y122331D01*
X368453Y122316D01*
X368408Y122309D01*
X368320Y122270D01*
X368229Y122238D01*
X368195Y122213D01*
X368151Y122193D01*
X368053Y122110D01*
X367980Y122057D01*
X363973Y118050D01*
X363916Y117973D01*
X363851Y117902D01*
X363831Y117861D01*
X363804Y117824D01*
X363770Y117734D01*
X363728Y117648D01*
X363722Y117606D01*
X363705Y117560D01*
X363695Y117433D01*
X363681Y117343D01*
X363681Y112973D01*
X363685Y112941D01*
X363683Y112909D01*
X363705Y112802D01*
X363721Y112694D01*
X363734Y112665D01*
X363740Y112633D01*
X363792Y112537D01*
X363837Y112437D01*
X363858Y112413D01*
X363873Y112384D01*
X363949Y112306D01*
X364020Y112223D01*
X364047Y112205D01*
X364070Y112182D01*
X364165Y112128D01*
X364256Y112068D01*
X364287Y112059D01*
X364315Y112043D01*
X364421Y112018D01*
X364526Y111986D01*
X364558Y111986D01*
X364589Y111978D01*
X364699Y111984D01*
X364808Y111982D01*
X364839Y111991D01*
X364871Y111993D01*
X364974Y112028D01*
X365080Y112058D01*
X365107Y112074D01*
X365138Y112085D01*
X365211Y112138D01*
X365320Y112206D01*
X365352Y112242D01*
X365387Y112267D01*
X366923Y113803D01*
X371113Y115539D01*
X375647Y115539D01*
X379837Y113803D01*
X383043Y110597D01*
X384779Y106407D01*
X384779Y101873D01*
X383043Y97683D01*
X379837Y94477D01*
X375647Y92741D01*
X371113Y92741D01*
X366923Y94477D01*
X365387Y96013D01*
X365361Y96033D01*
X365340Y96057D01*
X365248Y96117D01*
X365161Y96182D01*
X365131Y96194D01*
X365104Y96212D01*
X364999Y96244D01*
X364897Y96282D01*
X364865Y96285D01*
X364834Y96294D01*
X364725Y96295D01*
X364616Y96304D01*
X364584Y96297D01*
X364552Y96298D01*
X364447Y96269D01*
X364340Y96246D01*
X364311Y96231D01*
X364280Y96222D01*
X364187Y96165D01*
X364091Y96114D01*
X364068Y96091D01*
X364040Y96074D01*
X363967Y95993D01*
X363889Y95917D01*
X363873Y95889D01*
X363851Y95865D01*
X363804Y95767D01*
X363750Y95672D01*
X363742Y95640D01*
X363728Y95611D01*
X363714Y95522D01*
X363685Y95397D01*
X363687Y95349D01*
X363681Y95307D01*
X363681Y95277D01*
X354303Y85899D01*
X307367Y85899D01*
G37*
%LPD*%
%LPC*%
G36*
X502604Y207517D02*
X502604Y207517D01*
X502157Y207964D01*
X502157Y290508D01*
X502153Y290540D01*
X502155Y290572D01*
X502133Y290679D01*
X502117Y290787D01*
X502104Y290817D01*
X502098Y290848D01*
X502046Y290945D01*
X502001Y291044D01*
X501980Y291069D01*
X501965Y291097D01*
X501889Y291176D01*
X501818Y291259D01*
X501791Y291276D01*
X501768Y291299D01*
X501674Y291353D01*
X501582Y291413D01*
X501551Y291422D01*
X501523Y291438D01*
X501417Y291463D01*
X501312Y291495D01*
X501280Y291496D01*
X501249Y291503D01*
X501139Y291498D01*
X501030Y291499D01*
X500999Y291491D01*
X500967Y291489D01*
X500864Y291453D01*
X500758Y291424D01*
X500731Y291407D01*
X500700Y291396D01*
X500627Y291343D01*
X500518Y291276D01*
X500486Y291240D01*
X500451Y291215D01*
X500005Y290769D01*
X497776Y289845D01*
X495364Y289845D01*
X493135Y290769D01*
X491429Y292475D01*
X490505Y294704D01*
X490505Y333820D01*
X490497Y333878D01*
X490497Y333881D01*
X490496Y333884D01*
X490497Y333948D01*
X490476Y334023D01*
X490465Y334099D01*
X490439Y334158D01*
X490422Y334220D01*
X490381Y334286D01*
X490349Y334356D01*
X490307Y334405D01*
X490274Y334460D01*
X490216Y334512D01*
X490166Y334570D01*
X490112Y334606D01*
X490064Y334649D01*
X489995Y334682D01*
X489930Y334725D01*
X489868Y334744D01*
X489811Y334772D01*
X489741Y334783D01*
X489660Y334807D01*
X489575Y334808D01*
X489506Y334819D01*
X466048Y334819D01*
X466039Y334818D01*
X466029Y334819D01*
X465899Y334798D01*
X465769Y334779D01*
X465760Y334776D01*
X465751Y334774D01*
X465631Y334717D01*
X465512Y334663D01*
X465505Y334657D01*
X465496Y334653D01*
X465397Y334565D01*
X465298Y334480D01*
X465292Y334472D01*
X465285Y334466D01*
X465246Y334400D01*
X465143Y334244D01*
X465136Y334221D01*
X465125Y334202D01*
X464856Y333553D01*
X462737Y331434D01*
X459968Y330287D01*
X456972Y330287D01*
X454203Y331434D01*
X452084Y333553D01*
X450937Y336322D01*
X450937Y339318D01*
X452084Y342087D01*
X454203Y344206D01*
X456972Y345353D01*
X459968Y345353D01*
X462737Y344206D01*
X464856Y342087D01*
X465125Y341438D01*
X465130Y341429D01*
X465132Y341420D01*
X465202Y341308D01*
X465269Y341195D01*
X465275Y341188D01*
X465280Y341180D01*
X465379Y341092D01*
X465474Y341002D01*
X465483Y340998D01*
X465490Y340991D01*
X465608Y340934D01*
X465726Y340874D01*
X465735Y340872D01*
X465744Y340868D01*
X465819Y340856D01*
X466003Y340822D01*
X466027Y340824D01*
X466048Y340821D01*
X489506Y340821D01*
X489570Y340830D01*
X489634Y340829D01*
X489709Y340850D01*
X489785Y340861D01*
X489844Y340887D01*
X489906Y340904D01*
X489972Y340945D01*
X490042Y340977D01*
X490091Y341019D01*
X490146Y341052D01*
X490198Y341110D01*
X490256Y341160D01*
X490292Y341214D01*
X490335Y341262D01*
X490368Y341331D01*
X490411Y341396D01*
X490430Y341458D01*
X490458Y341515D01*
X490469Y341585D01*
X490493Y341666D01*
X490494Y341751D01*
X490505Y341820D01*
X490505Y405599D01*
X490499Y405640D01*
X490502Y405681D01*
X490482Y405765D01*
X490465Y405878D01*
X490441Y405931D01*
X490429Y405981D01*
X490054Y406886D01*
X490054Y410994D01*
X491626Y414789D01*
X494023Y417185D01*
X494080Y417262D01*
X494145Y417334D01*
X494165Y417375D01*
X494192Y417411D01*
X494226Y417501D01*
X494268Y417587D01*
X494274Y417629D01*
X494291Y417675D01*
X494301Y417802D01*
X494315Y417892D01*
X494315Y449271D01*
X494302Y449366D01*
X494297Y449462D01*
X494282Y449505D01*
X494275Y449550D01*
X494236Y449637D01*
X494204Y449728D01*
X494179Y449763D01*
X494159Y449807D01*
X494076Y449904D01*
X494023Y449977D01*
X490717Y453283D01*
X488981Y457473D01*
X488981Y462007D01*
X490717Y466197D01*
X493923Y469403D01*
X498113Y471139D01*
X502647Y471139D01*
X506837Y469403D01*
X510043Y466197D01*
X511779Y462007D01*
X511779Y457473D01*
X510043Y453283D01*
X506737Y449977D01*
X506680Y449900D01*
X506615Y449829D01*
X506595Y449788D01*
X506568Y449752D01*
X506534Y449662D01*
X506492Y449575D01*
X506486Y449533D01*
X506469Y449488D01*
X506459Y449360D01*
X506445Y449271D01*
X506445Y417892D01*
X506458Y417797D01*
X506463Y417701D01*
X506478Y417658D01*
X506485Y417613D01*
X506524Y417525D01*
X506556Y417434D01*
X506581Y417400D01*
X506601Y417356D01*
X506684Y417259D01*
X506737Y417185D01*
X509134Y414789D01*
X510706Y410994D01*
X510706Y406886D01*
X509134Y403091D01*
X506229Y400186D01*
X503252Y398953D01*
X503243Y398948D01*
X503234Y398946D01*
X503122Y398876D01*
X503009Y398809D01*
X503002Y398802D01*
X502994Y398797D01*
X502906Y398699D01*
X502816Y398604D01*
X502812Y398595D01*
X502805Y398588D01*
X502748Y398469D01*
X502688Y398352D01*
X502686Y398343D01*
X502682Y398334D01*
X502670Y398258D01*
X502636Y398075D01*
X502638Y398051D01*
X502635Y398030D01*
X502635Y373872D01*
X502644Y373808D01*
X502643Y373744D01*
X502664Y373669D01*
X502675Y373593D01*
X502701Y373534D01*
X502718Y373472D01*
X502759Y373406D01*
X502791Y373336D01*
X502833Y373287D01*
X502866Y373232D01*
X502924Y373180D01*
X502974Y373122D01*
X503028Y373086D01*
X503076Y373043D01*
X503145Y373010D01*
X503210Y372967D01*
X503272Y372948D01*
X503329Y372920D01*
X503399Y372909D01*
X503480Y372885D01*
X503565Y372884D01*
X503634Y372873D01*
X566736Y372873D01*
X567183Y372426D01*
X567183Y207964D01*
X566736Y207517D01*
X502604Y207517D01*
G37*
%LPD*%
%LPC*%
G36*
X142726Y398614D02*
X142726Y398614D01*
X138931Y400186D01*
X136026Y403091D01*
X134454Y406886D01*
X134454Y410994D01*
X136026Y414789D01*
X138931Y417694D01*
X140892Y418506D01*
X140901Y418511D01*
X140910Y418514D01*
X141022Y418583D01*
X141135Y418650D01*
X141142Y418657D01*
X141150Y418662D01*
X141238Y418760D01*
X141328Y418856D01*
X141332Y418864D01*
X141339Y418871D01*
X141396Y418989D01*
X141456Y419107D01*
X141458Y419116D01*
X141462Y419125D01*
X141474Y419201D01*
X141508Y419384D01*
X141506Y419408D01*
X141509Y419429D01*
X141509Y448089D01*
X141508Y448099D01*
X141509Y448108D01*
X141488Y448238D01*
X141469Y448368D01*
X141466Y448377D01*
X141464Y448386D01*
X141407Y448506D01*
X141353Y448625D01*
X141347Y448633D01*
X141343Y448641D01*
X141255Y448740D01*
X141170Y448840D01*
X141162Y448845D01*
X141156Y448852D01*
X141090Y448892D01*
X140934Y448994D01*
X140911Y449001D01*
X140892Y449012D01*
X138323Y450077D01*
X135117Y453283D01*
X133381Y457473D01*
X133381Y462007D01*
X135117Y466197D01*
X138323Y469403D01*
X141162Y470579D01*
X141171Y470584D01*
X141180Y470587D01*
X141292Y470656D01*
X141405Y470723D01*
X141412Y470730D01*
X141420Y470735D01*
X141508Y470833D01*
X141598Y470929D01*
X141602Y470937D01*
X141609Y470944D01*
X141666Y471063D01*
X141726Y471180D01*
X141728Y471190D01*
X141732Y471198D01*
X141744Y471274D01*
X141778Y471457D01*
X141776Y471481D01*
X141779Y471503D01*
X141779Y473683D01*
X147347Y479251D01*
X220016Y479251D01*
X220111Y479264D01*
X220207Y479269D01*
X220251Y479284D01*
X220295Y479291D01*
X220383Y479330D01*
X220474Y479362D01*
X220508Y479387D01*
X220552Y479407D01*
X220650Y479490D01*
X220723Y479543D01*
X226970Y485791D01*
X516673Y485791D01*
X540700Y461763D01*
X540777Y461706D01*
X540848Y461641D01*
X540889Y461621D01*
X540926Y461594D01*
X541016Y461560D01*
X541102Y461518D01*
X541144Y461512D01*
X541190Y461495D01*
X541317Y461485D01*
X541407Y461471D01*
X687043Y461471D01*
X702616Y445897D01*
X702624Y445892D01*
X702630Y445884D01*
X702737Y445807D01*
X702842Y445728D01*
X702851Y445725D01*
X702859Y445719D01*
X702982Y445675D01*
X703106Y445628D01*
X703115Y445628D01*
X703124Y445625D01*
X703256Y445617D01*
X703387Y445607D01*
X703396Y445609D01*
X703406Y445608D01*
X703481Y445626D01*
X703663Y445664D01*
X703684Y445676D01*
X703705Y445681D01*
X705492Y446421D01*
X709288Y446421D01*
X712794Y444968D01*
X715478Y442284D01*
X716931Y438778D01*
X716931Y434982D01*
X715478Y431476D01*
X714159Y430157D01*
X714140Y430131D01*
X714115Y430110D01*
X714055Y430018D01*
X713990Y429931D01*
X713979Y429901D01*
X713961Y429874D01*
X713929Y429769D01*
X713890Y429667D01*
X713888Y429635D01*
X713878Y429604D01*
X713877Y429495D01*
X713869Y429386D01*
X713875Y429354D01*
X713875Y429322D01*
X713904Y429217D01*
X713926Y429110D01*
X713941Y429081D01*
X713950Y429050D01*
X714007Y428957D01*
X714059Y428861D01*
X714081Y428838D01*
X714098Y428810D01*
X714179Y428737D01*
X714255Y428659D01*
X714283Y428643D01*
X714307Y428621D01*
X714406Y428574D01*
X714501Y428520D01*
X714532Y428512D01*
X714561Y428498D01*
X714651Y428484D01*
X714775Y428455D01*
X714824Y428457D01*
X714866Y428451D01*
X725314Y428451D01*
X725346Y428455D01*
X725378Y428453D01*
X725485Y428475D01*
X725593Y428491D01*
X725623Y428504D01*
X725654Y428510D01*
X725751Y428562D01*
X725850Y428607D01*
X725875Y428628D01*
X725903Y428643D01*
X725982Y428719D01*
X726065Y428790D01*
X726082Y428817D01*
X726105Y428840D01*
X726159Y428935D01*
X726219Y429026D01*
X726229Y429057D01*
X726244Y429085D01*
X726270Y429191D01*
X726302Y429296D01*
X726302Y429328D01*
X726309Y429359D01*
X726304Y429469D01*
X726305Y429578D01*
X726297Y429609D01*
X726295Y429641D01*
X726259Y429744D01*
X726230Y429850D01*
X726213Y429877D01*
X726203Y429908D01*
X726149Y429981D01*
X726082Y430090D01*
X726046Y430122D01*
X726021Y430157D01*
X724702Y431476D01*
X723249Y434982D01*
X723249Y438778D01*
X724702Y442284D01*
X727386Y444968D01*
X730892Y446421D01*
X734688Y446421D01*
X738194Y444968D01*
X740878Y442284D01*
X742331Y438778D01*
X742331Y434982D01*
X740878Y431476D01*
X738194Y428792D01*
X735597Y427716D01*
X735561Y427695D01*
X735522Y427681D01*
X735452Y427630D01*
X735354Y427572D01*
X735314Y427529D01*
X735273Y427499D01*
X733740Y425967D01*
X733740Y425966D01*
X730223Y422449D01*
X699797Y422449D01*
X692959Y429287D01*
X692959Y433407D01*
X692947Y433493D01*
X692944Y433580D01*
X692927Y433632D01*
X692919Y433687D01*
X692884Y433766D01*
X692857Y433848D01*
X692826Y433894D01*
X692803Y433944D01*
X692747Y434010D01*
X692698Y434081D01*
X692656Y434116D01*
X692620Y434158D01*
X692547Y434206D01*
X692480Y434261D01*
X692430Y434282D01*
X692384Y434312D01*
X692301Y434338D01*
X692221Y434372D01*
X692167Y434379D01*
X692114Y434395D01*
X692027Y434396D01*
X691941Y434407D01*
X691887Y434398D01*
X691832Y434399D01*
X691748Y434375D01*
X691663Y434362D01*
X691613Y434338D01*
X691560Y434323D01*
X691486Y434278D01*
X691408Y434240D01*
X691367Y434204D01*
X691320Y434175D01*
X691262Y434111D01*
X691197Y434053D01*
X691171Y434010D01*
X691131Y433966D01*
X691082Y433864D01*
X691037Y433790D01*
X690078Y431476D01*
X687394Y428792D01*
X683888Y427339D01*
X680092Y427339D01*
X676586Y428792D01*
X673902Y431476D01*
X672449Y434982D01*
X672449Y438778D01*
X673902Y442284D01*
X676586Y444968D01*
X680092Y446421D01*
X683888Y446421D01*
X686179Y445472D01*
X686263Y445450D01*
X686344Y445419D01*
X686399Y445415D01*
X686452Y445402D01*
X686539Y445404D01*
X686626Y445398D01*
X686679Y445409D01*
X686734Y445411D01*
X686817Y445438D01*
X686902Y445455D01*
X686950Y445481D01*
X687002Y445498D01*
X687074Y445547D01*
X687151Y445588D01*
X687190Y445626D01*
X687235Y445657D01*
X687291Y445724D01*
X687353Y445784D01*
X687380Y445832D01*
X687415Y445875D01*
X687449Y445954D01*
X687492Y446030D01*
X687504Y446083D01*
X687526Y446134D01*
X687537Y446220D01*
X687557Y446304D01*
X687554Y446359D01*
X687561Y446414D01*
X687547Y446499D01*
X687542Y446586D01*
X687524Y446638D01*
X687516Y446692D01*
X687478Y446770D01*
X687450Y446852D01*
X687420Y446894D01*
X687394Y446947D01*
X687319Y447032D01*
X687268Y447101D01*
X683193Y451177D01*
X683116Y451234D01*
X683045Y451299D01*
X683004Y451319D01*
X682967Y451346D01*
X682877Y451380D01*
X682791Y451422D01*
X682749Y451428D01*
X682703Y451445D01*
X682576Y451455D01*
X682486Y451469D01*
X536157Y451469D01*
X512130Y475497D01*
X512053Y475554D01*
X511982Y475619D01*
X511941Y475639D01*
X511904Y475666D01*
X511814Y475700D01*
X511728Y475742D01*
X511686Y475748D01*
X511640Y475765D01*
X511513Y475775D01*
X511423Y475789D01*
X231527Y475789D01*
X231432Y475776D01*
X231336Y475771D01*
X231293Y475756D01*
X231248Y475749D01*
X231160Y475710D01*
X231069Y475678D01*
X231035Y475653D01*
X230991Y475633D01*
X230893Y475550D01*
X230820Y475497D01*
X226578Y471255D01*
X226507Y471160D01*
X226432Y471068D01*
X226423Y471047D01*
X226409Y471029D01*
X226367Y470918D01*
X226320Y470809D01*
X226317Y470786D01*
X226309Y470765D01*
X226300Y470647D01*
X226286Y470529D01*
X226289Y470507D01*
X226288Y470484D01*
X226312Y470368D01*
X226331Y470251D01*
X226341Y470230D01*
X226345Y470208D01*
X226401Y470103D01*
X226452Y469996D01*
X226467Y469979D01*
X226478Y469959D01*
X226560Y469874D01*
X226639Y469785D01*
X226658Y469774D01*
X226674Y469757D01*
X226837Y469665D01*
X226902Y469625D01*
X227437Y469403D01*
X230643Y466197D01*
X232379Y462007D01*
X232379Y457473D01*
X230643Y453283D01*
X227437Y450077D01*
X224868Y449012D01*
X224859Y449008D01*
X224850Y449005D01*
X224738Y448936D01*
X224625Y448869D01*
X224618Y448862D01*
X224610Y448857D01*
X224522Y448759D01*
X224432Y448663D01*
X224428Y448655D01*
X224421Y448648D01*
X224364Y448529D01*
X224304Y448412D01*
X224302Y448402D01*
X224298Y448394D01*
X224286Y448318D01*
X224252Y448135D01*
X224254Y448111D01*
X224251Y448089D01*
X224251Y419429D01*
X224252Y419420D01*
X224251Y419411D01*
X224272Y419281D01*
X224291Y419150D01*
X224294Y419142D01*
X224296Y419132D01*
X224353Y419013D01*
X224407Y418893D01*
X224413Y418886D01*
X224417Y418877D01*
X224505Y418779D01*
X224590Y418679D01*
X224598Y418674D01*
X224604Y418667D01*
X224670Y418627D01*
X224826Y418524D01*
X224849Y418517D01*
X224868Y418506D01*
X226829Y417694D01*
X229734Y414789D01*
X231306Y410994D01*
X231306Y406886D01*
X229734Y403091D01*
X226829Y400186D01*
X223034Y398614D01*
X218926Y398614D01*
X215131Y400186D01*
X212226Y403091D01*
X210654Y406886D01*
X210654Y410994D01*
X212226Y414789D01*
X215131Y417694D01*
X217092Y418506D01*
X217101Y418511D01*
X217110Y418514D01*
X217222Y418583D01*
X217335Y418650D01*
X217342Y418657D01*
X217350Y418662D01*
X217438Y418760D01*
X217528Y418856D01*
X217532Y418864D01*
X217539Y418871D01*
X217596Y418989D01*
X217656Y419107D01*
X217658Y419116D01*
X217662Y419125D01*
X217674Y419201D01*
X217708Y419384D01*
X217706Y419408D01*
X217709Y419429D01*
X217709Y448089D01*
X217708Y448099D01*
X217709Y448108D01*
X217688Y448238D01*
X217669Y448368D01*
X217666Y448377D01*
X217664Y448386D01*
X217607Y448506D01*
X217553Y448625D01*
X217547Y448633D01*
X217543Y448641D01*
X217455Y448740D01*
X217370Y448840D01*
X217362Y448845D01*
X217356Y448852D01*
X217290Y448892D01*
X217134Y448994D01*
X217111Y449001D01*
X217092Y449012D01*
X214523Y450077D01*
X211317Y453283D01*
X209581Y457473D01*
X209581Y462007D01*
X211317Y466197D01*
X214523Y469403D01*
X217362Y470579D01*
X217371Y470584D01*
X217380Y470587D01*
X217492Y470656D01*
X217605Y470723D01*
X217612Y470730D01*
X217620Y470735D01*
X217708Y470833D01*
X217798Y470929D01*
X217802Y470937D01*
X217809Y470944D01*
X217835Y470999D01*
X218380Y471543D01*
X218399Y471569D01*
X218424Y471590D01*
X218484Y471682D01*
X218549Y471769D01*
X218560Y471799D01*
X218578Y471826D01*
X218610Y471931D01*
X218649Y472033D01*
X218651Y472065D01*
X218660Y472096D01*
X218662Y472205D01*
X218670Y472314D01*
X218664Y472346D01*
X218664Y472378D01*
X218635Y472483D01*
X218613Y472590D01*
X218598Y472619D01*
X218589Y472650D01*
X218532Y472743D01*
X218480Y472839D01*
X218458Y472862D01*
X218441Y472890D01*
X218360Y472963D01*
X218284Y473041D01*
X218256Y473057D01*
X218232Y473079D01*
X218133Y473126D01*
X218038Y473180D01*
X218007Y473188D01*
X217978Y473202D01*
X217888Y473216D01*
X217764Y473245D01*
X217715Y473243D01*
X217673Y473249D01*
X173546Y473249D01*
X173422Y473232D01*
X173297Y473218D01*
X173283Y473212D01*
X173267Y473209D01*
X173153Y473158D01*
X173036Y473109D01*
X173024Y473100D01*
X173010Y473093D01*
X172914Y473011D01*
X172817Y472933D01*
X172808Y472920D01*
X172796Y472910D01*
X172727Y472804D01*
X172655Y472702D01*
X172650Y472687D01*
X172641Y472674D01*
X172605Y472553D01*
X172564Y472435D01*
X172564Y472419D01*
X172559Y472404D01*
X172557Y472279D01*
X172552Y472153D01*
X172555Y472138D01*
X172555Y472122D01*
X172589Y472001D01*
X172619Y471879D01*
X172626Y471865D01*
X172630Y471850D01*
X172696Y471744D01*
X172759Y471634D01*
X172770Y471624D01*
X172779Y471610D01*
X172872Y471526D01*
X172963Y471439D01*
X172976Y471432D01*
X172988Y471421D01*
X173206Y471315D01*
X173238Y471300D01*
X174763Y470804D01*
X176437Y469951D01*
X177958Y468846D01*
X179286Y467518D01*
X180391Y465997D01*
X181244Y464323D01*
X181825Y462536D01*
X181951Y461739D01*
X171180Y461739D01*
X171117Y461730D01*
X171052Y461731D01*
X170978Y461710D01*
X170901Y461699D01*
X170842Y461673D01*
X170780Y461656D01*
X170714Y461615D01*
X170644Y461583D01*
X170595Y461541D01*
X170540Y461508D01*
X170489Y461450D01*
X170430Y461400D01*
X170394Y461346D01*
X170351Y461298D01*
X170318Y461229D01*
X170275Y461164D01*
X170256Y461102D01*
X170228Y461045D01*
X170218Y460975D01*
X170193Y460894D01*
X170192Y460809D01*
X170181Y460740D01*
X170181Y459739D01*
X170179Y459739D01*
X170179Y460740D01*
X170170Y460804D01*
X170171Y460868D01*
X170150Y460943D01*
X170139Y461019D01*
X170113Y461078D01*
X170096Y461140D01*
X170055Y461206D01*
X170023Y461276D01*
X169981Y461325D01*
X169948Y461380D01*
X169890Y461432D01*
X169840Y461490D01*
X169786Y461526D01*
X169738Y461569D01*
X169669Y461602D01*
X169604Y461645D01*
X169542Y461664D01*
X169484Y461692D01*
X169415Y461702D01*
X169334Y461727D01*
X169249Y461728D01*
X169180Y461739D01*
X158409Y461739D01*
X158530Y462502D01*
X158535Y462536D01*
X159116Y464323D01*
X159969Y465997D01*
X161074Y467518D01*
X162402Y468846D01*
X163923Y469951D01*
X165597Y470804D01*
X167122Y471300D01*
X167236Y471355D01*
X167350Y471407D01*
X167362Y471417D01*
X167376Y471424D01*
X167469Y471509D01*
X167564Y471590D01*
X167573Y471603D01*
X167584Y471614D01*
X167650Y471721D01*
X167719Y471826D01*
X167723Y471841D01*
X167731Y471854D01*
X167764Y471976D01*
X167801Y472096D01*
X167801Y472111D01*
X167805Y472127D01*
X167803Y472252D01*
X167805Y472378D01*
X167801Y472393D01*
X167800Y472409D01*
X167763Y472528D01*
X167729Y472650D01*
X167721Y472663D01*
X167717Y472678D01*
X167647Y472783D01*
X167581Y472890D01*
X167570Y472900D01*
X167561Y472913D01*
X167465Y472994D01*
X167372Y473079D01*
X167358Y473085D01*
X167346Y473096D01*
X167231Y473147D01*
X167118Y473202D01*
X167104Y473204D01*
X167089Y473211D01*
X166847Y473244D01*
X166814Y473249D01*
X150247Y473249D01*
X150152Y473236D01*
X150056Y473231D01*
X150013Y473216D01*
X149968Y473209D01*
X149880Y473170D01*
X149789Y473138D01*
X149755Y473113D01*
X149711Y473093D01*
X149613Y473010D01*
X149540Y472957D01*
X148582Y471998D01*
X148511Y471904D01*
X148436Y471812D01*
X148427Y471791D01*
X148413Y471773D01*
X148371Y471662D01*
X148324Y471553D01*
X148321Y471530D01*
X148313Y471509D01*
X148304Y471391D01*
X148290Y471273D01*
X148293Y471251D01*
X148292Y471228D01*
X148316Y471112D01*
X148335Y470995D01*
X148345Y470974D01*
X148349Y470952D01*
X148405Y470847D01*
X148456Y470740D01*
X148471Y470723D01*
X148482Y470703D01*
X148564Y470618D01*
X148643Y470529D01*
X148662Y470518D01*
X148678Y470501D01*
X148841Y470409D01*
X148906Y470369D01*
X151237Y469403D01*
X154443Y466197D01*
X156179Y462007D01*
X156179Y457473D01*
X154443Y453283D01*
X151237Y450077D01*
X148668Y449012D01*
X148659Y449008D01*
X148650Y449005D01*
X148538Y448936D01*
X148425Y448869D01*
X148418Y448862D01*
X148410Y448857D01*
X148322Y448759D01*
X148232Y448663D01*
X148228Y448655D01*
X148221Y448648D01*
X148164Y448529D01*
X148104Y448412D01*
X148102Y448402D01*
X148098Y448394D01*
X148086Y448318D01*
X148052Y448135D01*
X148054Y448111D01*
X148051Y448089D01*
X148051Y419429D01*
X148052Y419420D01*
X148051Y419411D01*
X148072Y419281D01*
X148091Y419150D01*
X148094Y419142D01*
X148096Y419132D01*
X148153Y419013D01*
X148207Y418893D01*
X148213Y418886D01*
X148217Y418877D01*
X148305Y418779D01*
X148390Y418679D01*
X148398Y418674D01*
X148404Y418667D01*
X148470Y418627D01*
X148626Y418524D01*
X148649Y418517D01*
X148668Y418506D01*
X150629Y417694D01*
X153534Y414789D01*
X155106Y410994D01*
X155106Y406886D01*
X153534Y403091D01*
X150629Y400186D01*
X146834Y398614D01*
X142726Y398614D01*
G37*
%LPD*%
G36*
X528663Y132355D02*
X528663Y132355D01*
X528695Y132353D01*
X528802Y132375D01*
X528911Y132391D01*
X528940Y132404D01*
X528972Y132410D01*
X529068Y132462D01*
X529168Y132507D01*
X529192Y132528D01*
X529220Y132543D01*
X529299Y132619D01*
X529382Y132690D01*
X529399Y132717D01*
X529423Y132740D01*
X529476Y132835D01*
X529536Y132926D01*
X529546Y132957D01*
X529562Y132985D01*
X529587Y133092D01*
X529619Y133196D01*
X529619Y133228D01*
X529627Y133259D01*
X529621Y133369D01*
X529622Y133478D01*
X529614Y133509D01*
X529612Y133541D01*
X529576Y133644D01*
X529547Y133750D01*
X529530Y133777D01*
X529520Y133808D01*
X529466Y133881D01*
X529399Y133990D01*
X529363Y134022D01*
X529338Y134057D01*
X525049Y138345D01*
X525049Y176031D01*
X525036Y176126D01*
X525031Y176222D01*
X525016Y176266D01*
X525009Y176311D01*
X524970Y176398D01*
X524938Y176489D01*
X524913Y176523D01*
X524893Y176567D01*
X524810Y176665D01*
X524757Y176738D01*
X514812Y186683D01*
X514735Y186740D01*
X514664Y186805D01*
X514623Y186825D01*
X514586Y186852D01*
X514496Y186886D01*
X514410Y186928D01*
X514368Y186934D01*
X514322Y186951D01*
X514195Y186961D01*
X514105Y186975D01*
X416729Y186975D01*
X378087Y225618D01*
X378061Y225637D01*
X378040Y225662D01*
X377948Y225722D01*
X377861Y225787D01*
X377831Y225799D01*
X377804Y225816D01*
X377699Y225848D01*
X377597Y225887D01*
X377565Y225889D01*
X377534Y225899D01*
X377425Y225900D01*
X377316Y225909D01*
X377284Y225902D01*
X377252Y225902D01*
X377147Y225873D01*
X377040Y225851D01*
X377011Y225836D01*
X376980Y225827D01*
X376887Y225770D01*
X376791Y225718D01*
X376768Y225696D01*
X376740Y225679D01*
X376667Y225598D01*
X376589Y225522D01*
X376573Y225494D01*
X376551Y225470D01*
X376504Y225371D01*
X376450Y225276D01*
X376442Y225245D01*
X376428Y225216D01*
X376414Y225127D01*
X376385Y225002D01*
X376387Y224953D01*
X376381Y224911D01*
X376381Y165541D01*
X376382Y165532D01*
X376381Y165522D01*
X376402Y165392D01*
X376421Y165262D01*
X376424Y165253D01*
X376426Y165244D01*
X376483Y165125D01*
X376537Y165005D01*
X376543Y164998D01*
X376547Y164989D01*
X376635Y164891D01*
X376720Y164791D01*
X376728Y164786D01*
X376734Y164779D01*
X376800Y164739D01*
X376956Y164636D01*
X376979Y164629D01*
X376998Y164618D01*
X379229Y163694D01*
X382134Y160789D01*
X383706Y156994D01*
X383706Y152886D01*
X382134Y149091D01*
X379229Y146186D01*
X375434Y144614D01*
X371326Y144614D01*
X367531Y146186D01*
X365387Y148331D01*
X365361Y148350D01*
X365340Y148375D01*
X365248Y148435D01*
X365161Y148500D01*
X365131Y148511D01*
X365104Y148529D01*
X364999Y148561D01*
X364897Y148599D01*
X364865Y148602D01*
X364834Y148611D01*
X364725Y148613D01*
X364616Y148621D01*
X364584Y148615D01*
X364552Y148615D01*
X364447Y148586D01*
X364340Y148564D01*
X364311Y148549D01*
X364280Y148540D01*
X364187Y148482D01*
X364091Y148431D01*
X364068Y148409D01*
X364040Y148392D01*
X363967Y148311D01*
X363889Y148234D01*
X363873Y148206D01*
X363851Y148182D01*
X363804Y148084D01*
X363750Y147989D01*
X363742Y147958D01*
X363728Y147929D01*
X363714Y147839D01*
X363685Y147715D01*
X363687Y147666D01*
X363681Y147624D01*
X363681Y143897D01*
X363691Y143826D01*
X363690Y143768D01*
X363697Y143742D01*
X363699Y143706D01*
X363714Y143663D01*
X363721Y143618D01*
X363749Y143555D01*
X363765Y143496D01*
X363781Y143471D01*
X363792Y143439D01*
X363817Y143405D01*
X363837Y143361D01*
X363880Y143310D01*
X363913Y143256D01*
X363949Y143224D01*
X363973Y143190D01*
X370520Y136643D01*
X370597Y136586D01*
X370668Y136521D01*
X370709Y136501D01*
X370746Y136474D01*
X370836Y136440D01*
X370922Y136398D01*
X370964Y136392D01*
X371010Y136375D01*
X371137Y136365D01*
X371227Y136351D01*
X441573Y136351D01*
X441668Y136364D01*
X441764Y136369D01*
X441807Y136384D01*
X441852Y136391D01*
X441940Y136430D01*
X442031Y136462D01*
X442065Y136487D01*
X442109Y136507D01*
X442207Y136590D01*
X442280Y136643D01*
X446287Y140650D01*
X446344Y140727D01*
X446409Y140798D01*
X446429Y140839D01*
X446456Y140876D01*
X446490Y140966D01*
X446532Y141052D01*
X446538Y141094D01*
X446555Y141140D01*
X446565Y141267D01*
X446579Y141357D01*
X446579Y144339D01*
X446578Y144348D01*
X446579Y144358D01*
X446558Y144488D01*
X446539Y144618D01*
X446536Y144627D01*
X446534Y144636D01*
X446477Y144755D01*
X446423Y144875D01*
X446417Y144882D01*
X446413Y144891D01*
X446325Y144989D01*
X446240Y145089D01*
X446232Y145094D01*
X446226Y145101D01*
X446160Y145141D01*
X446004Y145244D01*
X445981Y145251D01*
X445962Y145262D01*
X443731Y146186D01*
X440826Y149091D01*
X439254Y152886D01*
X439254Y156994D01*
X440826Y160789D01*
X443731Y163694D01*
X447526Y165266D01*
X451634Y165266D01*
X455429Y163694D01*
X458334Y160789D01*
X459906Y156994D01*
X459906Y152886D01*
X458334Y149091D01*
X455429Y146186D01*
X453198Y145262D01*
X453189Y145257D01*
X453180Y145255D01*
X453068Y145185D01*
X452955Y145118D01*
X452948Y145111D01*
X452940Y145106D01*
X452852Y145008D01*
X452762Y144913D01*
X452758Y144904D01*
X452751Y144897D01*
X452694Y144778D01*
X452634Y144661D01*
X452632Y144652D01*
X452628Y144643D01*
X452616Y144567D01*
X452582Y144384D01*
X452584Y144360D01*
X452581Y144339D01*
X452581Y138457D01*
X450530Y136407D01*
X448180Y134057D01*
X448161Y134031D01*
X448136Y134010D01*
X448076Y133918D01*
X448011Y133831D01*
X448000Y133801D01*
X447982Y133774D01*
X447950Y133669D01*
X447911Y133567D01*
X447909Y133535D01*
X447900Y133504D01*
X447898Y133395D01*
X447890Y133286D01*
X447896Y133254D01*
X447896Y133222D01*
X447925Y133117D01*
X447947Y133010D01*
X447962Y132981D01*
X447971Y132950D01*
X448028Y132857D01*
X448080Y132761D01*
X448102Y132738D01*
X448119Y132710D01*
X448200Y132637D01*
X448276Y132559D01*
X448305Y132543D01*
X448328Y132521D01*
X448427Y132474D01*
X448522Y132420D01*
X448553Y132412D01*
X448582Y132398D01*
X448671Y132384D01*
X448796Y132355D01*
X448845Y132357D01*
X448887Y132351D01*
X528631Y132351D01*
X528663Y132355D01*
G37*
G36*
X600469Y121387D02*
X600469Y121387D01*
X600517Y121385D01*
X600608Y121407D01*
X600701Y121421D01*
X600744Y121440D01*
X600791Y121451D01*
X600872Y121498D01*
X600958Y121537D01*
X600994Y121568D01*
X601036Y121592D01*
X601101Y121659D01*
X601172Y121720D01*
X601198Y121760D01*
X601231Y121794D01*
X601275Y121878D01*
X601327Y121956D01*
X601341Y122002D01*
X601363Y122044D01*
X601382Y122136D01*
X601409Y122226D01*
X601410Y122274D01*
X601419Y122320D01*
X601411Y122414D01*
X601413Y122508D01*
X601400Y122554D01*
X601396Y122601D01*
X601363Y122689D01*
X601338Y122780D01*
X601312Y122820D01*
X601295Y122865D01*
X601239Y122940D01*
X601189Y123020D01*
X601154Y123052D01*
X601125Y123090D01*
X601058Y123138D01*
X600980Y123209D01*
X600921Y123237D01*
X600875Y123270D01*
X600506Y123458D01*
X599223Y124391D01*
X598101Y125513D01*
X597168Y126796D01*
X596448Y128210D01*
X595957Y129719D01*
X595900Y130081D01*
X604790Y130081D01*
X604853Y130090D01*
X604918Y130089D01*
X604992Y130110D01*
X605069Y130121D01*
X605128Y130147D01*
X605190Y130164D01*
X605256Y130205D01*
X605326Y130237D01*
X605375Y130279D01*
X605430Y130312D01*
X605481Y130370D01*
X605540Y130420D01*
X605576Y130474D01*
X605619Y130522D01*
X605652Y130591D01*
X605695Y130656D01*
X605714Y130718D01*
X605742Y130775D01*
X605752Y130845D01*
X605777Y130926D01*
X605778Y131011D01*
X605789Y131080D01*
X605789Y132081D01*
X605791Y132081D01*
X605791Y131080D01*
X605800Y131016D01*
X605799Y130952D01*
X605820Y130877D01*
X605831Y130801D01*
X605857Y130742D01*
X605874Y130680D01*
X605915Y130614D01*
X605947Y130544D01*
X605989Y130495D01*
X606022Y130440D01*
X606080Y130388D01*
X606130Y130330D01*
X606184Y130294D01*
X606232Y130251D01*
X606301Y130218D01*
X606366Y130175D01*
X606428Y130156D01*
X606486Y130128D01*
X606555Y130117D01*
X606636Y130093D01*
X606721Y130092D01*
X606790Y130081D01*
X615680Y130081D01*
X615623Y129719D01*
X615132Y128210D01*
X614412Y126796D01*
X613479Y125513D01*
X612357Y124391D01*
X611074Y123458D01*
X610705Y123270D01*
X610666Y123243D01*
X610622Y123223D01*
X610551Y123162D01*
X610474Y123108D01*
X610444Y123071D01*
X610408Y123040D01*
X610356Y122961D01*
X610298Y122888D01*
X610280Y122844D01*
X610253Y122804D01*
X610226Y122714D01*
X610190Y122627D01*
X610185Y122580D01*
X610171Y122534D01*
X610170Y122440D01*
X610160Y122347D01*
X610168Y122300D01*
X610167Y122252D01*
X610192Y122162D01*
X610209Y122069D01*
X610230Y122026D01*
X610242Y121980D01*
X610292Y121900D01*
X610333Y121816D01*
X610366Y121781D01*
X610391Y121740D01*
X610460Y121677D01*
X610524Y121608D01*
X610564Y121583D01*
X610600Y121551D01*
X610684Y121510D01*
X610765Y121462D01*
X610811Y121449D01*
X610854Y121428D01*
X610935Y121416D01*
X611037Y121388D01*
X611103Y121389D01*
X611158Y121381D01*
X627066Y121381D01*
X627152Y121393D01*
X627238Y121396D01*
X627291Y121413D01*
X627345Y121421D01*
X627424Y121456D01*
X627507Y121483D01*
X627552Y121514D01*
X627602Y121537D01*
X627668Y121593D01*
X627740Y121642D01*
X627774Y121684D01*
X627816Y121720D01*
X627864Y121793D01*
X627919Y121860D01*
X627941Y121910D01*
X627971Y121956D01*
X627996Y122039D01*
X628030Y122119D01*
X628037Y122173D01*
X628053Y122226D01*
X628054Y122313D01*
X628065Y122399D01*
X628056Y122453D01*
X628057Y122508D01*
X628034Y122592D01*
X628020Y122677D01*
X627996Y122727D01*
X627982Y122780D01*
X627936Y122854D01*
X627899Y122932D01*
X627862Y122973D01*
X627833Y123020D01*
X627769Y123078D01*
X627711Y123143D01*
X627668Y123169D01*
X627624Y123209D01*
X627522Y123258D01*
X627448Y123303D01*
X625786Y123992D01*
X623102Y126676D01*
X621649Y130182D01*
X621649Y133978D01*
X623102Y137484D01*
X625786Y140168D01*
X629292Y141621D01*
X633088Y141621D01*
X634605Y140992D01*
X634614Y140990D01*
X634622Y140985D01*
X634751Y140955D01*
X634878Y140922D01*
X634887Y140923D01*
X634896Y140920D01*
X635029Y140927D01*
X635160Y140931D01*
X635169Y140934D01*
X635178Y140935D01*
X635303Y140978D01*
X635428Y141019D01*
X635436Y141024D01*
X635445Y141027D01*
X635507Y141073D01*
X635661Y141178D01*
X635676Y141196D01*
X635694Y141209D01*
X640327Y145842D01*
X640384Y145919D01*
X640449Y145990D01*
X640469Y146031D01*
X640496Y146068D01*
X640530Y146158D01*
X640572Y146244D01*
X640578Y146286D01*
X640595Y146332D01*
X640605Y146459D01*
X640619Y146549D01*
X640619Y183651D01*
X640606Y183746D01*
X640601Y183842D01*
X640586Y183886D01*
X640579Y183931D01*
X640540Y184018D01*
X640508Y184109D01*
X640483Y184143D01*
X640463Y184187D01*
X640380Y184285D01*
X640327Y184358D01*
X632668Y192017D01*
X632591Y192074D01*
X632520Y192139D01*
X632479Y192159D01*
X632442Y192186D01*
X632352Y192220D01*
X632266Y192262D01*
X632224Y192268D01*
X632178Y192285D01*
X632051Y192295D01*
X631961Y192309D01*
X520849Y192309D01*
X520817Y192305D01*
X520785Y192307D01*
X520678Y192285D01*
X520569Y192269D01*
X520540Y192256D01*
X520508Y192250D01*
X520412Y192198D01*
X520312Y192153D01*
X520288Y192132D01*
X520260Y192117D01*
X520181Y192041D01*
X520098Y191970D01*
X520081Y191943D01*
X520057Y191920D01*
X520004Y191825D01*
X519944Y191734D01*
X519934Y191703D01*
X519918Y191675D01*
X519893Y191568D01*
X519861Y191464D01*
X519861Y191432D01*
X519853Y191401D01*
X519859Y191291D01*
X519858Y191182D01*
X519866Y191151D01*
X519868Y191119D01*
X519904Y191016D01*
X519933Y190910D01*
X519950Y190883D01*
X519960Y190852D01*
X520014Y190779D01*
X520081Y190670D01*
X520117Y190638D01*
X520142Y190603D01*
X531591Y179155D01*
X531591Y141469D01*
X531604Y141374D01*
X531609Y141278D01*
X531624Y141234D01*
X531631Y141189D01*
X531670Y141102D01*
X531702Y141011D01*
X531727Y140977D01*
X531747Y140933D01*
X531830Y140835D01*
X531883Y140762D01*
X550972Y121673D01*
X551049Y121616D01*
X551120Y121551D01*
X551161Y121531D01*
X551198Y121504D01*
X551288Y121470D01*
X551374Y121428D01*
X551416Y121422D01*
X551462Y121405D01*
X551589Y121395D01*
X551679Y121381D01*
X600422Y121381D01*
X600469Y121387D01*
G37*
%LPC*%
G36*
X925531Y480599D02*
X925531Y480599D01*
X917593Y482726D01*
X910476Y486835D01*
X904665Y492646D01*
X900556Y499763D01*
X898429Y507701D01*
X898429Y515919D01*
X900556Y523857D01*
X904665Y530974D01*
X910476Y536785D01*
X917593Y540894D01*
X925531Y543021D01*
X933749Y543021D01*
X941687Y540894D01*
X948804Y536785D01*
X954615Y530974D01*
X958724Y523857D01*
X960851Y515919D01*
X960851Y507701D01*
X958724Y499763D01*
X954615Y492646D01*
X948804Y486835D01*
X941687Y482726D01*
X933749Y480599D01*
X925531Y480599D01*
G37*
%LPD*%
%LPC*%
G36*
X42881Y480599D02*
X42881Y480599D01*
X34943Y482726D01*
X27826Y486835D01*
X22015Y492646D01*
X17906Y499763D01*
X15779Y507701D01*
X15779Y515919D01*
X17906Y523857D01*
X22015Y530974D01*
X27826Y536785D01*
X34943Y540894D01*
X42881Y543021D01*
X51099Y543021D01*
X59037Y540894D01*
X66154Y536785D01*
X71965Y530974D01*
X76074Y523857D01*
X78201Y515919D01*
X78201Y507701D01*
X76074Y499763D01*
X71965Y492646D01*
X66154Y486835D01*
X59037Y482726D01*
X51099Y480599D01*
X42881Y480599D01*
G37*
%LPD*%
%LPC*%
G36*
X42881Y15779D02*
X42881Y15779D01*
X34943Y17906D01*
X27826Y22015D01*
X22015Y27826D01*
X17906Y34943D01*
X15779Y42881D01*
X15779Y51099D01*
X17906Y59037D01*
X22015Y66154D01*
X27826Y71965D01*
X34943Y76074D01*
X42881Y78201D01*
X51099Y78201D01*
X59037Y76074D01*
X66154Y71965D01*
X71965Y66154D01*
X76074Y59037D01*
X78201Y51099D01*
X78201Y42881D01*
X76074Y34943D01*
X71965Y27826D01*
X66154Y22015D01*
X59037Y17906D01*
X51099Y15779D01*
X42881Y15779D01*
G37*
%LPD*%
%LPC*%
G36*
X925531Y15779D02*
X925531Y15779D01*
X917593Y17906D01*
X910476Y22015D01*
X904665Y27826D01*
X900556Y34943D01*
X898429Y42881D01*
X898429Y51099D01*
X900556Y59037D01*
X904665Y66154D01*
X910476Y71965D01*
X917593Y76074D01*
X925531Y78201D01*
X933749Y78201D01*
X941687Y76074D01*
X948804Y71965D01*
X954615Y66154D01*
X958724Y59037D01*
X960851Y51099D01*
X960851Y42881D01*
X958724Y34943D01*
X954615Y27826D01*
X948804Y22015D01*
X941687Y17906D01*
X933749Y15779D01*
X925531Y15779D01*
G37*
%LPD*%
%LPC*%
G36*
X464585Y295687D02*
X464585Y295687D01*
X460395Y297423D01*
X457189Y300629D01*
X456013Y303468D01*
X456008Y303477D01*
X456005Y303486D01*
X455936Y303598D01*
X455869Y303711D01*
X455862Y303718D01*
X455857Y303726D01*
X455759Y303814D01*
X455663Y303904D01*
X455655Y303908D01*
X455648Y303915D01*
X455529Y303972D01*
X455412Y304032D01*
X455402Y304034D01*
X455394Y304038D01*
X455318Y304050D01*
X455135Y304084D01*
X455111Y304082D01*
X455089Y304085D01*
X442241Y304085D01*
X432609Y313717D01*
X432609Y332353D01*
X432596Y332448D01*
X432591Y332544D01*
X432576Y332587D01*
X432569Y332632D01*
X432530Y332720D01*
X432498Y332811D01*
X432473Y332845D01*
X432453Y332889D01*
X432370Y332987D01*
X432317Y333060D01*
X430850Y334527D01*
X430773Y334584D01*
X430702Y334649D01*
X430661Y334669D01*
X430624Y334696D01*
X430534Y334730D01*
X430448Y334772D01*
X430406Y334778D01*
X430360Y334795D01*
X430233Y334805D01*
X430143Y334819D01*
X415248Y334819D01*
X415239Y334818D01*
X415229Y334819D01*
X415099Y334798D01*
X414969Y334779D01*
X414960Y334776D01*
X414951Y334774D01*
X414831Y334717D01*
X414712Y334663D01*
X414705Y334657D01*
X414696Y334653D01*
X414597Y334565D01*
X414498Y334480D01*
X414492Y334472D01*
X414485Y334466D01*
X414446Y334400D01*
X414343Y334244D01*
X414336Y334221D01*
X414325Y334202D01*
X414056Y333553D01*
X411937Y331434D01*
X409168Y330287D01*
X406172Y330287D01*
X403403Y331434D01*
X401284Y333553D01*
X400137Y336322D01*
X400137Y339318D01*
X401284Y342087D01*
X403403Y344206D01*
X404052Y344475D01*
X404061Y344480D01*
X404070Y344482D01*
X404182Y344552D01*
X404295Y344619D01*
X404302Y344625D01*
X404310Y344630D01*
X404398Y344729D01*
X404488Y344824D01*
X404492Y344833D01*
X404499Y344840D01*
X404556Y344958D01*
X404616Y345076D01*
X404618Y345085D01*
X404622Y345094D01*
X404633Y345169D01*
X404668Y345353D01*
X404666Y345377D01*
X404669Y345398D01*
X404669Y379703D01*
X422097Y397131D01*
X422168Y397226D01*
X422244Y397317D01*
X422253Y397338D01*
X422266Y397356D01*
X422308Y397467D01*
X422355Y397576D01*
X422358Y397599D01*
X422366Y397620D01*
X422375Y397738D01*
X422390Y397856D01*
X422386Y397879D01*
X422388Y397901D01*
X422364Y398017D01*
X422345Y398135D01*
X422335Y398155D01*
X422330Y398178D01*
X422274Y398282D01*
X422224Y398389D01*
X422208Y398406D01*
X422198Y398426D01*
X422115Y398511D01*
X422036Y398600D01*
X422018Y398611D01*
X422001Y398629D01*
X421839Y398720D01*
X421773Y398761D01*
X418331Y400186D01*
X415426Y403091D01*
X413854Y406886D01*
X413854Y410994D01*
X415426Y414789D01*
X418331Y417694D01*
X420292Y418506D01*
X420301Y418511D01*
X420310Y418514D01*
X420422Y418583D01*
X420535Y418650D01*
X420542Y418657D01*
X420550Y418662D01*
X420638Y418760D01*
X420728Y418856D01*
X420732Y418864D01*
X420739Y418871D01*
X420796Y418989D01*
X420856Y419107D01*
X420858Y419116D01*
X420862Y419125D01*
X420874Y419201D01*
X420908Y419384D01*
X420906Y419408D01*
X420909Y419429D01*
X420909Y448089D01*
X420908Y448099D01*
X420909Y448108D01*
X420888Y448238D01*
X420869Y448368D01*
X420866Y448377D01*
X420864Y448386D01*
X420807Y448506D01*
X420753Y448625D01*
X420747Y448633D01*
X420743Y448641D01*
X420655Y448740D01*
X420570Y448840D01*
X420562Y448845D01*
X420556Y448852D01*
X420490Y448892D01*
X420334Y448994D01*
X420311Y449001D01*
X420292Y449012D01*
X417723Y450077D01*
X414517Y453283D01*
X412781Y457473D01*
X412781Y462007D01*
X414517Y466197D01*
X417723Y469403D01*
X421913Y471139D01*
X426447Y471139D01*
X430637Y469403D01*
X433843Y466197D01*
X435579Y462007D01*
X435579Y457473D01*
X433843Y453283D01*
X430637Y450077D01*
X428068Y449012D01*
X428059Y449008D01*
X428050Y449005D01*
X427938Y448936D01*
X427825Y448869D01*
X427818Y448862D01*
X427810Y448857D01*
X427722Y448759D01*
X427632Y448663D01*
X427628Y448655D01*
X427621Y448648D01*
X427564Y448529D01*
X427504Y448412D01*
X427502Y448402D01*
X427498Y448394D01*
X427486Y448318D01*
X427452Y448135D01*
X427454Y448111D01*
X427451Y448089D01*
X427451Y419429D01*
X427452Y419420D01*
X427451Y419411D01*
X427472Y419281D01*
X427491Y419150D01*
X427494Y419142D01*
X427496Y419132D01*
X427553Y419013D01*
X427607Y418893D01*
X427613Y418886D01*
X427617Y418877D01*
X427705Y418779D01*
X427790Y418679D01*
X427798Y418674D01*
X427804Y418667D01*
X427870Y418627D01*
X428026Y418524D01*
X428049Y418517D01*
X428068Y418506D01*
X430029Y417694D01*
X432934Y414789D01*
X434506Y410994D01*
X434506Y406886D01*
X432934Y403091D01*
X430029Y400186D01*
X429068Y399788D01*
X429059Y399783D01*
X429050Y399781D01*
X428938Y399711D01*
X428825Y399644D01*
X428818Y399637D01*
X428810Y399633D01*
X428722Y399535D01*
X428632Y399439D01*
X428628Y399430D01*
X428621Y399423D01*
X428564Y399305D01*
X428504Y399187D01*
X428502Y399178D01*
X428498Y399169D01*
X428486Y399094D01*
X428452Y398910D01*
X428454Y398886D01*
X428451Y398865D01*
X428451Y394997D01*
X410963Y377510D01*
X410906Y377433D01*
X410841Y377362D01*
X410821Y377321D01*
X410794Y377284D01*
X410760Y377194D01*
X410718Y377108D01*
X410712Y377066D01*
X410695Y377020D01*
X410685Y376893D01*
X410671Y376803D01*
X410671Y345398D01*
X410672Y345389D01*
X410671Y345379D01*
X410692Y345249D01*
X410711Y345119D01*
X410714Y345110D01*
X410716Y345101D01*
X410773Y344981D01*
X410827Y344862D01*
X410833Y344855D01*
X410837Y344846D01*
X410925Y344747D01*
X411010Y344648D01*
X411018Y344642D01*
X411024Y344635D01*
X411090Y344595D01*
X411246Y344493D01*
X411269Y344486D01*
X411288Y344475D01*
X411937Y344206D01*
X414056Y342087D01*
X414325Y341438D01*
X414330Y341429D01*
X414332Y341420D01*
X414402Y341308D01*
X414469Y341195D01*
X414475Y341188D01*
X414480Y341180D01*
X414579Y341092D01*
X414674Y341002D01*
X414683Y340998D01*
X414690Y340991D01*
X414808Y340934D01*
X414926Y340874D01*
X414935Y340872D01*
X414944Y340868D01*
X415019Y340856D01*
X415203Y340822D01*
X415227Y340824D01*
X415248Y340821D01*
X433043Y340821D01*
X438611Y335253D01*
X438611Y316617D01*
X438624Y316522D01*
X438629Y316426D01*
X438644Y316383D01*
X438651Y316338D01*
X438690Y316250D01*
X438722Y316159D01*
X438747Y316125D01*
X438767Y316081D01*
X438850Y315983D01*
X438903Y315910D01*
X444434Y310379D01*
X444511Y310322D01*
X444582Y310257D01*
X444623Y310237D01*
X444660Y310210D01*
X444750Y310176D01*
X444836Y310134D01*
X444878Y310128D01*
X444924Y310111D01*
X445051Y310101D01*
X445141Y310087D01*
X455089Y310087D01*
X455099Y310088D01*
X455108Y310087D01*
X455238Y310108D01*
X455369Y310127D01*
X455377Y310130D01*
X455387Y310132D01*
X455506Y310189D01*
X455626Y310243D01*
X455633Y310249D01*
X455641Y310253D01*
X455740Y310341D01*
X455840Y310426D01*
X455845Y310434D01*
X455852Y310440D01*
X455892Y310506D01*
X455994Y310662D01*
X456001Y310685D01*
X456013Y310704D01*
X457189Y313543D01*
X460395Y316749D01*
X464585Y318485D01*
X469119Y318485D01*
X473309Y316749D01*
X476515Y313543D01*
X478251Y309353D01*
X478251Y304819D01*
X476515Y300629D01*
X473309Y297423D01*
X469119Y295687D01*
X464585Y295687D01*
G37*
%LPD*%
%LPC*%
G36*
X277029Y181157D02*
X277029Y181157D01*
X276045Y181565D01*
X276009Y181574D01*
X275981Y181592D01*
X274996Y182000D01*
X273440Y183556D01*
X273032Y184541D01*
X273013Y184572D01*
X273005Y184605D01*
X272597Y185589D01*
X272597Y187791D01*
X273005Y188775D01*
X273016Y188816D01*
X273034Y188853D01*
X273047Y188938D01*
X273075Y189049D01*
X273073Y189107D01*
X273081Y189158D01*
X273081Y189659D01*
X273072Y189723D01*
X273073Y189787D01*
X273052Y189862D01*
X273041Y189938D01*
X273015Y189997D01*
X272998Y190059D01*
X272957Y190125D01*
X272925Y190195D01*
X272883Y190244D01*
X272850Y190299D01*
X272792Y190351D01*
X272742Y190409D01*
X272688Y190445D01*
X272640Y190488D01*
X272571Y190521D01*
X272506Y190564D01*
X272444Y190583D01*
X272387Y190611D01*
X272317Y190622D01*
X272236Y190646D01*
X272151Y190647D01*
X272082Y190658D01*
X271414Y190658D01*
X271369Y190692D01*
X271299Y190718D01*
X271233Y190754D01*
X271168Y190768D01*
X271105Y190792D01*
X271031Y190797D01*
X270957Y190813D01*
X270891Y190808D01*
X270824Y190813D01*
X270751Y190798D01*
X270676Y190793D01*
X270619Y190771D01*
X270548Y190756D01*
X270462Y190710D01*
X270389Y190682D01*
X269713Y190291D01*
X269067Y190118D01*
X264889Y190118D01*
X264889Y199660D01*
X264880Y199724D01*
X264881Y199788D01*
X264860Y199862D01*
X264849Y199939D01*
X264823Y199998D01*
X264806Y200060D01*
X264765Y200126D01*
X264733Y200196D01*
X264691Y200245D01*
X264658Y200300D01*
X264600Y200351D01*
X264550Y200410D01*
X264496Y200446D01*
X264448Y200489D01*
X264379Y200522D01*
X264314Y200565D01*
X264252Y200584D01*
X264195Y200612D01*
X264125Y200622D01*
X264044Y200647D01*
X263959Y200648D01*
X263890Y200659D01*
X262889Y200659D01*
X262889Y200661D01*
X263890Y200661D01*
X263954Y200670D01*
X264018Y200669D01*
X264093Y200690D01*
X264169Y200701D01*
X264228Y200727D01*
X264290Y200744D01*
X264356Y200785D01*
X264426Y200817D01*
X264475Y200859D01*
X264530Y200892D01*
X264582Y200950D01*
X264640Y201000D01*
X264676Y201054D01*
X264719Y201102D01*
X264752Y201171D01*
X264795Y201236D01*
X264814Y201298D01*
X264842Y201356D01*
X264852Y201425D01*
X264877Y201506D01*
X264878Y201591D01*
X264889Y201660D01*
X264889Y211202D01*
X269067Y211202D01*
X269713Y211029D01*
X270389Y210638D01*
X270458Y210610D01*
X270523Y210574D01*
X270588Y210558D01*
X270650Y210533D01*
X270725Y210526D01*
X270798Y210509D01*
X270864Y210512D01*
X270931Y210505D01*
X271005Y210519D01*
X271079Y210523D01*
X271143Y210545D01*
X271208Y210557D01*
X271275Y210591D01*
X271346Y210615D01*
X271395Y210652D01*
X271415Y210662D01*
X272082Y210662D01*
X272146Y210671D01*
X272210Y210670D01*
X272285Y210691D01*
X272361Y210702D01*
X272420Y210728D01*
X272482Y210745D01*
X272548Y210786D01*
X272618Y210818D01*
X272667Y210860D01*
X272722Y210893D01*
X272774Y210951D01*
X272832Y211001D01*
X272868Y211055D01*
X272911Y211103D01*
X272944Y211172D01*
X272987Y211237D01*
X273006Y211299D01*
X273034Y211356D01*
X273045Y211426D01*
X273069Y211507D01*
X273070Y211592D01*
X273081Y211661D01*
X273081Y257361D01*
X290009Y274289D01*
X296976Y274289D01*
X296985Y274290D01*
X296994Y274289D01*
X297124Y274310D01*
X297255Y274329D01*
X297263Y274332D01*
X297273Y274334D01*
X297392Y274391D01*
X297512Y274445D01*
X297519Y274451D01*
X297527Y274455D01*
X297626Y274543D01*
X297726Y274628D01*
X297731Y274636D01*
X297738Y274642D01*
X297778Y274708D01*
X297880Y274864D01*
X297887Y274887D01*
X297899Y274906D01*
X298107Y275409D01*
X301171Y278473D01*
X305174Y280131D01*
X309506Y280131D01*
X313509Y278473D01*
X316573Y275409D01*
X318231Y271406D01*
X318231Y267074D01*
X316573Y263071D01*
X313509Y260007D01*
X309506Y258349D01*
X305174Y258349D01*
X301171Y260007D01*
X298107Y263071D01*
X297899Y263574D01*
X297894Y263583D01*
X297891Y263592D01*
X297822Y263704D01*
X297755Y263817D01*
X297748Y263824D01*
X297743Y263832D01*
X297645Y263920D01*
X297549Y264010D01*
X297541Y264014D01*
X297534Y264021D01*
X297415Y264078D01*
X297298Y264138D01*
X297289Y264140D01*
X297280Y264144D01*
X297204Y264156D01*
X297021Y264190D01*
X296997Y264188D01*
X296976Y264191D01*
X294605Y264191D01*
X294510Y264178D01*
X294414Y264173D01*
X294371Y264158D01*
X294326Y264151D01*
X294238Y264112D01*
X294148Y264080D01*
X294113Y264055D01*
X294069Y264035D01*
X293972Y263952D01*
X293899Y263899D01*
X283471Y253471D01*
X283414Y253395D01*
X283349Y253323D01*
X283329Y253282D01*
X283302Y253246D01*
X283268Y253156D01*
X283226Y253069D01*
X283220Y253027D01*
X283203Y252982D01*
X283193Y252854D01*
X283179Y252765D01*
X283179Y211661D01*
X283188Y211597D01*
X283187Y211533D01*
X283208Y211458D01*
X283219Y211382D01*
X283245Y211323D01*
X283262Y211261D01*
X283303Y211195D01*
X283335Y211125D01*
X283377Y211076D01*
X283410Y211021D01*
X283468Y210969D01*
X283518Y210911D01*
X283572Y210875D01*
X283620Y210832D01*
X283689Y210799D01*
X283754Y210756D01*
X283816Y210737D01*
X283873Y210709D01*
X283943Y210698D01*
X284024Y210674D01*
X284109Y210673D01*
X284178Y210662D01*
X284801Y210662D01*
X285973Y209490D01*
X285973Y191830D01*
X284801Y190658D01*
X284178Y190658D01*
X284114Y190649D01*
X284050Y190650D01*
X283975Y190629D01*
X283899Y190618D01*
X283840Y190592D01*
X283778Y190575D01*
X283712Y190534D01*
X283642Y190502D01*
X283593Y190460D01*
X283538Y190427D01*
X283486Y190369D01*
X283428Y190319D01*
X283392Y190265D01*
X283349Y190217D01*
X283316Y190148D01*
X283273Y190083D01*
X283254Y190021D01*
X283226Y189964D01*
X283215Y189894D01*
X283191Y189813D01*
X283190Y189728D01*
X283179Y189659D01*
X283179Y189158D01*
X283185Y189117D01*
X283182Y189075D01*
X283202Y188991D01*
X283219Y188879D01*
X283243Y188825D01*
X283255Y188775D01*
X283663Y187791D01*
X283663Y185589D01*
X283255Y184605D01*
X283246Y184569D01*
X283228Y184541D01*
X282820Y183556D01*
X281264Y182000D01*
X280279Y181592D01*
X280248Y181573D01*
X280215Y181565D01*
X279231Y181157D01*
X277029Y181157D01*
G37*
%LPD*%
%LPC*%
G36*
X41126Y398614D02*
X41126Y398614D01*
X37331Y400186D01*
X34426Y403091D01*
X32854Y406886D01*
X32854Y410994D01*
X34426Y414789D01*
X36823Y417185D01*
X36880Y417262D01*
X36945Y417334D01*
X36965Y417375D01*
X36992Y417411D01*
X37026Y417501D01*
X37068Y417587D01*
X37074Y417629D01*
X37091Y417675D01*
X37101Y417802D01*
X37115Y417892D01*
X37115Y449271D01*
X37102Y449366D01*
X37097Y449462D01*
X37082Y449505D01*
X37075Y449550D01*
X37036Y449637D01*
X37004Y449728D01*
X36979Y449763D01*
X36959Y449807D01*
X36876Y449904D01*
X36823Y449977D01*
X33517Y453283D01*
X31781Y457473D01*
X31781Y462007D01*
X33517Y466197D01*
X36723Y469403D01*
X40913Y471139D01*
X45447Y471139D01*
X49637Y469403D01*
X52843Y466197D01*
X54579Y462007D01*
X54579Y457473D01*
X52843Y453283D01*
X49537Y449977D01*
X49480Y449900D01*
X49415Y449829D01*
X49395Y449788D01*
X49368Y449752D01*
X49334Y449662D01*
X49292Y449575D01*
X49286Y449533D01*
X49269Y449488D01*
X49259Y449360D01*
X49245Y449271D01*
X49245Y417892D01*
X49258Y417797D01*
X49263Y417701D01*
X49278Y417658D01*
X49285Y417613D01*
X49324Y417525D01*
X49356Y417434D01*
X49381Y417400D01*
X49401Y417356D01*
X49484Y417258D01*
X49537Y417185D01*
X51934Y414789D01*
X53506Y410994D01*
X53506Y406886D01*
X51934Y403091D01*
X49029Y400186D01*
X45234Y398614D01*
X41126Y398614D01*
G37*
%LPD*%
%LPC*%
G36*
X684671Y393319D02*
X684671Y393319D01*
X684496Y393495D01*
X684419Y393552D01*
X684348Y393617D01*
X684307Y393637D01*
X684270Y393664D01*
X684180Y393698D01*
X684094Y393740D01*
X684052Y393746D01*
X684007Y393763D01*
X683879Y393773D01*
X683789Y393787D01*
X681762Y393787D01*
X678993Y394934D01*
X678964Y394963D01*
X678888Y395020D01*
X678816Y395085D01*
X678775Y395105D01*
X678739Y395132D01*
X678649Y395166D01*
X678563Y395208D01*
X678520Y395214D01*
X678475Y395231D01*
X678347Y395241D01*
X678258Y395255D01*
X673164Y395255D01*
X670935Y396179D01*
X653295Y413818D01*
X651449Y415665D01*
X650525Y417894D01*
X650525Y429038D01*
X650512Y429133D01*
X650507Y429229D01*
X650492Y429272D01*
X650485Y429317D01*
X650446Y429405D01*
X650414Y429496D01*
X650389Y429530D01*
X650369Y429574D01*
X650286Y429672D01*
X650233Y429745D01*
X648502Y431476D01*
X647049Y434982D01*
X647049Y438778D01*
X648502Y442284D01*
X651186Y444968D01*
X654692Y446421D01*
X658488Y446421D01*
X661994Y444968D01*
X664678Y442284D01*
X666131Y438778D01*
X666131Y434982D01*
X664678Y431476D01*
X662947Y429745D01*
X662890Y429668D01*
X662825Y429597D01*
X662805Y429556D01*
X662778Y429519D01*
X662744Y429429D01*
X662702Y429343D01*
X662696Y429301D01*
X662679Y429255D01*
X662669Y429128D01*
X662655Y429038D01*
X662655Y422026D01*
X662668Y421931D01*
X662673Y421835D01*
X662688Y421792D01*
X662695Y421747D01*
X662734Y421659D01*
X662766Y421568D01*
X662791Y421534D01*
X662811Y421490D01*
X662894Y421392D01*
X662947Y421319D01*
X676589Y407677D01*
X676666Y407620D01*
X676738Y407555D01*
X676779Y407535D01*
X676815Y407508D01*
X676905Y407474D01*
X676991Y407432D01*
X677033Y407426D01*
X677079Y407409D01*
X677206Y407399D01*
X677296Y407385D01*
X678258Y407385D01*
X678353Y407398D01*
X678449Y407403D01*
X678492Y407418D01*
X678537Y407425D01*
X678625Y407464D01*
X678716Y407496D01*
X678750Y407521D01*
X678794Y407541D01*
X678891Y407624D01*
X678964Y407677D01*
X678993Y407706D01*
X681762Y408853D01*
X683789Y408853D01*
X683885Y408866D01*
X683981Y408871D01*
X684024Y408886D01*
X684069Y408893D01*
X684156Y408932D01*
X684247Y408964D01*
X684281Y408989D01*
X684326Y409009D01*
X684423Y409092D01*
X684496Y409145D01*
X684671Y409321D01*
X694329Y409321D01*
X695501Y408149D01*
X695501Y402880D01*
X695507Y402838D01*
X695504Y402797D01*
X695524Y402713D01*
X695541Y402600D01*
X695565Y402547D01*
X695565Y400099D01*
X695548Y400065D01*
X695535Y399980D01*
X695507Y399869D01*
X695509Y399811D01*
X695501Y399760D01*
X695501Y394491D01*
X694329Y393319D01*
X684671Y393319D01*
G37*
%LPD*%
%LPC*%
G36*
X396726Y398614D02*
X396726Y398614D01*
X392931Y400186D01*
X390026Y403091D01*
X388454Y406886D01*
X388454Y410994D01*
X390026Y414789D01*
X392931Y417694D01*
X394892Y418506D01*
X394901Y418511D01*
X394910Y418514D01*
X395022Y418583D01*
X395135Y418650D01*
X395142Y418657D01*
X395150Y418662D01*
X395238Y418760D01*
X395328Y418856D01*
X395332Y418864D01*
X395339Y418871D01*
X395396Y418989D01*
X395456Y419107D01*
X395458Y419116D01*
X395462Y419125D01*
X395474Y419201D01*
X395508Y419384D01*
X395506Y419408D01*
X395509Y419429D01*
X395509Y448089D01*
X395508Y448099D01*
X395509Y448108D01*
X395488Y448238D01*
X395469Y448368D01*
X395466Y448377D01*
X395464Y448386D01*
X395407Y448506D01*
X395353Y448625D01*
X395347Y448633D01*
X395343Y448641D01*
X395255Y448740D01*
X395170Y448840D01*
X395162Y448845D01*
X395156Y448852D01*
X395090Y448892D01*
X394934Y448994D01*
X394911Y449001D01*
X394892Y449012D01*
X392323Y450077D01*
X389117Y453283D01*
X387381Y457473D01*
X387381Y462007D01*
X389117Y466197D01*
X392323Y469403D01*
X396513Y471139D01*
X401047Y471139D01*
X405237Y469403D01*
X408443Y466197D01*
X410179Y462007D01*
X410179Y457473D01*
X408443Y453283D01*
X405237Y450077D01*
X402668Y449012D01*
X402659Y449008D01*
X402650Y449005D01*
X402538Y448936D01*
X402425Y448869D01*
X402418Y448862D01*
X402410Y448857D01*
X402322Y448759D01*
X402232Y448663D01*
X402228Y448655D01*
X402221Y448648D01*
X402164Y448529D01*
X402104Y448412D01*
X402102Y448402D01*
X402098Y448394D01*
X402086Y448318D01*
X402052Y448135D01*
X402054Y448111D01*
X402051Y448089D01*
X402051Y419429D01*
X402052Y419420D01*
X402051Y419411D01*
X402072Y419281D01*
X402091Y419150D01*
X402094Y419142D01*
X402096Y419132D01*
X402153Y419013D01*
X402207Y418893D01*
X402213Y418886D01*
X402217Y418877D01*
X402305Y418779D01*
X402390Y418679D01*
X402398Y418674D01*
X402404Y418667D01*
X402470Y418627D01*
X402626Y418524D01*
X402649Y418517D01*
X402668Y418506D01*
X404629Y417694D01*
X407534Y414789D01*
X409106Y410994D01*
X409106Y406886D01*
X407534Y403091D01*
X404629Y400186D01*
X400834Y398614D01*
X396726Y398614D01*
G37*
%LPD*%
%LPC*%
G36*
X193526Y398614D02*
X193526Y398614D01*
X189731Y400186D01*
X186826Y403091D01*
X185254Y406886D01*
X185254Y410994D01*
X186826Y414789D01*
X189731Y417694D01*
X191692Y418506D01*
X191701Y418511D01*
X191710Y418514D01*
X191822Y418583D01*
X191935Y418650D01*
X191942Y418657D01*
X191950Y418662D01*
X192038Y418760D01*
X192128Y418856D01*
X192132Y418864D01*
X192139Y418871D01*
X192196Y418989D01*
X192256Y419107D01*
X192258Y419116D01*
X192262Y419125D01*
X192274Y419201D01*
X192308Y419384D01*
X192306Y419408D01*
X192309Y419429D01*
X192309Y448089D01*
X192308Y448099D01*
X192309Y448108D01*
X192288Y448238D01*
X192269Y448368D01*
X192266Y448377D01*
X192264Y448386D01*
X192207Y448506D01*
X192153Y448625D01*
X192147Y448633D01*
X192143Y448641D01*
X192055Y448740D01*
X191970Y448840D01*
X191962Y448845D01*
X191956Y448852D01*
X191890Y448892D01*
X191734Y448994D01*
X191711Y449001D01*
X191692Y449012D01*
X189123Y450077D01*
X185917Y453283D01*
X184181Y457473D01*
X184181Y462007D01*
X185917Y466197D01*
X189123Y469403D01*
X193313Y471139D01*
X197847Y471139D01*
X202037Y469403D01*
X205243Y466197D01*
X206979Y462007D01*
X206979Y457473D01*
X205243Y453283D01*
X202037Y450077D01*
X199468Y449012D01*
X199459Y449008D01*
X199450Y449005D01*
X199338Y448936D01*
X199225Y448869D01*
X199218Y448862D01*
X199210Y448857D01*
X199122Y448759D01*
X199032Y448663D01*
X199028Y448655D01*
X199021Y448648D01*
X198964Y448529D01*
X198904Y448412D01*
X198902Y448402D01*
X198898Y448394D01*
X198886Y448318D01*
X198852Y448135D01*
X198854Y448111D01*
X198851Y448089D01*
X198851Y419429D01*
X198852Y419420D01*
X198851Y419411D01*
X198872Y419281D01*
X198891Y419150D01*
X198894Y419142D01*
X198896Y419132D01*
X198953Y419013D01*
X199007Y418893D01*
X199013Y418886D01*
X199017Y418877D01*
X199105Y418779D01*
X199190Y418679D01*
X199198Y418674D01*
X199204Y418667D01*
X199270Y418627D01*
X199426Y418524D01*
X199449Y418517D01*
X199468Y418506D01*
X201429Y417694D01*
X204334Y414789D01*
X205906Y410994D01*
X205906Y406886D01*
X204334Y403091D01*
X201429Y400186D01*
X197634Y398614D01*
X193526Y398614D01*
G37*
%LPD*%
%LPC*%
G36*
X472926Y398614D02*
X472926Y398614D01*
X469131Y400186D01*
X466226Y403091D01*
X464654Y406886D01*
X464654Y410994D01*
X466226Y414789D01*
X469131Y417694D01*
X471092Y418506D01*
X471101Y418511D01*
X471110Y418514D01*
X471222Y418583D01*
X471335Y418650D01*
X471342Y418657D01*
X471350Y418662D01*
X471438Y418760D01*
X471528Y418856D01*
X471532Y418864D01*
X471539Y418871D01*
X471596Y418989D01*
X471656Y419107D01*
X471658Y419116D01*
X471662Y419125D01*
X471674Y419201D01*
X471708Y419384D01*
X471706Y419408D01*
X471709Y419429D01*
X471709Y448089D01*
X471708Y448099D01*
X471709Y448108D01*
X471688Y448238D01*
X471669Y448368D01*
X471666Y448377D01*
X471664Y448386D01*
X471607Y448506D01*
X471553Y448625D01*
X471547Y448633D01*
X471543Y448641D01*
X471455Y448740D01*
X471370Y448840D01*
X471362Y448845D01*
X471356Y448852D01*
X471290Y448892D01*
X471134Y448994D01*
X471111Y449001D01*
X471092Y449012D01*
X468523Y450077D01*
X465317Y453283D01*
X463581Y457473D01*
X463581Y462007D01*
X465317Y466197D01*
X468523Y469403D01*
X472713Y471139D01*
X477247Y471139D01*
X481437Y469403D01*
X484643Y466197D01*
X486379Y462007D01*
X486379Y457473D01*
X484643Y453283D01*
X481437Y450077D01*
X478868Y449012D01*
X478859Y449008D01*
X478850Y449005D01*
X478738Y448936D01*
X478625Y448869D01*
X478618Y448862D01*
X478610Y448857D01*
X478522Y448759D01*
X478432Y448663D01*
X478428Y448655D01*
X478421Y448648D01*
X478364Y448529D01*
X478304Y448412D01*
X478302Y448402D01*
X478298Y448394D01*
X478286Y448318D01*
X478252Y448135D01*
X478254Y448111D01*
X478251Y448089D01*
X478251Y419429D01*
X478252Y419420D01*
X478251Y419411D01*
X478272Y419281D01*
X478291Y419150D01*
X478294Y419142D01*
X478296Y419132D01*
X478353Y419013D01*
X478407Y418893D01*
X478413Y418886D01*
X478417Y418877D01*
X478505Y418779D01*
X478590Y418679D01*
X478598Y418674D01*
X478604Y418667D01*
X478670Y418627D01*
X478826Y418524D01*
X478849Y418517D01*
X478868Y418506D01*
X480829Y417694D01*
X483734Y414789D01*
X485306Y410994D01*
X485306Y406886D01*
X483734Y403091D01*
X480829Y400186D01*
X477034Y398614D01*
X472926Y398614D01*
G37*
%LPD*%
%LPC*%
G36*
X66526Y398614D02*
X66526Y398614D01*
X62731Y400186D01*
X59826Y403091D01*
X58254Y406886D01*
X58254Y410994D01*
X59826Y414789D01*
X62731Y417694D01*
X64692Y418506D01*
X64701Y418511D01*
X64710Y418514D01*
X64822Y418583D01*
X64935Y418650D01*
X64942Y418657D01*
X64950Y418662D01*
X65038Y418760D01*
X65128Y418856D01*
X65132Y418864D01*
X65139Y418871D01*
X65196Y418989D01*
X65256Y419107D01*
X65258Y419116D01*
X65262Y419125D01*
X65274Y419201D01*
X65308Y419384D01*
X65306Y419408D01*
X65309Y419429D01*
X65309Y448089D01*
X65308Y448099D01*
X65309Y448108D01*
X65288Y448238D01*
X65269Y448368D01*
X65266Y448377D01*
X65264Y448386D01*
X65207Y448506D01*
X65153Y448625D01*
X65147Y448633D01*
X65143Y448641D01*
X65055Y448740D01*
X64970Y448840D01*
X64962Y448845D01*
X64956Y448852D01*
X64890Y448892D01*
X64734Y448994D01*
X64711Y449001D01*
X64692Y449012D01*
X62123Y450077D01*
X58917Y453283D01*
X57181Y457473D01*
X57181Y462007D01*
X58917Y466197D01*
X62123Y469403D01*
X66313Y471139D01*
X70847Y471139D01*
X75037Y469403D01*
X78243Y466197D01*
X79979Y462007D01*
X79979Y457473D01*
X78243Y453283D01*
X75037Y450077D01*
X72468Y449012D01*
X72459Y449008D01*
X72450Y449005D01*
X72338Y448936D01*
X72225Y448869D01*
X72218Y448862D01*
X72210Y448857D01*
X72122Y448759D01*
X72032Y448663D01*
X72028Y448655D01*
X72021Y448648D01*
X71964Y448529D01*
X71904Y448412D01*
X71902Y448402D01*
X71898Y448394D01*
X71886Y448318D01*
X71852Y448135D01*
X71854Y448111D01*
X71851Y448089D01*
X71851Y419429D01*
X71852Y419420D01*
X71851Y419411D01*
X71872Y419281D01*
X71891Y419150D01*
X71894Y419142D01*
X71896Y419132D01*
X71953Y419013D01*
X72007Y418893D01*
X72013Y418886D01*
X72017Y418877D01*
X72105Y418779D01*
X72190Y418679D01*
X72198Y418674D01*
X72204Y418667D01*
X72270Y418627D01*
X72426Y418524D01*
X72449Y418517D01*
X72468Y418506D01*
X74429Y417694D01*
X77334Y414789D01*
X78906Y410994D01*
X78906Y406886D01*
X77334Y403091D01*
X74429Y400186D01*
X70634Y398614D01*
X66526Y398614D01*
G37*
%LPD*%
%LPC*%
G36*
X447526Y398614D02*
X447526Y398614D01*
X443731Y400186D01*
X440826Y403091D01*
X439254Y406886D01*
X439254Y410994D01*
X440826Y414789D01*
X443731Y417694D01*
X445692Y418506D01*
X445701Y418511D01*
X445710Y418514D01*
X445822Y418583D01*
X445935Y418650D01*
X445942Y418657D01*
X445950Y418662D01*
X446038Y418760D01*
X446128Y418856D01*
X446132Y418864D01*
X446139Y418871D01*
X446196Y418989D01*
X446256Y419107D01*
X446258Y419116D01*
X446262Y419125D01*
X446274Y419201D01*
X446308Y419384D01*
X446306Y419408D01*
X446309Y419429D01*
X446309Y448089D01*
X446308Y448099D01*
X446309Y448108D01*
X446288Y448238D01*
X446269Y448368D01*
X446266Y448377D01*
X446264Y448386D01*
X446207Y448506D01*
X446153Y448625D01*
X446147Y448633D01*
X446143Y448641D01*
X446055Y448740D01*
X445970Y448840D01*
X445962Y448845D01*
X445956Y448852D01*
X445890Y448892D01*
X445734Y448994D01*
X445711Y449001D01*
X445692Y449012D01*
X443123Y450077D01*
X439917Y453283D01*
X438181Y457473D01*
X438181Y462007D01*
X439917Y466197D01*
X443123Y469403D01*
X447313Y471139D01*
X451847Y471139D01*
X456037Y469403D01*
X459243Y466197D01*
X460979Y462007D01*
X460979Y457473D01*
X459243Y453283D01*
X456037Y450077D01*
X453468Y449012D01*
X453459Y449008D01*
X453450Y449005D01*
X453338Y448936D01*
X453225Y448869D01*
X453218Y448862D01*
X453210Y448857D01*
X453122Y448759D01*
X453032Y448663D01*
X453028Y448655D01*
X453021Y448648D01*
X452964Y448529D01*
X452904Y448412D01*
X452902Y448402D01*
X452898Y448394D01*
X452886Y448318D01*
X452852Y448135D01*
X452854Y448111D01*
X452851Y448089D01*
X452851Y419429D01*
X452852Y419420D01*
X452851Y419411D01*
X452872Y419281D01*
X452891Y419150D01*
X452894Y419142D01*
X452896Y419132D01*
X452953Y419013D01*
X453007Y418893D01*
X453013Y418886D01*
X453017Y418877D01*
X453105Y418779D01*
X453190Y418679D01*
X453198Y418674D01*
X453204Y418667D01*
X453270Y418627D01*
X453426Y418524D01*
X453449Y418517D01*
X453468Y418506D01*
X455429Y417694D01*
X458334Y414789D01*
X459906Y410994D01*
X459906Y406886D01*
X458334Y403091D01*
X455429Y400186D01*
X451634Y398614D01*
X447526Y398614D01*
G37*
%LPD*%
%LPC*%
G36*
X91926Y398614D02*
X91926Y398614D01*
X88131Y400186D01*
X85226Y403091D01*
X83654Y406886D01*
X83654Y410994D01*
X85226Y414789D01*
X88131Y417694D01*
X90092Y418506D01*
X90101Y418511D01*
X90110Y418514D01*
X90222Y418583D01*
X90335Y418650D01*
X90342Y418657D01*
X90350Y418662D01*
X90438Y418760D01*
X90528Y418856D01*
X90532Y418864D01*
X90539Y418871D01*
X90596Y418989D01*
X90656Y419107D01*
X90658Y419116D01*
X90662Y419125D01*
X90674Y419201D01*
X90708Y419384D01*
X90706Y419408D01*
X90709Y419429D01*
X90709Y448089D01*
X90708Y448099D01*
X90709Y448108D01*
X90688Y448238D01*
X90669Y448368D01*
X90666Y448377D01*
X90664Y448386D01*
X90607Y448506D01*
X90553Y448625D01*
X90547Y448633D01*
X90543Y448641D01*
X90455Y448740D01*
X90370Y448840D01*
X90362Y448845D01*
X90356Y448852D01*
X90290Y448892D01*
X90134Y448994D01*
X90111Y449001D01*
X90092Y449012D01*
X87523Y450077D01*
X84317Y453283D01*
X82581Y457473D01*
X82581Y462007D01*
X84317Y466197D01*
X87523Y469403D01*
X91713Y471139D01*
X96247Y471139D01*
X100437Y469403D01*
X103643Y466197D01*
X105379Y462007D01*
X105379Y457473D01*
X103643Y453283D01*
X100437Y450077D01*
X97868Y449012D01*
X97859Y449008D01*
X97850Y449005D01*
X97738Y448936D01*
X97625Y448869D01*
X97618Y448862D01*
X97610Y448857D01*
X97522Y448759D01*
X97432Y448663D01*
X97428Y448655D01*
X97421Y448648D01*
X97364Y448529D01*
X97304Y448412D01*
X97302Y448402D01*
X97298Y448394D01*
X97286Y448318D01*
X97252Y448135D01*
X97254Y448111D01*
X97251Y448089D01*
X97251Y419429D01*
X97252Y419420D01*
X97251Y419411D01*
X97272Y419281D01*
X97291Y419150D01*
X97294Y419142D01*
X97296Y419132D01*
X97353Y419013D01*
X97407Y418893D01*
X97413Y418886D01*
X97417Y418877D01*
X97505Y418779D01*
X97590Y418679D01*
X97598Y418674D01*
X97604Y418667D01*
X97670Y418627D01*
X97826Y418524D01*
X97849Y418517D01*
X97868Y418506D01*
X99829Y417694D01*
X102734Y414789D01*
X104306Y410994D01*
X104306Y406886D01*
X102734Y403091D01*
X99829Y400186D01*
X96034Y398614D01*
X91926Y398614D01*
G37*
%LPD*%
%LPC*%
G36*
X269726Y398614D02*
X269726Y398614D01*
X265931Y400186D01*
X263026Y403091D01*
X261454Y406886D01*
X261454Y410994D01*
X263026Y414789D01*
X265931Y417694D01*
X267892Y418506D01*
X267901Y418511D01*
X267910Y418514D01*
X268022Y418583D01*
X268135Y418650D01*
X268142Y418657D01*
X268150Y418662D01*
X268238Y418760D01*
X268328Y418856D01*
X268332Y418864D01*
X268339Y418871D01*
X268396Y418989D01*
X268456Y419107D01*
X268458Y419116D01*
X268462Y419125D01*
X268474Y419201D01*
X268508Y419384D01*
X268506Y419408D01*
X268509Y419429D01*
X268509Y448089D01*
X268508Y448099D01*
X268509Y448108D01*
X268488Y448238D01*
X268469Y448368D01*
X268466Y448377D01*
X268464Y448386D01*
X268407Y448506D01*
X268353Y448625D01*
X268347Y448633D01*
X268343Y448641D01*
X268255Y448740D01*
X268170Y448840D01*
X268162Y448845D01*
X268156Y448852D01*
X268090Y448892D01*
X267934Y448994D01*
X267911Y449001D01*
X267892Y449012D01*
X265323Y450077D01*
X262117Y453283D01*
X260381Y457473D01*
X260381Y462007D01*
X262117Y466197D01*
X265323Y469403D01*
X269513Y471139D01*
X274047Y471139D01*
X278237Y469403D01*
X281443Y466197D01*
X283179Y462007D01*
X283179Y457473D01*
X281443Y453283D01*
X278237Y450077D01*
X275668Y449012D01*
X275659Y449008D01*
X275650Y449005D01*
X275538Y448936D01*
X275425Y448869D01*
X275418Y448862D01*
X275410Y448857D01*
X275322Y448759D01*
X275232Y448663D01*
X275228Y448655D01*
X275221Y448648D01*
X275164Y448529D01*
X275104Y448412D01*
X275102Y448402D01*
X275098Y448394D01*
X275086Y448318D01*
X275052Y448135D01*
X275054Y448111D01*
X275051Y448089D01*
X275051Y419429D01*
X275052Y419420D01*
X275051Y419411D01*
X275072Y419281D01*
X275091Y419150D01*
X275094Y419142D01*
X275096Y419132D01*
X275153Y419013D01*
X275207Y418893D01*
X275213Y418886D01*
X275217Y418877D01*
X275305Y418779D01*
X275390Y418679D01*
X275398Y418674D01*
X275404Y418667D01*
X275470Y418627D01*
X275626Y418524D01*
X275649Y418517D01*
X275668Y418506D01*
X277629Y417694D01*
X280534Y414789D01*
X282106Y410994D01*
X282106Y406886D01*
X280534Y403091D01*
X277629Y400186D01*
X273834Y398614D01*
X269726Y398614D01*
G37*
%LPD*%
%LPC*%
G36*
X295126Y398614D02*
X295126Y398614D01*
X291331Y400186D01*
X288426Y403091D01*
X286854Y406886D01*
X286854Y410994D01*
X288426Y414789D01*
X291331Y417694D01*
X293292Y418506D01*
X293301Y418511D01*
X293310Y418514D01*
X293422Y418583D01*
X293535Y418650D01*
X293542Y418657D01*
X293550Y418662D01*
X293638Y418760D01*
X293728Y418856D01*
X293732Y418864D01*
X293739Y418871D01*
X293796Y418989D01*
X293856Y419107D01*
X293858Y419116D01*
X293862Y419125D01*
X293874Y419201D01*
X293908Y419384D01*
X293906Y419408D01*
X293909Y419429D01*
X293909Y448089D01*
X293908Y448099D01*
X293909Y448108D01*
X293888Y448238D01*
X293869Y448368D01*
X293866Y448377D01*
X293864Y448386D01*
X293807Y448506D01*
X293753Y448625D01*
X293747Y448633D01*
X293743Y448641D01*
X293655Y448740D01*
X293570Y448840D01*
X293562Y448845D01*
X293556Y448852D01*
X293490Y448892D01*
X293334Y448994D01*
X293311Y449001D01*
X293292Y449012D01*
X290723Y450077D01*
X287517Y453283D01*
X285781Y457473D01*
X285781Y462007D01*
X287517Y466197D01*
X290723Y469403D01*
X294913Y471139D01*
X299447Y471139D01*
X303637Y469403D01*
X306843Y466197D01*
X308579Y462007D01*
X308579Y457473D01*
X306843Y453283D01*
X303637Y450077D01*
X301068Y449012D01*
X301059Y449008D01*
X301050Y449005D01*
X300938Y448936D01*
X300825Y448869D01*
X300818Y448862D01*
X300810Y448857D01*
X300722Y448759D01*
X300632Y448663D01*
X300628Y448655D01*
X300621Y448648D01*
X300564Y448529D01*
X300504Y448412D01*
X300502Y448402D01*
X300498Y448394D01*
X300486Y448318D01*
X300452Y448135D01*
X300454Y448111D01*
X300451Y448089D01*
X300451Y419429D01*
X300452Y419420D01*
X300451Y419411D01*
X300472Y419281D01*
X300491Y419150D01*
X300494Y419142D01*
X300496Y419132D01*
X300553Y419013D01*
X300607Y418893D01*
X300613Y418886D01*
X300617Y418877D01*
X300705Y418779D01*
X300790Y418679D01*
X300798Y418674D01*
X300804Y418667D01*
X300870Y418627D01*
X301026Y418524D01*
X301049Y418517D01*
X301068Y418506D01*
X303029Y417694D01*
X305934Y414789D01*
X307506Y410994D01*
X307506Y406886D01*
X305934Y403091D01*
X303029Y400186D01*
X299234Y398614D01*
X295126Y398614D01*
G37*
%LPD*%
%LPC*%
G36*
X371326Y398614D02*
X371326Y398614D01*
X367531Y400186D01*
X364626Y403091D01*
X363054Y406886D01*
X363054Y410994D01*
X364626Y414789D01*
X367531Y417694D01*
X369492Y418506D01*
X369501Y418511D01*
X369510Y418514D01*
X369622Y418583D01*
X369735Y418650D01*
X369742Y418657D01*
X369750Y418662D01*
X369838Y418760D01*
X369928Y418856D01*
X369932Y418864D01*
X369939Y418871D01*
X369996Y418989D01*
X370056Y419107D01*
X370058Y419116D01*
X370062Y419125D01*
X370074Y419201D01*
X370108Y419384D01*
X370106Y419408D01*
X370109Y419429D01*
X370109Y448089D01*
X370108Y448099D01*
X370109Y448108D01*
X370088Y448238D01*
X370069Y448368D01*
X370066Y448377D01*
X370064Y448386D01*
X370007Y448506D01*
X369953Y448625D01*
X369947Y448633D01*
X369943Y448641D01*
X369855Y448740D01*
X369770Y448840D01*
X369762Y448845D01*
X369756Y448852D01*
X369690Y448892D01*
X369534Y448994D01*
X369511Y449001D01*
X369492Y449012D01*
X366923Y450077D01*
X363717Y453283D01*
X361981Y457473D01*
X361981Y462007D01*
X363717Y466197D01*
X366923Y469403D01*
X371113Y471139D01*
X375647Y471139D01*
X379837Y469403D01*
X383043Y466197D01*
X384779Y462007D01*
X384779Y457473D01*
X383043Y453283D01*
X379837Y450077D01*
X377268Y449012D01*
X377259Y449008D01*
X377250Y449005D01*
X377138Y448936D01*
X377025Y448869D01*
X377018Y448862D01*
X377010Y448857D01*
X376922Y448759D01*
X376832Y448663D01*
X376828Y448655D01*
X376821Y448648D01*
X376764Y448529D01*
X376704Y448412D01*
X376702Y448402D01*
X376698Y448394D01*
X376686Y448318D01*
X376652Y448135D01*
X376654Y448111D01*
X376651Y448089D01*
X376651Y419429D01*
X376652Y419420D01*
X376651Y419411D01*
X376672Y419281D01*
X376691Y419150D01*
X376694Y419142D01*
X376696Y419132D01*
X376753Y419013D01*
X376807Y418893D01*
X376813Y418886D01*
X376817Y418877D01*
X376905Y418779D01*
X376990Y418679D01*
X376998Y418674D01*
X377004Y418667D01*
X377070Y418627D01*
X377226Y418524D01*
X377249Y418517D01*
X377268Y418506D01*
X379229Y417694D01*
X382134Y414789D01*
X383706Y410994D01*
X383706Y406886D01*
X382134Y403091D01*
X379229Y400186D01*
X375434Y398614D01*
X371326Y398614D01*
G37*
%LPD*%
%LPC*%
G36*
X117326Y398614D02*
X117326Y398614D01*
X113531Y400186D01*
X110626Y403091D01*
X109054Y406886D01*
X109054Y410994D01*
X110626Y414789D01*
X113531Y417694D01*
X115492Y418506D01*
X115501Y418511D01*
X115510Y418514D01*
X115622Y418583D01*
X115735Y418650D01*
X115742Y418657D01*
X115750Y418662D01*
X115838Y418760D01*
X115928Y418856D01*
X115932Y418864D01*
X115939Y418871D01*
X115996Y418989D01*
X116056Y419107D01*
X116058Y419116D01*
X116062Y419125D01*
X116074Y419201D01*
X116108Y419384D01*
X116106Y419408D01*
X116109Y419429D01*
X116109Y448089D01*
X116108Y448099D01*
X116109Y448108D01*
X116088Y448238D01*
X116069Y448368D01*
X116066Y448377D01*
X116064Y448386D01*
X116007Y448506D01*
X115953Y448625D01*
X115947Y448633D01*
X115943Y448641D01*
X115855Y448740D01*
X115770Y448840D01*
X115762Y448845D01*
X115756Y448852D01*
X115690Y448892D01*
X115534Y448994D01*
X115511Y449001D01*
X115492Y449012D01*
X112923Y450077D01*
X109717Y453283D01*
X107981Y457473D01*
X107981Y462007D01*
X109717Y466197D01*
X112923Y469403D01*
X117113Y471139D01*
X121647Y471139D01*
X125837Y469403D01*
X129043Y466197D01*
X130779Y462007D01*
X130779Y457473D01*
X129043Y453283D01*
X125837Y450077D01*
X123268Y449012D01*
X123259Y449008D01*
X123250Y449005D01*
X123138Y448936D01*
X123025Y448869D01*
X123018Y448862D01*
X123010Y448857D01*
X122922Y448759D01*
X122832Y448663D01*
X122828Y448655D01*
X122821Y448648D01*
X122764Y448529D01*
X122704Y448412D01*
X122702Y448402D01*
X122698Y448394D01*
X122686Y448318D01*
X122652Y448135D01*
X122654Y448111D01*
X122651Y448089D01*
X122651Y419429D01*
X122652Y419420D01*
X122651Y419411D01*
X122672Y419281D01*
X122691Y419150D01*
X122694Y419142D01*
X122696Y419132D01*
X122753Y419013D01*
X122807Y418893D01*
X122813Y418886D01*
X122817Y418877D01*
X122905Y418779D01*
X122990Y418679D01*
X122998Y418674D01*
X123004Y418667D01*
X123070Y418627D01*
X123226Y418524D01*
X123249Y418517D01*
X123268Y418506D01*
X125229Y417694D01*
X128134Y414789D01*
X129706Y410994D01*
X129706Y406886D01*
X128134Y403091D01*
X125229Y400186D01*
X121434Y398614D01*
X117326Y398614D01*
G37*
%LPD*%
%LPC*%
G36*
X167913Y92741D02*
X167913Y92741D01*
X163723Y94477D01*
X160517Y97683D01*
X158781Y101873D01*
X158781Y106407D01*
X160517Y110597D01*
X163723Y113803D01*
X166292Y114868D01*
X166301Y114872D01*
X166310Y114875D01*
X166422Y114944D01*
X166535Y115011D01*
X166542Y115018D01*
X166550Y115023D01*
X166638Y115121D01*
X166728Y115217D01*
X166732Y115225D01*
X166739Y115232D01*
X166796Y115351D01*
X166856Y115468D01*
X166858Y115478D01*
X166862Y115486D01*
X166874Y115562D01*
X166908Y115745D01*
X166906Y115769D01*
X166909Y115791D01*
X166909Y144451D01*
X166908Y144460D01*
X166909Y144469D01*
X166888Y144599D01*
X166869Y144730D01*
X166866Y144738D01*
X166864Y144748D01*
X166807Y144867D01*
X166753Y144987D01*
X166747Y144994D01*
X166743Y145003D01*
X166655Y145101D01*
X166570Y145201D01*
X166562Y145206D01*
X166556Y145213D01*
X166490Y145253D01*
X166334Y145356D01*
X166311Y145363D01*
X166292Y145374D01*
X164331Y146186D01*
X161426Y149091D01*
X159854Y152886D01*
X159854Y156994D01*
X161426Y160789D01*
X164331Y163694D01*
X168126Y165266D01*
X172234Y165266D01*
X176029Y163694D01*
X178934Y160789D01*
X180506Y156994D01*
X180506Y152886D01*
X178934Y149091D01*
X176029Y146186D01*
X174068Y145374D01*
X174059Y145369D01*
X174050Y145366D01*
X173938Y145297D01*
X173825Y145230D01*
X173818Y145223D01*
X173810Y145218D01*
X173722Y145120D01*
X173632Y145024D01*
X173628Y145016D01*
X173621Y145009D01*
X173564Y144891D01*
X173504Y144773D01*
X173502Y144764D01*
X173498Y144755D01*
X173486Y144679D01*
X173452Y144496D01*
X173454Y144472D01*
X173451Y144451D01*
X173451Y115791D01*
X173452Y115781D01*
X173451Y115772D01*
X173472Y115642D01*
X173491Y115512D01*
X173494Y115503D01*
X173496Y115494D01*
X173553Y115374D01*
X173607Y115255D01*
X173613Y115247D01*
X173617Y115239D01*
X173705Y115140D01*
X173790Y115040D01*
X173798Y115035D01*
X173804Y115028D01*
X173870Y114988D01*
X174026Y114886D01*
X174049Y114879D01*
X174068Y114868D01*
X176637Y113803D01*
X179843Y110597D01*
X181579Y106407D01*
X181579Y101873D01*
X179843Y97683D01*
X176637Y94477D01*
X172447Y92741D01*
X167913Y92741D01*
G37*
%LPD*%
%LPC*%
G36*
X91713Y92741D02*
X91713Y92741D01*
X87523Y94477D01*
X84317Y97683D01*
X82581Y101873D01*
X82581Y106407D01*
X84317Y110597D01*
X87523Y113803D01*
X90092Y114868D01*
X90101Y114872D01*
X90110Y114875D01*
X90222Y114944D01*
X90335Y115011D01*
X90342Y115018D01*
X90350Y115023D01*
X90438Y115121D01*
X90528Y115217D01*
X90532Y115225D01*
X90539Y115232D01*
X90596Y115351D01*
X90656Y115468D01*
X90658Y115478D01*
X90662Y115486D01*
X90674Y115562D01*
X90708Y115745D01*
X90706Y115769D01*
X90709Y115791D01*
X90709Y144451D01*
X90708Y144460D01*
X90709Y144469D01*
X90688Y144599D01*
X90669Y144730D01*
X90666Y144738D01*
X90664Y144748D01*
X90607Y144867D01*
X90553Y144987D01*
X90547Y144994D01*
X90543Y145003D01*
X90455Y145101D01*
X90370Y145201D01*
X90362Y145206D01*
X90356Y145213D01*
X90290Y145253D01*
X90134Y145356D01*
X90111Y145363D01*
X90092Y145374D01*
X88131Y146186D01*
X85226Y149091D01*
X83654Y152886D01*
X83654Y156994D01*
X85226Y160789D01*
X88131Y163694D01*
X91926Y165266D01*
X96034Y165266D01*
X99829Y163694D01*
X102734Y160789D01*
X104306Y156994D01*
X104306Y152886D01*
X102734Y149091D01*
X99829Y146186D01*
X97868Y145374D01*
X97859Y145369D01*
X97850Y145366D01*
X97738Y145297D01*
X97625Y145230D01*
X97618Y145223D01*
X97610Y145218D01*
X97522Y145120D01*
X97432Y145024D01*
X97428Y145016D01*
X97421Y145009D01*
X97364Y144891D01*
X97304Y144773D01*
X97302Y144764D01*
X97298Y144755D01*
X97286Y144679D01*
X97252Y144496D01*
X97254Y144472D01*
X97251Y144451D01*
X97251Y115791D01*
X97252Y115781D01*
X97251Y115772D01*
X97272Y115642D01*
X97291Y115512D01*
X97294Y115503D01*
X97296Y115494D01*
X97353Y115374D01*
X97407Y115255D01*
X97413Y115247D01*
X97417Y115239D01*
X97505Y115140D01*
X97590Y115040D01*
X97598Y115035D01*
X97604Y115028D01*
X97670Y114988D01*
X97826Y114886D01*
X97849Y114879D01*
X97868Y114868D01*
X100437Y113803D01*
X103643Y110597D01*
X105379Y106407D01*
X105379Y101873D01*
X103643Y97683D01*
X100437Y94477D01*
X96247Y92741D01*
X91713Y92741D01*
G37*
%LPD*%
%LPC*%
G36*
X40913Y92741D02*
X40913Y92741D01*
X36723Y94477D01*
X33517Y97683D01*
X31781Y101873D01*
X31781Y106407D01*
X33517Y110597D01*
X36723Y113803D01*
X39292Y114868D01*
X39301Y114872D01*
X39310Y114875D01*
X39422Y114944D01*
X39535Y115011D01*
X39542Y115018D01*
X39550Y115023D01*
X39638Y115121D01*
X39728Y115217D01*
X39732Y115225D01*
X39739Y115232D01*
X39796Y115351D01*
X39856Y115468D01*
X39858Y115478D01*
X39862Y115486D01*
X39874Y115562D01*
X39908Y115745D01*
X39906Y115769D01*
X39909Y115791D01*
X39909Y144451D01*
X39908Y144460D01*
X39909Y144469D01*
X39888Y144599D01*
X39869Y144730D01*
X39866Y144738D01*
X39864Y144748D01*
X39807Y144867D01*
X39753Y144987D01*
X39747Y144994D01*
X39743Y145003D01*
X39655Y145101D01*
X39570Y145201D01*
X39562Y145206D01*
X39556Y145213D01*
X39490Y145253D01*
X39334Y145356D01*
X39311Y145363D01*
X39292Y145374D01*
X37331Y146186D01*
X34426Y149091D01*
X32854Y152886D01*
X32854Y156994D01*
X34426Y160789D01*
X37331Y163694D01*
X41126Y165266D01*
X45234Y165266D01*
X49029Y163694D01*
X51934Y160789D01*
X53506Y156994D01*
X53506Y152886D01*
X51934Y149091D01*
X49029Y146186D01*
X47068Y145374D01*
X47059Y145369D01*
X47050Y145366D01*
X46938Y145297D01*
X46825Y145230D01*
X46818Y145223D01*
X46810Y145218D01*
X46722Y145120D01*
X46632Y145024D01*
X46628Y145016D01*
X46621Y145009D01*
X46564Y144891D01*
X46504Y144773D01*
X46502Y144764D01*
X46498Y144755D01*
X46486Y144679D01*
X46452Y144496D01*
X46454Y144472D01*
X46451Y144451D01*
X46451Y115791D01*
X46452Y115781D01*
X46451Y115772D01*
X46472Y115642D01*
X46491Y115512D01*
X46494Y115503D01*
X46496Y115494D01*
X46553Y115374D01*
X46607Y115255D01*
X46613Y115247D01*
X46617Y115239D01*
X46705Y115140D01*
X46790Y115040D01*
X46798Y115035D01*
X46804Y115028D01*
X46870Y114988D01*
X47026Y114886D01*
X47049Y114879D01*
X47068Y114868D01*
X49637Y113803D01*
X52843Y110597D01*
X54579Y106407D01*
X54579Y101873D01*
X52843Y97683D01*
X49637Y94477D01*
X45447Y92741D01*
X40913Y92741D01*
G37*
%LPD*%
%LPC*%
G36*
X66313Y92741D02*
X66313Y92741D01*
X62123Y94477D01*
X58917Y97683D01*
X57181Y101873D01*
X57181Y106407D01*
X58917Y110597D01*
X62123Y113803D01*
X64692Y114868D01*
X64701Y114872D01*
X64710Y114875D01*
X64822Y114944D01*
X64935Y115011D01*
X64942Y115018D01*
X64950Y115023D01*
X65038Y115121D01*
X65128Y115217D01*
X65132Y115225D01*
X65139Y115232D01*
X65196Y115351D01*
X65256Y115468D01*
X65258Y115478D01*
X65262Y115486D01*
X65274Y115562D01*
X65308Y115745D01*
X65306Y115769D01*
X65309Y115791D01*
X65309Y144451D01*
X65308Y144460D01*
X65309Y144469D01*
X65288Y144599D01*
X65269Y144730D01*
X65266Y144738D01*
X65264Y144748D01*
X65207Y144867D01*
X65153Y144987D01*
X65147Y144994D01*
X65143Y145003D01*
X65055Y145101D01*
X64970Y145201D01*
X64962Y145206D01*
X64956Y145213D01*
X64890Y145253D01*
X64734Y145356D01*
X64711Y145363D01*
X64692Y145374D01*
X62731Y146186D01*
X59826Y149091D01*
X58254Y152886D01*
X58254Y156994D01*
X59826Y160789D01*
X62731Y163694D01*
X66526Y165266D01*
X70634Y165266D01*
X74429Y163694D01*
X77334Y160789D01*
X78906Y156994D01*
X78906Y152886D01*
X77334Y149091D01*
X74429Y146186D01*
X72468Y145374D01*
X72459Y145369D01*
X72450Y145366D01*
X72338Y145297D01*
X72225Y145230D01*
X72218Y145223D01*
X72210Y145218D01*
X72122Y145120D01*
X72032Y145024D01*
X72028Y145016D01*
X72021Y145009D01*
X71964Y144891D01*
X71904Y144773D01*
X71902Y144764D01*
X71898Y144755D01*
X71886Y144679D01*
X71852Y144496D01*
X71854Y144472D01*
X71851Y144451D01*
X71851Y115791D01*
X71852Y115781D01*
X71851Y115772D01*
X71872Y115642D01*
X71891Y115512D01*
X71894Y115503D01*
X71896Y115494D01*
X71953Y115374D01*
X72007Y115255D01*
X72013Y115247D01*
X72017Y115239D01*
X72105Y115140D01*
X72190Y115040D01*
X72198Y115035D01*
X72204Y115028D01*
X72270Y114988D01*
X72426Y114886D01*
X72449Y114879D01*
X72468Y114868D01*
X75037Y113803D01*
X78243Y110597D01*
X79979Y106407D01*
X79979Y101873D01*
X78243Y97683D01*
X75037Y94477D01*
X70847Y92741D01*
X66313Y92741D01*
G37*
%LPD*%
%LPC*%
G36*
X244113Y92741D02*
X244113Y92741D01*
X239923Y94477D01*
X236717Y97683D01*
X234981Y101873D01*
X234981Y106407D01*
X236717Y110597D01*
X239923Y113803D01*
X242492Y114868D01*
X242501Y114872D01*
X242510Y114875D01*
X242622Y114944D01*
X242735Y115011D01*
X242742Y115018D01*
X242750Y115023D01*
X242838Y115121D01*
X242928Y115217D01*
X242932Y115225D01*
X242939Y115232D01*
X242996Y115351D01*
X243056Y115468D01*
X243058Y115478D01*
X243062Y115486D01*
X243074Y115562D01*
X243108Y115745D01*
X243106Y115769D01*
X243109Y115791D01*
X243109Y144451D01*
X243108Y144460D01*
X243109Y144469D01*
X243088Y144599D01*
X243069Y144730D01*
X243066Y144738D01*
X243064Y144748D01*
X243007Y144867D01*
X242953Y144987D01*
X242947Y144994D01*
X242943Y145003D01*
X242855Y145101D01*
X242770Y145201D01*
X242762Y145206D01*
X242756Y145213D01*
X242690Y145253D01*
X242534Y145356D01*
X242511Y145363D01*
X242492Y145374D01*
X240531Y146186D01*
X237626Y149091D01*
X236054Y152886D01*
X236054Y156994D01*
X237626Y160789D01*
X240531Y163694D01*
X244326Y165266D01*
X248434Y165266D01*
X252229Y163694D01*
X255134Y160789D01*
X256706Y156994D01*
X256706Y152886D01*
X255134Y149091D01*
X252229Y146186D01*
X250268Y145374D01*
X250259Y145369D01*
X250250Y145366D01*
X250138Y145297D01*
X250025Y145230D01*
X250018Y145223D01*
X250010Y145218D01*
X249922Y145120D01*
X249832Y145024D01*
X249828Y145016D01*
X249821Y145009D01*
X249764Y144891D01*
X249704Y144773D01*
X249702Y144764D01*
X249698Y144755D01*
X249686Y144679D01*
X249652Y144496D01*
X249654Y144472D01*
X249651Y144451D01*
X249651Y115791D01*
X249652Y115781D01*
X249651Y115772D01*
X249672Y115642D01*
X249691Y115512D01*
X249694Y115503D01*
X249696Y115494D01*
X249753Y115374D01*
X249807Y115255D01*
X249813Y115247D01*
X249817Y115239D01*
X249905Y115140D01*
X249990Y115040D01*
X249998Y115035D01*
X250004Y115028D01*
X250070Y114988D01*
X250226Y114886D01*
X250249Y114879D01*
X250268Y114868D01*
X252837Y113803D01*
X256043Y110597D01*
X257779Y106407D01*
X257779Y101873D01*
X256043Y97683D01*
X252837Y94477D01*
X248647Y92741D01*
X244113Y92741D01*
G37*
%LPD*%
%LPC*%
G36*
X218713Y92741D02*
X218713Y92741D01*
X214523Y94477D01*
X211317Y97683D01*
X209581Y101873D01*
X209581Y106407D01*
X211317Y110597D01*
X214523Y113803D01*
X217092Y114868D01*
X217101Y114872D01*
X217110Y114875D01*
X217222Y114944D01*
X217335Y115011D01*
X217342Y115018D01*
X217350Y115023D01*
X217438Y115121D01*
X217528Y115217D01*
X217532Y115225D01*
X217539Y115232D01*
X217596Y115351D01*
X217656Y115468D01*
X217658Y115478D01*
X217662Y115486D01*
X217674Y115562D01*
X217708Y115745D01*
X217706Y115769D01*
X217709Y115791D01*
X217709Y144451D01*
X217708Y144460D01*
X217709Y144469D01*
X217688Y144599D01*
X217669Y144730D01*
X217666Y144738D01*
X217664Y144748D01*
X217607Y144867D01*
X217553Y144987D01*
X217547Y144994D01*
X217543Y145003D01*
X217455Y145101D01*
X217370Y145201D01*
X217362Y145206D01*
X217356Y145213D01*
X217290Y145253D01*
X217134Y145356D01*
X217111Y145363D01*
X217092Y145374D01*
X215131Y146186D01*
X212226Y149091D01*
X210654Y152886D01*
X210654Y156994D01*
X212226Y160789D01*
X215131Y163694D01*
X218926Y165266D01*
X223034Y165266D01*
X226829Y163694D01*
X229734Y160789D01*
X231306Y156994D01*
X231306Y152886D01*
X229734Y149091D01*
X226829Y146186D01*
X224868Y145374D01*
X224859Y145369D01*
X224850Y145366D01*
X224738Y145297D01*
X224625Y145230D01*
X224618Y145223D01*
X224610Y145218D01*
X224522Y145120D01*
X224432Y145024D01*
X224428Y145016D01*
X224421Y145009D01*
X224364Y144891D01*
X224304Y144773D01*
X224302Y144764D01*
X224298Y144755D01*
X224286Y144679D01*
X224252Y144496D01*
X224254Y144472D01*
X224251Y144451D01*
X224251Y115791D01*
X224252Y115781D01*
X224251Y115772D01*
X224272Y115642D01*
X224291Y115512D01*
X224294Y115503D01*
X224296Y115494D01*
X224353Y115374D01*
X224407Y115255D01*
X224413Y115247D01*
X224417Y115239D01*
X224505Y115140D01*
X224590Y115040D01*
X224598Y115035D01*
X224604Y115028D01*
X224670Y114988D01*
X224826Y114886D01*
X224849Y114879D01*
X224868Y114868D01*
X227437Y113803D01*
X230643Y110597D01*
X232379Y106407D01*
X232379Y101873D01*
X230643Y97683D01*
X227437Y94477D01*
X223247Y92741D01*
X218713Y92741D01*
G37*
%LPD*%
%LPC*%
G36*
X193313Y92741D02*
X193313Y92741D01*
X189123Y94477D01*
X185917Y97683D01*
X184181Y101873D01*
X184181Y106407D01*
X185917Y110597D01*
X189123Y113803D01*
X191692Y114868D01*
X191701Y114872D01*
X191710Y114875D01*
X191822Y114944D01*
X191935Y115011D01*
X191942Y115018D01*
X191950Y115023D01*
X192038Y115121D01*
X192128Y115217D01*
X192132Y115225D01*
X192139Y115232D01*
X192196Y115351D01*
X192256Y115468D01*
X192258Y115478D01*
X192262Y115486D01*
X192274Y115562D01*
X192308Y115745D01*
X192306Y115769D01*
X192309Y115791D01*
X192309Y144451D01*
X192308Y144460D01*
X192309Y144469D01*
X192288Y144599D01*
X192269Y144730D01*
X192266Y144738D01*
X192264Y144748D01*
X192207Y144867D01*
X192153Y144987D01*
X192147Y144994D01*
X192143Y145003D01*
X192055Y145101D01*
X191970Y145201D01*
X191962Y145206D01*
X191956Y145213D01*
X191890Y145253D01*
X191734Y145356D01*
X191711Y145363D01*
X191692Y145374D01*
X189731Y146186D01*
X186826Y149091D01*
X185254Y152886D01*
X185254Y156994D01*
X186826Y160789D01*
X189731Y163694D01*
X193526Y165266D01*
X197634Y165266D01*
X201429Y163694D01*
X204334Y160789D01*
X205906Y156994D01*
X205906Y152886D01*
X204334Y149091D01*
X201429Y146186D01*
X199468Y145374D01*
X199459Y145369D01*
X199450Y145366D01*
X199338Y145297D01*
X199225Y145230D01*
X199218Y145223D01*
X199210Y145218D01*
X199122Y145120D01*
X199032Y145024D01*
X199028Y145016D01*
X199021Y145009D01*
X198964Y144891D01*
X198904Y144773D01*
X198902Y144764D01*
X198898Y144755D01*
X198886Y144679D01*
X198852Y144496D01*
X198854Y144472D01*
X198851Y144451D01*
X198851Y115791D01*
X198852Y115781D01*
X198851Y115772D01*
X198872Y115642D01*
X198891Y115512D01*
X198894Y115503D01*
X198896Y115494D01*
X198953Y115374D01*
X199007Y115255D01*
X199013Y115247D01*
X199017Y115239D01*
X199105Y115140D01*
X199190Y115040D01*
X199198Y115035D01*
X199204Y115028D01*
X199270Y114988D01*
X199426Y114886D01*
X199449Y114879D01*
X199468Y114868D01*
X202037Y113803D01*
X205243Y110597D01*
X206979Y106407D01*
X206979Y101873D01*
X205243Y97683D01*
X202037Y94477D01*
X197847Y92741D01*
X193313Y92741D01*
G37*
%LPD*%
%LPC*%
G36*
X142513Y92741D02*
X142513Y92741D01*
X138323Y94477D01*
X135117Y97683D01*
X133381Y101873D01*
X133381Y106407D01*
X135117Y110597D01*
X138323Y113803D01*
X140892Y114868D01*
X140901Y114872D01*
X140910Y114875D01*
X141022Y114944D01*
X141135Y115011D01*
X141142Y115018D01*
X141150Y115023D01*
X141238Y115121D01*
X141328Y115217D01*
X141332Y115225D01*
X141339Y115232D01*
X141396Y115351D01*
X141456Y115468D01*
X141458Y115478D01*
X141462Y115486D01*
X141474Y115562D01*
X141508Y115745D01*
X141506Y115769D01*
X141509Y115791D01*
X141509Y144451D01*
X141508Y144460D01*
X141509Y144469D01*
X141488Y144599D01*
X141469Y144730D01*
X141466Y144738D01*
X141464Y144748D01*
X141407Y144867D01*
X141353Y144987D01*
X141347Y144994D01*
X141343Y145003D01*
X141255Y145101D01*
X141170Y145201D01*
X141162Y145206D01*
X141156Y145213D01*
X141090Y145253D01*
X140934Y145356D01*
X140911Y145363D01*
X140892Y145374D01*
X138931Y146186D01*
X136026Y149091D01*
X134454Y152886D01*
X134454Y156994D01*
X136026Y160789D01*
X138931Y163694D01*
X142726Y165266D01*
X146834Y165266D01*
X150629Y163694D01*
X153534Y160789D01*
X155106Y156994D01*
X155106Y152886D01*
X153534Y149091D01*
X150629Y146186D01*
X148668Y145374D01*
X148659Y145369D01*
X148650Y145366D01*
X148538Y145297D01*
X148425Y145230D01*
X148418Y145223D01*
X148410Y145218D01*
X148322Y145120D01*
X148232Y145024D01*
X148228Y145016D01*
X148221Y145009D01*
X148164Y144891D01*
X148104Y144773D01*
X148102Y144764D01*
X148098Y144755D01*
X148086Y144679D01*
X148052Y144496D01*
X148054Y144472D01*
X148051Y144451D01*
X148051Y115791D01*
X148052Y115781D01*
X148051Y115772D01*
X148072Y115642D01*
X148091Y115512D01*
X148094Y115503D01*
X148096Y115494D01*
X148153Y115374D01*
X148207Y115255D01*
X148213Y115247D01*
X148217Y115239D01*
X148305Y115140D01*
X148390Y115040D01*
X148398Y115035D01*
X148404Y115028D01*
X148470Y114988D01*
X148626Y114886D01*
X148649Y114879D01*
X148668Y114868D01*
X151237Y113803D01*
X154443Y110597D01*
X156179Y106407D01*
X156179Y101873D01*
X154443Y97683D01*
X151237Y94477D01*
X147047Y92741D01*
X142513Y92741D01*
G37*
%LPD*%
%LPC*%
G36*
X117113Y92741D02*
X117113Y92741D01*
X112923Y94477D01*
X109717Y97683D01*
X107981Y101873D01*
X107981Y106407D01*
X109717Y110597D01*
X112923Y113803D01*
X115492Y114868D01*
X115501Y114872D01*
X115510Y114875D01*
X115622Y114944D01*
X115735Y115011D01*
X115742Y115018D01*
X115750Y115023D01*
X115838Y115121D01*
X115928Y115217D01*
X115932Y115225D01*
X115939Y115232D01*
X115996Y115351D01*
X116056Y115468D01*
X116058Y115478D01*
X116062Y115486D01*
X116074Y115562D01*
X116108Y115745D01*
X116106Y115769D01*
X116109Y115791D01*
X116109Y144451D01*
X116108Y144460D01*
X116109Y144469D01*
X116088Y144599D01*
X116069Y144730D01*
X116066Y144738D01*
X116064Y144748D01*
X116007Y144867D01*
X115953Y144987D01*
X115947Y144994D01*
X115943Y145003D01*
X115855Y145101D01*
X115770Y145201D01*
X115762Y145206D01*
X115756Y145213D01*
X115690Y145253D01*
X115534Y145356D01*
X115511Y145363D01*
X115492Y145374D01*
X113531Y146186D01*
X110626Y149091D01*
X109054Y152886D01*
X109054Y156994D01*
X110626Y160789D01*
X113531Y163694D01*
X117326Y165266D01*
X121434Y165266D01*
X125229Y163694D01*
X128134Y160789D01*
X129706Y156994D01*
X129706Y152886D01*
X128134Y149091D01*
X125229Y146186D01*
X123268Y145374D01*
X123259Y145369D01*
X123250Y145366D01*
X123138Y145297D01*
X123025Y145230D01*
X123018Y145223D01*
X123010Y145218D01*
X122922Y145120D01*
X122832Y145024D01*
X122828Y145016D01*
X122821Y145009D01*
X122764Y144891D01*
X122704Y144773D01*
X122702Y144764D01*
X122698Y144755D01*
X122686Y144679D01*
X122652Y144496D01*
X122654Y144472D01*
X122651Y144451D01*
X122651Y115791D01*
X122652Y115781D01*
X122651Y115772D01*
X122672Y115642D01*
X122691Y115512D01*
X122694Y115503D01*
X122696Y115494D01*
X122753Y115374D01*
X122807Y115255D01*
X122813Y115247D01*
X122817Y115239D01*
X122905Y115140D01*
X122990Y115040D01*
X122998Y115035D01*
X123004Y115028D01*
X123070Y114988D01*
X123226Y114886D01*
X123249Y114879D01*
X123268Y114868D01*
X125837Y113803D01*
X129043Y110597D01*
X130779Y106407D01*
X130779Y101873D01*
X129043Y97683D01*
X125837Y94477D01*
X121647Y92741D01*
X117113Y92741D01*
G37*
%LPD*%
G36*
X341589Y91907D02*
X341589Y91907D01*
X341636Y91905D01*
X341728Y91927D01*
X341821Y91941D01*
X341864Y91960D01*
X341911Y91971D01*
X341992Y92018D01*
X342078Y92057D01*
X342114Y92088D01*
X342155Y92112D01*
X342221Y92179D01*
X342292Y92240D01*
X342318Y92280D01*
X342351Y92314D01*
X342395Y92397D01*
X342446Y92476D01*
X342460Y92522D01*
X342483Y92564D01*
X342501Y92656D01*
X342529Y92746D01*
X342529Y92794D01*
X342539Y92840D01*
X342531Y92934D01*
X342532Y93028D01*
X342520Y93074D01*
X342516Y93121D01*
X342482Y93209D01*
X342457Y93300D01*
X342432Y93340D01*
X342415Y93385D01*
X342358Y93460D01*
X342309Y93540D01*
X342274Y93572D01*
X342245Y93610D01*
X342178Y93658D01*
X342100Y93729D01*
X342041Y93757D01*
X341995Y93790D01*
X341723Y93929D01*
X340202Y95034D01*
X338874Y96362D01*
X337769Y97883D01*
X336916Y99557D01*
X336335Y101344D01*
X336209Y102141D01*
X346980Y102141D01*
X347043Y102150D01*
X347108Y102149D01*
X347182Y102170D01*
X347259Y102181D01*
X347318Y102207D01*
X347380Y102224D01*
X347446Y102265D01*
X347516Y102297D01*
X347565Y102339D01*
X347620Y102372D01*
X347671Y102430D01*
X347730Y102480D01*
X347766Y102534D01*
X347809Y102582D01*
X347842Y102651D01*
X347885Y102716D01*
X347904Y102778D01*
X347932Y102835D01*
X347942Y102905D01*
X347967Y102986D01*
X347968Y103071D01*
X347979Y103140D01*
X347979Y104141D01*
X348980Y104141D01*
X349044Y104150D01*
X349108Y104149D01*
X349183Y104170D01*
X349259Y104181D01*
X349318Y104207D01*
X349380Y104224D01*
X349446Y104265D01*
X349516Y104297D01*
X349565Y104339D01*
X349620Y104372D01*
X349672Y104430D01*
X349730Y104480D01*
X349766Y104534D01*
X349809Y104582D01*
X349842Y104651D01*
X349885Y104716D01*
X349904Y104778D01*
X349932Y104836D01*
X349942Y104905D01*
X349967Y104986D01*
X349968Y105071D01*
X349979Y105140D01*
X349979Y115911D01*
X350776Y115785D01*
X352563Y115204D01*
X354237Y114351D01*
X355758Y113246D01*
X355973Y113031D01*
X355999Y113011D01*
X356020Y112987D01*
X356112Y112927D01*
X356199Y112861D01*
X356229Y112850D01*
X356256Y112832D01*
X356360Y112800D01*
X356463Y112762D01*
X356495Y112759D01*
X356526Y112750D01*
X356635Y112748D01*
X356744Y112740D01*
X356776Y112746D01*
X356808Y112746D01*
X356913Y112775D01*
X357020Y112797D01*
X357049Y112813D01*
X357080Y112821D01*
X357173Y112879D01*
X357269Y112930D01*
X357292Y112952D01*
X357320Y112969D01*
X357393Y113050D01*
X357471Y113127D01*
X357487Y113155D01*
X357509Y113179D01*
X357556Y113277D01*
X357610Y113372D01*
X357618Y113403D01*
X357632Y113432D01*
X357646Y113522D01*
X357675Y113646D01*
X357673Y113695D01*
X357679Y113737D01*
X357679Y120243D01*
X359730Y122293D01*
X362080Y124643D01*
X362099Y124669D01*
X362124Y124690D01*
X362184Y124782D01*
X362249Y124869D01*
X362260Y124899D01*
X362278Y124926D01*
X362310Y125031D01*
X362349Y125133D01*
X362351Y125165D01*
X362360Y125196D01*
X362362Y125305D01*
X362370Y125414D01*
X362364Y125446D01*
X362364Y125478D01*
X362335Y125583D01*
X362313Y125690D01*
X362298Y125719D01*
X362289Y125750D01*
X362232Y125843D01*
X362180Y125939D01*
X362158Y125962D01*
X362141Y125990D01*
X362060Y126063D01*
X361984Y126141D01*
X361956Y126157D01*
X361932Y126179D01*
X361833Y126226D01*
X361738Y126280D01*
X361707Y126288D01*
X361678Y126302D01*
X361589Y126316D01*
X361464Y126345D01*
X361415Y126343D01*
X361373Y126349D01*
X341847Y126349D01*
X333549Y134647D01*
X333549Y149416D01*
X333537Y149502D01*
X333534Y149589D01*
X333517Y149641D01*
X333509Y149695D01*
X333474Y149774D01*
X333447Y149857D01*
X333416Y149902D01*
X333393Y149952D01*
X333337Y150018D01*
X333288Y150090D01*
X333245Y150125D01*
X333210Y150167D01*
X333137Y150214D01*
X333070Y150269D01*
X333020Y150291D01*
X332974Y150321D01*
X332891Y150346D01*
X332811Y150381D01*
X332757Y150387D01*
X332704Y150403D01*
X332617Y150405D01*
X332531Y150415D01*
X332477Y150406D01*
X332422Y150407D01*
X332338Y150384D01*
X332253Y150370D01*
X332203Y150347D01*
X332150Y150332D01*
X332076Y150286D01*
X331998Y150249D01*
X331957Y150213D01*
X331910Y150184D01*
X331852Y150119D01*
X331787Y150062D01*
X331761Y150018D01*
X331721Y149975D01*
X331672Y149872D01*
X331627Y149799D01*
X331334Y149091D01*
X328429Y146186D01*
X326468Y145374D01*
X326459Y145369D01*
X326450Y145366D01*
X326338Y145297D01*
X326225Y145230D01*
X326218Y145223D01*
X326210Y145218D01*
X326122Y145120D01*
X326032Y145024D01*
X326028Y145016D01*
X326021Y145009D01*
X325964Y144891D01*
X325904Y144773D01*
X325902Y144764D01*
X325898Y144755D01*
X325886Y144679D01*
X325852Y144496D01*
X325854Y144472D01*
X325851Y144451D01*
X325851Y115791D01*
X325852Y115781D01*
X325851Y115772D01*
X325872Y115642D01*
X325891Y115512D01*
X325894Y115503D01*
X325896Y115494D01*
X325953Y115374D01*
X326007Y115255D01*
X326013Y115247D01*
X326017Y115239D01*
X326105Y115140D01*
X326190Y115040D01*
X326198Y115035D01*
X326204Y115028D01*
X326270Y114988D01*
X326426Y114886D01*
X326449Y114879D01*
X326468Y114868D01*
X329037Y113803D01*
X332243Y110597D01*
X333979Y106407D01*
X333979Y101873D01*
X332243Y97683D01*
X329037Y94477D01*
X327459Y93823D01*
X327385Y93779D01*
X327305Y93743D01*
X327264Y93708D01*
X327217Y93680D01*
X327157Y93616D01*
X327091Y93560D01*
X327061Y93514D01*
X327024Y93474D01*
X326984Y93397D01*
X326937Y93324D01*
X326921Y93271D01*
X326896Y93222D01*
X326880Y93137D01*
X326854Y93054D01*
X326854Y92999D01*
X326843Y92945D01*
X326852Y92859D01*
X326851Y92772D01*
X326865Y92719D01*
X326871Y92665D01*
X326903Y92584D01*
X326926Y92500D01*
X326955Y92454D01*
X326975Y92403D01*
X327028Y92334D01*
X327074Y92260D01*
X327115Y92224D01*
X327148Y92180D01*
X327219Y92129D01*
X327283Y92071D01*
X327333Y92047D01*
X327377Y92015D01*
X327459Y91986D01*
X327537Y91948D01*
X327587Y91940D01*
X327643Y91921D01*
X327756Y91914D01*
X327842Y91901D01*
X341541Y91901D01*
X341589Y91907D01*
G37*
%LPC*%
G36*
X617947Y378199D02*
X617947Y378199D01*
X612249Y380559D01*
X607889Y384919D01*
X605529Y390617D01*
X605529Y396783D01*
X607889Y402481D01*
X612249Y406841D01*
X617947Y409201D01*
X624113Y409201D01*
X629811Y406841D01*
X634171Y402481D01*
X636531Y396783D01*
X636531Y390617D01*
X634171Y384919D01*
X629811Y380559D01*
X624113Y378199D01*
X617947Y378199D01*
G37*
%LPD*%
%LPC*%
G36*
X616677Y155949D02*
X616677Y155949D01*
X610979Y158309D01*
X606619Y162669D01*
X604259Y168367D01*
X604259Y174533D01*
X606619Y180231D01*
X610979Y184591D01*
X616677Y186951D01*
X622843Y186951D01*
X628541Y184591D01*
X632901Y180231D01*
X635261Y174533D01*
X635261Y168367D01*
X632901Y162669D01*
X628541Y158309D01*
X622843Y155949D01*
X616677Y155949D01*
G37*
%LPD*%
%LPC*%
G36*
X447313Y92741D02*
X447313Y92741D01*
X443123Y94477D01*
X439917Y97683D01*
X438181Y101873D01*
X438181Y106407D01*
X439917Y110597D01*
X443123Y113803D01*
X447313Y115539D01*
X451847Y115539D01*
X456037Y113803D01*
X459243Y110597D01*
X460979Y106407D01*
X460979Y101873D01*
X459243Y97683D01*
X456037Y94477D01*
X451847Y92741D01*
X447313Y92741D01*
G37*
%LPD*%
%LPC*%
G36*
X25673Y232441D02*
X25673Y232441D01*
X21483Y234177D01*
X18277Y237383D01*
X16541Y241573D01*
X16541Y246107D01*
X18277Y250297D01*
X21483Y253503D01*
X25673Y255239D01*
X30207Y255239D01*
X34397Y253503D01*
X37603Y250297D01*
X39339Y246107D01*
X39339Y241573D01*
X37603Y237383D01*
X34397Y234177D01*
X30207Y232441D01*
X25673Y232441D01*
G37*
%LPD*%
%LPC*%
G36*
X396513Y92741D02*
X396513Y92741D01*
X392323Y94477D01*
X389117Y97683D01*
X387381Y101873D01*
X387381Y106407D01*
X389117Y110597D01*
X392323Y113803D01*
X396513Y115539D01*
X401047Y115539D01*
X405237Y113803D01*
X408443Y110597D01*
X410179Y106407D01*
X410179Y101873D01*
X408443Y97683D01*
X405237Y94477D01*
X401047Y92741D01*
X396513Y92741D01*
G37*
%LPD*%
%LPC*%
G36*
X421913Y92741D02*
X421913Y92741D01*
X417723Y94477D01*
X414517Y97683D01*
X412781Y101873D01*
X412781Y106407D01*
X414517Y110597D01*
X417723Y113803D01*
X421913Y115539D01*
X426447Y115539D01*
X430637Y113803D01*
X433843Y110597D01*
X435579Y106407D01*
X435579Y101873D01*
X433843Y97683D01*
X430637Y94477D01*
X426447Y92741D01*
X421913Y92741D01*
G37*
%LPD*%
%LPC*%
G36*
X25673Y257841D02*
X25673Y257841D01*
X21483Y259577D01*
X18277Y262783D01*
X16541Y266973D01*
X16541Y271507D01*
X18277Y275697D01*
X21483Y278903D01*
X25673Y280639D01*
X30207Y280639D01*
X34397Y278903D01*
X37603Y275697D01*
X39339Y271507D01*
X39339Y266973D01*
X37603Y262783D01*
X34397Y259577D01*
X30207Y257841D01*
X25673Y257841D01*
G37*
%LPD*%
%LPC*%
G36*
X472713Y92741D02*
X472713Y92741D01*
X468523Y94477D01*
X465317Y97683D01*
X463581Y101873D01*
X463581Y106407D01*
X465317Y110597D01*
X468523Y113803D01*
X472713Y115539D01*
X477247Y115539D01*
X481437Y113803D01*
X484643Y110597D01*
X486379Y106407D01*
X486379Y101873D01*
X484643Y97683D01*
X481437Y94477D01*
X477247Y92741D01*
X472713Y92741D01*
G37*
%LPD*%
%LPC*%
G36*
X399561Y250475D02*
X399561Y250475D01*
X395371Y252211D01*
X392165Y255417D01*
X390429Y259607D01*
X390429Y264141D01*
X392165Y268331D01*
X395371Y271537D01*
X399561Y273273D01*
X404095Y273273D01*
X408285Y271537D01*
X411491Y268331D01*
X413227Y264141D01*
X413227Y259607D01*
X411491Y255417D01*
X408285Y252211D01*
X404095Y250475D01*
X399561Y250475D01*
G37*
%LPD*%
%LPC*%
G36*
X399561Y295687D02*
X399561Y295687D01*
X395371Y297423D01*
X392165Y300629D01*
X390429Y304819D01*
X390429Y309353D01*
X392165Y313543D01*
X395371Y316749D01*
X399561Y318485D01*
X404095Y318485D01*
X408285Y316749D01*
X411491Y313543D01*
X413227Y309353D01*
X413227Y304819D01*
X411491Y300629D01*
X408285Y297423D01*
X404095Y295687D01*
X399561Y295687D01*
G37*
%LPD*%
%LPC*%
G36*
X472926Y144614D02*
X472926Y144614D01*
X469131Y146186D01*
X466226Y149091D01*
X464654Y152886D01*
X464654Y156994D01*
X466226Y160789D01*
X469131Y163694D01*
X472926Y165266D01*
X477034Y165266D01*
X480829Y163694D01*
X483734Y160789D01*
X485306Y156994D01*
X485306Y152886D01*
X483734Y149091D01*
X480829Y146186D01*
X477034Y144614D01*
X472926Y144614D01*
G37*
%LPD*%
%LPC*%
G36*
X422126Y144614D02*
X422126Y144614D01*
X418331Y146186D01*
X415426Y149091D01*
X413854Y152886D01*
X413854Y156994D01*
X415426Y160789D01*
X418331Y163694D01*
X422126Y165266D01*
X426234Y165266D01*
X430029Y163694D01*
X432934Y160789D01*
X434506Y156994D01*
X434506Y152886D01*
X432934Y149091D01*
X430029Y146186D01*
X426234Y144614D01*
X422126Y144614D01*
G37*
%LPD*%
%LPC*%
G36*
X396726Y144614D02*
X396726Y144614D01*
X392931Y146186D01*
X390026Y149091D01*
X388454Y152886D01*
X388454Y156994D01*
X390026Y160789D01*
X392931Y163694D01*
X396726Y165266D01*
X400834Y165266D01*
X404629Y163694D01*
X407534Y160789D01*
X409106Y156994D01*
X409106Y152886D01*
X407534Y149091D01*
X404629Y146186D01*
X400834Y144614D01*
X396726Y144614D01*
G37*
%LPD*%
G36*
X363945Y132355D02*
X363945Y132355D01*
X363977Y132353D01*
X364084Y132375D01*
X364192Y132391D01*
X364222Y132404D01*
X364253Y132410D01*
X364350Y132462D01*
X364449Y132507D01*
X364474Y132528D01*
X364502Y132543D01*
X364581Y132619D01*
X364664Y132690D01*
X364681Y132717D01*
X364704Y132740D01*
X364758Y132835D01*
X364818Y132926D01*
X364828Y132957D01*
X364843Y132985D01*
X364869Y133092D01*
X364900Y133196D01*
X364901Y133228D01*
X364908Y133259D01*
X364903Y133369D01*
X364904Y133478D01*
X364896Y133509D01*
X364894Y133541D01*
X364858Y133644D01*
X364829Y133750D01*
X364812Y133777D01*
X364802Y133808D01*
X364748Y133881D01*
X364681Y133990D01*
X364645Y134022D01*
X364620Y134057D01*
X357679Y140997D01*
X357679Y146860D01*
X357675Y146892D01*
X357677Y146925D01*
X357655Y147031D01*
X357639Y147140D01*
X357626Y147169D01*
X357620Y147201D01*
X357568Y147297D01*
X357523Y147397D01*
X357502Y147421D01*
X357487Y147450D01*
X357411Y147528D01*
X357340Y147611D01*
X357313Y147629D01*
X357290Y147652D01*
X357195Y147705D01*
X357104Y147765D01*
X357073Y147775D01*
X357045Y147791D01*
X356939Y147816D01*
X356834Y147848D01*
X356802Y147848D01*
X356771Y147856D01*
X356661Y147850D01*
X356552Y147851D01*
X356521Y147843D01*
X356489Y147841D01*
X356386Y147805D01*
X356280Y147776D01*
X356253Y147759D01*
X356222Y147749D01*
X356149Y147695D01*
X356040Y147628D01*
X356008Y147592D01*
X355973Y147567D01*
X355059Y146652D01*
X353675Y145647D01*
X352151Y144870D01*
X350524Y144342D01*
X349979Y144255D01*
X349979Y153940D01*
X349971Y153999D01*
X349971Y154016D01*
X349970Y154018D01*
X349971Y154068D01*
X349950Y154142D01*
X349939Y154219D01*
X349913Y154278D01*
X349896Y154340D01*
X349855Y154406D01*
X349823Y154476D01*
X349781Y154525D01*
X349748Y154580D01*
X349690Y154631D01*
X349640Y154690D01*
X349586Y154726D01*
X349538Y154769D01*
X349469Y154802D01*
X349404Y154845D01*
X349342Y154864D01*
X349285Y154892D01*
X349215Y154902D01*
X349134Y154927D01*
X349049Y154928D01*
X348980Y154939D01*
X346980Y154939D01*
X346916Y154930D01*
X346852Y154931D01*
X346777Y154910D01*
X346701Y154899D01*
X346642Y154873D01*
X346580Y154856D01*
X346514Y154815D01*
X346444Y154783D01*
X346395Y154741D01*
X346340Y154708D01*
X346288Y154650D01*
X346230Y154600D01*
X346194Y154546D01*
X346151Y154498D01*
X346118Y154429D01*
X346075Y154364D01*
X346056Y154302D01*
X346028Y154244D01*
X346017Y154175D01*
X345993Y154094D01*
X345992Y154009D01*
X345981Y153940D01*
X345981Y144255D01*
X345436Y144342D01*
X343809Y144870D01*
X342285Y145647D01*
X341137Y146481D01*
X341053Y146525D01*
X340974Y146577D01*
X340929Y146591D01*
X340888Y146613D01*
X340795Y146632D01*
X340704Y146660D01*
X340658Y146660D01*
X340612Y146670D01*
X340517Y146662D01*
X340422Y146663D01*
X340377Y146651D01*
X340331Y146647D01*
X340242Y146614D01*
X340150Y146588D01*
X340111Y146564D01*
X340067Y146547D01*
X339991Y146490D01*
X339910Y146440D01*
X339879Y146405D01*
X339842Y146377D01*
X339785Y146301D01*
X339721Y146231D01*
X339701Y146189D01*
X339673Y146151D01*
X339640Y146062D01*
X339598Y145977D01*
X339592Y145934D01*
X339574Y145887D01*
X339565Y145761D01*
X339551Y145672D01*
X339551Y137547D01*
X339564Y137452D01*
X339569Y137356D01*
X339584Y137313D01*
X339591Y137268D01*
X339630Y137180D01*
X339662Y137089D01*
X339687Y137055D01*
X339707Y137011D01*
X339790Y136913D01*
X339843Y136840D01*
X344040Y132643D01*
X344117Y132586D01*
X344188Y132521D01*
X344229Y132501D01*
X344266Y132474D01*
X344356Y132440D01*
X344442Y132398D01*
X344484Y132392D01*
X344530Y132375D01*
X344657Y132365D01*
X344747Y132351D01*
X363913Y132351D01*
X363945Y132355D01*
G37*
%LPC*%
G36*
X615322Y286369D02*
X615322Y286369D01*
X611816Y287822D01*
X609132Y290506D01*
X607679Y294012D01*
X607679Y297808D01*
X609132Y301314D01*
X611816Y303998D01*
X615322Y305451D01*
X619118Y305451D01*
X622624Y303998D01*
X625308Y301314D01*
X626761Y297808D01*
X626761Y294012D01*
X625308Y290506D01*
X622624Y287822D01*
X619118Y286369D01*
X615322Y286369D01*
G37*
%LPD*%
%LPC*%
G36*
X832492Y122539D02*
X832492Y122539D01*
X828986Y123992D01*
X826302Y126676D01*
X824849Y130182D01*
X824849Y133978D01*
X826302Y137484D01*
X828986Y140168D01*
X832492Y141621D01*
X836288Y141621D01*
X839794Y140168D01*
X842478Y137484D01*
X843931Y133978D01*
X843931Y130182D01*
X842478Y126676D01*
X839794Y123992D01*
X836288Y122539D01*
X832492Y122539D01*
G37*
%LPD*%
%LPC*%
G36*
X883292Y122539D02*
X883292Y122539D01*
X879786Y123992D01*
X877102Y126676D01*
X875649Y130182D01*
X875649Y133978D01*
X877102Y137484D01*
X879786Y140168D01*
X883292Y141621D01*
X887088Y141621D01*
X890594Y140168D01*
X893278Y137484D01*
X894731Y133978D01*
X894731Y130182D01*
X893278Y126676D01*
X890594Y123992D01*
X887088Y122539D01*
X883292Y122539D01*
G37*
%LPD*%
%LPC*%
G36*
X629292Y427339D02*
X629292Y427339D01*
X625786Y428792D01*
X623102Y431476D01*
X621649Y434982D01*
X621649Y438778D01*
X623102Y442284D01*
X625786Y444968D01*
X629292Y446421D01*
X633088Y446421D01*
X636594Y444968D01*
X639278Y442284D01*
X640731Y438778D01*
X640731Y434982D01*
X639278Y431476D01*
X636594Y428792D01*
X633088Y427339D01*
X629292Y427339D01*
G37*
%LPD*%
%LPC*%
G36*
X807092Y427339D02*
X807092Y427339D01*
X803586Y428792D01*
X800902Y431476D01*
X799449Y434982D01*
X799449Y438778D01*
X800902Y442284D01*
X803586Y444968D01*
X807092Y446421D01*
X810888Y446421D01*
X814394Y444968D01*
X817078Y442284D01*
X818531Y438778D01*
X818531Y434982D01*
X817078Y431476D01*
X814394Y428792D01*
X810888Y427339D01*
X807092Y427339D01*
G37*
%LPD*%
%LPC*%
G36*
X832492Y427339D02*
X832492Y427339D01*
X828986Y428792D01*
X826302Y431476D01*
X824849Y434982D01*
X824849Y438778D01*
X826302Y442284D01*
X828986Y444968D01*
X832492Y446421D01*
X836288Y446421D01*
X839794Y444968D01*
X842478Y442284D01*
X843931Y438778D01*
X843931Y434982D01*
X842478Y431476D01*
X839794Y428792D01*
X836288Y427339D01*
X832492Y427339D01*
G37*
%LPD*%
%LPC*%
G36*
X615322Y311769D02*
X615322Y311769D01*
X611816Y313222D01*
X609132Y315906D01*
X607679Y319412D01*
X607679Y323208D01*
X609132Y326714D01*
X611816Y329398D01*
X615322Y330851D01*
X619118Y330851D01*
X622624Y329398D01*
X625308Y326714D01*
X626761Y323208D01*
X626761Y319412D01*
X625308Y315906D01*
X622624Y313222D01*
X619118Y311769D01*
X615322Y311769D01*
G37*
%LPD*%
%LPC*%
G36*
X615322Y260969D02*
X615322Y260969D01*
X611816Y262422D01*
X609132Y265106D01*
X607679Y268612D01*
X607679Y272408D01*
X609132Y275914D01*
X611816Y278598D01*
X615322Y280051D01*
X619118Y280051D01*
X622624Y278598D01*
X625308Y275914D01*
X626761Y272408D01*
X626761Y268612D01*
X625308Y265106D01*
X622624Y262422D01*
X619118Y260969D01*
X615322Y260969D01*
G37*
%LPD*%
%LPC*%
G36*
X807092Y122539D02*
X807092Y122539D01*
X803586Y123992D01*
X800902Y126676D01*
X799449Y130182D01*
X799449Y133978D01*
X800902Y137484D01*
X803586Y140168D01*
X807092Y141621D01*
X810888Y141621D01*
X814394Y140168D01*
X817078Y137484D01*
X818531Y133978D01*
X818531Y130182D01*
X817078Y126676D01*
X814394Y123992D01*
X810888Y122539D01*
X807092Y122539D01*
G37*
%LPD*%
%LPC*%
G36*
X666130Y296569D02*
X666130Y296569D01*
X662638Y298016D01*
X659966Y300688D01*
X658519Y304180D01*
X658519Y307960D01*
X659966Y311452D01*
X662638Y314124D01*
X666130Y315571D01*
X669910Y315571D01*
X673402Y314124D01*
X676074Y311452D01*
X677521Y307960D01*
X677521Y304180D01*
X676074Y300688D01*
X673402Y298016D01*
X669910Y296569D01*
X666130Y296569D01*
G37*
%LPD*%
%LPC*%
G36*
X235600Y248309D02*
X235600Y248309D01*
X232108Y249756D01*
X229436Y252428D01*
X227989Y255920D01*
X227989Y259700D01*
X229436Y263192D01*
X232108Y265864D01*
X235600Y267311D01*
X239380Y267311D01*
X242872Y265864D01*
X245544Y263192D01*
X246991Y259700D01*
X246991Y255920D01*
X245544Y252428D01*
X242872Y249756D01*
X239380Y248309D01*
X235600Y248309D01*
G37*
%LPD*%
%LPC*%
G36*
X705892Y318857D02*
X705892Y318857D01*
X703123Y320004D01*
X701004Y322123D01*
X699857Y324892D01*
X699857Y327888D01*
X701004Y330657D01*
X703123Y332776D01*
X705892Y333923D01*
X708888Y333923D01*
X711657Y332776D01*
X713776Y330657D01*
X714923Y327888D01*
X714923Y324892D01*
X713776Y322123D01*
X711657Y320004D01*
X708888Y318857D01*
X705892Y318857D01*
G37*
%LPD*%
%LPC*%
G36*
X468851Y263873D02*
X468851Y263873D01*
X468851Y273645D01*
X469648Y273519D01*
X471435Y272938D01*
X473109Y272085D01*
X474630Y270980D01*
X475958Y269652D01*
X477063Y268131D01*
X477916Y266457D01*
X478497Y264670D01*
X478623Y263873D01*
X468851Y263873D01*
G37*
%LPD*%
%LPC*%
G36*
X502379Y106139D02*
X502379Y106139D01*
X502379Y115911D01*
X503176Y115785D01*
X504963Y115204D01*
X506637Y114351D01*
X508158Y113246D01*
X509486Y111918D01*
X510591Y110397D01*
X511444Y108723D01*
X512025Y106936D01*
X512151Y106139D01*
X502379Y106139D01*
G37*
%LPD*%
%LPC*%
G36*
X172179Y457741D02*
X172179Y457741D01*
X181951Y457741D01*
X181825Y456944D01*
X181244Y455157D01*
X180391Y453483D01*
X179286Y451962D01*
X177958Y450634D01*
X176437Y449529D01*
X174763Y448676D01*
X172976Y448095D01*
X172179Y447969D01*
X172179Y457741D01*
G37*
%LPD*%
%LPC*%
G36*
X455081Y263873D02*
X455081Y263873D01*
X455207Y264670D01*
X455788Y266457D01*
X456641Y268131D01*
X457746Y269652D01*
X459074Y270980D01*
X460595Y272085D01*
X462269Y272938D01*
X464056Y273519D01*
X464853Y273645D01*
X464853Y263873D01*
X455081Y263873D01*
G37*
%LPD*%
%LPC*%
G36*
X468851Y259875D02*
X468851Y259875D01*
X478623Y259875D01*
X478497Y259078D01*
X477916Y257291D01*
X477063Y255617D01*
X475958Y254096D01*
X474630Y252768D01*
X473109Y251663D01*
X471435Y250810D01*
X469648Y250229D01*
X468851Y250103D01*
X468851Y259875D01*
G37*
%LPD*%
%LPC*%
G36*
X502379Y102141D02*
X502379Y102141D01*
X512151Y102141D01*
X512025Y101344D01*
X511444Y99557D01*
X510591Y97883D01*
X509486Y96362D01*
X508158Y95034D01*
X506637Y93929D01*
X504963Y93076D01*
X503176Y92495D01*
X502379Y92369D01*
X502379Y102141D01*
G37*
%LPD*%
%LPC*%
G36*
X488609Y106139D02*
X488609Y106139D01*
X488709Y106769D01*
X488735Y106936D01*
X489316Y108723D01*
X490169Y110397D01*
X491274Y111918D01*
X492602Y113246D01*
X494123Y114351D01*
X495797Y115204D01*
X497584Y115785D01*
X498381Y115911D01*
X498381Y106139D01*
X488609Y106139D01*
G37*
%LPD*%
%LPC*%
G36*
X336209Y106139D02*
X336209Y106139D01*
X336309Y106769D01*
X336335Y106936D01*
X336916Y108723D01*
X337769Y110397D01*
X338874Y111918D01*
X340202Y113246D01*
X341723Y114351D01*
X343397Y115204D01*
X345184Y115785D01*
X345981Y115911D01*
X345981Y106139D01*
X336209Y106139D01*
G37*
%LPD*%
%LPC*%
G36*
X464056Y250229D02*
X464056Y250229D01*
X462269Y250810D01*
X460595Y251663D01*
X459074Y252768D01*
X457746Y254096D01*
X456641Y255617D01*
X455788Y257291D01*
X455207Y259078D01*
X455081Y259875D01*
X464853Y259875D01*
X464853Y250103D01*
X464056Y250229D01*
G37*
%LPD*%
%LPC*%
G36*
X497584Y92495D02*
X497584Y92495D01*
X495797Y93076D01*
X494123Y93929D01*
X492602Y95034D01*
X491274Y96362D01*
X490169Y97883D01*
X489316Y99557D01*
X488735Y101344D01*
X488609Y102141D01*
X498381Y102141D01*
X498381Y92369D01*
X497584Y92495D01*
G37*
%LPD*%
%LPC*%
G36*
X167384Y448095D02*
X167384Y448095D01*
X165597Y448676D01*
X163923Y449529D01*
X162402Y450634D01*
X161074Y451962D01*
X159969Y453483D01*
X159116Y455157D01*
X158535Y456944D01*
X158409Y457741D01*
X168181Y457741D01*
X168181Y447969D01*
X167384Y448095D01*
G37*
%LPD*%
%LPC*%
G36*
X502379Y156939D02*
X502379Y156939D01*
X502379Y165625D01*
X502924Y165538D01*
X504551Y165010D01*
X506075Y164233D01*
X507459Y163228D01*
X508668Y162019D01*
X509673Y160635D01*
X510450Y159111D01*
X510978Y157484D01*
X511065Y156939D01*
X502379Y156939D01*
G37*
%LPD*%
%LPC*%
G36*
X172179Y410939D02*
X172179Y410939D01*
X172179Y419625D01*
X172724Y419538D01*
X174351Y419010D01*
X175875Y418233D01*
X177259Y417228D01*
X178468Y416019D01*
X179473Y414635D01*
X180250Y413111D01*
X180778Y411484D01*
X180865Y410939D01*
X172179Y410939D01*
G37*
%LPD*%
%LPC*%
G36*
X489695Y156939D02*
X489695Y156939D01*
X489782Y157484D01*
X490310Y159111D01*
X491087Y160635D01*
X492092Y162019D01*
X493301Y163228D01*
X494685Y164233D01*
X496209Y165010D01*
X497836Y165538D01*
X498381Y165625D01*
X498381Y156939D01*
X489695Y156939D01*
G37*
%LPD*%
%LPC*%
G36*
X502379Y152941D02*
X502379Y152941D01*
X511065Y152941D01*
X510978Y152396D01*
X510450Y150769D01*
X509673Y149245D01*
X508668Y147861D01*
X507459Y146652D01*
X506075Y145647D01*
X504551Y144870D01*
X502924Y144342D01*
X502379Y144255D01*
X502379Y152941D01*
G37*
%LPD*%
%LPC*%
G36*
X159495Y410939D02*
X159495Y410939D01*
X159582Y411484D01*
X160110Y413111D01*
X160887Y414635D01*
X161892Y416019D01*
X163101Y417228D01*
X164485Y418233D01*
X166009Y419010D01*
X167636Y419538D01*
X168181Y419625D01*
X168181Y410939D01*
X159495Y410939D01*
G37*
%LPD*%
%LPC*%
G36*
X172179Y406941D02*
X172179Y406941D01*
X180865Y406941D01*
X180851Y406853D01*
X180851Y406852D01*
X180778Y406396D01*
X180250Y404769D01*
X179473Y403245D01*
X178468Y401861D01*
X177259Y400652D01*
X175875Y399647D01*
X174351Y398870D01*
X172724Y398342D01*
X172179Y398255D01*
X172179Y406941D01*
G37*
%LPD*%
%LPC*%
G36*
X167636Y398342D02*
X167636Y398342D01*
X166009Y398870D01*
X164485Y399647D01*
X163101Y400652D01*
X161892Y401861D01*
X160887Y403245D01*
X160110Y404769D01*
X159582Y406396D01*
X159495Y406941D01*
X168181Y406941D01*
X168181Y398255D01*
X167636Y398342D01*
G37*
%LPD*%
%LPC*%
G36*
X497836Y144342D02*
X497836Y144342D01*
X496209Y144870D01*
X494685Y145647D01*
X493301Y146652D01*
X492092Y147861D01*
X491087Y149245D01*
X490310Y150769D01*
X489782Y152396D01*
X489695Y152941D01*
X498381Y152941D01*
X498381Y144255D01*
X497836Y144342D01*
G37*
%LPD*%
%LPC*%
G36*
X254507Y202659D02*
X254507Y202659D01*
X254507Y208996D01*
X254680Y209642D01*
X255015Y210221D01*
X255488Y210694D01*
X256067Y211029D01*
X256713Y211202D01*
X260891Y211202D01*
X260891Y202659D01*
X254507Y202659D01*
G37*
%LPD*%
%LPC*%
G36*
X135127Y202659D02*
X135127Y202659D01*
X135127Y208996D01*
X135300Y209642D01*
X135635Y210221D01*
X136108Y210694D01*
X136687Y211029D01*
X137333Y211202D01*
X141511Y211202D01*
X141511Y202659D01*
X135127Y202659D01*
G37*
%LPD*%
%LPC*%
G36*
X256713Y190118D02*
X256713Y190118D01*
X256067Y190291D01*
X255488Y190626D01*
X255015Y191099D01*
X254680Y191678D01*
X254507Y192324D01*
X254507Y198661D01*
X260891Y198661D01*
X260891Y190118D01*
X256713Y190118D01*
G37*
%LPD*%
%LPC*%
G36*
X137333Y190118D02*
X137333Y190118D01*
X136687Y190291D01*
X136108Y190626D01*
X135635Y191099D01*
X135300Y191678D01*
X135127Y192324D01*
X135127Y198661D01*
X141511Y198661D01*
X141511Y190118D01*
X137333Y190118D01*
G37*
%LPD*%
%LPC*%
G36*
X912589Y438879D02*
X912589Y438879D01*
X912589Y446770D01*
X912951Y446713D01*
X914460Y446222D01*
X915874Y445502D01*
X917157Y444569D01*
X918279Y443447D01*
X919212Y442164D01*
X919932Y440750D01*
X920423Y439241D01*
X920480Y438879D01*
X912589Y438879D01*
G37*
%LPD*%
%LPC*%
G36*
X607789Y438879D02*
X607789Y438879D01*
X607789Y446770D01*
X608151Y446713D01*
X609660Y446222D01*
X611074Y445502D01*
X612357Y444569D01*
X613479Y443447D01*
X614412Y442164D01*
X615132Y440750D01*
X615623Y439241D01*
X615680Y438879D01*
X607789Y438879D01*
G37*
%LPD*%
%LPC*%
G36*
X619219Y247109D02*
X619219Y247109D01*
X619219Y255000D01*
X619581Y254943D01*
X621090Y254452D01*
X622504Y253732D01*
X623787Y252799D01*
X624909Y251677D01*
X625842Y250394D01*
X626562Y248980D01*
X627053Y247471D01*
X627110Y247109D01*
X619219Y247109D01*
G37*
%LPD*%
%LPC*%
G36*
X887189Y438879D02*
X887189Y438879D01*
X887189Y446770D01*
X887551Y446713D01*
X889060Y446222D01*
X890474Y445502D01*
X891757Y444569D01*
X892879Y443447D01*
X893812Y442164D01*
X894532Y440750D01*
X895023Y439241D01*
X895080Y438879D01*
X887189Y438879D01*
G37*
%LPD*%
%LPC*%
G36*
X861789Y134079D02*
X861789Y134079D01*
X861789Y141970D01*
X862151Y141913D01*
X863660Y141422D01*
X865074Y140702D01*
X866357Y139769D01*
X867479Y138647D01*
X868412Y137364D01*
X869132Y135950D01*
X869623Y134441D01*
X869680Y134079D01*
X861789Y134079D01*
G37*
%LPD*%
%LPC*%
G36*
X607789Y134079D02*
X607789Y134079D01*
X607789Y141970D01*
X608151Y141913D01*
X609660Y141422D01*
X611074Y140702D01*
X612357Y139769D01*
X613479Y138647D01*
X614412Y137364D01*
X615132Y135950D01*
X615623Y134441D01*
X615680Y134079D01*
X607789Y134079D01*
G37*
%LPD*%
%LPC*%
G36*
X912589Y134079D02*
X912589Y134079D01*
X912589Y141970D01*
X912951Y141913D01*
X914460Y141422D01*
X915874Y140702D01*
X917157Y139769D01*
X918279Y138647D01*
X919212Y137364D01*
X919932Y135950D01*
X920423Y134441D01*
X920480Y134079D01*
X912589Y134079D01*
G37*
%LPD*%
%LPC*%
G36*
X760189Y438879D02*
X760189Y438879D01*
X760189Y446770D01*
X760551Y446713D01*
X762060Y446222D01*
X763474Y445502D01*
X764757Y444569D01*
X765879Y443447D01*
X766812Y442164D01*
X767532Y440750D01*
X768023Y439241D01*
X768080Y438879D01*
X760189Y438879D01*
G37*
%LPD*%
%LPC*%
G36*
X785589Y438879D02*
X785589Y438879D01*
X785589Y446770D01*
X785951Y446713D01*
X787460Y446222D01*
X788874Y445502D01*
X790157Y444569D01*
X791279Y443447D01*
X792212Y442164D01*
X792932Y440750D01*
X793423Y439241D01*
X793480Y438879D01*
X785589Y438879D01*
G37*
%LPD*%
%LPC*%
G36*
X861789Y438879D02*
X861789Y438879D01*
X861789Y446770D01*
X862151Y446713D01*
X863660Y446222D01*
X865074Y445502D01*
X866357Y444569D01*
X867479Y443447D01*
X868412Y442164D01*
X869132Y440750D01*
X869623Y439241D01*
X869680Y438879D01*
X861789Y438879D01*
G37*
%LPD*%
%LPC*%
G36*
X748300Y438879D02*
X748300Y438879D01*
X748357Y439241D01*
X748848Y440750D01*
X749568Y442164D01*
X750501Y443447D01*
X751623Y444569D01*
X752906Y445502D01*
X754320Y446222D01*
X755829Y446713D01*
X756191Y446770D01*
X756191Y438879D01*
X748300Y438879D01*
G37*
%LPD*%
%LPC*%
G36*
X849900Y438879D02*
X849900Y438879D01*
X849957Y439241D01*
X850448Y440750D01*
X851168Y442164D01*
X852101Y443447D01*
X853223Y444569D01*
X854506Y445502D01*
X855920Y446222D01*
X857429Y446713D01*
X857791Y446770D01*
X857791Y438879D01*
X849900Y438879D01*
G37*
%LPD*%
%LPC*%
G36*
X595900Y438879D02*
X595900Y438879D01*
X595957Y439241D01*
X596448Y440750D01*
X597168Y442164D01*
X598101Y443447D01*
X599223Y444569D01*
X600506Y445502D01*
X601920Y446222D01*
X603429Y446713D01*
X603791Y446770D01*
X603791Y438879D01*
X595900Y438879D01*
G37*
%LPD*%
%LPC*%
G36*
X773700Y438879D02*
X773700Y438879D01*
X773757Y439241D01*
X774248Y440750D01*
X774968Y442164D01*
X775901Y443447D01*
X777023Y444569D01*
X778306Y445502D01*
X779720Y446222D01*
X781229Y446713D01*
X781591Y446770D01*
X781591Y438879D01*
X773700Y438879D01*
G37*
%LPD*%
%LPC*%
G36*
X900700Y134079D02*
X900700Y134079D01*
X900757Y134441D01*
X901248Y135950D01*
X901968Y137364D01*
X902901Y138647D01*
X904023Y139769D01*
X905306Y140702D01*
X906720Y141422D01*
X908229Y141913D01*
X908591Y141970D01*
X908591Y134079D01*
X900700Y134079D01*
G37*
%LPD*%
%LPC*%
G36*
X849900Y134079D02*
X849900Y134079D01*
X849957Y134441D01*
X850448Y135950D01*
X851168Y137364D01*
X852101Y138647D01*
X853223Y139769D01*
X854506Y140702D01*
X855920Y141422D01*
X857429Y141913D01*
X857791Y141970D01*
X857791Y134079D01*
X849900Y134079D01*
G37*
%LPD*%
%LPC*%
G36*
X900700Y438879D02*
X900700Y438879D01*
X900757Y439241D01*
X901248Y440750D01*
X901968Y442164D01*
X902901Y443447D01*
X904023Y444569D01*
X905306Y445502D01*
X906720Y446222D01*
X908229Y446713D01*
X908591Y446770D01*
X908591Y438879D01*
X900700Y438879D01*
G37*
%LPD*%
%LPC*%
G36*
X619219Y243111D02*
X619219Y243111D01*
X627110Y243111D01*
X627053Y242749D01*
X626562Y241240D01*
X625842Y239826D01*
X624909Y238543D01*
X623787Y237421D01*
X622504Y236488D01*
X621090Y235768D01*
X619581Y235277D01*
X619219Y235220D01*
X619219Y243111D01*
G37*
%LPD*%
%LPC*%
G36*
X912589Y130081D02*
X912589Y130081D01*
X920480Y130081D01*
X920423Y129719D01*
X919932Y128210D01*
X919212Y126796D01*
X918279Y125513D01*
X917157Y124391D01*
X915874Y123458D01*
X914460Y122738D01*
X912951Y122247D01*
X912589Y122190D01*
X912589Y130081D01*
G37*
%LPD*%
%LPC*%
G36*
X861789Y130081D02*
X861789Y130081D01*
X869680Y130081D01*
X869623Y129719D01*
X869132Y128210D01*
X868412Y126796D01*
X867479Y125513D01*
X866357Y124391D01*
X865074Y123458D01*
X863660Y122738D01*
X862151Y122247D01*
X861789Y122190D01*
X861789Y130081D01*
G37*
%LPD*%
%LPC*%
G36*
X595900Y134079D02*
X595900Y134079D01*
X595957Y134441D01*
X596448Y135950D01*
X597168Y137364D01*
X598101Y138647D01*
X599223Y139769D01*
X600506Y140702D01*
X601920Y141422D01*
X603429Y141913D01*
X603791Y141970D01*
X603791Y134079D01*
X595900Y134079D01*
G37*
%LPD*%
%LPC*%
G36*
X875300Y438879D02*
X875300Y438879D01*
X875357Y439241D01*
X875848Y440750D01*
X876568Y442164D01*
X877501Y443447D01*
X878623Y444569D01*
X879906Y445502D01*
X881320Y446222D01*
X882829Y446713D01*
X883191Y446770D01*
X883191Y438879D01*
X875300Y438879D01*
G37*
%LPD*%
%LPC*%
G36*
X607330Y247109D02*
X607330Y247109D01*
X607387Y247471D01*
X607878Y248980D01*
X608598Y250394D01*
X609531Y251677D01*
X610653Y252799D01*
X611936Y253732D01*
X613350Y254452D01*
X614859Y254943D01*
X615221Y255000D01*
X615221Y247109D01*
X607330Y247109D01*
G37*
%LPD*%
%LPC*%
G36*
X607789Y434881D02*
X607789Y434881D01*
X615680Y434881D01*
X615672Y434832D01*
X615672Y434831D01*
X615623Y434519D01*
X615132Y433010D01*
X614412Y431596D01*
X613479Y430313D01*
X612357Y429191D01*
X611074Y428258D01*
X609660Y427538D01*
X608151Y427047D01*
X607789Y426990D01*
X607789Y434881D01*
G37*
%LPD*%
%LPC*%
G36*
X785589Y434881D02*
X785589Y434881D01*
X793480Y434881D01*
X793472Y434832D01*
X793472Y434831D01*
X793423Y434519D01*
X792932Y433010D01*
X792212Y431596D01*
X791279Y430313D01*
X790157Y429191D01*
X788874Y428258D01*
X787460Y427538D01*
X785951Y427047D01*
X785589Y426990D01*
X785589Y434881D01*
G37*
%LPD*%
%LPC*%
G36*
X760189Y434881D02*
X760189Y434881D01*
X768080Y434881D01*
X768072Y434832D01*
X768072Y434831D01*
X768023Y434519D01*
X767532Y433010D01*
X766812Y431596D01*
X765879Y430313D01*
X764757Y429191D01*
X763474Y428258D01*
X762060Y427538D01*
X760551Y427047D01*
X760189Y426990D01*
X760189Y434881D01*
G37*
%LPD*%
%LPC*%
G36*
X861789Y434881D02*
X861789Y434881D01*
X869680Y434881D01*
X869672Y434832D01*
X869672Y434831D01*
X869623Y434519D01*
X869132Y433010D01*
X868412Y431596D01*
X867479Y430313D01*
X866357Y429191D01*
X865074Y428258D01*
X863660Y427538D01*
X862151Y427047D01*
X861789Y426990D01*
X861789Y434881D01*
G37*
%LPD*%
%LPC*%
G36*
X887189Y434881D02*
X887189Y434881D01*
X895080Y434881D01*
X895072Y434832D01*
X895072Y434831D01*
X895023Y434519D01*
X894532Y433010D01*
X893812Y431596D01*
X892879Y430313D01*
X891757Y429191D01*
X890474Y428258D01*
X889060Y427538D01*
X887551Y427047D01*
X887189Y426990D01*
X887189Y434881D01*
G37*
%LPD*%
%LPC*%
G36*
X912589Y434881D02*
X912589Y434881D01*
X920480Y434881D01*
X920472Y434832D01*
X920472Y434831D01*
X920423Y434519D01*
X919932Y433010D01*
X919212Y431596D01*
X918279Y430313D01*
X917157Y429191D01*
X915874Y428258D01*
X914460Y427538D01*
X912951Y427047D01*
X912589Y426990D01*
X912589Y434881D01*
G37*
%LPD*%
%LPC*%
G36*
X603429Y427047D02*
X603429Y427047D01*
X601920Y427538D01*
X600506Y428258D01*
X599223Y429191D01*
X598101Y430313D01*
X597168Y431596D01*
X596448Y433010D01*
X595957Y434519D01*
X595900Y434881D01*
X603791Y434881D01*
X603791Y426990D01*
X603429Y427047D01*
G37*
%LPD*%
%LPC*%
G36*
X908229Y427047D02*
X908229Y427047D01*
X906720Y427538D01*
X905306Y428258D01*
X904023Y429191D01*
X902901Y430313D01*
X901968Y431596D01*
X901248Y433010D01*
X900757Y434519D01*
X900700Y434881D01*
X908591Y434881D01*
X908591Y426990D01*
X908229Y427047D01*
G37*
%LPD*%
%LPC*%
G36*
X755829Y427047D02*
X755829Y427047D01*
X754320Y427538D01*
X752906Y428258D01*
X751623Y429191D01*
X750501Y430313D01*
X749568Y431596D01*
X748848Y433010D01*
X748357Y434519D01*
X748300Y434881D01*
X756191Y434881D01*
X756191Y426990D01*
X755829Y427047D01*
G37*
%LPD*%
%LPC*%
G36*
X614859Y235277D02*
X614859Y235277D01*
X613350Y235768D01*
X611936Y236488D01*
X610653Y237421D01*
X609531Y238543D01*
X608598Y239826D01*
X607878Y241240D01*
X607387Y242749D01*
X607330Y243111D01*
X615221Y243111D01*
X615221Y235220D01*
X614859Y235277D01*
G37*
%LPD*%
%LPC*%
G36*
X882829Y427047D02*
X882829Y427047D01*
X881320Y427538D01*
X879906Y428258D01*
X878623Y429191D01*
X877501Y430313D01*
X876568Y431596D01*
X875848Y433010D01*
X875357Y434519D01*
X875300Y434881D01*
X883191Y434881D01*
X883191Y426990D01*
X882829Y427047D01*
G37*
%LPD*%
%LPC*%
G36*
X857429Y122247D02*
X857429Y122247D01*
X855920Y122738D01*
X854506Y123458D01*
X853223Y124391D01*
X852101Y125513D01*
X851168Y126796D01*
X850448Y128210D01*
X849957Y129719D01*
X849900Y130081D01*
X857791Y130081D01*
X857791Y122190D01*
X857429Y122247D01*
G37*
%LPD*%
%LPC*%
G36*
X908229Y122247D02*
X908229Y122247D01*
X906720Y122738D01*
X905306Y123458D01*
X904023Y124391D01*
X902901Y125513D01*
X901968Y126796D01*
X901248Y128210D01*
X900757Y129719D01*
X900700Y130081D01*
X908591Y130081D01*
X908591Y122190D01*
X908229Y122247D01*
G37*
%LPD*%
%LPC*%
G36*
X781229Y427047D02*
X781229Y427047D01*
X779720Y427538D01*
X778306Y428258D01*
X777023Y429191D01*
X775901Y430313D01*
X774968Y431596D01*
X774248Y433010D01*
X773757Y434519D01*
X773700Y434881D01*
X781591Y434881D01*
X781591Y426990D01*
X781229Y427047D01*
G37*
%LPD*%
%LPC*%
G36*
X857429Y427047D02*
X857429Y427047D01*
X855920Y427538D01*
X854506Y428258D01*
X853223Y429191D01*
X852101Y430313D01*
X851168Y431596D01*
X850448Y433010D01*
X849957Y434519D01*
X849900Y434881D01*
X857791Y434881D01*
X857791Y426990D01*
X857429Y427047D01*
G37*
%LPD*%
%LPC*%
G36*
X709499Y403319D02*
X709499Y403319D01*
X709499Y409861D01*
X711835Y409861D01*
X712481Y409688D01*
X713060Y409353D01*
X713533Y408880D01*
X713868Y408301D01*
X714041Y407655D01*
X714041Y403319D01*
X709499Y403319D01*
G37*
%LPD*%
%LPC*%
G36*
X709499Y392779D02*
X709499Y392779D01*
X709499Y399321D01*
X714041Y399321D01*
X714041Y394985D01*
X713868Y394339D01*
X713533Y393760D01*
X713060Y393287D01*
X712481Y392952D01*
X711835Y392779D01*
X709499Y392779D01*
G37*
%LPD*%
%LPC*%
G36*
X700959Y403319D02*
X700959Y403319D01*
X700959Y407655D01*
X701132Y408301D01*
X701467Y408880D01*
X701940Y409353D01*
X702519Y409688D01*
X703165Y409861D01*
X705501Y409861D01*
X705501Y403319D01*
X700959Y403319D01*
G37*
%LPD*%
%LPC*%
G36*
X703165Y392779D02*
X703165Y392779D01*
X702519Y392952D01*
X701940Y393287D01*
X701467Y393760D01*
X701132Y394339D01*
X700959Y394985D01*
X700959Y399321D01*
X705501Y399321D01*
X705501Y392779D01*
X703165Y392779D01*
G37*
%LPD*%
%LPC*%
G36*
X885189Y436879D02*
X885189Y436879D01*
X885189Y436881D01*
X885191Y436881D01*
X885191Y436879D01*
X885189Y436879D01*
G37*
%LPD*%
%LPC*%
G36*
X910589Y132079D02*
X910589Y132079D01*
X910589Y132081D01*
X910591Y132081D01*
X910591Y132079D01*
X910589Y132079D01*
G37*
%LPD*%
%LPC*%
G36*
X605789Y436879D02*
X605789Y436879D01*
X605789Y436881D01*
X605791Y436881D01*
X605791Y436879D01*
X605789Y436879D01*
G37*
%LPD*%
%LPC*%
G36*
X500379Y154939D02*
X500379Y154939D01*
X500379Y154941D01*
X500381Y154941D01*
X500381Y154939D01*
X500379Y154939D01*
G37*
%LPD*%
%LPC*%
G36*
X758189Y436879D02*
X758189Y436879D01*
X758189Y436881D01*
X758191Y436881D01*
X758191Y436879D01*
X758189Y436879D01*
G37*
%LPD*%
%LPC*%
G36*
X466851Y261873D02*
X466851Y261873D01*
X466851Y261875D01*
X466853Y261875D01*
X466853Y261873D01*
X466851Y261873D01*
G37*
%LPD*%
%LPC*%
G36*
X910589Y436879D02*
X910589Y436879D01*
X910589Y436881D01*
X910591Y436881D01*
X910591Y436879D01*
X910589Y436879D01*
G37*
%LPD*%
%LPC*%
G36*
X170179Y408939D02*
X170179Y408939D01*
X170179Y408941D01*
X170181Y408941D01*
X170181Y408939D01*
X170179Y408939D01*
G37*
%LPD*%
%LPC*%
G36*
X783589Y436879D02*
X783589Y436879D01*
X783589Y436881D01*
X783591Y436881D01*
X783591Y436879D01*
X783589Y436879D01*
G37*
%LPD*%
%LPC*%
G36*
X617219Y245109D02*
X617219Y245109D01*
X617219Y245111D01*
X617221Y245111D01*
X617221Y245109D01*
X617219Y245109D01*
G37*
%LPD*%
%LPC*%
G36*
X500379Y104139D02*
X500379Y104139D01*
X500379Y104141D01*
X500381Y104141D01*
X500381Y104139D01*
X500379Y104139D01*
G37*
%LPD*%
%LPC*%
G36*
X859789Y436879D02*
X859789Y436879D01*
X859789Y436881D01*
X859791Y436881D01*
X859791Y436879D01*
X859789Y436879D01*
G37*
%LPD*%
%LPC*%
G36*
X859789Y132079D02*
X859789Y132079D01*
X859789Y132081D01*
X859791Y132081D01*
X859791Y132079D01*
X859789Y132079D01*
G37*
%LPD*%
%LPC*%
G36*
X707499Y401319D02*
X707499Y401319D01*
X707499Y401321D01*
X707501Y401321D01*
X707501Y401319D01*
X707499Y401319D01*
G37*
%LPD*%
D10*
X43180Y408940D03*
X68580Y408940D03*
X93980Y408940D03*
X119380Y408940D03*
X144780Y408940D03*
X170180Y408940D03*
X195580Y408940D03*
X220980Y408940D03*
X246380Y408940D03*
X271780Y408940D03*
X297180Y408940D03*
X322580Y408940D03*
X347980Y408940D03*
X373380Y408940D03*
X398780Y408940D03*
X424180Y408940D03*
X449580Y408940D03*
X474980Y408940D03*
X500380Y408940D03*
X500380Y154940D03*
X474980Y154940D03*
X449580Y154940D03*
X424180Y154940D03*
X398780Y154940D03*
X373380Y154940D03*
X347980Y154940D03*
X322580Y154940D03*
X297180Y154940D03*
X271780Y154940D03*
X246380Y154940D03*
X220980Y154940D03*
X195580Y154940D03*
X170180Y154940D03*
X144780Y154940D03*
X119380Y154940D03*
X93980Y154940D03*
X68580Y154940D03*
X43180Y154940D03*
D11*
X307340Y243840D03*
X307340Y269240D03*
X307340Y294640D03*
X307340Y320040D03*
D12*
X910590Y436880D03*
X885190Y436880D03*
X859790Y436880D03*
X834390Y436880D03*
X808990Y436880D03*
X783590Y436880D03*
X758190Y436880D03*
X732790Y436880D03*
X707390Y436880D03*
X681990Y436880D03*
X656590Y436880D03*
X631190Y436880D03*
X605790Y436880D03*
X605790Y132080D03*
X631190Y132080D03*
X656590Y132080D03*
X681990Y132080D03*
X707390Y132080D03*
X732790Y132080D03*
X758190Y132080D03*
X783590Y132080D03*
X808990Y132080D03*
X834390Y132080D03*
X859790Y132080D03*
X885190Y132080D03*
X910590Y132080D03*
D13*
X46990Y511810D03*
X929640Y511810D03*
X46990Y46990D03*
X929640Y46990D03*
D14*
X466852Y307086D03*
X401828Y307086D03*
X466852Y261874D03*
X401828Y261874D03*
D12*
X617220Y321310D03*
X617220Y295910D03*
X617220Y270510D03*
X617220Y245110D03*
D15*
X689500Y401320D03*
X707500Y401320D03*
D16*
X143510Y200660D03*
X158750Y200660D03*
X227330Y200660D03*
X242570Y200660D03*
X262890Y200660D03*
X278130Y200660D03*
X179070Y200660D03*
X194310Y200660D03*
D14*
X43180Y459740D03*
X68580Y459740D03*
X93980Y459740D03*
X119380Y459740D03*
X144780Y459740D03*
X170180Y459740D03*
X195580Y459740D03*
X220980Y459740D03*
X246380Y459740D03*
X271780Y459740D03*
X297180Y459740D03*
X322580Y459740D03*
X347980Y459740D03*
X373380Y459740D03*
X398780Y459740D03*
X424180Y459740D03*
X449580Y459740D03*
X474980Y459740D03*
X500380Y459740D03*
X43180Y104140D03*
X68580Y104140D03*
X93980Y104140D03*
X119380Y104140D03*
X144780Y104140D03*
X170180Y104140D03*
X195580Y104140D03*
X220980Y104140D03*
X246380Y104140D03*
X271780Y104140D03*
X297180Y104140D03*
X322580Y104140D03*
X347980Y104140D03*
X373380Y104140D03*
X398780Y104140D03*
X424180Y104140D03*
X449580Y104140D03*
X474980Y104140D03*
X500380Y104140D03*
X27940Y320040D03*
X27940Y294640D03*
X27940Y269240D03*
X27940Y243840D03*
D17*
X237490Y293370D03*
X668020Y267970D03*
D18*
X712470Y401320D03*
D19*
X707500Y401320D01*
D18*
X195580Y267970D03*
X707390Y295910D03*
D20*
X496570Y295910D03*
D19*
X496570Y339090D02*
X496570Y409748D01*
X496570Y339090D02*
X496570Y295910D01*
X500380Y408940D02*
X496570Y409748D01*
D18*
X458470Y337820D03*
X195580Y237490D03*
D21*
X227330Y228600D02*
X227330Y200660D01*
X218440Y237490D02*
X195580Y237490D01*
X218440Y237490D02*
X227330Y228600D01*
X179070Y229870D02*
X179070Y200660D01*
X186690Y237490D02*
X195580Y237490D01*
X186690Y237490D02*
X179070Y229870D01*
D22*
X458470Y337820D02*
X495300Y337820D01*
X496570Y339090D01*
D19*
X500380Y408940D02*
X500380Y459740D01*
D22*
X326756Y294640D02*
X307340Y294640D01*
X326756Y294640D02*
X330566Y290830D01*
X330566Y266068D01*
X369380Y175070D02*
X360680Y166370D01*
X360680Y142240D01*
X369570Y133350D01*
X443230Y133350D01*
X449580Y139700D02*
X449580Y154940D01*
X369380Y227254D02*
X330566Y266068D01*
X369380Y227254D02*
X369380Y175070D01*
X443230Y133350D02*
X449580Y139700D01*
X325676Y320040D02*
X307340Y320040D01*
X325676Y320040D02*
X334566Y311150D01*
X334566Y267725D01*
X373380Y228911D02*
X373380Y154940D01*
X373380Y228911D02*
X334566Y267725D01*
D23*
X322580Y154940D02*
X322580Y104140D01*
X297180Y104140D02*
X297180Y154940D01*
D22*
X297180Y104140D02*
X297180Y100330D01*
X308610Y88900D01*
X353060Y88900D01*
X360680Y119000D02*
X367030Y125350D01*
X530974Y125350D02*
X546484Y109840D01*
X775320Y109840D02*
X783590Y118110D01*
X783590Y132080D01*
X360680Y96520D02*
X353060Y88900D01*
X360680Y96520D02*
X360680Y119000D01*
X367030Y125350D02*
X530974Y125350D01*
X546484Y109840D02*
X775320Y109840D01*
D23*
X271780Y104140D02*
X271780Y154940D01*
D22*
X271780Y162560D01*
X276860Y167640D01*
X328930Y167640D01*
X336550Y160020D02*
X336550Y135890D01*
X343090Y129350D01*
X758190Y132080D02*
X758190Y118110D01*
X336550Y160020D02*
X328930Y167640D01*
X343090Y129350D02*
X532631Y129350D01*
X548141Y113840D01*
X753920Y113840D01*
X758190Y118110D01*
D23*
X119380Y104140D02*
X119380Y154940D01*
D17*
X668020Y306070D03*
D18*
X683260Y401320D03*
D19*
X689500Y401320D01*
X683260Y401320D02*
X674370Y401320D01*
X656590Y419100D01*
X656590Y436880D01*
D18*
X707390Y326390D03*
D19*
X43180Y408940D02*
X43180Y459740D01*
D18*
X407670Y337820D03*
D22*
X407670Y378460D01*
X425450Y396240D01*
X425450Y409334D01*
X424180Y408940D01*
X431800Y337820D02*
X407670Y337820D01*
X435610Y334010D02*
X435610Y314960D01*
X443484Y307086D01*
X466852Y307086D01*
X435610Y334010D02*
X431800Y337820D01*
D23*
X424180Y408940D02*
X424180Y459740D01*
X656590Y146050D02*
X656590Y132080D01*
X650494Y152146D02*
X650494Y187103D01*
X650494Y152146D02*
X656590Y146050D01*
X650494Y187103D02*
X636683Y200914D01*
X422656Y200914D01*
X349504Y274066D01*
X347980Y408940D02*
X349504Y409406D01*
X349504Y274066D01*
X347980Y408940D02*
X347980Y459740D01*
X643890Y185420D02*
X643890Y144780D01*
X631190Y132080D01*
X633730Y195580D02*
X420370Y195580D01*
X344170Y271780D01*
X344170Y397315D02*
X322580Y408940D01*
X633730Y195580D02*
X643890Y185420D01*
X344170Y271780D02*
X344170Y397315D01*
X322580Y408940D02*
X322580Y459740D01*
X271780Y459740D02*
X271780Y408940D01*
X732790Y132080D02*
X732790Y127000D01*
X723900Y118110D01*
X549910Y118110D01*
X528320Y139700D02*
X528320Y177800D01*
X515874Y190246D01*
X338836Y269494D02*
X338836Y369570D01*
X331216Y377190D01*
X262890Y377190D02*
X246380Y393700D01*
X246380Y408940D01*
X528320Y139700D02*
X549910Y118110D01*
X515874Y190246D02*
X418084Y190246D01*
X338836Y269494D01*
X331216Y377190D02*
X262890Y377190D01*
X246380Y408940D02*
X246380Y459740D01*
X220980Y459740D02*
X220980Y458470D01*
X220980Y408940D01*
D22*
X229870Y478790D02*
X513080Y478790D01*
X229870Y478790D02*
X220980Y469900D01*
X220980Y458470D01*
X532130Y459740D02*
X533400Y458470D01*
X532130Y459740D02*
X513080Y478790D01*
X533400Y458470D02*
X537400Y454470D01*
X695960Y442653D02*
X695960Y430530D01*
X701040Y425450D01*
X728980Y425450D01*
X732790Y429260D01*
X732790Y436880D01*
X684143Y454470D02*
X537400Y454470D01*
X684143Y454470D02*
X695960Y442653D01*
D23*
X144780Y459740D02*
X144780Y408940D01*
D22*
X144780Y459740D02*
X144780Y472440D01*
X148590Y476250D01*
X221673Y476250D01*
X685800Y458470D02*
X707390Y436880D01*
X228213Y482790D02*
X221673Y476250D01*
X228213Y482790D02*
X515430Y482790D01*
X539750Y458470D01*
X685800Y458470D01*
D17*
X237490Y257810D03*
D21*
X242570Y173990D02*
X300990Y173990D01*
X308610Y181610D01*
X308610Y242570D01*
X307340Y243840D01*
X242570Y173990D02*
X163830Y173990D01*
X158750Y179070D01*
X158750Y200660D01*
X242570Y200660D02*
X242570Y173990D01*
X148590Y294640D02*
X53340Y294640D01*
X27940Y320040D01*
X148590Y294640D02*
X158750Y284480D01*
X158750Y200660D01*
X278130Y200660D02*
X278130Y255270D01*
X292100Y269240D02*
X307340Y269240D01*
X292100Y269240D02*
X278130Y255270D01*
X194310Y200660D02*
X194310Y186690D01*
X278130Y186690D02*
X278130Y200660D01*
D24*
X194310Y186690D03*
X278130Y186690D03*
D23*
X43180Y154940D02*
X43180Y104140D01*
X68580Y104140D02*
X68580Y154940D01*
X93980Y154940D02*
X93980Y104140D01*
X144780Y104140D02*
X144780Y154940D01*
X170180Y154940D02*
X170180Y104140D01*
X195580Y104140D02*
X195580Y154940D01*
X220980Y154940D02*
X220980Y104140D01*
X246380Y104140D02*
X246380Y154940D01*
X373380Y408940D02*
X373380Y459740D01*
X297180Y459740D02*
X297180Y408940D01*
X195580Y408940D02*
X195580Y459740D01*
X119380Y459740D02*
X119380Y408940D01*
X93980Y408940D02*
X93980Y459740D01*
X68580Y459740D02*
X68580Y408940D01*
X474980Y408940D02*
X474980Y459740D01*
X449580Y459740D02*
X449580Y408940D01*
X398780Y408940D02*
X398780Y459740D01*
M02*
