G04 EAGLE Gerber RS-274X export*
G75*
%MOMM*%
%FSLAX34Y34*%
%LPD*%
%IN*%
%IPPOS*%
%AMOC8*
5,1,8,0,0,1.08239X$1,22.5*%
G01*
%ADD10C,0.254000*%


D10*
X0Y50800D02*
X193Y46373D01*
X772Y41979D01*
X1731Y37652D01*
X3064Y33425D01*
X4760Y29331D01*
X6806Y25400D01*
X9187Y21662D01*
X11885Y18146D01*
X14879Y14879D01*
X18146Y11885D01*
X21662Y9187D01*
X25400Y6806D01*
X29331Y4760D01*
X33425Y3064D01*
X37652Y1731D01*
X41979Y772D01*
X46373Y193D01*
X50800Y0D01*
X927100Y0D01*
X931528Y193D01*
X935921Y772D01*
X940248Y1731D01*
X944475Y3064D01*
X948569Y4760D01*
X952500Y6806D01*
X956238Y9187D01*
X959754Y11885D01*
X963021Y14879D01*
X966015Y18146D01*
X968713Y21662D01*
X971094Y25400D01*
X973140Y29331D01*
X974836Y33425D01*
X976169Y37652D01*
X977128Y41979D01*
X977707Y46373D01*
X977900Y50800D01*
X977900Y508000D01*
X977707Y512428D01*
X977128Y516821D01*
X976169Y521148D01*
X974836Y525375D01*
X973140Y529469D01*
X971094Y533400D01*
X968713Y537138D01*
X966015Y540654D01*
X963021Y543921D01*
X959754Y546915D01*
X956238Y549613D01*
X952500Y551994D01*
X948569Y554040D01*
X944475Y555736D01*
X940248Y557069D01*
X935921Y558028D01*
X931528Y558607D01*
X927100Y558800D01*
X50800Y558800D01*
X46373Y558607D01*
X41979Y558028D01*
X37652Y557069D01*
X33425Y555736D01*
X29331Y554040D01*
X25400Y551994D01*
X21662Y549613D01*
X18146Y546915D01*
X14879Y543921D01*
X11885Y540654D01*
X9187Y537138D01*
X6806Y533400D01*
X4760Y529469D01*
X3064Y525375D01*
X1731Y521148D01*
X772Y516821D01*
X193Y512428D01*
X0Y508000D01*
X0Y50800D01*
X28780Y409778D02*
X28712Y408916D01*
X28577Y408062D01*
X28375Y407222D01*
X28108Y406400D01*
X27777Y405601D01*
X27385Y404831D01*
X26933Y404094D01*
X26425Y403395D01*
X25864Y402737D01*
X25253Y402126D01*
X24595Y401565D01*
X23896Y401057D01*
X23159Y400605D01*
X22389Y400213D01*
X21590Y399882D01*
X20768Y399615D01*
X19928Y399413D01*
X19074Y399278D01*
X18212Y399210D01*
X17348Y399210D01*
X16486Y399278D01*
X15632Y399413D01*
X14792Y399615D01*
X13970Y399882D01*
X13171Y400213D01*
X12401Y400605D01*
X11664Y401057D01*
X10965Y401565D01*
X10307Y402126D01*
X9696Y402737D01*
X9135Y403395D01*
X8627Y404094D01*
X8175Y404831D01*
X7783Y405601D01*
X7452Y406400D01*
X7185Y407222D01*
X6983Y408062D01*
X6848Y408916D01*
X6780Y409778D01*
X6780Y410642D01*
X6848Y411504D01*
X6983Y412358D01*
X7185Y413198D01*
X7452Y414020D01*
X7783Y414819D01*
X8175Y415589D01*
X8627Y416326D01*
X9135Y417025D01*
X9696Y417683D01*
X10307Y418294D01*
X10965Y418855D01*
X11664Y419363D01*
X12401Y419815D01*
X13171Y420207D01*
X13970Y420538D01*
X14792Y420805D01*
X15632Y421007D01*
X16486Y421142D01*
X17348Y421210D01*
X18212Y421210D01*
X19074Y421142D01*
X19928Y421007D01*
X20768Y420805D01*
X21590Y420538D01*
X22389Y420207D01*
X23159Y419815D01*
X23896Y419363D01*
X24595Y418855D01*
X25253Y418294D01*
X25864Y417683D01*
X26425Y417025D01*
X26933Y416326D01*
X27385Y415589D01*
X27777Y414819D01*
X28108Y414020D01*
X28375Y413198D01*
X28577Y412358D01*
X28712Y411504D01*
X28780Y410642D01*
X28780Y409778D01*
X28780Y155778D02*
X28712Y154916D01*
X28577Y154062D01*
X28375Y153222D01*
X28108Y152400D01*
X27777Y151601D01*
X27385Y150831D01*
X26933Y150094D01*
X26425Y149395D01*
X25864Y148737D01*
X25253Y148126D01*
X24595Y147565D01*
X23896Y147057D01*
X23159Y146605D01*
X22389Y146213D01*
X21590Y145882D01*
X20768Y145615D01*
X19928Y145413D01*
X19074Y145278D01*
X18212Y145210D01*
X17348Y145210D01*
X16486Y145278D01*
X15632Y145413D01*
X14792Y145615D01*
X13970Y145882D01*
X13171Y146213D01*
X12401Y146605D01*
X11664Y147057D01*
X10965Y147565D01*
X10307Y148126D01*
X9696Y148737D01*
X9135Y149395D01*
X8627Y150094D01*
X8175Y150831D01*
X7783Y151601D01*
X7452Y152400D01*
X7185Y153222D01*
X6983Y154062D01*
X6848Y154916D01*
X6780Y155778D01*
X6780Y156642D01*
X6848Y157504D01*
X6983Y158358D01*
X7185Y159198D01*
X7452Y160020D01*
X7783Y160819D01*
X8175Y161589D01*
X8627Y162326D01*
X9135Y163025D01*
X9696Y163683D01*
X10307Y164294D01*
X10965Y164855D01*
X11664Y165363D01*
X12401Y165815D01*
X13171Y166207D01*
X13970Y166538D01*
X14792Y166805D01*
X15632Y167007D01*
X16486Y167142D01*
X17348Y167210D01*
X18212Y167210D01*
X19074Y167142D01*
X19928Y167007D01*
X20768Y166805D01*
X21590Y166538D01*
X22389Y166207D01*
X23159Y165815D01*
X23896Y165363D01*
X24595Y164855D01*
X25253Y164294D01*
X25864Y163683D01*
X26425Y163025D01*
X26933Y162326D01*
X27385Y161589D01*
X27777Y160819D01*
X28108Y160020D01*
X28375Y159198D01*
X28577Y158358D01*
X28712Y157504D01*
X28780Y156642D01*
X28780Y155778D01*
X562180Y155778D02*
X562112Y154916D01*
X561977Y154062D01*
X561775Y153222D01*
X561508Y152400D01*
X561177Y151601D01*
X560785Y150831D01*
X560333Y150094D01*
X559825Y149395D01*
X559264Y148737D01*
X558653Y148126D01*
X557995Y147565D01*
X557296Y147057D01*
X556559Y146605D01*
X555789Y146213D01*
X554990Y145882D01*
X554168Y145615D01*
X553328Y145413D01*
X552474Y145278D01*
X551612Y145210D01*
X550748Y145210D01*
X549886Y145278D01*
X549032Y145413D01*
X548192Y145615D01*
X547370Y145882D01*
X546571Y146213D01*
X545801Y146605D01*
X545064Y147057D01*
X544365Y147565D01*
X543707Y148126D01*
X543096Y148737D01*
X542535Y149395D01*
X542027Y150094D01*
X541575Y150831D01*
X541183Y151601D01*
X540852Y152400D01*
X540585Y153222D01*
X540383Y154062D01*
X540248Y154916D01*
X540180Y155778D01*
X540180Y156642D01*
X540248Y157504D01*
X540383Y158358D01*
X540585Y159198D01*
X540852Y160020D01*
X541183Y160819D01*
X541575Y161589D01*
X542027Y162326D01*
X542535Y163025D01*
X543096Y163683D01*
X543707Y164294D01*
X544365Y164855D01*
X545064Y165363D01*
X545801Y165815D01*
X546571Y166207D01*
X547370Y166538D01*
X548192Y166805D01*
X549032Y167007D01*
X549886Y167142D01*
X550748Y167210D01*
X551612Y167210D01*
X552474Y167142D01*
X553328Y167007D01*
X554168Y166805D01*
X554990Y166538D01*
X555789Y166207D01*
X556559Y165815D01*
X557296Y165363D01*
X557995Y164855D01*
X558653Y164294D01*
X559264Y163683D01*
X559825Y163025D01*
X560333Y162326D01*
X560785Y161589D01*
X561177Y160819D01*
X561508Y160020D01*
X561775Y159198D01*
X561977Y158358D01*
X562112Y157504D01*
X562180Y156642D01*
X562180Y155778D01*
X562180Y409778D02*
X562112Y408916D01*
X561977Y408062D01*
X561775Y407222D01*
X561508Y406400D01*
X561177Y405601D01*
X560785Y404831D01*
X560333Y404094D01*
X559825Y403395D01*
X559264Y402737D01*
X558653Y402126D01*
X557995Y401565D01*
X557296Y401057D01*
X556559Y400605D01*
X555789Y400213D01*
X554990Y399882D01*
X554168Y399615D01*
X553328Y399413D01*
X552474Y399278D01*
X551612Y399210D01*
X550748Y399210D01*
X549886Y399278D01*
X549032Y399413D01*
X548192Y399615D01*
X547370Y399882D01*
X546571Y400213D01*
X545801Y400605D01*
X545064Y401057D01*
X544365Y401565D01*
X543707Y402126D01*
X543096Y402737D01*
X542535Y403395D01*
X542027Y404094D01*
X541575Y404831D01*
X541183Y405601D01*
X540852Y406400D01*
X540585Y407222D01*
X540383Y408062D01*
X540248Y408916D01*
X540180Y409778D01*
X540180Y410642D01*
X540248Y411504D01*
X540383Y412358D01*
X540585Y413198D01*
X540852Y414020D01*
X541183Y414819D01*
X541575Y415589D01*
X542027Y416326D01*
X542535Y417025D01*
X543096Y417683D01*
X543707Y418294D01*
X544365Y418855D01*
X545064Y419363D01*
X545801Y419815D01*
X546571Y420207D01*
X547370Y420538D01*
X548192Y420805D01*
X549032Y421007D01*
X549886Y421142D01*
X550748Y421210D01*
X551612Y421210D01*
X552474Y421142D01*
X553328Y421007D01*
X554168Y420805D01*
X554990Y420538D01*
X555789Y420207D01*
X556559Y419815D01*
X557296Y419363D01*
X557995Y418855D01*
X558653Y418294D01*
X559264Y417683D01*
X559825Y417025D01*
X560333Y416326D01*
X560785Y415589D01*
X561177Y414819D01*
X561508Y414020D01*
X561775Y413198D01*
X561977Y412358D01*
X562112Y411504D01*
X562180Y410642D01*
X562180Y409778D01*
X633530Y393209D02*
X633453Y392230D01*
X633299Y391260D01*
X633070Y390304D01*
X632766Y389370D01*
X632391Y388463D01*
X631945Y387588D01*
X631431Y386750D01*
X630854Y385955D01*
X630216Y385208D01*
X629522Y384514D01*
X628775Y383876D01*
X627980Y383299D01*
X627142Y382785D01*
X626267Y382339D01*
X625360Y381964D01*
X624426Y381660D01*
X623471Y381431D01*
X622500Y381277D01*
X621521Y381200D01*
X620539Y381200D01*
X619560Y381277D01*
X618590Y381431D01*
X617634Y381660D01*
X616700Y381964D01*
X615793Y382339D01*
X614918Y382785D01*
X614080Y383299D01*
X613285Y383876D01*
X612538Y384514D01*
X611844Y385208D01*
X611206Y385955D01*
X610629Y386750D01*
X610115Y387588D01*
X609669Y388463D01*
X609294Y389370D01*
X608990Y390304D01*
X608761Y391260D01*
X608607Y392230D01*
X608530Y393209D01*
X608530Y394191D01*
X608607Y395170D01*
X608761Y396141D01*
X608990Y397096D01*
X609294Y398030D01*
X609669Y398937D01*
X610115Y399812D01*
X610629Y400650D01*
X611206Y401445D01*
X611844Y402192D01*
X612538Y402886D01*
X613285Y403524D01*
X614080Y404101D01*
X614918Y404615D01*
X615793Y405061D01*
X616700Y405436D01*
X617634Y405740D01*
X618590Y405969D01*
X619560Y406123D01*
X620539Y406200D01*
X621521Y406200D01*
X622500Y406123D01*
X623471Y405969D01*
X624426Y405740D01*
X625360Y405436D01*
X626267Y405061D01*
X627142Y404615D01*
X627980Y404101D01*
X628775Y403524D01*
X629522Y402886D01*
X630216Y402192D01*
X630854Y401445D01*
X631431Y400650D01*
X631945Y399812D01*
X632391Y398937D01*
X632766Y398030D01*
X633070Y397096D01*
X633299Y396141D01*
X633453Y395170D01*
X633530Y394191D01*
X633530Y393209D01*
X632260Y170959D02*
X632183Y169980D01*
X632029Y169010D01*
X631800Y168054D01*
X631496Y167120D01*
X631121Y166213D01*
X630675Y165338D01*
X630161Y164500D01*
X629584Y163705D01*
X628946Y162958D01*
X628252Y162264D01*
X627505Y161626D01*
X626710Y161049D01*
X625872Y160535D01*
X624997Y160089D01*
X624090Y159714D01*
X623156Y159410D01*
X622201Y159181D01*
X621230Y159027D01*
X620251Y158950D01*
X619269Y158950D01*
X618290Y159027D01*
X617320Y159181D01*
X616364Y159410D01*
X615430Y159714D01*
X614523Y160089D01*
X613648Y160535D01*
X612810Y161049D01*
X612015Y161626D01*
X611268Y162264D01*
X610574Y162958D01*
X609936Y163705D01*
X609359Y164500D01*
X608845Y165338D01*
X608399Y166213D01*
X608024Y167120D01*
X607720Y168054D01*
X607491Y169010D01*
X607337Y169980D01*
X607260Y170959D01*
X607260Y171941D01*
X607337Y172920D01*
X607491Y173891D01*
X607720Y174846D01*
X608024Y175780D01*
X608399Y176687D01*
X608845Y177562D01*
X609359Y178400D01*
X609936Y179195D01*
X610574Y179942D01*
X611268Y180636D01*
X612015Y181274D01*
X612810Y181851D01*
X613648Y182365D01*
X614523Y182811D01*
X615430Y183186D01*
X616364Y183490D01*
X617320Y183719D01*
X618290Y183873D01*
X619269Y183950D01*
X620251Y183950D01*
X621230Y183873D01*
X622201Y183719D01*
X623156Y183490D01*
X624090Y183186D01*
X624997Y182811D01*
X625872Y182365D01*
X626710Y181851D01*
X627505Y181274D01*
X628252Y180636D01*
X628946Y179942D01*
X629584Y179195D01*
X630161Y178400D01*
X630675Y177562D01*
X631121Y176687D01*
X631496Y175780D01*
X631800Y174846D01*
X632029Y173891D01*
X632183Y172920D01*
X632260Y171941D01*
X632260Y170959D01*
X970080Y393209D02*
X970003Y392230D01*
X969849Y391260D01*
X969620Y390304D01*
X969316Y389370D01*
X968941Y388463D01*
X968495Y387588D01*
X967981Y386750D01*
X967404Y385955D01*
X966766Y385208D01*
X966072Y384514D01*
X965325Y383876D01*
X964530Y383299D01*
X963692Y382785D01*
X962817Y382339D01*
X961910Y381964D01*
X960976Y381660D01*
X960021Y381431D01*
X959050Y381277D01*
X958071Y381200D01*
X957089Y381200D01*
X956110Y381277D01*
X955140Y381431D01*
X954184Y381660D01*
X953250Y381964D01*
X952343Y382339D01*
X951468Y382785D01*
X950630Y383299D01*
X949835Y383876D01*
X949088Y384514D01*
X948394Y385208D01*
X947756Y385955D01*
X947179Y386750D01*
X946665Y387588D01*
X946219Y388463D01*
X945844Y389370D01*
X945540Y390304D01*
X945311Y391260D01*
X945157Y392230D01*
X945080Y393209D01*
X945080Y394191D01*
X945157Y395170D01*
X945311Y396141D01*
X945540Y397096D01*
X945844Y398030D01*
X946219Y398937D01*
X946665Y399812D01*
X947179Y400650D01*
X947756Y401445D01*
X948394Y402192D01*
X949088Y402886D01*
X949835Y403524D01*
X950630Y404101D01*
X951468Y404615D01*
X952343Y405061D01*
X953250Y405436D01*
X954184Y405740D01*
X955140Y405969D01*
X956110Y406123D01*
X957089Y406200D01*
X958071Y406200D01*
X959050Y406123D01*
X960021Y405969D01*
X960976Y405740D01*
X961910Y405436D01*
X962817Y405061D01*
X963692Y404615D01*
X964530Y404101D01*
X965325Y403524D01*
X966072Y402886D01*
X966766Y402192D01*
X967404Y401445D01*
X967981Y400650D01*
X968495Y399812D01*
X968941Y398937D01*
X969316Y398030D01*
X969620Y397096D01*
X969849Y396141D01*
X970003Y395170D01*
X970080Y394191D01*
X970080Y393209D01*
X970080Y172229D02*
X970003Y171250D01*
X969849Y170280D01*
X969620Y169324D01*
X969316Y168390D01*
X968941Y167483D01*
X968495Y166608D01*
X967981Y165770D01*
X967404Y164975D01*
X966766Y164228D01*
X966072Y163534D01*
X965325Y162896D01*
X964530Y162319D01*
X963692Y161805D01*
X962817Y161359D01*
X961910Y160984D01*
X960976Y160680D01*
X960021Y160451D01*
X959050Y160297D01*
X958071Y160220D01*
X957089Y160220D01*
X956110Y160297D01*
X955140Y160451D01*
X954184Y160680D01*
X953250Y160984D01*
X952343Y161359D01*
X951468Y161805D01*
X950630Y162319D01*
X949835Y162896D01*
X949088Y163534D01*
X948394Y164228D01*
X947756Y164975D01*
X947179Y165770D01*
X946665Y166608D01*
X946219Y167483D01*
X945844Y168390D01*
X945540Y169324D01*
X945311Y170280D01*
X945157Y171250D01*
X945080Y172229D01*
X945080Y173211D01*
X945157Y174190D01*
X945311Y175161D01*
X945540Y176116D01*
X945844Y177050D01*
X946219Y177957D01*
X946665Y178832D01*
X947179Y179670D01*
X947756Y180465D01*
X948394Y181212D01*
X949088Y181906D01*
X949835Y182544D01*
X950630Y183121D01*
X951468Y183635D01*
X952343Y184081D01*
X953250Y184456D01*
X954184Y184760D01*
X955140Y184989D01*
X956110Y185143D01*
X957089Y185220D01*
X958071Y185220D01*
X959050Y185143D01*
X960021Y184989D01*
X960976Y184760D01*
X961910Y184456D01*
X962817Y184081D01*
X963692Y183635D01*
X964530Y183121D01*
X965325Y182544D01*
X966072Y181906D01*
X966766Y181212D01*
X967404Y180465D01*
X967981Y179670D01*
X968495Y178832D01*
X968941Y177957D01*
X969316Y177050D01*
X969620Y176116D01*
X969849Y175161D01*
X970003Y174190D01*
X970080Y173211D01*
X970080Y172229D01*
M02*
