G04 EAGLE Gerber RS-274X export*
G75*
%MOMM*%
%FSLAX34Y34*%
%LPD*%
%INSilkscreen Bottom*%
%IPPOS*%
%AMOC8*
5,1,8,0,0,1.08239X$1,22.5*%
G01*
%ADD10C,0.076200*%
%ADD11C,0.177800*%
%ADD12C,0.152400*%
%ADD13C,0.127000*%
%ADD14C,0.203200*%
%ADD15C,0.254000*%


D10*
X594225Y245632D02*
X592658Y245632D01*
X592658Y240411D01*
X595791Y240411D01*
X595880Y240413D01*
X595968Y240419D01*
X596056Y240428D01*
X596144Y240441D01*
X596231Y240458D01*
X596317Y240478D01*
X596402Y240503D01*
X596487Y240530D01*
X596570Y240562D01*
X596651Y240596D01*
X596731Y240635D01*
X596809Y240676D01*
X596886Y240721D01*
X596960Y240769D01*
X597033Y240820D01*
X597103Y240874D01*
X597170Y240932D01*
X597236Y240992D01*
X597298Y241054D01*
X597358Y241120D01*
X597416Y241187D01*
X597470Y241257D01*
X597521Y241330D01*
X597569Y241404D01*
X597614Y241481D01*
X597655Y241559D01*
X597694Y241639D01*
X597728Y241720D01*
X597760Y241803D01*
X597787Y241888D01*
X597812Y241973D01*
X597832Y242059D01*
X597849Y242146D01*
X597862Y242234D01*
X597871Y242322D01*
X597877Y242410D01*
X597879Y242499D01*
X597879Y247721D01*
X597877Y247810D01*
X597871Y247898D01*
X597862Y247986D01*
X597849Y248074D01*
X597832Y248161D01*
X597812Y248247D01*
X597787Y248332D01*
X597760Y248417D01*
X597728Y248500D01*
X597694Y248581D01*
X597655Y248661D01*
X597614Y248739D01*
X597569Y248816D01*
X597521Y248890D01*
X597470Y248963D01*
X597416Y249033D01*
X597358Y249100D01*
X597298Y249166D01*
X597236Y249228D01*
X597170Y249288D01*
X597103Y249346D01*
X597033Y249400D01*
X596960Y249451D01*
X596886Y249499D01*
X596809Y249544D01*
X596731Y249585D01*
X596651Y249624D01*
X596570Y249658D01*
X596487Y249690D01*
X596402Y249717D01*
X596317Y249742D01*
X596231Y249762D01*
X596144Y249779D01*
X596056Y249792D01*
X595968Y249801D01*
X595880Y249807D01*
X595791Y249809D01*
X592658Y249809D01*
X588126Y249809D02*
X588126Y240411D01*
X582905Y240411D02*
X588126Y249809D01*
X582905Y249809D02*
X582905Y240411D01*
X578372Y240411D02*
X578372Y249809D01*
X575762Y249809D01*
X575662Y249807D01*
X575562Y249801D01*
X575463Y249792D01*
X575363Y249778D01*
X575265Y249761D01*
X575167Y249740D01*
X575070Y249716D01*
X574974Y249687D01*
X574879Y249655D01*
X574786Y249620D01*
X574694Y249581D01*
X574603Y249538D01*
X574515Y249492D01*
X574428Y249442D01*
X574343Y249390D01*
X574260Y249334D01*
X574179Y249275D01*
X574101Y249212D01*
X574025Y249147D01*
X573951Y249079D01*
X573881Y249009D01*
X573813Y248935D01*
X573748Y248859D01*
X573685Y248781D01*
X573626Y248700D01*
X573570Y248617D01*
X573518Y248532D01*
X573468Y248445D01*
X573422Y248357D01*
X573379Y248266D01*
X573340Y248174D01*
X573305Y248081D01*
X573273Y247986D01*
X573244Y247890D01*
X573220Y247793D01*
X573199Y247695D01*
X573182Y247597D01*
X573168Y247497D01*
X573159Y247398D01*
X573153Y247298D01*
X573151Y247198D01*
X573151Y243022D01*
X573153Y242922D01*
X573159Y242822D01*
X573168Y242723D01*
X573182Y242623D01*
X573199Y242525D01*
X573220Y242427D01*
X573244Y242330D01*
X573273Y242234D01*
X573305Y242139D01*
X573340Y242046D01*
X573379Y241954D01*
X573422Y241863D01*
X573468Y241775D01*
X573518Y241688D01*
X573570Y241603D01*
X573626Y241520D01*
X573685Y241439D01*
X573748Y241361D01*
X573813Y241285D01*
X573881Y241211D01*
X573951Y241141D01*
X574025Y241073D01*
X574101Y241008D01*
X574179Y240945D01*
X574260Y240886D01*
X574343Y240830D01*
X574428Y240778D01*
X574515Y240728D01*
X574603Y240682D01*
X574694Y240639D01*
X574786Y240600D01*
X574879Y240565D01*
X574974Y240533D01*
X575070Y240504D01*
X575167Y240480D01*
X575265Y240459D01*
X575363Y240442D01*
X575463Y240428D01*
X575562Y240419D01*
X575662Y240413D01*
X575762Y240411D01*
X578372Y240411D01*
X596248Y264541D02*
X596248Y273939D01*
X598859Y273939D02*
X593637Y273939D01*
X584581Y273939D02*
X590846Y264541D01*
X584581Y264541D02*
X590846Y273939D01*
X597606Y317881D02*
X600738Y317881D01*
X597606Y317881D02*
X597517Y317883D01*
X597429Y317889D01*
X597341Y317898D01*
X597253Y317911D01*
X597166Y317928D01*
X597080Y317948D01*
X596995Y317973D01*
X596910Y318000D01*
X596827Y318032D01*
X596746Y318066D01*
X596666Y318105D01*
X596588Y318146D01*
X596511Y318191D01*
X596437Y318239D01*
X596364Y318290D01*
X596294Y318344D01*
X596227Y318402D01*
X596161Y318462D01*
X596099Y318524D01*
X596039Y318590D01*
X595981Y318657D01*
X595927Y318727D01*
X595876Y318800D01*
X595828Y318874D01*
X595783Y318951D01*
X595742Y319029D01*
X595703Y319109D01*
X595669Y319190D01*
X595637Y319273D01*
X595610Y319358D01*
X595585Y319443D01*
X595565Y319529D01*
X595548Y319616D01*
X595535Y319704D01*
X595526Y319792D01*
X595520Y319880D01*
X595518Y319969D01*
X595517Y319969D02*
X595517Y321014D01*
X595518Y321014D02*
X595520Y321103D01*
X595526Y321191D01*
X595535Y321279D01*
X595548Y321367D01*
X595565Y321454D01*
X595585Y321540D01*
X595610Y321625D01*
X595637Y321710D01*
X595669Y321793D01*
X595703Y321874D01*
X595742Y321954D01*
X595783Y322032D01*
X595828Y322109D01*
X595876Y322183D01*
X595927Y322256D01*
X595981Y322326D01*
X596039Y322393D01*
X596099Y322459D01*
X596161Y322521D01*
X596227Y322581D01*
X596294Y322639D01*
X596364Y322693D01*
X596437Y322744D01*
X596511Y322792D01*
X596588Y322837D01*
X596666Y322878D01*
X596746Y322917D01*
X596827Y322951D01*
X596910Y322983D01*
X596995Y323010D01*
X597080Y323035D01*
X597166Y323055D01*
X597253Y323072D01*
X597341Y323085D01*
X597429Y323094D01*
X597517Y323100D01*
X597606Y323102D01*
X600738Y323102D01*
X600738Y327279D01*
X595517Y327279D01*
X592116Y327279D02*
X588984Y317881D01*
X585851Y327279D01*
X292396Y315341D02*
X292307Y315343D01*
X292219Y315349D01*
X292131Y315358D01*
X292043Y315371D01*
X291956Y315388D01*
X291870Y315408D01*
X291785Y315433D01*
X291700Y315460D01*
X291617Y315492D01*
X291536Y315526D01*
X291456Y315565D01*
X291378Y315606D01*
X291301Y315651D01*
X291227Y315699D01*
X291154Y315750D01*
X291084Y315804D01*
X291017Y315862D01*
X290951Y315922D01*
X290889Y315984D01*
X290829Y316050D01*
X290771Y316117D01*
X290717Y316187D01*
X290666Y316260D01*
X290618Y316334D01*
X290573Y316411D01*
X290532Y316489D01*
X290493Y316569D01*
X290459Y316650D01*
X290427Y316733D01*
X290400Y316818D01*
X290375Y316903D01*
X290355Y316989D01*
X290338Y317076D01*
X290325Y317164D01*
X290316Y317252D01*
X290310Y317340D01*
X290308Y317429D01*
X292396Y315341D02*
X292525Y315343D01*
X292654Y315349D01*
X292783Y315358D01*
X292911Y315371D01*
X293039Y315388D01*
X293166Y315409D01*
X293293Y315433D01*
X293419Y315461D01*
X293544Y315493D01*
X293668Y315528D01*
X293791Y315567D01*
X293913Y315610D01*
X294033Y315656D01*
X294152Y315706D01*
X294270Y315759D01*
X294386Y315815D01*
X294500Y315875D01*
X294613Y315938D01*
X294723Y316005D01*
X294832Y316074D01*
X294938Y316147D01*
X295043Y316223D01*
X295145Y316302D01*
X295245Y316384D01*
X295342Y316468D01*
X295437Y316556D01*
X295529Y316646D01*
X295268Y322651D02*
X295266Y322740D01*
X295260Y322828D01*
X295251Y322916D01*
X295238Y323004D01*
X295221Y323091D01*
X295201Y323177D01*
X295176Y323262D01*
X295149Y323347D01*
X295117Y323430D01*
X295083Y323511D01*
X295044Y323591D01*
X295003Y323669D01*
X294958Y323746D01*
X294910Y323820D01*
X294859Y323893D01*
X294805Y323963D01*
X294747Y324030D01*
X294687Y324096D01*
X294625Y324158D01*
X294559Y324218D01*
X294492Y324276D01*
X294422Y324330D01*
X294349Y324381D01*
X294275Y324429D01*
X294198Y324474D01*
X294120Y324515D01*
X294040Y324554D01*
X293959Y324588D01*
X293876Y324620D01*
X293791Y324647D01*
X293706Y324672D01*
X293620Y324692D01*
X293533Y324709D01*
X293445Y324722D01*
X293357Y324731D01*
X293269Y324737D01*
X293180Y324739D01*
X293060Y324737D01*
X292940Y324732D01*
X292821Y324722D01*
X292701Y324710D01*
X292582Y324693D01*
X292464Y324673D01*
X292346Y324649D01*
X292230Y324622D01*
X292114Y324591D01*
X291999Y324557D01*
X291885Y324519D01*
X291772Y324477D01*
X291661Y324432D01*
X291551Y324384D01*
X291443Y324333D01*
X291336Y324278D01*
X291231Y324220D01*
X291128Y324158D01*
X291027Y324094D01*
X290927Y324026D01*
X290830Y323956D01*
X294224Y320824D02*
X294302Y320872D01*
X294378Y320924D01*
X294451Y320978D01*
X294522Y321036D01*
X294591Y321097D01*
X294657Y321161D01*
X294720Y321228D01*
X294780Y321297D01*
X294837Y321369D01*
X294891Y321443D01*
X294941Y321520D01*
X294989Y321599D01*
X295032Y321679D01*
X295073Y321762D01*
X295109Y321846D01*
X295142Y321931D01*
X295171Y322018D01*
X295197Y322107D01*
X295219Y322196D01*
X295236Y322286D01*
X295250Y322376D01*
X295260Y322468D01*
X295266Y322559D01*
X295268Y322651D01*
X291352Y319256D02*
X291274Y319208D01*
X291198Y319156D01*
X291125Y319102D01*
X291054Y319044D01*
X290985Y318983D01*
X290919Y318919D01*
X290856Y318852D01*
X290796Y318783D01*
X290739Y318711D01*
X290685Y318637D01*
X290635Y318560D01*
X290587Y318481D01*
X290544Y318401D01*
X290503Y318318D01*
X290467Y318234D01*
X290434Y318149D01*
X290405Y318062D01*
X290379Y317973D01*
X290357Y317884D01*
X290340Y317794D01*
X290326Y317704D01*
X290316Y317612D01*
X290310Y317521D01*
X290308Y317429D01*
X291352Y319257D02*
X294224Y320823D01*
X286385Y324739D02*
X286385Y315341D01*
X286385Y324739D02*
X283775Y324739D01*
X283675Y324737D01*
X283575Y324731D01*
X283476Y324722D01*
X283376Y324708D01*
X283278Y324691D01*
X283180Y324670D01*
X283083Y324646D01*
X282987Y324617D01*
X282892Y324585D01*
X282799Y324550D01*
X282707Y324511D01*
X282616Y324468D01*
X282528Y324422D01*
X282441Y324372D01*
X282356Y324320D01*
X282273Y324264D01*
X282192Y324205D01*
X282114Y324142D01*
X282038Y324077D01*
X281964Y324009D01*
X281894Y323939D01*
X281826Y323865D01*
X281761Y323789D01*
X281698Y323711D01*
X281639Y323630D01*
X281583Y323547D01*
X281531Y323462D01*
X281481Y323375D01*
X281435Y323287D01*
X281392Y323196D01*
X281353Y323104D01*
X281318Y323011D01*
X281286Y322916D01*
X281257Y322820D01*
X281233Y322723D01*
X281212Y322625D01*
X281195Y322527D01*
X281181Y322427D01*
X281172Y322328D01*
X281166Y322228D01*
X281164Y322128D01*
X281164Y317952D01*
X281166Y317852D01*
X281172Y317752D01*
X281181Y317653D01*
X281195Y317553D01*
X281212Y317455D01*
X281233Y317357D01*
X281257Y317260D01*
X281286Y317164D01*
X281318Y317069D01*
X281353Y316976D01*
X281392Y316884D01*
X281435Y316793D01*
X281481Y316705D01*
X281531Y316618D01*
X281583Y316533D01*
X281639Y316450D01*
X281698Y316369D01*
X281761Y316291D01*
X281826Y316215D01*
X281894Y316141D01*
X281964Y316071D01*
X282038Y316003D01*
X282114Y315938D01*
X282192Y315875D01*
X282273Y315816D01*
X282356Y315760D01*
X282441Y315708D01*
X282528Y315658D01*
X282616Y315612D01*
X282707Y315569D01*
X282799Y315530D01*
X282892Y315495D01*
X282987Y315463D01*
X283083Y315434D01*
X283180Y315410D01*
X283278Y315389D01*
X283376Y315372D01*
X283476Y315358D01*
X283575Y315349D01*
X283675Y315343D01*
X283775Y315341D01*
X286385Y315341D01*
X277458Y315341D02*
X274326Y324739D01*
X271193Y315341D01*
X271976Y317691D02*
X276675Y317691D01*
X290308Y294569D02*
X290310Y294480D01*
X290316Y294392D01*
X290325Y294304D01*
X290338Y294216D01*
X290355Y294129D01*
X290375Y294043D01*
X290400Y293958D01*
X290427Y293873D01*
X290459Y293790D01*
X290493Y293709D01*
X290532Y293629D01*
X290573Y293551D01*
X290618Y293474D01*
X290666Y293400D01*
X290717Y293327D01*
X290771Y293257D01*
X290829Y293190D01*
X290889Y293124D01*
X290951Y293062D01*
X291017Y293002D01*
X291084Y292944D01*
X291154Y292890D01*
X291227Y292839D01*
X291301Y292791D01*
X291378Y292746D01*
X291456Y292705D01*
X291536Y292666D01*
X291617Y292632D01*
X291700Y292600D01*
X291785Y292573D01*
X291870Y292548D01*
X291956Y292528D01*
X292043Y292511D01*
X292131Y292498D01*
X292219Y292489D01*
X292307Y292483D01*
X292396Y292481D01*
X292525Y292483D01*
X292654Y292489D01*
X292783Y292498D01*
X292911Y292511D01*
X293039Y292528D01*
X293166Y292549D01*
X293293Y292573D01*
X293419Y292601D01*
X293544Y292633D01*
X293668Y292668D01*
X293791Y292707D01*
X293913Y292750D01*
X294033Y292796D01*
X294152Y292846D01*
X294270Y292899D01*
X294386Y292955D01*
X294500Y293015D01*
X294613Y293078D01*
X294723Y293145D01*
X294832Y293214D01*
X294938Y293287D01*
X295043Y293363D01*
X295145Y293442D01*
X295245Y293524D01*
X295342Y293608D01*
X295437Y293696D01*
X295529Y293786D01*
X295268Y299791D02*
X295266Y299880D01*
X295260Y299968D01*
X295251Y300056D01*
X295238Y300144D01*
X295221Y300231D01*
X295201Y300317D01*
X295176Y300402D01*
X295149Y300487D01*
X295117Y300570D01*
X295083Y300651D01*
X295044Y300731D01*
X295003Y300809D01*
X294958Y300886D01*
X294910Y300960D01*
X294859Y301033D01*
X294805Y301103D01*
X294747Y301170D01*
X294687Y301236D01*
X294625Y301298D01*
X294559Y301358D01*
X294492Y301416D01*
X294422Y301470D01*
X294349Y301521D01*
X294275Y301569D01*
X294198Y301614D01*
X294120Y301655D01*
X294040Y301694D01*
X293959Y301728D01*
X293876Y301760D01*
X293791Y301787D01*
X293706Y301812D01*
X293620Y301832D01*
X293533Y301849D01*
X293445Y301862D01*
X293357Y301871D01*
X293269Y301877D01*
X293180Y301879D01*
X293060Y301877D01*
X292940Y301872D01*
X292821Y301862D01*
X292701Y301850D01*
X292582Y301833D01*
X292464Y301813D01*
X292346Y301789D01*
X292230Y301762D01*
X292114Y301731D01*
X291999Y301697D01*
X291885Y301659D01*
X291772Y301617D01*
X291661Y301572D01*
X291551Y301524D01*
X291443Y301473D01*
X291336Y301418D01*
X291231Y301360D01*
X291128Y301298D01*
X291027Y301234D01*
X290927Y301166D01*
X290830Y301096D01*
X294224Y297964D02*
X294302Y298012D01*
X294378Y298064D01*
X294451Y298118D01*
X294522Y298176D01*
X294591Y298237D01*
X294657Y298301D01*
X294720Y298368D01*
X294780Y298437D01*
X294837Y298509D01*
X294891Y298583D01*
X294941Y298660D01*
X294989Y298739D01*
X295032Y298819D01*
X295073Y298902D01*
X295109Y298986D01*
X295142Y299071D01*
X295171Y299158D01*
X295197Y299247D01*
X295219Y299336D01*
X295236Y299426D01*
X295250Y299516D01*
X295260Y299608D01*
X295266Y299699D01*
X295268Y299791D01*
X291352Y296396D02*
X291274Y296348D01*
X291198Y296296D01*
X291125Y296242D01*
X291054Y296184D01*
X290985Y296123D01*
X290919Y296059D01*
X290856Y295992D01*
X290796Y295923D01*
X290739Y295851D01*
X290685Y295777D01*
X290635Y295700D01*
X290587Y295621D01*
X290544Y295541D01*
X290503Y295458D01*
X290467Y295374D01*
X290434Y295289D01*
X290405Y295202D01*
X290379Y295113D01*
X290357Y295024D01*
X290340Y294934D01*
X290326Y294844D01*
X290316Y294752D01*
X290310Y294661D01*
X290308Y294569D01*
X291352Y296397D02*
X294224Y297963D01*
X284627Y292481D02*
X282539Y292481D01*
X284627Y292481D02*
X284716Y292483D01*
X284804Y292489D01*
X284892Y292498D01*
X284980Y292511D01*
X285067Y292528D01*
X285153Y292548D01*
X285238Y292573D01*
X285323Y292600D01*
X285406Y292632D01*
X285487Y292666D01*
X285567Y292705D01*
X285645Y292746D01*
X285722Y292791D01*
X285796Y292839D01*
X285869Y292890D01*
X285939Y292944D01*
X286006Y293002D01*
X286072Y293062D01*
X286134Y293124D01*
X286194Y293190D01*
X286252Y293257D01*
X286306Y293327D01*
X286357Y293400D01*
X286405Y293474D01*
X286450Y293551D01*
X286491Y293629D01*
X286530Y293709D01*
X286564Y293790D01*
X286596Y293873D01*
X286623Y293958D01*
X286648Y294043D01*
X286668Y294129D01*
X286685Y294216D01*
X286698Y294304D01*
X286707Y294392D01*
X286713Y294480D01*
X286715Y294569D01*
X286716Y294569D02*
X286716Y299791D01*
X286715Y299791D02*
X286713Y299880D01*
X286707Y299968D01*
X286698Y300056D01*
X286685Y300144D01*
X286668Y300231D01*
X286648Y300317D01*
X286623Y300402D01*
X286596Y300487D01*
X286564Y300570D01*
X286530Y300651D01*
X286491Y300731D01*
X286450Y300809D01*
X286405Y300886D01*
X286357Y300960D01*
X286306Y301033D01*
X286252Y301103D01*
X286194Y301170D01*
X286134Y301236D01*
X286072Y301298D01*
X286006Y301358D01*
X285939Y301416D01*
X285869Y301470D01*
X285796Y301521D01*
X285722Y301569D01*
X285645Y301614D01*
X285567Y301655D01*
X285487Y301694D01*
X285406Y301728D01*
X285323Y301760D01*
X285238Y301787D01*
X285153Y301812D01*
X285067Y301832D01*
X284980Y301849D01*
X284892Y301862D01*
X284804Y301871D01*
X284716Y301877D01*
X284627Y301879D01*
X282539Y301879D01*
X278748Y301879D02*
X278748Y292481D01*
X274571Y292481D01*
D11*
X588304Y475766D02*
X589701Y475766D01*
X588304Y475766D02*
X588304Y471109D01*
X591098Y471109D01*
X591182Y471111D01*
X591265Y471117D01*
X591348Y471126D01*
X591431Y471139D01*
X591513Y471156D01*
X591594Y471176D01*
X591674Y471200D01*
X591753Y471228D01*
X591830Y471259D01*
X591906Y471293D01*
X591981Y471331D01*
X592054Y471373D01*
X592124Y471417D01*
X592193Y471465D01*
X592260Y471515D01*
X592324Y471569D01*
X592385Y471625D01*
X592445Y471685D01*
X592501Y471746D01*
X592555Y471810D01*
X592605Y471877D01*
X592653Y471946D01*
X592697Y472016D01*
X592739Y472089D01*
X592777Y472164D01*
X592811Y472240D01*
X592842Y472317D01*
X592870Y472396D01*
X592894Y472476D01*
X592914Y472557D01*
X592931Y472639D01*
X592944Y472722D01*
X592954Y472805D01*
X592959Y472888D01*
X592961Y472972D01*
X592961Y477628D01*
X592959Y477714D01*
X592953Y477800D01*
X592943Y477885D01*
X592929Y477970D01*
X592912Y478055D01*
X592890Y478138D01*
X592864Y478220D01*
X592835Y478301D01*
X592802Y478380D01*
X592766Y478458D01*
X592726Y478535D01*
X592682Y478609D01*
X592635Y478681D01*
X592585Y478751D01*
X592531Y478818D01*
X592475Y478883D01*
X592415Y478945D01*
X592353Y479005D01*
X592288Y479061D01*
X592221Y479115D01*
X592151Y479165D01*
X592079Y479212D01*
X592005Y479256D01*
X591928Y479296D01*
X591851Y479332D01*
X591771Y479365D01*
X591690Y479394D01*
X591608Y479420D01*
X591525Y479442D01*
X591440Y479459D01*
X591355Y479473D01*
X591270Y479483D01*
X591184Y479489D01*
X591098Y479491D01*
X588304Y479491D01*
X583207Y479491D02*
X583207Y471109D01*
X578551Y471109D02*
X583207Y479491D01*
X578551Y479491D02*
X578551Y471109D01*
X573454Y471109D02*
X573454Y479491D01*
X571126Y479491D01*
X571030Y479489D01*
X570934Y479483D01*
X570838Y479473D01*
X570743Y479459D01*
X570648Y479441D01*
X570555Y479420D01*
X570462Y479394D01*
X570370Y479365D01*
X570280Y479332D01*
X570191Y479295D01*
X570104Y479254D01*
X570018Y479210D01*
X569934Y479163D01*
X569853Y479112D01*
X569773Y479058D01*
X569696Y479000D01*
X569621Y478939D01*
X569549Y478876D01*
X569480Y478809D01*
X569413Y478740D01*
X569350Y478668D01*
X569289Y478593D01*
X569231Y478516D01*
X569177Y478436D01*
X569126Y478355D01*
X569079Y478271D01*
X569035Y478185D01*
X568994Y478098D01*
X568957Y478009D01*
X568924Y477919D01*
X568895Y477827D01*
X568869Y477735D01*
X568848Y477641D01*
X568830Y477546D01*
X568816Y477451D01*
X568806Y477355D01*
X568800Y477259D01*
X568798Y477163D01*
X568797Y477163D02*
X568797Y473437D01*
X568799Y473343D01*
X568805Y473250D01*
X568814Y473156D01*
X568827Y473064D01*
X568844Y472971D01*
X568865Y472880D01*
X568889Y472789D01*
X568917Y472700D01*
X568948Y472611D01*
X568983Y472524D01*
X569022Y472439D01*
X569064Y472355D01*
X569109Y472273D01*
X569157Y472193D01*
X569209Y472115D01*
X569264Y472038D01*
X569322Y471965D01*
X569382Y471893D01*
X569446Y471824D01*
X569512Y471758D01*
X569581Y471694D01*
X569653Y471634D01*
X569726Y471576D01*
X569803Y471521D01*
X569881Y471469D01*
X569961Y471421D01*
X570043Y471376D01*
X570127Y471334D01*
X570213Y471295D01*
X570300Y471260D01*
X570388Y471229D01*
X570477Y471201D01*
X570568Y471177D01*
X570659Y471156D01*
X570752Y471139D01*
X570844Y471126D01*
X570938Y471117D01*
X571031Y471111D01*
X571125Y471109D01*
X571126Y471109D02*
X573454Y471109D01*
X661287Y469839D02*
X664081Y469839D01*
X661287Y469839D02*
X661203Y469841D01*
X661120Y469846D01*
X661037Y469856D01*
X660954Y469869D01*
X660872Y469886D01*
X660791Y469906D01*
X660711Y469930D01*
X660632Y469958D01*
X660555Y469989D01*
X660479Y470023D01*
X660404Y470061D01*
X660331Y470103D01*
X660261Y470147D01*
X660192Y470195D01*
X660125Y470245D01*
X660061Y470299D01*
X660000Y470355D01*
X659940Y470415D01*
X659884Y470476D01*
X659830Y470540D01*
X659780Y470607D01*
X659732Y470676D01*
X659688Y470746D01*
X659646Y470819D01*
X659608Y470894D01*
X659574Y470970D01*
X659543Y471047D01*
X659515Y471126D01*
X659491Y471206D01*
X659471Y471287D01*
X659454Y471369D01*
X659441Y471452D01*
X659431Y471535D01*
X659426Y471618D01*
X659424Y471702D01*
X659424Y472633D01*
X659426Y472717D01*
X659432Y472800D01*
X659441Y472883D01*
X659454Y472966D01*
X659471Y473048D01*
X659491Y473129D01*
X659515Y473209D01*
X659543Y473288D01*
X659574Y473365D01*
X659608Y473441D01*
X659646Y473516D01*
X659688Y473589D01*
X659732Y473659D01*
X659780Y473728D01*
X659830Y473795D01*
X659884Y473859D01*
X659940Y473920D01*
X660000Y473980D01*
X660061Y474036D01*
X660125Y474090D01*
X660192Y474140D01*
X660261Y474188D01*
X660331Y474232D01*
X660404Y474274D01*
X660479Y474312D01*
X660555Y474346D01*
X660632Y474377D01*
X660711Y474405D01*
X660791Y474429D01*
X660872Y474449D01*
X660954Y474466D01*
X661037Y474479D01*
X661120Y474489D01*
X661203Y474494D01*
X661287Y474496D01*
X664081Y474496D01*
X664081Y478221D01*
X659424Y478221D01*
X655403Y478221D02*
X652609Y469839D01*
X649815Y478221D01*
D12*
X621030Y483870D02*
X621030Y513080D01*
X612140Y513080D01*
X621030Y513080D02*
X629920Y513080D01*
X615950Y488950D02*
X621030Y483870D01*
X626110Y488950D01*
D11*
X664081Y524449D02*
X664081Y532831D01*
X661753Y532831D01*
X661668Y532829D01*
X661584Y532823D01*
X661499Y532814D01*
X661416Y532800D01*
X661333Y532783D01*
X661250Y532762D01*
X661169Y532737D01*
X661089Y532709D01*
X661011Y532677D01*
X660934Y532641D01*
X660858Y532602D01*
X660785Y532560D01*
X660714Y532514D01*
X660644Y532465D01*
X660577Y532413D01*
X660513Y532358D01*
X660451Y532300D01*
X660391Y532240D01*
X660335Y532176D01*
X660281Y532111D01*
X660231Y532042D01*
X660184Y531972D01*
X660140Y531900D01*
X660099Y531825D01*
X660062Y531749D01*
X660028Y531671D01*
X659998Y531592D01*
X659971Y531511D01*
X659948Y531430D01*
X659929Y531347D01*
X659914Y531264D01*
X659902Y531180D01*
X659894Y531095D01*
X659890Y531010D01*
X659890Y530926D01*
X659894Y530841D01*
X659902Y530756D01*
X659914Y530672D01*
X659929Y530589D01*
X659948Y530506D01*
X659971Y530425D01*
X659998Y530344D01*
X660028Y530265D01*
X660062Y530187D01*
X660099Y530111D01*
X660140Y530037D01*
X660184Y529964D01*
X660231Y529894D01*
X660281Y529825D01*
X660335Y529760D01*
X660391Y529696D01*
X660451Y529636D01*
X660513Y529578D01*
X660577Y529523D01*
X660644Y529471D01*
X660714Y529422D01*
X660785Y529376D01*
X660858Y529334D01*
X660934Y529295D01*
X661011Y529259D01*
X661089Y529227D01*
X661169Y529199D01*
X661250Y529174D01*
X661333Y529153D01*
X661416Y529136D01*
X661499Y529122D01*
X661584Y529113D01*
X661668Y529107D01*
X661753Y529105D01*
X661753Y529106D02*
X664081Y529106D01*
X664081Y524449D02*
X661753Y524449D01*
X661658Y524451D01*
X661563Y524457D01*
X661469Y524466D01*
X661375Y524480D01*
X661281Y524497D01*
X661189Y524518D01*
X661097Y524543D01*
X661007Y524572D01*
X660917Y524604D01*
X660829Y524640D01*
X660743Y524680D01*
X660658Y524722D01*
X660575Y524769D01*
X660494Y524819D01*
X660416Y524872D01*
X660339Y524928D01*
X660265Y524987D01*
X660193Y525049D01*
X660124Y525114D01*
X660057Y525182D01*
X659994Y525252D01*
X659933Y525326D01*
X659875Y525401D01*
X659821Y525479D01*
X659769Y525559D01*
X659721Y525641D01*
X659677Y525724D01*
X659635Y525810D01*
X659598Y525897D01*
X659564Y525986D01*
X659533Y526076D01*
X659506Y526167D01*
X659483Y526259D01*
X659464Y526352D01*
X659449Y526446D01*
X659437Y526540D01*
X659429Y526635D01*
X659425Y526730D01*
X659425Y526824D01*
X659429Y526919D01*
X659437Y527014D01*
X659449Y527108D01*
X659464Y527202D01*
X659483Y527295D01*
X659506Y527387D01*
X659533Y527478D01*
X659564Y527568D01*
X659598Y527657D01*
X659635Y527744D01*
X659677Y527830D01*
X659721Y527913D01*
X659769Y527995D01*
X659821Y528075D01*
X659875Y528153D01*
X659933Y528228D01*
X659994Y528302D01*
X660057Y528372D01*
X660124Y528440D01*
X660193Y528505D01*
X660265Y528567D01*
X660339Y528626D01*
X660416Y528682D01*
X660494Y528735D01*
X660575Y528785D01*
X660658Y528832D01*
X660743Y528874D01*
X660829Y528914D01*
X660917Y528950D01*
X661007Y528982D01*
X661097Y529011D01*
X661189Y529036D01*
X661281Y529057D01*
X661375Y529074D01*
X661469Y529088D01*
X661563Y529097D01*
X661658Y529103D01*
X661753Y529105D01*
X650069Y530037D02*
X650069Y524449D01*
X654726Y524449D02*
X654726Y530037D01*
X654726Y524449D02*
X653329Y524449D01*
X653256Y524451D01*
X653183Y524457D01*
X653110Y524466D01*
X653039Y524480D01*
X652967Y524497D01*
X652897Y524517D01*
X652828Y524542D01*
X652761Y524570D01*
X652695Y524601D01*
X652631Y524636D01*
X652568Y524674D01*
X652508Y524716D01*
X652450Y524760D01*
X652394Y524808D01*
X652341Y524858D01*
X652291Y524911D01*
X652243Y524967D01*
X652199Y525025D01*
X652157Y525085D01*
X652119Y525148D01*
X652084Y525212D01*
X652053Y525278D01*
X652025Y525345D01*
X652000Y525414D01*
X651980Y525484D01*
X651963Y525556D01*
X651949Y525627D01*
X651940Y525700D01*
X651934Y525773D01*
X651932Y525846D01*
X651934Y525919D01*
X651940Y525992D01*
X651949Y526065D01*
X651963Y526136D01*
X651980Y526208D01*
X652000Y526278D01*
X652025Y526347D01*
X652053Y526414D01*
X652084Y526480D01*
X652119Y526545D01*
X652157Y526607D01*
X652199Y526667D01*
X652243Y526725D01*
X652291Y526781D01*
X652341Y526834D01*
X652394Y526884D01*
X652450Y526932D01*
X652508Y526976D01*
X652568Y527018D01*
X652631Y527056D01*
X652695Y527091D01*
X652761Y527122D01*
X652828Y527150D01*
X652897Y527175D01*
X652967Y527195D01*
X653039Y527212D01*
X653110Y527226D01*
X653183Y527235D01*
X653256Y527241D01*
X653329Y527243D01*
X654726Y527243D01*
X643644Y532831D02*
X641782Y532831D01*
X643644Y532831D02*
X643717Y532829D01*
X643790Y532823D01*
X643863Y532814D01*
X643934Y532800D01*
X644006Y532783D01*
X644076Y532763D01*
X644145Y532738D01*
X644212Y532710D01*
X644278Y532679D01*
X644343Y532644D01*
X644405Y532606D01*
X644465Y532564D01*
X644523Y532520D01*
X644579Y532472D01*
X644632Y532422D01*
X644682Y532369D01*
X644730Y532313D01*
X644774Y532255D01*
X644816Y532195D01*
X644854Y532133D01*
X644889Y532068D01*
X644920Y532002D01*
X644948Y531935D01*
X644973Y531866D01*
X644993Y531796D01*
X645010Y531724D01*
X645024Y531653D01*
X645033Y531580D01*
X645039Y531507D01*
X645041Y531434D01*
X645041Y526312D01*
X645042Y526312D02*
X645040Y526227D01*
X645034Y526143D01*
X645025Y526058D01*
X645011Y525975D01*
X644994Y525892D01*
X644973Y525809D01*
X644948Y525728D01*
X644920Y525648D01*
X644888Y525570D01*
X644852Y525493D01*
X644813Y525417D01*
X644771Y525344D01*
X644725Y525273D01*
X644676Y525203D01*
X644624Y525136D01*
X644569Y525072D01*
X644511Y525010D01*
X644451Y524950D01*
X644387Y524894D01*
X644322Y524840D01*
X644253Y524790D01*
X644183Y524743D01*
X644111Y524699D01*
X644036Y524658D01*
X643960Y524621D01*
X643882Y524587D01*
X643803Y524557D01*
X643722Y524530D01*
X643641Y524507D01*
X643558Y524488D01*
X643475Y524473D01*
X643391Y524461D01*
X643306Y524453D01*
X643221Y524449D01*
X643137Y524449D01*
X643052Y524453D01*
X642967Y524461D01*
X642883Y524473D01*
X642800Y524488D01*
X642717Y524507D01*
X642636Y524530D01*
X642555Y524557D01*
X642476Y524587D01*
X642398Y524621D01*
X642322Y524658D01*
X642248Y524699D01*
X642175Y524743D01*
X642105Y524790D01*
X642036Y524840D01*
X641971Y524894D01*
X641907Y524950D01*
X641847Y525010D01*
X641789Y525072D01*
X641734Y525136D01*
X641682Y525203D01*
X641633Y525273D01*
X641587Y525344D01*
X641545Y525417D01*
X641506Y525493D01*
X641470Y525570D01*
X641438Y525648D01*
X641410Y525728D01*
X641385Y525809D01*
X641364Y525892D01*
X641347Y525975D01*
X641333Y526058D01*
X641324Y526143D01*
X641318Y526227D01*
X641316Y526312D01*
X641316Y528174D01*
X641318Y528259D01*
X641324Y528343D01*
X641333Y528428D01*
X641347Y528511D01*
X641364Y528594D01*
X641385Y528677D01*
X641410Y528758D01*
X641438Y528838D01*
X641470Y528916D01*
X641506Y528993D01*
X641545Y529069D01*
X641587Y529142D01*
X641633Y529213D01*
X641682Y529283D01*
X641734Y529350D01*
X641789Y529414D01*
X641847Y529476D01*
X641907Y529536D01*
X641971Y529592D01*
X642036Y529646D01*
X642105Y529696D01*
X642175Y529743D01*
X642248Y529787D01*
X642322Y529828D01*
X642398Y529865D01*
X642476Y529899D01*
X642555Y529929D01*
X642636Y529956D01*
X642717Y529979D01*
X642800Y529998D01*
X642883Y530013D01*
X642967Y530025D01*
X643052Y530033D01*
X643137Y530037D01*
X643221Y530037D01*
X643306Y530033D01*
X643391Y530025D01*
X643475Y530013D01*
X643558Y529998D01*
X643641Y529979D01*
X643722Y529956D01*
X643803Y529929D01*
X643882Y529899D01*
X643960Y529865D01*
X644036Y529828D01*
X644111Y529787D01*
X644183Y529743D01*
X644253Y529696D01*
X644322Y529646D01*
X644387Y529592D01*
X644451Y529536D01*
X644511Y529476D01*
X644569Y529414D01*
X644624Y529350D01*
X644676Y529283D01*
X644725Y529213D01*
X644771Y529142D01*
X644813Y529069D01*
X644852Y528993D01*
X644888Y528916D01*
X644920Y528838D01*
X644948Y528758D01*
X644973Y528677D01*
X644994Y528594D01*
X645011Y528511D01*
X645025Y528428D01*
X645034Y528343D01*
X645040Y528259D01*
X645042Y528174D01*
X637192Y528174D02*
X637192Y526312D01*
X637192Y528174D02*
X637190Y528259D01*
X637184Y528343D01*
X637175Y528428D01*
X637161Y528511D01*
X637144Y528594D01*
X637123Y528677D01*
X637098Y528758D01*
X637070Y528838D01*
X637038Y528916D01*
X637002Y528993D01*
X636963Y529069D01*
X636921Y529142D01*
X636875Y529213D01*
X636826Y529283D01*
X636774Y529350D01*
X636719Y529414D01*
X636661Y529476D01*
X636601Y529536D01*
X636537Y529592D01*
X636472Y529646D01*
X636403Y529696D01*
X636333Y529743D01*
X636261Y529787D01*
X636186Y529828D01*
X636110Y529865D01*
X636032Y529899D01*
X635953Y529929D01*
X635872Y529956D01*
X635791Y529979D01*
X635708Y529998D01*
X635625Y530013D01*
X635541Y530025D01*
X635456Y530033D01*
X635371Y530037D01*
X635287Y530037D01*
X635202Y530033D01*
X635117Y530025D01*
X635033Y530013D01*
X634950Y529998D01*
X634867Y529979D01*
X634786Y529956D01*
X634705Y529929D01*
X634626Y529899D01*
X634548Y529865D01*
X634472Y529828D01*
X634398Y529787D01*
X634325Y529743D01*
X634255Y529696D01*
X634186Y529646D01*
X634121Y529592D01*
X634057Y529536D01*
X633997Y529476D01*
X633939Y529414D01*
X633884Y529350D01*
X633832Y529283D01*
X633783Y529213D01*
X633737Y529142D01*
X633695Y529069D01*
X633656Y528993D01*
X633620Y528916D01*
X633588Y528838D01*
X633560Y528758D01*
X633535Y528677D01*
X633514Y528594D01*
X633497Y528511D01*
X633483Y528428D01*
X633474Y528343D01*
X633468Y528259D01*
X633466Y528174D01*
X633466Y526312D01*
X633468Y526227D01*
X633474Y526143D01*
X633483Y526058D01*
X633497Y525975D01*
X633514Y525892D01*
X633535Y525809D01*
X633560Y525728D01*
X633588Y525648D01*
X633620Y525570D01*
X633656Y525493D01*
X633695Y525417D01*
X633737Y525344D01*
X633783Y525273D01*
X633832Y525203D01*
X633884Y525136D01*
X633939Y525072D01*
X633997Y525010D01*
X634057Y524950D01*
X634121Y524894D01*
X634186Y524840D01*
X634255Y524790D01*
X634325Y524743D01*
X634398Y524699D01*
X634472Y524658D01*
X634548Y524621D01*
X634626Y524587D01*
X634705Y524557D01*
X634786Y524530D01*
X634867Y524507D01*
X634950Y524488D01*
X635033Y524473D01*
X635117Y524461D01*
X635202Y524453D01*
X635287Y524449D01*
X635371Y524449D01*
X635456Y524453D01*
X635541Y524461D01*
X635625Y524473D01*
X635708Y524488D01*
X635791Y524507D01*
X635872Y524530D01*
X635953Y524557D01*
X636032Y524587D01*
X636110Y524621D01*
X636186Y524658D01*
X636261Y524699D01*
X636333Y524743D01*
X636403Y524790D01*
X636472Y524840D01*
X636537Y524894D01*
X636601Y524950D01*
X636661Y525010D01*
X636719Y525072D01*
X636774Y525136D01*
X636826Y525203D01*
X636875Y525273D01*
X636921Y525344D01*
X636963Y525417D01*
X637002Y525493D01*
X637038Y525570D01*
X637070Y525648D01*
X637098Y525728D01*
X637123Y525809D01*
X637144Y525892D01*
X637161Y525975D01*
X637175Y526058D01*
X637184Y526143D01*
X637190Y526227D01*
X637192Y526312D01*
X628887Y530037D02*
X628887Y521655D01*
X628887Y530037D02*
X626559Y530037D01*
X626486Y530035D01*
X626413Y530029D01*
X626340Y530020D01*
X626269Y530006D01*
X626197Y529989D01*
X626127Y529969D01*
X626058Y529944D01*
X625991Y529916D01*
X625925Y529885D01*
X625861Y529850D01*
X625798Y529812D01*
X625738Y529770D01*
X625680Y529726D01*
X625624Y529678D01*
X625571Y529628D01*
X625521Y529575D01*
X625473Y529519D01*
X625429Y529461D01*
X625387Y529401D01*
X625349Y529339D01*
X625314Y529274D01*
X625283Y529208D01*
X625255Y529141D01*
X625230Y529072D01*
X625210Y529002D01*
X625193Y528930D01*
X625179Y528859D01*
X625170Y528786D01*
X625164Y528713D01*
X625162Y528640D01*
X625162Y525846D01*
X625164Y525773D01*
X625170Y525700D01*
X625179Y525627D01*
X625193Y525556D01*
X625210Y525484D01*
X625230Y525414D01*
X625255Y525345D01*
X625283Y525278D01*
X625314Y525212D01*
X625349Y525148D01*
X625387Y525085D01*
X625429Y525025D01*
X625473Y524967D01*
X625521Y524911D01*
X625571Y524858D01*
X625624Y524808D01*
X625680Y524760D01*
X625738Y524716D01*
X625798Y524674D01*
X625861Y524636D01*
X625925Y524601D01*
X625991Y524570D01*
X626058Y524542D01*
X626127Y524517D01*
X626197Y524497D01*
X626269Y524480D01*
X626340Y524466D01*
X626413Y524457D01*
X626486Y524451D01*
X626559Y524449D01*
X628887Y524449D01*
X615712Y524449D02*
X615712Y530037D01*
X613384Y526777D01*
X611055Y530037D01*
X611055Y524449D01*
X606407Y526312D02*
X606407Y528174D01*
X606405Y528259D01*
X606399Y528343D01*
X606390Y528428D01*
X606376Y528511D01*
X606359Y528594D01*
X606338Y528677D01*
X606313Y528758D01*
X606285Y528838D01*
X606253Y528916D01*
X606217Y528993D01*
X606178Y529069D01*
X606136Y529142D01*
X606090Y529213D01*
X606041Y529283D01*
X605989Y529350D01*
X605934Y529414D01*
X605876Y529476D01*
X605816Y529536D01*
X605752Y529592D01*
X605687Y529646D01*
X605618Y529696D01*
X605548Y529743D01*
X605476Y529787D01*
X605401Y529828D01*
X605325Y529865D01*
X605247Y529899D01*
X605168Y529929D01*
X605087Y529956D01*
X605006Y529979D01*
X604923Y529998D01*
X604840Y530013D01*
X604756Y530025D01*
X604671Y530033D01*
X604586Y530037D01*
X604502Y530037D01*
X604417Y530033D01*
X604332Y530025D01*
X604248Y530013D01*
X604165Y529998D01*
X604082Y529979D01*
X604001Y529956D01*
X603920Y529929D01*
X603841Y529899D01*
X603763Y529865D01*
X603687Y529828D01*
X603613Y529787D01*
X603540Y529743D01*
X603470Y529696D01*
X603401Y529646D01*
X603336Y529592D01*
X603272Y529536D01*
X603212Y529476D01*
X603154Y529414D01*
X603099Y529350D01*
X603047Y529283D01*
X602998Y529213D01*
X602952Y529142D01*
X602910Y529069D01*
X602871Y528993D01*
X602835Y528916D01*
X602803Y528838D01*
X602775Y528758D01*
X602750Y528677D01*
X602729Y528594D01*
X602712Y528511D01*
X602698Y528428D01*
X602689Y528343D01*
X602683Y528259D01*
X602681Y528174D01*
X602682Y528174D02*
X602682Y526312D01*
X602681Y526312D02*
X602683Y526227D01*
X602689Y526143D01*
X602698Y526058D01*
X602712Y525975D01*
X602729Y525892D01*
X602750Y525809D01*
X602775Y525728D01*
X602803Y525648D01*
X602835Y525570D01*
X602871Y525493D01*
X602910Y525417D01*
X602952Y525344D01*
X602998Y525273D01*
X603047Y525203D01*
X603099Y525136D01*
X603154Y525072D01*
X603212Y525010D01*
X603272Y524950D01*
X603336Y524894D01*
X603401Y524840D01*
X603470Y524790D01*
X603540Y524743D01*
X603613Y524699D01*
X603687Y524658D01*
X603763Y524621D01*
X603841Y524587D01*
X603920Y524557D01*
X604001Y524530D01*
X604082Y524507D01*
X604165Y524488D01*
X604248Y524473D01*
X604332Y524461D01*
X604417Y524453D01*
X604502Y524449D01*
X604586Y524449D01*
X604671Y524453D01*
X604756Y524461D01*
X604840Y524473D01*
X604923Y524488D01*
X605006Y524507D01*
X605087Y524530D01*
X605168Y524557D01*
X605247Y524587D01*
X605325Y524621D01*
X605401Y524658D01*
X605476Y524699D01*
X605548Y524743D01*
X605618Y524790D01*
X605687Y524840D01*
X605752Y524894D01*
X605816Y524950D01*
X605876Y525010D01*
X605934Y525072D01*
X605989Y525136D01*
X606041Y525203D01*
X606090Y525273D01*
X606136Y525344D01*
X606178Y525417D01*
X606217Y525493D01*
X606253Y525570D01*
X606285Y525648D01*
X606313Y525728D01*
X606338Y525809D01*
X606359Y525892D01*
X606376Y525975D01*
X606390Y526058D01*
X606399Y526143D01*
X606405Y526227D01*
X606407Y526312D01*
X598876Y524449D02*
X598876Y523518D01*
X598876Y524449D02*
X593754Y524449D01*
X593754Y523518D01*
X597945Y524449D02*
X597013Y530037D01*
X594685Y530037D01*
X594685Y524449D01*
X590023Y525846D02*
X590023Y530037D01*
X590023Y525846D02*
X590021Y525773D01*
X590015Y525700D01*
X590006Y525627D01*
X589992Y525556D01*
X589975Y525484D01*
X589955Y525414D01*
X589930Y525345D01*
X589902Y525278D01*
X589871Y525212D01*
X589836Y525148D01*
X589798Y525085D01*
X589756Y525025D01*
X589712Y524967D01*
X589664Y524911D01*
X589614Y524858D01*
X589561Y524808D01*
X589505Y524760D01*
X589447Y524716D01*
X589387Y524674D01*
X589325Y524636D01*
X589260Y524601D01*
X589194Y524570D01*
X589127Y524542D01*
X589058Y524517D01*
X588988Y524497D01*
X588916Y524480D01*
X588845Y524466D01*
X588772Y524457D01*
X588699Y524451D01*
X588626Y524449D01*
X586298Y524449D01*
X586298Y523052D02*
X586298Y530037D01*
X586298Y523052D02*
X586300Y522979D01*
X586306Y522906D01*
X586315Y522833D01*
X586329Y522762D01*
X586346Y522690D01*
X586366Y522620D01*
X586391Y522551D01*
X586419Y522484D01*
X586450Y522418D01*
X586485Y522354D01*
X586523Y522291D01*
X586565Y522231D01*
X586609Y522173D01*
X586657Y522117D01*
X586707Y522064D01*
X586760Y522014D01*
X586816Y521966D01*
X586874Y521922D01*
X586934Y521880D01*
X586997Y521842D01*
X587061Y521807D01*
X587127Y521776D01*
X587194Y521748D01*
X587263Y521723D01*
X587333Y521703D01*
X587405Y521686D01*
X587476Y521672D01*
X587549Y521663D01*
X587622Y521657D01*
X587695Y521655D01*
X589557Y521655D01*
X582633Y524449D02*
X580770Y530037D01*
X578907Y530037D01*
X578907Y524449D01*
X570448Y524449D02*
X570448Y530037D01*
X572776Y530037D01*
X572849Y530035D01*
X572922Y530029D01*
X572995Y530020D01*
X573066Y530006D01*
X573138Y529989D01*
X573208Y529969D01*
X573277Y529944D01*
X573344Y529916D01*
X573410Y529885D01*
X573475Y529850D01*
X573537Y529812D01*
X573597Y529770D01*
X573655Y529726D01*
X573711Y529678D01*
X573764Y529628D01*
X573814Y529575D01*
X573862Y529519D01*
X573906Y529461D01*
X573948Y529401D01*
X573986Y529339D01*
X574021Y529274D01*
X574052Y529208D01*
X574080Y529141D01*
X574105Y529072D01*
X574125Y529002D01*
X574142Y528930D01*
X574156Y528859D01*
X574165Y528786D01*
X574171Y528713D01*
X574173Y528640D01*
X574171Y528567D01*
X574165Y528494D01*
X574156Y528421D01*
X574142Y528350D01*
X574125Y528278D01*
X574105Y528208D01*
X574080Y528139D01*
X574052Y528072D01*
X574021Y528006D01*
X573986Y527942D01*
X573948Y527879D01*
X573906Y527819D01*
X573862Y527761D01*
X573814Y527705D01*
X573764Y527652D01*
X573711Y527602D01*
X573655Y527554D01*
X573597Y527510D01*
X573537Y527468D01*
X573475Y527430D01*
X573410Y527395D01*
X573344Y527364D01*
X573277Y527336D01*
X573208Y527311D01*
X573138Y527291D01*
X573066Y527274D01*
X572995Y527260D01*
X572922Y527251D01*
X572849Y527245D01*
X572776Y527243D01*
X570448Y527243D01*
X572311Y527243D02*
X574173Y524449D01*
X661541Y516321D02*
X661541Y507939D01*
X658747Y511664D02*
X661541Y516321D01*
X658747Y511664D02*
X655953Y516321D01*
X655953Y507939D01*
X651017Y507939D02*
X648689Y507939D01*
X648594Y507941D01*
X648499Y507947D01*
X648405Y507956D01*
X648311Y507970D01*
X648217Y507987D01*
X648125Y508008D01*
X648033Y508033D01*
X647943Y508062D01*
X647853Y508094D01*
X647765Y508130D01*
X647679Y508170D01*
X647594Y508212D01*
X647511Y508259D01*
X647430Y508309D01*
X647352Y508362D01*
X647275Y508418D01*
X647201Y508477D01*
X647129Y508539D01*
X647060Y508604D01*
X646993Y508672D01*
X646930Y508742D01*
X646869Y508816D01*
X646811Y508891D01*
X646757Y508969D01*
X646705Y509049D01*
X646657Y509131D01*
X646613Y509214D01*
X646571Y509300D01*
X646534Y509387D01*
X646500Y509476D01*
X646469Y509566D01*
X646442Y509657D01*
X646419Y509749D01*
X646400Y509842D01*
X646385Y509936D01*
X646373Y510030D01*
X646365Y510125D01*
X646361Y510220D01*
X646361Y510314D01*
X646365Y510409D01*
X646373Y510504D01*
X646385Y510598D01*
X646400Y510692D01*
X646419Y510785D01*
X646442Y510877D01*
X646469Y510968D01*
X646500Y511058D01*
X646534Y511147D01*
X646571Y511234D01*
X646613Y511320D01*
X646657Y511403D01*
X646705Y511485D01*
X646757Y511565D01*
X646811Y511643D01*
X646869Y511718D01*
X646930Y511792D01*
X646993Y511862D01*
X647060Y511930D01*
X647129Y511995D01*
X647201Y512057D01*
X647275Y512116D01*
X647352Y512172D01*
X647430Y512225D01*
X647511Y512275D01*
X647594Y512322D01*
X647679Y512364D01*
X647765Y512404D01*
X647853Y512440D01*
X647943Y512472D01*
X648033Y512501D01*
X648125Y512526D01*
X648217Y512547D01*
X648311Y512564D01*
X648405Y512578D01*
X648499Y512587D01*
X648594Y512593D01*
X648689Y512595D01*
X648223Y516321D02*
X651017Y516321D01*
X648223Y516321D02*
X648138Y516319D01*
X648054Y516313D01*
X647969Y516304D01*
X647886Y516290D01*
X647803Y516273D01*
X647720Y516252D01*
X647639Y516227D01*
X647559Y516199D01*
X647481Y516167D01*
X647404Y516131D01*
X647328Y516092D01*
X647255Y516050D01*
X647184Y516004D01*
X647114Y515955D01*
X647047Y515903D01*
X646983Y515848D01*
X646921Y515790D01*
X646861Y515730D01*
X646805Y515666D01*
X646751Y515601D01*
X646701Y515532D01*
X646654Y515462D01*
X646610Y515390D01*
X646569Y515315D01*
X646532Y515239D01*
X646498Y515161D01*
X646468Y515082D01*
X646441Y515001D01*
X646418Y514920D01*
X646399Y514837D01*
X646384Y514754D01*
X646372Y514670D01*
X646364Y514585D01*
X646360Y514500D01*
X646360Y514416D01*
X646364Y514331D01*
X646372Y514246D01*
X646384Y514162D01*
X646399Y514079D01*
X646418Y513996D01*
X646441Y513915D01*
X646468Y513834D01*
X646498Y513755D01*
X646532Y513677D01*
X646569Y513601D01*
X646610Y513527D01*
X646654Y513454D01*
X646701Y513384D01*
X646751Y513315D01*
X646805Y513250D01*
X646861Y513186D01*
X646921Y513126D01*
X646983Y513068D01*
X647047Y513013D01*
X647114Y512961D01*
X647184Y512912D01*
X647255Y512866D01*
X647328Y512824D01*
X647404Y512785D01*
X647481Y512749D01*
X647559Y512717D01*
X647639Y512689D01*
X647720Y512664D01*
X647803Y512643D01*
X647886Y512626D01*
X647969Y512612D01*
X648054Y512603D01*
X648138Y512597D01*
X648223Y512595D01*
X648223Y512596D02*
X650086Y512596D01*
X641873Y512130D02*
X641871Y512295D01*
X641865Y512460D01*
X641855Y512624D01*
X641842Y512789D01*
X641824Y512953D01*
X641802Y513116D01*
X641777Y513279D01*
X641747Y513441D01*
X641714Y513603D01*
X641677Y513763D01*
X641636Y513923D01*
X641591Y514082D01*
X641543Y514239D01*
X641491Y514396D01*
X641435Y514551D01*
X641375Y514705D01*
X641312Y514857D01*
X641245Y515008D01*
X641175Y515157D01*
X641146Y515234D01*
X641114Y515310D01*
X641079Y515384D01*
X641039Y515456D01*
X640997Y515526D01*
X640951Y515594D01*
X640902Y515660D01*
X640849Y515724D01*
X640794Y515785D01*
X640736Y515843D01*
X640676Y515898D01*
X640612Y515951D01*
X640546Y516000D01*
X640478Y516046D01*
X640408Y516089D01*
X640336Y516129D01*
X640262Y516165D01*
X640187Y516197D01*
X640110Y516226D01*
X640032Y516251D01*
X639952Y516272D01*
X639872Y516290D01*
X639791Y516303D01*
X639709Y516313D01*
X639627Y516319D01*
X639545Y516321D01*
X639463Y516319D01*
X639381Y516313D01*
X639299Y516303D01*
X639218Y516290D01*
X639138Y516272D01*
X639058Y516251D01*
X638980Y516226D01*
X638903Y516197D01*
X638828Y516165D01*
X638754Y516129D01*
X638682Y516089D01*
X638612Y516046D01*
X638544Y516000D01*
X638478Y515951D01*
X638415Y515898D01*
X638354Y515843D01*
X638296Y515785D01*
X638241Y515724D01*
X638188Y515660D01*
X638139Y515594D01*
X638093Y515526D01*
X638051Y515456D01*
X638012Y515384D01*
X637976Y515310D01*
X637944Y515234D01*
X637915Y515157D01*
X637845Y515008D01*
X637778Y514857D01*
X637715Y514705D01*
X637655Y514551D01*
X637599Y514396D01*
X637547Y514239D01*
X637499Y514082D01*
X637454Y513923D01*
X637413Y513763D01*
X637376Y513603D01*
X637343Y513441D01*
X637313Y513279D01*
X637288Y513116D01*
X637266Y512953D01*
X637248Y512789D01*
X637235Y512624D01*
X637225Y512460D01*
X637219Y512295D01*
X637217Y512130D01*
X641874Y512130D02*
X641872Y511965D01*
X641866Y511800D01*
X641856Y511636D01*
X641843Y511471D01*
X641825Y511307D01*
X641803Y511144D01*
X641778Y510981D01*
X641748Y510819D01*
X641715Y510657D01*
X641678Y510496D01*
X641637Y510337D01*
X641592Y510178D01*
X641544Y510020D01*
X641492Y509864D01*
X641436Y509709D01*
X641376Y509555D01*
X641313Y509403D01*
X641246Y509252D01*
X641175Y509103D01*
X641146Y509026D01*
X641114Y508950D01*
X641078Y508876D01*
X641039Y508804D01*
X640997Y508734D01*
X640951Y508666D01*
X640902Y508600D01*
X640849Y508536D01*
X640794Y508475D01*
X640736Y508417D01*
X640676Y508362D01*
X640612Y508309D01*
X640546Y508260D01*
X640478Y508214D01*
X640408Y508171D01*
X640336Y508131D01*
X640262Y508095D01*
X640187Y508063D01*
X640110Y508034D01*
X640032Y508009D01*
X639952Y507988D01*
X639872Y507970D01*
X639791Y507957D01*
X639709Y507947D01*
X639627Y507941D01*
X639545Y507939D01*
X637915Y509103D02*
X637844Y509252D01*
X637777Y509403D01*
X637714Y509555D01*
X637654Y509709D01*
X637598Y509864D01*
X637546Y510020D01*
X637498Y510178D01*
X637453Y510337D01*
X637412Y510496D01*
X637375Y510657D01*
X637342Y510819D01*
X637312Y510981D01*
X637287Y511144D01*
X637265Y511307D01*
X637247Y511471D01*
X637234Y511636D01*
X637224Y511800D01*
X637218Y511965D01*
X637216Y512130D01*
X637915Y509103D02*
X637944Y509026D01*
X637976Y508950D01*
X638012Y508876D01*
X638051Y508804D01*
X638093Y508734D01*
X638139Y508666D01*
X638188Y508600D01*
X638241Y508536D01*
X638296Y508475D01*
X638354Y508417D01*
X638415Y508362D01*
X638478Y508309D01*
X638544Y508260D01*
X638612Y508214D01*
X638682Y508171D01*
X638754Y508131D01*
X638828Y508095D01*
X638903Y508063D01*
X638980Y508034D01*
X639058Y508009D01*
X639138Y507988D01*
X639218Y507970D01*
X639299Y507957D01*
X639381Y507947D01*
X639463Y507941D01*
X639545Y507939D01*
X641407Y509802D02*
X637682Y514458D01*
X601851Y517591D02*
X601851Y509209D01*
X599057Y512934D02*
X601851Y517591D01*
X599057Y512934D02*
X596263Y517591D01*
X596263Y509209D01*
X588766Y517592D02*
X588677Y517590D01*
X588588Y517584D01*
X588500Y517575D01*
X588412Y517562D01*
X588324Y517545D01*
X588238Y517524D01*
X588152Y517500D01*
X588068Y517472D01*
X587984Y517441D01*
X587903Y517406D01*
X587822Y517368D01*
X587744Y517326D01*
X587667Y517281D01*
X587592Y517233D01*
X587520Y517181D01*
X587449Y517127D01*
X587381Y517069D01*
X587316Y517009D01*
X587253Y516946D01*
X587193Y516881D01*
X587135Y516813D01*
X587081Y516742D01*
X587029Y516670D01*
X586981Y516595D01*
X586936Y516518D01*
X586894Y516440D01*
X586856Y516359D01*
X586821Y516278D01*
X586790Y516194D01*
X586762Y516110D01*
X586738Y516024D01*
X586717Y515938D01*
X586700Y515850D01*
X586687Y515762D01*
X586678Y515674D01*
X586672Y515585D01*
X586670Y515496D01*
X588766Y517591D02*
X588869Y517589D01*
X588971Y517583D01*
X589073Y517573D01*
X589175Y517560D01*
X589276Y517542D01*
X589376Y517521D01*
X589476Y517496D01*
X589574Y517467D01*
X589671Y517434D01*
X589767Y517398D01*
X589862Y517358D01*
X589955Y517314D01*
X590046Y517267D01*
X590135Y517217D01*
X590222Y517163D01*
X590308Y517106D01*
X590391Y517046D01*
X590471Y516982D01*
X590549Y516916D01*
X590625Y516846D01*
X590698Y516774D01*
X590768Y516699D01*
X590835Y516621D01*
X590899Y516541D01*
X590960Y516459D01*
X591018Y516374D01*
X591072Y516287D01*
X591124Y516198D01*
X591171Y516108D01*
X591216Y516015D01*
X591256Y515921D01*
X591294Y515825D01*
X591327Y515728D01*
X587369Y513866D02*
X587304Y513930D01*
X587242Y513997D01*
X587182Y514066D01*
X587126Y514138D01*
X587073Y514211D01*
X587022Y514287D01*
X586975Y514365D01*
X586931Y514445D01*
X586890Y514526D01*
X586852Y514609D01*
X586818Y514694D01*
X586787Y514780D01*
X586760Y514867D01*
X586736Y514955D01*
X586716Y515043D01*
X586699Y515133D01*
X586687Y515223D01*
X586677Y515314D01*
X586672Y515405D01*
X586670Y515496D01*
X587369Y513866D02*
X591327Y509209D01*
X586670Y509209D01*
X579622Y517592D02*
X579533Y517590D01*
X579444Y517584D01*
X579356Y517575D01*
X579268Y517562D01*
X579180Y517545D01*
X579094Y517524D01*
X579008Y517500D01*
X578924Y517472D01*
X578840Y517441D01*
X578759Y517406D01*
X578678Y517368D01*
X578600Y517326D01*
X578523Y517281D01*
X578448Y517233D01*
X578376Y517181D01*
X578305Y517127D01*
X578237Y517069D01*
X578172Y517009D01*
X578109Y516946D01*
X578049Y516881D01*
X577991Y516813D01*
X577937Y516742D01*
X577885Y516670D01*
X577837Y516595D01*
X577792Y516518D01*
X577750Y516440D01*
X577712Y516359D01*
X577677Y516278D01*
X577646Y516194D01*
X577618Y516110D01*
X577594Y516024D01*
X577573Y515938D01*
X577556Y515850D01*
X577543Y515762D01*
X577534Y515674D01*
X577528Y515585D01*
X577526Y515496D01*
X579622Y517591D02*
X579725Y517589D01*
X579827Y517583D01*
X579929Y517573D01*
X580031Y517560D01*
X580132Y517542D01*
X580232Y517521D01*
X580332Y517496D01*
X580430Y517467D01*
X580527Y517434D01*
X580623Y517398D01*
X580718Y517358D01*
X580811Y517314D01*
X580902Y517267D01*
X580991Y517217D01*
X581078Y517163D01*
X581164Y517106D01*
X581247Y517046D01*
X581327Y516982D01*
X581405Y516916D01*
X581481Y516846D01*
X581554Y516774D01*
X581624Y516699D01*
X581691Y516621D01*
X581755Y516541D01*
X581816Y516459D01*
X581874Y516374D01*
X581928Y516287D01*
X581980Y516198D01*
X582027Y516108D01*
X582072Y516015D01*
X582112Y515921D01*
X582150Y515825D01*
X582183Y515728D01*
X578225Y513866D02*
X578160Y513930D01*
X578098Y513997D01*
X578038Y514066D01*
X577982Y514138D01*
X577929Y514211D01*
X577878Y514287D01*
X577831Y514365D01*
X577787Y514445D01*
X577746Y514526D01*
X577708Y514609D01*
X577674Y514694D01*
X577643Y514780D01*
X577616Y514867D01*
X577592Y514955D01*
X577572Y515043D01*
X577555Y515133D01*
X577543Y515223D01*
X577533Y515314D01*
X577528Y515405D01*
X577526Y515496D01*
X578225Y513866D02*
X582183Y509209D01*
X577526Y509209D01*
D13*
X320040Y104140D02*
X15240Y104140D01*
X15240Y459740D01*
X320040Y459740D01*
X320040Y104140D01*
D14*
X212490Y295590D02*
X212490Y325590D01*
X262490Y325590D01*
X262490Y295590D01*
X212490Y255590D02*
X212490Y235590D01*
X222490Y225590D01*
X252490Y225590D01*
X262490Y235590D01*
X262490Y255590D01*
D15*
X191770Y305794D02*
X191770Y308052D01*
X191770Y305794D02*
X191772Y305701D01*
X191778Y305608D01*
X191787Y305515D01*
X191801Y305422D01*
X191818Y305331D01*
X191839Y305240D01*
X191864Y305150D01*
X191892Y305061D01*
X191924Y304973D01*
X191960Y304887D01*
X191999Y304802D01*
X192042Y304719D01*
X192088Y304638D01*
X192138Y304559D01*
X192190Y304482D01*
X192246Y304407D01*
X192305Y304335D01*
X192367Y304265D01*
X192431Y304197D01*
X192499Y304133D01*
X192569Y304071D01*
X192641Y304012D01*
X192716Y303956D01*
X192793Y303904D01*
X192872Y303854D01*
X192953Y303808D01*
X193036Y303765D01*
X193121Y303726D01*
X193207Y303690D01*
X193295Y303658D01*
X193384Y303630D01*
X193474Y303605D01*
X193565Y303584D01*
X193656Y303567D01*
X193749Y303553D01*
X193842Y303544D01*
X193935Y303538D01*
X194028Y303536D01*
X199672Y303536D01*
X199765Y303538D01*
X199858Y303544D01*
X199951Y303553D01*
X200044Y303567D01*
X200135Y303584D01*
X200226Y303605D01*
X200316Y303630D01*
X200405Y303658D01*
X200493Y303690D01*
X200579Y303726D01*
X200664Y303765D01*
X200747Y303808D01*
X200828Y303854D01*
X200907Y303904D01*
X200984Y303956D01*
X201059Y304012D01*
X201131Y304071D01*
X201201Y304133D01*
X201269Y304197D01*
X201333Y304265D01*
X201395Y304335D01*
X201454Y304407D01*
X201510Y304482D01*
X201562Y304559D01*
X201612Y304638D01*
X201658Y304719D01*
X201701Y304802D01*
X201740Y304887D01*
X201776Y304973D01*
X201808Y305061D01*
X201836Y305150D01*
X201861Y305240D01*
X201882Y305331D01*
X201899Y305422D01*
X201913Y305515D01*
X201922Y305608D01*
X201928Y305701D01*
X201930Y305794D01*
X201930Y308052D01*
X199672Y313119D02*
X201930Y315942D01*
X191770Y315942D01*
X191770Y318764D02*
X191770Y313119D01*
X172720Y249632D02*
X172720Y247374D01*
X172722Y247281D01*
X172728Y247188D01*
X172737Y247095D01*
X172751Y247002D01*
X172768Y246911D01*
X172789Y246820D01*
X172814Y246730D01*
X172842Y246641D01*
X172874Y246553D01*
X172910Y246467D01*
X172949Y246382D01*
X172992Y246299D01*
X173038Y246218D01*
X173088Y246139D01*
X173140Y246062D01*
X173196Y245987D01*
X173255Y245915D01*
X173317Y245845D01*
X173381Y245777D01*
X173449Y245713D01*
X173519Y245651D01*
X173591Y245592D01*
X173666Y245536D01*
X173743Y245484D01*
X173822Y245434D01*
X173903Y245388D01*
X173986Y245345D01*
X174071Y245306D01*
X174157Y245270D01*
X174245Y245238D01*
X174334Y245210D01*
X174424Y245185D01*
X174515Y245164D01*
X174606Y245147D01*
X174699Y245133D01*
X174792Y245124D01*
X174885Y245118D01*
X174978Y245116D01*
X180622Y245116D01*
X180715Y245118D01*
X180808Y245124D01*
X180901Y245133D01*
X180994Y245147D01*
X181085Y245164D01*
X181176Y245185D01*
X181266Y245210D01*
X181355Y245238D01*
X181443Y245270D01*
X181529Y245306D01*
X181614Y245345D01*
X181697Y245388D01*
X181778Y245434D01*
X181857Y245484D01*
X181934Y245536D01*
X182009Y245592D01*
X182081Y245651D01*
X182151Y245713D01*
X182219Y245777D01*
X182283Y245845D01*
X182345Y245915D01*
X182404Y245987D01*
X182460Y246062D01*
X182512Y246139D01*
X182562Y246218D01*
X182608Y246299D01*
X182651Y246382D01*
X182690Y246467D01*
X182726Y246553D01*
X182758Y246641D01*
X182786Y246730D01*
X182811Y246820D01*
X182832Y246911D01*
X182849Y247002D01*
X182863Y247095D01*
X182872Y247188D01*
X182878Y247281D01*
X182880Y247374D01*
X182880Y249632D01*
X182880Y257804D02*
X182878Y257904D01*
X182872Y258003D01*
X182862Y258103D01*
X182849Y258201D01*
X182831Y258300D01*
X182810Y258397D01*
X182785Y258493D01*
X182756Y258589D01*
X182723Y258683D01*
X182687Y258776D01*
X182647Y258867D01*
X182603Y258957D01*
X182556Y259045D01*
X182506Y259131D01*
X182452Y259215D01*
X182395Y259297D01*
X182335Y259376D01*
X182271Y259454D01*
X182205Y259528D01*
X182136Y259600D01*
X182064Y259669D01*
X181990Y259735D01*
X181912Y259799D01*
X181833Y259859D01*
X181751Y259916D01*
X181667Y259970D01*
X181581Y260020D01*
X181493Y260067D01*
X181403Y260111D01*
X181312Y260151D01*
X181219Y260187D01*
X181125Y260220D01*
X181029Y260249D01*
X180933Y260274D01*
X180836Y260295D01*
X180737Y260313D01*
X180639Y260326D01*
X180539Y260336D01*
X180440Y260342D01*
X180340Y260344D01*
X182880Y257804D02*
X182878Y257693D01*
X182872Y257582D01*
X182863Y257472D01*
X182850Y257362D01*
X182833Y257252D01*
X182812Y257143D01*
X182788Y257035D01*
X182760Y256928D01*
X182729Y256821D01*
X182693Y256716D01*
X182655Y256612D01*
X182612Y256510D01*
X182567Y256409D01*
X182517Y256309D01*
X182465Y256212D01*
X182409Y256116D01*
X182350Y256022D01*
X182288Y255930D01*
X182223Y255840D01*
X182155Y255753D01*
X182083Y255668D01*
X182009Y255585D01*
X181933Y255505D01*
X181853Y255428D01*
X181771Y255353D01*
X181687Y255281D01*
X181600Y255212D01*
X181511Y255147D01*
X181419Y255084D01*
X181326Y255024D01*
X181230Y254968D01*
X181133Y254914D01*
X181034Y254865D01*
X180933Y254818D01*
X180831Y254775D01*
X180727Y254736D01*
X180622Y254700D01*
X178365Y259497D02*
X178435Y259569D01*
X178508Y259638D01*
X178584Y259704D01*
X178662Y259767D01*
X178742Y259827D01*
X178825Y259884D01*
X178909Y259939D01*
X178996Y259990D01*
X179084Y260038D01*
X179174Y260082D01*
X179265Y260123D01*
X179358Y260161D01*
X179453Y260196D01*
X179548Y260227D01*
X179645Y260254D01*
X179742Y260278D01*
X179841Y260298D01*
X179940Y260314D01*
X180039Y260327D01*
X180139Y260337D01*
X180240Y260342D01*
X180340Y260344D01*
X178364Y259497D02*
X172720Y254699D01*
X172720Y260344D01*
D14*
X412750Y314960D02*
X455930Y314960D01*
X455930Y254000D02*
X412750Y254000D01*
X403860Y274320D02*
X403860Y294460D01*
X464820Y294760D02*
X464820Y274320D01*
X416560Y284480D02*
X416565Y284916D01*
X416581Y285352D01*
X416608Y285788D01*
X416646Y286223D01*
X416694Y286656D01*
X416752Y287089D01*
X416822Y287520D01*
X416902Y287949D01*
X416992Y288376D01*
X417093Y288800D01*
X417204Y289222D01*
X417326Y289641D01*
X417457Y290057D01*
X417599Y290470D01*
X417751Y290879D01*
X417913Y291284D01*
X418085Y291685D01*
X418267Y292082D01*
X418458Y292474D01*
X418659Y292861D01*
X418870Y293244D01*
X419090Y293621D01*
X419319Y293992D01*
X419556Y294358D01*
X419803Y294718D01*
X420059Y295072D01*
X420323Y295419D01*
X420596Y295760D01*
X420877Y296093D01*
X421166Y296420D01*
X421463Y296740D01*
X421768Y297052D01*
X422080Y297357D01*
X422400Y297654D01*
X422727Y297943D01*
X423060Y298224D01*
X423401Y298497D01*
X423748Y298761D01*
X424102Y299017D01*
X424462Y299264D01*
X424828Y299501D01*
X425199Y299730D01*
X425576Y299950D01*
X425959Y300161D01*
X426346Y300362D01*
X426738Y300553D01*
X427135Y300735D01*
X427536Y300907D01*
X427941Y301069D01*
X428350Y301221D01*
X428763Y301363D01*
X429179Y301494D01*
X429598Y301616D01*
X430020Y301727D01*
X430444Y301828D01*
X430871Y301918D01*
X431300Y301998D01*
X431731Y302068D01*
X432164Y302126D01*
X432597Y302174D01*
X433032Y302212D01*
X433468Y302239D01*
X433904Y302255D01*
X434340Y302260D01*
X434776Y302255D01*
X435212Y302239D01*
X435648Y302212D01*
X436083Y302174D01*
X436516Y302126D01*
X436949Y302068D01*
X437380Y301998D01*
X437809Y301918D01*
X438236Y301828D01*
X438660Y301727D01*
X439082Y301616D01*
X439501Y301494D01*
X439917Y301363D01*
X440330Y301221D01*
X440739Y301069D01*
X441144Y300907D01*
X441545Y300735D01*
X441942Y300553D01*
X442334Y300362D01*
X442721Y300161D01*
X443104Y299950D01*
X443481Y299730D01*
X443852Y299501D01*
X444218Y299264D01*
X444578Y299017D01*
X444932Y298761D01*
X445279Y298497D01*
X445620Y298224D01*
X445953Y297943D01*
X446280Y297654D01*
X446600Y297357D01*
X446912Y297052D01*
X447217Y296740D01*
X447514Y296420D01*
X447803Y296093D01*
X448084Y295760D01*
X448357Y295419D01*
X448621Y295072D01*
X448877Y294718D01*
X449124Y294358D01*
X449361Y293992D01*
X449590Y293621D01*
X449810Y293244D01*
X450021Y292861D01*
X450222Y292474D01*
X450413Y292082D01*
X450595Y291685D01*
X450767Y291284D01*
X450929Y290879D01*
X451081Y290470D01*
X451223Y290057D01*
X451354Y289641D01*
X451476Y289222D01*
X451587Y288800D01*
X451688Y288376D01*
X451778Y287949D01*
X451858Y287520D01*
X451928Y287089D01*
X451986Y286656D01*
X452034Y286223D01*
X452072Y285788D01*
X452099Y285352D01*
X452115Y284916D01*
X452120Y284480D01*
X452115Y284044D01*
X452099Y283608D01*
X452072Y283172D01*
X452034Y282737D01*
X451986Y282304D01*
X451928Y281871D01*
X451858Y281440D01*
X451778Y281011D01*
X451688Y280584D01*
X451587Y280160D01*
X451476Y279738D01*
X451354Y279319D01*
X451223Y278903D01*
X451081Y278490D01*
X450929Y278081D01*
X450767Y277676D01*
X450595Y277275D01*
X450413Y276878D01*
X450222Y276486D01*
X450021Y276099D01*
X449810Y275716D01*
X449590Y275339D01*
X449361Y274968D01*
X449124Y274602D01*
X448877Y274242D01*
X448621Y273888D01*
X448357Y273541D01*
X448084Y273200D01*
X447803Y272867D01*
X447514Y272540D01*
X447217Y272220D01*
X446912Y271908D01*
X446600Y271603D01*
X446280Y271306D01*
X445953Y271017D01*
X445620Y270736D01*
X445279Y270463D01*
X444932Y270199D01*
X444578Y269943D01*
X444218Y269696D01*
X443852Y269459D01*
X443481Y269230D01*
X443104Y269010D01*
X442721Y268799D01*
X442334Y268598D01*
X441942Y268407D01*
X441545Y268225D01*
X441144Y268053D01*
X440739Y267891D01*
X440330Y267739D01*
X439917Y267597D01*
X439501Y267466D01*
X439082Y267344D01*
X438660Y267233D01*
X438236Y267132D01*
X437809Y267042D01*
X437380Y266962D01*
X436949Y266892D01*
X436516Y266834D01*
X436083Y266786D01*
X435648Y266748D01*
X435212Y266721D01*
X434776Y266705D01*
X434340Y266700D01*
X433904Y266705D01*
X433468Y266721D01*
X433032Y266748D01*
X432597Y266786D01*
X432164Y266834D01*
X431731Y266892D01*
X431300Y266962D01*
X430871Y267042D01*
X430444Y267132D01*
X430020Y267233D01*
X429598Y267344D01*
X429179Y267466D01*
X428763Y267597D01*
X428350Y267739D01*
X427941Y267891D01*
X427536Y268053D01*
X427135Y268225D01*
X426738Y268407D01*
X426346Y268598D01*
X425959Y268799D01*
X425576Y269010D01*
X425199Y269230D01*
X424828Y269459D01*
X424462Y269696D01*
X424102Y269943D01*
X423748Y270199D01*
X423401Y270463D01*
X423060Y270736D01*
X422727Y271017D01*
X422400Y271306D01*
X422080Y271603D01*
X421768Y271908D01*
X421463Y272220D01*
X421166Y272540D01*
X420877Y272867D01*
X420596Y273200D01*
X420323Y273541D01*
X420059Y273888D01*
X419803Y274242D01*
X419556Y274602D01*
X419319Y274968D01*
X419090Y275339D01*
X418870Y275716D01*
X418659Y276099D01*
X418458Y276486D01*
X418267Y276878D01*
X418085Y277275D01*
X417913Y277676D01*
X417751Y278081D01*
X417599Y278490D01*
X417457Y278903D01*
X417326Y279319D01*
X417204Y279738D01*
X417093Y280160D01*
X416992Y280584D01*
X416902Y281011D01*
X416822Y281440D01*
X416752Y281871D01*
X416694Y282304D01*
X416646Y282737D01*
X416608Y283172D01*
X416581Y283608D01*
X416565Y284044D01*
X416560Y284480D01*
D15*
X385452Y285044D02*
X382630Y285044D01*
X382524Y285042D01*
X382419Y285036D01*
X382314Y285026D01*
X382209Y285012D01*
X382105Y284995D01*
X382002Y284973D01*
X381900Y284948D01*
X381798Y284919D01*
X381698Y284886D01*
X381599Y284849D01*
X381502Y284809D01*
X381406Y284765D01*
X381311Y284717D01*
X381219Y284666D01*
X381129Y284611D01*
X381040Y284554D01*
X380954Y284493D01*
X380871Y284428D01*
X380789Y284361D01*
X380711Y284291D01*
X380635Y284217D01*
X380561Y284141D01*
X380491Y284063D01*
X380424Y283981D01*
X380359Y283898D01*
X380298Y283812D01*
X380241Y283723D01*
X380186Y283633D01*
X380135Y283541D01*
X380087Y283446D01*
X380043Y283350D01*
X380003Y283253D01*
X379966Y283154D01*
X379933Y283054D01*
X379904Y282952D01*
X379879Y282850D01*
X379857Y282747D01*
X379840Y282643D01*
X379826Y282538D01*
X379816Y282433D01*
X379810Y282328D01*
X379808Y282222D01*
X379810Y282116D01*
X379816Y282011D01*
X379826Y281906D01*
X379840Y281801D01*
X379857Y281697D01*
X379879Y281594D01*
X379904Y281492D01*
X379933Y281390D01*
X379966Y281290D01*
X380003Y281191D01*
X380043Y281094D01*
X380087Y280998D01*
X380135Y280903D01*
X380186Y280811D01*
X380241Y280721D01*
X380298Y280632D01*
X380359Y280546D01*
X380424Y280463D01*
X380491Y280381D01*
X380561Y280303D01*
X380635Y280227D01*
X380711Y280153D01*
X380789Y280083D01*
X380871Y280016D01*
X380954Y279951D01*
X381040Y279890D01*
X381129Y279833D01*
X381219Y279778D01*
X381311Y279727D01*
X381406Y279679D01*
X381502Y279635D01*
X381599Y279595D01*
X381698Y279558D01*
X381798Y279525D01*
X381900Y279496D01*
X382002Y279471D01*
X382105Y279449D01*
X382209Y279432D01*
X382314Y279418D01*
X382419Y279408D01*
X382524Y279402D01*
X382630Y279400D01*
X385452Y279400D01*
X385452Y289560D01*
X382630Y289560D01*
X382537Y289558D01*
X382444Y289552D01*
X382351Y289543D01*
X382258Y289529D01*
X382167Y289512D01*
X382076Y289491D01*
X381986Y289466D01*
X381897Y289438D01*
X381809Y289406D01*
X381723Y289370D01*
X381638Y289331D01*
X381555Y289288D01*
X381474Y289242D01*
X381395Y289192D01*
X381318Y289140D01*
X381243Y289084D01*
X381171Y289025D01*
X381101Y288963D01*
X381033Y288899D01*
X380969Y288831D01*
X380907Y288761D01*
X380848Y288689D01*
X380792Y288614D01*
X380740Y288537D01*
X380690Y288458D01*
X380644Y288377D01*
X380601Y288294D01*
X380562Y288209D01*
X380526Y288123D01*
X380494Y288035D01*
X380466Y287946D01*
X380441Y287856D01*
X380420Y287765D01*
X380403Y287674D01*
X380389Y287581D01*
X380380Y287488D01*
X380374Y287395D01*
X380372Y287302D01*
X380374Y287209D01*
X380380Y287116D01*
X380389Y287023D01*
X380403Y286930D01*
X380420Y286839D01*
X380441Y286748D01*
X380466Y286658D01*
X380494Y286569D01*
X380526Y286481D01*
X380562Y286395D01*
X380601Y286310D01*
X380644Y286227D01*
X380690Y286146D01*
X380740Y286067D01*
X380792Y285990D01*
X380848Y285915D01*
X380907Y285843D01*
X380969Y285773D01*
X381033Y285705D01*
X381101Y285641D01*
X381171Y285579D01*
X381243Y285520D01*
X381318Y285464D01*
X381395Y285412D01*
X381474Y285362D01*
X381555Y285316D01*
X381638Y285273D01*
X381723Y285234D01*
X381809Y285198D01*
X381897Y285166D01*
X381986Y285138D01*
X382076Y285113D01*
X382167Y285092D01*
X382258Y285075D01*
X382351Y285061D01*
X382444Y285052D01*
X382537Y285046D01*
X382630Y285044D01*
X372639Y289560D02*
X372639Y279400D01*
X375461Y289560D02*
X369817Y289560D01*
X364412Y289560D02*
X364412Y279400D01*
X358768Y279400D02*
X364412Y289560D01*
X358768Y289560D02*
X358768Y279400D01*
X440273Y360680D02*
X440273Y370840D01*
X437451Y370840D01*
X437345Y370838D01*
X437240Y370832D01*
X437135Y370822D01*
X437030Y370808D01*
X436926Y370791D01*
X436823Y370769D01*
X436721Y370744D01*
X436619Y370715D01*
X436519Y370682D01*
X436420Y370645D01*
X436323Y370605D01*
X436227Y370561D01*
X436132Y370513D01*
X436040Y370462D01*
X435950Y370407D01*
X435861Y370350D01*
X435775Y370289D01*
X435692Y370224D01*
X435610Y370157D01*
X435532Y370087D01*
X435456Y370013D01*
X435382Y369937D01*
X435312Y369859D01*
X435245Y369777D01*
X435180Y369694D01*
X435119Y369608D01*
X435062Y369519D01*
X435007Y369429D01*
X434956Y369337D01*
X434908Y369242D01*
X434864Y369146D01*
X434824Y369049D01*
X434787Y368950D01*
X434754Y368850D01*
X434725Y368748D01*
X434700Y368646D01*
X434678Y368543D01*
X434661Y368439D01*
X434647Y368334D01*
X434637Y368229D01*
X434631Y368124D01*
X434629Y368018D01*
X434631Y367912D01*
X434637Y367807D01*
X434647Y367702D01*
X434661Y367597D01*
X434678Y367493D01*
X434700Y367390D01*
X434725Y367288D01*
X434754Y367186D01*
X434787Y367086D01*
X434824Y366987D01*
X434864Y366890D01*
X434908Y366794D01*
X434956Y366699D01*
X435007Y366607D01*
X435062Y366517D01*
X435119Y366428D01*
X435180Y366342D01*
X435245Y366259D01*
X435312Y366177D01*
X435382Y366099D01*
X435456Y366023D01*
X435532Y365949D01*
X435610Y365879D01*
X435692Y365812D01*
X435775Y365747D01*
X435861Y365686D01*
X435950Y365629D01*
X436040Y365574D01*
X436132Y365523D01*
X436227Y365475D01*
X436323Y365431D01*
X436420Y365391D01*
X436519Y365354D01*
X436619Y365321D01*
X436721Y365292D01*
X436823Y365267D01*
X436926Y365245D01*
X437030Y365228D01*
X437135Y365214D01*
X437240Y365204D01*
X437345Y365198D01*
X437451Y365196D01*
X440273Y365196D01*
X436886Y365196D02*
X434628Y360680D01*
X428972Y368582D02*
X426149Y370840D01*
X426149Y360680D01*
X423327Y360680D02*
X428972Y360680D01*
D14*
X693020Y268290D02*
X693020Y238290D01*
X643020Y238290D01*
X643020Y268290D01*
X693020Y308290D02*
X693020Y328290D01*
X683020Y338290D01*
X653020Y338290D01*
X643020Y328290D01*
X643020Y308290D01*
D15*
X701040Y248362D02*
X701040Y246104D01*
X701042Y246011D01*
X701048Y245918D01*
X701057Y245825D01*
X701071Y245732D01*
X701088Y245641D01*
X701109Y245550D01*
X701134Y245460D01*
X701162Y245371D01*
X701194Y245283D01*
X701230Y245197D01*
X701269Y245112D01*
X701312Y245029D01*
X701358Y244948D01*
X701408Y244869D01*
X701460Y244792D01*
X701516Y244717D01*
X701575Y244645D01*
X701637Y244575D01*
X701701Y244507D01*
X701769Y244443D01*
X701839Y244381D01*
X701911Y244322D01*
X701986Y244266D01*
X702063Y244214D01*
X702142Y244164D01*
X702223Y244118D01*
X702306Y244075D01*
X702391Y244036D01*
X702477Y244000D01*
X702565Y243968D01*
X702654Y243940D01*
X702744Y243915D01*
X702835Y243894D01*
X702926Y243877D01*
X703019Y243863D01*
X703112Y243854D01*
X703205Y243848D01*
X703298Y243846D01*
X708942Y243846D01*
X709035Y243848D01*
X709128Y243854D01*
X709221Y243863D01*
X709314Y243877D01*
X709405Y243894D01*
X709496Y243915D01*
X709586Y243940D01*
X709675Y243968D01*
X709763Y244000D01*
X709849Y244036D01*
X709934Y244075D01*
X710017Y244118D01*
X710098Y244164D01*
X710177Y244214D01*
X710254Y244266D01*
X710329Y244322D01*
X710401Y244381D01*
X710471Y244443D01*
X710539Y244507D01*
X710603Y244575D01*
X710665Y244645D01*
X710724Y244717D01*
X710780Y244792D01*
X710832Y244869D01*
X710882Y244948D01*
X710928Y245029D01*
X710971Y245112D01*
X711010Y245197D01*
X711046Y245283D01*
X711078Y245371D01*
X711106Y245460D01*
X711131Y245550D01*
X711152Y245641D01*
X711169Y245732D01*
X711183Y245825D01*
X711192Y245918D01*
X711198Y246011D01*
X711200Y246104D01*
X711200Y248362D01*
X701040Y253429D02*
X701040Y256252D01*
X701042Y256358D01*
X701048Y256463D01*
X701058Y256568D01*
X701072Y256673D01*
X701089Y256777D01*
X701111Y256880D01*
X701136Y256982D01*
X701165Y257084D01*
X701198Y257184D01*
X701235Y257283D01*
X701275Y257380D01*
X701319Y257476D01*
X701367Y257571D01*
X701418Y257663D01*
X701473Y257753D01*
X701530Y257842D01*
X701591Y257928D01*
X701656Y258011D01*
X701723Y258093D01*
X701793Y258171D01*
X701867Y258247D01*
X701943Y258321D01*
X702021Y258391D01*
X702103Y258458D01*
X702186Y258523D01*
X702272Y258584D01*
X702361Y258641D01*
X702451Y258696D01*
X702543Y258747D01*
X702638Y258795D01*
X702734Y258839D01*
X702831Y258879D01*
X702930Y258916D01*
X703030Y258949D01*
X703132Y258978D01*
X703234Y259003D01*
X703337Y259025D01*
X703441Y259042D01*
X703546Y259056D01*
X703651Y259066D01*
X703756Y259072D01*
X703862Y259074D01*
X703968Y259072D01*
X704073Y259066D01*
X704178Y259056D01*
X704283Y259042D01*
X704387Y259025D01*
X704490Y259003D01*
X704592Y258978D01*
X704694Y258949D01*
X704794Y258916D01*
X704893Y258879D01*
X704990Y258839D01*
X705086Y258795D01*
X705181Y258747D01*
X705273Y258696D01*
X705363Y258641D01*
X705452Y258584D01*
X705538Y258523D01*
X705621Y258458D01*
X705703Y258391D01*
X705781Y258321D01*
X705857Y258247D01*
X705931Y258171D01*
X706001Y258093D01*
X706068Y258011D01*
X706133Y257928D01*
X706194Y257842D01*
X706251Y257753D01*
X706306Y257663D01*
X706357Y257571D01*
X706405Y257476D01*
X706449Y257380D01*
X706489Y257283D01*
X706526Y257184D01*
X706559Y257084D01*
X706588Y256982D01*
X706613Y256880D01*
X706635Y256777D01*
X706652Y256673D01*
X706666Y256568D01*
X706676Y256463D01*
X706682Y256358D01*
X706684Y256252D01*
X711200Y256816D02*
X711200Y253429D01*
X711200Y256816D02*
X711198Y256909D01*
X711192Y257002D01*
X711183Y257095D01*
X711169Y257188D01*
X711152Y257279D01*
X711131Y257370D01*
X711106Y257460D01*
X711078Y257549D01*
X711046Y257637D01*
X711010Y257723D01*
X710971Y257808D01*
X710928Y257891D01*
X710882Y257972D01*
X710832Y258051D01*
X710780Y258128D01*
X710724Y258203D01*
X710665Y258275D01*
X710603Y258345D01*
X710539Y258413D01*
X710471Y258477D01*
X710401Y258539D01*
X710329Y258598D01*
X710254Y258654D01*
X710177Y258706D01*
X710098Y258756D01*
X710017Y258802D01*
X709934Y258845D01*
X709849Y258884D01*
X709763Y258920D01*
X709675Y258952D01*
X709586Y258980D01*
X709496Y259005D01*
X709405Y259026D01*
X709314Y259043D01*
X709221Y259057D01*
X709128Y259066D01*
X709035Y259072D01*
X708942Y259074D01*
X708849Y259072D01*
X708756Y259066D01*
X708663Y259057D01*
X708570Y259043D01*
X708479Y259026D01*
X708388Y259005D01*
X708298Y258980D01*
X708209Y258952D01*
X708121Y258920D01*
X708035Y258884D01*
X707950Y258845D01*
X707867Y258802D01*
X707786Y258756D01*
X707707Y258706D01*
X707630Y258654D01*
X707555Y258598D01*
X707483Y258539D01*
X707413Y258477D01*
X707345Y258413D01*
X707281Y258345D01*
X707219Y258275D01*
X707160Y258203D01*
X707104Y258128D01*
X707052Y258051D01*
X707002Y257972D01*
X706956Y257891D01*
X706913Y257808D01*
X706874Y257723D01*
X706838Y257637D01*
X706806Y257549D01*
X706778Y257460D01*
X706753Y257370D01*
X706732Y257279D01*
X706715Y257188D01*
X706701Y257095D01*
X706692Y257002D01*
X706686Y256909D01*
X706684Y256816D01*
X706684Y254558D01*
X720090Y307064D02*
X720090Y309322D01*
X720090Y307064D02*
X720092Y306971D01*
X720098Y306878D01*
X720107Y306785D01*
X720121Y306692D01*
X720138Y306601D01*
X720159Y306510D01*
X720184Y306420D01*
X720212Y306331D01*
X720244Y306243D01*
X720280Y306157D01*
X720319Y306072D01*
X720362Y305989D01*
X720408Y305908D01*
X720458Y305829D01*
X720510Y305752D01*
X720566Y305677D01*
X720625Y305605D01*
X720687Y305535D01*
X720751Y305467D01*
X720819Y305403D01*
X720889Y305341D01*
X720961Y305282D01*
X721036Y305226D01*
X721113Y305174D01*
X721192Y305124D01*
X721273Y305078D01*
X721356Y305035D01*
X721441Y304996D01*
X721527Y304960D01*
X721615Y304928D01*
X721704Y304900D01*
X721794Y304875D01*
X721885Y304854D01*
X721976Y304837D01*
X722069Y304823D01*
X722162Y304814D01*
X722255Y304808D01*
X722348Y304806D01*
X727992Y304806D01*
X728085Y304808D01*
X728178Y304814D01*
X728271Y304823D01*
X728364Y304837D01*
X728455Y304854D01*
X728546Y304875D01*
X728636Y304900D01*
X728725Y304928D01*
X728813Y304960D01*
X728899Y304996D01*
X728984Y305035D01*
X729067Y305078D01*
X729148Y305124D01*
X729227Y305174D01*
X729304Y305226D01*
X729379Y305282D01*
X729451Y305341D01*
X729521Y305403D01*
X729589Y305467D01*
X729653Y305535D01*
X729715Y305605D01*
X729774Y305677D01*
X729830Y305752D01*
X729882Y305829D01*
X729932Y305908D01*
X729978Y305989D01*
X730021Y306072D01*
X730060Y306157D01*
X730096Y306243D01*
X730128Y306331D01*
X730156Y306420D01*
X730181Y306510D01*
X730202Y306601D01*
X730219Y306692D01*
X730233Y306785D01*
X730242Y306878D01*
X730248Y306971D01*
X730250Y307064D01*
X730250Y309322D01*
X730250Y316647D02*
X722348Y314389D01*
X722348Y320034D01*
X724606Y318340D02*
X720090Y318340D01*
D13*
X604520Y410210D02*
X604520Y156210D01*
X604520Y410210D02*
X972820Y410210D01*
X972820Y156210D01*
X604520Y156210D01*
X608330Y393700D02*
X608334Y394012D01*
X608345Y394323D01*
X608364Y394634D01*
X608391Y394945D01*
X608426Y395255D01*
X608467Y395563D01*
X608517Y395871D01*
X608574Y396178D01*
X608639Y396483D01*
X608711Y396786D01*
X608790Y397087D01*
X608877Y397387D01*
X608971Y397684D01*
X609072Y397979D01*
X609181Y398271D01*
X609297Y398560D01*
X609420Y398847D01*
X609549Y399130D01*
X609686Y399410D01*
X609830Y399687D01*
X609980Y399960D01*
X610137Y400229D01*
X610300Y400494D01*
X610470Y400756D01*
X610647Y401013D01*
X610829Y401265D01*
X611018Y401513D01*
X611213Y401757D01*
X611413Y401995D01*
X611620Y402229D01*
X611832Y402457D01*
X612050Y402680D01*
X612273Y402898D01*
X612501Y403110D01*
X612735Y403317D01*
X612973Y403517D01*
X613217Y403712D01*
X613465Y403901D01*
X613717Y404083D01*
X613974Y404260D01*
X614236Y404430D01*
X614501Y404593D01*
X614770Y404750D01*
X615043Y404900D01*
X615320Y405044D01*
X615600Y405181D01*
X615883Y405310D01*
X616170Y405433D01*
X616459Y405549D01*
X616751Y405658D01*
X617046Y405759D01*
X617343Y405853D01*
X617643Y405940D01*
X617944Y406019D01*
X618247Y406091D01*
X618552Y406156D01*
X618859Y406213D01*
X619167Y406263D01*
X619475Y406304D01*
X619785Y406339D01*
X620096Y406366D01*
X620407Y406385D01*
X620718Y406396D01*
X621030Y406400D01*
X621342Y406396D01*
X621653Y406385D01*
X621964Y406366D01*
X622275Y406339D01*
X622585Y406304D01*
X622893Y406263D01*
X623201Y406213D01*
X623508Y406156D01*
X623813Y406091D01*
X624116Y406019D01*
X624417Y405940D01*
X624717Y405853D01*
X625014Y405759D01*
X625309Y405658D01*
X625601Y405549D01*
X625890Y405433D01*
X626177Y405310D01*
X626460Y405181D01*
X626740Y405044D01*
X627017Y404900D01*
X627290Y404750D01*
X627559Y404593D01*
X627824Y404430D01*
X628086Y404260D01*
X628343Y404083D01*
X628595Y403901D01*
X628843Y403712D01*
X629087Y403517D01*
X629325Y403317D01*
X629559Y403110D01*
X629787Y402898D01*
X630010Y402680D01*
X630228Y402457D01*
X630440Y402229D01*
X630647Y401995D01*
X630847Y401757D01*
X631042Y401513D01*
X631231Y401265D01*
X631413Y401013D01*
X631590Y400756D01*
X631760Y400494D01*
X631923Y400229D01*
X632080Y399960D01*
X632230Y399687D01*
X632374Y399410D01*
X632511Y399130D01*
X632640Y398847D01*
X632763Y398560D01*
X632879Y398271D01*
X632988Y397979D01*
X633089Y397684D01*
X633183Y397387D01*
X633270Y397087D01*
X633349Y396786D01*
X633421Y396483D01*
X633486Y396178D01*
X633543Y395871D01*
X633593Y395563D01*
X633634Y395255D01*
X633669Y394945D01*
X633696Y394634D01*
X633715Y394323D01*
X633726Y394012D01*
X633730Y393700D01*
X633726Y393388D01*
X633715Y393077D01*
X633696Y392766D01*
X633669Y392455D01*
X633634Y392145D01*
X633593Y391837D01*
X633543Y391529D01*
X633486Y391222D01*
X633421Y390917D01*
X633349Y390614D01*
X633270Y390313D01*
X633183Y390013D01*
X633089Y389716D01*
X632988Y389421D01*
X632879Y389129D01*
X632763Y388840D01*
X632640Y388553D01*
X632511Y388270D01*
X632374Y387990D01*
X632230Y387713D01*
X632080Y387440D01*
X631923Y387171D01*
X631760Y386906D01*
X631590Y386644D01*
X631413Y386387D01*
X631231Y386135D01*
X631042Y385887D01*
X630847Y385643D01*
X630647Y385405D01*
X630440Y385171D01*
X630228Y384943D01*
X630010Y384720D01*
X629787Y384502D01*
X629559Y384290D01*
X629325Y384083D01*
X629087Y383883D01*
X628843Y383688D01*
X628595Y383499D01*
X628343Y383317D01*
X628086Y383140D01*
X627824Y382970D01*
X627559Y382807D01*
X627290Y382650D01*
X627017Y382500D01*
X626740Y382356D01*
X626460Y382219D01*
X626177Y382090D01*
X625890Y381967D01*
X625601Y381851D01*
X625309Y381742D01*
X625014Y381641D01*
X624717Y381547D01*
X624417Y381460D01*
X624116Y381381D01*
X623813Y381309D01*
X623508Y381244D01*
X623201Y381187D01*
X622893Y381137D01*
X622585Y381096D01*
X622275Y381061D01*
X621964Y381034D01*
X621653Y381015D01*
X621342Y381004D01*
X621030Y381000D01*
X620718Y381004D01*
X620407Y381015D01*
X620096Y381034D01*
X619785Y381061D01*
X619475Y381096D01*
X619167Y381137D01*
X618859Y381187D01*
X618552Y381244D01*
X618247Y381309D01*
X617944Y381381D01*
X617643Y381460D01*
X617343Y381547D01*
X617046Y381641D01*
X616751Y381742D01*
X616459Y381851D01*
X616170Y381967D01*
X615883Y382090D01*
X615600Y382219D01*
X615320Y382356D01*
X615043Y382500D01*
X614770Y382650D01*
X614501Y382807D01*
X614236Y382970D01*
X613974Y383140D01*
X613717Y383317D01*
X613465Y383499D01*
X613217Y383688D01*
X612973Y383883D01*
X612735Y384083D01*
X612501Y384290D01*
X612273Y384502D01*
X612050Y384720D01*
X611832Y384943D01*
X611620Y385171D01*
X611413Y385405D01*
X611213Y385643D01*
X611018Y385887D01*
X610829Y386135D01*
X610647Y386387D01*
X610470Y386644D01*
X610300Y386906D01*
X610137Y387171D01*
X609980Y387440D01*
X609830Y387713D01*
X609686Y387990D01*
X609549Y388270D01*
X609420Y388553D01*
X609297Y388840D01*
X609181Y389129D01*
X609072Y389421D01*
X608971Y389716D01*
X608877Y390013D01*
X608790Y390313D01*
X608711Y390614D01*
X608639Y390917D01*
X608574Y391222D01*
X608517Y391529D01*
X608467Y391837D01*
X608426Y392145D01*
X608391Y392455D01*
X608364Y392766D01*
X608345Y393077D01*
X608334Y393388D01*
X608330Y393700D01*
X607060Y171450D02*
X607064Y171762D01*
X607075Y172073D01*
X607094Y172384D01*
X607121Y172695D01*
X607156Y173005D01*
X607197Y173313D01*
X607247Y173621D01*
X607304Y173928D01*
X607369Y174233D01*
X607441Y174536D01*
X607520Y174837D01*
X607607Y175137D01*
X607701Y175434D01*
X607802Y175729D01*
X607911Y176021D01*
X608027Y176310D01*
X608150Y176597D01*
X608279Y176880D01*
X608416Y177160D01*
X608560Y177437D01*
X608710Y177710D01*
X608867Y177979D01*
X609030Y178244D01*
X609200Y178506D01*
X609377Y178763D01*
X609559Y179015D01*
X609748Y179263D01*
X609943Y179507D01*
X610143Y179745D01*
X610350Y179979D01*
X610562Y180207D01*
X610780Y180430D01*
X611003Y180648D01*
X611231Y180860D01*
X611465Y181067D01*
X611703Y181267D01*
X611947Y181462D01*
X612195Y181651D01*
X612447Y181833D01*
X612704Y182010D01*
X612966Y182180D01*
X613231Y182343D01*
X613500Y182500D01*
X613773Y182650D01*
X614050Y182794D01*
X614330Y182931D01*
X614613Y183060D01*
X614900Y183183D01*
X615189Y183299D01*
X615481Y183408D01*
X615776Y183509D01*
X616073Y183603D01*
X616373Y183690D01*
X616674Y183769D01*
X616977Y183841D01*
X617282Y183906D01*
X617589Y183963D01*
X617897Y184013D01*
X618205Y184054D01*
X618515Y184089D01*
X618826Y184116D01*
X619137Y184135D01*
X619448Y184146D01*
X619760Y184150D01*
X620072Y184146D01*
X620383Y184135D01*
X620694Y184116D01*
X621005Y184089D01*
X621315Y184054D01*
X621623Y184013D01*
X621931Y183963D01*
X622238Y183906D01*
X622543Y183841D01*
X622846Y183769D01*
X623147Y183690D01*
X623447Y183603D01*
X623744Y183509D01*
X624039Y183408D01*
X624331Y183299D01*
X624620Y183183D01*
X624907Y183060D01*
X625190Y182931D01*
X625470Y182794D01*
X625747Y182650D01*
X626020Y182500D01*
X626289Y182343D01*
X626554Y182180D01*
X626816Y182010D01*
X627073Y181833D01*
X627325Y181651D01*
X627573Y181462D01*
X627817Y181267D01*
X628055Y181067D01*
X628289Y180860D01*
X628517Y180648D01*
X628740Y180430D01*
X628958Y180207D01*
X629170Y179979D01*
X629377Y179745D01*
X629577Y179507D01*
X629772Y179263D01*
X629961Y179015D01*
X630143Y178763D01*
X630320Y178506D01*
X630490Y178244D01*
X630653Y177979D01*
X630810Y177710D01*
X630960Y177437D01*
X631104Y177160D01*
X631241Y176880D01*
X631370Y176597D01*
X631493Y176310D01*
X631609Y176021D01*
X631718Y175729D01*
X631819Y175434D01*
X631913Y175137D01*
X632000Y174837D01*
X632079Y174536D01*
X632151Y174233D01*
X632216Y173928D01*
X632273Y173621D01*
X632323Y173313D01*
X632364Y173005D01*
X632399Y172695D01*
X632426Y172384D01*
X632445Y172073D01*
X632456Y171762D01*
X632460Y171450D01*
X632456Y171138D01*
X632445Y170827D01*
X632426Y170516D01*
X632399Y170205D01*
X632364Y169895D01*
X632323Y169587D01*
X632273Y169279D01*
X632216Y168972D01*
X632151Y168667D01*
X632079Y168364D01*
X632000Y168063D01*
X631913Y167763D01*
X631819Y167466D01*
X631718Y167171D01*
X631609Y166879D01*
X631493Y166590D01*
X631370Y166303D01*
X631241Y166020D01*
X631104Y165740D01*
X630960Y165463D01*
X630810Y165190D01*
X630653Y164921D01*
X630490Y164656D01*
X630320Y164394D01*
X630143Y164137D01*
X629961Y163885D01*
X629772Y163637D01*
X629577Y163393D01*
X629377Y163155D01*
X629170Y162921D01*
X628958Y162693D01*
X628740Y162470D01*
X628517Y162252D01*
X628289Y162040D01*
X628055Y161833D01*
X627817Y161633D01*
X627573Y161438D01*
X627325Y161249D01*
X627073Y161067D01*
X626816Y160890D01*
X626554Y160720D01*
X626289Y160557D01*
X626020Y160400D01*
X625747Y160250D01*
X625470Y160106D01*
X625190Y159969D01*
X624907Y159840D01*
X624620Y159717D01*
X624331Y159601D01*
X624039Y159492D01*
X623744Y159391D01*
X623447Y159297D01*
X623147Y159210D01*
X622846Y159131D01*
X622543Y159059D01*
X622238Y158994D01*
X621931Y158937D01*
X621623Y158887D01*
X621315Y158846D01*
X621005Y158811D01*
X620694Y158784D01*
X620383Y158765D01*
X620072Y158754D01*
X619760Y158750D01*
X619448Y158754D01*
X619137Y158765D01*
X618826Y158784D01*
X618515Y158811D01*
X618205Y158846D01*
X617897Y158887D01*
X617589Y158937D01*
X617282Y158994D01*
X616977Y159059D01*
X616674Y159131D01*
X616373Y159210D01*
X616073Y159297D01*
X615776Y159391D01*
X615481Y159492D01*
X615189Y159601D01*
X614900Y159717D01*
X614613Y159840D01*
X614330Y159969D01*
X614050Y160106D01*
X613773Y160250D01*
X613500Y160400D01*
X613231Y160557D01*
X612966Y160720D01*
X612704Y160890D01*
X612447Y161067D01*
X612195Y161249D01*
X611947Y161438D01*
X611703Y161633D01*
X611465Y161833D01*
X611231Y162040D01*
X611003Y162252D01*
X610780Y162470D01*
X610562Y162693D01*
X610350Y162921D01*
X610143Y163155D01*
X609943Y163393D01*
X609748Y163637D01*
X609559Y163885D01*
X609377Y164137D01*
X609200Y164394D01*
X609030Y164656D01*
X608867Y164921D01*
X608710Y165190D01*
X608560Y165463D01*
X608416Y165740D01*
X608279Y166020D01*
X608150Y166303D01*
X608027Y166590D01*
X607911Y166879D01*
X607802Y167171D01*
X607701Y167466D01*
X607607Y167763D01*
X607520Y168063D01*
X607441Y168364D01*
X607369Y168667D01*
X607304Y168972D01*
X607247Y169279D01*
X607197Y169587D01*
X607156Y169895D01*
X607121Y170205D01*
X607094Y170516D01*
X607075Y170827D01*
X607064Y171138D01*
X607060Y171450D01*
X944880Y393700D02*
X944884Y394012D01*
X944895Y394323D01*
X944914Y394634D01*
X944941Y394945D01*
X944976Y395255D01*
X945017Y395563D01*
X945067Y395871D01*
X945124Y396178D01*
X945189Y396483D01*
X945261Y396786D01*
X945340Y397087D01*
X945427Y397387D01*
X945521Y397684D01*
X945622Y397979D01*
X945731Y398271D01*
X945847Y398560D01*
X945970Y398847D01*
X946099Y399130D01*
X946236Y399410D01*
X946380Y399687D01*
X946530Y399960D01*
X946687Y400229D01*
X946850Y400494D01*
X947020Y400756D01*
X947197Y401013D01*
X947379Y401265D01*
X947568Y401513D01*
X947763Y401757D01*
X947963Y401995D01*
X948170Y402229D01*
X948382Y402457D01*
X948600Y402680D01*
X948823Y402898D01*
X949051Y403110D01*
X949285Y403317D01*
X949523Y403517D01*
X949767Y403712D01*
X950015Y403901D01*
X950267Y404083D01*
X950524Y404260D01*
X950786Y404430D01*
X951051Y404593D01*
X951320Y404750D01*
X951593Y404900D01*
X951870Y405044D01*
X952150Y405181D01*
X952433Y405310D01*
X952720Y405433D01*
X953009Y405549D01*
X953301Y405658D01*
X953596Y405759D01*
X953893Y405853D01*
X954193Y405940D01*
X954494Y406019D01*
X954797Y406091D01*
X955102Y406156D01*
X955409Y406213D01*
X955717Y406263D01*
X956025Y406304D01*
X956335Y406339D01*
X956646Y406366D01*
X956957Y406385D01*
X957268Y406396D01*
X957580Y406400D01*
X957892Y406396D01*
X958203Y406385D01*
X958514Y406366D01*
X958825Y406339D01*
X959135Y406304D01*
X959443Y406263D01*
X959751Y406213D01*
X960058Y406156D01*
X960363Y406091D01*
X960666Y406019D01*
X960967Y405940D01*
X961267Y405853D01*
X961564Y405759D01*
X961859Y405658D01*
X962151Y405549D01*
X962440Y405433D01*
X962727Y405310D01*
X963010Y405181D01*
X963290Y405044D01*
X963567Y404900D01*
X963840Y404750D01*
X964109Y404593D01*
X964374Y404430D01*
X964636Y404260D01*
X964893Y404083D01*
X965145Y403901D01*
X965393Y403712D01*
X965637Y403517D01*
X965875Y403317D01*
X966109Y403110D01*
X966337Y402898D01*
X966560Y402680D01*
X966778Y402457D01*
X966990Y402229D01*
X967197Y401995D01*
X967397Y401757D01*
X967592Y401513D01*
X967781Y401265D01*
X967963Y401013D01*
X968140Y400756D01*
X968310Y400494D01*
X968473Y400229D01*
X968630Y399960D01*
X968780Y399687D01*
X968924Y399410D01*
X969061Y399130D01*
X969190Y398847D01*
X969313Y398560D01*
X969429Y398271D01*
X969538Y397979D01*
X969639Y397684D01*
X969733Y397387D01*
X969820Y397087D01*
X969899Y396786D01*
X969971Y396483D01*
X970036Y396178D01*
X970093Y395871D01*
X970143Y395563D01*
X970184Y395255D01*
X970219Y394945D01*
X970246Y394634D01*
X970265Y394323D01*
X970276Y394012D01*
X970280Y393700D01*
X970276Y393388D01*
X970265Y393077D01*
X970246Y392766D01*
X970219Y392455D01*
X970184Y392145D01*
X970143Y391837D01*
X970093Y391529D01*
X970036Y391222D01*
X969971Y390917D01*
X969899Y390614D01*
X969820Y390313D01*
X969733Y390013D01*
X969639Y389716D01*
X969538Y389421D01*
X969429Y389129D01*
X969313Y388840D01*
X969190Y388553D01*
X969061Y388270D01*
X968924Y387990D01*
X968780Y387713D01*
X968630Y387440D01*
X968473Y387171D01*
X968310Y386906D01*
X968140Y386644D01*
X967963Y386387D01*
X967781Y386135D01*
X967592Y385887D01*
X967397Y385643D01*
X967197Y385405D01*
X966990Y385171D01*
X966778Y384943D01*
X966560Y384720D01*
X966337Y384502D01*
X966109Y384290D01*
X965875Y384083D01*
X965637Y383883D01*
X965393Y383688D01*
X965145Y383499D01*
X964893Y383317D01*
X964636Y383140D01*
X964374Y382970D01*
X964109Y382807D01*
X963840Y382650D01*
X963567Y382500D01*
X963290Y382356D01*
X963010Y382219D01*
X962727Y382090D01*
X962440Y381967D01*
X962151Y381851D01*
X961859Y381742D01*
X961564Y381641D01*
X961267Y381547D01*
X960967Y381460D01*
X960666Y381381D01*
X960363Y381309D01*
X960058Y381244D01*
X959751Y381187D01*
X959443Y381137D01*
X959135Y381096D01*
X958825Y381061D01*
X958514Y381034D01*
X958203Y381015D01*
X957892Y381004D01*
X957580Y381000D01*
X957268Y381004D01*
X956957Y381015D01*
X956646Y381034D01*
X956335Y381061D01*
X956025Y381096D01*
X955717Y381137D01*
X955409Y381187D01*
X955102Y381244D01*
X954797Y381309D01*
X954494Y381381D01*
X954193Y381460D01*
X953893Y381547D01*
X953596Y381641D01*
X953301Y381742D01*
X953009Y381851D01*
X952720Y381967D01*
X952433Y382090D01*
X952150Y382219D01*
X951870Y382356D01*
X951593Y382500D01*
X951320Y382650D01*
X951051Y382807D01*
X950786Y382970D01*
X950524Y383140D01*
X950267Y383317D01*
X950015Y383499D01*
X949767Y383688D01*
X949523Y383883D01*
X949285Y384083D01*
X949051Y384290D01*
X948823Y384502D01*
X948600Y384720D01*
X948382Y384943D01*
X948170Y385171D01*
X947963Y385405D01*
X947763Y385643D01*
X947568Y385887D01*
X947379Y386135D01*
X947197Y386387D01*
X947020Y386644D01*
X946850Y386906D01*
X946687Y387171D01*
X946530Y387440D01*
X946380Y387713D01*
X946236Y387990D01*
X946099Y388270D01*
X945970Y388553D01*
X945847Y388840D01*
X945731Y389129D01*
X945622Y389421D01*
X945521Y389716D01*
X945427Y390013D01*
X945340Y390313D01*
X945261Y390614D01*
X945189Y390917D01*
X945124Y391222D01*
X945067Y391529D01*
X945017Y391837D01*
X944976Y392145D01*
X944941Y392455D01*
X944914Y392766D01*
X944895Y393077D01*
X944884Y393388D01*
X944880Y393700D01*
X944880Y172720D02*
X944884Y173032D01*
X944895Y173343D01*
X944914Y173654D01*
X944941Y173965D01*
X944976Y174275D01*
X945017Y174583D01*
X945067Y174891D01*
X945124Y175198D01*
X945189Y175503D01*
X945261Y175806D01*
X945340Y176107D01*
X945427Y176407D01*
X945521Y176704D01*
X945622Y176999D01*
X945731Y177291D01*
X945847Y177580D01*
X945970Y177867D01*
X946099Y178150D01*
X946236Y178430D01*
X946380Y178707D01*
X946530Y178980D01*
X946687Y179249D01*
X946850Y179514D01*
X947020Y179776D01*
X947197Y180033D01*
X947379Y180285D01*
X947568Y180533D01*
X947763Y180777D01*
X947963Y181015D01*
X948170Y181249D01*
X948382Y181477D01*
X948600Y181700D01*
X948823Y181918D01*
X949051Y182130D01*
X949285Y182337D01*
X949523Y182537D01*
X949767Y182732D01*
X950015Y182921D01*
X950267Y183103D01*
X950524Y183280D01*
X950786Y183450D01*
X951051Y183613D01*
X951320Y183770D01*
X951593Y183920D01*
X951870Y184064D01*
X952150Y184201D01*
X952433Y184330D01*
X952720Y184453D01*
X953009Y184569D01*
X953301Y184678D01*
X953596Y184779D01*
X953893Y184873D01*
X954193Y184960D01*
X954494Y185039D01*
X954797Y185111D01*
X955102Y185176D01*
X955409Y185233D01*
X955717Y185283D01*
X956025Y185324D01*
X956335Y185359D01*
X956646Y185386D01*
X956957Y185405D01*
X957268Y185416D01*
X957580Y185420D01*
X957892Y185416D01*
X958203Y185405D01*
X958514Y185386D01*
X958825Y185359D01*
X959135Y185324D01*
X959443Y185283D01*
X959751Y185233D01*
X960058Y185176D01*
X960363Y185111D01*
X960666Y185039D01*
X960967Y184960D01*
X961267Y184873D01*
X961564Y184779D01*
X961859Y184678D01*
X962151Y184569D01*
X962440Y184453D01*
X962727Y184330D01*
X963010Y184201D01*
X963290Y184064D01*
X963567Y183920D01*
X963840Y183770D01*
X964109Y183613D01*
X964374Y183450D01*
X964636Y183280D01*
X964893Y183103D01*
X965145Y182921D01*
X965393Y182732D01*
X965637Y182537D01*
X965875Y182337D01*
X966109Y182130D01*
X966337Y181918D01*
X966560Y181700D01*
X966778Y181477D01*
X966990Y181249D01*
X967197Y181015D01*
X967397Y180777D01*
X967592Y180533D01*
X967781Y180285D01*
X967963Y180033D01*
X968140Y179776D01*
X968310Y179514D01*
X968473Y179249D01*
X968630Y178980D01*
X968780Y178707D01*
X968924Y178430D01*
X969061Y178150D01*
X969190Y177867D01*
X969313Y177580D01*
X969429Y177291D01*
X969538Y176999D01*
X969639Y176704D01*
X969733Y176407D01*
X969820Y176107D01*
X969899Y175806D01*
X969971Y175503D01*
X970036Y175198D01*
X970093Y174891D01*
X970143Y174583D01*
X970184Y174275D01*
X970219Y173965D01*
X970246Y173654D01*
X970265Y173343D01*
X970276Y173032D01*
X970280Y172720D01*
X970276Y172408D01*
X970265Y172097D01*
X970246Y171786D01*
X970219Y171475D01*
X970184Y171165D01*
X970143Y170857D01*
X970093Y170549D01*
X970036Y170242D01*
X969971Y169937D01*
X969899Y169634D01*
X969820Y169333D01*
X969733Y169033D01*
X969639Y168736D01*
X969538Y168441D01*
X969429Y168149D01*
X969313Y167860D01*
X969190Y167573D01*
X969061Y167290D01*
X968924Y167010D01*
X968780Y166733D01*
X968630Y166460D01*
X968473Y166191D01*
X968310Y165926D01*
X968140Y165664D01*
X967963Y165407D01*
X967781Y165155D01*
X967592Y164907D01*
X967397Y164663D01*
X967197Y164425D01*
X966990Y164191D01*
X966778Y163963D01*
X966560Y163740D01*
X966337Y163522D01*
X966109Y163310D01*
X965875Y163103D01*
X965637Y162903D01*
X965393Y162708D01*
X965145Y162519D01*
X964893Y162337D01*
X964636Y162160D01*
X964374Y161990D01*
X964109Y161827D01*
X963840Y161670D01*
X963567Y161520D01*
X963290Y161376D01*
X963010Y161239D01*
X962727Y161110D01*
X962440Y160987D01*
X962151Y160871D01*
X961859Y160762D01*
X961564Y160661D01*
X961267Y160567D01*
X960967Y160480D01*
X960666Y160401D01*
X960363Y160329D01*
X960058Y160264D01*
X959751Y160207D01*
X959443Y160157D01*
X959135Y160116D01*
X958825Y160081D01*
X958514Y160054D01*
X958203Y160035D01*
X957892Y160024D01*
X957580Y160020D01*
X957268Y160024D01*
X956957Y160035D01*
X956646Y160054D01*
X956335Y160081D01*
X956025Y160116D01*
X955717Y160157D01*
X955409Y160207D01*
X955102Y160264D01*
X954797Y160329D01*
X954494Y160401D01*
X954193Y160480D01*
X953893Y160567D01*
X953596Y160661D01*
X953301Y160762D01*
X953009Y160871D01*
X952720Y160987D01*
X952433Y161110D01*
X952150Y161239D01*
X951870Y161376D01*
X951593Y161520D01*
X951320Y161670D01*
X951051Y161827D01*
X950786Y161990D01*
X950524Y162160D01*
X950267Y162337D01*
X950015Y162519D01*
X949767Y162708D01*
X949523Y162903D01*
X949285Y163103D01*
X949051Y163310D01*
X948823Y163522D01*
X948600Y163740D01*
X948382Y163963D01*
X948170Y164191D01*
X947963Y164425D01*
X947763Y164663D01*
X947568Y164907D01*
X947379Y165155D01*
X947197Y165407D01*
X947020Y165664D01*
X946850Y165926D01*
X946687Y166191D01*
X946530Y166460D01*
X946380Y166733D01*
X946236Y167010D01*
X946099Y167290D01*
X945970Y167573D01*
X945847Y167860D01*
X945731Y168149D01*
X945622Y168441D01*
X945521Y168736D01*
X945427Y169033D01*
X945340Y169333D01*
X945261Y169634D01*
X945189Y169937D01*
X945124Y170242D01*
X945067Y170549D01*
X945017Y170857D01*
X944976Y171165D01*
X944941Y171475D01*
X944914Y171786D01*
X944895Y172097D01*
X944884Y172408D01*
X944880Y172720D01*
M02*
