G04 EAGLE Gerber RS-274X export*
G75*
%MOMM*%
%FSLAX34Y34*%
%LPD*%
%INSoldermask Bottom*%
%IPPOS*%
%AMOC8*
5,1,8,0,0,1.08239X$1,22.5*%
G01*
%ADD10C,2.601600*%
%ADD11C,1.766600*%
%ADD12C,1.879600*%
%ADD13R,2.801600X2.651600*%
%ADD14R,1.301600X0.901600*%
%ADD15C,1.609600*%
%ADD16C,5.943600*%
%ADD17C,1.981200*%
%ADD18R,1.501600X1.501600*%
%ADD19R,1.371600X2.161600*%
%ADD20C,1.601600*%
%ADD21C,1.208000*%


D10*
X621030Y393700D03*
X619760Y171450D03*
X957580Y393700D03*
X957580Y172720D03*
D11*
X43180Y408940D03*
X68580Y408940D03*
X93980Y408940D03*
X119380Y408940D03*
X144780Y408940D03*
X170180Y408940D03*
X195580Y408940D03*
X220980Y408940D03*
X246380Y408940D03*
X271780Y408940D03*
X297180Y408940D03*
X322580Y408940D03*
X347980Y408940D03*
X373380Y408940D03*
X398780Y408940D03*
X424180Y408940D03*
X449580Y408940D03*
X474980Y408940D03*
X500380Y408940D03*
X500380Y154940D03*
X474980Y154940D03*
X449580Y154940D03*
X424180Y154940D03*
X398780Y154940D03*
X373380Y154940D03*
X347980Y154940D03*
X322580Y154940D03*
X297180Y154940D03*
X271780Y154940D03*
X246380Y154940D03*
X220980Y154940D03*
X195580Y154940D03*
X170180Y154940D03*
X144780Y154940D03*
X119380Y154940D03*
X93980Y154940D03*
X68580Y154940D03*
X43180Y154940D03*
D12*
X307340Y243840D03*
X307340Y269240D03*
X307340Y294640D03*
X307340Y320040D03*
D13*
X237490Y307290D03*
X237490Y243890D03*
D14*
X195580Y243730D03*
X195580Y261730D03*
D15*
X910590Y436880D03*
X885190Y436880D03*
X859790Y436880D03*
X834390Y436880D03*
X808990Y436880D03*
X783590Y436880D03*
X758190Y436880D03*
X732790Y436880D03*
X707390Y436880D03*
X681990Y436880D03*
X656590Y436880D03*
X631190Y436880D03*
X605790Y436880D03*
X605790Y132080D03*
X631190Y132080D03*
X656590Y132080D03*
X681990Y132080D03*
X707390Y132080D03*
X732790Y132080D03*
X758190Y132080D03*
X783590Y132080D03*
X808990Y132080D03*
X834390Y132080D03*
X859790Y132080D03*
X885190Y132080D03*
X910590Y132080D03*
D16*
X46990Y511810D03*
X929640Y511810D03*
X46990Y46990D03*
X929640Y46990D03*
D17*
X466852Y307086D03*
X401828Y307086D03*
X466852Y261874D03*
X401828Y261874D03*
D18*
X637540Y474980D03*
X621030Y474980D03*
X604520Y474980D03*
D19*
X450620Y337820D03*
X415520Y337820D03*
D13*
X668020Y256590D03*
X668020Y319990D03*
D14*
X707390Y320150D03*
X707390Y302150D03*
D15*
X617220Y321310D03*
X617220Y295910D03*
X617220Y270510D03*
X617220Y245110D03*
D17*
X43180Y459740D03*
X68580Y459740D03*
X93980Y459740D03*
X119380Y459740D03*
X144780Y459740D03*
X170180Y459740D03*
X195580Y459740D03*
X220980Y459740D03*
X246380Y459740D03*
X271780Y459740D03*
X297180Y459740D03*
X322580Y459740D03*
X347980Y459740D03*
X373380Y459740D03*
X398780Y459740D03*
X424180Y459740D03*
X449580Y459740D03*
X474980Y459740D03*
X500380Y459740D03*
X43180Y104140D03*
X68580Y104140D03*
X93980Y104140D03*
X119380Y104140D03*
X144780Y104140D03*
X170180Y104140D03*
X195580Y104140D03*
X220980Y104140D03*
X246380Y104140D03*
X271780Y104140D03*
X297180Y104140D03*
X322580Y104140D03*
X347980Y104140D03*
X373380Y104140D03*
X398780Y104140D03*
X424180Y104140D03*
X449580Y104140D03*
X474980Y104140D03*
X500380Y104140D03*
X27940Y320040D03*
X27940Y294640D03*
X27940Y269240D03*
X27940Y243840D03*
D20*
X237490Y293370D03*
X668020Y267970D03*
D21*
X712470Y401320D03*
X195580Y267970D03*
X707390Y295910D03*
X458470Y337820D03*
X195580Y237490D03*
D20*
X668020Y306070D03*
D21*
X683260Y401320D03*
X707390Y326390D03*
X407670Y337820D03*
D20*
X237490Y257810D03*
M02*
