G04 EAGLE Gerber RS-274X export*
G75*
%MOMM*%
%FSLAX34Y34*%
%LPD*%
%INSoldermask Top*%
%IPPOS*%
%AMOC8*
5,1,8,0,0,1.08239X$1,22.5*%
G01*
%ADD10C,2.601600*%
%ADD11C,1.766600*%
%ADD12C,1.879600*%
%ADD13C,1.609600*%
%ADD14C,5.943600*%
%ADD15C,1.981200*%
%ADD16R,0.901600X1.301600*%
%ADD17R,1.270000X1.701800*%
%ADD18R,0.152400X1.828800*%
%ADD19C,1.601600*%
%ADD20C,1.208000*%


D10*
X621030Y393700D03*
X619760Y171450D03*
X957580Y393700D03*
X957580Y172720D03*
D11*
X43180Y408940D03*
X68580Y408940D03*
X93980Y408940D03*
X119380Y408940D03*
X144780Y408940D03*
X170180Y408940D03*
X195580Y408940D03*
X220980Y408940D03*
X246380Y408940D03*
X271780Y408940D03*
X297180Y408940D03*
X322580Y408940D03*
X347980Y408940D03*
X373380Y408940D03*
X398780Y408940D03*
X424180Y408940D03*
X449580Y408940D03*
X474980Y408940D03*
X500380Y408940D03*
X500380Y154940D03*
X474980Y154940D03*
X449580Y154940D03*
X424180Y154940D03*
X398780Y154940D03*
X373380Y154940D03*
X347980Y154940D03*
X322580Y154940D03*
X297180Y154940D03*
X271780Y154940D03*
X246380Y154940D03*
X220980Y154940D03*
X195580Y154940D03*
X170180Y154940D03*
X144780Y154940D03*
X119380Y154940D03*
X93980Y154940D03*
X68580Y154940D03*
X43180Y154940D03*
D12*
X307340Y243840D03*
X307340Y269240D03*
X307340Y294640D03*
X307340Y320040D03*
D13*
X910590Y436880D03*
X885190Y436880D03*
X859790Y436880D03*
X834390Y436880D03*
X808990Y436880D03*
X783590Y436880D03*
X758190Y436880D03*
X732790Y436880D03*
X707390Y436880D03*
X681990Y436880D03*
X656590Y436880D03*
X631190Y436880D03*
X605790Y436880D03*
X605790Y132080D03*
X631190Y132080D03*
X656590Y132080D03*
X681990Y132080D03*
X707390Y132080D03*
X732790Y132080D03*
X758190Y132080D03*
X783590Y132080D03*
X808990Y132080D03*
X834390Y132080D03*
X859790Y132080D03*
X885190Y132080D03*
X910590Y132080D03*
D14*
X46990Y511810D03*
X929640Y511810D03*
X46990Y46990D03*
X929640Y46990D03*
D15*
X466852Y307086D03*
X401828Y307086D03*
X466852Y261874D03*
X401828Y261874D03*
D13*
X617220Y321310D03*
X617220Y295910D03*
X617220Y270510D03*
X617220Y245110D03*
D16*
X689500Y401320D03*
X707500Y401320D03*
D17*
X143510Y200660D03*
X158750Y200660D03*
D18*
X151130Y200660D03*
D17*
X227330Y200660D03*
X242570Y200660D03*
D18*
X234950Y200660D03*
D17*
X262890Y200660D03*
X278130Y200660D03*
D18*
X270510Y200660D03*
D17*
X179070Y200660D03*
X194310Y200660D03*
D18*
X186690Y200660D03*
D15*
X43180Y459740D03*
X68580Y459740D03*
X93980Y459740D03*
X119380Y459740D03*
X144780Y459740D03*
X170180Y459740D03*
X195580Y459740D03*
X220980Y459740D03*
X246380Y459740D03*
X271780Y459740D03*
X297180Y459740D03*
X322580Y459740D03*
X347980Y459740D03*
X373380Y459740D03*
X398780Y459740D03*
X424180Y459740D03*
X449580Y459740D03*
X474980Y459740D03*
X500380Y459740D03*
X43180Y104140D03*
X68580Y104140D03*
X93980Y104140D03*
X119380Y104140D03*
X144780Y104140D03*
X170180Y104140D03*
X195580Y104140D03*
X220980Y104140D03*
X246380Y104140D03*
X271780Y104140D03*
X297180Y104140D03*
X322580Y104140D03*
X347980Y104140D03*
X373380Y104140D03*
X398780Y104140D03*
X424180Y104140D03*
X449580Y104140D03*
X474980Y104140D03*
X500380Y104140D03*
X27940Y320040D03*
X27940Y294640D03*
X27940Y269240D03*
X27940Y243840D03*
D19*
X237490Y293370D03*
X668020Y267970D03*
D20*
X712470Y401320D03*
X195580Y267970D03*
X707390Y295910D03*
X458470Y337820D03*
X195580Y237490D03*
D19*
X668020Y306070D03*
D20*
X683260Y401320D03*
X707390Y326390D03*
X407670Y337820D03*
D19*
X237490Y257810D03*
M02*
