G04 EAGLE Gerber RS-274X export*
G75*
%MOMM*%
%FSLAX34Y34*%
%LPD*%
%INSoldermask Bottom*%
%IPPOS*%
%AMOC8*
5,1,8,0,0,1.08239X$1,22.5*%
G01*
%ADD10C,2.403200*%
%ADD11C,2.703200*%
%ADD12P,1.635708X8X292.500000*%
%ADD13C,1.981200*%
%ADD14C,2.103200*%
%ADD15R,2.903200X2.753200*%
%ADD16R,1.403200X1.003200*%
%ADD17C,1.711200*%
%ADD18C,6.045200*%
%ADD19C,2.082800*%
%ADD20R,1.603200X1.603200*%
%ADD21R,1.473200X2.263200*%
%ADD22C,1.703200*%
%ADD23C,1.309600*%


D10*
X17780Y410210D03*
X17780Y156210D03*
X551180Y156210D03*
X551180Y410210D03*
D11*
X621030Y393700D03*
X619760Y171450D03*
X957580Y393700D03*
X957580Y172720D03*
D12*
X43180Y410210D03*
X68580Y410210D03*
X93980Y410210D03*
X119380Y410210D03*
X144780Y410210D03*
X170180Y410210D03*
X195580Y410210D03*
X220980Y410210D03*
X246380Y410210D03*
X271780Y410210D03*
X297180Y410210D03*
X322580Y410210D03*
X347980Y410210D03*
X373380Y410210D03*
X398780Y410210D03*
X424180Y410210D03*
X449580Y410210D03*
X474980Y410210D03*
X500380Y410210D03*
X500380Y156210D03*
X474980Y156210D03*
X449580Y156210D03*
X424180Y156210D03*
X398780Y156210D03*
X373380Y156210D03*
X347980Y156210D03*
X322580Y156210D03*
X297180Y156210D03*
X271780Y156210D03*
X246380Y156210D03*
X220980Y156210D03*
X195580Y156210D03*
X170180Y156210D03*
X144780Y156210D03*
X119380Y156210D03*
X93980Y156210D03*
X68580Y156210D03*
X43180Y156210D03*
D13*
X307340Y243840D03*
X307340Y269240D03*
X307340Y294640D03*
D14*
X307340Y320040D03*
D15*
X237490Y307290D03*
X237490Y243890D03*
D16*
X195580Y243730D03*
X195580Y261730D03*
D17*
X910590Y436880D03*
X885190Y436880D03*
X859790Y436880D03*
X834390Y436880D03*
X808990Y436880D03*
X783590Y436880D03*
X758190Y436880D03*
X732790Y436880D03*
X707390Y436880D03*
X681990Y436880D03*
X656590Y436880D03*
X631190Y436880D03*
X605790Y436880D03*
X605790Y132080D03*
X631190Y132080D03*
X656590Y132080D03*
X681990Y132080D03*
X707390Y132080D03*
X732790Y132080D03*
X758190Y132080D03*
X783590Y132080D03*
X808990Y132080D03*
X834390Y132080D03*
X859790Y132080D03*
X885190Y132080D03*
X910590Y132080D03*
D18*
X53340Y509270D03*
X929640Y509270D03*
X53340Y52070D03*
X929640Y52070D03*
D19*
X466852Y307086D03*
X401828Y307086D03*
X466852Y261874D03*
X401828Y261874D03*
D20*
X637540Y474980D03*
X621030Y474980D03*
X604520Y474980D03*
D21*
X450620Y337820D03*
X415520Y337820D03*
D15*
X668020Y256590D03*
X668020Y319990D03*
D16*
X707390Y320150D03*
X707390Y302150D03*
D17*
X617220Y321310D03*
X617220Y295910D03*
X617220Y270510D03*
X617220Y245110D03*
D19*
X43180Y435610D03*
X68580Y435610D03*
X93980Y435610D03*
X119380Y435610D03*
X144780Y435610D03*
X170180Y435610D03*
X195580Y435610D03*
X220980Y435610D03*
X246380Y435610D03*
X271780Y435610D03*
X297180Y435610D03*
X322580Y435610D03*
X347980Y435610D03*
X373380Y435610D03*
X398780Y435610D03*
X424180Y435610D03*
X449580Y435610D03*
X474980Y435610D03*
X500380Y435610D03*
X43180Y132080D03*
X68580Y132080D03*
X93980Y132080D03*
X119380Y132080D03*
X144780Y132080D03*
X170180Y132080D03*
X195580Y132080D03*
X220980Y132080D03*
X246380Y132080D03*
X271780Y132080D03*
X297180Y132080D03*
X322580Y132080D03*
X347980Y132080D03*
X373380Y132080D03*
X398780Y132080D03*
X424180Y132080D03*
X449580Y132080D03*
X474980Y132080D03*
X500380Y132080D03*
D22*
X237490Y293370D03*
X668020Y267970D03*
D23*
X712470Y401320D03*
X195580Y267970D03*
X707390Y295910D03*
X458470Y337820D03*
X195580Y237490D03*
D22*
X668020Y306070D03*
D23*
X683260Y401320D03*
X707390Y326390D03*
X407670Y337820D03*
D22*
X237490Y257810D03*
M02*
