G04 EAGLE Gerber RS-274X export*
G75*
%MOMM*%
%FSLAX34Y34*%
%LPD*%
%INSilkscreen Bottom*%
%IPPOS*%
%AMOC8*
5,1,8,0,0,1.08239X$1,22.5*%
G01*
%ADD10C,0.076200*%
%ADD11C,0.127000*%
%ADD12C,0.203200*%
%ADD13C,0.254000*%


D10*
X612005Y152922D02*
X610438Y152922D01*
X610438Y147701D01*
X613571Y147701D01*
X613660Y147703D01*
X613748Y147709D01*
X613836Y147718D01*
X613924Y147731D01*
X614011Y147748D01*
X614097Y147768D01*
X614182Y147793D01*
X614267Y147820D01*
X614350Y147852D01*
X614431Y147886D01*
X614511Y147925D01*
X614589Y147966D01*
X614666Y148011D01*
X614740Y148059D01*
X614813Y148110D01*
X614883Y148164D01*
X614950Y148222D01*
X615016Y148282D01*
X615078Y148344D01*
X615138Y148410D01*
X615196Y148477D01*
X615250Y148547D01*
X615301Y148620D01*
X615349Y148694D01*
X615394Y148771D01*
X615435Y148849D01*
X615474Y148929D01*
X615508Y149010D01*
X615540Y149093D01*
X615567Y149178D01*
X615592Y149263D01*
X615612Y149349D01*
X615629Y149436D01*
X615642Y149524D01*
X615651Y149612D01*
X615657Y149700D01*
X615659Y149789D01*
X615659Y155011D01*
X615657Y155100D01*
X615651Y155188D01*
X615642Y155276D01*
X615629Y155364D01*
X615612Y155451D01*
X615592Y155537D01*
X615567Y155622D01*
X615540Y155707D01*
X615508Y155790D01*
X615474Y155871D01*
X615435Y155951D01*
X615394Y156029D01*
X615349Y156106D01*
X615301Y156180D01*
X615250Y156253D01*
X615196Y156323D01*
X615138Y156390D01*
X615078Y156456D01*
X615016Y156518D01*
X614950Y156578D01*
X614883Y156636D01*
X614813Y156690D01*
X614740Y156741D01*
X614666Y156789D01*
X614589Y156834D01*
X614511Y156875D01*
X614431Y156914D01*
X614350Y156948D01*
X614267Y156980D01*
X614182Y157007D01*
X614097Y157032D01*
X614011Y157052D01*
X613924Y157069D01*
X613836Y157082D01*
X613748Y157091D01*
X613660Y157097D01*
X613571Y157099D01*
X610438Y157099D01*
X605906Y157099D02*
X605906Y147701D01*
X600685Y147701D02*
X605906Y157099D01*
X600685Y157099D02*
X600685Y147701D01*
X596152Y147701D02*
X596152Y157099D01*
X593542Y157099D01*
X593442Y157097D01*
X593342Y157091D01*
X593243Y157082D01*
X593143Y157068D01*
X593045Y157051D01*
X592947Y157030D01*
X592850Y157006D01*
X592754Y156977D01*
X592659Y156945D01*
X592566Y156910D01*
X592474Y156871D01*
X592383Y156828D01*
X592295Y156782D01*
X592208Y156732D01*
X592123Y156680D01*
X592040Y156624D01*
X591959Y156565D01*
X591881Y156502D01*
X591805Y156437D01*
X591731Y156369D01*
X591661Y156299D01*
X591593Y156225D01*
X591528Y156149D01*
X591465Y156071D01*
X591406Y155990D01*
X591350Y155907D01*
X591298Y155822D01*
X591248Y155735D01*
X591202Y155647D01*
X591159Y155556D01*
X591120Y155464D01*
X591085Y155371D01*
X591053Y155276D01*
X591024Y155180D01*
X591000Y155083D01*
X590979Y154985D01*
X590962Y154887D01*
X590948Y154787D01*
X590939Y154688D01*
X590933Y154588D01*
X590931Y154488D01*
X590931Y150312D01*
X590933Y150212D01*
X590939Y150112D01*
X590948Y150013D01*
X590962Y149913D01*
X590979Y149815D01*
X591000Y149717D01*
X591024Y149620D01*
X591053Y149524D01*
X591085Y149429D01*
X591120Y149336D01*
X591159Y149244D01*
X591202Y149153D01*
X591248Y149065D01*
X591298Y148978D01*
X591350Y148893D01*
X591406Y148810D01*
X591465Y148729D01*
X591528Y148651D01*
X591593Y148575D01*
X591661Y148501D01*
X591731Y148431D01*
X591805Y148363D01*
X591881Y148298D01*
X591959Y148235D01*
X592040Y148176D01*
X592123Y148120D01*
X592208Y148068D01*
X592295Y148018D01*
X592383Y147972D01*
X592474Y147929D01*
X592566Y147890D01*
X592659Y147855D01*
X592754Y147823D01*
X592850Y147794D01*
X592947Y147770D01*
X593045Y147749D01*
X593143Y147732D01*
X593243Y147718D01*
X593342Y147709D01*
X593442Y147703D01*
X593542Y147701D01*
X596152Y147701D01*
X605138Y171831D02*
X605138Y181229D01*
X607749Y181229D02*
X602527Y181229D01*
X593471Y181229D02*
X599736Y171831D01*
X593471Y171831D02*
X599736Y181229D01*
X605226Y223901D02*
X608358Y223901D01*
X605226Y223901D02*
X605137Y223903D01*
X605049Y223909D01*
X604961Y223918D01*
X604873Y223931D01*
X604786Y223948D01*
X604700Y223968D01*
X604615Y223993D01*
X604530Y224020D01*
X604447Y224052D01*
X604366Y224086D01*
X604286Y224125D01*
X604208Y224166D01*
X604131Y224211D01*
X604057Y224259D01*
X603984Y224310D01*
X603914Y224364D01*
X603847Y224422D01*
X603781Y224482D01*
X603719Y224544D01*
X603659Y224610D01*
X603601Y224677D01*
X603547Y224747D01*
X603496Y224820D01*
X603448Y224894D01*
X603403Y224971D01*
X603362Y225049D01*
X603323Y225129D01*
X603289Y225210D01*
X603257Y225293D01*
X603230Y225378D01*
X603205Y225463D01*
X603185Y225549D01*
X603168Y225636D01*
X603155Y225724D01*
X603146Y225812D01*
X603140Y225900D01*
X603138Y225989D01*
X603137Y225989D02*
X603137Y227034D01*
X603138Y227034D02*
X603140Y227123D01*
X603146Y227211D01*
X603155Y227299D01*
X603168Y227387D01*
X603185Y227474D01*
X603205Y227560D01*
X603230Y227645D01*
X603257Y227730D01*
X603289Y227813D01*
X603323Y227894D01*
X603362Y227974D01*
X603403Y228052D01*
X603448Y228129D01*
X603496Y228203D01*
X603547Y228276D01*
X603601Y228346D01*
X603659Y228413D01*
X603719Y228479D01*
X603781Y228541D01*
X603847Y228601D01*
X603914Y228659D01*
X603984Y228713D01*
X604057Y228764D01*
X604131Y228812D01*
X604208Y228857D01*
X604286Y228898D01*
X604366Y228937D01*
X604447Y228971D01*
X604530Y229003D01*
X604615Y229030D01*
X604700Y229055D01*
X604786Y229075D01*
X604873Y229092D01*
X604961Y229105D01*
X605049Y229114D01*
X605137Y229120D01*
X605226Y229122D01*
X608358Y229122D01*
X608358Y233299D01*
X603137Y233299D01*
X599736Y233299D02*
X596604Y223901D01*
X593471Y233299D01*
X298746Y217551D02*
X298657Y217553D01*
X298569Y217559D01*
X298481Y217568D01*
X298393Y217581D01*
X298306Y217598D01*
X298220Y217618D01*
X298135Y217643D01*
X298050Y217670D01*
X297967Y217702D01*
X297886Y217736D01*
X297806Y217775D01*
X297728Y217816D01*
X297651Y217861D01*
X297577Y217909D01*
X297504Y217960D01*
X297434Y218014D01*
X297367Y218072D01*
X297301Y218132D01*
X297239Y218194D01*
X297179Y218260D01*
X297121Y218327D01*
X297067Y218397D01*
X297016Y218470D01*
X296968Y218544D01*
X296923Y218621D01*
X296882Y218699D01*
X296843Y218779D01*
X296809Y218860D01*
X296777Y218943D01*
X296750Y219028D01*
X296725Y219113D01*
X296705Y219199D01*
X296688Y219286D01*
X296675Y219374D01*
X296666Y219462D01*
X296660Y219550D01*
X296658Y219639D01*
X298746Y217551D02*
X298875Y217553D01*
X299004Y217559D01*
X299133Y217568D01*
X299261Y217581D01*
X299389Y217598D01*
X299516Y217619D01*
X299643Y217643D01*
X299769Y217671D01*
X299894Y217703D01*
X300018Y217738D01*
X300141Y217777D01*
X300263Y217820D01*
X300383Y217866D01*
X300502Y217916D01*
X300620Y217969D01*
X300736Y218025D01*
X300850Y218085D01*
X300963Y218148D01*
X301073Y218215D01*
X301182Y218284D01*
X301288Y218357D01*
X301393Y218433D01*
X301495Y218512D01*
X301595Y218594D01*
X301692Y218678D01*
X301787Y218766D01*
X301879Y218856D01*
X301618Y224861D02*
X301616Y224950D01*
X301610Y225038D01*
X301601Y225126D01*
X301588Y225214D01*
X301571Y225301D01*
X301551Y225387D01*
X301526Y225472D01*
X301499Y225557D01*
X301467Y225640D01*
X301433Y225721D01*
X301394Y225801D01*
X301353Y225879D01*
X301308Y225956D01*
X301260Y226030D01*
X301209Y226103D01*
X301155Y226173D01*
X301097Y226240D01*
X301037Y226306D01*
X300975Y226368D01*
X300909Y226428D01*
X300842Y226486D01*
X300772Y226540D01*
X300699Y226591D01*
X300625Y226639D01*
X300548Y226684D01*
X300470Y226725D01*
X300390Y226764D01*
X300309Y226798D01*
X300226Y226830D01*
X300141Y226857D01*
X300056Y226882D01*
X299970Y226902D01*
X299883Y226919D01*
X299795Y226932D01*
X299707Y226941D01*
X299619Y226947D01*
X299530Y226949D01*
X299410Y226947D01*
X299290Y226942D01*
X299171Y226932D01*
X299051Y226920D01*
X298932Y226903D01*
X298814Y226883D01*
X298696Y226859D01*
X298580Y226832D01*
X298464Y226801D01*
X298349Y226767D01*
X298235Y226729D01*
X298122Y226687D01*
X298011Y226642D01*
X297901Y226594D01*
X297793Y226543D01*
X297686Y226488D01*
X297581Y226430D01*
X297478Y226368D01*
X297377Y226304D01*
X297277Y226236D01*
X297180Y226166D01*
X300574Y223034D02*
X300652Y223082D01*
X300728Y223134D01*
X300801Y223188D01*
X300872Y223246D01*
X300941Y223307D01*
X301007Y223371D01*
X301070Y223438D01*
X301130Y223507D01*
X301187Y223579D01*
X301241Y223653D01*
X301291Y223730D01*
X301339Y223809D01*
X301382Y223889D01*
X301423Y223972D01*
X301459Y224056D01*
X301492Y224141D01*
X301521Y224228D01*
X301547Y224317D01*
X301569Y224406D01*
X301586Y224496D01*
X301600Y224586D01*
X301610Y224678D01*
X301616Y224769D01*
X301618Y224861D01*
X297702Y221466D02*
X297624Y221418D01*
X297548Y221366D01*
X297475Y221312D01*
X297404Y221254D01*
X297335Y221193D01*
X297269Y221129D01*
X297206Y221062D01*
X297146Y220993D01*
X297089Y220921D01*
X297035Y220847D01*
X296985Y220770D01*
X296937Y220691D01*
X296894Y220611D01*
X296853Y220528D01*
X296817Y220444D01*
X296784Y220359D01*
X296755Y220272D01*
X296729Y220183D01*
X296707Y220094D01*
X296690Y220004D01*
X296676Y219914D01*
X296666Y219822D01*
X296660Y219731D01*
X296658Y219639D01*
X297702Y221467D02*
X300574Y223033D01*
X292735Y226949D02*
X292735Y217551D01*
X292735Y226949D02*
X290125Y226949D01*
X290025Y226947D01*
X289925Y226941D01*
X289826Y226932D01*
X289726Y226918D01*
X289628Y226901D01*
X289530Y226880D01*
X289433Y226856D01*
X289337Y226827D01*
X289242Y226795D01*
X289149Y226760D01*
X289057Y226721D01*
X288966Y226678D01*
X288878Y226632D01*
X288791Y226582D01*
X288706Y226530D01*
X288623Y226474D01*
X288542Y226415D01*
X288464Y226352D01*
X288388Y226287D01*
X288314Y226219D01*
X288244Y226149D01*
X288176Y226075D01*
X288111Y225999D01*
X288048Y225921D01*
X287989Y225840D01*
X287933Y225757D01*
X287881Y225672D01*
X287831Y225585D01*
X287785Y225497D01*
X287742Y225406D01*
X287703Y225314D01*
X287668Y225221D01*
X287636Y225126D01*
X287607Y225030D01*
X287583Y224933D01*
X287562Y224835D01*
X287545Y224737D01*
X287531Y224637D01*
X287522Y224538D01*
X287516Y224438D01*
X287514Y224338D01*
X287514Y220162D01*
X287516Y220062D01*
X287522Y219962D01*
X287531Y219863D01*
X287545Y219763D01*
X287562Y219665D01*
X287583Y219567D01*
X287607Y219470D01*
X287636Y219374D01*
X287668Y219279D01*
X287703Y219186D01*
X287742Y219094D01*
X287785Y219003D01*
X287831Y218915D01*
X287881Y218828D01*
X287933Y218743D01*
X287989Y218660D01*
X288048Y218579D01*
X288111Y218501D01*
X288176Y218425D01*
X288244Y218351D01*
X288314Y218281D01*
X288388Y218213D01*
X288464Y218148D01*
X288542Y218085D01*
X288623Y218026D01*
X288706Y217970D01*
X288791Y217918D01*
X288878Y217868D01*
X288966Y217822D01*
X289057Y217779D01*
X289149Y217740D01*
X289242Y217705D01*
X289337Y217673D01*
X289433Y217644D01*
X289530Y217620D01*
X289628Y217599D01*
X289726Y217582D01*
X289826Y217568D01*
X289925Y217559D01*
X290025Y217553D01*
X290125Y217551D01*
X292735Y217551D01*
X283808Y217551D02*
X280676Y226949D01*
X277543Y217551D01*
X278326Y219901D02*
X283025Y219901D01*
X296658Y196779D02*
X296660Y196690D01*
X296666Y196602D01*
X296675Y196514D01*
X296688Y196426D01*
X296705Y196339D01*
X296725Y196253D01*
X296750Y196168D01*
X296777Y196083D01*
X296809Y196000D01*
X296843Y195919D01*
X296882Y195839D01*
X296923Y195761D01*
X296968Y195684D01*
X297016Y195610D01*
X297067Y195537D01*
X297121Y195467D01*
X297179Y195400D01*
X297239Y195334D01*
X297301Y195272D01*
X297367Y195212D01*
X297434Y195154D01*
X297504Y195100D01*
X297577Y195049D01*
X297651Y195001D01*
X297728Y194956D01*
X297806Y194915D01*
X297886Y194876D01*
X297967Y194842D01*
X298050Y194810D01*
X298135Y194783D01*
X298220Y194758D01*
X298306Y194738D01*
X298393Y194721D01*
X298481Y194708D01*
X298569Y194699D01*
X298657Y194693D01*
X298746Y194691D01*
X298875Y194693D01*
X299004Y194699D01*
X299133Y194708D01*
X299261Y194721D01*
X299389Y194738D01*
X299516Y194759D01*
X299643Y194783D01*
X299769Y194811D01*
X299894Y194843D01*
X300018Y194878D01*
X300141Y194917D01*
X300263Y194960D01*
X300383Y195006D01*
X300502Y195056D01*
X300620Y195109D01*
X300736Y195165D01*
X300850Y195225D01*
X300963Y195288D01*
X301073Y195355D01*
X301182Y195424D01*
X301288Y195497D01*
X301393Y195573D01*
X301495Y195652D01*
X301595Y195734D01*
X301692Y195818D01*
X301787Y195906D01*
X301879Y195996D01*
X301618Y202001D02*
X301616Y202090D01*
X301610Y202178D01*
X301601Y202266D01*
X301588Y202354D01*
X301571Y202441D01*
X301551Y202527D01*
X301526Y202612D01*
X301499Y202697D01*
X301467Y202780D01*
X301433Y202861D01*
X301394Y202941D01*
X301353Y203019D01*
X301308Y203096D01*
X301260Y203170D01*
X301209Y203243D01*
X301155Y203313D01*
X301097Y203380D01*
X301037Y203446D01*
X300975Y203508D01*
X300909Y203568D01*
X300842Y203626D01*
X300772Y203680D01*
X300699Y203731D01*
X300625Y203779D01*
X300548Y203824D01*
X300470Y203865D01*
X300390Y203904D01*
X300309Y203938D01*
X300226Y203970D01*
X300141Y203997D01*
X300056Y204022D01*
X299970Y204042D01*
X299883Y204059D01*
X299795Y204072D01*
X299707Y204081D01*
X299619Y204087D01*
X299530Y204089D01*
X299410Y204087D01*
X299290Y204082D01*
X299171Y204072D01*
X299051Y204060D01*
X298932Y204043D01*
X298814Y204023D01*
X298696Y203999D01*
X298580Y203972D01*
X298464Y203941D01*
X298349Y203907D01*
X298235Y203869D01*
X298122Y203827D01*
X298011Y203782D01*
X297901Y203734D01*
X297793Y203683D01*
X297686Y203628D01*
X297581Y203570D01*
X297478Y203508D01*
X297377Y203444D01*
X297277Y203376D01*
X297180Y203306D01*
X300574Y200174D02*
X300652Y200222D01*
X300728Y200274D01*
X300801Y200328D01*
X300872Y200386D01*
X300941Y200447D01*
X301007Y200511D01*
X301070Y200578D01*
X301130Y200647D01*
X301187Y200719D01*
X301241Y200793D01*
X301291Y200870D01*
X301339Y200949D01*
X301382Y201029D01*
X301423Y201112D01*
X301459Y201196D01*
X301492Y201281D01*
X301521Y201368D01*
X301547Y201457D01*
X301569Y201546D01*
X301586Y201636D01*
X301600Y201726D01*
X301610Y201818D01*
X301616Y201909D01*
X301618Y202001D01*
X297702Y198606D02*
X297624Y198558D01*
X297548Y198506D01*
X297475Y198452D01*
X297404Y198394D01*
X297335Y198333D01*
X297269Y198269D01*
X297206Y198202D01*
X297146Y198133D01*
X297089Y198061D01*
X297035Y197987D01*
X296985Y197910D01*
X296937Y197831D01*
X296894Y197751D01*
X296853Y197668D01*
X296817Y197584D01*
X296784Y197499D01*
X296755Y197412D01*
X296729Y197323D01*
X296707Y197234D01*
X296690Y197144D01*
X296676Y197054D01*
X296666Y196962D01*
X296660Y196871D01*
X296658Y196779D01*
X297702Y198607D02*
X300574Y200173D01*
X290977Y194691D02*
X288889Y194691D01*
X290977Y194691D02*
X291066Y194693D01*
X291154Y194699D01*
X291242Y194708D01*
X291330Y194721D01*
X291417Y194738D01*
X291503Y194758D01*
X291588Y194783D01*
X291673Y194810D01*
X291756Y194842D01*
X291837Y194876D01*
X291917Y194915D01*
X291995Y194956D01*
X292072Y195001D01*
X292146Y195049D01*
X292219Y195100D01*
X292289Y195154D01*
X292356Y195212D01*
X292422Y195272D01*
X292484Y195334D01*
X292544Y195400D01*
X292602Y195467D01*
X292656Y195537D01*
X292707Y195610D01*
X292755Y195684D01*
X292800Y195761D01*
X292841Y195839D01*
X292880Y195919D01*
X292914Y196000D01*
X292946Y196083D01*
X292973Y196168D01*
X292998Y196253D01*
X293018Y196339D01*
X293035Y196426D01*
X293048Y196514D01*
X293057Y196602D01*
X293063Y196690D01*
X293065Y196779D01*
X293066Y196779D02*
X293066Y202001D01*
X293065Y202001D02*
X293063Y202090D01*
X293057Y202178D01*
X293048Y202266D01*
X293035Y202354D01*
X293018Y202441D01*
X292998Y202527D01*
X292973Y202612D01*
X292946Y202697D01*
X292914Y202780D01*
X292880Y202861D01*
X292841Y202941D01*
X292800Y203019D01*
X292755Y203096D01*
X292707Y203170D01*
X292656Y203243D01*
X292602Y203313D01*
X292544Y203380D01*
X292484Y203446D01*
X292422Y203508D01*
X292356Y203568D01*
X292289Y203626D01*
X292219Y203680D01*
X292146Y203731D01*
X292072Y203779D01*
X291995Y203824D01*
X291917Y203865D01*
X291837Y203904D01*
X291756Y203938D01*
X291673Y203970D01*
X291588Y203997D01*
X291503Y204022D01*
X291417Y204042D01*
X291330Y204059D01*
X291242Y204072D01*
X291154Y204081D01*
X291066Y204087D01*
X290977Y204089D01*
X288889Y204089D01*
X285098Y204089D02*
X285098Y194691D01*
X280921Y194691D01*
D11*
X327660Y8890D02*
X22860Y8890D01*
X22860Y364490D01*
X327660Y364490D01*
X327660Y8890D01*
D12*
X218840Y197800D02*
X218840Y227800D01*
X268840Y227800D01*
X268840Y197800D01*
X218840Y157800D02*
X218840Y137800D01*
X228840Y127800D01*
X258840Y127800D01*
X268840Y137800D01*
X268840Y157800D01*
D13*
X249196Y233680D02*
X246938Y233680D01*
X249196Y233680D02*
X249289Y233682D01*
X249382Y233688D01*
X249475Y233697D01*
X249568Y233711D01*
X249659Y233728D01*
X249750Y233749D01*
X249840Y233774D01*
X249929Y233802D01*
X250017Y233834D01*
X250103Y233870D01*
X250188Y233909D01*
X250271Y233952D01*
X250352Y233998D01*
X250431Y234048D01*
X250508Y234100D01*
X250583Y234156D01*
X250655Y234215D01*
X250725Y234277D01*
X250793Y234341D01*
X250857Y234409D01*
X250919Y234479D01*
X250978Y234551D01*
X251034Y234626D01*
X251086Y234703D01*
X251136Y234782D01*
X251182Y234863D01*
X251225Y234946D01*
X251264Y235031D01*
X251300Y235117D01*
X251332Y235205D01*
X251360Y235294D01*
X251385Y235384D01*
X251406Y235475D01*
X251423Y235566D01*
X251437Y235659D01*
X251446Y235752D01*
X251452Y235845D01*
X251454Y235938D01*
X251454Y241582D01*
X251452Y241675D01*
X251446Y241768D01*
X251437Y241861D01*
X251423Y241954D01*
X251406Y242045D01*
X251385Y242136D01*
X251360Y242226D01*
X251332Y242315D01*
X251300Y242403D01*
X251264Y242489D01*
X251225Y242574D01*
X251182Y242657D01*
X251136Y242738D01*
X251086Y242817D01*
X251034Y242894D01*
X250978Y242969D01*
X250919Y243041D01*
X250857Y243111D01*
X250793Y243179D01*
X250725Y243243D01*
X250655Y243305D01*
X250583Y243364D01*
X250508Y243420D01*
X250431Y243472D01*
X250352Y243522D01*
X250271Y243568D01*
X250188Y243611D01*
X250103Y243650D01*
X250017Y243686D01*
X249929Y243718D01*
X249840Y243746D01*
X249750Y243771D01*
X249659Y243792D01*
X249568Y243809D01*
X249475Y243823D01*
X249382Y243832D01*
X249289Y243838D01*
X249196Y243840D01*
X246938Y243840D01*
X241871Y241582D02*
X239048Y243840D01*
X239048Y233680D01*
X236226Y233680D02*
X241871Y233680D01*
X207286Y186690D02*
X205028Y186690D01*
X207286Y186690D02*
X207379Y186692D01*
X207472Y186698D01*
X207565Y186707D01*
X207658Y186721D01*
X207749Y186738D01*
X207840Y186759D01*
X207930Y186784D01*
X208019Y186812D01*
X208107Y186844D01*
X208193Y186880D01*
X208278Y186919D01*
X208361Y186962D01*
X208442Y187008D01*
X208521Y187058D01*
X208598Y187110D01*
X208673Y187166D01*
X208745Y187225D01*
X208815Y187287D01*
X208883Y187351D01*
X208947Y187419D01*
X209009Y187489D01*
X209068Y187561D01*
X209124Y187636D01*
X209176Y187713D01*
X209226Y187792D01*
X209272Y187873D01*
X209315Y187956D01*
X209354Y188041D01*
X209390Y188127D01*
X209422Y188215D01*
X209450Y188304D01*
X209475Y188394D01*
X209496Y188485D01*
X209513Y188576D01*
X209527Y188669D01*
X209536Y188762D01*
X209542Y188855D01*
X209544Y188948D01*
X209544Y194592D01*
X209542Y194685D01*
X209536Y194778D01*
X209527Y194871D01*
X209513Y194964D01*
X209496Y195055D01*
X209475Y195146D01*
X209450Y195236D01*
X209422Y195325D01*
X209390Y195413D01*
X209354Y195499D01*
X209315Y195584D01*
X209272Y195667D01*
X209226Y195748D01*
X209176Y195827D01*
X209124Y195904D01*
X209068Y195979D01*
X209009Y196051D01*
X208947Y196121D01*
X208883Y196189D01*
X208815Y196253D01*
X208745Y196315D01*
X208673Y196374D01*
X208598Y196430D01*
X208521Y196482D01*
X208442Y196532D01*
X208361Y196578D01*
X208278Y196621D01*
X208193Y196660D01*
X208107Y196696D01*
X208019Y196728D01*
X207930Y196756D01*
X207840Y196781D01*
X207749Y196802D01*
X207658Y196819D01*
X207565Y196833D01*
X207472Y196842D01*
X207379Y196848D01*
X207286Y196850D01*
X205028Y196850D01*
X196856Y196850D02*
X196756Y196848D01*
X196657Y196842D01*
X196557Y196832D01*
X196459Y196819D01*
X196360Y196801D01*
X196263Y196780D01*
X196167Y196755D01*
X196071Y196726D01*
X195977Y196693D01*
X195884Y196657D01*
X195793Y196617D01*
X195703Y196573D01*
X195615Y196526D01*
X195529Y196476D01*
X195445Y196422D01*
X195363Y196365D01*
X195284Y196305D01*
X195206Y196241D01*
X195132Y196175D01*
X195060Y196106D01*
X194991Y196034D01*
X194925Y195960D01*
X194861Y195882D01*
X194801Y195803D01*
X194744Y195721D01*
X194690Y195637D01*
X194640Y195551D01*
X194593Y195463D01*
X194549Y195373D01*
X194509Y195282D01*
X194473Y195189D01*
X194440Y195095D01*
X194411Y194999D01*
X194386Y194903D01*
X194365Y194806D01*
X194347Y194707D01*
X194334Y194609D01*
X194324Y194509D01*
X194318Y194410D01*
X194316Y194310D01*
X196856Y196850D02*
X196967Y196848D01*
X197078Y196842D01*
X197188Y196833D01*
X197298Y196820D01*
X197408Y196803D01*
X197517Y196782D01*
X197625Y196758D01*
X197732Y196730D01*
X197839Y196699D01*
X197944Y196663D01*
X198048Y196625D01*
X198150Y196582D01*
X198251Y196537D01*
X198351Y196487D01*
X198448Y196435D01*
X198544Y196379D01*
X198638Y196320D01*
X198730Y196258D01*
X198820Y196193D01*
X198907Y196125D01*
X198992Y196053D01*
X199075Y195979D01*
X199155Y195903D01*
X199232Y195823D01*
X199307Y195741D01*
X199379Y195657D01*
X199448Y195570D01*
X199513Y195481D01*
X199576Y195389D01*
X199636Y195296D01*
X199692Y195200D01*
X199746Y195103D01*
X199795Y195004D01*
X199842Y194903D01*
X199885Y194801D01*
X199924Y194697D01*
X199960Y194592D01*
X195163Y192335D02*
X195091Y192405D01*
X195022Y192478D01*
X194956Y192554D01*
X194893Y192632D01*
X194833Y192712D01*
X194776Y192795D01*
X194721Y192879D01*
X194670Y192966D01*
X194622Y193054D01*
X194578Y193144D01*
X194537Y193235D01*
X194499Y193328D01*
X194464Y193423D01*
X194433Y193518D01*
X194406Y193615D01*
X194382Y193712D01*
X194362Y193811D01*
X194346Y193910D01*
X194333Y194009D01*
X194323Y194109D01*
X194318Y194210D01*
X194316Y194310D01*
X195163Y192334D02*
X199961Y186690D01*
X194316Y186690D01*
D12*
X394970Y222250D02*
X438150Y222250D01*
X438150Y161290D02*
X394970Y161290D01*
X386080Y181610D02*
X386080Y201750D01*
X447040Y202050D02*
X447040Y181610D01*
X398780Y191770D02*
X398785Y192206D01*
X398801Y192642D01*
X398828Y193078D01*
X398866Y193513D01*
X398914Y193946D01*
X398972Y194379D01*
X399042Y194810D01*
X399122Y195239D01*
X399212Y195666D01*
X399313Y196090D01*
X399424Y196512D01*
X399546Y196931D01*
X399677Y197347D01*
X399819Y197760D01*
X399971Y198169D01*
X400133Y198574D01*
X400305Y198975D01*
X400487Y199372D01*
X400678Y199764D01*
X400879Y200151D01*
X401090Y200534D01*
X401310Y200911D01*
X401539Y201282D01*
X401776Y201648D01*
X402023Y202008D01*
X402279Y202362D01*
X402543Y202709D01*
X402816Y203050D01*
X403097Y203383D01*
X403386Y203710D01*
X403683Y204030D01*
X403988Y204342D01*
X404300Y204647D01*
X404620Y204944D01*
X404947Y205233D01*
X405280Y205514D01*
X405621Y205787D01*
X405968Y206051D01*
X406322Y206307D01*
X406682Y206554D01*
X407048Y206791D01*
X407419Y207020D01*
X407796Y207240D01*
X408179Y207451D01*
X408566Y207652D01*
X408958Y207843D01*
X409355Y208025D01*
X409756Y208197D01*
X410161Y208359D01*
X410570Y208511D01*
X410983Y208653D01*
X411399Y208784D01*
X411818Y208906D01*
X412240Y209017D01*
X412664Y209118D01*
X413091Y209208D01*
X413520Y209288D01*
X413951Y209358D01*
X414384Y209416D01*
X414817Y209464D01*
X415252Y209502D01*
X415688Y209529D01*
X416124Y209545D01*
X416560Y209550D01*
X416996Y209545D01*
X417432Y209529D01*
X417868Y209502D01*
X418303Y209464D01*
X418736Y209416D01*
X419169Y209358D01*
X419600Y209288D01*
X420029Y209208D01*
X420456Y209118D01*
X420880Y209017D01*
X421302Y208906D01*
X421721Y208784D01*
X422137Y208653D01*
X422550Y208511D01*
X422959Y208359D01*
X423364Y208197D01*
X423765Y208025D01*
X424162Y207843D01*
X424554Y207652D01*
X424941Y207451D01*
X425324Y207240D01*
X425701Y207020D01*
X426072Y206791D01*
X426438Y206554D01*
X426798Y206307D01*
X427152Y206051D01*
X427499Y205787D01*
X427840Y205514D01*
X428173Y205233D01*
X428500Y204944D01*
X428820Y204647D01*
X429132Y204342D01*
X429437Y204030D01*
X429734Y203710D01*
X430023Y203383D01*
X430304Y203050D01*
X430577Y202709D01*
X430841Y202362D01*
X431097Y202008D01*
X431344Y201648D01*
X431581Y201282D01*
X431810Y200911D01*
X432030Y200534D01*
X432241Y200151D01*
X432442Y199764D01*
X432633Y199372D01*
X432815Y198975D01*
X432987Y198574D01*
X433149Y198169D01*
X433301Y197760D01*
X433443Y197347D01*
X433574Y196931D01*
X433696Y196512D01*
X433807Y196090D01*
X433908Y195666D01*
X433998Y195239D01*
X434078Y194810D01*
X434148Y194379D01*
X434206Y193946D01*
X434254Y193513D01*
X434292Y193078D01*
X434319Y192642D01*
X434335Y192206D01*
X434340Y191770D01*
X434335Y191334D01*
X434319Y190898D01*
X434292Y190462D01*
X434254Y190027D01*
X434206Y189594D01*
X434148Y189161D01*
X434078Y188730D01*
X433998Y188301D01*
X433908Y187874D01*
X433807Y187450D01*
X433696Y187028D01*
X433574Y186609D01*
X433443Y186193D01*
X433301Y185780D01*
X433149Y185371D01*
X432987Y184966D01*
X432815Y184565D01*
X432633Y184168D01*
X432442Y183776D01*
X432241Y183389D01*
X432030Y183006D01*
X431810Y182629D01*
X431581Y182258D01*
X431344Y181892D01*
X431097Y181532D01*
X430841Y181178D01*
X430577Y180831D01*
X430304Y180490D01*
X430023Y180157D01*
X429734Y179830D01*
X429437Y179510D01*
X429132Y179198D01*
X428820Y178893D01*
X428500Y178596D01*
X428173Y178307D01*
X427840Y178026D01*
X427499Y177753D01*
X427152Y177489D01*
X426798Y177233D01*
X426438Y176986D01*
X426072Y176749D01*
X425701Y176520D01*
X425324Y176300D01*
X424941Y176089D01*
X424554Y175888D01*
X424162Y175697D01*
X423765Y175515D01*
X423364Y175343D01*
X422959Y175181D01*
X422550Y175029D01*
X422137Y174887D01*
X421721Y174756D01*
X421302Y174634D01*
X420880Y174523D01*
X420456Y174422D01*
X420029Y174332D01*
X419600Y174252D01*
X419169Y174182D01*
X418736Y174124D01*
X418303Y174076D01*
X417868Y174038D01*
X417432Y174011D01*
X416996Y173995D01*
X416560Y173990D01*
X416124Y173995D01*
X415688Y174011D01*
X415252Y174038D01*
X414817Y174076D01*
X414384Y174124D01*
X413951Y174182D01*
X413520Y174252D01*
X413091Y174332D01*
X412664Y174422D01*
X412240Y174523D01*
X411818Y174634D01*
X411399Y174756D01*
X410983Y174887D01*
X410570Y175029D01*
X410161Y175181D01*
X409756Y175343D01*
X409355Y175515D01*
X408958Y175697D01*
X408566Y175888D01*
X408179Y176089D01*
X407796Y176300D01*
X407419Y176520D01*
X407048Y176749D01*
X406682Y176986D01*
X406322Y177233D01*
X405968Y177489D01*
X405621Y177753D01*
X405280Y178026D01*
X404947Y178307D01*
X404620Y178596D01*
X404300Y178893D01*
X403988Y179198D01*
X403683Y179510D01*
X403386Y179830D01*
X403097Y180157D01*
X402816Y180490D01*
X402543Y180831D01*
X402279Y181178D01*
X402023Y181532D01*
X401776Y181892D01*
X401539Y182258D01*
X401310Y182629D01*
X401090Y183006D01*
X400879Y183389D01*
X400678Y183776D01*
X400487Y184168D01*
X400305Y184565D01*
X400133Y184966D01*
X399971Y185371D01*
X399819Y185780D01*
X399677Y186193D01*
X399546Y186609D01*
X399424Y187028D01*
X399313Y187450D01*
X399212Y187874D01*
X399122Y188301D01*
X399042Y188730D01*
X398972Y189161D01*
X398914Y189594D01*
X398866Y190027D01*
X398828Y190462D01*
X398801Y190898D01*
X398785Y191334D01*
X398780Y191770D01*
D13*
X427080Y234244D02*
X429902Y234244D01*
X427080Y234244D02*
X426974Y234242D01*
X426869Y234236D01*
X426764Y234226D01*
X426659Y234212D01*
X426555Y234195D01*
X426452Y234173D01*
X426350Y234148D01*
X426248Y234119D01*
X426148Y234086D01*
X426049Y234049D01*
X425952Y234009D01*
X425856Y233965D01*
X425761Y233917D01*
X425669Y233866D01*
X425579Y233811D01*
X425490Y233754D01*
X425404Y233693D01*
X425321Y233628D01*
X425239Y233561D01*
X425161Y233491D01*
X425085Y233417D01*
X425011Y233341D01*
X424941Y233263D01*
X424874Y233181D01*
X424809Y233098D01*
X424748Y233012D01*
X424691Y232923D01*
X424636Y232833D01*
X424585Y232741D01*
X424537Y232646D01*
X424493Y232550D01*
X424453Y232453D01*
X424416Y232354D01*
X424383Y232254D01*
X424354Y232152D01*
X424329Y232050D01*
X424307Y231947D01*
X424290Y231843D01*
X424276Y231738D01*
X424266Y231633D01*
X424260Y231528D01*
X424258Y231422D01*
X424260Y231316D01*
X424266Y231211D01*
X424276Y231106D01*
X424290Y231001D01*
X424307Y230897D01*
X424329Y230794D01*
X424354Y230692D01*
X424383Y230590D01*
X424416Y230490D01*
X424453Y230391D01*
X424493Y230294D01*
X424537Y230198D01*
X424585Y230103D01*
X424636Y230011D01*
X424691Y229921D01*
X424748Y229832D01*
X424809Y229746D01*
X424874Y229663D01*
X424941Y229581D01*
X425011Y229503D01*
X425085Y229427D01*
X425161Y229353D01*
X425239Y229283D01*
X425321Y229216D01*
X425404Y229151D01*
X425490Y229090D01*
X425579Y229033D01*
X425669Y228978D01*
X425761Y228927D01*
X425856Y228879D01*
X425952Y228835D01*
X426049Y228795D01*
X426148Y228758D01*
X426248Y228725D01*
X426350Y228696D01*
X426452Y228671D01*
X426555Y228649D01*
X426659Y228632D01*
X426764Y228618D01*
X426869Y228608D01*
X426974Y228602D01*
X427080Y228600D01*
X429902Y228600D01*
X429902Y238760D01*
X427080Y238760D01*
X426987Y238758D01*
X426894Y238752D01*
X426801Y238743D01*
X426708Y238729D01*
X426617Y238712D01*
X426526Y238691D01*
X426436Y238666D01*
X426347Y238638D01*
X426259Y238606D01*
X426173Y238570D01*
X426088Y238531D01*
X426005Y238488D01*
X425924Y238442D01*
X425845Y238392D01*
X425768Y238340D01*
X425693Y238284D01*
X425621Y238225D01*
X425551Y238163D01*
X425483Y238099D01*
X425419Y238031D01*
X425357Y237961D01*
X425298Y237889D01*
X425242Y237814D01*
X425190Y237737D01*
X425140Y237658D01*
X425094Y237577D01*
X425051Y237494D01*
X425012Y237409D01*
X424976Y237323D01*
X424944Y237235D01*
X424916Y237146D01*
X424891Y237056D01*
X424870Y236965D01*
X424853Y236874D01*
X424839Y236781D01*
X424830Y236688D01*
X424824Y236595D01*
X424822Y236502D01*
X424824Y236409D01*
X424830Y236316D01*
X424839Y236223D01*
X424853Y236130D01*
X424870Y236039D01*
X424891Y235948D01*
X424916Y235858D01*
X424944Y235769D01*
X424976Y235681D01*
X425012Y235595D01*
X425051Y235510D01*
X425094Y235427D01*
X425140Y235346D01*
X425190Y235267D01*
X425242Y235190D01*
X425298Y235115D01*
X425357Y235043D01*
X425419Y234973D01*
X425483Y234905D01*
X425551Y234841D01*
X425621Y234779D01*
X425693Y234720D01*
X425768Y234664D01*
X425845Y234612D01*
X425924Y234562D01*
X426005Y234516D01*
X426088Y234473D01*
X426173Y234434D01*
X426259Y234398D01*
X426347Y234366D01*
X426436Y234338D01*
X426526Y234313D01*
X426617Y234292D01*
X426708Y234275D01*
X426801Y234261D01*
X426894Y234252D01*
X426987Y234246D01*
X427080Y234244D01*
X417089Y238760D02*
X417089Y228600D01*
X419911Y238760D02*
X414267Y238760D01*
X408862Y238760D02*
X408862Y228600D01*
X403218Y228600D02*
X408862Y238760D01*
X403218Y238760D02*
X403218Y228600D01*
X487263Y226060D02*
X487263Y236220D01*
X484441Y236220D01*
X484335Y236218D01*
X484230Y236212D01*
X484125Y236202D01*
X484020Y236188D01*
X483916Y236171D01*
X483813Y236149D01*
X483711Y236124D01*
X483609Y236095D01*
X483509Y236062D01*
X483410Y236025D01*
X483313Y235985D01*
X483217Y235941D01*
X483122Y235893D01*
X483030Y235842D01*
X482940Y235787D01*
X482851Y235730D01*
X482765Y235669D01*
X482682Y235604D01*
X482600Y235537D01*
X482522Y235467D01*
X482446Y235393D01*
X482372Y235317D01*
X482302Y235239D01*
X482235Y235157D01*
X482170Y235074D01*
X482109Y234988D01*
X482052Y234899D01*
X481997Y234809D01*
X481946Y234717D01*
X481898Y234622D01*
X481854Y234526D01*
X481814Y234429D01*
X481777Y234330D01*
X481744Y234230D01*
X481715Y234128D01*
X481690Y234026D01*
X481668Y233923D01*
X481651Y233819D01*
X481637Y233714D01*
X481627Y233609D01*
X481621Y233504D01*
X481619Y233398D01*
X481621Y233292D01*
X481627Y233187D01*
X481637Y233082D01*
X481651Y232977D01*
X481668Y232873D01*
X481690Y232770D01*
X481715Y232668D01*
X481744Y232566D01*
X481777Y232466D01*
X481814Y232367D01*
X481854Y232270D01*
X481898Y232174D01*
X481946Y232079D01*
X481997Y231987D01*
X482052Y231897D01*
X482109Y231808D01*
X482170Y231722D01*
X482235Y231639D01*
X482302Y231557D01*
X482372Y231479D01*
X482446Y231403D01*
X482522Y231329D01*
X482600Y231259D01*
X482682Y231192D01*
X482765Y231127D01*
X482851Y231066D01*
X482940Y231009D01*
X483030Y230954D01*
X483122Y230903D01*
X483217Y230855D01*
X483313Y230811D01*
X483410Y230771D01*
X483509Y230734D01*
X483609Y230701D01*
X483711Y230672D01*
X483813Y230647D01*
X483916Y230625D01*
X484020Y230608D01*
X484125Y230594D01*
X484230Y230584D01*
X484335Y230578D01*
X484441Y230576D01*
X487263Y230576D01*
X483876Y230576D02*
X481618Y226060D01*
X475962Y233962D02*
X473139Y236220D01*
X473139Y226060D01*
X470317Y226060D02*
X475962Y226060D01*
D12*
X141840Y162880D02*
X141840Y132880D01*
X91840Y132880D01*
X91840Y162880D01*
X141840Y202880D02*
X141840Y222880D01*
X131840Y232880D01*
X101840Y232880D01*
X91840Y222880D01*
X91840Y202880D01*
D13*
X121208Y114300D02*
X123466Y114300D01*
X123559Y114302D01*
X123652Y114308D01*
X123745Y114317D01*
X123838Y114331D01*
X123929Y114348D01*
X124020Y114369D01*
X124110Y114394D01*
X124199Y114422D01*
X124287Y114454D01*
X124373Y114490D01*
X124458Y114529D01*
X124541Y114572D01*
X124622Y114618D01*
X124701Y114668D01*
X124778Y114720D01*
X124853Y114776D01*
X124925Y114835D01*
X124995Y114897D01*
X125063Y114961D01*
X125127Y115029D01*
X125189Y115099D01*
X125248Y115171D01*
X125304Y115246D01*
X125356Y115323D01*
X125406Y115402D01*
X125452Y115483D01*
X125495Y115566D01*
X125534Y115651D01*
X125570Y115737D01*
X125602Y115825D01*
X125630Y115914D01*
X125655Y116004D01*
X125676Y116095D01*
X125693Y116186D01*
X125707Y116279D01*
X125716Y116372D01*
X125722Y116465D01*
X125724Y116558D01*
X125724Y122202D01*
X125722Y122295D01*
X125716Y122388D01*
X125707Y122481D01*
X125693Y122574D01*
X125676Y122665D01*
X125655Y122756D01*
X125630Y122846D01*
X125602Y122935D01*
X125570Y123023D01*
X125534Y123109D01*
X125495Y123194D01*
X125452Y123277D01*
X125406Y123358D01*
X125356Y123437D01*
X125304Y123514D01*
X125248Y123589D01*
X125189Y123661D01*
X125127Y123731D01*
X125063Y123799D01*
X124995Y123863D01*
X124925Y123925D01*
X124853Y123984D01*
X124778Y124040D01*
X124701Y124092D01*
X124622Y124142D01*
X124541Y124188D01*
X124458Y124231D01*
X124373Y124270D01*
X124287Y124306D01*
X124199Y124338D01*
X124110Y124366D01*
X124020Y124391D01*
X123929Y124412D01*
X123838Y124429D01*
X123745Y124443D01*
X123652Y124452D01*
X123559Y124458D01*
X123466Y124460D01*
X121208Y124460D01*
X116141Y114300D02*
X113318Y114300D01*
X113212Y114302D01*
X113107Y114308D01*
X113002Y114318D01*
X112897Y114332D01*
X112793Y114349D01*
X112690Y114371D01*
X112588Y114396D01*
X112486Y114425D01*
X112386Y114458D01*
X112287Y114495D01*
X112190Y114535D01*
X112094Y114579D01*
X111999Y114627D01*
X111907Y114678D01*
X111817Y114733D01*
X111728Y114790D01*
X111642Y114851D01*
X111559Y114916D01*
X111477Y114983D01*
X111399Y115053D01*
X111323Y115127D01*
X111249Y115203D01*
X111179Y115281D01*
X111112Y115363D01*
X111047Y115446D01*
X110986Y115532D01*
X110929Y115621D01*
X110874Y115711D01*
X110823Y115803D01*
X110775Y115898D01*
X110731Y115994D01*
X110691Y116091D01*
X110654Y116190D01*
X110621Y116290D01*
X110592Y116392D01*
X110567Y116494D01*
X110545Y116597D01*
X110528Y116701D01*
X110514Y116806D01*
X110504Y116911D01*
X110498Y117016D01*
X110496Y117122D01*
X110498Y117228D01*
X110504Y117333D01*
X110514Y117438D01*
X110528Y117543D01*
X110545Y117647D01*
X110567Y117750D01*
X110592Y117852D01*
X110621Y117954D01*
X110654Y118054D01*
X110691Y118153D01*
X110731Y118250D01*
X110775Y118346D01*
X110823Y118441D01*
X110874Y118533D01*
X110929Y118623D01*
X110986Y118712D01*
X111047Y118798D01*
X111112Y118881D01*
X111179Y118963D01*
X111249Y119041D01*
X111323Y119117D01*
X111399Y119191D01*
X111477Y119261D01*
X111559Y119328D01*
X111642Y119393D01*
X111728Y119454D01*
X111817Y119511D01*
X111907Y119566D01*
X111999Y119617D01*
X112094Y119665D01*
X112190Y119709D01*
X112287Y119749D01*
X112386Y119786D01*
X112486Y119819D01*
X112588Y119848D01*
X112690Y119873D01*
X112793Y119895D01*
X112897Y119912D01*
X113002Y119926D01*
X113107Y119936D01*
X113212Y119942D01*
X113318Y119944D01*
X112754Y124460D02*
X116141Y124460D01*
X112754Y124460D02*
X112661Y124458D01*
X112568Y124452D01*
X112475Y124443D01*
X112382Y124429D01*
X112291Y124412D01*
X112200Y124391D01*
X112110Y124366D01*
X112021Y124338D01*
X111933Y124306D01*
X111847Y124270D01*
X111762Y124231D01*
X111679Y124188D01*
X111598Y124142D01*
X111519Y124092D01*
X111442Y124040D01*
X111367Y123984D01*
X111295Y123925D01*
X111225Y123863D01*
X111157Y123799D01*
X111093Y123731D01*
X111031Y123661D01*
X110972Y123589D01*
X110916Y123514D01*
X110864Y123437D01*
X110814Y123358D01*
X110768Y123277D01*
X110725Y123194D01*
X110686Y123109D01*
X110650Y123023D01*
X110618Y122935D01*
X110590Y122846D01*
X110565Y122756D01*
X110544Y122665D01*
X110527Y122574D01*
X110513Y122481D01*
X110504Y122388D01*
X110498Y122295D01*
X110496Y122202D01*
X110498Y122109D01*
X110504Y122016D01*
X110513Y121923D01*
X110527Y121830D01*
X110544Y121739D01*
X110565Y121648D01*
X110590Y121558D01*
X110618Y121469D01*
X110650Y121381D01*
X110686Y121295D01*
X110725Y121210D01*
X110768Y121127D01*
X110814Y121046D01*
X110864Y120967D01*
X110916Y120890D01*
X110972Y120815D01*
X111031Y120743D01*
X111093Y120673D01*
X111157Y120605D01*
X111225Y120541D01*
X111295Y120479D01*
X111367Y120420D01*
X111442Y120364D01*
X111519Y120312D01*
X111598Y120262D01*
X111679Y120216D01*
X111762Y120173D01*
X111847Y120134D01*
X111933Y120098D01*
X112021Y120066D01*
X112110Y120038D01*
X112200Y120013D01*
X112291Y119992D01*
X112382Y119975D01*
X112475Y119961D01*
X112568Y119952D01*
X112661Y119946D01*
X112754Y119944D01*
X115012Y119944D01*
X165658Y238760D02*
X167916Y238760D01*
X168009Y238762D01*
X168102Y238768D01*
X168195Y238777D01*
X168288Y238791D01*
X168379Y238808D01*
X168470Y238829D01*
X168560Y238854D01*
X168649Y238882D01*
X168737Y238914D01*
X168823Y238950D01*
X168908Y238989D01*
X168991Y239032D01*
X169072Y239078D01*
X169151Y239128D01*
X169228Y239180D01*
X169303Y239236D01*
X169375Y239295D01*
X169445Y239357D01*
X169513Y239421D01*
X169577Y239489D01*
X169639Y239559D01*
X169698Y239631D01*
X169754Y239706D01*
X169806Y239783D01*
X169856Y239862D01*
X169902Y239943D01*
X169945Y240026D01*
X169984Y240111D01*
X170020Y240197D01*
X170052Y240285D01*
X170080Y240374D01*
X170105Y240464D01*
X170126Y240555D01*
X170143Y240646D01*
X170157Y240739D01*
X170166Y240832D01*
X170172Y240925D01*
X170174Y241018D01*
X170174Y246662D01*
X170172Y246755D01*
X170166Y246848D01*
X170157Y246941D01*
X170143Y247034D01*
X170126Y247125D01*
X170105Y247216D01*
X170080Y247306D01*
X170052Y247395D01*
X170020Y247483D01*
X169984Y247569D01*
X169945Y247654D01*
X169902Y247737D01*
X169856Y247818D01*
X169806Y247897D01*
X169754Y247974D01*
X169698Y248049D01*
X169639Y248121D01*
X169577Y248191D01*
X169513Y248259D01*
X169445Y248323D01*
X169375Y248385D01*
X169303Y248444D01*
X169228Y248500D01*
X169151Y248552D01*
X169072Y248602D01*
X168991Y248648D01*
X168908Y248691D01*
X168823Y248730D01*
X168737Y248766D01*
X168649Y248798D01*
X168560Y248826D01*
X168470Y248851D01*
X168379Y248872D01*
X168288Y248889D01*
X168195Y248903D01*
X168102Y248912D01*
X168009Y248918D01*
X167916Y248920D01*
X165658Y248920D01*
X158333Y248920D02*
X160591Y241018D01*
X154946Y241018D01*
X156640Y243276D02*
X156640Y238760D01*
D11*
X566420Y317500D02*
X566420Y63500D01*
X566420Y317500D02*
X934720Y317500D01*
X934720Y63500D01*
X566420Y63500D01*
X570230Y300990D02*
X570234Y301302D01*
X570245Y301613D01*
X570264Y301924D01*
X570291Y302235D01*
X570326Y302545D01*
X570367Y302853D01*
X570417Y303161D01*
X570474Y303468D01*
X570539Y303773D01*
X570611Y304076D01*
X570690Y304377D01*
X570777Y304677D01*
X570871Y304974D01*
X570972Y305269D01*
X571081Y305561D01*
X571197Y305850D01*
X571320Y306137D01*
X571449Y306420D01*
X571586Y306700D01*
X571730Y306977D01*
X571880Y307250D01*
X572037Y307519D01*
X572200Y307784D01*
X572370Y308046D01*
X572547Y308303D01*
X572729Y308555D01*
X572918Y308803D01*
X573113Y309047D01*
X573313Y309285D01*
X573520Y309519D01*
X573732Y309747D01*
X573950Y309970D01*
X574173Y310188D01*
X574401Y310400D01*
X574635Y310607D01*
X574873Y310807D01*
X575117Y311002D01*
X575365Y311191D01*
X575617Y311373D01*
X575874Y311550D01*
X576136Y311720D01*
X576401Y311883D01*
X576670Y312040D01*
X576943Y312190D01*
X577220Y312334D01*
X577500Y312471D01*
X577783Y312600D01*
X578070Y312723D01*
X578359Y312839D01*
X578651Y312948D01*
X578946Y313049D01*
X579243Y313143D01*
X579543Y313230D01*
X579844Y313309D01*
X580147Y313381D01*
X580452Y313446D01*
X580759Y313503D01*
X581067Y313553D01*
X581375Y313594D01*
X581685Y313629D01*
X581996Y313656D01*
X582307Y313675D01*
X582618Y313686D01*
X582930Y313690D01*
X583242Y313686D01*
X583553Y313675D01*
X583864Y313656D01*
X584175Y313629D01*
X584485Y313594D01*
X584793Y313553D01*
X585101Y313503D01*
X585408Y313446D01*
X585713Y313381D01*
X586016Y313309D01*
X586317Y313230D01*
X586617Y313143D01*
X586914Y313049D01*
X587209Y312948D01*
X587501Y312839D01*
X587790Y312723D01*
X588077Y312600D01*
X588360Y312471D01*
X588640Y312334D01*
X588917Y312190D01*
X589190Y312040D01*
X589459Y311883D01*
X589724Y311720D01*
X589986Y311550D01*
X590243Y311373D01*
X590495Y311191D01*
X590743Y311002D01*
X590987Y310807D01*
X591225Y310607D01*
X591459Y310400D01*
X591687Y310188D01*
X591910Y309970D01*
X592128Y309747D01*
X592340Y309519D01*
X592547Y309285D01*
X592747Y309047D01*
X592942Y308803D01*
X593131Y308555D01*
X593313Y308303D01*
X593490Y308046D01*
X593660Y307784D01*
X593823Y307519D01*
X593980Y307250D01*
X594130Y306977D01*
X594274Y306700D01*
X594411Y306420D01*
X594540Y306137D01*
X594663Y305850D01*
X594779Y305561D01*
X594888Y305269D01*
X594989Y304974D01*
X595083Y304677D01*
X595170Y304377D01*
X595249Y304076D01*
X595321Y303773D01*
X595386Y303468D01*
X595443Y303161D01*
X595493Y302853D01*
X595534Y302545D01*
X595569Y302235D01*
X595596Y301924D01*
X595615Y301613D01*
X595626Y301302D01*
X595630Y300990D01*
X595626Y300678D01*
X595615Y300367D01*
X595596Y300056D01*
X595569Y299745D01*
X595534Y299435D01*
X595493Y299127D01*
X595443Y298819D01*
X595386Y298512D01*
X595321Y298207D01*
X595249Y297904D01*
X595170Y297603D01*
X595083Y297303D01*
X594989Y297006D01*
X594888Y296711D01*
X594779Y296419D01*
X594663Y296130D01*
X594540Y295843D01*
X594411Y295560D01*
X594274Y295280D01*
X594130Y295003D01*
X593980Y294730D01*
X593823Y294461D01*
X593660Y294196D01*
X593490Y293934D01*
X593313Y293677D01*
X593131Y293425D01*
X592942Y293177D01*
X592747Y292933D01*
X592547Y292695D01*
X592340Y292461D01*
X592128Y292233D01*
X591910Y292010D01*
X591687Y291792D01*
X591459Y291580D01*
X591225Y291373D01*
X590987Y291173D01*
X590743Y290978D01*
X590495Y290789D01*
X590243Y290607D01*
X589986Y290430D01*
X589724Y290260D01*
X589459Y290097D01*
X589190Y289940D01*
X588917Y289790D01*
X588640Y289646D01*
X588360Y289509D01*
X588077Y289380D01*
X587790Y289257D01*
X587501Y289141D01*
X587209Y289032D01*
X586914Y288931D01*
X586617Y288837D01*
X586317Y288750D01*
X586016Y288671D01*
X585713Y288599D01*
X585408Y288534D01*
X585101Y288477D01*
X584793Y288427D01*
X584485Y288386D01*
X584175Y288351D01*
X583864Y288324D01*
X583553Y288305D01*
X583242Y288294D01*
X582930Y288290D01*
X582618Y288294D01*
X582307Y288305D01*
X581996Y288324D01*
X581685Y288351D01*
X581375Y288386D01*
X581067Y288427D01*
X580759Y288477D01*
X580452Y288534D01*
X580147Y288599D01*
X579844Y288671D01*
X579543Y288750D01*
X579243Y288837D01*
X578946Y288931D01*
X578651Y289032D01*
X578359Y289141D01*
X578070Y289257D01*
X577783Y289380D01*
X577500Y289509D01*
X577220Y289646D01*
X576943Y289790D01*
X576670Y289940D01*
X576401Y290097D01*
X576136Y290260D01*
X575874Y290430D01*
X575617Y290607D01*
X575365Y290789D01*
X575117Y290978D01*
X574873Y291173D01*
X574635Y291373D01*
X574401Y291580D01*
X574173Y291792D01*
X573950Y292010D01*
X573732Y292233D01*
X573520Y292461D01*
X573313Y292695D01*
X573113Y292933D01*
X572918Y293177D01*
X572729Y293425D01*
X572547Y293677D01*
X572370Y293934D01*
X572200Y294196D01*
X572037Y294461D01*
X571880Y294730D01*
X571730Y295003D01*
X571586Y295280D01*
X571449Y295560D01*
X571320Y295843D01*
X571197Y296130D01*
X571081Y296419D01*
X570972Y296711D01*
X570871Y297006D01*
X570777Y297303D01*
X570690Y297603D01*
X570611Y297904D01*
X570539Y298207D01*
X570474Y298512D01*
X570417Y298819D01*
X570367Y299127D01*
X570326Y299435D01*
X570291Y299745D01*
X570264Y300056D01*
X570245Y300367D01*
X570234Y300678D01*
X570230Y300990D01*
X568960Y78740D02*
X568964Y79052D01*
X568975Y79363D01*
X568994Y79674D01*
X569021Y79985D01*
X569056Y80295D01*
X569097Y80603D01*
X569147Y80911D01*
X569204Y81218D01*
X569269Y81523D01*
X569341Y81826D01*
X569420Y82127D01*
X569507Y82427D01*
X569601Y82724D01*
X569702Y83019D01*
X569811Y83311D01*
X569927Y83600D01*
X570050Y83887D01*
X570179Y84170D01*
X570316Y84450D01*
X570460Y84727D01*
X570610Y85000D01*
X570767Y85269D01*
X570930Y85534D01*
X571100Y85796D01*
X571277Y86053D01*
X571459Y86305D01*
X571648Y86553D01*
X571843Y86797D01*
X572043Y87035D01*
X572250Y87269D01*
X572462Y87497D01*
X572680Y87720D01*
X572903Y87938D01*
X573131Y88150D01*
X573365Y88357D01*
X573603Y88557D01*
X573847Y88752D01*
X574095Y88941D01*
X574347Y89123D01*
X574604Y89300D01*
X574866Y89470D01*
X575131Y89633D01*
X575400Y89790D01*
X575673Y89940D01*
X575950Y90084D01*
X576230Y90221D01*
X576513Y90350D01*
X576800Y90473D01*
X577089Y90589D01*
X577381Y90698D01*
X577676Y90799D01*
X577973Y90893D01*
X578273Y90980D01*
X578574Y91059D01*
X578877Y91131D01*
X579182Y91196D01*
X579489Y91253D01*
X579797Y91303D01*
X580105Y91344D01*
X580415Y91379D01*
X580726Y91406D01*
X581037Y91425D01*
X581348Y91436D01*
X581660Y91440D01*
X581972Y91436D01*
X582283Y91425D01*
X582594Y91406D01*
X582905Y91379D01*
X583215Y91344D01*
X583523Y91303D01*
X583831Y91253D01*
X584138Y91196D01*
X584443Y91131D01*
X584746Y91059D01*
X585047Y90980D01*
X585347Y90893D01*
X585644Y90799D01*
X585939Y90698D01*
X586231Y90589D01*
X586520Y90473D01*
X586807Y90350D01*
X587090Y90221D01*
X587370Y90084D01*
X587647Y89940D01*
X587920Y89790D01*
X588189Y89633D01*
X588454Y89470D01*
X588716Y89300D01*
X588973Y89123D01*
X589225Y88941D01*
X589473Y88752D01*
X589717Y88557D01*
X589955Y88357D01*
X590189Y88150D01*
X590417Y87938D01*
X590640Y87720D01*
X590858Y87497D01*
X591070Y87269D01*
X591277Y87035D01*
X591477Y86797D01*
X591672Y86553D01*
X591861Y86305D01*
X592043Y86053D01*
X592220Y85796D01*
X592390Y85534D01*
X592553Y85269D01*
X592710Y85000D01*
X592860Y84727D01*
X593004Y84450D01*
X593141Y84170D01*
X593270Y83887D01*
X593393Y83600D01*
X593509Y83311D01*
X593618Y83019D01*
X593719Y82724D01*
X593813Y82427D01*
X593900Y82127D01*
X593979Y81826D01*
X594051Y81523D01*
X594116Y81218D01*
X594173Y80911D01*
X594223Y80603D01*
X594264Y80295D01*
X594299Y79985D01*
X594326Y79674D01*
X594345Y79363D01*
X594356Y79052D01*
X594360Y78740D01*
X594356Y78428D01*
X594345Y78117D01*
X594326Y77806D01*
X594299Y77495D01*
X594264Y77185D01*
X594223Y76877D01*
X594173Y76569D01*
X594116Y76262D01*
X594051Y75957D01*
X593979Y75654D01*
X593900Y75353D01*
X593813Y75053D01*
X593719Y74756D01*
X593618Y74461D01*
X593509Y74169D01*
X593393Y73880D01*
X593270Y73593D01*
X593141Y73310D01*
X593004Y73030D01*
X592860Y72753D01*
X592710Y72480D01*
X592553Y72211D01*
X592390Y71946D01*
X592220Y71684D01*
X592043Y71427D01*
X591861Y71175D01*
X591672Y70927D01*
X591477Y70683D01*
X591277Y70445D01*
X591070Y70211D01*
X590858Y69983D01*
X590640Y69760D01*
X590417Y69542D01*
X590189Y69330D01*
X589955Y69123D01*
X589717Y68923D01*
X589473Y68728D01*
X589225Y68539D01*
X588973Y68357D01*
X588716Y68180D01*
X588454Y68010D01*
X588189Y67847D01*
X587920Y67690D01*
X587647Y67540D01*
X587370Y67396D01*
X587090Y67259D01*
X586807Y67130D01*
X586520Y67007D01*
X586231Y66891D01*
X585939Y66782D01*
X585644Y66681D01*
X585347Y66587D01*
X585047Y66500D01*
X584746Y66421D01*
X584443Y66349D01*
X584138Y66284D01*
X583831Y66227D01*
X583523Y66177D01*
X583215Y66136D01*
X582905Y66101D01*
X582594Y66074D01*
X582283Y66055D01*
X581972Y66044D01*
X581660Y66040D01*
X581348Y66044D01*
X581037Y66055D01*
X580726Y66074D01*
X580415Y66101D01*
X580105Y66136D01*
X579797Y66177D01*
X579489Y66227D01*
X579182Y66284D01*
X578877Y66349D01*
X578574Y66421D01*
X578273Y66500D01*
X577973Y66587D01*
X577676Y66681D01*
X577381Y66782D01*
X577089Y66891D01*
X576800Y67007D01*
X576513Y67130D01*
X576230Y67259D01*
X575950Y67396D01*
X575673Y67540D01*
X575400Y67690D01*
X575131Y67847D01*
X574866Y68010D01*
X574604Y68180D01*
X574347Y68357D01*
X574095Y68539D01*
X573847Y68728D01*
X573603Y68923D01*
X573365Y69123D01*
X573131Y69330D01*
X572903Y69542D01*
X572680Y69760D01*
X572462Y69983D01*
X572250Y70211D01*
X572043Y70445D01*
X571843Y70683D01*
X571648Y70927D01*
X571459Y71175D01*
X571277Y71427D01*
X571100Y71684D01*
X570930Y71946D01*
X570767Y72211D01*
X570610Y72480D01*
X570460Y72753D01*
X570316Y73030D01*
X570179Y73310D01*
X570050Y73593D01*
X569927Y73880D01*
X569811Y74169D01*
X569702Y74461D01*
X569601Y74756D01*
X569507Y75053D01*
X569420Y75353D01*
X569341Y75654D01*
X569269Y75957D01*
X569204Y76262D01*
X569147Y76569D01*
X569097Y76877D01*
X569056Y77185D01*
X569021Y77495D01*
X568994Y77806D01*
X568975Y78117D01*
X568964Y78428D01*
X568960Y78740D01*
X906780Y300990D02*
X906784Y301302D01*
X906795Y301613D01*
X906814Y301924D01*
X906841Y302235D01*
X906876Y302545D01*
X906917Y302853D01*
X906967Y303161D01*
X907024Y303468D01*
X907089Y303773D01*
X907161Y304076D01*
X907240Y304377D01*
X907327Y304677D01*
X907421Y304974D01*
X907522Y305269D01*
X907631Y305561D01*
X907747Y305850D01*
X907870Y306137D01*
X907999Y306420D01*
X908136Y306700D01*
X908280Y306977D01*
X908430Y307250D01*
X908587Y307519D01*
X908750Y307784D01*
X908920Y308046D01*
X909097Y308303D01*
X909279Y308555D01*
X909468Y308803D01*
X909663Y309047D01*
X909863Y309285D01*
X910070Y309519D01*
X910282Y309747D01*
X910500Y309970D01*
X910723Y310188D01*
X910951Y310400D01*
X911185Y310607D01*
X911423Y310807D01*
X911667Y311002D01*
X911915Y311191D01*
X912167Y311373D01*
X912424Y311550D01*
X912686Y311720D01*
X912951Y311883D01*
X913220Y312040D01*
X913493Y312190D01*
X913770Y312334D01*
X914050Y312471D01*
X914333Y312600D01*
X914620Y312723D01*
X914909Y312839D01*
X915201Y312948D01*
X915496Y313049D01*
X915793Y313143D01*
X916093Y313230D01*
X916394Y313309D01*
X916697Y313381D01*
X917002Y313446D01*
X917309Y313503D01*
X917617Y313553D01*
X917925Y313594D01*
X918235Y313629D01*
X918546Y313656D01*
X918857Y313675D01*
X919168Y313686D01*
X919480Y313690D01*
X919792Y313686D01*
X920103Y313675D01*
X920414Y313656D01*
X920725Y313629D01*
X921035Y313594D01*
X921343Y313553D01*
X921651Y313503D01*
X921958Y313446D01*
X922263Y313381D01*
X922566Y313309D01*
X922867Y313230D01*
X923167Y313143D01*
X923464Y313049D01*
X923759Y312948D01*
X924051Y312839D01*
X924340Y312723D01*
X924627Y312600D01*
X924910Y312471D01*
X925190Y312334D01*
X925467Y312190D01*
X925740Y312040D01*
X926009Y311883D01*
X926274Y311720D01*
X926536Y311550D01*
X926793Y311373D01*
X927045Y311191D01*
X927293Y311002D01*
X927537Y310807D01*
X927775Y310607D01*
X928009Y310400D01*
X928237Y310188D01*
X928460Y309970D01*
X928678Y309747D01*
X928890Y309519D01*
X929097Y309285D01*
X929297Y309047D01*
X929492Y308803D01*
X929681Y308555D01*
X929863Y308303D01*
X930040Y308046D01*
X930210Y307784D01*
X930373Y307519D01*
X930530Y307250D01*
X930680Y306977D01*
X930824Y306700D01*
X930961Y306420D01*
X931090Y306137D01*
X931213Y305850D01*
X931329Y305561D01*
X931438Y305269D01*
X931539Y304974D01*
X931633Y304677D01*
X931720Y304377D01*
X931799Y304076D01*
X931871Y303773D01*
X931936Y303468D01*
X931993Y303161D01*
X932043Y302853D01*
X932084Y302545D01*
X932119Y302235D01*
X932146Y301924D01*
X932165Y301613D01*
X932176Y301302D01*
X932180Y300990D01*
X932176Y300678D01*
X932165Y300367D01*
X932146Y300056D01*
X932119Y299745D01*
X932084Y299435D01*
X932043Y299127D01*
X931993Y298819D01*
X931936Y298512D01*
X931871Y298207D01*
X931799Y297904D01*
X931720Y297603D01*
X931633Y297303D01*
X931539Y297006D01*
X931438Y296711D01*
X931329Y296419D01*
X931213Y296130D01*
X931090Y295843D01*
X930961Y295560D01*
X930824Y295280D01*
X930680Y295003D01*
X930530Y294730D01*
X930373Y294461D01*
X930210Y294196D01*
X930040Y293934D01*
X929863Y293677D01*
X929681Y293425D01*
X929492Y293177D01*
X929297Y292933D01*
X929097Y292695D01*
X928890Y292461D01*
X928678Y292233D01*
X928460Y292010D01*
X928237Y291792D01*
X928009Y291580D01*
X927775Y291373D01*
X927537Y291173D01*
X927293Y290978D01*
X927045Y290789D01*
X926793Y290607D01*
X926536Y290430D01*
X926274Y290260D01*
X926009Y290097D01*
X925740Y289940D01*
X925467Y289790D01*
X925190Y289646D01*
X924910Y289509D01*
X924627Y289380D01*
X924340Y289257D01*
X924051Y289141D01*
X923759Y289032D01*
X923464Y288931D01*
X923167Y288837D01*
X922867Y288750D01*
X922566Y288671D01*
X922263Y288599D01*
X921958Y288534D01*
X921651Y288477D01*
X921343Y288427D01*
X921035Y288386D01*
X920725Y288351D01*
X920414Y288324D01*
X920103Y288305D01*
X919792Y288294D01*
X919480Y288290D01*
X919168Y288294D01*
X918857Y288305D01*
X918546Y288324D01*
X918235Y288351D01*
X917925Y288386D01*
X917617Y288427D01*
X917309Y288477D01*
X917002Y288534D01*
X916697Y288599D01*
X916394Y288671D01*
X916093Y288750D01*
X915793Y288837D01*
X915496Y288931D01*
X915201Y289032D01*
X914909Y289141D01*
X914620Y289257D01*
X914333Y289380D01*
X914050Y289509D01*
X913770Y289646D01*
X913493Y289790D01*
X913220Y289940D01*
X912951Y290097D01*
X912686Y290260D01*
X912424Y290430D01*
X912167Y290607D01*
X911915Y290789D01*
X911667Y290978D01*
X911423Y291173D01*
X911185Y291373D01*
X910951Y291580D01*
X910723Y291792D01*
X910500Y292010D01*
X910282Y292233D01*
X910070Y292461D01*
X909863Y292695D01*
X909663Y292933D01*
X909468Y293177D01*
X909279Y293425D01*
X909097Y293677D01*
X908920Y293934D01*
X908750Y294196D01*
X908587Y294461D01*
X908430Y294730D01*
X908280Y295003D01*
X908136Y295280D01*
X907999Y295560D01*
X907870Y295843D01*
X907747Y296130D01*
X907631Y296419D01*
X907522Y296711D01*
X907421Y297006D01*
X907327Y297303D01*
X907240Y297603D01*
X907161Y297904D01*
X907089Y298207D01*
X907024Y298512D01*
X906967Y298819D01*
X906917Y299127D01*
X906876Y299435D01*
X906841Y299745D01*
X906814Y300056D01*
X906795Y300367D01*
X906784Y300678D01*
X906780Y300990D01*
X906780Y80010D02*
X906784Y80322D01*
X906795Y80633D01*
X906814Y80944D01*
X906841Y81255D01*
X906876Y81565D01*
X906917Y81873D01*
X906967Y82181D01*
X907024Y82488D01*
X907089Y82793D01*
X907161Y83096D01*
X907240Y83397D01*
X907327Y83697D01*
X907421Y83994D01*
X907522Y84289D01*
X907631Y84581D01*
X907747Y84870D01*
X907870Y85157D01*
X907999Y85440D01*
X908136Y85720D01*
X908280Y85997D01*
X908430Y86270D01*
X908587Y86539D01*
X908750Y86804D01*
X908920Y87066D01*
X909097Y87323D01*
X909279Y87575D01*
X909468Y87823D01*
X909663Y88067D01*
X909863Y88305D01*
X910070Y88539D01*
X910282Y88767D01*
X910500Y88990D01*
X910723Y89208D01*
X910951Y89420D01*
X911185Y89627D01*
X911423Y89827D01*
X911667Y90022D01*
X911915Y90211D01*
X912167Y90393D01*
X912424Y90570D01*
X912686Y90740D01*
X912951Y90903D01*
X913220Y91060D01*
X913493Y91210D01*
X913770Y91354D01*
X914050Y91491D01*
X914333Y91620D01*
X914620Y91743D01*
X914909Y91859D01*
X915201Y91968D01*
X915496Y92069D01*
X915793Y92163D01*
X916093Y92250D01*
X916394Y92329D01*
X916697Y92401D01*
X917002Y92466D01*
X917309Y92523D01*
X917617Y92573D01*
X917925Y92614D01*
X918235Y92649D01*
X918546Y92676D01*
X918857Y92695D01*
X919168Y92706D01*
X919480Y92710D01*
X919792Y92706D01*
X920103Y92695D01*
X920414Y92676D01*
X920725Y92649D01*
X921035Y92614D01*
X921343Y92573D01*
X921651Y92523D01*
X921958Y92466D01*
X922263Y92401D01*
X922566Y92329D01*
X922867Y92250D01*
X923167Y92163D01*
X923464Y92069D01*
X923759Y91968D01*
X924051Y91859D01*
X924340Y91743D01*
X924627Y91620D01*
X924910Y91491D01*
X925190Y91354D01*
X925467Y91210D01*
X925740Y91060D01*
X926009Y90903D01*
X926274Y90740D01*
X926536Y90570D01*
X926793Y90393D01*
X927045Y90211D01*
X927293Y90022D01*
X927537Y89827D01*
X927775Y89627D01*
X928009Y89420D01*
X928237Y89208D01*
X928460Y88990D01*
X928678Y88767D01*
X928890Y88539D01*
X929097Y88305D01*
X929297Y88067D01*
X929492Y87823D01*
X929681Y87575D01*
X929863Y87323D01*
X930040Y87066D01*
X930210Y86804D01*
X930373Y86539D01*
X930530Y86270D01*
X930680Y85997D01*
X930824Y85720D01*
X930961Y85440D01*
X931090Y85157D01*
X931213Y84870D01*
X931329Y84581D01*
X931438Y84289D01*
X931539Y83994D01*
X931633Y83697D01*
X931720Y83397D01*
X931799Y83096D01*
X931871Y82793D01*
X931936Y82488D01*
X931993Y82181D01*
X932043Y81873D01*
X932084Y81565D01*
X932119Y81255D01*
X932146Y80944D01*
X932165Y80633D01*
X932176Y80322D01*
X932180Y80010D01*
X932176Y79698D01*
X932165Y79387D01*
X932146Y79076D01*
X932119Y78765D01*
X932084Y78455D01*
X932043Y78147D01*
X931993Y77839D01*
X931936Y77532D01*
X931871Y77227D01*
X931799Y76924D01*
X931720Y76623D01*
X931633Y76323D01*
X931539Y76026D01*
X931438Y75731D01*
X931329Y75439D01*
X931213Y75150D01*
X931090Y74863D01*
X930961Y74580D01*
X930824Y74300D01*
X930680Y74023D01*
X930530Y73750D01*
X930373Y73481D01*
X930210Y73216D01*
X930040Y72954D01*
X929863Y72697D01*
X929681Y72445D01*
X929492Y72197D01*
X929297Y71953D01*
X929097Y71715D01*
X928890Y71481D01*
X928678Y71253D01*
X928460Y71030D01*
X928237Y70812D01*
X928009Y70600D01*
X927775Y70393D01*
X927537Y70193D01*
X927293Y69998D01*
X927045Y69809D01*
X926793Y69627D01*
X926536Y69450D01*
X926274Y69280D01*
X926009Y69117D01*
X925740Y68960D01*
X925467Y68810D01*
X925190Y68666D01*
X924910Y68529D01*
X924627Y68400D01*
X924340Y68277D01*
X924051Y68161D01*
X923759Y68052D01*
X923464Y67951D01*
X923167Y67857D01*
X922867Y67770D01*
X922566Y67691D01*
X922263Y67619D01*
X921958Y67554D01*
X921651Y67497D01*
X921343Y67447D01*
X921035Y67406D01*
X920725Y67371D01*
X920414Y67344D01*
X920103Y67325D01*
X919792Y67314D01*
X919480Y67310D01*
X919168Y67314D01*
X918857Y67325D01*
X918546Y67344D01*
X918235Y67371D01*
X917925Y67406D01*
X917617Y67447D01*
X917309Y67497D01*
X917002Y67554D01*
X916697Y67619D01*
X916394Y67691D01*
X916093Y67770D01*
X915793Y67857D01*
X915496Y67951D01*
X915201Y68052D01*
X914909Y68161D01*
X914620Y68277D01*
X914333Y68400D01*
X914050Y68529D01*
X913770Y68666D01*
X913493Y68810D01*
X913220Y68960D01*
X912951Y69117D01*
X912686Y69280D01*
X912424Y69450D01*
X912167Y69627D01*
X911915Y69809D01*
X911667Y69998D01*
X911423Y70193D01*
X911185Y70393D01*
X910951Y70600D01*
X910723Y70812D01*
X910500Y71030D01*
X910282Y71253D01*
X910070Y71481D01*
X909863Y71715D01*
X909663Y71953D01*
X909468Y72197D01*
X909279Y72445D01*
X909097Y72697D01*
X908920Y72954D01*
X908750Y73216D01*
X908587Y73481D01*
X908430Y73750D01*
X908280Y74023D01*
X908136Y74300D01*
X907999Y74580D01*
X907870Y74863D01*
X907747Y75150D01*
X907631Y75439D01*
X907522Y75731D01*
X907421Y76026D01*
X907327Y76323D01*
X907240Y76623D01*
X907161Y76924D01*
X907089Y77227D01*
X907024Y77532D01*
X906967Y77839D01*
X906917Y78147D01*
X906876Y78455D01*
X906841Y78765D01*
X906814Y79076D01*
X906795Y79387D01*
X906784Y79698D01*
X906780Y80010D01*
M02*
