G04 EAGLE Gerber RS-274X export*
G75*
%MOMM*%
%FSLAX34Y34*%
%LPD*%
%INSoldermask Top*%
%IPPOS*%
%AMOC8*
5,1,8,0,0,1.08239X$1,22.5*%
G01*
%ADD10C,2.403200*%
%ADD11P,1.635708X8X292.500000*%
%ADD12C,1.981200*%
%ADD13C,2.103200*%
%ADD14C,2.082800*%
%ADD15C,1.711200*%
%ADD16R,1.703200X2.003200*%
%ADD17R,0.983200X2.003200*%
%ADD18R,1.003200X1.403200*%
%ADD19R,1.371600X1.803400*%
%ADD20R,0.152400X1.828800*%
%ADD21C,1.703200*%
%ADD22C,1.309600*%


D10*
X24130Y312420D03*
X24130Y58420D03*
X557530Y58420D03*
X557530Y312420D03*
D11*
X49530Y312420D03*
X74930Y312420D03*
X100330Y312420D03*
X125730Y312420D03*
X151130Y312420D03*
X176530Y312420D03*
X201930Y312420D03*
X227330Y312420D03*
X252730Y312420D03*
X278130Y312420D03*
X303530Y312420D03*
X328930Y312420D03*
X354330Y312420D03*
X379730Y312420D03*
X405130Y312420D03*
X430530Y312420D03*
X455930Y312420D03*
X481330Y312420D03*
X506730Y312420D03*
X506730Y58420D03*
X481330Y58420D03*
X455930Y58420D03*
X430530Y58420D03*
X405130Y58420D03*
X379730Y58420D03*
X354330Y58420D03*
X328930Y58420D03*
X303530Y58420D03*
X278130Y58420D03*
X252730Y58420D03*
X227330Y58420D03*
X201930Y58420D03*
X176530Y58420D03*
X151130Y58420D03*
X125730Y58420D03*
X100330Y58420D03*
X74930Y58420D03*
X49530Y58420D03*
D12*
X314960Y148590D03*
X314960Y173990D03*
X314960Y199390D03*
D13*
X314960Y224790D03*
D14*
X449072Y214376D03*
X384048Y214376D03*
X449072Y169164D03*
X384048Y169164D03*
D15*
X579120Y228600D03*
X579120Y203200D03*
X579120Y177800D03*
X579120Y152400D03*
D16*
X923290Y311150D03*
X897890Y311150D03*
X872490Y311150D03*
X796290Y311150D03*
X770890Y311150D03*
X745490Y311150D03*
X720090Y311150D03*
X694690Y311150D03*
X669290Y311150D03*
X643890Y311150D03*
X618490Y311150D03*
X618490Y67310D03*
X643890Y67310D03*
X669290Y67310D03*
X694690Y67310D03*
X720090Y67310D03*
X745490Y67310D03*
X770890Y67310D03*
X796290Y67310D03*
X872490Y67310D03*
X897890Y67310D03*
X923290Y67310D03*
D17*
X923290Y261620D03*
X910590Y261620D03*
X897890Y261620D03*
X842010Y261620D03*
X829310Y261620D03*
X816610Y261620D03*
X803910Y261620D03*
X791210Y261620D03*
X778510Y261620D03*
X765810Y261620D03*
X753110Y261620D03*
X753110Y119380D03*
X765810Y119380D03*
X778510Y119380D03*
X791210Y119380D03*
X803910Y119380D03*
X816610Y119380D03*
X829310Y119380D03*
X842010Y119380D03*
X897890Y119380D03*
X910590Y119380D03*
X923290Y119380D03*
D18*
X682100Y353060D03*
X664100Y353060D03*
D19*
X138430Y102870D03*
X153670Y102870D03*
D20*
X146050Y102870D03*
D19*
X222250Y102870D03*
X237490Y102870D03*
D20*
X229870Y102870D03*
D19*
X257810Y102870D03*
X273050Y102870D03*
D20*
X265430Y102870D03*
D19*
X173990Y102870D03*
X189230Y102870D03*
D20*
X181610Y102870D03*
D21*
X243840Y195580D03*
X116840Y163830D03*
D22*
X162560Y189230D03*
X201930Y171450D03*
X656590Y353060D03*
X478790Y167640D03*
X201930Y138430D03*
D21*
X243840Y160020D03*
X116840Y201930D03*
D22*
X162560Y222250D03*
X688340Y353060D03*
X478790Y215900D03*
M02*
