G04 EAGLE Gerber RS-274X export*
G75*
%MOMM*%
%FSLAX34Y34*%
%LPD*%
%INSoldermask Bottom*%
%IPPOS*%
%AMOC8*
5,1,8,0,0,1.08239X$1,22.5*%
G01*
%ADD10C,2.403200*%
%ADD11P,1.635708X8X292.500000*%
%ADD12C,1.981200*%
%ADD13C,2.103200*%
%ADD14R,2.903200X2.753200*%
%ADD15R,1.403200X1.003200*%
%ADD16C,2.082800*%
%ADD17R,1.603200X1.603200*%
%ADD18R,2.263200X1.473200*%
%ADD19C,1.711200*%
%ADD20C,1.703200*%
%ADD21C,1.309600*%


D10*
X24130Y312420D03*
X24130Y58420D03*
X557530Y58420D03*
X557530Y312420D03*
D11*
X49530Y312420D03*
X74930Y312420D03*
X100330Y312420D03*
X125730Y312420D03*
X151130Y312420D03*
X176530Y312420D03*
X201930Y312420D03*
X227330Y312420D03*
X252730Y312420D03*
X278130Y312420D03*
X303530Y312420D03*
X328930Y312420D03*
X354330Y312420D03*
X379730Y312420D03*
X405130Y312420D03*
X430530Y312420D03*
X455930Y312420D03*
X481330Y312420D03*
X506730Y312420D03*
X506730Y58420D03*
X481330Y58420D03*
X455930Y58420D03*
X430530Y58420D03*
X405130Y58420D03*
X379730Y58420D03*
X354330Y58420D03*
X328930Y58420D03*
X303530Y58420D03*
X278130Y58420D03*
X252730Y58420D03*
X227330Y58420D03*
X201930Y58420D03*
X176530Y58420D03*
X151130Y58420D03*
X125730Y58420D03*
X100330Y58420D03*
X74930Y58420D03*
X49530Y58420D03*
D12*
X314960Y148590D03*
X314960Y173990D03*
X314960Y199390D03*
D13*
X314960Y224790D03*
D14*
X243840Y209500D03*
X243840Y146100D03*
D15*
X201930Y145940D03*
X201930Y163940D03*
D16*
X449072Y214376D03*
X384048Y214376D03*
X449072Y169164D03*
X384048Y169164D03*
D17*
X662940Y285750D03*
X645160Y285750D03*
X627380Y285750D03*
D18*
X478790Y174220D03*
X478790Y209320D03*
D14*
X116840Y151180D03*
X116840Y214580D03*
D15*
X162560Y214740D03*
X162560Y196740D03*
D19*
X579120Y228600D03*
X579120Y203200D03*
X579120Y177800D03*
X579120Y152400D03*
D20*
X243840Y195580D03*
X116840Y163830D03*
D21*
X162560Y189230D03*
X201930Y171450D03*
X656590Y353060D03*
X478790Y167640D03*
X201930Y138430D03*
D20*
X243840Y160020D03*
X116840Y201930D03*
D21*
X162560Y222250D03*
X688340Y353060D03*
X478790Y215900D03*
M02*
