M48
;GenerationSoftware,Autodesk,EAGLE,9.6.2*%
;CreationDate,2022-05-13T21:26:36Z*%
FMAT,2
ICI,OFF
METRIC,TZ,000.000
T7C0.300
T6C0.650
T5C0.700
T4C0.813
T3C1.000
T2C1.016
T1C2.200
%
G90
M71
T1
X11000Y2250
X44250Y30000
X44750Y24500
X44750Y2250
T2
X7958Y1934
X1456Y1934
X1456Y6456
X7958Y6456
T3
X30067Y9176
X24066Y57779
X55467Y4096
X45001Y9511
X45001Y12051
X22250Y8000
X45001Y14591
X45001Y17131
X31686Y57779
X30067Y4096
X16250Y8000
X30067Y6636
X30067Y11716
X30067Y14256
X30067Y16796
X30067Y19336
X30067Y21876
X30067Y24416
X30067Y26956
X30067Y29496
X30067Y32036
X30067Y34576
X30067Y37116
X30067Y39656
X30067Y42196
X30067Y44736
X30067Y47276
X30067Y49816
X55467Y49816
X55467Y47276
X55467Y44736
X55467Y42196
X55467Y39656
X55467Y37116
X55467Y34576
X55467Y32036
X55467Y29496
X55467Y26956
X55467Y24416
X55467Y21876
X55467Y19336
X55467Y16796
X55467Y14256
X55467Y11716
X55467Y9176
X55467Y6636
X29146Y57779
X26606Y57779
T4
X10480Y11750
X11750Y13655
X13020Y11750
T5
X50258Y11963
X50258Y9463
X51791Y25432
X49291Y25480
T6
X50369Y1996
X51943Y20828
X2413Y13208
X50369Y4623
X48246Y4623
X49276Y20828
X6858Y13208
X48246Y1996
X21463Y14732
X17145Y14732
T7
X1270Y55880
X1270Y58420
X27686Y25400
X27686Y22860
X3048Y31877
X3048Y29210
X5588Y22860
X3810Y58420
X6350Y58420
X8890Y58420
X36957Y54864
X43307Y53467
X11430Y58420
X13970Y58420
X16510Y58420
X19050Y58420
X21590Y58420
X34290Y58420
X18542Y34036
X36830Y58420
X39370Y58420
X41910Y58420
X44450Y58420
X46990Y58420
X49530Y58420
X52070Y58420
X54610Y58420
X1270Y53340
X1270Y44450
X1270Y41910
X1270Y17780
X1270Y15240
X1270Y11430
X13970Y1270
X16510Y1270
X19050Y1270
X21590Y1270
X24130Y1270
X26670Y1270
X33020Y1270
X35560Y1270
X38100Y1270
X40640Y1270
X53340Y1270
X36830Y35560
X40640Y35560
X44450Y35560
X49530Y35560
X36830Y30480
X40640Y30480
X47200Y30480
X49530Y30480
X34290Y49530
X38100Y49530
X16510Y45720
X41910Y49530
X45720Y49530
X49530Y49530
X10160Y33020
X15240Y33020
X10160Y50800
X10160Y45720
X10160Y40640
X16510Y50800
X3048Y15621
X34925Y38227
X35687Y38227
X36449Y38227
X19685Y41910
X32131Y36576
X27686Y30480
X5588Y24638
X6350Y24638
M30